G04 (created by PCBNEW (2013-07-07 BZR 4022)-stable) date 01/11/2014 14:35:36*
%MOIN*%
G04 Gerber Fmt 3.4, Leading zero omitted, Abs format*
%FSLAX34Y34*%
G01*
G70*
G90*
G04 APERTURE LIST*
%ADD10C,0.00590551*%
%ADD11C,0.00393701*%
%ADD12R,0.0433X0.0472*%
%ADD13R,0.025X0.045*%
%ADD14R,0.045X0.025*%
%ADD15R,0.144X0.08*%
%ADD16R,0.04X0.08*%
%ADD17R,0.035X0.055*%
%ADD18R,0.055X0.035*%
%ADD19C,0.0354*%
%ADD20R,0.05X0.025*%
%ADD21C,0.177165*%
%ADD22O,0.019685X0.019685*%
%ADD23R,0.06X0.06*%
%ADD24C,0.06*%
%ADD25C,0.025*%
%ADD26C,0.012*%
%ADD27C,0.008*%
G04 APERTURE END LIST*
G54D10*
G54D11*
X10750Y0D02*
X20000Y0D01*
X11000Y-250D02*
X10750Y0D01*
X11000Y-1750D02*
X11000Y-250D01*
X10750Y-2000D02*
X11000Y-1750D01*
X9250Y-2000D02*
X10750Y-2000D01*
X9000Y-1750D02*
X9250Y-2000D01*
X9000Y-250D02*
X9000Y-1750D01*
X9250Y0D02*
X9000Y-250D01*
X0Y0D02*
X9250Y0D01*
X10750Y16000D02*
X20000Y16000D01*
X10750Y16250D02*
X10750Y16000D01*
X11000Y16500D02*
X10750Y16250D01*
X11000Y17750D02*
X11000Y16500D01*
X10750Y18000D02*
X11000Y17750D01*
X9250Y18000D02*
X10750Y18000D01*
X9000Y17750D02*
X9250Y18000D01*
X9000Y16500D02*
X9000Y17750D01*
X9250Y16250D02*
X9000Y16500D01*
X9250Y16000D02*
X9250Y16250D01*
X0Y16000D02*
X9250Y16000D01*
X20000Y16000D02*
X20000Y0D01*
X0Y0D02*
X0Y16000D01*
G54D12*
X7455Y12317D03*
X8085Y13183D03*
X7455Y13183D03*
X8085Y12317D03*
G54D13*
X6450Y10750D03*
X7050Y10750D03*
X9200Y7750D03*
X9800Y7750D03*
X9200Y7000D03*
X9800Y7000D03*
X9200Y9250D03*
X9800Y9250D03*
G54D14*
X6750Y12450D03*
X6750Y13050D03*
X8750Y13050D03*
X8750Y12450D03*
G54D13*
X9200Y8500D03*
X9800Y8500D03*
X15550Y8000D03*
X14950Y8000D03*
G54D14*
X13750Y11050D03*
X13750Y10450D03*
X14500Y9550D03*
X14500Y8950D03*
G54D13*
X9200Y6250D03*
X9800Y6250D03*
G54D14*
X15500Y4700D03*
X15500Y5300D03*
X12500Y4700D03*
X12500Y5300D03*
G54D13*
X6450Y9250D03*
X7050Y9250D03*
X6450Y11500D03*
X7050Y11500D03*
G54D14*
X9000Y4700D03*
X9000Y5300D03*
X10750Y4700D03*
X10750Y5300D03*
X8250Y4700D03*
X8250Y5300D03*
X9500Y11300D03*
X9500Y10700D03*
X10250Y11300D03*
X10250Y10700D03*
G54D13*
X6450Y10000D03*
X7050Y10000D03*
G54D14*
X14750Y4700D03*
X14750Y5300D03*
G54D13*
X15550Y7000D03*
X14950Y7000D03*
G54D14*
X14500Y11050D03*
X14500Y10450D03*
G54D15*
X12500Y6950D03*
G54D16*
X12500Y9550D03*
X13400Y9550D03*
X11600Y9550D03*
G54D17*
X5875Y3750D03*
X6625Y3750D03*
G54D18*
X9750Y4625D03*
X9750Y5375D03*
X11500Y4625D03*
X11500Y5375D03*
X11250Y10625D03*
X11250Y11375D03*
G54D17*
X6375Y8250D03*
X7125Y8250D03*
G54D19*
X4366Y14343D03*
X2634Y14343D03*
G54D20*
X3150Y5750D03*
X3150Y6250D03*
X3150Y6750D03*
X3150Y7250D03*
X5350Y7250D03*
X5350Y6750D03*
X5350Y6250D03*
X5350Y5750D03*
G54D13*
X5050Y4750D03*
X4450Y4750D03*
X4550Y8000D03*
X3950Y8000D03*
G54D21*
X10000Y17000D03*
X10000Y-1000D03*
G54D22*
X5498Y9387D03*
X5498Y9112D03*
G54D13*
X3550Y4750D03*
X2950Y4750D03*
G54D23*
X18500Y15500D03*
G54D24*
X18500Y14500D03*
X18500Y13500D03*
X18500Y12500D03*
X18500Y11500D03*
X18500Y10500D03*
X18500Y9500D03*
X18500Y8500D03*
X18500Y7500D03*
X18500Y6500D03*
X18500Y5500D03*
X18500Y4500D03*
X18500Y3500D03*
X18500Y2500D03*
X18500Y1500D03*
X18500Y500D03*
G54D23*
X19500Y15500D03*
G54D24*
X19500Y14500D03*
X19500Y13500D03*
X19500Y12500D03*
X19500Y11500D03*
X19500Y10500D03*
X19500Y9500D03*
X19500Y8500D03*
X19500Y7500D03*
X19500Y6500D03*
X19500Y5500D03*
X19500Y4500D03*
X19500Y3500D03*
X19500Y2500D03*
X19500Y1500D03*
X19500Y500D03*
G54D23*
X500Y15500D03*
G54D24*
X500Y14500D03*
X500Y13500D03*
X500Y12500D03*
X500Y11500D03*
X500Y10500D03*
X500Y9500D03*
X500Y8500D03*
X500Y7500D03*
X500Y6500D03*
X500Y5500D03*
X500Y4500D03*
X500Y3500D03*
X500Y2500D03*
X500Y1500D03*
X500Y500D03*
G54D23*
X6500Y15500D03*
G54D24*
X7500Y15500D03*
X8500Y15500D03*
X9500Y15500D03*
X10500Y15500D03*
X11500Y15500D03*
X12500Y15500D03*
X13500Y15500D03*
X14500Y15500D03*
X15500Y15500D03*
X16500Y15500D03*
X17500Y15500D03*
G54D23*
X2500Y1500D03*
G54D24*
X3500Y1500D03*
X4500Y1500D03*
X5500Y1500D03*
X6500Y1500D03*
X7500Y1500D03*
X8500Y1500D03*
X9500Y1500D03*
X10500Y1500D03*
X11500Y1500D03*
X12500Y1500D03*
X13500Y1500D03*
X14500Y1500D03*
X15500Y1500D03*
X16500Y1500D03*
X17500Y1500D03*
G54D23*
X2500Y500D03*
G54D24*
X3500Y500D03*
X4500Y500D03*
X5500Y500D03*
X6500Y500D03*
X7500Y500D03*
X8500Y500D03*
X9500Y500D03*
X10500Y500D03*
X11500Y500D03*
X12500Y500D03*
X13500Y500D03*
X14500Y500D03*
X15500Y500D03*
X16500Y500D03*
X17500Y500D03*
G54D23*
X6500Y14500D03*
G54D24*
X7500Y14500D03*
X8500Y14500D03*
X9500Y14500D03*
X10500Y14500D03*
X11500Y14500D03*
X12500Y14500D03*
X13500Y14500D03*
X14500Y14500D03*
X15500Y14500D03*
X16500Y14500D03*
X17500Y14500D03*
G54D25*
X1816Y4229D03*
X7688Y7569D03*
X10241Y5298D03*
X7641Y6613D03*
X14025Y11491D03*
X13891Y5256D03*
X15914Y7635D03*
X5105Y11108D03*
X4729Y11759D03*
X10251Y11751D03*
X8869Y9153D03*
X8862Y6945D03*
X14314Y4577D03*
X14244Y11777D03*
X15969Y7101D03*
X9449Y11678D03*
X9182Y2434D03*
X10498Y4211D03*
X10662Y3174D03*
X11773Y4227D03*
X11258Y12815D03*
X11614Y2873D03*
X11972Y3174D03*
X15204Y11685D03*
X12223Y13616D03*
X10085Y13709D03*
X17456Y5914D03*
X9199Y5685D03*
X7331Y5352D03*
X18060Y939D03*
X17723Y8085D03*
X17592Y5188D03*
X6018Y12574D03*
X6863Y7597D03*
X15500Y5632D03*
X2637Y6321D03*
X14479Y7941D03*
X5463Y3756D03*
X10130Y8972D03*
X9788Y11772D03*
X10681Y12793D03*
X6744Y11095D03*
X9141Y12796D03*
X8790Y3779D03*
X6675Y13400D03*
X16285Y4145D03*
X14616Y4228D03*
X16506Y12193D03*
X16218Y12465D03*
X15399Y3197D03*
X17489Y4156D03*
X16683Y2931D03*
X17943Y11156D03*
X16278Y5441D03*
X1954Y7476D03*
X10637Y11783D03*
X2982Y8329D03*
X5852Y13755D03*
X17166Y13775D03*
X12820Y12950D03*
X10385Y9213D03*
X5761Y10860D03*
X8869Y4309D03*
X7587Y10657D03*
X9342Y4215D03*
G54D26*
X12500Y6950D02*
X12113Y6950D01*
X12113Y6950D02*
X11727Y6950D01*
X12500Y9550D02*
X12500Y9009D01*
X12113Y8623D02*
X12500Y9009D01*
X12113Y6950D02*
X12113Y8623D01*
X7125Y8250D02*
X7440Y8250D01*
X9750Y5375D02*
X9750Y5690D01*
X11500Y6575D02*
X11500Y5375D01*
X11562Y6637D02*
X11500Y6575D01*
X11562Y6784D02*
X11562Y6637D01*
X11727Y6950D02*
X11562Y6784D01*
X15500Y4700D02*
X15500Y4965D01*
X9465Y5975D02*
X9750Y5690D01*
X9465Y6250D02*
X9465Y5975D01*
X9200Y6250D02*
X9465Y6250D01*
X9200Y7750D02*
X8934Y7750D01*
X8754Y7569D02*
X7688Y7569D01*
X8934Y7750D02*
X8754Y7569D01*
X7688Y8001D02*
X7688Y7569D01*
X7440Y8250D02*
X7688Y8001D01*
X9750Y5375D02*
X10165Y5375D01*
X3550Y4750D02*
X3284Y4750D01*
X3284Y4518D02*
X3284Y4750D01*
X3149Y4382D02*
X3284Y4518D01*
X1923Y4382D02*
X3149Y4382D01*
X1923Y4336D02*
X1923Y4382D01*
X1816Y4229D02*
X1923Y4336D01*
X1923Y5076D02*
X500Y6500D01*
X1923Y4382D02*
X1923Y5076D01*
X3550Y4750D02*
X4450Y4750D01*
X4450Y4750D02*
X4715Y4750D01*
X5412Y4384D02*
X7641Y6613D01*
X4848Y4384D02*
X5412Y4384D01*
X4715Y4518D02*
X4848Y4384D01*
X4715Y4750D02*
X4715Y4518D01*
X7641Y7521D02*
X7688Y7569D01*
X7641Y6613D02*
X7641Y7521D01*
X13750Y11050D02*
X13750Y11315D01*
X14807Y11315D02*
X14025Y11315D01*
X15550Y10572D02*
X14807Y11315D01*
X15550Y8000D02*
X15550Y10572D01*
X14025Y11315D02*
X13750Y11315D01*
X14025Y11315D02*
X14025Y11491D01*
X11500Y5375D02*
X11500Y5059D01*
X10165Y5375D02*
X10241Y5298D01*
X11474Y5034D02*
X11500Y5059D01*
X10429Y5034D02*
X11474Y5034D01*
X10241Y5223D02*
X10429Y5034D01*
X10241Y5298D02*
X10241Y5223D01*
X12500Y4700D02*
X12500Y4965D01*
X11594Y4965D02*
X12500Y4965D01*
X11500Y5059D02*
X11594Y4965D01*
X13891Y5256D02*
X13891Y5034D01*
X13961Y4965D02*
X15500Y4965D01*
X13891Y5034D02*
X13961Y4965D01*
X13821Y4965D02*
X12500Y4965D01*
X13891Y5034D02*
X13821Y4965D01*
X15815Y7734D02*
X15815Y8000D01*
X15914Y7635D02*
X15815Y7734D01*
X15550Y8000D02*
X15815Y8000D01*
X5350Y7250D02*
X4959Y7250D01*
X4550Y8000D02*
X4550Y7634D01*
X4550Y8000D02*
X4550Y8365D01*
X13400Y9550D02*
X13400Y9461D01*
X14046Y9461D02*
X14134Y9550D01*
X13400Y9461D02*
X14046Y9461D01*
X14500Y9550D02*
X14134Y9550D01*
X5350Y6250D02*
X4959Y6250D01*
X4575Y7634D02*
X4959Y7250D01*
X4550Y7634D02*
X4575Y7634D01*
X4959Y7250D02*
X4959Y6250D01*
X4550Y10553D02*
X5105Y11108D01*
X4550Y8365D02*
X4550Y10553D01*
X9021Y10090D02*
X13400Y10090D01*
X7246Y11865D02*
X9021Y10090D01*
X5862Y11865D02*
X7246Y11865D01*
X5105Y11108D02*
X5862Y11865D01*
X13400Y9550D02*
X13400Y10090D01*
X3989Y12500D02*
X4729Y11759D01*
X500Y12500D02*
X3989Y12500D01*
G54D27*
X3150Y6250D02*
X3520Y6250D01*
X10251Y12081D02*
X10251Y11751D01*
X8674Y13658D02*
X10251Y12081D01*
X6586Y13658D02*
X8674Y13658D01*
X6239Y13310D02*
X6586Y13658D01*
X6239Y12700D02*
X6239Y13310D01*
X6263Y12676D02*
X6239Y12700D01*
X6263Y12473D02*
X6263Y12676D01*
X6120Y12329D02*
X6263Y12473D01*
X5979Y12329D02*
X6120Y12329D01*
X4195Y10544D02*
X5979Y12329D01*
X4195Y6925D02*
X4195Y10544D01*
X3520Y6250D02*
X4195Y6925D01*
X9274Y8919D02*
X9274Y9250D01*
X9200Y8845D02*
X9274Y8919D01*
X9200Y8500D02*
X9200Y8845D01*
X9445Y7000D02*
X9445Y8500D01*
X9200Y7000D02*
X9445Y7000D01*
X9200Y8500D02*
X9445Y8500D01*
X9237Y9250D02*
X9274Y9250D01*
X9237Y9250D02*
X9200Y9250D01*
X8954Y9238D02*
X8869Y9153D01*
X8954Y9250D02*
X8954Y9238D01*
X9200Y9250D02*
X8954Y9250D01*
X9200Y7000D02*
X8954Y7000D01*
X8900Y6945D02*
X8862Y6945D01*
X8954Y7000D02*
X8900Y6945D01*
X14750Y4700D02*
X14750Y4577D01*
X14750Y4577D02*
X14314Y4577D01*
X11250Y10625D02*
X11645Y10625D01*
X14750Y4577D02*
X14750Y4454D01*
X15794Y4454D02*
X14750Y4454D01*
X15847Y4507D02*
X15794Y4454D01*
X15847Y7000D02*
X15847Y4507D01*
X15867Y7000D02*
X15847Y7000D01*
X15969Y7101D02*
X15867Y7000D01*
X15847Y7000D02*
X15795Y7000D01*
X13938Y11777D02*
X14244Y11777D01*
X13395Y11235D02*
X13938Y11777D01*
X13395Y10804D02*
X13395Y11235D01*
X11825Y10804D02*
X13395Y10804D01*
X11645Y10625D02*
X11825Y10804D01*
X13395Y10804D02*
X14500Y10804D01*
X14500Y11050D02*
X14500Y10804D01*
X15550Y7000D02*
X15632Y7000D01*
X15632Y7000D02*
X15795Y7000D01*
X14676Y10804D02*
X14500Y10804D01*
X15244Y10236D02*
X14676Y10804D01*
X15244Y7388D02*
X15244Y10236D01*
X15632Y7000D02*
X15244Y7388D01*
X10250Y11300D02*
X9500Y11300D01*
X9500Y11300D02*
X9500Y11545D01*
X9500Y11627D02*
X9449Y11678D01*
X9500Y11545D02*
X9500Y11627D01*
X10779Y11300D02*
X10250Y11300D01*
X10854Y11375D02*
X10779Y11300D01*
X11250Y11375D02*
X10854Y11375D01*
X8836Y2434D02*
X9182Y2434D01*
X8000Y1598D02*
X8836Y2434D01*
X8000Y1405D02*
X8000Y1598D01*
X7674Y1079D02*
X8000Y1405D01*
X7079Y1079D02*
X7674Y1079D01*
X6500Y500D02*
X7079Y1079D01*
X10498Y3402D02*
X10498Y4211D01*
X8595Y1500D02*
X10498Y3402D01*
X8500Y1500D02*
X8595Y1500D01*
X10662Y3174D02*
X10662Y3174D01*
X10571Y3174D02*
X10662Y3174D01*
X9000Y1603D02*
X10571Y3174D01*
X9000Y1000D02*
X9000Y1603D01*
X8500Y500D02*
X9000Y1000D01*
X11064Y3518D02*
X11773Y4227D01*
X11064Y1064D02*
X11064Y3518D01*
X10500Y500D02*
X11064Y1064D01*
X11258Y13147D02*
X11258Y12815D01*
X9920Y14485D02*
X11258Y13147D01*
X9920Y14702D02*
X9920Y14485D01*
X9622Y15000D02*
X9920Y14702D01*
X9000Y15000D02*
X9622Y15000D01*
X8500Y15500D02*
X9000Y15000D01*
X12000Y2488D02*
X11614Y2873D01*
X12000Y1000D02*
X12000Y2488D01*
X12500Y500D02*
X12000Y1000D01*
X13065Y2081D02*
X11972Y3174D01*
X13065Y934D02*
X13065Y2081D01*
X13500Y500D02*
X13065Y934D01*
X16361Y11685D02*
X15204Y11685D01*
X17697Y13021D02*
X16361Y11685D01*
X17697Y13697D02*
X17697Y13021D01*
X18500Y14500D02*
X17697Y13697D01*
X11938Y13901D02*
X12223Y13616D01*
X11938Y15061D02*
X11938Y13901D01*
X11500Y15500D02*
X11938Y15061D01*
X9687Y13709D02*
X10085Y13709D01*
X9002Y14394D02*
X9687Y13709D01*
X9002Y14591D02*
X9002Y14394D01*
X8674Y14920D02*
X9002Y14591D01*
X8079Y14920D02*
X8674Y14920D01*
X7500Y15500D02*
X8079Y14920D01*
X18500Y4871D02*
X17456Y5914D01*
X18500Y4500D02*
X18500Y4871D01*
X9345Y5540D02*
X9199Y5685D01*
X9345Y5125D02*
X9345Y5540D01*
X9274Y5054D02*
X9345Y5125D01*
X7886Y5054D02*
X9274Y5054D01*
X7320Y4489D02*
X7886Y5054D01*
X6724Y4489D02*
X7320Y4489D01*
X6282Y4047D02*
X6724Y4489D01*
X6282Y3532D02*
X6282Y4047D01*
X5672Y2922D02*
X6282Y3532D01*
X5305Y2922D02*
X5672Y2922D01*
X4000Y1616D02*
X5305Y2922D01*
X4000Y1405D02*
X4000Y1616D01*
X3514Y920D02*
X4000Y1405D01*
X3287Y920D02*
X3514Y920D01*
X2920Y552D02*
X3287Y920D01*
X2920Y500D02*
X2920Y552D01*
X2500Y500D02*
X2920Y500D01*
X2500Y1500D02*
X2920Y1500D01*
X6668Y5352D02*
X7331Y5352D01*
X2920Y1605D02*
X6668Y5352D01*
X2920Y1500D02*
X2920Y1605D01*
X18500Y500D02*
X18060Y939D01*
X17744Y8064D02*
X17723Y8085D01*
X19064Y8064D02*
X17744Y8064D01*
X19500Y8500D02*
X19064Y8064D01*
X17592Y4407D02*
X17592Y5188D01*
X18500Y3500D02*
X17592Y4407D01*
X5998Y12574D02*
X6018Y12574D01*
X4923Y11500D02*
X5998Y12574D01*
X500Y11500D02*
X4923Y11500D01*
X721Y7721D02*
X500Y7500D01*
X2056Y7721D02*
X721Y7721D01*
X2199Y7578D02*
X2056Y7721D01*
X2199Y6411D02*
X2199Y7578D01*
X2616Y5995D02*
X2199Y6411D01*
X3999Y5995D02*
X2616Y5995D01*
X4508Y5485D02*
X3999Y5995D01*
X5748Y5485D02*
X4508Y5485D01*
X6863Y6599D02*
X5748Y5485D01*
X6863Y7597D02*
X6863Y6599D01*
X14950Y7000D02*
X14950Y6654D01*
X9800Y7000D02*
X9800Y6654D01*
X9500Y10700D02*
X9500Y10945D01*
X8085Y12317D02*
X8085Y12673D01*
X15500Y5300D02*
X15500Y5545D01*
X3150Y6750D02*
X3520Y6750D01*
X3950Y8000D02*
X3704Y8000D01*
X7964Y12673D02*
X8085Y12673D01*
X7455Y13182D02*
X7964Y12673D01*
X7095Y13159D02*
X7118Y13182D01*
X7095Y13050D02*
X7095Y13159D01*
X7455Y13182D02*
X7118Y13182D01*
X6750Y13050D02*
X7095Y13050D01*
X8085Y12317D02*
X8421Y12317D01*
X8750Y12317D02*
X8421Y12317D01*
X8750Y12317D02*
X8750Y12450D01*
X9800Y7750D02*
X9800Y7000D01*
X14500Y8950D02*
X14500Y9195D01*
X14683Y9195D02*
X14500Y9195D01*
X14845Y9356D02*
X14683Y9195D01*
X14845Y9859D02*
X14845Y9356D01*
X14500Y10204D02*
X14845Y9859D01*
X14500Y8950D02*
X14500Y8704D01*
X3150Y6750D02*
X2779Y6750D01*
X3520Y7815D02*
X3704Y8000D01*
X3520Y6750D02*
X3520Y7815D01*
X14500Y8023D02*
X14500Y8704D01*
X14681Y8023D02*
X14500Y8023D01*
X14704Y8000D02*
X14681Y8023D01*
X14479Y8003D02*
X14479Y7941D01*
X14500Y8023D02*
X14479Y8003D01*
X14950Y8000D02*
X14827Y8000D01*
X14827Y8000D02*
X14704Y8000D01*
X14827Y7467D02*
X14950Y7345D01*
X14827Y8000D02*
X14827Y7467D01*
X14950Y7000D02*
X14950Y7345D01*
X1204Y10500D02*
X3704Y8000D01*
X500Y10500D02*
X1204Y10500D01*
X7050Y11500D02*
X7050Y11154D01*
X2779Y6463D02*
X2637Y6321D01*
X2779Y6750D02*
X2779Y6463D01*
X5573Y3756D02*
X5579Y3750D01*
X5463Y3756D02*
X5573Y3756D01*
X9800Y7750D02*
X9800Y8500D01*
X9800Y6654D02*
X9800Y6250D01*
X10750Y5545D02*
X10045Y6250D01*
X10750Y5300D02*
X10750Y5545D01*
X9800Y6250D02*
X10045Y6250D01*
X5875Y3750D02*
X5726Y3750D01*
X5726Y3750D02*
X5579Y3750D01*
X7671Y5067D02*
X7904Y5300D01*
X7043Y5067D02*
X7671Y5067D01*
X5726Y3750D02*
X7043Y5067D01*
X8250Y5300D02*
X7904Y5300D01*
X9800Y8500D02*
X9800Y8712D01*
X9800Y8712D02*
X9800Y8972D01*
X13750Y10450D02*
X13404Y10450D01*
X14500Y10450D02*
X14500Y10327D01*
X14500Y10327D02*
X14500Y10204D01*
X14217Y10327D02*
X14095Y10450D01*
X14500Y10327D02*
X14217Y10327D01*
X13750Y10450D02*
X14095Y10450D01*
X7050Y10750D02*
X7050Y10909D01*
X7050Y10909D02*
X7050Y11154D01*
X7050Y9250D02*
X7050Y10000D01*
X7050Y10000D02*
X7295Y10000D01*
X10250Y10700D02*
X10250Y10577D01*
X10250Y10577D02*
X10250Y10454D01*
X9967Y10577D02*
X9845Y10700D01*
X10250Y10577D02*
X9967Y10577D01*
X9500Y10700D02*
X9845Y10700D01*
X15500Y5545D02*
X15500Y5632D01*
X9800Y8972D02*
X10130Y8972D01*
X11600Y9550D02*
X11600Y9029D01*
X9800Y8972D02*
X9800Y9250D01*
X7834Y10758D02*
X7834Y10539D01*
X7683Y10909D02*
X7834Y10758D01*
X7050Y10909D02*
X7683Y10909D01*
X7834Y10539D02*
X7295Y10000D01*
X9075Y6654D02*
X9800Y6654D01*
X8949Y6529D02*
X9075Y6654D01*
X8949Y5300D02*
X8949Y6529D01*
X8250Y5300D02*
X8949Y5300D01*
X8949Y5300D02*
X9000Y5300D01*
X10375Y10329D02*
X10250Y10454D01*
X13284Y10329D02*
X10375Y10329D01*
X13404Y10450D02*
X13284Y10329D01*
X10653Y9029D02*
X11600Y9029D01*
X10591Y8968D02*
X10653Y9029D01*
X10134Y8968D02*
X10591Y8968D01*
X10130Y8972D02*
X10134Y8968D01*
X8586Y9787D02*
X7834Y10539D01*
X10185Y9787D02*
X8586Y9787D01*
X10653Y9319D02*
X10185Y9787D01*
X10653Y9029D02*
X10653Y9319D01*
X9138Y11122D02*
X9138Y11923D01*
X9316Y10945D02*
X9138Y11122D01*
X9500Y10945D02*
X9316Y10945D01*
X9138Y11928D02*
X8750Y12317D01*
X9138Y11923D02*
X9138Y11928D01*
X9636Y11923D02*
X9788Y11772D01*
X9138Y11923D02*
X9636Y11923D01*
X14862Y5545D02*
X14750Y5545D01*
X14950Y5632D02*
X14862Y5545D01*
X14950Y6654D02*
X14950Y5632D01*
X14950Y5632D02*
X15500Y5632D01*
X14750Y5300D02*
X14750Y5483D01*
X14750Y5483D02*
X14750Y5501D01*
X14750Y5501D02*
X14750Y5545D01*
X13047Y5501D02*
X12845Y5300D01*
X14750Y5501D02*
X13047Y5501D01*
X12500Y5300D02*
X12845Y5300D01*
X7926Y14073D02*
X7500Y14500D01*
X8996Y14073D02*
X7926Y14073D01*
X10276Y12793D02*
X8996Y14073D01*
X10681Y12793D02*
X10276Y12793D01*
X6450Y10750D02*
X6450Y11095D01*
X6450Y11500D02*
X6450Y11095D01*
X6743Y11095D02*
X6744Y11095D01*
X6450Y11095D02*
X6743Y11095D01*
X8085Y13182D02*
X8421Y13182D01*
X8554Y13050D02*
X8421Y13182D01*
X8750Y13050D02*
X8554Y13050D01*
X8750Y13050D02*
X8750Y12804D01*
X9132Y12804D02*
X9141Y12796D01*
X8750Y12804D02*
X9132Y12804D01*
X9538Y3779D02*
X8790Y3779D01*
X10404Y4646D02*
X9538Y3779D01*
X10404Y4700D02*
X10404Y4646D01*
X10750Y4700D02*
X10404Y4700D01*
X11104Y4690D02*
X11095Y4700D01*
X11104Y4625D02*
X11104Y4690D01*
X10750Y4700D02*
X11095Y4700D01*
X11500Y4625D02*
X11104Y4625D01*
X7095Y12340D02*
X7118Y12317D01*
X7095Y12450D02*
X7095Y12340D01*
X6750Y12450D02*
X7095Y12450D01*
X7455Y12317D02*
X7118Y12317D01*
X6750Y12450D02*
X6750Y12695D01*
X6559Y13400D02*
X6675Y13400D01*
X6404Y13246D02*
X6559Y13400D01*
X6404Y12856D02*
X6404Y13246D01*
X6566Y12695D02*
X6404Y12856D01*
X6750Y12695D02*
X6566Y12695D01*
X16285Y2714D02*
X16285Y4145D01*
X17500Y1500D02*
X16285Y2714D01*
X17839Y6160D02*
X18500Y5500D01*
X17347Y6160D02*
X17839Y6160D01*
X16294Y5107D02*
X17347Y6160D01*
X16294Y4724D02*
X16294Y5107D01*
X15798Y4228D02*
X16294Y4724D01*
X14616Y4228D02*
X15798Y4228D01*
X16506Y13506D02*
X17500Y14500D01*
X16506Y12193D02*
X16506Y13506D01*
X16218Y13624D02*
X16218Y12465D01*
X17056Y14462D02*
X16218Y13624D01*
X17056Y15056D02*
X17056Y14462D01*
X17500Y15500D02*
X17056Y15056D01*
X17000Y1596D02*
X15399Y3197D01*
X17000Y1000D02*
X17000Y1596D01*
X17500Y500D02*
X17000Y1000D01*
X17489Y3101D02*
X17489Y4156D01*
X17898Y3101D02*
X17489Y3101D01*
X18500Y2500D02*
X17898Y3101D01*
X16853Y3101D02*
X16683Y2931D01*
X17489Y3101D02*
X16853Y3101D01*
X17943Y11545D02*
X17943Y11156D01*
X18341Y11943D02*
X17943Y11545D01*
X18943Y11943D02*
X18341Y11943D01*
X19500Y12500D02*
X18943Y11943D01*
X16278Y9077D02*
X16278Y5441D01*
X18500Y11298D02*
X16278Y9077D01*
X18500Y11500D02*
X18500Y11298D01*
X2950Y4750D02*
X2704Y4750D01*
X1954Y5500D02*
X1954Y7476D01*
X2704Y4750D02*
X1954Y5500D01*
X10637Y11933D02*
X10637Y11783D01*
X8752Y13818D02*
X10637Y11933D01*
X6284Y13818D02*
X8752Y13818D01*
X5965Y13500D02*
X6284Y13818D01*
X500Y13500D02*
X5965Y13500D01*
X670Y8329D02*
X2982Y8329D01*
X500Y8500D02*
X670Y8329D01*
X1244Y13755D02*
X5852Y13755D01*
X500Y14500D02*
X1244Y13755D01*
X17369Y13775D02*
X17166Y13775D01*
X18056Y14462D02*
X17369Y13775D01*
X18056Y14655D02*
X18056Y14462D01*
X18480Y15079D02*
X18056Y14655D01*
X18869Y15079D02*
X18480Y15079D01*
X19079Y15289D02*
X18869Y15079D01*
X19079Y15500D02*
X19079Y15289D01*
X19500Y15500D02*
X19079Y15500D01*
X12923Y13053D02*
X12820Y12950D01*
X12923Y15076D02*
X12923Y13053D01*
X12500Y15500D02*
X12923Y15076D01*
X5050Y4750D02*
X5295Y4750D01*
X9979Y9618D02*
X10385Y9213D01*
X8524Y9618D02*
X9979Y9618D01*
X7550Y8645D02*
X8524Y9618D01*
X6877Y8645D02*
X7550Y8645D01*
X6829Y8597D02*
X6877Y8645D01*
X6829Y7912D02*
X6829Y8597D01*
X6899Y7842D02*
X6829Y7912D01*
X6968Y7842D02*
X6899Y7842D01*
X7122Y7688D02*
X6968Y7842D01*
X7122Y6577D02*
X7122Y7688D01*
X5295Y4750D02*
X7122Y6577D01*
X4475Y5325D02*
X5050Y4750D01*
X3945Y5325D02*
X4475Y5325D01*
X3520Y5750D02*
X3945Y5325D01*
X3150Y5750D02*
X3520Y5750D01*
G54D26*
X5350Y6750D02*
X5740Y6750D01*
X5740Y10838D02*
X5761Y10860D01*
X5740Y6750D02*
X5740Y10838D01*
X5740Y5750D02*
X5740Y6750D01*
X5350Y5750D02*
X5740Y5750D01*
G54D27*
X8250Y4700D02*
X8595Y4700D01*
X9345Y4634D02*
X9345Y4700D01*
X9354Y4625D02*
X9345Y4634D01*
X9750Y4625D02*
X9354Y4625D01*
X9000Y4700D02*
X9345Y4700D01*
X9000Y4700D02*
X8869Y4700D01*
X8869Y4700D02*
X8595Y4700D01*
X8869Y4700D02*
X8869Y4309D01*
X6450Y9250D02*
X6450Y8944D01*
X6375Y8250D02*
X6375Y8645D01*
X6450Y8720D02*
X6375Y8645D01*
X6450Y8944D02*
X6450Y8720D01*
X6450Y9250D02*
X6450Y9910D01*
X6450Y9910D02*
X6450Y10000D01*
X7274Y10345D02*
X7587Y10657D01*
X6875Y10345D02*
X7274Y10345D01*
X6450Y9919D02*
X6875Y10345D01*
X6450Y9910D02*
X6450Y9919D01*
X6625Y3750D02*
X6920Y3750D01*
X9151Y4024D02*
X9342Y4215D01*
X7194Y4024D02*
X9151Y4024D01*
X6920Y3750D02*
X7194Y4024D01*
M02*
