M48
INCH,TZ
T1C0.010
T2C0.012
T3C0.035
T4C0.040
T5C0.108
%
G90
G05
T1
X5498Y9388
X5498Y9112
T2
X1816Y4229
X1955Y7476
X2637Y6321
X2983Y8329
X4729Y11760
X5106Y11109
X5464Y3756
X5762Y10861
X5853Y13756
X6018Y12575
X6676Y13401
X6744Y11096
X6863Y7598
X7331Y5353
X7587Y10658
X7641Y6614
X7689Y7569
X8791Y3779
X8863Y6946
X8870Y9154
X8870Y4310
X9141Y12796
X9182Y2435
X9200Y5685
X9342Y4215
X9449Y11679
X9788Y11772
X10085Y13710
X10130Y8973
X10241Y5299
X10252Y11752
X10386Y9213
X10498Y4212
X10638Y11784
X10662Y3175
X10681Y12794
X11258Y12816
X11614Y2874
X11773Y4227
X11973Y3175
X12223Y13617
X12821Y12951
X13892Y5257
X14025Y11491
X14244Y11778
X14314Y4577
X14479Y7941
X14617Y4229
X15205Y11685
X15399Y3197
X15500Y5632
X15914Y7636
X15969Y7102
X16218Y12465
X16279Y5442
X16285Y4146
X16507Y12193
X16684Y2931
X17166Y13775
X17456Y5915
X17490Y4157
X17592Y5189
X17723Y8085
X17943Y11157
X18061Y939
T3
X2634Y14343
X4366Y14343
T4
X500Y15500
X500Y14500
X500Y13500
X500Y12500
X500Y11500
X500Y10500
X500Y9500
X500Y8500
X500Y7500
X500Y6500
X500Y5500
X500Y4500
X500Y3500
X500Y2500
X500Y1500
X500Y500
X2500Y1500
X2500Y500
X3500Y1500
X3500Y500
X4500Y1500
X4500Y500
X5500Y1500
X5500Y500
X6500Y15500
X6500Y14500
X6500Y1500
X6500Y500
X7500Y15500
X7500Y14500
X7500Y1500
X7500Y500
X8500Y15500
X8500Y14500
X8500Y1500
X8500Y500
X9500Y15500
X9500Y14500
X9500Y1500
X9500Y500
X10500Y15500
X10500Y14500
X10500Y1500
X10500Y500
X11500Y15500
X11500Y14500
X11500Y1500
X11500Y500
X12500Y15500
X12500Y14500
X12500Y1500
X12500Y500
X13500Y15500
X13500Y14500
X13500Y1500
X13500Y500
X14500Y15500
X14500Y14500
X14500Y1500
X14500Y500
X15500Y15500
X15500Y14500
X15500Y1500
X15500Y500
X16500Y15500
X16500Y14500
X16500Y1500
X16500Y500
X17500Y15500
X17500Y14500
X17500Y1500
X17500Y500
X18500Y15500
X18500Y14500
X18500Y13500
X18500Y12500
X18500Y11500
X18500Y10500
X18500Y9500
X18500Y8500
X18500Y7500
X18500Y6500
X18500Y5500
X18500Y4500
X18500Y3500
X18500Y2500
X18500Y1500
X18500Y500
X19500Y15500
X19500Y14500
X19500Y13500
X19500Y12500
X19500Y11500
X19500Y10500
X19500Y9500
X19500Y8500
X19500Y7500
X19500Y6500
X19500Y5500
X19500Y4500
X19500Y3500
X19500Y2500
X19500Y1500
X19500Y500
T5
X10000Y17000
X10000Y-1000
T0
M30
