G04 (created by PCBNEW (2013-07-07 BZR 4022)-stable) date 02/11/2014 22:01:44*
%MOIN*%
G04 Gerber Fmt 3.4, Leading zero omitted, Abs format*
%FSLAX34Y34*%
G01*
G70*
G90*
G04 APERTURE LIST*
%ADD10C,0.00590551*%
%ADD11C,0.00393701*%
%ADD12R,0.0433X0.0472*%
%ADD13R,0.025X0.045*%
%ADD14R,0.045X0.025*%
%ADD15R,0.144X0.08*%
%ADD16R,0.04X0.08*%
%ADD17R,0.035X0.055*%
%ADD18R,0.055X0.035*%
%ADD19R,0.05X0.025*%
%ADD20C,0.177165*%
%ADD21R,0.06X0.06*%
%ADD22C,0.06*%
%ADD23C,0.0275591*%
%ADD24C,0.0354*%
%ADD25C,0.025*%
%ADD26C,0.012*%
%ADD27C,0.008*%
%ADD28C,0.01*%
G04 APERTURE END LIST*
G54D10*
G54D11*
X10750Y0D02*
X20000Y0D01*
X11000Y-250D02*
X10750Y0D01*
X11000Y-1750D02*
X11000Y-250D01*
X10750Y-2000D02*
X11000Y-1750D01*
X9250Y-2000D02*
X10750Y-2000D01*
X9000Y-1750D02*
X9250Y-2000D01*
X9000Y-250D02*
X9000Y-1750D01*
X9250Y0D02*
X9000Y-250D01*
X0Y0D02*
X9250Y0D01*
X10750Y16000D02*
X20000Y16000D01*
X10750Y16250D02*
X10750Y16000D01*
X11000Y16500D02*
X10750Y16250D01*
X11000Y17750D02*
X11000Y16500D01*
X10750Y18000D02*
X11000Y17750D01*
X9250Y18000D02*
X10750Y18000D01*
X9000Y17750D02*
X9250Y18000D01*
X9000Y16500D02*
X9000Y17750D01*
X9250Y16250D02*
X9000Y16500D01*
X9250Y16000D02*
X9250Y16250D01*
X0Y16000D02*
X9250Y16000D01*
X20000Y16000D02*
X20000Y0D01*
X0Y0D02*
X0Y16000D01*
G54D12*
X7455Y12317D03*
X8085Y13183D03*
X7455Y13183D03*
X8085Y12317D03*
G54D13*
X6450Y10750D03*
X7050Y10750D03*
X9200Y7750D03*
X9800Y7750D03*
X9200Y7000D03*
X9800Y7000D03*
X9200Y9250D03*
X9800Y9250D03*
G54D14*
X6750Y12450D03*
X6750Y13050D03*
X8750Y13050D03*
X8750Y12450D03*
G54D13*
X9200Y8500D03*
X9800Y8500D03*
X15550Y8000D03*
X14950Y8000D03*
G54D14*
X13750Y11050D03*
X13750Y10450D03*
G54D13*
X14250Y9550D03*
X14850Y9550D03*
X9200Y6250D03*
X9800Y6250D03*
G54D14*
X15500Y4700D03*
X15500Y5300D03*
G54D13*
X13800Y6150D03*
X14400Y6150D03*
X6450Y9250D03*
X7050Y9250D03*
X6450Y11500D03*
X7050Y11500D03*
G54D14*
X9000Y4700D03*
X9000Y5300D03*
X10750Y4700D03*
X10750Y5300D03*
X8250Y4700D03*
X8250Y5300D03*
X9500Y11300D03*
X9500Y10700D03*
X10250Y11300D03*
X10250Y10700D03*
G54D13*
X6450Y10000D03*
X7050Y10000D03*
G54D14*
X14750Y4700D03*
X14750Y5300D03*
G54D13*
X15550Y7000D03*
X14950Y7000D03*
G54D14*
X14500Y11050D03*
X14500Y10450D03*
G54D15*
X12500Y6950D03*
G54D16*
X12500Y9550D03*
X13400Y9550D03*
X11600Y9550D03*
G54D17*
X5875Y3750D03*
X6625Y3750D03*
G54D18*
X9750Y4625D03*
X9750Y5375D03*
X11500Y4625D03*
X11500Y5375D03*
X11250Y10625D03*
X11250Y11375D03*
G54D17*
X6375Y8250D03*
X7125Y8250D03*
G54D19*
X3150Y5750D03*
X3150Y6250D03*
X3150Y6750D03*
X3150Y7250D03*
X5350Y7250D03*
X5350Y6750D03*
X5350Y6250D03*
X5350Y5750D03*
G54D14*
X4600Y4100D03*
X4600Y4700D03*
G54D13*
X4550Y8000D03*
X3950Y8000D03*
G54D20*
X10000Y17000D03*
X10000Y-1000D03*
G54D13*
X3550Y4750D03*
X2950Y4750D03*
G54D21*
X18500Y15500D03*
G54D22*
X18500Y14500D03*
X18500Y13500D03*
X18500Y12500D03*
X18500Y11500D03*
X18500Y10500D03*
X18500Y9500D03*
X18500Y8500D03*
X18500Y7500D03*
X18500Y6500D03*
X18500Y5500D03*
X18500Y4500D03*
X18500Y3500D03*
X18500Y2500D03*
X18500Y1500D03*
X18500Y500D03*
G54D21*
X19500Y15500D03*
G54D22*
X19500Y14500D03*
X19500Y13500D03*
X19500Y12500D03*
X19500Y11500D03*
X19500Y10500D03*
X19500Y9500D03*
X19500Y8500D03*
X19500Y7500D03*
X19500Y6500D03*
X19500Y5500D03*
X19500Y4500D03*
X19500Y3500D03*
X19500Y2500D03*
X19500Y1500D03*
X19500Y500D03*
G54D21*
X500Y15500D03*
G54D22*
X500Y14500D03*
X500Y13500D03*
X500Y12500D03*
X500Y11500D03*
X500Y10500D03*
X500Y9500D03*
X500Y8500D03*
X500Y7500D03*
X500Y6500D03*
X500Y5500D03*
X500Y4500D03*
X500Y3500D03*
X500Y2500D03*
X500Y1500D03*
X500Y500D03*
G54D21*
X6500Y15500D03*
G54D22*
X7500Y15500D03*
X8500Y15500D03*
X9500Y15500D03*
X10500Y15500D03*
X11500Y15500D03*
X12500Y15500D03*
X13500Y15500D03*
X14500Y15500D03*
X15500Y15500D03*
X16500Y15500D03*
X17500Y15500D03*
G54D21*
X2500Y1500D03*
G54D22*
X3500Y1500D03*
X4500Y1500D03*
X5500Y1500D03*
X6500Y1500D03*
X7500Y1500D03*
X8500Y1500D03*
X9500Y1500D03*
X10500Y1500D03*
X11500Y1500D03*
X12500Y1500D03*
X13500Y1500D03*
X14500Y1500D03*
X15500Y1500D03*
X16500Y1500D03*
X17500Y1500D03*
G54D21*
X2500Y500D03*
G54D22*
X3500Y500D03*
X4500Y500D03*
X5500Y500D03*
X6500Y500D03*
X7500Y500D03*
X8500Y500D03*
X9500Y500D03*
X10500Y500D03*
X11500Y500D03*
X12500Y500D03*
X13500Y500D03*
X14500Y500D03*
X15500Y500D03*
X16500Y500D03*
X17500Y500D03*
G54D21*
X6500Y14500D03*
G54D22*
X7500Y14500D03*
X8500Y14500D03*
X9500Y14500D03*
X10500Y14500D03*
X11500Y14500D03*
X12500Y14500D03*
X13500Y14500D03*
X14500Y14500D03*
X15500Y14500D03*
X16500Y14500D03*
X17500Y14500D03*
G54D23*
X5932Y9466D03*
X5932Y9033D03*
G54D24*
X4366Y14093D03*
X2634Y14093D03*
G54D25*
X1816Y4229D03*
X7688Y7569D03*
X10241Y5298D03*
X7641Y6613D03*
X14025Y11491D03*
X13891Y5256D03*
X15914Y7635D03*
X4770Y10820D03*
X4520Y9790D03*
X10251Y11751D03*
X8869Y9153D03*
X8862Y6945D03*
X14314Y4577D03*
X14244Y11777D03*
X15969Y7101D03*
X9449Y11678D03*
X11258Y12815D03*
X13060Y4680D03*
X13800Y4500D03*
X15204Y11685D03*
X12223Y13616D03*
X10085Y13709D03*
X17456Y5914D03*
X9199Y5685D03*
X7040Y5360D03*
X18060Y939D03*
X3500Y12400D03*
X4060Y12180D03*
X17723Y8085D03*
X17592Y5188D03*
X4220Y9460D03*
X6018Y12574D03*
X6863Y7597D03*
X2250Y8040D03*
X4100Y3750D03*
X15500Y5632D03*
X14479Y7941D03*
X5463Y3756D03*
X10130Y8972D03*
X9788Y11772D03*
X10681Y12793D03*
X6080Y10710D03*
X9141Y12796D03*
X8740Y3670D03*
X6675Y13400D03*
X16285Y4145D03*
X14616Y4228D03*
X16506Y12193D03*
X16218Y12465D03*
X15399Y3197D03*
X17489Y4156D03*
X16683Y2931D03*
X17943Y11156D03*
X16278Y5441D03*
X2070Y10070D03*
X1020Y13060D03*
X1680Y7780D03*
X10637Y11783D03*
X3100Y8200D03*
X5852Y13755D03*
X17166Y13775D03*
X12820Y12950D03*
X10385Y9213D03*
X6030Y11730D03*
X5900Y11010D03*
X8750Y4030D03*
X7587Y10657D03*
X8790Y3290D03*
G54D26*
X12500Y6150D02*
X11600Y6150D01*
X11500Y6050D02*
X11500Y5375D01*
X11600Y6150D02*
X11500Y6050D01*
X12500Y6950D02*
X12500Y6150D01*
X12500Y6150D02*
X13800Y6150D01*
X3550Y4750D02*
X3550Y4384D01*
X5412Y4384D02*
X3550Y4384D01*
X3550Y4384D02*
X3151Y4384D01*
X7641Y6613D02*
X5412Y4384D01*
X3149Y4382D02*
X1923Y4382D01*
X3151Y4384D02*
X3149Y4382D01*
X1923Y4336D02*
X1923Y4382D01*
X1816Y4229D02*
X1923Y4336D01*
X12500Y6950D02*
X12113Y6950D01*
X12500Y9550D02*
X12500Y9009D01*
X12113Y8623D02*
X12500Y9009D01*
X12113Y6950D02*
X12113Y8623D01*
X7125Y8250D02*
X7440Y8250D01*
X9750Y5375D02*
X9750Y5690D01*
X15500Y4700D02*
X15500Y4965D01*
X9465Y5975D02*
X9750Y5690D01*
X9465Y6250D02*
X9465Y5975D01*
X9200Y6250D02*
X9465Y6250D01*
X9200Y7750D02*
X8934Y7750D01*
X8754Y7569D02*
X7688Y7569D01*
X8934Y7750D02*
X8754Y7569D01*
X7688Y8001D02*
X7688Y7569D01*
X7440Y8250D02*
X7688Y8001D01*
X9750Y5375D02*
X10165Y5375D01*
X1923Y5076D02*
X500Y6500D01*
X1923Y4382D02*
X1923Y5076D01*
X7641Y7521D02*
X7688Y7569D01*
X7641Y6613D02*
X7641Y7521D01*
X13750Y11050D02*
X13750Y11315D01*
X14807Y11315D02*
X14025Y11315D01*
X15550Y10572D02*
X14807Y11315D01*
X15550Y8000D02*
X15550Y10572D01*
X14025Y11315D02*
X13750Y11315D01*
X14025Y11315D02*
X14025Y11491D01*
X11500Y5375D02*
X11500Y5059D01*
X10165Y5375D02*
X10241Y5298D01*
X11474Y5034D02*
X11500Y5059D01*
X10429Y5034D02*
X11474Y5034D01*
X10241Y5223D02*
X10429Y5034D01*
X10241Y5298D02*
X10241Y5223D01*
X11594Y4965D02*
X13821Y4965D01*
X11500Y5059D02*
X11594Y4965D01*
X13891Y5256D02*
X13891Y5034D01*
X13961Y4965D02*
X15500Y4965D01*
X13891Y5034D02*
X13961Y4965D01*
X13891Y5034D02*
X13821Y4965D01*
X15815Y7734D02*
X15815Y8000D01*
X15914Y7635D02*
X15815Y7734D01*
X15550Y8000D02*
X15815Y8000D01*
X6570Y12080D02*
X5640Y12080D01*
X6750Y11900D02*
X6570Y12080D01*
X9218Y10090D02*
X13400Y10090D01*
X7408Y11900D02*
X9218Y10090D01*
X13400Y9550D02*
X13400Y10090D01*
X7408Y11900D02*
X6750Y11900D01*
X4770Y11210D02*
X4770Y10820D01*
X5640Y12080D02*
X4770Y11210D01*
X4550Y8000D02*
X4550Y9760D01*
X4550Y9760D02*
X4520Y9790D01*
X4520Y9790D02*
X4520Y10570D01*
X4520Y10570D02*
X4770Y10820D01*
X500Y12500D02*
X570Y12500D01*
X14250Y9550D02*
X13400Y9550D01*
X5350Y7250D02*
X4959Y7250D01*
X4550Y8000D02*
X4550Y7634D01*
X4575Y7634D02*
X4959Y7250D01*
X4550Y7634D02*
X4575Y7634D01*
X5350Y6250D02*
X4959Y6250D01*
X4959Y7250D02*
X4959Y6250D01*
G54D27*
X4240Y6969D02*
X4240Y8870D01*
X3150Y6250D02*
X3520Y6250D01*
X3520Y6250D02*
X4240Y6969D01*
X3920Y11530D02*
X5270Y12880D01*
X3920Y9190D02*
X3920Y11530D01*
X4240Y8870D02*
X3920Y9190D01*
X6478Y13658D02*
X8674Y13658D01*
X8674Y13658D02*
X10251Y12081D01*
X10251Y12081D02*
X10251Y11751D01*
X5700Y12880D02*
X5270Y12880D01*
X6478Y13658D02*
X5700Y12880D01*
X8954Y9250D02*
X9200Y9250D01*
X8954Y9250D02*
X8954Y9238D01*
X8954Y9238D02*
X8869Y9153D01*
X9274Y8919D02*
X9274Y9250D01*
X9237Y9250D02*
X9200Y9250D01*
X9237Y9250D02*
X9274Y9250D01*
X9200Y8500D02*
X9200Y8845D01*
X9200Y8845D02*
X9274Y8919D01*
X9445Y7000D02*
X9445Y8500D01*
X9200Y7000D02*
X9445Y7000D01*
X9200Y8500D02*
X9445Y8500D01*
X9200Y7000D02*
X8954Y7000D01*
X8900Y6945D02*
X8862Y6945D01*
X8954Y7000D02*
X8900Y6945D01*
X14750Y4700D02*
X14750Y4577D01*
X14750Y4577D02*
X14314Y4577D01*
X11250Y10625D02*
X11645Y10625D01*
X14750Y4577D02*
X14750Y4454D01*
X15794Y4454D02*
X14750Y4454D01*
X15847Y4507D02*
X15794Y4454D01*
X15847Y7000D02*
X15847Y4507D01*
X15867Y7000D02*
X15847Y7000D01*
X15969Y7101D02*
X15867Y7000D01*
X15847Y7000D02*
X15632Y7000D01*
X13938Y11777D02*
X14244Y11777D01*
X13395Y11235D02*
X13938Y11777D01*
X13395Y10804D02*
X13395Y11235D01*
X11825Y10804D02*
X13395Y10804D01*
X11645Y10625D02*
X11825Y10804D01*
X13395Y10804D02*
X14500Y10804D01*
X14500Y11050D02*
X14500Y10804D01*
X15550Y7000D02*
X15632Y7000D01*
X14676Y10804D02*
X14500Y10804D01*
X15244Y10236D02*
X14676Y10804D01*
X15244Y7388D02*
X15244Y10236D01*
X15632Y7000D02*
X15244Y7388D01*
X10250Y11300D02*
X9500Y11300D01*
X9500Y11300D02*
X9500Y11627D01*
X9500Y11627D02*
X9449Y11678D01*
X10779Y11300D02*
X10250Y11300D01*
X10854Y11375D02*
X10779Y11300D01*
X11250Y11375D02*
X10854Y11375D01*
X11258Y13147D02*
X11258Y12815D01*
X9920Y14485D02*
X11258Y13147D01*
X9920Y14702D02*
X9920Y14485D01*
X9622Y15000D02*
X9920Y14702D01*
X9000Y15000D02*
X9622Y15000D01*
X8500Y15500D02*
X9000Y15000D01*
X13060Y4680D02*
X13070Y4670D01*
X13070Y4670D02*
X13070Y710D01*
X13070Y710D02*
X12860Y500D01*
X12500Y500D02*
X12860Y500D01*
X13800Y1950D02*
X14000Y1750D01*
X14000Y1750D02*
X14000Y1000D01*
X13500Y500D02*
X14000Y1000D01*
X13800Y4500D02*
X13800Y1950D01*
X16361Y11685D02*
X15204Y11685D01*
X17697Y13021D02*
X16361Y11685D01*
X17697Y13697D02*
X17697Y13021D01*
X18500Y14500D02*
X17697Y13697D01*
X11938Y13901D02*
X12223Y13616D01*
X11938Y15061D02*
X11938Y13901D01*
X11500Y15500D02*
X11938Y15061D01*
X9687Y13709D02*
X10085Y13709D01*
X9002Y14394D02*
X9687Y13709D01*
X9002Y14591D02*
X9002Y14394D01*
X8674Y14920D02*
X9002Y14591D01*
X8079Y14920D02*
X8674Y14920D01*
X7500Y15500D02*
X8079Y14920D01*
X18500Y4871D02*
X17456Y5914D01*
X18500Y4500D02*
X18500Y4871D01*
X9345Y5540D02*
X9199Y5685D01*
X9345Y5125D02*
X9345Y5540D01*
X9274Y5054D02*
X9345Y5125D01*
X7886Y5054D02*
X9274Y5054D01*
X7320Y4489D02*
X7886Y5054D01*
X6724Y4489D02*
X7320Y4489D01*
X6282Y4047D02*
X6724Y4489D01*
X6282Y3532D02*
X6282Y4047D01*
X5672Y2922D02*
X6282Y3532D01*
X4687Y2922D02*
X5672Y2922D01*
X4000Y2235D02*
X4687Y2922D01*
X4000Y1405D02*
X4000Y2235D01*
X3514Y920D02*
X4000Y1405D01*
X3287Y920D02*
X3514Y920D01*
X2920Y552D02*
X3287Y920D01*
X2920Y500D02*
X2920Y552D01*
X2500Y500D02*
X2920Y500D01*
X2500Y1500D02*
X2920Y1500D01*
X6668Y5352D02*
X7040Y5360D01*
X2920Y1605D02*
X6668Y5352D01*
X2920Y1500D02*
X2920Y1605D01*
X18500Y500D02*
X18060Y939D01*
X3840Y12400D02*
X3500Y12400D01*
X4060Y12180D02*
X3840Y12400D01*
X17744Y8064D02*
X17723Y8085D01*
X19064Y8064D02*
X17744Y8064D01*
X19500Y8500D02*
X19064Y8064D01*
X17592Y4407D02*
X17592Y5188D01*
X18500Y3500D02*
X17592Y4407D01*
X4270Y11400D02*
X5444Y12574D01*
X4270Y9510D02*
X4270Y11400D01*
X4220Y9460D02*
X4270Y9510D01*
X6018Y12574D02*
X5444Y12574D01*
X1060Y8060D02*
X500Y7500D01*
X1780Y8060D02*
X1060Y8060D01*
X2199Y7640D02*
X1780Y8060D01*
X2199Y6411D02*
X2199Y7640D01*
X2616Y5995D02*
X2199Y6411D01*
X3999Y5995D02*
X2616Y5995D01*
X4508Y5485D02*
X3999Y5995D01*
X5748Y5485D02*
X4508Y5485D01*
X6863Y6599D02*
X5748Y5485D01*
X6863Y7597D02*
X6863Y6599D01*
X13750Y10450D02*
X14500Y10450D01*
X14850Y9550D02*
X14850Y10100D01*
X14850Y10100D02*
X14500Y10450D01*
X14500Y8950D02*
X14800Y9250D01*
X14500Y8023D02*
X14500Y8950D01*
X14800Y9500D02*
X14850Y9550D01*
X14800Y9250D02*
X14800Y9500D01*
X14400Y6150D02*
X14950Y6150D01*
X2474Y7815D02*
X2250Y8040D01*
X2815Y7815D02*
X2474Y7815D01*
X3520Y7815D02*
X2815Y7815D01*
X3704Y8000D02*
X3520Y7815D01*
X2750Y6750D02*
X3150Y6750D01*
X2580Y6920D02*
X2750Y6750D01*
X2580Y7580D02*
X2580Y6920D01*
X2815Y7815D02*
X2580Y7580D01*
X4600Y4100D02*
X4450Y4100D01*
X4450Y4100D02*
X4100Y3750D01*
X14950Y7000D02*
X14950Y6150D01*
X14950Y6150D02*
X14950Y5632D01*
X9800Y7000D02*
X9800Y6654D01*
X9500Y10700D02*
X9500Y10945D01*
X8085Y12317D02*
X8085Y12673D01*
X15500Y5300D02*
X15500Y5632D01*
X3950Y8000D02*
X3704Y8000D01*
X7964Y12673D02*
X8085Y12673D01*
X7455Y13182D02*
X7964Y12673D01*
X7095Y13159D02*
X7118Y13182D01*
X7095Y13050D02*
X7095Y13159D01*
X7455Y13182D02*
X7118Y13182D01*
X6750Y13050D02*
X7095Y13050D01*
X8085Y12317D02*
X8750Y12317D01*
X8750Y12317D02*
X8750Y12450D01*
X9800Y7750D02*
X9800Y7000D01*
X14681Y8023D02*
X14500Y8023D01*
X14704Y8000D02*
X14681Y8023D01*
X14479Y8003D02*
X14479Y7941D01*
X14500Y8023D02*
X14479Y8003D01*
X14950Y8000D02*
X14827Y8000D01*
X14827Y8000D02*
X14704Y8000D01*
X14827Y7467D02*
X14950Y7345D01*
X14827Y8000D02*
X14827Y7467D01*
X14950Y7000D02*
X14950Y7345D01*
X1204Y10500D02*
X3704Y8000D01*
X500Y10500D02*
X1204Y10500D01*
X7050Y11500D02*
X7050Y10909D01*
X5573Y3756D02*
X5579Y3750D01*
X5463Y3756D02*
X5573Y3756D01*
X9800Y7750D02*
X9800Y8500D01*
X9800Y6654D02*
X9800Y6250D01*
X10750Y5545D02*
X10045Y6250D01*
X10750Y5300D02*
X10750Y5545D01*
X9800Y6250D02*
X10045Y6250D01*
X5875Y3750D02*
X5726Y3750D01*
X5726Y3750D02*
X5579Y3750D01*
X7671Y5067D02*
X7904Y5300D01*
X7043Y5067D02*
X7671Y5067D01*
X5726Y3750D02*
X7043Y5067D01*
X8250Y5300D02*
X7904Y5300D01*
X9800Y8500D02*
X9800Y8712D01*
X9800Y8712D02*
X9800Y8972D01*
X13750Y10450D02*
X13404Y10450D01*
X7050Y10750D02*
X7050Y10909D01*
X7050Y9250D02*
X7050Y10000D01*
X7050Y10000D02*
X7295Y10000D01*
X10250Y10700D02*
X10250Y10577D01*
X10250Y10577D02*
X10250Y10454D01*
X9967Y10577D02*
X9845Y10700D01*
X10250Y10577D02*
X9967Y10577D01*
X9500Y10700D02*
X9845Y10700D01*
X9800Y8972D02*
X10130Y8972D01*
X11600Y9550D02*
X11600Y9029D01*
X9800Y8972D02*
X9800Y9250D01*
X7834Y10758D02*
X7834Y10539D01*
X7683Y10909D02*
X7834Y10758D01*
X7050Y10909D02*
X7683Y10909D01*
X7834Y10539D02*
X7295Y10000D01*
X9075Y6654D02*
X9800Y6654D01*
X8949Y6529D02*
X9075Y6654D01*
X8949Y5300D02*
X8949Y6529D01*
X8250Y5300D02*
X8949Y5300D01*
X8949Y5300D02*
X9000Y5300D01*
X10375Y10329D02*
X10250Y10454D01*
X13284Y10329D02*
X10375Y10329D01*
X13404Y10450D02*
X13284Y10329D01*
X10653Y9029D02*
X11600Y9029D01*
X10591Y8968D02*
X10653Y9029D01*
X10134Y8968D02*
X10591Y8968D01*
X10130Y8972D02*
X10134Y8968D01*
X8476Y9897D02*
X7834Y10539D01*
X10075Y9897D02*
X8476Y9897D01*
X10653Y9319D02*
X10075Y9897D01*
X10653Y9029D02*
X10653Y9319D01*
X9138Y11122D02*
X9138Y11923D01*
X9316Y10945D02*
X9138Y11122D01*
X9500Y10945D02*
X9316Y10945D01*
X9138Y11928D02*
X8750Y12317D01*
X9138Y11923D02*
X9138Y11928D01*
X9636Y11923D02*
X9788Y11772D01*
X9138Y11923D02*
X9636Y11923D01*
X14862Y5545D02*
X14750Y5545D01*
X14950Y5632D02*
X14862Y5545D01*
X14950Y5632D02*
X15500Y5632D01*
X14750Y5300D02*
X14750Y5545D01*
X7926Y14073D02*
X7500Y14500D01*
X8996Y14073D02*
X7926Y14073D01*
X10276Y12793D02*
X8996Y14073D01*
X10681Y12793D02*
X10276Y12793D01*
X6120Y10750D02*
X6450Y10750D01*
X6080Y10710D02*
X6120Y10750D01*
X6450Y10750D02*
X6450Y11500D01*
X8085Y13182D02*
X8421Y13182D01*
X8554Y13050D02*
X8421Y13182D01*
X8750Y13050D02*
X8554Y13050D01*
X8750Y13050D02*
X8750Y12804D01*
X9132Y12804D02*
X9141Y12796D01*
X8750Y12804D02*
X9132Y12804D01*
X10350Y4300D02*
X9090Y4300D01*
X10750Y4700D02*
X10350Y4300D01*
X9000Y3930D02*
X8740Y3670D01*
X9000Y4210D02*
X9000Y3930D01*
X9090Y4300D02*
X9000Y4210D01*
X11104Y4690D02*
X11095Y4700D01*
X11104Y4625D02*
X11104Y4690D01*
X10750Y4700D02*
X11095Y4700D01*
X11500Y4625D02*
X11104Y4625D01*
X7095Y12340D02*
X7118Y12317D01*
X7095Y12450D02*
X7095Y12340D01*
X6750Y12450D02*
X7095Y12450D01*
X7455Y12317D02*
X7118Y12317D01*
X6750Y12450D02*
X6750Y12695D01*
X6559Y13400D02*
X6675Y13400D01*
X6404Y13246D02*
X6559Y13400D01*
X6404Y12856D02*
X6404Y13246D01*
X6566Y12695D02*
X6404Y12856D01*
X6750Y12695D02*
X6566Y12695D01*
X16285Y2714D02*
X16285Y4145D01*
X17500Y1500D02*
X16285Y2714D01*
X17839Y6160D02*
X18500Y5500D01*
X17347Y6160D02*
X17839Y6160D01*
X16294Y5107D02*
X17347Y6160D01*
X16294Y4724D02*
X16294Y5107D01*
X15798Y4228D02*
X16294Y4724D01*
X14616Y4228D02*
X15798Y4228D01*
X16506Y13506D02*
X17500Y14500D01*
X16506Y12193D02*
X16506Y13506D01*
X16218Y13624D02*
X16218Y12465D01*
X17056Y14462D02*
X16218Y13624D01*
X17056Y15056D02*
X17056Y14462D01*
X17500Y15500D02*
X17056Y15056D01*
X17500Y500D02*
X17000Y1000D01*
X17000Y1000D02*
X17000Y1596D01*
X17000Y1596D02*
X15399Y3197D01*
X17489Y3101D02*
X17489Y4156D01*
X17898Y3101D02*
X17489Y3101D01*
X18500Y2500D02*
X17898Y3101D01*
X16853Y3101D02*
X16683Y2931D01*
X17489Y3101D02*
X16853Y3101D01*
X17943Y11545D02*
X17943Y11156D01*
X18341Y11943D02*
X17943Y11545D01*
X18943Y11943D02*
X18341Y11943D01*
X19500Y12500D02*
X18943Y11943D01*
X16278Y9077D02*
X16278Y5441D01*
X18500Y11298D02*
X16278Y9077D01*
X18500Y11500D02*
X18500Y11298D01*
X2070Y12010D02*
X2070Y10070D01*
X1020Y13060D02*
X2070Y12010D01*
X1680Y5770D02*
X1680Y7780D01*
X1949Y5500D02*
X1680Y5770D01*
X2950Y4750D02*
X2704Y4750D01*
X2704Y4750D02*
X1954Y5500D01*
X1954Y5500D02*
X1949Y5500D01*
X10637Y11933D02*
X10637Y11783D01*
X8752Y13818D02*
X10637Y11933D01*
X6284Y13818D02*
X8752Y13818D01*
X5965Y13500D02*
X6284Y13818D01*
X500Y13500D02*
X5965Y13500D01*
X500Y8500D02*
X2800Y8500D01*
X2800Y8500D02*
X3100Y8200D01*
X1244Y13755D02*
X5852Y13755D01*
X500Y14500D02*
X1244Y13755D01*
X17369Y13775D02*
X17166Y13775D01*
X18056Y14462D02*
X17369Y13775D01*
X18056Y14655D02*
X18056Y14462D01*
X18480Y15079D02*
X18056Y14655D01*
X18869Y15079D02*
X18480Y15079D01*
X19079Y15289D02*
X18869Y15079D01*
X19079Y15500D02*
X19079Y15289D01*
X19500Y15500D02*
X19079Y15500D01*
X12923Y13053D02*
X12820Y12950D01*
X12923Y15076D02*
X12923Y13053D01*
X12500Y15500D02*
X12923Y15076D01*
X4200Y5250D02*
X4200Y5100D01*
X3700Y5750D02*
X4200Y5250D01*
X3150Y5750D02*
X3700Y5750D01*
X4200Y5100D02*
X4600Y4700D01*
X5297Y4752D02*
X4652Y4752D01*
X4652Y4752D02*
X4600Y4700D01*
X7122Y7688D02*
X6968Y7842D01*
X7122Y6577D02*
X7122Y7688D01*
X5297Y4752D02*
X7122Y6577D01*
X6899Y7842D02*
X6829Y7912D01*
X6968Y7842D02*
X6899Y7842D01*
X9869Y9728D02*
X10385Y9213D01*
X8634Y9728D02*
X9869Y9728D01*
X7550Y8645D02*
X8634Y9728D01*
X6877Y8645D02*
X7550Y8645D01*
X6829Y8597D02*
X6877Y8645D01*
X6829Y7912D02*
X6829Y8597D01*
G54D26*
X6030Y11120D02*
X6030Y11730D01*
X6030Y11120D02*
X5910Y11000D01*
X5900Y11010D02*
X5910Y11000D01*
X5760Y10860D02*
X5770Y10860D01*
X5770Y10860D02*
X5910Y11000D01*
X5760Y10860D02*
X5600Y10700D01*
X5950Y6959D02*
X5740Y6750D01*
X5950Y7750D02*
X5950Y6959D01*
X5600Y8100D02*
X5950Y7750D01*
X5600Y10700D02*
X5600Y8100D01*
X5350Y6750D02*
X5740Y6750D01*
X5740Y5750D02*
X5740Y6750D01*
X5350Y5750D02*
X5740Y5750D01*
G54D27*
X8750Y4030D02*
X8750Y4660D01*
X8790Y4700D02*
X9000Y4700D01*
X8750Y4660D02*
X8790Y4700D01*
X8250Y4700D02*
X8869Y4700D01*
X9345Y4634D02*
X9345Y4700D01*
X9354Y4625D02*
X9345Y4634D01*
X9750Y4625D02*
X9354Y4625D01*
X9000Y4700D02*
X9345Y4700D01*
X9000Y4700D02*
X8869Y4700D01*
X6450Y9250D02*
X6450Y8720D01*
X6375Y8250D02*
X6375Y8645D01*
X6450Y8720D02*
X6375Y8645D01*
X6450Y9250D02*
X6450Y9910D01*
X6450Y9910D02*
X6450Y10000D01*
X7274Y10345D02*
X7587Y10657D01*
X6875Y10345D02*
X7274Y10345D01*
X6450Y9919D02*
X6875Y10345D01*
X6450Y9910D02*
X6450Y9919D01*
X8790Y3290D02*
X7570Y3290D01*
X7110Y3750D02*
X6625Y3750D01*
X7570Y3290D02*
X7110Y3750D01*
G54D10*
G36*
X12860Y804D02*
X12766Y898D01*
X12593Y969D01*
X12406Y970D01*
X12234Y898D01*
X12101Y766D01*
X12030Y593D01*
X12029Y406D01*
X12101Y234D01*
X12145Y189D01*
X11854Y189D01*
X11898Y233D01*
X11969Y406D01*
X11970Y593D01*
X11970Y1593D01*
X11898Y1765D01*
X11766Y1898D01*
X11593Y1969D01*
X11406Y1970D01*
X11234Y1898D01*
X11101Y1766D01*
X11030Y1593D01*
X11029Y1406D01*
X11101Y1234D01*
X11233Y1101D01*
X11406Y1030D01*
X11593Y1029D01*
X11765Y1101D01*
X11898Y1233D01*
X11969Y1406D01*
X11970Y1593D01*
X11970Y593D01*
X11898Y765D01*
X11766Y898D01*
X11593Y969D01*
X11406Y970D01*
X11234Y898D01*
X11101Y766D01*
X11030Y593D01*
X11029Y406D01*
X11101Y234D01*
X11145Y189D01*
X10854Y189D01*
X10898Y233D01*
X10969Y406D01*
X10970Y593D01*
X10970Y1593D01*
X10898Y1765D01*
X10766Y1898D01*
X10593Y1969D01*
X10406Y1970D01*
X10234Y1898D01*
X10101Y1766D01*
X10030Y1593D01*
X10029Y1406D01*
X10101Y1234D01*
X10233Y1101D01*
X10406Y1030D01*
X10593Y1029D01*
X10765Y1101D01*
X10898Y1233D01*
X10969Y1406D01*
X10970Y1593D01*
X10970Y593D01*
X10898Y765D01*
X10766Y898D01*
X10593Y969D01*
X10406Y970D01*
X10234Y898D01*
X10101Y766D01*
X10030Y593D01*
X10029Y406D01*
X10101Y234D01*
X10233Y101D01*
X10358Y50D01*
X10224Y50D01*
X10210Y55D01*
X9790Y56D01*
X9776Y50D01*
X9641Y50D01*
X9765Y101D01*
X9898Y233D01*
X9969Y406D01*
X9970Y593D01*
X9970Y1593D01*
X9898Y1765D01*
X9766Y1898D01*
X9593Y1969D01*
X9406Y1970D01*
X9234Y1898D01*
X9101Y1766D01*
X9030Y1593D01*
X9029Y1406D01*
X9101Y1234D01*
X9233Y1101D01*
X9406Y1030D01*
X9593Y1029D01*
X9765Y1101D01*
X9898Y1233D01*
X9969Y1406D01*
X9970Y1593D01*
X9970Y593D01*
X9898Y765D01*
X9766Y898D01*
X9593Y969D01*
X9406Y970D01*
X9234Y898D01*
X9101Y766D01*
X9030Y593D01*
X9029Y406D01*
X9101Y234D01*
X9145Y189D01*
X8854Y189D01*
X8898Y233D01*
X8969Y406D01*
X8970Y593D01*
X8970Y1593D01*
X8898Y1765D01*
X8766Y1898D01*
X8593Y1969D01*
X8406Y1970D01*
X8234Y1898D01*
X8101Y1766D01*
X8030Y1593D01*
X8029Y1406D01*
X8101Y1234D01*
X8233Y1101D01*
X8406Y1030D01*
X8593Y1029D01*
X8765Y1101D01*
X8898Y1233D01*
X8969Y1406D01*
X8970Y1593D01*
X8970Y593D01*
X8898Y765D01*
X8766Y898D01*
X8593Y969D01*
X8406Y970D01*
X8234Y898D01*
X8101Y766D01*
X8030Y593D01*
X8029Y406D01*
X8101Y234D01*
X8145Y189D01*
X7854Y189D01*
X7898Y233D01*
X7969Y406D01*
X7970Y593D01*
X7970Y1593D01*
X7898Y1765D01*
X7766Y1898D01*
X7593Y1969D01*
X7406Y1970D01*
X7234Y1898D01*
X7101Y1766D01*
X7030Y1593D01*
X7029Y1406D01*
X7101Y1234D01*
X7233Y1101D01*
X7406Y1030D01*
X7593Y1029D01*
X7765Y1101D01*
X7898Y1233D01*
X7969Y1406D01*
X7970Y1593D01*
X7970Y593D01*
X7898Y765D01*
X7766Y898D01*
X7593Y969D01*
X7406Y970D01*
X7234Y898D01*
X7101Y766D01*
X7030Y593D01*
X7029Y406D01*
X7101Y234D01*
X7145Y189D01*
X6854Y189D01*
X6898Y233D01*
X6969Y406D01*
X6970Y593D01*
X6970Y1593D01*
X6898Y1765D01*
X6766Y1898D01*
X6593Y1969D01*
X6406Y1970D01*
X6234Y1898D01*
X6101Y1766D01*
X6030Y1593D01*
X6029Y1406D01*
X6101Y1234D01*
X6233Y1101D01*
X6406Y1030D01*
X6593Y1029D01*
X6765Y1101D01*
X6898Y1233D01*
X6969Y1406D01*
X6970Y1593D01*
X6970Y593D01*
X6898Y765D01*
X6766Y898D01*
X6593Y969D01*
X6406Y970D01*
X6234Y898D01*
X6101Y766D01*
X6030Y593D01*
X6029Y406D01*
X6101Y234D01*
X6145Y189D01*
X5854Y189D01*
X5898Y233D01*
X5969Y406D01*
X5970Y593D01*
X5898Y765D01*
X5766Y898D01*
X5593Y969D01*
X5406Y970D01*
X5234Y898D01*
X5101Y766D01*
X5050Y641D01*
X5050Y1358D01*
X5101Y1234D01*
X5233Y1101D01*
X5406Y1030D01*
X5593Y1029D01*
X5765Y1101D01*
X5898Y1233D01*
X5969Y1406D01*
X5970Y1593D01*
X5898Y1765D01*
X5766Y1898D01*
X5593Y1969D01*
X5406Y1970D01*
X5234Y1898D01*
X5101Y1766D01*
X5050Y1641D01*
X5050Y1974D01*
X6800Y3274D01*
X6800Y3274D01*
X6839Y3274D01*
X6913Y3305D01*
X6969Y3361D01*
X6999Y3435D01*
X7000Y3514D01*
X7000Y3650D01*
X6950Y3700D01*
X6800Y3700D01*
X6800Y3800D01*
X6950Y3800D01*
X7000Y3850D01*
X7000Y3985D01*
X6999Y4064D01*
X6969Y4138D01*
X6913Y4194D01*
X6839Y4225D01*
X6800Y4225D01*
X6800Y4268D01*
X6811Y4279D01*
X7320Y4279D01*
X7400Y4295D01*
X7468Y4340D01*
X7578Y4450D01*
X7909Y4450D01*
X7928Y4430D01*
X7991Y4405D01*
X8058Y4404D01*
X8508Y4404D01*
X8540Y4417D01*
X8540Y4237D01*
X8500Y4197D01*
X8455Y4088D01*
X8454Y3971D01*
X8499Y3863D01*
X8507Y3855D01*
X8490Y3837D01*
X8445Y3728D01*
X8444Y3611D01*
X8489Y3503D01*
X8572Y3420D01*
X8681Y3375D01*
X8798Y3374D01*
X8906Y3419D01*
X8989Y3502D01*
X9034Y3611D01*
X9034Y3668D01*
X9148Y3781D01*
X9148Y3781D01*
X9148Y3781D01*
X9194Y3849D01*
X9194Y3849D01*
X9210Y3930D01*
X9210Y4090D01*
X10350Y4090D01*
X10430Y4105D01*
X10498Y4151D01*
X10751Y4404D01*
X11008Y4404D01*
X11054Y4424D01*
X11054Y4416D01*
X11080Y4353D01*
X11128Y4305D01*
X11191Y4280D01*
X11258Y4279D01*
X11808Y4279D01*
X11871Y4305D01*
X11919Y4353D01*
X11944Y4416D01*
X11944Y4450D01*
X12860Y4450D01*
X12860Y1804D01*
X12766Y1898D01*
X12593Y1969D01*
X12406Y1970D01*
X12234Y1898D01*
X12101Y1766D01*
X12030Y1593D01*
X12029Y1406D01*
X12101Y1234D01*
X12233Y1101D01*
X12406Y1030D01*
X12593Y1029D01*
X12765Y1101D01*
X12860Y1195D01*
X12860Y804D01*
X12860Y804D01*
G37*
G54D28*
X12860Y804D02*
X12766Y898D01*
X12593Y969D01*
X12406Y970D01*
X12234Y898D01*
X12101Y766D01*
X12030Y593D01*
X12029Y406D01*
X12101Y234D01*
X12145Y189D01*
X11854Y189D01*
X11898Y233D01*
X11969Y406D01*
X11970Y593D01*
X11970Y1593D01*
X11898Y1765D01*
X11766Y1898D01*
X11593Y1969D01*
X11406Y1970D01*
X11234Y1898D01*
X11101Y1766D01*
X11030Y1593D01*
X11029Y1406D01*
X11101Y1234D01*
X11233Y1101D01*
X11406Y1030D01*
X11593Y1029D01*
X11765Y1101D01*
X11898Y1233D01*
X11969Y1406D01*
X11970Y1593D01*
X11970Y593D01*
X11898Y765D01*
X11766Y898D01*
X11593Y969D01*
X11406Y970D01*
X11234Y898D01*
X11101Y766D01*
X11030Y593D01*
X11029Y406D01*
X11101Y234D01*
X11145Y189D01*
X10854Y189D01*
X10898Y233D01*
X10969Y406D01*
X10970Y593D01*
X10970Y1593D01*
X10898Y1765D01*
X10766Y1898D01*
X10593Y1969D01*
X10406Y1970D01*
X10234Y1898D01*
X10101Y1766D01*
X10030Y1593D01*
X10029Y1406D01*
X10101Y1234D01*
X10233Y1101D01*
X10406Y1030D01*
X10593Y1029D01*
X10765Y1101D01*
X10898Y1233D01*
X10969Y1406D01*
X10970Y1593D01*
X10970Y593D01*
X10898Y765D01*
X10766Y898D01*
X10593Y969D01*
X10406Y970D01*
X10234Y898D01*
X10101Y766D01*
X10030Y593D01*
X10029Y406D01*
X10101Y234D01*
X10233Y101D01*
X10358Y50D01*
X10224Y50D01*
X10210Y55D01*
X9790Y56D01*
X9776Y50D01*
X9641Y50D01*
X9765Y101D01*
X9898Y233D01*
X9969Y406D01*
X9970Y593D01*
X9970Y1593D01*
X9898Y1765D01*
X9766Y1898D01*
X9593Y1969D01*
X9406Y1970D01*
X9234Y1898D01*
X9101Y1766D01*
X9030Y1593D01*
X9029Y1406D01*
X9101Y1234D01*
X9233Y1101D01*
X9406Y1030D01*
X9593Y1029D01*
X9765Y1101D01*
X9898Y1233D01*
X9969Y1406D01*
X9970Y1593D01*
X9970Y593D01*
X9898Y765D01*
X9766Y898D01*
X9593Y969D01*
X9406Y970D01*
X9234Y898D01*
X9101Y766D01*
X9030Y593D01*
X9029Y406D01*
X9101Y234D01*
X9145Y189D01*
X8854Y189D01*
X8898Y233D01*
X8969Y406D01*
X8970Y593D01*
X8970Y1593D01*
X8898Y1765D01*
X8766Y1898D01*
X8593Y1969D01*
X8406Y1970D01*
X8234Y1898D01*
X8101Y1766D01*
X8030Y1593D01*
X8029Y1406D01*
X8101Y1234D01*
X8233Y1101D01*
X8406Y1030D01*
X8593Y1029D01*
X8765Y1101D01*
X8898Y1233D01*
X8969Y1406D01*
X8970Y1593D01*
X8970Y593D01*
X8898Y765D01*
X8766Y898D01*
X8593Y969D01*
X8406Y970D01*
X8234Y898D01*
X8101Y766D01*
X8030Y593D01*
X8029Y406D01*
X8101Y234D01*
X8145Y189D01*
X7854Y189D01*
X7898Y233D01*
X7969Y406D01*
X7970Y593D01*
X7970Y1593D01*
X7898Y1765D01*
X7766Y1898D01*
X7593Y1969D01*
X7406Y1970D01*
X7234Y1898D01*
X7101Y1766D01*
X7030Y1593D01*
X7029Y1406D01*
X7101Y1234D01*
X7233Y1101D01*
X7406Y1030D01*
X7593Y1029D01*
X7765Y1101D01*
X7898Y1233D01*
X7969Y1406D01*
X7970Y1593D01*
X7970Y593D01*
X7898Y765D01*
X7766Y898D01*
X7593Y969D01*
X7406Y970D01*
X7234Y898D01*
X7101Y766D01*
X7030Y593D01*
X7029Y406D01*
X7101Y234D01*
X7145Y189D01*
X6854Y189D01*
X6898Y233D01*
X6969Y406D01*
X6970Y593D01*
X6970Y1593D01*
X6898Y1765D01*
X6766Y1898D01*
X6593Y1969D01*
X6406Y1970D01*
X6234Y1898D01*
X6101Y1766D01*
X6030Y1593D01*
X6029Y1406D01*
X6101Y1234D01*
X6233Y1101D01*
X6406Y1030D01*
X6593Y1029D01*
X6765Y1101D01*
X6898Y1233D01*
X6969Y1406D01*
X6970Y1593D01*
X6970Y593D01*
X6898Y765D01*
X6766Y898D01*
X6593Y969D01*
X6406Y970D01*
X6234Y898D01*
X6101Y766D01*
X6030Y593D01*
X6029Y406D01*
X6101Y234D01*
X6145Y189D01*
X5854Y189D01*
X5898Y233D01*
X5969Y406D01*
X5970Y593D01*
X5898Y765D01*
X5766Y898D01*
X5593Y969D01*
X5406Y970D01*
X5234Y898D01*
X5101Y766D01*
X5050Y641D01*
X5050Y1358D01*
X5101Y1234D01*
X5233Y1101D01*
X5406Y1030D01*
X5593Y1029D01*
X5765Y1101D01*
X5898Y1233D01*
X5969Y1406D01*
X5970Y1593D01*
X5898Y1765D01*
X5766Y1898D01*
X5593Y1969D01*
X5406Y1970D01*
X5234Y1898D01*
X5101Y1766D01*
X5050Y1641D01*
X5050Y1974D01*
X6800Y3274D01*
X6800Y3274D01*
X6839Y3274D01*
X6913Y3305D01*
X6969Y3361D01*
X6999Y3435D01*
X7000Y3514D01*
X7000Y3650D01*
X6950Y3700D01*
X6800Y3700D01*
X6800Y3800D01*
X6950Y3800D01*
X7000Y3850D01*
X7000Y3985D01*
X6999Y4064D01*
X6969Y4138D01*
X6913Y4194D01*
X6839Y4225D01*
X6800Y4225D01*
X6800Y4268D01*
X6811Y4279D01*
X7320Y4279D01*
X7400Y4295D01*
X7468Y4340D01*
X7578Y4450D01*
X7909Y4450D01*
X7928Y4430D01*
X7991Y4405D01*
X8058Y4404D01*
X8508Y4404D01*
X8540Y4417D01*
X8540Y4237D01*
X8500Y4197D01*
X8455Y4088D01*
X8454Y3971D01*
X8499Y3863D01*
X8507Y3855D01*
X8490Y3837D01*
X8445Y3728D01*
X8444Y3611D01*
X8489Y3503D01*
X8572Y3420D01*
X8681Y3375D01*
X8798Y3374D01*
X8906Y3419D01*
X8989Y3502D01*
X9034Y3611D01*
X9034Y3668D01*
X9148Y3781D01*
X9148Y3781D01*
X9148Y3781D01*
X9194Y3849D01*
X9194Y3849D01*
X9210Y3930D01*
X9210Y4090D01*
X10350Y4090D01*
X10430Y4105D01*
X10498Y4151D01*
X10751Y4404D01*
X11008Y4404D01*
X11054Y4424D01*
X11054Y4416D01*
X11080Y4353D01*
X11128Y4305D01*
X11191Y4280D01*
X11258Y4279D01*
X11808Y4279D01*
X11871Y4305D01*
X11919Y4353D01*
X11944Y4416D01*
X11944Y4450D01*
X12860Y4450D01*
X12860Y1804D01*
X12766Y1898D01*
X12593Y1969D01*
X12406Y1970D01*
X12234Y1898D01*
X12101Y1766D01*
X12030Y1593D01*
X12029Y1406D01*
X12101Y1234D01*
X12233Y1101D01*
X12406Y1030D01*
X12593Y1029D01*
X12765Y1101D01*
X12860Y1195D01*
X12860Y804D01*
M02*
