G04 (created by PCBNEW (2013-07-07 BZR 4022)-stable) date 01/11/2014 14:35:36*
%MOIN*%
G04 Gerber Fmt 3.4, Leading zero omitted, Abs format*
%FSLAX34Y34*%
G01*
G70*
G90*
G04 APERTURE LIST*
%ADD10C,0.00590551*%
%ADD11C,0.00393701*%
%ADD12R,0.0433X0.0472*%
%ADD13R,0.025X0.045*%
%ADD14R,0.045X0.025*%
%ADD15R,0.144X0.08*%
%ADD16R,0.04X0.08*%
%ADD17R,0.035X0.055*%
%ADD18R,0.055X0.035*%
%ADD19C,0.0354*%
%ADD20R,0.05X0.025*%
%ADD21C,0.177165*%
%ADD22O,0.019685X0.019685*%
%ADD23R,0.06X0.06*%
%ADD24C,0.06*%
G04 APERTURE END LIST*
G54D10*
G54D11*
X10750Y0D02*
X20000Y0D01*
X11000Y-250D02*
X10750Y0D01*
X11000Y-1750D02*
X11000Y-250D01*
X10750Y-2000D02*
X11000Y-1750D01*
X9250Y-2000D02*
X10750Y-2000D01*
X9000Y-1750D02*
X9250Y-2000D01*
X9000Y-250D02*
X9000Y-1750D01*
X9250Y0D02*
X9000Y-250D01*
X0Y0D02*
X9250Y0D01*
X10750Y16000D02*
X20000Y16000D01*
X10750Y16250D02*
X10750Y16000D01*
X11000Y16500D02*
X10750Y16250D01*
X11000Y17750D02*
X11000Y16500D01*
X10750Y18000D02*
X11000Y17750D01*
X9250Y18000D02*
X10750Y18000D01*
X9000Y17750D02*
X9250Y18000D01*
X9000Y16500D02*
X9000Y17750D01*
X9250Y16250D02*
X9000Y16500D01*
X9250Y16000D02*
X9250Y16250D01*
X0Y16000D02*
X9250Y16000D01*
X20000Y16000D02*
X20000Y0D01*
X0Y0D02*
X0Y16000D01*
G54D12*
X7455Y12317D03*
X8085Y13183D03*
X7455Y13183D03*
X8085Y12317D03*
G54D13*
X6450Y10750D03*
X7050Y10750D03*
X9200Y7750D03*
X9800Y7750D03*
X9200Y7000D03*
X9800Y7000D03*
X9200Y9250D03*
X9800Y9250D03*
G54D14*
X6750Y12450D03*
X6750Y13050D03*
X8750Y13050D03*
X8750Y12450D03*
G54D13*
X9200Y8500D03*
X9800Y8500D03*
X15550Y8000D03*
X14950Y8000D03*
G54D14*
X13750Y11050D03*
X13750Y10450D03*
X14500Y9550D03*
X14500Y8950D03*
G54D13*
X9200Y6250D03*
X9800Y6250D03*
G54D14*
X15500Y4700D03*
X15500Y5300D03*
X12500Y4700D03*
X12500Y5300D03*
G54D13*
X6450Y9250D03*
X7050Y9250D03*
X6450Y11500D03*
X7050Y11500D03*
G54D14*
X9000Y4700D03*
X9000Y5300D03*
X10750Y4700D03*
X10750Y5300D03*
X8250Y4700D03*
X8250Y5300D03*
X9500Y11300D03*
X9500Y10700D03*
X10250Y11300D03*
X10250Y10700D03*
G54D13*
X6450Y10000D03*
X7050Y10000D03*
G54D14*
X14750Y4700D03*
X14750Y5300D03*
G54D13*
X15550Y7000D03*
X14950Y7000D03*
G54D14*
X14500Y11050D03*
X14500Y10450D03*
G54D15*
X12500Y6950D03*
G54D16*
X12500Y9550D03*
X13400Y9550D03*
X11600Y9550D03*
G54D17*
X5875Y3750D03*
X6625Y3750D03*
G54D18*
X9750Y4625D03*
X9750Y5375D03*
X11500Y4625D03*
X11500Y5375D03*
X11250Y10625D03*
X11250Y11375D03*
G54D17*
X6375Y8250D03*
X7125Y8250D03*
G54D19*
X4366Y14343D03*
X2634Y14343D03*
G54D20*
X3150Y5750D03*
X3150Y6250D03*
X3150Y6750D03*
X3150Y7250D03*
X5350Y7250D03*
X5350Y6750D03*
X5350Y6250D03*
X5350Y5750D03*
G54D13*
X5050Y4750D03*
X4450Y4750D03*
X4550Y8000D03*
X3950Y8000D03*
G54D21*
X10000Y17000D03*
X10000Y-1000D03*
G54D22*
X5498Y9387D03*
X5498Y9112D03*
G54D13*
X3550Y4750D03*
X2950Y4750D03*
G54D23*
X18500Y15500D03*
G54D24*
X18500Y14500D03*
X18500Y13500D03*
X18500Y12500D03*
X18500Y11500D03*
X18500Y10500D03*
X18500Y9500D03*
X18500Y8500D03*
X18500Y7500D03*
X18500Y6500D03*
X18500Y5500D03*
X18500Y4500D03*
X18500Y3500D03*
X18500Y2500D03*
X18500Y1500D03*
X18500Y500D03*
G54D23*
X19500Y15500D03*
G54D24*
X19500Y14500D03*
X19500Y13500D03*
X19500Y12500D03*
X19500Y11500D03*
X19500Y10500D03*
X19500Y9500D03*
X19500Y8500D03*
X19500Y7500D03*
X19500Y6500D03*
X19500Y5500D03*
X19500Y4500D03*
X19500Y3500D03*
X19500Y2500D03*
X19500Y1500D03*
X19500Y500D03*
G54D23*
X500Y15500D03*
G54D24*
X500Y14500D03*
X500Y13500D03*
X500Y12500D03*
X500Y11500D03*
X500Y10500D03*
X500Y9500D03*
X500Y8500D03*
X500Y7500D03*
X500Y6500D03*
X500Y5500D03*
X500Y4500D03*
X500Y3500D03*
X500Y2500D03*
X500Y1500D03*
X500Y500D03*
G54D23*
X6500Y15500D03*
G54D24*
X7500Y15500D03*
X8500Y15500D03*
X9500Y15500D03*
X10500Y15500D03*
X11500Y15500D03*
X12500Y15500D03*
X13500Y15500D03*
X14500Y15500D03*
X15500Y15500D03*
X16500Y15500D03*
X17500Y15500D03*
G54D23*
X2500Y1500D03*
G54D24*
X3500Y1500D03*
X4500Y1500D03*
X5500Y1500D03*
X6500Y1500D03*
X7500Y1500D03*
X8500Y1500D03*
X9500Y1500D03*
X10500Y1500D03*
X11500Y1500D03*
X12500Y1500D03*
X13500Y1500D03*
X14500Y1500D03*
X15500Y1500D03*
X16500Y1500D03*
X17500Y1500D03*
G54D23*
X2500Y500D03*
G54D24*
X3500Y500D03*
X4500Y500D03*
X5500Y500D03*
X6500Y500D03*
X7500Y500D03*
X8500Y500D03*
X9500Y500D03*
X10500Y500D03*
X11500Y500D03*
X12500Y500D03*
X13500Y500D03*
X14500Y500D03*
X15500Y500D03*
X16500Y500D03*
X17500Y500D03*
G54D23*
X6500Y14500D03*
G54D24*
X7500Y14500D03*
X8500Y14500D03*
X9500Y14500D03*
X10500Y14500D03*
X11500Y14500D03*
X12500Y14500D03*
X13500Y14500D03*
X14500Y14500D03*
X15500Y14500D03*
X16500Y14500D03*
X17500Y14500D03*
M02*
