G04 (created by PCBNEW (2013-07-07 BZR 4022)-stable) date 02/11/2014 22:01:44*
%MOIN*%
G04 Gerber Fmt 3.4, Leading zero omitted, Abs format*
%FSLAX34Y34*%
G01*
G70*
G90*
G04 APERTURE LIST*
%ADD10C,0.00590551*%
%ADD11C,0.00393701*%
%ADD12R,0.011X0.0591*%
%ADD13R,0.0591X0.011*%
%ADD14R,0.045X0.025*%
%ADD15C,0.177165*%
%ADD16R,0.025X0.045*%
%ADD17R,0.036X0.036*%
%ADD18R,0.06X0.06*%
%ADD19C,0.06*%
%ADD20C,0.0275591*%
%ADD21R,0.11811X0.11811*%
%ADD22R,0.0393701X0.0354331*%
%ADD23R,0.0314X0.0314*%
%ADD24R,0.0197X0.102362*%
%ADD25R,0.0591X0.15748*%
%ADD26R,0.0591X0.11811*%
%ADD27C,0.0354*%
%ADD28R,0.0551X0.0512*%
G04 APERTURE END LIST*
G54D10*
G54D11*
X10750Y0D02*
X20000Y0D01*
X11000Y-250D02*
X10750Y0D01*
X11000Y-1750D02*
X11000Y-250D01*
X10750Y-2000D02*
X11000Y-1750D01*
X9250Y-2000D02*
X10750Y-2000D01*
X9000Y-1750D02*
X9250Y-2000D01*
X9000Y-250D02*
X9000Y-1750D01*
X9250Y0D02*
X9000Y-250D01*
X0Y0D02*
X9250Y0D01*
X10750Y16000D02*
X20000Y16000D01*
X10750Y16250D02*
X10750Y16000D01*
X11000Y16500D02*
X10750Y16250D01*
X11000Y17750D02*
X11000Y16500D01*
X10750Y18000D02*
X11000Y17750D01*
X9250Y18000D02*
X10750Y18000D01*
X9000Y17750D02*
X9250Y18000D01*
X9000Y16500D02*
X9000Y17750D01*
X9250Y16250D02*
X9000Y16500D01*
X9250Y16000D02*
X9250Y16250D01*
X0Y16000D02*
X9250Y16000D01*
X20000Y16000D02*
X20000Y0D01*
X0Y0D02*
X0Y16000D01*
G54D12*
X15945Y12291D03*
X15748Y12291D03*
X15551Y12291D03*
X15354Y12291D03*
X15157Y12291D03*
X14961Y12291D03*
X14764Y12291D03*
X14567Y12291D03*
X14370Y12291D03*
X14173Y12291D03*
X13976Y12291D03*
X13780Y12291D03*
X13583Y12291D03*
X13386Y12291D03*
X13189Y12291D03*
X12992Y12291D03*
X12795Y12291D03*
X12598Y12291D03*
X12402Y12291D03*
X12205Y12291D03*
X12008Y12291D03*
X11811Y12291D03*
X11614Y12291D03*
X11417Y12291D03*
X11220Y12291D03*
X11024Y12291D03*
X10827Y12291D03*
X10630Y12291D03*
X10433Y12291D03*
X10236Y12291D03*
X10039Y12291D03*
X9843Y12291D03*
X9646Y12291D03*
X9449Y12291D03*
X9252Y12291D03*
X9055Y12291D03*
X9055Y3709D03*
X9252Y3709D03*
X9449Y3709D03*
X9646Y3709D03*
X9843Y3709D03*
X10039Y3709D03*
X10236Y3709D03*
X10433Y3709D03*
X10630Y3709D03*
X10827Y3709D03*
X11024Y3709D03*
X11220Y3709D03*
X11417Y3709D03*
X11614Y3709D03*
X11811Y3709D03*
X12008Y3709D03*
X12205Y3709D03*
X12402Y3709D03*
X12598Y3709D03*
X12795Y3709D03*
X12992Y3709D03*
X13189Y3709D03*
X13386Y3709D03*
X13583Y3709D03*
X13780Y3709D03*
X13976Y3709D03*
X14173Y3709D03*
X14370Y3709D03*
X14567Y3709D03*
X14764Y3709D03*
X14961Y3709D03*
X15157Y3709D03*
X15354Y3709D03*
X15551Y3709D03*
X15748Y3709D03*
X15945Y3709D03*
G54D13*
X8209Y11445D03*
X8209Y11248D03*
X8209Y11051D03*
X8209Y10854D03*
X8209Y10657D03*
X8209Y10461D03*
X8209Y10264D03*
X8209Y10067D03*
X8209Y9870D03*
X8209Y9673D03*
X8209Y9476D03*
X8209Y9280D03*
X8209Y9083D03*
X8209Y8886D03*
X8209Y8689D03*
X8209Y8492D03*
X8209Y8295D03*
X8209Y8098D03*
X8209Y7902D03*
X8209Y7705D03*
X8209Y7508D03*
X8209Y7311D03*
X8209Y7114D03*
X8209Y6917D03*
X8209Y6720D03*
X8209Y6524D03*
X8209Y6327D03*
X8209Y6130D03*
X8209Y5933D03*
X8209Y5736D03*
X8209Y5539D03*
X8209Y5343D03*
X8209Y5146D03*
X8209Y4949D03*
X8209Y4752D03*
X8209Y4555D03*
X16791Y4555D03*
X16791Y4752D03*
X16791Y4949D03*
X16791Y5146D03*
X16791Y5343D03*
X16791Y5539D03*
X16791Y5736D03*
X16791Y5933D03*
X16791Y6130D03*
X16791Y6327D03*
X16791Y6524D03*
X16791Y6720D03*
X16791Y6917D03*
X16791Y7114D03*
X16791Y7311D03*
X16791Y7508D03*
X16791Y7705D03*
X16791Y7902D03*
X16791Y8098D03*
X16791Y8295D03*
X16791Y8492D03*
X16791Y8689D03*
X16791Y8886D03*
X16791Y9083D03*
X16791Y9280D03*
X16791Y9476D03*
X16791Y9673D03*
X16791Y9870D03*
X16791Y10067D03*
X16791Y10264D03*
X16791Y10461D03*
X16791Y10657D03*
X16791Y10854D03*
X16791Y11051D03*
X16791Y11248D03*
X16791Y11445D03*
G54D14*
X4250Y11800D03*
X4250Y11200D03*
X3500Y11800D03*
X3500Y11200D03*
X6500Y8800D03*
X6500Y8200D03*
X6500Y9450D03*
X6500Y10050D03*
G54D15*
X10000Y17000D03*
X10000Y-1000D03*
G54D14*
X6250Y6950D03*
X6250Y7550D03*
G54D16*
X2450Y3500D03*
X3050Y3500D03*
G54D17*
X5650Y4150D03*
X6350Y4150D03*
X6000Y3350D03*
G54D14*
X2500Y11200D03*
X2500Y11800D03*
X1750Y11800D03*
X1750Y11200D03*
G54D18*
X18500Y15500D03*
G54D19*
X18500Y14500D03*
X18500Y13500D03*
X18500Y12500D03*
X18500Y11500D03*
X18500Y10500D03*
X18500Y9500D03*
X18500Y8500D03*
X18500Y7500D03*
X18500Y6500D03*
X18500Y5500D03*
X18500Y4500D03*
X18500Y3500D03*
X18500Y2500D03*
X18500Y1500D03*
X18500Y500D03*
G54D18*
X19500Y15500D03*
G54D19*
X19500Y14500D03*
X19500Y13500D03*
X19500Y12500D03*
X19500Y11500D03*
X19500Y10500D03*
X19500Y9500D03*
X19500Y8500D03*
X19500Y7500D03*
X19500Y6500D03*
X19500Y5500D03*
X19500Y4500D03*
X19500Y3500D03*
X19500Y2500D03*
X19500Y1500D03*
X19500Y500D03*
G54D18*
X500Y15500D03*
G54D19*
X500Y14500D03*
X500Y13500D03*
X500Y12500D03*
X500Y11500D03*
X500Y10500D03*
X500Y9500D03*
X500Y8500D03*
X500Y7500D03*
X500Y6500D03*
X500Y5500D03*
X500Y4500D03*
X500Y3500D03*
X500Y2500D03*
X500Y1500D03*
X500Y500D03*
G54D16*
X2450Y4250D03*
X3050Y4250D03*
G54D18*
X6500Y15500D03*
G54D19*
X7500Y15500D03*
X8500Y15500D03*
X9500Y15500D03*
X10500Y15500D03*
X11500Y15500D03*
X12500Y15500D03*
X13500Y15500D03*
X14500Y15500D03*
X15500Y15500D03*
X16500Y15500D03*
X17500Y15500D03*
G54D18*
X2500Y1500D03*
G54D19*
X3500Y1500D03*
X4500Y1500D03*
X5500Y1500D03*
X6500Y1500D03*
X7500Y1500D03*
X8500Y1500D03*
X9500Y1500D03*
X10500Y1500D03*
X11500Y1500D03*
X12500Y1500D03*
X13500Y1500D03*
X14500Y1500D03*
X15500Y1500D03*
X16500Y1500D03*
X17500Y1500D03*
G54D18*
X2500Y500D03*
G54D19*
X3500Y500D03*
X4500Y500D03*
X5500Y500D03*
X6500Y500D03*
X7500Y500D03*
X8500Y500D03*
X9500Y500D03*
X10500Y500D03*
X11500Y500D03*
X12500Y500D03*
X13500Y500D03*
X14500Y500D03*
X15500Y500D03*
X16500Y500D03*
X17500Y500D03*
G54D14*
X7570Y3300D03*
X7570Y3900D03*
X8250Y3300D03*
X8250Y3900D03*
G54D18*
X6500Y14500D03*
G54D19*
X7500Y14500D03*
X8500Y14500D03*
X9500Y14500D03*
X10500Y14500D03*
X11500Y14500D03*
X12500Y14500D03*
X13500Y14500D03*
X14500Y14500D03*
X15500Y14500D03*
X16500Y14500D03*
X17500Y14500D03*
G54D20*
X5932Y9466D03*
X5932Y9033D03*
G54D21*
X3018Y9250D03*
G54D22*
X3935Y7557D03*
X4564Y7557D03*
X3935Y5942D03*
X4564Y5942D03*
G54D23*
X3955Y4250D03*
X4545Y4250D03*
X3955Y3250D03*
X4545Y3250D03*
G54D22*
X2185Y7557D03*
X2814Y7557D03*
X2185Y5942D03*
X2814Y5942D03*
G54D24*
X3500Y13147D03*
X3814Y13147D03*
X2870Y13147D03*
G54D25*
X5350Y15155D03*
G54D26*
X5350Y13187D03*
G54D25*
X1649Y15155D03*
G54D26*
X1649Y13187D03*
G54D24*
X3185Y13147D03*
G54D27*
X4366Y14093D03*
X2634Y14093D03*
G54D24*
X4129Y13147D03*
G54D28*
X5350Y12071D03*
X5350Y10929D03*
M02*
