G04 (created by PCBNEW (2013-07-07 BZR 4022)-stable) date 10/10/2013 20:13:21*
%MOIN*%
G04 Gerber Fmt 3.4, Leading zero omitted, Abs format*
%FSLAX34Y34*%
G01*
G70*
G90*
G04 APERTURE LIST*
%ADD10C,0.00590551*%
%ADD11C,0.09*%
%ADD12R,0.09X0.09*%
%ADD13C,0.08*%
%ADD14R,0.08X0.08*%
%ADD15C,0.1972*%
%ADD16R,0.1381X0.1381*%
%ADD17C,0.1381*%
%ADD18C,0.114488*%
%ADD19R,0.114488X0.114488*%
%ADD20C,0.15*%
%ADD21C,0.169*%
%ADD22R,0.1066X0.08*%
%ADD23O,0.1066X0.08*%
%ADD24R,0.0987X0.08*%
%ADD25O,0.0987X0.08*%
G04 APERTURE END LIST*
G54D10*
G54D11*
X32500Y9000D03*
X33500Y9000D03*
G54D12*
X31500Y9000D03*
G54D11*
X32500Y12750D03*
X33500Y12750D03*
G54D12*
X31500Y12750D03*
G54D11*
X32500Y16250D03*
X33500Y16250D03*
G54D12*
X31500Y16250D03*
G54D11*
X32500Y19750D03*
X33500Y19750D03*
G54D12*
X31500Y19750D03*
G54D13*
X4500Y30000D03*
X5500Y30000D03*
X6500Y30000D03*
X7500Y30000D03*
X8500Y30000D03*
X9500Y30000D03*
X10500Y30000D03*
X11500Y30000D03*
X11500Y35000D03*
X10500Y35000D03*
X9500Y35000D03*
X8500Y35000D03*
X7500Y35000D03*
X6500Y35000D03*
X5500Y35000D03*
X4500Y35000D03*
X12500Y30000D03*
X13500Y30000D03*
X14500Y30000D03*
X15500Y30000D03*
X16500Y30000D03*
X17500Y30000D03*
X18500Y30000D03*
X19500Y30000D03*
X19500Y35000D03*
X18500Y35000D03*
X17500Y35000D03*
X16500Y35000D03*
X15500Y35000D03*
X14500Y35000D03*
X13500Y35000D03*
X12500Y35000D03*
X11500Y9500D03*
X10500Y9500D03*
X9500Y9500D03*
X8500Y9500D03*
X7500Y9500D03*
X6500Y9500D03*
X5500Y9500D03*
X4500Y9500D03*
X4500Y4500D03*
X5500Y4500D03*
X6500Y4500D03*
X7500Y4500D03*
X8500Y4500D03*
X9500Y4500D03*
X10500Y4500D03*
X11500Y4500D03*
X20500Y30000D03*
X21500Y30000D03*
X22500Y30000D03*
X23500Y30000D03*
X24500Y30000D03*
X25500Y30000D03*
X26500Y30000D03*
X27500Y30000D03*
X27500Y35000D03*
X26500Y35000D03*
X25500Y35000D03*
X24500Y35000D03*
X23500Y35000D03*
X22500Y35000D03*
X21500Y35000D03*
X20500Y35000D03*
G54D14*
X21500Y27500D03*
G54D13*
X21500Y28500D03*
X22500Y27500D03*
X22500Y28500D03*
X23500Y27500D03*
X23500Y28500D03*
G54D14*
X10500Y12000D03*
G54D13*
X10500Y11000D03*
X9500Y12000D03*
X9500Y11000D03*
X8500Y12000D03*
X8500Y11000D03*
G54D14*
X13500Y27500D03*
G54D13*
X13500Y28500D03*
X14500Y27500D03*
X14500Y28500D03*
X15500Y27500D03*
X15500Y28500D03*
G54D14*
X5500Y27500D03*
G54D13*
X5500Y28500D03*
X6500Y27500D03*
X6500Y28500D03*
X7500Y27500D03*
X7500Y28500D03*
G54D14*
X22000Y37500D03*
G54D13*
X23000Y37500D03*
X24000Y37500D03*
X25000Y37500D03*
G54D14*
X6500Y37500D03*
G54D13*
X7500Y37500D03*
X8500Y37500D03*
X9500Y37500D03*
G54D14*
X14500Y37500D03*
G54D13*
X15500Y37500D03*
X16500Y37500D03*
X17500Y37500D03*
G54D14*
X9500Y2000D03*
G54D13*
X8500Y2000D03*
X7500Y2000D03*
X6500Y2000D03*
G54D15*
X1500Y38000D03*
X1500Y1500D03*
X38000Y1500D03*
X38000Y38000D03*
G54D16*
X2000Y5000D03*
G54D17*
X2000Y7000D03*
G54D16*
X37000Y7000D03*
G54D17*
X37000Y5000D03*
G54D14*
X27000Y37500D03*
G54D13*
X28000Y37500D03*
G54D14*
X34500Y37500D03*
G54D13*
X35500Y37500D03*
G54D14*
X32000Y37500D03*
G54D13*
X33000Y37500D03*
G54D14*
X29500Y37500D03*
G54D13*
X30500Y37500D03*
G54D11*
X32500Y5750D03*
X33500Y5750D03*
G54D12*
X31500Y5750D03*
G54D18*
X37724Y17311D03*
G54D19*
X37724Y18688D03*
G54D18*
X37724Y20811D03*
G54D19*
X37724Y22188D03*
G54D18*
X37724Y10311D03*
G54D19*
X37724Y11688D03*
G54D18*
X37724Y13811D03*
G54D19*
X37724Y15188D03*
G54D20*
X34500Y1070D03*
X31500Y2430D03*
G54D21*
X33000Y1750D03*
G54D20*
X1320Y10750D03*
X2680Y13750D03*
G54D21*
X2000Y12250D03*
G54D14*
X6500Y23500D03*
G54D13*
X6500Y24500D03*
X6500Y25500D03*
G54D11*
X32500Y26750D03*
X33500Y26750D03*
G54D12*
X31500Y26750D03*
G54D11*
X32500Y23250D03*
X33500Y23250D03*
G54D12*
X31500Y23250D03*
G54D18*
X37724Y27811D03*
G54D19*
X37724Y29188D03*
G54D18*
X37724Y24311D03*
G54D19*
X37724Y25688D03*
G54D13*
X19500Y9500D03*
X18500Y9500D03*
X17500Y9500D03*
X16500Y9500D03*
X15500Y9500D03*
X14500Y9500D03*
X13500Y9500D03*
X12500Y9500D03*
X12500Y4500D03*
X13500Y4500D03*
X14500Y4500D03*
X15500Y4500D03*
X16500Y4500D03*
X17500Y4500D03*
X18500Y4500D03*
X19500Y4500D03*
X27500Y9500D03*
X26500Y9500D03*
X25500Y9500D03*
X24500Y9500D03*
X23500Y9500D03*
X22500Y9500D03*
X21500Y9500D03*
X20500Y9500D03*
X20500Y4500D03*
X21500Y4500D03*
X22500Y4500D03*
X23500Y4500D03*
X24500Y4500D03*
X25500Y4500D03*
X26500Y4500D03*
X27500Y4500D03*
G54D14*
X26500Y12000D03*
G54D13*
X26500Y11000D03*
X25500Y12000D03*
X25500Y11000D03*
X24500Y12000D03*
X24500Y11000D03*
G54D14*
X18500Y12000D03*
G54D13*
X18500Y11000D03*
X17500Y12000D03*
X17500Y11000D03*
X16500Y12000D03*
X16500Y11000D03*
G54D14*
X25500Y2000D03*
G54D13*
X24500Y2000D03*
X23500Y2000D03*
X22500Y2000D03*
G54D14*
X17500Y2000D03*
G54D13*
X16500Y2000D03*
X15500Y2000D03*
X14500Y2000D03*
G54D14*
X37500Y32750D03*
G54D13*
X37500Y31750D03*
G54D14*
X37500Y35250D03*
G54D13*
X37500Y34250D03*
G54D14*
X2500Y23500D03*
G54D13*
X3500Y23500D03*
X2500Y22500D03*
X3500Y22500D03*
X2500Y21500D03*
X3500Y21500D03*
X2500Y20500D03*
X3500Y20500D03*
X2500Y19500D03*
X3500Y19500D03*
X2500Y18500D03*
X3500Y18500D03*
G54D22*
X2500Y30000D03*
G54D23*
X2500Y29000D03*
X2500Y28000D03*
X2500Y27000D03*
G54D24*
X27152Y27750D03*
G54D25*
X28348Y27750D03*
X27152Y26750D03*
X28348Y26750D03*
X27152Y25750D03*
X28348Y25750D03*
X27152Y24750D03*
X28348Y24750D03*
X27152Y23750D03*
X28348Y23750D03*
X27152Y22750D03*
X28348Y22750D03*
G54D22*
X9500Y26000D03*
G54D23*
X9500Y27000D03*
X9500Y28000D03*
G54D22*
X6500Y12000D03*
G54D23*
X6500Y13000D03*
X6500Y14000D03*
G54D22*
X18500Y26750D03*
G54D23*
X18500Y27750D03*
G54D22*
X17500Y26750D03*
G54D23*
X17500Y27750D03*
M02*
