G04 (created by PCBNEW (2013-07-07 BZR 4022)-stable) date 27/09/2013 20:28:05*
%MOIN*%
G04 Gerber Fmt 3.4, Leading zero omitted, Abs format*
%FSLAX34Y34*%
G01*
G70*
G90*
G04 APERTURE LIST*
%ADD10C,0.00590551*%
%ADD11C,0.09*%
%ADD12R,0.09X0.09*%
%ADD13R,0.056X0.056*%
%ADD14R,0.055X0.075*%
%ADD15R,0.075X0.055*%
%ADD16C,0.08*%
%ADD17R,0.08X0.08*%
%ADD18R,0.0672X0.0672*%
%ADD19R,0.1066X0.0909*%
%ADD20R,0.1617X0.083*%
%ADD21R,0.1224X0.083*%
%ADD22C,0.1972*%
%ADD23R,0.1381X0.1381*%
%ADD24C,0.1381*%
%ADD25R,0.04X0.065*%
%ADD26C,0.114488*%
%ADD27R,0.114488X0.114488*%
%ADD28C,0.15*%
%ADD29C,0.169*%
%ADD30C,0.0987*%
%ADD31R,0.1066X0.08*%
%ADD32O,0.1066X0.08*%
G04 APERTURE END LIST*
G54D10*
G54D11*
X31500Y9000D03*
X32500Y9000D03*
G54D12*
X30500Y9000D03*
G54D11*
X31500Y13000D03*
X32500Y13000D03*
G54D12*
X30500Y13000D03*
G54D11*
X31500Y17000D03*
X32500Y17000D03*
G54D12*
X30500Y17000D03*
G54D11*
X31500Y21000D03*
X32500Y21000D03*
G54D12*
X30500Y21000D03*
G54D13*
X28850Y14900D03*
X28850Y15600D03*
X29650Y15250D03*
X28850Y10900D03*
X28850Y11600D03*
X29650Y11250D03*
X29100Y18900D03*
X29100Y19600D03*
X29900Y19250D03*
X29100Y22900D03*
X29100Y23600D03*
X29900Y23250D03*
G54D14*
X28625Y29000D03*
X29375Y29000D03*
X31625Y29000D03*
X32375Y29000D03*
G54D15*
X30750Y10875D03*
X30750Y11625D03*
X30750Y14875D03*
X30750Y15625D03*
X31750Y10875D03*
X31750Y11625D03*
X31750Y14875D03*
X31750Y15625D03*
G54D14*
X25625Y29000D03*
X26375Y29000D03*
X22625Y29000D03*
X23375Y29000D03*
X25625Y30000D03*
X26375Y30000D03*
X22625Y30000D03*
X23375Y30000D03*
X31625Y30000D03*
X32375Y30000D03*
X28625Y30000D03*
X29375Y30000D03*
G54D15*
X8500Y19625D03*
X8500Y20375D03*
X15500Y19625D03*
X15500Y20375D03*
G54D14*
X29375Y28000D03*
X28625Y28000D03*
X32375Y28000D03*
X31625Y28000D03*
X23375Y28000D03*
X22625Y28000D03*
X26375Y28000D03*
X25625Y28000D03*
X30375Y7250D03*
X31125Y7250D03*
G54D15*
X19500Y10625D03*
X19500Y11375D03*
X11500Y10625D03*
X11500Y11375D03*
X12500Y23375D03*
X12500Y22625D03*
X4500Y23375D03*
X4500Y22625D03*
X32000Y22875D03*
X32000Y23625D03*
X32000Y18875D03*
X32000Y19625D03*
X31000Y22875D03*
X31000Y23625D03*
X31000Y18875D03*
X31000Y19625D03*
G54D16*
X4500Y25000D03*
X5500Y25000D03*
X6500Y25000D03*
X7500Y25000D03*
X8500Y25000D03*
X9500Y25000D03*
X10500Y25000D03*
X11500Y25000D03*
X11500Y30000D03*
X10500Y30000D03*
X9500Y30000D03*
X8500Y30000D03*
X7500Y30000D03*
X6500Y30000D03*
X5500Y30000D03*
X4500Y30000D03*
X12500Y25000D03*
X13500Y25000D03*
X14500Y25000D03*
X15500Y25000D03*
X16500Y25000D03*
X17500Y25000D03*
X18500Y25000D03*
X19500Y25000D03*
X19500Y30000D03*
X18500Y30000D03*
X17500Y30000D03*
X16500Y30000D03*
X15500Y30000D03*
X14500Y30000D03*
X13500Y30000D03*
X12500Y30000D03*
X11500Y9000D03*
X10500Y9000D03*
X9500Y9000D03*
X8500Y9000D03*
X7500Y9000D03*
X6500Y9000D03*
X5500Y9000D03*
X4500Y9000D03*
X4500Y4000D03*
X5500Y4000D03*
X6500Y4000D03*
X7500Y4000D03*
X8500Y4000D03*
X9500Y4000D03*
X10500Y4000D03*
X11500Y4000D03*
X19500Y9000D03*
X18500Y9000D03*
X17500Y9000D03*
X16500Y9000D03*
X15500Y9000D03*
X14500Y9000D03*
X13500Y9000D03*
X12500Y9000D03*
X12500Y4000D03*
X13500Y4000D03*
X14500Y4000D03*
X15500Y4000D03*
X16500Y4000D03*
X17500Y4000D03*
X18500Y4000D03*
X19500Y4000D03*
G54D17*
X18500Y11500D03*
G54D16*
X18500Y10500D03*
X17500Y11500D03*
X17500Y10500D03*
X16500Y11500D03*
X16500Y10500D03*
G54D17*
X10500Y11500D03*
G54D16*
X10500Y10500D03*
X9500Y11500D03*
X9500Y10500D03*
X8500Y11500D03*
X8500Y10500D03*
G54D17*
X13500Y22500D03*
G54D16*
X13500Y23500D03*
X14500Y22500D03*
X14500Y23500D03*
X15500Y22500D03*
X15500Y23500D03*
G54D17*
X5500Y22500D03*
G54D16*
X5500Y23500D03*
X6500Y22500D03*
X6500Y23500D03*
X7500Y22500D03*
X7500Y23500D03*
G54D18*
X33000Y23663D03*
X33000Y22837D03*
X33000Y19663D03*
X33000Y18837D03*
X32750Y15663D03*
X32750Y14837D03*
X32750Y11663D03*
X32750Y10837D03*
G54D19*
X34500Y9960D03*
X34500Y11540D03*
X34500Y21960D03*
X34500Y23540D03*
X34500Y17960D03*
X34500Y19540D03*
X34500Y13960D03*
X34500Y15540D03*
G54D17*
X17500Y2000D03*
G54D16*
X16500Y2000D03*
X15500Y2000D03*
X14500Y2000D03*
G54D17*
X6500Y32000D03*
G54D16*
X7500Y32000D03*
X8500Y32000D03*
X9500Y32000D03*
G54D17*
X14500Y32000D03*
G54D16*
X15500Y32000D03*
X16500Y32000D03*
X17500Y32000D03*
G54D17*
X9500Y2000D03*
G54D16*
X8500Y2000D03*
X7500Y2000D03*
X6500Y2000D03*
G54D20*
X19083Y6500D03*
X16917Y6500D03*
X11583Y6500D03*
X9417Y6500D03*
X12667Y27500D03*
X14833Y27500D03*
X4417Y27500D03*
X6583Y27500D03*
G54D21*
X32709Y26500D03*
X31291Y26500D03*
X29709Y26500D03*
X28291Y26500D03*
X26709Y26500D03*
X25291Y26500D03*
X23709Y26500D03*
X22291Y26500D03*
G54D22*
X1500Y32500D03*
X1500Y1500D03*
X38000Y1500D03*
X38000Y32500D03*
G54D23*
X2000Y5000D03*
G54D24*
X2000Y7000D03*
G54D23*
X37000Y7000D03*
G54D24*
X37000Y5000D03*
G54D25*
X21500Y15900D03*
X22000Y15900D03*
X22500Y15900D03*
X23000Y15900D03*
X23500Y15900D03*
X24000Y15900D03*
X24500Y15900D03*
X24500Y18000D03*
X24000Y18000D03*
X23500Y18000D03*
X23000Y18000D03*
X22500Y18000D03*
X22000Y18000D03*
X21500Y18000D03*
G54D14*
X32625Y7250D03*
X31875Y7250D03*
G54D15*
X24000Y14375D03*
X24000Y13625D03*
X11000Y20375D03*
X11000Y19625D03*
G54D17*
X22500Y22000D03*
G54D16*
X23500Y22000D03*
X24500Y22000D03*
G54D17*
X22500Y20500D03*
G54D16*
X23500Y20500D03*
X24500Y20500D03*
G54D17*
X25500Y32000D03*
G54D16*
X26500Y32000D03*
G54D17*
X28500Y32000D03*
G54D16*
X29500Y32000D03*
G54D17*
X31500Y32000D03*
G54D16*
X32500Y32000D03*
G54D17*
X22500Y32000D03*
G54D16*
X23500Y32000D03*
G54D25*
X8250Y16000D03*
X8750Y16000D03*
X9250Y16000D03*
X9750Y16000D03*
X10250Y16000D03*
X10750Y16000D03*
X11250Y16000D03*
X11750Y16000D03*
X11750Y18000D03*
X11250Y18000D03*
X10750Y18000D03*
X10250Y18000D03*
X9750Y18000D03*
X9250Y18000D03*
X8750Y18000D03*
X8250Y18000D03*
X15250Y16000D03*
X15750Y16000D03*
X16250Y16000D03*
X16750Y16000D03*
X17250Y16000D03*
X17750Y16000D03*
X18250Y16000D03*
X18750Y16000D03*
X18750Y18000D03*
X18250Y18000D03*
X17750Y18000D03*
X17250Y18000D03*
X16750Y18000D03*
X16250Y18000D03*
X15750Y18000D03*
X15250Y18000D03*
G54D11*
X31500Y5750D03*
X32500Y5750D03*
G54D12*
X30500Y5750D03*
G54D26*
X37724Y18311D03*
G54D27*
X37724Y19688D03*
G54D26*
X37724Y22311D03*
G54D27*
X37724Y23688D03*
G54D26*
X37724Y10311D03*
G54D27*
X37724Y11688D03*
G54D26*
X37724Y14311D03*
G54D27*
X37724Y15688D03*
G54D15*
X5000Y19625D03*
X5000Y20375D03*
X6000Y19625D03*
X6000Y20375D03*
G54D28*
X33000Y1820D03*
X30000Y3180D03*
G54D29*
X31500Y2500D03*
G54D28*
X1320Y10750D03*
X2680Y13750D03*
G54D29*
X2000Y12250D03*
G54D30*
X29058Y4500D03*
X30042Y4500D03*
G54D17*
X1500Y21500D03*
G54D16*
X2500Y21500D03*
X1500Y20500D03*
X2500Y20500D03*
X1500Y19500D03*
X2500Y19500D03*
X1500Y18500D03*
X2500Y18500D03*
G54D31*
X1500Y28000D03*
G54D32*
X1500Y27000D03*
X1500Y26000D03*
X1500Y25000D03*
M02*
