G04 (created by PCBNEW (2013-07-07 BZR 4022)-stable) date 27/09/2013 20:28:04*
%MOIN*%
G04 Gerber Fmt 3.4, Leading zero omitted, Abs format*
%FSLAX34Y34*%
G01*
G70*
G90*
G04 APERTURE LIST*
%ADD10C,0.00590551*%
%ADD11C,0.015*%
%ADD12C,0.07*%
%ADD13R,0.07X0.07*%
%ADD14C,0.06*%
%ADD15R,0.06X0.06*%
%ADD16C,0.1772*%
%ADD17R,0.1181X0.1181*%
%ADD18C,0.1181*%
%ADD19C,0.0944882*%
%ADD20R,0.0944882X0.0944882*%
%ADD21C,0.13*%
%ADD22C,0.149*%
%ADD23C,0.0787*%
%ADD24R,0.0866X0.06*%
%ADD25O,0.0866X0.06*%
%ADD26C,0.035*%
%ADD27C,0.008*%
%ADD28C,0.0787008*%
%ADD29C,0.01*%
G04 APERTURE END LIST*
G54D10*
G54D11*
X34758Y4705D02*
X35742Y4705D01*
X35742Y4705D02*
X35742Y4803D01*
X35742Y4803D02*
X34758Y4803D01*
X34758Y4803D02*
X34758Y4902D01*
X34758Y4902D02*
X35545Y4902D01*
X35545Y4902D02*
X35545Y5000D01*
X35545Y5000D02*
X35053Y5000D01*
X35053Y5000D02*
X35053Y5098D01*
X35053Y5098D02*
X35644Y5098D01*
X35644Y5098D02*
X35644Y5197D01*
X35644Y5197D02*
X34856Y5197D01*
X34856Y5197D02*
X34856Y5295D01*
X34856Y5295D02*
X35644Y5295D01*
G54D12*
X31500Y9000D03*
X32500Y9000D03*
G54D13*
X30500Y9000D03*
G54D12*
X31500Y13000D03*
X32500Y13000D03*
G54D13*
X30500Y13000D03*
G54D12*
X31500Y17000D03*
X32500Y17000D03*
G54D13*
X30500Y17000D03*
G54D12*
X31500Y21000D03*
X32500Y21000D03*
G54D13*
X30500Y21000D03*
G54D14*
X4500Y25000D03*
X5500Y25000D03*
X6500Y25000D03*
X7500Y25000D03*
X8500Y25000D03*
X9500Y25000D03*
X10500Y25000D03*
X11500Y25000D03*
X11500Y30000D03*
X10500Y30000D03*
X9500Y30000D03*
X8500Y30000D03*
X7500Y30000D03*
X6500Y30000D03*
X5500Y30000D03*
X4500Y30000D03*
X12500Y25000D03*
X13500Y25000D03*
X14500Y25000D03*
X15500Y25000D03*
X16500Y25000D03*
X17500Y25000D03*
X18500Y25000D03*
X19500Y25000D03*
X19500Y30000D03*
X18500Y30000D03*
X17500Y30000D03*
X16500Y30000D03*
X15500Y30000D03*
X14500Y30000D03*
X13500Y30000D03*
X12500Y30000D03*
X11500Y9000D03*
X10500Y9000D03*
X9500Y9000D03*
X8500Y9000D03*
X7500Y9000D03*
X6500Y9000D03*
X5500Y9000D03*
X4500Y9000D03*
X4500Y4000D03*
X5500Y4000D03*
X6500Y4000D03*
X7500Y4000D03*
X8500Y4000D03*
X9500Y4000D03*
X10500Y4000D03*
X11500Y4000D03*
X19500Y9000D03*
X18500Y9000D03*
X17500Y9000D03*
X16500Y9000D03*
X15500Y9000D03*
X14500Y9000D03*
X13500Y9000D03*
X12500Y9000D03*
X12500Y4000D03*
X13500Y4000D03*
X14500Y4000D03*
X15500Y4000D03*
X16500Y4000D03*
X17500Y4000D03*
X18500Y4000D03*
X19500Y4000D03*
G54D15*
X18500Y11500D03*
G54D14*
X18500Y10500D03*
X17500Y11500D03*
X17500Y10500D03*
X16500Y11500D03*
X16500Y10500D03*
G54D15*
X10500Y11500D03*
G54D14*
X10500Y10500D03*
X9500Y11500D03*
X9500Y10500D03*
X8500Y11500D03*
X8500Y10500D03*
G54D15*
X13500Y22500D03*
G54D14*
X13500Y23500D03*
X14500Y22500D03*
X14500Y23500D03*
X15500Y22500D03*
X15500Y23500D03*
G54D15*
X5500Y22500D03*
G54D14*
X5500Y23500D03*
X6500Y22500D03*
X6500Y23500D03*
X7500Y22500D03*
X7500Y23500D03*
G54D15*
X17500Y2000D03*
G54D14*
X16500Y2000D03*
X15500Y2000D03*
X14500Y2000D03*
G54D15*
X6500Y32000D03*
G54D14*
X7500Y32000D03*
X8500Y32000D03*
X9500Y32000D03*
G54D15*
X14500Y32000D03*
G54D14*
X15500Y32000D03*
X16500Y32000D03*
X17500Y32000D03*
G54D15*
X9500Y2000D03*
G54D14*
X8500Y2000D03*
X7500Y2000D03*
X6500Y2000D03*
G54D16*
X1500Y32500D03*
X1500Y1500D03*
X38000Y1500D03*
X38000Y32500D03*
G54D17*
X2000Y5000D03*
G54D18*
X2000Y7000D03*
G54D17*
X37000Y7000D03*
G54D18*
X37000Y5000D03*
G54D15*
X22500Y22000D03*
G54D14*
X23500Y22000D03*
X24500Y22000D03*
G54D15*
X22500Y20500D03*
G54D14*
X23500Y20500D03*
X24500Y20500D03*
G54D15*
X25500Y32000D03*
G54D14*
X26500Y32000D03*
G54D15*
X28500Y32000D03*
G54D14*
X29500Y32000D03*
G54D15*
X31500Y32000D03*
G54D14*
X32500Y32000D03*
G54D15*
X22500Y32000D03*
G54D14*
X23500Y32000D03*
G54D12*
X31500Y5750D03*
X32500Y5750D03*
G54D13*
X30500Y5750D03*
G54D19*
X37724Y18311D03*
G54D20*
X37724Y19688D03*
G54D19*
X37724Y22311D03*
G54D20*
X37724Y23688D03*
G54D19*
X37724Y10311D03*
G54D20*
X37724Y11688D03*
G54D19*
X37724Y14311D03*
G54D20*
X37724Y15688D03*
G54D21*
X33000Y1820D03*
X30000Y3180D03*
G54D22*
X31500Y2500D03*
G54D21*
X1320Y10750D03*
X2680Y13750D03*
G54D22*
X2000Y12250D03*
G54D23*
X34758Y5000D03*
X35742Y5000D03*
G54D15*
X1500Y21500D03*
G54D14*
X2500Y21500D03*
X1500Y20500D03*
X2500Y20500D03*
X1500Y19500D03*
X2500Y19500D03*
X1500Y18500D03*
X2500Y18500D03*
G54D24*
X1500Y28000D03*
G54D25*
X1500Y27000D03*
X1500Y26000D03*
X1500Y25000D03*
G54D26*
X23313Y16401D03*
X9422Y19697D03*
X10037Y17117D03*
X24500Y18889D03*
X24821Y16306D03*
X9722Y16502D03*
X10250Y15492D03*
G54D27*
X8500Y23500D02*
X8500Y25000D01*
X7500Y22500D02*
X8500Y23500D01*
X7500Y10500D02*
X7500Y9000D01*
X8500Y11500D02*
X7500Y10500D01*
X15500Y10500D02*
X15500Y9000D01*
X16500Y11500D02*
X15500Y10500D01*
X12000Y11500D02*
X10500Y11500D01*
X14500Y9000D02*
X12000Y11500D01*
X5500Y8000D02*
X5500Y4000D01*
X6500Y9000D02*
X5500Y8000D01*
X16500Y23500D02*
X15500Y22500D01*
X16500Y25000D02*
X16500Y23500D01*
X18500Y11500D02*
X18500Y11940D01*
X6500Y22500D02*
X7500Y22500D01*
X13059Y25063D02*
X13059Y22500D01*
X12683Y25440D02*
X13059Y25063D01*
X9940Y25440D02*
X12683Y25440D01*
X9500Y25000D02*
X9940Y25440D01*
X13500Y22500D02*
X13059Y22500D01*
X22500Y20279D02*
X22500Y20059D01*
X22500Y20279D02*
X22500Y20500D01*
X20500Y22000D02*
X22500Y22000D01*
X17500Y25000D02*
X20500Y22000D01*
X22500Y20500D02*
X22500Y20940D01*
X22500Y22000D02*
X22500Y20940D01*
X22500Y16401D02*
X23313Y16401D01*
X22500Y15940D02*
X22500Y16401D01*
X18500Y11940D02*
X22500Y15940D01*
X22500Y16401D02*
X22500Y20059D01*
G54D28*
X37724Y15688D02*
X37724Y16655D01*
X38691Y14722D02*
X37724Y15688D01*
X37724Y11688D02*
X37724Y12655D01*
X37724Y12655D02*
X38691Y13621D01*
X38691Y13621D02*
X38691Y14722D01*
X38691Y18722D02*
X37724Y19688D01*
X38691Y17621D02*
X38691Y18722D01*
X37724Y16655D02*
X38691Y17621D01*
X38690Y21621D02*
X37724Y20655D01*
X38690Y22722D02*
X38690Y21621D01*
X37724Y23688D02*
X38690Y22722D01*
X37724Y19688D02*
X37724Y20655D01*
G54D27*
X7620Y21500D02*
X9422Y19697D01*
X2500Y21500D02*
X7620Y21500D01*
G54D28*
X31500Y9254D02*
X31500Y9000D01*
X32556Y10311D02*
X31500Y9254D01*
X37724Y10311D02*
X32556Y10311D01*
X2000Y10070D02*
X2000Y7000D01*
X1320Y10750D02*
X2000Y10070D01*
G54D27*
X12500Y19579D02*
X12500Y25000D01*
X10037Y17117D02*
X12500Y19579D01*
G54D28*
X8500Y32000D02*
X8500Y30000D01*
X9500Y32000D02*
X9500Y30000D01*
X7500Y32000D02*
X7500Y30000D01*
X16500Y32000D02*
X16500Y30000D01*
X17500Y32000D02*
X17500Y30000D01*
X15500Y32000D02*
X15500Y30000D01*
X14500Y32000D02*
X14500Y30000D01*
X15500Y2000D02*
X15500Y4000D01*
X14500Y2000D02*
X14500Y4000D01*
X17500Y2000D02*
X17500Y4000D01*
X7500Y2000D02*
X7500Y4000D01*
X6500Y2000D02*
X6500Y4000D01*
X8500Y2000D02*
X8500Y4000D01*
X9500Y2000D02*
X9500Y4000D01*
G54D27*
X1500Y18500D02*
X950Y19050D01*
X900Y26400D02*
X1500Y27000D01*
X900Y24600D02*
X900Y26400D01*
X950Y24550D02*
X900Y24600D01*
X950Y19050D02*
X950Y24550D01*
X24500Y20500D02*
X24500Y22000D01*
X4049Y15950D02*
X1500Y18500D01*
X4049Y4450D02*
X4049Y15950D01*
X4500Y4000D02*
X4049Y4450D01*
X32250Y5000D02*
X34757Y5000D01*
X31500Y5750D02*
X32250Y5000D01*
X26940Y32440D02*
X26500Y32000D01*
X29059Y32440D02*
X26940Y32440D01*
X29500Y32000D02*
X29059Y32440D01*
X29940Y32440D02*
X29500Y32000D01*
X32059Y32440D02*
X29940Y32440D01*
X32500Y32000D02*
X32059Y32440D01*
G54D28*
X32500Y17000D02*
X32500Y13000D01*
X32500Y12401D02*
X32500Y13000D01*
X29649Y9551D02*
X32500Y12401D01*
X29649Y8448D02*
X29649Y9551D01*
X22686Y8448D02*
X29649Y8448D01*
X18500Y4262D02*
X22686Y8448D01*
X18500Y4000D02*
X18500Y4262D01*
X10500Y4140D02*
X10500Y4000D01*
X11254Y4895D02*
X10500Y4140D01*
X17866Y4895D02*
X11254Y4895D01*
X18500Y4262D02*
X17866Y4895D01*
X32500Y9000D02*
X32500Y8744D01*
X29987Y8111D02*
X29649Y8448D01*
X31866Y8111D02*
X29987Y8111D01*
X32500Y8744D02*
X31866Y8111D01*
X32739Y8744D02*
X32500Y8744D01*
X35742Y5742D02*
X32739Y8744D01*
X35742Y5000D02*
X35742Y5742D01*
X35742Y5742D02*
X37000Y7000D01*
X32500Y17000D02*
X32500Y21000D01*
X12902Y29112D02*
X13500Y29710D01*
X6233Y29112D02*
X12902Y29112D01*
X5500Y29846D02*
X6233Y29112D01*
X5500Y30000D02*
X5500Y29846D01*
X16297Y26912D02*
X13500Y29710D01*
X26783Y26912D02*
X16297Y26912D01*
X32500Y21196D02*
X26783Y26912D01*
X32500Y21000D02*
X32500Y21196D01*
X13500Y29710D02*
X13500Y30000D01*
G54D27*
X16500Y10500D02*
X16500Y9000D01*
X17500Y10500D02*
X17500Y9000D01*
X14500Y23500D02*
X14500Y25000D01*
X15500Y23500D02*
X15500Y25000D01*
X18500Y9000D02*
X18500Y10500D01*
X5500Y25000D02*
X5500Y23500D01*
X8500Y10500D02*
X8500Y9000D01*
X10500Y10500D02*
X10500Y9000D01*
X9500Y10500D02*
X9500Y9000D01*
X7500Y23500D02*
X7500Y25000D01*
X6500Y23500D02*
X6500Y25000D01*
X13500Y25000D02*
X13500Y23500D01*
X24480Y18889D02*
X24500Y18889D01*
X22940Y20430D02*
X24480Y18889D01*
X22940Y22366D02*
X22940Y20430D01*
X19677Y25628D02*
X22940Y22366D01*
X2128Y25628D02*
X19677Y25628D01*
X1940Y25440D02*
X2128Y25628D01*
X1500Y25440D02*
X1940Y25440D01*
X1500Y25000D02*
X1500Y25440D01*
X24821Y19143D02*
X24821Y16306D01*
X23940Y20024D02*
X24821Y19143D01*
X23940Y22190D02*
X23940Y20024D01*
X20130Y26000D02*
X23940Y22190D01*
X1500Y26000D02*
X20130Y26000D01*
X9722Y17247D02*
X9722Y16502D01*
X10500Y18025D02*
X9722Y17247D01*
X10500Y25000D02*
X10500Y18025D01*
X17000Y22242D02*
X10250Y15492D01*
X17000Y25142D02*
X17000Y22242D01*
X17306Y25448D02*
X17000Y25142D01*
X18051Y25448D02*
X17306Y25448D01*
X18500Y25000D02*
X18051Y25448D01*
G54D10*
G36*
X39175Y325D02*
X39136Y325D01*
X39136Y1724D01*
X38963Y2142D01*
X38644Y2462D01*
X38226Y2635D01*
X37840Y2636D01*
X37840Y5166D01*
X37840Y5166D01*
X37840Y6359D01*
X37840Y7640D01*
X37802Y7731D01*
X37732Y7802D01*
X37640Y7840D01*
X37540Y7840D01*
X37112Y7840D01*
X37050Y7778D01*
X37050Y7050D01*
X37778Y7050D01*
X37840Y7112D01*
X37840Y7640D01*
X37840Y6359D01*
X37840Y6887D01*
X37778Y6950D01*
X37050Y6950D01*
X37050Y6222D01*
X37112Y6159D01*
X37540Y6159D01*
X37640Y6159D01*
X37732Y6197D01*
X37802Y6268D01*
X37840Y6359D01*
X37840Y5166D01*
X37712Y5475D01*
X37476Y5712D01*
X37167Y5840D01*
X36950Y5840D01*
X36950Y6222D01*
X36950Y6950D01*
X36950Y7050D01*
X36950Y7778D01*
X36887Y7840D01*
X36459Y7840D01*
X36359Y7840D01*
X36267Y7802D01*
X36197Y7731D01*
X36159Y7640D01*
X36159Y7112D01*
X36222Y7050D01*
X36950Y7050D01*
X36950Y6950D01*
X36222Y6950D01*
X36159Y6887D01*
X36159Y6359D01*
X36197Y6268D01*
X36267Y6197D01*
X36359Y6159D01*
X36459Y6159D01*
X36887Y6159D01*
X36950Y6222D01*
X36950Y5840D01*
X36833Y5840D01*
X36524Y5712D01*
X36287Y5476D01*
X36159Y5167D01*
X36159Y4833D01*
X36287Y4524D01*
X36523Y4287D01*
X36832Y4159D01*
X37166Y4159D01*
X37475Y4287D01*
X37712Y4523D01*
X37840Y4832D01*
X37840Y5166D01*
X37840Y2636D01*
X37775Y2636D01*
X37357Y2463D01*
X37037Y2144D01*
X36864Y1726D01*
X36863Y1275D01*
X37036Y857D01*
X37355Y537D01*
X37773Y364D01*
X38224Y363D01*
X38642Y536D01*
X38962Y855D01*
X39135Y1273D01*
X39136Y1724D01*
X39136Y325D01*
X36067Y325D01*
X36067Y4705D01*
X36067Y4803D01*
X36042Y4927D01*
X35971Y5032D01*
X35957Y5042D01*
X35969Y5098D01*
X35969Y5197D01*
X35959Y5246D01*
X35969Y5295D01*
X35944Y5419D01*
X35873Y5524D01*
X35768Y5595D01*
X35644Y5620D01*
X34942Y5620D01*
X34886Y5643D01*
X34630Y5643D01*
X34393Y5545D01*
X34212Y5364D01*
X34181Y5290D01*
X33104Y5290D01*
X33104Y8906D01*
X33094Y9144D01*
X33022Y9317D01*
X32922Y9351D01*
X32570Y9000D01*
X32922Y8648D01*
X33022Y8682D01*
X33104Y8906D01*
X33104Y5290D01*
X32888Y5290D01*
X33008Y5409D01*
X33099Y5630D01*
X33100Y5868D01*
X33008Y6089D01*
X32851Y6247D01*
X32851Y8577D01*
X32500Y8929D01*
X32148Y8577D01*
X32182Y8477D01*
X32406Y8395D01*
X32644Y8405D01*
X32817Y8477D01*
X32851Y8577D01*
X32851Y6247D01*
X32840Y6258D01*
X32619Y6349D01*
X32381Y6350D01*
X32160Y6258D01*
X31999Y6098D01*
X31840Y6258D01*
X31619Y6349D01*
X31381Y6350D01*
X31160Y6258D01*
X31085Y6184D01*
X31062Y6241D01*
X30991Y6311D01*
X30899Y6349D01*
X30800Y6350D01*
X30100Y6350D01*
X30008Y6312D01*
X29938Y6241D01*
X29900Y6149D01*
X29899Y6050D01*
X29899Y5350D01*
X29937Y5258D01*
X30008Y5188D01*
X30100Y5150D01*
X30199Y5149D01*
X30899Y5149D01*
X30991Y5187D01*
X31061Y5258D01*
X31085Y5315D01*
X31159Y5241D01*
X31380Y5150D01*
X31618Y5149D01*
X31669Y5170D01*
X32044Y4794D01*
X32044Y4794D01*
X32139Y4732D01*
X32249Y4710D01*
X32249Y4710D01*
X32250Y4710D01*
X34181Y4710D01*
X34212Y4635D01*
X34393Y4454D01*
X34629Y4356D01*
X34885Y4356D01*
X34942Y4380D01*
X35742Y4380D01*
X35866Y4404D01*
X35971Y4475D01*
X36042Y4580D01*
X36067Y4705D01*
X36067Y325D01*
X33900Y325D01*
X33900Y1998D01*
X33763Y2329D01*
X33510Y2582D01*
X33179Y2719D01*
X32821Y2720D01*
X32495Y2585D01*
X32495Y2697D01*
X32344Y3062D01*
X32064Y3343D01*
X31698Y3494D01*
X31302Y3495D01*
X30937Y3344D01*
X30900Y3307D01*
X30900Y3358D01*
X30763Y3689D01*
X30510Y3942D01*
X30179Y4079D01*
X29821Y4080D01*
X29490Y3943D01*
X29237Y3690D01*
X29100Y3359D01*
X29099Y3001D01*
X29236Y2670D01*
X29489Y2417D01*
X29820Y2280D01*
X30178Y2279D01*
X30504Y2414D01*
X30504Y2302D01*
X30655Y1937D01*
X30935Y1656D01*
X31301Y1505D01*
X31697Y1504D01*
X32062Y1655D01*
X32099Y1692D01*
X32099Y1641D01*
X32236Y1310D01*
X32489Y1057D01*
X32820Y920D01*
X33178Y919D01*
X33509Y1056D01*
X33762Y1309D01*
X33899Y1640D01*
X33900Y1998D01*
X33900Y325D01*
X25246Y325D01*
X25246Y16390D01*
X25182Y16546D01*
X25111Y16617D01*
X25111Y19143D01*
X25089Y19254D01*
X25026Y19348D01*
X24424Y19950D01*
X24608Y19949D01*
X24811Y20033D01*
X24965Y20188D01*
X25049Y20390D01*
X25050Y20608D01*
X24966Y20811D01*
X24811Y20965D01*
X24790Y20975D01*
X24790Y21524D01*
X24811Y21533D01*
X24965Y21688D01*
X25049Y21890D01*
X25050Y22108D01*
X24966Y22311D01*
X24811Y22465D01*
X24609Y22549D01*
X24391Y22550D01*
X24188Y22466D01*
X24131Y22409D01*
X24050Y22490D01*
X24050Y32108D01*
X23966Y32311D01*
X23811Y32465D01*
X23609Y32549D01*
X23391Y32550D01*
X23188Y32466D01*
X23050Y32327D01*
X23050Y32349D01*
X23012Y32441D01*
X22941Y32511D01*
X22849Y32549D01*
X22750Y32550D01*
X22150Y32550D01*
X22058Y32512D01*
X21988Y32441D01*
X21950Y32349D01*
X21949Y32250D01*
X21949Y31650D01*
X21987Y31558D01*
X22058Y31488D01*
X22150Y31450D01*
X22249Y31449D01*
X22849Y31449D01*
X22941Y31487D01*
X23011Y31558D01*
X23049Y31650D01*
X23049Y31672D01*
X23188Y31534D01*
X23390Y31450D01*
X23608Y31449D01*
X23811Y31533D01*
X23965Y31688D01*
X24049Y31890D01*
X24050Y32108D01*
X24050Y22490D01*
X20335Y26205D01*
X20241Y26267D01*
X20130Y26290D01*
X20050Y26290D01*
X20050Y30108D01*
X19966Y30311D01*
X19811Y30465D01*
X19609Y30549D01*
X19391Y30550D01*
X19188Y30466D01*
X19034Y30311D01*
X19000Y30230D01*
X18966Y30311D01*
X18811Y30465D01*
X18609Y30549D01*
X18391Y30550D01*
X18188Y30466D01*
X18143Y30421D01*
X18143Y32000D01*
X18094Y32246D01*
X17955Y32455D01*
X17746Y32594D01*
X17500Y32643D01*
X17253Y32594D01*
X17044Y32455D01*
X17000Y32387D01*
X16955Y32455D01*
X16746Y32594D01*
X16500Y32643D01*
X16253Y32594D01*
X16044Y32455D01*
X16000Y32387D01*
X15955Y32455D01*
X15746Y32594D01*
X15500Y32643D01*
X15253Y32594D01*
X15044Y32455D01*
X15021Y32419D01*
X15012Y32441D01*
X14941Y32511D01*
X14849Y32549D01*
X14812Y32549D01*
X14746Y32594D01*
X14500Y32643D01*
X14253Y32594D01*
X14187Y32550D01*
X14150Y32550D01*
X14058Y32512D01*
X13988Y32441D01*
X13950Y32349D01*
X13950Y32312D01*
X13905Y32246D01*
X13856Y32000D01*
X13856Y30427D01*
X13815Y30385D01*
X13787Y30481D01*
X13581Y30554D01*
X13363Y30543D01*
X13212Y30481D01*
X13184Y30385D01*
X13500Y30070D01*
X13505Y30076D01*
X13576Y30005D01*
X13570Y30000D01*
X13885Y29684D01*
X13940Y29700D01*
X14044Y29544D01*
X14253Y29405D01*
X14500Y29356D01*
X14746Y29405D01*
X14955Y29544D01*
X15000Y29612D01*
X15044Y29544D01*
X15253Y29405D01*
X15500Y29356D01*
X15746Y29405D01*
X15955Y29544D01*
X16000Y29612D01*
X16044Y29544D01*
X16253Y29405D01*
X16500Y29356D01*
X16746Y29405D01*
X16955Y29544D01*
X17000Y29612D01*
X17044Y29544D01*
X17253Y29405D01*
X17500Y29356D01*
X17746Y29405D01*
X17955Y29544D01*
X18044Y29678D01*
X18188Y29534D01*
X18390Y29450D01*
X18608Y29449D01*
X18811Y29533D01*
X18965Y29688D01*
X18999Y29769D01*
X19033Y29688D01*
X19188Y29534D01*
X19390Y29450D01*
X19608Y29449D01*
X19811Y29533D01*
X19965Y29688D01*
X20049Y29890D01*
X20050Y30108D01*
X20050Y26290D01*
X13815Y26290D01*
X13815Y29614D01*
X13500Y29929D01*
X13429Y29858D01*
X13429Y30000D01*
X13114Y30315D01*
X13018Y30287D01*
X12999Y30232D01*
X12966Y30311D01*
X12811Y30465D01*
X12609Y30549D01*
X12391Y30550D01*
X12188Y30466D01*
X12034Y30311D01*
X12000Y30230D01*
X11966Y30311D01*
X11811Y30465D01*
X11609Y30549D01*
X11391Y30550D01*
X11188Y30466D01*
X11034Y30311D01*
X11000Y30230D01*
X10966Y30311D01*
X10811Y30465D01*
X10609Y30549D01*
X10391Y30550D01*
X10188Y30466D01*
X10143Y30421D01*
X10143Y32000D01*
X10094Y32246D01*
X9955Y32455D01*
X9746Y32594D01*
X9500Y32643D01*
X9253Y32594D01*
X9044Y32455D01*
X9000Y32387D01*
X8955Y32455D01*
X8746Y32594D01*
X8500Y32643D01*
X8253Y32594D01*
X8044Y32455D01*
X8000Y32387D01*
X7955Y32455D01*
X7746Y32594D01*
X7500Y32643D01*
X7253Y32594D01*
X7044Y32455D01*
X7021Y32419D01*
X7012Y32441D01*
X6941Y32511D01*
X6849Y32549D01*
X6750Y32550D01*
X6150Y32550D01*
X6058Y32512D01*
X5988Y32441D01*
X5950Y32349D01*
X5949Y32250D01*
X5949Y31650D01*
X5987Y31558D01*
X6058Y31488D01*
X6150Y31450D01*
X6249Y31449D01*
X6849Y31449D01*
X6856Y31452D01*
X6856Y30421D01*
X6811Y30465D01*
X6609Y30549D01*
X6391Y30550D01*
X6188Y30466D01*
X6034Y30311D01*
X6002Y30236D01*
X5981Y30287D01*
X5885Y30315D01*
X5815Y30244D01*
X5815Y30385D01*
X5787Y30481D01*
X5581Y30554D01*
X5363Y30543D01*
X5212Y30481D01*
X5184Y30385D01*
X5500Y30070D01*
X5815Y30385D01*
X5815Y30244D01*
X5570Y30000D01*
X5885Y29684D01*
X5981Y29712D01*
X6000Y29767D01*
X6033Y29688D01*
X6188Y29534D01*
X6390Y29450D01*
X6608Y29449D01*
X6811Y29533D01*
X6956Y29678D01*
X7044Y29544D01*
X7253Y29405D01*
X7500Y29356D01*
X7746Y29405D01*
X7955Y29544D01*
X8000Y29612D01*
X8044Y29544D01*
X8253Y29405D01*
X8500Y29356D01*
X8746Y29405D01*
X8955Y29544D01*
X9000Y29612D01*
X9044Y29544D01*
X9253Y29405D01*
X9500Y29356D01*
X9746Y29405D01*
X9955Y29544D01*
X10044Y29678D01*
X10188Y29534D01*
X10390Y29450D01*
X10608Y29449D01*
X10811Y29533D01*
X10965Y29688D01*
X10999Y29769D01*
X11033Y29688D01*
X11188Y29534D01*
X11390Y29450D01*
X11608Y29449D01*
X11811Y29533D01*
X11965Y29688D01*
X11999Y29769D01*
X12033Y29688D01*
X12188Y29534D01*
X12390Y29450D01*
X12608Y29449D01*
X12811Y29533D01*
X12965Y29688D01*
X12997Y29763D01*
X13018Y29712D01*
X13114Y29684D01*
X13429Y30000D01*
X13429Y29858D01*
X13184Y29614D01*
X13212Y29518D01*
X13418Y29445D01*
X13636Y29456D01*
X13787Y29518D01*
X13815Y29614D01*
X13815Y26290D01*
X5815Y26290D01*
X5815Y29614D01*
X5500Y29929D01*
X5429Y29858D01*
X5429Y30000D01*
X5114Y30315D01*
X5018Y30287D01*
X4999Y30232D01*
X4966Y30311D01*
X4811Y30465D01*
X4609Y30549D01*
X4391Y30550D01*
X4188Y30466D01*
X4034Y30311D01*
X3950Y30109D01*
X3949Y29891D01*
X4033Y29688D01*
X4188Y29534D01*
X4390Y29450D01*
X4608Y29449D01*
X4811Y29533D01*
X4965Y29688D01*
X4997Y29763D01*
X5018Y29712D01*
X5114Y29684D01*
X5429Y30000D01*
X5429Y29858D01*
X5184Y29614D01*
X5212Y29518D01*
X5418Y29445D01*
X5636Y29456D01*
X5787Y29518D01*
X5815Y29614D01*
X5815Y26290D01*
X2636Y26290D01*
X2636Y32724D01*
X2463Y33142D01*
X2144Y33462D01*
X1726Y33635D01*
X1275Y33636D01*
X857Y33463D01*
X537Y33144D01*
X364Y32726D01*
X363Y32275D01*
X536Y31857D01*
X855Y31537D01*
X1273Y31364D01*
X1724Y31363D01*
X2142Y31536D01*
X2462Y31855D01*
X2635Y32273D01*
X2636Y32724D01*
X2636Y26290D01*
X2101Y26290D01*
X2035Y26388D01*
X1869Y26500D01*
X2035Y26611D01*
X2154Y26789D01*
X2196Y27000D01*
X2154Y27210D01*
X2035Y27388D01*
X1943Y27449D01*
X1982Y27449D01*
X2074Y27487D01*
X2144Y27558D01*
X2182Y27650D01*
X2183Y27749D01*
X2183Y28349D01*
X2145Y28441D01*
X2074Y28511D01*
X1982Y28549D01*
X1883Y28550D01*
X1017Y28550D01*
X925Y28512D01*
X855Y28441D01*
X817Y28349D01*
X816Y28250D01*
X816Y27650D01*
X854Y27558D01*
X925Y27488D01*
X1017Y27450D01*
X1056Y27450D01*
X964Y27388D01*
X845Y27210D01*
X803Y27000D01*
X845Y26789D01*
X859Y26769D01*
X694Y26605D01*
X632Y26510D01*
X610Y26400D01*
X610Y24600D01*
X632Y24489D01*
X660Y24447D01*
X660Y19050D01*
X682Y18939D01*
X744Y18844D01*
X958Y18631D01*
X950Y18609D01*
X949Y18391D01*
X1033Y18188D01*
X1188Y18034D01*
X1390Y17950D01*
X1608Y17949D01*
X1630Y17958D01*
X3759Y15830D01*
X3759Y4450D01*
X3781Y4339D01*
X3844Y4245D01*
X3958Y4131D01*
X3950Y4109D01*
X3949Y3891D01*
X4033Y3688D01*
X4188Y3534D01*
X4390Y3450D01*
X4608Y3449D01*
X4811Y3533D01*
X4965Y3688D01*
X4999Y3769D01*
X5033Y3688D01*
X5188Y3534D01*
X5390Y3450D01*
X5608Y3449D01*
X5811Y3533D01*
X5856Y3578D01*
X5856Y2000D01*
X5905Y1753D01*
X6044Y1544D01*
X6253Y1405D01*
X6500Y1356D01*
X6746Y1405D01*
X6955Y1544D01*
X7000Y1612D01*
X7044Y1544D01*
X7253Y1405D01*
X7500Y1356D01*
X7746Y1405D01*
X7955Y1544D01*
X8000Y1612D01*
X8044Y1544D01*
X8253Y1405D01*
X8500Y1356D01*
X8746Y1405D01*
X8955Y1544D01*
X8978Y1580D01*
X8987Y1558D01*
X9058Y1488D01*
X9150Y1450D01*
X9187Y1450D01*
X9253Y1405D01*
X9500Y1356D01*
X9746Y1405D01*
X9812Y1449D01*
X9849Y1449D01*
X9941Y1487D01*
X10011Y1558D01*
X10049Y1650D01*
X10049Y1687D01*
X10094Y1753D01*
X10143Y2000D01*
X10143Y3572D01*
X10184Y3614D01*
X10212Y3518D01*
X10418Y3445D01*
X10636Y3456D01*
X10787Y3518D01*
X10815Y3614D01*
X10500Y3929D01*
X10494Y3923D01*
X10423Y3994D01*
X10429Y4000D01*
X10114Y4315D01*
X10059Y4299D01*
X9955Y4455D01*
X9746Y4594D01*
X9500Y4643D01*
X9253Y4594D01*
X9044Y4455D01*
X9000Y4387D01*
X8955Y4455D01*
X8746Y4594D01*
X8500Y4643D01*
X8253Y4594D01*
X8044Y4455D01*
X8000Y4387D01*
X7955Y4455D01*
X7746Y4594D01*
X7500Y4643D01*
X7253Y4594D01*
X7044Y4455D01*
X7000Y4387D01*
X6955Y4455D01*
X6746Y4594D01*
X6500Y4643D01*
X6253Y4594D01*
X6044Y4455D01*
X5955Y4321D01*
X5811Y4465D01*
X5790Y4475D01*
X5790Y7879D01*
X6368Y8458D01*
X6390Y8450D01*
X6608Y8449D01*
X6811Y8533D01*
X6965Y8688D01*
X6999Y8769D01*
X7033Y8688D01*
X7188Y8534D01*
X7390Y8450D01*
X7608Y8449D01*
X7811Y8533D01*
X7965Y8688D01*
X7999Y8769D01*
X8033Y8688D01*
X8188Y8534D01*
X8390Y8450D01*
X8608Y8449D01*
X8811Y8533D01*
X8965Y8688D01*
X8999Y8769D01*
X9033Y8688D01*
X9188Y8534D01*
X9390Y8450D01*
X9608Y8449D01*
X9811Y8533D01*
X9965Y8688D01*
X9999Y8769D01*
X10033Y8688D01*
X10188Y8534D01*
X10390Y8450D01*
X10608Y8449D01*
X10811Y8533D01*
X10965Y8688D01*
X10999Y8769D01*
X11033Y8688D01*
X11188Y8534D01*
X11390Y8450D01*
X11608Y8449D01*
X11811Y8533D01*
X11965Y8688D01*
X11999Y8769D01*
X12033Y8688D01*
X12188Y8534D01*
X12390Y8450D01*
X12608Y8449D01*
X12811Y8533D01*
X12965Y8688D01*
X12999Y8769D01*
X13033Y8688D01*
X13188Y8534D01*
X13390Y8450D01*
X13608Y8449D01*
X13811Y8533D01*
X13965Y8688D01*
X13999Y8769D01*
X14033Y8688D01*
X14188Y8534D01*
X14390Y8450D01*
X14608Y8449D01*
X14811Y8533D01*
X14965Y8688D01*
X14999Y8769D01*
X15033Y8688D01*
X15188Y8534D01*
X15390Y8450D01*
X15608Y8449D01*
X15811Y8533D01*
X15965Y8688D01*
X15999Y8769D01*
X16033Y8688D01*
X16188Y8534D01*
X16390Y8450D01*
X16608Y8449D01*
X16811Y8533D01*
X16965Y8688D01*
X16999Y8769D01*
X17033Y8688D01*
X17188Y8534D01*
X17390Y8450D01*
X17608Y8449D01*
X17811Y8533D01*
X17965Y8688D01*
X17999Y8769D01*
X18033Y8688D01*
X18188Y8534D01*
X18390Y8450D01*
X18608Y8449D01*
X18811Y8533D01*
X18965Y8688D01*
X18999Y8769D01*
X19033Y8688D01*
X19188Y8534D01*
X19390Y8450D01*
X19608Y8449D01*
X19811Y8533D01*
X19965Y8688D01*
X20049Y8890D01*
X20050Y9108D01*
X19966Y9311D01*
X19811Y9465D01*
X19609Y9549D01*
X19391Y9550D01*
X19188Y9466D01*
X19034Y9311D01*
X19000Y9230D01*
X18966Y9311D01*
X18811Y9465D01*
X18790Y9475D01*
X18790Y10024D01*
X18811Y10033D01*
X18965Y10188D01*
X19049Y10390D01*
X19050Y10608D01*
X18966Y10811D01*
X18827Y10949D01*
X18849Y10949D01*
X18941Y10987D01*
X19011Y11058D01*
X19049Y11150D01*
X19050Y11249D01*
X19050Y11849D01*
X19012Y11941D01*
X18961Y11991D01*
X22705Y15735D01*
X22705Y15735D01*
X22705Y15735D01*
X22767Y15829D01*
X22790Y15940D01*
X22789Y15940D01*
X22790Y15940D01*
X22790Y16111D01*
X23002Y16111D01*
X23072Y16040D01*
X23228Y15976D01*
X23397Y15975D01*
X23554Y16040D01*
X23673Y16159D01*
X23738Y16316D01*
X23738Y16485D01*
X23674Y16641D01*
X23554Y16761D01*
X23398Y16825D01*
X23229Y16826D01*
X23073Y16761D01*
X23002Y16691D01*
X22790Y16691D01*
X22790Y19949D01*
X22849Y19949D01*
X22941Y19987D01*
X22956Y20003D01*
X24074Y18885D01*
X24074Y18805D01*
X24139Y18649D01*
X24258Y18529D01*
X24415Y18464D01*
X24531Y18464D01*
X24531Y16617D01*
X24461Y16547D01*
X24396Y16390D01*
X24396Y16221D01*
X24461Y16065D01*
X24580Y15945D01*
X24736Y15881D01*
X24905Y15880D01*
X25062Y15945D01*
X25181Y16065D01*
X25246Y16221D01*
X25246Y16390D01*
X25246Y325D01*
X20050Y325D01*
X20050Y4108D01*
X19966Y4311D01*
X19811Y4465D01*
X19609Y4549D01*
X19391Y4550D01*
X19188Y4466D01*
X19034Y4311D01*
X19002Y4236D01*
X18981Y4287D01*
X18885Y4315D01*
X18815Y4244D01*
X18815Y4385D01*
X18787Y4481D01*
X18581Y4554D01*
X18363Y4543D01*
X18212Y4481D01*
X18184Y4385D01*
X18500Y4070D01*
X18815Y4385D01*
X18815Y4244D01*
X18570Y4000D01*
X18885Y3684D01*
X18981Y3712D01*
X19000Y3767D01*
X19033Y3688D01*
X19188Y3534D01*
X19390Y3450D01*
X19608Y3449D01*
X19811Y3533D01*
X19965Y3688D01*
X20049Y3890D01*
X20050Y4108D01*
X20050Y325D01*
X18815Y325D01*
X18815Y3614D01*
X18500Y3929D01*
X18494Y3923D01*
X18429Y3988D01*
X18423Y3994D01*
X18429Y4000D01*
X18114Y4315D01*
X18059Y4299D01*
X17955Y4455D01*
X17746Y4594D01*
X17500Y4643D01*
X17253Y4594D01*
X17044Y4455D01*
X16955Y4321D01*
X16811Y4465D01*
X16609Y4549D01*
X16391Y4550D01*
X16188Y4466D01*
X16043Y4321D01*
X15955Y4455D01*
X15746Y4594D01*
X15500Y4643D01*
X15253Y4594D01*
X15044Y4455D01*
X15000Y4387D01*
X14955Y4455D01*
X14746Y4594D01*
X14500Y4643D01*
X14253Y4594D01*
X14044Y4455D01*
X13955Y4321D01*
X13811Y4465D01*
X13609Y4549D01*
X13391Y4550D01*
X13188Y4466D01*
X13034Y4311D01*
X13000Y4230D01*
X12966Y4311D01*
X12811Y4465D01*
X12609Y4549D01*
X12391Y4550D01*
X12188Y4466D01*
X12034Y4311D01*
X12000Y4230D01*
X11966Y4311D01*
X11811Y4465D01*
X11609Y4549D01*
X11391Y4550D01*
X11188Y4466D01*
X11034Y4311D01*
X11002Y4236D01*
X10981Y4287D01*
X10885Y4315D01*
X10815Y4244D01*
X10815Y4385D01*
X10787Y4481D01*
X10581Y4554D01*
X10363Y4543D01*
X10212Y4481D01*
X10184Y4385D01*
X10500Y4070D01*
X10815Y4385D01*
X10815Y4244D01*
X10570Y4000D01*
X10885Y3684D01*
X10981Y3712D01*
X11000Y3767D01*
X11033Y3688D01*
X11188Y3534D01*
X11390Y3450D01*
X11608Y3449D01*
X11811Y3533D01*
X11965Y3688D01*
X11999Y3769D01*
X12033Y3688D01*
X12188Y3534D01*
X12390Y3450D01*
X12608Y3449D01*
X12811Y3533D01*
X12965Y3688D01*
X12999Y3769D01*
X13033Y3688D01*
X13188Y3534D01*
X13390Y3450D01*
X13608Y3449D01*
X13811Y3533D01*
X13856Y3578D01*
X13856Y2000D01*
X13905Y1753D01*
X14044Y1544D01*
X14253Y1405D01*
X14500Y1356D01*
X14746Y1405D01*
X14955Y1544D01*
X15000Y1612D01*
X15044Y1544D01*
X15253Y1405D01*
X15500Y1356D01*
X15746Y1405D01*
X15955Y1544D01*
X16044Y1678D01*
X16188Y1534D01*
X16390Y1450D01*
X16608Y1449D01*
X16811Y1533D01*
X16949Y1672D01*
X16949Y1650D01*
X16987Y1558D01*
X17058Y1488D01*
X17150Y1450D01*
X17187Y1450D01*
X17253Y1405D01*
X17500Y1356D01*
X17746Y1405D01*
X17812Y1449D01*
X17849Y1449D01*
X17941Y1487D01*
X18011Y1558D01*
X18049Y1650D01*
X18049Y1687D01*
X18094Y1753D01*
X18143Y2000D01*
X18143Y3572D01*
X18184Y3614D01*
X18212Y3518D01*
X18418Y3445D01*
X18636Y3456D01*
X18787Y3518D01*
X18815Y3614D01*
X18815Y325D01*
X10815Y325D01*
X3580Y325D01*
X3580Y13928D01*
X3443Y14259D01*
X3190Y14512D01*
X2859Y14649D01*
X2501Y14650D01*
X2170Y14513D01*
X1917Y14260D01*
X1780Y13929D01*
X1779Y13571D01*
X1914Y13245D01*
X1802Y13245D01*
X1437Y13094D01*
X1156Y12814D01*
X1005Y12448D01*
X1004Y12052D01*
X1155Y11687D01*
X1192Y11650D01*
X1141Y11650D01*
X810Y11513D01*
X557Y11260D01*
X420Y10929D01*
X419Y10571D01*
X556Y10240D01*
X809Y9987D01*
X1140Y9850D01*
X1309Y9850D01*
X1356Y9803D01*
X1356Y7545D01*
X1287Y7476D01*
X1159Y7167D01*
X1159Y6833D01*
X1287Y6524D01*
X1523Y6287D01*
X1832Y6159D01*
X2166Y6159D01*
X2475Y6287D01*
X2712Y6523D01*
X2840Y6832D01*
X2840Y7166D01*
X2712Y7475D01*
X2643Y7545D01*
X2643Y10070D01*
X2602Y10275D01*
X2594Y10316D01*
X2594Y10316D01*
X2455Y10525D01*
X2455Y10525D01*
X2220Y10760D01*
X2220Y10928D01*
X2085Y11254D01*
X2197Y11254D01*
X2562Y11405D01*
X2843Y11685D01*
X2994Y12051D01*
X2995Y12447D01*
X2844Y12812D01*
X2807Y12849D01*
X2858Y12849D01*
X3189Y12986D01*
X3442Y13239D01*
X3579Y13570D01*
X3580Y13928D01*
X3580Y325D01*
X2840Y325D01*
X2840Y4359D01*
X2840Y5640D01*
X2802Y5731D01*
X2732Y5802D01*
X2640Y5840D01*
X2540Y5840D01*
X2112Y5840D01*
X2050Y5778D01*
X2050Y5050D01*
X2778Y5050D01*
X2840Y5112D01*
X2840Y5640D01*
X2840Y4359D01*
X2840Y4887D01*
X2778Y4950D01*
X2050Y4950D01*
X2050Y4222D01*
X2112Y4159D01*
X2540Y4159D01*
X2640Y4159D01*
X2732Y4197D01*
X2802Y4268D01*
X2840Y4359D01*
X2840Y325D01*
X2636Y325D01*
X2636Y1724D01*
X2463Y2142D01*
X2144Y2462D01*
X1950Y2543D01*
X1950Y4222D01*
X1950Y4950D01*
X1950Y5050D01*
X1950Y5778D01*
X1887Y5840D01*
X1459Y5840D01*
X1359Y5840D01*
X1267Y5802D01*
X1197Y5731D01*
X1159Y5640D01*
X1159Y5112D01*
X1222Y5050D01*
X1950Y5050D01*
X1950Y4950D01*
X1222Y4950D01*
X1159Y4887D01*
X1159Y4359D01*
X1197Y4268D01*
X1267Y4197D01*
X1359Y4159D01*
X1459Y4159D01*
X1887Y4159D01*
X1950Y4222D01*
X1950Y2543D01*
X1726Y2635D01*
X1275Y2636D01*
X857Y2463D01*
X537Y2144D01*
X364Y1726D01*
X363Y1275D01*
X536Y857D01*
X855Y537D01*
X1273Y364D01*
X1724Y363D01*
X2142Y536D01*
X2462Y855D01*
X2635Y1273D01*
X2636Y1724D01*
X2636Y325D01*
X325Y325D01*
X325Y33500D01*
X325Y33675D01*
X39175Y33675D01*
X39175Y33500D01*
X39175Y23133D01*
X39145Y23177D01*
X39136Y23187D01*
X39136Y32724D01*
X38963Y33142D01*
X38644Y33462D01*
X38226Y33635D01*
X37775Y33636D01*
X37357Y33463D01*
X37037Y33144D01*
X36864Y32726D01*
X36863Y32275D01*
X37036Y31857D01*
X37355Y31537D01*
X37773Y31364D01*
X38224Y31363D01*
X38642Y31536D01*
X38962Y31855D01*
X39135Y32273D01*
X39136Y32724D01*
X39136Y23187D01*
X38446Y23876D01*
X38446Y24210D01*
X38408Y24302D01*
X38338Y24373D01*
X38246Y24411D01*
X38147Y24411D01*
X37202Y24411D01*
X37110Y24373D01*
X37040Y24303D01*
X37002Y24211D01*
X37001Y24111D01*
X37001Y23167D01*
X37039Y23075D01*
X37110Y23004D01*
X37202Y22966D01*
X37301Y22966D01*
X37418Y22966D01*
X37315Y22923D01*
X37112Y22720D01*
X37002Y22455D01*
X37001Y22167D01*
X37111Y21902D01*
X37314Y21698D01*
X37580Y21588D01*
X37747Y21588D01*
X37269Y21110D01*
X37129Y20901D01*
X37080Y20655D01*
X37080Y20343D01*
X37040Y20303D01*
X37002Y20211D01*
X37001Y20111D01*
X37001Y19167D01*
X37039Y19075D01*
X37110Y19004D01*
X37202Y18966D01*
X37301Y18966D01*
X37418Y18966D01*
X37315Y18923D01*
X37112Y18720D01*
X37002Y18455D01*
X37001Y18167D01*
X37111Y17902D01*
X37314Y17698D01*
X37580Y17588D01*
X37747Y17588D01*
X37269Y17110D01*
X37129Y16901D01*
X37080Y16655D01*
X37080Y16343D01*
X37040Y16303D01*
X37002Y16211D01*
X37001Y16111D01*
X37001Y15167D01*
X37039Y15075D01*
X37110Y15004D01*
X37202Y14966D01*
X37301Y14966D01*
X37418Y14966D01*
X37315Y14923D01*
X37112Y14720D01*
X37002Y14455D01*
X37001Y14167D01*
X37111Y13902D01*
X37314Y13698D01*
X37580Y13588D01*
X37747Y13588D01*
X37269Y13110D01*
X37129Y12901D01*
X37080Y12655D01*
X37080Y12343D01*
X37040Y12303D01*
X37002Y12211D01*
X37001Y12111D01*
X37001Y11167D01*
X37039Y11075D01*
X37110Y11004D01*
X37202Y10966D01*
X37301Y10966D01*
X37418Y10966D01*
X37389Y10954D01*
X33104Y10954D01*
X33104Y12906D01*
X33104Y16906D01*
X33104Y20906D01*
X33094Y21144D01*
X33050Y21251D01*
X33050Y32108D01*
X32966Y32311D01*
X32811Y32465D01*
X32609Y32549D01*
X32391Y32550D01*
X32369Y32541D01*
X32264Y32645D01*
X32170Y32708D01*
X32059Y32730D01*
X29940Y32730D01*
X29940Y32730D01*
X29829Y32708D01*
X29735Y32645D01*
X29735Y32645D01*
X29631Y32541D01*
X29609Y32549D01*
X29391Y32550D01*
X29369Y32541D01*
X29264Y32645D01*
X29170Y32708D01*
X29059Y32730D01*
X26940Y32730D01*
X26940Y32730D01*
X26829Y32708D01*
X26735Y32645D01*
X26735Y32645D01*
X26631Y32541D01*
X26609Y32549D01*
X26391Y32550D01*
X26188Y32466D01*
X26050Y32327D01*
X26050Y32349D01*
X26012Y32441D01*
X25941Y32511D01*
X25849Y32549D01*
X25750Y32550D01*
X25150Y32550D01*
X25058Y32512D01*
X24988Y32441D01*
X24950Y32349D01*
X24949Y32250D01*
X24949Y31650D01*
X24987Y31558D01*
X25058Y31488D01*
X25150Y31450D01*
X25249Y31449D01*
X25849Y31449D01*
X25941Y31487D01*
X26011Y31558D01*
X26049Y31650D01*
X26049Y31672D01*
X26188Y31534D01*
X26390Y31450D01*
X26608Y31449D01*
X26811Y31533D01*
X26965Y31688D01*
X27049Y31890D01*
X27050Y32108D01*
X27041Y32130D01*
X27060Y32150D01*
X27949Y32150D01*
X27949Y31650D01*
X27987Y31558D01*
X28058Y31488D01*
X28150Y31450D01*
X28249Y31449D01*
X28849Y31449D01*
X28941Y31487D01*
X29011Y31558D01*
X29049Y31650D01*
X29049Y31672D01*
X29188Y31534D01*
X29390Y31450D01*
X29608Y31449D01*
X29811Y31533D01*
X29965Y31688D01*
X30049Y31890D01*
X30050Y32108D01*
X30041Y32130D01*
X30060Y32150D01*
X30949Y32150D01*
X30949Y31650D01*
X30987Y31558D01*
X31058Y31488D01*
X31150Y31450D01*
X31249Y31449D01*
X31849Y31449D01*
X31941Y31487D01*
X32011Y31558D01*
X32049Y31650D01*
X32049Y31672D01*
X32188Y31534D01*
X32390Y31450D01*
X32608Y31449D01*
X32811Y31533D01*
X32965Y31688D01*
X33049Y31890D01*
X33050Y32108D01*
X33050Y21251D01*
X33022Y21317D01*
X32922Y21351D01*
X32851Y21280D01*
X32851Y21422D01*
X32817Y21522D01*
X32593Y21604D01*
X32355Y21594D01*
X32182Y21522D01*
X32148Y21422D01*
X32500Y21070D01*
X32851Y21422D01*
X32851Y21280D01*
X32570Y21000D01*
X32922Y20648D01*
X33022Y20682D01*
X33104Y20906D01*
X33104Y16906D01*
X33094Y17144D01*
X33022Y17317D01*
X32922Y17351D01*
X32851Y17280D01*
X32851Y17422D01*
X32851Y20577D01*
X32500Y20929D01*
X32429Y20858D01*
X32429Y21000D01*
X32077Y21351D01*
X32012Y21329D01*
X32008Y21339D01*
X31840Y21508D01*
X31619Y21599D01*
X31381Y21600D01*
X31160Y21508D01*
X31085Y21434D01*
X31062Y21491D01*
X30991Y21561D01*
X30899Y21599D01*
X30800Y21600D01*
X30100Y21600D01*
X30008Y21562D01*
X29938Y21491D01*
X29900Y21399D01*
X29899Y21300D01*
X29899Y20600D01*
X29937Y20508D01*
X30008Y20438D01*
X30100Y20400D01*
X30199Y20399D01*
X30899Y20399D01*
X30991Y20437D01*
X31061Y20508D01*
X31085Y20565D01*
X31159Y20491D01*
X31380Y20400D01*
X31618Y20399D01*
X31839Y20491D01*
X32008Y20659D01*
X32012Y20670D01*
X32077Y20648D01*
X32429Y21000D01*
X32429Y20858D01*
X32148Y20577D01*
X32182Y20477D01*
X32406Y20395D01*
X32644Y20405D01*
X32817Y20477D01*
X32851Y20577D01*
X32851Y17422D01*
X32817Y17522D01*
X32593Y17604D01*
X32355Y17594D01*
X32182Y17522D01*
X32148Y17422D01*
X32500Y17070D01*
X32851Y17422D01*
X32851Y17280D01*
X32570Y17000D01*
X32922Y16648D01*
X33022Y16682D01*
X33104Y16906D01*
X33104Y12906D01*
X33094Y13144D01*
X33022Y13317D01*
X32922Y13351D01*
X32851Y13280D01*
X32851Y13422D01*
X32851Y16577D01*
X32500Y16929D01*
X32429Y16858D01*
X32429Y17000D01*
X32077Y17351D01*
X32012Y17329D01*
X32008Y17339D01*
X31840Y17508D01*
X31619Y17599D01*
X31381Y17600D01*
X31160Y17508D01*
X31085Y17434D01*
X31062Y17491D01*
X30991Y17561D01*
X30899Y17599D01*
X30800Y17600D01*
X30100Y17600D01*
X30008Y17562D01*
X29938Y17491D01*
X29900Y17399D01*
X29899Y17300D01*
X29899Y16600D01*
X29937Y16508D01*
X30008Y16438D01*
X30100Y16400D01*
X30199Y16399D01*
X30899Y16399D01*
X30991Y16437D01*
X31061Y16508D01*
X31085Y16565D01*
X31159Y16491D01*
X31380Y16400D01*
X31618Y16399D01*
X31839Y16491D01*
X32008Y16659D01*
X32012Y16670D01*
X32077Y16648D01*
X32429Y17000D01*
X32429Y16858D01*
X32148Y16577D01*
X32182Y16477D01*
X32406Y16395D01*
X32644Y16405D01*
X32817Y16477D01*
X32851Y16577D01*
X32851Y13422D01*
X32817Y13522D01*
X32593Y13604D01*
X32355Y13594D01*
X32182Y13522D01*
X32148Y13422D01*
X32500Y13070D01*
X32851Y13422D01*
X32851Y13280D01*
X32570Y13000D01*
X32922Y12648D01*
X33022Y12682D01*
X33104Y12906D01*
X33104Y10954D01*
X32851Y10954D01*
X32851Y12577D01*
X32500Y12929D01*
X32429Y12858D01*
X32429Y13000D01*
X32077Y13351D01*
X32012Y13329D01*
X32008Y13339D01*
X31840Y13508D01*
X31619Y13599D01*
X31381Y13600D01*
X31160Y13508D01*
X31085Y13434D01*
X31062Y13491D01*
X30991Y13561D01*
X30899Y13599D01*
X30800Y13600D01*
X30100Y13600D01*
X30008Y13562D01*
X29938Y13491D01*
X29900Y13399D01*
X29899Y13300D01*
X29899Y12600D01*
X29937Y12508D01*
X30008Y12438D01*
X30100Y12400D01*
X30199Y12399D01*
X30899Y12399D01*
X30991Y12437D01*
X31061Y12508D01*
X31085Y12565D01*
X31159Y12491D01*
X31380Y12400D01*
X31618Y12399D01*
X31839Y12491D01*
X32008Y12659D01*
X32012Y12670D01*
X32077Y12648D01*
X32429Y13000D01*
X32429Y12858D01*
X32148Y12577D01*
X32182Y12477D01*
X32406Y12395D01*
X32644Y12405D01*
X32817Y12477D01*
X32851Y12577D01*
X32851Y10954D01*
X32556Y10954D01*
X32351Y10913D01*
X32310Y10905D01*
X32101Y10766D01*
X31044Y9709D01*
X30956Y9576D01*
X30899Y9599D01*
X30800Y9600D01*
X30100Y9600D01*
X30008Y9562D01*
X29938Y9491D01*
X29900Y9399D01*
X29899Y9300D01*
X29899Y8600D01*
X29937Y8508D01*
X30008Y8438D01*
X30100Y8400D01*
X30199Y8399D01*
X30899Y8399D01*
X30991Y8437D01*
X31061Y8508D01*
X31070Y8528D01*
X31253Y8405D01*
X31500Y8356D01*
X31746Y8405D01*
X31955Y8544D01*
X32034Y8663D01*
X32077Y8648D01*
X32429Y9000D01*
X32423Y9005D01*
X32494Y9076D01*
X32500Y9070D01*
X32851Y9422D01*
X32817Y9522D01*
X32715Y9560D01*
X32823Y9667D01*
X37390Y9667D01*
X37580Y9588D01*
X37867Y9588D01*
X38133Y9698D01*
X38336Y9901D01*
X38446Y10166D01*
X38446Y10454D01*
X38337Y10719D01*
X38134Y10923D01*
X38029Y10966D01*
X38246Y10966D01*
X38338Y11004D01*
X38408Y11074D01*
X38446Y11166D01*
X38446Y11266D01*
X38446Y12210D01*
X38408Y12302D01*
X38367Y12343D01*
X38367Y12388D01*
X39146Y13166D01*
X39146Y13166D01*
X39146Y13166D01*
X39175Y13209D01*
X39175Y325D01*
X39175Y325D01*
G37*
G54D29*
X39175Y325D02*
X39136Y325D01*
X39136Y1724D01*
X38963Y2142D01*
X38644Y2462D01*
X38226Y2635D01*
X37840Y2636D01*
X37840Y5166D01*
X37840Y5166D01*
X37840Y6359D01*
X37840Y7640D01*
X37802Y7731D01*
X37732Y7802D01*
X37640Y7840D01*
X37540Y7840D01*
X37112Y7840D01*
X37050Y7778D01*
X37050Y7050D01*
X37778Y7050D01*
X37840Y7112D01*
X37840Y7640D01*
X37840Y6359D01*
X37840Y6887D01*
X37778Y6950D01*
X37050Y6950D01*
X37050Y6222D01*
X37112Y6159D01*
X37540Y6159D01*
X37640Y6159D01*
X37732Y6197D01*
X37802Y6268D01*
X37840Y6359D01*
X37840Y5166D01*
X37712Y5475D01*
X37476Y5712D01*
X37167Y5840D01*
X36950Y5840D01*
X36950Y6222D01*
X36950Y6950D01*
X36950Y7050D01*
X36950Y7778D01*
X36887Y7840D01*
X36459Y7840D01*
X36359Y7840D01*
X36267Y7802D01*
X36197Y7731D01*
X36159Y7640D01*
X36159Y7112D01*
X36222Y7050D01*
X36950Y7050D01*
X36950Y6950D01*
X36222Y6950D01*
X36159Y6887D01*
X36159Y6359D01*
X36197Y6268D01*
X36267Y6197D01*
X36359Y6159D01*
X36459Y6159D01*
X36887Y6159D01*
X36950Y6222D01*
X36950Y5840D01*
X36833Y5840D01*
X36524Y5712D01*
X36287Y5476D01*
X36159Y5167D01*
X36159Y4833D01*
X36287Y4524D01*
X36523Y4287D01*
X36832Y4159D01*
X37166Y4159D01*
X37475Y4287D01*
X37712Y4523D01*
X37840Y4832D01*
X37840Y5166D01*
X37840Y2636D01*
X37775Y2636D01*
X37357Y2463D01*
X37037Y2144D01*
X36864Y1726D01*
X36863Y1275D01*
X37036Y857D01*
X37355Y537D01*
X37773Y364D01*
X38224Y363D01*
X38642Y536D01*
X38962Y855D01*
X39135Y1273D01*
X39136Y1724D01*
X39136Y325D01*
X36067Y325D01*
X36067Y4705D01*
X36067Y4803D01*
X36042Y4927D01*
X35971Y5032D01*
X35957Y5042D01*
X35969Y5098D01*
X35969Y5197D01*
X35959Y5246D01*
X35969Y5295D01*
X35944Y5419D01*
X35873Y5524D01*
X35768Y5595D01*
X35644Y5620D01*
X34942Y5620D01*
X34886Y5643D01*
X34630Y5643D01*
X34393Y5545D01*
X34212Y5364D01*
X34181Y5290D01*
X33104Y5290D01*
X33104Y8906D01*
X33094Y9144D01*
X33022Y9317D01*
X32922Y9351D01*
X32570Y9000D01*
X32922Y8648D01*
X33022Y8682D01*
X33104Y8906D01*
X33104Y5290D01*
X32888Y5290D01*
X33008Y5409D01*
X33099Y5630D01*
X33100Y5868D01*
X33008Y6089D01*
X32851Y6247D01*
X32851Y8577D01*
X32500Y8929D01*
X32148Y8577D01*
X32182Y8477D01*
X32406Y8395D01*
X32644Y8405D01*
X32817Y8477D01*
X32851Y8577D01*
X32851Y6247D01*
X32840Y6258D01*
X32619Y6349D01*
X32381Y6350D01*
X32160Y6258D01*
X31999Y6098D01*
X31840Y6258D01*
X31619Y6349D01*
X31381Y6350D01*
X31160Y6258D01*
X31085Y6184D01*
X31062Y6241D01*
X30991Y6311D01*
X30899Y6349D01*
X30800Y6350D01*
X30100Y6350D01*
X30008Y6312D01*
X29938Y6241D01*
X29900Y6149D01*
X29899Y6050D01*
X29899Y5350D01*
X29937Y5258D01*
X30008Y5188D01*
X30100Y5150D01*
X30199Y5149D01*
X30899Y5149D01*
X30991Y5187D01*
X31061Y5258D01*
X31085Y5315D01*
X31159Y5241D01*
X31380Y5150D01*
X31618Y5149D01*
X31669Y5170D01*
X32044Y4794D01*
X32044Y4794D01*
X32139Y4732D01*
X32249Y4710D01*
X32249Y4710D01*
X32250Y4710D01*
X34181Y4710D01*
X34212Y4635D01*
X34393Y4454D01*
X34629Y4356D01*
X34885Y4356D01*
X34942Y4380D01*
X35742Y4380D01*
X35866Y4404D01*
X35971Y4475D01*
X36042Y4580D01*
X36067Y4705D01*
X36067Y325D01*
X33900Y325D01*
X33900Y1998D01*
X33763Y2329D01*
X33510Y2582D01*
X33179Y2719D01*
X32821Y2720D01*
X32495Y2585D01*
X32495Y2697D01*
X32344Y3062D01*
X32064Y3343D01*
X31698Y3494D01*
X31302Y3495D01*
X30937Y3344D01*
X30900Y3307D01*
X30900Y3358D01*
X30763Y3689D01*
X30510Y3942D01*
X30179Y4079D01*
X29821Y4080D01*
X29490Y3943D01*
X29237Y3690D01*
X29100Y3359D01*
X29099Y3001D01*
X29236Y2670D01*
X29489Y2417D01*
X29820Y2280D01*
X30178Y2279D01*
X30504Y2414D01*
X30504Y2302D01*
X30655Y1937D01*
X30935Y1656D01*
X31301Y1505D01*
X31697Y1504D01*
X32062Y1655D01*
X32099Y1692D01*
X32099Y1641D01*
X32236Y1310D01*
X32489Y1057D01*
X32820Y920D01*
X33178Y919D01*
X33509Y1056D01*
X33762Y1309D01*
X33899Y1640D01*
X33900Y1998D01*
X33900Y325D01*
X25246Y325D01*
X25246Y16390D01*
X25182Y16546D01*
X25111Y16617D01*
X25111Y19143D01*
X25089Y19254D01*
X25026Y19348D01*
X24424Y19950D01*
X24608Y19949D01*
X24811Y20033D01*
X24965Y20188D01*
X25049Y20390D01*
X25050Y20608D01*
X24966Y20811D01*
X24811Y20965D01*
X24790Y20975D01*
X24790Y21524D01*
X24811Y21533D01*
X24965Y21688D01*
X25049Y21890D01*
X25050Y22108D01*
X24966Y22311D01*
X24811Y22465D01*
X24609Y22549D01*
X24391Y22550D01*
X24188Y22466D01*
X24131Y22409D01*
X24050Y22490D01*
X24050Y32108D01*
X23966Y32311D01*
X23811Y32465D01*
X23609Y32549D01*
X23391Y32550D01*
X23188Y32466D01*
X23050Y32327D01*
X23050Y32349D01*
X23012Y32441D01*
X22941Y32511D01*
X22849Y32549D01*
X22750Y32550D01*
X22150Y32550D01*
X22058Y32512D01*
X21988Y32441D01*
X21950Y32349D01*
X21949Y32250D01*
X21949Y31650D01*
X21987Y31558D01*
X22058Y31488D01*
X22150Y31450D01*
X22249Y31449D01*
X22849Y31449D01*
X22941Y31487D01*
X23011Y31558D01*
X23049Y31650D01*
X23049Y31672D01*
X23188Y31534D01*
X23390Y31450D01*
X23608Y31449D01*
X23811Y31533D01*
X23965Y31688D01*
X24049Y31890D01*
X24050Y32108D01*
X24050Y22490D01*
X20335Y26205D01*
X20241Y26267D01*
X20130Y26290D01*
X20050Y26290D01*
X20050Y30108D01*
X19966Y30311D01*
X19811Y30465D01*
X19609Y30549D01*
X19391Y30550D01*
X19188Y30466D01*
X19034Y30311D01*
X19000Y30230D01*
X18966Y30311D01*
X18811Y30465D01*
X18609Y30549D01*
X18391Y30550D01*
X18188Y30466D01*
X18143Y30421D01*
X18143Y32000D01*
X18094Y32246D01*
X17955Y32455D01*
X17746Y32594D01*
X17500Y32643D01*
X17253Y32594D01*
X17044Y32455D01*
X17000Y32387D01*
X16955Y32455D01*
X16746Y32594D01*
X16500Y32643D01*
X16253Y32594D01*
X16044Y32455D01*
X16000Y32387D01*
X15955Y32455D01*
X15746Y32594D01*
X15500Y32643D01*
X15253Y32594D01*
X15044Y32455D01*
X15021Y32419D01*
X15012Y32441D01*
X14941Y32511D01*
X14849Y32549D01*
X14812Y32549D01*
X14746Y32594D01*
X14500Y32643D01*
X14253Y32594D01*
X14187Y32550D01*
X14150Y32550D01*
X14058Y32512D01*
X13988Y32441D01*
X13950Y32349D01*
X13950Y32312D01*
X13905Y32246D01*
X13856Y32000D01*
X13856Y30427D01*
X13815Y30385D01*
X13787Y30481D01*
X13581Y30554D01*
X13363Y30543D01*
X13212Y30481D01*
X13184Y30385D01*
X13500Y30070D01*
X13505Y30076D01*
X13576Y30005D01*
X13570Y30000D01*
X13885Y29684D01*
X13940Y29700D01*
X14044Y29544D01*
X14253Y29405D01*
X14500Y29356D01*
X14746Y29405D01*
X14955Y29544D01*
X15000Y29612D01*
X15044Y29544D01*
X15253Y29405D01*
X15500Y29356D01*
X15746Y29405D01*
X15955Y29544D01*
X16000Y29612D01*
X16044Y29544D01*
X16253Y29405D01*
X16500Y29356D01*
X16746Y29405D01*
X16955Y29544D01*
X17000Y29612D01*
X17044Y29544D01*
X17253Y29405D01*
X17500Y29356D01*
X17746Y29405D01*
X17955Y29544D01*
X18044Y29678D01*
X18188Y29534D01*
X18390Y29450D01*
X18608Y29449D01*
X18811Y29533D01*
X18965Y29688D01*
X18999Y29769D01*
X19033Y29688D01*
X19188Y29534D01*
X19390Y29450D01*
X19608Y29449D01*
X19811Y29533D01*
X19965Y29688D01*
X20049Y29890D01*
X20050Y30108D01*
X20050Y26290D01*
X13815Y26290D01*
X13815Y29614D01*
X13500Y29929D01*
X13429Y29858D01*
X13429Y30000D01*
X13114Y30315D01*
X13018Y30287D01*
X12999Y30232D01*
X12966Y30311D01*
X12811Y30465D01*
X12609Y30549D01*
X12391Y30550D01*
X12188Y30466D01*
X12034Y30311D01*
X12000Y30230D01*
X11966Y30311D01*
X11811Y30465D01*
X11609Y30549D01*
X11391Y30550D01*
X11188Y30466D01*
X11034Y30311D01*
X11000Y30230D01*
X10966Y30311D01*
X10811Y30465D01*
X10609Y30549D01*
X10391Y30550D01*
X10188Y30466D01*
X10143Y30421D01*
X10143Y32000D01*
X10094Y32246D01*
X9955Y32455D01*
X9746Y32594D01*
X9500Y32643D01*
X9253Y32594D01*
X9044Y32455D01*
X9000Y32387D01*
X8955Y32455D01*
X8746Y32594D01*
X8500Y32643D01*
X8253Y32594D01*
X8044Y32455D01*
X8000Y32387D01*
X7955Y32455D01*
X7746Y32594D01*
X7500Y32643D01*
X7253Y32594D01*
X7044Y32455D01*
X7021Y32419D01*
X7012Y32441D01*
X6941Y32511D01*
X6849Y32549D01*
X6750Y32550D01*
X6150Y32550D01*
X6058Y32512D01*
X5988Y32441D01*
X5950Y32349D01*
X5949Y32250D01*
X5949Y31650D01*
X5987Y31558D01*
X6058Y31488D01*
X6150Y31450D01*
X6249Y31449D01*
X6849Y31449D01*
X6856Y31452D01*
X6856Y30421D01*
X6811Y30465D01*
X6609Y30549D01*
X6391Y30550D01*
X6188Y30466D01*
X6034Y30311D01*
X6002Y30236D01*
X5981Y30287D01*
X5885Y30315D01*
X5815Y30244D01*
X5815Y30385D01*
X5787Y30481D01*
X5581Y30554D01*
X5363Y30543D01*
X5212Y30481D01*
X5184Y30385D01*
X5500Y30070D01*
X5815Y30385D01*
X5815Y30244D01*
X5570Y30000D01*
X5885Y29684D01*
X5981Y29712D01*
X6000Y29767D01*
X6033Y29688D01*
X6188Y29534D01*
X6390Y29450D01*
X6608Y29449D01*
X6811Y29533D01*
X6956Y29678D01*
X7044Y29544D01*
X7253Y29405D01*
X7500Y29356D01*
X7746Y29405D01*
X7955Y29544D01*
X8000Y29612D01*
X8044Y29544D01*
X8253Y29405D01*
X8500Y29356D01*
X8746Y29405D01*
X8955Y29544D01*
X9000Y29612D01*
X9044Y29544D01*
X9253Y29405D01*
X9500Y29356D01*
X9746Y29405D01*
X9955Y29544D01*
X10044Y29678D01*
X10188Y29534D01*
X10390Y29450D01*
X10608Y29449D01*
X10811Y29533D01*
X10965Y29688D01*
X10999Y29769D01*
X11033Y29688D01*
X11188Y29534D01*
X11390Y29450D01*
X11608Y29449D01*
X11811Y29533D01*
X11965Y29688D01*
X11999Y29769D01*
X12033Y29688D01*
X12188Y29534D01*
X12390Y29450D01*
X12608Y29449D01*
X12811Y29533D01*
X12965Y29688D01*
X12997Y29763D01*
X13018Y29712D01*
X13114Y29684D01*
X13429Y30000D01*
X13429Y29858D01*
X13184Y29614D01*
X13212Y29518D01*
X13418Y29445D01*
X13636Y29456D01*
X13787Y29518D01*
X13815Y29614D01*
X13815Y26290D01*
X5815Y26290D01*
X5815Y29614D01*
X5500Y29929D01*
X5429Y29858D01*
X5429Y30000D01*
X5114Y30315D01*
X5018Y30287D01*
X4999Y30232D01*
X4966Y30311D01*
X4811Y30465D01*
X4609Y30549D01*
X4391Y30550D01*
X4188Y30466D01*
X4034Y30311D01*
X3950Y30109D01*
X3949Y29891D01*
X4033Y29688D01*
X4188Y29534D01*
X4390Y29450D01*
X4608Y29449D01*
X4811Y29533D01*
X4965Y29688D01*
X4997Y29763D01*
X5018Y29712D01*
X5114Y29684D01*
X5429Y30000D01*
X5429Y29858D01*
X5184Y29614D01*
X5212Y29518D01*
X5418Y29445D01*
X5636Y29456D01*
X5787Y29518D01*
X5815Y29614D01*
X5815Y26290D01*
X2636Y26290D01*
X2636Y32724D01*
X2463Y33142D01*
X2144Y33462D01*
X1726Y33635D01*
X1275Y33636D01*
X857Y33463D01*
X537Y33144D01*
X364Y32726D01*
X363Y32275D01*
X536Y31857D01*
X855Y31537D01*
X1273Y31364D01*
X1724Y31363D01*
X2142Y31536D01*
X2462Y31855D01*
X2635Y32273D01*
X2636Y32724D01*
X2636Y26290D01*
X2101Y26290D01*
X2035Y26388D01*
X1869Y26500D01*
X2035Y26611D01*
X2154Y26789D01*
X2196Y27000D01*
X2154Y27210D01*
X2035Y27388D01*
X1943Y27449D01*
X1982Y27449D01*
X2074Y27487D01*
X2144Y27558D01*
X2182Y27650D01*
X2183Y27749D01*
X2183Y28349D01*
X2145Y28441D01*
X2074Y28511D01*
X1982Y28549D01*
X1883Y28550D01*
X1017Y28550D01*
X925Y28512D01*
X855Y28441D01*
X817Y28349D01*
X816Y28250D01*
X816Y27650D01*
X854Y27558D01*
X925Y27488D01*
X1017Y27450D01*
X1056Y27450D01*
X964Y27388D01*
X845Y27210D01*
X803Y27000D01*
X845Y26789D01*
X859Y26769D01*
X694Y26605D01*
X632Y26510D01*
X610Y26400D01*
X610Y24600D01*
X632Y24489D01*
X660Y24447D01*
X660Y19050D01*
X682Y18939D01*
X744Y18844D01*
X958Y18631D01*
X950Y18609D01*
X949Y18391D01*
X1033Y18188D01*
X1188Y18034D01*
X1390Y17950D01*
X1608Y17949D01*
X1630Y17958D01*
X3759Y15830D01*
X3759Y4450D01*
X3781Y4339D01*
X3844Y4245D01*
X3958Y4131D01*
X3950Y4109D01*
X3949Y3891D01*
X4033Y3688D01*
X4188Y3534D01*
X4390Y3450D01*
X4608Y3449D01*
X4811Y3533D01*
X4965Y3688D01*
X4999Y3769D01*
X5033Y3688D01*
X5188Y3534D01*
X5390Y3450D01*
X5608Y3449D01*
X5811Y3533D01*
X5856Y3578D01*
X5856Y2000D01*
X5905Y1753D01*
X6044Y1544D01*
X6253Y1405D01*
X6500Y1356D01*
X6746Y1405D01*
X6955Y1544D01*
X7000Y1612D01*
X7044Y1544D01*
X7253Y1405D01*
X7500Y1356D01*
X7746Y1405D01*
X7955Y1544D01*
X8000Y1612D01*
X8044Y1544D01*
X8253Y1405D01*
X8500Y1356D01*
X8746Y1405D01*
X8955Y1544D01*
X8978Y1580D01*
X8987Y1558D01*
X9058Y1488D01*
X9150Y1450D01*
X9187Y1450D01*
X9253Y1405D01*
X9500Y1356D01*
X9746Y1405D01*
X9812Y1449D01*
X9849Y1449D01*
X9941Y1487D01*
X10011Y1558D01*
X10049Y1650D01*
X10049Y1687D01*
X10094Y1753D01*
X10143Y2000D01*
X10143Y3572D01*
X10184Y3614D01*
X10212Y3518D01*
X10418Y3445D01*
X10636Y3456D01*
X10787Y3518D01*
X10815Y3614D01*
X10500Y3929D01*
X10494Y3923D01*
X10423Y3994D01*
X10429Y4000D01*
X10114Y4315D01*
X10059Y4299D01*
X9955Y4455D01*
X9746Y4594D01*
X9500Y4643D01*
X9253Y4594D01*
X9044Y4455D01*
X9000Y4387D01*
X8955Y4455D01*
X8746Y4594D01*
X8500Y4643D01*
X8253Y4594D01*
X8044Y4455D01*
X8000Y4387D01*
X7955Y4455D01*
X7746Y4594D01*
X7500Y4643D01*
X7253Y4594D01*
X7044Y4455D01*
X7000Y4387D01*
X6955Y4455D01*
X6746Y4594D01*
X6500Y4643D01*
X6253Y4594D01*
X6044Y4455D01*
X5955Y4321D01*
X5811Y4465D01*
X5790Y4475D01*
X5790Y7879D01*
X6368Y8458D01*
X6390Y8450D01*
X6608Y8449D01*
X6811Y8533D01*
X6965Y8688D01*
X6999Y8769D01*
X7033Y8688D01*
X7188Y8534D01*
X7390Y8450D01*
X7608Y8449D01*
X7811Y8533D01*
X7965Y8688D01*
X7999Y8769D01*
X8033Y8688D01*
X8188Y8534D01*
X8390Y8450D01*
X8608Y8449D01*
X8811Y8533D01*
X8965Y8688D01*
X8999Y8769D01*
X9033Y8688D01*
X9188Y8534D01*
X9390Y8450D01*
X9608Y8449D01*
X9811Y8533D01*
X9965Y8688D01*
X9999Y8769D01*
X10033Y8688D01*
X10188Y8534D01*
X10390Y8450D01*
X10608Y8449D01*
X10811Y8533D01*
X10965Y8688D01*
X10999Y8769D01*
X11033Y8688D01*
X11188Y8534D01*
X11390Y8450D01*
X11608Y8449D01*
X11811Y8533D01*
X11965Y8688D01*
X11999Y8769D01*
X12033Y8688D01*
X12188Y8534D01*
X12390Y8450D01*
X12608Y8449D01*
X12811Y8533D01*
X12965Y8688D01*
X12999Y8769D01*
X13033Y8688D01*
X13188Y8534D01*
X13390Y8450D01*
X13608Y8449D01*
X13811Y8533D01*
X13965Y8688D01*
X13999Y8769D01*
X14033Y8688D01*
X14188Y8534D01*
X14390Y8450D01*
X14608Y8449D01*
X14811Y8533D01*
X14965Y8688D01*
X14999Y8769D01*
X15033Y8688D01*
X15188Y8534D01*
X15390Y8450D01*
X15608Y8449D01*
X15811Y8533D01*
X15965Y8688D01*
X15999Y8769D01*
X16033Y8688D01*
X16188Y8534D01*
X16390Y8450D01*
X16608Y8449D01*
X16811Y8533D01*
X16965Y8688D01*
X16999Y8769D01*
X17033Y8688D01*
X17188Y8534D01*
X17390Y8450D01*
X17608Y8449D01*
X17811Y8533D01*
X17965Y8688D01*
X17999Y8769D01*
X18033Y8688D01*
X18188Y8534D01*
X18390Y8450D01*
X18608Y8449D01*
X18811Y8533D01*
X18965Y8688D01*
X18999Y8769D01*
X19033Y8688D01*
X19188Y8534D01*
X19390Y8450D01*
X19608Y8449D01*
X19811Y8533D01*
X19965Y8688D01*
X20049Y8890D01*
X20050Y9108D01*
X19966Y9311D01*
X19811Y9465D01*
X19609Y9549D01*
X19391Y9550D01*
X19188Y9466D01*
X19034Y9311D01*
X19000Y9230D01*
X18966Y9311D01*
X18811Y9465D01*
X18790Y9475D01*
X18790Y10024D01*
X18811Y10033D01*
X18965Y10188D01*
X19049Y10390D01*
X19050Y10608D01*
X18966Y10811D01*
X18827Y10949D01*
X18849Y10949D01*
X18941Y10987D01*
X19011Y11058D01*
X19049Y11150D01*
X19050Y11249D01*
X19050Y11849D01*
X19012Y11941D01*
X18961Y11991D01*
X22705Y15735D01*
X22705Y15735D01*
X22705Y15735D01*
X22767Y15829D01*
X22790Y15940D01*
X22789Y15940D01*
X22790Y15940D01*
X22790Y16111D01*
X23002Y16111D01*
X23072Y16040D01*
X23228Y15976D01*
X23397Y15975D01*
X23554Y16040D01*
X23673Y16159D01*
X23738Y16316D01*
X23738Y16485D01*
X23674Y16641D01*
X23554Y16761D01*
X23398Y16825D01*
X23229Y16826D01*
X23073Y16761D01*
X23002Y16691D01*
X22790Y16691D01*
X22790Y19949D01*
X22849Y19949D01*
X22941Y19987D01*
X22956Y20003D01*
X24074Y18885D01*
X24074Y18805D01*
X24139Y18649D01*
X24258Y18529D01*
X24415Y18464D01*
X24531Y18464D01*
X24531Y16617D01*
X24461Y16547D01*
X24396Y16390D01*
X24396Y16221D01*
X24461Y16065D01*
X24580Y15945D01*
X24736Y15881D01*
X24905Y15880D01*
X25062Y15945D01*
X25181Y16065D01*
X25246Y16221D01*
X25246Y16390D01*
X25246Y325D01*
X20050Y325D01*
X20050Y4108D01*
X19966Y4311D01*
X19811Y4465D01*
X19609Y4549D01*
X19391Y4550D01*
X19188Y4466D01*
X19034Y4311D01*
X19002Y4236D01*
X18981Y4287D01*
X18885Y4315D01*
X18815Y4244D01*
X18815Y4385D01*
X18787Y4481D01*
X18581Y4554D01*
X18363Y4543D01*
X18212Y4481D01*
X18184Y4385D01*
X18500Y4070D01*
X18815Y4385D01*
X18815Y4244D01*
X18570Y4000D01*
X18885Y3684D01*
X18981Y3712D01*
X19000Y3767D01*
X19033Y3688D01*
X19188Y3534D01*
X19390Y3450D01*
X19608Y3449D01*
X19811Y3533D01*
X19965Y3688D01*
X20049Y3890D01*
X20050Y4108D01*
X20050Y325D01*
X18815Y325D01*
X18815Y3614D01*
X18500Y3929D01*
X18494Y3923D01*
X18429Y3988D01*
X18423Y3994D01*
X18429Y4000D01*
X18114Y4315D01*
X18059Y4299D01*
X17955Y4455D01*
X17746Y4594D01*
X17500Y4643D01*
X17253Y4594D01*
X17044Y4455D01*
X16955Y4321D01*
X16811Y4465D01*
X16609Y4549D01*
X16391Y4550D01*
X16188Y4466D01*
X16043Y4321D01*
X15955Y4455D01*
X15746Y4594D01*
X15500Y4643D01*
X15253Y4594D01*
X15044Y4455D01*
X15000Y4387D01*
X14955Y4455D01*
X14746Y4594D01*
X14500Y4643D01*
X14253Y4594D01*
X14044Y4455D01*
X13955Y4321D01*
X13811Y4465D01*
X13609Y4549D01*
X13391Y4550D01*
X13188Y4466D01*
X13034Y4311D01*
X13000Y4230D01*
X12966Y4311D01*
X12811Y4465D01*
X12609Y4549D01*
X12391Y4550D01*
X12188Y4466D01*
X12034Y4311D01*
X12000Y4230D01*
X11966Y4311D01*
X11811Y4465D01*
X11609Y4549D01*
X11391Y4550D01*
X11188Y4466D01*
X11034Y4311D01*
X11002Y4236D01*
X10981Y4287D01*
X10885Y4315D01*
X10815Y4244D01*
X10815Y4385D01*
X10787Y4481D01*
X10581Y4554D01*
X10363Y4543D01*
X10212Y4481D01*
X10184Y4385D01*
X10500Y4070D01*
X10815Y4385D01*
X10815Y4244D01*
X10570Y4000D01*
X10885Y3684D01*
X10981Y3712D01*
X11000Y3767D01*
X11033Y3688D01*
X11188Y3534D01*
X11390Y3450D01*
X11608Y3449D01*
X11811Y3533D01*
X11965Y3688D01*
X11999Y3769D01*
X12033Y3688D01*
X12188Y3534D01*
X12390Y3450D01*
X12608Y3449D01*
X12811Y3533D01*
X12965Y3688D01*
X12999Y3769D01*
X13033Y3688D01*
X13188Y3534D01*
X13390Y3450D01*
X13608Y3449D01*
X13811Y3533D01*
X13856Y3578D01*
X13856Y2000D01*
X13905Y1753D01*
X14044Y1544D01*
X14253Y1405D01*
X14500Y1356D01*
X14746Y1405D01*
X14955Y1544D01*
X15000Y1612D01*
X15044Y1544D01*
X15253Y1405D01*
X15500Y1356D01*
X15746Y1405D01*
X15955Y1544D01*
X16044Y1678D01*
X16188Y1534D01*
X16390Y1450D01*
X16608Y1449D01*
X16811Y1533D01*
X16949Y1672D01*
X16949Y1650D01*
X16987Y1558D01*
X17058Y1488D01*
X17150Y1450D01*
X17187Y1450D01*
X17253Y1405D01*
X17500Y1356D01*
X17746Y1405D01*
X17812Y1449D01*
X17849Y1449D01*
X17941Y1487D01*
X18011Y1558D01*
X18049Y1650D01*
X18049Y1687D01*
X18094Y1753D01*
X18143Y2000D01*
X18143Y3572D01*
X18184Y3614D01*
X18212Y3518D01*
X18418Y3445D01*
X18636Y3456D01*
X18787Y3518D01*
X18815Y3614D01*
X18815Y325D01*
X10815Y325D01*
X3580Y325D01*
X3580Y13928D01*
X3443Y14259D01*
X3190Y14512D01*
X2859Y14649D01*
X2501Y14650D01*
X2170Y14513D01*
X1917Y14260D01*
X1780Y13929D01*
X1779Y13571D01*
X1914Y13245D01*
X1802Y13245D01*
X1437Y13094D01*
X1156Y12814D01*
X1005Y12448D01*
X1004Y12052D01*
X1155Y11687D01*
X1192Y11650D01*
X1141Y11650D01*
X810Y11513D01*
X557Y11260D01*
X420Y10929D01*
X419Y10571D01*
X556Y10240D01*
X809Y9987D01*
X1140Y9850D01*
X1309Y9850D01*
X1356Y9803D01*
X1356Y7545D01*
X1287Y7476D01*
X1159Y7167D01*
X1159Y6833D01*
X1287Y6524D01*
X1523Y6287D01*
X1832Y6159D01*
X2166Y6159D01*
X2475Y6287D01*
X2712Y6523D01*
X2840Y6832D01*
X2840Y7166D01*
X2712Y7475D01*
X2643Y7545D01*
X2643Y10070D01*
X2602Y10275D01*
X2594Y10316D01*
X2594Y10316D01*
X2455Y10525D01*
X2455Y10525D01*
X2220Y10760D01*
X2220Y10928D01*
X2085Y11254D01*
X2197Y11254D01*
X2562Y11405D01*
X2843Y11685D01*
X2994Y12051D01*
X2995Y12447D01*
X2844Y12812D01*
X2807Y12849D01*
X2858Y12849D01*
X3189Y12986D01*
X3442Y13239D01*
X3579Y13570D01*
X3580Y13928D01*
X3580Y325D01*
X2840Y325D01*
X2840Y4359D01*
X2840Y5640D01*
X2802Y5731D01*
X2732Y5802D01*
X2640Y5840D01*
X2540Y5840D01*
X2112Y5840D01*
X2050Y5778D01*
X2050Y5050D01*
X2778Y5050D01*
X2840Y5112D01*
X2840Y5640D01*
X2840Y4359D01*
X2840Y4887D01*
X2778Y4950D01*
X2050Y4950D01*
X2050Y4222D01*
X2112Y4159D01*
X2540Y4159D01*
X2640Y4159D01*
X2732Y4197D01*
X2802Y4268D01*
X2840Y4359D01*
X2840Y325D01*
X2636Y325D01*
X2636Y1724D01*
X2463Y2142D01*
X2144Y2462D01*
X1950Y2543D01*
X1950Y4222D01*
X1950Y4950D01*
X1950Y5050D01*
X1950Y5778D01*
X1887Y5840D01*
X1459Y5840D01*
X1359Y5840D01*
X1267Y5802D01*
X1197Y5731D01*
X1159Y5640D01*
X1159Y5112D01*
X1222Y5050D01*
X1950Y5050D01*
X1950Y4950D01*
X1222Y4950D01*
X1159Y4887D01*
X1159Y4359D01*
X1197Y4268D01*
X1267Y4197D01*
X1359Y4159D01*
X1459Y4159D01*
X1887Y4159D01*
X1950Y4222D01*
X1950Y2543D01*
X1726Y2635D01*
X1275Y2636D01*
X857Y2463D01*
X537Y2144D01*
X364Y1726D01*
X363Y1275D01*
X536Y857D01*
X855Y537D01*
X1273Y364D01*
X1724Y363D01*
X2142Y536D01*
X2462Y855D01*
X2635Y1273D01*
X2636Y1724D01*
X2636Y325D01*
X325Y325D01*
X325Y33500D01*
X325Y33675D01*
X39175Y33675D01*
X39175Y33500D01*
X39175Y23133D01*
X39145Y23177D01*
X39136Y23187D01*
X39136Y32724D01*
X38963Y33142D01*
X38644Y33462D01*
X38226Y33635D01*
X37775Y33636D01*
X37357Y33463D01*
X37037Y33144D01*
X36864Y32726D01*
X36863Y32275D01*
X37036Y31857D01*
X37355Y31537D01*
X37773Y31364D01*
X38224Y31363D01*
X38642Y31536D01*
X38962Y31855D01*
X39135Y32273D01*
X39136Y32724D01*
X39136Y23187D01*
X38446Y23876D01*
X38446Y24210D01*
X38408Y24302D01*
X38338Y24373D01*
X38246Y24411D01*
X38147Y24411D01*
X37202Y24411D01*
X37110Y24373D01*
X37040Y24303D01*
X37002Y24211D01*
X37001Y24111D01*
X37001Y23167D01*
X37039Y23075D01*
X37110Y23004D01*
X37202Y22966D01*
X37301Y22966D01*
X37418Y22966D01*
X37315Y22923D01*
X37112Y22720D01*
X37002Y22455D01*
X37001Y22167D01*
X37111Y21902D01*
X37314Y21698D01*
X37580Y21588D01*
X37747Y21588D01*
X37269Y21110D01*
X37129Y20901D01*
X37080Y20655D01*
X37080Y20343D01*
X37040Y20303D01*
X37002Y20211D01*
X37001Y20111D01*
X37001Y19167D01*
X37039Y19075D01*
X37110Y19004D01*
X37202Y18966D01*
X37301Y18966D01*
X37418Y18966D01*
X37315Y18923D01*
X37112Y18720D01*
X37002Y18455D01*
X37001Y18167D01*
X37111Y17902D01*
X37314Y17698D01*
X37580Y17588D01*
X37747Y17588D01*
X37269Y17110D01*
X37129Y16901D01*
X37080Y16655D01*
X37080Y16343D01*
X37040Y16303D01*
X37002Y16211D01*
X37001Y16111D01*
X37001Y15167D01*
X37039Y15075D01*
X37110Y15004D01*
X37202Y14966D01*
X37301Y14966D01*
X37418Y14966D01*
X37315Y14923D01*
X37112Y14720D01*
X37002Y14455D01*
X37001Y14167D01*
X37111Y13902D01*
X37314Y13698D01*
X37580Y13588D01*
X37747Y13588D01*
X37269Y13110D01*
X37129Y12901D01*
X37080Y12655D01*
X37080Y12343D01*
X37040Y12303D01*
X37002Y12211D01*
X37001Y12111D01*
X37001Y11167D01*
X37039Y11075D01*
X37110Y11004D01*
X37202Y10966D01*
X37301Y10966D01*
X37418Y10966D01*
X37389Y10954D01*
X33104Y10954D01*
X33104Y12906D01*
X33104Y16906D01*
X33104Y20906D01*
X33094Y21144D01*
X33050Y21251D01*
X33050Y32108D01*
X32966Y32311D01*
X32811Y32465D01*
X32609Y32549D01*
X32391Y32550D01*
X32369Y32541D01*
X32264Y32645D01*
X32170Y32708D01*
X32059Y32730D01*
X29940Y32730D01*
X29940Y32730D01*
X29829Y32708D01*
X29735Y32645D01*
X29735Y32645D01*
X29631Y32541D01*
X29609Y32549D01*
X29391Y32550D01*
X29369Y32541D01*
X29264Y32645D01*
X29170Y32708D01*
X29059Y32730D01*
X26940Y32730D01*
X26940Y32730D01*
X26829Y32708D01*
X26735Y32645D01*
X26735Y32645D01*
X26631Y32541D01*
X26609Y32549D01*
X26391Y32550D01*
X26188Y32466D01*
X26050Y32327D01*
X26050Y32349D01*
X26012Y32441D01*
X25941Y32511D01*
X25849Y32549D01*
X25750Y32550D01*
X25150Y32550D01*
X25058Y32512D01*
X24988Y32441D01*
X24950Y32349D01*
X24949Y32250D01*
X24949Y31650D01*
X24987Y31558D01*
X25058Y31488D01*
X25150Y31450D01*
X25249Y31449D01*
X25849Y31449D01*
X25941Y31487D01*
X26011Y31558D01*
X26049Y31650D01*
X26049Y31672D01*
X26188Y31534D01*
X26390Y31450D01*
X26608Y31449D01*
X26811Y31533D01*
X26965Y31688D01*
X27049Y31890D01*
X27050Y32108D01*
X27041Y32130D01*
X27060Y32150D01*
X27949Y32150D01*
X27949Y31650D01*
X27987Y31558D01*
X28058Y31488D01*
X28150Y31450D01*
X28249Y31449D01*
X28849Y31449D01*
X28941Y31487D01*
X29011Y31558D01*
X29049Y31650D01*
X29049Y31672D01*
X29188Y31534D01*
X29390Y31450D01*
X29608Y31449D01*
X29811Y31533D01*
X29965Y31688D01*
X30049Y31890D01*
X30050Y32108D01*
X30041Y32130D01*
X30060Y32150D01*
X30949Y32150D01*
X30949Y31650D01*
X30987Y31558D01*
X31058Y31488D01*
X31150Y31450D01*
X31249Y31449D01*
X31849Y31449D01*
X31941Y31487D01*
X32011Y31558D01*
X32049Y31650D01*
X32049Y31672D01*
X32188Y31534D01*
X32390Y31450D01*
X32608Y31449D01*
X32811Y31533D01*
X32965Y31688D01*
X33049Y31890D01*
X33050Y32108D01*
X33050Y21251D01*
X33022Y21317D01*
X32922Y21351D01*
X32851Y21280D01*
X32851Y21422D01*
X32817Y21522D01*
X32593Y21604D01*
X32355Y21594D01*
X32182Y21522D01*
X32148Y21422D01*
X32500Y21070D01*
X32851Y21422D01*
X32851Y21280D01*
X32570Y21000D01*
X32922Y20648D01*
X33022Y20682D01*
X33104Y20906D01*
X33104Y16906D01*
X33094Y17144D01*
X33022Y17317D01*
X32922Y17351D01*
X32851Y17280D01*
X32851Y17422D01*
X32851Y20577D01*
X32500Y20929D01*
X32429Y20858D01*
X32429Y21000D01*
X32077Y21351D01*
X32012Y21329D01*
X32008Y21339D01*
X31840Y21508D01*
X31619Y21599D01*
X31381Y21600D01*
X31160Y21508D01*
X31085Y21434D01*
X31062Y21491D01*
X30991Y21561D01*
X30899Y21599D01*
X30800Y21600D01*
X30100Y21600D01*
X30008Y21562D01*
X29938Y21491D01*
X29900Y21399D01*
X29899Y21300D01*
X29899Y20600D01*
X29937Y20508D01*
X30008Y20438D01*
X30100Y20400D01*
X30199Y20399D01*
X30899Y20399D01*
X30991Y20437D01*
X31061Y20508D01*
X31085Y20565D01*
X31159Y20491D01*
X31380Y20400D01*
X31618Y20399D01*
X31839Y20491D01*
X32008Y20659D01*
X32012Y20670D01*
X32077Y20648D01*
X32429Y21000D01*
X32429Y20858D01*
X32148Y20577D01*
X32182Y20477D01*
X32406Y20395D01*
X32644Y20405D01*
X32817Y20477D01*
X32851Y20577D01*
X32851Y17422D01*
X32817Y17522D01*
X32593Y17604D01*
X32355Y17594D01*
X32182Y17522D01*
X32148Y17422D01*
X32500Y17070D01*
X32851Y17422D01*
X32851Y17280D01*
X32570Y17000D01*
X32922Y16648D01*
X33022Y16682D01*
X33104Y16906D01*
X33104Y12906D01*
X33094Y13144D01*
X33022Y13317D01*
X32922Y13351D01*
X32851Y13280D01*
X32851Y13422D01*
X32851Y16577D01*
X32500Y16929D01*
X32429Y16858D01*
X32429Y17000D01*
X32077Y17351D01*
X32012Y17329D01*
X32008Y17339D01*
X31840Y17508D01*
X31619Y17599D01*
X31381Y17600D01*
X31160Y17508D01*
X31085Y17434D01*
X31062Y17491D01*
X30991Y17561D01*
X30899Y17599D01*
X30800Y17600D01*
X30100Y17600D01*
X30008Y17562D01*
X29938Y17491D01*
X29900Y17399D01*
X29899Y17300D01*
X29899Y16600D01*
X29937Y16508D01*
X30008Y16438D01*
X30100Y16400D01*
X30199Y16399D01*
X30899Y16399D01*
X30991Y16437D01*
X31061Y16508D01*
X31085Y16565D01*
X31159Y16491D01*
X31380Y16400D01*
X31618Y16399D01*
X31839Y16491D01*
X32008Y16659D01*
X32012Y16670D01*
X32077Y16648D01*
X32429Y17000D01*
X32429Y16858D01*
X32148Y16577D01*
X32182Y16477D01*
X32406Y16395D01*
X32644Y16405D01*
X32817Y16477D01*
X32851Y16577D01*
X32851Y13422D01*
X32817Y13522D01*
X32593Y13604D01*
X32355Y13594D01*
X32182Y13522D01*
X32148Y13422D01*
X32500Y13070D01*
X32851Y13422D01*
X32851Y13280D01*
X32570Y13000D01*
X32922Y12648D01*
X33022Y12682D01*
X33104Y12906D01*
X33104Y10954D01*
X32851Y10954D01*
X32851Y12577D01*
X32500Y12929D01*
X32429Y12858D01*
X32429Y13000D01*
X32077Y13351D01*
X32012Y13329D01*
X32008Y13339D01*
X31840Y13508D01*
X31619Y13599D01*
X31381Y13600D01*
X31160Y13508D01*
X31085Y13434D01*
X31062Y13491D01*
X30991Y13561D01*
X30899Y13599D01*
X30800Y13600D01*
X30100Y13600D01*
X30008Y13562D01*
X29938Y13491D01*
X29900Y13399D01*
X29899Y13300D01*
X29899Y12600D01*
X29937Y12508D01*
X30008Y12438D01*
X30100Y12400D01*
X30199Y12399D01*
X30899Y12399D01*
X30991Y12437D01*
X31061Y12508D01*
X31085Y12565D01*
X31159Y12491D01*
X31380Y12400D01*
X31618Y12399D01*
X31839Y12491D01*
X32008Y12659D01*
X32012Y12670D01*
X32077Y12648D01*
X32429Y13000D01*
X32429Y12858D01*
X32148Y12577D01*
X32182Y12477D01*
X32406Y12395D01*
X32644Y12405D01*
X32817Y12477D01*
X32851Y12577D01*
X32851Y10954D01*
X32556Y10954D01*
X32351Y10913D01*
X32310Y10905D01*
X32101Y10766D01*
X31044Y9709D01*
X30956Y9576D01*
X30899Y9599D01*
X30800Y9600D01*
X30100Y9600D01*
X30008Y9562D01*
X29938Y9491D01*
X29900Y9399D01*
X29899Y9300D01*
X29899Y8600D01*
X29937Y8508D01*
X30008Y8438D01*
X30100Y8400D01*
X30199Y8399D01*
X30899Y8399D01*
X30991Y8437D01*
X31061Y8508D01*
X31070Y8528D01*
X31253Y8405D01*
X31500Y8356D01*
X31746Y8405D01*
X31955Y8544D01*
X32034Y8663D01*
X32077Y8648D01*
X32429Y9000D01*
X32423Y9005D01*
X32494Y9076D01*
X32500Y9070D01*
X32851Y9422D01*
X32817Y9522D01*
X32715Y9560D01*
X32823Y9667D01*
X37390Y9667D01*
X37580Y9588D01*
X37867Y9588D01*
X38133Y9698D01*
X38336Y9901D01*
X38446Y10166D01*
X38446Y10454D01*
X38337Y10719D01*
X38134Y10923D01*
X38029Y10966D01*
X38246Y10966D01*
X38338Y11004D01*
X38408Y11074D01*
X38446Y11166D01*
X38446Y11266D01*
X38446Y12210D01*
X38408Y12302D01*
X38367Y12343D01*
X38367Y12388D01*
X39146Y13166D01*
X39146Y13166D01*
X39146Y13166D01*
X39175Y13209D01*
X39175Y325D01*
M02*
