M48
INCH,TZ
T1C0.025
T2C0.032
T3C0.039
T4C0.040
T5C0.047
T6C0.050
T7C0.055
T8C0.122
T9C0.149
%
G90
G05
T1
X0.4591Y2.6585
X0.485Y2.25
X0.513Y2.1362
X0.5528Y2.2114
X0.56Y1.95
X0.575Y0.625
X0.5924Y1.6547
X0.715Y2.04
X0.725Y2.195
X0.7385Y2.4477
X0.755Y1.975
X0.7813Y1.6859
X0.9001Y2.2681
X0.9695Y2.1951
X0.9726Y2.2514
X0.9983Y1.8968
X0.9998Y2.4761
X1.0273Y1.9708
X1.0564Y1.9162
X1.09Y2.66
X1.114Y1.8023
X1.1625Y1.7282
X1.1663Y1.2604
X1.1773Y2.374
X1.2091Y2.1955
X1.2232Y2.6661
X1.2391Y2.2651
X1.3Y1.25
X1.3261Y1.6299
X1.3261Y1.8685
X1.3422Y1.9316
X1.3516Y2.2061
X1.3592Y2.1616
X1.36Y0.625
X1.385Y2.605
X1.425Y1.15
X1.4453Y2.262
X1.4888Y1.9945
X1.4999Y1.4001
X1.505Y2.5129
X1.5681Y2.1182
X1.65Y1.41
X1.8493Y1.7689
X1.9443Y1.966
X1.9457Y1.4081
X1.9499Y2.3501
X1.9537Y2.5398
X1.9637Y1.6021
X1.975Y1.2889
X2.0172Y1.975
X2.0272Y1.7614
X2.0418Y2.175
X2.0523Y1.5824
X2.115Y2.57
X2.2Y3.4
X2.215Y2.57
X2.24Y0.625
X2.37Y2.57
X2.425Y1.3926
X2.5Y0.55
X2.5192Y1.924
X2.6336Y2.3882
X2.6467Y2.2207
X2.6485Y1.6967
X2.6873Y1.9105
X2.695Y3.06
X2.7172Y1.9806
X2.7337Y2.1717
X2.814Y1.2028
X2.985Y1.7693
X2.985Y1.4191
X2.985Y1.0691
X3.0174Y2.4425
X3.0601Y2.1015
X3.2125Y2.5325
X3.2353Y0.74
X3.2387Y2.9125
X3.3065Y2.8877
T2
X0.45Y3.5
X0.45Y3.
X0.45Y0.95
X0.45Y0.45
X0.55Y3.5
X0.55Y3.
X0.55Y0.95
X0.55Y0.45
X0.65Y3.5
X0.65Y3.
X0.65Y0.95
X0.65Y0.45
X0.75Y3.5
X0.75Y3.
X0.75Y0.95
X0.75Y0.45
X0.85Y3.5
X0.85Y3.
X0.85Y0.95
X0.85Y0.45
X0.95Y3.5
X0.95Y3.
X0.95Y0.95
X0.95Y0.45
X1.05Y3.5
X1.05Y3.
X1.05Y0.95
X1.05Y0.45
X1.15Y3.5
X1.15Y3.
X1.15Y0.95
X1.15Y0.45
X1.25Y3.5
X1.25Y3.
X1.25Y0.95
X1.25Y0.45
X1.35Y3.5
X1.35Y3.
X1.35Y0.95
X1.35Y0.45
X1.45Y3.5
X1.45Y3.
X1.45Y0.95
X1.45Y0.45
X1.55Y3.5
X1.55Y3.
X1.55Y0.95
X1.55Y0.45
X1.65Y3.5
X1.65Y3.
X1.65Y0.95
X1.65Y0.45
X1.75Y3.5
X1.75Y3.
X1.75Y0.95
X1.75Y0.45
X1.85Y3.5
X1.85Y3.
X1.85Y0.95
X1.85Y0.45
X1.95Y3.5
X1.95Y3.
X1.95Y0.95
X1.95Y0.45
X2.05Y3.5
X2.05Y3.
X2.05Y0.95
X2.05Y0.45
X2.15Y3.5
X2.15Y3.
X2.15Y0.95
X2.15Y0.45
X2.25Y3.5
X2.25Y3.
X2.25Y0.95
X2.25Y0.45
X2.35Y3.5
X2.35Y3.
X2.35Y0.95
X2.35Y0.45
X2.45Y3.5
X2.45Y3.
X2.45Y0.95
X2.45Y0.45
X2.55Y3.5
X2.55Y3.
X2.55Y0.95
X2.55Y0.45
X2.65Y3.5
X2.65Y3.
X2.65Y0.95
X2.65Y0.45
X2.75Y3.5
X2.75Y3.
X2.75Y0.95
X2.75Y0.45
T3
X0.25Y3.
X0.25Y2.9
X0.25Y2.8
X0.25Y2.7
X0.65Y1.4
X0.65Y1.3
X0.65Y1.2
X0.95Y2.8
X0.95Y2.7
X0.95Y2.6
X1.75Y2.775
X1.75Y2.675
X1.85Y2.775
X1.85Y2.675
X2.725Y2.775
X2.725Y2.675
X2.725Y2.575
X2.725Y2.475
X2.725Y2.375
X2.725Y2.275
X2.825Y2.775
X2.825Y2.675
X2.825Y2.575
X2.825Y2.475
X2.825Y2.375
X2.825Y2.275
T4
X0.25Y2.35
X0.25Y2.25
X0.25Y2.15
X0.25Y2.05
X0.25Y1.95
X0.25Y1.85
X0.35Y2.35
X0.35Y2.25
X0.35Y2.15
X0.35Y2.05
X0.35Y1.95
X0.35Y1.85
X0.55Y2.85
X0.55Y2.75
X0.65Y3.75
X0.65Y2.85
X0.65Y2.75
X0.65Y2.55
X0.65Y2.45
X0.65Y2.35
X0.65Y0.2
X0.75Y3.75
X0.75Y2.85
X0.75Y2.75
X0.75Y0.2
X0.85Y3.75
X0.85Y1.2
X0.85Y1.1
X0.85Y0.2
X0.95Y3.75
X0.95Y1.2
X0.95Y1.1
X0.95Y0.2
X1.05Y1.2
X1.05Y1.1
X1.35Y2.85
X1.35Y2.75
X1.45Y3.75
X1.45Y2.85
X1.45Y2.75
X1.45Y0.2
X1.55Y3.75
X1.55Y2.85
X1.55Y2.75
X1.55Y0.2
X1.65Y3.75
X1.65Y1.2
X1.65Y1.1
X1.65Y0.2
X1.75Y3.75
X1.75Y1.2
X1.75Y1.1
X1.75Y0.2
X1.85Y1.2
X1.85Y1.1
X2.15Y2.85
X2.15Y2.75
X2.2Y3.75
X2.25Y2.85
X2.25Y2.75
X2.25Y0.2
X2.3Y3.75
X2.35Y2.85
X2.35Y2.75
X2.35Y0.2
X2.4Y3.75
X2.45Y1.2
X2.45Y1.1
X2.45Y0.2
X2.5Y3.75
X2.55Y1.2
X2.55Y1.1
X2.55Y0.2
X2.65Y1.2
X2.65Y1.1
X2.7Y3.75
X2.8Y3.75
X2.95Y3.75
X3.05Y3.75
X3.15Y2.675
X3.15Y2.325
X3.15Y1.975
X3.15Y1.625
X3.15Y1.275
X3.15Y0.9
X3.15Y0.575
X3.2Y3.75
X3.25Y2.675
X3.25Y2.325
X3.25Y1.975
X3.25Y1.625
X3.25Y1.275
X3.25Y0.9
X3.25Y0.575
X3.3Y3.75
X3.35Y2.675
X3.35Y2.325
X3.35Y1.975
X3.35Y1.625
X3.35Y1.275
X3.35Y0.9
X3.35Y0.575
X3.45Y3.75
X3.55Y3.75
X3.75Y3.525
X3.75Y3.425
X3.75Y3.275
X3.75Y3.175
T5
X3.7724Y2.9189
X3.7724Y2.7811
X3.7724Y2.5689
X3.7724Y2.4311
X3.7724Y2.2189
X3.7724Y2.0811
X3.7724Y1.8689
X3.7724Y1.7311
X3.7724Y1.5189
X3.7724Y1.3811
X3.7724Y1.1689
X3.7724Y1.0311
T6
X0.132Y1.075
X0.268Y1.375
X3.15Y0.243
X3.45Y0.107
T7
X0.2Y0.7
X0.2Y0.5
X3.7Y0.7
X3.7Y0.5
T8
X0.15Y3.8
X0.15Y0.15
X3.8Y3.8
X3.8Y0.15
T9
X0.2Y1.225
X3.3Y0.175
T0
M30
