M48
INCH,TZ
T1C0.025
T2C0.032
T3C0.039
T4C0.040
T5C0.047
T6C0.050
T7C0.055
T8C0.122
T9C0.149
%
G90
G05
T1
X9423Y19697
X9723Y16503
X10038Y17117
X10250Y15492
X23314Y16401
X24500Y18890
X24822Y16306
T2
X4500Y30000
X4500Y25000
X4500Y9000
X4500Y4000
X5500Y30000
X5500Y25000
X5500Y9000
X5500Y4000
X6500Y30000
X6500Y25000
X6500Y9000
X6500Y4000
X7500Y30000
X7500Y25000
X7500Y9000
X7500Y4000
X8500Y30000
X8500Y25000
X8500Y9000
X8500Y4000
X9500Y30000
X9500Y25000
X9500Y9000
X9500Y4000
X10500Y30000
X10500Y25000
X10500Y9000
X10500Y4000
X11500Y30000
X11500Y25000
X11500Y9000
X11500Y4000
X12500Y30000
X12500Y25000
X12500Y9000
X12500Y4000
X13500Y30000
X13500Y25000
X13500Y9000
X13500Y4000
X14500Y30000
X14500Y25000
X14500Y9000
X14500Y4000
X15500Y30000
X15500Y25000
X15500Y9000
X15500Y4000
X16500Y30000
X16500Y25000
X16500Y9000
X16500Y4000
X17500Y30000
X17500Y25000
X17500Y9000
X17500Y4000
X18500Y30000
X18500Y25000
X18500Y9000
X18500Y4000
X19500Y30000
X19500Y25000
X19500Y9000
X19500Y4000
T3
X1500Y28000
X1500Y27000
X1500Y26000
X1500Y25000
T4
X1500Y21500
X1500Y20500
X1500Y19500
X1500Y18500
X2500Y21500
X2500Y20500
X2500Y19500
X2500Y18500
X5500Y23500
X5500Y22500
X6500Y32000
X6500Y23500
X6500Y22500
X6500Y2000
X7500Y32000
X7500Y23500
X7500Y22500
X7500Y2000
X8500Y32000
X8500Y11500
X8500Y10500
X8500Y2000
X9500Y32000
X9500Y11500
X9500Y10500
X9500Y2000
X10500Y11500
X10500Y10500
X13500Y23500
X13500Y22500
X14500Y32000
X14500Y23500
X14500Y22500
X14500Y2000
X15500Y32000
X15500Y23500
X15500Y22500
X15500Y2000
X16500Y32000
X16500Y11500
X16500Y10500
X16500Y2000
X17500Y32000
X17500Y11500
X17500Y10500
X17500Y2000
X18500Y11500
X18500Y10500
X22500Y32000
X22500Y22000
X22500Y20500
X23500Y32000
X23500Y22000
X23500Y20500
X24500Y22000
X24500Y20500
X25500Y32000
X26500Y32000
X28500Y32000
X29500Y32000
X30500Y21000
X30500Y17000
X30500Y13000
X30500Y9000
X30500Y5750
X31500Y32000
X31500Y21000
X31500Y17000
X31500Y13000
X31500Y9000
X31500Y5750
X32500Y32000
X32500Y21000
X32500Y17000
X32500Y13000
X32500Y9000
X32500Y5750
T5
X37724Y23689
X37724Y22311
X37724Y19689
X37724Y18311
X37724Y15689
X37724Y14311
X37724Y11689
X37724Y10311
T6
X1320Y10750
X2680Y13750
X30000Y3180
X33000Y1820
T7
X2000Y7000
X2000Y5000
X37000Y7000
X37000Y5000
T8
X1500Y32500
X1500Y1500
X38000Y32500
X38000Y1500
T9
X2000Y12250
X31500Y2500
T0
M30
