G04 (created by PCBNEW-RS274X (2012-01-19 BZR 3256)-stable) date 03/01/2013 14:51:54*
G01*
G70*
G90*
%MOIN*%
G04 Gerber Fmt 3.4, Leading zero omitted, Abs format*
%FSLAX34Y34*%
G04 APERTURE LIST*
%ADD10C,0.006000*%
%ADD11R,0.055000X0.055000*%
%ADD12C,0.055000*%
%ADD13R,0.057100X0.059100*%
%ADD14C,0.059100*%
%ADD15C,0.025000*%
%ADD16C,0.019000*%
%ADD17C,0.010000*%
G04 APERTURE END LIST*
G54D10*
G54D11*
X00500Y05500D03*
G54D12*
X01500Y05500D03*
X02500Y05500D03*
X03500Y05500D03*
X04500Y05500D03*
X05500Y05500D03*
X06500Y05500D03*
X07500Y05500D03*
G54D11*
X00500Y00500D03*
G54D12*
X01500Y00500D03*
X02500Y00500D03*
X03500Y00500D03*
X04500Y00500D03*
X05500Y00500D03*
X06500Y00500D03*
X07500Y00500D03*
G54D13*
X04571Y02404D03*
X04000Y02404D03*
X03429Y02404D03*
X03429Y02995D03*
X04000Y02995D03*
X04571Y02995D03*
G54D14*
X05975Y02800D03*
G54D15*
X07640Y01940D03*
X05470Y01090D03*
X04680Y04330D03*
X01910Y04330D03*
X03330Y04330D03*
X05800Y04330D03*
X07070Y03520D03*
X05800Y04800D03*
G54D10*
X07640Y01940D02*
X07500Y01800D01*
X07500Y00500D02*
X07500Y01800D01*
X06050Y00950D02*
X06500Y00500D01*
X05610Y00950D02*
X06050Y00950D01*
X05470Y01090D02*
X05610Y00950D01*
G54D16*
X01080Y04330D02*
X00570Y04330D01*
X04680Y04330D02*
X05800Y04330D01*
X03330Y04330D02*
X03330Y04330D01*
X02130Y04330D02*
X01910Y04330D01*
X00570Y04330D02*
X00500Y04400D01*
X01910Y04330D02*
X01080Y04330D01*
X03330Y04330D02*
X02130Y04330D01*
X01910Y04330D02*
X01910Y04330D01*
X00500Y04400D02*
X00500Y05500D01*
X03330Y04330D02*
X04670Y04330D01*
X00500Y05250D02*
X00500Y05500D01*
X04670Y04330D02*
X04680Y04330D01*
G54D10*
G36*
X07740Y02305D02*
X07715Y02315D01*
X07566Y02315D01*
X07428Y02258D01*
X07323Y02153D01*
X07265Y02015D01*
X07265Y01943D01*
X07241Y01907D01*
X07220Y01800D01*
X07220Y00953D01*
X07203Y00945D01*
X07055Y00798D01*
X06999Y00665D01*
X06945Y00797D01*
X06798Y00945D01*
X06605Y01025D01*
X06519Y01025D01*
X06519Y02692D01*
X06519Y02908D01*
X06436Y03108D01*
X06283Y03261D01*
X06083Y03344D01*
X05867Y03344D01*
X05667Y03261D01*
X05514Y03108D01*
X05431Y02908D01*
X05431Y02692D01*
X05514Y02492D01*
X05667Y02339D01*
X05867Y02256D01*
X06083Y02256D01*
X06283Y02339D01*
X06436Y02492D01*
X06519Y02692D01*
X06519Y01025D01*
X06396Y01025D01*
X06378Y01018D01*
X06248Y01148D01*
X06157Y01209D01*
X06050Y01230D01*
X05817Y01230D01*
X05788Y01302D01*
X05683Y01407D01*
X05545Y01465D01*
X05396Y01465D01*
X05258Y01408D01*
X05153Y01303D01*
X05095Y01165D01*
X05095Y01016D01*
X05147Y00890D01*
X05055Y00798D01*
X04999Y00665D01*
X04945Y00797D01*
X04798Y00945D01*
X04605Y01025D01*
X04396Y01025D01*
X04203Y00945D01*
X04055Y00798D01*
X03999Y00665D01*
X03945Y00797D01*
X03798Y00945D01*
X03605Y01025D01*
X03396Y01025D01*
X03203Y00945D01*
X03055Y00798D01*
X02999Y00665D01*
X02945Y00797D01*
X02798Y00945D01*
X02605Y01025D01*
X02396Y01025D01*
X02203Y00945D01*
X02055Y00798D01*
X01999Y00665D01*
X01945Y00797D01*
X01798Y00945D01*
X01605Y01025D01*
X01396Y01025D01*
X01203Y00945D01*
X01055Y00798D01*
X01024Y00724D01*
X01024Y00824D01*
X00986Y00916D01*
X00916Y00986D01*
X00825Y01024D01*
X00726Y01024D01*
X00260Y01024D01*
X00260Y04152D01*
X00325Y04087D01*
X00326Y04086D01*
X00437Y04012D01*
X00438Y04011D01*
X00569Y03986D01*
X00570Y03985D01*
X01080Y03985D01*
X01763Y03985D01*
X01835Y03955D01*
X01984Y03955D01*
X02056Y03985D01*
X02130Y03985D01*
X03183Y03985D01*
X03255Y03955D01*
X03404Y03955D01*
X03476Y03985D01*
X04533Y03985D01*
X04605Y03955D01*
X04754Y03955D01*
X04826Y03985D01*
X05653Y03985D01*
X05725Y03955D01*
X05874Y03955D01*
X06012Y04012D01*
X06117Y04117D01*
X06151Y04200D01*
X07050Y04200D01*
X07050Y05740D01*
X07740Y05740D01*
X07740Y02305D01*
X07740Y02305D01*
G37*
G54D17*
X07740Y02305D02*
X07715Y02315D01*
X07566Y02315D01*
X07428Y02258D01*
X07323Y02153D01*
X07265Y02015D01*
X07265Y01943D01*
X07241Y01907D01*
X07220Y01800D01*
X07220Y00953D01*
X07203Y00945D01*
X07055Y00798D01*
X06999Y00665D01*
X06945Y00797D01*
X06798Y00945D01*
X06605Y01025D01*
X06519Y01025D01*
X06519Y02692D01*
X06519Y02908D01*
X06436Y03108D01*
X06283Y03261D01*
X06083Y03344D01*
X05867Y03344D01*
X05667Y03261D01*
X05514Y03108D01*
X05431Y02908D01*
X05431Y02692D01*
X05514Y02492D01*
X05667Y02339D01*
X05867Y02256D01*
X06083Y02256D01*
X06283Y02339D01*
X06436Y02492D01*
X06519Y02692D01*
X06519Y01025D01*
X06396Y01025D01*
X06378Y01018D01*
X06248Y01148D01*
X06157Y01209D01*
X06050Y01230D01*
X05817Y01230D01*
X05788Y01302D01*
X05683Y01407D01*
X05545Y01465D01*
X05396Y01465D01*
X05258Y01408D01*
X05153Y01303D01*
X05095Y01165D01*
X05095Y01016D01*
X05147Y00890D01*
X05055Y00798D01*
X04999Y00665D01*
X04945Y00797D01*
X04798Y00945D01*
X04605Y01025D01*
X04396Y01025D01*
X04203Y00945D01*
X04055Y00798D01*
X03999Y00665D01*
X03945Y00797D01*
X03798Y00945D01*
X03605Y01025D01*
X03396Y01025D01*
X03203Y00945D01*
X03055Y00798D01*
X02999Y00665D01*
X02945Y00797D01*
X02798Y00945D01*
X02605Y01025D01*
X02396Y01025D01*
X02203Y00945D01*
X02055Y00798D01*
X01999Y00665D01*
X01945Y00797D01*
X01798Y00945D01*
X01605Y01025D01*
X01396Y01025D01*
X01203Y00945D01*
X01055Y00798D01*
X01024Y00724D01*
X01024Y00824D01*
X00986Y00916D01*
X00916Y00986D01*
X00825Y01024D01*
X00726Y01024D01*
X00260Y01024D01*
X00260Y04152D01*
X00325Y04087D01*
X00326Y04086D01*
X00437Y04012D01*
X00438Y04011D01*
X00569Y03986D01*
X00570Y03985D01*
X01080Y03985D01*
X01763Y03985D01*
X01835Y03955D01*
X01984Y03955D01*
X02056Y03985D01*
X02130Y03985D01*
X03183Y03985D01*
X03255Y03955D01*
X03404Y03955D01*
X03476Y03985D01*
X04533Y03985D01*
X04605Y03955D01*
X04754Y03955D01*
X04826Y03985D01*
X05653Y03985D01*
X05725Y03955D01*
X05874Y03955D01*
X06012Y04012D01*
X06117Y04117D01*
X06151Y04200D01*
X07050Y04200D01*
X07050Y05740D01*
X07740Y05740D01*
X07740Y02305D01*
G54D10*
G36*
X06950Y04300D02*
X06175Y04300D01*
X06175Y04404D01*
X06118Y04542D01*
X06013Y04647D01*
X05875Y04705D01*
X05726Y04705D01*
X05653Y04675D01*
X04826Y04675D01*
X04755Y04705D01*
X04606Y04705D01*
X04533Y04675D01*
X03476Y04675D01*
X03405Y04705D01*
X03256Y04705D01*
X03183Y04675D01*
X02130Y04675D01*
X02056Y04675D01*
X01985Y04705D01*
X01836Y04705D01*
X01763Y04675D01*
X01080Y04675D01*
X00845Y04675D01*
X00845Y04985D01*
X00916Y05014D01*
X00986Y05084D01*
X01024Y05175D01*
X01024Y05274D01*
X01024Y05740D01*
X02030Y05740D01*
X01975Y05605D01*
X01975Y05396D01*
X02055Y05203D01*
X02202Y05055D01*
X02395Y04975D01*
X02604Y04975D01*
X02797Y05055D01*
X02945Y05202D01*
X03000Y05336D01*
X03055Y05203D01*
X03202Y05055D01*
X03395Y04975D01*
X03604Y04975D01*
X03797Y05055D01*
X03945Y05202D01*
X04000Y05336D01*
X04055Y05203D01*
X04202Y05055D01*
X04395Y04975D01*
X04604Y04975D01*
X04797Y05055D01*
X04945Y05202D01*
X05000Y05336D01*
X05055Y05203D01*
X05202Y05055D01*
X05395Y04975D01*
X05604Y04975D01*
X05797Y05055D01*
X05945Y05202D01*
X06000Y05336D01*
X06055Y05203D01*
X06202Y05055D01*
X06395Y04975D01*
X06604Y04975D01*
X06797Y05055D01*
X06945Y05202D01*
X06950Y05215D01*
X06950Y04300D01*
X06950Y04300D01*
G37*
G54D17*
X06950Y04300D02*
X06175Y04300D01*
X06175Y04404D01*
X06118Y04542D01*
X06013Y04647D01*
X05875Y04705D01*
X05726Y04705D01*
X05653Y04675D01*
X04826Y04675D01*
X04755Y04705D01*
X04606Y04705D01*
X04533Y04675D01*
X03476Y04675D01*
X03405Y04705D01*
X03256Y04705D01*
X03183Y04675D01*
X02130Y04675D01*
X02056Y04675D01*
X01985Y04705D01*
X01836Y04705D01*
X01763Y04675D01*
X01080Y04675D01*
X00845Y04675D01*
X00845Y04985D01*
X00916Y05014D01*
X00986Y05084D01*
X01024Y05175D01*
X01024Y05274D01*
X01024Y05740D01*
X02030Y05740D01*
X01975Y05605D01*
X01975Y05396D01*
X02055Y05203D01*
X02202Y05055D01*
X02395Y04975D01*
X02604Y04975D01*
X02797Y05055D01*
X02945Y05202D01*
X03000Y05336D01*
X03055Y05203D01*
X03202Y05055D01*
X03395Y04975D01*
X03604Y04975D01*
X03797Y05055D01*
X03945Y05202D01*
X04000Y05336D01*
X04055Y05203D01*
X04202Y05055D01*
X04395Y04975D01*
X04604Y04975D01*
X04797Y05055D01*
X04945Y05202D01*
X05000Y05336D01*
X05055Y05203D01*
X05202Y05055D01*
X05395Y04975D01*
X05604Y04975D01*
X05797Y05055D01*
X05945Y05202D01*
X06000Y05336D01*
X06055Y05203D01*
X06202Y05055D01*
X06395Y04975D01*
X06604Y04975D01*
X06797Y05055D01*
X06945Y05202D01*
X06950Y05215D01*
X06950Y04300D01*
M02*
