G04 (created by PCBNEW-RS274X (2012-01-19 BZR 3256)-stable) date 03/01/2013 14:51:54*
G01*
G70*
G90*
%MOIN*%
G04 Gerber Fmt 3.4, Leading zero omitted, Abs format*
%FSLAX34Y34*%
G04 APERTURE LIST*
%ADD10C,0.006000*%
%ADD11C,0.007900*%
%ADD12C,0.005000*%
%ADD13C,0.012000*%
%ADD14C,0.005900*%
%ADD15C,0.009900*%
%ADD16C,0.003900*%
G04 APERTURE END LIST*
G54D10*
G54D11*
X07000Y03115D02*
X07000Y02682D01*
X07217Y02898D02*
X06783Y02898D01*
X07501Y02879D02*
X07491Y02782D01*
X07463Y02689D01*
X07417Y02602D01*
X07355Y02526D01*
X07280Y02464D01*
X07194Y02418D01*
X07100Y02389D01*
X07003Y02379D01*
X06907Y02387D01*
X06813Y02415D01*
X06726Y02460D01*
X06650Y02522D01*
X06587Y02596D01*
X06540Y02682D01*
X06510Y02775D01*
X06500Y02873D01*
X06508Y02969D01*
X06535Y03063D01*
X06579Y03150D01*
X06640Y03227D01*
X06715Y03290D01*
X06800Y03338D01*
X06893Y03368D01*
X06990Y03379D01*
X07086Y03372D01*
X07181Y03346D01*
X07268Y03302D01*
X07345Y03241D01*
X07409Y03167D01*
X07457Y03082D01*
X07488Y02989D01*
X07500Y02892D01*
X07501Y02879D01*
X07610Y02190D02*
X06390Y02190D01*
X06391Y02190D02*
X06391Y03548D01*
X06391Y03547D02*
X07611Y03547D01*
X07610Y03549D02*
X07610Y02191D01*
G54D12*
X05750Y02300D02*
X05749Y02291D01*
X05746Y02281D01*
X05741Y02273D01*
X05735Y02265D01*
X05727Y02259D01*
X05719Y02254D01*
X05710Y02252D01*
X05700Y02251D01*
X05691Y02251D01*
X05682Y02254D01*
X05673Y02259D01*
X05666Y02265D01*
X05659Y02272D01*
X05655Y02281D01*
X05652Y02290D01*
X05651Y02300D01*
X05651Y02309D01*
X05654Y02318D01*
X05658Y02327D01*
X05665Y02334D01*
X05672Y02341D01*
X05680Y02345D01*
X05690Y02348D01*
X05699Y02349D01*
X05708Y02349D01*
X05718Y02346D01*
X05726Y02342D01*
X05734Y02336D01*
X05740Y02328D01*
X05745Y02320D01*
X05748Y02311D01*
X05749Y02301D01*
X05750Y02300D01*
X05700Y01850D02*
X05700Y02250D01*
X05700Y02250D02*
X06300Y02250D01*
X06300Y02250D02*
X06300Y01850D01*
X06300Y01450D02*
X06300Y01050D01*
X06300Y01050D02*
X05700Y01050D01*
X05700Y01050D02*
X05700Y01450D01*
X03700Y05100D02*
X03699Y05091D01*
X03696Y05081D01*
X03691Y05073D01*
X03685Y05065D01*
X03677Y05059D01*
X03669Y05054D01*
X03660Y05052D01*
X03650Y05051D01*
X03641Y05051D01*
X03632Y05054D01*
X03623Y05059D01*
X03616Y05065D01*
X03609Y05072D01*
X03605Y05081D01*
X03602Y05090D01*
X03601Y05100D01*
X03601Y05109D01*
X03604Y05118D01*
X03608Y05127D01*
X03615Y05134D01*
X03622Y05141D01*
X03630Y05145D01*
X03640Y05148D01*
X03649Y05149D01*
X03658Y05149D01*
X03668Y05146D01*
X03676Y05142D01*
X03684Y05136D01*
X03690Y05128D01*
X03695Y05120D01*
X03698Y05111D01*
X03699Y05101D01*
X03700Y05100D01*
X03200Y05100D02*
X03600Y05100D01*
X03600Y05100D02*
X03600Y04500D01*
X03600Y04500D02*
X03200Y04500D01*
X02800Y04500D02*
X02400Y04500D01*
X02400Y04500D02*
X02400Y05100D01*
X02400Y05100D02*
X02800Y05100D01*
X04400Y04500D02*
X04399Y04491D01*
X04396Y04481D01*
X04391Y04473D01*
X04385Y04465D01*
X04377Y04459D01*
X04369Y04454D01*
X04360Y04452D01*
X04350Y04451D01*
X04341Y04451D01*
X04332Y04454D01*
X04323Y04459D01*
X04316Y04465D01*
X04309Y04472D01*
X04305Y04481D01*
X04302Y04490D01*
X04301Y04500D01*
X04301Y04509D01*
X04304Y04518D01*
X04308Y04527D01*
X04315Y04534D01*
X04322Y04541D01*
X04330Y04545D01*
X04340Y04548D01*
X04349Y04549D01*
X04358Y04549D01*
X04368Y04546D01*
X04376Y04542D01*
X04384Y04536D01*
X04390Y04528D01*
X04395Y04520D01*
X04398Y04511D01*
X04399Y04501D01*
X04400Y04500D01*
X04800Y04500D02*
X04400Y04500D01*
X04400Y04500D02*
X04400Y05100D01*
X04400Y05100D02*
X04800Y05100D01*
X05200Y05100D02*
X05600Y05100D01*
X05600Y05100D02*
X05600Y04500D01*
X05600Y04500D02*
X05200Y04500D01*
X00250Y01000D02*
X00249Y00991D01*
X00246Y00981D01*
X00241Y00973D01*
X00235Y00965D01*
X00227Y00959D01*
X00219Y00954D01*
X00210Y00952D01*
X00200Y00951D01*
X00191Y00951D01*
X00182Y00954D01*
X00173Y00959D01*
X00166Y00965D01*
X00159Y00972D01*
X00155Y00981D01*
X00152Y00990D01*
X00151Y01000D01*
X00151Y01009D01*
X00154Y01018D01*
X00158Y01027D01*
X00165Y01034D01*
X00172Y01041D01*
X00180Y01045D01*
X00190Y01048D01*
X00199Y01049D01*
X00208Y01049D01*
X00218Y01046D01*
X00226Y01042D01*
X00234Y01036D01*
X00240Y01028D01*
X00245Y01020D01*
X00248Y01011D01*
X00249Y01001D01*
X00250Y01000D01*
X00650Y01000D02*
X00250Y01000D01*
X00250Y01000D02*
X00250Y01600D01*
X00250Y01600D02*
X00650Y01600D01*
X01050Y01600D02*
X01450Y01600D01*
X01450Y01600D02*
X01450Y01000D01*
X01450Y01000D02*
X01050Y01000D01*
X00300Y03700D02*
X00299Y03691D01*
X00296Y03681D01*
X00291Y03673D01*
X00285Y03665D01*
X00277Y03659D01*
X00269Y03654D01*
X00260Y03652D01*
X00250Y03651D01*
X00241Y03651D01*
X00232Y03654D01*
X00223Y03659D01*
X00216Y03665D01*
X00209Y03672D01*
X00205Y03681D01*
X00202Y03690D01*
X00201Y03700D01*
X00201Y03709D01*
X00204Y03718D01*
X00208Y03727D01*
X00215Y03734D01*
X00222Y03741D01*
X00230Y03745D01*
X00240Y03748D01*
X00249Y03749D01*
X00258Y03749D01*
X00268Y03746D01*
X00276Y03742D01*
X00284Y03736D01*
X00290Y03728D01*
X00295Y03720D01*
X00298Y03711D01*
X00299Y03701D01*
X00300Y03700D01*
X00250Y03250D02*
X00250Y03650D01*
X00250Y03650D02*
X00850Y03650D01*
X00850Y03650D02*
X00850Y03250D01*
X00850Y02850D02*
X00850Y02450D01*
X00850Y02450D02*
X00250Y02450D01*
X00250Y02450D02*
X00250Y02850D01*
X07950Y01650D02*
X07949Y01641D01*
X07946Y01631D01*
X07941Y01623D01*
X07935Y01615D01*
X07927Y01609D01*
X07919Y01604D01*
X07910Y01602D01*
X07900Y01601D01*
X07891Y01601D01*
X07882Y01604D01*
X07873Y01609D01*
X07866Y01615D01*
X07859Y01622D01*
X07855Y01631D01*
X07852Y01640D01*
X07851Y01650D01*
X07851Y01659D01*
X07854Y01668D01*
X07858Y01677D01*
X07865Y01684D01*
X07872Y01691D01*
X07880Y01695D01*
X07890Y01698D01*
X07899Y01699D01*
X07908Y01699D01*
X07918Y01696D01*
X07926Y01692D01*
X07934Y01686D01*
X07940Y01678D01*
X07945Y01670D01*
X07948Y01661D01*
X07949Y01651D01*
X07950Y01650D01*
X07450Y01650D02*
X07850Y01650D01*
X07850Y01650D02*
X07850Y01050D01*
X07850Y01050D02*
X07450Y01050D01*
X07050Y01050D02*
X06650Y01050D01*
X06650Y01050D02*
X06650Y01650D01*
X06650Y01650D02*
X07050Y01650D01*
X06850Y05100D02*
X06849Y05091D01*
X06846Y05081D01*
X06841Y05073D01*
X06835Y05065D01*
X06827Y05059D01*
X06819Y05054D01*
X06810Y05052D01*
X06800Y05051D01*
X06791Y05051D01*
X06782Y05054D01*
X06773Y05059D01*
X06766Y05065D01*
X06759Y05072D01*
X06755Y05081D01*
X06752Y05090D01*
X06751Y05100D01*
X06751Y05109D01*
X06754Y05118D01*
X06758Y05127D01*
X06765Y05134D01*
X06772Y05141D01*
X06780Y05145D01*
X06790Y05148D01*
X06799Y05149D01*
X06808Y05149D01*
X06818Y05146D01*
X06826Y05142D01*
X06834Y05136D01*
X06840Y05128D01*
X06845Y05120D01*
X06848Y05111D01*
X06849Y05101D01*
X06850Y05100D01*
X06800Y04650D02*
X06800Y05050D01*
X06800Y05050D02*
X07400Y05050D01*
X07400Y05050D02*
X07400Y04650D01*
X07400Y04250D02*
X07400Y03850D01*
X07400Y03850D02*
X06800Y03850D01*
X06800Y03850D02*
X06800Y04250D01*
X01600Y02400D02*
X01599Y02391D01*
X01596Y02381D01*
X01591Y02373D01*
X01585Y02365D01*
X01577Y02359D01*
X01569Y02354D01*
X01560Y02352D01*
X01550Y02351D01*
X01541Y02351D01*
X01532Y02354D01*
X01523Y02359D01*
X01516Y02365D01*
X01509Y02372D01*
X01505Y02381D01*
X01502Y02390D01*
X01501Y02400D01*
X01501Y02409D01*
X01504Y02418D01*
X01508Y02427D01*
X01515Y02434D01*
X01522Y02441D01*
X01530Y02445D01*
X01540Y02448D01*
X01549Y02449D01*
X01558Y02449D01*
X01568Y02446D01*
X01576Y02442D01*
X01584Y02436D01*
X01590Y02428D01*
X01595Y02420D01*
X01598Y02411D01*
X01599Y02401D01*
X01600Y02400D01*
X01550Y02850D02*
X01550Y02450D01*
X01550Y02450D02*
X00950Y02450D01*
X00950Y02450D02*
X00950Y02850D01*
X00950Y03250D02*
X00950Y03650D01*
X00950Y03650D02*
X01550Y03650D01*
X01550Y03650D02*
X01550Y03250D01*
X00300Y03750D02*
X00299Y03741D01*
X00296Y03731D01*
X00291Y03723D01*
X00285Y03715D01*
X00277Y03709D01*
X00269Y03704D01*
X00260Y03702D01*
X00250Y03701D01*
X00241Y03701D01*
X00232Y03704D01*
X00223Y03709D01*
X00216Y03715D01*
X00209Y03722D01*
X00205Y03731D01*
X00202Y03740D01*
X00201Y03750D01*
X00201Y03759D01*
X00204Y03768D01*
X00208Y03777D01*
X00215Y03784D01*
X00222Y03791D01*
X00230Y03795D01*
X00240Y03798D01*
X00249Y03799D01*
X00258Y03799D01*
X00268Y03796D01*
X00276Y03792D01*
X00284Y03786D01*
X00290Y03778D01*
X00295Y03770D01*
X00298Y03761D01*
X00299Y03751D01*
X00300Y03750D01*
X00700Y03750D02*
X00300Y03750D01*
X00300Y03750D02*
X00300Y04350D01*
X00300Y04350D02*
X00700Y04350D01*
X01100Y04350D02*
X01500Y04350D01*
X01500Y04350D02*
X01500Y03750D01*
X01500Y03750D02*
X01100Y03750D01*
X01750Y02300D02*
X01749Y02291D01*
X01746Y02281D01*
X01741Y02273D01*
X01735Y02265D01*
X01727Y02259D01*
X01719Y02254D01*
X01710Y02252D01*
X01700Y02251D01*
X01691Y02251D01*
X01682Y02254D01*
X01673Y02259D01*
X01666Y02265D01*
X01659Y02272D01*
X01655Y02281D01*
X01652Y02290D01*
X01651Y02300D01*
X01651Y02309D01*
X01654Y02318D01*
X01658Y02327D01*
X01665Y02334D01*
X01672Y02341D01*
X01680Y02345D01*
X01690Y02348D01*
X01699Y02349D01*
X01708Y02349D01*
X01718Y02346D01*
X01726Y02342D01*
X01734Y02336D01*
X01740Y02328D01*
X01745Y02320D01*
X01748Y02311D01*
X01749Y02301D01*
X01750Y02300D01*
X01700Y01850D02*
X01700Y02250D01*
X01700Y02250D02*
X02300Y02250D01*
X02300Y02250D02*
X02300Y01850D01*
X02300Y01450D02*
X02300Y01050D01*
X02300Y01050D02*
X01700Y01050D01*
X01700Y01050D02*
X01700Y01450D01*
X06050Y05100D02*
X06049Y05091D01*
X06046Y05081D01*
X06041Y05073D01*
X06035Y05065D01*
X06027Y05059D01*
X06019Y05054D01*
X06010Y05052D01*
X06000Y05051D01*
X05991Y05051D01*
X05982Y05054D01*
X05973Y05059D01*
X05966Y05065D01*
X05959Y05072D01*
X05955Y05081D01*
X05952Y05090D01*
X05951Y05100D01*
X05951Y05109D01*
X05954Y05118D01*
X05958Y05127D01*
X05965Y05134D01*
X05972Y05141D01*
X05980Y05145D01*
X05990Y05148D01*
X05999Y05149D01*
X06008Y05149D01*
X06018Y05146D01*
X06026Y05142D01*
X06034Y05136D01*
X06040Y05128D01*
X06045Y05120D01*
X06048Y05111D01*
X06049Y05101D01*
X06050Y05100D01*
X06000Y04650D02*
X06000Y05050D01*
X06000Y05050D02*
X06600Y05050D01*
X06600Y05050D02*
X06600Y04650D01*
X06600Y04250D02*
X06600Y03850D01*
X06600Y03850D02*
X06000Y03850D01*
X06000Y03850D02*
X06000Y04250D01*
X00300Y04400D02*
X00299Y04391D01*
X00296Y04381D01*
X00291Y04373D01*
X00285Y04365D01*
X00277Y04359D01*
X00269Y04354D01*
X00260Y04352D01*
X00250Y04351D01*
X00241Y04351D01*
X00232Y04354D01*
X00223Y04359D01*
X00216Y04365D01*
X00209Y04372D01*
X00205Y04381D01*
X00202Y04390D01*
X00201Y04400D01*
X00201Y04409D01*
X00204Y04418D01*
X00208Y04427D01*
X00215Y04434D01*
X00222Y04441D01*
X00230Y04445D01*
X00240Y04448D01*
X00249Y04449D01*
X00258Y04449D01*
X00268Y04446D01*
X00276Y04442D01*
X00284Y04436D01*
X00290Y04428D01*
X00295Y04420D01*
X00298Y04411D01*
X00299Y04401D01*
X00300Y04400D01*
X00700Y04400D02*
X00300Y04400D01*
X00300Y04400D02*
X00300Y05000D01*
X00300Y05000D02*
X00700Y05000D01*
X01100Y05000D02*
X01500Y05000D01*
X01500Y05000D02*
X01500Y04400D01*
X01500Y04400D02*
X01100Y04400D01*
X01550Y02300D02*
X01549Y02291D01*
X01546Y02281D01*
X01541Y02273D01*
X01535Y02265D01*
X01527Y02259D01*
X01519Y02254D01*
X01510Y02252D01*
X01500Y02251D01*
X01491Y02251D01*
X01482Y02254D01*
X01473Y02259D01*
X01466Y02265D01*
X01459Y02272D01*
X01455Y02281D01*
X01452Y02290D01*
X01451Y02300D01*
X01451Y02309D01*
X01454Y02318D01*
X01458Y02327D01*
X01465Y02334D01*
X01472Y02341D01*
X01480Y02345D01*
X01490Y02348D01*
X01499Y02349D01*
X01508Y02349D01*
X01518Y02346D01*
X01526Y02342D01*
X01534Y02336D01*
X01540Y02328D01*
X01545Y02320D01*
X01548Y02311D01*
X01549Y02301D01*
X01550Y02300D01*
X01050Y02300D02*
X01450Y02300D01*
X01450Y02300D02*
X01450Y01700D01*
X01450Y01700D02*
X01050Y01700D01*
X00650Y01700D02*
X00250Y01700D01*
X00250Y01700D02*
X00250Y02300D01*
X00250Y02300D02*
X00650Y02300D01*
G54D13*
X00000Y06000D02*
X08000Y06000D01*
X08000Y06000D02*
X08000Y05000D01*
X08000Y05000D02*
X00000Y05000D01*
X00000Y05000D02*
X00000Y06000D01*
X01000Y05000D02*
X01000Y06000D01*
X00000Y01000D02*
X08000Y01000D01*
X08000Y01000D02*
X08000Y00000D01*
X08000Y00000D02*
X00000Y00000D01*
X00000Y00000D02*
X00000Y01000D01*
X01000Y00000D02*
X01000Y01000D01*
G54D12*
X05550Y03600D02*
X02450Y03600D01*
X02450Y03600D02*
X02450Y01800D01*
X02450Y01800D02*
X05550Y01800D01*
X05550Y01800D02*
X05550Y03600D01*
X02861Y02100D02*
X02858Y02079D01*
X02852Y02058D01*
X02842Y02039D01*
X02828Y02022D01*
X02812Y02008D01*
X02793Y01998D01*
X02772Y01992D01*
X02750Y01990D01*
X02730Y01991D01*
X02709Y01998D01*
X02690Y02008D01*
X02673Y02021D01*
X02659Y02038D01*
X02648Y02057D01*
X02642Y02077D01*
X02640Y02099D01*
X02641Y02120D01*
X02647Y02140D01*
X02657Y02160D01*
X02671Y02177D01*
X02687Y02191D01*
X02706Y02201D01*
X02727Y02208D01*
X02748Y02210D01*
X02769Y02209D01*
X02790Y02203D01*
X02809Y02193D01*
X02826Y02180D01*
X02840Y02163D01*
X02851Y02145D01*
X02858Y02124D01*
X02860Y02103D01*
X02861Y02100D01*
G54D14*
X06380Y02800D02*
X06372Y02722D01*
X06349Y02646D01*
X06312Y02576D01*
X06262Y02515D01*
X06201Y02465D01*
X06131Y02427D01*
X06056Y02404D01*
X05977Y02396D01*
X05900Y02403D01*
X05824Y02425D01*
X05754Y02462D01*
X05692Y02511D01*
X05641Y02572D01*
X05603Y02641D01*
X05579Y02716D01*
X05571Y02795D01*
X05577Y02873D01*
X05599Y02949D01*
X05635Y03019D01*
X05684Y03081D01*
X05744Y03132D01*
X05813Y03171D01*
X05889Y03195D01*
X05967Y03204D01*
X06045Y03198D01*
X06121Y03177D01*
X06192Y03141D01*
X06254Y03093D01*
X06305Y03033D01*
X06344Y02964D01*
X06369Y02889D01*
X06379Y02811D01*
X06380Y02800D01*
G54D15*
X06766Y02625D02*
X06635Y02831D01*
X06541Y02625D02*
X06541Y03058D01*
X06691Y03058D01*
X06728Y03038D01*
X06747Y03017D01*
X06766Y02976D01*
X06766Y02914D01*
X06747Y02873D01*
X06728Y02852D01*
X06691Y02831D01*
X06541Y02831D01*
X06879Y03058D02*
X07010Y02625D01*
X07141Y03058D01*
X07479Y02625D02*
X07254Y02625D01*
X07367Y02625D02*
X07367Y03058D01*
X07329Y02996D01*
X07292Y02955D01*
X07254Y02935D01*
G54D12*
X05958Y01563D02*
X05946Y01551D01*
X05911Y01539D01*
X05887Y01539D01*
X05851Y01551D01*
X05827Y01575D01*
X05816Y01598D01*
X05804Y01646D01*
X05804Y01682D01*
X05816Y01729D01*
X05827Y01753D01*
X05851Y01777D01*
X05887Y01789D01*
X05911Y01789D01*
X05946Y01777D01*
X05958Y01765D01*
X06196Y01539D02*
X06054Y01539D01*
X06125Y01539D02*
X06125Y01789D01*
X06101Y01753D01*
X06077Y01729D01*
X06054Y01717D01*
X02928Y04209D02*
X02845Y04328D01*
X02786Y04209D02*
X02786Y04459D01*
X02881Y04459D01*
X02905Y04447D01*
X02916Y04435D01*
X02928Y04411D01*
X02928Y04375D01*
X02916Y04352D01*
X02905Y04340D01*
X02881Y04328D01*
X02786Y04328D01*
X03143Y04459D02*
X03095Y04459D01*
X03071Y04447D01*
X03059Y04435D01*
X03036Y04399D01*
X03024Y04352D01*
X03024Y04256D01*
X03036Y04233D01*
X03047Y04221D01*
X03071Y04209D01*
X03119Y04209D01*
X03143Y04221D01*
X03155Y04233D01*
X03166Y04256D01*
X03166Y04316D01*
X03155Y04340D01*
X03143Y04352D01*
X03119Y04364D01*
X03071Y04364D01*
X03047Y04352D01*
X03036Y04340D01*
X03024Y04316D01*
X05008Y04199D02*
X04925Y04318D01*
X04866Y04199D02*
X04866Y04449D01*
X04961Y04449D01*
X04985Y04437D01*
X04996Y04425D01*
X05008Y04401D01*
X05008Y04365D01*
X04996Y04342D01*
X04985Y04330D01*
X04961Y04318D01*
X04866Y04318D01*
X05235Y04449D02*
X05116Y04449D01*
X05104Y04330D01*
X05116Y04342D01*
X05139Y04354D01*
X05199Y04354D01*
X05223Y04342D01*
X05235Y04330D01*
X05246Y04306D01*
X05246Y04246D01*
X05235Y04223D01*
X05223Y04211D01*
X05199Y04199D01*
X05139Y04199D01*
X05116Y04211D01*
X05104Y04223D01*
X00971Y01288D02*
X00852Y01205D01*
X00971Y01146D02*
X00721Y01146D01*
X00721Y01241D01*
X00733Y01265D01*
X00745Y01276D01*
X00769Y01288D01*
X00805Y01288D01*
X00828Y01276D01*
X00840Y01265D01*
X00852Y01241D01*
X00852Y01146D01*
X00805Y01503D02*
X00971Y01503D01*
X00709Y01443D02*
X00888Y01384D01*
X00888Y01538D01*
X00518Y02929D02*
X00435Y03048D01*
X00376Y02929D02*
X00376Y03179D01*
X00471Y03179D01*
X00495Y03167D01*
X00506Y03155D01*
X00518Y03131D01*
X00518Y03095D01*
X00506Y03072D01*
X00495Y03060D01*
X00471Y03048D01*
X00376Y03048D01*
X00602Y03179D02*
X00756Y03179D01*
X00673Y03084D01*
X00709Y03084D01*
X00733Y03072D01*
X00745Y03060D01*
X00756Y03036D01*
X00756Y02976D01*
X00745Y02953D01*
X00733Y02941D01*
X00709Y02929D01*
X00637Y02929D01*
X00614Y02941D01*
X00602Y02953D01*
X07371Y01318D02*
X07252Y01235D01*
X07371Y01176D02*
X07121Y01176D01*
X07121Y01271D01*
X07133Y01295D01*
X07145Y01306D01*
X07169Y01318D01*
X07205Y01318D01*
X07228Y01306D01*
X07240Y01295D01*
X07252Y01271D01*
X07252Y01176D01*
X07145Y01414D02*
X07133Y01426D01*
X07121Y01449D01*
X07121Y01509D01*
X07133Y01533D01*
X07145Y01545D01*
X07169Y01556D01*
X07193Y01556D01*
X07228Y01545D01*
X07371Y01402D01*
X07371Y01556D01*
X07701Y04408D02*
X07582Y04325D01*
X07701Y04266D02*
X07451Y04266D01*
X07451Y04361D01*
X07463Y04385D01*
X07475Y04396D01*
X07499Y04408D01*
X07535Y04408D01*
X07558Y04396D01*
X07570Y04385D01*
X07582Y04361D01*
X07582Y04266D01*
X07701Y04646D02*
X07701Y04504D01*
X07701Y04575D02*
X07451Y04575D01*
X07487Y04551D01*
X07511Y04527D01*
X07523Y04504D01*
X01208Y02953D02*
X01196Y02941D01*
X01161Y02929D01*
X01137Y02929D01*
X01101Y02941D01*
X01077Y02965D01*
X01066Y02988D01*
X01054Y03036D01*
X01054Y03072D01*
X01066Y03119D01*
X01077Y03143D01*
X01101Y03167D01*
X01137Y03179D01*
X01161Y03179D01*
X01196Y03167D01*
X01208Y03155D01*
X01292Y03179D02*
X01458Y03179D01*
X01351Y02929D01*
X00997Y04018D02*
X01009Y04006D01*
X01021Y03971D01*
X01021Y03947D01*
X01009Y03911D01*
X00985Y03887D01*
X00962Y03876D01*
X00914Y03864D01*
X00878Y03864D01*
X00831Y03876D01*
X00807Y03887D01*
X00783Y03911D01*
X00771Y03947D01*
X00771Y03971D01*
X00783Y04006D01*
X00795Y04018D01*
X00771Y04233D02*
X00771Y04185D01*
X00783Y04161D01*
X00795Y04149D01*
X00831Y04126D01*
X00878Y04114D01*
X00974Y04114D01*
X00997Y04126D01*
X01009Y04137D01*
X01021Y04161D01*
X01021Y04209D01*
X01009Y04233D01*
X00997Y04245D01*
X00974Y04256D01*
X00914Y04256D01*
X00890Y04245D01*
X00878Y04233D01*
X00866Y04209D01*
X00866Y04161D01*
X00878Y04137D01*
X00890Y04126D01*
X00914Y04114D01*
X01948Y01553D02*
X01936Y01541D01*
X01901Y01529D01*
X01877Y01529D01*
X01841Y01541D01*
X01817Y01565D01*
X01806Y01588D01*
X01794Y01636D01*
X01794Y01672D01*
X01806Y01719D01*
X01817Y01743D01*
X01841Y01767D01*
X01877Y01779D01*
X01901Y01779D01*
X01936Y01767D01*
X01948Y01755D01*
X02175Y01779D02*
X02056Y01779D01*
X02044Y01660D01*
X02056Y01672D01*
X02079Y01684D01*
X02139Y01684D01*
X02163Y01672D01*
X02175Y01660D01*
X02186Y01636D01*
X02186Y01576D01*
X02175Y01553D01*
X02163Y01541D01*
X02139Y01529D01*
X02079Y01529D01*
X02056Y01541D01*
X02044Y01553D01*
X05907Y03918D02*
X05919Y03906D01*
X05931Y03871D01*
X05931Y03847D01*
X05919Y03811D01*
X05895Y03787D01*
X05872Y03776D01*
X05824Y03764D01*
X05788Y03764D01*
X05741Y03776D01*
X05717Y03787D01*
X05693Y03811D01*
X05681Y03847D01*
X05681Y03871D01*
X05693Y03906D01*
X05705Y03918D01*
X05765Y04133D02*
X05931Y04133D01*
X05669Y04073D02*
X05848Y04014D01*
X05848Y04168D01*
X00987Y04658D02*
X00999Y04646D01*
X01011Y04611D01*
X01011Y04587D01*
X00999Y04551D01*
X00975Y04527D01*
X00952Y04516D01*
X00904Y04504D01*
X00868Y04504D01*
X00821Y04516D01*
X00797Y04527D01*
X00773Y04551D01*
X00761Y04587D01*
X00761Y04611D01*
X00773Y04646D01*
X00785Y04658D01*
X00761Y04742D02*
X00761Y04896D01*
X00856Y04813D01*
X00856Y04849D01*
X00868Y04873D01*
X00880Y04885D01*
X00904Y04896D01*
X00964Y04896D01*
X00987Y04885D01*
X00999Y04873D01*
X01011Y04849D01*
X01011Y04777D01*
X00999Y04754D01*
X00987Y04742D01*
X00937Y01958D02*
X00949Y01946D01*
X00961Y01911D01*
X00961Y01887D01*
X00949Y01851D01*
X00925Y01827D01*
X00902Y01816D01*
X00854Y01804D01*
X00818Y01804D01*
X00771Y01816D01*
X00747Y01827D01*
X00723Y01851D01*
X00711Y01887D01*
X00711Y01911D01*
X00723Y01946D01*
X00735Y01958D01*
X00735Y02054D02*
X00723Y02066D01*
X00711Y02089D01*
X00711Y02149D01*
X00723Y02173D01*
X00735Y02185D01*
X00759Y02196D01*
X00783Y02196D01*
X00818Y02185D01*
X00961Y02042D01*
X00961Y02196D01*
G54D16*
X02682Y02550D02*
X02842Y02550D01*
X02860Y02559D01*
X02870Y02569D01*
X02879Y02587D01*
X02879Y02625D01*
X02870Y02644D01*
X02860Y02653D01*
X02842Y02662D01*
X02682Y02662D01*
X02879Y02859D02*
X02879Y02747D01*
X02879Y02803D02*
X02682Y02803D01*
X02710Y02784D01*
X02729Y02765D01*
X02739Y02747D01*
G54D14*
X05602Y03564D02*
X05760Y03564D01*
X05681Y03288D02*
X05681Y03564D01*
X05852Y03288D02*
X05852Y03564D01*
X05957Y03564D01*
X05983Y03551D01*
X05996Y03538D01*
X06009Y03512D01*
X06009Y03472D01*
X05996Y03446D01*
X05983Y03433D01*
X05957Y03420D01*
X05852Y03420D01*
X06272Y03288D02*
X06115Y03288D01*
X06193Y03288D02*
X06193Y03564D01*
X06167Y03525D01*
X06141Y03499D01*
X06115Y03485D01*
M02*
