G04 (created by PCBNEW-RS274X (2012-01-19 BZR 3256)-stable) date 03/01/2013 14:51:54*
G01*
G70*
G90*
%MOIN*%
G04 Gerber Fmt 3.4, Leading zero omitted, Abs format*
%FSLAX34Y34*%
G04 APERTURE LIST*
%ADD10C,0.006000*%
%ADD11R,0.083000X0.079100*%
%ADD12R,0.067200X0.067200*%
%ADD13R,0.075000X0.055000*%
%ADD14R,0.055000X0.075000*%
%ADD15R,0.075000X0.075000*%
%ADD16C,0.075000*%
%ADD17R,0.077100X0.079100*%
%ADD18R,0.036500X0.077900*%
%ADD19C,0.079100*%
G04 APERTURE END LIST*
G54D10*
G54D11*
X07000Y02150D03*
G54D12*
X07571Y03528D03*
X06429Y03528D03*
G54D13*
X06000Y02025D03*
X06000Y01275D03*
G54D14*
X03375Y04800D03*
X02625Y04800D03*
X04625Y04800D03*
X05375Y04800D03*
X00475Y01300D03*
X01225Y01300D03*
G54D13*
X00550Y03425D03*
X00550Y02675D03*
G54D14*
X07625Y01350D03*
X06875Y01350D03*
G54D13*
X07100Y04825D03*
X07100Y04075D03*
X01250Y02675D03*
X01250Y03425D03*
G54D14*
X00525Y04050D03*
X01275Y04050D03*
G54D13*
X02000Y02025D03*
X02000Y01275D03*
X06300Y04825D03*
X06300Y04075D03*
G54D14*
X00525Y04700D03*
X01275Y04700D03*
X01225Y02000D03*
X00475Y02000D03*
G54D15*
X00500Y05500D03*
G54D16*
X01500Y05500D03*
X02500Y05500D03*
X03500Y05500D03*
X04500Y05500D03*
X05500Y05500D03*
X06500Y05500D03*
X07500Y05500D03*
G54D15*
X00500Y00500D03*
G54D16*
X01500Y00500D03*
X02500Y00500D03*
X03500Y00500D03*
X04500Y00500D03*
X05500Y00500D03*
X06500Y00500D03*
X07500Y00500D03*
G54D17*
X04571Y02404D03*
X04000Y02404D03*
X03429Y02404D03*
X03429Y02995D03*
G54D18*
X03872Y01598D03*
X04128Y01598D03*
X04384Y01598D03*
X04640Y01598D03*
X03108Y03800D03*
X03104Y01598D03*
X03360Y01598D03*
X03616Y01598D03*
X04896Y03802D03*
X04640Y03802D03*
X04384Y03802D03*
X04128Y03802D03*
X03872Y03802D03*
X03616Y03802D03*
X04896Y01598D03*
X03360Y03800D03*
X02848Y01598D03*
X05152Y01598D03*
X05152Y03802D03*
X02848Y03802D03*
X02593Y01598D03*
X05407Y01598D03*
X05407Y03802D03*
X02593Y03802D03*
G54D17*
X04000Y02995D03*
X04571Y02995D03*
G54D19*
X05975Y02800D03*
M02*
