G04 (created by PCBNEW-RS274X (2012-01-19 BZR 3256)-stable) date 29/09/2012 13:07:08*
G01*
G70*
G90*
%MOIN*%
G04 Gerber Fmt 3.4, Leading zero omitted, Abs format*
%FSLAX34Y34*%
G04 APERTURE LIST*
%ADD10C,0.006000*%
%ADD11C,0.007900*%
%ADD12C,0.005000*%
%ADD13C,0.012000*%
%ADD14C,0.010700*%
%ADD15C,0.003900*%
G04 APERTURE END LIST*
G54D10*
G54D11*
X06850Y03765D02*
X06850Y03332D01*
X07067Y03548D02*
X06633Y03548D01*
X07351Y03529D02*
X07341Y03432D01*
X07313Y03339D01*
X07267Y03252D01*
X07205Y03176D01*
X07130Y03114D01*
X07044Y03068D01*
X06950Y03039D01*
X06853Y03029D01*
X06757Y03037D01*
X06663Y03065D01*
X06576Y03110D01*
X06500Y03172D01*
X06437Y03246D01*
X06390Y03332D01*
X06360Y03425D01*
X06350Y03523D01*
X06358Y03619D01*
X06385Y03713D01*
X06429Y03800D01*
X06490Y03877D01*
X06565Y03940D01*
X06650Y03988D01*
X06743Y04018D01*
X06840Y04029D01*
X06936Y04022D01*
X07031Y03996D01*
X07118Y03952D01*
X07195Y03891D01*
X07259Y03817D01*
X07307Y03732D01*
X07338Y03639D01*
X07350Y03542D01*
X07351Y03529D01*
X07460Y02840D02*
X06240Y02840D01*
X06241Y02840D02*
X06241Y04198D01*
X06241Y04197D02*
X07461Y04197D01*
X07460Y04199D02*
X07460Y02841D01*
G54D12*
X06050Y02350D02*
X06049Y02341D01*
X06046Y02331D01*
X06041Y02323D01*
X06035Y02315D01*
X06027Y02309D01*
X06019Y02304D01*
X06010Y02302D01*
X06000Y02301D01*
X05991Y02301D01*
X05982Y02304D01*
X05973Y02309D01*
X05966Y02315D01*
X05959Y02322D01*
X05955Y02331D01*
X05952Y02340D01*
X05951Y02350D01*
X05951Y02359D01*
X05954Y02368D01*
X05958Y02377D01*
X05965Y02384D01*
X05972Y02391D01*
X05980Y02395D01*
X05990Y02398D01*
X05999Y02399D01*
X06008Y02399D01*
X06018Y02396D01*
X06026Y02392D01*
X06034Y02386D01*
X06040Y02378D01*
X06045Y02370D01*
X06048Y02361D01*
X06049Y02351D01*
X06050Y02350D01*
X06000Y01900D02*
X06000Y02300D01*
X06000Y02300D02*
X06600Y02300D01*
X06600Y02300D02*
X06600Y01900D01*
X06600Y01500D02*
X06600Y01100D01*
X06600Y01100D02*
X06000Y01100D01*
X06000Y01100D02*
X06000Y01500D01*
X03700Y05800D02*
X03699Y05791D01*
X03696Y05781D01*
X03691Y05773D01*
X03685Y05765D01*
X03677Y05759D01*
X03669Y05754D01*
X03660Y05752D01*
X03650Y05751D01*
X03641Y05751D01*
X03632Y05754D01*
X03623Y05759D01*
X03616Y05765D01*
X03609Y05772D01*
X03605Y05781D01*
X03602Y05790D01*
X03601Y05800D01*
X03601Y05809D01*
X03604Y05818D01*
X03608Y05827D01*
X03615Y05834D01*
X03622Y05841D01*
X03630Y05845D01*
X03640Y05848D01*
X03649Y05849D01*
X03658Y05849D01*
X03668Y05846D01*
X03676Y05842D01*
X03684Y05836D01*
X03690Y05828D01*
X03695Y05820D01*
X03698Y05811D01*
X03699Y05801D01*
X03700Y05800D01*
X03200Y05800D02*
X03600Y05800D01*
X03600Y05800D02*
X03600Y05200D01*
X03600Y05200D02*
X03200Y05200D01*
X02800Y05200D02*
X02400Y05200D01*
X02400Y05200D02*
X02400Y05800D01*
X02400Y05800D02*
X02800Y05800D01*
X04400Y05200D02*
X04399Y05191D01*
X04396Y05181D01*
X04391Y05173D01*
X04385Y05165D01*
X04377Y05159D01*
X04369Y05154D01*
X04360Y05152D01*
X04350Y05151D01*
X04341Y05151D01*
X04332Y05154D01*
X04323Y05159D01*
X04316Y05165D01*
X04309Y05172D01*
X04305Y05181D01*
X04302Y05190D01*
X04301Y05200D01*
X04301Y05209D01*
X04304Y05218D01*
X04308Y05227D01*
X04315Y05234D01*
X04322Y05241D01*
X04330Y05245D01*
X04340Y05248D01*
X04349Y05249D01*
X04358Y05249D01*
X04368Y05246D01*
X04376Y05242D01*
X04384Y05236D01*
X04390Y05228D01*
X04395Y05220D01*
X04398Y05211D01*
X04399Y05201D01*
X04400Y05200D01*
X04800Y05200D02*
X04400Y05200D01*
X04400Y05200D02*
X04400Y05800D01*
X04400Y05800D02*
X04800Y05800D01*
X05200Y05800D02*
X05600Y05800D01*
X05600Y05800D02*
X05600Y05200D01*
X05600Y05200D02*
X05200Y05200D01*
X03400Y00950D02*
X03399Y00941D01*
X03396Y00931D01*
X03391Y00923D01*
X03385Y00915D01*
X03377Y00909D01*
X03369Y00904D01*
X03360Y00902D01*
X03350Y00901D01*
X03341Y00901D01*
X03332Y00904D01*
X03323Y00909D01*
X03316Y00915D01*
X03309Y00922D01*
X03305Y00931D01*
X03302Y00940D01*
X03301Y00950D01*
X03301Y00959D01*
X03304Y00968D01*
X03308Y00977D01*
X03315Y00984D01*
X03322Y00991D01*
X03330Y00995D01*
X03340Y00998D01*
X03349Y00999D01*
X03358Y00999D01*
X03368Y00996D01*
X03376Y00992D01*
X03384Y00986D01*
X03390Y00978D01*
X03395Y00970D01*
X03398Y00961D01*
X03399Y00951D01*
X03400Y00950D01*
X03800Y00950D02*
X03400Y00950D01*
X03400Y00950D02*
X03400Y01550D01*
X03400Y01550D02*
X03800Y01550D01*
X04200Y01550D02*
X04600Y01550D01*
X04600Y01550D02*
X04600Y00950D01*
X04600Y00950D02*
X04200Y00950D01*
X00250Y04050D02*
X00249Y04041D01*
X00246Y04031D01*
X00241Y04023D01*
X00235Y04015D01*
X00227Y04009D01*
X00219Y04004D01*
X00210Y04002D01*
X00200Y04001D01*
X00191Y04001D01*
X00182Y04004D01*
X00173Y04009D01*
X00166Y04015D01*
X00159Y04022D01*
X00155Y04031D01*
X00152Y04040D01*
X00151Y04050D01*
X00151Y04059D01*
X00154Y04068D01*
X00158Y04077D01*
X00165Y04084D01*
X00172Y04091D01*
X00180Y04095D01*
X00190Y04098D01*
X00199Y04099D01*
X00208Y04099D01*
X00218Y04096D01*
X00226Y04092D01*
X00234Y04086D01*
X00240Y04078D01*
X00245Y04070D01*
X00248Y04061D01*
X00249Y04051D01*
X00250Y04050D01*
X00200Y03600D02*
X00200Y04000D01*
X00200Y04000D02*
X00800Y04000D01*
X00800Y04000D02*
X00800Y03600D01*
X00800Y03200D02*
X00800Y02800D01*
X00800Y02800D02*
X00200Y02800D01*
X00200Y02800D02*
X00200Y03200D01*
X07300Y02350D02*
X07299Y02341D01*
X07296Y02331D01*
X07291Y02323D01*
X07285Y02315D01*
X07277Y02309D01*
X07269Y02304D01*
X07260Y02302D01*
X07250Y02301D01*
X07241Y02301D01*
X07232Y02304D01*
X07223Y02309D01*
X07216Y02315D01*
X07209Y02322D01*
X07205Y02331D01*
X07202Y02340D01*
X07201Y02350D01*
X07201Y02359D01*
X07204Y02368D01*
X07208Y02377D01*
X07215Y02384D01*
X07222Y02391D01*
X07230Y02395D01*
X07240Y02398D01*
X07249Y02399D01*
X07258Y02399D01*
X07268Y02396D01*
X07276Y02392D01*
X07284Y02386D01*
X07290Y02378D01*
X07295Y02370D01*
X07298Y02361D01*
X07299Y02351D01*
X07300Y02350D01*
X07250Y01900D02*
X07250Y02300D01*
X07250Y02300D02*
X07850Y02300D01*
X07850Y02300D02*
X07850Y01900D01*
X07850Y01500D02*
X07850Y01100D01*
X07850Y01100D02*
X07250Y01100D01*
X07250Y01100D02*
X07250Y01500D01*
X06850Y06000D02*
X06849Y05991D01*
X06846Y05981D01*
X06841Y05973D01*
X06835Y05965D01*
X06827Y05959D01*
X06819Y05954D01*
X06810Y05952D01*
X06800Y05951D01*
X06791Y05951D01*
X06782Y05954D01*
X06773Y05959D01*
X06766Y05965D01*
X06759Y05972D01*
X06755Y05981D01*
X06752Y05990D01*
X06751Y06000D01*
X06751Y06009D01*
X06754Y06018D01*
X06758Y06027D01*
X06765Y06034D01*
X06772Y06041D01*
X06780Y06045D01*
X06790Y06048D01*
X06799Y06049D01*
X06808Y06049D01*
X06818Y06046D01*
X06826Y06042D01*
X06834Y06036D01*
X06840Y06028D01*
X06845Y06020D01*
X06848Y06011D01*
X06849Y06001D01*
X06850Y06000D01*
X06800Y05550D02*
X06800Y05950D01*
X06800Y05950D02*
X07400Y05950D01*
X07400Y05950D02*
X07400Y05550D01*
X07400Y05150D02*
X07400Y04750D01*
X07400Y04750D02*
X06800Y04750D01*
X06800Y04750D02*
X06800Y05150D01*
X01800Y02750D02*
X01799Y02741D01*
X01796Y02731D01*
X01791Y02723D01*
X01785Y02715D01*
X01777Y02709D01*
X01769Y02704D01*
X01760Y02702D01*
X01750Y02701D01*
X01741Y02701D01*
X01732Y02704D01*
X01723Y02709D01*
X01716Y02715D01*
X01709Y02722D01*
X01705Y02731D01*
X01702Y02740D01*
X01701Y02750D01*
X01701Y02759D01*
X01704Y02768D01*
X01708Y02777D01*
X01715Y02784D01*
X01722Y02791D01*
X01730Y02795D01*
X01740Y02798D01*
X01749Y02799D01*
X01758Y02799D01*
X01768Y02796D01*
X01776Y02792D01*
X01784Y02786D01*
X01790Y02778D01*
X01795Y02770D01*
X01798Y02761D01*
X01799Y02751D01*
X01800Y02750D01*
X01750Y03200D02*
X01750Y02800D01*
X01750Y02800D02*
X01150Y02800D01*
X01150Y02800D02*
X01150Y03200D01*
X01150Y03600D02*
X01150Y04000D01*
X01150Y04000D02*
X01750Y04000D01*
X01750Y04000D02*
X01750Y03600D01*
X00200Y04900D02*
X00199Y04891D01*
X00196Y04881D01*
X00191Y04873D01*
X00185Y04865D01*
X00177Y04859D01*
X00169Y04854D01*
X00160Y04852D01*
X00150Y04851D01*
X00141Y04851D01*
X00132Y04854D01*
X00123Y04859D01*
X00116Y04865D01*
X00109Y04872D01*
X00105Y04881D01*
X00102Y04890D01*
X00101Y04900D01*
X00101Y04909D01*
X00104Y04918D01*
X00108Y04927D01*
X00115Y04934D01*
X00122Y04941D01*
X00130Y04945D01*
X00140Y04948D01*
X00149Y04949D01*
X00158Y04949D01*
X00168Y04946D01*
X00176Y04942D01*
X00184Y04936D01*
X00190Y04928D01*
X00195Y04920D01*
X00198Y04911D01*
X00199Y04901D01*
X00200Y04900D01*
X00600Y04900D02*
X00200Y04900D01*
X00200Y04900D02*
X00200Y05500D01*
X00200Y05500D02*
X00600Y05500D01*
X01000Y05500D02*
X01400Y05500D01*
X01400Y05500D02*
X01400Y04900D01*
X01400Y04900D02*
X01000Y04900D01*
X01200Y02600D02*
X01199Y02591D01*
X01196Y02581D01*
X01191Y02573D01*
X01185Y02565D01*
X01177Y02559D01*
X01169Y02554D01*
X01160Y02552D01*
X01150Y02551D01*
X01141Y02551D01*
X01132Y02554D01*
X01123Y02559D01*
X01116Y02565D01*
X01109Y02572D01*
X01105Y02581D01*
X01102Y02590D01*
X01101Y02600D01*
X01101Y02609D01*
X01104Y02618D01*
X01108Y02627D01*
X01115Y02634D01*
X01122Y02641D01*
X01130Y02645D01*
X01140Y02648D01*
X01149Y02649D01*
X01158Y02649D01*
X01168Y02646D01*
X01176Y02642D01*
X01184Y02636D01*
X01190Y02628D01*
X01195Y02620D01*
X01198Y02611D01*
X01199Y02601D01*
X01200Y02600D01*
X01150Y02150D02*
X01150Y02550D01*
X01150Y02550D02*
X01750Y02550D01*
X01750Y02550D02*
X01750Y02150D01*
X01750Y01750D02*
X01750Y01350D01*
X01750Y01350D02*
X01150Y01350D01*
X01150Y01350D02*
X01150Y01750D01*
X06050Y06000D02*
X06049Y05991D01*
X06046Y05981D01*
X06041Y05973D01*
X06035Y05965D01*
X06027Y05959D01*
X06019Y05954D01*
X06010Y05952D01*
X06000Y05951D01*
X05991Y05951D01*
X05982Y05954D01*
X05973Y05959D01*
X05966Y05965D01*
X05959Y05972D01*
X05955Y05981D01*
X05952Y05990D01*
X05951Y06000D01*
X05951Y06009D01*
X05954Y06018D01*
X05958Y06027D01*
X05965Y06034D01*
X05972Y06041D01*
X05980Y06045D01*
X05990Y06048D01*
X05999Y06049D01*
X06008Y06049D01*
X06018Y06046D01*
X06026Y06042D01*
X06034Y06036D01*
X06040Y06028D01*
X06045Y06020D01*
X06048Y06011D01*
X06049Y06001D01*
X06050Y06000D01*
X06000Y05550D02*
X06000Y05950D01*
X06000Y05950D02*
X06600Y05950D01*
X06600Y05950D02*
X06600Y05550D01*
X06600Y05150D02*
X06600Y04750D01*
X06600Y04750D02*
X06000Y04750D01*
X06000Y04750D02*
X06000Y05150D01*
X00200Y04250D02*
X00199Y04241D01*
X00196Y04231D01*
X00191Y04223D01*
X00185Y04215D01*
X00177Y04209D01*
X00169Y04204D01*
X00160Y04202D01*
X00150Y04201D01*
X00141Y04201D01*
X00132Y04204D01*
X00123Y04209D01*
X00116Y04215D01*
X00109Y04222D01*
X00105Y04231D01*
X00102Y04240D01*
X00101Y04250D01*
X00101Y04259D01*
X00104Y04268D01*
X00108Y04277D01*
X00115Y04284D01*
X00122Y04291D01*
X00130Y04295D01*
X00140Y04298D01*
X00149Y04299D01*
X00158Y04299D01*
X00168Y04296D01*
X00176Y04292D01*
X00184Y04286D01*
X00190Y04278D01*
X00195Y04270D01*
X00198Y04261D01*
X00199Y04251D01*
X00200Y04250D01*
X00600Y04250D02*
X00200Y04250D01*
X00200Y04250D02*
X00200Y04850D01*
X00200Y04850D02*
X00600Y04850D01*
X01000Y04850D02*
X01400Y04850D01*
X01400Y04850D02*
X01400Y04250D01*
X01400Y04250D02*
X01000Y04250D01*
X00850Y01300D02*
X00849Y01291D01*
X00846Y01281D01*
X00841Y01273D01*
X00835Y01265D01*
X00827Y01259D01*
X00819Y01254D01*
X00810Y01252D01*
X00800Y01251D01*
X00791Y01251D01*
X00782Y01254D01*
X00773Y01259D01*
X00766Y01265D01*
X00759Y01272D01*
X00755Y01281D01*
X00752Y01290D01*
X00751Y01300D01*
X00751Y01309D01*
X00754Y01318D01*
X00758Y01327D01*
X00765Y01334D01*
X00772Y01341D01*
X00780Y01345D01*
X00790Y01348D01*
X00799Y01349D01*
X00808Y01349D01*
X00818Y01346D01*
X00826Y01342D01*
X00834Y01336D01*
X00840Y01328D01*
X00845Y01320D01*
X00848Y01311D01*
X00849Y01301D01*
X00850Y01300D01*
X00800Y01750D02*
X00800Y01350D01*
X00800Y01350D02*
X00200Y01350D01*
X00200Y01350D02*
X00200Y01750D01*
X00200Y02150D02*
X00200Y02550D01*
X00200Y02550D02*
X00800Y02550D01*
X00800Y02550D02*
X00800Y02150D01*
G54D13*
X00000Y07000D02*
X08000Y07000D01*
X08000Y07000D02*
X08000Y06000D01*
X08000Y06000D02*
X00000Y06000D01*
X00000Y06000D02*
X00000Y07000D01*
X01000Y06000D02*
X01000Y07000D01*
X00000Y01000D02*
X08000Y01000D01*
X08000Y01000D02*
X08000Y00000D01*
X08000Y00000D02*
X00000Y00000D01*
X00000Y00000D02*
X00000Y01000D01*
X01000Y00000D02*
X01000Y01000D01*
G54D12*
X05550Y04150D02*
X02450Y04150D01*
X02450Y04150D02*
X02450Y02350D01*
X02450Y02350D02*
X05550Y02350D01*
X05550Y02350D02*
X05550Y04150D01*
X02861Y02650D02*
X02858Y02629D01*
X02852Y02608D01*
X02842Y02589D01*
X02828Y02572D01*
X02812Y02558D01*
X02793Y02548D01*
X02772Y02542D01*
X02750Y02540D01*
X02730Y02541D01*
X02709Y02548D01*
X02690Y02558D01*
X02673Y02571D01*
X02659Y02588D01*
X02648Y02607D01*
X02642Y02627D01*
X02640Y02649D01*
X02641Y02670D01*
X02647Y02690D01*
X02657Y02710D01*
X02671Y02727D01*
X02687Y02741D01*
X02706Y02751D01*
X02727Y02758D01*
X02748Y02760D01*
X02769Y02759D01*
X02790Y02753D01*
X02809Y02743D01*
X02826Y02730D01*
X02840Y02713D01*
X02851Y02695D01*
X02858Y02674D01*
X02860Y02653D01*
X02861Y02650D01*
G54D13*
X06494Y03207D02*
X06294Y03493D01*
X06151Y03207D02*
X06151Y03807D01*
X06379Y03807D01*
X06437Y03779D01*
X06465Y03750D01*
X06494Y03693D01*
X06494Y03607D01*
X06465Y03550D01*
X06437Y03521D01*
X06379Y03493D01*
X06151Y03493D01*
X06665Y03807D02*
X06865Y03207D01*
X07065Y03807D01*
X07579Y03207D02*
X07236Y03207D01*
X07408Y03207D02*
X07408Y03807D01*
X07351Y03721D01*
X07293Y03664D01*
X07236Y03636D01*
G54D12*
X05877Y01958D02*
X05889Y01946D01*
X05901Y01911D01*
X05901Y01887D01*
X05889Y01851D01*
X05865Y01827D01*
X05842Y01816D01*
X05794Y01804D01*
X05758Y01804D01*
X05711Y01816D01*
X05687Y01827D01*
X05663Y01851D01*
X05651Y01887D01*
X05651Y01911D01*
X05663Y01946D01*
X05675Y01958D01*
X05901Y02196D02*
X05901Y02054D01*
X05901Y02125D02*
X05651Y02125D01*
X05687Y02101D01*
X05711Y02077D01*
X05723Y02054D01*
X02908Y04849D02*
X02825Y04968D01*
X02766Y04849D02*
X02766Y05099D01*
X02861Y05099D01*
X02885Y05087D01*
X02896Y05075D01*
X02908Y05051D01*
X02908Y05015D01*
X02896Y04992D01*
X02885Y04980D01*
X02861Y04968D01*
X02766Y04968D01*
X03123Y05099D02*
X03075Y05099D01*
X03051Y05087D01*
X03039Y05075D01*
X03016Y05039D01*
X03004Y04992D01*
X03004Y04896D01*
X03016Y04873D01*
X03027Y04861D01*
X03051Y04849D01*
X03099Y04849D01*
X03123Y04861D01*
X03135Y04873D01*
X03146Y04896D01*
X03146Y04956D01*
X03135Y04980D01*
X03123Y04992D01*
X03099Y05004D01*
X03051Y05004D01*
X03027Y04992D01*
X03016Y04980D01*
X03004Y04956D01*
X05008Y04899D02*
X04925Y05018D01*
X04866Y04899D02*
X04866Y05149D01*
X04961Y05149D01*
X04985Y05137D01*
X04996Y05125D01*
X05008Y05101D01*
X05008Y05065D01*
X04996Y05042D01*
X04985Y05030D01*
X04961Y05018D01*
X04866Y05018D01*
X05235Y05149D02*
X05116Y05149D01*
X05104Y05030D01*
X05116Y05042D01*
X05139Y05054D01*
X05199Y05054D01*
X05223Y05042D01*
X05235Y05030D01*
X05246Y05006D01*
X05246Y04946D01*
X05235Y04923D01*
X05223Y04911D01*
X05199Y04899D01*
X05139Y04899D01*
X05116Y04911D01*
X05104Y04923D01*
X04858Y01149D02*
X04775Y01268D01*
X04716Y01149D02*
X04716Y01399D01*
X04811Y01399D01*
X04835Y01387D01*
X04846Y01375D01*
X04858Y01351D01*
X04858Y01315D01*
X04846Y01292D01*
X04835Y01280D01*
X04811Y01268D01*
X04716Y01268D01*
X05073Y01315D02*
X05073Y01149D01*
X05013Y01411D02*
X04954Y01232D01*
X05108Y01232D01*
X01101Y03358D02*
X00982Y03275D01*
X01101Y03216D02*
X00851Y03216D01*
X00851Y03311D01*
X00863Y03335D01*
X00875Y03346D01*
X00899Y03358D01*
X00935Y03358D01*
X00958Y03346D01*
X00970Y03335D01*
X00982Y03311D01*
X00982Y03216D01*
X00851Y03442D02*
X00851Y03596D01*
X00946Y03513D01*
X00946Y03549D01*
X00958Y03573D01*
X00970Y03585D01*
X00994Y03596D01*
X01054Y03596D01*
X01077Y03585D01*
X01089Y03573D01*
X01101Y03549D01*
X01101Y03477D01*
X01089Y03454D01*
X01077Y03442D01*
X07151Y01658D02*
X07032Y01575D01*
X07151Y01516D02*
X06901Y01516D01*
X06901Y01611D01*
X06913Y01635D01*
X06925Y01646D01*
X06949Y01658D01*
X06985Y01658D01*
X07008Y01646D01*
X07020Y01635D01*
X07032Y01611D01*
X07032Y01516D01*
X06925Y01754D02*
X06913Y01766D01*
X06901Y01789D01*
X06901Y01849D01*
X06913Y01873D01*
X06925Y01885D01*
X06949Y01896D01*
X06973Y01896D01*
X07008Y01885D01*
X07151Y01742D01*
X07151Y01896D01*
X07701Y05308D02*
X07582Y05225D01*
X07701Y05166D02*
X07451Y05166D01*
X07451Y05261D01*
X07463Y05285D01*
X07475Y05296D01*
X07499Y05308D01*
X07535Y05308D01*
X07558Y05296D01*
X07570Y05285D01*
X07582Y05261D01*
X07582Y05166D01*
X07701Y05546D02*
X07701Y05404D01*
X07701Y05475D02*
X07451Y05475D01*
X07487Y05451D01*
X07511Y05427D01*
X07523Y05404D01*
X02077Y03358D02*
X02089Y03346D01*
X02101Y03311D01*
X02101Y03287D01*
X02089Y03251D01*
X02065Y03227D01*
X02042Y03216D01*
X01994Y03204D01*
X01958Y03204D01*
X01911Y03216D01*
X01887Y03227D01*
X01863Y03251D01*
X01851Y03287D01*
X01851Y03311D01*
X01863Y03346D01*
X01875Y03358D01*
X01851Y03442D02*
X01851Y03608D01*
X02101Y03501D01*
X00758Y05623D02*
X00746Y05611D01*
X00711Y05599D01*
X00687Y05599D01*
X00651Y05611D01*
X00627Y05635D01*
X00616Y05658D01*
X00604Y05706D01*
X00604Y05742D01*
X00616Y05789D01*
X00627Y05813D01*
X00651Y05837D01*
X00687Y05849D01*
X00711Y05849D01*
X00746Y05837D01*
X00758Y05825D01*
X00973Y05849D02*
X00925Y05849D01*
X00901Y05837D01*
X00889Y05825D01*
X00866Y05789D01*
X00854Y05742D01*
X00854Y05646D01*
X00866Y05623D01*
X00877Y05611D01*
X00901Y05599D01*
X00949Y05599D01*
X00973Y05611D01*
X00985Y05623D01*
X00996Y05646D01*
X00996Y05706D01*
X00985Y05730D01*
X00973Y05742D01*
X00949Y05754D01*
X00901Y05754D01*
X00877Y05742D01*
X00866Y05730D01*
X00854Y05706D01*
X02077Y01908D02*
X02089Y01896D01*
X02101Y01861D01*
X02101Y01837D01*
X02089Y01801D01*
X02065Y01777D01*
X02042Y01766D01*
X01994Y01754D01*
X01958Y01754D01*
X01911Y01766D01*
X01887Y01777D01*
X01863Y01801D01*
X01851Y01837D01*
X01851Y01861D01*
X01863Y01896D01*
X01875Y01908D01*
X01851Y02135D02*
X01851Y02016D01*
X01970Y02004D01*
X01958Y02016D01*
X01946Y02039D01*
X01946Y02099D01*
X01958Y02123D01*
X01970Y02135D01*
X01994Y02146D01*
X02054Y02146D01*
X02077Y02135D01*
X02089Y02123D01*
X02101Y02099D01*
X02101Y02039D01*
X02089Y02016D01*
X02077Y02004D01*
X05927Y05308D02*
X05939Y05296D01*
X05951Y05261D01*
X05951Y05237D01*
X05939Y05201D01*
X05915Y05177D01*
X05892Y05166D01*
X05844Y05154D01*
X05808Y05154D01*
X05761Y05166D01*
X05737Y05177D01*
X05713Y05201D01*
X05701Y05237D01*
X05701Y05261D01*
X05713Y05296D01*
X05725Y05308D01*
X05785Y05523D02*
X05951Y05523D01*
X05689Y05463D02*
X05868Y05404D01*
X05868Y05558D01*
X01708Y04423D02*
X01696Y04411D01*
X01661Y04399D01*
X01637Y04399D01*
X01601Y04411D01*
X01577Y04435D01*
X01566Y04458D01*
X01554Y04506D01*
X01554Y04542D01*
X01566Y04589D01*
X01577Y04613D01*
X01601Y04637D01*
X01637Y04649D01*
X01661Y04649D01*
X01696Y04637D01*
X01708Y04625D01*
X01792Y04649D02*
X01946Y04649D01*
X01863Y04554D01*
X01899Y04554D01*
X01923Y04542D01*
X01935Y04530D01*
X01946Y04506D01*
X01946Y04446D01*
X01935Y04423D01*
X01923Y04411D01*
X01899Y04399D01*
X01827Y04399D01*
X01804Y04411D01*
X01792Y04423D01*
X01077Y01908D02*
X01089Y01896D01*
X01101Y01861D01*
X01101Y01837D01*
X01089Y01801D01*
X01065Y01777D01*
X01042Y01766D01*
X00994Y01754D01*
X00958Y01754D01*
X00911Y01766D01*
X00887Y01777D01*
X00863Y01801D01*
X00851Y01837D01*
X00851Y01861D01*
X00863Y01896D01*
X00875Y01908D01*
X00875Y02004D02*
X00863Y02016D01*
X00851Y02039D01*
X00851Y02099D01*
X00863Y02123D01*
X00875Y02135D01*
X00899Y02146D01*
X00923Y02146D01*
X00958Y02135D01*
X01101Y01992D01*
X01101Y02146D01*
G54D14*
X01184Y07225D02*
X01184Y07906D01*
X01347Y07906D01*
X01388Y07873D01*
X01408Y07841D01*
X01428Y07776D01*
X01428Y07679D01*
X01408Y07614D01*
X01388Y07582D01*
X01347Y07549D01*
X01184Y07549D01*
X01592Y07841D02*
X01612Y07873D01*
X01653Y07906D01*
X01755Y07906D01*
X01795Y07873D01*
X01816Y07841D01*
X01836Y07776D01*
X01836Y07711D01*
X01816Y07614D01*
X01571Y07225D01*
X01836Y07225D01*
X01184Y-01025D02*
X01184Y-00344D01*
X01347Y-00344D01*
X01388Y-00377D01*
X01408Y-00409D01*
X01428Y-00474D01*
X01428Y-00571D01*
X01408Y-00636D01*
X01388Y-00668D01*
X01347Y-00701D01*
X01184Y-00701D01*
X01836Y-01025D02*
X01592Y-01025D01*
X01714Y-01025D02*
X01714Y-00344D01*
X01673Y-00441D01*
X01632Y-00506D01*
X01592Y-00539D01*
G54D15*
X02682Y03100D02*
X02842Y03100D01*
X02860Y03109D01*
X02870Y03119D01*
X02879Y03137D01*
X02879Y03175D01*
X02870Y03194D01*
X02860Y03203D01*
X02842Y03212D01*
X02682Y03212D01*
X02879Y03409D02*
X02879Y03297D01*
X02879Y03353D02*
X02682Y03353D01*
X02710Y03334D01*
X02729Y03315D01*
X02739Y03297D01*
M02*
