M48
INCH,TZ
T1C0.012
T2C0.028
T3C0.032
%
G90
G05
T1
X400Y5750
X1700Y4950
X2100Y4350
X2590Y5980
X3170Y1260
X3330Y4940
X4670Y4950
X5470Y5970
X5740Y4950
X5750Y1550
X5760Y4350
X6860Y2060
X7500Y2550
T2
X3429Y3545
X3429Y2954
X4000Y3545
X4000Y2954
X4571Y3545
X4571Y2954
T3
X500Y6500
X500Y500
X1500Y6500
X1500Y500
X2500Y6500
X2500Y500
X3500Y6500
X3500Y500
X4500Y6500
X4500Y500
X5500Y6500
X5500Y500
X6500Y6500
X6500Y500
X7500Y6500
X7500Y500
T0
M30
