G04 (created by PCBNEW-RS274X (2012-01-19 BZR 3256)-stable) date 29/09/2012 13:07:08*
G01*
G70*
G90*
%MOIN*%
G04 Gerber Fmt 3.4, Leading zero omitted, Abs format*
%FSLAX34Y34*%
G04 APERTURE LIST*
%ADD10C,0.006000*%
%ADD11R,0.063000X0.059100*%
%ADD12R,0.047200X0.047200*%
%ADD13R,0.055000X0.035000*%
%ADD14R,0.035000X0.055000*%
%ADD15R,0.055000X0.055000*%
%ADD16C,0.055000*%
%ADD17R,0.057100X0.059100*%
%ADD18R,0.016500X0.057900*%
%ADD19R,0.019700X0.019700*%
%ADD20C,0.025000*%
%ADD21C,0.019000*%
G04 APERTURE END LIST*
G54D10*
G54D11*
X06850Y02800D03*
G54D12*
X07421Y04178D03*
X06279Y04178D03*
G54D13*
X06300Y02075D03*
X06300Y01325D03*
G54D14*
X03375Y05500D03*
X02625Y05500D03*
X04625Y05500D03*
X05375Y05500D03*
X03625Y01250D03*
X04375Y01250D03*
G54D13*
X00500Y03775D03*
X00500Y03025D03*
X07550Y02075D03*
X07550Y01325D03*
X07100Y05725D03*
X07100Y04975D03*
X01450Y03025D03*
X01450Y03775D03*
G54D14*
X00425Y05200D03*
X01175Y05200D03*
G54D13*
X01450Y02325D03*
X01450Y01575D03*
X06300Y05725D03*
X06300Y04975D03*
G54D14*
X00425Y04550D03*
X01175Y04550D03*
G54D13*
X00500Y01575D03*
X00500Y02325D03*
G54D15*
X00500Y06500D03*
G54D16*
X01500Y06500D03*
X02500Y06500D03*
X03500Y06500D03*
X04500Y06500D03*
X05500Y06500D03*
X06500Y06500D03*
X07500Y06500D03*
G54D15*
X00500Y00500D03*
G54D16*
X01500Y00500D03*
X02500Y00500D03*
X03500Y00500D03*
X04500Y00500D03*
X05500Y00500D03*
X06500Y00500D03*
X07500Y00500D03*
G54D17*
X04571Y02954D03*
X04000Y02954D03*
X03429Y02954D03*
X03429Y03545D03*
G54D18*
X03872Y02148D03*
X04128Y02148D03*
X04384Y02148D03*
X04640Y02148D03*
X03108Y04350D03*
X03104Y02148D03*
X03360Y02148D03*
X03616Y02148D03*
X04896Y04352D03*
X04640Y04352D03*
X04384Y04352D03*
X04128Y04352D03*
X03872Y04352D03*
X03616Y04352D03*
X04896Y02148D03*
X03360Y04350D03*
X02848Y02148D03*
X05152Y02148D03*
X05152Y04352D03*
X02848Y04352D03*
X02593Y02148D03*
X05407Y02148D03*
X05407Y04352D03*
X02593Y04352D03*
G54D17*
X04000Y03545D03*
X04571Y03545D03*
G54D19*
X02000Y05351D03*
X02000Y05647D03*
G54D20*
X07500Y02550D03*
X05750Y01550D03*
X01700Y04950D03*
X04670Y04950D03*
X03330Y04940D03*
X05740Y04950D03*
X02100Y04350D03*
X03170Y01260D03*
X05760Y04350D03*
X06860Y02060D03*
X00400Y05750D03*
X05470Y05970D03*
X02590Y05980D03*
G54D21*
X04128Y06128D02*
X04500Y06500D01*
X04128Y04352D02*
X04128Y06128D01*
X05000Y06000D02*
X05500Y06500D01*
X05000Y04810D02*
X05000Y06000D01*
X04896Y04352D02*
X04896Y04706D01*
X04896Y04706D02*
X05000Y04810D01*
X03872Y06128D02*
X03500Y06500D01*
X03872Y04352D02*
X03872Y06128D01*
X03108Y04752D02*
X03108Y04350D01*
X03000Y04860D02*
X03108Y04752D01*
X03000Y06000D02*
X03000Y04860D01*
X02500Y06500D02*
X03000Y06000D01*
G54D10*
X07000Y03640D02*
X07310Y03640D01*
X05152Y04038D02*
X05550Y03640D01*
X05550Y03640D02*
X07000Y03640D01*
X05152Y04352D02*
X05152Y04038D01*
X07500Y03450D02*
X07500Y02550D01*
X07310Y03640D02*
X07500Y03450D01*
X02848Y03970D02*
X02808Y03930D01*
X02848Y04352D02*
X02848Y03970D01*
X02808Y03930D02*
X02260Y03930D01*
X01090Y03480D02*
X00795Y03775D01*
X00795Y03775D02*
X00500Y03775D01*
X01810Y03480D02*
X01090Y03480D01*
X02260Y03930D02*
X01810Y03480D01*
X00120Y00880D02*
X00500Y00500D01*
X00120Y03610D02*
X00120Y00880D01*
X00500Y03775D02*
X00285Y03775D01*
X00285Y03775D02*
X00120Y03610D01*
X02185Y01185D02*
X01500Y00500D01*
X02685Y01185D02*
X02185Y01185D01*
X03100Y01600D02*
X02685Y01185D01*
X03320Y01600D02*
X03100Y01600D01*
X03616Y01896D02*
X03320Y01600D01*
X03616Y02148D02*
X03616Y01896D01*
X03872Y02148D02*
X03872Y01770D01*
X03900Y00900D02*
X03870Y00870D01*
X03872Y01770D02*
X03872Y01766D01*
X03900Y01670D02*
X03900Y00900D01*
X03870Y00870D02*
X02870Y00870D01*
X02870Y00870D02*
X02500Y00500D01*
X03872Y01770D02*
X03872Y01698D01*
X03872Y01698D02*
X03900Y01670D01*
X05152Y02148D02*
X05152Y01748D01*
X05350Y01550D02*
X05750Y01550D01*
X05152Y01748D02*
X05350Y01550D01*
G54D21*
X01175Y04561D02*
X01175Y04556D01*
X01175Y04551D02*
X01450Y04276D01*
X03330Y04940D02*
X03360Y04910D01*
X01175Y04571D02*
X01175Y04561D01*
X01175Y04556D02*
X01175Y04561D01*
X01175Y04711D02*
X01175Y04631D01*
X04640Y04352D02*
X04640Y04920D01*
X01175Y04631D02*
X01175Y04711D01*
X01175Y04872D02*
X01175Y04711D01*
X01175Y04711D02*
X01175Y04872D01*
X01175Y04551D02*
X01175Y04550D01*
X01175Y04552D02*
X01175Y04551D01*
X01175Y04551D02*
X01175Y04552D01*
X01175Y04550D02*
X01175Y04551D01*
X01175Y04552D02*
X01175Y04553D01*
X01175Y04553D02*
X01175Y04552D01*
X01175Y04556D02*
X01175Y04553D01*
X01175Y04553D02*
X01175Y04556D01*
X01450Y04276D02*
X01450Y03775D01*
X01175Y04631D02*
X01175Y04591D01*
X01175Y04561D02*
X01175Y04571D01*
X05765Y04975D02*
X06300Y04975D01*
X01175Y04591D02*
X01175Y04631D01*
X03360Y04910D02*
X03360Y04350D01*
X01175Y04571D02*
X01175Y04591D01*
X05740Y04950D02*
X05765Y04975D01*
X01450Y05200D02*
X01175Y05200D01*
X01700Y04950D02*
X01450Y05200D01*
X01175Y05725D02*
X01175Y05200D01*
X00500Y06400D02*
X01175Y05725D01*
X00500Y06500D02*
X00500Y06400D01*
X01175Y05200D02*
X01175Y04872D01*
X01175Y04872D02*
X01175Y05200D01*
X04640Y04920D02*
X04670Y04950D01*
X01175Y04591D02*
X01175Y04571D01*
G54D10*
X04104Y01744D02*
X04070Y01710D01*
X04106Y01744D02*
X04104Y01744D01*
X04128Y01766D02*
X04106Y01744D01*
X04128Y02148D02*
X04128Y01766D01*
X04210Y00500D02*
X04500Y00500D01*
X04070Y01710D02*
X04070Y00640D01*
X04070Y00640D02*
X04210Y00500D01*
X07182Y01325D02*
X06751Y00894D01*
X07550Y01325D02*
X07182Y01325D01*
X05510Y00894D02*
X05510Y00510D01*
X06751Y00894D02*
X05510Y00894D01*
X05510Y00894D02*
X05500Y00894D01*
X04640Y01754D02*
X04640Y02148D01*
X05510Y00510D02*
X05500Y00500D01*
X05500Y00894D02*
X04640Y01754D01*
X05407Y04352D02*
X05407Y04093D01*
X00525Y03025D02*
X00850Y03350D01*
X03625Y01250D02*
X03180Y01250D01*
X03180Y01250D02*
X03170Y01260D01*
X00500Y03025D02*
X00525Y03025D01*
X03033Y03350D02*
X03429Y02954D01*
X05758Y04352D02*
X05760Y04350D01*
X05407Y04352D02*
X05758Y04352D01*
X06300Y02075D02*
X06845Y02075D01*
X00850Y03350D02*
X03033Y03350D01*
X07043Y03800D02*
X07421Y04178D01*
X05700Y03800D02*
X07043Y03800D01*
X05407Y04093D02*
X05700Y03800D01*
X02000Y04945D02*
X02593Y04352D01*
X00500Y02325D02*
X00500Y03025D01*
X02000Y05351D02*
X02000Y04945D01*
X02593Y04352D02*
X02102Y04352D01*
X02102Y04352D02*
X02100Y04350D01*
X06845Y02075D02*
X06860Y02060D01*
G54D21*
X02000Y05647D02*
X02000Y05351D01*
X02625Y05945D02*
X02590Y05980D01*
X00425Y05200D02*
X00425Y04550D01*
X00425Y05200D02*
X00425Y04550D01*
X02625Y05500D02*
X02625Y05945D01*
X00425Y05725D02*
X00425Y05200D01*
X01680Y06500D02*
X02180Y06000D01*
X02180Y06000D02*
X02570Y06000D01*
X01500Y06500D02*
X01680Y06500D01*
X02333Y05980D02*
X02000Y05647D01*
X05375Y05875D02*
X05375Y05500D01*
X05470Y05970D02*
X05375Y05875D01*
X02570Y06000D02*
X02590Y05980D01*
X05470Y05970D02*
X06055Y05970D01*
X00400Y05750D02*
X00425Y05725D01*
X02590Y05980D02*
X02333Y05980D01*
X06055Y05970D02*
X06300Y05725D01*
G54D10*
X05407Y02148D02*
X05407Y02531D01*
X06173Y02531D02*
X06442Y02800D01*
X05407Y02531D02*
X06173Y02531D01*
X06850Y02800D02*
X06442Y02800D01*
X06279Y04178D02*
X06608Y04178D01*
X06608Y04215D02*
X06608Y04178D01*
X07100Y04707D02*
X06608Y04215D01*
X07100Y04975D02*
X07100Y04707D01*
X04384Y02148D02*
X04384Y01259D01*
X04384Y01259D02*
X04375Y01250D01*
X01850Y01200D02*
X00607Y01200D01*
X00607Y01200D02*
X00500Y01307D01*
X00500Y01575D02*
X00500Y01307D01*
X02700Y01400D02*
X02050Y01400D01*
X02050Y01400D02*
X01850Y01200D01*
X03030Y01730D02*
X02700Y01400D01*
X03230Y01730D02*
X03030Y01730D01*
X03360Y01860D02*
X03230Y01730D01*
X03360Y02148D02*
X03360Y01860D01*
G54D21*
X04384Y05259D02*
X04625Y05500D01*
X04384Y04352D02*
X04384Y05259D01*
G54D10*
X02593Y02148D02*
X01627Y02148D01*
X01627Y02148D02*
X01450Y02325D01*
X02672Y01575D02*
X01450Y01575D01*
X02848Y01751D02*
X02672Y01575D01*
X02848Y02148D02*
X02848Y01751D01*
X03104Y02148D02*
X03104Y02470D01*
X03104Y02496D02*
X03000Y02600D01*
X03104Y02470D02*
X03104Y02471D01*
X03000Y02600D02*
X01875Y02600D01*
X01875Y02600D02*
X01450Y03025D01*
X03104Y02470D02*
X03104Y02496D01*
G54D21*
X03616Y05259D02*
X03375Y05500D01*
X03616Y04352D02*
X03616Y05259D01*
G54D10*
X04896Y02148D02*
X04896Y01766D01*
X04896Y01766D02*
X05337Y01325D01*
X07007Y05993D02*
X07100Y05993D01*
X06500Y06500D02*
X07007Y05993D01*
X07100Y05725D02*
X07100Y05993D01*
X05337Y01325D02*
X06300Y01325D01*
X07100Y05725D02*
X07100Y05457D01*
X07550Y02209D02*
X07751Y02410D01*
X07751Y02410D02*
X07751Y05074D01*
X06668Y01327D02*
X07550Y02209D01*
X06668Y01325D02*
X06668Y01327D01*
X07368Y05457D02*
X07100Y05457D01*
X07751Y05074D02*
X07368Y05457D01*
X06300Y01325D02*
X06668Y01325D01*
X07550Y02075D02*
X07550Y02209D01*
M02*
