G04 (created by PCBNEW-RS274X (2012-01-19 BZR 3256)-stable) date 24/08/2012 17:37:12*
G01*
G70*
G90*
%MOIN*%
G04 Gerber Fmt 3.4, Leading zero omitted, Abs format*
%FSLAX34Y34*%
G04 APERTURE LIST*
%ADD10C,0.006000*%
%ADD11R,0.114500X0.106600*%
%ADD12R,0.083000X0.098700*%
%ADD13R,0.050000X0.040000*%
%ADD14R,0.055000X0.075000*%
%ADD15R,0.075000X0.055000*%
%ADD16R,0.065000X0.045000*%
%ADD17C,0.075000*%
%ADD18O,0.067200X0.079100*%
%ADD19R,0.075000X0.030500*%
%ADD20R,0.030500X0.075000*%
%ADD21R,0.060000X0.060000*%
%ADD22C,0.060000*%
G04 APERTURE END LIST*
G54D10*
G54D11*
X04343Y05656D03*
X04343Y03844D03*
G54D12*
X16593Y05187D03*
X16593Y07313D03*
X16593Y03813D03*
X16593Y01687D03*
G54D13*
X01593Y06125D03*
X01593Y06875D03*
X00593Y06125D03*
X01593Y06500D03*
X00593Y06875D03*
G54D14*
X00718Y05000D03*
X01468Y05000D03*
G54D15*
X12843Y06625D03*
X12843Y05875D03*
X13583Y06625D03*
X13583Y05875D03*
X12043Y02675D03*
X12043Y01925D03*
X06843Y03375D03*
X06843Y04125D03*
G54D14*
X07058Y06140D03*
X06308Y06140D03*
X08098Y07210D03*
X08848Y07210D03*
X14468Y03250D03*
X15218Y03250D03*
X15218Y02450D03*
X14468Y02450D03*
X04718Y07000D03*
X03968Y07000D03*
X04718Y02250D03*
X03968Y02250D03*
G54D16*
X05343Y04950D03*
X05343Y05550D03*
X05343Y04500D03*
X05343Y03900D03*
G54D17*
X04343Y00500D03*
X09343Y08500D03*
X08343Y08500D03*
X06343Y08500D03*
X05343Y08500D03*
X12343Y00500D03*
X13343Y00500D03*
X14343Y00500D03*
X15343Y00500D03*
X16343Y00500D03*
X17343Y00500D03*
X10343Y08500D03*
X03343Y00500D03*
X02343Y00500D03*
X01343Y00500D03*
X02343Y08500D03*
X03343Y08500D03*
G54D18*
X00343Y00500D03*
G54D17*
X13343Y08500D03*
X06343Y00500D03*
X07343Y00500D03*
X08343Y00500D03*
X18343Y00500D03*
G54D18*
X19343Y08500D03*
G54D17*
X18343Y08500D03*
X17343Y08500D03*
X16343Y08500D03*
X15343Y08500D03*
X14343Y08500D03*
X05343Y00500D03*
G54D18*
X19343Y00500D03*
X00343Y08500D03*
G54D17*
X04343Y08500D03*
X07343Y08500D03*
X09343Y00500D03*
X10343Y00500D03*
X11343Y00500D03*
X12343Y08500D03*
X11343Y08500D03*
G54D19*
X08093Y05584D03*
G54D20*
X08759Y02750D03*
G54D19*
X11593Y03416D03*
G54D20*
X10927Y06250D03*
G54D19*
X08093Y05387D03*
G54D20*
X08956Y02750D03*
G54D19*
X11593Y03613D03*
G54D20*
X10730Y06250D03*
G54D19*
X08093Y05190D03*
G54D20*
X09153Y02750D03*
G54D19*
X11593Y03810D03*
G54D20*
X10533Y06250D03*
G54D19*
X08093Y04993D03*
G54D20*
X09350Y02750D03*
G54D19*
X11593Y04007D03*
G54D20*
X10336Y06250D03*
G54D19*
X08093Y04796D03*
G54D20*
X09547Y02750D03*
G54D19*
X11593Y04204D03*
G54D20*
X10139Y06250D03*
G54D19*
X08093Y04599D03*
G54D20*
X09744Y02750D03*
G54D19*
X11593Y04401D03*
G54D20*
X09942Y06250D03*
G54D19*
X08093Y04402D03*
G54D20*
X09941Y02750D03*
G54D19*
X11593Y04598D03*
G54D20*
X09745Y06250D03*
G54D19*
X08093Y04205D03*
G54D20*
X10138Y02750D03*
G54D19*
X11593Y04795D03*
G54D20*
X09548Y06250D03*
G54D19*
X08093Y04008D03*
G54D20*
X10335Y02750D03*
G54D19*
X11593Y04992D03*
G54D20*
X09351Y06250D03*
G54D19*
X08093Y03811D03*
G54D20*
X10532Y02750D03*
G54D19*
X11593Y05189D03*
G54D20*
X09154Y06250D03*
G54D19*
X08093Y03614D03*
G54D20*
X10729Y02750D03*
G54D19*
X11593Y05386D03*
G54D20*
X08957Y06250D03*
G54D19*
X08093Y03417D03*
G54D20*
X10926Y02750D03*
G54D19*
X11593Y05583D03*
G54D20*
X08760Y06250D03*
G54D14*
X15218Y05000D03*
X14468Y05000D03*
X14468Y04200D03*
X15218Y04200D03*
G54D17*
X01343Y08500D03*
G54D21*
X18843Y03500D03*
G54D22*
X18343Y03500D03*
X18843Y04000D03*
X18343Y04000D03*
X18843Y04500D03*
X18343Y04500D03*
X18843Y05000D03*
X18343Y05000D03*
X18843Y05500D03*
X18343Y05500D03*
M02*
