G04 (created by PCBNEW-RS274X (2012-01-19 BZR 3256)-stable) date 24/08/2012 17:37:12*
G01*
G70*
G90*
%MOIN*%
G04 Gerber Fmt 3.4, Leading zero omitted, Abs format*
%FSLAX34Y34*%
G04 APERTURE LIST*
%ADD10C,0.006000*%
%ADD11C,0.075000*%
%ADD12O,0.067200X0.079100*%
%ADD13R,0.060000X0.060000*%
%ADD14C,0.060000*%
G04 APERTURE END LIST*
G54D10*
G54D11*
X04343Y00500D03*
X09343Y08500D03*
X08343Y08500D03*
X06343Y08500D03*
X05343Y08500D03*
X12343Y00500D03*
X13343Y00500D03*
X14343Y00500D03*
X15343Y00500D03*
X16343Y00500D03*
X17343Y00500D03*
X10343Y08500D03*
X03343Y00500D03*
X02343Y00500D03*
X01343Y00500D03*
X02343Y08500D03*
X03343Y08500D03*
G54D12*
X00343Y00500D03*
G54D11*
X13343Y08500D03*
X06343Y00500D03*
X07343Y00500D03*
X08343Y00500D03*
X18343Y00500D03*
G54D12*
X19343Y08500D03*
G54D11*
X18343Y08500D03*
X17343Y08500D03*
X16343Y08500D03*
X15343Y08500D03*
X14343Y08500D03*
X05343Y00500D03*
G54D12*
X19343Y00500D03*
X00343Y08500D03*
G54D11*
X04343Y08500D03*
X07343Y08500D03*
X09343Y00500D03*
X10343Y00500D03*
X11343Y00500D03*
X12343Y08500D03*
X11343Y08500D03*
X01343Y08500D03*
G54D13*
X18843Y03500D03*
G54D14*
X18343Y03500D03*
X18843Y04000D03*
X18343Y04000D03*
X18843Y04500D03*
X18343Y04500D03*
X18843Y05000D03*
X18343Y05000D03*
X18843Y05500D03*
X18343Y05500D03*
M02*
