G04 (created by PCBNEW-RS274X (2012-01-19 BZR 3256)-stable) date 24/08/2012 17:37:12*
G01*
G70*
G90*
%MOIN*%
G04 Gerber Fmt 3.4, Leading zero omitted, Abs format*
%FSLAX34Y34*%
G04 APERTURE LIST*
%ADD10C,0.006000*%
%ADD11C,0.008000*%
%ADD12C,0.003900*%
%ADD13C,0.002000*%
%ADD14C,0.005000*%
G04 APERTURE END LIST*
G54D10*
G54D11*
X00000Y09213D02*
X19686Y09213D01*
X00000Y09000D02*
X00000Y08000D01*
X19686Y09000D02*
X00001Y09000D01*
X19686Y08000D02*
X19686Y09000D01*
X00000Y08000D02*
X19686Y08000D01*
X19686Y00000D02*
X00000Y00000D01*
X19686Y01000D02*
X19686Y00000D01*
X00001Y01000D02*
X19686Y01000D01*
X00000Y00000D02*
X00000Y01000D01*
G54D12*
X06076Y02042D02*
X06121Y02025D01*
X06136Y02008D01*
X06151Y01975D01*
X06151Y01924D01*
X06136Y01890D01*
X06121Y01874D01*
X06091Y01857D01*
X05971Y01857D01*
X05971Y02211D01*
X06076Y02211D01*
X06106Y02194D01*
X06121Y02177D01*
X06136Y02143D01*
X06136Y02110D01*
X06121Y02076D01*
X06106Y02059D01*
X06076Y02042D01*
X05971Y02042D01*
X06331Y01857D02*
X06301Y01874D01*
X06286Y01890D01*
X06271Y01924D01*
X06271Y02025D01*
X06286Y02059D01*
X06301Y02076D01*
X06331Y02093D01*
X06376Y02093D01*
X06406Y02076D01*
X06421Y02059D01*
X06436Y02025D01*
X06436Y01924D01*
X06421Y01890D01*
X06406Y01874D01*
X06376Y01857D01*
X06331Y01857D01*
X06571Y01857D02*
X06571Y02211D01*
X06571Y02076D02*
X06601Y02093D01*
X06661Y02093D01*
X06691Y02076D01*
X06706Y02059D01*
X06721Y02025D01*
X06721Y01924D01*
X06706Y01890D01*
X06691Y01874D01*
X06661Y01857D01*
X06601Y01857D01*
X06571Y01874D01*
X07276Y01890D02*
X07261Y01874D01*
X07216Y01857D01*
X07186Y01857D01*
X07141Y01874D01*
X07111Y01907D01*
X07096Y01941D01*
X07081Y02008D01*
X07081Y02059D01*
X07096Y02126D01*
X07111Y02160D01*
X07141Y02194D01*
X07186Y02211D01*
X07216Y02211D01*
X07261Y02194D01*
X07276Y02177D01*
X07456Y01857D02*
X07426Y01874D01*
X07411Y01890D01*
X07396Y01924D01*
X07396Y02025D01*
X07411Y02059D01*
X07426Y02076D01*
X07456Y02093D01*
X07501Y02093D01*
X07531Y02076D01*
X07546Y02059D01*
X07561Y02025D01*
X07561Y01924D01*
X07546Y01890D01*
X07531Y01874D01*
X07501Y01857D01*
X07456Y01857D01*
X07831Y02093D02*
X07831Y01857D01*
X07696Y02093D02*
X07696Y01907D01*
X07711Y01874D01*
X07741Y01857D01*
X07786Y01857D01*
X07816Y01874D01*
X07831Y01890D01*
X07966Y01874D02*
X07996Y01857D01*
X08056Y01857D01*
X08086Y01874D01*
X08101Y01907D01*
X08101Y01924D01*
X08086Y01958D01*
X08056Y01975D01*
X08011Y01975D01*
X07981Y01992D01*
X07966Y02025D01*
X07966Y02042D01*
X07981Y02076D01*
X08011Y02093D01*
X08056Y02093D01*
X08086Y02076D01*
X08236Y01857D02*
X08236Y02093D01*
X08236Y02211D02*
X08221Y02194D01*
X08236Y02177D01*
X08251Y02194D01*
X08236Y02211D01*
X08236Y02177D01*
X08386Y02093D02*
X08386Y01857D01*
X08386Y02059D02*
X08401Y02076D01*
X08431Y02093D01*
X08476Y02093D01*
X08506Y02076D01*
X08521Y02042D01*
X08521Y01857D01*
X08656Y01874D02*
X08686Y01857D01*
X08746Y01857D01*
X08776Y01874D01*
X08791Y01907D01*
X08791Y01924D01*
X08776Y01958D01*
X08746Y01975D01*
X08701Y01975D01*
X08671Y01992D01*
X08656Y02025D01*
X08656Y02042D01*
X08671Y02076D01*
X08701Y02093D01*
X08746Y02093D01*
X08776Y02076D01*
X09151Y02177D02*
X09166Y02194D01*
X09196Y02211D01*
X09271Y02211D01*
X09301Y02194D01*
X09316Y02177D01*
X09331Y02143D01*
X09331Y02110D01*
X09316Y02059D01*
X09136Y01857D01*
X09331Y01857D01*
X09526Y02211D02*
X09556Y02211D01*
X09586Y02194D01*
X09601Y02177D01*
X09616Y02143D01*
X09631Y02076D01*
X09631Y01992D01*
X09616Y01924D01*
X09601Y01890D01*
X09586Y01874D01*
X09556Y01857D01*
X09526Y01857D01*
X09496Y01874D01*
X09481Y01890D01*
X09466Y01924D01*
X09451Y01992D01*
X09451Y02076D01*
X09466Y02143D01*
X09481Y02177D01*
X09496Y02194D01*
X09526Y02211D01*
X09931Y01857D02*
X09751Y01857D01*
X09841Y01857D02*
X09841Y02211D01*
X09811Y02160D01*
X09781Y02126D01*
X09751Y02110D01*
X10051Y02177D02*
X10066Y02194D01*
X10096Y02211D01*
X10171Y02211D01*
X10201Y02194D01*
X10216Y02177D01*
X10231Y02143D01*
X10231Y02110D01*
X10216Y02059D01*
X10036Y01857D01*
X10231Y01857D01*
X05873Y01374D02*
X05918Y01357D01*
X05993Y01357D01*
X06023Y01374D01*
X06038Y01390D01*
X06053Y01424D01*
X06053Y01458D01*
X06038Y01492D01*
X06023Y01508D01*
X05993Y01525D01*
X05933Y01542D01*
X05903Y01559D01*
X05888Y01576D01*
X05873Y01610D01*
X05873Y01643D01*
X05888Y01677D01*
X05903Y01694D01*
X05933Y01711D01*
X06008Y01711D01*
X06053Y01694D01*
X06143Y01711D02*
X06323Y01711D01*
X06233Y01357D02*
X06233Y01711D01*
X06428Y01357D02*
X06428Y01711D01*
X06533Y01458D01*
X06638Y01711D01*
X06638Y01357D01*
X06758Y01711D02*
X06953Y01711D01*
X06848Y01576D01*
X06893Y01576D01*
X06923Y01559D01*
X06938Y01542D01*
X06953Y01508D01*
X06953Y01424D01*
X06938Y01390D01*
X06923Y01374D01*
X06893Y01357D01*
X06803Y01357D01*
X06773Y01374D01*
X06758Y01390D01*
X07073Y01677D02*
X07088Y01694D01*
X07118Y01711D01*
X07193Y01711D01*
X07223Y01694D01*
X07238Y01677D01*
X07253Y01643D01*
X07253Y01610D01*
X07238Y01559D01*
X07058Y01357D01*
X07253Y01357D01*
X07493Y01542D02*
X07388Y01542D01*
X07388Y01357D02*
X07388Y01711D01*
X07538Y01711D01*
X07823Y01357D02*
X07643Y01357D01*
X07733Y01357D02*
X07733Y01711D01*
X07703Y01660D01*
X07673Y01626D01*
X07643Y01610D01*
X08018Y01711D02*
X08048Y01711D01*
X08078Y01694D01*
X08093Y01677D01*
X08108Y01643D01*
X08123Y01576D01*
X08123Y01492D01*
X08108Y01424D01*
X08093Y01390D01*
X08078Y01374D01*
X08048Y01357D01*
X08018Y01357D01*
X07988Y01374D01*
X07973Y01390D01*
X07958Y01424D01*
X07943Y01492D01*
X07943Y01576D01*
X07958Y01643D01*
X07973Y01677D01*
X07988Y01694D01*
X08018Y01711D01*
X08318Y01711D02*
X08348Y01711D01*
X08378Y01694D01*
X08393Y01677D01*
X08408Y01643D01*
X08423Y01576D01*
X08423Y01492D01*
X08408Y01424D01*
X08393Y01390D01*
X08378Y01374D01*
X08348Y01357D01*
X08318Y01357D01*
X08288Y01374D01*
X08273Y01390D01*
X08258Y01424D01*
X08243Y01492D01*
X08243Y01576D01*
X08258Y01643D01*
X08273Y01677D01*
X08288Y01694D01*
X08318Y01711D01*
X08798Y01357D02*
X08798Y01711D01*
X08903Y01458D01*
X09008Y01711D01*
X09008Y01357D01*
X09203Y01357D02*
X09173Y01374D01*
X09158Y01390D01*
X09143Y01424D01*
X09143Y01525D01*
X09158Y01559D01*
X09173Y01576D01*
X09203Y01593D01*
X09248Y01593D01*
X09278Y01576D01*
X09293Y01559D01*
X09308Y01525D01*
X09308Y01424D01*
X09293Y01390D01*
X09278Y01374D01*
X09248Y01357D01*
X09203Y01357D01*
X09578Y01357D02*
X09578Y01711D01*
X09578Y01374D02*
X09548Y01357D01*
X09488Y01357D01*
X09458Y01374D01*
X09443Y01390D01*
X09428Y01424D01*
X09428Y01525D01*
X09443Y01559D01*
X09458Y01576D01*
X09488Y01593D01*
X09548Y01593D01*
X09578Y01576D01*
X09863Y01593D02*
X09863Y01357D01*
X09728Y01593D02*
X09728Y01407D01*
X09743Y01374D01*
X09773Y01357D01*
X09818Y01357D01*
X09848Y01374D01*
X09863Y01390D01*
X10058Y01357D02*
X10028Y01374D01*
X10013Y01407D01*
X10013Y01711D01*
X10298Y01374D02*
X10268Y01357D01*
X10208Y01357D01*
X10178Y01374D01*
X10163Y01407D01*
X10163Y01542D01*
X10178Y01576D01*
X10208Y01593D01*
X10268Y01593D01*
X10298Y01576D01*
X10313Y01542D01*
X10313Y01508D01*
X10163Y01475D01*
G54D13*
X04973Y03766D02*
X04973Y03569D01*
X04973Y03569D02*
X03713Y03569D01*
X03713Y03569D02*
X03713Y03766D01*
X03713Y05734D02*
X03713Y05931D01*
X03713Y05931D02*
X04973Y05931D01*
X04973Y05931D02*
X04973Y05734D01*
X03951Y05735D02*
X04738Y05735D01*
X03951Y05734D02*
X04738Y05734D01*
X03951Y05734D02*
X04738Y05734D01*
X03951Y05734D02*
X04738Y05734D01*
X04737Y03766D02*
X03950Y03766D01*
X04737Y03766D02*
X03950Y03766D01*
X04737Y03766D02*
X03950Y03766D01*
X04737Y03766D02*
X03950Y03766D01*
X04973Y05734D02*
X04973Y03766D01*
X04973Y03766D02*
X03713Y03766D01*
X03713Y03766D02*
X03713Y05734D01*
X03713Y05734D02*
X04973Y05734D01*
G54D11*
X17065Y05069D02*
X17302Y05069D01*
X17302Y05069D02*
X17302Y07431D01*
X17302Y07431D02*
X17065Y07431D01*
X15884Y05069D02*
X16081Y05069D01*
X15884Y05069D02*
X15884Y07431D01*
X15884Y07431D02*
X16081Y07431D01*
X16121Y03931D02*
X15884Y03931D01*
X15884Y03931D02*
X15884Y01569D01*
X15884Y01569D02*
X16121Y01569D01*
X17302Y03931D02*
X17105Y03931D01*
X17302Y03931D02*
X17302Y01569D01*
X17302Y01569D02*
X17105Y01569D01*
G54D14*
X00743Y07100D02*
X01443Y07100D01*
X01443Y07100D02*
X01443Y05900D01*
X01443Y05900D02*
X00743Y05900D01*
X00743Y05900D02*
X00743Y07100D01*
X00493Y04700D02*
X00492Y04691D01*
X00489Y04681D01*
X00484Y04673D01*
X00478Y04665D01*
X00470Y04659D01*
X00462Y04654D01*
X00453Y04652D01*
X00443Y04651D01*
X00434Y04651D01*
X00425Y04654D01*
X00416Y04659D01*
X00409Y04665D01*
X00402Y04672D01*
X00398Y04681D01*
X00395Y04690D01*
X00394Y04700D01*
X00394Y04709D01*
X00397Y04718D01*
X00401Y04727D01*
X00408Y04734D01*
X00415Y04741D01*
X00423Y04745D01*
X00433Y04748D01*
X00442Y04749D01*
X00451Y04749D01*
X00461Y04746D01*
X00469Y04742D01*
X00477Y04736D01*
X00483Y04728D01*
X00488Y04720D01*
X00491Y04711D01*
X00492Y04701D01*
X00493Y04700D01*
X00893Y04700D02*
X00493Y04700D01*
X00493Y04700D02*
X00493Y05300D01*
X00493Y05300D02*
X00893Y05300D01*
X01293Y05300D02*
X01693Y05300D01*
X01693Y05300D02*
X01693Y04700D01*
X01693Y04700D02*
X01293Y04700D01*
X12593Y06900D02*
X12592Y06891D01*
X12589Y06881D01*
X12584Y06873D01*
X12578Y06865D01*
X12570Y06859D01*
X12562Y06854D01*
X12553Y06852D01*
X12543Y06851D01*
X12534Y06851D01*
X12525Y06854D01*
X12516Y06859D01*
X12509Y06865D01*
X12502Y06872D01*
X12498Y06881D01*
X12495Y06890D01*
X12494Y06900D01*
X12494Y06909D01*
X12497Y06918D01*
X12501Y06927D01*
X12508Y06934D01*
X12515Y06941D01*
X12523Y06945D01*
X12533Y06948D01*
X12542Y06949D01*
X12551Y06949D01*
X12561Y06946D01*
X12569Y06942D01*
X12577Y06936D01*
X12583Y06928D01*
X12588Y06920D01*
X12591Y06911D01*
X12592Y06901D01*
X12593Y06900D01*
X12543Y06450D02*
X12543Y06850D01*
X12543Y06850D02*
X13143Y06850D01*
X13143Y06850D02*
X13143Y06450D01*
X13143Y06050D02*
X13143Y05650D01*
X13143Y05650D02*
X12543Y05650D01*
X12543Y05650D02*
X12543Y06050D01*
X13333Y06900D02*
X13332Y06891D01*
X13329Y06881D01*
X13324Y06873D01*
X13318Y06865D01*
X13310Y06859D01*
X13302Y06854D01*
X13293Y06852D01*
X13283Y06851D01*
X13274Y06851D01*
X13265Y06854D01*
X13256Y06859D01*
X13249Y06865D01*
X13242Y06872D01*
X13238Y06881D01*
X13235Y06890D01*
X13234Y06900D01*
X13234Y06909D01*
X13237Y06918D01*
X13241Y06927D01*
X13248Y06934D01*
X13255Y06941D01*
X13263Y06945D01*
X13273Y06948D01*
X13282Y06949D01*
X13291Y06949D01*
X13301Y06946D01*
X13309Y06942D01*
X13317Y06936D01*
X13323Y06928D01*
X13328Y06920D01*
X13331Y06911D01*
X13332Y06901D01*
X13333Y06900D01*
X13283Y06450D02*
X13283Y06850D01*
X13283Y06850D02*
X13883Y06850D01*
X13883Y06850D02*
X13883Y06450D01*
X13883Y06050D02*
X13883Y05650D01*
X13883Y05650D02*
X13283Y05650D01*
X13283Y05650D02*
X13283Y06050D01*
X11793Y02950D02*
X11792Y02941D01*
X11789Y02931D01*
X11784Y02923D01*
X11778Y02915D01*
X11770Y02909D01*
X11762Y02904D01*
X11753Y02902D01*
X11743Y02901D01*
X11734Y02901D01*
X11725Y02904D01*
X11716Y02909D01*
X11709Y02915D01*
X11702Y02922D01*
X11698Y02931D01*
X11695Y02940D01*
X11694Y02950D01*
X11694Y02959D01*
X11697Y02968D01*
X11701Y02977D01*
X11708Y02984D01*
X11715Y02991D01*
X11723Y02995D01*
X11733Y02998D01*
X11742Y02999D01*
X11751Y02999D01*
X11761Y02996D01*
X11769Y02992D01*
X11777Y02986D01*
X11783Y02978D01*
X11788Y02970D01*
X11791Y02961D01*
X11792Y02951D01*
X11793Y02950D01*
X11743Y02500D02*
X11743Y02900D01*
X11743Y02900D02*
X12343Y02900D01*
X12343Y02900D02*
X12343Y02500D01*
X12343Y02100D02*
X12343Y01700D01*
X12343Y01700D02*
X11743Y01700D01*
X11743Y01700D02*
X11743Y02100D01*
X07193Y03100D02*
X07192Y03091D01*
X07189Y03081D01*
X07184Y03073D01*
X07178Y03065D01*
X07170Y03059D01*
X07162Y03054D01*
X07153Y03052D01*
X07143Y03051D01*
X07134Y03051D01*
X07125Y03054D01*
X07116Y03059D01*
X07109Y03065D01*
X07102Y03072D01*
X07098Y03081D01*
X07095Y03090D01*
X07094Y03100D01*
X07094Y03109D01*
X07097Y03118D01*
X07101Y03127D01*
X07108Y03134D01*
X07115Y03141D01*
X07123Y03145D01*
X07133Y03148D01*
X07142Y03149D01*
X07151Y03149D01*
X07161Y03146D01*
X07169Y03142D01*
X07177Y03136D01*
X07183Y03128D01*
X07188Y03120D01*
X07191Y03111D01*
X07192Y03101D01*
X07193Y03100D01*
X07143Y03550D02*
X07143Y03150D01*
X07143Y03150D02*
X06543Y03150D01*
X06543Y03150D02*
X06543Y03550D01*
X06543Y03950D02*
X06543Y04350D01*
X06543Y04350D02*
X07143Y04350D01*
X07143Y04350D02*
X07143Y03950D01*
X07383Y06440D02*
X07382Y06431D01*
X07379Y06421D01*
X07374Y06413D01*
X07368Y06405D01*
X07360Y06399D01*
X07352Y06394D01*
X07343Y06392D01*
X07333Y06391D01*
X07324Y06391D01*
X07315Y06394D01*
X07306Y06399D01*
X07299Y06405D01*
X07292Y06412D01*
X07288Y06421D01*
X07285Y06430D01*
X07284Y06440D01*
X07284Y06449D01*
X07287Y06458D01*
X07291Y06467D01*
X07298Y06474D01*
X07305Y06481D01*
X07313Y06485D01*
X07323Y06488D01*
X07332Y06489D01*
X07341Y06489D01*
X07351Y06486D01*
X07359Y06482D01*
X07367Y06476D01*
X07373Y06468D01*
X07378Y06460D01*
X07381Y06451D01*
X07382Y06441D01*
X07383Y06440D01*
X06883Y06440D02*
X07283Y06440D01*
X07283Y06440D02*
X07283Y05840D01*
X07283Y05840D02*
X06883Y05840D01*
X06483Y05840D02*
X06083Y05840D01*
X06083Y05840D02*
X06083Y06440D01*
X06083Y06440D02*
X06483Y06440D01*
X07873Y06910D02*
X07872Y06901D01*
X07869Y06891D01*
X07864Y06883D01*
X07858Y06875D01*
X07850Y06869D01*
X07842Y06864D01*
X07833Y06862D01*
X07823Y06861D01*
X07814Y06861D01*
X07805Y06864D01*
X07796Y06869D01*
X07789Y06875D01*
X07782Y06882D01*
X07778Y06891D01*
X07775Y06900D01*
X07774Y06910D01*
X07774Y06919D01*
X07777Y06928D01*
X07781Y06937D01*
X07788Y06944D01*
X07795Y06951D01*
X07803Y06955D01*
X07813Y06958D01*
X07822Y06959D01*
X07831Y06959D01*
X07841Y06956D01*
X07849Y06952D01*
X07857Y06946D01*
X07863Y06938D01*
X07868Y06930D01*
X07871Y06921D01*
X07872Y06911D01*
X07873Y06910D01*
X08273Y06910D02*
X07873Y06910D01*
X07873Y06910D02*
X07873Y07510D01*
X07873Y07510D02*
X08273Y07510D01*
X08673Y07510D02*
X09073Y07510D01*
X09073Y07510D02*
X09073Y06910D01*
X09073Y06910D02*
X08673Y06910D01*
X14243Y02950D02*
X14242Y02941D01*
X14239Y02931D01*
X14234Y02923D01*
X14228Y02915D01*
X14220Y02909D01*
X14212Y02904D01*
X14203Y02902D01*
X14193Y02901D01*
X14184Y02901D01*
X14175Y02904D01*
X14166Y02909D01*
X14159Y02915D01*
X14152Y02922D01*
X14148Y02931D01*
X14145Y02940D01*
X14144Y02950D01*
X14144Y02959D01*
X14147Y02968D01*
X14151Y02977D01*
X14158Y02984D01*
X14165Y02991D01*
X14173Y02995D01*
X14183Y02998D01*
X14192Y02999D01*
X14201Y02999D01*
X14211Y02996D01*
X14219Y02992D01*
X14227Y02986D01*
X14233Y02978D01*
X14238Y02970D01*
X14241Y02961D01*
X14242Y02951D01*
X14243Y02950D01*
X14643Y02950D02*
X14243Y02950D01*
X14243Y02950D02*
X14243Y03550D01*
X14243Y03550D02*
X14643Y03550D01*
X15043Y03550D02*
X15443Y03550D01*
X15443Y03550D02*
X15443Y02950D01*
X15443Y02950D02*
X15043Y02950D01*
X15543Y02750D02*
X15542Y02741D01*
X15539Y02731D01*
X15534Y02723D01*
X15528Y02715D01*
X15520Y02709D01*
X15512Y02704D01*
X15503Y02702D01*
X15493Y02701D01*
X15484Y02701D01*
X15475Y02704D01*
X15466Y02709D01*
X15459Y02715D01*
X15452Y02722D01*
X15448Y02731D01*
X15445Y02740D01*
X15444Y02750D01*
X15444Y02759D01*
X15447Y02768D01*
X15451Y02777D01*
X15458Y02784D01*
X15465Y02791D01*
X15473Y02795D01*
X15483Y02798D01*
X15492Y02799D01*
X15501Y02799D01*
X15511Y02796D01*
X15519Y02792D01*
X15527Y02786D01*
X15533Y02778D01*
X15538Y02770D01*
X15541Y02761D01*
X15542Y02751D01*
X15543Y02750D01*
X15043Y02750D02*
X15443Y02750D01*
X15443Y02750D02*
X15443Y02150D01*
X15443Y02150D02*
X15043Y02150D01*
X14643Y02150D02*
X14243Y02150D01*
X14243Y02150D02*
X14243Y02750D01*
X14243Y02750D02*
X14643Y02750D01*
X05043Y07300D02*
X05042Y07291D01*
X05039Y07281D01*
X05034Y07273D01*
X05028Y07265D01*
X05020Y07259D01*
X05012Y07254D01*
X05003Y07252D01*
X04993Y07251D01*
X04984Y07251D01*
X04975Y07254D01*
X04966Y07259D01*
X04959Y07265D01*
X04952Y07272D01*
X04948Y07281D01*
X04945Y07290D01*
X04944Y07300D01*
X04944Y07309D01*
X04947Y07318D01*
X04951Y07327D01*
X04958Y07334D01*
X04965Y07341D01*
X04973Y07345D01*
X04983Y07348D01*
X04992Y07349D01*
X05001Y07349D01*
X05011Y07346D01*
X05019Y07342D01*
X05027Y07336D01*
X05033Y07328D01*
X05038Y07320D01*
X05041Y07311D01*
X05042Y07301D01*
X05043Y07300D01*
X04543Y07300D02*
X04943Y07300D01*
X04943Y07300D02*
X04943Y06700D01*
X04943Y06700D02*
X04543Y06700D01*
X04143Y06700D02*
X03743Y06700D01*
X03743Y06700D02*
X03743Y07300D01*
X03743Y07300D02*
X04143Y07300D01*
X05043Y02550D02*
X05042Y02541D01*
X05039Y02531D01*
X05034Y02523D01*
X05028Y02515D01*
X05020Y02509D01*
X05012Y02504D01*
X05003Y02502D01*
X04993Y02501D01*
X04984Y02501D01*
X04975Y02504D01*
X04966Y02509D01*
X04959Y02515D01*
X04952Y02522D01*
X04948Y02531D01*
X04945Y02540D01*
X04944Y02550D01*
X04944Y02559D01*
X04947Y02568D01*
X04951Y02577D01*
X04958Y02584D01*
X04965Y02591D01*
X04973Y02595D01*
X04983Y02598D01*
X04992Y02599D01*
X05001Y02599D01*
X05011Y02596D01*
X05019Y02592D01*
X05027Y02586D01*
X05033Y02578D01*
X05038Y02570D01*
X05041Y02561D01*
X05042Y02551D01*
X05043Y02550D01*
X04543Y02550D02*
X04943Y02550D01*
X04943Y02550D02*
X04943Y01950D01*
X04943Y01950D02*
X04543Y01950D01*
X04143Y01950D02*
X03743Y01950D01*
X03743Y01950D02*
X03743Y02550D01*
X03743Y02550D02*
X04143Y02550D01*
X05093Y04800D02*
X05093Y05700D01*
X05093Y05700D02*
X05593Y05700D01*
X05593Y05700D02*
X05593Y04800D01*
X05593Y04800D02*
X05093Y04800D01*
X05593Y04650D02*
X05593Y03750D01*
X05593Y03750D02*
X05093Y03750D01*
X05093Y03750D02*
X05093Y04650D01*
X05093Y04650D02*
X05593Y04650D01*
G54D11*
X08470Y06035D02*
X08466Y06004D01*
X08457Y05974D01*
X08442Y05946D01*
X08422Y05921D01*
X08398Y05901D01*
X08370Y05886D01*
X08340Y05877D01*
X08309Y05874D01*
X08278Y05876D01*
X08248Y05885D01*
X08220Y05900D01*
X08195Y05920D01*
X08175Y05944D01*
X08160Y05972D01*
X08150Y06002D01*
X08147Y06033D01*
X08149Y06064D01*
X08158Y06094D01*
X08172Y06122D01*
X08192Y06147D01*
X08216Y06168D01*
X08244Y06183D01*
X08274Y06193D01*
X08305Y06196D01*
X08336Y06194D01*
X08366Y06186D01*
X08394Y06171D01*
X08419Y06152D01*
X08440Y06128D01*
X08455Y06100D01*
X08465Y06070D01*
X08469Y06039D01*
X08470Y06035D01*
X08347Y06035D02*
X08346Y06028D01*
X08344Y06021D01*
X08340Y06014D01*
X08335Y06008D01*
X08329Y06003D01*
X08323Y06000D01*
X08315Y05997D01*
X08308Y05997D01*
X08301Y05997D01*
X08294Y05999D01*
X08287Y06003D01*
X08281Y06008D01*
X08276Y06013D01*
X08273Y06020D01*
X08270Y06027D01*
X08270Y06035D01*
X08270Y06042D01*
X08272Y06049D01*
X08276Y06056D01*
X08280Y06062D01*
X08286Y06067D01*
X08293Y06070D01*
X08300Y06073D01*
X08308Y06073D01*
X08314Y06073D01*
X08322Y06071D01*
X08328Y06067D01*
X08334Y06063D01*
X08339Y06057D01*
X08343Y06050D01*
X08346Y06043D01*
X08346Y06036D01*
X08347Y06035D01*
X08419Y06035D02*
X08416Y06014D01*
X08410Y05993D01*
X08400Y05974D01*
X08386Y05957D01*
X08370Y05943D01*
X08351Y05933D01*
X08330Y05927D01*
X08308Y05925D01*
X08288Y05926D01*
X08267Y05933D01*
X08248Y05943D01*
X08231Y05956D01*
X08217Y05973D01*
X08206Y05992D01*
X08200Y06012D01*
X08198Y06034D01*
X08199Y06055D01*
X08205Y06075D01*
X08215Y06095D01*
X08229Y06112D01*
X08245Y06126D01*
X08264Y06136D01*
X08285Y06143D01*
X08306Y06145D01*
X08327Y06144D01*
X08348Y06138D01*
X08367Y06128D01*
X08384Y06115D01*
X08398Y06098D01*
X08409Y06080D01*
X08416Y06059D01*
X08418Y06038D01*
X08419Y06035D01*
X08701Y05878D02*
X11221Y05878D01*
X11221Y05878D02*
X11221Y03122D01*
X11221Y03122D02*
X08465Y03122D01*
X08465Y03122D02*
X08465Y05642D01*
X08701Y05878D02*
X08465Y05642D01*
G54D14*
X15543Y05300D02*
X15542Y05291D01*
X15539Y05281D01*
X15534Y05273D01*
X15528Y05265D01*
X15520Y05259D01*
X15512Y05254D01*
X15503Y05252D01*
X15493Y05251D01*
X15484Y05251D01*
X15475Y05254D01*
X15466Y05259D01*
X15459Y05265D01*
X15452Y05272D01*
X15448Y05281D01*
X15445Y05290D01*
X15444Y05300D01*
X15444Y05309D01*
X15447Y05318D01*
X15451Y05327D01*
X15458Y05334D01*
X15465Y05341D01*
X15473Y05345D01*
X15483Y05348D01*
X15492Y05349D01*
X15501Y05349D01*
X15511Y05346D01*
X15519Y05342D01*
X15527Y05336D01*
X15533Y05328D01*
X15538Y05320D01*
X15541Y05311D01*
X15542Y05301D01*
X15543Y05300D01*
X15043Y05300D02*
X15443Y05300D01*
X15443Y05300D02*
X15443Y04700D01*
X15443Y04700D02*
X15043Y04700D01*
X14643Y04700D02*
X14243Y04700D01*
X14243Y04700D02*
X14243Y05300D01*
X14243Y05300D02*
X14643Y05300D01*
X14243Y03900D02*
X14242Y03891D01*
X14239Y03881D01*
X14234Y03873D01*
X14228Y03865D01*
X14220Y03859D01*
X14212Y03854D01*
X14203Y03852D01*
X14193Y03851D01*
X14184Y03851D01*
X14175Y03854D01*
X14166Y03859D01*
X14159Y03865D01*
X14152Y03872D01*
X14148Y03881D01*
X14145Y03890D01*
X14144Y03900D01*
X14144Y03909D01*
X14147Y03918D01*
X14151Y03927D01*
X14158Y03934D01*
X14165Y03941D01*
X14173Y03945D01*
X14183Y03948D01*
X14192Y03949D01*
X14201Y03949D01*
X14211Y03946D01*
X14219Y03942D01*
X14227Y03936D01*
X14233Y03928D01*
X14238Y03920D01*
X14241Y03911D01*
X14242Y03901D01*
X14243Y03900D01*
X14643Y03900D02*
X14243Y03900D01*
X14243Y03900D02*
X14243Y04500D01*
X14243Y04500D02*
X14643Y04500D01*
X15043Y04500D02*
X15443Y04500D01*
X15443Y04500D02*
X15443Y03900D01*
X15443Y03900D02*
X15043Y03900D01*
G54D11*
X18869Y03004D02*
X19105Y02728D01*
X19105Y02728D02*
X18672Y02728D01*
X18672Y02728D02*
X18869Y03004D01*
X17893Y05830D02*
X17893Y03170D01*
X19293Y05830D02*
X19293Y03170D01*
X17893Y05830D02*
X19293Y05830D01*
X19293Y03170D02*
X17893Y03170D01*
X19538Y04028D02*
X19538Y03673D01*
X19538Y04972D02*
X19538Y05287D01*
X19538Y03713D02*
X19538Y01744D01*
X19538Y07256D02*
X19538Y05287D01*
X17648Y01744D02*
X17648Y07256D01*
X19538Y07256D02*
X17648Y07256D01*
X19538Y01744D02*
X17648Y01744D01*
X03276Y03362D02*
X03257Y03324D01*
X03238Y03305D01*
X03200Y03286D01*
X03181Y03286D01*
X03143Y03305D01*
X03124Y03324D01*
X03105Y03362D01*
X03105Y03439D01*
X03124Y03477D01*
X03143Y03496D01*
X03181Y03515D01*
X03200Y03515D01*
X03238Y03496D01*
X03257Y03477D01*
X03276Y03439D01*
X03276Y03362D01*
X03295Y03324D01*
X03314Y03305D01*
X03353Y03286D01*
X03429Y03286D01*
X03467Y03305D01*
X03486Y03324D01*
X03505Y03362D01*
X03505Y03439D01*
X03486Y03477D01*
X03467Y03496D01*
X03429Y03515D01*
X03353Y03515D01*
X03314Y03496D01*
X03295Y03477D01*
X03276Y03439D01*
X03505Y03686D02*
X03105Y03686D01*
X03391Y03820D01*
X03105Y03953D01*
X03505Y03953D01*
X03505Y04143D02*
X03105Y04143D01*
X03295Y04143D02*
X03295Y04372D01*
X03505Y04372D02*
X03105Y04372D01*
X03238Y04524D02*
X03238Y04734D01*
X03505Y04524D01*
X03505Y04734D01*
X15272Y05686D02*
X15300Y05772D01*
X15329Y05800D01*
X15386Y05829D01*
X15472Y05829D01*
X15529Y05800D01*
X15557Y05772D01*
X15586Y05714D01*
X15586Y05486D01*
X14986Y05486D01*
X14986Y05686D01*
X15014Y05743D01*
X15043Y05772D01*
X15100Y05800D01*
X15157Y05800D01*
X15214Y05772D01*
X15243Y05743D01*
X15272Y05686D01*
X15272Y05486D01*
X14986Y06200D02*
X14986Y06314D01*
X15014Y06372D01*
X15072Y06429D01*
X15186Y06457D01*
X15386Y06457D01*
X15500Y06429D01*
X15557Y06372D01*
X15586Y06314D01*
X15586Y06200D01*
X15557Y06143D01*
X15500Y06086D01*
X15386Y06057D01*
X15186Y06057D01*
X15072Y06086D01*
X15014Y06143D01*
X14986Y06200D01*
X14986Y06829D02*
X14986Y06943D01*
X15014Y07001D01*
X15072Y07058D01*
X15186Y07086D01*
X15386Y07086D01*
X15500Y07058D01*
X15557Y07001D01*
X15586Y06943D01*
X15586Y06829D01*
X15557Y06772D01*
X15500Y06715D01*
X15386Y06686D01*
X15186Y06686D01*
X15072Y06715D01*
X15014Y06772D01*
X14986Y06829D01*
X14986Y07258D02*
X14986Y07601D01*
X15586Y07430D02*
X14986Y07430D01*
X14665Y01307D02*
X14465Y01593D01*
X14322Y01307D02*
X14322Y01907D01*
X14550Y01907D01*
X14608Y01879D01*
X14636Y01850D01*
X14665Y01793D01*
X14665Y01707D01*
X14636Y01650D01*
X14608Y01621D01*
X14550Y01593D01*
X14322Y01593D01*
X14893Y01336D02*
X14979Y01307D01*
X15122Y01307D01*
X15179Y01336D01*
X15208Y01364D01*
X15236Y01421D01*
X15236Y01479D01*
X15208Y01536D01*
X15179Y01564D01*
X15122Y01593D01*
X15008Y01621D01*
X14950Y01650D01*
X14922Y01679D01*
X14893Y01736D01*
X14893Y01793D01*
X14922Y01850D01*
X14950Y01879D01*
X15008Y01907D01*
X15150Y01907D01*
X15236Y01879D01*
X15407Y01907D02*
X15750Y01907D01*
X15579Y01307D02*
X15579Y01907D01*
G54D14*
X01182Y05828D02*
X01194Y05863D01*
X01194Y05923D01*
X01182Y05947D01*
X01170Y05959D01*
X01147Y05970D01*
X01123Y05970D01*
X01099Y05959D01*
X01087Y05947D01*
X01075Y05923D01*
X01063Y05875D01*
X01051Y05851D01*
X01039Y05840D01*
X01016Y05828D01*
X00992Y05828D01*
X00968Y05840D01*
X00956Y05851D01*
X00944Y05875D01*
X00944Y05935D01*
X00956Y05970D01*
X01194Y06078D02*
X00944Y06078D01*
X00944Y06173D01*
X00956Y06197D01*
X00968Y06208D01*
X00992Y06220D01*
X01028Y06220D01*
X01051Y06208D01*
X01063Y06197D01*
X01075Y06173D01*
X01075Y06078D01*
X00944Y06435D02*
X00944Y06387D01*
X00956Y06363D01*
X00968Y06351D01*
X01004Y06328D01*
X01051Y06316D01*
X01147Y06316D01*
X01170Y06328D01*
X01182Y06339D01*
X01194Y06363D01*
X01194Y06411D01*
X01182Y06435D01*
X01170Y06447D01*
X01147Y06458D01*
X01087Y06458D01*
X01063Y06447D01*
X01051Y06435D01*
X01039Y06411D01*
X01039Y06363D01*
X01051Y06339D01*
X01063Y06328D01*
X01087Y06316D01*
X00968Y06554D02*
X00956Y06566D01*
X00944Y06589D01*
X00944Y06649D01*
X00956Y06673D01*
X00968Y06685D01*
X00992Y06696D01*
X01016Y06696D01*
X01051Y06685D01*
X01194Y06542D01*
X01194Y06696D01*
X00944Y06851D02*
X00944Y06875D01*
X00956Y06899D01*
X00968Y06911D01*
X00992Y06923D01*
X01039Y06934D01*
X01099Y06934D01*
X01147Y06923D01*
X01170Y06911D01*
X01182Y06899D01*
X01194Y06875D01*
X01194Y06851D01*
X01182Y06827D01*
X01170Y06815D01*
X01147Y06804D01*
X01099Y06792D01*
X01039Y06792D01*
X00992Y06804D01*
X00968Y06815D01*
X00956Y06827D01*
X00944Y06851D01*
X00944Y07161D02*
X00944Y07042D01*
X01063Y07030D01*
X01051Y07042D01*
X01039Y07065D01*
X01039Y07125D01*
X01051Y07149D01*
X01063Y07161D01*
X01087Y07172D01*
X01147Y07172D01*
X01170Y07161D01*
X01182Y07149D01*
X01194Y07125D01*
X01194Y07065D01*
X01182Y07042D01*
X01170Y07030D01*
G54D11*
X08120Y04136D02*
X08166Y04120D01*
X08242Y04120D01*
X08272Y04136D01*
X08288Y04151D01*
X08303Y04181D01*
X08303Y04212D01*
X08288Y04242D01*
X08272Y04258D01*
X08242Y04273D01*
X08181Y04288D01*
X08150Y04303D01*
X08135Y04319D01*
X08120Y04349D01*
X08120Y04380D01*
X08135Y04410D01*
X08150Y04425D01*
X08181Y04440D01*
X08257Y04440D01*
X08303Y04425D01*
X08394Y04440D02*
X08577Y04440D01*
X08486Y04120D02*
X08486Y04440D01*
X08684Y04120D02*
X08684Y04440D01*
X08791Y04212D01*
X08898Y04440D01*
X08898Y04120D01*
X09020Y04440D02*
X09218Y04440D01*
X09111Y04319D01*
X09157Y04319D01*
X09187Y04303D01*
X09203Y04288D01*
X09218Y04258D01*
X09218Y04181D01*
X09203Y04151D01*
X09187Y04136D01*
X09157Y04120D01*
X09065Y04120D01*
X09035Y04136D01*
X09020Y04151D01*
X09340Y04410D02*
X09355Y04425D01*
X09386Y04440D01*
X09462Y04440D01*
X09492Y04425D01*
X09508Y04410D01*
X09523Y04380D01*
X09523Y04349D01*
X09508Y04303D01*
X09325Y04120D01*
X09523Y04120D01*
X09767Y04288D02*
X09660Y04288D01*
X09660Y04120D02*
X09660Y04440D01*
X09813Y04440D01*
X10102Y04120D02*
X09919Y04120D01*
X10010Y04120D02*
X10010Y04440D01*
X09980Y04395D01*
X09949Y04364D01*
X09919Y04349D01*
X10300Y04440D02*
X10331Y04440D01*
X10361Y04425D01*
X10376Y04410D01*
X10392Y04380D01*
X10407Y04319D01*
X10407Y04242D01*
X10392Y04181D01*
X10376Y04151D01*
X10361Y04136D01*
X10331Y04120D01*
X10300Y04120D01*
X10270Y04136D01*
X10254Y04151D01*
X10239Y04181D01*
X10224Y04242D01*
X10224Y04319D01*
X10239Y04380D01*
X10254Y04410D01*
X10270Y04425D01*
X10300Y04440D01*
X10605Y04440D02*
X10636Y04440D01*
X10666Y04425D01*
X10681Y04410D01*
X10697Y04380D01*
X10712Y04319D01*
X10712Y04242D01*
X10697Y04181D01*
X10681Y04151D01*
X10666Y04136D01*
X10636Y04120D01*
X10605Y04120D01*
X10575Y04136D01*
X10559Y04151D01*
X10544Y04181D01*
X10529Y04242D01*
X10529Y04319D01*
X10544Y04380D01*
X10559Y04410D01*
X10575Y04425D01*
X10605Y04440D01*
X10773Y04090D02*
X11017Y04090D01*
X11230Y04334D02*
X11230Y04120D01*
X11154Y04456D02*
X11078Y04227D01*
X11276Y04227D01*
X11444Y04303D02*
X11413Y04319D01*
X11398Y04334D01*
X11383Y04364D01*
X11383Y04380D01*
X11398Y04410D01*
X11413Y04425D01*
X11444Y04440D01*
X11505Y04440D01*
X11535Y04425D01*
X11551Y04410D01*
X11566Y04380D01*
X11566Y04364D01*
X11551Y04334D01*
X11535Y04319D01*
X11505Y04303D01*
X11444Y04303D01*
X11413Y04288D01*
X11398Y04273D01*
X11383Y04242D01*
X11383Y04181D01*
X11398Y04151D01*
X11413Y04136D01*
X11444Y04120D01*
X11505Y04120D01*
X11535Y04136D01*
X11551Y04151D01*
X11566Y04181D01*
X11566Y04242D01*
X11551Y04273D01*
X11535Y04288D01*
X11505Y04303D01*
G54D10*
X17617Y02841D02*
X17629Y02830D01*
X17640Y02796D01*
X17640Y02773D01*
X17629Y02738D01*
X17606Y02716D01*
X17583Y02704D01*
X17537Y02693D01*
X17503Y02693D01*
X17457Y02704D01*
X17434Y02716D01*
X17412Y02738D01*
X17400Y02773D01*
X17400Y02796D01*
X17412Y02830D01*
X17423Y02841D01*
X17400Y02990D02*
X17400Y03036D01*
X17412Y03058D01*
X17434Y03081D01*
X17480Y03093D01*
X17560Y03093D01*
X17606Y03081D01*
X17629Y03058D01*
X17640Y03036D01*
X17640Y02990D01*
X17629Y02967D01*
X17606Y02944D01*
X17560Y02933D01*
X17480Y02933D01*
X17434Y02944D01*
X17412Y02967D01*
X17400Y02990D01*
X17640Y03195D02*
X17400Y03195D01*
X17640Y03332D01*
X17400Y03332D01*
X17640Y03446D02*
X17400Y03446D01*
X17640Y03583D01*
X17400Y03583D01*
X17663Y03640D02*
X17663Y03823D01*
X17617Y04017D02*
X17629Y04006D01*
X17640Y03972D01*
X17640Y03949D01*
X17629Y03914D01*
X17606Y03892D01*
X17583Y03880D01*
X17537Y03869D01*
X17503Y03869D01*
X17457Y03880D01*
X17434Y03892D01*
X17412Y03914D01*
X17400Y03949D01*
X17400Y03972D01*
X17412Y04006D01*
X17423Y04017D01*
X17400Y04166D02*
X17400Y04212D01*
X17412Y04234D01*
X17434Y04257D01*
X17480Y04269D01*
X17560Y04269D01*
X17606Y04257D01*
X17629Y04234D01*
X17640Y04212D01*
X17640Y04166D01*
X17629Y04143D01*
X17606Y04120D01*
X17560Y04109D01*
X17480Y04109D01*
X17434Y04120D01*
X17412Y04143D01*
X17400Y04166D01*
X17640Y04508D02*
X17526Y04428D01*
X17640Y04371D02*
X17400Y04371D01*
X17400Y04463D01*
X17412Y04485D01*
X17423Y04497D01*
X17446Y04508D01*
X17480Y04508D01*
X17503Y04497D01*
X17514Y04485D01*
X17526Y04463D01*
X17526Y04371D01*
X17400Y04577D02*
X17400Y04714D01*
X17640Y04645D02*
X17400Y04645D01*
X17514Y04794D02*
X17514Y04874D01*
X17640Y04908D02*
X17640Y04794D01*
X17400Y04794D01*
X17400Y04908D01*
X17400Y04988D02*
X17640Y05148D01*
X17400Y05148D02*
X17640Y04988D01*
X17663Y05183D02*
X17663Y05366D01*
X17640Y05423D02*
X17400Y05423D01*
X17400Y05480D01*
X17412Y05515D01*
X17434Y05537D01*
X17457Y05549D01*
X17503Y05560D01*
X17537Y05560D01*
X17583Y05549D01*
X17606Y05537D01*
X17629Y05515D01*
X17640Y05480D01*
X17640Y05423D01*
X17514Y05663D02*
X17514Y05743D01*
X17640Y05777D02*
X17640Y05663D01*
X17400Y05663D01*
X17400Y05777D01*
X17514Y05960D02*
X17526Y05994D01*
X17537Y06006D01*
X17560Y06017D01*
X17594Y06017D01*
X17617Y06006D01*
X17629Y05994D01*
X17640Y05972D01*
X17640Y05880D01*
X17400Y05880D01*
X17400Y05960D01*
X17412Y05983D01*
X17423Y05994D01*
X17446Y06006D01*
X17469Y06006D01*
X17492Y05994D01*
X17503Y05983D01*
X17514Y05960D01*
X17514Y05880D01*
X17400Y06120D02*
X17594Y06120D01*
X17617Y06132D01*
X17629Y06143D01*
X17640Y06166D01*
X17640Y06212D01*
X17629Y06234D01*
X17617Y06246D01*
X17594Y06257D01*
X17400Y06257D01*
X17412Y06497D02*
X17400Y06474D01*
X17400Y06440D01*
X17412Y06405D01*
X17434Y06383D01*
X17457Y06371D01*
X17503Y06360D01*
X17537Y06360D01*
X17583Y06371D01*
X17606Y06383D01*
X17629Y06405D01*
X17640Y06440D01*
X17640Y06463D01*
X17629Y06497D01*
X17617Y06508D01*
X17537Y06508D01*
X17537Y06463D01*
M02*
