M48
INCH,TZ
T1C0.012
T2C0.026
T3C0.032
%
G90
G05
T1
X5127Y6978
X5740Y5770
X7329Y5584
X7769Y3023
X8575Y4416
X10503Y4140
X12059Y4992
X12367Y4932
X13117Y5221
X13690Y2547
X14799Y7364
X14943Y7876
X15518Y6990
X16090Y1687
X16094Y5187
X16284Y6361
T2
X18343Y5500
X18343Y5000
X18343Y4500
X18343Y4000
X18343Y3500
X18843Y5500
X18843Y5000
X18843Y4500
X18843Y4000
X18843Y3500
T3
X343Y8500
X343Y500
X1343Y8500
X1343Y500
X2343Y8500
X2343Y500
X3343Y8500
X3343Y500
X4343Y8500
X4343Y500
X5343Y8500
X5343Y500
X6343Y8500
X6343Y500
X7343Y8500
X7343Y500
X8343Y8500
X8343Y500
X9343Y8500
X9343Y500
X10343Y8500
X10343Y500
X11343Y8500
X11343Y500
X12343Y8500
X12343Y500
X13343Y8500
X13343Y500
X14343Y8500
X14343Y500
X15343Y8500
X15343Y500
X16343Y8500
X16343Y500
X17343Y8500
X17343Y500
X18343Y8500
X18343Y500
X19343Y8500
X19343Y500
T0
M30
