G04 (created by PCBNEW-RS274X (2012-01-19 BZR 3256)-stable) date 24/08/2012 17:37:12*
G01*
G70*
G90*
%MOIN*%
G04 Gerber Fmt 3.4, Leading zero omitted, Abs format*
%FSLAX34Y34*%
G04 APERTURE LIST*
%ADD10C,0.006000*%
%ADD11C,0.055000*%
%ADD12O,0.047200X0.059100*%
%ADD13R,0.040000X0.040000*%
%ADD14C,0.040000*%
%ADD15C,0.024000*%
G04 APERTURE END LIST*
G54D10*
G54D11*
X04343Y00500D03*
X09343Y08500D03*
X08343Y08500D03*
X06343Y08500D03*
X05343Y08500D03*
X12343Y00500D03*
X13343Y00500D03*
X14343Y00500D03*
X15343Y00500D03*
X16343Y00500D03*
X17343Y00500D03*
X10343Y08500D03*
X03343Y00500D03*
X02343Y00500D03*
X01343Y00500D03*
X02343Y08500D03*
X03343Y08500D03*
G54D12*
X00343Y00500D03*
G54D11*
X13343Y08500D03*
X06343Y00500D03*
X07343Y00500D03*
X08343Y00500D03*
X18343Y00500D03*
G54D12*
X19343Y08500D03*
G54D11*
X18343Y08500D03*
X17343Y08500D03*
X16343Y08500D03*
X15343Y08500D03*
X14343Y08500D03*
X05343Y00500D03*
G54D12*
X19343Y00500D03*
X00343Y08500D03*
G54D11*
X04343Y08500D03*
X07343Y08500D03*
X09343Y00500D03*
X10343Y00500D03*
X11343Y00500D03*
X12343Y08500D03*
X11343Y08500D03*
X01343Y08500D03*
G54D13*
X18843Y03500D03*
G54D14*
X18343Y03500D03*
X18843Y04000D03*
X18343Y04000D03*
X18843Y04500D03*
X18343Y04500D03*
X18843Y05000D03*
X18343Y05000D03*
X18843Y05500D03*
X18343Y05500D03*
G54D15*
X05127Y06978D03*
X16094Y05187D03*
X13690Y02547D03*
X15518Y06990D03*
X13117Y05221D03*
X16090Y01687D03*
X08575Y04416D03*
X16284Y06361D03*
X12059Y04992D03*
X14943Y07876D03*
X12367Y04932D03*
X14799Y07364D03*
X07769Y03023D03*
X05740Y05770D03*
X10503Y04140D03*
X07329Y05584D03*
G54D10*
X07343Y08500D02*
X05821Y06978D01*
X11125Y04718D02*
X15625Y04718D01*
X05821Y06978D02*
X05127Y06978D01*
X07343Y08500D02*
X11125Y04718D01*
X15625Y04718D02*
X16094Y05187D01*
X11343Y00500D02*
X13390Y02547D01*
X13390Y02547D02*
X13690Y02547D01*
X15518Y06825D02*
X18343Y04000D01*
X15518Y06990D02*
X15518Y06825D01*
X18343Y03500D02*
X15302Y06541D01*
X15302Y08459D02*
X15343Y08500D01*
X15302Y06541D02*
X15302Y08459D01*
X14437Y06541D02*
X13117Y05221D01*
X15302Y06541D02*
X14437Y06541D01*
X08575Y04416D02*
X04259Y04416D01*
X04259Y04416D02*
X00343Y00500D01*
X16090Y01687D02*
X14827Y02950D01*
X10041Y02950D02*
X08575Y04416D01*
X14827Y02950D02*
X10041Y02950D01*
X19193Y04850D02*
X18843Y04500D01*
X18843Y05500D02*
X17982Y06361D01*
X17982Y06361D02*
X16284Y06361D01*
X18843Y04000D02*
X19093Y04000D01*
X19093Y04000D02*
X19343Y03750D01*
X19343Y03750D02*
X19343Y00500D01*
X18843Y04500D02*
X18843Y04000D01*
X18843Y05500D02*
X19193Y05150D01*
X19193Y05150D02*
X19193Y04850D01*
X14943Y07876D02*
X12059Y04992D01*
X14799Y07364D02*
X12367Y04932D01*
X07769Y03023D02*
X04866Y03023D01*
X04866Y03023D02*
X02343Y00500D01*
X05073Y05770D02*
X02343Y08500D01*
X05740Y05770D02*
X05073Y05770D01*
X10503Y04140D02*
X09134Y05584D01*
X11631Y03087D02*
X10503Y04140D01*
X07297Y05552D02*
X07329Y05584D01*
X18843Y03500D02*
X18430Y03087D01*
X09134Y05584D02*
X07329Y05584D01*
X18430Y03087D02*
X11631Y03087D01*
X03291Y05552D02*
X07297Y05552D01*
X00343Y08500D02*
X03291Y05552D01*
M02*
