G04 (created by PCBNEW-RS274X (2012-01-19 BZR 3256)-stable) date 24/08/2012 17:37:12*
G01*
G70*
G90*
%MOIN*%
G04 Gerber Fmt 3.4, Leading zero omitted, Abs format*
%FSLAX34Y34*%
G04 APERTURE LIST*
%ADD10C,0.006000*%
%ADD11C,0.008000*%
%ADD12C,0.000100*%
G04 APERTURE END LIST*
G54D10*
G54D11*
X05588Y02066D02*
X05588Y02866D01*
X05331Y02066D02*
X05331Y02485D01*
X05360Y02561D01*
X05417Y02600D01*
X05502Y02600D01*
X05560Y02561D01*
X05588Y02523D01*
X04788Y02066D02*
X04788Y02485D01*
X04817Y02561D01*
X04874Y02600D01*
X04988Y02600D01*
X05045Y02561D01*
X04788Y02104D02*
X04845Y02066D01*
X04988Y02066D01*
X05045Y02104D01*
X05074Y02180D01*
X05074Y02257D01*
X05045Y02333D01*
X04988Y02371D01*
X04845Y02371D01*
X04788Y02409D01*
X04502Y02066D02*
X04502Y02600D01*
X04502Y02447D02*
X04474Y02523D01*
X04445Y02561D01*
X04388Y02600D01*
X04331Y02600D01*
X03874Y02066D02*
X03874Y02866D01*
X03874Y02104D02*
X03931Y02066D01*
X04045Y02066D01*
X04103Y02104D01*
X04131Y02142D01*
X04160Y02219D01*
X04160Y02447D01*
X04131Y02523D01*
X04103Y02561D01*
X04045Y02600D01*
X03931Y02600D01*
X03874Y02561D01*
X03645Y02600D02*
X03531Y02066D01*
X03417Y02447D01*
X03302Y02066D01*
X03188Y02600D01*
X02702Y02066D02*
X02702Y02485D01*
X02731Y02561D01*
X02788Y02600D01*
X02902Y02600D01*
X02959Y02561D01*
X02702Y02104D02*
X02759Y02066D01*
X02902Y02066D01*
X02959Y02104D01*
X02988Y02180D01*
X02988Y02257D01*
X02959Y02333D01*
X02902Y02371D01*
X02759Y02371D01*
X02702Y02409D01*
X02416Y02066D02*
X02416Y02600D01*
X02416Y02447D02*
X02388Y02523D01*
X02359Y02561D01*
X02302Y02600D01*
X02245Y02600D01*
X01817Y02104D02*
X01874Y02066D01*
X01988Y02066D01*
X02045Y02104D01*
X02074Y02180D01*
X02074Y02485D01*
X02045Y02561D01*
X01988Y02600D01*
X01874Y02600D01*
X01817Y02561D01*
X01788Y02485D01*
X01788Y02409D01*
X02074Y02333D01*
X06044Y03126D02*
X06102Y03164D01*
X06130Y03202D01*
X06159Y03279D01*
X06159Y03507D01*
X06130Y03583D01*
X06102Y03621D01*
X06044Y03660D01*
X05959Y03660D01*
X05902Y03621D01*
X05873Y03583D01*
X05844Y03507D01*
X05844Y03279D01*
X05873Y03202D01*
X05902Y03164D01*
X05959Y03126D01*
X06044Y03126D01*
X05587Y03660D02*
X05587Y02860D01*
X05587Y03621D02*
X05530Y03660D01*
X05416Y03660D01*
X05359Y03621D01*
X05330Y03583D01*
X05301Y03507D01*
X05301Y03279D01*
X05330Y03202D01*
X05359Y03164D01*
X05416Y03126D01*
X05530Y03126D01*
X05587Y03164D01*
X04816Y03164D02*
X04873Y03126D01*
X04987Y03126D01*
X05044Y03164D01*
X05073Y03240D01*
X05073Y03545D01*
X05044Y03621D01*
X04987Y03660D01*
X04873Y03660D01*
X04816Y03621D01*
X04787Y03545D01*
X04787Y03469D01*
X05073Y03393D01*
X04530Y03660D02*
X04530Y03126D01*
X04530Y03583D02*
X04502Y03621D01*
X04444Y03660D01*
X04359Y03660D01*
X04302Y03621D01*
X04273Y03545D01*
X04273Y03126D01*
X03559Y03164D02*
X03502Y03126D01*
X03387Y03126D01*
X03330Y03164D01*
X03302Y03240D01*
X03302Y03279D01*
X03330Y03355D01*
X03387Y03393D01*
X03473Y03393D01*
X03530Y03431D01*
X03559Y03507D01*
X03559Y03545D01*
X03530Y03621D01*
X03473Y03660D01*
X03387Y03660D01*
X03330Y03621D01*
X02958Y03126D02*
X03016Y03164D01*
X03044Y03202D01*
X03073Y03279D01*
X03073Y03507D01*
X03044Y03583D01*
X03016Y03621D01*
X02958Y03660D01*
X02873Y03660D01*
X02816Y03621D01*
X02787Y03583D01*
X02758Y03507D01*
X02758Y03279D01*
X02787Y03202D01*
X02816Y03164D01*
X02873Y03126D01*
X02958Y03126D01*
X02244Y03660D02*
X02244Y03126D01*
X02501Y03660D02*
X02501Y03240D01*
X02473Y03164D01*
X02415Y03126D01*
X02330Y03126D01*
X02273Y03164D01*
X02244Y03202D01*
X01958Y03126D02*
X01958Y03660D01*
X01958Y03507D02*
X01930Y03583D01*
X01901Y03621D01*
X01844Y03660D01*
X01787Y03660D01*
X01330Y03164D02*
X01387Y03126D01*
X01501Y03126D01*
X01559Y03164D01*
X01587Y03202D01*
X01616Y03279D01*
X01616Y03507D01*
X01587Y03583D01*
X01559Y03621D01*
X01501Y03660D01*
X01387Y03660D01*
X01330Y03621D01*
X00845Y03164D02*
X00902Y03126D01*
X01016Y03126D01*
X01073Y03164D01*
X01102Y03240D01*
X01102Y03545D01*
X01073Y03621D01*
X01016Y03660D01*
X00902Y03660D01*
X00845Y03621D01*
X00816Y03545D01*
X00816Y03469D01*
X01102Y03393D01*
G54D12*
G36*
X02265Y03782D02*
X02288Y03794D01*
X02339Y03826D01*
X02412Y03874D01*
X02499Y03932D01*
X02586Y03991D01*
X02657Y04039D01*
X02707Y04071D01*
X02728Y04082D01*
X02739Y04078D01*
X02780Y04058D01*
X02840Y04027D01*
X02875Y04009D01*
X02930Y03986D01*
X02957Y03981D01*
X02962Y03988D01*
X02982Y04030D01*
X03013Y04102D01*
X03055Y04197D01*
X03102Y04308D01*
X03153Y04428D01*
X03204Y04550D01*
X03252Y04667D01*
X03295Y04772D01*
X03329Y04857D01*
X03352Y04916D01*
X03360Y04942D01*
X03358Y04947D01*
X03330Y04974D01*
X03282Y05010D01*
X03179Y05094D01*
X03076Y05222D01*
X03014Y05367D01*
X02993Y05528D01*
X03011Y05678D01*
X03070Y05822D01*
X03170Y05951D01*
X03291Y06047D01*
X03433Y06108D01*
X03593Y06127D01*
X03746Y06110D01*
X03892Y06052D01*
X04022Y05954D01*
X04076Y05891D01*
X04151Y05760D01*
X04194Y05620D01*
X04199Y05584D01*
X04192Y05430D01*
X04147Y05283D01*
X04066Y05151D01*
X03953Y05043D01*
X03939Y05032D01*
X03886Y04993D01*
X03851Y04966D01*
X03824Y04944D01*
X04020Y04472D01*
X04051Y04397D01*
X04105Y04268D01*
X04152Y04157D01*
X04190Y04069D01*
X04216Y04010D01*
X04228Y03986D01*
X04229Y03985D01*
X04246Y03982D01*
X04282Y03995D01*
X04348Y04027D01*
X04392Y04049D01*
X04442Y04073D01*
X04464Y04082D01*
X04483Y04072D01*
X04531Y04041D01*
X04601Y03994D01*
X04686Y03936D01*
X04766Y03882D01*
X04840Y03833D01*
X04894Y03799D01*
X04920Y03785D01*
X04924Y03785D01*
X04947Y03798D01*
X04989Y03833D01*
X05054Y03894D01*
X05145Y03984D01*
X05159Y03997D01*
X05233Y04073D01*
X05294Y04137D01*
X05335Y04182D01*
X05349Y04203D01*
X05349Y04203D01*
X05336Y04229D01*
X05302Y04282D01*
X05253Y04357D01*
X05193Y04445D01*
X05037Y04672D01*
X05123Y04886D01*
X05149Y04951D01*
X05183Y05031D01*
X05208Y05088D01*
X05220Y05113D01*
X05244Y05121D01*
X05302Y05135D01*
X05387Y05153D01*
X05489Y05172D01*
X05585Y05189D01*
X05672Y05206D01*
X05736Y05218D01*
X05764Y05224D01*
X05771Y05228D01*
X05776Y05241D01*
X05780Y05271D01*
X05782Y05324D01*
X05783Y05408D01*
X05783Y05528D01*
X05783Y05541D01*
X05782Y05657D01*
X05780Y05748D01*
X05777Y05809D01*
X05773Y05832D01*
X05773Y05833D01*
X05746Y05839D01*
X05684Y05852D01*
X05597Y05869D01*
X05493Y05889D01*
X05486Y05890D01*
X05383Y05910D01*
X05296Y05928D01*
X05235Y05942D01*
X05209Y05950D01*
X05204Y05958D01*
X05183Y05998D01*
X05153Y06062D01*
X05119Y06141D01*
X05085Y06222D01*
X05056Y06295D01*
X05036Y06350D01*
X05030Y06375D01*
X05031Y06375D01*
X05046Y06400D01*
X05082Y06454D01*
X05132Y06529D01*
X05193Y06617D01*
X05197Y06623D01*
X05257Y06711D01*
X05305Y06785D01*
X05337Y06838D01*
X05349Y06862D01*
X05349Y06863D01*
X05329Y06889D01*
X05285Y06939D01*
X05221Y07006D01*
X05144Y07083D01*
X05120Y07107D01*
X05035Y07190D01*
X04975Y07245D01*
X04939Y07274D01*
X04921Y07280D01*
X04920Y07280D01*
X04894Y07264D01*
X04839Y07228D01*
X04764Y07177D01*
X04675Y07116D01*
X04669Y07112D01*
X04581Y07053D01*
X04508Y07003D01*
X04456Y06969D01*
X04434Y06955D01*
X04430Y06955D01*
X04394Y06966D01*
X04332Y06988D01*
X04255Y07017D01*
X04174Y07050D01*
X04101Y07081D01*
X04045Y07106D01*
X04019Y07121D01*
X04019Y07122D01*
X04009Y07153D01*
X03994Y07219D01*
X03976Y07309D01*
X03955Y07416D01*
X03952Y07434D01*
X03932Y07538D01*
X03915Y07624D01*
X03903Y07684D01*
X03897Y07708D01*
X03882Y07712D01*
X03831Y07716D01*
X03753Y07718D01*
X03659Y07719D01*
X03560Y07718D01*
X03463Y07716D01*
X03380Y07713D01*
X03321Y07709D01*
X03297Y07704D01*
X03296Y07703D01*
X03287Y07670D01*
X03272Y07605D01*
X03254Y07514D01*
X03233Y07406D01*
X03229Y07387D01*
X03210Y07283D01*
X03192Y07198D01*
X03180Y07139D01*
X03173Y07116D01*
X03164Y07111D01*
X03121Y07092D01*
X03051Y07063D01*
X02965Y07028D01*
X02764Y06947D01*
X02518Y07116D01*
X02495Y07131D01*
X02407Y07191D01*
X02334Y07240D01*
X02284Y07272D01*
X02263Y07284D01*
X02261Y07283D01*
X02237Y07262D01*
X02188Y07216D01*
X02121Y07151D01*
X02044Y07074D01*
X01987Y07017D01*
X01919Y06948D01*
X01876Y06902D01*
X01853Y06872D01*
X01844Y06854D01*
X01846Y06842D01*
X01862Y06817D01*
X01898Y06763D01*
X01949Y06688D01*
X02009Y06601D01*
X02058Y06529D01*
X02111Y06446D01*
X02146Y06387D01*
X02158Y06358D01*
X02155Y06346D01*
X02138Y06298D01*
X02109Y06225D01*
X02072Y06139D01*
X01986Y05944D01*
X01859Y05919D01*
X01781Y05905D01*
X01673Y05884D01*
X01570Y05864D01*
X01408Y05833D01*
X01402Y05239D01*
X01427Y05228D01*
X01451Y05222D01*
X01511Y05208D01*
X01597Y05191D01*
X01697Y05172D01*
X01783Y05156D01*
X01870Y05140D01*
X01932Y05128D01*
X01960Y05122D01*
X01967Y05113D01*
X01988Y05071D01*
X02019Y05004D01*
X02053Y04924D01*
X02088Y04841D01*
X02118Y04764D01*
X02140Y04706D01*
X02148Y04675D01*
X02136Y04653D01*
X02103Y04602D01*
X02055Y04529D01*
X01997Y04443D01*
X01938Y04357D01*
X01888Y04284D01*
X01854Y04231D01*
X01839Y04207D01*
X01846Y04190D01*
X01881Y04149D01*
X01946Y04081D01*
X02042Y03986D01*
X02058Y03971D01*
X02135Y03897D01*
X02200Y03837D01*
X02245Y03797D01*
X02265Y03782D01*
X02265Y03782D01*
G37*
M02*
