G04 (created by PCBNEW (2013-07-07 BZR 4022)-stable) date 21/01/2015 21:24:28*
%MOIN*%
G04 Gerber Fmt 3.4, Leading zero omitted, Abs format*
%FSLAX34Y34*%
G01*
G70*
G90*
G04 APERTURE LIST*
%ADD10C,0.00590551*%
%ADD11R,0.0827X0.0827*%
%ADD12R,0.0748X0.0748*%
%ADD13C,0.0413*%
%ADD14R,0.04X0.04*%
%ADD15C,0.04*%
%ADD16O,0.06X0.0866*%
%ADD17O,0.06X0.0865*%
%ADD18R,0.0590551X0.0590551*%
%ADD19C,0.0590551*%
%ADD20C,0.083*%
%ADD21C,0.1969*%
%ADD22C,0.0984*%
%ADD23R,0.061X0.0394*%
%ADD24R,0.061X0.0276*%
%ADD25C,0.063*%
%ADD26C,0.0433*%
%ADD27R,0.1181X0.0787*%
%ADD28R,0.0787X0.06*%
%ADD29O,0.0787X0.06*%
%ADD30C,0.07*%
%ADD31R,0.07X0.07*%
%ADD32C,0.125984*%
%ADD33R,0.0649606X0.0649606*%
%ADD34C,0.0354*%
%ADD35R,0.0354X0.0354*%
%ADD36C,0.025*%
%ADD37C,0.008*%
%ADD38C,0.006*%
G04 APERTURE END LIST*
G54D10*
X-82Y0D02*
X-82Y-12041D01*
X-82Y-12041D02*
X306Y-12098D01*
X306Y-12098D02*
X696Y-12154D01*
X696Y-12154D02*
X1086Y-12209D01*
X1086Y-12209D02*
X1476Y-12263D01*
X1476Y-12263D02*
X1866Y-12315D01*
X1866Y-12315D02*
X2256Y-12367D01*
X2256Y-12367D02*
X2647Y-12417D01*
X2647Y-12417D02*
X3037Y-12467D01*
X3037Y-12467D02*
X3428Y-12515D01*
X3428Y-12515D02*
X3819Y-12562D01*
X3819Y-12562D02*
X4210Y-12608D01*
X4210Y-12608D02*
X4601Y-12653D01*
X4601Y-12653D02*
X4992Y-12697D01*
X4992Y-12697D02*
X5384Y-12740D01*
X5384Y-12740D02*
X5775Y-12782D01*
X5775Y-12782D02*
X6167Y-12823D01*
X6167Y-12823D02*
X6559Y-12862D01*
X6559Y-12862D02*
X6950Y-12901D01*
X6950Y-12901D02*
X7342Y-12938D01*
X7342Y-12938D02*
X7734Y-12974D01*
X7734Y-12974D02*
X8126Y-13009D01*
X8126Y-13009D02*
X8519Y-13044D01*
X8519Y-13044D02*
X8911Y-13077D01*
X8911Y-13077D02*
X9303Y-13108D01*
X9303Y-13108D02*
X9696Y-13139D01*
X9696Y-13139D02*
X10088Y-13169D01*
X10088Y-13169D02*
X10481Y-13197D01*
X10481Y-13197D02*
X10874Y-13225D01*
X10874Y-13225D02*
X11267Y-13251D01*
X11267Y-13251D02*
X11660Y-13277D01*
X11660Y-13277D02*
X12053Y-13301D01*
X12053Y-13301D02*
X12446Y-13324D01*
X12446Y-13324D02*
X12839Y-13346D01*
X12839Y-13346D02*
X13232Y-13367D01*
X13232Y-13367D02*
X13625Y-13387D01*
X13625Y-13387D02*
X14018Y-13405D01*
X14018Y-13405D02*
X14412Y-13423D01*
X14412Y-13423D02*
X14805Y-13439D01*
X14805Y-13439D02*
X15198Y-13455D01*
X15198Y-13455D02*
X15592Y-13469D01*
X15592Y-13469D02*
X15985Y-13482D01*
X15985Y-13482D02*
X16379Y-13494D01*
X16379Y-13494D02*
X16772Y-13505D01*
X16772Y-13505D02*
X17166Y-13515D01*
X17166Y-13515D02*
X17559Y-13524D01*
X17559Y-13524D02*
X17953Y-13532D01*
X17953Y-13532D02*
X18347Y-13538D01*
X18347Y-13538D02*
X18740Y-13544D01*
X18740Y-13544D02*
X19134Y-13548D01*
X19134Y-13548D02*
X19255Y-13549D01*
X19255Y-13549D02*
X19255Y-11177D01*
X19255Y-11177D02*
X19319Y-10783D01*
X19319Y-10783D02*
X19505Y-10430D01*
X19505Y-10430D02*
X19792Y-10153D01*
X19792Y-10153D02*
X20152Y-9982D01*
X20152Y-9982D02*
X20548Y-9934D01*
X20548Y-9934D02*
X20939Y-10013D01*
X20939Y-10013D02*
X21285Y-10212D01*
X21285Y-10212D02*
X21550Y-10510D01*
X21550Y-10510D02*
X21707Y-10877D01*
X21707Y-10877D02*
X21744Y-11177D01*
X21744Y-11177D02*
X21744Y-13549D01*
X21744Y-13549D02*
X22137Y-13545D01*
X22137Y-13545D02*
X22531Y-13540D01*
X22531Y-13540D02*
X22925Y-13534D01*
X22925Y-13534D02*
X23318Y-13526D01*
X23318Y-13526D02*
X23712Y-13518D01*
X23712Y-13518D02*
X24105Y-13508D01*
X24105Y-13508D02*
X24499Y-13498D01*
X24499Y-13498D02*
X24893Y-13486D01*
X24893Y-13486D02*
X25286Y-13473D01*
X25286Y-13473D02*
X25679Y-13459D01*
X25679Y-13459D02*
X26073Y-13444D01*
X26073Y-13444D02*
X26466Y-13428D01*
X26466Y-13428D02*
X26860Y-13411D01*
X26860Y-13411D02*
X27253Y-13392D01*
X27253Y-13392D02*
X27646Y-13373D01*
X27646Y-13373D02*
X28039Y-13352D01*
X28039Y-13352D02*
X28432Y-13331D01*
X28432Y-13331D02*
X28825Y-13308D01*
X28825Y-13308D02*
X29218Y-13284D01*
X29218Y-13284D02*
X29611Y-13259D01*
X29611Y-13259D02*
X30004Y-13233D01*
X30004Y-13233D02*
X30397Y-13206D01*
X30397Y-13206D02*
X30696Y-13185D01*
X30696Y-13185D02*
X30696Y13185D01*
X30696Y13185D02*
X30304Y13213D01*
X30304Y13213D02*
X29911Y13239D01*
X29911Y13239D02*
X29518Y13265D01*
X29518Y13265D02*
X29125Y13290D01*
X29125Y13290D02*
X28732Y13314D01*
X28732Y13314D02*
X28339Y13336D01*
X28339Y13336D02*
X27946Y13357D01*
X27946Y13357D02*
X27553Y13378D01*
X27553Y13378D02*
X27160Y13397D01*
X27160Y13397D02*
X26766Y13415D01*
X26766Y13415D02*
X26373Y13432D01*
X26373Y13432D02*
X25980Y13448D01*
X25980Y13448D02*
X25586Y13463D01*
X25586Y13463D02*
X25193Y13476D01*
X25193Y13476D02*
X24799Y13489D01*
X24799Y13489D02*
X24406Y13500D01*
X24406Y13500D02*
X24012Y13511D01*
X24012Y13511D02*
X23618Y13520D01*
X23618Y13520D02*
X23225Y13528D01*
X23225Y13528D02*
X22831Y13535D01*
X22831Y13535D02*
X22438Y13541D01*
X22438Y13541D02*
X22044Y13546D01*
X22044Y13546D02*
X21744Y13549D01*
X21744Y13549D02*
X21744Y11177D01*
X21744Y11177D02*
X21680Y10783D01*
X21680Y10783D02*
X21494Y10430D01*
X21494Y10430D02*
X21207Y10153D01*
X21207Y10153D02*
X20847Y9982D01*
X20847Y9982D02*
X20451Y9934D01*
X20451Y9934D02*
X20060Y10013D01*
X20060Y10013D02*
X19714Y10212D01*
X19714Y10212D02*
X19449Y10510D01*
X19449Y10510D02*
X19292Y10877D01*
X19292Y10877D02*
X19255Y11177D01*
X19255Y11177D02*
X19255Y13549D01*
X19255Y13549D02*
X18862Y13545D01*
X18862Y13545D02*
X18468Y13540D01*
X18468Y13540D02*
X18074Y13534D01*
X18074Y13534D02*
X17681Y13526D01*
X17681Y13526D02*
X17287Y13518D01*
X17287Y13518D02*
X16894Y13508D01*
X16894Y13508D02*
X16500Y13498D01*
X16500Y13498D02*
X16106Y13486D01*
X16106Y13486D02*
X15713Y13473D01*
X15713Y13473D02*
X15320Y13459D01*
X15320Y13459D02*
X14926Y13444D01*
X14926Y13444D02*
X14533Y13428D01*
X14533Y13428D02*
X14139Y13411D01*
X14139Y13411D02*
X13746Y13392D01*
X13746Y13392D02*
X13353Y13373D01*
X13353Y13373D02*
X12960Y13352D01*
X12960Y13352D02*
X12567Y13331D01*
X12567Y13331D02*
X12174Y13308D01*
X12174Y13308D02*
X11781Y13284D01*
X11781Y13284D02*
X11388Y13259D01*
X11388Y13259D02*
X10995Y13233D01*
X10995Y13233D02*
X10602Y13206D01*
X10602Y13206D02*
X10209Y13178D01*
X10209Y13178D02*
X9817Y13148D01*
X9817Y13148D02*
X9424Y13118D01*
X9424Y13118D02*
X9032Y13086D01*
X9032Y13086D02*
X8640Y13054D01*
X8640Y13054D02*
X8247Y13020D01*
X8247Y13020D02*
X7855Y12985D01*
X7855Y12985D02*
X7463Y12949D01*
X7463Y12949D02*
X7071Y12912D01*
X7071Y12912D02*
X6679Y12874D01*
X6679Y12874D02*
X6288Y12835D01*
X6288Y12835D02*
X5896Y12795D01*
X5896Y12795D02*
X5504Y12753D01*
X5504Y12753D02*
X5113Y12711D01*
X5113Y12711D02*
X4722Y12667D01*
X4722Y12667D02*
X4331Y12622D01*
X4331Y12622D02*
X3940Y12577D01*
X3940Y12577D02*
X3549Y12530D01*
X3549Y12530D02*
X3158Y12482D01*
X3158Y12482D02*
X2767Y12433D01*
X2767Y12433D02*
X2377Y12382D01*
X2377Y12382D02*
X1986Y12331D01*
X1986Y12331D02*
X1596Y12279D01*
X1596Y12279D02*
X1206Y12225D01*
X1206Y12225D02*
X816Y12171D01*
X816Y12171D02*
X426Y12115D01*
X426Y12115D02*
X37Y12059D01*
X37Y12059D02*
X-82Y12041D01*
X-82Y12041D02*
X-82Y0D01*
G54D11*
X500Y-1077D03*
G54D12*
X500Y-4423D03*
G54D13*
X1681Y-3636D03*
X1681Y-1864D03*
G54D14*
X17000Y-12000D03*
G54D15*
X17000Y-12500D03*
X16500Y-12000D03*
X16500Y-12500D03*
X16000Y-12000D03*
X16000Y-12500D03*
X15500Y-12000D03*
X15500Y-12500D03*
X15000Y-12000D03*
X15000Y-12500D03*
G54D16*
X14000Y-9500D03*
X15000Y-9500D03*
X16000Y-9500D03*
X17000Y-9500D03*
X18000Y-9500D03*
X19000Y-9500D03*
X20000Y-9500D03*
X21000Y-9500D03*
X23000Y-9500D03*
X24000Y-9500D03*
X25000Y-9500D03*
X26000Y-9500D03*
X27000Y-9500D03*
X28000Y-9500D03*
G54D17*
X28000Y9500D03*
X27000Y9500D03*
X26000Y9500D03*
X25000Y9500D03*
X24000Y9500D03*
X23000Y9500D03*
X22000Y9500D03*
X21000Y9500D03*
X19400Y9500D03*
X18400Y9500D03*
X17400Y9500D03*
X16400Y9500D03*
X15400Y9500D03*
X14400Y9500D03*
X13400Y9500D03*
X12401Y9500D03*
X11400Y9500D03*
X10400Y9500D03*
G54D18*
X14000Y-10750D03*
G54D19*
X15000Y-10750D03*
X16000Y-10750D03*
X17000Y-10750D03*
G54D20*
X1372Y10250D03*
X4128Y10250D03*
G54D21*
X2500Y-9500D03*
X4980Y-9500D03*
X3760Y-11390D03*
G54D22*
X728Y-9500D03*
G54D23*
X12250Y-256D03*
X12250Y728D03*
X12250Y1712D03*
X12250Y2697D03*
X12250Y3681D03*
X12250Y-1240D03*
X12250Y-2225D03*
X12250Y-3182D03*
X12250Y-3851D03*
G54D24*
X12250Y-4363D03*
X12250Y-4835D03*
G54D25*
X11138Y3681D03*
G54D26*
X11138Y-4587D03*
G54D27*
X1325Y-5925D03*
X1325Y5925D03*
G54D28*
X30098Y-9500D03*
G54D29*
X28902Y-9500D03*
X30098Y-8500D03*
X28902Y-8500D03*
X30098Y-7500D03*
X28902Y-7500D03*
X30098Y-6500D03*
X28902Y-6500D03*
X30098Y-5500D03*
X28902Y-5500D03*
X30098Y-4500D03*
X28902Y-4500D03*
X30098Y-3500D03*
X28902Y-3500D03*
X30098Y-2500D03*
X28902Y-2500D03*
X30098Y-1500D03*
X28902Y-1500D03*
X30098Y-500D03*
X28902Y-500D03*
X30098Y500D03*
X28902Y500D03*
X30098Y1500D03*
X28902Y1500D03*
X30098Y2500D03*
X28902Y2500D03*
X30098Y3500D03*
X28902Y3500D03*
X30098Y4500D03*
X28902Y4500D03*
X30098Y5500D03*
X28902Y5500D03*
X30098Y6500D03*
X28902Y6500D03*
X30098Y7500D03*
X28902Y7500D03*
X30098Y8500D03*
X28902Y8500D03*
X30098Y9500D03*
X28902Y9500D03*
G54D30*
X8750Y-9750D03*
X8750Y-8750D03*
G54D31*
X8750Y-10750D03*
G54D32*
X10657Y11212D03*
X10657Y-11212D03*
X26405Y11440D03*
X26405Y-11440D03*
G54D33*
X9000Y-4000D03*
G54D34*
X28500Y-11750D03*
G54D35*
X28500Y-11258D03*
G54D34*
X28500Y-12242D03*
G54D36*
X19240Y4780D03*
X19570Y2610D03*
X16002Y-8489D03*
X13853Y-2483D03*
X21635Y-9565D03*
X13621Y-11544D03*
X8019Y-3837D03*
X9011Y-6629D03*
X8835Y-5273D03*
X7593Y-3953D03*
X8705Y-2779D03*
X16553Y-3267D03*
X11177Y4319D03*
X16231Y-3273D03*
X10636Y3493D03*
X11054Y5250D03*
X6575Y3213D03*
X21040Y-3581D03*
X21587Y-5146D03*
X23735Y1778D03*
X24302Y-5627D03*
X14782Y-4049D03*
X18456Y-1767D03*
X19405Y394D03*
X21154Y164D03*
X27468Y2748D03*
X26923Y7015D03*
X21477Y1720D03*
X23397Y6313D03*
X20095Y1439D03*
X22310Y985D03*
X24774Y2626D03*
X24595Y2886D03*
X20189Y4373D03*
X11750Y-306D03*
X11863Y4233D03*
X12112Y-1626D03*
X19238Y-5038D03*
X20384Y-5075D03*
X11405Y198D03*
X10333Y5033D03*
X13912Y4518D03*
X11669Y2745D03*
X16858Y-4121D03*
X19565Y-860D03*
X22055Y-2593D03*
X19624Y-3616D03*
X21671Y477D03*
X22620Y-1082D03*
X19198Y2254D03*
X16886Y-5446D03*
X19838Y2377D03*
X17933Y-5601D03*
X26784Y7650D03*
X23011Y2979D03*
X785Y250D03*
X9163Y-4972D03*
X19768Y-427D03*
X22679Y2727D03*
X22606Y3353D03*
X17577Y-681D03*
X18064Y3956D03*
X18008Y3621D03*
X17822Y2013D03*
X17018Y-4746D03*
X18834Y-1330D03*
X22622Y416D03*
X23579Y572D03*
X24313Y301D03*
X24193Y810D03*
X21282Y2308D03*
X20585Y2270D03*
X18069Y-197D03*
X16417Y842D03*
X15643Y1433D03*
X19823Y-2509D03*
X17296Y-3480D03*
X17581Y-3700D03*
X13043Y-863D03*
X13554Y-863D03*
X18018Y-2599D03*
X18249Y-2388D03*
X17336Y-3920D03*
X22321Y-817D03*
X24798Y2196D03*
X25372Y2490D03*
X25094Y1883D03*
X24741Y1765D03*
X22838Y6249D03*
X20522Y-2624D03*
X23557Y6937D03*
X20691Y-3580D03*
X23001Y6617D03*
X20197Y-3577D03*
X20421Y8500D03*
X18671Y-2165D03*
X7941Y-4309D03*
X7941Y-6035D03*
X23980Y-897D03*
X21588Y-2601D03*
X21029Y-2500D03*
X13565Y-4417D03*
X13182Y-325D03*
X15186Y-2365D03*
X13065Y-5051D03*
X12341Y-6885D03*
G54D37*
X20599Y-9387D02*
X20599Y-9500D01*
X20175Y-8963D02*
X20599Y-9387D01*
X19804Y-8963D02*
X20175Y-8963D01*
X19500Y-9268D02*
X19804Y-8963D01*
X19500Y-10052D02*
X19500Y-9268D01*
X19221Y-10330D02*
X19500Y-10052D01*
X19221Y-10704D02*
X19221Y-10330D01*
X16983Y-12942D02*
X19221Y-10704D01*
X11336Y-12942D02*
X16983Y-12942D01*
X9200Y-10806D02*
X11336Y-12942D01*
X9200Y-10750D02*
X9200Y-10806D01*
X8750Y-10750D02*
X9200Y-10750D01*
X21000Y-9500D02*
X20599Y-9500D01*
G54D38*
X19240Y2940D02*
X19240Y4780D01*
X19570Y2610D02*
X19240Y2940D01*
X13853Y-6339D02*
X16002Y-8489D01*
X13853Y-2483D02*
X13853Y-6339D01*
X7714Y-4142D02*
X8019Y-3837D01*
X7714Y-9341D02*
X7714Y-4142D01*
X8665Y-10292D02*
X7714Y-9341D01*
X12368Y-10292D02*
X8665Y-10292D01*
X13621Y-11544D02*
X12368Y-10292D01*
X21635Y-9881D02*
X21635Y-9565D01*
X24075Y-12321D02*
X21635Y-9881D01*
X28420Y-12321D02*
X24075Y-12321D01*
X28500Y-12242D02*
X28420Y-12321D01*
X8835Y-6454D02*
X9011Y-6629D01*
X8835Y-5273D02*
X8835Y-6454D01*
X8021Y-3525D02*
X7593Y-3953D01*
X8021Y-3463D02*
X8021Y-3525D01*
X8705Y-2779D02*
X8021Y-3463D01*
X8446Y-4884D02*
X8835Y-5273D01*
X8446Y-3950D02*
X8446Y-4884D01*
X8021Y-3525D02*
X8446Y-3950D01*
X16553Y-2751D02*
X16553Y-3267D01*
X12410Y1391D02*
X16553Y-2751D01*
X11914Y1391D02*
X12410Y1391D01*
X11454Y1851D02*
X11914Y1391D01*
X11454Y2834D02*
X11454Y1851D01*
X11543Y2923D02*
X11454Y2834D01*
X11543Y3954D02*
X11543Y2923D01*
X11177Y4319D02*
X11543Y3954D01*
X16231Y-2599D02*
X16231Y-3273D01*
X12488Y1143D02*
X16231Y-2599D01*
X11968Y1143D02*
X12488Y1143D01*
X10636Y2475D02*
X11968Y1143D01*
X10636Y3493D02*
X10636Y2475D01*
X8611Y5250D02*
X11054Y5250D01*
X6575Y3213D02*
X8611Y5250D01*
X21040Y-4599D02*
X21587Y-5146D01*
X21040Y-3581D02*
X21040Y-4599D01*
X23755Y-5081D02*
X24302Y-5627D01*
X23755Y347D02*
X23755Y-5081D01*
X23811Y403D02*
X23755Y347D01*
X23811Y1702D02*
X23811Y403D01*
X23735Y1778D02*
X23811Y1702D01*
X18456Y-2254D02*
X18456Y-1767D01*
X18474Y-2272D02*
X18456Y-2254D01*
X18474Y-3113D02*
X18474Y-2272D01*
X17447Y-4140D02*
X18474Y-3113D01*
X17182Y-4140D02*
X17447Y-4140D01*
X16948Y-3906D02*
X17182Y-4140D01*
X14925Y-3906D02*
X16948Y-3906D01*
X14782Y-4049D02*
X14925Y-3906D01*
X29000Y-9500D02*
X29000Y-9890D01*
X28328Y-10561D02*
X29000Y-9890D01*
X22675Y-10561D02*
X28328Y-10561D01*
X22001Y-9888D02*
X22675Y-10561D01*
X22001Y-6218D02*
X22001Y-9888D01*
X19953Y-4170D02*
X22001Y-6218D01*
X19953Y-3330D02*
X19953Y-4170D01*
X19607Y-2985D02*
X19953Y-3330D01*
X19607Y-1579D02*
X19607Y-2985D01*
X19983Y-1203D02*
X19607Y-1579D01*
X19983Y-184D02*
X19983Y-1203D01*
X19405Y394D02*
X19983Y-184D01*
X28314Y-8500D02*
X29000Y-8500D01*
X27482Y-9331D02*
X28314Y-8500D01*
X27482Y-9712D02*
X27482Y-9331D01*
X26903Y-10290D02*
X27482Y-9712D01*
X22754Y-10290D02*
X26903Y-10290D01*
X22361Y-9898D02*
X22754Y-10290D01*
X22361Y-4225D02*
X22361Y-9898D01*
X21244Y-3107D02*
X22361Y-4225D01*
X21244Y74D02*
X21244Y-3107D01*
X21154Y164D02*
X21244Y74D01*
X30000Y-1500D02*
X29614Y-1500D01*
X27468Y2288D02*
X27468Y2748D01*
X28739Y1017D02*
X27468Y2288D01*
X29043Y1017D02*
X28739Y1017D01*
X29614Y446D02*
X29043Y1017D01*
X29614Y-1500D02*
X29614Y446D01*
X22057Y1720D02*
X21477Y1720D01*
X26923Y6587D02*
X22057Y1720D01*
X26923Y7015D02*
X26923Y6587D01*
X20240Y1583D02*
X20095Y1439D01*
X20240Y4034D02*
X20240Y1583D01*
X20524Y4319D02*
X20240Y4034D01*
X20524Y4445D02*
X20524Y4319D01*
X22921Y6842D02*
X20524Y4445D01*
X23091Y6842D02*
X22921Y6842D01*
X23397Y6536D02*
X23091Y6842D01*
X23397Y6313D02*
X23397Y6536D01*
X22310Y1075D02*
X22310Y985D01*
X25138Y3903D02*
X22310Y1075D01*
X29211Y3903D02*
X25138Y3903D01*
X29614Y3500D02*
X29211Y3903D01*
X30000Y3500D02*
X29614Y3500D01*
X29000Y-5500D02*
X29385Y-5500D01*
X24526Y2378D02*
X24774Y2626D01*
X24526Y1676D02*
X24526Y2378D01*
X27642Y-1439D02*
X24526Y1676D01*
X27642Y-2898D02*
X27642Y-1439D01*
X28690Y-3946D02*
X27642Y-2898D01*
X29007Y-3946D02*
X28690Y-3946D01*
X29385Y-4324D02*
X29007Y-3946D01*
X29385Y-5500D02*
X29385Y-4324D01*
X29000Y-4500D02*
X29000Y-4109D01*
X24406Y2696D02*
X24595Y2886D01*
X24406Y1386D02*
X24406Y2696D01*
X26405Y-612D02*
X24406Y1386D01*
X26405Y-1856D02*
X26405Y-612D01*
X28658Y-4109D02*
X26405Y-1856D01*
X29000Y-4109D02*
X28658Y-4109D01*
X24500Y8683D02*
X20189Y4373D01*
X24500Y9686D02*
X24500Y8683D01*
X24962Y10149D02*
X24500Y9686D01*
X28060Y10149D02*
X24962Y10149D01*
X28404Y9805D02*
X28060Y10149D01*
X28404Y8348D02*
X28404Y9805D01*
X28670Y8082D02*
X28404Y8348D01*
X28969Y8082D02*
X28670Y8082D01*
X29390Y7661D02*
X28969Y8082D01*
X29390Y7548D02*
X29390Y7661D01*
X29939Y7000D02*
X29390Y7548D01*
X30256Y7000D02*
X29939Y7000D01*
X30602Y6653D02*
X30256Y7000D01*
X30602Y-2653D02*
X30602Y6653D01*
X30146Y-3109D02*
X30602Y-2653D01*
X30000Y-3109D02*
X30146Y-3109D01*
X30000Y-3500D02*
X30000Y-3109D01*
X12250Y727D02*
X11854Y727D01*
X1325Y-5925D02*
X1310Y-5925D01*
X2500Y-7114D02*
X2500Y-9500D01*
X1310Y-5925D02*
X2500Y-7114D01*
X11854Y-306D02*
X11750Y-306D01*
X1310Y-5697D02*
X1310Y-5925D01*
X500Y-4887D02*
X1310Y-5697D01*
X500Y-4422D02*
X500Y-4887D01*
X9000Y-4000D02*
X9000Y-4207D01*
X12250Y-2225D02*
X12052Y-2225D01*
X12052Y-2225D02*
X11854Y-2225D01*
X11854Y-306D02*
X11854Y727D01*
X13400Y6222D02*
X11718Y4540D01*
X13400Y9500D02*
X13400Y6222D01*
X10419Y2163D02*
X11854Y727D01*
X10419Y3866D02*
X10419Y2163D01*
X11093Y4540D02*
X10419Y3866D01*
X11718Y4540D02*
X11093Y4540D01*
X11718Y4378D02*
X11863Y4233D01*
X11718Y4540D02*
X11718Y4378D01*
X9389Y-9110D02*
X8750Y-9750D01*
X9389Y-4207D02*
X9389Y-9110D01*
X9000Y-4207D02*
X9389Y-4207D01*
X9872Y-4207D02*
X11854Y-2225D01*
X9389Y-4207D02*
X9872Y-4207D01*
X30000Y-9500D02*
X29614Y-9500D01*
X16000Y-11384D02*
X15692Y-11692D01*
X16000Y-10750D02*
X16000Y-11384D01*
X15307Y-11692D02*
X15692Y-11692D01*
X15000Y-12000D02*
X15307Y-11692D01*
X15692Y-11692D02*
X16000Y-12000D01*
X29505Y-9608D02*
X29614Y-9500D01*
X29505Y-10744D02*
X29505Y-9608D01*
X28500Y-11750D02*
X29505Y-10744D01*
X12052Y-2225D02*
X12052Y-1626D01*
X11854Y-1478D02*
X11854Y-306D01*
X12002Y-1626D02*
X11854Y-1478D01*
X12052Y-1626D02*
X12002Y-1626D01*
X12112Y-1626D02*
X12112Y-1626D01*
X12052Y-1626D02*
X12112Y-1626D01*
X500Y5780D02*
X644Y5925D01*
X500Y-573D02*
X500Y5780D01*
X500Y-1077D02*
X500Y-573D01*
X1325Y5925D02*
X644Y5925D01*
X20346Y-5038D02*
X20384Y-5075D01*
X19238Y-5038D02*
X20346Y-5038D01*
X10299Y5000D02*
X10333Y5033D01*
X10299Y1304D02*
X10299Y5000D01*
X11405Y198D02*
X10299Y1304D01*
X11669Y3730D02*
X11669Y2745D01*
X12457Y4518D02*
X11669Y3730D01*
X13912Y4518D02*
X12457Y4518D01*
X14570Y-11179D02*
X15000Y-10750D01*
X14570Y-12480D02*
X14570Y-11179D01*
X14901Y-12812D02*
X14570Y-12480D01*
X16187Y-12812D02*
X14901Y-12812D01*
X16500Y-12500D02*
X16187Y-12812D01*
X15520Y-10229D02*
X15000Y-10750D01*
X15520Y-9285D02*
X15520Y-10229D01*
X16585Y-8220D02*
X15520Y-9285D01*
X16585Y-4394D02*
X16585Y-8220D01*
X16858Y-4121D02*
X16585Y-4394D01*
X16855Y-8958D02*
X17172Y-8958D01*
X16609Y-9204D02*
X16855Y-8958D01*
X16609Y-10359D02*
X16609Y-9204D01*
X17000Y-10750D02*
X16609Y-10359D01*
X17051Y-12500D02*
X17000Y-12500D01*
X17530Y-12020D02*
X17051Y-12500D01*
X17530Y-9316D02*
X17530Y-12020D01*
X17172Y-8958D02*
X17530Y-9316D01*
X19005Y-7126D02*
X17172Y-8958D01*
X19005Y-3931D02*
X19005Y-7126D01*
X19487Y-3448D02*
X19005Y-3931D01*
X19487Y-937D02*
X19487Y-3448D01*
X19565Y-860D02*
X19487Y-937D01*
X30000Y4500D02*
X29614Y4500D01*
X22837Y-1812D02*
X22055Y-2593D01*
X22837Y-158D02*
X22837Y-1812D01*
X22136Y542D02*
X22837Y-158D01*
X22136Y801D02*
X22136Y542D01*
X22094Y843D02*
X22136Y801D01*
X22094Y1078D02*
X22094Y843D01*
X25125Y4109D02*
X22094Y1078D01*
X29224Y4109D02*
X25125Y4109D01*
X29614Y4500D02*
X29224Y4109D01*
X30000Y-4500D02*
X30000Y-4890D01*
X30176Y-4890D02*
X30000Y-4890D01*
X30602Y-5316D02*
X30176Y-4890D01*
X30602Y-6653D02*
X30602Y-5316D01*
X30256Y-7000D02*
X30602Y-6653D01*
X29935Y-7000D02*
X30256Y-7000D01*
X29385Y-7549D02*
X29935Y-7000D01*
X29385Y-9691D02*
X29385Y-7549D01*
X26894Y-12182D02*
X29385Y-9691D01*
X24125Y-12182D02*
X26894Y-12182D01*
X21854Y-9910D02*
X24125Y-12182D01*
X21854Y-6241D02*
X21854Y-9910D01*
X19624Y-4011D02*
X21854Y-6241D01*
X19624Y-3616D02*
X19624Y-4011D01*
X21671Y-2286D02*
X21671Y477D01*
X21839Y-2454D02*
X21671Y-2286D01*
X21839Y-2989D02*
X21839Y-2454D01*
X22609Y-3759D02*
X21839Y-2989D01*
X22609Y-9806D02*
X22609Y-3759D01*
X22833Y-10030D02*
X22609Y-9806D01*
X26171Y-10030D02*
X22833Y-10030D01*
X26482Y-9719D02*
X26171Y-10030D01*
X26482Y-9267D02*
X26482Y-9719D01*
X28857Y-6892D02*
X26482Y-9267D01*
X29222Y-6892D02*
X28857Y-6892D01*
X29614Y-6500D02*
X29222Y-6892D01*
X30000Y-6500D02*
X29614Y-6500D01*
X30000Y6500D02*
X29614Y6500D01*
X22620Y-281D02*
X22620Y-1082D01*
X22016Y322D02*
X22620Y-281D01*
X22016Y751D02*
X22016Y322D01*
X21974Y793D02*
X22016Y751D01*
X21974Y1128D02*
X21974Y793D01*
X26845Y5999D02*
X21974Y1128D01*
X29114Y5999D02*
X26845Y5999D01*
X29114Y5999D02*
X29114Y5999D01*
X29614Y6500D02*
X29114Y5999D01*
X16886Y-5276D02*
X16886Y-5446D01*
X19051Y-3111D02*
X16886Y-5276D01*
X19051Y2107D02*
X19051Y-3111D01*
X19198Y2254D02*
X19051Y2107D01*
X17933Y-4399D02*
X17933Y-5601D01*
X19171Y-3161D02*
X17933Y-4399D01*
X19171Y1710D02*
X19171Y-3161D01*
X19838Y2377D02*
X19171Y1710D01*
X26708Y6676D02*
X23011Y2979D01*
X26708Y7574D02*
X26708Y6676D01*
X26784Y7650D02*
X26708Y7574D01*
X6002Y250D02*
X785Y250D01*
X8928Y-2675D02*
X6002Y250D01*
X8928Y-2945D02*
X8928Y-2675D01*
X8585Y-3289D02*
X8928Y-2945D01*
X8585Y-4394D02*
X8585Y-3289D01*
X9163Y-4972D02*
X8585Y-4394D01*
X14690Y-12190D02*
X15000Y-12500D01*
X14690Y-11627D02*
X14690Y-12190D01*
X15542Y-10775D02*
X14690Y-11627D01*
X15542Y-10480D02*
X15542Y-10775D01*
X16000Y-10023D02*
X15542Y-10480D01*
X16000Y-9700D02*
X16000Y-10023D01*
X16000Y-9700D02*
X16000Y-9500D01*
X16000Y-9500D02*
X16390Y-9500D01*
X19692Y-427D02*
X19768Y-427D01*
X19300Y-819D02*
X19692Y-427D01*
X19300Y-3288D02*
X19300Y-819D01*
X18805Y-3783D02*
X19300Y-3288D01*
X18805Y-6694D02*
X18805Y-3783D01*
X16390Y-9109D02*
X18805Y-6694D01*
X16390Y-9500D02*
X16390Y-9109D01*
X26000Y9500D02*
X26000Y8977D01*
X26000Y6272D02*
X26000Y8977D01*
X22679Y2951D02*
X26000Y6272D01*
X22679Y2727D02*
X22679Y2951D01*
X25000Y9500D02*
X25000Y8977D01*
X25000Y5746D02*
X22606Y3353D01*
X25000Y8977D02*
X25000Y5746D01*
X17577Y350D02*
X17577Y-681D01*
X18652Y1424D02*
X17577Y350D01*
X18652Y8752D02*
X18652Y1424D01*
X19009Y9109D02*
X18652Y8752D01*
X19009Y9500D02*
X19009Y9109D01*
X19400Y9500D02*
X19009Y9500D01*
X17400Y4621D02*
X18064Y3956D01*
X17400Y9500D02*
X17400Y4621D01*
X16400Y5229D02*
X18008Y3621D01*
X16400Y9500D02*
X16400Y5229D01*
X18400Y9500D02*
X18400Y8977D01*
X18430Y2620D02*
X17822Y2013D01*
X18430Y8947D02*
X18430Y2620D01*
X18400Y8977D02*
X18430Y8947D01*
X18892Y-1388D02*
X18834Y-1330D01*
X18892Y-2872D02*
X18892Y-1388D01*
X17018Y-4746D02*
X18892Y-2872D01*
X23000Y-9500D02*
X23000Y-8976D01*
X23000Y39D02*
X22622Y416D01*
X23000Y-8976D02*
X23000Y39D01*
X24000Y-9500D02*
X23609Y-9500D01*
X23579Y-9470D02*
X23609Y-9500D01*
X23579Y572D02*
X23579Y-9470D01*
X25000Y-385D02*
X25000Y-9500D01*
X24313Y301D02*
X25000Y-385D01*
X26000Y-996D02*
X24193Y810D01*
X26000Y-9500D02*
X26000Y-996D01*
X27000Y-9500D02*
X26609Y-9500D01*
X26609Y-9792D02*
X26609Y-9500D01*
X26251Y-10150D02*
X26609Y-9792D01*
X22784Y-10150D02*
X26251Y-10150D01*
X22482Y-9848D02*
X22784Y-10150D01*
X22482Y-3988D02*
X22482Y-9848D01*
X21369Y-2875D02*
X22482Y-3988D01*
X21369Y304D02*
X21369Y-2875D01*
X21252Y421D02*
X21369Y304D01*
X21252Y2278D02*
X21252Y421D01*
X21282Y2308D02*
X21252Y2278D01*
X28000Y-9500D02*
X27609Y-9500D01*
X27609Y-9756D02*
X27609Y-9500D01*
X26938Y-10427D02*
X27609Y-9756D01*
X22710Y-10427D02*
X26938Y-10427D01*
X22121Y-9838D02*
X22710Y-10427D01*
X22121Y-6083D02*
X22121Y-9838D01*
X20462Y-4424D02*
X22121Y-6083D01*
X20462Y-3210D02*
X20462Y-4424D01*
X20305Y-3053D02*
X20462Y-3210D01*
X20305Y-1829D02*
X20305Y-3053D01*
X20578Y-1555D02*
X20305Y-1829D01*
X20578Y2263D02*
X20578Y-1555D01*
X20585Y2270D02*
X20578Y2263D01*
X21000Y9500D02*
X20609Y9500D01*
X18772Y505D02*
X18069Y-197D01*
X18772Y7662D02*
X18772Y505D01*
X20609Y9500D02*
X18772Y7662D01*
X15400Y9500D02*
X15400Y8977D01*
X15400Y3648D02*
X15400Y8977D01*
X16417Y2630D02*
X15400Y3648D01*
X16417Y842D02*
X16417Y2630D01*
X14400Y2676D02*
X15643Y1433D01*
X14400Y9500D02*
X14400Y2676D01*
X22000Y9500D02*
X21609Y9500D01*
X19823Y-1534D02*
X19823Y-2509D01*
X20104Y-1253D02*
X19823Y-1534D01*
X20104Y816D02*
X20104Y-1253D01*
X19876Y1044D02*
X20104Y816D01*
X19876Y1775D02*
X19876Y1044D01*
X20054Y1953D02*
X19876Y1775D01*
X20054Y4204D02*
X20054Y1953D01*
X19974Y4284D02*
X20054Y4204D01*
X19974Y4462D02*
X19974Y4284D01*
X21609Y6098D02*
X19974Y4462D01*
X21609Y9500D02*
X21609Y6098D01*
X12250Y-1240D02*
X12645Y-1240D01*
X12645Y-956D02*
X12645Y-1240D01*
X12954Y-647D02*
X12645Y-956D01*
X13643Y-647D02*
X12954Y-647D01*
X13769Y-773D02*
X13643Y-647D01*
X13769Y-1253D02*
X13769Y-773D01*
X16004Y-3488D02*
X13769Y-1253D01*
X17287Y-3488D02*
X16004Y-3488D01*
X17296Y-3480D02*
X17287Y-3488D01*
X12250Y1712D02*
X12645Y1712D01*
X17581Y-3224D02*
X12645Y1712D01*
X17581Y-3700D02*
X17581Y-3224D01*
X12250Y-3182D02*
X12645Y-3182D01*
X12765Y-1141D02*
X13043Y-863D01*
X12765Y-3061D02*
X12765Y-1141D01*
X12645Y-3182D02*
X12765Y-3061D01*
X12250Y-3850D02*
X12645Y-3850D01*
X12885Y-1531D02*
X13554Y-863D01*
X12885Y-3610D02*
X12885Y-1531D01*
X12645Y-3850D02*
X12885Y-3610D01*
X12250Y3680D02*
X12645Y3680D01*
X12645Y2773D02*
X12645Y3680D01*
X18018Y-2599D02*
X12645Y2773D01*
X18249Y-2711D02*
X18249Y-2388D01*
X18146Y-2814D02*
X18249Y-2711D01*
X17761Y-2814D02*
X18146Y-2814D01*
X12250Y2697D02*
X17761Y-2814D01*
X17111Y-3695D02*
X17336Y-3920D01*
X15369Y-3695D02*
X17111Y-3695D01*
X13931Y-2256D02*
X15369Y-3695D01*
X13745Y-2256D02*
X13931Y-2256D01*
X13612Y-2389D02*
X13745Y-2256D01*
X13612Y-3395D02*
X13612Y-2389D01*
X12645Y-4362D02*
X13612Y-3395D01*
X12250Y-4362D02*
X12645Y-4362D01*
X21896Y-392D02*
X22321Y-817D01*
X21896Y701D02*
X21896Y-392D01*
X21854Y743D02*
X21896Y701D01*
X21854Y1178D02*
X21854Y743D01*
X28176Y7500D02*
X21854Y1178D01*
X29000Y7500D02*
X28176Y7500D01*
X29000Y2500D02*
X29000Y2890D01*
X28924Y2965D02*
X29000Y2890D01*
X25538Y2965D02*
X28924Y2965D01*
X24798Y2226D02*
X25538Y2965D01*
X24798Y2196D02*
X24798Y2226D01*
X29000Y500D02*
X29000Y890D01*
X25632Y2490D02*
X25372Y2490D01*
X27233Y890D02*
X25632Y2490D01*
X29000Y890D02*
X27233Y890D01*
X29000Y-1500D02*
X28418Y-1500D01*
X28418Y-1441D02*
X25094Y1883D01*
X28418Y-1500D02*
X28418Y-1441D01*
X29000Y-500D02*
X28418Y-500D01*
X25815Y2102D02*
X28418Y-500D01*
X25009Y2102D02*
X25815Y2102D01*
X24741Y1834D02*
X25009Y2102D01*
X24741Y1765D02*
X24741Y1834D01*
X22838Y6214D02*
X22838Y6249D01*
X20810Y4186D02*
X22838Y6214D01*
X20810Y465D02*
X20810Y4186D01*
X20699Y353D02*
X20810Y465D01*
X20699Y-2267D02*
X20699Y353D01*
X20522Y-2443D02*
X20699Y-2267D01*
X20522Y-2624D02*
X20522Y-2443D01*
X23612Y6882D02*
X23557Y6937D01*
X23612Y6224D02*
X23612Y6882D01*
X20940Y3552D02*
X23612Y6224D01*
X20940Y425D02*
X20940Y3552D01*
X20819Y303D02*
X20940Y425D01*
X20819Y-2391D02*
X20819Y303D01*
X20799Y-2411D02*
X20819Y-2391D01*
X20799Y-3473D02*
X20799Y-2411D01*
X20691Y-3580D02*
X20799Y-3473D01*
X23001Y6617D02*
X23001Y6617D01*
X22901Y6617D02*
X23001Y6617D01*
X21818Y5534D02*
X22901Y6617D01*
X21818Y5364D02*
X21818Y5534D01*
X20360Y3906D02*
X21818Y5364D01*
X20360Y-1196D02*
X20360Y3906D01*
X20171Y-1384D02*
X20360Y-1196D01*
X20171Y-3552D02*
X20171Y-1384D01*
X20197Y-3577D02*
X20171Y-3552D01*
X18671Y-1629D02*
X18671Y-2165D01*
X18607Y-1565D02*
X18671Y-1629D01*
X18607Y-253D02*
X18607Y-1565D01*
X18892Y31D02*
X18607Y-253D01*
X18892Y6970D02*
X18892Y31D01*
X20421Y8500D02*
X18892Y6970D01*
X7941Y-4309D02*
X7941Y-6035D01*
X28418Y3499D02*
X28418Y3500D01*
X24904Y3499D02*
X28418Y3499D01*
X23978Y2573D02*
X24904Y3499D01*
X23978Y-895D02*
X23978Y2573D01*
X23980Y-897D02*
X23978Y-895D01*
X29000Y3500D02*
X28418Y3500D01*
X21489Y-2502D02*
X21588Y-2601D01*
X21489Y354D02*
X21489Y-2502D01*
X21455Y387D02*
X21489Y354D01*
X21455Y949D02*
X21455Y387D01*
X28000Y7493D02*
X21455Y949D01*
X28000Y9500D02*
X28000Y7493D01*
X27000Y9500D02*
X26609Y9500D01*
X20939Y-2410D02*
X21029Y-2500D01*
X20939Y253D02*
X20939Y-2410D01*
X21060Y375D02*
X20939Y253D01*
X21060Y2391D02*
X21060Y375D01*
X21482Y2813D02*
X21060Y2391D01*
X22371Y2813D02*
X21482Y2813D01*
X25404Y5846D02*
X22371Y2813D01*
X25404Y9597D02*
X25404Y5846D01*
X25836Y10028D02*
X25404Y9597D01*
X26178Y10028D02*
X25836Y10028D01*
X26609Y9597D02*
X26178Y10028D01*
X26609Y9500D02*
X26609Y9597D01*
G54D37*
X14599Y-9754D02*
X14599Y-9500D01*
X14000Y-10354D02*
X14599Y-9754D01*
X14000Y-10750D02*
X14000Y-10354D01*
X15000Y-9500D02*
X14599Y-9500D01*
X12250Y-255D02*
X12655Y-255D01*
X13565Y-7896D02*
X13565Y-4417D01*
X14599Y-8931D02*
X13565Y-7896D01*
X14599Y-9500D02*
X14599Y-8931D01*
X13113Y-255D02*
X13182Y-325D01*
X12655Y-255D02*
X13113Y-255D01*
X13504Y-325D02*
X13182Y-325D01*
X15186Y-2007D02*
X13504Y-325D01*
X15186Y-2365D02*
X15186Y-2007D01*
X17400Y-11299D02*
X17000Y-11699D01*
X17400Y-9500D02*
X17400Y-11299D01*
X17000Y-9500D02*
X17400Y-9500D01*
X17000Y-12000D02*
X17000Y-11699D01*
G54D38*
X12341Y-5775D02*
X12341Y-6885D01*
X13065Y-5051D02*
X12341Y-5775D01*
M02*
