M48
INCH,TZ
T1C0.013
T2C0.020
T3C0.020
T4C0.026
T5C0.039
T6C0.039
T7C0.039
T8C0.040
T9C0.043
T10C0.059
T11C0.063
T12C0.067
T13C0.079
T14C0.118
T15C0.126
%
G90
G05
T1
X785Y251
X6575Y3214
X7593Y-3954
X7941Y-4310
X7941Y-6035
X8020Y-3838
X8706Y-2779
X8836Y-5273
X9011Y-6630
X9164Y-4973
X10333Y5034
X10636Y3493
X11055Y5250
X11178Y4320
X11406Y198
X11669Y2746
X11751Y-306
X11864Y4233
X12113Y-1626
X12342Y-6885
X13043Y-863
X13065Y-5051
X13183Y-325
X13554Y-863
X13566Y-4418
X13621Y-11545
X13853Y-2483
X13913Y4519
X14783Y-4049
X15186Y-2365
X15643Y1433
X16003Y-8489
X16231Y-3274
X16418Y842
X16553Y-3268
X16858Y-4121
X16887Y-5446
X17019Y-4746
X17296Y-3480
X17337Y-3921
X17578Y-681
X17581Y-3700
X17823Y2014
X17934Y-5602
X18008Y3621
X18018Y-2599
X18065Y3957
X18070Y-197
X18250Y-2389
X18456Y-1767
X18672Y-2165
X18834Y-1331
X19199Y2255
X19238Y-5038
X19240Y4780
X19405Y394
X19565Y-860
X19570Y2610
X19624Y-3616
X19769Y-427
X19823Y-2509
X19839Y2378
X20096Y1439
X20190Y4374
X20197Y-3577
X20384Y-5076
X20422Y8500
X20522Y-2625
X20585Y2270
X20692Y-3581
X21029Y-2500
X21040Y-3581
X21154Y165
X21282Y2309
X21478Y1721
X21588Y-5147
X21588Y-2601
X21635Y-9566
X21671Y477
X22055Y-2594
X22310Y986
X22321Y-817
X22607Y3353
X22620Y-1083
X22623Y417
X22680Y2728
X22838Y6250
X23001Y6618
X23011Y2979
X23397Y6314
X23558Y6937
X23580Y572
X23736Y1778
X23980Y-898
X24194Y810
X24302Y-5628
X24313Y301
X24596Y2886
X24741Y1766
X24775Y2626
X24799Y2196
X25094Y1883
X25372Y2491
X26784Y7650
X26924Y7015
X27468Y2749
T2
X9000Y-4000
T3
X28500Y-11258
X28500Y-11750
X28500Y-12242
T4
X1681Y-1864
X1681Y-3636
X15000Y-12000
X15000Y-12500
X15500Y-12000
X15500Y-12500
X16000Y-12000
X16000Y-12500
X16500Y-12000
X16500Y-12500
X17000Y-12000
X17000Y-12500
T5
X10400Y9500
X11400Y9500
X12401Y9500
X13400Y9500
X14400Y9500
X15400Y9500
X16400Y9500
X17400Y9500
X18400Y9500
X19400Y9500
X21000Y9500
X22000Y9500
X23000Y9500
X24000Y9500
X25000Y9500
X26000Y9500
X27000Y9500
X28000Y9500
T6
X14000Y-10750
X15000Y-10750
X16000Y-10750
X17000Y-10750
T7
X14000Y-9500
X15000Y-9500
X16000Y-9500
X17000Y-9500
X18000Y-9500
X19000Y-9500
X20000Y-9500
X21000Y-9500
X23000Y-9500
X24000Y-9500
X25000Y-9500
X26000Y-9500
X27000Y-9500
X28000Y-9500
X29000Y9500
X29000Y8500
X29000Y7500
X29000Y6500
X29000Y5500
X29000Y4500
X29000Y3500
X29000Y2500
X29000Y1500
X29000Y500
X29000Y-500
X29000Y-1500
X29000Y-2500
X29000Y-3500
X29000Y-4500
X29000Y-5500
X29000Y-6500
X29000Y-7500
X29000Y-8500
X29000Y-9500
X30000Y9500
X30000Y8500
X30000Y7500
X30000Y6500
X30000Y5500
X30000Y4500
X30000Y3500
X30000Y2500
X30000Y1500
X30000Y500
X30000Y-500
X30000Y-1500
X30000Y-2500
X30000Y-3500
X30000Y-4500
X30000Y-5500
X30000Y-6500
X30000Y-7500
X30000Y-8500
X30000Y-9500
T8
X8750Y-8750
X8750Y-9750
X8750Y-10750
T9
X11138Y-4587
T10
X500Y-1077
X500Y-4423
T11
X11138Y3681
T12
X1372Y10250
X4128Y10250
T13
X728Y-9500
T14
X2500Y-9500
X3760Y-11390
X4980Y-9500
T15
X10657Y11213
X10657Y-11213
X26406Y11440
X26406Y-11440
T0
M30
