G04 (created by PCBNEW (2013-07-07 BZR 4022)-stable) date 21/01/2015 21:24:29*
%MOIN*%
G04 Gerber Fmt 3.4, Leading zero omitted, Abs format*
%FSLAX34Y34*%
G01*
G70*
G90*
G04 APERTURE LIST*
%ADD10C,0.00590551*%
%ADD11C,0.0039*%
%ADD12C,0.008*%
%ADD13C,0.005*%
%ADD14C,0.01*%
%ADD15C,0.0047*%
%ADD16C,0.015*%
%ADD17C,0.012*%
%ADD18C,0.0001*%
%ADD19C,0.0031*%
%ADD20C,0.0059*%
%ADD21C,0.0043*%
%ADD22C,0.0045*%
%ADD23C,0.006*%
%ADD24C,0.007*%
%ADD25C,0.0051*%
G04 APERTURE END LIST*
G54D10*
G54D11*
X27742Y130D02*
X27742Y-1130D01*
X27742Y-1130D02*
X26758Y-1130D01*
X26758Y-1130D02*
X26758Y130D01*
X26758Y130D02*
X27742Y130D01*
G54D12*
X-71Y-1470D02*
X-71Y-4030D01*
X992Y-4226D02*
X1701Y-4226D01*
X1701Y-4226D02*
X1701Y-3951D01*
X1701Y-2179D02*
X1701Y-3301D01*
X1012Y-1274D02*
X1701Y-1274D01*
X1701Y-1274D02*
X1701Y-1510D01*
X-346Y-4226D02*
X-12Y-4226D01*
X-346Y-4226D02*
X-346Y-1274D01*
X-346Y-1274D02*
X-12Y-1274D01*
G54D10*
X25551Y-10923D02*
X24448Y-10923D01*
X24448Y-10923D02*
X24448Y-12576D01*
X24448Y-12576D02*
X25551Y-12576D01*
X25551Y-10923D02*
X25551Y-12576D01*
X22198Y-12576D02*
X23301Y-12576D01*
X23301Y-12576D02*
X23301Y-10923D01*
X23301Y-10923D02*
X22198Y-10923D01*
X22198Y-12576D02*
X22198Y-10923D01*
G54D13*
X9910Y250D02*
X9480Y250D01*
X9910Y750D02*
X9480Y750D01*
X9910Y1250D02*
X9480Y1250D01*
X9480Y1750D02*
X9910Y1750D01*
X9480Y2250D02*
X9910Y2250D01*
X9480Y2750D02*
X9910Y2750D01*
X6090Y5750D02*
X6520Y5750D01*
X6090Y6250D02*
X6520Y6250D01*
X6520Y6750D02*
X6090Y6750D01*
X6520Y1250D02*
X6090Y1250D01*
X6520Y750D02*
X6090Y750D01*
X6520Y250D02*
X6090Y250D01*
G54D14*
X6524Y7024D02*
X6524Y-24D01*
X6524Y-24D02*
X9476Y-24D01*
X9476Y-24D02*
X9476Y7024D01*
X9476Y7024D02*
X6524Y7024D01*
G54D13*
X9480Y5750D02*
X9910Y5750D01*
X9480Y5250D02*
X9910Y5250D01*
X9480Y4750D02*
X9910Y4750D01*
X9480Y6250D02*
X9910Y6250D01*
X9910Y6750D02*
X9480Y6750D01*
X9910Y4250D02*
X9480Y4250D01*
X9910Y3750D02*
X9480Y3750D01*
X9910Y3250D02*
X9480Y3250D01*
X6520Y1750D02*
X6090Y1750D01*
X6520Y2250D02*
X6090Y2250D01*
X6520Y2750D02*
X6090Y2750D01*
X6520Y5250D02*
X6090Y5250D01*
X6090Y4750D02*
X6520Y4750D01*
X6090Y3250D02*
X6520Y3250D01*
X6090Y3750D02*
X6520Y3750D01*
X6090Y4250D02*
X6520Y4250D01*
G54D14*
X7144Y6577D02*
G75*
G03X7144Y6577I-186J0D01*
G74*
G01*
G54D11*
X3000Y8150D02*
G75*
G03X3000Y8150I-50J0D01*
G74*
G01*
X2950Y7700D02*
X2950Y8100D01*
X2950Y8100D02*
X3550Y8100D01*
X3550Y8100D02*
X3550Y7700D01*
X3550Y7300D02*
X3550Y6900D01*
X3550Y6900D02*
X2950Y6900D01*
X2950Y6900D02*
X2950Y7300D01*
X2000Y8150D02*
G75*
G03X2000Y8150I-50J0D01*
G74*
G01*
X1950Y7700D02*
X1950Y8100D01*
X1950Y8100D02*
X2550Y8100D01*
X2550Y8100D02*
X2550Y7700D01*
X2550Y7300D02*
X2550Y6900D01*
X2550Y6900D02*
X1950Y6900D01*
X1950Y6900D02*
X1950Y7300D01*
X25400Y4950D02*
G75*
G03X25400Y4950I-50J0D01*
G74*
G01*
X25800Y4950D02*
X25400Y4950D01*
X25400Y4950D02*
X25400Y5550D01*
X25400Y5550D02*
X25800Y5550D01*
X26200Y5550D02*
X26600Y5550D01*
X26600Y5550D02*
X26600Y4950D01*
X26600Y4950D02*
X26200Y4950D01*
G54D13*
X18225Y5303D02*
X18225Y5025D01*
X18225Y5025D02*
X18775Y5025D01*
X18775Y5025D02*
X18775Y5303D01*
X18225Y5975D02*
X18225Y5697D01*
X18225Y5975D02*
X18775Y5975D01*
X18775Y5975D02*
X18775Y5697D01*
X25803Y1775D02*
X25525Y1775D01*
X25525Y1775D02*
X25525Y1225D01*
X25525Y1225D02*
X25803Y1225D01*
X26475Y1775D02*
X26197Y1775D01*
X26475Y1775D02*
X26475Y1225D01*
X26475Y1225D02*
X26197Y1225D01*
X25803Y1025D02*
X25525Y1025D01*
X25525Y1025D02*
X25525Y475D01*
X25525Y475D02*
X25803Y475D01*
X26475Y1025D02*
X26197Y1025D01*
X26475Y1025D02*
X26475Y475D01*
X26475Y475D02*
X26197Y475D01*
X22775Y-6053D02*
X22775Y-5775D01*
X22775Y-5775D02*
X22225Y-5775D01*
X22225Y-5775D02*
X22225Y-6053D01*
X22775Y-6725D02*
X22775Y-6447D01*
X22775Y-6725D02*
X22225Y-6725D01*
X22225Y-6725D02*
X22225Y-6447D01*
X3053Y-2225D02*
X2775Y-2225D01*
X2775Y-2225D02*
X2775Y-2775D01*
X2775Y-2775D02*
X3053Y-2775D01*
X3725Y-2225D02*
X3447Y-2225D01*
X3725Y-2225D02*
X3725Y-2775D01*
X3725Y-2775D02*
X3447Y-2775D01*
X23525Y-6053D02*
X23525Y-5775D01*
X23525Y-5775D02*
X22975Y-5775D01*
X22975Y-5775D02*
X22975Y-6053D01*
X23525Y-6725D02*
X23525Y-6447D01*
X23525Y-6725D02*
X22975Y-6725D01*
X22975Y-6725D02*
X22975Y-6447D01*
X3447Y-3525D02*
X3725Y-3525D01*
X3725Y-3525D02*
X3725Y-2975D01*
X3725Y-2975D02*
X3447Y-2975D01*
X2775Y-3525D02*
X3053Y-3525D01*
X2775Y-3525D02*
X2775Y-2975D01*
X2775Y-2975D02*
X3053Y-2975D01*
X25775Y-6053D02*
X25775Y-5775D01*
X25775Y-5775D02*
X25225Y-5775D01*
X25225Y-5775D02*
X25225Y-6053D01*
X25775Y-6725D02*
X25775Y-6447D01*
X25775Y-6725D02*
X25225Y-6725D01*
X25225Y-6725D02*
X25225Y-6447D01*
X25025Y-6053D02*
X25025Y-5775D01*
X25025Y-5775D02*
X24475Y-5775D01*
X24475Y-5775D02*
X24475Y-6053D01*
X25025Y-6725D02*
X25025Y-6447D01*
X25025Y-6725D02*
X24475Y-6725D01*
X24475Y-6725D02*
X24475Y-6447D01*
X16025Y-6053D02*
X16025Y-5775D01*
X16025Y-5775D02*
X15475Y-5775D01*
X15475Y-5775D02*
X15475Y-6053D01*
X16025Y-6725D02*
X16025Y-6447D01*
X16025Y-6725D02*
X15475Y-6725D01*
X15475Y-6725D02*
X15475Y-6447D01*
X17525Y-6053D02*
X17525Y-5775D01*
X17525Y-5775D02*
X16975Y-5775D01*
X16975Y-5775D02*
X16975Y-6053D01*
X17525Y-6725D02*
X17525Y-6447D01*
X17525Y-6725D02*
X16975Y-6725D01*
X16975Y-6725D02*
X16975Y-6447D01*
X14275Y-7053D02*
X14275Y-6775D01*
X14275Y-6775D02*
X13725Y-6775D01*
X13725Y-6775D02*
X13725Y-7053D01*
X14275Y-7725D02*
X14275Y-7447D01*
X14275Y-7725D02*
X13725Y-7725D01*
X13725Y-7725D02*
X13725Y-7447D01*
X4303Y7275D02*
X4025Y7275D01*
X4025Y7275D02*
X4025Y6725D01*
X4025Y6725D02*
X4303Y6725D01*
X4975Y7275D02*
X4697Y7275D01*
X4975Y7275D02*
X4975Y6725D01*
X4975Y6725D02*
X4697Y6725D01*
X25803Y275D02*
X25525Y275D01*
X25525Y275D02*
X25525Y-275D01*
X25525Y-275D02*
X25803Y-275D01*
X26475Y275D02*
X26197Y275D01*
X26475Y275D02*
X26475Y-275D01*
X26475Y-275D02*
X26197Y-275D01*
X25803Y-475D02*
X25525Y-475D01*
X25525Y-475D02*
X25525Y-1025D01*
X25525Y-1025D02*
X25803Y-1025D01*
X26475Y-475D02*
X26197Y-475D01*
X26475Y-475D02*
X26475Y-1025D01*
X26475Y-1025D02*
X26197Y-1025D01*
X12697Y2725D02*
X12975Y2725D01*
X12975Y2725D02*
X12975Y3275D01*
X12975Y3275D02*
X12697Y3275D01*
X12025Y2725D02*
X12303Y2725D01*
X12025Y2725D02*
X12025Y3275D01*
X12025Y3275D02*
X12303Y3275D01*
X12697Y1975D02*
X12975Y1975D01*
X12975Y1975D02*
X12975Y2525D01*
X12975Y2525D02*
X12697Y2525D01*
X12025Y1975D02*
X12303Y1975D01*
X12025Y1975D02*
X12025Y2525D01*
X12025Y2525D02*
X12303Y2525D01*
X1197Y6725D02*
X1475Y6725D01*
X1475Y6725D02*
X1475Y7275D01*
X1475Y7275D02*
X1197Y7275D01*
X525Y6725D02*
X803Y6725D01*
X525Y6725D02*
X525Y7275D01*
X525Y7275D02*
X803Y7275D01*
X25803Y-2475D02*
X25525Y-2475D01*
X25525Y-2475D02*
X25525Y-3025D01*
X25525Y-3025D02*
X25803Y-3025D01*
X26475Y-2475D02*
X26197Y-2475D01*
X26475Y-2475D02*
X26475Y-3025D01*
X26475Y-3025D02*
X26197Y-3025D01*
X21275Y-6053D02*
X21275Y-5775D01*
X21275Y-5775D02*
X20725Y-5775D01*
X20725Y-5775D02*
X20725Y-6053D01*
X21275Y-6725D02*
X21275Y-6447D01*
X21275Y-6725D02*
X20725Y-6725D01*
X20725Y-6725D02*
X20725Y-6447D01*
X12697Y4225D02*
X12975Y4225D01*
X12975Y4225D02*
X12975Y4775D01*
X12975Y4775D02*
X12697Y4775D01*
X12025Y4225D02*
X12303Y4225D01*
X12025Y4225D02*
X12025Y4775D01*
X12025Y4775D02*
X12303Y4775D01*
X19975Y-6447D02*
X19975Y-6725D01*
X19975Y-6725D02*
X20525Y-6725D01*
X20525Y-6725D02*
X20525Y-6447D01*
X19975Y-5775D02*
X19975Y-6053D01*
X19975Y-5775D02*
X20525Y-5775D01*
X20525Y-5775D02*
X20525Y-6053D01*
X12303Y4025D02*
X12025Y4025D01*
X12025Y4025D02*
X12025Y3475D01*
X12025Y3475D02*
X12303Y3475D01*
X12975Y4025D02*
X12697Y4025D01*
X12975Y4025D02*
X12975Y3475D01*
X12975Y3475D02*
X12697Y3475D01*
X19225Y-6447D02*
X19225Y-6725D01*
X19225Y-6725D02*
X19775Y-6725D01*
X19775Y-6725D02*
X19775Y-6447D01*
X19225Y-5775D02*
X19225Y-6053D01*
X19225Y-5775D02*
X19775Y-5775D01*
X19775Y-5775D02*
X19775Y-6053D01*
G54D15*
X12303Y6D02*
X12028Y6D01*
X12697Y6D02*
X12972Y6D01*
X12303Y-506D02*
X12028Y-506D01*
X12972Y-506D02*
X12697Y-506D01*
X12028Y-500D02*
X12028Y0D01*
X12972Y0D02*
X12972Y-500D01*
X6553Y-5244D02*
X6278Y-5244D01*
X6947Y-5244D02*
X7222Y-5244D01*
X6553Y-5756D02*
X6278Y-5756D01*
X7222Y-5756D02*
X6947Y-5756D01*
X6278Y-5750D02*
X6278Y-5250D01*
X7222Y-5250D02*
X7222Y-5750D01*
X6553Y-3244D02*
X6278Y-3244D01*
X6947Y-3244D02*
X7222Y-3244D01*
X6553Y-3756D02*
X6278Y-3756D01*
X7222Y-3756D02*
X6947Y-3756D01*
X6278Y-3750D02*
X6278Y-3250D01*
X7222Y-3250D02*
X7222Y-3750D01*
X11756Y-1553D02*
X11756Y-1278D01*
X11756Y-1947D02*
X11756Y-2222D01*
X11244Y-1553D02*
X11244Y-1278D01*
X11244Y-2222D02*
X11244Y-1947D01*
X11250Y-1278D02*
X11750Y-1278D01*
X11750Y-2222D02*
X11250Y-2222D01*
X4697Y7494D02*
X4972Y7494D01*
X4303Y7494D02*
X4028Y7494D01*
X4697Y8006D02*
X4972Y8006D01*
X4028Y8006D02*
X4303Y8006D01*
X4972Y8000D02*
X4972Y7500D01*
X4028Y7500D02*
X4028Y8000D01*
X12197Y-3256D02*
X12472Y-3256D01*
X11803Y-3256D02*
X11528Y-3256D01*
X12197Y-2744D02*
X12472Y-2744D01*
X11528Y-2744D02*
X11803Y-2744D01*
X12472Y-2750D02*
X12472Y-3250D01*
X11528Y-3250D02*
X11528Y-2750D01*
X803Y8006D02*
X528Y8006D01*
X1197Y8006D02*
X1472Y8006D01*
X803Y7494D02*
X528Y7494D01*
X1472Y7494D02*
X1197Y7494D01*
X528Y7500D02*
X528Y8000D01*
X1472Y8000D02*
X1472Y7500D01*
X4256Y1197D02*
X4256Y1472D01*
X4256Y803D02*
X4256Y528D01*
X3744Y1197D02*
X3744Y1472D01*
X3744Y528D02*
X3744Y803D01*
X3750Y1472D02*
X4250Y1472D01*
X4250Y528D02*
X3750Y528D01*
X12697Y7994D02*
X12972Y7994D01*
X12303Y7994D02*
X12028Y7994D01*
X12697Y8506D02*
X12972Y8506D01*
X12028Y8506D02*
X12303Y8506D01*
X12972Y8500D02*
X12972Y8000D01*
X12028Y8000D02*
X12028Y8500D01*
X12697Y1244D02*
X12972Y1244D01*
X12303Y1244D02*
X12028Y1244D01*
X12697Y1756D02*
X12972Y1756D01*
X12028Y1756D02*
X12303Y1756D01*
X12972Y1750D02*
X12972Y1250D01*
X12028Y1250D02*
X12028Y1750D01*
X3506Y1197D02*
X3506Y1472D01*
X3506Y803D02*
X3506Y528D01*
X2994Y1197D02*
X2994Y1472D01*
X2994Y528D02*
X2994Y803D01*
X3000Y1472D02*
X3500Y1472D01*
X3500Y528D02*
X3000Y528D01*
X12697Y6494D02*
X12972Y6494D01*
X12303Y6494D02*
X12028Y6494D01*
X12697Y7006D02*
X12972Y7006D01*
X12028Y7006D02*
X12303Y7006D01*
X12972Y7000D02*
X12972Y6500D01*
X12028Y6500D02*
X12028Y7000D01*
X12697Y494D02*
X12972Y494D01*
X12303Y494D02*
X12028Y494D01*
X12697Y1006D02*
X12972Y1006D01*
X12028Y1006D02*
X12303Y1006D01*
X12972Y1000D02*
X12972Y500D01*
X12028Y500D02*
X12028Y1000D01*
X12697Y7244D02*
X12972Y7244D01*
X12303Y7244D02*
X12028Y7244D01*
X12697Y7756D02*
X12972Y7756D01*
X12028Y7756D02*
X12303Y7756D01*
X12972Y7750D02*
X12972Y7250D01*
X12028Y7250D02*
X12028Y7750D01*
X5006Y1197D02*
X5006Y1472D01*
X5006Y803D02*
X5006Y528D01*
X4494Y1197D02*
X4494Y1472D01*
X4494Y528D02*
X4494Y803D01*
X4500Y1472D02*
X5000Y1472D01*
X5000Y528D02*
X4500Y528D01*
X22256Y5697D02*
X22256Y5972D01*
X22256Y5303D02*
X22256Y5028D01*
X21744Y5697D02*
X21744Y5972D01*
X21744Y5028D02*
X21744Y5303D01*
X21750Y5972D02*
X22250Y5972D01*
X22250Y5028D02*
X21750Y5028D01*
X26197Y4244D02*
X26472Y4244D01*
X25803Y4244D02*
X25528Y4244D01*
X26197Y4756D02*
X26472Y4756D01*
X25528Y4756D02*
X25803Y4756D01*
X26472Y4750D02*
X26472Y4250D01*
X25528Y4250D02*
X25528Y4750D01*
X26197Y3494D02*
X26472Y3494D01*
X25803Y3494D02*
X25528Y3494D01*
X26197Y4006D02*
X26472Y4006D01*
X25528Y4006D02*
X25803Y4006D01*
X26472Y4000D02*
X26472Y3500D01*
X25528Y3500D02*
X25528Y4000D01*
X13803Y-3494D02*
X13528Y-3494D01*
X14197Y-3494D02*
X14472Y-3494D01*
X13803Y-4006D02*
X13528Y-4006D01*
X14472Y-4006D02*
X14197Y-4006D01*
X13528Y-4000D02*
X13528Y-3500D01*
X14472Y-3500D02*
X14472Y-4000D01*
X26197Y-3756D02*
X26472Y-3756D01*
X25803Y-3756D02*
X25528Y-3756D01*
X26197Y-3244D02*
X26472Y-3244D01*
X25528Y-3244D02*
X25803Y-3244D01*
X26472Y-3250D02*
X26472Y-3750D01*
X25528Y-3750D02*
X25528Y-3250D01*
X26197Y2744D02*
X26472Y2744D01*
X25803Y2744D02*
X25528Y2744D01*
X26197Y3256D02*
X26472Y3256D01*
X25528Y3256D02*
X25803Y3256D01*
X26472Y3250D02*
X26472Y2750D01*
X25528Y2750D02*
X25528Y3250D01*
X26197Y1994D02*
X26472Y1994D01*
X25803Y1994D02*
X25528Y1994D01*
X26197Y2506D02*
X26472Y2506D01*
X25528Y2506D02*
X25803Y2506D01*
X26472Y2500D02*
X26472Y2000D01*
X25528Y2000D02*
X25528Y2500D01*
X23744Y-6447D02*
X23744Y-6722D01*
X23744Y-6053D02*
X23744Y-5778D01*
X24256Y-6447D02*
X24256Y-6722D01*
X24256Y-5778D02*
X24256Y-6053D01*
X24250Y-6722D02*
X23750Y-6722D01*
X23750Y-5778D02*
X24250Y-5778D01*
X13803Y-2744D02*
X13528Y-2744D01*
X14197Y-2744D02*
X14472Y-2744D01*
X13803Y-3256D02*
X13528Y-3256D01*
X14472Y-3256D02*
X14197Y-3256D01*
X13528Y-3250D02*
X13528Y-2750D01*
X14472Y-2750D02*
X14472Y-3250D01*
X17256Y5697D02*
X17256Y5972D01*
X17256Y5303D02*
X17256Y5028D01*
X16744Y5697D02*
X16744Y5972D01*
X16744Y5028D02*
X16744Y5303D01*
X16750Y5972D02*
X17250Y5972D01*
X17250Y5028D02*
X16750Y5028D01*
X27447Y1244D02*
X27722Y1244D01*
X27053Y1244D02*
X26778Y1244D01*
X27447Y1756D02*
X27722Y1756D01*
X26778Y1756D02*
X27053Y1756D01*
X27722Y1750D02*
X27722Y1250D01*
X26778Y1250D02*
X26778Y1750D01*
X26197Y-2256D02*
X26472Y-2256D01*
X25803Y-2256D02*
X25528Y-2256D01*
X26197Y-1744D02*
X26472Y-1744D01*
X25528Y-1744D02*
X25803Y-1744D01*
X26472Y-1750D02*
X26472Y-2250D01*
X25528Y-2250D02*
X25528Y-1750D01*
X13803Y-1744D02*
X13528Y-1744D01*
X14197Y-1744D02*
X14472Y-1744D01*
X13803Y-2256D02*
X13528Y-2256D01*
X14472Y-2256D02*
X14197Y-2256D01*
X13528Y-2250D02*
X13528Y-1750D01*
X14472Y-1750D02*
X14472Y-2250D01*
X18006Y5697D02*
X18006Y5972D01*
X18006Y5303D02*
X18006Y5028D01*
X17494Y5697D02*
X17494Y5972D01*
X17494Y5028D02*
X17494Y5303D01*
X17500Y5972D02*
X18000Y5972D01*
X18000Y5028D02*
X17500Y5028D01*
X27447Y494D02*
X27722Y494D01*
X27053Y494D02*
X26778Y494D01*
X27447Y1006D02*
X27722Y1006D01*
X26778Y1006D02*
X27053Y1006D01*
X27722Y1000D02*
X27722Y500D01*
X26778Y500D02*
X26778Y1000D01*
X27447Y-2006D02*
X27722Y-2006D01*
X27053Y-2006D02*
X26778Y-2006D01*
X27447Y-1494D02*
X27722Y-1494D01*
X26778Y-1494D02*
X27053Y-1494D01*
X27722Y-1500D02*
X27722Y-2000D01*
X26778Y-2000D02*
X26778Y-1500D01*
G54D12*
X17496Y-11974D02*
X17772Y-11738D01*
X17772Y-11738D02*
X17772Y-12171D01*
X17772Y-12171D02*
X17496Y-11974D01*
X14670Y-12950D02*
X17330Y-12950D01*
X14670Y-11550D02*
X17330Y-11550D01*
X14670Y-12950D02*
X14670Y-11550D01*
X17330Y-11550D02*
X17330Y-12950D01*
X16472Y-11305D02*
X16827Y-11305D01*
X15528Y-11305D02*
X15213Y-11305D01*
X16787Y-11305D02*
X18756Y-11305D01*
X13244Y-11305D02*
X15213Y-11305D01*
X18756Y-13195D02*
X13244Y-13195D01*
X13244Y-11305D02*
X13244Y-13195D01*
X18756Y-11305D02*
X18756Y-13195D01*
X23205Y-2953D02*
G75*
G03X23205Y-2953I-252J0D01*
G74*
G01*
X22993Y-2953D02*
G75*
G03X22993Y-2953I-40J0D01*
G74*
G01*
X23008Y-2953D02*
G75*
G03X23008Y-2953I-55J0D01*
G74*
G01*
X23064Y-2953D02*
G75*
G03X23064Y-2953I-111J0D01*
G74*
G01*
X23129Y-2953D02*
G75*
G03X23129Y-2953I-175J0D01*
G74*
G01*
X22756Y-2402D02*
X22756Y2756D01*
X17244Y-2756D02*
X22402Y-2756D01*
X22756Y-2402D02*
X22402Y-2756D01*
X17244Y-2756D02*
X17244Y2756D01*
X17244Y2756D02*
X22756Y2756D01*
G54D13*
X17368Y-8197D02*
X17368Y-7803D01*
X17132Y-7803D02*
X17132Y-8197D01*
X17250Y-8039D02*
X17250Y-7961D01*
X17211Y-7921D02*
X17211Y-8079D01*
X17211Y-8079D02*
X17289Y-8000D01*
X17289Y-8000D02*
X17211Y-7921D01*
X16935Y-7803D02*
X17565Y-7803D01*
X17565Y-7803D02*
X17565Y-8197D01*
X17565Y-8197D02*
X16935Y-8197D01*
X16935Y-8197D02*
X16935Y-7803D01*
X10882Y-8553D02*
X10882Y-8947D01*
X11118Y-8947D02*
X11118Y-8553D01*
X11000Y-8711D02*
X11000Y-8789D01*
X11039Y-8829D02*
X11039Y-8671D01*
X11039Y-8671D02*
X10961Y-8750D01*
X10961Y-8750D02*
X11039Y-8829D01*
X11315Y-8947D02*
X10685Y-8947D01*
X10685Y-8947D02*
X10685Y-8553D01*
X10685Y-8553D02*
X11315Y-8553D01*
X11315Y-8553D02*
X11315Y-8947D01*
X15868Y-8197D02*
X15868Y-7803D01*
X15632Y-7803D02*
X15632Y-8197D01*
X15750Y-8039D02*
X15750Y-7961D01*
X15711Y-7921D02*
X15711Y-8079D01*
X15711Y-8079D02*
X15789Y-8000D01*
X15789Y-8000D02*
X15711Y-7921D01*
X15435Y-7803D02*
X16065Y-7803D01*
X16065Y-7803D02*
X16065Y-8197D01*
X16065Y-8197D02*
X15435Y-8197D01*
X15435Y-8197D02*
X15435Y-7803D01*
X22780Y8700D02*
X21220Y8700D01*
X21220Y8700D02*
X21220Y6800D01*
X21220Y6800D02*
X22780Y6800D01*
X22780Y6800D02*
X22780Y8700D01*
X22780Y8500D02*
X23210Y8500D01*
X22780Y8000D02*
X23210Y8000D01*
X22780Y7500D02*
X23210Y7500D01*
X23210Y7000D02*
X22780Y7000D01*
X21220Y7000D02*
X20790Y7000D01*
X20790Y7500D02*
X21220Y7500D01*
X20790Y8000D02*
X21220Y8000D01*
X20790Y8500D02*
X21220Y8500D01*
X21696Y8410D02*
G75*
G03X21696Y8410I-186J0D01*
G74*
G01*
X12053Y-4475D02*
X11775Y-4475D01*
X11775Y-4475D02*
X11775Y-5025D01*
X11775Y-5025D02*
X12053Y-5025D01*
X12725Y-4475D02*
X12447Y-4475D01*
X12725Y-4475D02*
X12725Y-5025D01*
X12725Y-5025D02*
X12447Y-5025D01*
X11803Y-3475D02*
X11525Y-3475D01*
X11525Y-3475D02*
X11525Y-4025D01*
X11525Y-4025D02*
X11803Y-4025D01*
X12475Y-3475D02*
X12197Y-3475D01*
X12475Y-3475D02*
X12475Y-4025D01*
X12475Y-4025D02*
X12197Y-4025D01*
X11275Y-3303D02*
X11275Y-3025D01*
X11275Y-3025D02*
X10725Y-3025D01*
X10725Y-3025D02*
X10725Y-3303D01*
X11275Y-3975D02*
X11275Y-3697D01*
X11275Y-3975D02*
X10725Y-3975D01*
X10725Y-3975D02*
X10725Y-3697D01*
X6947Y-3025D02*
X7225Y-3025D01*
X7225Y-3025D02*
X7225Y-2475D01*
X7225Y-2475D02*
X6947Y-2475D01*
X6275Y-3025D02*
X6553Y-3025D01*
X6275Y-3025D02*
X6275Y-2475D01*
X6275Y-2475D02*
X6553Y-2475D01*
X8475Y-1947D02*
X8475Y-2225D01*
X8475Y-2225D02*
X9025Y-2225D01*
X9025Y-2225D02*
X9025Y-1947D01*
X8475Y-1275D02*
X8475Y-1553D01*
X8475Y-1275D02*
X9025Y-1275D01*
X9025Y-1275D02*
X9025Y-1553D01*
X8275Y-1553D02*
X8275Y-1275D01*
X8275Y-1275D02*
X7725Y-1275D01*
X7725Y-1275D02*
X7725Y-1553D01*
X8275Y-2225D02*
X8275Y-1947D01*
X8275Y-2225D02*
X7725Y-2225D01*
X7725Y-2225D02*
X7725Y-1947D01*
G54D10*
X17500Y-10250D02*
X13500Y-10250D01*
X13500Y-10250D02*
X13500Y-11250D01*
X13500Y-11250D02*
X17500Y-11250D01*
X17500Y-11250D02*
X17500Y-10250D01*
G54D12*
X73Y10959D02*
X-911Y10959D01*
X-911Y10959D02*
X-911Y9541D01*
X-911Y9541D02*
X73Y9541D01*
X5703Y11234D02*
X2278Y11234D01*
X5703Y9266D02*
X5270Y9266D01*
X5703Y9935D02*
X5703Y9266D01*
X5703Y11234D02*
X5703Y11116D01*
X4089Y9266D02*
X1411Y9266D01*
X73Y9344D02*
X467Y9344D01*
X73Y11156D02*
X1333Y11156D01*
X73Y11156D02*
X73Y9344D01*
G54D16*
X-300Y-7800D02*
X-600Y-7800D01*
X-600Y-7800D02*
X-600Y-11200D01*
X-600Y-11200D02*
X-300Y-11200D01*
X900Y-7800D02*
X900Y-11200D01*
X4700Y-7800D02*
X4700Y-11200D01*
X-300Y-11200D02*
X4700Y-11200D01*
X-300Y-7800D02*
X4700Y-7800D01*
G54D17*
X30500Y10000D02*
X30500Y-10000D01*
X28500Y-10000D02*
X28500Y10000D01*
X29500Y-10000D02*
X29500Y-9000D01*
X29500Y-9000D02*
X30500Y-9000D01*
X28500Y-10000D02*
X30500Y-10000D01*
X30500Y10000D02*
X28500Y10000D01*
G54D13*
X12697Y4975D02*
X12975Y4975D01*
X12975Y4975D02*
X12975Y5525D01*
X12975Y5525D02*
X12697Y5525D01*
X12025Y4975D02*
X12303Y4975D01*
X12025Y4975D02*
X12025Y5525D01*
X12025Y5525D02*
X12303Y5525D01*
X12697Y5725D02*
X12975Y5725D01*
X12975Y5725D02*
X12975Y6275D01*
X12975Y6275D02*
X12697Y6275D01*
X12025Y5725D02*
X12303Y5725D01*
X12025Y5725D02*
X12025Y6275D01*
X12025Y6275D02*
X12303Y6275D01*
X3644Y-1106D02*
X3644Y-1894D01*
X3841Y-1106D02*
X2659Y-1106D01*
X2659Y-1106D02*
X2659Y-1894D01*
X2659Y-1894D02*
X3841Y-1894D01*
X3841Y-1894D02*
X3841Y-1106D01*
X11644Y-6856D02*
X11644Y-7644D01*
X11841Y-6856D02*
X10659Y-6856D01*
X10659Y-6856D02*
X10659Y-7644D01*
X10659Y-7644D02*
X11841Y-7644D01*
X11841Y-7644D02*
X11841Y-6856D01*
G54D15*
X26900Y8600D02*
X26900Y7400D01*
X26900Y7400D02*
X26600Y7400D01*
X26600Y7400D02*
X26600Y8600D01*
X26600Y8600D02*
X26900Y8600D01*
G54D10*
X9616Y-12112D02*
X9616Y-7387D01*
X9616Y-7387D02*
X6466Y-7387D01*
X6466Y-7387D02*
X6466Y-12112D01*
X6466Y-12112D02*
X9616Y-12112D01*
X-82Y0D02*
X-82Y-12041D01*
X-82Y-12041D02*
X306Y-12098D01*
X306Y-12098D02*
X696Y-12154D01*
X696Y-12154D02*
X1086Y-12209D01*
X1086Y-12209D02*
X1476Y-12263D01*
X1476Y-12263D02*
X1866Y-12315D01*
X1866Y-12315D02*
X2256Y-12367D01*
X2256Y-12367D02*
X2647Y-12417D01*
X2647Y-12417D02*
X3037Y-12467D01*
X3037Y-12467D02*
X3428Y-12515D01*
X3428Y-12515D02*
X3819Y-12562D01*
X3819Y-12562D02*
X4210Y-12608D01*
X4210Y-12608D02*
X4601Y-12653D01*
X4601Y-12653D02*
X4992Y-12697D01*
X4992Y-12697D02*
X5384Y-12740D01*
X5384Y-12740D02*
X5775Y-12782D01*
X5775Y-12782D02*
X6167Y-12823D01*
X6167Y-12823D02*
X6559Y-12862D01*
X6559Y-12862D02*
X6950Y-12901D01*
X6950Y-12901D02*
X7342Y-12938D01*
X7342Y-12938D02*
X7734Y-12974D01*
X7734Y-12974D02*
X8126Y-13009D01*
X8126Y-13009D02*
X8519Y-13044D01*
X8519Y-13044D02*
X8911Y-13077D01*
X8911Y-13077D02*
X9303Y-13108D01*
X9303Y-13108D02*
X9696Y-13139D01*
X9696Y-13139D02*
X10088Y-13169D01*
X10088Y-13169D02*
X10481Y-13197D01*
X10481Y-13197D02*
X10874Y-13225D01*
X10874Y-13225D02*
X11267Y-13251D01*
X11267Y-13251D02*
X11660Y-13277D01*
X11660Y-13277D02*
X12053Y-13301D01*
X12053Y-13301D02*
X12446Y-13324D01*
X12446Y-13324D02*
X12839Y-13346D01*
X12839Y-13346D02*
X13232Y-13367D01*
X13232Y-13367D02*
X13625Y-13387D01*
X13625Y-13387D02*
X14018Y-13405D01*
X14018Y-13405D02*
X14412Y-13423D01*
X14412Y-13423D02*
X14805Y-13439D01*
X14805Y-13439D02*
X15198Y-13455D01*
X15198Y-13455D02*
X15592Y-13469D01*
X15592Y-13469D02*
X15985Y-13482D01*
X15985Y-13482D02*
X16379Y-13494D01*
X16379Y-13494D02*
X16772Y-13505D01*
X16772Y-13505D02*
X17166Y-13515D01*
X17166Y-13515D02*
X17559Y-13524D01*
X17559Y-13524D02*
X17953Y-13532D01*
X17953Y-13532D02*
X18347Y-13538D01*
X18347Y-13538D02*
X18740Y-13544D01*
X18740Y-13544D02*
X19134Y-13548D01*
X19134Y-13548D02*
X19255Y-13549D01*
X19255Y-13549D02*
X19255Y-11177D01*
X19255Y-11177D02*
X19319Y-10783D01*
X19319Y-10783D02*
X19505Y-10430D01*
X19505Y-10430D02*
X19792Y-10153D01*
X19792Y-10153D02*
X20152Y-9982D01*
X20152Y-9982D02*
X20548Y-9934D01*
X20548Y-9934D02*
X20939Y-10013D01*
X20939Y-10013D02*
X21285Y-10212D01*
X21285Y-10212D02*
X21550Y-10510D01*
X21550Y-10510D02*
X21707Y-10877D01*
X21707Y-10877D02*
X21744Y-11177D01*
X21744Y-11177D02*
X21744Y-13549D01*
X21744Y-13549D02*
X22137Y-13545D01*
X22137Y-13545D02*
X22531Y-13540D01*
X22531Y-13540D02*
X22925Y-13534D01*
X22925Y-13534D02*
X23318Y-13526D01*
X23318Y-13526D02*
X23712Y-13518D01*
X23712Y-13518D02*
X24105Y-13508D01*
X24105Y-13508D02*
X24499Y-13498D01*
X24499Y-13498D02*
X24893Y-13486D01*
X24893Y-13486D02*
X25286Y-13473D01*
X25286Y-13473D02*
X25679Y-13459D01*
X25679Y-13459D02*
X26073Y-13444D01*
X26073Y-13444D02*
X26466Y-13428D01*
X26466Y-13428D02*
X26860Y-13411D01*
X26860Y-13411D02*
X27253Y-13392D01*
X27253Y-13392D02*
X27646Y-13373D01*
X27646Y-13373D02*
X28039Y-13352D01*
X28039Y-13352D02*
X28432Y-13331D01*
X28432Y-13331D02*
X28825Y-13308D01*
X28825Y-13308D02*
X29218Y-13284D01*
X29218Y-13284D02*
X29611Y-13259D01*
X29611Y-13259D02*
X30004Y-13233D01*
X30004Y-13233D02*
X30397Y-13206D01*
X30397Y-13206D02*
X30696Y-13185D01*
X30696Y-13185D02*
X30696Y13185D01*
X30696Y13185D02*
X30304Y13213D01*
X30304Y13213D02*
X29911Y13239D01*
X29911Y13239D02*
X29518Y13265D01*
X29518Y13265D02*
X29125Y13290D01*
X29125Y13290D02*
X28732Y13314D01*
X28732Y13314D02*
X28339Y13336D01*
X28339Y13336D02*
X27946Y13357D01*
X27946Y13357D02*
X27553Y13378D01*
X27553Y13378D02*
X27160Y13397D01*
X27160Y13397D02*
X26766Y13415D01*
X26766Y13415D02*
X26373Y13432D01*
X26373Y13432D02*
X25980Y13448D01*
X25980Y13448D02*
X25586Y13463D01*
X25586Y13463D02*
X25193Y13476D01*
X25193Y13476D02*
X24799Y13489D01*
X24799Y13489D02*
X24406Y13500D01*
X24406Y13500D02*
X24012Y13511D01*
X24012Y13511D02*
X23618Y13520D01*
X23618Y13520D02*
X23225Y13528D01*
X23225Y13528D02*
X22831Y13535D01*
X22831Y13535D02*
X22438Y13541D01*
X22438Y13541D02*
X22044Y13546D01*
X22044Y13546D02*
X21744Y13549D01*
X21744Y13549D02*
X21744Y11177D01*
X21744Y11177D02*
X21680Y10783D01*
X21680Y10783D02*
X21494Y10430D01*
X21494Y10430D02*
X21207Y10153D01*
X21207Y10153D02*
X20847Y9982D01*
X20847Y9982D02*
X20451Y9934D01*
X20451Y9934D02*
X20060Y10013D01*
X20060Y10013D02*
X19714Y10212D01*
X19714Y10212D02*
X19449Y10510D01*
X19449Y10510D02*
X19292Y10877D01*
X19292Y10877D02*
X19255Y11177D01*
X19255Y11177D02*
X19255Y13549D01*
X19255Y13549D02*
X18862Y13545D01*
X18862Y13545D02*
X18468Y13540D01*
X18468Y13540D02*
X18074Y13534D01*
X18074Y13534D02*
X17681Y13526D01*
X17681Y13526D02*
X17287Y13518D01*
X17287Y13518D02*
X16894Y13508D01*
X16894Y13508D02*
X16500Y13498D01*
X16500Y13498D02*
X16106Y13486D01*
X16106Y13486D02*
X15713Y13473D01*
X15713Y13473D02*
X15320Y13459D01*
X15320Y13459D02*
X14926Y13444D01*
X14926Y13444D02*
X14533Y13428D01*
X14533Y13428D02*
X14139Y13411D01*
X14139Y13411D02*
X13746Y13392D01*
X13746Y13392D02*
X13353Y13373D01*
X13353Y13373D02*
X12960Y13352D01*
X12960Y13352D02*
X12567Y13331D01*
X12567Y13331D02*
X12174Y13308D01*
X12174Y13308D02*
X11781Y13284D01*
X11781Y13284D02*
X11388Y13259D01*
X11388Y13259D02*
X10995Y13233D01*
X10995Y13233D02*
X10602Y13206D01*
X10602Y13206D02*
X10209Y13178D01*
X10209Y13178D02*
X9817Y13148D01*
X9817Y13148D02*
X9424Y13118D01*
X9424Y13118D02*
X9032Y13086D01*
X9032Y13086D02*
X8640Y13054D01*
X8640Y13054D02*
X8247Y13020D01*
X8247Y13020D02*
X7855Y12985D01*
X7855Y12985D02*
X7463Y12949D01*
X7463Y12949D02*
X7071Y12912D01*
X7071Y12912D02*
X6679Y12874D01*
X6679Y12874D02*
X6288Y12835D01*
X6288Y12835D02*
X5896Y12795D01*
X5896Y12795D02*
X5504Y12753D01*
X5504Y12753D02*
X5113Y12711D01*
X5113Y12711D02*
X4722Y12667D01*
X4722Y12667D02*
X4331Y12622D01*
X4331Y12622D02*
X3940Y12577D01*
X3940Y12577D02*
X3549Y12530D01*
X3549Y12530D02*
X3158Y12482D01*
X3158Y12482D02*
X2767Y12433D01*
X2767Y12433D02*
X2377Y12382D01*
X2377Y12382D02*
X1986Y12331D01*
X1986Y12331D02*
X1596Y12279D01*
X1596Y12279D02*
X1206Y12225D01*
X1206Y12225D02*
X816Y12171D01*
X816Y12171D02*
X426Y12115D01*
X426Y12115D02*
X37Y12059D01*
X37Y12059D02*
X-82Y12041D01*
X-82Y12041D02*
X-82Y0D01*
G54D18*
G36*
X14822Y4932D02*
X14845Y4944D01*
X14896Y4976D01*
X14969Y5024D01*
X15056Y5082D01*
X15143Y5141D01*
X15214Y5189D01*
X15264Y5221D01*
X15285Y5232D01*
X15296Y5228D01*
X15337Y5208D01*
X15397Y5177D01*
X15432Y5159D01*
X15487Y5136D01*
X15514Y5131D01*
X15519Y5138D01*
X15539Y5180D01*
X15570Y5252D01*
X15612Y5347D01*
X15659Y5458D01*
X15710Y5578D01*
X15761Y5700D01*
X15809Y5817D01*
X15852Y5922D01*
X15886Y6007D01*
X15909Y6066D01*
X15917Y6092D01*
X15915Y6097D01*
X15887Y6124D01*
X15839Y6160D01*
X15736Y6244D01*
X15633Y6372D01*
X15571Y6517D01*
X15550Y6678D01*
X15568Y6828D01*
X15627Y6972D01*
X15727Y7101D01*
X15848Y7197D01*
X15990Y7258D01*
X16150Y7277D01*
X16303Y7260D01*
X16449Y7202D01*
X16579Y7104D01*
X16633Y7041D01*
X16708Y6910D01*
X16751Y6770D01*
X16756Y6734D01*
X16749Y6580D01*
X16704Y6433D01*
X16623Y6301D01*
X16510Y6193D01*
X16496Y6182D01*
X16443Y6143D01*
X16408Y6116D01*
X16381Y6094D01*
X16577Y5622D01*
X16608Y5547D01*
X16662Y5418D01*
X16709Y5307D01*
X16747Y5219D01*
X16773Y5160D01*
X16785Y5136D01*
X16786Y5135D01*
X16803Y5132D01*
X16839Y5145D01*
X16905Y5177D01*
X16949Y5199D01*
X16999Y5223D01*
X17021Y5232D01*
X17040Y5222D01*
X17088Y5191D01*
X17158Y5144D01*
X17243Y5086D01*
X17323Y5032D01*
X17397Y4983D01*
X17451Y4949D01*
X17477Y4935D01*
X17481Y4935D01*
X17504Y4948D01*
X17546Y4983D01*
X17611Y5044D01*
X17702Y5134D01*
X17716Y5147D01*
X17790Y5223D01*
X17851Y5287D01*
X17892Y5332D01*
X17906Y5353D01*
X17906Y5353D01*
X17893Y5379D01*
X17859Y5432D01*
X17810Y5507D01*
X17750Y5595D01*
X17594Y5822D01*
X17680Y6036D01*
X17706Y6101D01*
X17740Y6181D01*
X17765Y6238D01*
X17777Y6263D01*
X17801Y6271D01*
X17859Y6285D01*
X17944Y6303D01*
X18046Y6322D01*
X18142Y6339D01*
X18229Y6356D01*
X18293Y6368D01*
X18321Y6374D01*
X18328Y6378D01*
X18333Y6391D01*
X18337Y6421D01*
X18339Y6474D01*
X18340Y6558D01*
X18340Y6678D01*
X18340Y6691D01*
X18339Y6807D01*
X18337Y6898D01*
X18334Y6959D01*
X18330Y6982D01*
X18330Y6983D01*
X18303Y6989D01*
X18241Y7002D01*
X18154Y7019D01*
X18050Y7039D01*
X18043Y7040D01*
X17940Y7060D01*
X17853Y7078D01*
X17792Y7092D01*
X17766Y7100D01*
X17761Y7108D01*
X17740Y7148D01*
X17710Y7212D01*
X17676Y7291D01*
X17642Y7372D01*
X17613Y7445D01*
X17593Y7500D01*
X17587Y7525D01*
X17588Y7525D01*
X17603Y7550D01*
X17639Y7604D01*
X17689Y7679D01*
X17750Y7767D01*
X17754Y7773D01*
X17814Y7861D01*
X17862Y7935D01*
X17894Y7988D01*
X17906Y8012D01*
X17906Y8013D01*
X17886Y8039D01*
X17842Y8089D01*
X17778Y8156D01*
X17701Y8233D01*
X17677Y8257D01*
X17592Y8340D01*
X17532Y8395D01*
X17496Y8424D01*
X17478Y8430D01*
X17477Y8430D01*
X17451Y8414D01*
X17396Y8378D01*
X17321Y8327D01*
X17232Y8266D01*
X17226Y8262D01*
X17138Y8203D01*
X17065Y8153D01*
X17013Y8119D01*
X16991Y8105D01*
X16987Y8105D01*
X16951Y8116D01*
X16889Y8138D01*
X16812Y8167D01*
X16731Y8200D01*
X16658Y8231D01*
X16602Y8256D01*
X16576Y8271D01*
X16576Y8272D01*
X16566Y8303D01*
X16551Y8369D01*
X16533Y8459D01*
X16512Y8566D01*
X16509Y8584D01*
X16489Y8688D01*
X16472Y8774D01*
X16460Y8834D01*
X16454Y8858D01*
X16439Y8862D01*
X16388Y8866D01*
X16310Y8868D01*
X16216Y8869D01*
X16117Y8868D01*
X16020Y8866D01*
X15937Y8863D01*
X15878Y8859D01*
X15854Y8854D01*
X15853Y8853D01*
X15844Y8820D01*
X15829Y8755D01*
X15811Y8664D01*
X15790Y8556D01*
X15786Y8537D01*
X15767Y8433D01*
X15749Y8348D01*
X15737Y8289D01*
X15730Y8266D01*
X15721Y8261D01*
X15678Y8242D01*
X15608Y8213D01*
X15522Y8178D01*
X15321Y8097D01*
X15075Y8266D01*
X15052Y8281D01*
X14964Y8341D01*
X14891Y8390D01*
X14841Y8422D01*
X14820Y8434D01*
X14818Y8433D01*
X14794Y8412D01*
X14745Y8366D01*
X14678Y8301D01*
X14601Y8224D01*
X14544Y8167D01*
X14476Y8098D01*
X14433Y8052D01*
X14410Y8022D01*
X14401Y8004D01*
X14403Y7992D01*
X14419Y7967D01*
X14455Y7913D01*
X14506Y7838D01*
X14566Y7751D01*
X14615Y7679D01*
X14668Y7596D01*
X14703Y7537D01*
X14715Y7508D01*
X14712Y7496D01*
X14695Y7448D01*
X14666Y7375D01*
X14629Y7289D01*
X14543Y7094D01*
X14416Y7069D01*
X14338Y7055D01*
X14230Y7034D01*
X14127Y7014D01*
X13965Y6983D01*
X13959Y6389D01*
X13984Y6378D01*
X14008Y6372D01*
X14068Y6358D01*
X14154Y6341D01*
X14254Y6322D01*
X14340Y6306D01*
X14427Y6290D01*
X14489Y6278D01*
X14517Y6272D01*
X14524Y6263D01*
X14545Y6221D01*
X14576Y6154D01*
X14610Y6074D01*
X14645Y5991D01*
X14675Y5914D01*
X14697Y5856D01*
X14705Y5825D01*
X14693Y5803D01*
X14660Y5752D01*
X14612Y5679D01*
X14554Y5593D01*
X14495Y5507D01*
X14445Y5434D01*
X14411Y5381D01*
X14396Y5357D01*
X14403Y5340D01*
X14438Y5299D01*
X14503Y5231D01*
X14599Y5136D01*
X14615Y5121D01*
X14692Y5047D01*
X14757Y4987D01*
X14802Y4947D01*
X14822Y4932D01*
X14822Y4932D01*
G37*
G54D10*
X8409Y-4708D02*
G75*
G03X8409Y-4708I-78J0D01*
G74*
G01*
X8409Y-4472D02*
X8527Y-4590D01*
X8409Y-3409D02*
X9590Y-3409D01*
X9590Y-3409D02*
X9590Y-4590D01*
X9590Y-4590D02*
X8409Y-4590D01*
X8409Y-4590D02*
X8409Y-3409D01*
X-326Y1145D02*
X-90Y1145D01*
X-326Y1854D02*
X-90Y1854D01*
X-326Y1854D02*
X-326Y1145D01*
X1090Y2188D02*
X1090Y811D01*
X1090Y811D02*
X-90Y811D01*
X-90Y811D02*
X-90Y2188D01*
X-90Y2188D02*
X1090Y2188D01*
G54D12*
X27929Y-12596D02*
X28283Y-12596D01*
X28303Y-10923D02*
X27909Y-10923D01*
X28303Y-10864D02*
X28303Y-10963D01*
X28303Y-10963D02*
X27909Y-10963D01*
X27909Y-10963D02*
X27909Y-10864D01*
X27909Y-12636D02*
X27909Y-12537D01*
X27909Y-12537D02*
X28303Y-12537D01*
X28303Y-12537D02*
X28303Y-12636D01*
X27663Y-12242D02*
X27663Y-11258D01*
X27614Y-11258D02*
X27713Y-11258D01*
X27713Y-11258D02*
X27713Y-12242D01*
X27713Y-12242D02*
X27614Y-12242D01*
X28795Y-10864D02*
X27614Y-10864D01*
X27614Y-10864D02*
X27614Y-12636D01*
X27614Y-12636D02*
X28795Y-12636D01*
X28795Y-12636D02*
X28795Y-10864D01*
G54D13*
X8725Y-6197D02*
X8725Y-6475D01*
X8725Y-6475D02*
X9275Y-6475D01*
X9275Y-6475D02*
X9275Y-6197D01*
X8725Y-5525D02*
X8725Y-5803D01*
X8725Y-5525D02*
X9275Y-5525D01*
X9275Y-5525D02*
X9275Y-5803D01*
X13275Y-7053D02*
X13275Y-6775D01*
X13275Y-6775D02*
X12725Y-6775D01*
X12725Y-6775D02*
X12725Y-7053D01*
X13275Y-7725D02*
X13275Y-7447D01*
X13275Y-7725D02*
X12725Y-7725D01*
X12725Y-7725D02*
X12725Y-7447D01*
X12132Y-8553D02*
X12132Y-8947D01*
X12368Y-8947D02*
X12368Y-8553D01*
X12250Y-8711D02*
X12250Y-8789D01*
X12289Y-8829D02*
X12289Y-8671D01*
X12289Y-8671D02*
X12211Y-8750D01*
X12211Y-8750D02*
X12289Y-8829D01*
X12565Y-8947D02*
X11935Y-8947D01*
X11935Y-8947D02*
X11935Y-8553D01*
X11935Y-8553D02*
X12565Y-8553D01*
X12565Y-8553D02*
X12565Y-8947D01*
X3300Y4775D02*
X2200Y4775D01*
X3300Y4550D02*
X3300Y5950D01*
X3300Y5950D02*
X2200Y5950D01*
X2200Y5950D02*
X2200Y4550D01*
X2200Y4550D02*
X3300Y4550D01*
X4800Y4775D02*
X3700Y4775D01*
X4800Y4550D02*
X4800Y5950D01*
X4800Y5950D02*
X3700Y5950D01*
X3700Y5950D02*
X3700Y4550D01*
X3700Y4550D02*
X4800Y4550D01*
G54D19*
X6424Y-4037D02*
G75*
G03X6424Y-4037I-62J0D01*
G74*
G01*
X6700Y-5000D02*
X6300Y-5000D01*
X6700Y-3975D02*
X6300Y-3975D01*
X6300Y-5000D02*
X6300Y-3975D01*
X6700Y-3975D02*
X6700Y-5000D01*
G54D13*
X7053Y-6225D02*
X6775Y-6225D01*
X6775Y-6225D02*
X6775Y-6775D01*
X6775Y-6775D02*
X7053Y-6775D01*
X7725Y-6225D02*
X7447Y-6225D01*
X7725Y-6225D02*
X7725Y-6775D01*
X7725Y-6775D02*
X7447Y-6775D01*
G54D15*
X5506Y-4303D02*
X5506Y-4028D01*
X5506Y-4697D02*
X5506Y-4972D01*
X4994Y-4303D02*
X4994Y-4028D01*
X4994Y-4972D02*
X4994Y-4697D01*
X5000Y-4028D02*
X5500Y-4028D01*
X5500Y-4972D02*
X5000Y-4972D01*
G54D13*
X5894Y-6106D02*
X5894Y-6894D01*
X6091Y-6106D02*
X4909Y-6106D01*
X4909Y-6106D02*
X4909Y-6894D01*
X4909Y-6894D02*
X6091Y-6894D01*
X6091Y-6894D02*
X6091Y-6106D01*
X19525Y5697D02*
X19525Y5975D01*
X19525Y5975D02*
X18975Y5975D01*
X18975Y5975D02*
X18975Y5697D01*
X19525Y5025D02*
X19525Y5303D01*
X19525Y5025D02*
X18975Y5025D01*
X18975Y5025D02*
X18975Y5303D01*
G54D11*
X27962Y-1341D02*
X28277Y-1183D01*
X27962Y-1183D02*
X28277Y-1341D01*
X28277Y-970D02*
X28277Y-1105D01*
X28277Y-1037D02*
X27962Y-1037D01*
X28007Y-1060D01*
X28037Y-1082D01*
X28052Y-1105D01*
X28110Y-802D02*
X28099Y-832D01*
X28088Y-847D01*
X28065Y-862D01*
X28054Y-862D01*
X28032Y-847D01*
X28020Y-832D01*
X28009Y-802D01*
X28009Y-742D01*
X28020Y-712D01*
X28032Y-697D01*
X28054Y-682D01*
X28065Y-682D01*
X28088Y-697D01*
X28099Y-712D01*
X28110Y-742D01*
X28110Y-802D01*
X28121Y-832D01*
X28133Y-847D01*
X28155Y-862D01*
X28200Y-862D01*
X28223Y-847D01*
X28234Y-832D01*
X28245Y-802D01*
X28245Y-742D01*
X28234Y-712D01*
X28223Y-697D01*
X28200Y-682D01*
X28155Y-682D01*
X28133Y-697D01*
X28121Y-712D01*
X28110Y-742D01*
X28245Y-547D02*
X28009Y-547D01*
X28178Y-442D01*
X28009Y-337D01*
X28245Y-337D01*
X28245Y-187D02*
X28009Y-187D01*
X28121Y-187D02*
X28121Y-7D01*
X28245Y-7D02*
X28009Y-7D01*
X28088Y112D02*
X28088Y277D01*
X28245Y112D01*
X28245Y277D01*
G54D13*
X1254Y-1011D02*
X1254Y-611D01*
X1407Y-611D01*
X1445Y-630D01*
X1464Y-650D01*
X1483Y-688D01*
X1483Y-745D01*
X1464Y-783D01*
X1445Y-802D01*
X1407Y-821D01*
X1254Y-821D01*
X1673Y-1011D02*
X1750Y-1011D01*
X1788Y-992D01*
X1807Y-973D01*
X1845Y-916D01*
X1864Y-840D01*
X1864Y-688D01*
X1845Y-650D01*
X1826Y-630D01*
X1788Y-611D01*
X1711Y-611D01*
X1673Y-630D01*
X1654Y-650D01*
X1635Y-688D01*
X1635Y-783D01*
X1654Y-821D01*
X1673Y-840D01*
X1711Y-859D01*
X1788Y-859D01*
X1826Y-840D01*
X1845Y-821D01*
X1864Y-783D01*
X-8628Y-2511D02*
X-8628Y-2835D01*
X-8609Y-2873D01*
X-8590Y-2892D01*
X-8552Y-2911D01*
X-8476Y-2911D01*
X-8438Y-2892D01*
X-8419Y-2873D01*
X-8400Y-2835D01*
X-8400Y-2511D01*
X-8228Y-2892D02*
X-8171Y-2911D01*
X-8076Y-2911D01*
X-8038Y-2892D01*
X-8019Y-2873D01*
X-8000Y-2835D01*
X-8000Y-2797D01*
X-8019Y-2759D01*
X-8038Y-2740D01*
X-8076Y-2721D01*
X-8152Y-2702D01*
X-8190Y-2683D01*
X-8209Y-2664D01*
X-8228Y-2626D01*
X-8228Y-2588D01*
X-8209Y-2550D01*
X-8190Y-2530D01*
X-8152Y-2511D01*
X-8057Y-2511D01*
X-8000Y-2530D01*
X-7695Y-2702D02*
X-7638Y-2721D01*
X-7619Y-2740D01*
X-7600Y-2778D01*
X-7600Y-2835D01*
X-7619Y-2873D01*
X-7638Y-2892D01*
X-7676Y-2911D01*
X-7828Y-2911D01*
X-7828Y-2511D01*
X-7695Y-2511D01*
X-7657Y-2530D01*
X-7638Y-2550D01*
X-7619Y-2588D01*
X-7619Y-2626D01*
X-7638Y-2664D01*
X-7657Y-2683D01*
X-7695Y-2702D01*
X-7828Y-2702D01*
X-7200Y-2873D02*
X-7219Y-2892D01*
X-7276Y-2911D01*
X-7314Y-2911D01*
X-7371Y-2892D01*
X-7409Y-2854D01*
X-7428Y-2816D01*
X-7447Y-2740D01*
X-7447Y-2683D01*
X-7428Y-2607D01*
X-7409Y-2569D01*
X-7371Y-2530D01*
X-7314Y-2511D01*
X-7276Y-2511D01*
X-7219Y-2530D01*
X-7200Y-2550D01*
X-6952Y-2511D02*
X-6876Y-2511D01*
X-6838Y-2530D01*
X-6800Y-2569D01*
X-6780Y-2645D01*
X-6780Y-2778D01*
X-6800Y-2854D01*
X-6838Y-2892D01*
X-6876Y-2911D01*
X-6952Y-2911D01*
X-6990Y-2892D01*
X-7028Y-2854D01*
X-7047Y-2778D01*
X-7047Y-2645D01*
X-7028Y-2569D01*
X-6990Y-2530D01*
X-6952Y-2511D01*
X-6609Y-2911D02*
X-6609Y-2511D01*
X-6380Y-2911D01*
X-6380Y-2511D01*
X-6190Y-2911D02*
X-6190Y-2511D01*
X-5961Y-2911D01*
X-5961Y-2511D01*
X-5771Y-2759D02*
X-5466Y-2759D01*
X-5276Y-2911D02*
X-5276Y-2511D01*
X-5276Y-2702D02*
X-5047Y-2702D01*
X-5047Y-2911D02*
X-5047Y-2511D01*
X-4780Y-2511D02*
X-4704Y-2511D01*
X-4666Y-2530D01*
X-4628Y-2569D01*
X-4609Y-2645D01*
X-4609Y-2778D01*
X-4628Y-2854D01*
X-4666Y-2892D01*
X-4704Y-2911D01*
X-4780Y-2911D01*
X-4819Y-2892D01*
X-4857Y-2854D01*
X-4876Y-2778D01*
X-4876Y-2645D01*
X-4857Y-2569D01*
X-4819Y-2530D01*
X-4780Y-2511D01*
X-4457Y-2892D02*
X-4399Y-2911D01*
X-4304Y-2911D01*
X-4266Y-2892D01*
X-4247Y-2873D01*
X-4228Y-2835D01*
X-4228Y-2797D01*
X-4247Y-2759D01*
X-4266Y-2740D01*
X-4304Y-2721D01*
X-4380Y-2702D01*
X-4419Y-2683D01*
X-4438Y-2664D01*
X-4457Y-2626D01*
X-4457Y-2588D01*
X-4438Y-2550D01*
X-4419Y-2530D01*
X-4380Y-2511D01*
X-4285Y-2511D01*
X-4228Y-2530D01*
X-4114Y-2511D02*
X-3885Y-2511D01*
X-3999Y-2911D02*
X-3999Y-2511D01*
X-3523Y-2873D02*
X-3542Y-2892D01*
X-3600Y-2911D01*
X-3638Y-2911D01*
X-3695Y-2892D01*
X-3733Y-2854D01*
X-3752Y-2816D01*
X-3771Y-2740D01*
X-3771Y-2683D01*
X-3752Y-2607D01*
X-3733Y-2569D01*
X-3695Y-2530D01*
X-3638Y-2511D01*
X-3600Y-2511D01*
X-3542Y-2530D01*
X-3523Y-2550D01*
X-3371Y-2797D02*
X-3180Y-2797D01*
X-3409Y-2911D02*
X-3276Y-2511D01*
X-3142Y-2911D01*
X-3009Y-2911D02*
X-3009Y-2511D01*
X-2857Y-2511D01*
X-2819Y-2530D01*
X-2800Y-2550D01*
X-2780Y-2588D01*
X-2780Y-2645D01*
X-2800Y-2683D01*
X-2819Y-2702D01*
X-2857Y-2721D01*
X-3009Y-2721D01*
X-2628Y-2797D02*
X-2438Y-2797D01*
X-2666Y-2911D02*
X-2533Y-2511D01*
X-2400Y-2911D01*
X-2133Y-2702D02*
X-2076Y-2721D01*
X-2057Y-2740D01*
X-2038Y-2778D01*
X-2038Y-2835D01*
X-2057Y-2873D01*
X-2076Y-2892D01*
X-2114Y-2911D01*
X-2266Y-2911D01*
X-2266Y-2511D01*
X-2133Y-2511D01*
X-2095Y-2530D01*
X-2076Y-2550D01*
X-2057Y-2588D01*
X-2057Y-2626D01*
X-2076Y-2664D01*
X-2095Y-2683D01*
X-2133Y-2702D01*
X-2266Y-2702D01*
X-1676Y-2911D02*
X-1866Y-2911D01*
X-1866Y-2511D01*
X-1542Y-2702D02*
X-1409Y-2702D01*
X-1352Y-2911D02*
X-1542Y-2911D01*
X-1542Y-2511D01*
X-1352Y-2511D01*
G54D12*
X24771Y-10042D02*
X24771Y-10528D01*
X24800Y-10585D01*
X24828Y-10614D01*
X24885Y-10642D01*
X25000Y-10642D01*
X25057Y-10614D01*
X25085Y-10585D01*
X25114Y-10528D01*
X25114Y-10042D01*
X25371Y-10614D02*
X25457Y-10642D01*
X25600Y-10642D01*
X25657Y-10614D01*
X25685Y-10585D01*
X25714Y-10528D01*
X25714Y-10471D01*
X25685Y-10414D01*
X25657Y-10385D01*
X25600Y-10357D01*
X25485Y-10328D01*
X25428Y-10300D01*
X25400Y-10271D01*
X25371Y-10214D01*
X25371Y-10157D01*
X25400Y-10100D01*
X25428Y-10071D01*
X25485Y-10042D01*
X25628Y-10042D01*
X25714Y-10071D01*
X25971Y-10328D02*
X26171Y-10328D01*
X26257Y-10642D02*
X25971Y-10642D01*
X25971Y-10042D01*
X26257Y-10042D01*
X26857Y-10642D02*
X26657Y-10357D01*
X26514Y-10642D02*
X26514Y-10042D01*
X26742Y-10042D01*
X26800Y-10071D01*
X26828Y-10100D01*
X26857Y-10157D01*
X26857Y-10242D01*
X26828Y-10300D01*
X26800Y-10328D01*
X26742Y-10357D01*
X26514Y-10357D01*
X22078Y-10642D02*
X21878Y-10357D01*
X21735Y-10642D02*
X21735Y-10042D01*
X21964Y-10042D01*
X22021Y-10071D01*
X22050Y-10100D01*
X22078Y-10157D01*
X22078Y-10242D01*
X22050Y-10300D01*
X22021Y-10328D01*
X21964Y-10357D01*
X21735Y-10357D01*
X22335Y-10328D02*
X22535Y-10328D01*
X22621Y-10642D02*
X22335Y-10642D01*
X22335Y-10042D01*
X22621Y-10042D01*
X22850Y-10614D02*
X22935Y-10642D01*
X23078Y-10642D01*
X23135Y-10614D01*
X23164Y-10585D01*
X23192Y-10528D01*
X23192Y-10471D01*
X23164Y-10414D01*
X23135Y-10385D01*
X23078Y-10357D01*
X22964Y-10328D01*
X22907Y-10300D01*
X22878Y-10271D01*
X22850Y-10214D01*
X22850Y-10157D01*
X22878Y-10100D01*
X22907Y-10071D01*
X22964Y-10042D01*
X23107Y-10042D01*
X23192Y-10071D01*
X23450Y-10328D02*
X23650Y-10328D01*
X23735Y-10642D02*
X23450Y-10642D01*
X23450Y-10042D01*
X23735Y-10042D01*
X23907Y-10042D02*
X24250Y-10042D01*
X24078Y-10642D02*
X24078Y-10042D01*
G54D20*
X8224Y3275D02*
X8463Y3275D01*
X8491Y3289D01*
X8505Y3303D01*
X8519Y3331D01*
X8519Y3387D01*
X8505Y3415D01*
X8491Y3429D01*
X8463Y3443D01*
X8224Y3443D01*
X8224Y3724D02*
X8224Y3584D01*
X8364Y3570D01*
X8350Y3584D01*
X8336Y3612D01*
X8336Y3682D01*
X8350Y3710D01*
X8364Y3724D01*
X8392Y3738D01*
X8463Y3738D01*
X8491Y3724D01*
X8505Y3710D01*
X8519Y3682D01*
X8519Y3612D01*
X8505Y3584D01*
X8491Y3570D01*
X7424Y2643D02*
X7719Y2713D01*
X7508Y2769D01*
X7719Y2825D01*
X7424Y2895D01*
X7719Y3008D02*
X7424Y3008D01*
X7635Y3106D01*
X7424Y3205D01*
X7719Y3205D01*
X7550Y3387D02*
X7536Y3359D01*
X7522Y3345D01*
X7494Y3331D01*
X7480Y3331D01*
X7452Y3345D01*
X7438Y3359D01*
X7424Y3387D01*
X7424Y3443D01*
X7438Y3471D01*
X7452Y3485D01*
X7480Y3500D01*
X7494Y3500D01*
X7522Y3485D01*
X7536Y3471D01*
X7550Y3443D01*
X7550Y3387D01*
X7564Y3359D01*
X7578Y3345D01*
X7607Y3331D01*
X7663Y3331D01*
X7691Y3345D01*
X7705Y3359D01*
X7719Y3387D01*
X7719Y3443D01*
X7705Y3471D01*
X7691Y3485D01*
X7663Y3500D01*
X7607Y3500D01*
X7578Y3485D01*
X7564Y3471D01*
X7550Y3443D01*
X7424Y3598D02*
X7424Y3795D01*
X7719Y3668D01*
X7424Y3879D02*
X7424Y4061D01*
X7536Y3963D01*
X7536Y4005D01*
X7550Y4033D01*
X7564Y4047D01*
X7592Y4061D01*
X7663Y4061D01*
X7691Y4047D01*
X7705Y4033D01*
X7719Y4005D01*
X7719Y3921D01*
X7705Y3893D01*
X7691Y3879D01*
X7719Y4342D02*
X7719Y4174D01*
X7719Y4258D02*
X7424Y4258D01*
X7466Y4230D01*
X7494Y4202D01*
X7508Y4174D01*
G54D21*
X3379Y8367D02*
X3379Y8273D01*
X3182Y8273D01*
X3182Y8414D02*
X3182Y8536D01*
X3257Y8470D01*
X3257Y8498D01*
X3267Y8517D01*
X3276Y8526D01*
X3295Y8536D01*
X3342Y8536D01*
X3360Y8526D01*
X3370Y8517D01*
X3379Y8498D01*
X3379Y8442D01*
X3370Y8423D01*
X3360Y8414D01*
X2329Y8417D02*
X2329Y8323D01*
X2132Y8323D01*
X2151Y8473D02*
X2142Y8482D01*
X2132Y8501D01*
X2132Y8548D01*
X2142Y8567D01*
X2151Y8576D01*
X2170Y8586D01*
X2189Y8586D01*
X2217Y8576D01*
X2329Y8464D01*
X2329Y8586D01*
X26879Y5217D02*
X26879Y5123D01*
X26682Y5123D01*
X26879Y5386D02*
X26879Y5273D01*
X26879Y5329D02*
X26682Y5329D01*
X26710Y5310D01*
X26729Y5292D01*
X26739Y5273D01*
G54D22*
X18445Y5445D02*
X18385Y5539D01*
X18342Y5445D02*
X18342Y5642D01*
X18410Y5642D01*
X18427Y5632D01*
X18436Y5623D01*
X18445Y5604D01*
X18445Y5576D01*
X18436Y5557D01*
X18427Y5548D01*
X18410Y5539D01*
X18342Y5539D01*
X18607Y5642D02*
X18522Y5642D01*
X18513Y5548D01*
X18522Y5557D01*
X18539Y5567D01*
X18582Y5567D01*
X18599Y5557D01*
X18607Y5548D01*
X18616Y5529D01*
X18616Y5482D01*
X18607Y5464D01*
X18599Y5454D01*
X18582Y5445D01*
X18539Y5445D01*
X18522Y5454D01*
X18513Y5464D01*
X18491Y4950D02*
X18508Y4950D01*
X18525Y4940D01*
X18534Y4931D01*
X18542Y4911D01*
X18551Y4873D01*
X18551Y4826D01*
X18542Y4788D01*
X18534Y4769D01*
X18525Y4759D01*
X18508Y4750D01*
X18491Y4750D01*
X18474Y4759D01*
X18465Y4769D01*
X18457Y4788D01*
X18448Y4826D01*
X18448Y4873D01*
X18457Y4911D01*
X18465Y4931D01*
X18474Y4940D01*
X18491Y4950D01*
X26104Y1495D02*
X26010Y1435D01*
X26104Y1392D02*
X25907Y1392D01*
X25907Y1460D01*
X25917Y1477D01*
X25926Y1486D01*
X25945Y1495D01*
X25973Y1495D01*
X25992Y1486D01*
X26001Y1477D01*
X26010Y1460D01*
X26010Y1392D01*
X25926Y1563D02*
X25917Y1572D01*
X25907Y1589D01*
X25907Y1632D01*
X25917Y1649D01*
X25926Y1657D01*
X25945Y1666D01*
X25964Y1666D01*
X25992Y1657D01*
X26104Y1555D01*
X26104Y1666D01*
X25211Y1491D02*
X25211Y1508D01*
X25221Y1525D01*
X25231Y1534D01*
X25250Y1542D01*
X25288Y1551D01*
X25335Y1551D01*
X25373Y1542D01*
X25392Y1534D01*
X25402Y1525D01*
X25411Y1508D01*
X25411Y1491D01*
X25402Y1474D01*
X25392Y1465D01*
X25373Y1457D01*
X25335Y1448D01*
X25288Y1448D01*
X25250Y1457D01*
X25231Y1465D01*
X25221Y1474D01*
X25211Y1491D01*
X26104Y745D02*
X26010Y685D01*
X26104Y642D02*
X25907Y642D01*
X25907Y710D01*
X25917Y727D01*
X25926Y736D01*
X25945Y745D01*
X25973Y745D01*
X25992Y736D01*
X26001Y727D01*
X26010Y710D01*
X26010Y642D01*
X26104Y916D02*
X26104Y813D01*
X26104Y865D02*
X25907Y865D01*
X25935Y847D01*
X25954Y830D01*
X25964Y813D01*
X25211Y741D02*
X25211Y758D01*
X25221Y775D01*
X25231Y784D01*
X25250Y792D01*
X25288Y801D01*
X25335Y801D01*
X25373Y792D01*
X25392Y784D01*
X25402Y775D01*
X25411Y758D01*
X25411Y741D01*
X25402Y724D01*
X25392Y715D01*
X25373Y707D01*
X25335Y698D01*
X25288Y698D01*
X25250Y707D01*
X25231Y715D01*
X25221Y724D01*
X25211Y741D01*
X22495Y-6354D02*
X22435Y-6260D01*
X22392Y-6354D02*
X22392Y-6157D01*
X22460Y-6157D01*
X22477Y-6167D01*
X22486Y-6176D01*
X22495Y-6195D01*
X22495Y-6223D01*
X22486Y-6242D01*
X22477Y-6251D01*
X22460Y-6260D01*
X22392Y-6260D01*
X22555Y-6157D02*
X22666Y-6157D01*
X22606Y-6232D01*
X22632Y-6232D01*
X22649Y-6242D01*
X22657Y-6251D01*
X22666Y-6270D01*
X22666Y-6317D01*
X22657Y-6335D01*
X22649Y-6345D01*
X22632Y-6354D01*
X22580Y-6354D01*
X22563Y-6345D01*
X22555Y-6335D01*
X22491Y-5461D02*
X22508Y-5461D01*
X22525Y-5471D01*
X22534Y-5481D01*
X22542Y-5500D01*
X22551Y-5538D01*
X22551Y-5585D01*
X22542Y-5623D01*
X22534Y-5642D01*
X22525Y-5652D01*
X22508Y-5661D01*
X22491Y-5661D01*
X22474Y-5652D01*
X22465Y-5642D01*
X22457Y-5623D01*
X22448Y-5585D01*
X22448Y-5538D01*
X22457Y-5500D01*
X22465Y-5481D01*
X22474Y-5471D01*
X22491Y-5461D01*
X3354Y-2590D02*
X3260Y-2650D01*
X3354Y-2693D02*
X3157Y-2693D01*
X3157Y-2625D01*
X3167Y-2607D01*
X3176Y-2599D01*
X3195Y-2590D01*
X3223Y-2590D01*
X3242Y-2599D01*
X3251Y-2607D01*
X3260Y-2625D01*
X3260Y-2693D01*
X3354Y-2419D02*
X3354Y-2522D01*
X3354Y-2470D02*
X3157Y-2470D01*
X3185Y-2487D01*
X3204Y-2505D01*
X3214Y-2522D01*
X3176Y-2350D02*
X3167Y-2342D01*
X3157Y-2325D01*
X3157Y-2282D01*
X3167Y-2265D01*
X3176Y-2256D01*
X3195Y-2247D01*
X3214Y-2247D01*
X3242Y-2256D01*
X3354Y-2359D01*
X3354Y-2247D01*
X2481Y-2637D02*
X2471Y-2628D01*
X2461Y-2611D01*
X2461Y-2568D01*
X2471Y-2551D01*
X2481Y-2542D01*
X2500Y-2534D01*
X2519Y-2534D01*
X2547Y-2542D01*
X2661Y-2645D01*
X2661Y-2534D01*
X2481Y-2465D02*
X2471Y-2457D01*
X2461Y-2440D01*
X2461Y-2397D01*
X2471Y-2380D01*
X2481Y-2371D01*
X2500Y-2362D01*
X2519Y-2362D01*
X2547Y-2371D01*
X2661Y-2474D01*
X2661Y-2362D01*
X23245Y-6354D02*
X23185Y-6260D01*
X23142Y-6354D02*
X23142Y-6157D01*
X23210Y-6157D01*
X23227Y-6167D01*
X23236Y-6176D01*
X23245Y-6195D01*
X23245Y-6223D01*
X23236Y-6242D01*
X23227Y-6251D01*
X23210Y-6260D01*
X23142Y-6260D01*
X23399Y-6223D02*
X23399Y-6354D01*
X23356Y-6148D02*
X23313Y-6289D01*
X23425Y-6289D01*
X23241Y-5461D02*
X23258Y-5461D01*
X23275Y-5471D01*
X23284Y-5481D01*
X23292Y-5500D01*
X23301Y-5538D01*
X23301Y-5585D01*
X23292Y-5623D01*
X23284Y-5642D01*
X23275Y-5652D01*
X23258Y-5661D01*
X23241Y-5661D01*
X23224Y-5652D01*
X23215Y-5642D01*
X23207Y-5623D01*
X23198Y-5585D01*
X23198Y-5538D01*
X23207Y-5500D01*
X23215Y-5481D01*
X23224Y-5471D01*
X23241Y-5461D01*
X3304Y-3390D02*
X3210Y-3450D01*
X3304Y-3493D02*
X3107Y-3493D01*
X3107Y-3425D01*
X3117Y-3407D01*
X3126Y-3399D01*
X3145Y-3390D01*
X3173Y-3390D01*
X3192Y-3399D01*
X3201Y-3407D01*
X3210Y-3425D01*
X3210Y-3493D01*
X3304Y-3219D02*
X3304Y-3322D01*
X3304Y-3270D02*
X3107Y-3270D01*
X3135Y-3287D01*
X3154Y-3305D01*
X3164Y-3322D01*
X3304Y-3047D02*
X3304Y-3150D01*
X3304Y-3099D02*
X3107Y-3099D01*
X3135Y-3116D01*
X3154Y-3133D01*
X3164Y-3150D01*
X3819Y-3387D02*
X3809Y-3378D01*
X3799Y-3361D01*
X3799Y-3318D01*
X3809Y-3301D01*
X3819Y-3292D01*
X3838Y-3284D01*
X3857Y-3284D01*
X3885Y-3292D01*
X3999Y-3395D01*
X3999Y-3284D01*
X3819Y-3215D02*
X3809Y-3207D01*
X3799Y-3190D01*
X3799Y-3147D01*
X3809Y-3130D01*
X3819Y-3121D01*
X3838Y-3112D01*
X3857Y-3112D01*
X3885Y-3121D01*
X3999Y-3224D01*
X3999Y-3112D01*
X25409Y-6354D02*
X25349Y-6260D01*
X25306Y-6354D02*
X25306Y-6157D01*
X25375Y-6157D01*
X25392Y-6167D01*
X25400Y-6176D01*
X25409Y-6195D01*
X25409Y-6223D01*
X25400Y-6242D01*
X25392Y-6251D01*
X25375Y-6260D01*
X25306Y-6260D01*
X25580Y-6354D02*
X25477Y-6354D01*
X25529Y-6354D02*
X25529Y-6157D01*
X25512Y-6185D01*
X25495Y-6204D01*
X25477Y-6214D01*
X25743Y-6157D02*
X25657Y-6157D01*
X25649Y-6251D01*
X25657Y-6242D01*
X25675Y-6232D01*
X25717Y-6232D01*
X25735Y-6242D01*
X25743Y-6251D01*
X25752Y-6270D01*
X25752Y-6317D01*
X25743Y-6335D01*
X25735Y-6345D01*
X25717Y-6354D01*
X25675Y-6354D01*
X25657Y-6345D01*
X25649Y-6335D01*
X25204Y-5481D02*
X25212Y-5471D01*
X25230Y-5461D01*
X25272Y-5461D01*
X25290Y-5471D01*
X25298Y-5481D01*
X25307Y-5500D01*
X25307Y-5519D01*
X25298Y-5547D01*
X25195Y-5661D01*
X25307Y-5661D01*
X25375Y-5481D02*
X25384Y-5471D01*
X25401Y-5461D01*
X25444Y-5461D01*
X25461Y-5471D01*
X25470Y-5481D01*
X25478Y-5500D01*
X25478Y-5519D01*
X25470Y-5547D01*
X25367Y-5661D01*
X25478Y-5661D01*
X25590Y-5461D02*
X25607Y-5461D01*
X25624Y-5471D01*
X25632Y-5481D01*
X25641Y-5500D01*
X25650Y-5538D01*
X25650Y-5585D01*
X25641Y-5623D01*
X25632Y-5642D01*
X25624Y-5652D01*
X25607Y-5661D01*
X25590Y-5661D01*
X25572Y-5652D01*
X25564Y-5642D01*
X25555Y-5623D01*
X25547Y-5585D01*
X25547Y-5538D01*
X25555Y-5500D01*
X25564Y-5481D01*
X25572Y-5471D01*
X25590Y-5461D01*
X25727Y-5661D02*
X25727Y-5461D01*
X25744Y-5585D02*
X25795Y-5661D01*
X25795Y-5528D02*
X25727Y-5604D01*
X24659Y-6354D02*
X24599Y-6260D01*
X24556Y-6354D02*
X24556Y-6157D01*
X24625Y-6157D01*
X24642Y-6167D01*
X24650Y-6176D01*
X24659Y-6195D01*
X24659Y-6223D01*
X24650Y-6242D01*
X24642Y-6251D01*
X24625Y-6260D01*
X24556Y-6260D01*
X24830Y-6354D02*
X24727Y-6354D01*
X24779Y-6354D02*
X24779Y-6157D01*
X24762Y-6185D01*
X24745Y-6204D01*
X24727Y-6214D01*
X24890Y-6157D02*
X25002Y-6157D01*
X24942Y-6232D01*
X24967Y-6232D01*
X24985Y-6242D01*
X24993Y-6251D01*
X25002Y-6270D01*
X25002Y-6317D01*
X24993Y-6335D01*
X24985Y-6345D01*
X24967Y-6354D01*
X24916Y-6354D01*
X24899Y-6345D01*
X24890Y-6335D01*
X24518Y-5461D02*
X24630Y-5461D01*
X24570Y-5538D01*
X24595Y-5538D01*
X24612Y-5547D01*
X24621Y-5557D01*
X24630Y-5576D01*
X24630Y-5623D01*
X24621Y-5642D01*
X24612Y-5652D01*
X24595Y-5661D01*
X24544Y-5661D01*
X24527Y-5652D01*
X24518Y-5642D01*
X24690Y-5461D02*
X24801Y-5461D01*
X24741Y-5538D01*
X24767Y-5538D01*
X24784Y-5547D01*
X24792Y-5557D01*
X24801Y-5576D01*
X24801Y-5623D01*
X24792Y-5642D01*
X24784Y-5652D01*
X24767Y-5661D01*
X24715Y-5661D01*
X24698Y-5652D01*
X24690Y-5642D01*
X24912Y-5461D02*
X24930Y-5461D01*
X24947Y-5471D01*
X24955Y-5481D01*
X24964Y-5500D01*
X24972Y-5538D01*
X24972Y-5585D01*
X24964Y-5623D01*
X24955Y-5642D01*
X24947Y-5652D01*
X24930Y-5661D01*
X24912Y-5661D01*
X24895Y-5652D01*
X24887Y-5642D01*
X24878Y-5623D01*
X24870Y-5585D01*
X24870Y-5538D01*
X24878Y-5500D01*
X24887Y-5481D01*
X24895Y-5471D01*
X24912Y-5461D01*
X15659Y-6354D02*
X15599Y-6260D01*
X15556Y-6354D02*
X15556Y-6157D01*
X15625Y-6157D01*
X15642Y-6167D01*
X15650Y-6176D01*
X15659Y-6195D01*
X15659Y-6223D01*
X15650Y-6242D01*
X15642Y-6251D01*
X15625Y-6260D01*
X15556Y-6260D01*
X15830Y-6354D02*
X15727Y-6354D01*
X15779Y-6354D02*
X15779Y-6157D01*
X15762Y-6185D01*
X15745Y-6204D01*
X15727Y-6214D01*
X15890Y-6157D02*
X16010Y-6157D01*
X15933Y-6354D01*
X15621Y-5461D02*
X15535Y-5461D01*
X15527Y-5557D01*
X15535Y-5547D01*
X15552Y-5538D01*
X15595Y-5538D01*
X15612Y-5547D01*
X15621Y-5557D01*
X15630Y-5576D01*
X15630Y-5623D01*
X15621Y-5642D01*
X15612Y-5652D01*
X15595Y-5661D01*
X15552Y-5661D01*
X15535Y-5652D01*
X15527Y-5642D01*
X15801Y-5661D02*
X15698Y-5661D01*
X15750Y-5661D02*
X15750Y-5461D01*
X15732Y-5490D01*
X15715Y-5509D01*
X15698Y-5519D01*
X15912Y-5461D02*
X15930Y-5461D01*
X15947Y-5471D01*
X15955Y-5481D01*
X15964Y-5500D01*
X15972Y-5538D01*
X15972Y-5585D01*
X15964Y-5623D01*
X15955Y-5642D01*
X15947Y-5652D01*
X15930Y-5661D01*
X15912Y-5661D01*
X15895Y-5652D01*
X15887Y-5642D01*
X15878Y-5623D01*
X15870Y-5585D01*
X15870Y-5538D01*
X15878Y-5500D01*
X15887Y-5481D01*
X15895Y-5471D01*
X15912Y-5461D01*
X17159Y-6354D02*
X17099Y-6260D01*
X17056Y-6354D02*
X17056Y-6157D01*
X17125Y-6157D01*
X17142Y-6167D01*
X17150Y-6176D01*
X17159Y-6195D01*
X17159Y-6223D01*
X17150Y-6242D01*
X17142Y-6251D01*
X17125Y-6260D01*
X17056Y-6260D01*
X17330Y-6354D02*
X17227Y-6354D01*
X17279Y-6354D02*
X17279Y-6157D01*
X17262Y-6185D01*
X17245Y-6204D01*
X17227Y-6214D01*
X17433Y-6242D02*
X17416Y-6232D01*
X17407Y-6223D01*
X17399Y-6204D01*
X17399Y-6195D01*
X17407Y-6176D01*
X17416Y-6167D01*
X17433Y-6157D01*
X17467Y-6157D01*
X17485Y-6167D01*
X17493Y-6176D01*
X17502Y-6195D01*
X17502Y-6204D01*
X17493Y-6223D01*
X17485Y-6232D01*
X17467Y-6242D01*
X17433Y-6242D01*
X17416Y-6251D01*
X17407Y-6260D01*
X17399Y-6279D01*
X17399Y-6317D01*
X17407Y-6335D01*
X17416Y-6345D01*
X17433Y-6354D01*
X17467Y-6354D01*
X17485Y-6345D01*
X17493Y-6335D01*
X17502Y-6317D01*
X17502Y-6279D01*
X17493Y-6260D01*
X17485Y-6251D01*
X17467Y-6242D01*
X17112Y-5461D02*
X17078Y-5461D01*
X17061Y-5471D01*
X17052Y-5481D01*
X17035Y-5509D01*
X17027Y-5547D01*
X17027Y-5623D01*
X17035Y-5642D01*
X17044Y-5652D01*
X17061Y-5661D01*
X17095Y-5661D01*
X17112Y-5652D01*
X17121Y-5642D01*
X17130Y-5623D01*
X17130Y-5576D01*
X17121Y-5557D01*
X17112Y-5547D01*
X17095Y-5538D01*
X17061Y-5538D01*
X17044Y-5547D01*
X17035Y-5557D01*
X17027Y-5576D01*
X17232Y-5547D02*
X17215Y-5538D01*
X17207Y-5528D01*
X17198Y-5509D01*
X17198Y-5500D01*
X17207Y-5481D01*
X17215Y-5471D01*
X17232Y-5461D01*
X17267Y-5461D01*
X17284Y-5471D01*
X17292Y-5481D01*
X17301Y-5500D01*
X17301Y-5509D01*
X17292Y-5528D01*
X17284Y-5538D01*
X17267Y-5547D01*
X17232Y-5547D01*
X17215Y-5557D01*
X17207Y-5566D01*
X17198Y-5585D01*
X17198Y-5623D01*
X17207Y-5642D01*
X17215Y-5652D01*
X17232Y-5661D01*
X17267Y-5661D01*
X17284Y-5652D01*
X17292Y-5642D01*
X17301Y-5623D01*
X17301Y-5585D01*
X17292Y-5566D01*
X17284Y-5557D01*
X17267Y-5547D01*
X17412Y-5461D02*
X17430Y-5461D01*
X17447Y-5471D01*
X17455Y-5481D01*
X17464Y-5500D01*
X17472Y-5538D01*
X17472Y-5585D01*
X17464Y-5623D01*
X17455Y-5642D01*
X17447Y-5652D01*
X17430Y-5661D01*
X17412Y-5661D01*
X17395Y-5652D01*
X17387Y-5642D01*
X17378Y-5623D01*
X17370Y-5585D01*
X17370Y-5538D01*
X17378Y-5500D01*
X17387Y-5481D01*
X17395Y-5471D01*
X17412Y-5461D01*
X13909Y-7354D02*
X13849Y-7260D01*
X13806Y-7354D02*
X13806Y-7157D01*
X13875Y-7157D01*
X13892Y-7167D01*
X13900Y-7176D01*
X13909Y-7195D01*
X13909Y-7223D01*
X13900Y-7242D01*
X13892Y-7251D01*
X13875Y-7260D01*
X13806Y-7260D01*
X14080Y-7354D02*
X13977Y-7354D01*
X14029Y-7354D02*
X14029Y-7157D01*
X14012Y-7185D01*
X13995Y-7204D01*
X13977Y-7214D01*
X14166Y-7354D02*
X14200Y-7354D01*
X14217Y-7345D01*
X14226Y-7335D01*
X14243Y-7307D01*
X14252Y-7270D01*
X14252Y-7195D01*
X14243Y-7176D01*
X14235Y-7167D01*
X14217Y-7157D01*
X14183Y-7157D01*
X14166Y-7167D01*
X14157Y-7176D01*
X14149Y-7195D01*
X14149Y-7242D01*
X14157Y-7260D01*
X14166Y-7270D01*
X14183Y-7279D01*
X14217Y-7279D01*
X14235Y-7270D01*
X14243Y-7260D01*
X14252Y-7242D01*
X13862Y-6528D02*
X13862Y-6661D01*
X13820Y-6452D02*
X13777Y-6595D01*
X13888Y-6595D01*
X13940Y-6461D02*
X14060Y-6461D01*
X13982Y-6661D01*
X14162Y-6461D02*
X14180Y-6461D01*
X14197Y-6471D01*
X14205Y-6481D01*
X14214Y-6500D01*
X14222Y-6538D01*
X14222Y-6585D01*
X14214Y-6623D01*
X14205Y-6642D01*
X14197Y-6652D01*
X14180Y-6661D01*
X14162Y-6661D01*
X14145Y-6652D01*
X14137Y-6642D01*
X14128Y-6623D01*
X14120Y-6585D01*
X14120Y-6538D01*
X14128Y-6500D01*
X14137Y-6481D01*
X14145Y-6471D01*
X14162Y-6461D01*
X4604Y6909D02*
X4510Y6849D01*
X4604Y6806D02*
X4407Y6806D01*
X4407Y6875D01*
X4417Y6892D01*
X4426Y6900D01*
X4445Y6909D01*
X4473Y6909D01*
X4492Y6900D01*
X4501Y6892D01*
X4510Y6875D01*
X4510Y6806D01*
X4426Y6977D02*
X4417Y6986D01*
X4407Y7003D01*
X4407Y7046D01*
X4417Y7063D01*
X4426Y7072D01*
X4445Y7080D01*
X4464Y7080D01*
X4492Y7072D01*
X4604Y6969D01*
X4604Y7080D01*
X4407Y7140D02*
X4407Y7260D01*
X4604Y7183D01*
X3778Y6875D02*
X3911Y6875D01*
X3702Y6832D02*
X3845Y6790D01*
X3845Y6901D01*
X3711Y6952D02*
X3711Y7072D01*
X3911Y6995D01*
X3911Y7141D02*
X3711Y7141D01*
X3835Y7158D02*
X3911Y7210D01*
X3778Y7210D02*
X3854Y7141D01*
X26104Y-5D02*
X26010Y-65D01*
X26104Y-107D02*
X25907Y-107D01*
X25907Y-39D01*
X25917Y-22D01*
X25926Y-13D01*
X25945Y-5D01*
X25973Y-5D01*
X25992Y-13D01*
X26001Y-22D01*
X26010Y-39D01*
X26010Y-107D01*
X25907Y55D02*
X25907Y175D01*
X26104Y97D01*
X25231Y-222D02*
X25221Y-214D01*
X25211Y-197D01*
X25211Y-154D01*
X25221Y-137D01*
X25231Y-128D01*
X25250Y-120D01*
X25269Y-120D01*
X25297Y-128D01*
X25411Y-231D01*
X25411Y-120D01*
X25231Y-51D02*
X25221Y-42D01*
X25211Y-25D01*
X25211Y17D01*
X25221Y34D01*
X25231Y42D01*
X25250Y51D01*
X25269Y51D01*
X25297Y42D01*
X25411Y-60D01*
X25411Y51D01*
X25211Y162D02*
X25211Y180D01*
X25221Y197D01*
X25231Y205D01*
X25250Y214D01*
X25288Y222D01*
X25335Y222D01*
X25373Y214D01*
X25392Y205D01*
X25402Y197D01*
X25411Y180D01*
X25411Y162D01*
X25402Y145D01*
X25392Y137D01*
X25373Y128D01*
X25335Y120D01*
X25288Y120D01*
X25250Y128D01*
X25231Y137D01*
X25221Y145D01*
X25211Y162D01*
X26104Y-755D02*
X26010Y-815D01*
X26104Y-857D02*
X25907Y-857D01*
X25907Y-789D01*
X25917Y-772D01*
X25926Y-763D01*
X25945Y-755D01*
X25973Y-755D01*
X25992Y-763D01*
X26001Y-772D01*
X26010Y-789D01*
X26010Y-857D01*
X25907Y-600D02*
X25907Y-635D01*
X25917Y-652D01*
X25926Y-660D01*
X25954Y-677D01*
X25992Y-686D01*
X26067Y-686D01*
X26085Y-677D01*
X26095Y-669D01*
X26104Y-652D01*
X26104Y-617D01*
X26095Y-600D01*
X26085Y-592D01*
X26067Y-583D01*
X26020Y-583D01*
X26001Y-592D01*
X25992Y-600D01*
X25982Y-617D01*
X25982Y-652D01*
X25992Y-669D01*
X26001Y-677D01*
X26020Y-686D01*
X25211Y-758D02*
X25211Y-741D01*
X25221Y-724D01*
X25231Y-715D01*
X25250Y-707D01*
X25288Y-698D01*
X25335Y-698D01*
X25373Y-707D01*
X25392Y-715D01*
X25402Y-724D01*
X25411Y-741D01*
X25411Y-758D01*
X25402Y-775D01*
X25392Y-784D01*
X25373Y-792D01*
X25335Y-801D01*
X25288Y-801D01*
X25250Y-792D01*
X25231Y-784D01*
X25221Y-775D01*
X25211Y-758D01*
X12554Y2859D02*
X12460Y2799D01*
X12554Y2756D02*
X12357Y2756D01*
X12357Y2825D01*
X12367Y2842D01*
X12376Y2850D01*
X12395Y2859D01*
X12423Y2859D01*
X12442Y2850D01*
X12451Y2842D01*
X12460Y2825D01*
X12460Y2756D01*
X12376Y2927D02*
X12367Y2936D01*
X12357Y2953D01*
X12357Y2996D01*
X12367Y3013D01*
X12376Y3022D01*
X12395Y3030D01*
X12414Y3030D01*
X12442Y3022D01*
X12554Y2919D01*
X12554Y3030D01*
X12357Y3193D02*
X12357Y3107D01*
X12451Y3099D01*
X12442Y3107D01*
X12432Y3125D01*
X12432Y3167D01*
X12442Y3185D01*
X12451Y3193D01*
X12470Y3202D01*
X12517Y3202D01*
X12535Y3193D01*
X12545Y3185D01*
X12554Y3167D01*
X12554Y3125D01*
X12545Y3107D01*
X12535Y3099D01*
X13249Y2807D02*
X13249Y2704D01*
X13249Y2755D02*
X13049Y2755D01*
X13078Y2738D01*
X13097Y2721D01*
X13107Y2704D01*
X13049Y2918D02*
X13049Y2935D01*
X13059Y2952D01*
X13069Y2961D01*
X13088Y2970D01*
X13126Y2978D01*
X13173Y2978D01*
X13211Y2970D01*
X13230Y2961D01*
X13240Y2952D01*
X13249Y2935D01*
X13249Y2918D01*
X13240Y2901D01*
X13230Y2892D01*
X13211Y2884D01*
X13173Y2875D01*
X13126Y2875D01*
X13088Y2884D01*
X13069Y2892D01*
X13059Y2901D01*
X13049Y2918D01*
X13049Y3090D02*
X13049Y3107D01*
X13059Y3124D01*
X13069Y3132D01*
X13088Y3141D01*
X13126Y3150D01*
X13173Y3150D01*
X13211Y3141D01*
X13230Y3132D01*
X13240Y3124D01*
X13249Y3107D01*
X13249Y3090D01*
X13240Y3072D01*
X13230Y3064D01*
X13211Y3055D01*
X13173Y3047D01*
X13126Y3047D01*
X13088Y3055D01*
X13069Y3064D01*
X13059Y3072D01*
X13049Y3090D01*
X13249Y3227D02*
X13049Y3227D01*
X13173Y3244D02*
X13249Y3295D01*
X13116Y3295D02*
X13192Y3227D01*
X12554Y2109D02*
X12460Y2049D01*
X12554Y2006D02*
X12357Y2006D01*
X12357Y2075D01*
X12367Y2092D01*
X12376Y2100D01*
X12395Y2109D01*
X12423Y2109D01*
X12442Y2100D01*
X12451Y2092D01*
X12460Y2075D01*
X12460Y2006D01*
X12376Y2177D02*
X12367Y2186D01*
X12357Y2203D01*
X12357Y2246D01*
X12367Y2263D01*
X12376Y2272D01*
X12395Y2280D01*
X12414Y2280D01*
X12442Y2272D01*
X12554Y2169D01*
X12554Y2280D01*
X12423Y2435D02*
X12554Y2435D01*
X12348Y2392D02*
X12489Y2349D01*
X12489Y2460D01*
X13249Y2057D02*
X13249Y1954D01*
X13249Y2005D02*
X13049Y2005D01*
X13078Y1988D01*
X13097Y1971D01*
X13107Y1954D01*
X13049Y2168D02*
X13049Y2185D01*
X13059Y2202D01*
X13069Y2211D01*
X13088Y2220D01*
X13126Y2228D01*
X13173Y2228D01*
X13211Y2220D01*
X13230Y2211D01*
X13240Y2202D01*
X13249Y2185D01*
X13249Y2168D01*
X13240Y2151D01*
X13230Y2142D01*
X13211Y2134D01*
X13173Y2125D01*
X13126Y2125D01*
X13088Y2134D01*
X13069Y2142D01*
X13059Y2151D01*
X13049Y2168D01*
X13049Y2340D02*
X13049Y2357D01*
X13059Y2374D01*
X13069Y2382D01*
X13088Y2391D01*
X13126Y2400D01*
X13173Y2400D01*
X13211Y2391D01*
X13230Y2382D01*
X13240Y2374D01*
X13249Y2357D01*
X13249Y2340D01*
X13240Y2322D01*
X13230Y2314D01*
X13211Y2305D01*
X13173Y2297D01*
X13126Y2297D01*
X13088Y2305D01*
X13069Y2314D01*
X13059Y2322D01*
X13049Y2340D01*
X13249Y2477D02*
X13049Y2477D01*
X13173Y2494D02*
X13249Y2545D01*
X13116Y2545D02*
X13192Y2477D01*
X1054Y6859D02*
X960Y6799D01*
X1054Y6756D02*
X857Y6756D01*
X857Y6825D01*
X867Y6842D01*
X876Y6850D01*
X895Y6859D01*
X923Y6859D01*
X942Y6850D01*
X951Y6842D01*
X960Y6825D01*
X960Y6756D01*
X876Y6927D02*
X867Y6936D01*
X857Y6953D01*
X857Y6996D01*
X867Y7013D01*
X876Y7022D01*
X895Y7030D01*
X914Y7030D01*
X942Y7022D01*
X1054Y6919D01*
X1054Y7030D01*
X857Y7185D02*
X857Y7150D01*
X867Y7133D01*
X876Y7125D01*
X904Y7107D01*
X942Y7099D01*
X1017Y7099D01*
X1035Y7107D01*
X1045Y7116D01*
X1054Y7133D01*
X1054Y7167D01*
X1045Y7185D01*
X1035Y7193D01*
X1017Y7202D01*
X970Y7202D01*
X951Y7193D01*
X942Y7185D01*
X932Y7167D01*
X932Y7133D01*
X942Y7116D01*
X951Y7107D01*
X970Y7099D01*
X1616Y6875D02*
X1749Y6875D01*
X1540Y6832D02*
X1683Y6790D01*
X1683Y6901D01*
X1549Y6952D02*
X1549Y7072D01*
X1749Y6995D01*
X1749Y7141D02*
X1549Y7141D01*
X1673Y7158D02*
X1749Y7210D01*
X1616Y7210D02*
X1692Y7141D01*
X26104Y-2840D02*
X26010Y-2900D01*
X26104Y-2943D02*
X25907Y-2943D01*
X25907Y-2875D01*
X25917Y-2857D01*
X25926Y-2849D01*
X25945Y-2840D01*
X25973Y-2840D01*
X25992Y-2849D01*
X26001Y-2857D01*
X26010Y-2875D01*
X26010Y-2943D01*
X26104Y-2669D02*
X26104Y-2772D01*
X26104Y-2720D02*
X25907Y-2720D01*
X25935Y-2737D01*
X25954Y-2755D01*
X25964Y-2772D01*
X25907Y-2557D02*
X25907Y-2540D01*
X25917Y-2523D01*
X25926Y-2515D01*
X25945Y-2506D01*
X25982Y-2497D01*
X26029Y-2497D01*
X26067Y-2506D01*
X26085Y-2515D01*
X26095Y-2523D01*
X26104Y-2540D01*
X26104Y-2557D01*
X26095Y-2575D01*
X26085Y-2583D01*
X26067Y-2592D01*
X26029Y-2600D01*
X25982Y-2600D01*
X25945Y-2592D01*
X25926Y-2583D01*
X25917Y-2575D01*
X25907Y-2557D01*
X25211Y-2758D02*
X25211Y-2741D01*
X25221Y-2724D01*
X25231Y-2715D01*
X25250Y-2707D01*
X25288Y-2698D01*
X25335Y-2698D01*
X25373Y-2707D01*
X25392Y-2715D01*
X25402Y-2724D01*
X25411Y-2741D01*
X25411Y-2758D01*
X25402Y-2775D01*
X25392Y-2784D01*
X25373Y-2792D01*
X25335Y-2801D01*
X25288Y-2801D01*
X25250Y-2792D01*
X25231Y-2784D01*
X25221Y-2775D01*
X25211Y-2758D01*
X20995Y-6354D02*
X20935Y-6260D01*
X20892Y-6354D02*
X20892Y-6157D01*
X20960Y-6157D01*
X20977Y-6167D01*
X20986Y-6176D01*
X20995Y-6195D01*
X20995Y-6223D01*
X20986Y-6242D01*
X20977Y-6251D01*
X20960Y-6260D01*
X20892Y-6260D01*
X21080Y-6354D02*
X21115Y-6354D01*
X21132Y-6345D01*
X21140Y-6335D01*
X21157Y-6307D01*
X21166Y-6270D01*
X21166Y-6195D01*
X21157Y-6176D01*
X21149Y-6167D01*
X21132Y-6157D01*
X21097Y-6157D01*
X21080Y-6167D01*
X21072Y-6176D01*
X21063Y-6195D01*
X21063Y-6242D01*
X21072Y-6260D01*
X21080Y-6270D01*
X21097Y-6279D01*
X21132Y-6279D01*
X21149Y-6270D01*
X21157Y-6260D01*
X21166Y-6242D01*
X20871Y-5461D02*
X20785Y-5461D01*
X20777Y-5557D01*
X20785Y-5547D01*
X20802Y-5538D01*
X20845Y-5538D01*
X20862Y-5547D01*
X20871Y-5557D01*
X20880Y-5576D01*
X20880Y-5623D01*
X20871Y-5642D01*
X20862Y-5652D01*
X20845Y-5661D01*
X20802Y-5661D01*
X20785Y-5652D01*
X20777Y-5642D01*
X21051Y-5661D02*
X20948Y-5661D01*
X21000Y-5661D02*
X21000Y-5461D01*
X20982Y-5490D01*
X20965Y-5509D01*
X20948Y-5519D01*
X21162Y-5461D02*
X21180Y-5461D01*
X21197Y-5471D01*
X21205Y-5481D01*
X21214Y-5500D01*
X21222Y-5538D01*
X21222Y-5585D01*
X21214Y-5623D01*
X21205Y-5642D01*
X21197Y-5652D01*
X21180Y-5661D01*
X21162Y-5661D01*
X21145Y-5652D01*
X21137Y-5642D01*
X21128Y-5623D01*
X21120Y-5585D01*
X21120Y-5538D01*
X21128Y-5500D01*
X21137Y-5481D01*
X21145Y-5471D01*
X21162Y-5461D01*
X12554Y4359D02*
X12460Y4299D01*
X12554Y4256D02*
X12357Y4256D01*
X12357Y4325D01*
X12367Y4342D01*
X12376Y4350D01*
X12395Y4359D01*
X12423Y4359D01*
X12442Y4350D01*
X12451Y4342D01*
X12460Y4325D01*
X12460Y4256D01*
X12376Y4427D02*
X12367Y4436D01*
X12357Y4453D01*
X12357Y4496D01*
X12367Y4513D01*
X12376Y4522D01*
X12395Y4530D01*
X12414Y4530D01*
X12442Y4522D01*
X12554Y4419D01*
X12554Y4530D01*
X12376Y4599D02*
X12367Y4607D01*
X12357Y4625D01*
X12357Y4667D01*
X12367Y4685D01*
X12376Y4693D01*
X12395Y4702D01*
X12414Y4702D01*
X12442Y4693D01*
X12554Y4590D01*
X12554Y4702D01*
X13249Y4307D02*
X13249Y4204D01*
X13249Y4255D02*
X13049Y4255D01*
X13078Y4238D01*
X13097Y4221D01*
X13107Y4204D01*
X13049Y4418D02*
X13049Y4435D01*
X13059Y4452D01*
X13069Y4461D01*
X13088Y4470D01*
X13126Y4478D01*
X13173Y4478D01*
X13211Y4470D01*
X13230Y4461D01*
X13240Y4452D01*
X13249Y4435D01*
X13249Y4418D01*
X13240Y4401D01*
X13230Y4392D01*
X13211Y4384D01*
X13173Y4375D01*
X13126Y4375D01*
X13088Y4384D01*
X13069Y4392D01*
X13059Y4401D01*
X13049Y4418D01*
X13049Y4590D02*
X13049Y4607D01*
X13059Y4624D01*
X13069Y4632D01*
X13088Y4641D01*
X13126Y4650D01*
X13173Y4650D01*
X13211Y4641D01*
X13230Y4632D01*
X13240Y4624D01*
X13249Y4607D01*
X13249Y4590D01*
X13240Y4572D01*
X13230Y4564D01*
X13211Y4555D01*
X13173Y4547D01*
X13126Y4547D01*
X13088Y4555D01*
X13069Y4564D01*
X13059Y4572D01*
X13049Y4590D01*
X13249Y4727D02*
X13049Y4727D01*
X13173Y4744D02*
X13249Y4795D01*
X13116Y4795D02*
X13192Y4727D01*
X20109Y-6304D02*
X20049Y-6210D01*
X20006Y-6304D02*
X20006Y-6107D01*
X20075Y-6107D01*
X20092Y-6117D01*
X20100Y-6126D01*
X20109Y-6145D01*
X20109Y-6173D01*
X20100Y-6192D01*
X20092Y-6201D01*
X20075Y-6210D01*
X20006Y-6210D01*
X20177Y-6126D02*
X20186Y-6117D01*
X20203Y-6107D01*
X20246Y-6107D01*
X20263Y-6117D01*
X20272Y-6126D01*
X20280Y-6145D01*
X20280Y-6164D01*
X20272Y-6192D01*
X20169Y-6304D01*
X20280Y-6304D01*
X20452Y-6304D02*
X20349Y-6304D01*
X20400Y-6304D02*
X20400Y-6107D01*
X20383Y-6135D01*
X20366Y-6154D01*
X20349Y-6164D01*
X20125Y-6866D02*
X20125Y-6999D01*
X20082Y-6790D02*
X20040Y-6933D01*
X20151Y-6933D01*
X20220Y-6999D02*
X20220Y-6799D01*
X20237Y-6923D02*
X20288Y-6999D01*
X20288Y-6866D02*
X20220Y-6942D01*
X20348Y-6799D02*
X20468Y-6799D01*
X20391Y-6999D01*
X12604Y3659D02*
X12510Y3599D01*
X12604Y3556D02*
X12407Y3556D01*
X12407Y3625D01*
X12417Y3642D01*
X12426Y3650D01*
X12445Y3659D01*
X12473Y3659D01*
X12492Y3650D01*
X12501Y3642D01*
X12510Y3625D01*
X12510Y3556D01*
X12426Y3727D02*
X12417Y3736D01*
X12407Y3753D01*
X12407Y3796D01*
X12417Y3813D01*
X12426Y3822D01*
X12445Y3830D01*
X12464Y3830D01*
X12492Y3822D01*
X12604Y3719D01*
X12604Y3830D01*
X12407Y3890D02*
X12407Y4002D01*
X12482Y3942D01*
X12482Y3967D01*
X12492Y3985D01*
X12501Y3993D01*
X12520Y4002D01*
X12567Y4002D01*
X12585Y3993D01*
X12595Y3985D01*
X12604Y3967D01*
X12604Y3916D01*
X12595Y3899D01*
X12585Y3890D01*
X11911Y3642D02*
X11911Y3540D01*
X11911Y3591D02*
X11711Y3591D01*
X11740Y3574D01*
X11759Y3557D01*
X11769Y3540D01*
X11711Y3754D02*
X11711Y3771D01*
X11721Y3788D01*
X11731Y3797D01*
X11750Y3805D01*
X11788Y3814D01*
X11835Y3814D01*
X11873Y3805D01*
X11892Y3797D01*
X11902Y3788D01*
X11911Y3771D01*
X11911Y3754D01*
X11902Y3737D01*
X11892Y3728D01*
X11873Y3720D01*
X11835Y3711D01*
X11788Y3711D01*
X11750Y3720D01*
X11731Y3728D01*
X11721Y3737D01*
X11711Y3754D01*
X11911Y3891D02*
X11711Y3891D01*
X11835Y3908D02*
X11911Y3960D01*
X11778Y3960D02*
X11854Y3891D01*
X19359Y-6304D02*
X19299Y-6210D01*
X19256Y-6304D02*
X19256Y-6107D01*
X19325Y-6107D01*
X19342Y-6117D01*
X19350Y-6126D01*
X19359Y-6145D01*
X19359Y-6173D01*
X19350Y-6192D01*
X19342Y-6201D01*
X19325Y-6210D01*
X19256Y-6210D01*
X19427Y-6126D02*
X19436Y-6117D01*
X19453Y-6107D01*
X19496Y-6107D01*
X19513Y-6117D01*
X19522Y-6126D01*
X19530Y-6145D01*
X19530Y-6164D01*
X19522Y-6192D01*
X19419Y-6304D01*
X19530Y-6304D01*
X19642Y-6107D02*
X19659Y-6107D01*
X19676Y-6117D01*
X19685Y-6126D01*
X19693Y-6145D01*
X19702Y-6182D01*
X19702Y-6229D01*
X19693Y-6267D01*
X19685Y-6285D01*
X19676Y-6295D01*
X19659Y-6304D01*
X19642Y-6304D01*
X19625Y-6295D01*
X19616Y-6285D01*
X19607Y-6267D01*
X19599Y-6229D01*
X19599Y-6182D01*
X19607Y-6145D01*
X19616Y-6126D01*
X19625Y-6117D01*
X19642Y-6107D01*
X19375Y-6866D02*
X19375Y-6999D01*
X19332Y-6790D02*
X19290Y-6933D01*
X19401Y-6933D01*
X19470Y-6999D02*
X19470Y-6799D01*
X19487Y-6923D02*
X19538Y-6999D01*
X19538Y-6866D02*
X19470Y-6942D01*
X19598Y-6799D02*
X19718Y-6799D01*
X19641Y-6999D01*
X12561Y-365D02*
X12571Y-374D01*
X12580Y-400D01*
X12580Y-417D01*
X12571Y-442D01*
X12552Y-460D01*
X12533Y-468D01*
X12495Y-477D01*
X12466Y-477D01*
X12428Y-468D01*
X12409Y-460D01*
X12390Y-442D01*
X12380Y-417D01*
X12380Y-400D01*
X12390Y-374D01*
X12400Y-365D01*
X12380Y-305D02*
X12380Y-194D01*
X12457Y-254D01*
X12457Y-228D01*
X12466Y-211D01*
X12476Y-202D01*
X12495Y-194D01*
X12542Y-194D01*
X12561Y-202D01*
X12571Y-211D01*
X12580Y-228D01*
X12580Y-280D01*
X12571Y-297D01*
X12561Y-305D01*
X12380Y-134D02*
X12380Y-22D01*
X12457Y-82D01*
X12457Y-57D01*
X12466Y-40D01*
X12476Y-31D01*
X12495Y-22D01*
X12542Y-22D01*
X12561Y-31D01*
X12571Y-40D01*
X12580Y-57D01*
X12580Y-108D01*
X12571Y-125D01*
X12561Y-134D01*
X13230Y-280D02*
X13230Y-382D01*
X13230Y-331D02*
X13030Y-331D01*
X13059Y-348D01*
X13078Y-365D01*
X13088Y-382D01*
X13097Y-125D02*
X13230Y-125D01*
X13097Y-202D02*
X13202Y-202D01*
X13221Y-194D01*
X13230Y-177D01*
X13230Y-151D01*
X13221Y-134D01*
X13211Y-125D01*
X6811Y-5615D02*
X6821Y-5624D01*
X6830Y-5650D01*
X6830Y-5667D01*
X6821Y-5692D01*
X6802Y-5710D01*
X6783Y-5718D01*
X6745Y-5727D01*
X6716Y-5727D01*
X6678Y-5718D01*
X6659Y-5710D01*
X6640Y-5692D01*
X6630Y-5667D01*
X6630Y-5650D01*
X6640Y-5624D01*
X6650Y-5615D01*
X6830Y-5444D02*
X6830Y-5547D01*
X6830Y-5495D02*
X6630Y-5495D01*
X6659Y-5512D01*
X6678Y-5530D01*
X6688Y-5547D01*
X6830Y-5358D02*
X6830Y-5324D01*
X6821Y-5307D01*
X6811Y-5298D01*
X6783Y-5281D01*
X6745Y-5272D01*
X6669Y-5272D01*
X6650Y-5281D01*
X6640Y-5290D01*
X6630Y-5307D01*
X6630Y-5341D01*
X6640Y-5358D01*
X6650Y-5367D01*
X6669Y-5375D01*
X6716Y-5375D01*
X6735Y-5367D01*
X6745Y-5358D01*
X6754Y-5341D01*
X6754Y-5307D01*
X6745Y-5290D01*
X6735Y-5281D01*
X6716Y-5272D01*
X7480Y-5615D02*
X7480Y-5718D01*
X7480Y-5667D02*
X7280Y-5667D01*
X7309Y-5684D01*
X7328Y-5701D01*
X7338Y-5718D01*
X7280Y-5504D02*
X7280Y-5487D01*
X7290Y-5469D01*
X7300Y-5461D01*
X7319Y-5452D01*
X7357Y-5444D01*
X7404Y-5444D01*
X7442Y-5452D01*
X7461Y-5461D01*
X7471Y-5469D01*
X7480Y-5487D01*
X7480Y-5504D01*
X7471Y-5521D01*
X7461Y-5529D01*
X7442Y-5538D01*
X7404Y-5547D01*
X7357Y-5547D01*
X7319Y-5538D01*
X7300Y-5529D01*
X7290Y-5521D01*
X7280Y-5504D01*
X7347Y-5289D02*
X7480Y-5289D01*
X7347Y-5367D02*
X7452Y-5367D01*
X7471Y-5358D01*
X7480Y-5341D01*
X7480Y-5315D01*
X7471Y-5298D01*
X7461Y-5289D01*
X6811Y-3615D02*
X6821Y-3624D01*
X6830Y-3650D01*
X6830Y-3667D01*
X6821Y-3692D01*
X6802Y-3710D01*
X6783Y-3718D01*
X6745Y-3727D01*
X6716Y-3727D01*
X6678Y-3718D01*
X6659Y-3710D01*
X6640Y-3692D01*
X6630Y-3667D01*
X6630Y-3650D01*
X6640Y-3624D01*
X6650Y-3615D01*
X6630Y-3555D02*
X6630Y-3444D01*
X6707Y-3504D01*
X6707Y-3478D01*
X6716Y-3461D01*
X6726Y-3452D01*
X6745Y-3444D01*
X6792Y-3444D01*
X6811Y-3452D01*
X6821Y-3461D01*
X6830Y-3478D01*
X6830Y-3530D01*
X6821Y-3547D01*
X6811Y-3555D01*
X6697Y-3290D02*
X6830Y-3290D01*
X6621Y-3332D02*
X6764Y-3375D01*
X6764Y-3264D01*
X7480Y-3615D02*
X7480Y-3718D01*
X7480Y-3667D02*
X7280Y-3667D01*
X7309Y-3684D01*
X7328Y-3701D01*
X7338Y-3718D01*
X7280Y-3504D02*
X7280Y-3487D01*
X7290Y-3469D01*
X7300Y-3461D01*
X7319Y-3452D01*
X7357Y-3444D01*
X7404Y-3444D01*
X7442Y-3452D01*
X7461Y-3461D01*
X7471Y-3469D01*
X7480Y-3487D01*
X7480Y-3504D01*
X7471Y-3521D01*
X7461Y-3529D01*
X7442Y-3538D01*
X7404Y-3547D01*
X7357Y-3547D01*
X7319Y-3538D01*
X7300Y-3529D01*
X7290Y-3521D01*
X7280Y-3504D01*
X7347Y-3289D02*
X7480Y-3289D01*
X7347Y-3367D02*
X7452Y-3367D01*
X7471Y-3358D01*
X7480Y-3341D01*
X7480Y-3315D01*
X7471Y-3298D01*
X7461Y-3289D01*
X11384Y-1811D02*
X11375Y-1821D01*
X11350Y-1830D01*
X11332Y-1830D01*
X11307Y-1821D01*
X11290Y-1802D01*
X11281Y-1783D01*
X11272Y-1745D01*
X11272Y-1716D01*
X11281Y-1678D01*
X11290Y-1659D01*
X11307Y-1640D01*
X11332Y-1630D01*
X11350Y-1630D01*
X11375Y-1640D01*
X11384Y-1650D01*
X11444Y-1630D02*
X11555Y-1630D01*
X11495Y-1707D01*
X11521Y-1707D01*
X11538Y-1716D01*
X11547Y-1726D01*
X11555Y-1745D01*
X11555Y-1792D01*
X11547Y-1811D01*
X11538Y-1821D01*
X11521Y-1830D01*
X11470Y-1830D01*
X11452Y-1821D01*
X11444Y-1811D01*
X11615Y-1630D02*
X11735Y-1630D01*
X11658Y-1830D01*
X11281Y-2300D02*
X11290Y-2290D01*
X11307Y-2280D01*
X11350Y-2280D01*
X11367Y-2290D01*
X11375Y-2300D01*
X11384Y-2319D01*
X11384Y-2338D01*
X11375Y-2366D01*
X11272Y-2480D01*
X11384Y-2480D01*
X11538Y-2347D02*
X11538Y-2480D01*
X11461Y-2347D02*
X11461Y-2452D01*
X11470Y-2471D01*
X11487Y-2480D01*
X11512Y-2480D01*
X11530Y-2471D01*
X11538Y-2461D01*
X11615Y-2300D02*
X11624Y-2290D01*
X11641Y-2280D01*
X11684Y-2280D01*
X11701Y-2290D01*
X11710Y-2300D01*
X11718Y-2319D01*
X11718Y-2338D01*
X11710Y-2366D01*
X11607Y-2480D01*
X11718Y-2480D01*
X4561Y7634D02*
X4571Y7625D01*
X4580Y7600D01*
X4580Y7582D01*
X4571Y7557D01*
X4552Y7540D01*
X4533Y7531D01*
X4495Y7522D01*
X4466Y7522D01*
X4428Y7531D01*
X4409Y7540D01*
X4390Y7557D01*
X4380Y7582D01*
X4380Y7600D01*
X4390Y7625D01*
X4400Y7634D01*
X4380Y7694D02*
X4380Y7805D01*
X4457Y7745D01*
X4457Y7771D01*
X4466Y7788D01*
X4476Y7797D01*
X4495Y7805D01*
X4542Y7805D01*
X4561Y7797D01*
X4571Y7788D01*
X4580Y7771D01*
X4580Y7720D01*
X4571Y7702D01*
X4561Y7694D01*
X4400Y7874D02*
X4390Y7882D01*
X4380Y7900D01*
X4380Y7942D01*
X4390Y7960D01*
X4400Y7968D01*
X4419Y7977D01*
X4438Y7977D01*
X4466Y7968D01*
X4580Y7865D01*
X4580Y7977D01*
X3797Y7531D02*
X3930Y7531D01*
X3721Y7488D02*
X3864Y7445D01*
X3864Y7557D01*
X3730Y7608D02*
X3730Y7728D01*
X3930Y7651D01*
X3730Y7831D02*
X3730Y7848D01*
X3740Y7865D01*
X3750Y7874D01*
X3769Y7882D01*
X3807Y7891D01*
X3854Y7891D01*
X3892Y7882D01*
X3911Y7874D01*
X3921Y7865D01*
X3930Y7848D01*
X3930Y7831D01*
X3921Y7814D01*
X3911Y7805D01*
X3892Y7797D01*
X3854Y7788D01*
X3807Y7788D01*
X3769Y7797D01*
X3750Y7805D01*
X3740Y7814D01*
X3730Y7831D01*
X3797Y7968D02*
X3997Y7968D01*
X3807Y7968D02*
X3797Y7985D01*
X3797Y8020D01*
X3807Y8037D01*
X3816Y8045D01*
X3835Y8054D01*
X3892Y8054D01*
X3911Y8045D01*
X3921Y8037D01*
X3930Y8020D01*
X3930Y7985D01*
X3921Y7968D01*
X12061Y-3115D02*
X12071Y-3124D01*
X12080Y-3150D01*
X12080Y-3167D01*
X12071Y-3192D01*
X12052Y-3210D01*
X12033Y-3218D01*
X11995Y-3227D01*
X11966Y-3227D01*
X11928Y-3218D01*
X11909Y-3210D01*
X11890Y-3192D01*
X11880Y-3167D01*
X11880Y-3150D01*
X11890Y-3124D01*
X11900Y-3115D01*
X11880Y-3055D02*
X11880Y-2944D01*
X11957Y-3004D01*
X11957Y-2978D01*
X11966Y-2961D01*
X11976Y-2952D01*
X11995Y-2944D01*
X12042Y-2944D01*
X12061Y-2952D01*
X12071Y-2961D01*
X12080Y-2978D01*
X12080Y-3030D01*
X12071Y-3047D01*
X12061Y-3055D01*
X11880Y-2790D02*
X11880Y-2824D01*
X11890Y-2841D01*
X11900Y-2850D01*
X11928Y-2867D01*
X11966Y-2875D01*
X12042Y-2875D01*
X12061Y-2867D01*
X12071Y-2858D01*
X12080Y-2841D01*
X12080Y-2807D01*
X12071Y-2790D01*
X12061Y-2781D01*
X12042Y-2772D01*
X11995Y-2772D01*
X11976Y-2781D01*
X11966Y-2790D01*
X11957Y-2807D01*
X11957Y-2841D01*
X11966Y-2858D01*
X11976Y-2867D01*
X11995Y-2875D01*
X12647Y-3132D02*
X12780Y-3132D01*
X12571Y-3175D02*
X12714Y-3218D01*
X12714Y-3107D01*
X12647Y-2961D02*
X12780Y-2961D01*
X12647Y-3038D02*
X12752Y-3038D01*
X12771Y-3029D01*
X12780Y-3012D01*
X12780Y-2987D01*
X12771Y-2969D01*
X12761Y-2961D01*
X12580Y-2892D02*
X12580Y-2772D01*
X12780Y-2850D01*
X1061Y7634D02*
X1071Y7625D01*
X1080Y7600D01*
X1080Y7582D01*
X1071Y7557D01*
X1052Y7540D01*
X1033Y7531D01*
X995Y7522D01*
X966Y7522D01*
X928Y7531D01*
X909Y7540D01*
X890Y7557D01*
X880Y7582D01*
X880Y7600D01*
X890Y7625D01*
X900Y7634D01*
X880Y7694D02*
X880Y7805D01*
X957Y7745D01*
X957Y7771D01*
X966Y7788D01*
X976Y7797D01*
X995Y7805D01*
X1042Y7805D01*
X1061Y7797D01*
X1071Y7788D01*
X1080Y7771D01*
X1080Y7720D01*
X1071Y7702D01*
X1061Y7694D01*
X1080Y7977D02*
X1080Y7874D01*
X1080Y7925D02*
X880Y7925D01*
X909Y7908D01*
X928Y7891D01*
X938Y7874D01*
X1597Y7531D02*
X1730Y7531D01*
X1521Y7488D02*
X1664Y7445D01*
X1664Y7557D01*
X1530Y7608D02*
X1530Y7728D01*
X1730Y7651D01*
X1530Y7831D02*
X1530Y7848D01*
X1540Y7865D01*
X1550Y7874D01*
X1569Y7882D01*
X1607Y7891D01*
X1654Y7891D01*
X1692Y7882D01*
X1711Y7874D01*
X1721Y7865D01*
X1730Y7848D01*
X1730Y7831D01*
X1721Y7814D01*
X1711Y7805D01*
X1692Y7797D01*
X1654Y7788D01*
X1607Y7788D01*
X1569Y7797D01*
X1550Y7805D01*
X1540Y7814D01*
X1530Y7831D01*
X1597Y7968D02*
X1797Y7968D01*
X1607Y7968D02*
X1597Y7985D01*
X1597Y8020D01*
X1607Y8037D01*
X1616Y8045D01*
X1635Y8054D01*
X1692Y8054D01*
X1711Y8045D01*
X1721Y8037D01*
X1730Y8020D01*
X1730Y7985D01*
X1721Y7968D01*
X3884Y938D02*
X3875Y928D01*
X3850Y919D01*
X3832Y919D01*
X3807Y928D01*
X3790Y947D01*
X3781Y966D01*
X3772Y1004D01*
X3772Y1033D01*
X3781Y1071D01*
X3790Y1090D01*
X3807Y1109D01*
X3832Y1119D01*
X3850Y1119D01*
X3875Y1109D01*
X3884Y1100D01*
X3952Y1100D02*
X3961Y1109D01*
X3978Y1119D01*
X4021Y1119D01*
X4038Y1109D01*
X4047Y1100D01*
X4055Y1080D01*
X4055Y1061D01*
X4047Y1033D01*
X3944Y919D01*
X4055Y919D01*
X4141Y919D02*
X4175Y919D01*
X4192Y928D01*
X4201Y938D01*
X4218Y966D01*
X4227Y1004D01*
X4227Y1080D01*
X4218Y1100D01*
X4210Y1109D01*
X4192Y1119D01*
X4158Y1119D01*
X4141Y1109D01*
X4132Y1100D01*
X4124Y1080D01*
X4124Y1033D01*
X4132Y1014D01*
X4141Y1004D01*
X4158Y995D01*
X4192Y995D01*
X4210Y1004D01*
X4218Y1014D01*
X4227Y1033D01*
X3798Y269D02*
X3695Y269D01*
X3747Y269D02*
X3747Y469D01*
X3729Y440D01*
X3712Y421D01*
X3695Y411D01*
X3910Y469D02*
X3927Y469D01*
X3944Y459D01*
X3952Y450D01*
X3961Y430D01*
X3970Y392D01*
X3970Y345D01*
X3961Y307D01*
X3952Y288D01*
X3944Y278D01*
X3927Y269D01*
X3910Y269D01*
X3892Y278D01*
X3884Y288D01*
X3875Y307D01*
X3867Y345D01*
X3867Y392D01*
X3875Y430D01*
X3884Y450D01*
X3892Y459D01*
X3910Y469D01*
X4081Y469D02*
X4098Y469D01*
X4115Y459D01*
X4124Y450D01*
X4132Y430D01*
X4141Y392D01*
X4141Y345D01*
X4132Y307D01*
X4124Y288D01*
X4115Y278D01*
X4098Y269D01*
X4081Y269D01*
X4064Y278D01*
X4055Y288D01*
X4047Y307D01*
X4038Y345D01*
X4038Y392D01*
X4047Y430D01*
X4055Y450D01*
X4064Y459D01*
X4081Y469D01*
X4218Y402D02*
X4218Y269D01*
X4218Y383D02*
X4227Y392D01*
X4244Y402D01*
X4270Y402D01*
X4287Y392D01*
X4295Y373D01*
X4295Y269D01*
X12561Y8134D02*
X12571Y8125D01*
X12580Y8100D01*
X12580Y8082D01*
X12571Y8057D01*
X12552Y8040D01*
X12533Y8031D01*
X12495Y8022D01*
X12466Y8022D01*
X12428Y8031D01*
X12409Y8040D01*
X12390Y8057D01*
X12380Y8082D01*
X12380Y8100D01*
X12390Y8125D01*
X12400Y8134D01*
X12400Y8202D02*
X12390Y8211D01*
X12380Y8228D01*
X12380Y8271D01*
X12390Y8288D01*
X12400Y8297D01*
X12419Y8305D01*
X12438Y8305D01*
X12466Y8297D01*
X12580Y8194D01*
X12580Y8305D01*
X12580Y8477D02*
X12580Y8374D01*
X12580Y8425D02*
X12380Y8425D01*
X12409Y8408D01*
X12428Y8391D01*
X12438Y8374D01*
X11930Y8134D02*
X11930Y8031D01*
X11930Y8082D02*
X11730Y8082D01*
X11759Y8065D01*
X11778Y8048D01*
X11788Y8031D01*
X11730Y8245D02*
X11730Y8262D01*
X11740Y8280D01*
X11750Y8288D01*
X11769Y8297D01*
X11807Y8305D01*
X11854Y8305D01*
X11892Y8297D01*
X11911Y8288D01*
X11921Y8280D01*
X11930Y8262D01*
X11930Y8245D01*
X11921Y8228D01*
X11911Y8220D01*
X11892Y8211D01*
X11854Y8202D01*
X11807Y8202D01*
X11769Y8211D01*
X11750Y8220D01*
X11740Y8228D01*
X11730Y8245D01*
X11797Y8460D02*
X11930Y8460D01*
X11797Y8382D02*
X11902Y8382D01*
X11921Y8391D01*
X11930Y8408D01*
X11930Y8434D01*
X11921Y8451D01*
X11911Y8460D01*
X12561Y1384D02*
X12571Y1375D01*
X12580Y1350D01*
X12580Y1332D01*
X12571Y1307D01*
X12552Y1290D01*
X12533Y1281D01*
X12495Y1272D01*
X12466Y1272D01*
X12428Y1281D01*
X12409Y1290D01*
X12390Y1307D01*
X12380Y1332D01*
X12380Y1350D01*
X12390Y1375D01*
X12400Y1384D01*
X12400Y1452D02*
X12390Y1461D01*
X12380Y1478D01*
X12380Y1521D01*
X12390Y1538D01*
X12400Y1547D01*
X12419Y1555D01*
X12438Y1555D01*
X12466Y1547D01*
X12580Y1444D01*
X12580Y1555D01*
X12400Y1624D02*
X12390Y1632D01*
X12380Y1650D01*
X12380Y1692D01*
X12390Y1710D01*
X12400Y1718D01*
X12419Y1727D01*
X12438Y1727D01*
X12466Y1718D01*
X12580Y1615D01*
X12580Y1727D01*
X11930Y1384D02*
X11930Y1281D01*
X11930Y1332D02*
X11730Y1332D01*
X11759Y1315D01*
X11778Y1298D01*
X11788Y1281D01*
X11730Y1495D02*
X11730Y1512D01*
X11740Y1530D01*
X11750Y1538D01*
X11769Y1547D01*
X11807Y1555D01*
X11854Y1555D01*
X11892Y1547D01*
X11911Y1538D01*
X11921Y1530D01*
X11930Y1512D01*
X11930Y1495D01*
X11921Y1478D01*
X11911Y1470D01*
X11892Y1461D01*
X11854Y1452D01*
X11807Y1452D01*
X11769Y1461D01*
X11750Y1470D01*
X11740Y1478D01*
X11730Y1495D01*
X11797Y1710D02*
X11930Y1710D01*
X11797Y1632D02*
X11902Y1632D01*
X11921Y1641D01*
X11930Y1658D01*
X11930Y1684D01*
X11921Y1701D01*
X11911Y1710D01*
X3134Y938D02*
X3125Y928D01*
X3100Y919D01*
X3082Y919D01*
X3057Y928D01*
X3040Y947D01*
X3031Y966D01*
X3022Y1004D01*
X3022Y1033D01*
X3031Y1071D01*
X3040Y1090D01*
X3057Y1109D01*
X3082Y1119D01*
X3100Y1119D01*
X3125Y1109D01*
X3134Y1100D01*
X3194Y1119D02*
X3305Y1119D01*
X3245Y1042D01*
X3271Y1042D01*
X3288Y1033D01*
X3297Y1023D01*
X3305Y1004D01*
X3305Y957D01*
X3297Y938D01*
X3288Y928D01*
X3271Y919D01*
X3220Y919D01*
X3202Y928D01*
X3194Y938D01*
X3417Y1119D02*
X3434Y1119D01*
X3451Y1109D01*
X3460Y1100D01*
X3468Y1080D01*
X3477Y1042D01*
X3477Y995D01*
X3468Y957D01*
X3460Y938D01*
X3451Y928D01*
X3434Y919D01*
X3417Y919D01*
X3400Y928D01*
X3391Y938D01*
X3382Y957D01*
X3374Y995D01*
X3374Y1042D01*
X3382Y1080D01*
X3391Y1100D01*
X3400Y1109D01*
X3417Y1119D01*
X3134Y269D02*
X3031Y269D01*
X3082Y269D02*
X3082Y469D01*
X3065Y440D01*
X3048Y421D01*
X3031Y411D01*
X3245Y469D02*
X3262Y469D01*
X3280Y459D01*
X3288Y450D01*
X3297Y430D01*
X3305Y392D01*
X3305Y345D01*
X3297Y307D01*
X3288Y288D01*
X3280Y278D01*
X3262Y269D01*
X3245Y269D01*
X3228Y278D01*
X3220Y288D01*
X3211Y307D01*
X3202Y345D01*
X3202Y392D01*
X3211Y430D01*
X3220Y450D01*
X3228Y459D01*
X3245Y469D01*
X3460Y402D02*
X3460Y269D01*
X3382Y402D02*
X3382Y297D01*
X3391Y278D01*
X3408Y269D01*
X3434Y269D01*
X3451Y278D01*
X3460Y288D01*
X12561Y6634D02*
X12571Y6625D01*
X12580Y6600D01*
X12580Y6582D01*
X12571Y6557D01*
X12552Y6540D01*
X12533Y6531D01*
X12495Y6522D01*
X12466Y6522D01*
X12428Y6531D01*
X12409Y6540D01*
X12390Y6557D01*
X12380Y6582D01*
X12380Y6600D01*
X12390Y6625D01*
X12400Y6634D01*
X12400Y6702D02*
X12390Y6711D01*
X12380Y6728D01*
X12380Y6771D01*
X12390Y6788D01*
X12400Y6797D01*
X12419Y6805D01*
X12438Y6805D01*
X12466Y6797D01*
X12580Y6694D01*
X12580Y6805D01*
X12380Y6865D02*
X12380Y6977D01*
X12457Y6917D01*
X12457Y6942D01*
X12466Y6960D01*
X12476Y6968D01*
X12495Y6977D01*
X12542Y6977D01*
X12561Y6968D01*
X12571Y6960D01*
X12580Y6942D01*
X12580Y6891D01*
X12571Y6874D01*
X12561Y6865D01*
X11930Y6548D02*
X11930Y6445D01*
X11930Y6497D02*
X11730Y6497D01*
X11759Y6479D01*
X11778Y6462D01*
X11788Y6445D01*
X11730Y6660D02*
X11730Y6677D01*
X11740Y6694D01*
X11750Y6702D01*
X11769Y6711D01*
X11807Y6720D01*
X11854Y6720D01*
X11892Y6711D01*
X11911Y6702D01*
X11921Y6694D01*
X11930Y6677D01*
X11930Y6660D01*
X11921Y6642D01*
X11911Y6634D01*
X11892Y6625D01*
X11854Y6617D01*
X11807Y6617D01*
X11769Y6625D01*
X11750Y6634D01*
X11740Y6642D01*
X11730Y6660D01*
X11730Y6831D02*
X11730Y6848D01*
X11740Y6865D01*
X11750Y6874D01*
X11769Y6882D01*
X11807Y6891D01*
X11854Y6891D01*
X11892Y6882D01*
X11911Y6874D01*
X11921Y6865D01*
X11930Y6848D01*
X11930Y6831D01*
X11921Y6814D01*
X11911Y6805D01*
X11892Y6797D01*
X11854Y6788D01*
X11807Y6788D01*
X11769Y6797D01*
X11750Y6805D01*
X11740Y6814D01*
X11730Y6831D01*
X11797Y6968D02*
X11930Y6968D01*
X11816Y6968D02*
X11807Y6977D01*
X11797Y6994D01*
X11797Y7020D01*
X11807Y7037D01*
X11826Y7045D01*
X11930Y7045D01*
X12561Y634D02*
X12571Y625D01*
X12580Y600D01*
X12580Y582D01*
X12571Y557D01*
X12552Y540D01*
X12533Y531D01*
X12495Y522D01*
X12466Y522D01*
X12428Y531D01*
X12409Y540D01*
X12390Y557D01*
X12380Y582D01*
X12380Y600D01*
X12390Y625D01*
X12400Y634D01*
X12400Y702D02*
X12390Y711D01*
X12380Y728D01*
X12380Y771D01*
X12390Y788D01*
X12400Y797D01*
X12419Y805D01*
X12438Y805D01*
X12466Y797D01*
X12580Y694D01*
X12580Y805D01*
X12447Y960D02*
X12580Y960D01*
X12371Y917D02*
X12514Y874D01*
X12514Y985D01*
X11930Y548D02*
X11930Y445D01*
X11930Y497D02*
X11730Y497D01*
X11759Y479D01*
X11778Y462D01*
X11788Y445D01*
X11730Y660D02*
X11730Y677D01*
X11740Y694D01*
X11750Y702D01*
X11769Y711D01*
X11807Y720D01*
X11854Y720D01*
X11892Y711D01*
X11911Y702D01*
X11921Y694D01*
X11930Y677D01*
X11930Y660D01*
X11921Y642D01*
X11911Y634D01*
X11892Y625D01*
X11854Y617D01*
X11807Y617D01*
X11769Y625D01*
X11750Y634D01*
X11740Y642D01*
X11730Y660D01*
X11730Y831D02*
X11730Y848D01*
X11740Y865D01*
X11750Y874D01*
X11769Y882D01*
X11807Y891D01*
X11854Y891D01*
X11892Y882D01*
X11911Y874D01*
X11921Y865D01*
X11930Y848D01*
X11930Y831D01*
X11921Y814D01*
X11911Y805D01*
X11892Y797D01*
X11854Y788D01*
X11807Y788D01*
X11769Y797D01*
X11750Y805D01*
X11740Y814D01*
X11730Y831D01*
X11797Y968D02*
X11930Y968D01*
X11816Y968D02*
X11807Y977D01*
X11797Y994D01*
X11797Y1020D01*
X11807Y1037D01*
X11826Y1045D01*
X11930Y1045D01*
X12561Y7384D02*
X12571Y7375D01*
X12580Y7350D01*
X12580Y7332D01*
X12571Y7307D01*
X12552Y7290D01*
X12533Y7281D01*
X12495Y7272D01*
X12466Y7272D01*
X12428Y7281D01*
X12409Y7290D01*
X12390Y7307D01*
X12380Y7332D01*
X12380Y7350D01*
X12390Y7375D01*
X12400Y7384D01*
X12400Y7452D02*
X12390Y7461D01*
X12380Y7478D01*
X12380Y7521D01*
X12390Y7538D01*
X12400Y7547D01*
X12419Y7555D01*
X12438Y7555D01*
X12466Y7547D01*
X12580Y7444D01*
X12580Y7555D01*
X12380Y7718D02*
X12380Y7632D01*
X12476Y7624D01*
X12466Y7632D01*
X12457Y7650D01*
X12457Y7692D01*
X12466Y7710D01*
X12476Y7718D01*
X12495Y7727D01*
X12542Y7727D01*
X12561Y7718D01*
X12571Y7710D01*
X12580Y7692D01*
X12580Y7650D01*
X12571Y7632D01*
X12561Y7624D01*
X11930Y7298D02*
X11930Y7195D01*
X11930Y7247D02*
X11730Y7247D01*
X11759Y7229D01*
X11778Y7212D01*
X11788Y7195D01*
X11730Y7410D02*
X11730Y7427D01*
X11740Y7444D01*
X11750Y7452D01*
X11769Y7461D01*
X11807Y7470D01*
X11854Y7470D01*
X11892Y7461D01*
X11911Y7452D01*
X11921Y7444D01*
X11930Y7427D01*
X11930Y7410D01*
X11921Y7392D01*
X11911Y7384D01*
X11892Y7375D01*
X11854Y7367D01*
X11807Y7367D01*
X11769Y7375D01*
X11750Y7384D01*
X11740Y7392D01*
X11730Y7410D01*
X11730Y7581D02*
X11730Y7598D01*
X11740Y7615D01*
X11750Y7624D01*
X11769Y7632D01*
X11807Y7641D01*
X11854Y7641D01*
X11892Y7632D01*
X11911Y7624D01*
X11921Y7615D01*
X11930Y7598D01*
X11930Y7581D01*
X11921Y7564D01*
X11911Y7555D01*
X11892Y7547D01*
X11854Y7538D01*
X11807Y7538D01*
X11769Y7547D01*
X11750Y7555D01*
X11740Y7564D01*
X11730Y7581D01*
X11797Y7718D02*
X11930Y7718D01*
X11816Y7718D02*
X11807Y7727D01*
X11797Y7744D01*
X11797Y7770D01*
X11807Y7787D01*
X11826Y7795D01*
X11930Y7795D01*
X4634Y938D02*
X4625Y928D01*
X4600Y919D01*
X4582Y919D01*
X4557Y928D01*
X4540Y947D01*
X4531Y966D01*
X4522Y1004D01*
X4522Y1033D01*
X4531Y1071D01*
X4540Y1090D01*
X4557Y1109D01*
X4582Y1119D01*
X4600Y1119D01*
X4625Y1109D01*
X4634Y1100D01*
X4702Y1100D02*
X4711Y1109D01*
X4728Y1119D01*
X4771Y1119D01*
X4788Y1109D01*
X4797Y1100D01*
X4805Y1080D01*
X4805Y1061D01*
X4797Y1033D01*
X4694Y919D01*
X4805Y919D01*
X4960Y1119D02*
X4925Y1119D01*
X4908Y1109D01*
X4900Y1100D01*
X4882Y1071D01*
X4874Y1033D01*
X4874Y957D01*
X4882Y938D01*
X4891Y928D01*
X4908Y919D01*
X4942Y919D01*
X4960Y928D01*
X4968Y938D01*
X4977Y957D01*
X4977Y1004D01*
X4968Y1023D01*
X4960Y1033D01*
X4942Y1042D01*
X4908Y1042D01*
X4891Y1033D01*
X4882Y1023D01*
X4874Y1004D01*
X4548Y269D02*
X4445Y269D01*
X4497Y269D02*
X4497Y469D01*
X4479Y440D01*
X4462Y421D01*
X4445Y411D01*
X4660Y469D02*
X4677Y469D01*
X4694Y459D01*
X4702Y450D01*
X4711Y430D01*
X4720Y392D01*
X4720Y345D01*
X4711Y307D01*
X4702Y288D01*
X4694Y278D01*
X4677Y269D01*
X4660Y269D01*
X4642Y278D01*
X4634Y288D01*
X4625Y307D01*
X4617Y345D01*
X4617Y392D01*
X4625Y430D01*
X4634Y450D01*
X4642Y459D01*
X4660Y469D01*
X4831Y469D02*
X4848Y469D01*
X4865Y459D01*
X4874Y450D01*
X4882Y430D01*
X4891Y392D01*
X4891Y345D01*
X4882Y307D01*
X4874Y288D01*
X4865Y278D01*
X4848Y269D01*
X4831Y269D01*
X4814Y278D01*
X4805Y288D01*
X4797Y307D01*
X4788Y345D01*
X4788Y392D01*
X4797Y430D01*
X4805Y450D01*
X4814Y459D01*
X4831Y469D01*
X4968Y402D02*
X4968Y269D01*
X4968Y383D02*
X4977Y392D01*
X4994Y402D01*
X5020Y402D01*
X5037Y392D01*
X5045Y373D01*
X5045Y269D01*
X21970Y5438D02*
X21961Y5428D01*
X21935Y5419D01*
X21918Y5419D01*
X21892Y5428D01*
X21875Y5447D01*
X21867Y5466D01*
X21858Y5504D01*
X21858Y5533D01*
X21867Y5571D01*
X21875Y5590D01*
X21892Y5609D01*
X21918Y5619D01*
X21935Y5619D01*
X21961Y5609D01*
X21970Y5600D01*
X22030Y5619D02*
X22150Y5619D01*
X22072Y5419D01*
X21798Y4769D02*
X21695Y4769D01*
X21747Y4769D02*
X21747Y4969D01*
X21729Y4940D01*
X21712Y4921D01*
X21695Y4911D01*
X21910Y4969D02*
X21927Y4969D01*
X21944Y4959D01*
X21952Y4950D01*
X21961Y4930D01*
X21970Y4892D01*
X21970Y4845D01*
X21961Y4807D01*
X21952Y4788D01*
X21944Y4778D01*
X21927Y4769D01*
X21910Y4769D01*
X21892Y4778D01*
X21884Y4788D01*
X21875Y4807D01*
X21867Y4845D01*
X21867Y4892D01*
X21875Y4930D01*
X21884Y4950D01*
X21892Y4959D01*
X21910Y4969D01*
X22081Y4969D02*
X22098Y4969D01*
X22115Y4959D01*
X22124Y4950D01*
X22132Y4930D01*
X22141Y4892D01*
X22141Y4845D01*
X22132Y4807D01*
X22124Y4788D01*
X22115Y4778D01*
X22098Y4769D01*
X22081Y4769D01*
X22064Y4778D01*
X22055Y4788D01*
X22047Y4807D01*
X22038Y4845D01*
X22038Y4892D01*
X22047Y4930D01*
X22055Y4950D01*
X22064Y4959D01*
X22081Y4969D01*
X22218Y4902D02*
X22218Y4769D01*
X22218Y4883D02*
X22227Y4892D01*
X22244Y4902D01*
X22270Y4902D01*
X22287Y4892D01*
X22295Y4873D01*
X22295Y4769D01*
X26061Y4384D02*
X26071Y4375D01*
X26080Y4350D01*
X26080Y4332D01*
X26071Y4307D01*
X26052Y4290D01*
X26033Y4281D01*
X25995Y4272D01*
X25966Y4272D01*
X25928Y4281D01*
X25909Y4290D01*
X25890Y4307D01*
X25880Y4332D01*
X25880Y4350D01*
X25890Y4375D01*
X25900Y4384D01*
X26080Y4555D02*
X26080Y4452D01*
X26080Y4504D02*
X25880Y4504D01*
X25909Y4487D01*
X25928Y4470D01*
X25938Y4452D01*
X25880Y4718D02*
X25880Y4632D01*
X25976Y4624D01*
X25966Y4632D01*
X25957Y4650D01*
X25957Y4692D01*
X25966Y4710D01*
X25976Y4718D01*
X25995Y4727D01*
X26042Y4727D01*
X26061Y4718D01*
X26071Y4710D01*
X26080Y4692D01*
X26080Y4650D01*
X26071Y4632D01*
X26061Y4624D01*
X25430Y4470D02*
X25430Y4367D01*
X25430Y4418D02*
X25230Y4418D01*
X25259Y4401D01*
X25278Y4384D01*
X25288Y4367D01*
X25297Y4624D02*
X25430Y4624D01*
X25297Y4547D02*
X25402Y4547D01*
X25421Y4555D01*
X25430Y4572D01*
X25430Y4598D01*
X25421Y4615D01*
X25411Y4624D01*
X26061Y3634D02*
X26071Y3625D01*
X26080Y3600D01*
X26080Y3582D01*
X26071Y3557D01*
X26052Y3540D01*
X26033Y3531D01*
X25995Y3522D01*
X25966Y3522D01*
X25928Y3531D01*
X25909Y3540D01*
X25890Y3557D01*
X25880Y3582D01*
X25880Y3600D01*
X25890Y3625D01*
X25900Y3634D01*
X26080Y3805D02*
X26080Y3702D01*
X26080Y3754D02*
X25880Y3754D01*
X25909Y3737D01*
X25928Y3720D01*
X25938Y3702D01*
X25947Y3960D02*
X26080Y3960D01*
X25871Y3917D02*
X26014Y3874D01*
X26014Y3985D01*
X25430Y3548D02*
X25430Y3445D01*
X25430Y3497D02*
X25230Y3497D01*
X25259Y3479D01*
X25278Y3462D01*
X25288Y3445D01*
X25230Y3660D02*
X25230Y3677D01*
X25240Y3694D01*
X25250Y3702D01*
X25269Y3711D01*
X25307Y3720D01*
X25354Y3720D01*
X25392Y3711D01*
X25411Y3702D01*
X25421Y3694D01*
X25430Y3677D01*
X25430Y3660D01*
X25421Y3642D01*
X25411Y3634D01*
X25392Y3625D01*
X25354Y3617D01*
X25307Y3617D01*
X25269Y3625D01*
X25250Y3634D01*
X25240Y3642D01*
X25230Y3660D01*
X25230Y3831D02*
X25230Y3848D01*
X25240Y3865D01*
X25250Y3874D01*
X25269Y3882D01*
X25307Y3891D01*
X25354Y3891D01*
X25392Y3882D01*
X25411Y3874D01*
X25421Y3865D01*
X25430Y3848D01*
X25430Y3831D01*
X25421Y3814D01*
X25411Y3805D01*
X25392Y3797D01*
X25354Y3788D01*
X25307Y3788D01*
X25269Y3797D01*
X25250Y3805D01*
X25240Y3814D01*
X25230Y3831D01*
X25297Y3968D02*
X25430Y3968D01*
X25316Y3968D02*
X25307Y3977D01*
X25297Y3994D01*
X25297Y4020D01*
X25307Y4037D01*
X25326Y4045D01*
X25430Y4045D01*
X14061Y-3865D02*
X14071Y-3874D01*
X14080Y-3900D01*
X14080Y-3917D01*
X14071Y-3942D01*
X14052Y-3960D01*
X14033Y-3968D01*
X13995Y-3977D01*
X13966Y-3977D01*
X13928Y-3968D01*
X13909Y-3960D01*
X13890Y-3942D01*
X13880Y-3917D01*
X13880Y-3900D01*
X13890Y-3874D01*
X13900Y-3865D01*
X14080Y-3694D02*
X14080Y-3797D01*
X14080Y-3745D02*
X13880Y-3745D01*
X13909Y-3762D01*
X13928Y-3780D01*
X13938Y-3797D01*
X14080Y-3522D02*
X14080Y-3625D01*
X14080Y-3574D02*
X13880Y-3574D01*
X13909Y-3591D01*
X13928Y-3608D01*
X13938Y-3625D01*
X14597Y-3882D02*
X14730Y-3882D01*
X14521Y-3925D02*
X14664Y-3968D01*
X14664Y-3857D01*
X14597Y-3711D02*
X14730Y-3711D01*
X14597Y-3788D02*
X14702Y-3788D01*
X14721Y-3779D01*
X14730Y-3762D01*
X14730Y-3737D01*
X14721Y-3719D01*
X14711Y-3711D01*
X14530Y-3642D02*
X14530Y-3522D01*
X14730Y-3600D01*
X26061Y-3615D02*
X26071Y-3624D01*
X26080Y-3650D01*
X26080Y-3667D01*
X26071Y-3692D01*
X26052Y-3710D01*
X26033Y-3718D01*
X25995Y-3727D01*
X25966Y-3727D01*
X25928Y-3718D01*
X25909Y-3710D01*
X25890Y-3692D01*
X25880Y-3667D01*
X25880Y-3650D01*
X25890Y-3624D01*
X25900Y-3615D01*
X26080Y-3444D02*
X26080Y-3547D01*
X26080Y-3495D02*
X25880Y-3495D01*
X25909Y-3512D01*
X25928Y-3530D01*
X25938Y-3547D01*
X25880Y-3290D02*
X25880Y-3324D01*
X25890Y-3341D01*
X25900Y-3350D01*
X25928Y-3367D01*
X25966Y-3375D01*
X26042Y-3375D01*
X26061Y-3367D01*
X26071Y-3358D01*
X26080Y-3341D01*
X26080Y-3307D01*
X26071Y-3290D01*
X26061Y-3281D01*
X26042Y-3272D01*
X25995Y-3272D01*
X25976Y-3281D01*
X25966Y-3290D01*
X25957Y-3307D01*
X25957Y-3341D01*
X25966Y-3358D01*
X25976Y-3367D01*
X25995Y-3375D01*
X25430Y-3530D02*
X25430Y-3632D01*
X25430Y-3581D02*
X25230Y-3581D01*
X25259Y-3598D01*
X25278Y-3615D01*
X25288Y-3632D01*
X25297Y-3375D02*
X25430Y-3375D01*
X25297Y-3452D02*
X25402Y-3452D01*
X25421Y-3444D01*
X25430Y-3427D01*
X25430Y-3401D01*
X25421Y-3384D01*
X25411Y-3375D01*
X26061Y2884D02*
X26071Y2875D01*
X26080Y2850D01*
X26080Y2832D01*
X26071Y2807D01*
X26052Y2790D01*
X26033Y2781D01*
X25995Y2772D01*
X25966Y2772D01*
X25928Y2781D01*
X25909Y2790D01*
X25890Y2807D01*
X25880Y2832D01*
X25880Y2850D01*
X25890Y2875D01*
X25900Y2884D01*
X26080Y3055D02*
X26080Y2952D01*
X26080Y3004D02*
X25880Y3004D01*
X25909Y2987D01*
X25928Y2970D01*
X25938Y2952D01*
X25880Y3115D02*
X25880Y3227D01*
X25957Y3167D01*
X25957Y3192D01*
X25966Y3210D01*
X25976Y3218D01*
X25995Y3227D01*
X26042Y3227D01*
X26061Y3218D01*
X26071Y3210D01*
X26080Y3192D01*
X26080Y3141D01*
X26071Y3124D01*
X26061Y3115D01*
X25430Y2970D02*
X25430Y2867D01*
X25430Y2918D02*
X25230Y2918D01*
X25259Y2901D01*
X25278Y2884D01*
X25288Y2867D01*
X25297Y3124D02*
X25430Y3124D01*
X25297Y3047D02*
X25402Y3047D01*
X25421Y3055D01*
X25430Y3072D01*
X25430Y3098D01*
X25421Y3115D01*
X25411Y3124D01*
X26061Y2134D02*
X26071Y2125D01*
X26080Y2100D01*
X26080Y2082D01*
X26071Y2057D01*
X26052Y2040D01*
X26033Y2031D01*
X25995Y2022D01*
X25966Y2022D01*
X25928Y2031D01*
X25909Y2040D01*
X25890Y2057D01*
X25880Y2082D01*
X25880Y2100D01*
X25890Y2125D01*
X25900Y2134D01*
X26080Y2305D02*
X26080Y2202D01*
X26080Y2254D02*
X25880Y2254D01*
X25909Y2237D01*
X25928Y2220D01*
X25938Y2202D01*
X25900Y2374D02*
X25890Y2382D01*
X25880Y2400D01*
X25880Y2442D01*
X25890Y2460D01*
X25900Y2468D01*
X25919Y2477D01*
X25938Y2477D01*
X25966Y2468D01*
X26080Y2365D01*
X26080Y2477D01*
X25430Y2048D02*
X25430Y1945D01*
X25430Y1997D02*
X25230Y1997D01*
X25259Y1979D01*
X25278Y1962D01*
X25288Y1945D01*
X25230Y2160D02*
X25230Y2177D01*
X25240Y2194D01*
X25250Y2202D01*
X25269Y2211D01*
X25307Y2220D01*
X25354Y2220D01*
X25392Y2211D01*
X25411Y2202D01*
X25421Y2194D01*
X25430Y2177D01*
X25430Y2160D01*
X25421Y2142D01*
X25411Y2134D01*
X25392Y2125D01*
X25354Y2117D01*
X25307Y2117D01*
X25269Y2125D01*
X25250Y2134D01*
X25240Y2142D01*
X25230Y2160D01*
X25230Y2331D02*
X25230Y2348D01*
X25240Y2365D01*
X25250Y2374D01*
X25269Y2382D01*
X25307Y2391D01*
X25354Y2391D01*
X25392Y2382D01*
X25411Y2374D01*
X25421Y2365D01*
X25430Y2348D01*
X25430Y2331D01*
X25421Y2314D01*
X25411Y2305D01*
X25392Y2297D01*
X25354Y2288D01*
X25307Y2288D01*
X25269Y2297D01*
X25250Y2305D01*
X25240Y2314D01*
X25230Y2331D01*
X25297Y2468D02*
X25430Y2468D01*
X25316Y2468D02*
X25307Y2477D01*
X25297Y2494D01*
X25297Y2520D01*
X25307Y2537D01*
X25326Y2545D01*
X25430Y2545D01*
X23884Y-6311D02*
X23875Y-6321D01*
X23850Y-6330D01*
X23832Y-6330D01*
X23807Y-6321D01*
X23790Y-6302D01*
X23781Y-6283D01*
X23772Y-6245D01*
X23772Y-6216D01*
X23781Y-6178D01*
X23790Y-6159D01*
X23807Y-6140D01*
X23832Y-6130D01*
X23850Y-6130D01*
X23875Y-6140D01*
X23884Y-6150D01*
X24055Y-6330D02*
X23952Y-6330D01*
X24004Y-6330D02*
X24004Y-6130D01*
X23987Y-6159D01*
X23970Y-6178D01*
X23952Y-6188D01*
X24167Y-6130D02*
X24184Y-6130D01*
X24201Y-6140D01*
X24210Y-6150D01*
X24218Y-6169D01*
X24227Y-6207D01*
X24227Y-6254D01*
X24218Y-6292D01*
X24210Y-6311D01*
X24201Y-6321D01*
X24184Y-6330D01*
X24167Y-6330D01*
X24150Y-6321D01*
X24141Y-6311D01*
X24132Y-6292D01*
X24124Y-6254D01*
X24124Y-6207D01*
X24132Y-6169D01*
X24141Y-6150D01*
X24150Y-6140D01*
X24167Y-6130D01*
X23798Y-5680D02*
X23695Y-5680D01*
X23747Y-5680D02*
X23747Y-5480D01*
X23729Y-5509D01*
X23712Y-5528D01*
X23695Y-5538D01*
X23910Y-5480D02*
X23927Y-5480D01*
X23944Y-5490D01*
X23952Y-5500D01*
X23961Y-5519D01*
X23970Y-5557D01*
X23970Y-5604D01*
X23961Y-5642D01*
X23952Y-5661D01*
X23944Y-5671D01*
X23927Y-5680D01*
X23910Y-5680D01*
X23892Y-5671D01*
X23884Y-5661D01*
X23875Y-5642D01*
X23867Y-5604D01*
X23867Y-5557D01*
X23875Y-5519D01*
X23884Y-5500D01*
X23892Y-5490D01*
X23910Y-5480D01*
X24081Y-5480D02*
X24098Y-5480D01*
X24115Y-5490D01*
X24124Y-5500D01*
X24132Y-5519D01*
X24141Y-5557D01*
X24141Y-5604D01*
X24132Y-5642D01*
X24124Y-5661D01*
X24115Y-5671D01*
X24098Y-5680D01*
X24081Y-5680D01*
X24064Y-5671D01*
X24055Y-5661D01*
X24047Y-5642D01*
X24038Y-5604D01*
X24038Y-5557D01*
X24047Y-5519D01*
X24055Y-5500D01*
X24064Y-5490D01*
X24081Y-5480D01*
X24218Y-5547D02*
X24218Y-5680D01*
X24218Y-5566D02*
X24227Y-5557D01*
X24244Y-5547D01*
X24270Y-5547D01*
X24287Y-5557D01*
X24295Y-5576D01*
X24295Y-5680D01*
X14061Y-3030D02*
X14071Y-3038D01*
X14080Y-3064D01*
X14080Y-3081D01*
X14071Y-3107D01*
X14052Y-3124D01*
X14033Y-3132D01*
X13995Y-3141D01*
X13966Y-3141D01*
X13928Y-3132D01*
X13909Y-3124D01*
X13890Y-3107D01*
X13880Y-3081D01*
X13880Y-3064D01*
X13890Y-3038D01*
X13900Y-3030D01*
X14080Y-2944D02*
X14080Y-2910D01*
X14071Y-2892D01*
X14061Y-2884D01*
X14033Y-2867D01*
X13995Y-2858D01*
X13919Y-2858D01*
X13900Y-2867D01*
X13890Y-2875D01*
X13880Y-2892D01*
X13880Y-2927D01*
X13890Y-2944D01*
X13900Y-2952D01*
X13919Y-2961D01*
X13966Y-2961D01*
X13985Y-2952D01*
X13995Y-2944D01*
X14004Y-2927D01*
X14004Y-2892D01*
X13995Y-2875D01*
X13985Y-2867D01*
X13966Y-2858D01*
X14730Y-3201D02*
X14730Y-3304D01*
X14730Y-3252D02*
X14530Y-3252D01*
X14559Y-3270D01*
X14578Y-3287D01*
X14588Y-3304D01*
X14530Y-3090D02*
X14530Y-3072D01*
X14540Y-3055D01*
X14550Y-3047D01*
X14569Y-3038D01*
X14607Y-3030D01*
X14654Y-3030D01*
X14692Y-3038D01*
X14711Y-3047D01*
X14721Y-3055D01*
X14730Y-3072D01*
X14730Y-3090D01*
X14721Y-3107D01*
X14711Y-3115D01*
X14692Y-3124D01*
X14654Y-3132D01*
X14607Y-3132D01*
X14569Y-3124D01*
X14550Y-3115D01*
X14540Y-3107D01*
X14530Y-3090D01*
X14530Y-2918D02*
X14530Y-2901D01*
X14540Y-2884D01*
X14550Y-2875D01*
X14569Y-2867D01*
X14607Y-2858D01*
X14654Y-2858D01*
X14692Y-2867D01*
X14711Y-2875D01*
X14721Y-2884D01*
X14730Y-2901D01*
X14730Y-2918D01*
X14721Y-2935D01*
X14711Y-2944D01*
X14692Y-2952D01*
X14654Y-2961D01*
X14607Y-2961D01*
X14569Y-2952D01*
X14550Y-2944D01*
X14540Y-2935D01*
X14530Y-2918D01*
X14597Y-2781D02*
X14730Y-2781D01*
X14616Y-2781D02*
X14607Y-2772D01*
X14597Y-2755D01*
X14597Y-2729D01*
X14607Y-2712D01*
X14626Y-2704D01*
X14730Y-2704D01*
X16970Y5438D02*
X16961Y5428D01*
X16935Y5419D01*
X16918Y5419D01*
X16892Y5428D01*
X16875Y5447D01*
X16867Y5466D01*
X16858Y5504D01*
X16858Y5533D01*
X16867Y5571D01*
X16875Y5590D01*
X16892Y5609D01*
X16918Y5619D01*
X16935Y5619D01*
X16961Y5609D01*
X16970Y5600D01*
X17072Y5533D02*
X17055Y5542D01*
X17047Y5552D01*
X17038Y5571D01*
X17038Y5580D01*
X17047Y5600D01*
X17055Y5609D01*
X17072Y5619D01*
X17107Y5619D01*
X17124Y5609D01*
X17132Y5600D01*
X17141Y5580D01*
X17141Y5571D01*
X17132Y5552D01*
X17124Y5542D01*
X17107Y5533D01*
X17072Y5533D01*
X17055Y5523D01*
X17047Y5514D01*
X17038Y5495D01*
X17038Y5457D01*
X17047Y5438D01*
X17055Y5428D01*
X17072Y5419D01*
X17107Y5419D01*
X17124Y5428D01*
X17132Y5438D01*
X17141Y5457D01*
X17141Y5495D01*
X17132Y5514D01*
X17124Y5523D01*
X17107Y5533D01*
X16798Y4769D02*
X16695Y4769D01*
X16747Y4769D02*
X16747Y4969D01*
X16729Y4940D01*
X16712Y4921D01*
X16695Y4911D01*
X16910Y4969D02*
X16927Y4969D01*
X16944Y4959D01*
X16952Y4950D01*
X16961Y4930D01*
X16970Y4892D01*
X16970Y4845D01*
X16961Y4807D01*
X16952Y4788D01*
X16944Y4778D01*
X16927Y4769D01*
X16910Y4769D01*
X16892Y4778D01*
X16884Y4788D01*
X16875Y4807D01*
X16867Y4845D01*
X16867Y4892D01*
X16875Y4930D01*
X16884Y4950D01*
X16892Y4959D01*
X16910Y4969D01*
X17081Y4969D02*
X17098Y4969D01*
X17115Y4959D01*
X17124Y4950D01*
X17132Y4930D01*
X17141Y4892D01*
X17141Y4845D01*
X17132Y4807D01*
X17124Y4788D01*
X17115Y4778D01*
X17098Y4769D01*
X17081Y4769D01*
X17064Y4778D01*
X17055Y4788D01*
X17047Y4807D01*
X17038Y4845D01*
X17038Y4892D01*
X17047Y4930D01*
X17055Y4950D01*
X17064Y4959D01*
X17081Y4969D01*
X17218Y4902D02*
X17218Y4769D01*
X17218Y4883D02*
X17227Y4892D01*
X17244Y4902D01*
X17270Y4902D01*
X17287Y4892D01*
X17295Y4873D01*
X17295Y4769D01*
X27311Y1470D02*
X27321Y1461D01*
X27330Y1435D01*
X27330Y1418D01*
X27321Y1392D01*
X27302Y1375D01*
X27283Y1367D01*
X27245Y1358D01*
X27216Y1358D01*
X27178Y1367D01*
X27159Y1375D01*
X27140Y1392D01*
X27130Y1418D01*
X27130Y1435D01*
X27140Y1461D01*
X27150Y1470D01*
X27130Y1624D02*
X27130Y1590D01*
X27140Y1572D01*
X27150Y1564D01*
X27178Y1547D01*
X27216Y1538D01*
X27292Y1538D01*
X27311Y1547D01*
X27321Y1555D01*
X27330Y1572D01*
X27330Y1607D01*
X27321Y1624D01*
X27311Y1632D01*
X27292Y1641D01*
X27245Y1641D01*
X27226Y1632D01*
X27216Y1624D01*
X27207Y1607D01*
X27207Y1572D01*
X27216Y1555D01*
X27226Y1547D01*
X27245Y1538D01*
X28130Y1348D02*
X28130Y1245D01*
X28130Y1297D02*
X27930Y1297D01*
X27959Y1279D01*
X27978Y1262D01*
X27988Y1245D01*
X27930Y1460D02*
X27930Y1477D01*
X27940Y1494D01*
X27950Y1502D01*
X27969Y1511D01*
X28007Y1520D01*
X28054Y1520D01*
X28092Y1511D01*
X28111Y1502D01*
X28121Y1494D01*
X28130Y1477D01*
X28130Y1460D01*
X28121Y1442D01*
X28111Y1434D01*
X28092Y1425D01*
X28054Y1417D01*
X28007Y1417D01*
X27969Y1425D01*
X27950Y1434D01*
X27940Y1442D01*
X27930Y1460D01*
X27930Y1631D02*
X27930Y1648D01*
X27940Y1665D01*
X27950Y1674D01*
X27969Y1682D01*
X28007Y1691D01*
X28054Y1691D01*
X28092Y1682D01*
X28111Y1674D01*
X28121Y1665D01*
X28130Y1648D01*
X28130Y1631D01*
X28121Y1614D01*
X28111Y1605D01*
X28092Y1597D01*
X28054Y1588D01*
X28007Y1588D01*
X27969Y1597D01*
X27950Y1605D01*
X27940Y1614D01*
X27930Y1631D01*
X27997Y1768D02*
X28130Y1768D01*
X28016Y1768D02*
X28007Y1777D01*
X27997Y1794D01*
X27997Y1820D01*
X28007Y1837D01*
X28026Y1845D01*
X28130Y1845D01*
X26061Y-2030D02*
X26071Y-2038D01*
X26080Y-2064D01*
X26080Y-2081D01*
X26071Y-2107D01*
X26052Y-2124D01*
X26033Y-2132D01*
X25995Y-2141D01*
X25966Y-2141D01*
X25928Y-2132D01*
X25909Y-2124D01*
X25890Y-2107D01*
X25880Y-2081D01*
X25880Y-2064D01*
X25890Y-2038D01*
X25900Y-2030D01*
X25880Y-1867D02*
X25880Y-1952D01*
X25976Y-1961D01*
X25966Y-1952D01*
X25957Y-1935D01*
X25957Y-1892D01*
X25966Y-1875D01*
X25976Y-1867D01*
X25995Y-1858D01*
X26042Y-1858D01*
X26061Y-1867D01*
X26071Y-1875D01*
X26080Y-1892D01*
X26080Y-1935D01*
X26071Y-1952D01*
X26061Y-1961D01*
X25430Y-2201D02*
X25430Y-2304D01*
X25430Y-2252D02*
X25230Y-2252D01*
X25259Y-2270D01*
X25278Y-2287D01*
X25288Y-2304D01*
X25230Y-2090D02*
X25230Y-2072D01*
X25240Y-2055D01*
X25250Y-2047D01*
X25269Y-2038D01*
X25307Y-2030D01*
X25354Y-2030D01*
X25392Y-2038D01*
X25411Y-2047D01*
X25421Y-2055D01*
X25430Y-2072D01*
X25430Y-2090D01*
X25421Y-2107D01*
X25411Y-2115D01*
X25392Y-2124D01*
X25354Y-2132D01*
X25307Y-2132D01*
X25269Y-2124D01*
X25250Y-2115D01*
X25240Y-2107D01*
X25230Y-2090D01*
X25230Y-1918D02*
X25230Y-1901D01*
X25240Y-1884D01*
X25250Y-1875D01*
X25269Y-1867D01*
X25307Y-1858D01*
X25354Y-1858D01*
X25392Y-1867D01*
X25411Y-1875D01*
X25421Y-1884D01*
X25430Y-1901D01*
X25430Y-1918D01*
X25421Y-1935D01*
X25411Y-1944D01*
X25392Y-1952D01*
X25354Y-1961D01*
X25307Y-1961D01*
X25269Y-1952D01*
X25250Y-1944D01*
X25240Y-1935D01*
X25230Y-1918D01*
X25297Y-1781D02*
X25430Y-1781D01*
X25316Y-1781D02*
X25307Y-1772D01*
X25297Y-1755D01*
X25297Y-1729D01*
X25307Y-1712D01*
X25326Y-1704D01*
X25430Y-1704D01*
X14061Y-2030D02*
X14071Y-2038D01*
X14080Y-2064D01*
X14080Y-2081D01*
X14071Y-2107D01*
X14052Y-2124D01*
X14033Y-2132D01*
X13995Y-2141D01*
X13966Y-2141D01*
X13928Y-2132D01*
X13909Y-2124D01*
X13890Y-2107D01*
X13880Y-2081D01*
X13880Y-2064D01*
X13890Y-2038D01*
X13900Y-2030D01*
X13900Y-1961D02*
X13890Y-1952D01*
X13880Y-1935D01*
X13880Y-1892D01*
X13890Y-1875D01*
X13900Y-1867D01*
X13919Y-1858D01*
X13938Y-1858D01*
X13966Y-1867D01*
X14080Y-1970D01*
X14080Y-1858D01*
X14550Y-2218D02*
X14540Y-2210D01*
X14530Y-2192D01*
X14530Y-2150D01*
X14540Y-2132D01*
X14550Y-2124D01*
X14569Y-2115D01*
X14588Y-2115D01*
X14616Y-2124D01*
X14730Y-2227D01*
X14730Y-2115D01*
X14597Y-1961D02*
X14730Y-1961D01*
X14597Y-2038D02*
X14702Y-2038D01*
X14721Y-2029D01*
X14730Y-2012D01*
X14730Y-1987D01*
X14721Y-1969D01*
X14711Y-1961D01*
X14550Y-1884D02*
X14540Y-1875D01*
X14530Y-1858D01*
X14530Y-1815D01*
X14540Y-1798D01*
X14550Y-1790D01*
X14569Y-1781D01*
X14588Y-1781D01*
X14616Y-1790D01*
X14730Y-1892D01*
X14730Y-1781D01*
X17720Y5438D02*
X17711Y5428D01*
X17685Y5419D01*
X17668Y5419D01*
X17642Y5428D01*
X17625Y5447D01*
X17617Y5466D01*
X17608Y5504D01*
X17608Y5533D01*
X17617Y5571D01*
X17625Y5590D01*
X17642Y5609D01*
X17668Y5619D01*
X17685Y5619D01*
X17711Y5609D01*
X17720Y5600D01*
X17891Y5419D02*
X17788Y5419D01*
X17840Y5419D02*
X17840Y5619D01*
X17822Y5590D01*
X17805Y5571D01*
X17788Y5561D01*
X17531Y4950D02*
X17540Y4959D01*
X17557Y4969D01*
X17600Y4969D01*
X17617Y4959D01*
X17625Y4950D01*
X17634Y4930D01*
X17634Y4911D01*
X17625Y4883D01*
X17522Y4769D01*
X17634Y4769D01*
X17788Y4902D02*
X17788Y4769D01*
X17711Y4902D02*
X17711Y4797D01*
X17720Y4778D01*
X17737Y4769D01*
X17762Y4769D01*
X17780Y4778D01*
X17788Y4788D01*
X17865Y4950D02*
X17874Y4959D01*
X17891Y4969D01*
X17934Y4969D01*
X17951Y4959D01*
X17960Y4950D01*
X17968Y4930D01*
X17968Y4911D01*
X17960Y4883D01*
X17857Y4769D01*
X17968Y4769D01*
X27311Y720D02*
X27321Y711D01*
X27330Y685D01*
X27330Y668D01*
X27321Y642D01*
X27302Y625D01*
X27283Y617D01*
X27245Y608D01*
X27216Y608D01*
X27178Y617D01*
X27159Y625D01*
X27140Y642D01*
X27130Y668D01*
X27130Y685D01*
X27140Y711D01*
X27150Y720D01*
X27197Y874D02*
X27330Y874D01*
X27121Y831D02*
X27264Y788D01*
X27264Y900D01*
X27950Y504D02*
X27940Y512D01*
X27930Y530D01*
X27930Y572D01*
X27940Y590D01*
X27950Y598D01*
X27969Y607D01*
X27988Y607D01*
X28016Y598D01*
X28130Y495D01*
X28130Y607D01*
X27930Y718D02*
X27930Y735D01*
X27940Y752D01*
X27950Y761D01*
X27969Y770D01*
X28007Y778D01*
X28054Y778D01*
X28092Y770D01*
X28111Y761D01*
X28121Y752D01*
X28130Y735D01*
X28130Y718D01*
X28121Y701D01*
X28111Y692D01*
X28092Y684D01*
X28054Y675D01*
X28007Y675D01*
X27969Y684D01*
X27950Y692D01*
X27940Y701D01*
X27930Y718D01*
X27997Y855D02*
X28197Y855D01*
X28007Y855D02*
X27997Y872D01*
X27997Y907D01*
X28007Y924D01*
X28016Y932D01*
X28035Y941D01*
X28092Y941D01*
X28111Y932D01*
X28121Y924D01*
X28130Y907D01*
X28130Y872D01*
X28121Y855D01*
X28026Y1078D02*
X28026Y1018D01*
X28130Y1018D02*
X27930Y1018D01*
X27930Y1104D01*
X27311Y-1780D02*
X27321Y-1788D01*
X27330Y-1814D01*
X27330Y-1831D01*
X27321Y-1857D01*
X27302Y-1874D01*
X27283Y-1882D01*
X27245Y-1891D01*
X27216Y-1891D01*
X27178Y-1882D01*
X27159Y-1874D01*
X27140Y-1857D01*
X27130Y-1831D01*
X27130Y-1814D01*
X27140Y-1788D01*
X27150Y-1780D01*
X27130Y-1720D02*
X27130Y-1608D01*
X27207Y-1668D01*
X27207Y-1642D01*
X27216Y-1625D01*
X27226Y-1617D01*
X27245Y-1608D01*
X27292Y-1608D01*
X27311Y-1617D01*
X27321Y-1625D01*
X27330Y-1642D01*
X27330Y-1694D01*
X27321Y-1711D01*
X27311Y-1720D01*
X26500Y-2045D02*
X26490Y-2037D01*
X26480Y-2020D01*
X26480Y-1977D01*
X26490Y-1960D01*
X26500Y-1951D01*
X26519Y-1942D01*
X26538Y-1942D01*
X26566Y-1951D01*
X26680Y-2054D01*
X26680Y-1942D01*
X26480Y-1831D02*
X26480Y-1814D01*
X26490Y-1797D01*
X26500Y-1788D01*
X26519Y-1780D01*
X26557Y-1771D01*
X26604Y-1771D01*
X26642Y-1780D01*
X26661Y-1788D01*
X26671Y-1797D01*
X26680Y-1814D01*
X26680Y-1831D01*
X26671Y-1848D01*
X26661Y-1857D01*
X26642Y-1865D01*
X26604Y-1874D01*
X26557Y-1874D01*
X26519Y-1865D01*
X26500Y-1857D01*
X26490Y-1848D01*
X26480Y-1831D01*
X26547Y-1694D02*
X26747Y-1694D01*
X26557Y-1694D02*
X26547Y-1677D01*
X26547Y-1642D01*
X26557Y-1625D01*
X26566Y-1617D01*
X26585Y-1608D01*
X26642Y-1608D01*
X26661Y-1617D01*
X26671Y-1625D01*
X26680Y-1642D01*
X26680Y-1677D01*
X26671Y-1694D01*
X26576Y-1471D02*
X26576Y-1531D01*
X26680Y-1531D02*
X26480Y-1531D01*
X26480Y-1445D01*
G54D23*
X14240Y-14074D02*
X14228Y-14085D01*
X14194Y-14097D01*
X14171Y-14097D01*
X14137Y-14085D01*
X14114Y-14062D01*
X14102Y-14040D01*
X14091Y-13994D01*
X14091Y-13960D01*
X14102Y-13914D01*
X14114Y-13891D01*
X14137Y-13868D01*
X14171Y-13857D01*
X14194Y-13857D01*
X14228Y-13868D01*
X14240Y-13880D01*
X14388Y-13857D02*
X14434Y-13857D01*
X14457Y-13868D01*
X14480Y-13891D01*
X14491Y-13937D01*
X14491Y-14017D01*
X14480Y-14062D01*
X14457Y-14085D01*
X14434Y-14097D01*
X14388Y-14097D01*
X14365Y-14085D01*
X14342Y-14062D01*
X14331Y-14017D01*
X14331Y-13937D01*
X14342Y-13891D01*
X14365Y-13868D01*
X14388Y-13857D01*
X14594Y-14097D02*
X14594Y-13857D01*
X14731Y-14097D01*
X14731Y-13857D01*
X14845Y-14097D02*
X14845Y-13857D01*
X14982Y-14097D01*
X14982Y-13857D01*
X15040Y-14120D02*
X15222Y-14120D01*
X15417Y-14074D02*
X15405Y-14085D01*
X15371Y-14097D01*
X15348Y-14097D01*
X15314Y-14085D01*
X15291Y-14062D01*
X15280Y-14040D01*
X15268Y-13994D01*
X15268Y-13960D01*
X15280Y-13914D01*
X15291Y-13891D01*
X15314Y-13868D01*
X15348Y-13857D01*
X15371Y-13857D01*
X15405Y-13868D01*
X15417Y-13880D01*
X15565Y-13857D02*
X15611Y-13857D01*
X15634Y-13868D01*
X15657Y-13891D01*
X15668Y-13937D01*
X15668Y-14017D01*
X15657Y-14062D01*
X15634Y-14085D01*
X15611Y-14097D01*
X15565Y-14097D01*
X15542Y-14085D01*
X15520Y-14062D01*
X15508Y-14017D01*
X15508Y-13937D01*
X15520Y-13891D01*
X15542Y-13868D01*
X15565Y-13857D01*
X15908Y-14097D02*
X15828Y-13982D01*
X15771Y-14097D02*
X15771Y-13857D01*
X15862Y-13857D01*
X15885Y-13868D01*
X15897Y-13880D01*
X15908Y-13902D01*
X15908Y-13937D01*
X15897Y-13960D01*
X15885Y-13971D01*
X15862Y-13982D01*
X15771Y-13982D01*
X15977Y-13857D02*
X16114Y-13857D01*
X16045Y-14097D02*
X16045Y-13857D01*
X16194Y-13971D02*
X16274Y-13971D01*
X16308Y-14097D02*
X16194Y-14097D01*
X16194Y-13857D01*
X16308Y-13857D01*
X16388Y-13857D02*
X16548Y-14097D01*
X16548Y-13857D02*
X16388Y-14097D01*
X16582Y-14120D02*
X16765Y-14120D01*
X16822Y-14097D02*
X16822Y-13857D01*
X16880Y-13857D01*
X16914Y-13868D01*
X16937Y-13891D01*
X16948Y-13914D01*
X16960Y-13960D01*
X16960Y-13994D01*
X16948Y-14040D01*
X16937Y-14062D01*
X16914Y-14085D01*
X16880Y-14097D01*
X16822Y-14097D01*
X17062Y-13971D02*
X17142Y-13971D01*
X17177Y-14097D02*
X17062Y-14097D01*
X17062Y-13857D01*
X17177Y-13857D01*
X17360Y-13971D02*
X17394Y-13982D01*
X17405Y-13994D01*
X17417Y-14017D01*
X17417Y-14051D01*
X17405Y-14074D01*
X17394Y-14085D01*
X17371Y-14097D01*
X17280Y-14097D01*
X17280Y-13857D01*
X17360Y-13857D01*
X17382Y-13868D01*
X17394Y-13880D01*
X17405Y-13902D01*
X17405Y-13925D01*
X17394Y-13948D01*
X17382Y-13960D01*
X17360Y-13971D01*
X17280Y-13971D01*
X17520Y-13857D02*
X17520Y-14051D01*
X17531Y-14074D01*
X17542Y-14085D01*
X17565Y-14097D01*
X17611Y-14097D01*
X17634Y-14085D01*
X17645Y-14074D01*
X17657Y-14051D01*
X17657Y-13857D01*
X17897Y-13868D02*
X17874Y-13857D01*
X17840Y-13857D01*
X17805Y-13868D01*
X17782Y-13891D01*
X17771Y-13914D01*
X17760Y-13960D01*
X17760Y-13994D01*
X17771Y-14040D01*
X17782Y-14062D01*
X17805Y-14085D01*
X17840Y-14097D01*
X17862Y-14097D01*
X17897Y-14085D01*
X17908Y-14074D01*
X17908Y-13994D01*
X17862Y-13994D01*
X17564Y-11678D02*
X17427Y-11678D01*
X17496Y-11678D02*
X17496Y-11438D01*
X17473Y-11472D01*
X17450Y-11495D01*
X17427Y-11506D01*
G54D12*
X19725Y-35D02*
X19725Y-327D01*
X19742Y-361D01*
X19760Y-378D01*
X19794Y-395D01*
X19862Y-395D01*
X19897Y-378D01*
X19914Y-361D01*
X19931Y-327D01*
X19931Y-35D01*
X20291Y-395D02*
X20085Y-395D01*
X20188Y-395D02*
X20188Y-35D01*
X20154Y-87D01*
X20120Y-121D01*
X20085Y-138D01*
X17222Y121D02*
X17274Y104D01*
X17360Y104D01*
X17394Y121D01*
X17411Y138D01*
X17428Y172D01*
X17428Y207D01*
X17411Y241D01*
X17394Y258D01*
X17360Y275D01*
X17291Y292D01*
X17257Y310D01*
X17240Y327D01*
X17222Y361D01*
X17222Y395D01*
X17240Y430D01*
X17257Y447D01*
X17291Y464D01*
X17377Y464D01*
X17428Y447D01*
X17531Y464D02*
X17737Y464D01*
X17634Y104D02*
X17634Y464D01*
X17857Y104D02*
X17857Y464D01*
X17977Y207D01*
X18097Y464D01*
X18097Y104D01*
X18234Y464D02*
X18457Y464D01*
X18337Y327D01*
X18388Y327D01*
X18422Y310D01*
X18440Y292D01*
X18457Y258D01*
X18457Y172D01*
X18440Y138D01*
X18422Y121D01*
X18388Y104D01*
X18285Y104D01*
X18251Y121D01*
X18234Y138D01*
X18594Y430D02*
X18611Y447D01*
X18645Y464D01*
X18731Y464D01*
X18765Y447D01*
X18782Y430D01*
X18800Y395D01*
X18800Y361D01*
X18782Y310D01*
X18577Y104D01*
X18800Y104D01*
X19074Y292D02*
X18954Y292D01*
X18954Y104D02*
X18954Y464D01*
X19125Y464D01*
X19417Y344D02*
X19417Y104D01*
X19331Y481D02*
X19245Y224D01*
X19468Y224D01*
X19674Y464D02*
X19708Y464D01*
X19742Y447D01*
X19760Y430D01*
X19777Y395D01*
X19794Y327D01*
X19794Y241D01*
X19777Y172D01*
X19760Y138D01*
X19742Y121D01*
X19708Y104D01*
X19674Y104D01*
X19640Y121D01*
X19622Y138D01*
X19605Y172D01*
X19588Y241D01*
X19588Y327D01*
X19605Y395D01*
X19622Y430D01*
X19640Y447D01*
X19674Y464D01*
X19914Y464D02*
X20154Y464D01*
X20000Y104D01*
X20205Y70D02*
X20480Y70D01*
X20737Y104D02*
X20565Y104D01*
X20565Y464D01*
X21097Y70D02*
X21062Y87D01*
X21028Y121D01*
X20977Y172D01*
X20942Y190D01*
X20908Y190D01*
X20925Y104D02*
X20891Y121D01*
X20857Y155D01*
X20840Y224D01*
X20840Y344D01*
X20857Y412D01*
X20891Y447D01*
X20925Y464D01*
X20994Y464D01*
X21028Y447D01*
X21062Y412D01*
X21080Y344D01*
X21080Y224D01*
X21062Y155D01*
X21028Y121D01*
X20994Y104D01*
X20925Y104D01*
X21354Y292D02*
X21234Y292D01*
X21234Y104D02*
X21234Y464D01*
X21405Y464D01*
X21542Y104D02*
X21542Y464D01*
X21680Y464D01*
X21714Y447D01*
X21731Y430D01*
X21748Y395D01*
X21748Y344D01*
X21731Y310D01*
X21714Y292D01*
X21680Y275D01*
X21542Y275D01*
X22091Y104D02*
X21885Y104D01*
X21988Y104D02*
X21988Y464D01*
X21954Y412D01*
X21920Y378D01*
X21885Y361D01*
X22314Y464D02*
X22348Y464D01*
X22382Y447D01*
X22400Y430D01*
X22417Y395D01*
X22434Y327D01*
X22434Y241D01*
X22417Y172D01*
X22400Y138D01*
X22382Y121D01*
X22348Y104D01*
X22314Y104D01*
X22280Y121D01*
X22262Y138D01*
X22245Y172D01*
X22228Y241D01*
X22228Y327D01*
X22245Y395D01*
X22262Y430D01*
X22280Y447D01*
X22314Y464D01*
X22657Y464D02*
X22691Y464D01*
X22725Y447D01*
X22742Y430D01*
X22760Y395D01*
X22777Y327D01*
X22777Y241D01*
X22760Y172D01*
X22742Y138D01*
X22725Y121D01*
X22691Y104D01*
X22657Y104D01*
X22622Y121D01*
X22605Y138D01*
X22588Y172D01*
X22571Y241D01*
X22571Y327D01*
X22588Y395D01*
X22605Y430D01*
X22622Y447D01*
X22657Y464D01*
G54D15*
X17075Y-7662D02*
X17075Y-7426D01*
X17132Y-7426D01*
X17165Y-7437D01*
X17188Y-7460D01*
X17199Y-7482D01*
X17210Y-7527D01*
X17210Y-7561D01*
X17199Y-7606D01*
X17188Y-7628D01*
X17165Y-7651D01*
X17132Y-7662D01*
X17075Y-7662D01*
X17300Y-7449D02*
X17311Y-7437D01*
X17334Y-7426D01*
X17390Y-7426D01*
X17412Y-7437D01*
X17424Y-7449D01*
X17435Y-7471D01*
X17435Y-7493D01*
X17424Y-7527D01*
X17289Y-7662D01*
X17435Y-7662D01*
X16985Y-8567D02*
X16873Y-8567D01*
X16873Y-8331D01*
X17064Y-8443D02*
X17143Y-8443D01*
X17176Y-8567D02*
X17064Y-8567D01*
X17064Y-8331D01*
X17176Y-8331D01*
X17278Y-8567D02*
X17278Y-8331D01*
X17334Y-8331D01*
X17368Y-8342D01*
X17390Y-8365D01*
X17401Y-8387D01*
X17412Y-8432D01*
X17412Y-8466D01*
X17401Y-8511D01*
X17390Y-8533D01*
X17368Y-8556D01*
X17334Y-8567D01*
X17278Y-8567D01*
X17502Y-8354D02*
X17514Y-8342D01*
X17536Y-8331D01*
X17592Y-8331D01*
X17615Y-8342D01*
X17626Y-8354D01*
X17637Y-8376D01*
X17637Y-8398D01*
X17626Y-8432D01*
X17491Y-8567D01*
X17637Y-8567D01*
X10825Y-9278D02*
X10825Y-9042D01*
X10882Y-9042D01*
X10915Y-9053D01*
X10938Y-9076D01*
X10949Y-9098D01*
X10960Y-9143D01*
X10960Y-9177D01*
X10949Y-9222D01*
X10938Y-9244D01*
X10915Y-9267D01*
X10882Y-9278D01*
X10825Y-9278D01*
X11174Y-9042D02*
X11061Y-9042D01*
X11050Y-9154D01*
X11061Y-9143D01*
X11084Y-9132D01*
X11140Y-9132D01*
X11162Y-9143D01*
X11174Y-9154D01*
X11185Y-9177D01*
X11185Y-9233D01*
X11174Y-9256D01*
X11162Y-9267D01*
X11140Y-9278D01*
X11084Y-9278D01*
X11061Y-9267D01*
X11050Y-9256D01*
X10685Y-8373D02*
X10685Y-8137D01*
X10775Y-8137D01*
X10797Y-8148D01*
X10808Y-8160D01*
X10820Y-8182D01*
X10820Y-8216D01*
X10808Y-8238D01*
X10797Y-8249D01*
X10775Y-8261D01*
X10685Y-8261D01*
X10898Y-8137D02*
X10955Y-8373D01*
X11000Y-8204D01*
X11044Y-8373D01*
X11101Y-8137D01*
X11325Y-8373D02*
X11247Y-8261D01*
X11191Y-8373D02*
X11191Y-8137D01*
X11280Y-8137D01*
X11303Y-8148D01*
X11314Y-8160D01*
X11325Y-8182D01*
X11325Y-8216D01*
X11314Y-8238D01*
X11303Y-8249D01*
X11280Y-8261D01*
X11191Y-8261D01*
X15575Y-7662D02*
X15575Y-7426D01*
X15632Y-7426D01*
X15665Y-7437D01*
X15688Y-7460D01*
X15699Y-7482D01*
X15710Y-7527D01*
X15710Y-7561D01*
X15699Y-7606D01*
X15688Y-7628D01*
X15665Y-7651D01*
X15632Y-7662D01*
X15575Y-7662D01*
X15935Y-7662D02*
X15800Y-7662D01*
X15868Y-7662D02*
X15868Y-7426D01*
X15845Y-7460D01*
X15823Y-7482D01*
X15800Y-7493D01*
X15485Y-8567D02*
X15373Y-8567D01*
X15373Y-8331D01*
X15564Y-8443D02*
X15643Y-8443D01*
X15676Y-8567D02*
X15564Y-8567D01*
X15564Y-8331D01*
X15676Y-8331D01*
X15778Y-8567D02*
X15778Y-8331D01*
X15834Y-8331D01*
X15868Y-8342D01*
X15890Y-8365D01*
X15901Y-8387D01*
X15912Y-8432D01*
X15912Y-8466D01*
X15901Y-8511D01*
X15890Y-8533D01*
X15868Y-8556D01*
X15834Y-8567D01*
X15778Y-8567D01*
X16137Y-8567D02*
X16002Y-8567D01*
X16070Y-8567D02*
X16070Y-8331D01*
X16047Y-8365D01*
X16025Y-8387D01*
X16002Y-8398D01*
G54D12*
X15866Y-261D02*
X15866Y-547D01*
X15847Y-604D01*
X15809Y-642D01*
X15752Y-661D01*
X15714Y-661D01*
X16266Y-661D02*
X16038Y-661D01*
X16152Y-661D02*
X16152Y-261D01*
X16114Y-319D01*
X16076Y-357D01*
X16038Y-376D01*
G54D20*
X22224Y7525D02*
X22463Y7525D01*
X22491Y7539D01*
X22505Y7553D01*
X22519Y7581D01*
X22519Y7637D01*
X22505Y7665D01*
X22491Y7679D01*
X22463Y7693D01*
X22224Y7693D01*
X22350Y7876D02*
X22336Y7848D01*
X22322Y7834D01*
X22294Y7820D01*
X22280Y7820D01*
X22252Y7834D01*
X22238Y7848D01*
X22224Y7876D01*
X22224Y7932D01*
X22238Y7960D01*
X22252Y7974D01*
X22280Y7988D01*
X22294Y7988D01*
X22322Y7974D01*
X22336Y7960D01*
X22350Y7932D01*
X22350Y7876D01*
X22364Y7848D01*
X22378Y7834D01*
X22407Y7820D01*
X22463Y7820D01*
X22491Y7834D01*
X22505Y7848D01*
X22519Y7876D01*
X22519Y7932D01*
X22505Y7960D01*
X22491Y7974D01*
X22463Y7988D01*
X22407Y7988D01*
X22378Y7974D01*
X22364Y7960D01*
X22350Y7932D01*
X21564Y6801D02*
X21564Y6703D01*
X21719Y6703D02*
X21424Y6703D01*
X21424Y6843D01*
X21719Y7124D02*
X21578Y7026D01*
X21719Y6956D02*
X21424Y6956D01*
X21424Y7068D01*
X21438Y7096D01*
X21452Y7110D01*
X21480Y7124D01*
X21522Y7124D01*
X21550Y7110D01*
X21564Y7096D01*
X21578Y7068D01*
X21578Y6956D01*
X21635Y7237D02*
X21635Y7377D01*
X21719Y7209D02*
X21424Y7307D01*
X21719Y7405D01*
X21719Y7504D02*
X21424Y7504D01*
X21635Y7602D01*
X21424Y7700D01*
X21719Y7700D01*
X21452Y8052D02*
X21438Y8066D01*
X21424Y8094D01*
X21424Y8164D01*
X21438Y8192D01*
X21452Y8206D01*
X21480Y8220D01*
X21508Y8220D01*
X21550Y8206D01*
X21719Y8037D01*
X21719Y8220D01*
X21719Y8347D02*
X21424Y8347D01*
X21719Y8515D02*
X21550Y8389D01*
X21424Y8515D02*
X21592Y8347D01*
X21564Y8740D02*
X21578Y8782D01*
X21592Y8796D01*
X21621Y8810D01*
X21663Y8810D01*
X21691Y8796D01*
X21705Y8782D01*
X21719Y8754D01*
X21719Y8642D01*
X21424Y8642D01*
X21424Y8740D01*
X21438Y8768D01*
X21452Y8782D01*
X21480Y8796D01*
X21508Y8796D01*
X21536Y8782D01*
X21550Y8768D01*
X21564Y8740D01*
X21564Y8642D01*
G54D22*
X12354Y-4840D02*
X12260Y-4900D01*
X12354Y-4943D02*
X12157Y-4943D01*
X12157Y-4875D01*
X12167Y-4857D01*
X12176Y-4849D01*
X12195Y-4840D01*
X12223Y-4840D01*
X12242Y-4849D01*
X12251Y-4857D01*
X12260Y-4875D01*
X12260Y-4943D01*
X12157Y-4780D02*
X12157Y-4669D01*
X12232Y-4729D01*
X12232Y-4703D01*
X12242Y-4686D01*
X12251Y-4677D01*
X12270Y-4669D01*
X12317Y-4669D01*
X12335Y-4677D01*
X12345Y-4686D01*
X12354Y-4703D01*
X12354Y-4755D01*
X12345Y-4772D01*
X12335Y-4780D01*
X12157Y-4506D02*
X12157Y-4592D01*
X12251Y-4600D01*
X12242Y-4592D01*
X12232Y-4575D01*
X12232Y-4532D01*
X12242Y-4515D01*
X12251Y-4506D01*
X12270Y-4497D01*
X12317Y-4497D01*
X12335Y-4506D01*
X12345Y-4515D01*
X12354Y-4532D01*
X12354Y-4575D01*
X12345Y-4592D01*
X12335Y-4600D01*
X11461Y-4758D02*
X11461Y-4741D01*
X11471Y-4724D01*
X11481Y-4715D01*
X11500Y-4707D01*
X11538Y-4698D01*
X11585Y-4698D01*
X11623Y-4707D01*
X11642Y-4715D01*
X11652Y-4724D01*
X11661Y-4741D01*
X11661Y-4758D01*
X11652Y-4775D01*
X11642Y-4784D01*
X11623Y-4792D01*
X11585Y-4801D01*
X11538Y-4801D01*
X11500Y-4792D01*
X11481Y-4784D01*
X11471Y-4775D01*
X11461Y-4758D01*
X12104Y-3840D02*
X12010Y-3900D01*
X12104Y-3943D02*
X11907Y-3943D01*
X11907Y-3875D01*
X11917Y-3857D01*
X11926Y-3849D01*
X11945Y-3840D01*
X11973Y-3840D01*
X11992Y-3849D01*
X12001Y-3857D01*
X12010Y-3875D01*
X12010Y-3943D01*
X11907Y-3780D02*
X11907Y-3669D01*
X11982Y-3729D01*
X11982Y-3703D01*
X11992Y-3686D01*
X12001Y-3677D01*
X12020Y-3669D01*
X12067Y-3669D01*
X12085Y-3677D01*
X12095Y-3686D01*
X12104Y-3703D01*
X12104Y-3755D01*
X12095Y-3772D01*
X12085Y-3780D01*
X12104Y-3497D02*
X12104Y-3600D01*
X12104Y-3549D02*
X11907Y-3549D01*
X11935Y-3566D01*
X11954Y-3583D01*
X11964Y-3600D01*
X12580Y-3910D02*
X12580Y-3944D01*
X12590Y-3961D01*
X12600Y-3970D01*
X12628Y-3987D01*
X12666Y-3995D01*
X12742Y-3995D01*
X12761Y-3987D01*
X12771Y-3978D01*
X12780Y-3961D01*
X12780Y-3927D01*
X12771Y-3910D01*
X12761Y-3901D01*
X12742Y-3892D01*
X12695Y-3892D01*
X12676Y-3901D01*
X12666Y-3910D01*
X12657Y-3927D01*
X12657Y-3961D01*
X12666Y-3978D01*
X12676Y-3987D01*
X12695Y-3995D01*
X12647Y-3738D02*
X12780Y-3738D01*
X12571Y-3781D02*
X12714Y-3824D01*
X12714Y-3712D01*
X12780Y-3635D02*
X12780Y-3601D01*
X12771Y-3584D01*
X12761Y-3575D01*
X12733Y-3558D01*
X12695Y-3549D01*
X12619Y-3549D01*
X12600Y-3558D01*
X12590Y-3567D01*
X12580Y-3584D01*
X12580Y-3618D01*
X12590Y-3635D01*
X12600Y-3644D01*
X12619Y-3652D01*
X12666Y-3652D01*
X12685Y-3644D01*
X12695Y-3635D01*
X12704Y-3618D01*
X12704Y-3584D01*
X12695Y-3567D01*
X12685Y-3558D01*
X12666Y-3549D01*
X12780Y-3472D02*
X12580Y-3472D01*
X12704Y-3455D02*
X12780Y-3404D01*
X12647Y-3404D02*
X12723Y-3472D01*
X10909Y-3604D02*
X10849Y-3510D01*
X10806Y-3604D02*
X10806Y-3407D01*
X10875Y-3407D01*
X10892Y-3417D01*
X10900Y-3426D01*
X10909Y-3445D01*
X10909Y-3473D01*
X10900Y-3492D01*
X10892Y-3501D01*
X10875Y-3510D01*
X10806Y-3510D01*
X10969Y-3407D02*
X11080Y-3407D01*
X11020Y-3482D01*
X11046Y-3482D01*
X11063Y-3492D01*
X11072Y-3501D01*
X11080Y-3520D01*
X11080Y-3567D01*
X11072Y-3585D01*
X11063Y-3595D01*
X11046Y-3604D01*
X10995Y-3604D01*
X10977Y-3595D01*
X10969Y-3585D01*
X11192Y-3407D02*
X11209Y-3407D01*
X11226Y-3417D01*
X11235Y-3426D01*
X11243Y-3445D01*
X11252Y-3482D01*
X11252Y-3529D01*
X11243Y-3567D01*
X11235Y-3585D01*
X11226Y-3595D01*
X11209Y-3604D01*
X11192Y-3604D01*
X11175Y-3595D01*
X11166Y-3585D01*
X11157Y-3567D01*
X11149Y-3529D01*
X11149Y-3482D01*
X11157Y-3445D01*
X11166Y-3426D01*
X11175Y-3417D01*
X11192Y-3407D01*
X10631Y-2731D02*
X10640Y-2721D01*
X10657Y-2711D01*
X10700Y-2711D01*
X10717Y-2721D01*
X10725Y-2731D01*
X10734Y-2750D01*
X10734Y-2769D01*
X10725Y-2797D01*
X10622Y-2911D01*
X10734Y-2911D01*
X10811Y-2892D02*
X10820Y-2902D01*
X10811Y-2911D01*
X10802Y-2902D01*
X10811Y-2892D01*
X10811Y-2911D01*
X10931Y-2711D02*
X10948Y-2711D01*
X10965Y-2721D01*
X10974Y-2731D01*
X10982Y-2750D01*
X10991Y-2788D01*
X10991Y-2835D01*
X10982Y-2873D01*
X10974Y-2892D01*
X10965Y-2902D01*
X10948Y-2911D01*
X10931Y-2911D01*
X10914Y-2902D01*
X10905Y-2892D01*
X10897Y-2873D01*
X10888Y-2835D01*
X10888Y-2788D01*
X10897Y-2750D01*
X10905Y-2731D01*
X10914Y-2721D01*
X10931Y-2711D01*
X11154Y-2711D02*
X11068Y-2711D01*
X11060Y-2807D01*
X11068Y-2797D01*
X11085Y-2788D01*
X11128Y-2788D01*
X11145Y-2797D01*
X11154Y-2807D01*
X11162Y-2826D01*
X11162Y-2873D01*
X11154Y-2892D01*
X11145Y-2902D01*
X11128Y-2911D01*
X11085Y-2911D01*
X11068Y-2902D01*
X11060Y-2892D01*
X11240Y-2911D02*
X11240Y-2711D01*
X11300Y-2854D01*
X11360Y-2711D01*
X11360Y-2911D01*
X6804Y-2890D02*
X6710Y-2950D01*
X6804Y-2993D02*
X6607Y-2993D01*
X6607Y-2925D01*
X6617Y-2907D01*
X6626Y-2899D01*
X6645Y-2890D01*
X6673Y-2890D01*
X6692Y-2899D01*
X6701Y-2907D01*
X6710Y-2925D01*
X6710Y-2993D01*
X6626Y-2822D02*
X6617Y-2813D01*
X6607Y-2796D01*
X6607Y-2753D01*
X6617Y-2736D01*
X6626Y-2727D01*
X6645Y-2719D01*
X6664Y-2719D01*
X6692Y-2727D01*
X6804Y-2830D01*
X6804Y-2719D01*
X6804Y-2633D02*
X6804Y-2599D01*
X6795Y-2582D01*
X6785Y-2573D01*
X6757Y-2556D01*
X6720Y-2547D01*
X6645Y-2547D01*
X6626Y-2556D01*
X6617Y-2565D01*
X6607Y-2582D01*
X6607Y-2616D01*
X6617Y-2633D01*
X6626Y-2642D01*
X6645Y-2650D01*
X6692Y-2650D01*
X6710Y-2642D01*
X6720Y-2633D01*
X6729Y-2616D01*
X6729Y-2582D01*
X6720Y-2565D01*
X6710Y-2556D01*
X6692Y-2547D01*
X7499Y-2985D02*
X7499Y-3088D01*
X7499Y-3037D02*
X7299Y-3037D01*
X7328Y-3054D01*
X7347Y-3071D01*
X7357Y-3088D01*
X7480Y-2908D02*
X7490Y-2899D01*
X7499Y-2908D01*
X7490Y-2917D01*
X7480Y-2908D01*
X7499Y-2908D01*
X7385Y-2797D02*
X7376Y-2814D01*
X7366Y-2822D01*
X7347Y-2831D01*
X7338Y-2831D01*
X7319Y-2822D01*
X7309Y-2814D01*
X7299Y-2797D01*
X7299Y-2762D01*
X7309Y-2745D01*
X7319Y-2737D01*
X7338Y-2728D01*
X7347Y-2728D01*
X7366Y-2737D01*
X7376Y-2745D01*
X7385Y-2762D01*
X7385Y-2797D01*
X7395Y-2814D01*
X7404Y-2822D01*
X7423Y-2831D01*
X7461Y-2831D01*
X7480Y-2822D01*
X7490Y-2814D01*
X7499Y-2797D01*
X7499Y-2762D01*
X7490Y-2745D01*
X7480Y-2737D01*
X7461Y-2728D01*
X7423Y-2728D01*
X7404Y-2737D01*
X7395Y-2745D01*
X7385Y-2762D01*
X7299Y-2668D02*
X7299Y-2548D01*
X7499Y-2625D01*
X7499Y-2479D02*
X7299Y-2479D01*
X7423Y-2462D02*
X7499Y-2411D01*
X7366Y-2411D02*
X7442Y-2479D01*
X8489Y-1607D02*
X8549Y-1804D01*
X8609Y-1607D01*
X8772Y-1804D02*
X8712Y-1710D01*
X8669Y-1804D02*
X8669Y-1607D01*
X8737Y-1607D01*
X8755Y-1617D01*
X8763Y-1626D01*
X8772Y-1645D01*
X8772Y-1673D01*
X8763Y-1692D01*
X8755Y-1701D01*
X8737Y-1710D01*
X8669Y-1710D01*
X8943Y-1804D02*
X8840Y-1804D01*
X8892Y-1804D02*
X8892Y-1607D01*
X8875Y-1635D01*
X8857Y-1654D01*
X8840Y-1664D01*
X8642Y-2499D02*
X8540Y-2499D01*
X8591Y-2499D02*
X8591Y-2299D01*
X8574Y-2328D01*
X8557Y-2347D01*
X8540Y-2357D01*
X8754Y-2299D02*
X8771Y-2299D01*
X8788Y-2309D01*
X8797Y-2319D01*
X8805Y-2338D01*
X8814Y-2376D01*
X8814Y-2423D01*
X8805Y-2461D01*
X8797Y-2480D01*
X8788Y-2490D01*
X8771Y-2499D01*
X8754Y-2499D01*
X8737Y-2490D01*
X8728Y-2480D01*
X8720Y-2461D01*
X8711Y-2423D01*
X8711Y-2376D01*
X8720Y-2338D01*
X8728Y-2319D01*
X8737Y-2309D01*
X8754Y-2299D01*
X8891Y-2499D02*
X8891Y-2299D01*
X8908Y-2423D02*
X8960Y-2499D01*
X8960Y-2366D02*
X8891Y-2442D01*
X7909Y-1854D02*
X7849Y-1760D01*
X7806Y-1854D02*
X7806Y-1657D01*
X7875Y-1657D01*
X7892Y-1667D01*
X7900Y-1676D01*
X7909Y-1695D01*
X7909Y-1723D01*
X7900Y-1742D01*
X7892Y-1751D01*
X7875Y-1760D01*
X7806Y-1760D01*
X7977Y-1676D02*
X7986Y-1667D01*
X8003Y-1657D01*
X8046Y-1657D01*
X8063Y-1667D01*
X8072Y-1676D01*
X8080Y-1695D01*
X8080Y-1714D01*
X8072Y-1742D01*
X7969Y-1854D01*
X8080Y-1854D01*
X8183Y-1742D02*
X8166Y-1732D01*
X8157Y-1723D01*
X8149Y-1704D01*
X8149Y-1695D01*
X8157Y-1676D01*
X8166Y-1667D01*
X8183Y-1657D01*
X8217Y-1657D01*
X8235Y-1667D01*
X8243Y-1676D01*
X8252Y-1695D01*
X8252Y-1704D01*
X8243Y-1723D01*
X8235Y-1732D01*
X8217Y-1742D01*
X8183Y-1742D01*
X8166Y-1751D01*
X8157Y-1760D01*
X8149Y-1779D01*
X8149Y-1817D01*
X8157Y-1835D01*
X8166Y-1845D01*
X8183Y-1854D01*
X8217Y-1854D01*
X8235Y-1845D01*
X8243Y-1835D01*
X8252Y-1817D01*
X8252Y-1779D01*
X8243Y-1760D01*
X8235Y-1751D01*
X8217Y-1742D01*
X7892Y-1161D02*
X7790Y-1161D01*
X7841Y-1161D02*
X7841Y-961D01*
X7824Y-990D01*
X7807Y-1009D01*
X7790Y-1019D01*
X8004Y-961D02*
X8021Y-961D01*
X8038Y-971D01*
X8047Y-981D01*
X8055Y-1000D01*
X8064Y-1038D01*
X8064Y-1085D01*
X8055Y-1123D01*
X8047Y-1142D01*
X8038Y-1152D01*
X8021Y-1161D01*
X8004Y-1161D01*
X7987Y-1152D01*
X7978Y-1142D01*
X7970Y-1123D01*
X7961Y-1085D01*
X7961Y-1038D01*
X7970Y-1000D01*
X7978Y-981D01*
X7987Y-971D01*
X8004Y-961D01*
X8141Y-1161D02*
X8141Y-961D01*
X8158Y-1085D02*
X8210Y-1161D01*
X8210Y-1028D02*
X8141Y-1104D01*
G54D10*
X12459Y-12659D02*
X12459Y-12265D01*
X12609Y-12265D01*
X12646Y-12284D01*
X12665Y-12303D01*
X12684Y-12340D01*
X12684Y-12396D01*
X12665Y-12434D01*
X12646Y-12453D01*
X12609Y-12471D01*
X12459Y-12471D01*
X13059Y-12659D02*
X12834Y-12659D01*
X12946Y-12659D02*
X12946Y-12265D01*
X12909Y-12321D01*
X12871Y-12359D01*
X12834Y-12378D01*
X12215Y-10890D02*
X12271Y-10909D01*
X12365Y-10909D01*
X12403Y-10890D01*
X12421Y-10871D01*
X12440Y-10834D01*
X12440Y-10796D01*
X12421Y-10759D01*
X12403Y-10740D01*
X12365Y-10721D01*
X12290Y-10703D01*
X12253Y-10684D01*
X12234Y-10665D01*
X12215Y-10628D01*
X12215Y-10590D01*
X12234Y-10553D01*
X12253Y-10534D01*
X12290Y-10515D01*
X12384Y-10515D01*
X12440Y-10534D01*
X12571Y-10515D02*
X12665Y-10909D01*
X12740Y-10628D01*
X12815Y-10909D01*
X12909Y-10515D01*
X13059Y-10909D02*
X13059Y-10515D01*
X13153Y-10515D01*
X13209Y-10534D01*
X13246Y-10571D01*
X13265Y-10609D01*
X13284Y-10684D01*
X13284Y-10740D01*
X13265Y-10815D01*
X13246Y-10853D01*
X13209Y-10890D01*
X13153Y-10909D01*
X13059Y-10909D01*
G54D24*
X2410Y10128D02*
X2410Y10428D01*
X2516Y10428D01*
X2543Y10414D01*
X2556Y10400D01*
X2570Y10371D01*
X2570Y10328D01*
X2556Y10300D01*
X2543Y10285D01*
X2516Y10271D01*
X2410Y10271D01*
X2836Y10128D02*
X2676Y10128D01*
X2756Y10128D02*
X2756Y10428D01*
X2730Y10385D01*
X2703Y10357D01*
X2676Y10342D01*
X3103Y10128D02*
X2943Y10128D01*
X3023Y10128D02*
X3023Y10428D01*
X2996Y10385D01*
X2970Y10357D01*
X2943Y10342D01*
X-8959Y9892D02*
X-8919Y9878D01*
X-8853Y9878D01*
X-8826Y9892D01*
X-8813Y9907D01*
X-8799Y9935D01*
X-8799Y9964D01*
X-8813Y9992D01*
X-8826Y10007D01*
X-8853Y10021D01*
X-8906Y10035D01*
X-8933Y10050D01*
X-8946Y10064D01*
X-8959Y10092D01*
X-8959Y10121D01*
X-8946Y10150D01*
X-8933Y10164D01*
X-8906Y10178D01*
X-8839Y10178D01*
X-8799Y10164D01*
X-8720Y10178D02*
X-8560Y10178D01*
X-8640Y9878D02*
X-8640Y10178D01*
X-8466Y10035D02*
X-8373Y10035D01*
X-8333Y9878D02*
X-8466Y9878D01*
X-8466Y10178D01*
X-8333Y10178D01*
X-8053Y9878D02*
X-8146Y10021D01*
X-8213Y9878D02*
X-8213Y10178D01*
X-8106Y10178D01*
X-8079Y10164D01*
X-8066Y10150D01*
X-8053Y10121D01*
X-8053Y10078D01*
X-8066Y10050D01*
X-8079Y10035D01*
X-8106Y10021D01*
X-8213Y10021D01*
X-7933Y10035D02*
X-7839Y10035D01*
X-7799Y9878D02*
X-7933Y9878D01*
X-7933Y10178D01*
X-7799Y10178D01*
X-7626Y10178D02*
X-7573Y10178D01*
X-7546Y10164D01*
X-7519Y10135D01*
X-7506Y10078D01*
X-7506Y9978D01*
X-7519Y9921D01*
X-7546Y9892D01*
X-7573Y9878D01*
X-7626Y9878D01*
X-7653Y9892D01*
X-7679Y9921D01*
X-7693Y9978D01*
X-7693Y10078D01*
X-7679Y10135D01*
X-7653Y10164D01*
X-7626Y10178D01*
X-7386Y9992D02*
X-7173Y9992D01*
X-7053Y9964D02*
X-6919Y9964D01*
X-7079Y9878D02*
X-6986Y10178D01*
X-6893Y9878D01*
X-6799Y10178D02*
X-6799Y9935D01*
X-6786Y9907D01*
X-6773Y9892D01*
X-6746Y9878D01*
X-6693Y9878D01*
X-6666Y9892D01*
X-6653Y9907D01*
X-6639Y9935D01*
X-6639Y10178D01*
X-6506Y9878D02*
X-6506Y10178D01*
X-6439Y10178D01*
X-6399Y10164D01*
X-6373Y10135D01*
X-6359Y10107D01*
X-6346Y10050D01*
X-6346Y10007D01*
X-6359Y9950D01*
X-6373Y9921D01*
X-6399Y9892D01*
X-6439Y9878D01*
X-6506Y9878D01*
X-6226Y9878D02*
X-6226Y10178D01*
X-6039Y10178D02*
X-5986Y10178D01*
X-5959Y10164D01*
X-5933Y10135D01*
X-5919Y10078D01*
X-5919Y9978D01*
X-5933Y9921D01*
X-5959Y9892D01*
X-5986Y9878D01*
X-6039Y9878D01*
X-6066Y9892D01*
X-6093Y9921D01*
X-6106Y9978D01*
X-6106Y10078D01*
X-6093Y10135D01*
X-6066Y10164D01*
X-6039Y10178D01*
X-5799Y9992D02*
X-5586Y9992D01*
X-5373Y10178D02*
X-5373Y9964D01*
X-5386Y9921D01*
X-5413Y9892D01*
X-5453Y9878D01*
X-5479Y9878D01*
X-5253Y9964D02*
X-5119Y9964D01*
X-5279Y9878D02*
X-5186Y10178D01*
X-5093Y9878D01*
X-4839Y9907D02*
X-4853Y9892D01*
X-4893Y9878D01*
X-4919Y9878D01*
X-4959Y9892D01*
X-4986Y9921D01*
X-4999Y9950D01*
X-5013Y10007D01*
X-5013Y10050D01*
X-4999Y10107D01*
X-4986Y10135D01*
X-4959Y10164D01*
X-4919Y10178D01*
X-4893Y10178D01*
X-4853Y10164D01*
X-4839Y10150D01*
X-4719Y9878D02*
X-4719Y10178D01*
X-4559Y9878D02*
X-4679Y10050D01*
X-4559Y10178D02*
X-4719Y10007D01*
X-4506Y9850D02*
X-4293Y9850D01*
X-4239Y9892D02*
X-4199Y9878D01*
X-4133Y9878D01*
X-4106Y9892D01*
X-4093Y9907D01*
X-4079Y9935D01*
X-4079Y9964D01*
X-4093Y9992D01*
X-4106Y10007D01*
X-4133Y10021D01*
X-4186Y10035D01*
X-4213Y10050D01*
X-4226Y10064D01*
X-4239Y10092D01*
X-4239Y10121D01*
X-4226Y10150D01*
X-4213Y10164D01*
X-4186Y10178D01*
X-4119Y10178D01*
X-4079Y10164D01*
X-3879Y10178D02*
X-3879Y9964D01*
X-3893Y9921D01*
X-3919Y9892D01*
X-3959Y9878D01*
X-3986Y9878D01*
X-3599Y9878D02*
X-3759Y9878D01*
X-3679Y9878D02*
X-3679Y10178D01*
X-3706Y10135D01*
X-3733Y10107D01*
X-3759Y10092D01*
X-3479Y9992D02*
X-3266Y9992D01*
X-3159Y10178D02*
X-2986Y10178D01*
X-3079Y10064D01*
X-3039Y10064D01*
X-3013Y10050D01*
X-2999Y10035D01*
X-2986Y10007D01*
X-2986Y9935D01*
X-2999Y9907D01*
X-3013Y9892D01*
X-3039Y9878D01*
X-3119Y9878D01*
X-3146Y9892D01*
X-3159Y9907D01*
X-2733Y10178D02*
X-2866Y10178D01*
X-2879Y10035D01*
X-2866Y10050D01*
X-2839Y10064D01*
X-2773Y10064D01*
X-2746Y10050D01*
X-2733Y10035D01*
X-2719Y10007D01*
X-2719Y9935D01*
X-2733Y9907D01*
X-2746Y9892D01*
X-2773Y9878D01*
X-2839Y9878D01*
X-2866Y9892D01*
X-2879Y9907D01*
X-2613Y10150D02*
X-2599Y10164D01*
X-2573Y10178D01*
X-2506Y10178D01*
X-2479Y10164D01*
X-2466Y10150D01*
X-2453Y10121D01*
X-2453Y10092D01*
X-2466Y10050D01*
X-2626Y9878D01*
X-2453Y9878D01*
X-2213Y10078D02*
X-2213Y9878D01*
X-2279Y10192D02*
X-2346Y9978D01*
X-2173Y9978D01*
X-2066Y9992D02*
X-1853Y9992D01*
X-1733Y9892D02*
X-1693Y9878D01*
X-1626Y9878D01*
X-1600Y9892D01*
X-1586Y9907D01*
X-1573Y9935D01*
X-1573Y9964D01*
X-1586Y9992D01*
X-1600Y10007D01*
X-1626Y10021D01*
X-1680Y10035D01*
X-1706Y10050D01*
X-1720Y10064D01*
X-1733Y10092D01*
X-1733Y10121D01*
X-1720Y10150D01*
X-1706Y10164D01*
X-1680Y10178D01*
X-1613Y10178D01*
X-1573Y10164D01*
X-1453Y9878D02*
X-1453Y10178D01*
X-1360Y9964D01*
X-1266Y10178D01*
X-1266Y9878D01*
X-1173Y10178D02*
X-1013Y10178D01*
X-1093Y9878D02*
X-1093Y10178D01*
G54D14*
X2114Y-7461D02*
X2114Y-7061D01*
X2266Y-7061D01*
X2304Y-7080D01*
X2323Y-7100D01*
X2342Y-7138D01*
X2342Y-7195D01*
X2323Y-7233D01*
X2304Y-7252D01*
X2266Y-7271D01*
X2114Y-7271D01*
X2723Y-7461D02*
X2495Y-7461D01*
X2609Y-7461D02*
X2609Y-7061D01*
X2571Y-7119D01*
X2533Y-7157D01*
X2495Y-7176D01*
X3066Y-7195D02*
X3066Y-7461D01*
X2971Y-7042D02*
X2876Y-7328D01*
X3123Y-7328D01*
G54D17*
G54D14*
X795Y-11911D02*
X566Y-11911D01*
X680Y-11911D02*
X680Y-11511D01*
X642Y-11569D01*
X604Y-11607D01*
X566Y-11626D01*
X947Y-11550D02*
X966Y-11530D01*
X1004Y-11511D01*
X1100Y-11511D01*
X1138Y-11530D01*
X1157Y-11550D01*
X1176Y-11588D01*
X1176Y-11626D01*
X1157Y-11683D01*
X928Y-11911D01*
X1176Y-11911D01*
X1290Y-11511D02*
X1423Y-11911D01*
X1557Y-11511D01*
X1595Y-11950D02*
X1900Y-11950D01*
X1995Y-11911D02*
X1995Y-11511D01*
X2185Y-11911D02*
X2185Y-11511D01*
X2414Y-11911D01*
X2414Y-11511D01*
G54D17*
G54D12*
X31661Y-3235D02*
X31261Y-3235D01*
X31261Y-3083D01*
X31280Y-3045D01*
X31300Y-3026D01*
X31338Y-3007D01*
X31395Y-3007D01*
X31433Y-3026D01*
X31452Y-3045D01*
X31471Y-3083D01*
X31471Y-3235D01*
X31661Y-2626D02*
X31661Y-2854D01*
X31661Y-2740D02*
X31261Y-2740D01*
X31319Y-2778D01*
X31357Y-2816D01*
X31376Y-2854D01*
X31261Y-2378D02*
X31261Y-2340D01*
X31280Y-2302D01*
X31300Y-2283D01*
X31338Y-2264D01*
X31414Y-2245D01*
X31509Y-2245D01*
X31585Y-2264D01*
X31623Y-2283D01*
X31642Y-2302D01*
X31661Y-2340D01*
X31661Y-2378D01*
X31642Y-2416D01*
X31623Y-2435D01*
X31585Y-2454D01*
X31509Y-2473D01*
X31414Y-2473D01*
X31338Y-2454D01*
X31300Y-2435D01*
X31280Y-2416D01*
X31261Y-2378D01*
G54D22*
X12554Y5109D02*
X12460Y5049D01*
X12554Y5006D02*
X12357Y5006D01*
X12357Y5075D01*
X12367Y5092D01*
X12376Y5100D01*
X12395Y5109D01*
X12423Y5109D01*
X12442Y5100D01*
X12451Y5092D01*
X12460Y5075D01*
X12460Y5006D01*
X12357Y5169D02*
X12357Y5280D01*
X12432Y5220D01*
X12432Y5246D01*
X12442Y5263D01*
X12451Y5272D01*
X12470Y5280D01*
X12517Y5280D01*
X12535Y5272D01*
X12545Y5263D01*
X12554Y5246D01*
X12554Y5195D01*
X12545Y5177D01*
X12535Y5169D01*
X12357Y5435D02*
X12357Y5400D01*
X12367Y5383D01*
X12376Y5375D01*
X12404Y5357D01*
X12442Y5349D01*
X12517Y5349D01*
X12535Y5357D01*
X12545Y5366D01*
X12554Y5383D01*
X12554Y5417D01*
X12545Y5435D01*
X12535Y5443D01*
X12517Y5452D01*
X12470Y5452D01*
X12451Y5443D01*
X12442Y5435D01*
X12432Y5417D01*
X12432Y5383D01*
X12442Y5366D01*
X12451Y5357D01*
X12470Y5349D01*
X13049Y5151D02*
X13049Y5168D01*
X13059Y5185D01*
X13069Y5194D01*
X13088Y5202D01*
X13126Y5211D01*
X13173Y5211D01*
X13211Y5202D01*
X13230Y5194D01*
X13240Y5185D01*
X13249Y5168D01*
X13249Y5151D01*
X13240Y5134D01*
X13230Y5125D01*
X13211Y5117D01*
X13173Y5108D01*
X13126Y5108D01*
X13088Y5117D01*
X13069Y5125D01*
X13059Y5134D01*
X13049Y5151D01*
X13249Y5391D02*
X13154Y5331D01*
X13249Y5288D02*
X13049Y5288D01*
X13049Y5357D01*
X13059Y5374D01*
X13069Y5382D01*
X13088Y5391D01*
X13116Y5391D01*
X13135Y5382D01*
X13145Y5374D01*
X13154Y5357D01*
X13154Y5288D01*
X12554Y5859D02*
X12460Y5799D01*
X12554Y5756D02*
X12357Y5756D01*
X12357Y5825D01*
X12367Y5842D01*
X12376Y5850D01*
X12395Y5859D01*
X12423Y5859D01*
X12442Y5850D01*
X12451Y5842D01*
X12460Y5825D01*
X12460Y5756D01*
X12357Y5919D02*
X12357Y6030D01*
X12432Y5970D01*
X12432Y5996D01*
X12442Y6013D01*
X12451Y6022D01*
X12470Y6030D01*
X12517Y6030D01*
X12535Y6022D01*
X12545Y6013D01*
X12554Y5996D01*
X12554Y5945D01*
X12545Y5927D01*
X12535Y5919D01*
X12357Y6090D02*
X12357Y6210D01*
X12554Y6133D01*
X13049Y5901D02*
X13049Y5918D01*
X13059Y5935D01*
X13069Y5944D01*
X13088Y5952D01*
X13126Y5961D01*
X13173Y5961D01*
X13211Y5952D01*
X13230Y5944D01*
X13240Y5935D01*
X13249Y5918D01*
X13249Y5901D01*
X13240Y5884D01*
X13230Y5875D01*
X13211Y5867D01*
X13173Y5858D01*
X13126Y5858D01*
X13088Y5867D01*
X13069Y5875D01*
X13059Y5884D01*
X13049Y5901D01*
X13249Y6141D02*
X13154Y6081D01*
X13249Y6038D02*
X13049Y6038D01*
X13049Y6107D01*
X13059Y6124D01*
X13069Y6132D01*
X13088Y6141D01*
X13116Y6141D01*
X13135Y6132D01*
X13145Y6124D01*
X13154Y6107D01*
X13154Y6038D01*
G54D11*
X3134Y-1012D02*
X3134Y-855D01*
X3171Y-855D01*
X3193Y-863D01*
X3208Y-877D01*
X3216Y-892D01*
X3223Y-922D01*
X3223Y-945D01*
X3216Y-975D01*
X3208Y-990D01*
X3193Y-1005D01*
X3171Y-1012D01*
X3134Y-1012D01*
X3276Y-855D02*
X3373Y-855D01*
X3321Y-915D01*
X3343Y-915D01*
X3358Y-922D01*
X3365Y-930D01*
X3373Y-945D01*
X3373Y-982D01*
X3365Y-997D01*
X3358Y-1005D01*
X3343Y-1012D01*
X3298Y-1012D01*
X3283Y-1005D01*
X3276Y-997D01*
X11134Y-6762D02*
X11134Y-6605D01*
X11171Y-6605D01*
X11193Y-6613D01*
X11208Y-6627D01*
X11216Y-6642D01*
X11223Y-6672D01*
X11223Y-6695D01*
X11216Y-6725D01*
X11208Y-6740D01*
X11193Y-6755D01*
X11171Y-6762D01*
X11134Y-6762D01*
X11276Y-6605D02*
X11380Y-6605D01*
X11313Y-6762D01*
G54D25*
X27750Y7971D02*
X27735Y7942D01*
X27707Y7914D01*
X27664Y7871D01*
X27650Y7842D01*
X27650Y7814D01*
X27721Y7828D02*
X27707Y7800D01*
X27678Y7771D01*
X27621Y7757D01*
X27521Y7757D01*
X27464Y7771D01*
X27435Y7800D01*
X27421Y7828D01*
X27421Y7885D01*
X27435Y7914D01*
X27464Y7942D01*
X27521Y7957D01*
X27621Y7957D01*
X27678Y7942D01*
X27707Y7914D01*
X27721Y7885D01*
X27721Y7828D01*
X27721Y8242D02*
X27721Y8071D01*
X27721Y8157D02*
X27421Y8157D01*
X27464Y8128D01*
X27492Y8100D01*
X27507Y8071D01*
X28014Y7450D02*
X28028Y7492D01*
X28042Y7507D01*
X28071Y7521D01*
X28114Y7521D01*
X28142Y7507D01*
X28157Y7492D01*
X28171Y7464D01*
X28171Y7350D01*
X27871Y7350D01*
X27871Y7450D01*
X27885Y7478D01*
X27900Y7492D01*
X27928Y7507D01*
X27957Y7507D01*
X27985Y7492D01*
X28000Y7478D01*
X28014Y7450D01*
X28014Y7350D01*
X28157Y7635D02*
X28171Y7678D01*
X28171Y7750D01*
X28157Y7778D01*
X28142Y7792D01*
X28114Y7807D01*
X28085Y7807D01*
X28057Y7792D01*
X28042Y7778D01*
X28028Y7750D01*
X28014Y7692D01*
X28000Y7664D01*
X27985Y7650D01*
X27957Y7635D01*
X27928Y7635D01*
X27900Y7650D01*
X27885Y7664D01*
X27871Y7692D01*
X27871Y7764D01*
X27885Y7807D01*
X28157Y7921D02*
X28171Y7964D01*
X28171Y8035D01*
X28157Y8064D01*
X28142Y8078D01*
X28114Y8092D01*
X28085Y8092D01*
X28057Y8078D01*
X28042Y8064D01*
X28028Y8035D01*
X28014Y7978D01*
X28000Y7950D01*
X27985Y7935D01*
X27957Y7921D01*
X27928Y7921D01*
X27900Y7935D01*
X27885Y7950D01*
X27871Y7978D01*
X27871Y8050D01*
X27885Y8092D01*
X28000Y8264D02*
X27985Y8235D01*
X27971Y8221D01*
X27942Y8207D01*
X27928Y8207D01*
X27900Y8221D01*
X27885Y8235D01*
X27871Y8264D01*
X27871Y8321D01*
X27885Y8350D01*
X27900Y8364D01*
X27928Y8378D01*
X27942Y8378D01*
X27971Y8364D01*
X27985Y8350D01*
X28000Y8321D01*
X28000Y8264D01*
X28014Y8235D01*
X28028Y8221D01*
X28057Y8207D01*
X28114Y8207D01*
X28142Y8221D01*
X28157Y8235D01*
X28171Y8264D01*
X28171Y8321D01*
X28157Y8350D01*
X28142Y8364D01*
X28114Y8378D01*
X28057Y8378D01*
X28028Y8364D01*
X28014Y8350D01*
X28000Y8321D01*
X27971Y8635D02*
X28171Y8635D01*
X27857Y8564D02*
X28071Y8492D01*
X28071Y8678D01*
G54D12*
X7014Y-10054D02*
X7500Y-10054D01*
X7557Y-10035D01*
X7586Y-10016D01*
X7614Y-9978D01*
X7614Y-9902D01*
X7586Y-9864D01*
X7557Y-9845D01*
X7500Y-9826D01*
X7014Y-9826D01*
X7072Y-9654D02*
X7043Y-9635D01*
X7014Y-9597D01*
X7014Y-9502D01*
X7043Y-9464D01*
X7072Y-9445D01*
X7129Y-9426D01*
X7186Y-9426D01*
X7272Y-9445D01*
X7614Y-9673D01*
X7614Y-9426D01*
X5891Y-12148D02*
X6120Y-12148D01*
X6005Y-12748D02*
X6005Y-12148D01*
X6253Y-12748D02*
X6253Y-12348D01*
X6253Y-12463D02*
X6272Y-12405D01*
X6291Y-12377D01*
X6329Y-12348D01*
X6367Y-12348D01*
X6672Y-12748D02*
X6672Y-12434D01*
X6653Y-12377D01*
X6615Y-12348D01*
X6539Y-12348D01*
X6501Y-12377D01*
X6672Y-12720D02*
X6634Y-12748D01*
X6539Y-12748D01*
X6501Y-12720D01*
X6482Y-12663D01*
X6482Y-12605D01*
X6501Y-12548D01*
X6539Y-12520D01*
X6634Y-12520D01*
X6672Y-12491D01*
X7034Y-12720D02*
X6996Y-12748D01*
X6920Y-12748D01*
X6882Y-12720D01*
X6863Y-12691D01*
X6843Y-12634D01*
X6843Y-12463D01*
X6863Y-12405D01*
X6882Y-12377D01*
X6920Y-12348D01*
X6996Y-12348D01*
X7034Y-12377D01*
X7263Y-12748D02*
X7224Y-12720D01*
X7205Y-12691D01*
X7186Y-12634D01*
X7186Y-12463D01*
X7205Y-12405D01*
X7224Y-12377D01*
X7263Y-12348D01*
X7320Y-12348D01*
X7358Y-12377D01*
X7377Y-12405D01*
X7396Y-12463D01*
X7396Y-12634D01*
X7377Y-12691D01*
X7358Y-12720D01*
X7320Y-12748D01*
X7263Y-12748D01*
X7815Y-12148D02*
X8043Y-12148D01*
X7929Y-12748D02*
X7929Y-12148D01*
X8158Y-12720D02*
X8215Y-12748D01*
X8310Y-12748D01*
X8348Y-12720D01*
X8367Y-12691D01*
X8386Y-12634D01*
X8386Y-12577D01*
X8367Y-12520D01*
X8348Y-12491D01*
X8310Y-12463D01*
X8234Y-12434D01*
X8196Y-12405D01*
X8177Y-12377D01*
X8158Y-12320D01*
X8158Y-12263D01*
X8177Y-12205D01*
X8196Y-12177D01*
X8234Y-12148D01*
X8329Y-12148D01*
X8386Y-12177D01*
X8786Y-12748D02*
X8653Y-12463D01*
X8558Y-12748D02*
X8558Y-12148D01*
X8710Y-12148D01*
X8748Y-12177D01*
X8767Y-12205D01*
X8786Y-12263D01*
X8786Y-12348D01*
X8767Y-12405D01*
X8748Y-12434D01*
X8710Y-12463D01*
X8558Y-12463D01*
X9472Y-12748D02*
X9243Y-12748D01*
X9358Y-12748D02*
X9358Y-12148D01*
X9320Y-12234D01*
X9282Y-12291D01*
X9243Y-12320D01*
X9643Y-12520D02*
X9948Y-12520D01*
X10120Y-12205D02*
X10139Y-12177D01*
X10177Y-12148D01*
X10272Y-12148D01*
X10310Y-12177D01*
X10329Y-12205D01*
X10348Y-12263D01*
X10348Y-12320D01*
X10329Y-12405D01*
X10101Y-12748D01*
X10348Y-12748D01*
X10691Y-12348D02*
X10691Y-12748D01*
X10596Y-12120D02*
X10501Y-12548D01*
X10748Y-12548D01*
X11091Y-12148D02*
X10901Y-12148D01*
X10882Y-12434D01*
X10901Y-12405D01*
X10939Y-12377D01*
X11034Y-12377D01*
X11072Y-12405D01*
X11091Y-12434D01*
X11110Y-12491D01*
X11110Y-12634D01*
X11091Y-12691D01*
X11072Y-12720D01*
X11034Y-12748D01*
X10939Y-12748D01*
X10901Y-12720D01*
X10882Y-12691D01*
X11358Y-12148D02*
X11396Y-12148D01*
X11434Y-12177D01*
X11453Y-12205D01*
X11472Y-12263D01*
X11491Y-12377D01*
X11491Y-12520D01*
X11472Y-12634D01*
X11453Y-12691D01*
X11434Y-12720D01*
X11396Y-12748D01*
X11358Y-12748D01*
X11320Y-12720D01*
X11301Y-12691D01*
X11282Y-12634D01*
X11263Y-12520D01*
X11263Y-12377D01*
X11282Y-12263D01*
X11301Y-12205D01*
X11320Y-12177D01*
X11358Y-12148D01*
G54D17*
X14010Y3389D02*
X14010Y3989D01*
X14267Y3389D02*
X14267Y3703D01*
X14238Y3760D01*
X14181Y3789D01*
X14096Y3789D01*
X14038Y3760D01*
X14010Y3732D01*
X14810Y3389D02*
X14810Y3703D01*
X14781Y3760D01*
X14724Y3789D01*
X14610Y3789D01*
X14553Y3760D01*
X14810Y3417D02*
X14753Y3389D01*
X14610Y3389D01*
X14553Y3417D01*
X14524Y3474D01*
X14524Y3532D01*
X14553Y3589D01*
X14610Y3617D01*
X14753Y3617D01*
X14810Y3646D01*
X15096Y3389D02*
X15096Y3789D01*
X15096Y3674D02*
X15124Y3732D01*
X15153Y3760D01*
X15210Y3789D01*
X15267Y3789D01*
X15724Y3389D02*
X15724Y3989D01*
X15724Y3417D02*
X15667Y3389D01*
X15553Y3389D01*
X15496Y3417D01*
X15467Y3446D01*
X15438Y3503D01*
X15438Y3674D01*
X15467Y3732D01*
X15496Y3760D01*
X15553Y3789D01*
X15667Y3789D01*
X15724Y3760D01*
X15953Y3789D02*
X16067Y3389D01*
X16181Y3674D01*
X16296Y3389D01*
X16410Y3789D01*
X16896Y3389D02*
X16896Y3703D01*
X16867Y3760D01*
X16810Y3789D01*
X16696Y3789D01*
X16638Y3760D01*
X16896Y3417D02*
X16838Y3389D01*
X16696Y3389D01*
X16638Y3417D01*
X16610Y3474D01*
X16610Y3532D01*
X16638Y3589D01*
X16696Y3617D01*
X16838Y3617D01*
X16896Y3646D01*
X17181Y3389D02*
X17181Y3789D01*
X17181Y3674D02*
X17210Y3732D01*
X17238Y3760D01*
X17296Y3789D01*
X17353Y3789D01*
X17781Y3417D02*
X17724Y3389D01*
X17610Y3389D01*
X17553Y3417D01*
X17524Y3474D01*
X17524Y3703D01*
X17553Y3760D01*
X17610Y3789D01*
X17724Y3789D01*
X17781Y3760D01*
X17810Y3703D01*
X17810Y3646D01*
X17524Y3589D01*
X13553Y4216D02*
X13496Y4244D01*
X13468Y4273D01*
X13439Y4330D01*
X13439Y4501D01*
X13468Y4559D01*
X13496Y4587D01*
X13553Y4616D01*
X13639Y4616D01*
X13696Y4587D01*
X13725Y4559D01*
X13753Y4501D01*
X13753Y4330D01*
X13725Y4273D01*
X13696Y4244D01*
X13639Y4216D01*
X13553Y4216D01*
X14011Y4616D02*
X14011Y4016D01*
X14011Y4587D02*
X14068Y4616D01*
X14182Y4616D01*
X14239Y4587D01*
X14268Y4559D01*
X14296Y4501D01*
X14296Y4330D01*
X14268Y4273D01*
X14239Y4244D01*
X14182Y4216D01*
X14068Y4216D01*
X14011Y4244D01*
X14782Y4244D02*
X14725Y4216D01*
X14611Y4216D01*
X14553Y4244D01*
X14525Y4301D01*
X14525Y4530D01*
X14553Y4587D01*
X14611Y4616D01*
X14725Y4616D01*
X14782Y4587D01*
X14811Y4530D01*
X14811Y4473D01*
X14525Y4416D01*
X15068Y4616D02*
X15068Y4216D01*
X15068Y4559D02*
X15096Y4587D01*
X15153Y4616D01*
X15239Y4616D01*
X15296Y4587D01*
X15325Y4530D01*
X15325Y4216D01*
X16039Y4244D02*
X16096Y4216D01*
X16211Y4216D01*
X16268Y4244D01*
X16296Y4301D01*
X16296Y4330D01*
X16268Y4387D01*
X16211Y4416D01*
X16125Y4416D01*
X16068Y4444D01*
X16039Y4501D01*
X16039Y4530D01*
X16068Y4587D01*
X16125Y4616D01*
X16211Y4616D01*
X16268Y4587D01*
X16639Y4216D02*
X16582Y4244D01*
X16553Y4273D01*
X16525Y4330D01*
X16525Y4501D01*
X16553Y4559D01*
X16582Y4587D01*
X16639Y4616D01*
X16725Y4616D01*
X16782Y4587D01*
X16811Y4559D01*
X16839Y4501D01*
X16839Y4330D01*
X16811Y4273D01*
X16782Y4244D01*
X16725Y4216D01*
X16639Y4216D01*
X17353Y4616D02*
X17353Y4216D01*
X17096Y4616D02*
X17096Y4301D01*
X17125Y4244D01*
X17182Y4216D01*
X17268Y4216D01*
X17325Y4244D01*
X17353Y4273D01*
X17639Y4216D02*
X17639Y4616D01*
X17639Y4501D02*
X17668Y4559D01*
X17696Y4587D01*
X17753Y4616D01*
X17811Y4616D01*
X18268Y4244D02*
X18211Y4216D01*
X18096Y4216D01*
X18039Y4244D01*
X18011Y4273D01*
X17982Y4330D01*
X17982Y4501D01*
X18011Y4559D01*
X18039Y4587D01*
X18096Y4616D01*
X18211Y4616D01*
X18268Y4587D01*
X18753Y4244D02*
X18696Y4216D01*
X18582Y4216D01*
X18525Y4244D01*
X18496Y4301D01*
X18496Y4530D01*
X18525Y4587D01*
X18582Y4616D01*
X18696Y4616D01*
X18753Y4587D01*
X18782Y4530D01*
X18782Y4473D01*
X18496Y4416D01*
G54D19*
X8880Y-2961D02*
X8880Y-3088D01*
X8887Y-3103D01*
X8895Y-3111D01*
X8910Y-3118D01*
X8940Y-3118D01*
X8955Y-3111D01*
X8962Y-3103D01*
X8970Y-3088D01*
X8970Y-2961D01*
X9029Y-2961D02*
X9134Y-2961D01*
X9067Y-3118D01*
X8611Y-5067D02*
X8536Y-5067D01*
X8536Y-4910D01*
X8641Y-4910D02*
X8730Y-4910D01*
X8686Y-5067D02*
X8686Y-4910D01*
X8872Y-5052D02*
X8865Y-5060D01*
X8843Y-5067D01*
X8828Y-5067D01*
X8805Y-5060D01*
X8790Y-5045D01*
X8783Y-5030D01*
X8775Y-5000D01*
X8775Y-4977D01*
X8783Y-4947D01*
X8790Y-4932D01*
X8805Y-4917D01*
X8828Y-4910D01*
X8843Y-4910D01*
X8865Y-4917D01*
X8872Y-4925D01*
X8925Y-4910D02*
X9022Y-4910D01*
X8970Y-4970D01*
X8992Y-4970D01*
X9007Y-4977D01*
X9014Y-4985D01*
X9022Y-5000D01*
X9022Y-5037D01*
X9014Y-5052D01*
X9007Y-5060D01*
X8992Y-5067D01*
X8947Y-5067D01*
X8932Y-5060D01*
X8925Y-5052D01*
X9164Y-4910D02*
X9089Y-4910D01*
X9082Y-4985D01*
X9089Y-4977D01*
X9104Y-4970D01*
X9142Y-4970D01*
X9157Y-4977D01*
X9164Y-4985D01*
X9171Y-5000D01*
X9171Y-5037D01*
X9164Y-5052D01*
X9157Y-5060D01*
X9142Y-5067D01*
X9104Y-5067D01*
X9089Y-5060D01*
X9082Y-5052D01*
X9314Y-4910D02*
X9239Y-4910D01*
X9231Y-4985D01*
X9239Y-4977D01*
X9254Y-4970D01*
X9291Y-4970D01*
X9306Y-4977D01*
X9314Y-4985D01*
X9321Y-5000D01*
X9321Y-5037D01*
X9314Y-5052D01*
X9306Y-5060D01*
X9291Y-5067D01*
X9254Y-5067D01*
X9239Y-5060D01*
X9231Y-5052D01*
X9373Y-4910D02*
X9470Y-4910D01*
X9418Y-4970D01*
X9441Y-4970D01*
X9456Y-4977D01*
X9463Y-4985D01*
X9470Y-5000D01*
X9470Y-5037D01*
X9463Y-5052D01*
X9456Y-5060D01*
X9441Y-5067D01*
X9396Y-5067D01*
X9381Y-5060D01*
X9373Y-5052D01*
G54D10*
X-579Y975D02*
X-561Y1031D01*
X-561Y1125D01*
X-579Y1162D01*
X-598Y1181D01*
X-636Y1200D01*
X-673Y1200D01*
X-711Y1181D01*
X-729Y1162D01*
X-748Y1125D01*
X-767Y1050D01*
X-786Y1012D01*
X-804Y993D01*
X-842Y975D01*
X-879Y975D01*
X-917Y993D01*
X-936Y1012D01*
X-954Y1050D01*
X-954Y1143D01*
X-936Y1200D01*
X-954Y1331D02*
X-561Y1425D01*
X-842Y1500D01*
X-561Y1574D01*
X-954Y1668D01*
X-954Y1781D02*
X-954Y2024D01*
X-804Y1893D01*
X-804Y1949D01*
X-786Y1987D01*
X-767Y2006D01*
X-729Y2024D01*
X-636Y2024D01*
X-598Y2006D01*
X-579Y1987D01*
X-561Y1949D01*
X-561Y1837D01*
X-579Y1799D01*
X-598Y1781D01*
X1821Y600D02*
X1840Y656D01*
X1840Y750D01*
X1821Y787D01*
X1802Y806D01*
X1765Y825D01*
X1727Y825D01*
X1690Y806D01*
X1671Y787D01*
X1652Y750D01*
X1634Y675D01*
X1615Y637D01*
X1596Y618D01*
X1559Y600D01*
X1521Y600D01*
X1484Y618D01*
X1465Y637D01*
X1446Y675D01*
X1446Y768D01*
X1465Y825D01*
X1446Y956D02*
X1840Y1050D01*
X1559Y1125D01*
X1840Y1200D01*
X1446Y1293D01*
X1877Y1350D02*
X1877Y1649D01*
X1446Y1818D02*
X1446Y1893D01*
X1465Y1931D01*
X1502Y1968D01*
X1577Y1987D01*
X1709Y1987D01*
X1784Y1968D01*
X1821Y1931D01*
X1840Y1893D01*
X1840Y1818D01*
X1821Y1781D01*
X1784Y1743D01*
X1709Y1724D01*
X1577Y1724D01*
X1502Y1743D01*
X1465Y1781D01*
X1446Y1818D01*
X1840Y2156D02*
X1446Y2156D01*
X1840Y2381D01*
X1446Y2381D01*
G54D12*
X29737Y-11936D02*
X29397Y-11936D01*
X29397Y-11814D01*
X29413Y-11783D01*
X29430Y-11768D01*
X29462Y-11753D01*
X29510Y-11753D01*
X29543Y-11768D01*
X29559Y-11783D01*
X29575Y-11814D01*
X29575Y-11936D01*
X29397Y-11646D02*
X29397Y-11433D01*
X29737Y-11570D01*
G54D24*
X29064Y-12330D02*
X29078Y-12290D01*
X29092Y-12276D01*
X29121Y-12263D01*
X29164Y-12263D01*
X29192Y-12276D01*
X29207Y-12290D01*
X29221Y-12316D01*
X29221Y-12423D01*
X28921Y-12423D01*
X28921Y-12330D01*
X28935Y-12303D01*
X28950Y-12290D01*
X28978Y-12276D01*
X29007Y-12276D01*
X29035Y-12290D01*
X29050Y-12303D01*
X29064Y-12330D01*
X29064Y-12423D01*
X29221Y-12023D02*
X29064Y-12023D01*
X29035Y-12036D01*
X29021Y-12063D01*
X29021Y-12116D01*
X29035Y-12143D01*
X29207Y-12023D02*
X29221Y-12050D01*
X29221Y-12116D01*
X29207Y-12143D01*
X29178Y-12156D01*
X29150Y-12156D01*
X29121Y-12143D01*
X29107Y-12116D01*
X29107Y-12050D01*
X29092Y-12023D01*
X29021Y-11930D02*
X29021Y-11823D01*
X28921Y-11890D02*
X29178Y-11890D01*
X29207Y-11876D01*
X29221Y-11850D01*
X29221Y-11823D01*
X29021Y-11770D02*
X29021Y-11663D01*
X28921Y-11730D02*
X29178Y-11730D01*
X29207Y-11716D01*
X29221Y-11690D01*
X29221Y-11663D01*
X29207Y-11463D02*
X29221Y-11490D01*
X29221Y-11543D01*
X29207Y-11570D01*
X29178Y-11583D01*
X29064Y-11583D01*
X29035Y-11570D01*
X29021Y-11543D01*
X29021Y-11490D01*
X29035Y-11463D01*
X29064Y-11450D01*
X29092Y-11450D01*
X29121Y-11583D01*
X29221Y-11330D02*
X29021Y-11330D01*
X29078Y-11330D02*
X29050Y-11316D01*
X29035Y-11303D01*
X29021Y-11276D01*
X29021Y-11250D01*
X29021Y-11183D02*
X29221Y-11116D01*
X29021Y-11049D02*
X29221Y-11116D01*
X29292Y-11143D01*
X29307Y-11156D01*
X29321Y-11183D01*
G54D22*
X8945Y-6054D02*
X8885Y-5960D01*
X8842Y-6054D02*
X8842Y-5857D01*
X8910Y-5857D01*
X8927Y-5867D01*
X8936Y-5876D01*
X8945Y-5895D01*
X8945Y-5923D01*
X8936Y-5942D01*
X8927Y-5951D01*
X8910Y-5960D01*
X8842Y-5960D01*
X9047Y-5942D02*
X9030Y-5932D01*
X9022Y-5923D01*
X9013Y-5904D01*
X9013Y-5895D01*
X9022Y-5876D01*
X9030Y-5867D01*
X9047Y-5857D01*
X9082Y-5857D01*
X9099Y-5867D01*
X9107Y-5876D01*
X9116Y-5895D01*
X9116Y-5904D01*
X9107Y-5923D01*
X9099Y-5932D01*
X9082Y-5942D01*
X9047Y-5942D01*
X9030Y-5951D01*
X9022Y-5960D01*
X9013Y-5979D01*
X9013Y-6017D01*
X9022Y-6035D01*
X9030Y-6045D01*
X9047Y-6054D01*
X9082Y-6054D01*
X9099Y-6045D01*
X9107Y-6035D01*
X9116Y-6017D01*
X9116Y-5979D01*
X9107Y-5960D01*
X9099Y-5951D01*
X9082Y-5942D01*
X8807Y-7030D02*
X8704Y-7030D01*
X8755Y-7030D02*
X8755Y-6830D01*
X8738Y-6859D01*
X8721Y-6878D01*
X8704Y-6888D01*
X8918Y-6830D02*
X8935Y-6830D01*
X8952Y-6840D01*
X8961Y-6850D01*
X8970Y-6869D01*
X8978Y-6907D01*
X8978Y-6954D01*
X8970Y-6992D01*
X8961Y-7011D01*
X8952Y-7021D01*
X8935Y-7030D01*
X8918Y-7030D01*
X8901Y-7021D01*
X8892Y-7011D01*
X8884Y-6992D01*
X8875Y-6954D01*
X8875Y-6907D01*
X8884Y-6869D01*
X8892Y-6850D01*
X8901Y-6840D01*
X8918Y-6830D01*
X9090Y-6830D02*
X9107Y-6830D01*
X9124Y-6840D01*
X9132Y-6850D01*
X9141Y-6869D01*
X9150Y-6907D01*
X9150Y-6954D01*
X9141Y-6992D01*
X9132Y-7011D01*
X9124Y-7021D01*
X9107Y-7030D01*
X9090Y-7030D01*
X9072Y-7021D01*
X9064Y-7011D01*
X9055Y-6992D01*
X9047Y-6954D01*
X9047Y-6907D01*
X9055Y-6869D01*
X9064Y-6850D01*
X9072Y-6840D01*
X9090Y-6830D01*
X9227Y-7030D02*
X9227Y-6830D01*
X9244Y-6954D02*
X9295Y-7030D01*
X9295Y-6897D02*
X9227Y-6973D01*
X12909Y-7354D02*
X12849Y-7260D01*
X12806Y-7354D02*
X12806Y-7157D01*
X12875Y-7157D01*
X12892Y-7167D01*
X12900Y-7176D01*
X12909Y-7195D01*
X12909Y-7223D01*
X12900Y-7242D01*
X12892Y-7251D01*
X12875Y-7260D01*
X12806Y-7260D01*
X13080Y-7354D02*
X12977Y-7354D01*
X13029Y-7354D02*
X13029Y-7157D01*
X13012Y-7185D01*
X12995Y-7204D01*
X12977Y-7214D01*
X13235Y-7223D02*
X13235Y-7354D01*
X13192Y-7148D02*
X13149Y-7289D01*
X13260Y-7289D01*
X12862Y-6528D02*
X12862Y-6661D01*
X12820Y-6452D02*
X12777Y-6595D01*
X12888Y-6595D01*
X12940Y-6461D02*
X13060Y-6461D01*
X12982Y-6661D01*
X13162Y-6461D02*
X13180Y-6461D01*
X13197Y-6471D01*
X13205Y-6481D01*
X13214Y-6500D01*
X13222Y-6538D01*
X13222Y-6585D01*
X13214Y-6623D01*
X13205Y-6642D01*
X13197Y-6652D01*
X13180Y-6661D01*
X13162Y-6661D01*
X13145Y-6652D01*
X13137Y-6642D01*
X13128Y-6623D01*
X13120Y-6585D01*
X13120Y-6538D01*
X13128Y-6500D01*
X13137Y-6481D01*
X13145Y-6471D01*
X13162Y-6461D01*
G54D15*
X12075Y-9278D02*
X12075Y-9042D01*
X12132Y-9042D01*
X12165Y-9053D01*
X12188Y-9076D01*
X12199Y-9098D01*
X12210Y-9143D01*
X12210Y-9177D01*
X12199Y-9222D01*
X12188Y-9244D01*
X12165Y-9267D01*
X12132Y-9278D01*
X12075Y-9278D01*
X12345Y-9143D02*
X12323Y-9132D01*
X12311Y-9121D01*
X12300Y-9098D01*
X12300Y-9087D01*
X12311Y-9065D01*
X12323Y-9053D01*
X12345Y-9042D01*
X12390Y-9042D01*
X12412Y-9053D01*
X12424Y-9065D01*
X12435Y-9087D01*
X12435Y-9098D01*
X12424Y-9121D01*
X12412Y-9132D01*
X12390Y-9143D01*
X12345Y-9143D01*
X12323Y-9154D01*
X12311Y-9166D01*
X12300Y-9188D01*
X12300Y-9233D01*
X12311Y-9256D01*
X12323Y-9267D01*
X12345Y-9278D01*
X12390Y-9278D01*
X12412Y-9267D01*
X12424Y-9256D01*
X12435Y-9233D01*
X12435Y-9188D01*
X12424Y-9166D01*
X12412Y-9154D01*
X12390Y-9143D01*
X11963Y-8351D02*
X11952Y-8362D01*
X11918Y-8373D01*
X11896Y-8373D01*
X11862Y-8362D01*
X11839Y-8339D01*
X11828Y-8317D01*
X11817Y-8272D01*
X11817Y-8238D01*
X11828Y-8193D01*
X11839Y-8171D01*
X11862Y-8148D01*
X11896Y-8137D01*
X11918Y-8137D01*
X11952Y-8148D01*
X11963Y-8160D01*
X12064Y-8373D02*
X12064Y-8137D01*
X12064Y-8249D02*
X12199Y-8249D01*
X12199Y-8373D02*
X12199Y-8137D01*
X12446Y-8373D02*
X12368Y-8261D01*
X12311Y-8373D02*
X12311Y-8137D01*
X12401Y-8137D01*
X12424Y-8148D01*
X12435Y-8160D01*
X12446Y-8182D01*
X12446Y-8216D01*
X12435Y-8238D01*
X12424Y-8249D01*
X12401Y-8261D01*
X12311Y-8261D01*
X12671Y-8148D02*
X12648Y-8137D01*
X12615Y-8137D01*
X12581Y-8148D01*
X12559Y-8171D01*
X12547Y-8193D01*
X12536Y-8238D01*
X12536Y-8272D01*
X12547Y-8317D01*
X12559Y-8339D01*
X12581Y-8362D01*
X12615Y-8373D01*
X12637Y-8373D01*
X12671Y-8362D01*
X12682Y-8351D01*
X12682Y-8272D01*
X12637Y-8272D01*
X3585Y5123D02*
X3595Y5113D01*
X3604Y5085D01*
X3604Y5067D01*
X3595Y5038D01*
X3576Y5020D01*
X3557Y5010D01*
X3520Y5001D01*
X3492Y5001D01*
X3454Y5010D01*
X3435Y5020D01*
X3417Y5038D01*
X3407Y5067D01*
X3407Y5085D01*
X3417Y5113D01*
X3426Y5123D01*
X3426Y5198D02*
X3417Y5207D01*
X3407Y5226D01*
X3407Y5273D01*
X3417Y5292D01*
X3426Y5301D01*
X3445Y5310D01*
X3464Y5310D01*
X3492Y5301D01*
X3604Y5189D01*
X3604Y5310D01*
X3407Y5376D02*
X3407Y5507D01*
X3604Y5423D01*
X5085Y5123D02*
X5095Y5113D01*
X5104Y5085D01*
X5104Y5067D01*
X5095Y5038D01*
X5076Y5020D01*
X5057Y5010D01*
X5020Y5001D01*
X4992Y5001D01*
X4954Y5010D01*
X4935Y5020D01*
X4917Y5038D01*
X4907Y5067D01*
X4907Y5085D01*
X4917Y5113D01*
X4926Y5123D01*
X4926Y5198D02*
X4917Y5207D01*
X4907Y5226D01*
X4907Y5273D01*
X4917Y5292D01*
X4926Y5301D01*
X4945Y5310D01*
X4964Y5310D01*
X4992Y5301D01*
X5104Y5189D01*
X5104Y5310D01*
X4992Y5423D02*
X4982Y5404D01*
X4973Y5395D01*
X4954Y5386D01*
X4945Y5386D01*
X4926Y5395D01*
X4917Y5404D01*
X4907Y5423D01*
X4907Y5461D01*
X4917Y5479D01*
X4926Y5489D01*
X4945Y5498D01*
X4954Y5498D01*
X4973Y5489D01*
X4982Y5479D01*
X4992Y5461D01*
X4992Y5423D01*
X5001Y5404D01*
X5010Y5395D01*
X5029Y5386D01*
X5067Y5386D01*
X5085Y5395D01*
X5095Y5404D01*
X5104Y5423D01*
X5104Y5461D01*
X5095Y5479D01*
X5085Y5489D01*
X5067Y5498D01*
X5029Y5498D01*
X5010Y5489D01*
X5001Y5479D01*
X4992Y5461D01*
X6821Y-4771D02*
X6821Y-5014D01*
X6835Y-5042D01*
X6850Y-5057D01*
X6878Y-5071D01*
X6935Y-5071D01*
X6964Y-5057D01*
X6978Y-5042D01*
X6992Y-5014D01*
X6992Y-4771D01*
X7264Y-4871D02*
X7264Y-5071D01*
X7192Y-4757D02*
X7121Y-4971D01*
X7307Y-4971D01*
G54D22*
X7354Y-6590D02*
X7260Y-6650D01*
X7354Y-6693D02*
X7157Y-6693D01*
X7157Y-6625D01*
X7167Y-6607D01*
X7176Y-6599D01*
X7195Y-6590D01*
X7223Y-6590D01*
X7242Y-6599D01*
X7251Y-6607D01*
X7260Y-6625D01*
X7260Y-6693D01*
X7157Y-6530D02*
X7157Y-6419D01*
X7232Y-6479D01*
X7232Y-6453D01*
X7242Y-6436D01*
X7251Y-6427D01*
X7270Y-6419D01*
X7317Y-6419D01*
X7335Y-6427D01*
X7345Y-6436D01*
X7354Y-6453D01*
X7354Y-6505D01*
X7345Y-6522D01*
X7335Y-6530D01*
X7223Y-6265D02*
X7354Y-6265D01*
X7148Y-6307D02*
X7289Y-6350D01*
X7289Y-6239D01*
X6461Y-6508D02*
X6461Y-6491D01*
X6471Y-6474D01*
X6481Y-6465D01*
X6500Y-6457D01*
X6538Y-6448D01*
X6585Y-6448D01*
X6623Y-6457D01*
X6642Y-6465D01*
X6652Y-6474D01*
X6661Y-6491D01*
X6661Y-6508D01*
X6652Y-6525D01*
X6642Y-6534D01*
X6623Y-6542D01*
X6585Y-6551D01*
X6538Y-6551D01*
X6500Y-6542D01*
X6481Y-6534D01*
X6471Y-6525D01*
X6461Y-6508D01*
X5134Y-4561D02*
X5125Y-4571D01*
X5100Y-4580D01*
X5082Y-4580D01*
X5057Y-4571D01*
X5040Y-4552D01*
X5031Y-4533D01*
X5022Y-4495D01*
X5022Y-4466D01*
X5031Y-4428D01*
X5040Y-4409D01*
X5057Y-4390D01*
X5082Y-4380D01*
X5100Y-4380D01*
X5125Y-4390D01*
X5134Y-4400D01*
X5202Y-4400D02*
X5211Y-4390D01*
X5228Y-4380D01*
X5271Y-4380D01*
X5288Y-4390D01*
X5297Y-4400D01*
X5305Y-4419D01*
X5305Y-4438D01*
X5297Y-4466D01*
X5194Y-4580D01*
X5305Y-4580D01*
X5417Y-4380D02*
X5434Y-4380D01*
X5451Y-4390D01*
X5460Y-4400D01*
X5468Y-4419D01*
X5477Y-4457D01*
X5477Y-4504D01*
X5468Y-4542D01*
X5460Y-4561D01*
X5451Y-4571D01*
X5434Y-4580D01*
X5417Y-4580D01*
X5400Y-4571D01*
X5391Y-4561D01*
X5382Y-4542D01*
X5374Y-4504D01*
X5374Y-4457D01*
X5382Y-4419D01*
X5391Y-4400D01*
X5400Y-4390D01*
X5417Y-4380D01*
X5220Y-5230D02*
X5117Y-5230D01*
X5168Y-5230D02*
X5168Y-5030D01*
X5151Y-5059D01*
X5134Y-5078D01*
X5117Y-5088D01*
X5374Y-5097D02*
X5374Y-5230D01*
X5297Y-5097D02*
X5297Y-5202D01*
X5305Y-5221D01*
X5322Y-5230D01*
X5348Y-5230D01*
X5365Y-5221D01*
X5374Y-5211D01*
G54D11*
X5384Y-6012D02*
X5384Y-5855D01*
X5421Y-5855D01*
X5443Y-5863D01*
X5458Y-5877D01*
X5466Y-5892D01*
X5473Y-5922D01*
X5473Y-5945D01*
X5466Y-5975D01*
X5458Y-5990D01*
X5443Y-6005D01*
X5421Y-6012D01*
X5384Y-6012D01*
X5608Y-5855D02*
X5578Y-5855D01*
X5563Y-5863D01*
X5556Y-5870D01*
X5541Y-5892D01*
X5533Y-5922D01*
X5533Y-5982D01*
X5541Y-5997D01*
X5548Y-6005D01*
X5563Y-6012D01*
X5593Y-6012D01*
X5608Y-6005D01*
X5615Y-5997D01*
X5623Y-5982D01*
X5623Y-5945D01*
X5615Y-5930D01*
X5608Y-5922D01*
X5593Y-5915D01*
X5563Y-5915D01*
X5548Y-5922D01*
X5541Y-5930D01*
X5533Y-5945D01*
G54D22*
X19159Y5395D02*
X19099Y5489D01*
X19056Y5395D02*
X19056Y5592D01*
X19125Y5592D01*
X19142Y5582D01*
X19150Y5573D01*
X19159Y5554D01*
X19159Y5526D01*
X19150Y5507D01*
X19142Y5498D01*
X19125Y5489D01*
X19056Y5489D01*
X19219Y5592D02*
X19330Y5592D01*
X19270Y5517D01*
X19296Y5517D01*
X19313Y5507D01*
X19322Y5498D01*
X19330Y5479D01*
X19330Y5432D01*
X19322Y5414D01*
X19313Y5404D01*
X19296Y5395D01*
X19245Y5395D01*
X19227Y5404D01*
X19219Y5414D01*
X19433Y5507D02*
X19416Y5517D01*
X19407Y5526D01*
X19399Y5545D01*
X19399Y5554D01*
X19407Y5573D01*
X19416Y5582D01*
X19433Y5592D01*
X19467Y5592D01*
X19485Y5582D01*
X19493Y5573D01*
X19502Y5554D01*
X19502Y5545D01*
X19493Y5526D01*
X19485Y5517D01*
X19467Y5507D01*
X19433Y5507D01*
X19416Y5498D01*
X19407Y5489D01*
X19399Y5470D01*
X19399Y5432D01*
X19407Y5414D01*
X19416Y5404D01*
X19433Y5395D01*
X19467Y5395D01*
X19485Y5404D01*
X19493Y5414D01*
X19502Y5432D01*
X19502Y5470D01*
X19493Y5489D01*
X19485Y5498D01*
X19467Y5507D01*
X19142Y6088D02*
X19040Y6088D01*
X19091Y6088D02*
X19091Y6288D01*
X19074Y6259D01*
X19057Y6240D01*
X19040Y6230D01*
X19254Y6288D02*
X19271Y6288D01*
X19288Y6278D01*
X19297Y6269D01*
X19305Y6249D01*
X19314Y6211D01*
X19314Y6164D01*
X19305Y6126D01*
X19297Y6107D01*
X19288Y6097D01*
X19271Y6088D01*
X19254Y6088D01*
X19237Y6097D01*
X19228Y6107D01*
X19220Y6126D01*
X19211Y6164D01*
X19211Y6211D01*
X19220Y6249D01*
X19228Y6269D01*
X19237Y6278D01*
X19254Y6288D01*
X19391Y6088D02*
X19391Y6288D01*
X19408Y6164D02*
X19460Y6088D01*
X19460Y6221D02*
X19391Y6145D01*
M02*
