G04 (created by PCBNEW (2013-07-07 BZR 4022)-stable) date 21/01/2015 21:24:29*
%MOIN*%
G04 Gerber Fmt 3.4, Leading zero omitted, Abs format*
%FSLAX34Y34*%
G01*
G70*
G90*
G04 APERTURE LIST*
%ADD10C,0.00590551*%
%ADD11R,0.0827X0.0827*%
%ADD12R,0.0748X0.0748*%
%ADD13C,0.0413*%
%ADD14R,0.04X0.04*%
%ADD15C,0.04*%
%ADD16O,0.06X0.0866*%
%ADD17O,0.06X0.0865*%
%ADD18R,0.0590551X0.0590551*%
%ADD19C,0.0590551*%
%ADD20C,0.083*%
%ADD21C,0.1969*%
%ADD22C,0.0984*%
%ADD23R,0.061X0.0394*%
%ADD24R,0.061X0.0276*%
%ADD25C,0.063*%
%ADD26C,0.0433*%
%ADD27R,0.1181X0.0787*%
%ADD28R,0.0787X0.06*%
%ADD29O,0.0787X0.06*%
%ADD30C,0.07*%
%ADD31R,0.07X0.07*%
%ADD32C,0.125984*%
%ADD33R,0.0705606X0.0705606*%
%ADD34C,0.0354*%
%ADD35R,0.0354X0.0354*%
G04 APERTURE END LIST*
G54D10*
X-82Y0D02*
X-82Y-12041D01*
X-82Y-12041D02*
X306Y-12098D01*
X306Y-12098D02*
X696Y-12154D01*
X696Y-12154D02*
X1086Y-12209D01*
X1086Y-12209D02*
X1476Y-12263D01*
X1476Y-12263D02*
X1866Y-12315D01*
X1866Y-12315D02*
X2256Y-12367D01*
X2256Y-12367D02*
X2647Y-12417D01*
X2647Y-12417D02*
X3037Y-12467D01*
X3037Y-12467D02*
X3428Y-12515D01*
X3428Y-12515D02*
X3819Y-12562D01*
X3819Y-12562D02*
X4210Y-12608D01*
X4210Y-12608D02*
X4601Y-12653D01*
X4601Y-12653D02*
X4992Y-12697D01*
X4992Y-12697D02*
X5384Y-12740D01*
X5384Y-12740D02*
X5775Y-12782D01*
X5775Y-12782D02*
X6167Y-12823D01*
X6167Y-12823D02*
X6559Y-12862D01*
X6559Y-12862D02*
X6950Y-12901D01*
X6950Y-12901D02*
X7342Y-12938D01*
X7342Y-12938D02*
X7734Y-12974D01*
X7734Y-12974D02*
X8126Y-13009D01*
X8126Y-13009D02*
X8519Y-13044D01*
X8519Y-13044D02*
X8911Y-13077D01*
X8911Y-13077D02*
X9303Y-13108D01*
X9303Y-13108D02*
X9696Y-13139D01*
X9696Y-13139D02*
X10088Y-13169D01*
X10088Y-13169D02*
X10481Y-13197D01*
X10481Y-13197D02*
X10874Y-13225D01*
X10874Y-13225D02*
X11267Y-13251D01*
X11267Y-13251D02*
X11660Y-13277D01*
X11660Y-13277D02*
X12053Y-13301D01*
X12053Y-13301D02*
X12446Y-13324D01*
X12446Y-13324D02*
X12839Y-13346D01*
X12839Y-13346D02*
X13232Y-13367D01*
X13232Y-13367D02*
X13625Y-13387D01*
X13625Y-13387D02*
X14018Y-13405D01*
X14018Y-13405D02*
X14412Y-13423D01*
X14412Y-13423D02*
X14805Y-13439D01*
X14805Y-13439D02*
X15198Y-13455D01*
X15198Y-13455D02*
X15592Y-13469D01*
X15592Y-13469D02*
X15985Y-13482D01*
X15985Y-13482D02*
X16379Y-13494D01*
X16379Y-13494D02*
X16772Y-13505D01*
X16772Y-13505D02*
X17166Y-13515D01*
X17166Y-13515D02*
X17559Y-13524D01*
X17559Y-13524D02*
X17953Y-13532D01*
X17953Y-13532D02*
X18347Y-13538D01*
X18347Y-13538D02*
X18740Y-13544D01*
X18740Y-13544D02*
X19134Y-13548D01*
X19134Y-13548D02*
X19255Y-13549D01*
X19255Y-13549D02*
X19255Y-11177D01*
X19255Y-11177D02*
X19319Y-10783D01*
X19319Y-10783D02*
X19505Y-10430D01*
X19505Y-10430D02*
X19792Y-10153D01*
X19792Y-10153D02*
X20152Y-9982D01*
X20152Y-9982D02*
X20548Y-9934D01*
X20548Y-9934D02*
X20939Y-10013D01*
X20939Y-10013D02*
X21285Y-10212D01*
X21285Y-10212D02*
X21550Y-10510D01*
X21550Y-10510D02*
X21707Y-10877D01*
X21707Y-10877D02*
X21744Y-11177D01*
X21744Y-11177D02*
X21744Y-13549D01*
X21744Y-13549D02*
X22137Y-13545D01*
X22137Y-13545D02*
X22531Y-13540D01*
X22531Y-13540D02*
X22925Y-13534D01*
X22925Y-13534D02*
X23318Y-13526D01*
X23318Y-13526D02*
X23712Y-13518D01*
X23712Y-13518D02*
X24105Y-13508D01*
X24105Y-13508D02*
X24499Y-13498D01*
X24499Y-13498D02*
X24893Y-13486D01*
X24893Y-13486D02*
X25286Y-13473D01*
X25286Y-13473D02*
X25679Y-13459D01*
X25679Y-13459D02*
X26073Y-13444D01*
X26073Y-13444D02*
X26466Y-13428D01*
X26466Y-13428D02*
X26860Y-13411D01*
X26860Y-13411D02*
X27253Y-13392D01*
X27253Y-13392D02*
X27646Y-13373D01*
X27646Y-13373D02*
X28039Y-13352D01*
X28039Y-13352D02*
X28432Y-13331D01*
X28432Y-13331D02*
X28825Y-13308D01*
X28825Y-13308D02*
X29218Y-13284D01*
X29218Y-13284D02*
X29611Y-13259D01*
X29611Y-13259D02*
X30004Y-13233D01*
X30004Y-13233D02*
X30397Y-13206D01*
X30397Y-13206D02*
X30696Y-13185D01*
X30696Y-13185D02*
X30696Y13185D01*
X30696Y13185D02*
X30304Y13213D01*
X30304Y13213D02*
X29911Y13239D01*
X29911Y13239D02*
X29518Y13265D01*
X29518Y13265D02*
X29125Y13290D01*
X29125Y13290D02*
X28732Y13314D01*
X28732Y13314D02*
X28339Y13336D01*
X28339Y13336D02*
X27946Y13357D01*
X27946Y13357D02*
X27553Y13378D01*
X27553Y13378D02*
X27160Y13397D01*
X27160Y13397D02*
X26766Y13415D01*
X26766Y13415D02*
X26373Y13432D01*
X26373Y13432D02*
X25980Y13448D01*
X25980Y13448D02*
X25586Y13463D01*
X25586Y13463D02*
X25193Y13476D01*
X25193Y13476D02*
X24799Y13489D01*
X24799Y13489D02*
X24406Y13500D01*
X24406Y13500D02*
X24012Y13511D01*
X24012Y13511D02*
X23618Y13520D01*
X23618Y13520D02*
X23225Y13528D01*
X23225Y13528D02*
X22831Y13535D01*
X22831Y13535D02*
X22438Y13541D01*
X22438Y13541D02*
X22044Y13546D01*
X22044Y13546D02*
X21744Y13549D01*
X21744Y13549D02*
X21744Y11177D01*
X21744Y11177D02*
X21680Y10783D01*
X21680Y10783D02*
X21494Y10430D01*
X21494Y10430D02*
X21207Y10153D01*
X21207Y10153D02*
X20847Y9982D01*
X20847Y9982D02*
X20451Y9934D01*
X20451Y9934D02*
X20060Y10013D01*
X20060Y10013D02*
X19714Y10212D01*
X19714Y10212D02*
X19449Y10510D01*
X19449Y10510D02*
X19292Y10877D01*
X19292Y10877D02*
X19255Y11177D01*
X19255Y11177D02*
X19255Y13549D01*
X19255Y13549D02*
X18862Y13545D01*
X18862Y13545D02*
X18468Y13540D01*
X18468Y13540D02*
X18074Y13534D01*
X18074Y13534D02*
X17681Y13526D01*
X17681Y13526D02*
X17287Y13518D01*
X17287Y13518D02*
X16894Y13508D01*
X16894Y13508D02*
X16500Y13498D01*
X16500Y13498D02*
X16106Y13486D01*
X16106Y13486D02*
X15713Y13473D01*
X15713Y13473D02*
X15320Y13459D01*
X15320Y13459D02*
X14926Y13444D01*
X14926Y13444D02*
X14533Y13428D01*
X14533Y13428D02*
X14139Y13411D01*
X14139Y13411D02*
X13746Y13392D01*
X13746Y13392D02*
X13353Y13373D01*
X13353Y13373D02*
X12960Y13352D01*
X12960Y13352D02*
X12567Y13331D01*
X12567Y13331D02*
X12174Y13308D01*
X12174Y13308D02*
X11781Y13284D01*
X11781Y13284D02*
X11388Y13259D01*
X11388Y13259D02*
X10995Y13233D01*
X10995Y13233D02*
X10602Y13206D01*
X10602Y13206D02*
X10209Y13178D01*
X10209Y13178D02*
X9817Y13148D01*
X9817Y13148D02*
X9424Y13118D01*
X9424Y13118D02*
X9032Y13086D01*
X9032Y13086D02*
X8640Y13054D01*
X8640Y13054D02*
X8247Y13020D01*
X8247Y13020D02*
X7855Y12985D01*
X7855Y12985D02*
X7463Y12949D01*
X7463Y12949D02*
X7071Y12912D01*
X7071Y12912D02*
X6679Y12874D01*
X6679Y12874D02*
X6288Y12835D01*
X6288Y12835D02*
X5896Y12795D01*
X5896Y12795D02*
X5504Y12753D01*
X5504Y12753D02*
X5113Y12711D01*
X5113Y12711D02*
X4722Y12667D01*
X4722Y12667D02*
X4331Y12622D01*
X4331Y12622D02*
X3940Y12577D01*
X3940Y12577D02*
X3549Y12530D01*
X3549Y12530D02*
X3158Y12482D01*
X3158Y12482D02*
X2767Y12433D01*
X2767Y12433D02*
X2377Y12382D01*
X2377Y12382D02*
X1986Y12331D01*
X1986Y12331D02*
X1596Y12279D01*
X1596Y12279D02*
X1206Y12225D01*
X1206Y12225D02*
X816Y12171D01*
X816Y12171D02*
X426Y12115D01*
X426Y12115D02*
X37Y12059D01*
X37Y12059D02*
X-82Y12041D01*
X-82Y12041D02*
X-82Y0D01*
G54D11*
X500Y-1077D03*
G54D12*
X500Y-4423D03*
G54D13*
X1681Y-3636D03*
X1681Y-1864D03*
G54D14*
X17000Y-12000D03*
G54D15*
X17000Y-12500D03*
X16500Y-12000D03*
X16500Y-12500D03*
X16000Y-12000D03*
X16000Y-12500D03*
X15500Y-12000D03*
X15500Y-12500D03*
X15000Y-12000D03*
X15000Y-12500D03*
G54D16*
X14000Y-9500D03*
X15000Y-9500D03*
X16000Y-9500D03*
X17000Y-9500D03*
X18000Y-9500D03*
X19000Y-9500D03*
X20000Y-9500D03*
X21000Y-9500D03*
X23000Y-9500D03*
X24000Y-9500D03*
X25000Y-9500D03*
X26000Y-9500D03*
X27000Y-9500D03*
X28000Y-9500D03*
G54D17*
X28000Y9500D03*
X27000Y9500D03*
X26000Y9500D03*
X25000Y9500D03*
X24000Y9500D03*
X23000Y9500D03*
X22000Y9500D03*
X21000Y9500D03*
X19400Y9500D03*
X18400Y9500D03*
X17400Y9500D03*
X16400Y9500D03*
X15400Y9500D03*
X14400Y9500D03*
X13400Y9500D03*
X12401Y9500D03*
X11400Y9500D03*
X10400Y9500D03*
G54D18*
X14000Y-10750D03*
G54D19*
X15000Y-10750D03*
X16000Y-10750D03*
X17000Y-10750D03*
G54D20*
X1372Y10250D03*
X4128Y10250D03*
G54D21*
X2500Y-9500D03*
X4980Y-9500D03*
X3760Y-11390D03*
G54D22*
X728Y-9500D03*
G54D23*
X12250Y-256D03*
X12250Y728D03*
X12250Y1712D03*
X12250Y2697D03*
X12250Y3681D03*
X12250Y-1240D03*
X12250Y-2225D03*
X12250Y-3182D03*
X12250Y-3851D03*
G54D24*
X12250Y-4363D03*
X12250Y-4835D03*
G54D25*
X11138Y3681D03*
G54D26*
X11138Y-4587D03*
G54D27*
X1325Y-5925D03*
X1325Y5925D03*
G54D28*
X30098Y-9500D03*
G54D29*
X28902Y-9500D03*
X30098Y-8500D03*
X28902Y-8500D03*
X30098Y-7500D03*
X28902Y-7500D03*
X30098Y-6500D03*
X28902Y-6500D03*
X30098Y-5500D03*
X28902Y-5500D03*
X30098Y-4500D03*
X28902Y-4500D03*
X30098Y-3500D03*
X28902Y-3500D03*
X30098Y-2500D03*
X28902Y-2500D03*
X30098Y-1500D03*
X28902Y-1500D03*
X30098Y-500D03*
X28902Y-500D03*
X30098Y500D03*
X28902Y500D03*
X30098Y1500D03*
X28902Y1500D03*
X30098Y2500D03*
X28902Y2500D03*
X30098Y3500D03*
X28902Y3500D03*
X30098Y4500D03*
X28902Y4500D03*
X30098Y5500D03*
X28902Y5500D03*
X30098Y6500D03*
X28902Y6500D03*
X30098Y7500D03*
X28902Y7500D03*
X30098Y8500D03*
X28902Y8500D03*
X30098Y9500D03*
X28902Y9500D03*
G54D30*
X8750Y-9750D03*
X8750Y-8750D03*
G54D31*
X8750Y-10750D03*
G54D32*
X10657Y11212D03*
X10657Y-11212D03*
X26405Y11440D03*
X26405Y-11440D03*
G54D33*
X9000Y-4000D03*
G54D34*
X28500Y-11750D03*
G54D35*
X28500Y-11258D03*
G54D34*
X28500Y-12242D03*
M02*
