G04 (created by PCBNEW (2013-07-07 BZR 4022)-stable) date 21/01/2015 21:24:28*
%MOIN*%
G04 Gerber Fmt 3.4, Leading zero omitted, Abs format*
%FSLAX34Y34*%
G01*
G70*
G90*
G04 APERTURE LIST*
%ADD10C,0.00590551*%
%ADD11R,0.0433X0.0551181*%
%ADD12R,0.0748X0.1142*%
%ADD13R,0.0827X0.0827*%
%ADD14R,0.0748X0.0748*%
%ADD15C,0.0413*%
%ADD16R,0.0531X0.0157*%
%ADD17R,0.0393701X0.0354331*%
%ADD18R,0.0563X0.0217*%
%ADD19R,0.055X0.035*%
%ADD20R,0.035X0.055*%
%ADD21R,0.045X0.025*%
%ADD22R,0.025X0.045*%
%ADD23R,0.04X0.04*%
%ADD24C,0.04*%
%ADD25R,0.058X0.0105*%
%ADD26R,0.0105X0.058*%
%ADD27R,0.0314X0.0314*%
%ADD28O,0.06X0.0866*%
%ADD29O,0.06X0.0865*%
%ADD30R,0.05X0.025*%
%ADD31R,0.0590551X0.0590551*%
%ADD32C,0.0590551*%
%ADD33C,0.083*%
%ADD34R,0.0866X0.1024*%
%ADD35R,0.1X0.11*%
%ADD36R,0.0748X0.1*%
%ADD37R,0.1181X0.1102*%
%ADD38C,0.1969*%
%ADD39C,0.0984*%
%ADD40C,0.063*%
%ADD41C,0.0433*%
%ADD42R,0.0787X0.06*%
%ADD43O,0.0787X0.06*%
%ADD44R,0.0512X0.0551*%
%ADD45R,0.036X0.036*%
%ADD46C,0.07*%
%ADD47R,0.07X0.07*%
%ADD48C,0.125984*%
%ADD49R,0.00787402X0.0314961*%
%ADD50R,0.0314961X0.00787402*%
%ADD51R,0.0649606X0.0649606*%
%ADD52R,0.0472441X0.0629921*%
%ADD53C,0.0354*%
%ADD54R,0.0354X0.0354*%
%ADD55R,0.0984X0.0768*%
%ADD56R,0.0394X0.0315*%
%ADD57C,0.025*%
%ADD58C,0.008*%
%ADD59C,0.006*%
G04 APERTURE END LIST*
G54D10*
X-82Y0D02*
X-82Y-12041D01*
X-82Y-12041D02*
X306Y-12098D01*
X306Y-12098D02*
X696Y-12154D01*
X696Y-12154D02*
X1086Y-12209D01*
X1086Y-12209D02*
X1476Y-12263D01*
X1476Y-12263D02*
X1866Y-12315D01*
X1866Y-12315D02*
X2256Y-12367D01*
X2256Y-12367D02*
X2647Y-12417D01*
X2647Y-12417D02*
X3037Y-12467D01*
X3037Y-12467D02*
X3428Y-12515D01*
X3428Y-12515D02*
X3819Y-12562D01*
X3819Y-12562D02*
X4210Y-12608D01*
X4210Y-12608D02*
X4601Y-12653D01*
X4601Y-12653D02*
X4992Y-12697D01*
X4992Y-12697D02*
X5384Y-12740D01*
X5384Y-12740D02*
X5775Y-12782D01*
X5775Y-12782D02*
X6167Y-12823D01*
X6167Y-12823D02*
X6559Y-12862D01*
X6559Y-12862D02*
X6950Y-12901D01*
X6950Y-12901D02*
X7342Y-12938D01*
X7342Y-12938D02*
X7734Y-12974D01*
X7734Y-12974D02*
X8126Y-13009D01*
X8126Y-13009D02*
X8519Y-13044D01*
X8519Y-13044D02*
X8911Y-13077D01*
X8911Y-13077D02*
X9303Y-13108D01*
X9303Y-13108D02*
X9696Y-13139D01*
X9696Y-13139D02*
X10088Y-13169D01*
X10088Y-13169D02*
X10481Y-13197D01*
X10481Y-13197D02*
X10874Y-13225D01*
X10874Y-13225D02*
X11267Y-13251D01*
X11267Y-13251D02*
X11660Y-13277D01*
X11660Y-13277D02*
X12053Y-13301D01*
X12053Y-13301D02*
X12446Y-13324D01*
X12446Y-13324D02*
X12839Y-13346D01*
X12839Y-13346D02*
X13232Y-13367D01*
X13232Y-13367D02*
X13625Y-13387D01*
X13625Y-13387D02*
X14018Y-13405D01*
X14018Y-13405D02*
X14412Y-13423D01*
X14412Y-13423D02*
X14805Y-13439D01*
X14805Y-13439D02*
X15198Y-13455D01*
X15198Y-13455D02*
X15592Y-13469D01*
X15592Y-13469D02*
X15985Y-13482D01*
X15985Y-13482D02*
X16379Y-13494D01*
X16379Y-13494D02*
X16772Y-13505D01*
X16772Y-13505D02*
X17166Y-13515D01*
X17166Y-13515D02*
X17559Y-13524D01*
X17559Y-13524D02*
X17953Y-13532D01*
X17953Y-13532D02*
X18347Y-13538D01*
X18347Y-13538D02*
X18740Y-13544D01*
X18740Y-13544D02*
X19134Y-13548D01*
X19134Y-13548D02*
X19255Y-13549D01*
X19255Y-13549D02*
X19255Y-11177D01*
X19255Y-11177D02*
X19319Y-10783D01*
X19319Y-10783D02*
X19505Y-10430D01*
X19505Y-10430D02*
X19792Y-10153D01*
X19792Y-10153D02*
X20152Y-9982D01*
X20152Y-9982D02*
X20548Y-9934D01*
X20548Y-9934D02*
X20939Y-10013D01*
X20939Y-10013D02*
X21285Y-10212D01*
X21285Y-10212D02*
X21550Y-10510D01*
X21550Y-10510D02*
X21707Y-10877D01*
X21707Y-10877D02*
X21744Y-11177D01*
X21744Y-11177D02*
X21744Y-13549D01*
X21744Y-13549D02*
X22137Y-13545D01*
X22137Y-13545D02*
X22531Y-13540D01*
X22531Y-13540D02*
X22925Y-13534D01*
X22925Y-13534D02*
X23318Y-13526D01*
X23318Y-13526D02*
X23712Y-13518D01*
X23712Y-13518D02*
X24105Y-13508D01*
X24105Y-13508D02*
X24499Y-13498D01*
X24499Y-13498D02*
X24893Y-13486D01*
X24893Y-13486D02*
X25286Y-13473D01*
X25286Y-13473D02*
X25679Y-13459D01*
X25679Y-13459D02*
X26073Y-13444D01*
X26073Y-13444D02*
X26466Y-13428D01*
X26466Y-13428D02*
X26860Y-13411D01*
X26860Y-13411D02*
X27253Y-13392D01*
X27253Y-13392D02*
X27646Y-13373D01*
X27646Y-13373D02*
X28039Y-13352D01*
X28039Y-13352D02*
X28432Y-13331D01*
X28432Y-13331D02*
X28825Y-13308D01*
X28825Y-13308D02*
X29218Y-13284D01*
X29218Y-13284D02*
X29611Y-13259D01*
X29611Y-13259D02*
X30004Y-13233D01*
X30004Y-13233D02*
X30397Y-13206D01*
X30397Y-13206D02*
X30696Y-13185D01*
X30696Y-13185D02*
X30696Y13185D01*
X30696Y13185D02*
X30304Y13213D01*
X30304Y13213D02*
X29911Y13239D01*
X29911Y13239D02*
X29518Y13265D01*
X29518Y13265D02*
X29125Y13290D01*
X29125Y13290D02*
X28732Y13314D01*
X28732Y13314D02*
X28339Y13336D01*
X28339Y13336D02*
X27946Y13357D01*
X27946Y13357D02*
X27553Y13378D01*
X27553Y13378D02*
X27160Y13397D01*
X27160Y13397D02*
X26766Y13415D01*
X26766Y13415D02*
X26373Y13432D01*
X26373Y13432D02*
X25980Y13448D01*
X25980Y13448D02*
X25586Y13463D01*
X25586Y13463D02*
X25193Y13476D01*
X25193Y13476D02*
X24799Y13489D01*
X24799Y13489D02*
X24406Y13500D01*
X24406Y13500D02*
X24012Y13511D01*
X24012Y13511D02*
X23618Y13520D01*
X23618Y13520D02*
X23225Y13528D01*
X23225Y13528D02*
X22831Y13535D01*
X22831Y13535D02*
X22438Y13541D01*
X22438Y13541D02*
X22044Y13546D01*
X22044Y13546D02*
X21744Y13549D01*
X21744Y13549D02*
X21744Y11177D01*
X21744Y11177D02*
X21680Y10783D01*
X21680Y10783D02*
X21494Y10430D01*
X21494Y10430D02*
X21207Y10153D01*
X21207Y10153D02*
X20847Y9982D01*
X20847Y9982D02*
X20451Y9934D01*
X20451Y9934D02*
X20060Y10013D01*
X20060Y10013D02*
X19714Y10212D01*
X19714Y10212D02*
X19449Y10510D01*
X19449Y10510D02*
X19292Y10877D01*
X19292Y10877D02*
X19255Y11177D01*
X19255Y11177D02*
X19255Y13549D01*
X19255Y13549D02*
X18862Y13545D01*
X18862Y13545D02*
X18468Y13540D01*
X18468Y13540D02*
X18074Y13534D01*
X18074Y13534D02*
X17681Y13526D01*
X17681Y13526D02*
X17287Y13518D01*
X17287Y13518D02*
X16894Y13508D01*
X16894Y13508D02*
X16500Y13498D01*
X16500Y13498D02*
X16106Y13486D01*
X16106Y13486D02*
X15713Y13473D01*
X15713Y13473D02*
X15320Y13459D01*
X15320Y13459D02*
X14926Y13444D01*
X14926Y13444D02*
X14533Y13428D01*
X14533Y13428D02*
X14139Y13411D01*
X14139Y13411D02*
X13746Y13392D01*
X13746Y13392D02*
X13353Y13373D01*
X13353Y13373D02*
X12960Y13352D01*
X12960Y13352D02*
X12567Y13331D01*
X12567Y13331D02*
X12174Y13308D01*
X12174Y13308D02*
X11781Y13284D01*
X11781Y13284D02*
X11388Y13259D01*
X11388Y13259D02*
X10995Y13233D01*
X10995Y13233D02*
X10602Y13206D01*
X10602Y13206D02*
X10209Y13178D01*
X10209Y13178D02*
X9817Y13148D01*
X9817Y13148D02*
X9424Y13118D01*
X9424Y13118D02*
X9032Y13086D01*
X9032Y13086D02*
X8640Y13054D01*
X8640Y13054D02*
X8247Y13020D01*
X8247Y13020D02*
X7855Y12985D01*
X7855Y12985D02*
X7463Y12949D01*
X7463Y12949D02*
X7071Y12912D01*
X7071Y12912D02*
X6679Y12874D01*
X6679Y12874D02*
X6288Y12835D01*
X6288Y12835D02*
X5896Y12795D01*
X5896Y12795D02*
X5504Y12753D01*
X5504Y12753D02*
X5113Y12711D01*
X5113Y12711D02*
X4722Y12667D01*
X4722Y12667D02*
X4331Y12622D01*
X4331Y12622D02*
X3940Y12577D01*
X3940Y12577D02*
X3549Y12530D01*
X3549Y12530D02*
X3158Y12482D01*
X3158Y12482D02*
X2767Y12433D01*
X2767Y12433D02*
X2377Y12382D01*
X2377Y12382D02*
X1986Y12331D01*
X1986Y12331D02*
X1596Y12279D01*
X1596Y12279D02*
X1206Y12225D01*
X1206Y12225D02*
X816Y12171D01*
X816Y12171D02*
X426Y12115D01*
X426Y12115D02*
X37Y12059D01*
X37Y12059D02*
X-82Y12041D01*
X-82Y12041D02*
X-82Y0D01*
G54D11*
X26935Y-27D03*
X27564Y-972D03*
X26935Y-972D03*
X27564Y-27D03*
G54D12*
X500Y-2750D03*
G54D13*
X500Y-1077D03*
G54D14*
X500Y-4423D03*
G54D15*
X1681Y-3636D03*
X1681Y-1864D03*
G54D16*
X1543Y-2750D03*
X1543Y-3006D03*
X1543Y-3262D03*
X1543Y-2494D03*
X1543Y-2238D03*
G54D17*
X25314Y-12557D03*
X24685Y-12557D03*
X25314Y-10942D03*
X24685Y-10942D03*
X22435Y-10942D03*
X23064Y-10942D03*
X22435Y-12557D03*
X23064Y-12557D03*
G54D18*
X6106Y6750D03*
X6106Y6250D03*
X6106Y5750D03*
X6106Y5250D03*
X6106Y4750D03*
X6106Y4250D03*
X6106Y3750D03*
X6106Y3250D03*
X6106Y2750D03*
X6106Y2250D03*
X6106Y1750D03*
X6106Y1250D03*
X6106Y750D03*
X6106Y250D03*
X9894Y250D03*
X9894Y750D03*
X9894Y1250D03*
X9894Y1750D03*
X9894Y2250D03*
X9894Y2750D03*
X9894Y3250D03*
X9894Y3750D03*
X9894Y4250D03*
X9894Y4750D03*
X9894Y5250D03*
X9894Y5750D03*
X9894Y6250D03*
X9894Y6750D03*
G54D19*
X3250Y7875D03*
X3250Y7125D03*
X2250Y7875D03*
X2250Y7125D03*
G54D20*
X25625Y5250D03*
X26375Y5250D03*
G54D21*
X18500Y5200D03*
X18500Y5800D03*
G54D22*
X25700Y1500D03*
X26300Y1500D03*
X25700Y750D03*
X26300Y750D03*
G54D21*
X22500Y-5950D03*
X22500Y-6550D03*
G54D22*
X2950Y-2500D03*
X3550Y-2500D03*
G54D21*
X23250Y-5950D03*
X23250Y-6550D03*
G54D22*
X3550Y-3250D03*
X2950Y-3250D03*
G54D21*
X25500Y-5950D03*
X25500Y-6550D03*
X24750Y-5950D03*
X24750Y-6550D03*
X15750Y-5950D03*
X15750Y-6550D03*
X17250Y-5950D03*
X17250Y-6550D03*
X14000Y-6950D03*
X14000Y-7550D03*
G54D22*
X4200Y7000D03*
X4800Y7000D03*
X25700Y0D03*
X26300Y0D03*
X25700Y-750D03*
X26300Y-750D03*
X12800Y3000D03*
X12200Y3000D03*
X12800Y2250D03*
X12200Y2250D03*
X1300Y7000D03*
X700Y7000D03*
X25700Y-2750D03*
X26300Y-2750D03*
G54D21*
X21000Y-5950D03*
X21000Y-6550D03*
G54D22*
X12800Y4500D03*
X12200Y4500D03*
G54D21*
X20250Y-6550D03*
X20250Y-5950D03*
G54D22*
X12200Y3750D03*
X12800Y3750D03*
G54D21*
X19500Y-6550D03*
X19500Y-5950D03*
G54D22*
X12800Y-250D03*
X12200Y-250D03*
X7050Y-5500D03*
X6450Y-5500D03*
X7050Y-3500D03*
X6450Y-3500D03*
G54D21*
X11500Y-2050D03*
X11500Y-1450D03*
G54D22*
X4200Y7750D03*
X4800Y7750D03*
X11700Y-3000D03*
X12300Y-3000D03*
X1300Y7750D03*
X700Y7750D03*
G54D21*
X4000Y700D03*
X4000Y1300D03*
G54D22*
X12200Y8250D03*
X12800Y8250D03*
X12200Y1500D03*
X12800Y1500D03*
G54D21*
X3250Y700D03*
X3250Y1300D03*
G54D22*
X12200Y6750D03*
X12800Y6750D03*
X12200Y750D03*
X12800Y750D03*
X12200Y7500D03*
X12800Y7500D03*
G54D21*
X4750Y700D03*
X4750Y1300D03*
X22000Y5200D03*
X22000Y5800D03*
G54D22*
X25700Y4500D03*
X26300Y4500D03*
X25700Y3750D03*
X26300Y3750D03*
X14300Y-3750D03*
X13700Y-3750D03*
X25700Y-3500D03*
X26300Y-3500D03*
X25700Y3000D03*
X26300Y3000D03*
X25700Y2250D03*
X26300Y2250D03*
G54D21*
X24000Y-5950D03*
X24000Y-6550D03*
G54D22*
X14300Y-3000D03*
X13700Y-3000D03*
G54D21*
X17000Y5200D03*
X17000Y5800D03*
G54D22*
X26950Y1500D03*
X27550Y1500D03*
X25700Y-2000D03*
X26300Y-2000D03*
X14300Y-2000D03*
X13700Y-2000D03*
G54D21*
X17750Y5200D03*
X17750Y5800D03*
G54D22*
X26950Y750D03*
X27550Y750D03*
X26950Y-1750D03*
X27550Y-1750D03*
G54D23*
X17000Y-12000D03*
G54D24*
X17000Y-12500D03*
X16500Y-12000D03*
X16500Y-12500D03*
X16000Y-12000D03*
X16000Y-12500D03*
X15500Y-12000D03*
X15500Y-12500D03*
X15000Y-12000D03*
X15000Y-12500D03*
G54D25*
X23100Y-2364D03*
G54D26*
X22364Y3100D03*
G54D25*
X16900Y2364D03*
G54D26*
X17636Y-3100D03*
G54D25*
X23100Y-2167D03*
G54D26*
X22167Y3100D03*
G54D25*
X16900Y2167D03*
G54D26*
X17833Y-3100D03*
G54D25*
X23100Y-1970D03*
G54D26*
X21970Y3100D03*
G54D25*
X16900Y1970D03*
G54D26*
X18030Y-3100D03*
G54D25*
X23100Y-1773D03*
G54D26*
X21773Y3100D03*
G54D25*
X16900Y1773D03*
G54D26*
X18227Y-3100D03*
G54D25*
X23100Y-1576D03*
G54D26*
X21576Y3100D03*
G54D25*
X16900Y1576D03*
G54D26*
X18424Y-3100D03*
G54D25*
X23100Y-1379D03*
G54D26*
X21379Y3100D03*
G54D25*
X16900Y1379D03*
G54D26*
X18621Y-3100D03*
G54D25*
X23100Y-1182D03*
G54D26*
X21182Y3100D03*
G54D25*
X16900Y1182D03*
G54D26*
X18818Y-3100D03*
G54D25*
X23100Y-985D03*
G54D26*
X20985Y3100D03*
G54D25*
X16900Y985D03*
G54D26*
X19015Y-3100D03*
G54D25*
X23100Y-788D03*
G54D26*
X20788Y3100D03*
G54D25*
X16900Y788D03*
G54D26*
X19212Y-3100D03*
G54D25*
X23100Y-591D03*
G54D26*
X20591Y3100D03*
G54D25*
X16900Y591D03*
G54D26*
X19409Y-3100D03*
G54D25*
X23100Y-394D03*
G54D26*
X20394Y3100D03*
G54D25*
X16900Y394D03*
G54D26*
X19606Y-3100D03*
G54D25*
X23100Y-197D03*
G54D26*
X20197Y3100D03*
G54D25*
X16900Y197D03*
G54D26*
X19803Y-3100D03*
G54D25*
X23100Y0D03*
G54D26*
X20000Y3100D03*
G54D25*
X16900Y0D03*
G54D26*
X20000Y-3100D03*
G54D25*
X23100Y197D03*
G54D26*
X19803Y3100D03*
G54D25*
X16900Y-197D03*
G54D26*
X20197Y-3100D03*
G54D25*
X23100Y394D03*
G54D26*
X19606Y3100D03*
G54D25*
X16900Y-394D03*
G54D26*
X20394Y-3100D03*
G54D25*
X23100Y591D03*
G54D26*
X19409Y3100D03*
G54D25*
X16900Y-591D03*
G54D26*
X20591Y-3100D03*
G54D25*
X23100Y788D03*
G54D26*
X19212Y3100D03*
G54D25*
X16900Y-788D03*
G54D26*
X20788Y-3100D03*
G54D25*
X23100Y985D03*
G54D26*
X19015Y3100D03*
G54D25*
X16900Y-985D03*
G54D26*
X20985Y-3100D03*
G54D25*
X23100Y1182D03*
G54D26*
X18818Y3100D03*
G54D25*
X16900Y-1182D03*
G54D26*
X21182Y-3100D03*
G54D25*
X23100Y1379D03*
G54D26*
X18621Y3100D03*
G54D25*
X16900Y-1379D03*
G54D26*
X21379Y-3100D03*
G54D25*
X23100Y1576D03*
G54D26*
X18424Y3100D03*
G54D25*
X16900Y-1576D03*
G54D26*
X21576Y-3100D03*
G54D25*
X23100Y1773D03*
G54D26*
X18227Y3100D03*
G54D25*
X16900Y-1773D03*
G54D26*
X21773Y-3100D03*
G54D25*
X23100Y1970D03*
G54D26*
X18030Y3100D03*
G54D25*
X16900Y-1970D03*
G54D26*
X21970Y-3100D03*
G54D25*
X23100Y2167D03*
G54D26*
X17833Y3100D03*
G54D25*
X16900Y-2167D03*
G54D26*
X22167Y-3100D03*
G54D25*
X23100Y2364D03*
G54D26*
X17636Y3100D03*
G54D25*
X16900Y-2364D03*
G54D26*
X22364Y-3100D03*
G54D27*
X16955Y-8000D03*
X17545Y-8000D03*
X11295Y-8750D03*
X10705Y-8750D03*
X15455Y-8000D03*
X16045Y-8000D03*
G54D28*
X14000Y-9500D03*
X15000Y-9500D03*
X16000Y-9500D03*
X17000Y-9500D03*
X18000Y-9500D03*
X19000Y-9500D03*
X20000Y-9500D03*
X21000Y-9500D03*
X23000Y-9500D03*
X24000Y-9500D03*
X25000Y-9500D03*
X26000Y-9500D03*
X27000Y-9500D03*
X28000Y-9500D03*
G54D29*
X28000Y9500D03*
X27000Y9500D03*
X26000Y9500D03*
X25000Y9500D03*
X24000Y9500D03*
X23000Y9500D03*
X22000Y9500D03*
X21000Y9500D03*
X19400Y9500D03*
X18400Y9500D03*
X17400Y9500D03*
X16400Y9500D03*
X15400Y9500D03*
X14400Y9500D03*
X13400Y9500D03*
X12401Y9500D03*
X11400Y9500D03*
X10400Y9500D03*
G54D30*
X20900Y8500D03*
X20900Y8000D03*
X20900Y7500D03*
X20900Y7000D03*
X23100Y7000D03*
X23100Y7500D03*
X23100Y8000D03*
X23100Y8500D03*
G54D22*
X11950Y-4750D03*
X12550Y-4750D03*
X11700Y-3750D03*
X12300Y-3750D03*
G54D21*
X11000Y-3200D03*
X11000Y-3800D03*
G54D22*
X7050Y-2750D03*
X6450Y-2750D03*
G54D21*
X8750Y-2050D03*
X8750Y-1450D03*
X8000Y-1450D03*
X8000Y-2050D03*
G54D31*
X14000Y-10750D03*
G54D32*
X15000Y-10750D03*
X16000Y-10750D03*
X17000Y-10750D03*
G54D33*
X1372Y10250D03*
X4128Y10250D03*
G54D34*
X939Y8931D03*
G54D35*
X4679Y8833D03*
G54D36*
X1769Y11563D03*
G54D37*
X6215Y10526D03*
G54D38*
X2500Y-9500D03*
X4980Y-9500D03*
X3760Y-11390D03*
G54D39*
X728Y-9500D03*
G54D40*
X11138Y3681D03*
G54D41*
X11138Y-4587D03*
G54D42*
X30098Y-9500D03*
G54D43*
X28902Y-9500D03*
X30098Y-8500D03*
X28902Y-8500D03*
X30098Y-7500D03*
X28902Y-7500D03*
X30098Y-6500D03*
X28902Y-6500D03*
X30098Y-5500D03*
X28902Y-5500D03*
X30098Y-4500D03*
X28902Y-4500D03*
X30098Y-3500D03*
X28902Y-3500D03*
X30098Y-2500D03*
X28902Y-2500D03*
X30098Y-1500D03*
X28902Y-1500D03*
X30098Y-500D03*
X28902Y-500D03*
X30098Y500D03*
X28902Y500D03*
X30098Y1500D03*
X28902Y1500D03*
X30098Y2500D03*
X28902Y2500D03*
X30098Y3500D03*
X28902Y3500D03*
X30098Y4500D03*
X28902Y4500D03*
X30098Y5500D03*
X28902Y5500D03*
X30098Y6500D03*
X28902Y6500D03*
X30098Y7500D03*
X28902Y7500D03*
X30098Y8500D03*
X28902Y8500D03*
X30098Y9500D03*
X28902Y9500D03*
G54D22*
X12800Y5250D03*
X12200Y5250D03*
X12800Y6000D03*
X12200Y6000D03*
G54D44*
X3821Y-1500D03*
X2679Y-1500D03*
X11821Y-7250D03*
X10679Y-7250D03*
G54D45*
X27150Y8350D03*
X27150Y7650D03*
X26350Y8000D03*
G54D46*
X8750Y-9750D03*
X8750Y-8750D03*
G54D47*
X8750Y-10750D03*
G54D48*
X10657Y11212D03*
X10657Y-11212D03*
X26405Y11440D03*
X26405Y-11440D03*
G54D49*
X8685Y-4570D03*
X8842Y-4570D03*
X9000Y-4570D03*
X9157Y-4570D03*
G54D50*
X9570Y-4314D03*
X9570Y-4157D03*
X9570Y-4000D03*
X9570Y-3842D03*
X9570Y-3685D03*
G54D51*
X9000Y-4000D03*
G54D49*
X9314Y-3429D03*
X9157Y-3429D03*
X9000Y-3429D03*
X8842Y-3429D03*
X8685Y-3429D03*
G54D50*
X8429Y-3685D03*
X8429Y-3842D03*
X8429Y-4000D03*
X8429Y-4157D03*
X8429Y-4314D03*
G54D49*
X9314Y-4570D03*
G54D52*
X814Y2248D03*
X814Y751D03*
X185Y2248D03*
X185Y751D03*
G54D53*
X28500Y-11750D03*
G54D54*
X28500Y-11258D03*
G54D53*
X28500Y-12242D03*
G54D21*
X9000Y-6300D03*
X9000Y-5700D03*
X13000Y-6950D03*
X13000Y-7550D03*
G54D27*
X12545Y-8750D03*
X11955Y-8750D03*
G54D55*
X2750Y4650D03*
X2750Y5850D03*
X4250Y4650D03*
X4250Y5850D03*
G54D56*
X6933Y-4500D03*
X6067Y-4875D03*
X6067Y-4125D03*
G54D22*
X6950Y-6500D03*
X7550Y-6500D03*
G54D21*
X5250Y-4800D03*
X5250Y-4200D03*
G54D44*
X6071Y-6500D03*
X4929Y-6500D03*
G54D21*
X19250Y5800D03*
X19250Y5200D03*
G54D57*
X19240Y4780D03*
X19570Y2610D03*
X16002Y-8489D03*
X13853Y-2483D03*
X21635Y-9565D03*
X13621Y-11544D03*
X8019Y-3837D03*
X9011Y-6629D03*
X8835Y-5273D03*
X7593Y-3953D03*
X8705Y-2779D03*
X16553Y-3267D03*
X11177Y4319D03*
X16231Y-3273D03*
X10636Y3493D03*
X11054Y5250D03*
X6575Y3213D03*
X21040Y-3581D03*
X21587Y-5146D03*
X23735Y1778D03*
X24302Y-5627D03*
X14782Y-4049D03*
X18456Y-1767D03*
X19405Y394D03*
X21154Y164D03*
X27468Y2748D03*
X26923Y7015D03*
X21477Y1720D03*
X23397Y6313D03*
X20095Y1439D03*
X22310Y985D03*
X24774Y2626D03*
X24595Y2886D03*
X20189Y4373D03*
X11750Y-306D03*
X11863Y4233D03*
X12112Y-1626D03*
X19238Y-5038D03*
X20384Y-5075D03*
X11405Y198D03*
X10333Y5033D03*
X13912Y4518D03*
X11669Y2745D03*
X16858Y-4121D03*
X19565Y-860D03*
X22055Y-2593D03*
X19624Y-3616D03*
X21671Y477D03*
X22620Y-1082D03*
X19198Y2254D03*
X16886Y-5446D03*
X19838Y2377D03*
X17933Y-5601D03*
X26784Y7650D03*
X23011Y2979D03*
X785Y250D03*
X9163Y-4972D03*
X19768Y-427D03*
X22679Y2727D03*
X22606Y3353D03*
X17577Y-681D03*
X18064Y3956D03*
X18008Y3621D03*
X17822Y2013D03*
X17018Y-4746D03*
X18834Y-1330D03*
X22622Y416D03*
X23579Y572D03*
X24313Y301D03*
X24193Y810D03*
X21282Y2308D03*
X20585Y2270D03*
X18069Y-197D03*
X16417Y842D03*
X15643Y1433D03*
X19823Y-2509D03*
X17296Y-3480D03*
X17581Y-3700D03*
X13043Y-863D03*
X13554Y-863D03*
X18018Y-2599D03*
X18249Y-2388D03*
X17336Y-3920D03*
X22321Y-817D03*
X24798Y2196D03*
X25372Y2490D03*
X25094Y1883D03*
X24741Y1765D03*
X22838Y6249D03*
X20522Y-2624D03*
X23557Y6937D03*
X20691Y-3580D03*
X23001Y6617D03*
X20197Y-3577D03*
X20421Y8500D03*
X18671Y-2165D03*
X7941Y-4309D03*
X7941Y-6035D03*
X23980Y-897D03*
X21588Y-2601D03*
X21029Y-2500D03*
X13565Y-4417D03*
X13182Y-325D03*
X15186Y-2365D03*
X13065Y-5051D03*
X12341Y-6885D03*
G54D58*
X6230Y-10750D02*
X4980Y-9500D01*
X8750Y-10750D02*
X6230Y-10750D01*
X11820Y-7250D02*
X11473Y-7250D01*
X8429Y-4314D02*
X8171Y-4314D01*
X7050Y-5500D02*
X7275Y-5500D01*
X7319Y-5544D02*
X7275Y-5500D01*
X7319Y-6775D02*
X7319Y-5544D01*
X7418Y-6874D02*
X7319Y-6775D01*
X10985Y-6874D02*
X7418Y-6874D01*
X11400Y-7288D02*
X10985Y-6874D01*
X11438Y-7250D02*
X11400Y-7288D01*
X11473Y-7250D02*
X11438Y-7250D01*
X17599Y-9632D02*
X17599Y-9500D01*
X17122Y-10108D02*
X17599Y-9632D01*
X17067Y-10108D02*
X17122Y-10108D01*
X16500Y-10676D02*
X17067Y-10108D01*
X16500Y-10817D02*
X16500Y-10676D01*
X16171Y-11145D02*
X16500Y-10817D01*
X13234Y-11145D02*
X16171Y-11145D01*
X11037Y-8948D02*
X13234Y-11145D01*
X11037Y-7651D02*
X11037Y-8948D01*
X11400Y-7288D02*
X11037Y-7651D01*
X18000Y-9500D02*
X17599Y-9500D01*
X8000Y-1450D02*
X7674Y-1450D01*
X7275Y-5098D02*
X7275Y-5500D01*
X7489Y-5098D02*
X7275Y-5098D01*
X8171Y-4416D02*
X7489Y-5098D01*
X8171Y-4314D02*
X8171Y-4416D01*
X3820Y-1500D02*
X4177Y-1500D01*
X5725Y-1500D02*
X4177Y-1500D01*
X6675Y-2449D02*
X5725Y-1500D01*
X6675Y-4046D02*
X6675Y-2449D01*
X6635Y-4085D02*
X6675Y-4046D01*
X6635Y-4703D02*
X6635Y-4085D01*
X7030Y-5098D02*
X6635Y-4703D01*
X7275Y-5098D02*
X7030Y-5098D01*
X6675Y-2449D02*
X7674Y-1450D01*
G54D59*
X20197Y3100D02*
X20197Y2717D01*
X19250Y4790D02*
X19250Y5200D01*
X19240Y4780D02*
X19250Y4790D01*
X20090Y2610D02*
X19570Y2610D01*
X20197Y2717D02*
X20090Y2610D01*
X25700Y-3500D02*
X25700Y-2750D01*
X24113Y-1379D02*
X25484Y-2750D01*
X23100Y-1379D02*
X24113Y-1379D01*
X25700Y-2750D02*
X25484Y-2750D01*
X25625Y5250D02*
X25625Y4884D01*
X25694Y4815D02*
X25625Y4884D01*
X25700Y4815D02*
X25694Y4815D01*
X25700Y4500D02*
X25700Y4815D01*
X25700Y3000D02*
X25700Y3750D01*
X25700Y3750D02*
X25700Y4500D01*
X25700Y2250D02*
X25592Y2250D01*
X25592Y2577D02*
X25700Y2684D01*
X25592Y2250D02*
X25592Y2577D01*
X25700Y3000D02*
X25700Y2684D01*
X23100Y1772D02*
X23480Y1772D01*
X23100Y1575D02*
X23480Y1575D01*
X23480Y1772D02*
X23480Y1575D01*
X25592Y2077D02*
X25592Y2250D01*
X25066Y1550D02*
X25592Y2077D01*
X23505Y1550D02*
X25066Y1550D01*
X23480Y1575D02*
X23505Y1550D01*
X29223Y8109D02*
X29614Y8500D01*
X27660Y8109D02*
X29223Y8109D01*
X27420Y8350D02*
X27660Y8109D01*
X27150Y8350D02*
X27420Y8350D01*
X30000Y8500D02*
X29614Y8500D01*
X12665Y-2483D02*
X13853Y-2483D01*
X11895Y-1713D02*
X12665Y-2483D01*
X8871Y-1713D02*
X11895Y-1713D01*
X8750Y-1834D02*
X8871Y-1713D01*
X21034Y-8489D02*
X16002Y-8489D01*
X22777Y-10232D02*
X21034Y-8489D01*
X22777Y-12795D02*
X22777Y-10232D01*
X22937Y-12955D02*
X22777Y-12795D01*
X28169Y-12955D02*
X22937Y-12955D01*
X28767Y-12357D02*
X28169Y-12955D01*
X28767Y-11525D02*
X28767Y-12357D01*
X28500Y-11257D02*
X28767Y-11525D01*
X8750Y-2050D02*
X8750Y-1942D01*
X8750Y-1942D02*
X8750Y-1834D01*
X8422Y-1942D02*
X8315Y-2050D01*
X8750Y-1942D02*
X8422Y-1942D01*
X8000Y-2050D02*
X8315Y-2050D01*
X8315Y-2876D02*
X8315Y-2050D01*
X8620Y-3181D02*
X8315Y-2876D01*
X8685Y-3181D02*
X8620Y-3181D01*
X8685Y-3429D02*
X8685Y-3181D01*
X8176Y-3837D02*
X8181Y-3842D01*
X8019Y-3837D02*
X8176Y-3837D01*
X8429Y-3842D02*
X8181Y-3842D01*
X21635Y-9429D02*
X21635Y-9565D01*
X21181Y-8975D02*
X21635Y-9429D01*
X18839Y-8975D02*
X21181Y-8975D01*
X18390Y-9425D02*
X18839Y-8975D01*
X18390Y-9905D02*
X18390Y-9425D01*
X16750Y-11544D02*
X18390Y-9905D01*
X13621Y-11544D02*
X16750Y-11544D01*
X9314Y-3429D02*
X9314Y-3181D01*
X9157Y-3429D02*
X9157Y-3181D01*
X6932Y-4500D02*
X6932Y-4252D01*
X13000Y-6950D02*
X13000Y-6734D01*
X8817Y-4595D02*
X8842Y-4570D01*
X8817Y-5254D02*
X8817Y-4595D01*
X8835Y-5273D02*
X8817Y-5254D01*
X12894Y-6629D02*
X9011Y-6629D01*
X13000Y-6734D02*
X12894Y-6629D01*
X8429Y-4000D02*
X8181Y-4000D01*
X7050Y-4135D02*
X7050Y-4053D01*
X6932Y-4252D02*
X7050Y-4135D01*
X7050Y-4053D02*
X7050Y-3500D01*
X7050Y-4053D02*
X7593Y-4053D01*
X9157Y-3181D02*
X9314Y-3181D01*
X8755Y-2779D02*
X8705Y-2779D01*
X9157Y-3181D02*
X8755Y-2779D01*
X10446Y-2050D02*
X11500Y-2050D01*
X9314Y-3181D02*
X10446Y-2050D01*
X8128Y-4053D02*
X8181Y-4000D01*
X7593Y-4053D02*
X8128Y-4053D01*
X7593Y-4053D02*
X7593Y-3953D01*
X939Y8930D02*
X939Y8328D01*
X3250Y1300D02*
X4000Y1300D01*
X5499Y1515D02*
X5734Y1750D01*
X4750Y1515D02*
X5499Y1515D01*
X700Y8089D02*
X700Y7750D01*
X939Y8328D02*
X700Y8089D01*
X4750Y1300D02*
X4750Y1407D01*
X4750Y1407D02*
X4750Y1515D01*
X4422Y1407D02*
X4315Y1300D01*
X4750Y1407D02*
X4422Y1407D01*
X4000Y1300D02*
X4315Y1300D01*
X9894Y250D02*
X10265Y250D01*
X12800Y1500D02*
X12800Y750D01*
X12800Y750D02*
X12584Y750D01*
X12800Y1500D02*
X12800Y2250D01*
X12800Y2250D02*
X12800Y3000D01*
X10441Y426D02*
X10265Y250D01*
X12377Y426D02*
X10441Y426D01*
X12584Y634D02*
X12377Y426D01*
X12584Y750D02*
X12584Y634D01*
X5950Y1750D02*
X5734Y1750D01*
X5950Y1750D02*
X6105Y1750D01*
X700Y7750D02*
X700Y7390D01*
X700Y7390D02*
X700Y7000D01*
X4800Y7750D02*
X4800Y7434D01*
X6105Y1750D02*
X6477Y1750D01*
X9894Y250D02*
X9522Y250D01*
X4800Y7000D02*
X5015Y7000D01*
X5015Y6716D02*
X5731Y6000D01*
X5015Y7000D02*
X5015Y6716D01*
X5731Y6000D02*
X12200Y6000D01*
X4582Y7217D02*
X4800Y7434D01*
X4584Y7215D02*
X4584Y7000D01*
X4582Y7217D02*
X4584Y7215D01*
X4800Y7000D02*
X4584Y7000D01*
X4409Y7390D02*
X4582Y7217D01*
X700Y7390D02*
X4409Y7390D01*
X5731Y4599D02*
X5731Y6000D01*
X5779Y4551D02*
X5731Y4599D01*
X6325Y4551D02*
X5779Y4551D01*
X6794Y4083D02*
X6325Y4551D01*
X6794Y1819D02*
X6794Y4083D01*
X6546Y1819D02*
X6794Y1819D01*
X6477Y1750D02*
X6546Y1819D01*
X7953Y1819D02*
X9522Y250D01*
X6794Y1819D02*
X7953Y1819D01*
X21379Y-3100D02*
X21379Y-3480D01*
X19500Y-5950D02*
X19815Y-5950D01*
X19815Y-5950D02*
X19815Y-4381D01*
X10695Y4319D02*
X10265Y4750D01*
X11177Y4319D02*
X10695Y4319D01*
X9894Y4750D02*
X10265Y4750D01*
X20546Y-4381D02*
X19815Y-4381D01*
X21379Y-3549D02*
X20546Y-4381D01*
X21379Y-3480D02*
X21379Y-3549D01*
X16814Y-4381D02*
X19815Y-4381D01*
X16553Y-4120D02*
X16814Y-4381D01*
X16553Y-3267D02*
X16553Y-4120D01*
X9522Y3592D02*
X9522Y4250D01*
X9621Y3493D02*
X9522Y3592D01*
X10636Y3493D02*
X9621Y3493D01*
X9894Y4250D02*
X9522Y4250D01*
X20250Y-5950D02*
X20250Y-5734D01*
X16231Y-3968D02*
X16231Y-3273D01*
X16784Y-4521D02*
X16231Y-3968D01*
X19038Y-4521D02*
X16784Y-4521D01*
X19461Y-4945D02*
X19038Y-4521D01*
X19461Y-5118D02*
X19461Y-4945D01*
X19184Y-5395D02*
X19461Y-5118D01*
X19184Y-6112D02*
X19184Y-5395D01*
X19237Y-6165D02*
X19184Y-6112D01*
X20034Y-6165D02*
X19237Y-6165D01*
X20250Y-5950D02*
X20034Y-6165D01*
X20169Y-5654D02*
X20250Y-5734D01*
X20169Y-4986D02*
X20169Y-5654D01*
X21575Y-3579D02*
X20169Y-4986D01*
X21575Y-3100D02*
X21575Y-3579D01*
X5499Y484D02*
X5734Y250D01*
X4750Y484D02*
X5499Y484D01*
X6105Y250D02*
X5734Y250D01*
X4750Y700D02*
X4750Y592D01*
X4750Y592D02*
X4750Y484D01*
X4422Y592D02*
X4315Y700D01*
X4750Y592D02*
X4422Y592D01*
X4000Y700D02*
X4315Y700D01*
X4000Y700D02*
X3250Y700D01*
X3250Y700D02*
X3250Y915D01*
X6105Y3250D02*
X6477Y3250D01*
X12200Y5250D02*
X11054Y5250D01*
X6513Y3213D02*
X6575Y3213D01*
X6477Y3250D02*
X6513Y3213D01*
X6617Y3172D02*
X6575Y3213D01*
X6617Y2230D02*
X6617Y3172D01*
X6425Y2039D02*
X6617Y2230D01*
X3487Y2039D02*
X6425Y2039D01*
X2916Y1467D02*
X3487Y2039D01*
X2916Y1141D02*
X2916Y1467D01*
X3142Y915D02*
X2916Y1141D01*
X3250Y915D02*
X3142Y915D01*
X21000Y-5950D02*
X21000Y-5734D01*
X21141Y-3480D02*
X21040Y-3581D01*
X21182Y-3480D02*
X21141Y-3480D01*
X21182Y-3100D02*
X21182Y-3480D01*
X21000Y-5734D02*
X21587Y-5146D01*
X23544Y1970D02*
X23735Y1778D01*
X23100Y1970D02*
X23544Y1970D01*
X24642Y-5627D02*
X24750Y-5734D01*
X24302Y-5627D02*
X24642Y-5627D01*
X24750Y-5950D02*
X24750Y-5734D01*
X9992Y-4157D02*
X9570Y-4157D01*
X11114Y-5279D02*
X9992Y-4157D01*
X13423Y-5279D02*
X11114Y-5279D01*
X14653Y-4049D02*
X13423Y-5279D01*
X14782Y-4049D02*
X14653Y-4049D01*
X23100Y-2167D02*
X22719Y-2167D01*
X19147Y-1767D02*
X18456Y-1767D01*
X19265Y-1648D02*
X19147Y-1767D01*
X22201Y-1648D02*
X19265Y-1648D01*
X22719Y-2167D02*
X22201Y-1648D01*
X16900Y394D02*
X19405Y394D01*
X16900Y197D02*
X17280Y197D01*
X21154Y164D02*
X21154Y164D01*
X17312Y164D02*
X21154Y164D01*
X17280Y197D02*
X17312Y164D01*
X18817Y3100D02*
X18817Y3480D01*
X20069Y4731D02*
X18817Y3480D01*
X23949Y4731D02*
X20069Y4731D01*
X25330Y6112D02*
X23949Y4731D01*
X26772Y6112D02*
X25330Y6112D01*
X27133Y5751D02*
X26772Y6112D01*
X27133Y3083D02*
X27133Y5751D01*
X27468Y2748D02*
X27133Y3083D01*
X30000Y-500D02*
X29614Y-500D01*
X18620Y3100D02*
X18620Y3480D01*
X19992Y4851D02*
X18620Y3480D01*
X23630Y4851D02*
X19992Y4851D01*
X25011Y6232D02*
X23630Y4851D01*
X26822Y6232D02*
X25011Y6232D01*
X27253Y5801D02*
X26822Y6232D01*
X27253Y3267D02*
X27253Y5801D01*
X28412Y2108D02*
X27253Y3267D01*
X28412Y338D02*
X28412Y2108D01*
X28751Y0D02*
X28412Y338D01*
X29114Y0D02*
X28751Y0D01*
X29614Y-500D02*
X29114Y0D01*
X30000Y500D02*
X29614Y500D01*
X18424Y3100D02*
X18424Y3480D01*
X19915Y4971D02*
X18424Y3480D01*
X23581Y4971D02*
X19915Y4971D01*
X24962Y6352D02*
X23581Y4971D01*
X26872Y6352D02*
X24962Y6352D01*
X27373Y5851D02*
X26872Y6352D01*
X27373Y3363D02*
X27373Y5851D01*
X28683Y2053D02*
X27373Y3363D01*
X29019Y2053D02*
X28683Y2053D01*
X29614Y1459D02*
X29019Y2053D01*
X29614Y500D02*
X29614Y1459D01*
X17424Y1720D02*
X17280Y1575D01*
X21477Y1720D02*
X17424Y1720D01*
X16900Y1575D02*
X17280Y1575D01*
X30000Y1500D02*
X30000Y1890D01*
X27354Y7015D02*
X26923Y7015D01*
X28470Y5899D02*
X27354Y7015D01*
X29156Y5899D02*
X28470Y5899D01*
X29602Y5453D02*
X29156Y5899D01*
X29602Y3326D02*
X29602Y5453D01*
X29929Y3000D02*
X29602Y3326D01*
X30256Y3000D02*
X29929Y3000D01*
X30602Y2653D02*
X30256Y3000D01*
X30602Y2346D02*
X30602Y2653D01*
X30146Y1890D02*
X30602Y2346D01*
X30000Y1890D02*
X30146Y1890D01*
X24752Y6313D02*
X23397Y6313D01*
X24912Y6473D02*
X24752Y6313D01*
X26922Y6473D02*
X24912Y6473D01*
X27871Y5524D02*
X26922Y6473D01*
X27871Y4868D02*
X27871Y5524D01*
X28740Y4000D02*
X27871Y4868D01*
X29061Y4000D02*
X28740Y4000D01*
X29476Y3585D02*
X29061Y4000D01*
X29476Y3023D02*
X29476Y3585D01*
X30000Y2500D02*
X29476Y3023D01*
X20035Y1379D02*
X16900Y1379D01*
X20095Y1439D02*
X20035Y1379D01*
X22114Y1182D02*
X22310Y985D01*
X16900Y1182D02*
X22114Y1182D01*
X29000Y-7500D02*
X29385Y-7500D01*
X18620Y-3100D02*
X18620Y-2719D01*
X19451Y-1888D02*
X18620Y-2719D01*
X22066Y-1888D02*
X19451Y-1888D01*
X24626Y-4448D02*
X22066Y-1888D01*
X25288Y-4448D02*
X24626Y-4448D01*
X26781Y-5941D02*
X25288Y-4448D01*
X28994Y-5941D02*
X26781Y-5941D01*
X29385Y-6332D02*
X28994Y-5941D01*
X29385Y-7500D02*
X29385Y-6332D01*
X29000Y-6500D02*
X28418Y-6500D01*
X18817Y-3100D02*
X18817Y-2719D01*
X19526Y-2011D02*
X18817Y-2719D01*
X22006Y-2011D02*
X19526Y-2011D01*
X24563Y-4568D02*
X22006Y-2011D01*
X25239Y-4568D02*
X24563Y-4568D01*
X27170Y-6500D02*
X25239Y-4568D01*
X28418Y-6500D02*
X27170Y-6500D01*
X20000Y3100D02*
X20000Y3480D01*
X24551Y2626D02*
X24774Y2626D01*
X23047Y4130D02*
X24551Y2626D01*
X20761Y4130D02*
X23047Y4130D01*
X20110Y3480D02*
X20761Y4130D01*
X20000Y3480D02*
X20110Y3480D01*
X19802Y3100D02*
X19802Y3480D01*
X23231Y4251D02*
X24595Y2886D01*
X20711Y4251D02*
X23231Y4251D01*
X20378Y3918D02*
X20711Y4251D01*
X20241Y3918D02*
X20378Y3918D01*
X19802Y3480D02*
X20241Y3918D01*
X29000Y-3500D02*
X29000Y-3109D01*
X19605Y3100D02*
X19605Y3480D01*
X28853Y-3109D02*
X29000Y-3109D01*
X28026Y-2282D02*
X28853Y-3109D01*
X28026Y1533D02*
X28026Y-2282D01*
X26773Y2786D02*
X28026Y1533D01*
X26773Y5602D02*
X26773Y2786D01*
X26623Y5752D02*
X26773Y5602D01*
X25480Y5752D02*
X26623Y5752D01*
X24099Y4371D02*
X25480Y5752D01*
X20661Y4371D02*
X24099Y4371D01*
X20328Y4038D02*
X20661Y4371D01*
X20164Y4038D02*
X20328Y4038D01*
X19605Y3480D02*
X20164Y4038D01*
X29000Y-2500D02*
X29000Y-2109D01*
X19409Y3100D02*
X19409Y3480D01*
X28853Y-2109D02*
X29000Y-2109D01*
X28146Y-1402D02*
X28853Y-2109D01*
X28146Y1583D02*
X28146Y-1402D01*
X26893Y2836D02*
X28146Y1583D01*
X26893Y5652D02*
X26893Y2836D01*
X26672Y5872D02*
X26893Y5652D01*
X25430Y5872D02*
X26672Y5872D01*
X24049Y4491D02*
X25430Y5872D01*
X20611Y4491D02*
X24049Y4491D01*
X20278Y4158D02*
X20611Y4491D01*
X20087Y4158D02*
X20278Y4158D01*
X19409Y3480D02*
X20087Y4158D01*
X19212Y3507D02*
X19212Y3100D01*
X20078Y4373D02*
X19212Y3507D01*
X20189Y4373D02*
X20078Y4373D01*
X30000Y-2500D02*
X29614Y-2500D01*
X19015Y3100D02*
X19015Y3480D01*
X19015Y3503D02*
X19015Y3480D01*
X20123Y4611D02*
X19015Y3503D01*
X23999Y4611D02*
X20123Y4611D01*
X25380Y5992D02*
X23999Y4611D01*
X26722Y5992D02*
X25380Y5992D01*
X27013Y5701D02*
X26722Y5992D01*
X27013Y2885D02*
X27013Y5701D01*
X28275Y1624D02*
X27013Y2885D01*
X28275Y-522D02*
X28275Y1624D01*
X28752Y-1000D02*
X28275Y-522D01*
X29063Y-1000D02*
X28752Y-1000D01*
X29614Y-1550D02*
X29063Y-1000D01*
X29614Y-2500D02*
X29614Y-1550D01*
X16045Y-8000D02*
X16292Y-8000D01*
X17297Y-8123D02*
X17297Y-8000D01*
X17174Y-8247D02*
X17297Y-8123D01*
X16539Y-8247D02*
X17174Y-8247D01*
X16292Y-8000D02*
X16539Y-8247D01*
X26300Y-2000D02*
X26515Y-2000D01*
X27550Y-1750D02*
X27334Y-1750D01*
X27550Y750D02*
X27550Y1500D01*
X27550Y750D02*
X27550Y434D01*
X26515Y-2000D02*
X26580Y-2065D01*
X12800Y7500D02*
X12800Y8250D01*
X27550Y1500D02*
X27334Y1500D01*
X27334Y1607D02*
X27334Y1500D01*
X27127Y1815D02*
X27334Y1607D01*
X26300Y1815D02*
X27127Y1815D01*
X26300Y1815D02*
X26300Y1500D01*
X12800Y8250D02*
X12800Y8407D01*
X9894Y6750D02*
X10265Y6750D01*
X6450Y-3500D02*
X6450Y-2750D01*
X16045Y-8000D02*
X15797Y-8000D01*
X26300Y1815D02*
X26300Y2250D01*
X26300Y3000D02*
X26300Y2250D01*
X15565Y-10750D02*
X16000Y-10750D01*
X14609Y-9794D02*
X15565Y-10750D01*
X14609Y-9190D02*
X14609Y-9794D01*
X15508Y-8291D02*
X14609Y-9190D01*
X15630Y-8291D02*
X15508Y-8291D01*
X15797Y-8123D02*
X15630Y-8291D01*
X15797Y-8000D02*
X15797Y-8123D01*
X12800Y7500D02*
X12800Y6750D01*
X12800Y6750D02*
X12800Y6000D01*
X13215Y5800D02*
X13015Y6000D01*
X17000Y5800D02*
X13215Y5800D01*
X12800Y6000D02*
X13015Y6000D01*
X13009Y8935D02*
X12640Y8566D01*
X13009Y9500D02*
X13009Y8935D01*
X12800Y8407D02*
X12640Y8566D01*
X10265Y6799D02*
X10265Y6750D01*
X12032Y8566D02*
X10265Y6799D01*
X12640Y8566D02*
X12032Y8566D01*
X13400Y9500D02*
X13009Y9500D01*
X26300Y-3500D02*
X26515Y-3500D01*
X500Y-2750D02*
X500Y-2088D01*
X12200Y-250D02*
X11984Y-250D01*
X11928Y-306D02*
X11984Y-250D01*
X11750Y-306D02*
X11928Y-306D01*
X13700Y-3000D02*
X13915Y-3000D01*
X13749Y-2055D02*
X14082Y-2388D01*
X13700Y-2055D02*
X13749Y-2055D01*
X14082Y-2832D02*
X13915Y-3000D01*
X14082Y-2388D02*
X14082Y-2832D01*
X14799Y-2388D02*
X14082Y-2388D01*
X15038Y-2150D02*
X14799Y-2388D01*
X16502Y-2150D02*
X15038Y-2150D01*
X16519Y-2167D02*
X16502Y-2150D01*
X16900Y-2167D02*
X16519Y-2167D01*
X13707Y-12000D02*
X10705Y-8997D01*
X15000Y-12000D02*
X13707Y-12000D01*
X10705Y-8750D02*
X10705Y-8997D01*
X11500Y-1450D02*
X8750Y-1450D01*
X12800Y3750D02*
X12584Y3750D01*
X6450Y-3500D02*
X6450Y-3815D01*
X12584Y3857D02*
X12584Y3750D01*
X12257Y4184D02*
X12584Y3857D01*
X11912Y4184D02*
X12257Y4184D01*
X11863Y4233D02*
X11912Y4184D01*
X27334Y-1857D02*
X27334Y-1750D01*
X27127Y-2065D02*
X27334Y-1857D01*
X26580Y-2065D02*
X27127Y-2065D01*
X27334Y-1750D02*
X27334Y-1372D01*
X27334Y-1372D02*
X26935Y-972D01*
X27564Y419D02*
X27564Y-27D01*
X27550Y434D02*
X27564Y419D01*
X27795Y-1372D02*
X27334Y-1372D01*
X27871Y-1296D02*
X27795Y-1372D01*
X27871Y-27D02*
X27871Y-1296D01*
X6387Y-3877D02*
X6450Y-3815D01*
X6067Y-3877D02*
X6387Y-3877D01*
X6067Y-4125D02*
X6067Y-3877D01*
X6067Y-4125D02*
X6067Y-4248D01*
X5250Y-4200D02*
X5565Y-4200D01*
X5613Y-4248D02*
X6067Y-4248D01*
X5565Y-4200D02*
X5613Y-4248D01*
X6450Y-4631D02*
X6450Y-5500D01*
X6067Y-4248D02*
X6450Y-4631D01*
X6450Y-5500D02*
X6665Y-5500D01*
X6665Y-5715D02*
X6665Y-5500D01*
X7183Y-6233D02*
X6665Y-5715D01*
X7183Y-7821D02*
X7183Y-6233D01*
X8902Y-9540D02*
X7183Y-7821D01*
X8750Y-9692D02*
X8902Y-9540D01*
X8750Y-9750D02*
X8750Y-9692D01*
X9445Y-8997D02*
X10705Y-8997D01*
X8902Y-9540D02*
X9445Y-8997D01*
X23064Y-12557D02*
X23064Y-12423D01*
X1399Y-1582D02*
X1005Y-1582D01*
X1680Y-1864D02*
X1399Y-1582D01*
X1005Y-1582D02*
X500Y-2088D01*
X1003Y-1580D02*
X1003Y-1077D01*
X1005Y-1582D02*
X1003Y-1580D01*
X500Y-1077D02*
X1003Y-1077D01*
X13700Y-2000D02*
X13700Y-2027D01*
X13700Y-2027D02*
X13700Y-2055D01*
X12514Y-2027D02*
X12112Y-1626D01*
X13700Y-2027D02*
X12514Y-2027D01*
X11936Y-1450D02*
X11500Y-1450D01*
X12112Y-1626D02*
X11936Y-1450D01*
X16000Y-12000D02*
X16500Y-12000D01*
X20000Y-9500D02*
X19000Y-9500D01*
X16500Y-11968D02*
X16500Y-12000D01*
X18609Y-9858D02*
X16500Y-11968D01*
X18609Y-9500D02*
X18609Y-9858D01*
X19000Y-9500D02*
X18609Y-9500D01*
X17000Y5800D02*
X17750Y5800D01*
X26300Y3750D02*
X26300Y3000D01*
X26300Y3750D02*
X26515Y3750D01*
X27564Y-27D02*
X27871Y-27D01*
X23100Y1379D02*
X22719Y1379D01*
X22719Y2167D02*
X22719Y1379D01*
X22167Y2719D02*
X22719Y2167D01*
X22167Y3100D02*
X22167Y2719D01*
X22000Y5800D02*
X21684Y5800D01*
X21240Y6244D02*
X21684Y5800D01*
X21240Y7000D02*
X21240Y6244D01*
X20900Y7000D02*
X21240Y7000D01*
X26300Y4500D02*
X26515Y4500D01*
X26515Y3750D02*
X26515Y4500D01*
X17750Y5800D02*
X17900Y5800D01*
X26515Y-3085D02*
X26515Y-3500D01*
X26580Y-3019D02*
X26515Y-3085D01*
X26580Y-2065D02*
X26580Y-3019D01*
X26640Y4625D02*
X26515Y4500D01*
X26640Y5562D02*
X26640Y4625D01*
X26581Y5621D02*
X26640Y5562D01*
X26161Y5621D02*
X26581Y5621D01*
X25944Y5404D02*
X26161Y5621D01*
X25944Y2012D02*
X25944Y5404D01*
X25776Y1844D02*
X25944Y2012D01*
X25543Y1844D02*
X25776Y1844D01*
X25077Y1379D02*
X25543Y1844D01*
X23100Y1379D02*
X25077Y1379D01*
X1542Y-3262D02*
X1187Y-3262D01*
X500Y-2750D02*
X500Y-3262D01*
X500Y-3262D02*
X500Y-4422D01*
X1186Y-3262D02*
X500Y-3262D01*
X1187Y-3262D02*
X1186Y-3262D01*
X1003Y563D02*
X814Y751D01*
X1003Y-1077D02*
X1003Y563D01*
X814Y751D02*
X814Y2248D01*
X1542Y-3262D02*
X1898Y-3262D01*
X2680Y-4200D02*
X5250Y-4200D01*
X1898Y-3418D02*
X2680Y-4200D01*
X1680Y-3635D02*
X1898Y-3418D01*
X1898Y-3418D02*
X1898Y-3262D01*
X17900Y5800D02*
X18500Y5800D01*
X19359Y5800D02*
X20559Y7000D01*
X18500Y5800D02*
X19359Y5800D01*
X20900Y7000D02*
X20559Y7000D01*
X23064Y-12557D02*
X23064Y-12824D01*
X27425Y-12824D02*
X23064Y-12824D01*
X28500Y-11750D02*
X27425Y-12824D01*
X21000Y-6550D02*
X21000Y-6657D01*
X22077Y-6657D02*
X22184Y-6550D01*
X21000Y-6657D02*
X22077Y-6657D01*
X22500Y-6550D02*
X22184Y-6550D01*
X22500Y-6550D02*
X22500Y-6765D01*
X24000Y-6550D02*
X24000Y-6627D01*
X24000Y-6627D02*
X24000Y-6765D01*
X24292Y-6334D02*
X25500Y-6334D01*
X24000Y-6627D02*
X24292Y-6334D01*
X25500Y-6550D02*
X25500Y-6334D01*
X13700Y-3000D02*
X13700Y-3750D01*
X13700Y-3000D02*
X12515Y-3000D01*
X12300Y-3000D02*
X12407Y-3000D01*
X12407Y-3000D02*
X12515Y-3000D01*
X12300Y-3107D02*
X12300Y-3750D01*
X12407Y-3000D02*
X12300Y-3107D01*
X17427Y-8000D02*
X17297Y-8000D01*
X17427Y-8000D02*
X17545Y-8000D01*
X19657Y-8000D02*
X21000Y-6657D01*
X17545Y-8000D02*
X19657Y-8000D01*
X23064Y-12423D02*
X23064Y-10942D01*
X23064Y-10942D02*
X23064Y-10675D01*
X23391Y-10349D02*
X23391Y-6765D01*
X23064Y-10675D02*
X23391Y-10349D01*
X24000Y-6765D02*
X23391Y-6765D01*
X23391Y-6765D02*
X22500Y-6765D01*
X23978Y-590D02*
X23100Y-590D01*
X24195Y-808D02*
X23978Y-590D01*
X24195Y-979D02*
X24195Y-808D01*
X25650Y-2434D02*
X24195Y-979D01*
X25884Y-2434D02*
X25650Y-2434D01*
X26038Y-2588D02*
X25884Y-2434D01*
X26038Y-2965D02*
X26038Y-2588D01*
X26157Y-3085D02*
X26038Y-2965D01*
X26515Y-3085D02*
X26157Y-3085D01*
X28015Y-5000D02*
X26515Y-3500D01*
X30247Y-5000D02*
X28015Y-5000D01*
X30582Y-5334D02*
X30247Y-5000D01*
X30582Y-8673D02*
X30582Y-5334D01*
X30146Y-9109D02*
X30582Y-8673D01*
X30000Y-9109D02*
X30146Y-9109D01*
X30000Y-9500D02*
X30000Y-9109D01*
X8685Y-4570D02*
X8685Y-4818D01*
X8620Y-4882D02*
X8685Y-4818D01*
X8620Y-5801D02*
X8620Y-4882D01*
X8733Y-5915D02*
X8620Y-5801D01*
X14969Y-5915D02*
X8733Y-5915D01*
X15846Y-5038D02*
X14969Y-5915D01*
X19238Y-5038D02*
X15846Y-5038D01*
X21772Y-3687D02*
X20384Y-5075D01*
X21772Y-3100D02*
X21772Y-3687D01*
X14648Y198D02*
X11405Y198D01*
X14846Y0D02*
X14648Y198D01*
X16900Y0D02*
X14846Y0D01*
X9894Y5250D02*
X10265Y5250D01*
X10265Y5101D02*
X10265Y5250D01*
X10333Y5033D02*
X10265Y5101D01*
X16900Y2167D02*
X16519Y2167D01*
X6105Y5750D02*
X6477Y5750D01*
X14621Y4065D02*
X16519Y2167D01*
X12757Y4065D02*
X14621Y4065D01*
X12584Y4237D02*
X12757Y4065D01*
X12584Y4612D02*
X12584Y4237D01*
X12298Y4898D02*
X12584Y4612D01*
X11101Y4898D02*
X12298Y4898D01*
X10518Y5481D02*
X11101Y4898D01*
X6746Y5481D02*
X10518Y5481D01*
X6477Y5750D02*
X6746Y5481D01*
X6105Y5250D02*
X6477Y5250D01*
X6991Y5250D02*
X6477Y5250D01*
X9189Y3051D02*
X6991Y5250D01*
X11500Y3051D02*
X9189Y3051D01*
X11764Y3315D02*
X11500Y3051D01*
X13234Y3315D02*
X11764Y3315D01*
X14776Y1772D02*
X13234Y3315D01*
X16900Y1772D02*
X14776Y1772D01*
X14365Y4518D02*
X13912Y4518D01*
X16519Y2364D02*
X14365Y4518D01*
X6869Y4750D02*
X6105Y4750D01*
X9068Y2550D02*
X6869Y4750D01*
X11474Y2550D02*
X9068Y2550D01*
X11669Y2745D02*
X11474Y2550D01*
X16900Y2364D02*
X16519Y2364D01*
X16858Y-4121D02*
X16858Y-4121D01*
X16858Y-3613D02*
X16858Y-4121D01*
X17371Y-3100D02*
X16858Y-3613D01*
X17635Y-3100D02*
X17371Y-3100D01*
X16900Y-1772D02*
X17280Y-1772D01*
X19554Y-850D02*
X19565Y-860D01*
X18203Y-850D02*
X19554Y-850D01*
X17280Y-1772D02*
X18203Y-850D01*
X20000Y-3100D02*
X20000Y-2719D01*
X21732Y-2270D02*
X22055Y-2593D01*
X20448Y-2270D02*
X21732Y-2270D01*
X20000Y-2719D02*
X20448Y-2270D01*
X19409Y-3100D02*
X19409Y-3480D01*
X19545Y-3616D02*
X19624Y-3616D01*
X19409Y-3480D02*
X19545Y-3616D01*
X21163Y985D02*
X16900Y985D01*
X21671Y477D02*
X21163Y985D01*
X23100Y-1182D02*
X22719Y-1182D01*
X22620Y-1082D02*
X22719Y-1182D01*
X19605Y-2391D02*
X19605Y-3100D01*
X19865Y-2131D02*
X19605Y-2391D01*
X21956Y-2131D02*
X19865Y-2131D01*
X24573Y-4748D02*
X21956Y-2131D01*
X25189Y-4748D02*
X24573Y-4748D01*
X28330Y-7890D02*
X25189Y-4748D01*
X29179Y-7890D02*
X28330Y-7890D01*
X29614Y-7454D02*
X29179Y-7890D01*
X29614Y-5500D02*
X29614Y-7454D01*
X30000Y-5500D02*
X29614Y-5500D01*
X9314Y-4570D02*
X9314Y-4818D01*
X23100Y-2364D02*
X22719Y-2364D01*
X10015Y-5519D02*
X9314Y-4818D01*
X13616Y-5519D02*
X10015Y-5519D01*
X14571Y-4564D02*
X13616Y-5519D01*
X14763Y-4564D02*
X14571Y-4564D01*
X16010Y-3317D02*
X14763Y-4564D01*
X16010Y-3187D02*
X16010Y-3317D01*
X16275Y-2922D02*
X16010Y-3187D01*
X17277Y-2922D02*
X16275Y-2922D01*
X17663Y-2536D02*
X17277Y-2922D01*
X17663Y-2430D02*
X17663Y-2536D01*
X18106Y-1987D02*
X17663Y-2430D01*
X18544Y-1987D02*
X18106Y-1987D01*
X18643Y-1888D02*
X18544Y-1987D01*
X19195Y-1888D02*
X18643Y-1888D01*
X19315Y-1768D02*
X19195Y-1888D01*
X22124Y-1768D02*
X19315Y-1768D01*
X22719Y-2364D02*
X22124Y-1768D01*
X16038Y-5446D02*
X15750Y-5734D01*
X16886Y-5446D02*
X16038Y-5446D01*
X15750Y-5950D02*
X15750Y-5734D01*
X20590Y3100D02*
X20590Y2719D01*
X20033Y2162D02*
X20590Y2719D01*
X19290Y2162D02*
X20033Y2162D01*
X19198Y2254D02*
X19290Y2162D01*
X20052Y2377D02*
X19838Y2377D01*
X20394Y2719D02*
X20052Y2377D01*
X17585Y-5950D02*
X17250Y-5950D01*
X17933Y-5601D02*
X17585Y-5950D01*
X20394Y3100D02*
X20394Y2719D01*
X23100Y2167D02*
X23480Y2167D01*
X27150Y7650D02*
X26879Y7650D01*
X26879Y7650D02*
X26784Y7650D01*
X23480Y2510D02*
X23480Y2167D01*
X23011Y2979D02*
X23480Y2510D01*
X23100Y0D02*
X25700Y0D01*
X1759Y7750D02*
X1884Y7875D01*
X1300Y7750D02*
X1759Y7750D01*
X2250Y7875D02*
X1884Y7875D01*
X2233Y8156D02*
X2250Y8140D01*
X2233Y11562D02*
X2233Y8156D01*
X1769Y11562D02*
X2233Y11562D01*
X2250Y7875D02*
X2250Y8140D01*
X4250Y4650D02*
X4250Y4175D01*
X5390Y3035D02*
X4250Y4175D01*
X6340Y3035D02*
X5390Y3035D01*
X6477Y2897D02*
X6340Y3035D01*
X6477Y2586D02*
X6477Y2897D01*
X6141Y2250D02*
X6477Y2586D01*
X6105Y2250D02*
X6141Y2250D01*
X4175Y2750D02*
X6105Y2750D01*
X2750Y4175D02*
X4175Y2750D01*
X2750Y4650D02*
X2750Y4175D01*
X12200Y2250D02*
X9894Y2250D01*
X9894Y2750D02*
X10265Y2750D01*
X12200Y3000D02*
X11984Y3000D01*
X11369Y2750D02*
X10265Y2750D01*
X11619Y3000D02*
X11369Y2750D01*
X11984Y3000D02*
X11619Y3000D01*
X4250Y5850D02*
X4250Y6324D01*
X3250Y7125D02*
X3250Y6859D01*
X4200Y6859D02*
X3250Y6859D01*
X4200Y6374D02*
X4200Y6859D01*
X4250Y6324D02*
X4200Y6374D01*
X4200Y6859D02*
X4200Y7000D01*
X2750Y5850D02*
X2750Y6324D01*
X1300Y7000D02*
X2250Y7000D01*
X2250Y6824D02*
X2250Y7000D01*
X2750Y6324D02*
X2250Y6824D01*
X2250Y7000D02*
X2250Y7125D01*
X3740Y7750D02*
X3615Y7875D01*
X4200Y7750D02*
X3740Y7750D01*
X3250Y7875D02*
X3615Y7875D01*
X4415Y7928D02*
X4415Y7750D01*
X4679Y8192D02*
X4415Y7928D01*
X4679Y8832D02*
X4679Y8192D01*
X4200Y7750D02*
X4415Y7750D01*
X5269Y8939D02*
X5269Y8832D01*
X6215Y9884D02*
X5269Y8939D01*
X6215Y10525D02*
X6215Y9884D01*
X4679Y8832D02*
X5269Y8832D01*
X12200Y750D02*
X12200Y1500D01*
X9894Y750D02*
X10265Y750D01*
X12200Y750D02*
X10265Y750D01*
X11484Y3250D02*
X11984Y3750D01*
X9894Y3250D02*
X11484Y3250D01*
X12200Y3750D02*
X11984Y3750D01*
X10610Y4095D02*
X10265Y3750D01*
X11390Y4095D02*
X10610Y4095D01*
X11794Y4500D02*
X11390Y4095D01*
X12200Y4500D02*
X11794Y4500D01*
X9894Y3750D02*
X10265Y3750D01*
X12767Y-8997D02*
X14000Y-7765D01*
X11758Y-8997D02*
X12767Y-8997D01*
X11542Y-8780D02*
X11758Y-8997D01*
X11542Y-8750D02*
X11542Y-8780D01*
X11295Y-8750D02*
X11542Y-8750D01*
X14000Y-7550D02*
X14000Y-7765D01*
X6070Y-6500D02*
X6950Y-6500D01*
X11700Y-3750D02*
X11484Y-3750D01*
X9570Y-3842D02*
X9818Y-3842D01*
X11434Y-3800D02*
X11000Y-3800D01*
X11484Y-3750D02*
X11434Y-3800D01*
X11000Y-3800D02*
X10684Y-3800D01*
X10642Y-3842D02*
X10684Y-3800D01*
X9818Y-3842D02*
X10642Y-3842D01*
X185Y2248D02*
X185Y751D01*
X9163Y-4824D02*
X9157Y-4818D01*
X9163Y-4972D02*
X9163Y-4824D01*
X9157Y-4570D02*
X9157Y-4818D01*
X185Y751D02*
X185Y346D01*
X689Y346D02*
X785Y250D01*
X185Y346D02*
X689Y346D01*
X8429Y-3685D02*
X8181Y-3685D01*
X7050Y-2750D02*
X7265Y-2750D01*
X8181Y-3666D02*
X7265Y-2750D01*
X8181Y-3685D02*
X8181Y-3666D01*
X5640Y-4875D02*
X5565Y-4800D01*
X6067Y-4875D02*
X5640Y-4875D01*
X5250Y-4800D02*
X5565Y-4800D01*
X5250Y-5813D02*
X5250Y-4800D01*
X4929Y-6134D02*
X5250Y-5813D01*
X4929Y-6500D02*
X4929Y-6134D01*
X11915Y-4400D02*
X11950Y-4434D01*
X11915Y-3000D02*
X11915Y-4400D01*
X11700Y-3000D02*
X11915Y-3000D01*
X11950Y-4750D02*
X11950Y-4434D01*
X11315Y-3169D02*
X11484Y-3000D01*
X11315Y-3200D02*
X11315Y-3169D01*
X11700Y-3000D02*
X11484Y-3000D01*
X11000Y-3200D02*
X11315Y-3200D01*
X10303Y-3200D02*
X11000Y-3200D01*
X9818Y-3685D02*
X10303Y-3200D01*
X9570Y-3685D02*
X9818Y-3685D01*
X13000Y-8047D02*
X13000Y-7550D01*
X12545Y-8502D02*
X13000Y-8047D01*
X12545Y-8750D02*
X12545Y-8502D01*
X8832Y-8750D02*
X10332Y-7250D01*
X8750Y-8750D02*
X8832Y-8750D01*
X10679Y-7250D02*
X10332Y-7250D01*
X1904Y-2500D02*
X1898Y-2494D01*
X2950Y-2500D02*
X1904Y-2500D01*
X1542Y-2494D02*
X1898Y-2494D01*
X2234Y-2750D02*
X1542Y-2750D01*
X2734Y-3250D02*
X2234Y-2750D01*
X2950Y-3250D02*
X2734Y-3250D01*
X24685Y-10942D02*
X24685Y-12557D01*
X24685Y-10942D02*
X24685Y-10675D01*
X24750Y-6550D02*
X24750Y-6765D01*
X25500Y-5950D02*
X25500Y-6165D01*
X24592Y-6922D02*
X24750Y-6765D01*
X24592Y-10583D02*
X24592Y-6922D01*
X24685Y-10675D02*
X24592Y-10583D01*
X25607Y-6165D02*
X25500Y-6165D01*
X25821Y-6379D02*
X25607Y-6165D01*
X25821Y-6741D02*
X25821Y-6379D01*
X25797Y-6765D02*
X25821Y-6741D01*
X24750Y-6765D02*
X25797Y-6765D01*
X15455Y-7060D02*
X15750Y-6765D01*
X15455Y-8000D02*
X15455Y-7060D01*
X15750Y-6550D02*
X15750Y-6765D01*
X16955Y-7060D02*
X17250Y-6765D01*
X16955Y-8000D02*
X16955Y-7060D01*
X17250Y-6550D02*
X17250Y-6765D01*
X25700Y-750D02*
X25484Y-750D01*
X24931Y-197D02*
X23100Y-197D01*
X25484Y-750D02*
X24931Y-197D01*
X26935Y-27D02*
X26935Y-393D01*
X26871Y-393D02*
X26935Y-393D01*
X26515Y-750D02*
X26871Y-393D01*
X26300Y-750D02*
X26515Y-750D01*
X26515Y-1530D02*
X26515Y-750D01*
X26734Y-1750D02*
X26515Y-1530D01*
X26950Y-1750D02*
X26734Y-1750D01*
X26950Y750D02*
X27165Y750D01*
X26300Y0D02*
X26300Y315D01*
X27165Y750D02*
X27165Y475D01*
X27258Y382D02*
X27165Y475D01*
X27258Y-972D02*
X27258Y382D01*
X26561Y315D02*
X26300Y315D01*
X26722Y475D02*
X26561Y315D01*
X27165Y475D02*
X26722Y475D01*
X27564Y-972D02*
X27258Y-972D01*
X22167Y-5401D02*
X22500Y-5734D01*
X22167Y-3100D02*
X22167Y-5401D01*
X22500Y-5950D02*
X22500Y-5842D01*
X22500Y-5842D02*
X22500Y-5734D01*
X22827Y-5842D02*
X22934Y-5950D01*
X22500Y-5842D02*
X22827Y-5842D01*
X23250Y-5950D02*
X22934Y-5950D01*
X25700Y1500D02*
X25484Y1500D01*
X25484Y864D02*
X25166Y1182D01*
X25484Y750D02*
X25484Y864D01*
X25166Y1182D02*
X25484Y1500D01*
X25700Y750D02*
X25484Y750D01*
X23100Y1182D02*
X25166Y1182D01*
X14300Y-2000D02*
X14515Y-2000D01*
X16900Y-1970D02*
X16519Y-1970D01*
X14545Y-1970D02*
X14515Y-2000D01*
X16519Y-1970D02*
X14545Y-1970D01*
X17750Y5200D02*
X17750Y5092D01*
X17750Y5092D02*
X17750Y4984D01*
X18077Y5092D02*
X18184Y5200D01*
X17750Y5092D02*
X18077Y5092D01*
X18500Y5200D02*
X18184Y5200D01*
X17832Y3100D02*
X17832Y3480D01*
X17750Y3563D02*
X17832Y3480D01*
X17750Y4984D02*
X17750Y3563D01*
X22435Y-12557D02*
X22435Y-10942D01*
X16000Y-9500D02*
X16390Y-9500D01*
X22435Y-10942D02*
X22435Y-10675D01*
X16390Y-9402D02*
X16390Y-9500D01*
X16957Y-8834D02*
X16390Y-9402D01*
X21210Y-8834D02*
X16957Y-8834D01*
X22435Y-10059D02*
X21210Y-8834D01*
X22435Y-10675D02*
X22435Y-10059D01*
X22082Y-427D02*
X19768Y-427D01*
X22706Y197D02*
X22082Y-427D01*
X23100Y197D02*
X22706Y197D01*
X3550Y-2500D02*
X3550Y-2184D01*
X16900Y-1379D02*
X16519Y-1379D01*
X3345Y-1980D02*
X3550Y-2184D01*
X3345Y-1127D02*
X3345Y-1980D01*
X3488Y-985D02*
X3345Y-1127D01*
X12323Y-985D02*
X3488Y-985D01*
X12717Y-1379D02*
X12323Y-985D01*
X16519Y-1379D02*
X12717Y-1379D01*
X3765Y-2122D02*
X3765Y-3250D01*
X3474Y-1831D02*
X3765Y-2122D01*
X3474Y-1168D02*
X3474Y-1831D01*
X3523Y-1119D02*
X3474Y-1168D01*
X12288Y-1119D02*
X3523Y-1119D01*
X12744Y-1575D02*
X12288Y-1119D01*
X16900Y-1575D02*
X12744Y-1575D01*
X3550Y-3250D02*
X3765Y-3250D01*
X16900Y-1182D02*
X16519Y-1182D01*
X2062Y-3005D02*
X1542Y-3005D01*
X2621Y-3565D02*
X2062Y-3005D01*
X3144Y-3565D02*
X2621Y-3565D01*
X3225Y-3484D02*
X3144Y-3565D01*
X3225Y-1078D02*
X3225Y-3484D01*
X3438Y-865D02*
X3225Y-1078D01*
X12373Y-865D02*
X3438Y-865D01*
X12719Y-1211D02*
X12373Y-865D01*
X16490Y-1211D02*
X12719Y-1211D01*
X16519Y-1182D02*
X16490Y-1211D01*
X23100Y2364D02*
X22719Y2364D01*
X22719Y2687D02*
X22679Y2727D01*
X22719Y2364D02*
X22719Y2687D01*
X22364Y3100D02*
X22364Y3480D01*
X22480Y3480D02*
X22606Y3353D01*
X22364Y3480D02*
X22480Y3480D01*
X17470Y-787D02*
X16900Y-787D01*
X17577Y-681D02*
X17470Y-787D01*
X18227Y3100D02*
X18227Y3480D01*
X18227Y3794D02*
X18064Y3956D01*
X18227Y3480D02*
X18227Y3794D01*
X18030Y3599D02*
X18008Y3621D01*
X18030Y3100D02*
X18030Y3599D01*
X16900Y1970D02*
X17280Y1970D01*
X17323Y2013D02*
X17822Y2013D01*
X17280Y1970D02*
X17323Y2013D01*
X9000Y-4570D02*
X9000Y-4818D01*
X9000Y-5700D02*
X9000Y-5484D01*
X9025Y-5484D02*
X9000Y-5484D01*
X9050Y-5459D02*
X9025Y-5484D01*
X9050Y-5184D02*
X9050Y-5459D01*
X8937Y-5070D02*
X9050Y-5184D01*
X8937Y-4880D02*
X8937Y-5070D01*
X9000Y-4818D02*
X8937Y-4880D01*
X14590Y-4746D02*
X17018Y-4746D01*
X13674Y-5662D02*
X14590Y-4746D01*
X9665Y-5662D02*
X13674Y-5662D01*
X9462Y-5459D02*
X9665Y-5662D01*
X9050Y-5459D02*
X9462Y-5459D01*
X18839Y-1335D02*
X18834Y-1330D01*
X22249Y-1335D02*
X18839Y-1335D01*
X22687Y-1772D02*
X22249Y-1335D01*
X23100Y-1772D02*
X22687Y-1772D01*
X23100Y394D02*
X22719Y394D01*
X22696Y416D02*
X22622Y416D01*
X22719Y394D02*
X22696Y416D01*
X23100Y590D02*
X23480Y590D01*
X23561Y590D02*
X23579Y572D01*
X23480Y590D02*
X23561Y590D01*
X23826Y787D02*
X23100Y787D01*
X24313Y301D02*
X23826Y787D01*
X24018Y985D02*
X23100Y985D01*
X24193Y810D02*
X24018Y985D01*
X20985Y3100D02*
X20985Y2719D01*
X21282Y2422D02*
X21282Y2308D01*
X20985Y2719D02*
X21282Y2422D01*
X20787Y2473D02*
X20787Y3100D01*
X20585Y2270D02*
X20787Y2473D01*
X18069Y-197D02*
X16900Y-197D01*
X16465Y842D02*
X16519Y787D01*
X16417Y842D02*
X16465Y842D01*
X16900Y787D02*
X16519Y787D01*
X16362Y590D02*
X16900Y590D01*
X15643Y1309D02*
X16362Y590D01*
X15643Y1433D02*
X15643Y1309D01*
X19802Y-2529D02*
X19802Y-3100D01*
X19823Y-2509D02*
X19802Y-2529D01*
X18424Y-3100D02*
X18424Y-3480D01*
X18424Y-3480D02*
X17296Y-3480D01*
X19015Y-3100D02*
X19015Y-3480D01*
X18794Y-3700D02*
X17581Y-3700D01*
X19015Y-3480D02*
X18794Y-3700D01*
X13512Y-394D02*
X13043Y-863D01*
X16900Y-394D02*
X13512Y-394D01*
X16900Y-590D02*
X16519Y-590D01*
X13826Y-590D02*
X13554Y-863D01*
X16519Y-590D02*
X13826Y-590D01*
X18030Y-3100D02*
X18030Y-2719D01*
X18030Y-2611D02*
X18018Y-2599D01*
X18030Y-2719D02*
X18030Y-2611D01*
X18227Y-3100D02*
X18227Y-2719D01*
X18249Y-2696D02*
X18227Y-2719D01*
X18249Y-2388D02*
X18249Y-2696D01*
X19212Y-3100D02*
X19212Y-3480D01*
X18771Y-3920D02*
X17336Y-3920D01*
X19212Y-3480D02*
X18771Y-3920D01*
X22690Y-817D02*
X22719Y-787D01*
X22321Y-817D02*
X22690Y-817D01*
X23100Y-787D02*
X22719Y-787D01*
X21379Y3100D02*
X21379Y3480D01*
X24504Y2196D02*
X24798Y2196D01*
X22838Y3862D02*
X24504Y2196D01*
X21761Y3862D02*
X22838Y3862D01*
X21379Y3480D02*
X21761Y3862D01*
X21182Y3100D02*
X21182Y3480D01*
X25292Y2411D02*
X25372Y2490D01*
X24459Y2411D02*
X25292Y2411D01*
X22859Y4010D02*
X24459Y2411D01*
X21712Y4010D02*
X22859Y4010D01*
X21182Y3480D02*
X21712Y4010D01*
X21575Y3100D02*
X21575Y3480D01*
X24996Y1981D02*
X25094Y1883D01*
X24549Y1981D02*
X24996Y1981D01*
X22790Y3740D02*
X24549Y1981D01*
X21836Y3740D02*
X22790Y3740D01*
X21575Y3480D02*
X21836Y3740D01*
X21772Y3100D02*
X21772Y3480D01*
X24528Y1765D02*
X24741Y1765D01*
X22674Y3620D02*
X24528Y1765D01*
X21913Y3620D02*
X22674Y3620D01*
X21772Y3480D02*
X21913Y3620D01*
X29000Y4500D02*
X29000Y4890D01*
X20900Y8000D02*
X21240Y8000D01*
X20394Y-3100D02*
X20394Y-2719D01*
X20489Y-2624D02*
X20522Y-2624D01*
X20394Y-2719D02*
X20489Y-2624D01*
X23124Y6401D02*
X22838Y6401D01*
X23251Y6528D02*
X23124Y6401D01*
X24317Y6528D02*
X23251Y6528D01*
X24392Y6604D02*
X24317Y6528D01*
X27144Y6604D02*
X24392Y6604D01*
X28858Y4890D02*
X27144Y6604D01*
X29000Y4890D02*
X28858Y4890D01*
X21240Y8000D02*
X22838Y6401D01*
X22838Y6401D02*
X22838Y6249D01*
X29000Y6500D02*
X28418Y6500D01*
X23100Y7000D02*
X23440Y7000D01*
X20590Y-3100D02*
X20590Y-3480D01*
X23494Y7000D02*
X23557Y6937D01*
X23440Y7000D02*
X23494Y7000D01*
X20691Y-3580D02*
X20691Y-3580D01*
X20590Y-3480D02*
X20691Y-3580D01*
X23857Y7237D02*
X23557Y6937D01*
X27681Y7237D02*
X23857Y7237D01*
X28418Y6500D02*
X27681Y7237D01*
X29000Y5500D02*
X28418Y5500D01*
X23100Y7500D02*
X22759Y7500D01*
X20197Y-3100D02*
X20197Y-3577D01*
X23001Y6707D02*
X23001Y6617D01*
X24326Y6707D02*
X23001Y6707D01*
X24346Y6728D02*
X24326Y6707D01*
X27190Y6728D02*
X24346Y6728D01*
X28418Y5500D02*
X27190Y6728D01*
X22759Y6837D02*
X22759Y7500D01*
X22889Y6707D02*
X22759Y6837D01*
X23001Y6707D02*
X22889Y6707D01*
X17832Y-3100D02*
X17832Y-2719D01*
X20900Y8500D02*
X20421Y8500D01*
X18133Y-2165D02*
X18671Y-2165D01*
X17799Y-2499D02*
X18133Y-2165D01*
X17799Y-2685D02*
X17799Y-2499D01*
X17832Y-2719D02*
X17799Y-2685D01*
X9570Y-4314D02*
X9818Y-4314D01*
X23100Y-1970D02*
X22719Y-1970D01*
X10902Y-5399D02*
X9818Y-4314D01*
X13558Y-5399D02*
X10902Y-5399D01*
X14693Y-4264D02*
X13558Y-5399D01*
X14871Y-4264D02*
X14693Y-4264D01*
X15439Y-3696D02*
X14871Y-4264D01*
X15439Y-3557D02*
X15439Y-3696D01*
X16244Y-2752D02*
X15439Y-3557D01*
X17277Y-2752D02*
X16244Y-2752D01*
X17542Y-2486D02*
X17277Y-2752D01*
X17542Y-2358D02*
X17542Y-2486D01*
X18356Y-1545D02*
X17542Y-2358D01*
X19198Y-1545D02*
X18356Y-1545D01*
X19216Y-1528D02*
X19198Y-1545D01*
X22258Y-1528D02*
X19216Y-1528D01*
X22700Y-1970D02*
X22258Y-1528D01*
X22719Y-1970D02*
X22700Y-1970D01*
X8413Y-4173D02*
X8429Y-4157D01*
X8077Y-4173D02*
X8413Y-4173D01*
X7941Y-4309D02*
X8077Y-4173D01*
X21970Y-4330D02*
X21970Y-3100D01*
X20565Y-5734D02*
X21970Y-4330D01*
X20565Y-6114D02*
X20565Y-5734D01*
X20485Y-6194D02*
X20565Y-6114D01*
X20224Y-6194D02*
X20485Y-6194D01*
X20133Y-6285D02*
X20224Y-6194D01*
X18833Y-6285D02*
X20133Y-6285D01*
X18713Y-6165D02*
X18833Y-6285D01*
X13624Y-6165D02*
X18713Y-6165D01*
X13494Y-6035D02*
X13624Y-6165D01*
X7941Y-6035D02*
X13494Y-6035D01*
X23893Y-985D02*
X23100Y-985D01*
X23980Y-897D02*
X23893Y-985D01*
X20985Y-3100D02*
X20985Y-2719D01*
X21469Y-2719D02*
X21588Y-2601D01*
X20985Y-2719D02*
X21469Y-2719D01*
X20787Y-3100D02*
X20787Y-2719D01*
X20809Y-2719D02*
X21029Y-2500D01*
X20787Y-2719D02*
X20809Y-2719D01*
X2332Y-1803D02*
X1898Y-2237D01*
X2332Y-1500D02*
X2332Y-1803D01*
X2679Y-1500D02*
X2332Y-1500D01*
X1542Y-2237D02*
X1898Y-2237D01*
X2679Y-1500D02*
X3025Y-1500D01*
X16900Y-985D02*
X16519Y-985D01*
X3025Y-1108D02*
X3025Y-1500D01*
X3394Y-739D02*
X3025Y-1108D01*
X12417Y-739D02*
X3394Y-739D01*
X12759Y-1081D02*
X12417Y-739D01*
X16423Y-1081D02*
X12759Y-1081D01*
X16519Y-985D02*
X16423Y-1081D01*
G54D58*
X15400Y-9612D02*
X15400Y-9500D01*
X15825Y-10037D02*
X15400Y-9612D01*
X16162Y-10037D02*
X15825Y-10037D01*
X16599Y-9600D02*
X16162Y-10037D01*
X16599Y-9500D02*
X16599Y-9600D01*
X17000Y-9500D02*
X16599Y-9500D01*
X15000Y-9500D02*
X15400Y-9500D01*
X14000Y-10750D02*
X14362Y-10750D01*
X12200Y7500D02*
X12200Y8250D01*
X12200Y6750D02*
X12200Y7500D01*
X12200Y6750D02*
X11974Y6750D01*
X12550Y-4750D02*
X12775Y-4750D01*
X12800Y5250D02*
X12574Y5250D01*
X11974Y6750D02*
X11974Y6325D01*
X12390Y6325D02*
X11974Y6325D01*
X12574Y6140D02*
X12390Y6325D01*
X12574Y5250D02*
X12574Y6140D01*
X10350Y6325D02*
X10275Y6250D01*
X11974Y6325D02*
X10350Y6325D01*
X9894Y6250D02*
X10275Y6250D01*
X6987Y6250D02*
X9894Y6250D01*
X6487Y6750D02*
X6987Y6250D01*
X6105Y6750D02*
X6487Y6750D01*
X14300Y-3750D02*
X14074Y-3750D01*
X17635Y3100D02*
X17635Y2709D01*
X12800Y5250D02*
X13025Y5250D01*
X12800Y4500D02*
X12800Y4825D01*
X12890Y4825D02*
X12800Y4825D01*
X13075Y5009D02*
X12890Y4825D01*
X13075Y5200D02*
X13075Y5009D01*
X13075Y5200D02*
X13025Y5250D01*
X14300Y-3000D02*
X14412Y-3000D01*
X14412Y-3312D02*
X14300Y-3424D01*
X14412Y-3000D02*
X14412Y-3312D01*
X14300Y-3750D02*
X14300Y-3424D01*
X14074Y-3908D02*
X13565Y-4417D01*
X14074Y-3750D02*
X14074Y-3908D01*
X13107Y-4417D02*
X12775Y-4750D01*
X13565Y-4417D02*
X13107Y-4417D01*
X23100Y8500D02*
X22749Y8500D01*
X23100Y8000D02*
X22749Y8000D01*
X26724Y949D02*
X26525Y750D01*
X26724Y1500D02*
X26724Y949D01*
X26950Y1500D02*
X26724Y1500D01*
X26300Y750D02*
X26525Y750D01*
X13100Y-325D02*
X13025Y-250D01*
X13182Y-325D02*
X13100Y-325D01*
X12800Y-250D02*
X13025Y-250D01*
X14000Y-6950D02*
X14000Y-6724D01*
X7975Y-6300D02*
X7775Y-6500D01*
X9000Y-6300D02*
X7975Y-6300D01*
X7550Y-6500D02*
X7775Y-6500D01*
X16900Y-2364D02*
X16509Y-2364D01*
X9000Y-6300D02*
X9325Y-6300D01*
X14000Y-6950D02*
X14000Y-7175D01*
X14420Y-7455D02*
X14375Y-7409D01*
X14420Y-10691D02*
X14420Y-7455D01*
X14362Y-10750D02*
X14420Y-10691D01*
X14140Y-7175D02*
X14000Y-7175D01*
X14375Y-7409D02*
X14140Y-7175D01*
X20250Y-6550D02*
X20250Y-6522D01*
X19500Y-6550D02*
X19174Y-6550D01*
X19500Y-6550D02*
X19825Y-6550D01*
X16900Y-2364D02*
X17290Y-2364D01*
X26350Y8000D02*
X23100Y8000D01*
X14551Y-3000D02*
X15186Y-2365D01*
X14412Y-3000D02*
X14551Y-3000D01*
X16508Y-2365D02*
X15186Y-2365D01*
X16509Y-2364D02*
X16508Y-2365D01*
X13575Y-6300D02*
X14000Y-6724D01*
X9325Y-6300D02*
X13575Y-6300D01*
X25314Y-10942D02*
X25314Y-12557D01*
X22000Y5200D02*
X21674Y5200D01*
X17000Y5200D02*
X17000Y5425D01*
X23100Y-394D02*
X22709Y-394D01*
X21449Y5425D02*
X17000Y5425D01*
X21674Y5200D02*
X21449Y5425D01*
X22140Y5425D02*
X22000Y5425D01*
X22325Y5609D02*
X22140Y5425D01*
X22325Y6424D02*
X22325Y5609D01*
X21250Y7500D02*
X22325Y6424D01*
X20900Y7500D02*
X21250Y7500D01*
X22000Y5200D02*
X22000Y5425D01*
X26212Y-2424D02*
X26300Y-2424D01*
X25925Y-2137D02*
X26212Y-2424D01*
X25925Y-2000D02*
X25925Y-2137D01*
X25700Y-2000D02*
X25925Y-2000D01*
X26300Y-2750D02*
X26300Y-2424D01*
X17635Y3100D02*
X17635Y3490D01*
X13075Y5200D02*
X17000Y5200D01*
X17000Y4126D02*
X17635Y3490D01*
X17000Y5200D02*
X17000Y4126D01*
X18479Y-6550D02*
X19174Y-6550D01*
X18438Y-6509D02*
X18479Y-6550D01*
X18351Y-6509D02*
X18438Y-6509D01*
X18166Y-6324D02*
X18351Y-6509D01*
X15460Y-6324D02*
X18166Y-6324D01*
X14375Y-7409D02*
X15460Y-6324D01*
X25700Y-2000D02*
X25700Y-1674D01*
X20900Y7500D02*
X20549Y7500D01*
X20549Y8180D02*
X20549Y7500D01*
X20610Y8240D02*
X20549Y8180D01*
X22543Y8240D02*
X20610Y8240D01*
X22543Y8293D02*
X22543Y8240D01*
X22749Y8500D02*
X22543Y8293D01*
X22543Y8206D02*
X22749Y8000D01*
X22543Y8240D02*
X22543Y8206D01*
X19852Y-6522D02*
X20250Y-6522D01*
X19825Y-6550D02*
X19852Y-6522D01*
X20447Y-6324D02*
X23250Y-6324D01*
X20250Y-6522D02*
X20447Y-6324D01*
X26300Y750D02*
X26074Y750D01*
X25610Y-1585D02*
X25610Y-1339D01*
X25700Y-1674D02*
X25610Y-1585D01*
X24664Y-394D02*
X25610Y-1339D01*
X23100Y-394D02*
X24664Y-394D01*
X26074Y-875D02*
X26074Y750D01*
X25610Y-1339D02*
X26074Y-875D01*
X26074Y5225D02*
X26074Y750D01*
X26099Y5250D02*
X26074Y5225D01*
X26375Y5250D02*
X26099Y5250D01*
X30000Y-8500D02*
X29604Y-8500D01*
X25314Y-10942D02*
X25314Y-10665D01*
X22523Y-580D02*
X22709Y-394D01*
X19968Y-580D02*
X22523Y-580D01*
X19897Y-652D02*
X19968Y-580D01*
X19820Y-652D02*
X19897Y-652D01*
X19820Y-925D02*
X19820Y-652D01*
X19661Y-1085D02*
X19820Y-925D01*
X19471Y-1085D02*
X19661Y-1085D01*
X19371Y-985D02*
X19471Y-1085D01*
X18562Y-985D02*
X19371Y-985D01*
X17290Y-2257D02*
X18562Y-985D01*
X17290Y-2364D02*
X17290Y-2257D01*
X21950Y2690D02*
X21970Y2709D01*
X21950Y2029D02*
X21950Y2690D01*
X18316Y2029D02*
X17635Y2709D01*
X21950Y2029D02*
X18316Y2029D01*
X21970Y3100D02*
X21970Y2709D01*
X23250Y-6550D02*
X23250Y-6359D01*
X23250Y-6359D02*
X23250Y-6324D01*
X23850Y-6324D02*
X24000Y-6175D01*
X23250Y-6324D02*
X23850Y-6324D01*
X23250Y-6324D02*
X23250Y-6324D01*
X24000Y-6062D02*
X24000Y-6175D01*
X24000Y-6062D02*
X24000Y-5950D01*
X22364Y-3100D02*
X22364Y-3490D01*
X29198Y-8093D02*
X27356Y-8093D01*
X29604Y-8500D02*
X29198Y-8093D01*
X25557Y-10665D02*
X25314Y-10665D01*
X26500Y-9723D02*
X25557Y-10665D01*
X26500Y-8950D02*
X26500Y-9723D01*
X27356Y-8093D02*
X26500Y-8950D01*
X25431Y-5390D02*
X24000Y-5390D01*
X27356Y-7314D02*
X25431Y-5390D01*
X27356Y-8093D02*
X27356Y-7314D01*
X24000Y-5950D02*
X24000Y-5390D01*
X24000Y-5126D02*
X22364Y-3490D01*
X24000Y-5390D02*
X24000Y-5126D01*
X22547Y1432D02*
X21950Y2029D01*
X22547Y887D02*
X22547Y1432D01*
X21458Y-201D02*
X22547Y887D01*
X19675Y-201D02*
X21458Y-201D01*
X19543Y-333D02*
X19675Y-201D01*
X19543Y-520D02*
X19543Y-333D01*
X19675Y-652D02*
X19543Y-520D01*
X19820Y-652D02*
X19675Y-652D01*
G54D59*
X23100Y-1575D02*
X22719Y-1575D01*
X12341Y-8116D02*
X11955Y-8502D01*
X12341Y-6885D02*
X12341Y-8116D01*
X11955Y-8750D02*
X11955Y-8502D01*
X8842Y-3148D02*
X8842Y-3429D01*
X8739Y-3045D02*
X8842Y-3148D01*
X8664Y-3045D02*
X8739Y-3045D01*
X8489Y-2870D02*
X8664Y-3045D01*
X8489Y-2681D02*
X8489Y-2870D01*
X8668Y-2502D02*
X8489Y-2681D01*
X9638Y-2502D02*
X8668Y-2502D01*
X10306Y-1834D02*
X9638Y-2502D01*
X11771Y-1834D02*
X10306Y-1834D01*
X12060Y-2123D02*
X11771Y-1834D01*
X12060Y-4230D02*
X12060Y-2123D01*
X12334Y-4505D02*
X12060Y-4230D01*
X12334Y-5027D02*
X12334Y-4505D01*
X12372Y-5065D02*
X12334Y-5027D01*
X13051Y-5065D02*
X12372Y-5065D01*
X13065Y-5051D02*
X13051Y-5065D01*
X13476Y-5051D02*
X13065Y-5051D01*
X15905Y-2622D02*
X13476Y-5051D01*
X17226Y-2622D02*
X15905Y-2622D01*
X17422Y-2426D02*
X17226Y-2622D01*
X17422Y-2309D02*
X17422Y-2426D01*
X18616Y-1115D02*
X17422Y-2309D01*
X18923Y-1115D02*
X18616Y-1115D01*
X19023Y-1215D02*
X18923Y-1115D01*
X22359Y-1215D02*
X19023Y-1215D01*
X22719Y-1575D02*
X22359Y-1215D01*
M02*
