M48
INCH,TZ
T1C0.012
T2C0.025
T3C0.026
T4C0.040
%
G90
G05
T1
X3357Y9508
X4631Y10219
X6531Y13409
X7487Y9542
X11706Y4129
X14170Y3374
X14920Y1574
X15234Y2125
X15933Y3501
X17489Y3388
X18078Y3235
X21700Y1050
X23509Y9225
X26972Y9546
X31130Y9445
X31331Y13127
X34356Y5092
X34768Y13324
X35301Y9720
T2
X10699Y4523
T3
X8750Y1000
X8750Y500
X9250Y1000
X9250Y500
X9750Y1000
X9750Y500
X10250Y1000
X10250Y500
X10750Y1000
X10750Y500
T4
X1000Y6750
X1000Y5750
X1000Y4750
X1000Y3750
X14750Y500
X15750Y500
X16750Y500
X17750Y500
X18750Y500
X19750Y500
X29250Y18250
X30250Y18250
X31250Y18250
X32250Y18250
X33250Y18250
X34250Y18250
X38250Y6750
X38250Y5750
X38250Y4750
X38250Y3750
T0
M30
