G04 (created by PCBNEW (2013-07-07 BZR 4022)-stable) date 02/01/2016 16:19:00*
%MOIN*%
G04 Gerber Fmt 3.4, Leading zero omitted, Abs format*
%FSLAX34Y34*%
G01*
G70*
G90*
G04 APERTURE LIST*
%ADD10C,0.00590551*%
%ADD11C,0.00393701*%
%ADD12C,0.005*%
%ADD13C,0.0059*%
%ADD14C,0.0045*%
G04 APERTURE END LIST*
G54D10*
G54D11*
X39370Y0D02*
X0Y0D01*
X39370Y19685D02*
X39370Y0D01*
X0Y19685D02*
X39370Y19685D01*
X0Y0D02*
X0Y19685D01*
G54D12*
X19235Y11561D02*
X20135Y11561D01*
X20135Y11561D02*
X20135Y12061D01*
X20135Y12061D02*
X19235Y12061D01*
X19235Y12061D02*
X19235Y11561D01*
X3487Y7624D02*
X4387Y7624D01*
X4387Y7624D02*
X4387Y8124D01*
X4387Y8124D02*
X3487Y8124D01*
X3487Y8124D02*
X3487Y7624D01*
X7424Y7624D02*
X8324Y7624D01*
X8324Y7624D02*
X8324Y8124D01*
X8324Y8124D02*
X7424Y8124D01*
X7424Y8124D02*
X7424Y7624D01*
X11361Y7624D02*
X12261Y7624D01*
X12261Y7624D02*
X12261Y8124D01*
X12261Y8124D02*
X11361Y8124D01*
X11361Y8124D02*
X11361Y7624D01*
X15298Y7624D02*
X16198Y7624D01*
X16198Y7624D02*
X16198Y8124D01*
X16198Y8124D02*
X15298Y8124D01*
X15298Y8124D02*
X15298Y7624D01*
X19235Y7624D02*
X20135Y7624D01*
X20135Y7624D02*
X20135Y8124D01*
X20135Y8124D02*
X19235Y8124D01*
X19235Y8124D02*
X19235Y7624D01*
X23172Y7624D02*
X24072Y7624D01*
X24072Y7624D02*
X24072Y8124D01*
X24072Y8124D02*
X23172Y8124D01*
X23172Y8124D02*
X23172Y7624D01*
X27109Y7624D02*
X28009Y7624D01*
X28009Y7624D02*
X28009Y8124D01*
X28009Y8124D02*
X27109Y8124D01*
X27109Y8124D02*
X27109Y7624D01*
X31046Y7624D02*
X31946Y7624D01*
X31946Y7624D02*
X31946Y8124D01*
X31946Y8124D02*
X31046Y8124D01*
X31046Y8124D02*
X31046Y7624D01*
X34983Y7624D02*
X35883Y7624D01*
X35883Y7624D02*
X35883Y8124D01*
X35883Y8124D02*
X34983Y8124D01*
X34983Y8124D02*
X34983Y7624D01*
X3487Y11561D02*
X4387Y11561D01*
X4387Y11561D02*
X4387Y12061D01*
X4387Y12061D02*
X3487Y12061D01*
X3487Y12061D02*
X3487Y11561D01*
X7424Y11561D02*
X8324Y11561D01*
X8324Y11561D02*
X8324Y12061D01*
X8324Y12061D02*
X7424Y12061D01*
X7424Y12061D02*
X7424Y11561D01*
X11361Y11561D02*
X12261Y11561D01*
X12261Y11561D02*
X12261Y12061D01*
X12261Y12061D02*
X11361Y12061D01*
X11361Y12061D02*
X11361Y11561D01*
X15298Y11561D02*
X16198Y11561D01*
X16198Y11561D02*
X16198Y12061D01*
X16198Y12061D02*
X15298Y12061D01*
X15298Y12061D02*
X15298Y11561D01*
X23172Y11561D02*
X24072Y11561D01*
X24072Y11561D02*
X24072Y12061D01*
X24072Y12061D02*
X23172Y12061D01*
X23172Y12061D02*
X23172Y11561D01*
X27109Y11561D02*
X28009Y11561D01*
X28009Y11561D02*
X28009Y12061D01*
X28009Y12061D02*
X27109Y12061D01*
X27109Y12061D02*
X27109Y11561D01*
X31046Y11561D02*
X31946Y11561D01*
X31946Y11561D02*
X31946Y12061D01*
X31946Y12061D02*
X31046Y12061D01*
X31046Y12061D02*
X31046Y11561D01*
X34983Y11561D02*
X35883Y11561D01*
X35883Y11561D02*
X35883Y12061D01*
X35883Y12061D02*
X34983Y12061D01*
X34983Y12061D02*
X34983Y11561D01*
X3487Y15498D02*
X4387Y15498D01*
X4387Y15498D02*
X4387Y15998D01*
X4387Y15998D02*
X3487Y15998D01*
X3487Y15998D02*
X3487Y15498D01*
X7424Y15498D02*
X8324Y15498D01*
X8324Y15498D02*
X8324Y15998D01*
X8324Y15998D02*
X7424Y15998D01*
X7424Y15998D02*
X7424Y15498D01*
X11361Y15498D02*
X12261Y15498D01*
X12261Y15498D02*
X12261Y15998D01*
X12261Y15998D02*
X11361Y15998D01*
X11361Y15998D02*
X11361Y15498D01*
X15298Y15498D02*
X16198Y15498D01*
X16198Y15498D02*
X16198Y15998D01*
X16198Y15998D02*
X15298Y15998D01*
X15298Y15998D02*
X15298Y15498D01*
X19235Y15498D02*
X20135Y15498D01*
X20135Y15498D02*
X20135Y15998D01*
X20135Y15998D02*
X19235Y15998D01*
X19235Y15998D02*
X19235Y15498D01*
X23172Y15498D02*
X24072Y15498D01*
X24072Y15498D02*
X24072Y15998D01*
X24072Y15998D02*
X23172Y15998D01*
X23172Y15998D02*
X23172Y15498D01*
X27109Y15498D02*
X28009Y15498D01*
X28009Y15498D02*
X28009Y15998D01*
X28009Y15998D02*
X27109Y15998D01*
X27109Y15998D02*
X27109Y15498D01*
X31046Y15498D02*
X31946Y15498D01*
X31946Y15498D02*
X31946Y15998D01*
X31946Y15998D02*
X31046Y15998D01*
X31046Y15998D02*
X31046Y15498D01*
X34983Y15498D02*
X35883Y15498D01*
X35883Y15498D02*
X35883Y15998D01*
X35883Y15998D02*
X34983Y15998D01*
X34983Y15998D02*
X34983Y15498D01*
G54D10*
X4527Y12795D02*
X4921Y13149D01*
X2952Y14763D02*
X2952Y12795D01*
X2952Y12795D02*
X4921Y12795D01*
X4921Y12795D02*
X4921Y14763D01*
X4921Y14763D02*
X2952Y14763D01*
G54D13*
X4724Y13779D02*
G75*
G03X4724Y13779I-787J0D01*
G74*
G01*
G54D10*
X16338Y4921D02*
X16732Y5275D01*
X14763Y6889D02*
X14763Y4921D01*
X14763Y4921D02*
X16732Y4921D01*
X16732Y4921D02*
X16732Y6889D01*
X16732Y6889D02*
X14763Y6889D01*
G54D13*
X16535Y5905D02*
G75*
G03X16535Y5905I-787J0D01*
G74*
G01*
G54D10*
X12401Y4921D02*
X12795Y5275D01*
X10826Y6889D02*
X10826Y4921D01*
X10826Y4921D02*
X12795Y4921D01*
X12795Y4921D02*
X12795Y6889D01*
X12795Y6889D02*
X10826Y6889D01*
G54D13*
X12598Y5905D02*
G75*
G03X12598Y5905I-787J0D01*
G74*
G01*
G54D10*
X8464Y4921D02*
X8858Y5275D01*
X6889Y6889D02*
X6889Y4921D01*
X6889Y4921D02*
X8858Y4921D01*
X8858Y4921D02*
X8858Y6889D01*
X8858Y6889D02*
X6889Y6889D01*
G54D13*
X8661Y5905D02*
G75*
G03X8661Y5905I-787J0D01*
G74*
G01*
G54D10*
X4527Y4921D02*
X4921Y5275D01*
X2952Y6889D02*
X2952Y4921D01*
X2952Y4921D02*
X4921Y4921D01*
X4921Y4921D02*
X4921Y6889D01*
X4921Y6889D02*
X2952Y6889D01*
G54D13*
X4724Y5905D02*
G75*
G03X4724Y5905I-787J0D01*
G74*
G01*
G54D10*
X32086Y4921D02*
X32480Y5275D01*
X30511Y6889D02*
X30511Y4921D01*
X30511Y4921D02*
X32480Y4921D01*
X32480Y4921D02*
X32480Y6889D01*
X32480Y6889D02*
X30511Y6889D01*
G54D13*
X32284Y5905D02*
G75*
G03X32284Y5905I-787J0D01*
G74*
G01*
G54D10*
X36023Y8858D02*
X36417Y9212D01*
X34448Y10826D02*
X34448Y8858D01*
X34448Y8858D02*
X36417Y8858D01*
X36417Y8858D02*
X36417Y10826D01*
X36417Y10826D02*
X34448Y10826D01*
G54D13*
X36221Y9842D02*
G75*
G03X36221Y9842I-787J0D01*
G74*
G01*
G54D10*
X32086Y8858D02*
X32480Y9212D01*
X30511Y10826D02*
X30511Y8858D01*
X30511Y8858D02*
X32480Y8858D01*
X32480Y8858D02*
X32480Y10826D01*
X32480Y10826D02*
X30511Y10826D01*
G54D13*
X32284Y9842D02*
G75*
G03X32284Y9842I-787J0D01*
G74*
G01*
G54D10*
X28149Y4921D02*
X28543Y5275D01*
X26574Y6889D02*
X26574Y4921D01*
X26574Y4921D02*
X28543Y4921D01*
X28543Y4921D02*
X28543Y6889D01*
X28543Y6889D02*
X26574Y6889D01*
G54D13*
X28347Y5905D02*
G75*
G03X28347Y5905I-787J0D01*
G74*
G01*
G54D10*
X24212Y4921D02*
X24606Y5275D01*
X22637Y6889D02*
X22637Y4921D01*
X22637Y4921D02*
X24606Y4921D01*
X24606Y4921D02*
X24606Y6889D01*
X24606Y6889D02*
X22637Y6889D01*
G54D13*
X24410Y5905D02*
G75*
G03X24410Y5905I-787J0D01*
G74*
G01*
G54D10*
X20275Y4921D02*
X20669Y5275D01*
X18700Y6889D02*
X18700Y4921D01*
X18700Y4921D02*
X20669Y4921D01*
X20669Y4921D02*
X20669Y6889D01*
X20669Y6889D02*
X18700Y6889D01*
G54D13*
X20473Y5905D02*
G75*
G03X20473Y5905I-787J0D01*
G74*
G01*
G54D10*
X8464Y12795D02*
X8858Y13149D01*
X6889Y14763D02*
X6889Y12795D01*
X6889Y12795D02*
X8858Y12795D01*
X8858Y12795D02*
X8858Y14763D01*
X8858Y14763D02*
X6889Y14763D01*
G54D13*
X8661Y13779D02*
G75*
G03X8661Y13779I-787J0D01*
G74*
G01*
G54D10*
X36023Y12795D02*
X36417Y13149D01*
X34448Y14763D02*
X34448Y12795D01*
X34448Y12795D02*
X36417Y12795D01*
X36417Y12795D02*
X36417Y14763D01*
X36417Y14763D02*
X34448Y14763D01*
G54D13*
X36221Y13779D02*
G75*
G03X36221Y13779I-787J0D01*
G74*
G01*
G54D10*
X32086Y12795D02*
X32480Y13149D01*
X30511Y14763D02*
X30511Y12795D01*
X30511Y12795D02*
X32480Y12795D01*
X32480Y12795D02*
X32480Y14763D01*
X32480Y14763D02*
X30511Y14763D01*
G54D13*
X32284Y13779D02*
G75*
G03X32284Y13779I-787J0D01*
G74*
G01*
G54D10*
X28149Y12795D02*
X28543Y13149D01*
X26574Y14763D02*
X26574Y12795D01*
X26574Y12795D02*
X28543Y12795D01*
X28543Y12795D02*
X28543Y14763D01*
X28543Y14763D02*
X26574Y14763D01*
G54D13*
X28347Y13779D02*
G75*
G03X28347Y13779I-787J0D01*
G74*
G01*
G54D10*
X24212Y12795D02*
X24606Y13149D01*
X22637Y14763D02*
X22637Y12795D01*
X22637Y12795D02*
X24606Y12795D01*
X24606Y12795D02*
X24606Y14763D01*
X24606Y14763D02*
X22637Y14763D01*
G54D13*
X24410Y13779D02*
G75*
G03X24410Y13779I-787J0D01*
G74*
G01*
G54D10*
X20275Y12795D02*
X20669Y13149D01*
X18700Y14763D02*
X18700Y12795D01*
X18700Y12795D02*
X20669Y12795D01*
X20669Y12795D02*
X20669Y14763D01*
X20669Y14763D02*
X18700Y14763D01*
G54D13*
X20473Y13779D02*
G75*
G03X20473Y13779I-787J0D01*
G74*
G01*
G54D10*
X16338Y12795D02*
X16732Y13149D01*
X14763Y14763D02*
X14763Y12795D01*
X14763Y12795D02*
X16732Y12795D01*
X16732Y12795D02*
X16732Y14763D01*
X16732Y14763D02*
X14763Y14763D01*
G54D13*
X16535Y13779D02*
G75*
G03X16535Y13779I-787J0D01*
G74*
G01*
G54D10*
X12401Y12795D02*
X12795Y13149D01*
X10826Y14763D02*
X10826Y12795D01*
X10826Y12795D02*
X12795Y12795D01*
X12795Y12795D02*
X12795Y14763D01*
X12795Y14763D02*
X10826Y14763D01*
G54D13*
X12598Y13779D02*
G75*
G03X12598Y13779I-787J0D01*
G74*
G01*
G54D10*
X28149Y8858D02*
X28543Y9212D01*
X26574Y10826D02*
X26574Y8858D01*
X26574Y8858D02*
X28543Y8858D01*
X28543Y8858D02*
X28543Y10826D01*
X28543Y10826D02*
X26574Y10826D01*
G54D13*
X28347Y9842D02*
G75*
G03X28347Y9842I-787J0D01*
G74*
G01*
G54D10*
X24212Y8858D02*
X24606Y9212D01*
X22637Y10826D02*
X22637Y8858D01*
X22637Y8858D02*
X24606Y8858D01*
X24606Y8858D02*
X24606Y10826D01*
X24606Y10826D02*
X22637Y10826D01*
G54D13*
X24410Y9842D02*
G75*
G03X24410Y9842I-787J0D01*
G74*
G01*
G54D10*
X20275Y8858D02*
X20669Y9212D01*
X18700Y10826D02*
X18700Y8858D01*
X18700Y8858D02*
X20669Y8858D01*
X20669Y8858D02*
X20669Y10826D01*
X20669Y10826D02*
X18700Y10826D01*
G54D13*
X20473Y9842D02*
G75*
G03X20473Y9842I-787J0D01*
G74*
G01*
G54D10*
X16338Y8858D02*
X16732Y9212D01*
X14763Y10826D02*
X14763Y8858D01*
X14763Y8858D02*
X16732Y8858D01*
X16732Y8858D02*
X16732Y10826D01*
X16732Y10826D02*
X14763Y10826D01*
G54D13*
X16535Y9842D02*
G75*
G03X16535Y9842I-787J0D01*
G74*
G01*
G54D10*
X12401Y8858D02*
X12795Y9212D01*
X10826Y10826D02*
X10826Y8858D01*
X10826Y8858D02*
X12795Y8858D01*
X12795Y8858D02*
X12795Y10826D01*
X12795Y10826D02*
X10826Y10826D01*
G54D13*
X12598Y9842D02*
G75*
G03X12598Y9842I-787J0D01*
G74*
G01*
G54D10*
X8464Y8858D02*
X8858Y9212D01*
X6889Y10826D02*
X6889Y8858D01*
X6889Y8858D02*
X8858Y8858D01*
X8858Y8858D02*
X8858Y10826D01*
X8858Y10826D02*
X6889Y10826D01*
G54D13*
X8661Y9842D02*
G75*
G03X8661Y9842I-787J0D01*
G74*
G01*
G54D10*
X4527Y8858D02*
X4921Y9212D01*
X2952Y10826D02*
X2952Y8858D01*
X2952Y8858D02*
X4921Y8858D01*
X4921Y8858D02*
X4921Y10826D01*
X4921Y10826D02*
X2952Y10826D01*
G54D13*
X4724Y9842D02*
G75*
G03X4724Y9842I-787J0D01*
G74*
G01*
G54D10*
X36023Y4921D02*
X36417Y5275D01*
X34448Y6889D02*
X34448Y4921D01*
X34448Y4921D02*
X36417Y4921D01*
X36417Y4921D02*
X36417Y6889D01*
X36417Y6889D02*
X34448Y6889D01*
G54D13*
X36221Y5905D02*
G75*
G03X36221Y5905I-787J0D01*
G74*
G01*
G54D14*
X20615Y11688D02*
X20624Y11678D01*
X20650Y11669D01*
X20667Y11669D01*
X20692Y11678D01*
X20710Y11697D01*
X20718Y11716D01*
X20727Y11754D01*
X20727Y11783D01*
X20718Y11821D01*
X20710Y11840D01*
X20692Y11859D01*
X20667Y11869D01*
X20650Y11869D01*
X20624Y11859D01*
X20615Y11850D01*
X20444Y11669D02*
X20547Y11669D01*
X20495Y11669D02*
X20495Y11869D01*
X20512Y11840D01*
X20530Y11821D01*
X20547Y11811D01*
X20358Y11669D02*
X20324Y11669D01*
X20307Y11678D01*
X20298Y11688D01*
X20281Y11716D01*
X20272Y11754D01*
X20272Y11830D01*
X20281Y11850D01*
X20290Y11859D01*
X20307Y11869D01*
X20341Y11869D01*
X20358Y11859D01*
X20367Y11850D01*
X20375Y11830D01*
X20375Y11783D01*
X20367Y11764D01*
X20358Y11754D01*
X20341Y11745D01*
X20307Y11745D01*
X20290Y11754D01*
X20281Y11764D01*
X20272Y11783D01*
X4865Y7688D02*
X4874Y7678D01*
X4900Y7669D01*
X4917Y7669D01*
X4942Y7678D01*
X4960Y7697D01*
X4968Y7716D01*
X4977Y7754D01*
X4977Y7783D01*
X4968Y7821D01*
X4960Y7840D01*
X4942Y7859D01*
X4917Y7869D01*
X4900Y7869D01*
X4874Y7859D01*
X4865Y7850D01*
X4805Y7869D02*
X4694Y7869D01*
X4754Y7792D01*
X4728Y7792D01*
X4711Y7783D01*
X4702Y7773D01*
X4694Y7754D01*
X4694Y7707D01*
X4702Y7688D01*
X4711Y7678D01*
X4728Y7669D01*
X4780Y7669D01*
X4797Y7678D01*
X4805Y7688D01*
X4625Y7850D02*
X4617Y7859D01*
X4600Y7869D01*
X4557Y7869D01*
X4540Y7859D01*
X4531Y7850D01*
X4522Y7830D01*
X4522Y7811D01*
X4531Y7783D01*
X4634Y7669D01*
X4522Y7669D01*
X8865Y7688D02*
X8874Y7678D01*
X8900Y7669D01*
X8917Y7669D01*
X8942Y7678D01*
X8960Y7697D01*
X8968Y7716D01*
X8977Y7754D01*
X8977Y7783D01*
X8968Y7821D01*
X8960Y7840D01*
X8942Y7859D01*
X8917Y7869D01*
X8900Y7869D01*
X8874Y7859D01*
X8865Y7850D01*
X8805Y7869D02*
X8694Y7869D01*
X8754Y7792D01*
X8728Y7792D01*
X8711Y7783D01*
X8702Y7773D01*
X8694Y7754D01*
X8694Y7707D01*
X8702Y7688D01*
X8711Y7678D01*
X8728Y7669D01*
X8780Y7669D01*
X8797Y7678D01*
X8805Y7688D01*
X8522Y7669D02*
X8625Y7669D01*
X8574Y7669D02*
X8574Y7869D01*
X8591Y7840D01*
X8608Y7821D01*
X8625Y7811D01*
X12865Y7688D02*
X12874Y7678D01*
X12900Y7669D01*
X12917Y7669D01*
X12942Y7678D01*
X12960Y7697D01*
X12968Y7716D01*
X12977Y7754D01*
X12977Y7783D01*
X12968Y7821D01*
X12960Y7840D01*
X12942Y7859D01*
X12917Y7869D01*
X12900Y7869D01*
X12874Y7859D01*
X12865Y7850D01*
X12805Y7869D02*
X12694Y7869D01*
X12754Y7792D01*
X12728Y7792D01*
X12711Y7783D01*
X12702Y7773D01*
X12694Y7754D01*
X12694Y7707D01*
X12702Y7688D01*
X12711Y7678D01*
X12728Y7669D01*
X12780Y7669D01*
X12797Y7678D01*
X12805Y7688D01*
X12582Y7869D02*
X12565Y7869D01*
X12548Y7859D01*
X12540Y7850D01*
X12531Y7830D01*
X12522Y7792D01*
X12522Y7745D01*
X12531Y7707D01*
X12540Y7688D01*
X12548Y7678D01*
X12565Y7669D01*
X12582Y7669D01*
X12600Y7678D01*
X12608Y7688D01*
X12617Y7707D01*
X12625Y7745D01*
X12625Y7792D01*
X12617Y7830D01*
X12608Y7850D01*
X12600Y7859D01*
X12582Y7869D01*
X16615Y7688D02*
X16624Y7678D01*
X16650Y7669D01*
X16667Y7669D01*
X16692Y7678D01*
X16710Y7697D01*
X16718Y7716D01*
X16727Y7754D01*
X16727Y7783D01*
X16718Y7821D01*
X16710Y7840D01*
X16692Y7859D01*
X16667Y7869D01*
X16650Y7869D01*
X16624Y7859D01*
X16615Y7850D01*
X16547Y7850D02*
X16538Y7859D01*
X16521Y7869D01*
X16478Y7869D01*
X16461Y7859D01*
X16452Y7850D01*
X16444Y7830D01*
X16444Y7811D01*
X16452Y7783D01*
X16555Y7669D01*
X16444Y7669D01*
X16358Y7669D02*
X16324Y7669D01*
X16307Y7678D01*
X16298Y7688D01*
X16281Y7716D01*
X16272Y7754D01*
X16272Y7830D01*
X16281Y7850D01*
X16290Y7859D01*
X16307Y7869D01*
X16341Y7869D01*
X16358Y7859D01*
X16367Y7850D01*
X16375Y7830D01*
X16375Y7783D01*
X16367Y7764D01*
X16358Y7754D01*
X16341Y7745D01*
X16307Y7745D01*
X16290Y7754D01*
X16281Y7764D01*
X16272Y7783D01*
X20615Y7688D02*
X20624Y7678D01*
X20650Y7669D01*
X20667Y7669D01*
X20692Y7678D01*
X20710Y7697D01*
X20718Y7716D01*
X20727Y7754D01*
X20727Y7783D01*
X20718Y7821D01*
X20710Y7840D01*
X20692Y7859D01*
X20667Y7869D01*
X20650Y7869D01*
X20624Y7859D01*
X20615Y7850D01*
X20547Y7850D02*
X20538Y7859D01*
X20521Y7869D01*
X20478Y7869D01*
X20461Y7859D01*
X20452Y7850D01*
X20444Y7830D01*
X20444Y7811D01*
X20452Y7783D01*
X20555Y7669D01*
X20444Y7669D01*
X20341Y7783D02*
X20358Y7792D01*
X20367Y7802D01*
X20375Y7821D01*
X20375Y7830D01*
X20367Y7850D01*
X20358Y7859D01*
X20341Y7869D01*
X20307Y7869D01*
X20290Y7859D01*
X20281Y7850D01*
X20272Y7830D01*
X20272Y7821D01*
X20281Y7802D01*
X20290Y7792D01*
X20307Y7783D01*
X20341Y7783D01*
X20358Y7773D01*
X20367Y7764D01*
X20375Y7745D01*
X20375Y7707D01*
X20367Y7688D01*
X20358Y7678D01*
X20341Y7669D01*
X20307Y7669D01*
X20290Y7678D01*
X20281Y7688D01*
X20272Y7707D01*
X20272Y7745D01*
X20281Y7764D01*
X20290Y7773D01*
X20307Y7783D01*
X24615Y7688D02*
X24624Y7678D01*
X24650Y7669D01*
X24667Y7669D01*
X24692Y7678D01*
X24710Y7697D01*
X24718Y7716D01*
X24727Y7754D01*
X24727Y7783D01*
X24718Y7821D01*
X24710Y7840D01*
X24692Y7859D01*
X24667Y7869D01*
X24650Y7869D01*
X24624Y7859D01*
X24615Y7850D01*
X24547Y7850D02*
X24538Y7859D01*
X24521Y7869D01*
X24478Y7869D01*
X24461Y7859D01*
X24452Y7850D01*
X24444Y7830D01*
X24444Y7811D01*
X24452Y7783D01*
X24555Y7669D01*
X24444Y7669D01*
X24384Y7869D02*
X24264Y7869D01*
X24341Y7669D01*
X28615Y7688D02*
X28624Y7678D01*
X28650Y7669D01*
X28667Y7669D01*
X28692Y7678D01*
X28710Y7697D01*
X28718Y7716D01*
X28727Y7754D01*
X28727Y7783D01*
X28718Y7821D01*
X28710Y7840D01*
X28692Y7859D01*
X28667Y7869D01*
X28650Y7869D01*
X28624Y7859D01*
X28615Y7850D01*
X28547Y7850D02*
X28538Y7859D01*
X28521Y7869D01*
X28478Y7869D01*
X28461Y7859D01*
X28452Y7850D01*
X28444Y7830D01*
X28444Y7811D01*
X28452Y7783D01*
X28555Y7669D01*
X28444Y7669D01*
X28290Y7869D02*
X28324Y7869D01*
X28341Y7859D01*
X28350Y7850D01*
X28367Y7821D01*
X28375Y7783D01*
X28375Y7707D01*
X28367Y7688D01*
X28358Y7678D01*
X28341Y7669D01*
X28307Y7669D01*
X28290Y7678D01*
X28281Y7688D01*
X28272Y7707D01*
X28272Y7754D01*
X28281Y7773D01*
X28290Y7783D01*
X28307Y7792D01*
X28341Y7792D01*
X28358Y7783D01*
X28367Y7773D01*
X28375Y7754D01*
X32365Y7688D02*
X32374Y7678D01*
X32400Y7669D01*
X32417Y7669D01*
X32442Y7678D01*
X32460Y7697D01*
X32468Y7716D01*
X32477Y7754D01*
X32477Y7783D01*
X32468Y7821D01*
X32460Y7840D01*
X32442Y7859D01*
X32417Y7869D01*
X32400Y7869D01*
X32374Y7859D01*
X32365Y7850D01*
X32297Y7850D02*
X32288Y7859D01*
X32271Y7869D01*
X32228Y7869D01*
X32211Y7859D01*
X32202Y7850D01*
X32194Y7830D01*
X32194Y7811D01*
X32202Y7783D01*
X32305Y7669D01*
X32194Y7669D01*
X32031Y7869D02*
X32117Y7869D01*
X32125Y7773D01*
X32117Y7783D01*
X32100Y7792D01*
X32057Y7792D01*
X32040Y7783D01*
X32031Y7773D01*
X32022Y7754D01*
X32022Y7707D01*
X32031Y7688D01*
X32040Y7678D01*
X32057Y7669D01*
X32100Y7669D01*
X32117Y7678D01*
X32125Y7688D01*
X36365Y7688D02*
X36374Y7678D01*
X36400Y7669D01*
X36417Y7669D01*
X36442Y7678D01*
X36460Y7697D01*
X36468Y7716D01*
X36477Y7754D01*
X36477Y7783D01*
X36468Y7821D01*
X36460Y7840D01*
X36442Y7859D01*
X36417Y7869D01*
X36400Y7869D01*
X36374Y7859D01*
X36365Y7850D01*
X36297Y7850D02*
X36288Y7859D01*
X36271Y7869D01*
X36228Y7869D01*
X36211Y7859D01*
X36202Y7850D01*
X36194Y7830D01*
X36194Y7811D01*
X36202Y7783D01*
X36305Y7669D01*
X36194Y7669D01*
X36040Y7802D02*
X36040Y7669D01*
X36082Y7878D02*
X36125Y7735D01*
X36014Y7735D01*
X4865Y11688D02*
X4874Y11678D01*
X4900Y11669D01*
X4917Y11669D01*
X4942Y11678D01*
X4960Y11697D01*
X4968Y11716D01*
X4977Y11754D01*
X4977Y11783D01*
X4968Y11821D01*
X4960Y11840D01*
X4942Y11859D01*
X4917Y11869D01*
X4900Y11869D01*
X4874Y11859D01*
X4865Y11850D01*
X4797Y11850D02*
X4788Y11859D01*
X4771Y11869D01*
X4728Y11869D01*
X4711Y11859D01*
X4702Y11850D01*
X4694Y11830D01*
X4694Y11811D01*
X4702Y11783D01*
X4805Y11669D01*
X4694Y11669D01*
X4634Y11869D02*
X4522Y11869D01*
X4582Y11792D01*
X4557Y11792D01*
X4540Y11783D01*
X4531Y11773D01*
X4522Y11754D01*
X4522Y11707D01*
X4531Y11688D01*
X4540Y11678D01*
X4557Y11669D01*
X4608Y11669D01*
X4625Y11678D01*
X4634Y11688D01*
X8865Y11688D02*
X8874Y11678D01*
X8900Y11669D01*
X8917Y11669D01*
X8942Y11678D01*
X8960Y11697D01*
X8968Y11716D01*
X8977Y11754D01*
X8977Y11783D01*
X8968Y11821D01*
X8960Y11840D01*
X8942Y11859D01*
X8917Y11869D01*
X8900Y11869D01*
X8874Y11859D01*
X8865Y11850D01*
X8797Y11850D02*
X8788Y11859D01*
X8771Y11869D01*
X8728Y11869D01*
X8711Y11859D01*
X8702Y11850D01*
X8694Y11830D01*
X8694Y11811D01*
X8702Y11783D01*
X8805Y11669D01*
X8694Y11669D01*
X8625Y11850D02*
X8617Y11859D01*
X8600Y11869D01*
X8557Y11869D01*
X8540Y11859D01*
X8531Y11850D01*
X8522Y11830D01*
X8522Y11811D01*
X8531Y11783D01*
X8634Y11669D01*
X8522Y11669D01*
X12865Y11688D02*
X12874Y11678D01*
X12900Y11669D01*
X12917Y11669D01*
X12942Y11678D01*
X12960Y11697D01*
X12968Y11716D01*
X12977Y11754D01*
X12977Y11783D01*
X12968Y11821D01*
X12960Y11840D01*
X12942Y11859D01*
X12917Y11869D01*
X12900Y11869D01*
X12874Y11859D01*
X12865Y11850D01*
X12797Y11850D02*
X12788Y11859D01*
X12771Y11869D01*
X12728Y11869D01*
X12711Y11859D01*
X12702Y11850D01*
X12694Y11830D01*
X12694Y11811D01*
X12702Y11783D01*
X12805Y11669D01*
X12694Y11669D01*
X12522Y11669D02*
X12625Y11669D01*
X12574Y11669D02*
X12574Y11869D01*
X12591Y11840D01*
X12608Y11821D01*
X12625Y11811D01*
X16615Y11688D02*
X16624Y11678D01*
X16650Y11669D01*
X16667Y11669D01*
X16692Y11678D01*
X16710Y11697D01*
X16718Y11716D01*
X16727Y11754D01*
X16727Y11783D01*
X16718Y11821D01*
X16710Y11840D01*
X16692Y11859D01*
X16667Y11869D01*
X16650Y11869D01*
X16624Y11859D01*
X16615Y11850D01*
X16547Y11850D02*
X16538Y11859D01*
X16521Y11869D01*
X16478Y11869D01*
X16461Y11859D01*
X16452Y11850D01*
X16444Y11830D01*
X16444Y11811D01*
X16452Y11783D01*
X16555Y11669D01*
X16444Y11669D01*
X16332Y11869D02*
X16315Y11869D01*
X16298Y11859D01*
X16290Y11850D01*
X16281Y11830D01*
X16272Y11792D01*
X16272Y11745D01*
X16281Y11707D01*
X16290Y11688D01*
X16298Y11678D01*
X16315Y11669D01*
X16332Y11669D01*
X16350Y11678D01*
X16358Y11688D01*
X16367Y11707D01*
X16375Y11745D01*
X16375Y11792D01*
X16367Y11830D01*
X16358Y11850D01*
X16350Y11859D01*
X16332Y11869D01*
X24615Y11688D02*
X24624Y11678D01*
X24650Y11669D01*
X24667Y11669D01*
X24692Y11678D01*
X24710Y11697D01*
X24718Y11716D01*
X24727Y11754D01*
X24727Y11783D01*
X24718Y11821D01*
X24710Y11840D01*
X24692Y11859D01*
X24667Y11869D01*
X24650Y11869D01*
X24624Y11859D01*
X24615Y11850D01*
X24444Y11669D02*
X24547Y11669D01*
X24495Y11669D02*
X24495Y11869D01*
X24512Y11840D01*
X24530Y11821D01*
X24547Y11811D01*
X24341Y11783D02*
X24358Y11792D01*
X24367Y11802D01*
X24375Y11821D01*
X24375Y11830D01*
X24367Y11850D01*
X24358Y11859D01*
X24341Y11869D01*
X24307Y11869D01*
X24290Y11859D01*
X24281Y11850D01*
X24272Y11830D01*
X24272Y11821D01*
X24281Y11802D01*
X24290Y11792D01*
X24307Y11783D01*
X24341Y11783D01*
X24358Y11773D01*
X24367Y11764D01*
X24375Y11745D01*
X24375Y11707D01*
X24367Y11688D01*
X24358Y11678D01*
X24341Y11669D01*
X24307Y11669D01*
X24290Y11678D01*
X24281Y11688D01*
X24272Y11707D01*
X24272Y11745D01*
X24281Y11764D01*
X24290Y11773D01*
X24307Y11783D01*
X28615Y11688D02*
X28624Y11678D01*
X28650Y11669D01*
X28667Y11669D01*
X28692Y11678D01*
X28710Y11697D01*
X28718Y11716D01*
X28727Y11754D01*
X28727Y11783D01*
X28718Y11821D01*
X28710Y11840D01*
X28692Y11859D01*
X28667Y11869D01*
X28650Y11869D01*
X28624Y11859D01*
X28615Y11850D01*
X28444Y11669D02*
X28547Y11669D01*
X28495Y11669D02*
X28495Y11869D01*
X28512Y11840D01*
X28530Y11821D01*
X28547Y11811D01*
X28384Y11869D02*
X28264Y11869D01*
X28341Y11669D01*
X32615Y11688D02*
X32624Y11678D01*
X32650Y11669D01*
X32667Y11669D01*
X32692Y11678D01*
X32710Y11697D01*
X32718Y11716D01*
X32727Y11754D01*
X32727Y11783D01*
X32718Y11821D01*
X32710Y11840D01*
X32692Y11859D01*
X32667Y11869D01*
X32650Y11869D01*
X32624Y11859D01*
X32615Y11850D01*
X32444Y11669D02*
X32547Y11669D01*
X32495Y11669D02*
X32495Y11869D01*
X32512Y11840D01*
X32530Y11821D01*
X32547Y11811D01*
X32290Y11869D02*
X32324Y11869D01*
X32341Y11859D01*
X32350Y11850D01*
X32367Y11821D01*
X32375Y11783D01*
X32375Y11707D01*
X32367Y11688D01*
X32358Y11678D01*
X32341Y11669D01*
X32307Y11669D01*
X32290Y11678D01*
X32281Y11688D01*
X32272Y11707D01*
X32272Y11754D01*
X32281Y11773D01*
X32290Y11783D01*
X32307Y11792D01*
X32341Y11792D01*
X32358Y11783D01*
X32367Y11773D01*
X32375Y11754D01*
X36365Y11688D02*
X36374Y11678D01*
X36400Y11669D01*
X36417Y11669D01*
X36442Y11678D01*
X36460Y11697D01*
X36468Y11716D01*
X36477Y11754D01*
X36477Y11783D01*
X36468Y11821D01*
X36460Y11840D01*
X36442Y11859D01*
X36417Y11869D01*
X36400Y11869D01*
X36374Y11859D01*
X36365Y11850D01*
X36194Y11669D02*
X36297Y11669D01*
X36245Y11669D02*
X36245Y11869D01*
X36262Y11840D01*
X36280Y11821D01*
X36297Y11811D01*
X36031Y11869D02*
X36117Y11869D01*
X36125Y11773D01*
X36117Y11783D01*
X36100Y11792D01*
X36057Y11792D01*
X36040Y11783D01*
X36031Y11773D01*
X36022Y11754D01*
X36022Y11707D01*
X36031Y11688D01*
X36040Y11678D01*
X36057Y11669D01*
X36100Y11669D01*
X36117Y11678D01*
X36125Y11688D01*
X4115Y16188D02*
X4124Y16178D01*
X4150Y16169D01*
X4167Y16169D01*
X4192Y16178D01*
X4210Y16197D01*
X4218Y16216D01*
X4227Y16254D01*
X4227Y16283D01*
X4218Y16321D01*
X4210Y16340D01*
X4192Y16359D01*
X4167Y16369D01*
X4150Y16369D01*
X4124Y16359D01*
X4115Y16350D01*
X3944Y16169D02*
X4047Y16169D01*
X3995Y16169D02*
X3995Y16369D01*
X4012Y16340D01*
X4030Y16321D01*
X4047Y16311D01*
X3790Y16302D02*
X3790Y16169D01*
X3832Y16378D02*
X3875Y16235D01*
X3764Y16235D01*
X7865Y16188D02*
X7874Y16178D01*
X7900Y16169D01*
X7917Y16169D01*
X7942Y16178D01*
X7960Y16197D01*
X7968Y16216D01*
X7977Y16254D01*
X7977Y16283D01*
X7968Y16321D01*
X7960Y16340D01*
X7942Y16359D01*
X7917Y16369D01*
X7900Y16369D01*
X7874Y16359D01*
X7865Y16350D01*
X7694Y16169D02*
X7797Y16169D01*
X7745Y16169D02*
X7745Y16369D01*
X7762Y16340D01*
X7780Y16321D01*
X7797Y16311D01*
X7634Y16369D02*
X7522Y16369D01*
X7582Y16292D01*
X7557Y16292D01*
X7540Y16283D01*
X7531Y16273D01*
X7522Y16254D01*
X7522Y16207D01*
X7531Y16188D01*
X7540Y16178D01*
X7557Y16169D01*
X7608Y16169D01*
X7625Y16178D01*
X7634Y16188D01*
X11865Y16188D02*
X11874Y16178D01*
X11900Y16169D01*
X11917Y16169D01*
X11942Y16178D01*
X11960Y16197D01*
X11968Y16216D01*
X11977Y16254D01*
X11977Y16283D01*
X11968Y16321D01*
X11960Y16340D01*
X11942Y16359D01*
X11917Y16369D01*
X11900Y16369D01*
X11874Y16359D01*
X11865Y16350D01*
X11694Y16169D02*
X11797Y16169D01*
X11745Y16169D02*
X11745Y16369D01*
X11762Y16340D01*
X11780Y16321D01*
X11797Y16311D01*
X11625Y16350D02*
X11617Y16359D01*
X11600Y16369D01*
X11557Y16369D01*
X11540Y16359D01*
X11531Y16350D01*
X11522Y16330D01*
X11522Y16311D01*
X11531Y16283D01*
X11634Y16169D01*
X11522Y16169D01*
X15865Y16188D02*
X15874Y16178D01*
X15900Y16169D01*
X15917Y16169D01*
X15942Y16178D01*
X15960Y16197D01*
X15968Y16216D01*
X15977Y16254D01*
X15977Y16283D01*
X15968Y16321D01*
X15960Y16340D01*
X15942Y16359D01*
X15917Y16369D01*
X15900Y16369D01*
X15874Y16359D01*
X15865Y16350D01*
X15694Y16169D02*
X15797Y16169D01*
X15745Y16169D02*
X15745Y16369D01*
X15762Y16340D01*
X15780Y16321D01*
X15797Y16311D01*
X15522Y16169D02*
X15625Y16169D01*
X15574Y16169D02*
X15574Y16369D01*
X15591Y16340D01*
X15608Y16321D01*
X15625Y16311D01*
X19865Y16188D02*
X19874Y16178D01*
X19900Y16169D01*
X19917Y16169D01*
X19942Y16178D01*
X19960Y16197D01*
X19968Y16216D01*
X19977Y16254D01*
X19977Y16283D01*
X19968Y16321D01*
X19960Y16340D01*
X19942Y16359D01*
X19917Y16369D01*
X19900Y16369D01*
X19874Y16359D01*
X19865Y16350D01*
X19694Y16169D02*
X19797Y16169D01*
X19745Y16169D02*
X19745Y16369D01*
X19762Y16340D01*
X19780Y16321D01*
X19797Y16311D01*
X19582Y16369D02*
X19565Y16369D01*
X19548Y16359D01*
X19540Y16350D01*
X19531Y16330D01*
X19522Y16292D01*
X19522Y16245D01*
X19531Y16207D01*
X19540Y16188D01*
X19548Y16178D01*
X19565Y16169D01*
X19582Y16169D01*
X19600Y16178D01*
X19608Y16188D01*
X19617Y16207D01*
X19625Y16245D01*
X19625Y16292D01*
X19617Y16330D01*
X19608Y16350D01*
X19600Y16359D01*
X19582Y16369D01*
X23530Y16188D02*
X23538Y16178D01*
X23564Y16169D01*
X23581Y16169D01*
X23607Y16178D01*
X23624Y16197D01*
X23632Y16216D01*
X23641Y16254D01*
X23641Y16283D01*
X23632Y16321D01*
X23624Y16340D01*
X23607Y16359D01*
X23581Y16369D01*
X23564Y16369D01*
X23538Y16359D01*
X23530Y16350D01*
X23444Y16169D02*
X23410Y16169D01*
X23392Y16178D01*
X23384Y16188D01*
X23367Y16216D01*
X23358Y16254D01*
X23358Y16330D01*
X23367Y16350D01*
X23375Y16359D01*
X23392Y16369D01*
X23427Y16369D01*
X23444Y16359D01*
X23452Y16350D01*
X23461Y16330D01*
X23461Y16283D01*
X23452Y16264D01*
X23444Y16254D01*
X23427Y16245D01*
X23392Y16245D01*
X23375Y16254D01*
X23367Y16264D01*
X23358Y16283D01*
X27530Y16188D02*
X27538Y16178D01*
X27564Y16169D01*
X27581Y16169D01*
X27607Y16178D01*
X27624Y16197D01*
X27632Y16216D01*
X27641Y16254D01*
X27641Y16283D01*
X27632Y16321D01*
X27624Y16340D01*
X27607Y16359D01*
X27581Y16369D01*
X27564Y16369D01*
X27538Y16359D01*
X27530Y16350D01*
X27427Y16283D02*
X27444Y16292D01*
X27452Y16302D01*
X27461Y16321D01*
X27461Y16330D01*
X27452Y16350D01*
X27444Y16359D01*
X27427Y16369D01*
X27392Y16369D01*
X27375Y16359D01*
X27367Y16350D01*
X27358Y16330D01*
X27358Y16321D01*
X27367Y16302D01*
X27375Y16292D01*
X27392Y16283D01*
X27427Y16283D01*
X27444Y16273D01*
X27452Y16264D01*
X27461Y16245D01*
X27461Y16207D01*
X27452Y16188D01*
X27444Y16178D01*
X27427Y16169D01*
X27392Y16169D01*
X27375Y16178D01*
X27367Y16188D01*
X27358Y16207D01*
X27358Y16245D01*
X27367Y16264D01*
X27375Y16273D01*
X27392Y16283D01*
X31530Y16188D02*
X31538Y16178D01*
X31564Y16169D01*
X31581Y16169D01*
X31607Y16178D01*
X31624Y16197D01*
X31632Y16216D01*
X31641Y16254D01*
X31641Y16283D01*
X31632Y16321D01*
X31624Y16340D01*
X31607Y16359D01*
X31581Y16369D01*
X31564Y16369D01*
X31538Y16359D01*
X31530Y16350D01*
X31470Y16369D02*
X31350Y16369D01*
X31427Y16169D01*
X35530Y16188D02*
X35538Y16178D01*
X35564Y16169D01*
X35581Y16169D01*
X35607Y16178D01*
X35624Y16197D01*
X35632Y16216D01*
X35641Y16254D01*
X35641Y16283D01*
X35632Y16321D01*
X35624Y16340D01*
X35607Y16359D01*
X35581Y16369D01*
X35564Y16369D01*
X35538Y16359D01*
X35530Y16350D01*
X35375Y16369D02*
X35410Y16369D01*
X35427Y16359D01*
X35435Y16350D01*
X35452Y16321D01*
X35461Y16283D01*
X35461Y16207D01*
X35452Y16188D01*
X35444Y16178D01*
X35427Y16169D01*
X35392Y16169D01*
X35375Y16178D01*
X35367Y16188D01*
X35358Y16207D01*
X35358Y16254D01*
X35367Y16273D01*
X35375Y16283D01*
X35392Y16292D01*
X35427Y16292D01*
X35444Y16283D01*
X35452Y16273D01*
X35461Y16254D01*
G54D13*
X2450Y14169D02*
X2705Y14169D01*
X2735Y14154D01*
X2750Y14139D01*
X2765Y14109D01*
X2765Y14049D01*
X2750Y14019D01*
X2735Y14004D01*
X2705Y13989D01*
X2450Y13989D01*
X2765Y13674D02*
X2765Y13854D01*
X2765Y13764D02*
X2450Y13764D01*
X2495Y13794D01*
X2525Y13824D01*
X2540Y13854D01*
X2480Y13554D02*
X2465Y13539D01*
X2450Y13509D01*
X2450Y13434D01*
X2465Y13404D01*
X2480Y13389D01*
X2510Y13374D01*
X2540Y13374D01*
X2585Y13389D01*
X2765Y13569D01*
X2765Y13374D01*
X5107Y14822D02*
X5422Y14747D01*
X5197Y14687D01*
X5422Y14627D01*
X5107Y14552D01*
X5407Y14447D02*
X5422Y14402D01*
X5422Y14327D01*
X5407Y14297D01*
X5392Y14282D01*
X5362Y14267D01*
X5332Y14267D01*
X5302Y14282D01*
X5287Y14297D01*
X5272Y14327D01*
X5257Y14387D01*
X5242Y14417D01*
X5227Y14432D01*
X5197Y14447D01*
X5167Y14447D01*
X5137Y14432D01*
X5122Y14417D01*
X5107Y14387D01*
X5107Y14312D01*
X5122Y14267D01*
X5137Y14147D02*
X5122Y14132D01*
X5107Y14102D01*
X5107Y14027D01*
X5122Y13997D01*
X5137Y13982D01*
X5167Y13967D01*
X5197Y13967D01*
X5242Y13982D01*
X5422Y14162D01*
X5422Y13967D01*
X5242Y13787D02*
X5227Y13817D01*
X5212Y13832D01*
X5182Y13847D01*
X5167Y13847D01*
X5137Y13832D01*
X5122Y13817D01*
X5107Y13787D01*
X5107Y13727D01*
X5122Y13697D01*
X5137Y13682D01*
X5167Y13667D01*
X5182Y13667D01*
X5212Y13682D01*
X5227Y13697D01*
X5242Y13727D01*
X5242Y13787D01*
X5257Y13817D01*
X5272Y13832D01*
X5302Y13847D01*
X5362Y13847D01*
X5392Y13832D01*
X5407Y13817D01*
X5422Y13787D01*
X5422Y13727D01*
X5407Y13697D01*
X5392Y13682D01*
X5362Y13667D01*
X5302Y13667D01*
X5272Y13682D01*
X5257Y13697D01*
X5242Y13727D01*
X5422Y13367D02*
X5422Y13547D01*
X5422Y13457D02*
X5107Y13457D01*
X5152Y13487D01*
X5182Y13517D01*
X5197Y13547D01*
X5137Y13247D02*
X5122Y13232D01*
X5107Y13202D01*
X5107Y13127D01*
X5122Y13097D01*
X5137Y13082D01*
X5167Y13067D01*
X5197Y13067D01*
X5242Y13082D01*
X5422Y13262D01*
X5422Y13067D01*
X5257Y12827D02*
X5272Y12782D01*
X5287Y12767D01*
X5317Y12752D01*
X5362Y12752D01*
X5392Y12767D01*
X5407Y12782D01*
X5422Y12812D01*
X5422Y12932D01*
X5107Y12932D01*
X5107Y12827D01*
X5122Y12797D01*
X5137Y12782D01*
X5167Y12767D01*
X5197Y12767D01*
X5227Y12782D01*
X5242Y12797D01*
X5257Y12827D01*
X5257Y12932D01*
X14261Y6295D02*
X14516Y6295D01*
X14546Y6280D01*
X14561Y6265D01*
X14576Y6235D01*
X14576Y6175D01*
X14561Y6145D01*
X14546Y6130D01*
X14516Y6115D01*
X14261Y6115D01*
X14291Y5980D02*
X14276Y5965D01*
X14261Y5935D01*
X14261Y5860D01*
X14276Y5830D01*
X14291Y5815D01*
X14321Y5800D01*
X14351Y5800D01*
X14396Y5815D01*
X14576Y5995D01*
X14576Y5800D01*
X14261Y5695D02*
X14261Y5485D01*
X14576Y5620D01*
X16918Y6948D02*
X17233Y6873D01*
X17008Y6813D01*
X17233Y6753D01*
X16918Y6678D01*
X17218Y6573D02*
X17233Y6528D01*
X17233Y6453D01*
X17218Y6423D01*
X17203Y6408D01*
X17173Y6393D01*
X17143Y6393D01*
X17113Y6408D01*
X17098Y6423D01*
X17083Y6453D01*
X17068Y6513D01*
X17053Y6543D01*
X17038Y6558D01*
X17008Y6573D01*
X16978Y6573D01*
X16948Y6558D01*
X16933Y6543D01*
X16918Y6513D01*
X16918Y6438D01*
X16933Y6393D01*
X16948Y6273D02*
X16933Y6258D01*
X16918Y6228D01*
X16918Y6153D01*
X16933Y6123D01*
X16948Y6108D01*
X16978Y6093D01*
X17008Y6093D01*
X17053Y6108D01*
X17233Y6288D01*
X17233Y6093D01*
X17053Y5913D02*
X17038Y5943D01*
X17023Y5958D01*
X16993Y5973D01*
X16978Y5973D01*
X16948Y5958D01*
X16933Y5943D01*
X16918Y5913D01*
X16918Y5853D01*
X16933Y5823D01*
X16948Y5808D01*
X16978Y5793D01*
X16993Y5793D01*
X17023Y5808D01*
X17038Y5823D01*
X17053Y5853D01*
X17053Y5913D01*
X17068Y5943D01*
X17083Y5958D01*
X17113Y5973D01*
X17173Y5973D01*
X17203Y5958D01*
X17218Y5943D01*
X17233Y5913D01*
X17233Y5853D01*
X17218Y5823D01*
X17203Y5808D01*
X17173Y5793D01*
X17113Y5793D01*
X17083Y5808D01*
X17068Y5823D01*
X17053Y5853D01*
X17233Y5493D02*
X17233Y5673D01*
X17233Y5583D02*
X16918Y5583D01*
X16963Y5613D01*
X16993Y5643D01*
X17008Y5673D01*
X16948Y5373D02*
X16933Y5358D01*
X16918Y5328D01*
X16918Y5253D01*
X16933Y5223D01*
X16948Y5208D01*
X16978Y5193D01*
X17008Y5193D01*
X17053Y5208D01*
X17233Y5388D01*
X17233Y5193D01*
X17068Y4953D02*
X17083Y4908D01*
X17098Y4893D01*
X17128Y4878D01*
X17173Y4878D01*
X17203Y4893D01*
X17218Y4908D01*
X17233Y4938D01*
X17233Y5058D01*
X16918Y5058D01*
X16918Y4953D01*
X16933Y4923D01*
X16948Y4908D01*
X16978Y4893D01*
X17008Y4893D01*
X17038Y4908D01*
X17053Y4923D01*
X17068Y4953D01*
X17068Y5058D01*
X10324Y6295D02*
X10579Y6295D01*
X10609Y6280D01*
X10624Y6265D01*
X10639Y6235D01*
X10639Y6175D01*
X10624Y6145D01*
X10609Y6130D01*
X10579Y6115D01*
X10324Y6115D01*
X10354Y5980D02*
X10339Y5965D01*
X10324Y5935D01*
X10324Y5860D01*
X10339Y5830D01*
X10354Y5815D01*
X10384Y5800D01*
X10414Y5800D01*
X10459Y5815D01*
X10639Y5995D01*
X10639Y5800D01*
X10459Y5620D02*
X10444Y5650D01*
X10429Y5665D01*
X10399Y5680D01*
X10384Y5680D01*
X10354Y5665D01*
X10339Y5650D01*
X10324Y5620D01*
X10324Y5560D01*
X10339Y5530D01*
X10354Y5515D01*
X10384Y5500D01*
X10399Y5500D01*
X10429Y5515D01*
X10444Y5530D01*
X10459Y5560D01*
X10459Y5620D01*
X10474Y5650D01*
X10489Y5665D01*
X10519Y5680D01*
X10579Y5680D01*
X10609Y5665D01*
X10624Y5650D01*
X10639Y5620D01*
X10639Y5560D01*
X10624Y5530D01*
X10609Y5515D01*
X10579Y5500D01*
X10519Y5500D01*
X10489Y5515D01*
X10474Y5530D01*
X10459Y5560D01*
X12981Y6948D02*
X13296Y6873D01*
X13071Y6813D01*
X13296Y6753D01*
X12981Y6678D01*
X13281Y6573D02*
X13296Y6528D01*
X13296Y6453D01*
X13281Y6423D01*
X13266Y6408D01*
X13236Y6393D01*
X13206Y6393D01*
X13176Y6408D01*
X13161Y6423D01*
X13146Y6453D01*
X13131Y6513D01*
X13116Y6543D01*
X13101Y6558D01*
X13071Y6573D01*
X13041Y6573D01*
X13011Y6558D01*
X12996Y6543D01*
X12981Y6513D01*
X12981Y6438D01*
X12996Y6393D01*
X13011Y6273D02*
X12996Y6258D01*
X12981Y6228D01*
X12981Y6153D01*
X12996Y6123D01*
X13011Y6108D01*
X13041Y6093D01*
X13071Y6093D01*
X13116Y6108D01*
X13296Y6288D01*
X13296Y6093D01*
X13116Y5913D02*
X13101Y5943D01*
X13086Y5958D01*
X13056Y5973D01*
X13041Y5973D01*
X13011Y5958D01*
X12996Y5943D01*
X12981Y5913D01*
X12981Y5853D01*
X12996Y5823D01*
X13011Y5808D01*
X13041Y5793D01*
X13056Y5793D01*
X13086Y5808D01*
X13101Y5823D01*
X13116Y5853D01*
X13116Y5913D01*
X13131Y5943D01*
X13146Y5958D01*
X13176Y5973D01*
X13236Y5973D01*
X13266Y5958D01*
X13281Y5943D01*
X13296Y5913D01*
X13296Y5853D01*
X13281Y5823D01*
X13266Y5808D01*
X13236Y5793D01*
X13176Y5793D01*
X13146Y5808D01*
X13131Y5823D01*
X13116Y5853D01*
X13296Y5493D02*
X13296Y5673D01*
X13296Y5583D02*
X12981Y5583D01*
X13026Y5613D01*
X13056Y5643D01*
X13071Y5673D01*
X13011Y5373D02*
X12996Y5358D01*
X12981Y5328D01*
X12981Y5253D01*
X12996Y5223D01*
X13011Y5208D01*
X13041Y5193D01*
X13071Y5193D01*
X13116Y5208D01*
X13296Y5388D01*
X13296Y5193D01*
X13131Y4953D02*
X13146Y4908D01*
X13161Y4893D01*
X13191Y4878D01*
X13236Y4878D01*
X13266Y4893D01*
X13281Y4908D01*
X13296Y4938D01*
X13296Y5058D01*
X12981Y5058D01*
X12981Y4953D01*
X12996Y4923D01*
X13011Y4908D01*
X13041Y4893D01*
X13071Y4893D01*
X13101Y4908D01*
X13116Y4923D01*
X13131Y4953D01*
X13131Y5058D01*
X6387Y6295D02*
X6642Y6295D01*
X6672Y6280D01*
X6687Y6265D01*
X6702Y6235D01*
X6702Y6175D01*
X6687Y6145D01*
X6672Y6130D01*
X6642Y6115D01*
X6387Y6115D01*
X6417Y5980D02*
X6402Y5965D01*
X6387Y5935D01*
X6387Y5860D01*
X6402Y5830D01*
X6417Y5815D01*
X6447Y5800D01*
X6477Y5800D01*
X6522Y5815D01*
X6702Y5995D01*
X6702Y5800D01*
X6702Y5650D02*
X6702Y5590D01*
X6687Y5560D01*
X6672Y5545D01*
X6627Y5515D01*
X6567Y5500D01*
X6447Y5500D01*
X6417Y5515D01*
X6402Y5530D01*
X6387Y5560D01*
X6387Y5620D01*
X6402Y5650D01*
X6417Y5665D01*
X6447Y5680D01*
X6522Y5680D01*
X6552Y5665D01*
X6567Y5650D01*
X6582Y5620D01*
X6582Y5560D01*
X6567Y5530D01*
X6552Y5515D01*
X6522Y5500D01*
X9044Y6948D02*
X9359Y6873D01*
X9134Y6813D01*
X9359Y6753D01*
X9044Y6678D01*
X9344Y6573D02*
X9359Y6528D01*
X9359Y6453D01*
X9344Y6423D01*
X9329Y6408D01*
X9299Y6393D01*
X9269Y6393D01*
X9239Y6408D01*
X9224Y6423D01*
X9209Y6453D01*
X9194Y6513D01*
X9179Y6543D01*
X9164Y6558D01*
X9134Y6573D01*
X9104Y6573D01*
X9074Y6558D01*
X9059Y6543D01*
X9044Y6513D01*
X9044Y6438D01*
X9059Y6393D01*
X9074Y6273D02*
X9059Y6258D01*
X9044Y6228D01*
X9044Y6153D01*
X9059Y6123D01*
X9074Y6108D01*
X9104Y6093D01*
X9134Y6093D01*
X9179Y6108D01*
X9359Y6288D01*
X9359Y6093D01*
X9179Y5913D02*
X9164Y5943D01*
X9149Y5958D01*
X9119Y5973D01*
X9104Y5973D01*
X9074Y5958D01*
X9059Y5943D01*
X9044Y5913D01*
X9044Y5853D01*
X9059Y5823D01*
X9074Y5808D01*
X9104Y5793D01*
X9119Y5793D01*
X9149Y5808D01*
X9164Y5823D01*
X9179Y5853D01*
X9179Y5913D01*
X9194Y5943D01*
X9209Y5958D01*
X9239Y5973D01*
X9299Y5973D01*
X9329Y5958D01*
X9344Y5943D01*
X9359Y5913D01*
X9359Y5853D01*
X9344Y5823D01*
X9329Y5808D01*
X9299Y5793D01*
X9239Y5793D01*
X9209Y5808D01*
X9194Y5823D01*
X9179Y5853D01*
X9359Y5493D02*
X9359Y5673D01*
X9359Y5583D02*
X9044Y5583D01*
X9089Y5613D01*
X9119Y5643D01*
X9134Y5673D01*
X9074Y5373D02*
X9059Y5358D01*
X9044Y5328D01*
X9044Y5253D01*
X9059Y5223D01*
X9074Y5208D01*
X9104Y5193D01*
X9134Y5193D01*
X9179Y5208D01*
X9359Y5388D01*
X9359Y5193D01*
X9194Y4953D02*
X9209Y4908D01*
X9224Y4893D01*
X9254Y4878D01*
X9299Y4878D01*
X9329Y4893D01*
X9344Y4908D01*
X9359Y4938D01*
X9359Y5058D01*
X9044Y5058D01*
X9044Y4953D01*
X9059Y4923D01*
X9074Y4908D01*
X9104Y4893D01*
X9134Y4893D01*
X9164Y4908D01*
X9179Y4923D01*
X9194Y4953D01*
X9194Y5058D01*
X2450Y6295D02*
X2705Y6295D01*
X2735Y6280D01*
X2750Y6265D01*
X2765Y6235D01*
X2765Y6175D01*
X2750Y6145D01*
X2735Y6130D01*
X2705Y6115D01*
X2450Y6115D01*
X2450Y5995D02*
X2450Y5800D01*
X2570Y5905D01*
X2570Y5860D01*
X2585Y5830D01*
X2600Y5815D01*
X2630Y5800D01*
X2705Y5800D01*
X2735Y5815D01*
X2750Y5830D01*
X2765Y5860D01*
X2765Y5950D01*
X2750Y5980D01*
X2735Y5995D01*
X2450Y5605D02*
X2450Y5575D01*
X2465Y5545D01*
X2480Y5530D01*
X2510Y5515D01*
X2570Y5500D01*
X2645Y5500D01*
X2705Y5515D01*
X2735Y5530D01*
X2750Y5545D01*
X2765Y5575D01*
X2765Y5605D01*
X2750Y5635D01*
X2735Y5650D01*
X2705Y5665D01*
X2645Y5680D01*
X2570Y5680D01*
X2510Y5665D01*
X2480Y5650D01*
X2465Y5635D01*
X2450Y5605D01*
X5107Y6948D02*
X5422Y6873D01*
X5197Y6813D01*
X5422Y6753D01*
X5107Y6678D01*
X5407Y6573D02*
X5422Y6528D01*
X5422Y6453D01*
X5407Y6423D01*
X5392Y6408D01*
X5362Y6393D01*
X5332Y6393D01*
X5302Y6408D01*
X5287Y6423D01*
X5272Y6453D01*
X5257Y6513D01*
X5242Y6543D01*
X5227Y6558D01*
X5197Y6573D01*
X5167Y6573D01*
X5137Y6558D01*
X5122Y6543D01*
X5107Y6513D01*
X5107Y6438D01*
X5122Y6393D01*
X5137Y6273D02*
X5122Y6258D01*
X5107Y6228D01*
X5107Y6153D01*
X5122Y6123D01*
X5137Y6108D01*
X5167Y6093D01*
X5197Y6093D01*
X5242Y6108D01*
X5422Y6288D01*
X5422Y6093D01*
X5242Y5913D02*
X5227Y5943D01*
X5212Y5958D01*
X5182Y5973D01*
X5167Y5973D01*
X5137Y5958D01*
X5122Y5943D01*
X5107Y5913D01*
X5107Y5853D01*
X5122Y5823D01*
X5137Y5808D01*
X5167Y5793D01*
X5182Y5793D01*
X5212Y5808D01*
X5227Y5823D01*
X5242Y5853D01*
X5242Y5913D01*
X5257Y5943D01*
X5272Y5958D01*
X5302Y5973D01*
X5362Y5973D01*
X5392Y5958D01*
X5407Y5943D01*
X5422Y5913D01*
X5422Y5853D01*
X5407Y5823D01*
X5392Y5808D01*
X5362Y5793D01*
X5302Y5793D01*
X5272Y5808D01*
X5257Y5823D01*
X5242Y5853D01*
X5422Y5493D02*
X5422Y5673D01*
X5422Y5583D02*
X5107Y5583D01*
X5152Y5613D01*
X5182Y5643D01*
X5197Y5673D01*
X5137Y5373D02*
X5122Y5358D01*
X5107Y5328D01*
X5107Y5253D01*
X5122Y5223D01*
X5137Y5208D01*
X5167Y5193D01*
X5197Y5193D01*
X5242Y5208D01*
X5422Y5388D01*
X5422Y5193D01*
X5257Y4953D02*
X5272Y4908D01*
X5287Y4893D01*
X5317Y4878D01*
X5362Y4878D01*
X5392Y4893D01*
X5407Y4908D01*
X5422Y4938D01*
X5422Y5058D01*
X5107Y5058D01*
X5107Y4953D01*
X5122Y4923D01*
X5137Y4908D01*
X5167Y4893D01*
X5197Y4893D01*
X5227Y4908D01*
X5242Y4923D01*
X5257Y4953D01*
X5257Y5058D01*
X30009Y6295D02*
X30264Y6295D01*
X30294Y6280D01*
X30309Y6265D01*
X30324Y6235D01*
X30324Y6175D01*
X30309Y6145D01*
X30294Y6130D01*
X30264Y6115D01*
X30009Y6115D01*
X30039Y5980D02*
X30024Y5965D01*
X30009Y5935D01*
X30009Y5860D01*
X30024Y5830D01*
X30039Y5815D01*
X30069Y5800D01*
X30099Y5800D01*
X30144Y5815D01*
X30324Y5995D01*
X30324Y5800D01*
X30009Y5695D02*
X30009Y5500D01*
X30129Y5605D01*
X30129Y5560D01*
X30144Y5530D01*
X30159Y5515D01*
X30189Y5500D01*
X30264Y5500D01*
X30294Y5515D01*
X30309Y5530D01*
X30324Y5560D01*
X30324Y5650D01*
X30309Y5680D01*
X30294Y5695D01*
X32666Y6948D02*
X32981Y6873D01*
X32756Y6813D01*
X32981Y6753D01*
X32666Y6678D01*
X32966Y6573D02*
X32981Y6528D01*
X32981Y6453D01*
X32966Y6423D01*
X32951Y6408D01*
X32921Y6393D01*
X32891Y6393D01*
X32861Y6408D01*
X32846Y6423D01*
X32831Y6453D01*
X32816Y6513D01*
X32801Y6543D01*
X32786Y6558D01*
X32756Y6573D01*
X32726Y6573D01*
X32696Y6558D01*
X32681Y6543D01*
X32666Y6513D01*
X32666Y6438D01*
X32681Y6393D01*
X32696Y6273D02*
X32681Y6258D01*
X32666Y6228D01*
X32666Y6153D01*
X32681Y6123D01*
X32696Y6108D01*
X32726Y6093D01*
X32756Y6093D01*
X32801Y6108D01*
X32981Y6288D01*
X32981Y6093D01*
X32801Y5913D02*
X32786Y5943D01*
X32771Y5958D01*
X32741Y5973D01*
X32726Y5973D01*
X32696Y5958D01*
X32681Y5943D01*
X32666Y5913D01*
X32666Y5853D01*
X32681Y5823D01*
X32696Y5808D01*
X32726Y5793D01*
X32741Y5793D01*
X32771Y5808D01*
X32786Y5823D01*
X32801Y5853D01*
X32801Y5913D01*
X32816Y5943D01*
X32831Y5958D01*
X32861Y5973D01*
X32921Y5973D01*
X32951Y5958D01*
X32966Y5943D01*
X32981Y5913D01*
X32981Y5853D01*
X32966Y5823D01*
X32951Y5808D01*
X32921Y5793D01*
X32861Y5793D01*
X32831Y5808D01*
X32816Y5823D01*
X32801Y5853D01*
X32981Y5493D02*
X32981Y5673D01*
X32981Y5583D02*
X32666Y5583D01*
X32711Y5613D01*
X32741Y5643D01*
X32756Y5673D01*
X32696Y5373D02*
X32681Y5358D01*
X32666Y5328D01*
X32666Y5253D01*
X32681Y5223D01*
X32696Y5208D01*
X32726Y5193D01*
X32756Y5193D01*
X32801Y5208D01*
X32981Y5388D01*
X32981Y5193D01*
X32816Y4953D02*
X32831Y4908D01*
X32846Y4893D01*
X32876Y4878D01*
X32921Y4878D01*
X32951Y4893D01*
X32966Y4908D01*
X32981Y4938D01*
X32981Y5058D01*
X32666Y5058D01*
X32666Y4953D01*
X32681Y4923D01*
X32696Y4908D01*
X32726Y4893D01*
X32756Y4893D01*
X32786Y4908D01*
X32801Y4923D01*
X32816Y4953D01*
X32816Y5058D01*
X33946Y10232D02*
X34201Y10232D01*
X34231Y10217D01*
X34246Y10202D01*
X34261Y10172D01*
X34261Y10112D01*
X34246Y10082D01*
X34231Y10067D01*
X34201Y10052D01*
X33946Y10052D01*
X34261Y9737D02*
X34261Y9917D01*
X34261Y9827D02*
X33946Y9827D01*
X33991Y9857D01*
X34021Y9887D01*
X34036Y9917D01*
X33946Y9632D02*
X33946Y9437D01*
X34066Y9542D01*
X34066Y9497D01*
X34081Y9467D01*
X34096Y9452D01*
X34126Y9437D01*
X34201Y9437D01*
X34231Y9452D01*
X34246Y9467D01*
X34261Y9497D01*
X34261Y9587D01*
X34246Y9617D01*
X34231Y9632D01*
X36603Y10885D02*
X36918Y10810D01*
X36693Y10750D01*
X36918Y10690D01*
X36603Y10615D01*
X36903Y10510D02*
X36918Y10465D01*
X36918Y10390D01*
X36903Y10360D01*
X36888Y10345D01*
X36858Y10330D01*
X36828Y10330D01*
X36798Y10345D01*
X36783Y10360D01*
X36768Y10390D01*
X36753Y10450D01*
X36738Y10480D01*
X36723Y10495D01*
X36693Y10510D01*
X36663Y10510D01*
X36633Y10495D01*
X36618Y10480D01*
X36603Y10450D01*
X36603Y10375D01*
X36618Y10330D01*
X36633Y10210D02*
X36618Y10195D01*
X36603Y10165D01*
X36603Y10090D01*
X36618Y10060D01*
X36633Y10045D01*
X36663Y10030D01*
X36693Y10030D01*
X36738Y10045D01*
X36918Y10225D01*
X36918Y10030D01*
X36738Y9850D02*
X36723Y9880D01*
X36708Y9895D01*
X36678Y9910D01*
X36663Y9910D01*
X36633Y9895D01*
X36618Y9880D01*
X36603Y9850D01*
X36603Y9790D01*
X36618Y9760D01*
X36633Y9745D01*
X36663Y9730D01*
X36678Y9730D01*
X36708Y9745D01*
X36723Y9760D01*
X36738Y9790D01*
X36738Y9850D01*
X36753Y9880D01*
X36768Y9895D01*
X36798Y9910D01*
X36858Y9910D01*
X36888Y9895D01*
X36903Y9880D01*
X36918Y9850D01*
X36918Y9790D01*
X36903Y9760D01*
X36888Y9745D01*
X36858Y9730D01*
X36798Y9730D01*
X36768Y9745D01*
X36753Y9760D01*
X36738Y9790D01*
X36918Y9430D02*
X36918Y9610D01*
X36918Y9520D02*
X36603Y9520D01*
X36648Y9550D01*
X36678Y9580D01*
X36693Y9610D01*
X36633Y9310D02*
X36618Y9295D01*
X36603Y9265D01*
X36603Y9190D01*
X36618Y9160D01*
X36633Y9145D01*
X36663Y9130D01*
X36693Y9130D01*
X36738Y9145D01*
X36918Y9325D01*
X36918Y9130D01*
X36753Y8890D02*
X36768Y8845D01*
X36783Y8830D01*
X36813Y8815D01*
X36858Y8815D01*
X36888Y8830D01*
X36903Y8845D01*
X36918Y8875D01*
X36918Y8995D01*
X36603Y8995D01*
X36603Y8890D01*
X36618Y8860D01*
X36633Y8845D01*
X36663Y8830D01*
X36693Y8830D01*
X36723Y8845D01*
X36738Y8860D01*
X36753Y8890D01*
X36753Y8995D01*
X30009Y10232D02*
X30264Y10232D01*
X30294Y10217D01*
X30309Y10202D01*
X30324Y10172D01*
X30324Y10112D01*
X30309Y10082D01*
X30294Y10067D01*
X30264Y10052D01*
X30009Y10052D01*
X30324Y9737D02*
X30324Y9917D01*
X30324Y9827D02*
X30009Y9827D01*
X30054Y9857D01*
X30084Y9887D01*
X30099Y9917D01*
X30114Y9467D02*
X30324Y9467D01*
X29994Y9542D02*
X30219Y9617D01*
X30219Y9422D01*
X32666Y10885D02*
X32981Y10810D01*
X32756Y10750D01*
X32981Y10690D01*
X32666Y10615D01*
X32966Y10510D02*
X32981Y10465D01*
X32981Y10390D01*
X32966Y10360D01*
X32951Y10345D01*
X32921Y10330D01*
X32891Y10330D01*
X32861Y10345D01*
X32846Y10360D01*
X32831Y10390D01*
X32816Y10450D01*
X32801Y10480D01*
X32786Y10495D01*
X32756Y10510D01*
X32726Y10510D01*
X32696Y10495D01*
X32681Y10480D01*
X32666Y10450D01*
X32666Y10375D01*
X32681Y10330D01*
X32696Y10210D02*
X32681Y10195D01*
X32666Y10165D01*
X32666Y10090D01*
X32681Y10060D01*
X32696Y10045D01*
X32726Y10030D01*
X32756Y10030D01*
X32801Y10045D01*
X32981Y10225D01*
X32981Y10030D01*
X32801Y9850D02*
X32786Y9880D01*
X32771Y9895D01*
X32741Y9910D01*
X32726Y9910D01*
X32696Y9895D01*
X32681Y9880D01*
X32666Y9850D01*
X32666Y9790D01*
X32681Y9760D01*
X32696Y9745D01*
X32726Y9730D01*
X32741Y9730D01*
X32771Y9745D01*
X32786Y9760D01*
X32801Y9790D01*
X32801Y9850D01*
X32816Y9880D01*
X32831Y9895D01*
X32861Y9910D01*
X32921Y9910D01*
X32951Y9895D01*
X32966Y9880D01*
X32981Y9850D01*
X32981Y9790D01*
X32966Y9760D01*
X32951Y9745D01*
X32921Y9730D01*
X32861Y9730D01*
X32831Y9745D01*
X32816Y9760D01*
X32801Y9790D01*
X32981Y9430D02*
X32981Y9610D01*
X32981Y9520D02*
X32666Y9520D01*
X32711Y9550D01*
X32741Y9580D01*
X32756Y9610D01*
X32696Y9310D02*
X32681Y9295D01*
X32666Y9265D01*
X32666Y9190D01*
X32681Y9160D01*
X32696Y9145D01*
X32726Y9130D01*
X32756Y9130D01*
X32801Y9145D01*
X32981Y9325D01*
X32981Y9130D01*
X32816Y8890D02*
X32831Y8845D01*
X32846Y8830D01*
X32876Y8815D01*
X32921Y8815D01*
X32951Y8830D01*
X32966Y8845D01*
X32981Y8875D01*
X32981Y8995D01*
X32666Y8995D01*
X32666Y8890D01*
X32681Y8860D01*
X32696Y8845D01*
X32726Y8830D01*
X32756Y8830D01*
X32786Y8845D01*
X32801Y8860D01*
X32816Y8890D01*
X32816Y8995D01*
X26072Y6295D02*
X26327Y6295D01*
X26357Y6280D01*
X26372Y6265D01*
X26387Y6235D01*
X26387Y6175D01*
X26372Y6145D01*
X26357Y6130D01*
X26327Y6115D01*
X26072Y6115D01*
X26102Y5980D02*
X26087Y5965D01*
X26072Y5935D01*
X26072Y5860D01*
X26087Y5830D01*
X26102Y5815D01*
X26132Y5800D01*
X26162Y5800D01*
X26207Y5815D01*
X26387Y5995D01*
X26387Y5800D01*
X26177Y5530D02*
X26387Y5530D01*
X26057Y5605D02*
X26282Y5680D01*
X26282Y5485D01*
X28729Y6948D02*
X29044Y6873D01*
X28819Y6813D01*
X29044Y6753D01*
X28729Y6678D01*
X29029Y6573D02*
X29044Y6528D01*
X29044Y6453D01*
X29029Y6423D01*
X29014Y6408D01*
X28984Y6393D01*
X28954Y6393D01*
X28924Y6408D01*
X28909Y6423D01*
X28894Y6453D01*
X28879Y6513D01*
X28864Y6543D01*
X28849Y6558D01*
X28819Y6573D01*
X28789Y6573D01*
X28759Y6558D01*
X28744Y6543D01*
X28729Y6513D01*
X28729Y6438D01*
X28744Y6393D01*
X28759Y6273D02*
X28744Y6258D01*
X28729Y6228D01*
X28729Y6153D01*
X28744Y6123D01*
X28759Y6108D01*
X28789Y6093D01*
X28819Y6093D01*
X28864Y6108D01*
X29044Y6288D01*
X29044Y6093D01*
X28864Y5913D02*
X28849Y5943D01*
X28834Y5958D01*
X28804Y5973D01*
X28789Y5973D01*
X28759Y5958D01*
X28744Y5943D01*
X28729Y5913D01*
X28729Y5853D01*
X28744Y5823D01*
X28759Y5808D01*
X28789Y5793D01*
X28804Y5793D01*
X28834Y5808D01*
X28849Y5823D01*
X28864Y5853D01*
X28864Y5913D01*
X28879Y5943D01*
X28894Y5958D01*
X28924Y5973D01*
X28984Y5973D01*
X29014Y5958D01*
X29029Y5943D01*
X29044Y5913D01*
X29044Y5853D01*
X29029Y5823D01*
X29014Y5808D01*
X28984Y5793D01*
X28924Y5793D01*
X28894Y5808D01*
X28879Y5823D01*
X28864Y5853D01*
X29044Y5493D02*
X29044Y5673D01*
X29044Y5583D02*
X28729Y5583D01*
X28774Y5613D01*
X28804Y5643D01*
X28819Y5673D01*
X28759Y5373D02*
X28744Y5358D01*
X28729Y5328D01*
X28729Y5253D01*
X28744Y5223D01*
X28759Y5208D01*
X28789Y5193D01*
X28819Y5193D01*
X28864Y5208D01*
X29044Y5388D01*
X29044Y5193D01*
X28879Y4953D02*
X28894Y4908D01*
X28909Y4893D01*
X28939Y4878D01*
X28984Y4878D01*
X29014Y4893D01*
X29029Y4908D01*
X29044Y4938D01*
X29044Y5058D01*
X28729Y5058D01*
X28729Y4953D01*
X28744Y4923D01*
X28759Y4908D01*
X28789Y4893D01*
X28819Y4893D01*
X28849Y4908D01*
X28864Y4923D01*
X28879Y4953D01*
X28879Y5058D01*
X22135Y6295D02*
X22390Y6295D01*
X22420Y6280D01*
X22435Y6265D01*
X22450Y6235D01*
X22450Y6175D01*
X22435Y6145D01*
X22420Y6130D01*
X22390Y6115D01*
X22135Y6115D01*
X22165Y5980D02*
X22150Y5965D01*
X22135Y5935D01*
X22135Y5860D01*
X22150Y5830D01*
X22165Y5815D01*
X22195Y5800D01*
X22225Y5800D01*
X22270Y5815D01*
X22450Y5995D01*
X22450Y5800D01*
X22135Y5515D02*
X22135Y5665D01*
X22285Y5680D01*
X22270Y5665D01*
X22255Y5635D01*
X22255Y5560D01*
X22270Y5530D01*
X22285Y5515D01*
X22315Y5500D01*
X22390Y5500D01*
X22420Y5515D01*
X22435Y5530D01*
X22450Y5560D01*
X22450Y5635D01*
X22435Y5665D01*
X22420Y5680D01*
X24792Y6948D02*
X25107Y6873D01*
X24882Y6813D01*
X25107Y6753D01*
X24792Y6678D01*
X25092Y6573D02*
X25107Y6528D01*
X25107Y6453D01*
X25092Y6423D01*
X25077Y6408D01*
X25047Y6393D01*
X25017Y6393D01*
X24987Y6408D01*
X24972Y6423D01*
X24957Y6453D01*
X24942Y6513D01*
X24927Y6543D01*
X24912Y6558D01*
X24882Y6573D01*
X24852Y6573D01*
X24822Y6558D01*
X24807Y6543D01*
X24792Y6513D01*
X24792Y6438D01*
X24807Y6393D01*
X24822Y6273D02*
X24807Y6258D01*
X24792Y6228D01*
X24792Y6153D01*
X24807Y6123D01*
X24822Y6108D01*
X24852Y6093D01*
X24882Y6093D01*
X24927Y6108D01*
X25107Y6288D01*
X25107Y6093D01*
X24927Y5913D02*
X24912Y5943D01*
X24897Y5958D01*
X24867Y5973D01*
X24852Y5973D01*
X24822Y5958D01*
X24807Y5943D01*
X24792Y5913D01*
X24792Y5853D01*
X24807Y5823D01*
X24822Y5808D01*
X24852Y5793D01*
X24867Y5793D01*
X24897Y5808D01*
X24912Y5823D01*
X24927Y5853D01*
X24927Y5913D01*
X24942Y5943D01*
X24957Y5958D01*
X24987Y5973D01*
X25047Y5973D01*
X25077Y5958D01*
X25092Y5943D01*
X25107Y5913D01*
X25107Y5853D01*
X25092Y5823D01*
X25077Y5808D01*
X25047Y5793D01*
X24987Y5793D01*
X24957Y5808D01*
X24942Y5823D01*
X24927Y5853D01*
X25107Y5493D02*
X25107Y5673D01*
X25107Y5583D02*
X24792Y5583D01*
X24837Y5613D01*
X24867Y5643D01*
X24882Y5673D01*
X24822Y5373D02*
X24807Y5358D01*
X24792Y5328D01*
X24792Y5253D01*
X24807Y5223D01*
X24822Y5208D01*
X24852Y5193D01*
X24882Y5193D01*
X24927Y5208D01*
X25107Y5388D01*
X25107Y5193D01*
X24942Y4953D02*
X24957Y4908D01*
X24972Y4893D01*
X25002Y4878D01*
X25047Y4878D01*
X25077Y4893D01*
X25092Y4908D01*
X25107Y4938D01*
X25107Y5058D01*
X24792Y5058D01*
X24792Y4953D01*
X24807Y4923D01*
X24822Y4908D01*
X24852Y4893D01*
X24882Y4893D01*
X24912Y4908D01*
X24927Y4923D01*
X24942Y4953D01*
X24942Y5058D01*
X18198Y6295D02*
X18453Y6295D01*
X18483Y6280D01*
X18498Y6265D01*
X18513Y6235D01*
X18513Y6175D01*
X18498Y6145D01*
X18483Y6130D01*
X18453Y6115D01*
X18198Y6115D01*
X18228Y5980D02*
X18213Y5965D01*
X18198Y5935D01*
X18198Y5860D01*
X18213Y5830D01*
X18228Y5815D01*
X18258Y5800D01*
X18288Y5800D01*
X18333Y5815D01*
X18513Y5995D01*
X18513Y5800D01*
X18198Y5530D02*
X18198Y5590D01*
X18213Y5620D01*
X18228Y5635D01*
X18273Y5665D01*
X18333Y5680D01*
X18453Y5680D01*
X18483Y5665D01*
X18498Y5650D01*
X18513Y5620D01*
X18513Y5560D01*
X18498Y5530D01*
X18483Y5515D01*
X18453Y5500D01*
X18378Y5500D01*
X18348Y5515D01*
X18333Y5530D01*
X18318Y5560D01*
X18318Y5620D01*
X18333Y5650D01*
X18348Y5665D01*
X18378Y5680D01*
X20855Y6948D02*
X21170Y6873D01*
X20945Y6813D01*
X21170Y6753D01*
X20855Y6678D01*
X21155Y6573D02*
X21170Y6528D01*
X21170Y6453D01*
X21155Y6423D01*
X21140Y6408D01*
X21110Y6393D01*
X21080Y6393D01*
X21050Y6408D01*
X21035Y6423D01*
X21020Y6453D01*
X21005Y6513D01*
X20990Y6543D01*
X20975Y6558D01*
X20945Y6573D01*
X20915Y6573D01*
X20885Y6558D01*
X20870Y6543D01*
X20855Y6513D01*
X20855Y6438D01*
X20870Y6393D01*
X20885Y6273D02*
X20870Y6258D01*
X20855Y6228D01*
X20855Y6153D01*
X20870Y6123D01*
X20885Y6108D01*
X20915Y6093D01*
X20945Y6093D01*
X20990Y6108D01*
X21170Y6288D01*
X21170Y6093D01*
X20990Y5913D02*
X20975Y5943D01*
X20960Y5958D01*
X20930Y5973D01*
X20915Y5973D01*
X20885Y5958D01*
X20870Y5943D01*
X20855Y5913D01*
X20855Y5853D01*
X20870Y5823D01*
X20885Y5808D01*
X20915Y5793D01*
X20930Y5793D01*
X20960Y5808D01*
X20975Y5823D01*
X20990Y5853D01*
X20990Y5913D01*
X21005Y5943D01*
X21020Y5958D01*
X21050Y5973D01*
X21110Y5973D01*
X21140Y5958D01*
X21155Y5943D01*
X21170Y5913D01*
X21170Y5853D01*
X21155Y5823D01*
X21140Y5808D01*
X21110Y5793D01*
X21050Y5793D01*
X21020Y5808D01*
X21005Y5823D01*
X20990Y5853D01*
X21170Y5493D02*
X21170Y5673D01*
X21170Y5583D02*
X20855Y5583D01*
X20900Y5613D01*
X20930Y5643D01*
X20945Y5673D01*
X20885Y5373D02*
X20870Y5358D01*
X20855Y5328D01*
X20855Y5253D01*
X20870Y5223D01*
X20885Y5208D01*
X20915Y5193D01*
X20945Y5193D01*
X20990Y5208D01*
X21170Y5388D01*
X21170Y5193D01*
X21005Y4953D02*
X21020Y4908D01*
X21035Y4893D01*
X21065Y4878D01*
X21110Y4878D01*
X21140Y4893D01*
X21155Y4908D01*
X21170Y4938D01*
X21170Y5058D01*
X20855Y5058D01*
X20855Y4953D01*
X20870Y4923D01*
X20885Y4908D01*
X20915Y4893D01*
X20945Y4893D01*
X20975Y4908D01*
X20990Y4923D01*
X21005Y4953D01*
X21005Y5058D01*
X6387Y14169D02*
X6642Y14169D01*
X6672Y14154D01*
X6687Y14139D01*
X6702Y14109D01*
X6702Y14049D01*
X6687Y14019D01*
X6672Y14004D01*
X6642Y13989D01*
X6387Y13989D01*
X6702Y13674D02*
X6702Y13854D01*
X6702Y13764D02*
X6387Y13764D01*
X6432Y13794D01*
X6462Y13824D01*
X6477Y13854D01*
X6702Y13374D02*
X6702Y13554D01*
X6702Y13464D02*
X6387Y13464D01*
X6432Y13494D01*
X6462Y13524D01*
X6477Y13554D01*
X9044Y14822D02*
X9359Y14747D01*
X9134Y14687D01*
X9359Y14627D01*
X9044Y14552D01*
X9344Y14447D02*
X9359Y14402D01*
X9359Y14327D01*
X9344Y14297D01*
X9329Y14282D01*
X9299Y14267D01*
X9269Y14267D01*
X9239Y14282D01*
X9224Y14297D01*
X9209Y14327D01*
X9194Y14387D01*
X9179Y14417D01*
X9164Y14432D01*
X9134Y14447D01*
X9104Y14447D01*
X9074Y14432D01*
X9059Y14417D01*
X9044Y14387D01*
X9044Y14312D01*
X9059Y14267D01*
X9074Y14147D02*
X9059Y14132D01*
X9044Y14102D01*
X9044Y14027D01*
X9059Y13997D01*
X9074Y13982D01*
X9104Y13967D01*
X9134Y13967D01*
X9179Y13982D01*
X9359Y14162D01*
X9359Y13967D01*
X9179Y13787D02*
X9164Y13817D01*
X9149Y13832D01*
X9119Y13847D01*
X9104Y13847D01*
X9074Y13832D01*
X9059Y13817D01*
X9044Y13787D01*
X9044Y13727D01*
X9059Y13697D01*
X9074Y13682D01*
X9104Y13667D01*
X9119Y13667D01*
X9149Y13682D01*
X9164Y13697D01*
X9179Y13727D01*
X9179Y13787D01*
X9194Y13817D01*
X9209Y13832D01*
X9239Y13847D01*
X9299Y13847D01*
X9329Y13832D01*
X9344Y13817D01*
X9359Y13787D01*
X9359Y13727D01*
X9344Y13697D01*
X9329Y13682D01*
X9299Y13667D01*
X9239Y13667D01*
X9209Y13682D01*
X9194Y13697D01*
X9179Y13727D01*
X9359Y13367D02*
X9359Y13547D01*
X9359Y13457D02*
X9044Y13457D01*
X9089Y13487D01*
X9119Y13517D01*
X9134Y13547D01*
X9074Y13247D02*
X9059Y13232D01*
X9044Y13202D01*
X9044Y13127D01*
X9059Y13097D01*
X9074Y13082D01*
X9104Y13067D01*
X9134Y13067D01*
X9179Y13082D01*
X9359Y13262D01*
X9359Y13067D01*
X9194Y12827D02*
X9209Y12782D01*
X9224Y12767D01*
X9254Y12752D01*
X9299Y12752D01*
X9329Y12767D01*
X9344Y12782D01*
X9359Y12812D01*
X9359Y12932D01*
X9044Y12932D01*
X9044Y12827D01*
X9059Y12797D01*
X9074Y12782D01*
X9104Y12767D01*
X9134Y12767D01*
X9164Y12782D01*
X9179Y12797D01*
X9194Y12827D01*
X9194Y12932D01*
X33946Y14019D02*
X34201Y14019D01*
X34231Y14004D01*
X34246Y13989D01*
X34261Y13959D01*
X34261Y13899D01*
X34246Y13869D01*
X34231Y13854D01*
X34201Y13839D01*
X33946Y13839D01*
X34051Y13554D02*
X34261Y13554D01*
X33931Y13629D02*
X34156Y13704D01*
X34156Y13509D01*
X36603Y14822D02*
X36918Y14747D01*
X36693Y14687D01*
X36918Y14627D01*
X36603Y14552D01*
X36903Y14447D02*
X36918Y14402D01*
X36918Y14327D01*
X36903Y14297D01*
X36888Y14282D01*
X36858Y14267D01*
X36828Y14267D01*
X36798Y14282D01*
X36783Y14297D01*
X36768Y14327D01*
X36753Y14387D01*
X36738Y14417D01*
X36723Y14432D01*
X36693Y14447D01*
X36663Y14447D01*
X36633Y14432D01*
X36618Y14417D01*
X36603Y14387D01*
X36603Y14312D01*
X36618Y14267D01*
X36633Y14147D02*
X36618Y14132D01*
X36603Y14102D01*
X36603Y14027D01*
X36618Y13997D01*
X36633Y13982D01*
X36663Y13967D01*
X36693Y13967D01*
X36738Y13982D01*
X36918Y14162D01*
X36918Y13967D01*
X36738Y13787D02*
X36723Y13817D01*
X36708Y13832D01*
X36678Y13847D01*
X36663Y13847D01*
X36633Y13832D01*
X36618Y13817D01*
X36603Y13787D01*
X36603Y13727D01*
X36618Y13697D01*
X36633Y13682D01*
X36663Y13667D01*
X36678Y13667D01*
X36708Y13682D01*
X36723Y13697D01*
X36738Y13727D01*
X36738Y13787D01*
X36753Y13817D01*
X36768Y13832D01*
X36798Y13847D01*
X36858Y13847D01*
X36888Y13832D01*
X36903Y13817D01*
X36918Y13787D01*
X36918Y13727D01*
X36903Y13697D01*
X36888Y13682D01*
X36858Y13667D01*
X36798Y13667D01*
X36768Y13682D01*
X36753Y13697D01*
X36738Y13727D01*
X36918Y13367D02*
X36918Y13547D01*
X36918Y13457D02*
X36603Y13457D01*
X36648Y13487D01*
X36678Y13517D01*
X36693Y13547D01*
X36633Y13247D02*
X36618Y13232D01*
X36603Y13202D01*
X36603Y13127D01*
X36618Y13097D01*
X36633Y13082D01*
X36663Y13067D01*
X36693Y13067D01*
X36738Y13082D01*
X36918Y13262D01*
X36918Y13067D01*
X36753Y12827D02*
X36768Y12782D01*
X36783Y12767D01*
X36813Y12752D01*
X36858Y12752D01*
X36888Y12767D01*
X36903Y12782D01*
X36918Y12812D01*
X36918Y12932D01*
X36603Y12932D01*
X36603Y12827D01*
X36618Y12797D01*
X36633Y12782D01*
X36663Y12767D01*
X36693Y12767D01*
X36723Y12782D01*
X36738Y12797D01*
X36753Y12827D01*
X36753Y12932D01*
X30009Y14019D02*
X30264Y14019D01*
X30294Y14004D01*
X30309Y13989D01*
X30324Y13959D01*
X30324Y13899D01*
X30309Y13869D01*
X30294Y13854D01*
X30264Y13839D01*
X30009Y13839D01*
X30009Y13539D02*
X30009Y13689D01*
X30159Y13704D01*
X30144Y13689D01*
X30129Y13659D01*
X30129Y13584D01*
X30144Y13554D01*
X30159Y13539D01*
X30189Y13524D01*
X30264Y13524D01*
X30294Y13539D01*
X30309Y13554D01*
X30324Y13584D01*
X30324Y13659D01*
X30309Y13689D01*
X30294Y13704D01*
X32666Y14822D02*
X32981Y14747D01*
X32756Y14687D01*
X32981Y14627D01*
X32666Y14552D01*
X32966Y14447D02*
X32981Y14402D01*
X32981Y14327D01*
X32966Y14297D01*
X32951Y14282D01*
X32921Y14267D01*
X32891Y14267D01*
X32861Y14282D01*
X32846Y14297D01*
X32831Y14327D01*
X32816Y14387D01*
X32801Y14417D01*
X32786Y14432D01*
X32756Y14447D01*
X32726Y14447D01*
X32696Y14432D01*
X32681Y14417D01*
X32666Y14387D01*
X32666Y14312D01*
X32681Y14267D01*
X32696Y14147D02*
X32681Y14132D01*
X32666Y14102D01*
X32666Y14027D01*
X32681Y13997D01*
X32696Y13982D01*
X32726Y13967D01*
X32756Y13967D01*
X32801Y13982D01*
X32981Y14162D01*
X32981Y13967D01*
X32801Y13787D02*
X32786Y13817D01*
X32771Y13832D01*
X32741Y13847D01*
X32726Y13847D01*
X32696Y13832D01*
X32681Y13817D01*
X32666Y13787D01*
X32666Y13727D01*
X32681Y13697D01*
X32696Y13682D01*
X32726Y13667D01*
X32741Y13667D01*
X32771Y13682D01*
X32786Y13697D01*
X32801Y13727D01*
X32801Y13787D01*
X32816Y13817D01*
X32831Y13832D01*
X32861Y13847D01*
X32921Y13847D01*
X32951Y13832D01*
X32966Y13817D01*
X32981Y13787D01*
X32981Y13727D01*
X32966Y13697D01*
X32951Y13682D01*
X32921Y13667D01*
X32861Y13667D01*
X32831Y13682D01*
X32816Y13697D01*
X32801Y13727D01*
X32981Y13367D02*
X32981Y13547D01*
X32981Y13457D02*
X32666Y13457D01*
X32711Y13487D01*
X32741Y13517D01*
X32756Y13547D01*
X32696Y13247D02*
X32681Y13232D01*
X32666Y13202D01*
X32666Y13127D01*
X32681Y13097D01*
X32696Y13082D01*
X32726Y13067D01*
X32756Y13067D01*
X32801Y13082D01*
X32981Y13262D01*
X32981Y13067D01*
X32816Y12827D02*
X32831Y12782D01*
X32846Y12767D01*
X32876Y12752D01*
X32921Y12752D01*
X32951Y12767D01*
X32966Y12782D01*
X32981Y12812D01*
X32981Y12932D01*
X32666Y12932D01*
X32666Y12827D01*
X32681Y12797D01*
X32696Y12782D01*
X32726Y12767D01*
X32756Y12767D01*
X32786Y12782D01*
X32801Y12797D01*
X32816Y12827D01*
X32816Y12932D01*
X26072Y14019D02*
X26327Y14019D01*
X26357Y14004D01*
X26372Y13989D01*
X26387Y13959D01*
X26387Y13899D01*
X26372Y13869D01*
X26357Y13854D01*
X26327Y13839D01*
X26072Y13839D01*
X26072Y13554D02*
X26072Y13614D01*
X26087Y13644D01*
X26102Y13659D01*
X26147Y13689D01*
X26207Y13704D01*
X26327Y13704D01*
X26357Y13689D01*
X26372Y13674D01*
X26387Y13644D01*
X26387Y13584D01*
X26372Y13554D01*
X26357Y13539D01*
X26327Y13524D01*
X26252Y13524D01*
X26222Y13539D01*
X26207Y13554D01*
X26192Y13584D01*
X26192Y13644D01*
X26207Y13674D01*
X26222Y13689D01*
X26252Y13704D01*
X28729Y14822D02*
X29044Y14747D01*
X28819Y14687D01*
X29044Y14627D01*
X28729Y14552D01*
X29029Y14447D02*
X29044Y14402D01*
X29044Y14327D01*
X29029Y14297D01*
X29014Y14282D01*
X28984Y14267D01*
X28954Y14267D01*
X28924Y14282D01*
X28909Y14297D01*
X28894Y14327D01*
X28879Y14387D01*
X28864Y14417D01*
X28849Y14432D01*
X28819Y14447D01*
X28789Y14447D01*
X28759Y14432D01*
X28744Y14417D01*
X28729Y14387D01*
X28729Y14312D01*
X28744Y14267D01*
X28759Y14147D02*
X28744Y14132D01*
X28729Y14102D01*
X28729Y14027D01*
X28744Y13997D01*
X28759Y13982D01*
X28789Y13967D01*
X28819Y13967D01*
X28864Y13982D01*
X29044Y14162D01*
X29044Y13967D01*
X28864Y13787D02*
X28849Y13817D01*
X28834Y13832D01*
X28804Y13847D01*
X28789Y13847D01*
X28759Y13832D01*
X28744Y13817D01*
X28729Y13787D01*
X28729Y13727D01*
X28744Y13697D01*
X28759Y13682D01*
X28789Y13667D01*
X28804Y13667D01*
X28834Y13682D01*
X28849Y13697D01*
X28864Y13727D01*
X28864Y13787D01*
X28879Y13817D01*
X28894Y13832D01*
X28924Y13847D01*
X28984Y13847D01*
X29014Y13832D01*
X29029Y13817D01*
X29044Y13787D01*
X29044Y13727D01*
X29029Y13697D01*
X29014Y13682D01*
X28984Y13667D01*
X28924Y13667D01*
X28894Y13682D01*
X28879Y13697D01*
X28864Y13727D01*
X29044Y13367D02*
X29044Y13547D01*
X29044Y13457D02*
X28729Y13457D01*
X28774Y13487D01*
X28804Y13517D01*
X28819Y13547D01*
X28759Y13247D02*
X28744Y13232D01*
X28729Y13202D01*
X28729Y13127D01*
X28744Y13097D01*
X28759Y13082D01*
X28789Y13067D01*
X28819Y13067D01*
X28864Y13082D01*
X29044Y13262D01*
X29044Y13067D01*
X28879Y12827D02*
X28894Y12782D01*
X28909Y12767D01*
X28939Y12752D01*
X28984Y12752D01*
X29014Y12767D01*
X29029Y12782D01*
X29044Y12812D01*
X29044Y12932D01*
X28729Y12932D01*
X28729Y12827D01*
X28744Y12797D01*
X28759Y12782D01*
X28789Y12767D01*
X28819Y12767D01*
X28849Y12782D01*
X28864Y12797D01*
X28879Y12827D01*
X28879Y12932D01*
X22135Y14019D02*
X22390Y14019D01*
X22420Y14004D01*
X22435Y13989D01*
X22450Y13959D01*
X22450Y13899D01*
X22435Y13869D01*
X22420Y13854D01*
X22390Y13839D01*
X22135Y13839D01*
X22135Y13719D02*
X22135Y13509D01*
X22450Y13644D01*
X24792Y14822D02*
X25107Y14747D01*
X24882Y14687D01*
X25107Y14627D01*
X24792Y14552D01*
X25092Y14447D02*
X25107Y14402D01*
X25107Y14327D01*
X25092Y14297D01*
X25077Y14282D01*
X25047Y14267D01*
X25017Y14267D01*
X24987Y14282D01*
X24972Y14297D01*
X24957Y14327D01*
X24942Y14387D01*
X24927Y14417D01*
X24912Y14432D01*
X24882Y14447D01*
X24852Y14447D01*
X24822Y14432D01*
X24807Y14417D01*
X24792Y14387D01*
X24792Y14312D01*
X24807Y14267D01*
X24822Y14147D02*
X24807Y14132D01*
X24792Y14102D01*
X24792Y14027D01*
X24807Y13997D01*
X24822Y13982D01*
X24852Y13967D01*
X24882Y13967D01*
X24927Y13982D01*
X25107Y14162D01*
X25107Y13967D01*
X24927Y13787D02*
X24912Y13817D01*
X24897Y13832D01*
X24867Y13847D01*
X24852Y13847D01*
X24822Y13832D01*
X24807Y13817D01*
X24792Y13787D01*
X24792Y13727D01*
X24807Y13697D01*
X24822Y13682D01*
X24852Y13667D01*
X24867Y13667D01*
X24897Y13682D01*
X24912Y13697D01*
X24927Y13727D01*
X24927Y13787D01*
X24942Y13817D01*
X24957Y13832D01*
X24987Y13847D01*
X25047Y13847D01*
X25077Y13832D01*
X25092Y13817D01*
X25107Y13787D01*
X25107Y13727D01*
X25092Y13697D01*
X25077Y13682D01*
X25047Y13667D01*
X24987Y13667D01*
X24957Y13682D01*
X24942Y13697D01*
X24927Y13727D01*
X25107Y13367D02*
X25107Y13547D01*
X25107Y13457D02*
X24792Y13457D01*
X24837Y13487D01*
X24867Y13517D01*
X24882Y13547D01*
X24822Y13247D02*
X24807Y13232D01*
X24792Y13202D01*
X24792Y13127D01*
X24807Y13097D01*
X24822Y13082D01*
X24852Y13067D01*
X24882Y13067D01*
X24927Y13082D01*
X25107Y13262D01*
X25107Y13067D01*
X24942Y12827D02*
X24957Y12782D01*
X24972Y12767D01*
X25002Y12752D01*
X25047Y12752D01*
X25077Y12767D01*
X25092Y12782D01*
X25107Y12812D01*
X25107Y12932D01*
X24792Y12932D01*
X24792Y12827D01*
X24807Y12797D01*
X24822Y12782D01*
X24852Y12767D01*
X24882Y12767D01*
X24912Y12782D01*
X24927Y12797D01*
X24942Y12827D01*
X24942Y12932D01*
X18198Y14019D02*
X18453Y14019D01*
X18483Y14004D01*
X18498Y13989D01*
X18513Y13959D01*
X18513Y13899D01*
X18498Y13869D01*
X18483Y13854D01*
X18453Y13839D01*
X18198Y13839D01*
X18333Y13644D02*
X18318Y13674D01*
X18303Y13689D01*
X18273Y13704D01*
X18258Y13704D01*
X18228Y13689D01*
X18213Y13674D01*
X18198Y13644D01*
X18198Y13584D01*
X18213Y13554D01*
X18228Y13539D01*
X18258Y13524D01*
X18273Y13524D01*
X18303Y13539D01*
X18318Y13554D01*
X18333Y13584D01*
X18333Y13644D01*
X18348Y13674D01*
X18363Y13689D01*
X18393Y13704D01*
X18453Y13704D01*
X18483Y13689D01*
X18498Y13674D01*
X18513Y13644D01*
X18513Y13584D01*
X18498Y13554D01*
X18483Y13539D01*
X18453Y13524D01*
X18393Y13524D01*
X18363Y13539D01*
X18348Y13554D01*
X18333Y13584D01*
X20855Y14822D02*
X21170Y14747D01*
X20945Y14687D01*
X21170Y14627D01*
X20855Y14552D01*
X21155Y14447D02*
X21170Y14402D01*
X21170Y14327D01*
X21155Y14297D01*
X21140Y14282D01*
X21110Y14267D01*
X21080Y14267D01*
X21050Y14282D01*
X21035Y14297D01*
X21020Y14327D01*
X21005Y14387D01*
X20990Y14417D01*
X20975Y14432D01*
X20945Y14447D01*
X20915Y14447D01*
X20885Y14432D01*
X20870Y14417D01*
X20855Y14387D01*
X20855Y14312D01*
X20870Y14267D01*
X20885Y14147D02*
X20870Y14132D01*
X20855Y14102D01*
X20855Y14027D01*
X20870Y13997D01*
X20885Y13982D01*
X20915Y13967D01*
X20945Y13967D01*
X20990Y13982D01*
X21170Y14162D01*
X21170Y13967D01*
X20990Y13787D02*
X20975Y13817D01*
X20960Y13832D01*
X20930Y13847D01*
X20915Y13847D01*
X20885Y13832D01*
X20870Y13817D01*
X20855Y13787D01*
X20855Y13727D01*
X20870Y13697D01*
X20885Y13682D01*
X20915Y13667D01*
X20930Y13667D01*
X20960Y13682D01*
X20975Y13697D01*
X20990Y13727D01*
X20990Y13787D01*
X21005Y13817D01*
X21020Y13832D01*
X21050Y13847D01*
X21110Y13847D01*
X21140Y13832D01*
X21155Y13817D01*
X21170Y13787D01*
X21170Y13727D01*
X21155Y13697D01*
X21140Y13682D01*
X21110Y13667D01*
X21050Y13667D01*
X21020Y13682D01*
X21005Y13697D01*
X20990Y13727D01*
X21170Y13367D02*
X21170Y13547D01*
X21170Y13457D02*
X20855Y13457D01*
X20900Y13487D01*
X20930Y13517D01*
X20945Y13547D01*
X20885Y13247D02*
X20870Y13232D01*
X20855Y13202D01*
X20855Y13127D01*
X20870Y13097D01*
X20885Y13082D01*
X20915Y13067D01*
X20945Y13067D01*
X20990Y13082D01*
X21170Y13262D01*
X21170Y13067D01*
X21005Y12827D02*
X21020Y12782D01*
X21035Y12767D01*
X21065Y12752D01*
X21110Y12752D01*
X21140Y12767D01*
X21155Y12782D01*
X21170Y12812D01*
X21170Y12932D01*
X20855Y12932D01*
X20855Y12827D01*
X20870Y12797D01*
X20885Y12782D01*
X20915Y12767D01*
X20945Y12767D01*
X20975Y12782D01*
X20990Y12797D01*
X21005Y12827D01*
X21005Y12932D01*
X14261Y14019D02*
X14516Y14019D01*
X14546Y14004D01*
X14561Y13989D01*
X14576Y13959D01*
X14576Y13899D01*
X14561Y13869D01*
X14546Y13854D01*
X14516Y13839D01*
X14261Y13839D01*
X14576Y13674D02*
X14576Y13614D01*
X14561Y13584D01*
X14546Y13569D01*
X14501Y13539D01*
X14441Y13524D01*
X14321Y13524D01*
X14291Y13539D01*
X14276Y13554D01*
X14261Y13584D01*
X14261Y13644D01*
X14276Y13674D01*
X14291Y13689D01*
X14321Y13704D01*
X14396Y13704D01*
X14426Y13689D01*
X14441Y13674D01*
X14456Y13644D01*
X14456Y13584D01*
X14441Y13554D01*
X14426Y13539D01*
X14396Y13524D01*
X16918Y14822D02*
X17233Y14747D01*
X17008Y14687D01*
X17233Y14627D01*
X16918Y14552D01*
X17218Y14447D02*
X17233Y14402D01*
X17233Y14327D01*
X17218Y14297D01*
X17203Y14282D01*
X17173Y14267D01*
X17143Y14267D01*
X17113Y14282D01*
X17098Y14297D01*
X17083Y14327D01*
X17068Y14387D01*
X17053Y14417D01*
X17038Y14432D01*
X17008Y14447D01*
X16978Y14447D01*
X16948Y14432D01*
X16933Y14417D01*
X16918Y14387D01*
X16918Y14312D01*
X16933Y14267D01*
X16948Y14147D02*
X16933Y14132D01*
X16918Y14102D01*
X16918Y14027D01*
X16933Y13997D01*
X16948Y13982D01*
X16978Y13967D01*
X17008Y13967D01*
X17053Y13982D01*
X17233Y14162D01*
X17233Y13967D01*
X17053Y13787D02*
X17038Y13817D01*
X17023Y13832D01*
X16993Y13847D01*
X16978Y13847D01*
X16948Y13832D01*
X16933Y13817D01*
X16918Y13787D01*
X16918Y13727D01*
X16933Y13697D01*
X16948Y13682D01*
X16978Y13667D01*
X16993Y13667D01*
X17023Y13682D01*
X17038Y13697D01*
X17053Y13727D01*
X17053Y13787D01*
X17068Y13817D01*
X17083Y13832D01*
X17113Y13847D01*
X17173Y13847D01*
X17203Y13832D01*
X17218Y13817D01*
X17233Y13787D01*
X17233Y13727D01*
X17218Y13697D01*
X17203Y13682D01*
X17173Y13667D01*
X17113Y13667D01*
X17083Y13682D01*
X17068Y13697D01*
X17053Y13727D01*
X17233Y13367D02*
X17233Y13547D01*
X17233Y13457D02*
X16918Y13457D01*
X16963Y13487D01*
X16993Y13517D01*
X17008Y13547D01*
X16948Y13247D02*
X16933Y13232D01*
X16918Y13202D01*
X16918Y13127D01*
X16933Y13097D01*
X16948Y13082D01*
X16978Y13067D01*
X17008Y13067D01*
X17053Y13082D01*
X17233Y13262D01*
X17233Y13067D01*
X17068Y12827D02*
X17083Y12782D01*
X17098Y12767D01*
X17128Y12752D01*
X17173Y12752D01*
X17203Y12767D01*
X17218Y12782D01*
X17233Y12812D01*
X17233Y12932D01*
X16918Y12932D01*
X16918Y12827D01*
X16933Y12797D01*
X16948Y12782D01*
X16978Y12767D01*
X17008Y12767D01*
X17038Y12782D01*
X17053Y12797D01*
X17068Y12827D01*
X17068Y12932D01*
X10324Y14169D02*
X10579Y14169D01*
X10609Y14154D01*
X10624Y14139D01*
X10639Y14109D01*
X10639Y14049D01*
X10624Y14019D01*
X10609Y14004D01*
X10579Y13989D01*
X10324Y13989D01*
X10639Y13674D02*
X10639Y13854D01*
X10639Y13764D02*
X10324Y13764D01*
X10369Y13794D01*
X10399Y13824D01*
X10414Y13854D01*
X10324Y13479D02*
X10324Y13449D01*
X10339Y13419D01*
X10354Y13404D01*
X10384Y13389D01*
X10444Y13374D01*
X10519Y13374D01*
X10579Y13389D01*
X10609Y13404D01*
X10624Y13419D01*
X10639Y13449D01*
X10639Y13479D01*
X10624Y13509D01*
X10609Y13524D01*
X10579Y13539D01*
X10519Y13554D01*
X10444Y13554D01*
X10384Y13539D01*
X10354Y13524D01*
X10339Y13509D01*
X10324Y13479D01*
X12981Y14822D02*
X13296Y14747D01*
X13071Y14687D01*
X13296Y14627D01*
X12981Y14552D01*
X13281Y14447D02*
X13296Y14402D01*
X13296Y14327D01*
X13281Y14297D01*
X13266Y14282D01*
X13236Y14267D01*
X13206Y14267D01*
X13176Y14282D01*
X13161Y14297D01*
X13146Y14327D01*
X13131Y14387D01*
X13116Y14417D01*
X13101Y14432D01*
X13071Y14447D01*
X13041Y14447D01*
X13011Y14432D01*
X12996Y14417D01*
X12981Y14387D01*
X12981Y14312D01*
X12996Y14267D01*
X13011Y14147D02*
X12996Y14132D01*
X12981Y14102D01*
X12981Y14027D01*
X12996Y13997D01*
X13011Y13982D01*
X13041Y13967D01*
X13071Y13967D01*
X13116Y13982D01*
X13296Y14162D01*
X13296Y13967D01*
X13116Y13787D02*
X13101Y13817D01*
X13086Y13832D01*
X13056Y13847D01*
X13041Y13847D01*
X13011Y13832D01*
X12996Y13817D01*
X12981Y13787D01*
X12981Y13727D01*
X12996Y13697D01*
X13011Y13682D01*
X13041Y13667D01*
X13056Y13667D01*
X13086Y13682D01*
X13101Y13697D01*
X13116Y13727D01*
X13116Y13787D01*
X13131Y13817D01*
X13146Y13832D01*
X13176Y13847D01*
X13236Y13847D01*
X13266Y13832D01*
X13281Y13817D01*
X13296Y13787D01*
X13296Y13727D01*
X13281Y13697D01*
X13266Y13682D01*
X13236Y13667D01*
X13176Y13667D01*
X13146Y13682D01*
X13131Y13697D01*
X13116Y13727D01*
X13296Y13367D02*
X13296Y13547D01*
X13296Y13457D02*
X12981Y13457D01*
X13026Y13487D01*
X13056Y13517D01*
X13071Y13547D01*
X13011Y13247D02*
X12996Y13232D01*
X12981Y13202D01*
X12981Y13127D01*
X12996Y13097D01*
X13011Y13082D01*
X13041Y13067D01*
X13071Y13067D01*
X13116Y13082D01*
X13296Y13262D01*
X13296Y13067D01*
X13131Y12827D02*
X13146Y12782D01*
X13161Y12767D01*
X13191Y12752D01*
X13236Y12752D01*
X13266Y12767D01*
X13281Y12782D01*
X13296Y12812D01*
X13296Y12932D01*
X12981Y12932D01*
X12981Y12827D01*
X12996Y12797D01*
X13011Y12782D01*
X13041Y12767D01*
X13071Y12767D01*
X13101Y12782D01*
X13116Y12797D01*
X13131Y12827D01*
X13131Y12932D01*
X26072Y10232D02*
X26327Y10232D01*
X26357Y10217D01*
X26372Y10202D01*
X26387Y10172D01*
X26387Y10112D01*
X26372Y10082D01*
X26357Y10067D01*
X26327Y10052D01*
X26072Y10052D01*
X26387Y9737D02*
X26387Y9917D01*
X26387Y9827D02*
X26072Y9827D01*
X26117Y9857D01*
X26147Y9887D01*
X26162Y9917D01*
X26072Y9452D02*
X26072Y9602D01*
X26222Y9617D01*
X26207Y9602D01*
X26192Y9572D01*
X26192Y9497D01*
X26207Y9467D01*
X26222Y9452D01*
X26252Y9437D01*
X26327Y9437D01*
X26357Y9452D01*
X26372Y9467D01*
X26387Y9497D01*
X26387Y9572D01*
X26372Y9602D01*
X26357Y9617D01*
X28729Y10885D02*
X29044Y10810D01*
X28819Y10750D01*
X29044Y10690D01*
X28729Y10615D01*
X29029Y10510D02*
X29044Y10465D01*
X29044Y10390D01*
X29029Y10360D01*
X29014Y10345D01*
X28984Y10330D01*
X28954Y10330D01*
X28924Y10345D01*
X28909Y10360D01*
X28894Y10390D01*
X28879Y10450D01*
X28864Y10480D01*
X28849Y10495D01*
X28819Y10510D01*
X28789Y10510D01*
X28759Y10495D01*
X28744Y10480D01*
X28729Y10450D01*
X28729Y10375D01*
X28744Y10330D01*
X28759Y10210D02*
X28744Y10195D01*
X28729Y10165D01*
X28729Y10090D01*
X28744Y10060D01*
X28759Y10045D01*
X28789Y10030D01*
X28819Y10030D01*
X28864Y10045D01*
X29044Y10225D01*
X29044Y10030D01*
X28864Y9850D02*
X28849Y9880D01*
X28834Y9895D01*
X28804Y9910D01*
X28789Y9910D01*
X28759Y9895D01*
X28744Y9880D01*
X28729Y9850D01*
X28729Y9790D01*
X28744Y9760D01*
X28759Y9745D01*
X28789Y9730D01*
X28804Y9730D01*
X28834Y9745D01*
X28849Y9760D01*
X28864Y9790D01*
X28864Y9850D01*
X28879Y9880D01*
X28894Y9895D01*
X28924Y9910D01*
X28984Y9910D01*
X29014Y9895D01*
X29029Y9880D01*
X29044Y9850D01*
X29044Y9790D01*
X29029Y9760D01*
X29014Y9745D01*
X28984Y9730D01*
X28924Y9730D01*
X28894Y9745D01*
X28879Y9760D01*
X28864Y9790D01*
X29044Y9430D02*
X29044Y9610D01*
X29044Y9520D02*
X28729Y9520D01*
X28774Y9550D01*
X28804Y9580D01*
X28819Y9610D01*
X28759Y9310D02*
X28744Y9295D01*
X28729Y9265D01*
X28729Y9190D01*
X28744Y9160D01*
X28759Y9145D01*
X28789Y9130D01*
X28819Y9130D01*
X28864Y9145D01*
X29044Y9325D01*
X29044Y9130D01*
X28879Y8890D02*
X28894Y8845D01*
X28909Y8830D01*
X28939Y8815D01*
X28984Y8815D01*
X29014Y8830D01*
X29029Y8845D01*
X29044Y8875D01*
X29044Y8995D01*
X28729Y8995D01*
X28729Y8890D01*
X28744Y8860D01*
X28759Y8845D01*
X28789Y8830D01*
X28819Y8830D01*
X28849Y8845D01*
X28864Y8860D01*
X28879Y8890D01*
X28879Y8995D01*
X22135Y10232D02*
X22390Y10232D01*
X22420Y10217D01*
X22435Y10202D01*
X22450Y10172D01*
X22450Y10112D01*
X22435Y10082D01*
X22420Y10067D01*
X22390Y10052D01*
X22135Y10052D01*
X22450Y9737D02*
X22450Y9917D01*
X22450Y9827D02*
X22135Y9827D01*
X22180Y9857D01*
X22210Y9887D01*
X22225Y9917D01*
X22135Y9467D02*
X22135Y9527D01*
X22150Y9557D01*
X22165Y9572D01*
X22210Y9602D01*
X22270Y9617D01*
X22390Y9617D01*
X22420Y9602D01*
X22435Y9587D01*
X22450Y9557D01*
X22450Y9497D01*
X22435Y9467D01*
X22420Y9452D01*
X22390Y9437D01*
X22315Y9437D01*
X22285Y9452D01*
X22270Y9467D01*
X22255Y9497D01*
X22255Y9557D01*
X22270Y9587D01*
X22285Y9602D01*
X22315Y9617D01*
X24792Y10885D02*
X25107Y10810D01*
X24882Y10750D01*
X25107Y10690D01*
X24792Y10615D01*
X25092Y10510D02*
X25107Y10465D01*
X25107Y10390D01*
X25092Y10360D01*
X25077Y10345D01*
X25047Y10330D01*
X25017Y10330D01*
X24987Y10345D01*
X24972Y10360D01*
X24957Y10390D01*
X24942Y10450D01*
X24927Y10480D01*
X24912Y10495D01*
X24882Y10510D01*
X24852Y10510D01*
X24822Y10495D01*
X24807Y10480D01*
X24792Y10450D01*
X24792Y10375D01*
X24807Y10330D01*
X24822Y10210D02*
X24807Y10195D01*
X24792Y10165D01*
X24792Y10090D01*
X24807Y10060D01*
X24822Y10045D01*
X24852Y10030D01*
X24882Y10030D01*
X24927Y10045D01*
X25107Y10225D01*
X25107Y10030D01*
X24927Y9850D02*
X24912Y9880D01*
X24897Y9895D01*
X24867Y9910D01*
X24852Y9910D01*
X24822Y9895D01*
X24807Y9880D01*
X24792Y9850D01*
X24792Y9790D01*
X24807Y9760D01*
X24822Y9745D01*
X24852Y9730D01*
X24867Y9730D01*
X24897Y9745D01*
X24912Y9760D01*
X24927Y9790D01*
X24927Y9850D01*
X24942Y9880D01*
X24957Y9895D01*
X24987Y9910D01*
X25047Y9910D01*
X25077Y9895D01*
X25092Y9880D01*
X25107Y9850D01*
X25107Y9790D01*
X25092Y9760D01*
X25077Y9745D01*
X25047Y9730D01*
X24987Y9730D01*
X24957Y9745D01*
X24942Y9760D01*
X24927Y9790D01*
X25107Y9430D02*
X25107Y9610D01*
X25107Y9520D02*
X24792Y9520D01*
X24837Y9550D01*
X24867Y9580D01*
X24882Y9610D01*
X24822Y9310D02*
X24807Y9295D01*
X24792Y9265D01*
X24792Y9190D01*
X24807Y9160D01*
X24822Y9145D01*
X24852Y9130D01*
X24882Y9130D01*
X24927Y9145D01*
X25107Y9325D01*
X25107Y9130D01*
X24942Y8890D02*
X24957Y8845D01*
X24972Y8830D01*
X25002Y8815D01*
X25047Y8815D01*
X25077Y8830D01*
X25092Y8845D01*
X25107Y8875D01*
X25107Y8995D01*
X24792Y8995D01*
X24792Y8890D01*
X24807Y8860D01*
X24822Y8845D01*
X24852Y8830D01*
X24882Y8830D01*
X24912Y8845D01*
X24927Y8860D01*
X24942Y8890D01*
X24942Y8995D01*
X18198Y10232D02*
X18453Y10232D01*
X18483Y10217D01*
X18498Y10202D01*
X18513Y10172D01*
X18513Y10112D01*
X18498Y10082D01*
X18483Y10067D01*
X18453Y10052D01*
X18198Y10052D01*
X18513Y9737D02*
X18513Y9917D01*
X18513Y9827D02*
X18198Y9827D01*
X18243Y9857D01*
X18273Y9887D01*
X18288Y9917D01*
X18198Y9632D02*
X18198Y9422D01*
X18513Y9557D01*
X20855Y10885D02*
X21170Y10810D01*
X20945Y10750D01*
X21170Y10690D01*
X20855Y10615D01*
X21155Y10510D02*
X21170Y10465D01*
X21170Y10390D01*
X21155Y10360D01*
X21140Y10345D01*
X21110Y10330D01*
X21080Y10330D01*
X21050Y10345D01*
X21035Y10360D01*
X21020Y10390D01*
X21005Y10450D01*
X20990Y10480D01*
X20975Y10495D01*
X20945Y10510D01*
X20915Y10510D01*
X20885Y10495D01*
X20870Y10480D01*
X20855Y10450D01*
X20855Y10375D01*
X20870Y10330D01*
X20885Y10210D02*
X20870Y10195D01*
X20855Y10165D01*
X20855Y10090D01*
X20870Y10060D01*
X20885Y10045D01*
X20915Y10030D01*
X20945Y10030D01*
X20990Y10045D01*
X21170Y10225D01*
X21170Y10030D01*
X20990Y9850D02*
X20975Y9880D01*
X20960Y9895D01*
X20930Y9910D01*
X20915Y9910D01*
X20885Y9895D01*
X20870Y9880D01*
X20855Y9850D01*
X20855Y9790D01*
X20870Y9760D01*
X20885Y9745D01*
X20915Y9730D01*
X20930Y9730D01*
X20960Y9745D01*
X20975Y9760D01*
X20990Y9790D01*
X20990Y9850D01*
X21005Y9880D01*
X21020Y9895D01*
X21050Y9910D01*
X21110Y9910D01*
X21140Y9895D01*
X21155Y9880D01*
X21170Y9850D01*
X21170Y9790D01*
X21155Y9760D01*
X21140Y9745D01*
X21110Y9730D01*
X21050Y9730D01*
X21020Y9745D01*
X21005Y9760D01*
X20990Y9790D01*
X21170Y9430D02*
X21170Y9610D01*
X21170Y9520D02*
X20855Y9520D01*
X20900Y9550D01*
X20930Y9580D01*
X20945Y9610D01*
X20885Y9310D02*
X20870Y9295D01*
X20855Y9265D01*
X20855Y9190D01*
X20870Y9160D01*
X20885Y9145D01*
X20915Y9130D01*
X20945Y9130D01*
X20990Y9145D01*
X21170Y9325D01*
X21170Y9130D01*
X21005Y8890D02*
X21020Y8845D01*
X21035Y8830D01*
X21065Y8815D01*
X21110Y8815D01*
X21140Y8830D01*
X21155Y8845D01*
X21170Y8875D01*
X21170Y8995D01*
X20855Y8995D01*
X20855Y8890D01*
X20870Y8860D01*
X20885Y8845D01*
X20915Y8830D01*
X20945Y8830D01*
X20975Y8845D01*
X20990Y8860D01*
X21005Y8890D01*
X21005Y8995D01*
X14261Y10232D02*
X14516Y10232D01*
X14546Y10217D01*
X14561Y10202D01*
X14576Y10172D01*
X14576Y10112D01*
X14561Y10082D01*
X14546Y10067D01*
X14516Y10052D01*
X14261Y10052D01*
X14576Y9737D02*
X14576Y9917D01*
X14576Y9827D02*
X14261Y9827D01*
X14306Y9857D01*
X14336Y9887D01*
X14351Y9917D01*
X14396Y9557D02*
X14381Y9587D01*
X14366Y9602D01*
X14336Y9617D01*
X14321Y9617D01*
X14291Y9602D01*
X14276Y9587D01*
X14261Y9557D01*
X14261Y9497D01*
X14276Y9467D01*
X14291Y9452D01*
X14321Y9437D01*
X14336Y9437D01*
X14366Y9452D01*
X14381Y9467D01*
X14396Y9497D01*
X14396Y9557D01*
X14411Y9587D01*
X14426Y9602D01*
X14456Y9617D01*
X14516Y9617D01*
X14546Y9602D01*
X14561Y9587D01*
X14576Y9557D01*
X14576Y9497D01*
X14561Y9467D01*
X14546Y9452D01*
X14516Y9437D01*
X14456Y9437D01*
X14426Y9452D01*
X14411Y9467D01*
X14396Y9497D01*
X16918Y10885D02*
X17233Y10810D01*
X17008Y10750D01*
X17233Y10690D01*
X16918Y10615D01*
X17218Y10510D02*
X17233Y10465D01*
X17233Y10390D01*
X17218Y10360D01*
X17203Y10345D01*
X17173Y10330D01*
X17143Y10330D01*
X17113Y10345D01*
X17098Y10360D01*
X17083Y10390D01*
X17068Y10450D01*
X17053Y10480D01*
X17038Y10495D01*
X17008Y10510D01*
X16978Y10510D01*
X16948Y10495D01*
X16933Y10480D01*
X16918Y10450D01*
X16918Y10375D01*
X16933Y10330D01*
X16948Y10210D02*
X16933Y10195D01*
X16918Y10165D01*
X16918Y10090D01*
X16933Y10060D01*
X16948Y10045D01*
X16978Y10030D01*
X17008Y10030D01*
X17053Y10045D01*
X17233Y10225D01*
X17233Y10030D01*
X17053Y9850D02*
X17038Y9880D01*
X17023Y9895D01*
X16993Y9910D01*
X16978Y9910D01*
X16948Y9895D01*
X16933Y9880D01*
X16918Y9850D01*
X16918Y9790D01*
X16933Y9760D01*
X16948Y9745D01*
X16978Y9730D01*
X16993Y9730D01*
X17023Y9745D01*
X17038Y9760D01*
X17053Y9790D01*
X17053Y9850D01*
X17068Y9880D01*
X17083Y9895D01*
X17113Y9910D01*
X17173Y9910D01*
X17203Y9895D01*
X17218Y9880D01*
X17233Y9850D01*
X17233Y9790D01*
X17218Y9760D01*
X17203Y9745D01*
X17173Y9730D01*
X17113Y9730D01*
X17083Y9745D01*
X17068Y9760D01*
X17053Y9790D01*
X17233Y9430D02*
X17233Y9610D01*
X17233Y9520D02*
X16918Y9520D01*
X16963Y9550D01*
X16993Y9580D01*
X17008Y9610D01*
X16948Y9310D02*
X16933Y9295D01*
X16918Y9265D01*
X16918Y9190D01*
X16933Y9160D01*
X16948Y9145D01*
X16978Y9130D01*
X17008Y9130D01*
X17053Y9145D01*
X17233Y9325D01*
X17233Y9130D01*
X17068Y8890D02*
X17083Y8845D01*
X17098Y8830D01*
X17128Y8815D01*
X17173Y8815D01*
X17203Y8830D01*
X17218Y8845D01*
X17233Y8875D01*
X17233Y8995D01*
X16918Y8995D01*
X16918Y8890D01*
X16933Y8860D01*
X16948Y8845D01*
X16978Y8830D01*
X17008Y8830D01*
X17038Y8845D01*
X17053Y8860D01*
X17068Y8890D01*
X17068Y8995D01*
X10324Y10232D02*
X10579Y10232D01*
X10609Y10217D01*
X10624Y10202D01*
X10639Y10172D01*
X10639Y10112D01*
X10624Y10082D01*
X10609Y10067D01*
X10579Y10052D01*
X10324Y10052D01*
X10639Y9737D02*
X10639Y9917D01*
X10639Y9827D02*
X10324Y9827D01*
X10369Y9857D01*
X10399Y9887D01*
X10414Y9917D01*
X10639Y9587D02*
X10639Y9527D01*
X10624Y9497D01*
X10609Y9482D01*
X10564Y9452D01*
X10504Y9437D01*
X10384Y9437D01*
X10354Y9452D01*
X10339Y9467D01*
X10324Y9497D01*
X10324Y9557D01*
X10339Y9587D01*
X10354Y9602D01*
X10384Y9617D01*
X10459Y9617D01*
X10489Y9602D01*
X10504Y9587D01*
X10519Y9557D01*
X10519Y9497D01*
X10504Y9467D01*
X10489Y9452D01*
X10459Y9437D01*
X12981Y10885D02*
X13296Y10810D01*
X13071Y10750D01*
X13296Y10690D01*
X12981Y10615D01*
X13281Y10510D02*
X13296Y10465D01*
X13296Y10390D01*
X13281Y10360D01*
X13266Y10345D01*
X13236Y10330D01*
X13206Y10330D01*
X13176Y10345D01*
X13161Y10360D01*
X13146Y10390D01*
X13131Y10450D01*
X13116Y10480D01*
X13101Y10495D01*
X13071Y10510D01*
X13041Y10510D01*
X13011Y10495D01*
X12996Y10480D01*
X12981Y10450D01*
X12981Y10375D01*
X12996Y10330D01*
X13011Y10210D02*
X12996Y10195D01*
X12981Y10165D01*
X12981Y10090D01*
X12996Y10060D01*
X13011Y10045D01*
X13041Y10030D01*
X13071Y10030D01*
X13116Y10045D01*
X13296Y10225D01*
X13296Y10030D01*
X13116Y9850D02*
X13101Y9880D01*
X13086Y9895D01*
X13056Y9910D01*
X13041Y9910D01*
X13011Y9895D01*
X12996Y9880D01*
X12981Y9850D01*
X12981Y9790D01*
X12996Y9760D01*
X13011Y9745D01*
X13041Y9730D01*
X13056Y9730D01*
X13086Y9745D01*
X13101Y9760D01*
X13116Y9790D01*
X13116Y9850D01*
X13131Y9880D01*
X13146Y9895D01*
X13176Y9910D01*
X13236Y9910D01*
X13266Y9895D01*
X13281Y9880D01*
X13296Y9850D01*
X13296Y9790D01*
X13281Y9760D01*
X13266Y9745D01*
X13236Y9730D01*
X13176Y9730D01*
X13146Y9745D01*
X13131Y9760D01*
X13116Y9790D01*
X13296Y9430D02*
X13296Y9610D01*
X13296Y9520D02*
X12981Y9520D01*
X13026Y9550D01*
X13056Y9580D01*
X13071Y9610D01*
X13011Y9310D02*
X12996Y9295D01*
X12981Y9265D01*
X12981Y9190D01*
X12996Y9160D01*
X13011Y9145D01*
X13041Y9130D01*
X13071Y9130D01*
X13116Y9145D01*
X13296Y9325D01*
X13296Y9130D01*
X13131Y8890D02*
X13146Y8845D01*
X13161Y8830D01*
X13191Y8815D01*
X13236Y8815D01*
X13266Y8830D01*
X13281Y8845D01*
X13296Y8875D01*
X13296Y8995D01*
X12981Y8995D01*
X12981Y8890D01*
X12996Y8860D01*
X13011Y8845D01*
X13041Y8830D01*
X13071Y8830D01*
X13101Y8845D01*
X13116Y8860D01*
X13131Y8890D01*
X13131Y8995D01*
X6387Y10232D02*
X6642Y10232D01*
X6672Y10217D01*
X6687Y10202D01*
X6702Y10172D01*
X6702Y10112D01*
X6687Y10082D01*
X6672Y10067D01*
X6642Y10052D01*
X6387Y10052D01*
X6417Y9917D02*
X6402Y9902D01*
X6387Y9872D01*
X6387Y9797D01*
X6402Y9767D01*
X6417Y9752D01*
X6447Y9737D01*
X6477Y9737D01*
X6522Y9752D01*
X6702Y9932D01*
X6702Y9737D01*
X6387Y9542D02*
X6387Y9512D01*
X6402Y9482D01*
X6417Y9467D01*
X6447Y9452D01*
X6507Y9437D01*
X6582Y9437D01*
X6642Y9452D01*
X6672Y9467D01*
X6687Y9482D01*
X6702Y9512D01*
X6702Y9542D01*
X6687Y9572D01*
X6672Y9587D01*
X6642Y9602D01*
X6582Y9617D01*
X6507Y9617D01*
X6447Y9602D01*
X6417Y9587D01*
X6402Y9572D01*
X6387Y9542D01*
X9044Y10885D02*
X9359Y10810D01*
X9134Y10750D01*
X9359Y10690D01*
X9044Y10615D01*
X9344Y10510D02*
X9359Y10465D01*
X9359Y10390D01*
X9344Y10360D01*
X9329Y10345D01*
X9299Y10330D01*
X9269Y10330D01*
X9239Y10345D01*
X9224Y10360D01*
X9209Y10390D01*
X9194Y10450D01*
X9179Y10480D01*
X9164Y10495D01*
X9134Y10510D01*
X9104Y10510D01*
X9074Y10495D01*
X9059Y10480D01*
X9044Y10450D01*
X9044Y10375D01*
X9059Y10330D01*
X9074Y10210D02*
X9059Y10195D01*
X9044Y10165D01*
X9044Y10090D01*
X9059Y10060D01*
X9074Y10045D01*
X9104Y10030D01*
X9134Y10030D01*
X9179Y10045D01*
X9359Y10225D01*
X9359Y10030D01*
X9179Y9850D02*
X9164Y9880D01*
X9149Y9895D01*
X9119Y9910D01*
X9104Y9910D01*
X9074Y9895D01*
X9059Y9880D01*
X9044Y9850D01*
X9044Y9790D01*
X9059Y9760D01*
X9074Y9745D01*
X9104Y9730D01*
X9119Y9730D01*
X9149Y9745D01*
X9164Y9760D01*
X9179Y9790D01*
X9179Y9850D01*
X9194Y9880D01*
X9209Y9895D01*
X9239Y9910D01*
X9299Y9910D01*
X9329Y9895D01*
X9344Y9880D01*
X9359Y9850D01*
X9359Y9790D01*
X9344Y9760D01*
X9329Y9745D01*
X9299Y9730D01*
X9239Y9730D01*
X9209Y9745D01*
X9194Y9760D01*
X9179Y9790D01*
X9359Y9430D02*
X9359Y9610D01*
X9359Y9520D02*
X9044Y9520D01*
X9089Y9550D01*
X9119Y9580D01*
X9134Y9610D01*
X9074Y9310D02*
X9059Y9295D01*
X9044Y9265D01*
X9044Y9190D01*
X9059Y9160D01*
X9074Y9145D01*
X9104Y9130D01*
X9134Y9130D01*
X9179Y9145D01*
X9359Y9325D01*
X9359Y9130D01*
X9194Y8890D02*
X9209Y8845D01*
X9224Y8830D01*
X9254Y8815D01*
X9299Y8815D01*
X9329Y8830D01*
X9344Y8845D01*
X9359Y8875D01*
X9359Y8995D01*
X9044Y8995D01*
X9044Y8890D01*
X9059Y8860D01*
X9074Y8845D01*
X9104Y8830D01*
X9134Y8830D01*
X9164Y8845D01*
X9179Y8860D01*
X9194Y8890D01*
X9194Y8995D01*
X2450Y10232D02*
X2705Y10232D01*
X2735Y10217D01*
X2750Y10202D01*
X2765Y10172D01*
X2765Y10112D01*
X2750Y10082D01*
X2735Y10067D01*
X2705Y10052D01*
X2450Y10052D01*
X2480Y9917D02*
X2465Y9902D01*
X2450Y9872D01*
X2450Y9797D01*
X2465Y9767D01*
X2480Y9752D01*
X2510Y9737D01*
X2540Y9737D01*
X2585Y9752D01*
X2765Y9932D01*
X2765Y9737D01*
X2765Y9437D02*
X2765Y9617D01*
X2765Y9527D02*
X2450Y9527D01*
X2495Y9557D01*
X2525Y9587D01*
X2540Y9617D01*
X5107Y10885D02*
X5422Y10810D01*
X5197Y10750D01*
X5422Y10690D01*
X5107Y10615D01*
X5407Y10510D02*
X5422Y10465D01*
X5422Y10390D01*
X5407Y10360D01*
X5392Y10345D01*
X5362Y10330D01*
X5332Y10330D01*
X5302Y10345D01*
X5287Y10360D01*
X5272Y10390D01*
X5257Y10450D01*
X5242Y10480D01*
X5227Y10495D01*
X5197Y10510D01*
X5167Y10510D01*
X5137Y10495D01*
X5122Y10480D01*
X5107Y10450D01*
X5107Y10375D01*
X5122Y10330D01*
X5137Y10210D02*
X5122Y10195D01*
X5107Y10165D01*
X5107Y10090D01*
X5122Y10060D01*
X5137Y10045D01*
X5167Y10030D01*
X5197Y10030D01*
X5242Y10045D01*
X5422Y10225D01*
X5422Y10030D01*
X5242Y9850D02*
X5227Y9880D01*
X5212Y9895D01*
X5182Y9910D01*
X5167Y9910D01*
X5137Y9895D01*
X5122Y9880D01*
X5107Y9850D01*
X5107Y9790D01*
X5122Y9760D01*
X5137Y9745D01*
X5167Y9730D01*
X5182Y9730D01*
X5212Y9745D01*
X5227Y9760D01*
X5242Y9790D01*
X5242Y9850D01*
X5257Y9880D01*
X5272Y9895D01*
X5302Y9910D01*
X5362Y9910D01*
X5392Y9895D01*
X5407Y9880D01*
X5422Y9850D01*
X5422Y9790D01*
X5407Y9760D01*
X5392Y9745D01*
X5362Y9730D01*
X5302Y9730D01*
X5272Y9745D01*
X5257Y9760D01*
X5242Y9790D01*
X5422Y9430D02*
X5422Y9610D01*
X5422Y9520D02*
X5107Y9520D01*
X5152Y9550D01*
X5182Y9580D01*
X5197Y9610D01*
X5137Y9310D02*
X5122Y9295D01*
X5107Y9265D01*
X5107Y9190D01*
X5122Y9160D01*
X5137Y9145D01*
X5167Y9130D01*
X5197Y9130D01*
X5242Y9145D01*
X5422Y9325D01*
X5422Y9130D01*
X5257Y8890D02*
X5272Y8845D01*
X5287Y8830D01*
X5317Y8815D01*
X5362Y8815D01*
X5392Y8830D01*
X5407Y8845D01*
X5422Y8875D01*
X5422Y8995D01*
X5107Y8995D01*
X5107Y8890D01*
X5122Y8860D01*
X5137Y8845D01*
X5167Y8830D01*
X5197Y8830D01*
X5227Y8845D01*
X5242Y8860D01*
X5257Y8890D01*
X5257Y8995D01*
X33946Y6295D02*
X34201Y6295D01*
X34231Y6280D01*
X34246Y6265D01*
X34261Y6235D01*
X34261Y6175D01*
X34246Y6145D01*
X34231Y6130D01*
X34201Y6115D01*
X33946Y6115D01*
X33976Y5980D02*
X33961Y5965D01*
X33946Y5935D01*
X33946Y5860D01*
X33961Y5830D01*
X33976Y5815D01*
X34006Y5800D01*
X34036Y5800D01*
X34081Y5815D01*
X34261Y5995D01*
X34261Y5800D01*
X33976Y5680D02*
X33961Y5665D01*
X33946Y5635D01*
X33946Y5560D01*
X33961Y5530D01*
X33976Y5515D01*
X34006Y5500D01*
X34036Y5500D01*
X34081Y5515D01*
X34261Y5695D01*
X34261Y5500D01*
X36603Y6948D02*
X36918Y6873D01*
X36693Y6813D01*
X36918Y6753D01*
X36603Y6678D01*
X36903Y6573D02*
X36918Y6528D01*
X36918Y6453D01*
X36903Y6423D01*
X36888Y6408D01*
X36858Y6393D01*
X36828Y6393D01*
X36798Y6408D01*
X36783Y6423D01*
X36768Y6453D01*
X36753Y6513D01*
X36738Y6543D01*
X36723Y6558D01*
X36693Y6573D01*
X36663Y6573D01*
X36633Y6558D01*
X36618Y6543D01*
X36603Y6513D01*
X36603Y6438D01*
X36618Y6393D01*
X36633Y6273D02*
X36618Y6258D01*
X36603Y6228D01*
X36603Y6153D01*
X36618Y6123D01*
X36633Y6108D01*
X36663Y6093D01*
X36693Y6093D01*
X36738Y6108D01*
X36918Y6288D01*
X36918Y6093D01*
X36738Y5913D02*
X36723Y5943D01*
X36708Y5958D01*
X36678Y5973D01*
X36663Y5973D01*
X36633Y5958D01*
X36618Y5943D01*
X36603Y5913D01*
X36603Y5853D01*
X36618Y5823D01*
X36633Y5808D01*
X36663Y5793D01*
X36678Y5793D01*
X36708Y5808D01*
X36723Y5823D01*
X36738Y5853D01*
X36738Y5913D01*
X36753Y5943D01*
X36768Y5958D01*
X36798Y5973D01*
X36858Y5973D01*
X36888Y5958D01*
X36903Y5943D01*
X36918Y5913D01*
X36918Y5853D01*
X36903Y5823D01*
X36888Y5808D01*
X36858Y5793D01*
X36798Y5793D01*
X36768Y5808D01*
X36753Y5823D01*
X36738Y5853D01*
X36918Y5493D02*
X36918Y5673D01*
X36918Y5583D02*
X36603Y5583D01*
X36648Y5613D01*
X36678Y5643D01*
X36693Y5673D01*
X36633Y5373D02*
X36618Y5358D01*
X36603Y5328D01*
X36603Y5253D01*
X36618Y5223D01*
X36633Y5208D01*
X36663Y5193D01*
X36693Y5193D01*
X36738Y5208D01*
X36918Y5388D01*
X36918Y5193D01*
X36753Y4953D02*
X36768Y4908D01*
X36783Y4893D01*
X36813Y4878D01*
X36858Y4878D01*
X36888Y4893D01*
X36903Y4908D01*
X36918Y4938D01*
X36918Y5058D01*
X36603Y5058D01*
X36603Y4953D01*
X36618Y4923D01*
X36633Y4908D01*
X36663Y4893D01*
X36693Y4893D01*
X36723Y4908D01*
X36738Y4923D01*
X36753Y4953D01*
X36753Y5058D01*
M02*
