G04 (created by PCBNEW-RS274X (2012-01-19 BZR 3256)-stable) date 03/01/2013 13:00:33*
G01*
G70*
G90*
%MOIN*%
G04 Gerber Fmt 3.4, Leading zero omitted, Abs format*
%FSLAX34Y34*%
G04 APERTURE LIST*
%ADD10C,0.006000*%
%ADD11C,0.070000*%
%ADD12R,0.070000X0.070000*%
%ADD13R,0.055000X0.098400*%
%ADD14R,0.040000X0.040000*%
%ADD15C,0.040000*%
%ADD16R,0.060000X0.060000*%
%ADD17C,0.060000*%
%ADD18C,0.078700*%
%ADD19R,0.023600X0.068900*%
%ADD20R,0.059100X0.039400*%
%ADD21R,0.039400X0.061000*%
%ADD22R,0.031500X0.059100*%
%ADD23R,0.059100X0.059100*%
%ADD24R,0.043300X0.059100*%
%ADD25C,0.086600*%
%ADD26R,0.055000X0.055000*%
%ADD27C,0.055000*%
%ADD28R,0.057100X0.059100*%
%ADD29C,0.035400*%
%ADD30C,0.098400*%
%ADD31C,0.177200*%
%ADD32C,0.025000*%
%ADD33C,0.027000*%
%ADD34C,0.045000*%
%ADD35C,0.008000*%
%ADD36C,0.019000*%
%ADD37C,0.010000*%
G04 APERTURE END LIST*
G54D10*
G54D11*
X05250Y10250D03*
X05250Y11250D03*
G54D12*
X05250Y09250D03*
G54D11*
X05250Y05750D03*
X05250Y06750D03*
G54D12*
X05250Y04750D03*
G54D13*
X38386Y03721D03*
X36614Y03721D03*
X38386Y06280D03*
X36614Y06280D03*
G54D14*
X32000Y00750D03*
G54D15*
X32000Y01250D03*
X32500Y00750D03*
X32500Y01250D03*
X33000Y00750D03*
X33000Y01250D03*
X33500Y00750D03*
X33500Y01250D03*
X34000Y00750D03*
X34000Y01250D03*
G54D16*
X35250Y05250D03*
G54D17*
X35250Y06250D03*
G54D16*
X07500Y13250D03*
G54D17*
X06500Y13250D03*
G54D16*
X09500Y13250D03*
G54D17*
X08500Y13250D03*
G54D16*
X04500Y13250D03*
G54D17*
X05500Y13250D03*
G54D16*
X22750Y00500D03*
G54D17*
X22750Y01500D03*
X22750Y02500D03*
X22750Y03500D03*
X22750Y04500D03*
X22750Y05500D03*
G54D18*
X01500Y04000D03*
X01500Y06000D03*
X01500Y12000D03*
X01500Y14000D03*
G54D19*
X28222Y00445D03*
X25191Y00445D03*
X25624Y00445D03*
X26057Y00445D03*
X26490Y00445D03*
X26923Y00445D03*
X27356Y00445D03*
X27789Y00445D03*
G54D20*
X28655Y04067D03*
G54D21*
X24246Y04678D03*
G54D22*
X28793Y03477D03*
X24088Y03733D03*
G54D23*
X24226Y00465D03*
G54D24*
X28733Y00485D03*
G54D25*
X21250Y09465D03*
X21250Y07535D03*
G54D16*
X06500Y21750D03*
G54D17*
X07500Y21750D03*
X08500Y21750D03*
X09500Y21750D03*
G54D16*
X37750Y13950D03*
G54D17*
X37750Y12950D03*
X37750Y11950D03*
G54D16*
X37750Y17100D03*
G54D17*
X37750Y16100D03*
X37750Y15100D03*
G54D16*
X37750Y20250D03*
G54D17*
X37750Y19250D03*
X37750Y18250D03*
G54D16*
X37750Y10800D03*
G54D17*
X37750Y09800D03*
G54D16*
X37750Y08650D03*
G54D17*
X37750Y07650D03*
G54D16*
X07250Y01500D03*
G54D17*
X06250Y01500D03*
G54D16*
X05000Y01500D03*
G54D17*
X04000Y01500D03*
G54D26*
X04500Y20500D03*
G54D27*
X04500Y21500D03*
G54D12*
X08500Y11500D03*
G54D11*
X08500Y09500D03*
X12500Y06750D03*
G54D12*
X12500Y05750D03*
G54D11*
X12500Y04750D03*
G54D18*
X01500Y08000D03*
X01500Y10000D03*
G54D16*
X04500Y14250D03*
G54D17*
X05500Y14250D03*
X06500Y14250D03*
X07500Y14250D03*
X08500Y14250D03*
X09500Y14250D03*
X10500Y14250D03*
X11500Y14250D03*
G54D16*
X04500Y19250D03*
G54D17*
X05500Y19250D03*
X06500Y19250D03*
X07500Y19250D03*
X08500Y19250D03*
X09500Y19250D03*
X10500Y19250D03*
X11500Y19250D03*
G54D16*
X10000Y01250D03*
G54D17*
X10000Y02250D03*
X11000Y01250D03*
X11000Y02250D03*
X12000Y01250D03*
X12000Y02250D03*
X13000Y01250D03*
X13000Y02250D03*
X14000Y01250D03*
X14000Y02250D03*
X15000Y01250D03*
X15000Y02250D03*
G54D28*
X08571Y16154D03*
X08000Y16154D03*
X07429Y16154D03*
X07429Y16745D03*
X08000Y16745D03*
X08571Y16745D03*
G54D29*
X18634Y02407D03*
X20366Y02407D03*
G54D16*
X15500Y06750D03*
G54D17*
X15500Y05750D03*
X15500Y04750D03*
G54D16*
X02500Y08500D03*
G54D17*
X02500Y09500D03*
G54D30*
X00668Y17424D03*
X00668Y19076D03*
X02832Y17424D03*
X02832Y19076D03*
G54D28*
X16571Y16154D03*
X16000Y16154D03*
X15429Y16154D03*
X15429Y16745D03*
X16000Y16745D03*
X16571Y16745D03*
G54D16*
X12500Y19250D03*
G54D17*
X13500Y19250D03*
X14500Y19250D03*
X15500Y19250D03*
X16500Y19250D03*
X17500Y19250D03*
X18500Y19250D03*
X19500Y19250D03*
G54D16*
X12500Y14250D03*
G54D17*
X13500Y14250D03*
X14500Y14250D03*
X15500Y14250D03*
X16500Y14250D03*
X17500Y14250D03*
X18500Y14250D03*
X19500Y14250D03*
G54D16*
X17500Y13250D03*
G54D17*
X16500Y13250D03*
G54D16*
X15500Y13250D03*
G54D17*
X14500Y13250D03*
G54D16*
X12500Y13250D03*
G54D17*
X13500Y13250D03*
G54D16*
X14500Y21750D03*
G54D17*
X15500Y21750D03*
X16500Y21750D03*
X17500Y21750D03*
G54D26*
X12000Y20500D03*
G54D27*
X12000Y21500D03*
G54D28*
X32571Y16154D03*
X32000Y16154D03*
X31429Y16154D03*
X31429Y16745D03*
X32000Y16745D03*
X32571Y16745D03*
X24571Y16154D03*
X24000Y16154D03*
X23429Y16154D03*
X23429Y16745D03*
X24000Y16745D03*
X24571Y16745D03*
G54D16*
X20500Y19250D03*
G54D17*
X21500Y19250D03*
X22500Y19250D03*
X23500Y19250D03*
X24500Y19250D03*
X25500Y19250D03*
X26500Y19250D03*
X27500Y19250D03*
G54D16*
X28500Y19250D03*
G54D17*
X29500Y19250D03*
X30500Y19250D03*
X31500Y19250D03*
X32500Y19250D03*
X33500Y19250D03*
X34500Y19250D03*
X35500Y19250D03*
G54D16*
X28500Y14250D03*
G54D17*
X29500Y14250D03*
X30500Y14250D03*
X31500Y14250D03*
X32500Y14250D03*
X33500Y14250D03*
X34500Y14250D03*
X35500Y14250D03*
G54D16*
X20500Y14250D03*
G54D17*
X21500Y14250D03*
X22500Y14250D03*
X23500Y14250D03*
X24500Y14250D03*
X25500Y14250D03*
X26500Y14250D03*
X27500Y14250D03*
G54D16*
X33500Y13250D03*
G54D17*
X32500Y13250D03*
G54D16*
X31500Y13250D03*
G54D17*
X30500Y13250D03*
G54D16*
X28500Y13250D03*
G54D17*
X29500Y13250D03*
G54D16*
X25500Y13250D03*
G54D17*
X24500Y13250D03*
G54D16*
X23500Y13250D03*
G54D17*
X22500Y13250D03*
G54D16*
X20500Y13250D03*
G54D17*
X21500Y13250D03*
G54D16*
X25000Y21750D03*
G54D17*
X26000Y21750D03*
X27000Y21750D03*
X28000Y21750D03*
G54D16*
X32000Y21750D03*
G54D17*
X33000Y21750D03*
X34000Y21750D03*
X35000Y21750D03*
G54D16*
X20500Y21750D03*
G54D17*
X21500Y21750D03*
X22500Y21750D03*
X23500Y21750D03*
G54D26*
X19000Y20500D03*
G54D27*
X19000Y21500D03*
G54D26*
X29500Y20500D03*
G54D27*
X29500Y21500D03*
G54D31*
X37500Y01500D03*
X37500Y22250D03*
X01500Y01500D03*
X01500Y22250D03*
G54D27*
X11050Y15100D03*
X19050Y15100D03*
X26980Y15100D03*
X35050Y15100D03*
G54D32*
X09800Y09700D03*
G54D33*
X12718Y08621D03*
G54D32*
X29400Y11100D03*
G54D33*
X28768Y09632D03*
G54D32*
X28017Y07640D03*
G54D33*
X30129Y04228D03*
G54D32*
X28004Y06484D03*
X28232Y05929D03*
X29579Y04256D03*
X16350Y02900D03*
X22500Y11600D03*
X15750Y02900D03*
X16600Y06000D03*
X25909Y06622D03*
X23325Y01263D03*
X18500Y08197D03*
G54D33*
X15964Y08091D03*
G54D32*
X19450Y08600D03*
X26970Y09700D03*
X29733Y10151D03*
G54D33*
X29843Y09347D03*
X21774Y05096D03*
G54D32*
X27301Y08950D03*
G54D33*
X21287Y04753D03*
G54D32*
X27182Y09264D03*
X26008Y05926D03*
G54D33*
X31961Y02088D03*
G54D32*
X27747Y08158D03*
G54D33*
X29860Y18680D03*
X33760Y18580D03*
G54D32*
X31330Y18080D03*
X32670Y18080D03*
X33740Y18080D03*
G54D33*
X29700Y18100D03*
X04839Y18450D03*
X05700Y18100D03*
G54D32*
X08670Y18080D03*
G54D33*
X09800Y18100D03*
G54D32*
X07330Y18080D03*
G54D33*
X17770Y18560D03*
G54D32*
X12850Y18500D03*
X16670Y18080D03*
G54D33*
X15320Y18090D03*
X13700Y18100D03*
X17770Y18080D03*
X25775Y18575D03*
X24922Y13828D03*
X21700Y18100D03*
X25790Y18080D03*
G54D32*
X24670Y18080D03*
X23330Y18080D03*
X25150Y09350D03*
X14900Y07800D03*
X15740Y03900D03*
X26551Y08668D03*
G54D33*
X28680Y08220D03*
G54D32*
X24490Y07920D03*
X26050Y10250D03*
X27510Y15340D03*
X27765Y11436D03*
G54D33*
X10739Y07836D03*
G54D32*
X19100Y17160D03*
X35120Y17150D03*
X11130Y17170D03*
X07690Y08473D03*
X27070Y17140D03*
G54D33*
X27183Y00979D03*
G54D32*
X19730Y08940D03*
X26310Y09680D03*
X08534Y08242D03*
G54D33*
X09256Y05159D03*
G54D32*
X07430Y06900D03*
G54D33*
X30050Y08200D03*
G54D32*
X25948Y03420D03*
G54D33*
X07021Y05626D03*
G54D32*
X37080Y17910D03*
X34210Y12530D03*
G54D33*
X21000Y14576D03*
X24096Y13943D03*
X26491Y06390D03*
G54D32*
X29775Y08709D03*
X25948Y04028D03*
G54D33*
X28026Y08759D03*
G54D32*
X27484Y06123D03*
X26983Y07464D03*
X27257Y05859D03*
X28560Y08530D03*
G54D33*
X24980Y07920D03*
G54D32*
X27800Y13530D03*
X19830Y12940D03*
X18150Y12910D03*
X24350Y07510D03*
X25750Y10150D03*
G54D33*
X27008Y11013D03*
G54D32*
X27092Y08111D03*
X28913Y10406D03*
X32103Y11594D03*
X26540Y07880D03*
G54D33*
X26680Y04258D03*
G54D32*
X13050Y11660D03*
X30889Y11813D03*
G54D33*
X27785Y10035D03*
G54D34*
X01500Y10000D02*
X01500Y10000D01*
G54D35*
X12500Y07000D02*
X09800Y09700D01*
X12500Y06750D02*
X12500Y07000D01*
X13051Y08288D02*
X12718Y08621D01*
X12500Y04750D02*
X13051Y05301D01*
X13051Y05301D02*
X13051Y08288D01*
X15000Y01250D02*
X15500Y01750D01*
X15500Y01750D02*
X15500Y04750D01*
X34847Y05653D02*
X29400Y11100D01*
X35250Y05653D02*
X34847Y05653D01*
X35250Y05250D02*
X35250Y05653D01*
X28768Y09032D02*
X28010Y08420D01*
X28768Y09632D02*
X28768Y09032D01*
X28010Y08420D02*
X28017Y07640D01*
X28004Y06484D02*
X30129Y04359D01*
X30129Y04359D02*
X30129Y04228D01*
X29579Y04256D02*
X28232Y05603D01*
X28232Y05603D02*
X28232Y05929D01*
X22500Y11600D02*
X20300Y11600D01*
X18950Y07800D02*
X17150Y06000D01*
X17150Y06000D02*
X16600Y06000D01*
X16350Y02900D02*
X15750Y02900D01*
X20300Y11600D02*
X18950Y10100D01*
X18950Y10100D02*
X18950Y07800D01*
X17729Y00681D02*
X21048Y04000D01*
X13975Y00681D02*
X17729Y00681D01*
X13000Y02250D02*
X13500Y01750D01*
X21048Y04000D02*
X22831Y04000D01*
X24374Y05087D02*
X25909Y06622D01*
X23918Y05087D02*
X24374Y05087D01*
X13500Y01156D02*
X13975Y00681D01*
X13500Y01750D02*
X13500Y01156D01*
X22831Y04000D02*
X23918Y05087D01*
X23158Y01096D02*
X23325Y01263D01*
X11448Y01698D02*
X11559Y01698D01*
X11559Y02713D02*
X15152Y06306D01*
X12596Y00540D02*
X12742Y00394D01*
X11559Y01698D02*
X11559Y02713D01*
X12596Y01356D02*
X12596Y00540D01*
X15152Y06306D02*
X16609Y06306D01*
X16609Y06306D02*
X18500Y08197D01*
X22346Y01096D02*
X23158Y01096D01*
X11559Y01698D02*
X12254Y01698D01*
X11000Y01250D02*
X11448Y01698D01*
X21644Y00394D02*
X22346Y01096D01*
X12254Y01698D02*
X12596Y01356D01*
X12742Y00394D02*
X21644Y00394D01*
X21850Y05930D02*
X20540Y05930D01*
X10591Y02632D02*
X10613Y02654D01*
X22320Y06400D02*
X21850Y05930D01*
X26700Y09400D02*
X26700Y09430D01*
X26700Y09430D02*
X26970Y09700D01*
X10591Y00869D02*
X10591Y02632D01*
X25950Y08750D02*
X25950Y08550D01*
X14755Y06882D02*
X15964Y08091D01*
X12000Y01250D02*
X11592Y00842D01*
X23800Y06400D02*
X22320Y06400D01*
X11249Y02654D02*
X14755Y06160D01*
X14755Y06160D02*
X14755Y06882D01*
X19452Y06930D02*
X19450Y08600D01*
X26700Y09400D02*
X26350Y09050D01*
X26250Y09050D02*
X25950Y08750D01*
X10618Y00842D02*
X10591Y00869D01*
X26350Y09050D02*
X26250Y09050D01*
X10613Y02654D02*
X11249Y02654D01*
X25950Y08550D02*
X23800Y06400D01*
X20540Y05930D02*
X19452Y06930D01*
X11592Y00842D02*
X10618Y00842D01*
X32500Y07384D02*
X29733Y10151D01*
X32500Y01250D02*
X32500Y07384D01*
X32000Y01250D02*
X32309Y01559D01*
X32309Y06881D02*
X29843Y09347D01*
X32309Y01559D02*
X32309Y06881D01*
X26309Y07966D02*
X24357Y06014D01*
X23880Y05540D02*
X23580Y05540D01*
X27301Y08950D02*
X27301Y08861D01*
X24357Y06014D02*
X24348Y06005D01*
X24354Y06014D02*
X23880Y05540D01*
X23580Y05540D02*
X23136Y05096D01*
X26710Y08270D02*
X27301Y08861D01*
X26610Y08270D02*
X26710Y08270D01*
X27301Y08950D02*
X27301Y08845D01*
X24357Y06014D02*
X24354Y06014D01*
X26309Y07969D02*
X26610Y08270D01*
X23136Y05096D02*
X23086Y05096D01*
X26309Y07966D02*
X26309Y07969D01*
X23086Y05096D02*
X21774Y05096D01*
X21680Y05350D02*
X21287Y04957D01*
X21910Y05350D02*
X21680Y05350D01*
X26504Y08416D02*
X24236Y06148D01*
X22480Y05920D02*
X21910Y05350D01*
X27000Y08791D02*
X26625Y08416D01*
X21287Y04956D02*
X21287Y04753D01*
X24238Y06148D02*
X24010Y05920D01*
X24236Y06148D02*
X24238Y06148D01*
X26625Y08416D02*
X26504Y08416D01*
X27182Y09264D02*
X27000Y09082D01*
X21287Y04957D02*
X21287Y04956D01*
X27000Y09082D02*
X27000Y08791D01*
X24010Y05920D02*
X22480Y05920D01*
X26885Y07692D02*
X27402Y07692D01*
X31961Y06858D02*
X29797Y09022D01*
X36614Y03126D02*
X35876Y03126D01*
X28275Y07412D02*
X27826Y07412D01*
X36614Y03721D02*
X36614Y03126D01*
X26262Y06646D02*
X26262Y07069D01*
X26008Y05926D02*
X26008Y06392D01*
X29797Y09022D02*
X29765Y09022D01*
X29250Y08387D02*
X28275Y07412D01*
X31961Y02088D02*
X31961Y06858D01*
X27826Y07412D02*
X27474Y07764D01*
X27474Y07764D02*
X27747Y08037D01*
X27747Y08037D02*
X27747Y08158D01*
X36614Y06280D02*
X36614Y03721D01*
X35876Y03126D02*
X34000Y01250D01*
X26262Y07069D02*
X26885Y07692D01*
X27402Y07692D02*
X27474Y07764D01*
X29765Y09022D02*
X29250Y08507D01*
X29250Y08507D02*
X29250Y08387D01*
X26008Y06392D02*
X26262Y06646D01*
G54D36*
X32500Y19250D02*
X32500Y19440D01*
X34000Y20940D02*
X34000Y21750D01*
X32500Y19440D02*
X34000Y20940D01*
X33500Y19640D02*
X35000Y21140D01*
X33500Y19250D02*
X33500Y19640D01*
X35000Y21140D02*
X35000Y21750D01*
X31500Y19250D02*
X31500Y19510D01*
X33000Y21010D02*
X33000Y21750D01*
X31500Y19510D02*
X33000Y21010D01*
X30500Y19460D02*
X32000Y20960D01*
X30500Y19250D02*
X30500Y19460D01*
X32000Y20960D02*
X32000Y21750D01*
G54D34*
X30000Y21500D02*
X30350Y21150D01*
X30350Y21150D02*
X30350Y20100D01*
G54D36*
X33660Y18680D02*
X29860Y18680D01*
X33760Y18580D02*
X33660Y18680D01*
G54D34*
X30350Y20100D02*
X29500Y19250D01*
G54D35*
X29500Y14250D02*
X29500Y13250D01*
X30500Y14250D02*
X30500Y13250D01*
X31500Y14250D02*
X32500Y13250D01*
G54D36*
X28500Y18810D02*
X29210Y18100D01*
X32670Y18080D02*
X33740Y18080D01*
X31330Y18080D02*
X32670Y18080D01*
X28500Y19250D02*
X28500Y18810D01*
X29700Y18100D02*
X31310Y18100D01*
X29210Y18100D02*
X29700Y18100D01*
X31310Y18100D02*
X31330Y18080D01*
X08500Y21750D02*
X08500Y19250D01*
X09500Y21750D02*
X09500Y19250D01*
X07500Y19250D02*
X07500Y21750D01*
X06500Y19250D02*
X06500Y21750D01*
X05500Y19250D02*
X04839Y18589D01*
X04839Y18589D02*
X04839Y18450D01*
G54D34*
X05150Y21500D02*
X05500Y21150D01*
X05500Y21150D02*
X05500Y19250D01*
G54D35*
X05500Y14250D02*
X05500Y13250D01*
X06500Y14250D02*
X06500Y13750D01*
X06500Y13750D02*
X06500Y13250D01*
X07500Y14250D02*
X08500Y13250D01*
G54D36*
X07330Y18080D02*
X05720Y18080D01*
X04500Y18300D02*
X04500Y19250D01*
X09780Y18080D02*
X09800Y18100D01*
X05700Y18100D02*
X04700Y18100D01*
X04700Y18100D02*
X04500Y18300D01*
X08670Y18080D02*
X07330Y18080D01*
X05720Y18080D02*
X05700Y18100D01*
X08670Y18080D02*
X09780Y18080D01*
X16500Y19250D02*
X16500Y21750D01*
X17500Y19250D02*
X17500Y21750D01*
X15500Y19250D02*
X15500Y21750D01*
X14500Y19250D02*
X14500Y21750D01*
X13500Y19190D02*
X14130Y18560D01*
X14130Y18560D02*
X17770Y18560D01*
G54D34*
X13500Y20650D02*
X13500Y19250D01*
G54D36*
X13500Y19250D02*
X12850Y18600D01*
X12850Y18600D02*
X12850Y18500D01*
X13500Y19250D02*
X13500Y19190D01*
G54D34*
X12650Y21500D02*
X13500Y20650D01*
G54D35*
X13500Y14250D02*
X13500Y13250D01*
X14500Y14250D02*
X14500Y13250D01*
X15500Y14250D02*
X16500Y13250D01*
G54D36*
X16670Y18080D02*
X17770Y18080D01*
X13730Y18070D02*
X13700Y18100D01*
X15320Y18090D02*
X15330Y18080D01*
X12840Y18100D02*
X13700Y18100D01*
X12500Y18440D02*
X12840Y18100D01*
X12500Y19250D02*
X12500Y18440D01*
X15330Y18080D02*
X16670Y18080D01*
X15320Y18090D02*
X13730Y18070D01*
X24500Y19250D02*
X27000Y21750D01*
X25500Y19250D02*
X28000Y21750D01*
X26000Y21750D02*
X23500Y19250D01*
X23500Y19250D02*
X23500Y19750D01*
X23500Y19750D02*
X21500Y21750D01*
X24750Y21750D02*
X24040Y22460D01*
X21210Y22460D02*
X20500Y21750D01*
X24040Y22460D02*
X21210Y22460D01*
X25000Y21750D02*
X24750Y21750D01*
X22500Y19750D02*
X20500Y21750D01*
X22500Y19250D02*
X22500Y19750D01*
X25775Y18575D02*
X25770Y18580D01*
G54D34*
X21500Y19900D02*
X21500Y19250D01*
X20900Y20500D02*
X21500Y19900D01*
G54D36*
X22170Y18580D02*
X21500Y19250D01*
X25770Y18580D02*
X22170Y18580D01*
G54D34*
X20450Y20500D02*
X20900Y20500D01*
G54D35*
X21500Y14250D02*
X21500Y13250D01*
X22500Y14250D02*
X22500Y13250D01*
X24784Y14660D02*
X24922Y14522D01*
X24922Y14522D02*
X24922Y13828D01*
X23500Y14250D02*
X23910Y14660D01*
X23910Y14660D02*
X24784Y14660D01*
G54D36*
X23310Y18100D02*
X23330Y18080D01*
X20500Y18790D02*
X21190Y18100D01*
X23330Y18080D02*
X24670Y18080D01*
X24670Y18080D02*
X25790Y18080D01*
X21700Y18100D02*
X23310Y18100D01*
X20500Y19250D02*
X20500Y18790D01*
X21190Y18100D02*
X21700Y18100D01*
G54D35*
X18950Y11850D02*
X14900Y07800D01*
X25150Y09350D02*
X22650Y11850D01*
X22650Y11850D02*
X18950Y11850D01*
X23957Y06074D02*
X22424Y06074D01*
X21092Y04982D02*
X21110Y04982D01*
X21620Y05510D02*
X21092Y04982D01*
X23957Y06074D02*
X26551Y08668D01*
X15740Y03900D02*
X16822Y04982D01*
X16822Y04982D02*
X21092Y04982D01*
X23953Y06070D02*
X23957Y06074D01*
X22424Y06074D02*
X21860Y05510D01*
X21860Y05510D02*
X21620Y05510D01*
X29505Y08982D02*
X28680Y08220D01*
X35632Y04846D02*
X34868Y04846D01*
X34868Y04846D02*
X34846Y04868D01*
X29856Y10379D02*
X29639Y10379D01*
X34846Y04868D02*
X34846Y05389D01*
X34846Y05389D02*
X29856Y10379D01*
X35654Y14096D02*
X35654Y04868D01*
X29505Y10245D02*
X29505Y08982D01*
X29639Y10379D02*
X29505Y10245D01*
X35500Y14250D02*
X35654Y14096D01*
X35654Y04868D02*
X35632Y04846D01*
X11660Y12250D02*
X22750Y12250D01*
X24490Y08090D02*
X24490Y07920D01*
X24740Y08370D02*
X24730Y08370D01*
X24730Y08330D02*
X24490Y08090D01*
X11500Y12410D02*
X11660Y12250D01*
X24730Y08370D02*
X24730Y08330D01*
X11500Y12410D02*
X11500Y14250D01*
X22750Y12250D02*
X23140Y12250D01*
X23140Y12250D02*
X25700Y09690D01*
X25700Y09690D02*
X25700Y09330D01*
X25700Y09330D02*
X24740Y08370D01*
X23780Y12650D02*
X26050Y10250D01*
X19500Y14250D02*
X19500Y12700D01*
X23410Y12650D02*
X21050Y12650D01*
X19550Y12650D02*
X19500Y12700D01*
X23780Y12650D02*
X23410Y12650D01*
X21050Y12650D02*
X19550Y12650D01*
X29096Y14603D02*
X29096Y12767D01*
X27500Y15117D02*
X27510Y15117D01*
X28582Y15117D02*
X29096Y14603D01*
X27860Y15117D02*
X28582Y15117D01*
X29096Y12767D02*
X27765Y11436D01*
X27510Y15117D02*
X27510Y15340D01*
X27500Y14250D02*
X27500Y15117D01*
X27510Y15117D02*
X27860Y15117D01*
X12500Y05297D02*
X12069Y05297D01*
X31041Y16745D02*
X31235Y16745D01*
X38386Y03126D02*
X37950Y02690D01*
X37346Y14696D02*
X37750Y15100D01*
X15041Y16745D02*
X15235Y16745D01*
X29221Y00316D02*
X32174Y00316D01*
X23429Y16154D02*
X23429Y16553D01*
X19096Y19654D02*
X19500Y19250D01*
X08960Y16745D02*
X08571Y16745D01*
X10739Y07836D02*
X10712Y07836D01*
X24226Y00465D02*
X23188Y00465D01*
X37346Y09396D02*
X37346Y08054D01*
X10739Y07810D02*
X10739Y07836D01*
X22005Y17160D02*
X22516Y16649D01*
X34000Y00750D02*
X33646Y00396D01*
X11500Y19038D02*
X11500Y19250D01*
X08571Y15756D02*
X09096Y15231D01*
X22516Y16649D02*
X23333Y16649D01*
X08117Y08473D02*
X07690Y08473D01*
X08571Y16154D02*
X08571Y15756D01*
X33354Y00396D02*
X33000Y00750D01*
X11094Y19656D02*
X10117Y19656D01*
X23405Y16721D02*
X23429Y16721D01*
X14712Y17074D02*
X15041Y16745D01*
X10712Y07836D02*
X09096Y09452D01*
X12069Y05297D02*
X12047Y05275D01*
X11500Y19250D02*
X11094Y19656D01*
X31235Y16745D02*
X31427Y16553D01*
X23429Y16721D02*
X23429Y16745D01*
X14583Y17074D02*
X13464Y17074D01*
X14583Y17074D02*
X14712Y17074D01*
X31429Y16745D02*
X31235Y16745D01*
X33646Y00396D02*
X33354Y00396D01*
X13464Y17074D02*
X11500Y19038D01*
X12346Y06203D02*
X10739Y07810D01*
X12500Y06203D02*
X12346Y06203D01*
X12500Y05750D02*
X12500Y06203D01*
X10049Y19588D02*
X10049Y17834D01*
X30182Y17633D02*
X31041Y16774D01*
X37346Y10204D02*
X37750Y09800D01*
X35940Y02690D02*
X34000Y00750D01*
X38386Y06280D02*
X38386Y03721D01*
X15427Y16553D02*
X15429Y16553D01*
X21590Y17160D02*
X22005Y17160D01*
X29117Y17633D02*
X27500Y19250D01*
X23333Y16649D02*
X23405Y16721D01*
X38386Y07014D02*
X38386Y06280D01*
X27356Y00893D02*
X27269Y00893D01*
X24226Y03197D02*
X24088Y03335D01*
X37346Y11546D02*
X37346Y10204D01*
X23188Y00465D02*
X23153Y00500D01*
X31041Y16774D02*
X31041Y16745D01*
X37950Y02690D02*
X35940Y02690D01*
X10117Y19656D02*
X10049Y19588D01*
X09096Y15231D02*
X09096Y09452D01*
X37750Y11950D02*
X37346Y12354D01*
X37346Y08054D02*
X37750Y07650D01*
X32174Y00316D02*
X32500Y00642D01*
X31427Y16553D02*
X31429Y16553D01*
X18110Y19654D02*
X19096Y19654D01*
X37750Y09800D02*
X37346Y09396D01*
X24226Y00465D02*
X24226Y03197D01*
X28733Y00485D02*
X28893Y00485D01*
X28893Y00485D02*
X29052Y00485D01*
X10049Y17834D02*
X08960Y16745D01*
X18088Y17873D02*
X18088Y19632D01*
X38386Y03721D02*
X38386Y03126D01*
X31429Y16553D02*
X31429Y16154D01*
X10000Y01653D02*
X10000Y01250D01*
X27356Y00445D02*
X27356Y00893D01*
X37750Y07650D02*
X38386Y07014D01*
X10403Y03147D02*
X10403Y02056D01*
X24088Y03335D02*
X24088Y03733D01*
X37750Y11950D02*
X37346Y11546D01*
X15429Y16745D02*
X15235Y16745D01*
X23429Y16553D02*
X23333Y16649D01*
X19500Y19250D02*
X21590Y17160D01*
X37346Y12354D02*
X37346Y14696D01*
X28793Y03278D02*
X28893Y03178D01*
X15235Y16745D02*
X15427Y16553D01*
X12047Y04791D02*
X10403Y03147D01*
X28893Y03178D02*
X28893Y00485D01*
X23153Y00500D02*
X22750Y00500D01*
X30182Y17633D02*
X29117Y17633D01*
X12047Y05275D02*
X12047Y04791D01*
X37346Y17846D02*
X37346Y15504D01*
X10403Y02056D02*
X10000Y01653D01*
X16571Y16745D02*
X16960Y16745D01*
X16960Y16745D02*
X18088Y17873D01*
X28793Y03477D02*
X28793Y03278D01*
X29052Y00485D02*
X29221Y00316D01*
X18088Y19632D02*
X18110Y19654D01*
X27269Y00893D02*
X27183Y00979D01*
X37346Y15504D02*
X37750Y15100D01*
X07429Y16745D02*
X07429Y16154D01*
X32500Y00642D02*
X32500Y00750D01*
X15429Y16553D02*
X15429Y16154D01*
X09096Y09452D02*
X08117Y08473D01*
X37750Y18250D02*
X37346Y17846D01*
X12500Y05750D02*
X12500Y05297D01*
G54D34*
X19250Y21750D02*
X19000Y21500D01*
X19000Y21500D02*
X19250Y22100D01*
X00668Y17424D02*
X00668Y19076D01*
X13400Y22900D02*
X18100Y22900D01*
X05600Y22700D02*
X05600Y22600D01*
X19450Y21500D02*
X20450Y20500D01*
X03092Y21500D02*
X00668Y19076D01*
X28650Y23000D02*
X29500Y22150D01*
X00668Y17424D02*
X00650Y12900D01*
X18100Y22900D02*
X19250Y21750D01*
X05600Y22600D02*
X04500Y21500D01*
X19000Y21500D02*
X19450Y21500D01*
X29500Y22150D02*
X29500Y21500D01*
X12000Y21500D02*
X10800Y22700D01*
X12000Y21500D02*
X13400Y22900D01*
X07650Y10350D02*
X07200Y10350D01*
X12000Y21500D02*
X12650Y21500D01*
X05600Y22700D02*
X10800Y22700D01*
X06300Y11250D02*
X05250Y11250D01*
X04500Y21500D02*
X03092Y21500D01*
X01600Y12000D02*
X01500Y12000D01*
X07200Y10350D02*
X06300Y11250D01*
X00650Y12900D02*
X01500Y12000D01*
X20150Y23000D02*
X28650Y23000D01*
X05250Y11250D02*
X02350Y11250D01*
X19250Y22100D02*
X20150Y23000D01*
X02350Y11250D02*
X01600Y12000D01*
X08500Y09500D02*
X07650Y10350D01*
X29500Y21500D02*
X30000Y21500D01*
X04500Y21500D02*
X05150Y21500D01*
G54D35*
X06711Y08242D02*
X08534Y08242D01*
X20648Y06072D02*
X19730Y06990D01*
X21772Y06072D02*
X20648Y06072D01*
X05250Y09250D02*
X05703Y09250D01*
X24730Y07680D02*
X24730Y07670D01*
X24730Y07540D02*
X24730Y07680D01*
X05703Y09250D02*
X06711Y08242D01*
X22250Y06550D02*
X21772Y06072D01*
X19730Y06990D02*
X19730Y07550D01*
X19730Y07550D02*
X19730Y08940D01*
X24730Y08100D02*
X24730Y07680D01*
X26310Y09680D02*
X24730Y08100D01*
X23740Y06550D02*
X22250Y06550D01*
X24730Y07540D02*
X23740Y06550D01*
X27113Y06259D02*
X26665Y05811D01*
X30050Y08200D02*
X28379Y06857D01*
X28379Y06857D02*
X27693Y06857D01*
X07430Y06900D02*
X09171Y05159D01*
X26665Y05651D02*
X26241Y05227D01*
X26665Y05811D02*
X26665Y05651D01*
X27693Y06857D02*
X27113Y06277D01*
X26241Y03713D02*
X25948Y03420D01*
X09171Y05159D02*
X09256Y05159D01*
X26241Y05227D02*
X26241Y03713D01*
X27113Y06277D02*
X27113Y06259D01*
G54D36*
X07904Y01046D02*
X07092Y00534D01*
X07021Y05626D02*
X07904Y04943D01*
X07092Y00534D02*
X04966Y00534D01*
X04966Y00534D02*
X04000Y01500D01*
X07904Y04943D02*
X07904Y01046D01*
G54D35*
X30160Y12028D02*
X30668Y12028D01*
X37110Y18610D02*
X37750Y19250D01*
X37080Y17910D02*
X37110Y17940D01*
X37110Y17940D02*
X37110Y18610D01*
X27484Y09888D02*
X27484Y10539D01*
X15500Y05750D02*
X21880Y05750D01*
X38154Y13354D02*
X37750Y12950D01*
X37750Y16100D02*
X38154Y15696D01*
X30668Y12028D02*
X30740Y12100D01*
X30740Y12100D02*
X33780Y12100D01*
X33780Y12100D02*
X34210Y12530D01*
X38154Y16504D02*
X38154Y18846D01*
X26323Y08762D02*
X26457Y08896D01*
X26323Y08664D02*
X26323Y08762D01*
X26954Y09358D02*
X27484Y09888D01*
X22370Y06240D02*
X23899Y06240D01*
X26954Y09357D02*
X26954Y09358D01*
X38154Y18846D02*
X37750Y19250D01*
X27484Y10539D02*
X28973Y12028D01*
X30160Y12028D02*
X30167Y12028D01*
X38154Y15696D02*
X38154Y13354D01*
X28973Y12028D02*
X30160Y12028D01*
X23899Y06240D02*
X26323Y08664D01*
X26493Y08896D02*
X26954Y09357D01*
X21880Y05750D02*
X22370Y06240D01*
X26457Y08896D02*
X26493Y08896D01*
X37750Y16100D02*
X38154Y16504D01*
X23896Y13743D02*
X24096Y13943D01*
X22920Y14168D02*
X23345Y13743D01*
X21078Y14654D02*
X22898Y14654D01*
X22920Y14632D02*
X22920Y14168D01*
X23345Y13743D02*
X23896Y13743D01*
X21000Y14576D02*
X21078Y14654D01*
X22898Y14654D02*
X22920Y14632D01*
X25569Y00948D02*
X25569Y05164D01*
X26236Y05831D02*
X26236Y06135D01*
X25624Y00893D02*
X25569Y00948D01*
X26236Y06135D02*
X26491Y06390D01*
X25569Y05164D02*
X26236Y05831D01*
X25624Y00445D02*
X25624Y00893D01*
X28067Y07001D02*
X27634Y07001D01*
X26522Y05711D02*
X25948Y05137D01*
X26522Y05877D02*
X26522Y05711D01*
X19788Y00538D02*
X13712Y00538D01*
X13712Y00538D02*
X13000Y01250D01*
X27634Y07001D02*
X26970Y06337D01*
X29775Y08709D02*
X28067Y07001D01*
X25948Y05137D02*
X25948Y04028D01*
X22750Y03500D02*
X19788Y00538D01*
X26970Y06325D02*
X26522Y05877D01*
X26970Y06337D02*
X26970Y06325D01*
X26379Y07414D02*
X26403Y07414D01*
X26824Y07835D02*
X27166Y07835D01*
X26403Y07414D02*
X26824Y07835D01*
X14425Y00825D02*
X16102Y00825D01*
X24349Y05384D02*
X26379Y07414D01*
X27326Y08059D02*
X28026Y08759D01*
X14000Y01250D02*
X14425Y00825D01*
X23634Y05384D02*
X24349Y05384D01*
X16102Y00825D02*
X19777Y04500D01*
X19777Y04500D02*
X22750Y04500D01*
X22750Y04500D02*
X23634Y05384D01*
X27326Y07995D02*
X27326Y08059D01*
X27166Y07835D02*
X27326Y07995D01*
X27789Y05818D02*
X27484Y06123D01*
X27789Y00445D02*
X27789Y05818D01*
X25719Y01231D02*
X25719Y05111D01*
X26827Y07308D02*
X26983Y07464D01*
X26057Y00893D02*
X25719Y01231D01*
X25719Y05111D02*
X26379Y05771D01*
X26379Y05940D02*
X26827Y06388D01*
X26057Y00445D02*
X26057Y00893D01*
X26827Y06388D02*
X26827Y07308D01*
X26379Y05771D02*
X26379Y05940D01*
X26923Y01063D02*
X27257Y01397D01*
X26923Y00445D02*
X26923Y01063D01*
X27257Y01397D02*
X27257Y05859D01*
X29141Y08991D02*
X29141Y11166D01*
X34147Y11331D02*
X34500Y11684D01*
X34500Y11684D02*
X34500Y14250D01*
X29141Y11166D02*
X29306Y11331D01*
X28880Y08780D02*
X29141Y08991D01*
X28560Y08530D02*
X28880Y08780D01*
X29306Y11331D02*
X34147Y11331D01*
X26717Y11011D02*
X26717Y09729D01*
X20500Y14250D02*
X20299Y14250D01*
X26717Y09729D02*
X26313Y09325D01*
X24882Y12846D02*
X26717Y11011D01*
X19830Y12940D02*
X19830Y13580D01*
X19830Y13580D02*
X20500Y14250D01*
X12903Y13055D02*
X12903Y13825D01*
X27800Y13530D02*
X26530Y13530D01*
X26530Y13530D02*
X26320Y13740D01*
X26320Y13740D02*
X25170Y13740D01*
X25170Y13740D02*
X25101Y13671D01*
X27800Y13550D02*
X28500Y14250D01*
X27800Y13530D02*
X27800Y13550D01*
X13118Y12840D02*
X12903Y13055D01*
X17914Y12868D02*
X17886Y12840D01*
X26313Y09325D02*
X26218Y09325D01*
X25101Y13671D02*
X25110Y13683D01*
X24882Y12846D02*
X24954Y12868D01*
X24954Y12868D02*
X24954Y13477D01*
X24954Y13477D02*
X25101Y13671D01*
X19870Y12900D02*
X19830Y12940D01*
X26218Y09325D02*
X24980Y07920D01*
X12903Y13825D02*
X12881Y13847D01*
X18108Y12868D02*
X17914Y12868D01*
X19950Y12900D02*
X19870Y12900D01*
X21107Y12846D02*
X24882Y12846D01*
X21107Y12846D02*
X20004Y12846D01*
X20004Y12846D02*
X19950Y12900D01*
X12881Y13847D02*
X12500Y13847D01*
X12500Y14250D02*
X12500Y13847D01*
X17886Y12840D02*
X13118Y12840D01*
X18150Y12910D02*
X18108Y12868D01*
X10530Y12250D02*
X10730Y12050D01*
X10500Y14250D02*
X10530Y12250D01*
X24550Y08540D02*
X24550Y08470D01*
X22900Y12050D02*
X22500Y12050D01*
X25400Y09430D02*
X22900Y12050D01*
X10730Y12050D02*
X12300Y12050D01*
X24250Y08170D02*
X24250Y07610D01*
X24550Y08470D02*
X24250Y08170D01*
X24250Y07610D02*
X24350Y07510D01*
X24550Y08540D02*
X25400Y09260D01*
X12300Y12050D02*
X22500Y12050D01*
X25400Y09430D02*
X25400Y09260D01*
X18790Y12450D02*
X23050Y12450D01*
X23450Y12450D02*
X25750Y10150D01*
X18500Y12740D02*
X18790Y12450D01*
X23050Y12450D02*
X23450Y12450D01*
X18500Y14250D02*
X18500Y12740D01*
X28097Y14593D02*
X28158Y14654D01*
X28145Y12150D02*
X27008Y11013D01*
X28903Y12856D02*
X28197Y12150D01*
X28903Y14593D02*
X28903Y12856D01*
X26500Y14250D02*
X26904Y13846D01*
X28197Y12150D02*
X28145Y12150D01*
X28097Y14185D02*
X28097Y14593D01*
X26904Y13846D02*
X27758Y13846D01*
X27758Y13846D02*
X28097Y14185D01*
X28842Y14654D02*
X28903Y14593D01*
X28158Y14654D02*
X28842Y14654D01*
X27797Y08816D02*
X27092Y08111D01*
X28913Y10225D02*
X27797Y09109D01*
X27797Y09109D02*
X27797Y08816D01*
X28913Y10406D02*
X28913Y10225D01*
X28033Y09548D02*
X28033Y10261D01*
X26998Y08339D02*
X27015Y08339D01*
X28033Y10261D02*
X29308Y11536D01*
X29308Y11536D02*
X32045Y11536D01*
X32045Y11536D02*
X32103Y11594D01*
X27595Y09110D02*
X28033Y09548D01*
X26540Y07880D02*
X26864Y08198D01*
X27595Y08919D02*
X27595Y09110D01*
X26864Y08198D02*
X26864Y08205D01*
X27015Y08339D02*
X27595Y08919D01*
X26864Y08205D02*
X26998Y08339D01*
X10520Y11660D02*
X13050Y11660D01*
X09500Y12680D02*
X10520Y11660D01*
X09500Y13250D02*
X09500Y12680D01*
X27770Y06572D02*
X27770Y06571D01*
X33500Y14250D02*
X33500Y13250D01*
X26490Y00893D02*
X26680Y01083D01*
X26808Y05750D02*
X26808Y04386D01*
X28154Y06712D02*
X27910Y06712D01*
X27910Y06712D02*
X27770Y06572D01*
X27256Y06217D02*
X27256Y06198D01*
X27256Y06198D02*
X26808Y05750D01*
X06694Y12847D02*
X07097Y13250D01*
X17500Y14250D02*
X17500Y13250D01*
X27610Y06571D02*
X27256Y06217D01*
X31186Y01564D02*
X31186Y03680D01*
X31186Y03680D02*
X28154Y06712D01*
X04500Y13250D02*
X04903Y13250D01*
X04903Y13250D02*
X05306Y12847D01*
X05306Y12847D02*
X06694Y12847D01*
X27770Y06571D02*
X27610Y06571D01*
X07097Y13250D02*
X07500Y13250D01*
X32000Y00750D02*
X31186Y01564D01*
X26808Y04386D02*
X26680Y04258D01*
X26680Y01083D02*
X26680Y04258D01*
X26490Y00445D02*
X26490Y00893D01*
X34904Y06596D02*
X34904Y14463D01*
X34904Y14463D02*
X34500Y14867D01*
X28500Y13250D02*
X25500Y13250D01*
X34500Y14867D02*
X34117Y14867D01*
X34117Y14867D02*
X33500Y14250D01*
X35250Y06250D02*
X34904Y06596D01*
X30889Y11813D02*
X29282Y11813D01*
X29282Y11813D02*
X27785Y10316D01*
X27785Y10316D02*
X27785Y10035D01*
G54D10*
G36*
X36350Y21000D02*
X35313Y21000D01*
X35319Y21008D01*
X35345Y21140D01*
X35345Y21319D01*
X35465Y21439D01*
X35549Y21641D01*
X35549Y21859D01*
X35465Y22061D01*
X35311Y22215D01*
X35109Y22299D01*
X34891Y22299D01*
X34689Y22215D01*
X34535Y22061D01*
X34500Y21977D01*
X34465Y22061D01*
X34311Y22215D01*
X34109Y22299D01*
X33891Y22299D01*
X33689Y22215D01*
X33535Y22061D01*
X33500Y21977D01*
X33465Y22061D01*
X33311Y22215D01*
X33109Y22299D01*
X32891Y22299D01*
X32689Y22215D01*
X32549Y22075D01*
X32549Y22099D01*
X32511Y22191D01*
X32441Y22261D01*
X32350Y22299D01*
X32251Y22299D01*
X31651Y22299D01*
X31559Y22261D01*
X31489Y22191D01*
X31451Y22100D01*
X31451Y22001D01*
X31451Y21401D01*
X31489Y21309D01*
X31559Y21239D01*
X31650Y21201D01*
X31655Y21201D01*
X31655Y21103D01*
X31552Y21000D01*
X30019Y21000D01*
X30019Y21426D01*
X30008Y21630D01*
X29952Y21767D01*
X29861Y21790D01*
X29790Y21719D01*
X29790Y21861D01*
X29767Y21952D01*
X29574Y22019D01*
X29370Y22008D01*
X29233Y21952D01*
X29210Y21861D01*
X29500Y21571D01*
X29790Y21861D01*
X29790Y21719D01*
X29571Y21500D01*
X29861Y21210D01*
X29952Y21233D01*
X30019Y21426D01*
X30019Y21000D01*
X29882Y21000D01*
X29825Y21024D01*
X29726Y21024D01*
X29708Y21024D01*
X29767Y21048D01*
X29790Y21139D01*
X29500Y21429D01*
X29429Y21358D01*
X29429Y21500D01*
X29139Y21790D01*
X29048Y21767D01*
X28981Y21574D01*
X28992Y21370D01*
X29048Y21233D01*
X29139Y21210D01*
X29429Y21500D01*
X29429Y21358D01*
X29210Y21139D01*
X29233Y21048D01*
X29302Y21024D01*
X29176Y21024D01*
X29117Y21000D01*
X27738Y21000D01*
X27939Y21201D01*
X28109Y21201D01*
X28311Y21285D01*
X28465Y21439D01*
X28549Y21641D01*
X28549Y21859D01*
X28465Y22061D01*
X28311Y22215D01*
X28109Y22299D01*
X27891Y22299D01*
X27689Y22215D01*
X27535Y22061D01*
X27500Y21977D01*
X27465Y22061D01*
X27311Y22215D01*
X27109Y22299D01*
X26891Y22299D01*
X26689Y22215D01*
X26535Y22061D01*
X26500Y21977D01*
X26465Y22061D01*
X26311Y22215D01*
X26109Y22299D01*
X25891Y22299D01*
X25689Y22215D01*
X25549Y22075D01*
X25549Y22099D01*
X25511Y22191D01*
X25441Y22261D01*
X25350Y22299D01*
X25251Y22299D01*
X24689Y22299D01*
X24284Y22704D01*
X24172Y22779D01*
X24040Y22805D01*
X21210Y22805D01*
X21078Y22779D01*
X20966Y22704D01*
X20561Y22299D01*
X20151Y22299D01*
X20059Y22261D01*
X19989Y22191D01*
X19951Y22100D01*
X19951Y22001D01*
X19951Y21671D01*
X19786Y21836D01*
X19632Y21939D01*
X19450Y21975D01*
X19307Y21948D01*
X19306Y21947D01*
X19270Y21940D01*
X19267Y21952D01*
X19074Y22019D01*
X18870Y22008D01*
X18733Y21952D01*
X18710Y21861D01*
X18965Y21606D01*
X18990Y21581D01*
X18975Y21500D01*
X18990Y21420D01*
X18929Y21359D01*
X18929Y21500D01*
X18639Y21790D01*
X18548Y21767D01*
X18481Y21574D01*
X18492Y21370D01*
X18548Y21233D01*
X18639Y21210D01*
X18929Y21500D01*
X18929Y21359D01*
X18710Y21139D01*
X18733Y21048D01*
X18802Y21024D01*
X18676Y21024D01*
X18617Y21000D01*
X17845Y21000D01*
X17845Y21319D01*
X17965Y21439D01*
X18049Y21641D01*
X18049Y21859D01*
X17965Y22061D01*
X17811Y22215D01*
X17609Y22299D01*
X17391Y22299D01*
X17189Y22215D01*
X17035Y22061D01*
X17000Y21977D01*
X16965Y22061D01*
X16811Y22215D01*
X16609Y22299D01*
X16391Y22299D01*
X16189Y22215D01*
X16035Y22061D01*
X16000Y21977D01*
X15965Y22061D01*
X15811Y22215D01*
X15609Y22299D01*
X15391Y22299D01*
X15189Y22215D01*
X15049Y22075D01*
X15049Y22099D01*
X15011Y22191D01*
X14941Y22261D01*
X14850Y22299D01*
X14751Y22299D01*
X14151Y22299D01*
X14059Y22261D01*
X13989Y22191D01*
X13951Y22100D01*
X13951Y22001D01*
X13951Y21401D01*
X13989Y21309D01*
X14059Y21239D01*
X14150Y21201D01*
X14155Y21201D01*
X14155Y21000D01*
X13822Y21000D01*
X12986Y21836D01*
X12832Y21939D01*
X12650Y21975D01*
X12468Y21939D01*
X12376Y21879D01*
X12307Y21948D01*
X12275Y21917D01*
X12267Y21952D01*
X12074Y22019D01*
X11870Y22008D01*
X11733Y21952D01*
X11710Y21861D01*
X11965Y21606D01*
X12000Y21571D01*
X12071Y21500D01*
X12000Y21429D01*
X11965Y21394D01*
X11929Y21358D01*
X11929Y21500D01*
X11639Y21790D01*
X11548Y21767D01*
X11481Y21574D01*
X11492Y21370D01*
X11548Y21233D01*
X11639Y21210D01*
X11929Y21500D01*
X11929Y21358D01*
X11710Y21139D01*
X11733Y21048D01*
X11802Y21024D01*
X11676Y21024D01*
X11617Y21000D01*
X09845Y21000D01*
X09845Y21319D01*
X09965Y21439D01*
X10049Y21641D01*
X10049Y21859D01*
X09965Y22061D01*
X09811Y22215D01*
X09609Y22299D01*
X09391Y22299D01*
X09189Y22215D01*
X09035Y22061D01*
X09000Y21977D01*
X08965Y22061D01*
X08811Y22215D01*
X08609Y22299D01*
X08391Y22299D01*
X08189Y22215D01*
X08035Y22061D01*
X08000Y21977D01*
X07965Y22061D01*
X07811Y22215D01*
X07609Y22299D01*
X07391Y22299D01*
X07189Y22215D01*
X07049Y22075D01*
X07049Y22099D01*
X07011Y22191D01*
X06941Y22261D01*
X06850Y22299D01*
X06751Y22299D01*
X06151Y22299D01*
X06059Y22261D01*
X05989Y22191D01*
X05951Y22100D01*
X05951Y22001D01*
X05951Y21401D01*
X05989Y21309D01*
X06059Y21239D01*
X06150Y21201D01*
X06155Y21201D01*
X06155Y21000D01*
X05975Y21000D01*
X05975Y21150D01*
X05974Y21151D01*
X05939Y21332D01*
X05836Y21486D01*
X05835Y21487D01*
X05486Y21836D01*
X05332Y21939D01*
X05150Y21975D01*
X04968Y21939D01*
X04876Y21879D01*
X04807Y21948D01*
X04775Y21917D01*
X04767Y21952D01*
X04574Y22019D01*
X04370Y22008D01*
X04233Y21952D01*
X04210Y21861D01*
X04465Y21606D01*
X04500Y21571D01*
X04571Y21500D01*
X04500Y21429D01*
X04465Y21394D01*
X04429Y21358D01*
X04429Y21500D01*
X04139Y21790D01*
X04048Y21767D01*
X03981Y21574D01*
X03992Y21370D01*
X04048Y21233D01*
X04139Y21210D01*
X04429Y21500D01*
X04429Y21358D01*
X04210Y21139D01*
X04233Y21048D01*
X04302Y21024D01*
X04176Y21024D01*
X04084Y20986D01*
X04014Y20916D01*
X03976Y20825D01*
X03976Y20726D01*
X03976Y20176D01*
X04014Y20084D01*
X04084Y20014D01*
X04150Y19987D01*
X04150Y19799D01*
X04059Y19761D01*
X03989Y19691D01*
X03951Y19600D01*
X03951Y19501D01*
X03951Y18901D01*
X03989Y18809D01*
X04059Y18739D01*
X04150Y18701D01*
X04150Y14799D01*
X04059Y14761D01*
X03989Y14691D01*
X03951Y14600D01*
X03951Y14501D01*
X03951Y13901D01*
X03989Y13809D01*
X04048Y13750D01*
X03989Y13691D01*
X03951Y13600D01*
X03951Y13501D01*
X03951Y12901D01*
X03989Y12809D01*
X04059Y12739D01*
X04150Y12701D01*
X04150Y12100D01*
X08806Y12100D01*
X08806Y12099D01*
X08801Y12099D01*
X08101Y12099D01*
X08009Y12061D01*
X07939Y11991D01*
X07901Y11900D01*
X07901Y11801D01*
X07901Y11101D01*
X07939Y11009D01*
X08009Y10939D01*
X08100Y10901D01*
X08199Y10901D01*
X08806Y10901D01*
X08806Y10015D01*
X08591Y10093D01*
X08356Y10082D01*
X08190Y10013D01*
X08157Y09914D01*
X08465Y09606D01*
X08500Y09571D01*
X08571Y09500D01*
X08500Y09429D01*
X08465Y09394D01*
X08429Y09358D01*
X08429Y09500D01*
X08086Y09843D01*
X07987Y09810D01*
X07907Y09591D01*
X07918Y09356D01*
X07987Y09190D01*
X08086Y09157D01*
X08429Y09500D01*
X08429Y09358D01*
X08157Y09086D01*
X08190Y08987D01*
X08212Y08979D01*
X07997Y08763D01*
X07930Y08763D01*
X07903Y08790D01*
X07765Y08848D01*
X07616Y08848D01*
X07478Y08791D01*
X07373Y08686D01*
X07315Y08548D01*
X07315Y08532D01*
X06831Y08532D01*
X05908Y09455D01*
X05849Y09495D01*
X05849Y09649D01*
X05811Y09741D01*
X05741Y09811D01*
X05682Y09836D01*
X05758Y09911D01*
X05849Y10131D01*
X05849Y10369D01*
X05843Y10384D01*
X05843Y11159D01*
X05832Y11394D01*
X05763Y11560D01*
X05664Y11593D01*
X05593Y11522D01*
X05593Y11664D01*
X05560Y11763D01*
X05341Y11843D01*
X05106Y11832D01*
X04940Y11763D01*
X04907Y11664D01*
X05250Y11321D01*
X05593Y11664D01*
X05593Y11522D01*
X05321Y11250D01*
X05664Y10907D01*
X05763Y10940D01*
X05843Y11159D01*
X05843Y10384D01*
X05758Y10589D01*
X05589Y10758D01*
X05569Y10766D01*
X05593Y10836D01*
X05250Y11179D01*
X05179Y11108D01*
X05179Y11250D01*
X04836Y11593D01*
X04737Y11560D01*
X04657Y11341D01*
X04668Y11106D01*
X04737Y10940D01*
X04836Y10907D01*
X05179Y11250D01*
X05179Y11108D01*
X04907Y10836D01*
X04930Y10766D01*
X04911Y10758D01*
X04742Y10589D01*
X04651Y10369D01*
X04651Y10131D01*
X04742Y09911D01*
X04817Y09836D01*
X04759Y09811D01*
X04689Y09741D01*
X04651Y09650D01*
X04651Y09551D01*
X04651Y08851D01*
X04689Y08759D01*
X04759Y08689D01*
X04850Y08651D01*
X04949Y08651D01*
X05649Y08651D01*
X05741Y08689D01*
X05797Y08746D01*
X06506Y08037D01*
X06600Y07974D01*
X06711Y07952D01*
X08294Y07952D01*
X08321Y07925D01*
X08459Y07867D01*
X08608Y07867D01*
X08746Y07924D01*
X08851Y08029D01*
X08909Y08167D01*
X08909Y08316D01*
X08852Y08454D01*
X08747Y08559D01*
X08652Y08599D01*
X08950Y08896D01*
X08950Y05790D01*
X07805Y06935D01*
X07805Y06974D01*
X07748Y07112D01*
X07643Y07217D01*
X07505Y07275D01*
X07356Y07275D01*
X07218Y07218D01*
X07113Y07113D01*
X07055Y06975D01*
X07055Y06826D01*
X07112Y06688D01*
X07217Y06583D01*
X07355Y06525D01*
X07395Y06525D01*
X08894Y05026D01*
X08929Y04941D01*
X08950Y04921D01*
X08950Y00325D01*
X07407Y00325D01*
X08087Y00753D01*
X08117Y00782D01*
X08148Y00802D01*
X08162Y00825D01*
X08185Y00845D01*
X08201Y00882D01*
X08223Y00914D01*
X08228Y00944D01*
X08240Y00969D01*
X08241Y01006D01*
X08249Y01046D01*
X08249Y04943D01*
X08244Y04966D01*
X08246Y04987D01*
X08231Y05031D01*
X08223Y05075D01*
X08211Y05093D01*
X08204Y05115D01*
X08170Y05154D01*
X08148Y05187D01*
X08131Y05198D01*
X08115Y05217D01*
X07368Y05794D01*
X07348Y05844D01*
X07239Y05952D01*
X07098Y06011D01*
X06945Y06011D01*
X06803Y05953D01*
X06695Y05844D01*
X06636Y05703D01*
X06636Y05550D01*
X06694Y05408D01*
X06803Y05300D01*
X06944Y05241D01*
X06955Y05241D01*
X07559Y04775D01*
X07559Y02049D01*
X07501Y02049D01*
X06901Y02049D01*
X06809Y02011D01*
X06739Y01941D01*
X06701Y01850D01*
X06701Y01825D01*
X06561Y01965D01*
X06359Y02049D01*
X06141Y02049D01*
X05939Y01965D01*
X05849Y01875D01*
X05849Y04350D01*
X05849Y04449D01*
X05849Y05149D01*
X05811Y05241D01*
X05741Y05311D01*
X05682Y05336D01*
X05758Y05411D01*
X05849Y05631D01*
X05849Y05869D01*
X05843Y05884D01*
X05843Y06659D01*
X05832Y06894D01*
X05763Y07060D01*
X05664Y07093D01*
X05593Y07022D01*
X05593Y07164D01*
X05560Y07263D01*
X05341Y07343D01*
X05106Y07332D01*
X04940Y07263D01*
X04907Y07164D01*
X05250Y06821D01*
X05593Y07164D01*
X05593Y07022D01*
X05321Y06750D01*
X05664Y06407D01*
X05763Y06440D01*
X05843Y06659D01*
X05843Y05884D01*
X05758Y06089D01*
X05589Y06258D01*
X05569Y06266D01*
X05593Y06336D01*
X05250Y06679D01*
X05179Y06608D01*
X05179Y06750D01*
X04836Y07093D01*
X04737Y07060D01*
X04657Y06841D01*
X04668Y06606D01*
X04737Y06440D01*
X04836Y06407D01*
X05179Y06750D01*
X05179Y06608D01*
X04907Y06336D01*
X04930Y06266D01*
X04911Y06258D01*
X04742Y06089D01*
X04651Y05869D01*
X04651Y05631D01*
X04742Y05411D01*
X04817Y05336D01*
X04759Y05311D01*
X04689Y05241D01*
X04651Y05150D01*
X04651Y05051D01*
X04651Y04351D01*
X04689Y04259D01*
X04759Y04189D01*
X04850Y04151D01*
X04949Y04151D01*
X05649Y04151D01*
X05741Y04189D01*
X05811Y04259D01*
X05849Y04350D01*
X05849Y01875D01*
X05785Y01811D01*
X05701Y01609D01*
X05701Y01391D01*
X05785Y01189D01*
X05939Y01035D01*
X06141Y00951D01*
X06359Y00951D01*
X06561Y01035D01*
X06701Y01175D01*
X06701Y01151D01*
X06739Y01059D01*
X06809Y00989D01*
X06900Y00951D01*
X06999Y00951D01*
X07106Y00951D01*
X06992Y00879D01*
X05109Y00879D01*
X05037Y00951D01*
X05349Y00951D01*
X05441Y00989D01*
X05511Y01059D01*
X05549Y01150D01*
X05549Y01249D01*
X05549Y01849D01*
X05511Y01941D01*
X05441Y02011D01*
X05350Y02049D01*
X05251Y02049D01*
X04651Y02049D01*
X04559Y02011D01*
X04489Y01941D01*
X04451Y01850D01*
X04451Y01825D01*
X04311Y01965D01*
X04109Y02049D01*
X03891Y02049D01*
X03689Y01965D01*
X03574Y01850D01*
X03574Y17276D01*
X03574Y17571D01*
X03574Y18928D01*
X03574Y19223D01*
X03461Y19496D01*
X03253Y19705D01*
X02980Y19818D01*
X02685Y19818D01*
X02636Y19798D01*
X02636Y22023D01*
X02636Y22475D01*
X02463Y22893D01*
X02144Y23212D01*
X01727Y23386D01*
X01275Y23386D01*
X00857Y23213D01*
X00538Y22894D01*
X00364Y22477D01*
X00364Y22025D01*
X00537Y21607D01*
X00856Y21288D01*
X01273Y21114D01*
X01725Y21114D01*
X02143Y21287D01*
X02462Y21606D01*
X02636Y22023D01*
X02636Y19798D01*
X02412Y19705D01*
X02203Y19497D01*
X02090Y19224D01*
X02090Y18929D01*
X02203Y18656D01*
X02411Y18447D01*
X02684Y18334D01*
X02979Y18334D01*
X03252Y18447D01*
X03461Y18655D01*
X03574Y18928D01*
X03574Y17571D01*
X03461Y17844D01*
X03253Y18053D01*
X02980Y18166D01*
X02685Y18166D01*
X02412Y18053D01*
X02203Y17845D01*
X02090Y17572D01*
X02090Y17277D01*
X02203Y17004D01*
X02411Y16795D01*
X02684Y16682D01*
X02979Y16682D01*
X03252Y16795D01*
X03461Y17003D01*
X03574Y17276D01*
X03574Y01850D01*
X03535Y01811D01*
X03451Y01609D01*
X03451Y01391D01*
X03535Y01189D01*
X03689Y01035D01*
X03891Y00951D01*
X04061Y00951D01*
X04687Y00325D01*
X03049Y00325D01*
X03049Y08150D01*
X03049Y08249D01*
X03049Y08849D01*
X03011Y08941D01*
X02941Y09011D01*
X02850Y09049D01*
X02825Y09049D01*
X02965Y09189D01*
X03049Y09391D01*
X03049Y09609D01*
X02965Y09811D01*
X02811Y09965D01*
X02609Y10049D01*
X02391Y10049D01*
X02189Y09965D01*
X02143Y09919D01*
X02143Y10127D01*
X02143Y13871D01*
X02143Y14127D01*
X02045Y14363D01*
X01865Y14544D01*
X01629Y14643D01*
X01399Y14643D01*
X01399Y17300D01*
X01399Y18952D01*
X01391Y19241D01*
X01296Y19471D01*
X01183Y19520D01*
X00739Y19076D01*
X01183Y18632D01*
X01296Y18681D01*
X01399Y18952D01*
X01399Y17300D01*
X01391Y17589D01*
X01296Y17819D01*
X01183Y17868D01*
X00739Y17424D01*
X01183Y16980D01*
X01296Y17029D01*
X01399Y17300D01*
X01399Y14643D01*
X01373Y14643D01*
X01137Y14545D01*
X00956Y14365D01*
X00857Y14129D01*
X00857Y13873D01*
X00955Y13637D01*
X01135Y13456D01*
X01371Y13357D01*
X01627Y13357D01*
X01863Y13455D01*
X02044Y13635D01*
X02143Y13871D01*
X02143Y10127D01*
X02135Y10147D01*
X02135Y11900D01*
X02125Y12150D01*
X02048Y12336D01*
X01944Y12373D01*
X01873Y12302D01*
X01873Y12444D01*
X01836Y12548D01*
X01600Y12635D01*
X01350Y12625D01*
X01164Y12548D01*
X01127Y12444D01*
X01500Y12071D01*
X01873Y12444D01*
X01873Y12302D01*
X01571Y12000D01*
X01944Y11627D01*
X02048Y11664D01*
X02135Y11900D01*
X02135Y10147D01*
X02045Y10363D01*
X01873Y10536D01*
X01873Y11556D01*
X01500Y11929D01*
X01429Y11858D01*
X01429Y12000D01*
X01056Y12373D01*
X00952Y12336D01*
X00865Y12100D01*
X00875Y11850D01*
X00952Y11664D01*
X01056Y11627D01*
X01429Y12000D01*
X01429Y11858D01*
X01127Y11556D01*
X01164Y11452D01*
X01400Y11365D01*
X01650Y11375D01*
X01836Y11452D01*
X01873Y11556D01*
X01873Y10536D01*
X01865Y10544D01*
X01629Y10643D01*
X01373Y10643D01*
X01137Y10545D01*
X00956Y10365D01*
X00857Y10129D01*
X00857Y09873D01*
X00955Y09637D01*
X01135Y09456D01*
X01371Y09357D01*
X01627Y09357D01*
X01863Y09455D01*
X01951Y09543D01*
X01951Y09391D01*
X02035Y09189D01*
X02175Y09049D01*
X02151Y09049D01*
X02059Y09011D01*
X01989Y08941D01*
X01951Y08850D01*
X01951Y08751D01*
X01951Y08458D01*
X01865Y08544D01*
X01629Y08643D01*
X01373Y08643D01*
X01137Y08545D01*
X00956Y08365D01*
X00857Y08129D01*
X00857Y07873D01*
X00955Y07637D01*
X01135Y07456D01*
X01371Y07357D01*
X01627Y07357D01*
X01863Y07455D01*
X02044Y07635D01*
X02143Y07871D01*
X02143Y07954D01*
X02150Y07951D01*
X02249Y07951D01*
X02849Y07951D01*
X02941Y07989D01*
X03011Y08059D01*
X03049Y08150D01*
X03049Y00325D01*
X02636Y00325D01*
X02636Y01273D01*
X02636Y01725D01*
X02463Y02143D01*
X02144Y02462D01*
X02143Y02463D01*
X02143Y03871D01*
X02143Y04127D01*
X02143Y05871D01*
X02143Y06127D01*
X02045Y06363D01*
X01865Y06544D01*
X01629Y06643D01*
X01373Y06643D01*
X01137Y06545D01*
X00956Y06365D01*
X00857Y06129D01*
X00857Y05873D01*
X00955Y05637D01*
X01135Y05456D01*
X01371Y05357D01*
X01627Y05357D01*
X01863Y05455D01*
X02044Y05635D01*
X02143Y05871D01*
X02143Y04127D01*
X02045Y04363D01*
X01865Y04544D01*
X01629Y04643D01*
X01373Y04643D01*
X01137Y04545D01*
X00956Y04365D01*
X00857Y04129D01*
X00857Y03873D01*
X00955Y03637D01*
X01135Y03456D01*
X01371Y03357D01*
X01627Y03357D01*
X01863Y03455D01*
X02044Y03635D01*
X02143Y03871D01*
X02143Y02463D01*
X01727Y02636D01*
X01275Y02636D01*
X00857Y02463D01*
X00538Y02144D01*
X00364Y01727D01*
X00364Y01275D01*
X00537Y00857D01*
X00856Y00538D01*
X01273Y00364D01*
X01725Y00364D01*
X02143Y00537D01*
X02462Y00856D01*
X02636Y01273D01*
X02636Y00325D01*
X00325Y00325D01*
X00325Y04250D01*
X00325Y16777D01*
X00544Y16693D01*
X00833Y16701D01*
X01063Y16796D01*
X01112Y16909D01*
X00703Y17318D01*
X00668Y17353D01*
X00597Y17424D01*
X00668Y17495D01*
X00703Y17530D01*
X01112Y17939D01*
X01063Y18052D01*
X00792Y18155D01*
X00503Y18147D01*
X00325Y18074D01*
X00325Y18429D01*
X00544Y18345D01*
X00833Y18353D01*
X01063Y18448D01*
X01112Y18561D01*
X00703Y18970D01*
X00668Y19005D01*
X00597Y19076D01*
X00668Y19147D01*
X00703Y19182D01*
X01112Y19591D01*
X01063Y19704D01*
X00792Y19807D01*
X00503Y19799D01*
X00325Y19726D01*
X00325Y23425D01*
X36350Y23425D01*
X36350Y21000D01*
X36350Y21000D01*
G37*
G54D37*
X36350Y21000D02*
X35313Y21000D01*
X35319Y21008D01*
X35345Y21140D01*
X35345Y21319D01*
X35465Y21439D01*
X35549Y21641D01*
X35549Y21859D01*
X35465Y22061D01*
X35311Y22215D01*
X35109Y22299D01*
X34891Y22299D01*
X34689Y22215D01*
X34535Y22061D01*
X34500Y21977D01*
X34465Y22061D01*
X34311Y22215D01*
X34109Y22299D01*
X33891Y22299D01*
X33689Y22215D01*
X33535Y22061D01*
X33500Y21977D01*
X33465Y22061D01*
X33311Y22215D01*
X33109Y22299D01*
X32891Y22299D01*
X32689Y22215D01*
X32549Y22075D01*
X32549Y22099D01*
X32511Y22191D01*
X32441Y22261D01*
X32350Y22299D01*
X32251Y22299D01*
X31651Y22299D01*
X31559Y22261D01*
X31489Y22191D01*
X31451Y22100D01*
X31451Y22001D01*
X31451Y21401D01*
X31489Y21309D01*
X31559Y21239D01*
X31650Y21201D01*
X31655Y21201D01*
X31655Y21103D01*
X31552Y21000D01*
X30019Y21000D01*
X30019Y21426D01*
X30008Y21630D01*
X29952Y21767D01*
X29861Y21790D01*
X29790Y21719D01*
X29790Y21861D01*
X29767Y21952D01*
X29574Y22019D01*
X29370Y22008D01*
X29233Y21952D01*
X29210Y21861D01*
X29500Y21571D01*
X29790Y21861D01*
X29790Y21719D01*
X29571Y21500D01*
X29861Y21210D01*
X29952Y21233D01*
X30019Y21426D01*
X30019Y21000D01*
X29882Y21000D01*
X29825Y21024D01*
X29726Y21024D01*
X29708Y21024D01*
X29767Y21048D01*
X29790Y21139D01*
X29500Y21429D01*
X29429Y21358D01*
X29429Y21500D01*
X29139Y21790D01*
X29048Y21767D01*
X28981Y21574D01*
X28992Y21370D01*
X29048Y21233D01*
X29139Y21210D01*
X29429Y21500D01*
X29429Y21358D01*
X29210Y21139D01*
X29233Y21048D01*
X29302Y21024D01*
X29176Y21024D01*
X29117Y21000D01*
X27738Y21000D01*
X27939Y21201D01*
X28109Y21201D01*
X28311Y21285D01*
X28465Y21439D01*
X28549Y21641D01*
X28549Y21859D01*
X28465Y22061D01*
X28311Y22215D01*
X28109Y22299D01*
X27891Y22299D01*
X27689Y22215D01*
X27535Y22061D01*
X27500Y21977D01*
X27465Y22061D01*
X27311Y22215D01*
X27109Y22299D01*
X26891Y22299D01*
X26689Y22215D01*
X26535Y22061D01*
X26500Y21977D01*
X26465Y22061D01*
X26311Y22215D01*
X26109Y22299D01*
X25891Y22299D01*
X25689Y22215D01*
X25549Y22075D01*
X25549Y22099D01*
X25511Y22191D01*
X25441Y22261D01*
X25350Y22299D01*
X25251Y22299D01*
X24689Y22299D01*
X24284Y22704D01*
X24172Y22779D01*
X24040Y22805D01*
X21210Y22805D01*
X21078Y22779D01*
X20966Y22704D01*
X20561Y22299D01*
X20151Y22299D01*
X20059Y22261D01*
X19989Y22191D01*
X19951Y22100D01*
X19951Y22001D01*
X19951Y21671D01*
X19786Y21836D01*
X19632Y21939D01*
X19450Y21975D01*
X19307Y21948D01*
X19306Y21947D01*
X19270Y21940D01*
X19267Y21952D01*
X19074Y22019D01*
X18870Y22008D01*
X18733Y21952D01*
X18710Y21861D01*
X18965Y21606D01*
X18990Y21581D01*
X18975Y21500D01*
X18990Y21420D01*
X18929Y21359D01*
X18929Y21500D01*
X18639Y21790D01*
X18548Y21767D01*
X18481Y21574D01*
X18492Y21370D01*
X18548Y21233D01*
X18639Y21210D01*
X18929Y21500D01*
X18929Y21359D01*
X18710Y21139D01*
X18733Y21048D01*
X18802Y21024D01*
X18676Y21024D01*
X18617Y21000D01*
X17845Y21000D01*
X17845Y21319D01*
X17965Y21439D01*
X18049Y21641D01*
X18049Y21859D01*
X17965Y22061D01*
X17811Y22215D01*
X17609Y22299D01*
X17391Y22299D01*
X17189Y22215D01*
X17035Y22061D01*
X17000Y21977D01*
X16965Y22061D01*
X16811Y22215D01*
X16609Y22299D01*
X16391Y22299D01*
X16189Y22215D01*
X16035Y22061D01*
X16000Y21977D01*
X15965Y22061D01*
X15811Y22215D01*
X15609Y22299D01*
X15391Y22299D01*
X15189Y22215D01*
X15049Y22075D01*
X15049Y22099D01*
X15011Y22191D01*
X14941Y22261D01*
X14850Y22299D01*
X14751Y22299D01*
X14151Y22299D01*
X14059Y22261D01*
X13989Y22191D01*
X13951Y22100D01*
X13951Y22001D01*
X13951Y21401D01*
X13989Y21309D01*
X14059Y21239D01*
X14150Y21201D01*
X14155Y21201D01*
X14155Y21000D01*
X13822Y21000D01*
X12986Y21836D01*
X12832Y21939D01*
X12650Y21975D01*
X12468Y21939D01*
X12376Y21879D01*
X12307Y21948D01*
X12275Y21917D01*
X12267Y21952D01*
X12074Y22019D01*
X11870Y22008D01*
X11733Y21952D01*
X11710Y21861D01*
X11965Y21606D01*
X12000Y21571D01*
X12071Y21500D01*
X12000Y21429D01*
X11965Y21394D01*
X11929Y21358D01*
X11929Y21500D01*
X11639Y21790D01*
X11548Y21767D01*
X11481Y21574D01*
X11492Y21370D01*
X11548Y21233D01*
X11639Y21210D01*
X11929Y21500D01*
X11929Y21358D01*
X11710Y21139D01*
X11733Y21048D01*
X11802Y21024D01*
X11676Y21024D01*
X11617Y21000D01*
X09845Y21000D01*
X09845Y21319D01*
X09965Y21439D01*
X10049Y21641D01*
X10049Y21859D01*
X09965Y22061D01*
X09811Y22215D01*
X09609Y22299D01*
X09391Y22299D01*
X09189Y22215D01*
X09035Y22061D01*
X09000Y21977D01*
X08965Y22061D01*
X08811Y22215D01*
X08609Y22299D01*
X08391Y22299D01*
X08189Y22215D01*
X08035Y22061D01*
X08000Y21977D01*
X07965Y22061D01*
X07811Y22215D01*
X07609Y22299D01*
X07391Y22299D01*
X07189Y22215D01*
X07049Y22075D01*
X07049Y22099D01*
X07011Y22191D01*
X06941Y22261D01*
X06850Y22299D01*
X06751Y22299D01*
X06151Y22299D01*
X06059Y22261D01*
X05989Y22191D01*
X05951Y22100D01*
X05951Y22001D01*
X05951Y21401D01*
X05989Y21309D01*
X06059Y21239D01*
X06150Y21201D01*
X06155Y21201D01*
X06155Y21000D01*
X05975Y21000D01*
X05975Y21150D01*
X05974Y21151D01*
X05939Y21332D01*
X05836Y21486D01*
X05835Y21487D01*
X05486Y21836D01*
X05332Y21939D01*
X05150Y21975D01*
X04968Y21939D01*
X04876Y21879D01*
X04807Y21948D01*
X04775Y21917D01*
X04767Y21952D01*
X04574Y22019D01*
X04370Y22008D01*
X04233Y21952D01*
X04210Y21861D01*
X04465Y21606D01*
X04500Y21571D01*
X04571Y21500D01*
X04500Y21429D01*
X04465Y21394D01*
X04429Y21358D01*
X04429Y21500D01*
X04139Y21790D01*
X04048Y21767D01*
X03981Y21574D01*
X03992Y21370D01*
X04048Y21233D01*
X04139Y21210D01*
X04429Y21500D01*
X04429Y21358D01*
X04210Y21139D01*
X04233Y21048D01*
X04302Y21024D01*
X04176Y21024D01*
X04084Y20986D01*
X04014Y20916D01*
X03976Y20825D01*
X03976Y20726D01*
X03976Y20176D01*
X04014Y20084D01*
X04084Y20014D01*
X04150Y19987D01*
X04150Y19799D01*
X04059Y19761D01*
X03989Y19691D01*
X03951Y19600D01*
X03951Y19501D01*
X03951Y18901D01*
X03989Y18809D01*
X04059Y18739D01*
X04150Y18701D01*
X04150Y14799D01*
X04059Y14761D01*
X03989Y14691D01*
X03951Y14600D01*
X03951Y14501D01*
X03951Y13901D01*
X03989Y13809D01*
X04048Y13750D01*
X03989Y13691D01*
X03951Y13600D01*
X03951Y13501D01*
X03951Y12901D01*
X03989Y12809D01*
X04059Y12739D01*
X04150Y12701D01*
X04150Y12100D01*
X08806Y12100D01*
X08806Y12099D01*
X08801Y12099D01*
X08101Y12099D01*
X08009Y12061D01*
X07939Y11991D01*
X07901Y11900D01*
X07901Y11801D01*
X07901Y11101D01*
X07939Y11009D01*
X08009Y10939D01*
X08100Y10901D01*
X08199Y10901D01*
X08806Y10901D01*
X08806Y10015D01*
X08591Y10093D01*
X08356Y10082D01*
X08190Y10013D01*
X08157Y09914D01*
X08465Y09606D01*
X08500Y09571D01*
X08571Y09500D01*
X08500Y09429D01*
X08465Y09394D01*
X08429Y09358D01*
X08429Y09500D01*
X08086Y09843D01*
X07987Y09810D01*
X07907Y09591D01*
X07918Y09356D01*
X07987Y09190D01*
X08086Y09157D01*
X08429Y09500D01*
X08429Y09358D01*
X08157Y09086D01*
X08190Y08987D01*
X08212Y08979D01*
X07997Y08763D01*
X07930Y08763D01*
X07903Y08790D01*
X07765Y08848D01*
X07616Y08848D01*
X07478Y08791D01*
X07373Y08686D01*
X07315Y08548D01*
X07315Y08532D01*
X06831Y08532D01*
X05908Y09455D01*
X05849Y09495D01*
X05849Y09649D01*
X05811Y09741D01*
X05741Y09811D01*
X05682Y09836D01*
X05758Y09911D01*
X05849Y10131D01*
X05849Y10369D01*
X05843Y10384D01*
X05843Y11159D01*
X05832Y11394D01*
X05763Y11560D01*
X05664Y11593D01*
X05593Y11522D01*
X05593Y11664D01*
X05560Y11763D01*
X05341Y11843D01*
X05106Y11832D01*
X04940Y11763D01*
X04907Y11664D01*
X05250Y11321D01*
X05593Y11664D01*
X05593Y11522D01*
X05321Y11250D01*
X05664Y10907D01*
X05763Y10940D01*
X05843Y11159D01*
X05843Y10384D01*
X05758Y10589D01*
X05589Y10758D01*
X05569Y10766D01*
X05593Y10836D01*
X05250Y11179D01*
X05179Y11108D01*
X05179Y11250D01*
X04836Y11593D01*
X04737Y11560D01*
X04657Y11341D01*
X04668Y11106D01*
X04737Y10940D01*
X04836Y10907D01*
X05179Y11250D01*
X05179Y11108D01*
X04907Y10836D01*
X04930Y10766D01*
X04911Y10758D01*
X04742Y10589D01*
X04651Y10369D01*
X04651Y10131D01*
X04742Y09911D01*
X04817Y09836D01*
X04759Y09811D01*
X04689Y09741D01*
X04651Y09650D01*
X04651Y09551D01*
X04651Y08851D01*
X04689Y08759D01*
X04759Y08689D01*
X04850Y08651D01*
X04949Y08651D01*
X05649Y08651D01*
X05741Y08689D01*
X05797Y08746D01*
X06506Y08037D01*
X06600Y07974D01*
X06711Y07952D01*
X08294Y07952D01*
X08321Y07925D01*
X08459Y07867D01*
X08608Y07867D01*
X08746Y07924D01*
X08851Y08029D01*
X08909Y08167D01*
X08909Y08316D01*
X08852Y08454D01*
X08747Y08559D01*
X08652Y08599D01*
X08950Y08896D01*
X08950Y05790D01*
X07805Y06935D01*
X07805Y06974D01*
X07748Y07112D01*
X07643Y07217D01*
X07505Y07275D01*
X07356Y07275D01*
X07218Y07218D01*
X07113Y07113D01*
X07055Y06975D01*
X07055Y06826D01*
X07112Y06688D01*
X07217Y06583D01*
X07355Y06525D01*
X07395Y06525D01*
X08894Y05026D01*
X08929Y04941D01*
X08950Y04921D01*
X08950Y00325D01*
X07407Y00325D01*
X08087Y00753D01*
X08117Y00782D01*
X08148Y00802D01*
X08162Y00825D01*
X08185Y00845D01*
X08201Y00882D01*
X08223Y00914D01*
X08228Y00944D01*
X08240Y00969D01*
X08241Y01006D01*
X08249Y01046D01*
X08249Y04943D01*
X08244Y04966D01*
X08246Y04987D01*
X08231Y05031D01*
X08223Y05075D01*
X08211Y05093D01*
X08204Y05115D01*
X08170Y05154D01*
X08148Y05187D01*
X08131Y05198D01*
X08115Y05217D01*
X07368Y05794D01*
X07348Y05844D01*
X07239Y05952D01*
X07098Y06011D01*
X06945Y06011D01*
X06803Y05953D01*
X06695Y05844D01*
X06636Y05703D01*
X06636Y05550D01*
X06694Y05408D01*
X06803Y05300D01*
X06944Y05241D01*
X06955Y05241D01*
X07559Y04775D01*
X07559Y02049D01*
X07501Y02049D01*
X06901Y02049D01*
X06809Y02011D01*
X06739Y01941D01*
X06701Y01850D01*
X06701Y01825D01*
X06561Y01965D01*
X06359Y02049D01*
X06141Y02049D01*
X05939Y01965D01*
X05849Y01875D01*
X05849Y04350D01*
X05849Y04449D01*
X05849Y05149D01*
X05811Y05241D01*
X05741Y05311D01*
X05682Y05336D01*
X05758Y05411D01*
X05849Y05631D01*
X05849Y05869D01*
X05843Y05884D01*
X05843Y06659D01*
X05832Y06894D01*
X05763Y07060D01*
X05664Y07093D01*
X05593Y07022D01*
X05593Y07164D01*
X05560Y07263D01*
X05341Y07343D01*
X05106Y07332D01*
X04940Y07263D01*
X04907Y07164D01*
X05250Y06821D01*
X05593Y07164D01*
X05593Y07022D01*
X05321Y06750D01*
X05664Y06407D01*
X05763Y06440D01*
X05843Y06659D01*
X05843Y05884D01*
X05758Y06089D01*
X05589Y06258D01*
X05569Y06266D01*
X05593Y06336D01*
X05250Y06679D01*
X05179Y06608D01*
X05179Y06750D01*
X04836Y07093D01*
X04737Y07060D01*
X04657Y06841D01*
X04668Y06606D01*
X04737Y06440D01*
X04836Y06407D01*
X05179Y06750D01*
X05179Y06608D01*
X04907Y06336D01*
X04930Y06266D01*
X04911Y06258D01*
X04742Y06089D01*
X04651Y05869D01*
X04651Y05631D01*
X04742Y05411D01*
X04817Y05336D01*
X04759Y05311D01*
X04689Y05241D01*
X04651Y05150D01*
X04651Y05051D01*
X04651Y04351D01*
X04689Y04259D01*
X04759Y04189D01*
X04850Y04151D01*
X04949Y04151D01*
X05649Y04151D01*
X05741Y04189D01*
X05811Y04259D01*
X05849Y04350D01*
X05849Y01875D01*
X05785Y01811D01*
X05701Y01609D01*
X05701Y01391D01*
X05785Y01189D01*
X05939Y01035D01*
X06141Y00951D01*
X06359Y00951D01*
X06561Y01035D01*
X06701Y01175D01*
X06701Y01151D01*
X06739Y01059D01*
X06809Y00989D01*
X06900Y00951D01*
X06999Y00951D01*
X07106Y00951D01*
X06992Y00879D01*
X05109Y00879D01*
X05037Y00951D01*
X05349Y00951D01*
X05441Y00989D01*
X05511Y01059D01*
X05549Y01150D01*
X05549Y01249D01*
X05549Y01849D01*
X05511Y01941D01*
X05441Y02011D01*
X05350Y02049D01*
X05251Y02049D01*
X04651Y02049D01*
X04559Y02011D01*
X04489Y01941D01*
X04451Y01850D01*
X04451Y01825D01*
X04311Y01965D01*
X04109Y02049D01*
X03891Y02049D01*
X03689Y01965D01*
X03574Y01850D01*
X03574Y17276D01*
X03574Y17571D01*
X03574Y18928D01*
X03574Y19223D01*
X03461Y19496D01*
X03253Y19705D01*
X02980Y19818D01*
X02685Y19818D01*
X02636Y19798D01*
X02636Y22023D01*
X02636Y22475D01*
X02463Y22893D01*
X02144Y23212D01*
X01727Y23386D01*
X01275Y23386D01*
X00857Y23213D01*
X00538Y22894D01*
X00364Y22477D01*
X00364Y22025D01*
X00537Y21607D01*
X00856Y21288D01*
X01273Y21114D01*
X01725Y21114D01*
X02143Y21287D01*
X02462Y21606D01*
X02636Y22023D01*
X02636Y19798D01*
X02412Y19705D01*
X02203Y19497D01*
X02090Y19224D01*
X02090Y18929D01*
X02203Y18656D01*
X02411Y18447D01*
X02684Y18334D01*
X02979Y18334D01*
X03252Y18447D01*
X03461Y18655D01*
X03574Y18928D01*
X03574Y17571D01*
X03461Y17844D01*
X03253Y18053D01*
X02980Y18166D01*
X02685Y18166D01*
X02412Y18053D01*
X02203Y17845D01*
X02090Y17572D01*
X02090Y17277D01*
X02203Y17004D01*
X02411Y16795D01*
X02684Y16682D01*
X02979Y16682D01*
X03252Y16795D01*
X03461Y17003D01*
X03574Y17276D01*
X03574Y01850D01*
X03535Y01811D01*
X03451Y01609D01*
X03451Y01391D01*
X03535Y01189D01*
X03689Y01035D01*
X03891Y00951D01*
X04061Y00951D01*
X04687Y00325D01*
X03049Y00325D01*
X03049Y08150D01*
X03049Y08249D01*
X03049Y08849D01*
X03011Y08941D01*
X02941Y09011D01*
X02850Y09049D01*
X02825Y09049D01*
X02965Y09189D01*
X03049Y09391D01*
X03049Y09609D01*
X02965Y09811D01*
X02811Y09965D01*
X02609Y10049D01*
X02391Y10049D01*
X02189Y09965D01*
X02143Y09919D01*
X02143Y10127D01*
X02143Y13871D01*
X02143Y14127D01*
X02045Y14363D01*
X01865Y14544D01*
X01629Y14643D01*
X01399Y14643D01*
X01399Y17300D01*
X01399Y18952D01*
X01391Y19241D01*
X01296Y19471D01*
X01183Y19520D01*
X00739Y19076D01*
X01183Y18632D01*
X01296Y18681D01*
X01399Y18952D01*
X01399Y17300D01*
X01391Y17589D01*
X01296Y17819D01*
X01183Y17868D01*
X00739Y17424D01*
X01183Y16980D01*
X01296Y17029D01*
X01399Y17300D01*
X01399Y14643D01*
X01373Y14643D01*
X01137Y14545D01*
X00956Y14365D01*
X00857Y14129D01*
X00857Y13873D01*
X00955Y13637D01*
X01135Y13456D01*
X01371Y13357D01*
X01627Y13357D01*
X01863Y13455D01*
X02044Y13635D01*
X02143Y13871D01*
X02143Y10127D01*
X02135Y10147D01*
X02135Y11900D01*
X02125Y12150D01*
X02048Y12336D01*
X01944Y12373D01*
X01873Y12302D01*
X01873Y12444D01*
X01836Y12548D01*
X01600Y12635D01*
X01350Y12625D01*
X01164Y12548D01*
X01127Y12444D01*
X01500Y12071D01*
X01873Y12444D01*
X01873Y12302D01*
X01571Y12000D01*
X01944Y11627D01*
X02048Y11664D01*
X02135Y11900D01*
X02135Y10147D01*
X02045Y10363D01*
X01873Y10536D01*
X01873Y11556D01*
X01500Y11929D01*
X01429Y11858D01*
X01429Y12000D01*
X01056Y12373D01*
X00952Y12336D01*
X00865Y12100D01*
X00875Y11850D01*
X00952Y11664D01*
X01056Y11627D01*
X01429Y12000D01*
X01429Y11858D01*
X01127Y11556D01*
X01164Y11452D01*
X01400Y11365D01*
X01650Y11375D01*
X01836Y11452D01*
X01873Y11556D01*
X01873Y10536D01*
X01865Y10544D01*
X01629Y10643D01*
X01373Y10643D01*
X01137Y10545D01*
X00956Y10365D01*
X00857Y10129D01*
X00857Y09873D01*
X00955Y09637D01*
X01135Y09456D01*
X01371Y09357D01*
X01627Y09357D01*
X01863Y09455D01*
X01951Y09543D01*
X01951Y09391D01*
X02035Y09189D01*
X02175Y09049D01*
X02151Y09049D01*
X02059Y09011D01*
X01989Y08941D01*
X01951Y08850D01*
X01951Y08751D01*
X01951Y08458D01*
X01865Y08544D01*
X01629Y08643D01*
X01373Y08643D01*
X01137Y08545D01*
X00956Y08365D01*
X00857Y08129D01*
X00857Y07873D01*
X00955Y07637D01*
X01135Y07456D01*
X01371Y07357D01*
X01627Y07357D01*
X01863Y07455D01*
X02044Y07635D01*
X02143Y07871D01*
X02143Y07954D01*
X02150Y07951D01*
X02249Y07951D01*
X02849Y07951D01*
X02941Y07989D01*
X03011Y08059D01*
X03049Y08150D01*
X03049Y00325D01*
X02636Y00325D01*
X02636Y01273D01*
X02636Y01725D01*
X02463Y02143D01*
X02144Y02462D01*
X02143Y02463D01*
X02143Y03871D01*
X02143Y04127D01*
X02143Y05871D01*
X02143Y06127D01*
X02045Y06363D01*
X01865Y06544D01*
X01629Y06643D01*
X01373Y06643D01*
X01137Y06545D01*
X00956Y06365D01*
X00857Y06129D01*
X00857Y05873D01*
X00955Y05637D01*
X01135Y05456D01*
X01371Y05357D01*
X01627Y05357D01*
X01863Y05455D01*
X02044Y05635D01*
X02143Y05871D01*
X02143Y04127D01*
X02045Y04363D01*
X01865Y04544D01*
X01629Y04643D01*
X01373Y04643D01*
X01137Y04545D01*
X00956Y04365D01*
X00857Y04129D01*
X00857Y03873D01*
X00955Y03637D01*
X01135Y03456D01*
X01371Y03357D01*
X01627Y03357D01*
X01863Y03455D01*
X02044Y03635D01*
X02143Y03871D01*
X02143Y02463D01*
X01727Y02636D01*
X01275Y02636D01*
X00857Y02463D01*
X00538Y02144D01*
X00364Y01727D01*
X00364Y01275D01*
X00537Y00857D01*
X00856Y00538D01*
X01273Y00364D01*
X01725Y00364D01*
X02143Y00537D01*
X02462Y00856D01*
X02636Y01273D01*
X02636Y00325D01*
X00325Y00325D01*
X00325Y04250D01*
X00325Y16777D01*
X00544Y16693D01*
X00833Y16701D01*
X01063Y16796D01*
X01112Y16909D01*
X00703Y17318D01*
X00668Y17353D01*
X00597Y17424D01*
X00668Y17495D01*
X00703Y17530D01*
X01112Y17939D01*
X01063Y18052D01*
X00792Y18155D01*
X00503Y18147D01*
X00325Y18074D01*
X00325Y18429D01*
X00544Y18345D01*
X00833Y18353D01*
X01063Y18448D01*
X01112Y18561D01*
X00703Y18970D01*
X00668Y19005D01*
X00597Y19076D01*
X00668Y19147D01*
X00703Y19182D01*
X01112Y19591D01*
X01063Y19704D01*
X00792Y19807D01*
X00503Y19799D01*
X00325Y19726D01*
X00325Y23425D01*
X36350Y23425D01*
X36350Y21000D01*
G54D10*
G36*
X37864Y17649D02*
X37401Y17649D01*
X37312Y17613D01*
X37397Y17697D01*
X37455Y17835D01*
X37455Y17984D01*
X37400Y18118D01*
X37400Y18490D01*
X37619Y18710D01*
X37641Y18701D01*
X37859Y18701D01*
X37864Y18704D01*
X37864Y17649D01*
X37864Y17649D01*
G37*
G54D37*
X37864Y17649D02*
X37401Y17649D01*
X37312Y17613D01*
X37397Y17697D01*
X37455Y17835D01*
X37455Y17984D01*
X37400Y18118D01*
X37400Y18490D01*
X37619Y18710D01*
X37641Y18701D01*
X37859Y18701D01*
X37864Y18704D01*
X37864Y17649D01*
G54D10*
G36*
X38675Y12200D02*
X38444Y12200D01*
X38444Y13354D01*
X38444Y15696D01*
X38422Y15807D01*
X38359Y15901D01*
X38290Y15970D01*
X38299Y15991D01*
X38299Y16209D01*
X38290Y16231D01*
X38359Y16299D01*
X38422Y16393D01*
X38444Y16504D01*
X38444Y18846D01*
X38422Y18957D01*
X38359Y19051D01*
X38290Y19120D01*
X38299Y19141D01*
X38299Y19359D01*
X38215Y19561D01*
X38075Y19701D01*
X38099Y19701D01*
X38191Y19739D01*
X38261Y19809D01*
X38299Y19900D01*
X38299Y19999D01*
X38299Y20599D01*
X38261Y20691D01*
X38191Y20761D01*
X38100Y20799D01*
X38001Y20799D01*
X37401Y20799D01*
X37309Y20761D01*
X37239Y20691D01*
X37201Y20600D01*
X37201Y20501D01*
X37201Y19901D01*
X37239Y19809D01*
X37309Y19739D01*
X37400Y19701D01*
X37425Y19701D01*
X37285Y19561D01*
X37201Y19359D01*
X37201Y19141D01*
X37209Y19120D01*
X36905Y18815D01*
X36842Y18721D01*
X36820Y18610D01*
X36820Y18180D01*
X36763Y18123D01*
X36705Y17985D01*
X36705Y17836D01*
X36762Y17698D01*
X36867Y17593D01*
X37005Y17535D01*
X37154Y17535D01*
X37288Y17591D01*
X37239Y17541D01*
X37201Y17450D01*
X37201Y17351D01*
X37201Y16751D01*
X37239Y16659D01*
X37309Y16589D01*
X37400Y16551D01*
X37425Y16551D01*
X37285Y16411D01*
X37201Y16209D01*
X37201Y15991D01*
X37285Y15789D01*
X37439Y15635D01*
X37641Y15551D01*
X37859Y15551D01*
X37864Y15554D01*
X37864Y14499D01*
X37401Y14499D01*
X37309Y14461D01*
X37239Y14391D01*
X37201Y14300D01*
X37201Y14201D01*
X37201Y13601D01*
X37239Y13509D01*
X37309Y13439D01*
X37400Y13401D01*
X37425Y13401D01*
X37285Y13261D01*
X37201Y13059D01*
X37201Y12841D01*
X37285Y12639D01*
X37439Y12485D01*
X37641Y12401D01*
X37859Y12401D01*
X38061Y12485D01*
X38215Y12639D01*
X38299Y12841D01*
X38299Y13059D01*
X38290Y13081D01*
X38359Y13149D01*
X38422Y13243D01*
X38444Y13354D01*
X38444Y12200D01*
X35944Y12200D01*
X35944Y13918D01*
X35965Y13939D01*
X36049Y14141D01*
X36049Y14359D01*
X35965Y14561D01*
X35811Y14715D01*
X35609Y14799D01*
X35420Y14799D01*
X35452Y14831D01*
X35525Y15005D01*
X35525Y15194D01*
X35453Y15369D01*
X35319Y15502D01*
X35145Y15575D01*
X34956Y15575D01*
X34781Y15503D01*
X34648Y15369D01*
X34575Y15195D01*
X34575Y15143D01*
X34500Y15157D01*
X34117Y15157D01*
X34006Y15135D01*
X33912Y15072D01*
X33630Y14791D01*
X33609Y14799D01*
X33391Y14799D01*
X33189Y14715D01*
X33035Y14561D01*
X33000Y14477D01*
X32965Y14561D01*
X32811Y14715D01*
X32609Y14799D01*
X32391Y14799D01*
X32189Y14715D01*
X32035Y14561D01*
X32000Y14477D01*
X31965Y14561D01*
X31811Y14715D01*
X31609Y14799D01*
X31391Y14799D01*
X31189Y14715D01*
X31035Y14561D01*
X31000Y14477D01*
X30965Y14561D01*
X30811Y14715D01*
X30609Y14799D01*
X30391Y14799D01*
X30189Y14715D01*
X30035Y14561D01*
X30000Y14477D01*
X29965Y14561D01*
X29811Y14715D01*
X29609Y14799D01*
X29391Y14799D01*
X29325Y14772D01*
X29301Y14808D01*
X29300Y14809D01*
X28787Y15322D01*
X28693Y15385D01*
X28582Y15407D01*
X27885Y15407D01*
X27885Y15414D01*
X27828Y15552D01*
X27723Y15657D01*
X27585Y15715D01*
X27436Y15715D01*
X27298Y15658D01*
X27194Y15555D01*
X27145Y15575D01*
X26956Y15575D01*
X26781Y15503D01*
X26648Y15369D01*
X26575Y15195D01*
X26575Y15006D01*
X26647Y14831D01*
X26729Y14749D01*
X26609Y14799D01*
X26391Y14799D01*
X26189Y14715D01*
X26035Y14561D01*
X26000Y14477D01*
X25965Y14561D01*
X25811Y14715D01*
X25609Y14799D01*
X25391Y14799D01*
X25189Y14715D01*
X25156Y14683D01*
X25127Y14727D01*
X24989Y14865D01*
X24895Y14928D01*
X24784Y14950D01*
X23910Y14950D01*
X23799Y14928D01*
X23705Y14865D01*
X23704Y14865D01*
X23704Y14864D01*
X23630Y14791D01*
X23609Y14799D01*
X23391Y14799D01*
X23193Y14717D01*
X23188Y14743D01*
X23125Y14837D01*
X23103Y14859D01*
X23009Y14922D01*
X22898Y14944D01*
X21117Y14944D01*
X21077Y14961D01*
X20924Y14961D01*
X20782Y14903D01*
X20678Y14799D01*
X20151Y14799D01*
X20059Y14761D01*
X19989Y14691D01*
X19951Y14600D01*
X19951Y14575D01*
X19811Y14715D01*
X19609Y14799D01*
X19420Y14799D01*
X19452Y14831D01*
X19525Y15005D01*
X19525Y15194D01*
X19453Y15369D01*
X19319Y15502D01*
X19145Y15575D01*
X18956Y15575D01*
X18781Y15503D01*
X18648Y15369D01*
X18575Y15195D01*
X18575Y15006D01*
X18647Y14831D01*
X18729Y14749D01*
X18609Y14799D01*
X18391Y14799D01*
X18189Y14715D01*
X18035Y14561D01*
X18000Y14477D01*
X17965Y14561D01*
X17811Y14715D01*
X17609Y14799D01*
X17391Y14799D01*
X17189Y14715D01*
X17035Y14561D01*
X17000Y14477D01*
X16965Y14561D01*
X16811Y14715D01*
X16609Y14799D01*
X16391Y14799D01*
X16189Y14715D01*
X16035Y14561D01*
X16000Y14477D01*
X15965Y14561D01*
X15811Y14715D01*
X15609Y14799D01*
X15391Y14799D01*
X15189Y14715D01*
X15035Y14561D01*
X15000Y14477D01*
X14965Y14561D01*
X14811Y14715D01*
X14609Y14799D01*
X14391Y14799D01*
X14189Y14715D01*
X14035Y14561D01*
X14000Y14477D01*
X13965Y14561D01*
X13811Y14715D01*
X13609Y14799D01*
X13391Y14799D01*
X13189Y14715D01*
X13049Y14575D01*
X13049Y14599D01*
X13011Y14691D01*
X12941Y14761D01*
X12850Y14799D01*
X12751Y14799D01*
X12151Y14799D01*
X12059Y14761D01*
X11989Y14691D01*
X11951Y14600D01*
X11951Y14575D01*
X11811Y14715D01*
X11609Y14799D01*
X11420Y14799D01*
X11452Y14831D01*
X11525Y15005D01*
X11525Y15194D01*
X11453Y15369D01*
X11319Y15502D01*
X11145Y15575D01*
X10956Y15575D01*
X10781Y15503D01*
X10648Y15369D01*
X10575Y15195D01*
X10575Y15006D01*
X10647Y14831D01*
X10729Y14749D01*
X10609Y14799D01*
X10391Y14799D01*
X10189Y14715D01*
X10035Y14561D01*
X10000Y14477D01*
X09965Y14561D01*
X09811Y14715D01*
X09609Y14799D01*
X09391Y14799D01*
X09189Y14715D01*
X09035Y14561D01*
X09000Y14477D01*
X08965Y14561D01*
X08811Y14715D01*
X08609Y14799D01*
X08391Y14799D01*
X08189Y14715D01*
X08035Y14561D01*
X08000Y14477D01*
X07965Y14561D01*
X07811Y14715D01*
X07609Y14799D01*
X07391Y14799D01*
X07189Y14715D01*
X07035Y14561D01*
X07000Y14477D01*
X06965Y14561D01*
X06811Y14715D01*
X06609Y14799D01*
X06391Y14799D01*
X06189Y14715D01*
X06035Y14561D01*
X06000Y14477D01*
X05965Y14561D01*
X05811Y14715D01*
X05609Y14799D01*
X05391Y14799D01*
X05189Y14715D01*
X05049Y14575D01*
X05049Y14599D01*
X05011Y14691D01*
X04941Y14761D01*
X04850Y14799D01*
X04751Y14799D01*
X04250Y14799D01*
X04250Y18065D01*
X04256Y18056D01*
X04455Y17857D01*
X04456Y17856D01*
X04567Y17782D01*
X04568Y17781D01*
X04699Y17756D01*
X04700Y17755D01*
X05527Y17755D01*
X05623Y17715D01*
X05776Y17715D01*
X05824Y17735D01*
X07183Y17735D01*
X07255Y17705D01*
X07404Y17705D01*
X07476Y17735D01*
X08523Y17735D01*
X08595Y17705D01*
X08744Y17705D01*
X08816Y17735D01*
X09675Y17735D01*
X09723Y17715D01*
X09876Y17715D01*
X10018Y17773D01*
X10126Y17882D01*
X10185Y18023D01*
X10185Y18176D01*
X10127Y18318D01*
X10018Y18426D01*
X09877Y18485D01*
X09724Y18485D01*
X09582Y18427D01*
X09580Y18425D01*
X08816Y18425D01*
X08745Y18455D01*
X08596Y18455D01*
X08523Y18425D01*
X07476Y18425D01*
X07405Y18455D01*
X07256Y18455D01*
X07183Y18425D01*
X05919Y18425D01*
X05918Y18426D01*
X05777Y18485D01*
X05624Y18485D01*
X05526Y18445D01*
X05224Y18445D01*
X05224Y18486D01*
X05439Y18701D01*
X05609Y18701D01*
X05811Y18785D01*
X05965Y18939D01*
X06000Y19024D01*
X06035Y18939D01*
X06189Y18785D01*
X06391Y18701D01*
X06609Y18701D01*
X06811Y18785D01*
X06965Y18939D01*
X07000Y19024D01*
X07035Y18939D01*
X07189Y18785D01*
X07391Y18701D01*
X07609Y18701D01*
X07811Y18785D01*
X07965Y18939D01*
X08000Y19024D01*
X08035Y18939D01*
X08189Y18785D01*
X08391Y18701D01*
X08609Y18701D01*
X08811Y18785D01*
X08965Y18939D01*
X09000Y19024D01*
X09035Y18939D01*
X09189Y18785D01*
X09391Y18701D01*
X09609Y18701D01*
X09811Y18785D01*
X09965Y18939D01*
X10000Y19024D01*
X10035Y18939D01*
X10189Y18785D01*
X10391Y18701D01*
X10609Y18701D01*
X10811Y18785D01*
X10965Y18939D01*
X11049Y19141D01*
X11049Y19359D01*
X10965Y19561D01*
X10811Y19715D01*
X10609Y19799D01*
X10391Y19799D01*
X10189Y19715D01*
X10035Y19561D01*
X10000Y19477D01*
X09965Y19561D01*
X09845Y19681D01*
X09845Y20900D01*
X11507Y20900D01*
X11476Y20825D01*
X11476Y20726D01*
X11476Y20176D01*
X11514Y20084D01*
X11584Y20014D01*
X11675Y19976D01*
X11774Y19976D01*
X12324Y19976D01*
X12416Y20014D01*
X12486Y20084D01*
X12524Y20175D01*
X12524Y20274D01*
X12524Y20824D01*
X12492Y20900D01*
X12578Y20900D01*
X13025Y20453D01*
X13025Y19658D01*
X13011Y19691D01*
X12941Y19761D01*
X12850Y19799D01*
X12751Y19799D01*
X12151Y19799D01*
X12059Y19761D01*
X11989Y19691D01*
X11951Y19600D01*
X11951Y19501D01*
X11951Y18901D01*
X11989Y18809D01*
X12059Y18739D01*
X12150Y18701D01*
X12155Y18701D01*
X12155Y18440D01*
X12181Y18308D01*
X12256Y18196D01*
X12595Y17857D01*
X12596Y17856D01*
X12707Y17782D01*
X12708Y17781D01*
X12839Y17756D01*
X12840Y17755D01*
X13527Y17755D01*
X13623Y17715D01*
X13776Y17715D01*
X13802Y17726D01*
X15154Y17742D01*
X15243Y17705D01*
X15396Y17705D01*
X15469Y17735D01*
X16523Y17735D01*
X16595Y17705D01*
X16744Y17705D01*
X16816Y17735D01*
X17597Y17735D01*
X17693Y17695D01*
X17846Y17695D01*
X17988Y17753D01*
X18096Y17862D01*
X18155Y18003D01*
X18155Y18156D01*
X18097Y18298D01*
X18074Y18321D01*
X18096Y18342D01*
X18155Y18483D01*
X18155Y18636D01*
X18097Y18778D01*
X17988Y18886D01*
X17934Y18909D01*
X17965Y18939D01*
X18000Y19024D01*
X18035Y18939D01*
X18189Y18785D01*
X18391Y18701D01*
X18609Y18701D01*
X18811Y18785D01*
X18965Y18939D01*
X19049Y19141D01*
X19049Y19359D01*
X18965Y19561D01*
X18811Y19715D01*
X18609Y19799D01*
X18391Y19799D01*
X18189Y19715D01*
X18035Y19561D01*
X18000Y19477D01*
X17965Y19561D01*
X17845Y19681D01*
X17845Y20900D01*
X18507Y20900D01*
X18476Y20825D01*
X18476Y20726D01*
X18476Y20176D01*
X18514Y20084D01*
X18584Y20014D01*
X18675Y19976D01*
X18774Y19976D01*
X19324Y19976D01*
X19416Y20014D01*
X19486Y20084D01*
X19524Y20175D01*
X19524Y20274D01*
X19524Y20754D01*
X20114Y20164D01*
X20268Y20061D01*
X20450Y20025D01*
X20703Y20025D01*
X21025Y19703D01*
X21025Y19658D01*
X21011Y19691D01*
X20941Y19761D01*
X20850Y19799D01*
X20751Y19799D01*
X20151Y19799D01*
X20059Y19761D01*
X19989Y19691D01*
X19951Y19600D01*
X19951Y19501D01*
X19951Y18901D01*
X19989Y18809D01*
X20059Y18739D01*
X20150Y18701D01*
X20172Y18701D01*
X20181Y18658D01*
X20256Y18546D01*
X20945Y17857D01*
X20946Y17856D01*
X21057Y17782D01*
X21058Y17781D01*
X21189Y17756D01*
X21190Y17755D01*
X21527Y17755D01*
X21623Y17715D01*
X21776Y17715D01*
X21873Y17755D01*
X23136Y17755D01*
X23255Y17705D01*
X23404Y17705D01*
X23476Y17735D01*
X24523Y17735D01*
X24595Y17705D01*
X24744Y17705D01*
X24816Y17735D01*
X25617Y17735D01*
X25713Y17695D01*
X25866Y17695D01*
X26008Y17753D01*
X26116Y17862D01*
X26175Y18003D01*
X26175Y18156D01*
X26117Y18298D01*
X26079Y18336D01*
X26101Y18357D01*
X26160Y18498D01*
X26160Y18651D01*
X26102Y18793D01*
X25993Y18901D01*
X25946Y18921D01*
X25965Y18939D01*
X26000Y19024D01*
X26035Y18939D01*
X26189Y18785D01*
X26391Y18701D01*
X26609Y18701D01*
X26811Y18785D01*
X26965Y18939D01*
X27049Y19141D01*
X27049Y19359D01*
X26965Y19561D01*
X26811Y19715D01*
X26609Y19799D01*
X26537Y19799D01*
X27638Y20900D01*
X29007Y20900D01*
X28976Y20825D01*
X28976Y20726D01*
X28976Y20176D01*
X29014Y20084D01*
X29084Y20014D01*
X29175Y19976D01*
X29274Y19976D01*
X29554Y19976D01*
X29367Y19790D01*
X29189Y19715D01*
X29049Y19575D01*
X29049Y19599D01*
X29011Y19691D01*
X28941Y19761D01*
X28850Y19799D01*
X28751Y19799D01*
X28151Y19799D01*
X28059Y19761D01*
X27989Y19691D01*
X27951Y19600D01*
X27951Y19501D01*
X27951Y18901D01*
X27989Y18809D01*
X28059Y18739D01*
X28150Y18701D01*
X28176Y18701D01*
X28181Y18678D01*
X28256Y18566D01*
X28966Y17856D01*
X29078Y17781D01*
X29210Y17755D01*
X29527Y17755D01*
X29623Y17715D01*
X29776Y17715D01*
X29873Y17755D01*
X31136Y17755D01*
X31255Y17705D01*
X31404Y17705D01*
X31476Y17735D01*
X32523Y17735D01*
X32595Y17705D01*
X32744Y17705D01*
X32816Y17735D01*
X33593Y17735D01*
X33665Y17705D01*
X33814Y17705D01*
X33952Y17762D01*
X34057Y17867D01*
X34115Y18005D01*
X34115Y18154D01*
X34058Y18292D01*
X34037Y18313D01*
X34086Y18362D01*
X34145Y18503D01*
X34145Y18656D01*
X34087Y18798D01*
X33978Y18906D01*
X33945Y18920D01*
X33965Y18939D01*
X34000Y19024D01*
X34035Y18939D01*
X34189Y18785D01*
X34391Y18701D01*
X34609Y18701D01*
X34811Y18785D01*
X34965Y18939D01*
X35049Y19141D01*
X35049Y19359D01*
X34965Y19561D01*
X34811Y19715D01*
X34609Y19799D01*
X34391Y19799D01*
X34189Y19715D01*
X34035Y19561D01*
X34000Y19477D01*
X33965Y19561D01*
X33937Y19589D01*
X35244Y20896D01*
X35246Y20900D01*
X38675Y20900D01*
X38675Y12200D01*
X38675Y12200D01*
G37*
G54D37*
X38675Y12200D02*
X38444Y12200D01*
X38444Y13354D01*
X38444Y15696D01*
X38422Y15807D01*
X38359Y15901D01*
X38290Y15970D01*
X38299Y15991D01*
X38299Y16209D01*
X38290Y16231D01*
X38359Y16299D01*
X38422Y16393D01*
X38444Y16504D01*
X38444Y18846D01*
X38422Y18957D01*
X38359Y19051D01*
X38290Y19120D01*
X38299Y19141D01*
X38299Y19359D01*
X38215Y19561D01*
X38075Y19701D01*
X38099Y19701D01*
X38191Y19739D01*
X38261Y19809D01*
X38299Y19900D01*
X38299Y19999D01*
X38299Y20599D01*
X38261Y20691D01*
X38191Y20761D01*
X38100Y20799D01*
X38001Y20799D01*
X37401Y20799D01*
X37309Y20761D01*
X37239Y20691D01*
X37201Y20600D01*
X37201Y20501D01*
X37201Y19901D01*
X37239Y19809D01*
X37309Y19739D01*
X37400Y19701D01*
X37425Y19701D01*
X37285Y19561D01*
X37201Y19359D01*
X37201Y19141D01*
X37209Y19120D01*
X36905Y18815D01*
X36842Y18721D01*
X36820Y18610D01*
X36820Y18180D01*
X36763Y18123D01*
X36705Y17985D01*
X36705Y17836D01*
X36762Y17698D01*
X36867Y17593D01*
X37005Y17535D01*
X37154Y17535D01*
X37288Y17591D01*
X37239Y17541D01*
X37201Y17450D01*
X37201Y17351D01*
X37201Y16751D01*
X37239Y16659D01*
X37309Y16589D01*
X37400Y16551D01*
X37425Y16551D01*
X37285Y16411D01*
X37201Y16209D01*
X37201Y15991D01*
X37285Y15789D01*
X37439Y15635D01*
X37641Y15551D01*
X37859Y15551D01*
X37864Y15554D01*
X37864Y14499D01*
X37401Y14499D01*
X37309Y14461D01*
X37239Y14391D01*
X37201Y14300D01*
X37201Y14201D01*
X37201Y13601D01*
X37239Y13509D01*
X37309Y13439D01*
X37400Y13401D01*
X37425Y13401D01*
X37285Y13261D01*
X37201Y13059D01*
X37201Y12841D01*
X37285Y12639D01*
X37439Y12485D01*
X37641Y12401D01*
X37859Y12401D01*
X38061Y12485D01*
X38215Y12639D01*
X38299Y12841D01*
X38299Y13059D01*
X38290Y13081D01*
X38359Y13149D01*
X38422Y13243D01*
X38444Y13354D01*
X38444Y12200D01*
X35944Y12200D01*
X35944Y13918D01*
X35965Y13939D01*
X36049Y14141D01*
X36049Y14359D01*
X35965Y14561D01*
X35811Y14715D01*
X35609Y14799D01*
X35420Y14799D01*
X35452Y14831D01*
X35525Y15005D01*
X35525Y15194D01*
X35453Y15369D01*
X35319Y15502D01*
X35145Y15575D01*
X34956Y15575D01*
X34781Y15503D01*
X34648Y15369D01*
X34575Y15195D01*
X34575Y15143D01*
X34500Y15157D01*
X34117Y15157D01*
X34006Y15135D01*
X33912Y15072D01*
X33630Y14791D01*
X33609Y14799D01*
X33391Y14799D01*
X33189Y14715D01*
X33035Y14561D01*
X33000Y14477D01*
X32965Y14561D01*
X32811Y14715D01*
X32609Y14799D01*
X32391Y14799D01*
X32189Y14715D01*
X32035Y14561D01*
X32000Y14477D01*
X31965Y14561D01*
X31811Y14715D01*
X31609Y14799D01*
X31391Y14799D01*
X31189Y14715D01*
X31035Y14561D01*
X31000Y14477D01*
X30965Y14561D01*
X30811Y14715D01*
X30609Y14799D01*
X30391Y14799D01*
X30189Y14715D01*
X30035Y14561D01*
X30000Y14477D01*
X29965Y14561D01*
X29811Y14715D01*
X29609Y14799D01*
X29391Y14799D01*
X29325Y14772D01*
X29301Y14808D01*
X29300Y14809D01*
X28787Y15322D01*
X28693Y15385D01*
X28582Y15407D01*
X27885Y15407D01*
X27885Y15414D01*
X27828Y15552D01*
X27723Y15657D01*
X27585Y15715D01*
X27436Y15715D01*
X27298Y15658D01*
X27194Y15555D01*
X27145Y15575D01*
X26956Y15575D01*
X26781Y15503D01*
X26648Y15369D01*
X26575Y15195D01*
X26575Y15006D01*
X26647Y14831D01*
X26729Y14749D01*
X26609Y14799D01*
X26391Y14799D01*
X26189Y14715D01*
X26035Y14561D01*
X26000Y14477D01*
X25965Y14561D01*
X25811Y14715D01*
X25609Y14799D01*
X25391Y14799D01*
X25189Y14715D01*
X25156Y14683D01*
X25127Y14727D01*
X24989Y14865D01*
X24895Y14928D01*
X24784Y14950D01*
X23910Y14950D01*
X23799Y14928D01*
X23705Y14865D01*
X23704Y14865D01*
X23704Y14864D01*
X23630Y14791D01*
X23609Y14799D01*
X23391Y14799D01*
X23193Y14717D01*
X23188Y14743D01*
X23125Y14837D01*
X23103Y14859D01*
X23009Y14922D01*
X22898Y14944D01*
X21117Y14944D01*
X21077Y14961D01*
X20924Y14961D01*
X20782Y14903D01*
X20678Y14799D01*
X20151Y14799D01*
X20059Y14761D01*
X19989Y14691D01*
X19951Y14600D01*
X19951Y14575D01*
X19811Y14715D01*
X19609Y14799D01*
X19420Y14799D01*
X19452Y14831D01*
X19525Y15005D01*
X19525Y15194D01*
X19453Y15369D01*
X19319Y15502D01*
X19145Y15575D01*
X18956Y15575D01*
X18781Y15503D01*
X18648Y15369D01*
X18575Y15195D01*
X18575Y15006D01*
X18647Y14831D01*
X18729Y14749D01*
X18609Y14799D01*
X18391Y14799D01*
X18189Y14715D01*
X18035Y14561D01*
X18000Y14477D01*
X17965Y14561D01*
X17811Y14715D01*
X17609Y14799D01*
X17391Y14799D01*
X17189Y14715D01*
X17035Y14561D01*
X17000Y14477D01*
X16965Y14561D01*
X16811Y14715D01*
X16609Y14799D01*
X16391Y14799D01*
X16189Y14715D01*
X16035Y14561D01*
X16000Y14477D01*
X15965Y14561D01*
X15811Y14715D01*
X15609Y14799D01*
X15391Y14799D01*
X15189Y14715D01*
X15035Y14561D01*
X15000Y14477D01*
X14965Y14561D01*
X14811Y14715D01*
X14609Y14799D01*
X14391Y14799D01*
X14189Y14715D01*
X14035Y14561D01*
X14000Y14477D01*
X13965Y14561D01*
X13811Y14715D01*
X13609Y14799D01*
X13391Y14799D01*
X13189Y14715D01*
X13049Y14575D01*
X13049Y14599D01*
X13011Y14691D01*
X12941Y14761D01*
X12850Y14799D01*
X12751Y14799D01*
X12151Y14799D01*
X12059Y14761D01*
X11989Y14691D01*
X11951Y14600D01*
X11951Y14575D01*
X11811Y14715D01*
X11609Y14799D01*
X11420Y14799D01*
X11452Y14831D01*
X11525Y15005D01*
X11525Y15194D01*
X11453Y15369D01*
X11319Y15502D01*
X11145Y15575D01*
X10956Y15575D01*
X10781Y15503D01*
X10648Y15369D01*
X10575Y15195D01*
X10575Y15006D01*
X10647Y14831D01*
X10729Y14749D01*
X10609Y14799D01*
X10391Y14799D01*
X10189Y14715D01*
X10035Y14561D01*
X10000Y14477D01*
X09965Y14561D01*
X09811Y14715D01*
X09609Y14799D01*
X09391Y14799D01*
X09189Y14715D01*
X09035Y14561D01*
X09000Y14477D01*
X08965Y14561D01*
X08811Y14715D01*
X08609Y14799D01*
X08391Y14799D01*
X08189Y14715D01*
X08035Y14561D01*
X08000Y14477D01*
X07965Y14561D01*
X07811Y14715D01*
X07609Y14799D01*
X07391Y14799D01*
X07189Y14715D01*
X07035Y14561D01*
X07000Y14477D01*
X06965Y14561D01*
X06811Y14715D01*
X06609Y14799D01*
X06391Y14799D01*
X06189Y14715D01*
X06035Y14561D01*
X06000Y14477D01*
X05965Y14561D01*
X05811Y14715D01*
X05609Y14799D01*
X05391Y14799D01*
X05189Y14715D01*
X05049Y14575D01*
X05049Y14599D01*
X05011Y14691D01*
X04941Y14761D01*
X04850Y14799D01*
X04751Y14799D01*
X04250Y14799D01*
X04250Y18065D01*
X04256Y18056D01*
X04455Y17857D01*
X04456Y17856D01*
X04567Y17782D01*
X04568Y17781D01*
X04699Y17756D01*
X04700Y17755D01*
X05527Y17755D01*
X05623Y17715D01*
X05776Y17715D01*
X05824Y17735D01*
X07183Y17735D01*
X07255Y17705D01*
X07404Y17705D01*
X07476Y17735D01*
X08523Y17735D01*
X08595Y17705D01*
X08744Y17705D01*
X08816Y17735D01*
X09675Y17735D01*
X09723Y17715D01*
X09876Y17715D01*
X10018Y17773D01*
X10126Y17882D01*
X10185Y18023D01*
X10185Y18176D01*
X10127Y18318D01*
X10018Y18426D01*
X09877Y18485D01*
X09724Y18485D01*
X09582Y18427D01*
X09580Y18425D01*
X08816Y18425D01*
X08745Y18455D01*
X08596Y18455D01*
X08523Y18425D01*
X07476Y18425D01*
X07405Y18455D01*
X07256Y18455D01*
X07183Y18425D01*
X05919Y18425D01*
X05918Y18426D01*
X05777Y18485D01*
X05624Y18485D01*
X05526Y18445D01*
X05224Y18445D01*
X05224Y18486D01*
X05439Y18701D01*
X05609Y18701D01*
X05811Y18785D01*
X05965Y18939D01*
X06000Y19024D01*
X06035Y18939D01*
X06189Y18785D01*
X06391Y18701D01*
X06609Y18701D01*
X06811Y18785D01*
X06965Y18939D01*
X07000Y19024D01*
X07035Y18939D01*
X07189Y18785D01*
X07391Y18701D01*
X07609Y18701D01*
X07811Y18785D01*
X07965Y18939D01*
X08000Y19024D01*
X08035Y18939D01*
X08189Y18785D01*
X08391Y18701D01*
X08609Y18701D01*
X08811Y18785D01*
X08965Y18939D01*
X09000Y19024D01*
X09035Y18939D01*
X09189Y18785D01*
X09391Y18701D01*
X09609Y18701D01*
X09811Y18785D01*
X09965Y18939D01*
X10000Y19024D01*
X10035Y18939D01*
X10189Y18785D01*
X10391Y18701D01*
X10609Y18701D01*
X10811Y18785D01*
X10965Y18939D01*
X11049Y19141D01*
X11049Y19359D01*
X10965Y19561D01*
X10811Y19715D01*
X10609Y19799D01*
X10391Y19799D01*
X10189Y19715D01*
X10035Y19561D01*
X10000Y19477D01*
X09965Y19561D01*
X09845Y19681D01*
X09845Y20900D01*
X11507Y20900D01*
X11476Y20825D01*
X11476Y20726D01*
X11476Y20176D01*
X11514Y20084D01*
X11584Y20014D01*
X11675Y19976D01*
X11774Y19976D01*
X12324Y19976D01*
X12416Y20014D01*
X12486Y20084D01*
X12524Y20175D01*
X12524Y20274D01*
X12524Y20824D01*
X12492Y20900D01*
X12578Y20900D01*
X13025Y20453D01*
X13025Y19658D01*
X13011Y19691D01*
X12941Y19761D01*
X12850Y19799D01*
X12751Y19799D01*
X12151Y19799D01*
X12059Y19761D01*
X11989Y19691D01*
X11951Y19600D01*
X11951Y19501D01*
X11951Y18901D01*
X11989Y18809D01*
X12059Y18739D01*
X12150Y18701D01*
X12155Y18701D01*
X12155Y18440D01*
X12181Y18308D01*
X12256Y18196D01*
X12595Y17857D01*
X12596Y17856D01*
X12707Y17782D01*
X12708Y17781D01*
X12839Y17756D01*
X12840Y17755D01*
X13527Y17755D01*
X13623Y17715D01*
X13776Y17715D01*
X13802Y17726D01*
X15154Y17742D01*
X15243Y17705D01*
X15396Y17705D01*
X15469Y17735D01*
X16523Y17735D01*
X16595Y17705D01*
X16744Y17705D01*
X16816Y17735D01*
X17597Y17735D01*
X17693Y17695D01*
X17846Y17695D01*
X17988Y17753D01*
X18096Y17862D01*
X18155Y18003D01*
X18155Y18156D01*
X18097Y18298D01*
X18074Y18321D01*
X18096Y18342D01*
X18155Y18483D01*
X18155Y18636D01*
X18097Y18778D01*
X17988Y18886D01*
X17934Y18909D01*
X17965Y18939D01*
X18000Y19024D01*
X18035Y18939D01*
X18189Y18785D01*
X18391Y18701D01*
X18609Y18701D01*
X18811Y18785D01*
X18965Y18939D01*
X19049Y19141D01*
X19049Y19359D01*
X18965Y19561D01*
X18811Y19715D01*
X18609Y19799D01*
X18391Y19799D01*
X18189Y19715D01*
X18035Y19561D01*
X18000Y19477D01*
X17965Y19561D01*
X17845Y19681D01*
X17845Y20900D01*
X18507Y20900D01*
X18476Y20825D01*
X18476Y20726D01*
X18476Y20176D01*
X18514Y20084D01*
X18584Y20014D01*
X18675Y19976D01*
X18774Y19976D01*
X19324Y19976D01*
X19416Y20014D01*
X19486Y20084D01*
X19524Y20175D01*
X19524Y20274D01*
X19524Y20754D01*
X20114Y20164D01*
X20268Y20061D01*
X20450Y20025D01*
X20703Y20025D01*
X21025Y19703D01*
X21025Y19658D01*
X21011Y19691D01*
X20941Y19761D01*
X20850Y19799D01*
X20751Y19799D01*
X20151Y19799D01*
X20059Y19761D01*
X19989Y19691D01*
X19951Y19600D01*
X19951Y19501D01*
X19951Y18901D01*
X19989Y18809D01*
X20059Y18739D01*
X20150Y18701D01*
X20172Y18701D01*
X20181Y18658D01*
X20256Y18546D01*
X20945Y17857D01*
X20946Y17856D01*
X21057Y17782D01*
X21058Y17781D01*
X21189Y17756D01*
X21190Y17755D01*
X21527Y17755D01*
X21623Y17715D01*
X21776Y17715D01*
X21873Y17755D01*
X23136Y17755D01*
X23255Y17705D01*
X23404Y17705D01*
X23476Y17735D01*
X24523Y17735D01*
X24595Y17705D01*
X24744Y17705D01*
X24816Y17735D01*
X25617Y17735D01*
X25713Y17695D01*
X25866Y17695D01*
X26008Y17753D01*
X26116Y17862D01*
X26175Y18003D01*
X26175Y18156D01*
X26117Y18298D01*
X26079Y18336D01*
X26101Y18357D01*
X26160Y18498D01*
X26160Y18651D01*
X26102Y18793D01*
X25993Y18901D01*
X25946Y18921D01*
X25965Y18939D01*
X26000Y19024D01*
X26035Y18939D01*
X26189Y18785D01*
X26391Y18701D01*
X26609Y18701D01*
X26811Y18785D01*
X26965Y18939D01*
X27049Y19141D01*
X27049Y19359D01*
X26965Y19561D01*
X26811Y19715D01*
X26609Y19799D01*
X26537Y19799D01*
X27638Y20900D01*
X29007Y20900D01*
X28976Y20825D01*
X28976Y20726D01*
X28976Y20176D01*
X29014Y20084D01*
X29084Y20014D01*
X29175Y19976D01*
X29274Y19976D01*
X29554Y19976D01*
X29367Y19790D01*
X29189Y19715D01*
X29049Y19575D01*
X29049Y19599D01*
X29011Y19691D01*
X28941Y19761D01*
X28850Y19799D01*
X28751Y19799D01*
X28151Y19799D01*
X28059Y19761D01*
X27989Y19691D01*
X27951Y19600D01*
X27951Y19501D01*
X27951Y18901D01*
X27989Y18809D01*
X28059Y18739D01*
X28150Y18701D01*
X28176Y18701D01*
X28181Y18678D01*
X28256Y18566D01*
X28966Y17856D01*
X29078Y17781D01*
X29210Y17755D01*
X29527Y17755D01*
X29623Y17715D01*
X29776Y17715D01*
X29873Y17755D01*
X31136Y17755D01*
X31255Y17705D01*
X31404Y17705D01*
X31476Y17735D01*
X32523Y17735D01*
X32595Y17705D01*
X32744Y17705D01*
X32816Y17735D01*
X33593Y17735D01*
X33665Y17705D01*
X33814Y17705D01*
X33952Y17762D01*
X34057Y17867D01*
X34115Y18005D01*
X34115Y18154D01*
X34058Y18292D01*
X34037Y18313D01*
X34086Y18362D01*
X34145Y18503D01*
X34145Y18656D01*
X34087Y18798D01*
X33978Y18906D01*
X33945Y18920D01*
X33965Y18939D01*
X34000Y19024D01*
X34035Y18939D01*
X34189Y18785D01*
X34391Y18701D01*
X34609Y18701D01*
X34811Y18785D01*
X34965Y18939D01*
X35049Y19141D01*
X35049Y19359D01*
X34965Y19561D01*
X34811Y19715D01*
X34609Y19799D01*
X34391Y19799D01*
X34189Y19715D01*
X34035Y19561D01*
X34000Y19477D01*
X33965Y19561D01*
X33937Y19589D01*
X35244Y20896D01*
X35246Y20900D01*
X38675Y20900D01*
X38675Y12200D01*
G54D10*
G36*
X18450Y11760D02*
X14865Y08175D01*
X14826Y08175D01*
X14688Y08118D01*
X14583Y08013D01*
X14525Y07875D01*
X14525Y07726D01*
X14582Y07588D01*
X14687Y07483D01*
X14825Y07425D01*
X14887Y07425D01*
X14550Y07087D01*
X14487Y06993D01*
X14465Y06882D01*
X14465Y06280D01*
X13085Y04901D01*
X13078Y04919D01*
X13256Y05096D01*
X13319Y05190D01*
X13341Y05301D01*
X13341Y08288D01*
X13340Y08289D01*
X13319Y08399D01*
X13318Y08400D01*
X13256Y08493D01*
X13255Y08494D01*
X13103Y08646D01*
X13103Y08697D01*
X13045Y08839D01*
X12936Y08947D01*
X12795Y09006D01*
X12642Y09006D01*
X12500Y08948D01*
X12392Y08839D01*
X12333Y08698D01*
X12333Y08545D01*
X12391Y08403D01*
X12500Y08295D01*
X12641Y08236D01*
X12693Y08236D01*
X12761Y08168D01*
X12761Y07291D01*
X12619Y07349D01*
X12561Y07349D01*
X10175Y09735D01*
X10175Y09774D01*
X10118Y09912D01*
X10013Y10017D01*
X09875Y10075D01*
X09726Y10075D01*
X09588Y10018D01*
X09483Y09913D01*
X09425Y09775D01*
X09425Y09626D01*
X09482Y09488D01*
X09587Y09383D01*
X09725Y09325D01*
X09765Y09325D01*
X11996Y07094D01*
X11992Y07089D01*
X11901Y06869D01*
X11901Y06631D01*
X11992Y06411D01*
X12067Y06336D01*
X12009Y06311D01*
X11939Y06241D01*
X11901Y06150D01*
X11901Y06051D01*
X11900Y05862D01*
X11962Y05800D01*
X12400Y05800D01*
X12450Y05800D01*
X12550Y05800D01*
X12550Y05700D01*
X12450Y05700D01*
X12400Y05700D01*
X11962Y05700D01*
X11900Y05638D01*
X11901Y05449D01*
X11901Y05350D01*
X11939Y05259D01*
X12009Y05189D01*
X12067Y05165D01*
X11992Y05089D01*
X11901Y04869D01*
X11901Y04631D01*
X11992Y04411D01*
X12161Y04242D01*
X12349Y04165D01*
X11129Y02944D01*
X10613Y02944D01*
X10502Y02922D01*
X10408Y02859D01*
X10386Y02837D01*
X10323Y02743D01*
X10316Y02710D01*
X10311Y02715D01*
X10109Y02799D01*
X09891Y02799D01*
X09689Y02715D01*
X09535Y02561D01*
X09451Y02359D01*
X09451Y02141D01*
X09535Y01939D01*
X09674Y01800D01*
X09651Y01799D01*
X09559Y01761D01*
X09489Y01691D01*
X09451Y01600D01*
X09451Y01501D01*
X09450Y01362D01*
X09512Y01300D01*
X09900Y01300D01*
X09950Y01300D01*
X10050Y01300D01*
X10050Y01200D01*
X10050Y01150D01*
X10050Y00762D01*
X10112Y00700D01*
X10349Y00701D01*
X10358Y00705D01*
X10386Y00664D01*
X10413Y00637D01*
X10507Y00574D01*
X10618Y00552D01*
X11592Y00552D01*
X11703Y00574D01*
X11797Y00637D01*
X11869Y00710D01*
X11891Y00701D01*
X12109Y00701D01*
X12306Y00783D01*
X12306Y00540D01*
X12328Y00429D01*
X12391Y00335D01*
X12401Y00325D01*
X09950Y00325D01*
X09950Y00762D01*
X09950Y01200D01*
X09512Y01200D01*
X09450Y01138D01*
X09451Y00999D01*
X09451Y00900D01*
X09489Y00809D01*
X09559Y00739D01*
X09651Y00701D01*
X09888Y00700D01*
X09950Y00762D01*
X09950Y00325D01*
X09050Y00325D01*
X09050Y04828D01*
X09179Y04774D01*
X09332Y04774D01*
X09474Y04832D01*
X09582Y04941D01*
X09641Y05082D01*
X09641Y05235D01*
X09583Y05377D01*
X09474Y05485D01*
X09333Y05544D01*
X09196Y05544D01*
X09050Y05690D01*
X09050Y09263D01*
X09099Y09381D01*
X09099Y09619D01*
X09050Y09738D01*
X09050Y10998D01*
X09061Y11009D01*
X09099Y11100D01*
X09099Y11199D01*
X09099Y11899D01*
X09098Y11900D01*
X09870Y11900D01*
X10315Y11455D01*
X10409Y11392D01*
X10520Y11370D01*
X12810Y11370D01*
X12837Y11343D01*
X12975Y11285D01*
X13124Y11285D01*
X13262Y11342D01*
X13367Y11447D01*
X13425Y11585D01*
X13425Y11734D01*
X13414Y11760D01*
X18450Y11760D01*
X18450Y11760D01*
G37*
G54D37*
X18450Y11760D02*
X14865Y08175D01*
X14826Y08175D01*
X14688Y08118D01*
X14583Y08013D01*
X14525Y07875D01*
X14525Y07726D01*
X14582Y07588D01*
X14687Y07483D01*
X14825Y07425D01*
X14887Y07425D01*
X14550Y07087D01*
X14487Y06993D01*
X14465Y06882D01*
X14465Y06280D01*
X13085Y04901D01*
X13078Y04919D01*
X13256Y05096D01*
X13319Y05190D01*
X13341Y05301D01*
X13341Y08288D01*
X13340Y08289D01*
X13319Y08399D01*
X13318Y08400D01*
X13256Y08493D01*
X13255Y08494D01*
X13103Y08646D01*
X13103Y08697D01*
X13045Y08839D01*
X12936Y08947D01*
X12795Y09006D01*
X12642Y09006D01*
X12500Y08948D01*
X12392Y08839D01*
X12333Y08698D01*
X12333Y08545D01*
X12391Y08403D01*
X12500Y08295D01*
X12641Y08236D01*
X12693Y08236D01*
X12761Y08168D01*
X12761Y07291D01*
X12619Y07349D01*
X12561Y07349D01*
X10175Y09735D01*
X10175Y09774D01*
X10118Y09912D01*
X10013Y10017D01*
X09875Y10075D01*
X09726Y10075D01*
X09588Y10018D01*
X09483Y09913D01*
X09425Y09775D01*
X09425Y09626D01*
X09482Y09488D01*
X09587Y09383D01*
X09725Y09325D01*
X09765Y09325D01*
X11996Y07094D01*
X11992Y07089D01*
X11901Y06869D01*
X11901Y06631D01*
X11992Y06411D01*
X12067Y06336D01*
X12009Y06311D01*
X11939Y06241D01*
X11901Y06150D01*
X11901Y06051D01*
X11900Y05862D01*
X11962Y05800D01*
X12400Y05800D01*
X12450Y05800D01*
X12550Y05800D01*
X12550Y05700D01*
X12450Y05700D01*
X12400Y05700D01*
X11962Y05700D01*
X11900Y05638D01*
X11901Y05449D01*
X11901Y05350D01*
X11939Y05259D01*
X12009Y05189D01*
X12067Y05165D01*
X11992Y05089D01*
X11901Y04869D01*
X11901Y04631D01*
X11992Y04411D01*
X12161Y04242D01*
X12349Y04165D01*
X11129Y02944D01*
X10613Y02944D01*
X10502Y02922D01*
X10408Y02859D01*
X10386Y02837D01*
X10323Y02743D01*
X10316Y02710D01*
X10311Y02715D01*
X10109Y02799D01*
X09891Y02799D01*
X09689Y02715D01*
X09535Y02561D01*
X09451Y02359D01*
X09451Y02141D01*
X09535Y01939D01*
X09674Y01800D01*
X09651Y01799D01*
X09559Y01761D01*
X09489Y01691D01*
X09451Y01600D01*
X09451Y01501D01*
X09450Y01362D01*
X09512Y01300D01*
X09900Y01300D01*
X09950Y01300D01*
X10050Y01300D01*
X10050Y01200D01*
X10050Y01150D01*
X10050Y00762D01*
X10112Y00700D01*
X10349Y00701D01*
X10358Y00705D01*
X10386Y00664D01*
X10413Y00637D01*
X10507Y00574D01*
X10618Y00552D01*
X11592Y00552D01*
X11703Y00574D01*
X11797Y00637D01*
X11869Y00710D01*
X11891Y00701D01*
X12109Y00701D01*
X12306Y00783D01*
X12306Y00540D01*
X12328Y00429D01*
X12391Y00335D01*
X12401Y00325D01*
X09950Y00325D01*
X09950Y00762D01*
X09950Y01200D01*
X09512Y01200D01*
X09450Y01138D01*
X09451Y00999D01*
X09451Y00900D01*
X09489Y00809D01*
X09559Y00739D01*
X09651Y00701D01*
X09888Y00700D01*
X09950Y00762D01*
X09950Y00325D01*
X09050Y00325D01*
X09050Y04828D01*
X09179Y04774D01*
X09332Y04774D01*
X09474Y04832D01*
X09582Y04941D01*
X09641Y05082D01*
X09641Y05235D01*
X09583Y05377D01*
X09474Y05485D01*
X09333Y05544D01*
X09196Y05544D01*
X09050Y05690D01*
X09050Y09263D01*
X09099Y09381D01*
X09099Y09619D01*
X09050Y09738D01*
X09050Y10998D01*
X09061Y11009D01*
X09099Y11100D01*
X09099Y11199D01*
X09099Y11899D01*
X09098Y11900D01*
X09870Y11900D01*
X10315Y11455D01*
X10409Y11392D01*
X10520Y11370D01*
X12810Y11370D01*
X12837Y11343D01*
X12975Y11285D01*
X13124Y11285D01*
X13262Y11342D01*
X13367Y11447D01*
X13425Y11585D01*
X13425Y11734D01*
X13414Y11760D01*
X18450Y11760D01*
G54D10*
G36*
X25699Y05705D02*
X25364Y05369D01*
X25301Y05275D01*
X25279Y05164D01*
X25279Y01038D01*
X25260Y01038D01*
X25024Y01038D01*
X24932Y01000D01*
X24862Y00930D01*
X24824Y00839D01*
X24824Y00740D01*
X24824Y00325D01*
X24770Y00325D01*
X24771Y00353D01*
X24771Y00577D01*
X24770Y00711D01*
X24770Y00810D01*
X24732Y00901D01*
X24662Y00971D01*
X24570Y01009D01*
X24495Y01010D01*
X24495Y03621D01*
X24433Y03683D01*
X24138Y03683D01*
X24138Y03250D01*
X24200Y03188D01*
X24294Y03189D01*
X24386Y03227D01*
X24456Y03297D01*
X24494Y03388D01*
X24494Y03487D01*
X24495Y03621D01*
X24495Y01010D01*
X24338Y01010D01*
X24276Y00948D01*
X24276Y00515D01*
X24709Y00515D01*
X24771Y00577D01*
X24771Y00353D01*
X24709Y00415D01*
X24326Y00415D01*
X24276Y00415D01*
X24176Y00415D01*
X24176Y00515D01*
X24176Y00948D01*
X24114Y01010D01*
X24038Y01010D01*
X24038Y03250D01*
X24038Y03683D01*
X23743Y03683D01*
X23681Y03621D01*
X23682Y03487D01*
X23682Y03388D01*
X23720Y03297D01*
X23790Y03227D01*
X23882Y03189D01*
X23976Y03188D01*
X24038Y03250D01*
X24038Y01010D01*
X23882Y01009D01*
X23790Y00971D01*
X23720Y00901D01*
X23682Y00810D01*
X23682Y00711D01*
X23681Y00577D01*
X23743Y00515D01*
X24176Y00515D01*
X24176Y00415D01*
X24126Y00415D01*
X23743Y00415D01*
X23681Y00353D01*
X23681Y00325D01*
X23299Y00325D01*
X23300Y00388D01*
X23238Y00450D01*
X22850Y00450D01*
X22800Y00450D01*
X22700Y00450D01*
X22650Y00450D01*
X22262Y00450D01*
X22200Y00388D01*
X22200Y00325D01*
X21985Y00325D01*
X22236Y00576D01*
X22262Y00550D01*
X22650Y00550D01*
X22700Y00550D01*
X22800Y00550D01*
X22850Y00550D01*
X23238Y00550D01*
X23300Y00612D01*
X23299Y00849D01*
X23358Y00888D01*
X23399Y00888D01*
X23537Y00945D01*
X23642Y01050D01*
X23700Y01188D01*
X23700Y01337D01*
X23643Y01475D01*
X23538Y01580D01*
X23400Y01638D01*
X23286Y01638D01*
X23215Y01811D01*
X23061Y01965D01*
X22976Y02000D01*
X23061Y02035D01*
X23215Y02189D01*
X23299Y02391D01*
X23299Y02609D01*
X23215Y02811D01*
X23061Y02965D01*
X22976Y03000D01*
X23061Y03035D01*
X23215Y03189D01*
X23299Y03391D01*
X23299Y03609D01*
X23215Y03811D01*
X23133Y03893D01*
X23800Y04559D01*
X23800Y04324D01*
X23828Y04255D01*
X23790Y04239D01*
X23720Y04169D01*
X23682Y04078D01*
X23682Y03979D01*
X23681Y03845D01*
X23743Y03783D01*
X23988Y03783D01*
X24038Y03783D01*
X24138Y03783D01*
X24188Y03783D01*
X24433Y03783D01*
X24495Y03845D01*
X24494Y03979D01*
X24494Y04078D01*
X24474Y04124D01*
X24492Y04124D01*
X24584Y04162D01*
X24654Y04232D01*
X24692Y04323D01*
X24692Y04422D01*
X24692Y04995D01*
X25633Y05936D01*
X25633Y05852D01*
X25690Y05714D01*
X25699Y05705D01*
X25699Y05705D01*
G37*
G54D37*
X25699Y05705D02*
X25364Y05369D01*
X25301Y05275D01*
X25279Y05164D01*
X25279Y01038D01*
X25260Y01038D01*
X25024Y01038D01*
X24932Y01000D01*
X24862Y00930D01*
X24824Y00839D01*
X24824Y00740D01*
X24824Y00325D01*
X24770Y00325D01*
X24771Y00353D01*
X24771Y00577D01*
X24770Y00711D01*
X24770Y00810D01*
X24732Y00901D01*
X24662Y00971D01*
X24570Y01009D01*
X24495Y01010D01*
X24495Y03621D01*
X24433Y03683D01*
X24138Y03683D01*
X24138Y03250D01*
X24200Y03188D01*
X24294Y03189D01*
X24386Y03227D01*
X24456Y03297D01*
X24494Y03388D01*
X24494Y03487D01*
X24495Y03621D01*
X24495Y01010D01*
X24338Y01010D01*
X24276Y00948D01*
X24276Y00515D01*
X24709Y00515D01*
X24771Y00577D01*
X24771Y00353D01*
X24709Y00415D01*
X24326Y00415D01*
X24276Y00415D01*
X24176Y00415D01*
X24176Y00515D01*
X24176Y00948D01*
X24114Y01010D01*
X24038Y01010D01*
X24038Y03250D01*
X24038Y03683D01*
X23743Y03683D01*
X23681Y03621D01*
X23682Y03487D01*
X23682Y03388D01*
X23720Y03297D01*
X23790Y03227D01*
X23882Y03189D01*
X23976Y03188D01*
X24038Y03250D01*
X24038Y01010D01*
X23882Y01009D01*
X23790Y00971D01*
X23720Y00901D01*
X23682Y00810D01*
X23682Y00711D01*
X23681Y00577D01*
X23743Y00515D01*
X24176Y00515D01*
X24176Y00415D01*
X24126Y00415D01*
X23743Y00415D01*
X23681Y00353D01*
X23681Y00325D01*
X23299Y00325D01*
X23300Y00388D01*
X23238Y00450D01*
X22850Y00450D01*
X22800Y00450D01*
X22700Y00450D01*
X22650Y00450D01*
X22262Y00450D01*
X22200Y00388D01*
X22200Y00325D01*
X21985Y00325D01*
X22236Y00576D01*
X22262Y00550D01*
X22650Y00550D01*
X22700Y00550D01*
X22800Y00550D01*
X22850Y00550D01*
X23238Y00550D01*
X23300Y00612D01*
X23299Y00849D01*
X23358Y00888D01*
X23399Y00888D01*
X23537Y00945D01*
X23642Y01050D01*
X23700Y01188D01*
X23700Y01337D01*
X23643Y01475D01*
X23538Y01580D01*
X23400Y01638D01*
X23286Y01638D01*
X23215Y01811D01*
X23061Y01965D01*
X22976Y02000D01*
X23061Y02035D01*
X23215Y02189D01*
X23299Y02391D01*
X23299Y02609D01*
X23215Y02811D01*
X23061Y02965D01*
X22976Y03000D01*
X23061Y03035D01*
X23215Y03189D01*
X23299Y03391D01*
X23299Y03609D01*
X23215Y03811D01*
X23133Y03893D01*
X23800Y04559D01*
X23800Y04324D01*
X23828Y04255D01*
X23790Y04239D01*
X23720Y04169D01*
X23682Y04078D01*
X23682Y03979D01*
X23681Y03845D01*
X23743Y03783D01*
X23988Y03783D01*
X24038Y03783D01*
X24138Y03783D01*
X24188Y03783D01*
X24433Y03783D01*
X24495Y03845D01*
X24494Y03979D01*
X24494Y04078D01*
X24474Y04124D01*
X24492Y04124D01*
X24584Y04162D01*
X24654Y04232D01*
X24692Y04323D01*
X24692Y04422D01*
X24692Y04995D01*
X25633Y05936D01*
X25633Y05852D01*
X25690Y05714D01*
X25699Y05705D01*
G54D10*
G36*
X27499Y01039D02*
X27468Y01039D01*
X27406Y00977D01*
X27406Y00545D01*
X27406Y00495D01*
X27406Y00395D01*
X27306Y00395D01*
X27306Y00495D01*
X27306Y00545D01*
X27306Y00977D01*
X27276Y01007D01*
X27462Y01192D01*
X27499Y01248D01*
X27499Y01039D01*
X27499Y01039D01*
G37*
G54D37*
X27499Y01039D02*
X27468Y01039D01*
X27406Y00977D01*
X27406Y00545D01*
X27406Y00495D01*
X27406Y00395D01*
X27306Y00395D01*
X27306Y00495D01*
X27306Y00545D01*
X27306Y00977D01*
X27276Y01007D01*
X27462Y01192D01*
X27499Y01248D01*
X27499Y01039D01*
G54D10*
G36*
X31692Y00325D02*
X29200Y00325D01*
X29200Y03365D01*
X29138Y03427D01*
X28843Y03427D01*
X28843Y02994D01*
X28905Y02932D01*
X28999Y02933D01*
X29091Y02971D01*
X29161Y03041D01*
X29199Y03132D01*
X29199Y03231D01*
X29200Y03365D01*
X29200Y00325D01*
X29198Y00325D01*
X29199Y00373D01*
X29199Y00597D01*
X29198Y00731D01*
X29198Y00830D01*
X29160Y00921D01*
X29090Y00991D01*
X28998Y01029D01*
X28845Y01030D01*
X28783Y00968D01*
X28783Y00535D01*
X29137Y00535D01*
X29199Y00597D01*
X29199Y00373D01*
X29137Y00435D01*
X28833Y00435D01*
X28783Y00435D01*
X28743Y00435D01*
X28743Y02994D01*
X28743Y03427D01*
X28448Y03427D01*
X28386Y03365D01*
X28387Y03231D01*
X28387Y03132D01*
X28425Y03041D01*
X28495Y02971D01*
X28587Y02933D01*
X28681Y02932D01*
X28743Y02994D01*
X28743Y00435D01*
X28683Y00435D01*
X28683Y00535D01*
X28683Y00585D01*
X28683Y00968D01*
X28621Y01030D01*
X28468Y01029D01*
X28439Y01018D01*
X28390Y01038D01*
X28291Y01038D01*
X28079Y01038D01*
X28079Y05346D01*
X28912Y04513D01*
X28901Y04513D01*
X28311Y04513D01*
X28219Y04475D01*
X28149Y04405D01*
X28111Y04314D01*
X28111Y04215D01*
X28111Y03821D01*
X28149Y03729D01*
X28219Y03659D01*
X28310Y03621D01*
X28386Y03621D01*
X28386Y03589D01*
X28448Y03527D01*
X28693Y03527D01*
X28743Y03527D01*
X28843Y03527D01*
X28893Y03527D01*
X29138Y03527D01*
X29200Y03589D01*
X29199Y03723D01*
X29199Y03820D01*
X29199Y03822D01*
X29199Y03919D01*
X29199Y04226D01*
X29204Y04221D01*
X29204Y04182D01*
X29261Y04044D01*
X29366Y03939D01*
X29504Y03881D01*
X29653Y03881D01*
X29791Y03938D01*
X29832Y03980D01*
X29911Y03902D01*
X30052Y03843D01*
X30205Y03843D01*
X30347Y03901D01*
X30450Y04006D01*
X30896Y03560D01*
X30896Y01564D01*
X30918Y01453D01*
X30981Y01359D01*
X31551Y00789D01*
X31551Y00501D01*
X31589Y00409D01*
X31659Y00339D01*
X31692Y00325D01*
X31692Y00325D01*
G37*
G54D37*
X31692Y00325D02*
X29200Y00325D01*
X29200Y03365D01*
X29138Y03427D01*
X28843Y03427D01*
X28843Y02994D01*
X28905Y02932D01*
X28999Y02933D01*
X29091Y02971D01*
X29161Y03041D01*
X29199Y03132D01*
X29199Y03231D01*
X29200Y03365D01*
X29200Y00325D01*
X29198Y00325D01*
X29199Y00373D01*
X29199Y00597D01*
X29198Y00731D01*
X29198Y00830D01*
X29160Y00921D01*
X29090Y00991D01*
X28998Y01029D01*
X28845Y01030D01*
X28783Y00968D01*
X28783Y00535D01*
X29137Y00535D01*
X29199Y00597D01*
X29199Y00373D01*
X29137Y00435D01*
X28833Y00435D01*
X28783Y00435D01*
X28743Y00435D01*
X28743Y02994D01*
X28743Y03427D01*
X28448Y03427D01*
X28386Y03365D01*
X28387Y03231D01*
X28387Y03132D01*
X28425Y03041D01*
X28495Y02971D01*
X28587Y02933D01*
X28681Y02932D01*
X28743Y02994D01*
X28743Y00435D01*
X28683Y00435D01*
X28683Y00535D01*
X28683Y00585D01*
X28683Y00968D01*
X28621Y01030D01*
X28468Y01029D01*
X28439Y01018D01*
X28390Y01038D01*
X28291Y01038D01*
X28079Y01038D01*
X28079Y05346D01*
X28912Y04513D01*
X28901Y04513D01*
X28311Y04513D01*
X28219Y04475D01*
X28149Y04405D01*
X28111Y04314D01*
X28111Y04215D01*
X28111Y03821D01*
X28149Y03729D01*
X28219Y03659D01*
X28310Y03621D01*
X28386Y03621D01*
X28386Y03589D01*
X28448Y03527D01*
X28693Y03527D01*
X28743Y03527D01*
X28843Y03527D01*
X28893Y03527D01*
X29138Y03527D01*
X29200Y03589D01*
X29199Y03723D01*
X29199Y03820D01*
X29199Y03822D01*
X29199Y03919D01*
X29199Y04226D01*
X29204Y04221D01*
X29204Y04182D01*
X29261Y04044D01*
X29366Y03939D01*
X29504Y03881D01*
X29653Y03881D01*
X29791Y03938D01*
X29832Y03980D01*
X29911Y03902D01*
X30052Y03843D01*
X30205Y03843D01*
X30347Y03901D01*
X30450Y04006D01*
X30896Y03560D01*
X30896Y01564D01*
X30918Y01453D01*
X30981Y01359D01*
X31551Y00789D01*
X31551Y00501D01*
X31589Y00409D01*
X31659Y00339D01*
X31692Y00325D01*
G54D10*
G36*
X32558Y00738D02*
X32500Y00679D01*
X32449Y00730D01*
X32449Y00770D01*
X32480Y00801D01*
X32520Y00801D01*
X32556Y00765D01*
X32558Y00738D01*
X32558Y00738D01*
G37*
G54D37*
X32558Y00738D02*
X32500Y00679D01*
X32449Y00730D01*
X32449Y00770D01*
X32480Y00801D01*
X32520Y00801D01*
X32556Y00765D01*
X32558Y00738D01*
G54D10*
G36*
X33051Y00730D02*
X33000Y00679D01*
X32942Y00737D01*
X32940Y00762D01*
X32980Y00801D01*
X33020Y00801D01*
X33051Y00770D01*
X33051Y00730D01*
X33051Y00730D01*
G37*
G54D37*
X33051Y00730D02*
X33000Y00679D01*
X32942Y00737D01*
X32940Y00762D01*
X32980Y00801D01*
X33020Y00801D01*
X33051Y00770D01*
X33051Y00730D01*
G54D10*
G36*
X38675Y00325D02*
X38636Y00325D01*
X38636Y01273D01*
X38636Y01725D01*
X38463Y02143D01*
X38336Y02270D01*
X38336Y03041D01*
X38336Y03671D01*
X38336Y03771D01*
X38336Y04401D01*
X38336Y05600D01*
X38336Y06230D01*
X38336Y06330D01*
X38336Y06960D01*
X38299Y06997D01*
X38299Y08300D01*
X38299Y08399D01*
X38299Y08999D01*
X38299Y10450D01*
X38299Y10549D01*
X38299Y11149D01*
X38261Y11241D01*
X38191Y11311D01*
X38100Y11349D01*
X38058Y11349D01*
X38058Y11572D01*
X37750Y11879D01*
X37442Y11572D01*
X37469Y11478D01*
X37671Y11407D01*
X37884Y11418D01*
X38031Y11478D01*
X38058Y11572D01*
X38058Y11349D01*
X38001Y11349D01*
X37401Y11349D01*
X37309Y11311D01*
X37239Y11241D01*
X37201Y11150D01*
X37201Y11051D01*
X37201Y10451D01*
X37239Y10359D01*
X37309Y10289D01*
X37400Y10251D01*
X37462Y10251D01*
X37442Y10178D01*
X37750Y09871D01*
X38058Y10178D01*
X38037Y10251D01*
X38099Y10251D01*
X38191Y10289D01*
X38261Y10359D01*
X38299Y10450D01*
X38299Y08999D01*
X38293Y09014D01*
X38293Y09721D01*
X38282Y09934D01*
X38222Y10081D01*
X38128Y10108D01*
X37821Y09800D01*
X38128Y09492D01*
X38222Y09519D01*
X38293Y09721D01*
X38293Y09014D01*
X38261Y09091D01*
X38191Y09161D01*
X38100Y09199D01*
X38058Y09199D01*
X38058Y09422D01*
X37750Y09729D01*
X37679Y09659D01*
X37679Y09800D01*
X37372Y10108D01*
X37278Y10081D01*
X37207Y09879D01*
X37218Y09666D01*
X37278Y09519D01*
X37372Y09492D01*
X37679Y09800D01*
X37679Y09659D01*
X37442Y09422D01*
X37469Y09328D01*
X37671Y09257D01*
X37884Y09268D01*
X38031Y09328D01*
X38058Y09422D01*
X38058Y09199D01*
X38001Y09199D01*
X37401Y09199D01*
X37309Y09161D01*
X37239Y09091D01*
X37201Y09000D01*
X37201Y08901D01*
X37201Y08301D01*
X37239Y08209D01*
X37309Y08139D01*
X37400Y08101D01*
X37462Y08101D01*
X37442Y08028D01*
X37750Y07721D01*
X38058Y08028D01*
X38037Y08101D01*
X38099Y08101D01*
X38191Y08139D01*
X38261Y08209D01*
X38299Y08300D01*
X38299Y06997D01*
X38293Y07003D01*
X38293Y07571D01*
X38282Y07784D01*
X38222Y07931D01*
X38128Y07958D01*
X37821Y07650D01*
X38128Y07342D01*
X38222Y07369D01*
X38293Y07571D01*
X38293Y07003D01*
X38274Y07022D01*
X38160Y07021D01*
X38061Y07021D01*
X38058Y07020D01*
X38058Y07272D01*
X37750Y07579D01*
X37679Y07509D01*
X37679Y07650D01*
X37372Y07958D01*
X37278Y07931D01*
X37207Y07729D01*
X37218Y07516D01*
X37278Y07369D01*
X37372Y07342D01*
X37679Y07650D01*
X37679Y07509D01*
X37442Y07272D01*
X37469Y07178D01*
X37671Y07107D01*
X37884Y07118D01*
X38031Y07178D01*
X38058Y07272D01*
X38058Y07020D01*
X37970Y06983D01*
X37900Y06913D01*
X37862Y06821D01*
X37861Y06392D01*
X37923Y06330D01*
X38336Y06330D01*
X38336Y06230D01*
X37923Y06230D01*
X37861Y06168D01*
X37862Y05739D01*
X37900Y05647D01*
X37970Y05577D01*
X38061Y05539D01*
X38160Y05539D01*
X38274Y05538D01*
X38336Y05600D01*
X38336Y04401D01*
X38274Y04463D01*
X38160Y04462D01*
X38061Y04462D01*
X37970Y04424D01*
X37900Y04354D01*
X37862Y04262D01*
X37861Y03833D01*
X37923Y03771D01*
X38336Y03771D01*
X38336Y03671D01*
X37923Y03671D01*
X37861Y03609D01*
X37862Y03180D01*
X37900Y03088D01*
X37970Y03018D01*
X38061Y02980D01*
X38160Y02980D01*
X38274Y02979D01*
X38336Y03041D01*
X38336Y02270D01*
X38144Y02462D01*
X37727Y02636D01*
X37275Y02636D01*
X36857Y02463D01*
X36538Y02144D01*
X36364Y01727D01*
X36364Y01275D01*
X36537Y00857D01*
X36856Y00538D01*
X37273Y00364D01*
X37725Y00364D01*
X38143Y00537D01*
X38462Y00856D01*
X38636Y01273D01*
X38636Y00325D01*
X34139Y00325D01*
X34223Y00359D01*
X34236Y00443D01*
X34035Y00644D01*
X34000Y00679D01*
X33949Y00730D01*
X33949Y00770D01*
X33980Y00801D01*
X34020Y00801D01*
X34071Y00750D01*
X34106Y00715D01*
X34307Y00514D01*
X34391Y00527D01*
X34446Y00694D01*
X34433Y00870D01*
X34391Y00973D01*
X34368Y00977D01*
X34394Y01002D01*
X34386Y01010D01*
X34449Y01160D01*
X34449Y01289D01*
X35996Y02836D01*
X36614Y02836D01*
X36725Y02858D01*
X36819Y02921D01*
X36858Y02980D01*
X36938Y02980D01*
X37030Y03018D01*
X37100Y03088D01*
X37138Y03179D01*
X37138Y03278D01*
X37138Y04262D01*
X37100Y04354D01*
X37030Y04424D01*
X36939Y04462D01*
X36904Y04462D01*
X36904Y05539D01*
X36938Y05539D01*
X37030Y05577D01*
X37100Y05647D01*
X37138Y05738D01*
X37138Y05837D01*
X37138Y06821D01*
X37100Y06913D01*
X37030Y06983D01*
X36939Y07021D01*
X36840Y07021D01*
X36290Y07021D01*
X36198Y06983D01*
X36128Y06913D01*
X36090Y06822D01*
X36090Y06723D01*
X36090Y05739D01*
X36128Y05647D01*
X36198Y05577D01*
X36289Y05539D01*
X36324Y05539D01*
X36324Y04462D01*
X36290Y04462D01*
X36198Y04424D01*
X36128Y04354D01*
X36090Y04263D01*
X36090Y04164D01*
X36090Y03416D01*
X35876Y03416D01*
X35765Y03394D01*
X35671Y03331D01*
X34039Y01699D01*
X33911Y01699D01*
X33749Y01633D01*
X33590Y01699D01*
X33411Y01699D01*
X33249Y01633D01*
X33090Y01699D01*
X32911Y01699D01*
X32790Y01650D01*
X32790Y07035D01*
X34556Y05269D01*
X34556Y04868D01*
X34578Y04757D01*
X34641Y04663D01*
X34663Y04641D01*
X34757Y04578D01*
X34868Y04556D01*
X35632Y04556D01*
X35743Y04578D01*
X35837Y04641D01*
X35859Y04663D01*
X35922Y04757D01*
X35944Y04868D01*
X35944Y11900D01*
X37213Y11900D01*
X37218Y11816D01*
X37278Y11669D01*
X37372Y11642D01*
X37629Y11900D01*
X37870Y11900D01*
X38128Y11642D01*
X38222Y11669D01*
X38293Y11871D01*
X38291Y11900D01*
X38675Y11900D01*
X38675Y07021D01*
X38612Y07021D01*
X38498Y07022D01*
X38436Y06960D01*
X38436Y06380D01*
X38436Y06330D01*
X38436Y06230D01*
X38436Y06180D01*
X38436Y05600D01*
X38498Y05538D01*
X38612Y05539D01*
X38675Y05539D01*
X38675Y04462D01*
X38612Y04462D01*
X38498Y04463D01*
X38436Y04401D01*
X38436Y03821D01*
X38436Y03771D01*
X38436Y03671D01*
X38436Y03621D01*
X38436Y03041D01*
X38498Y02979D01*
X38612Y02980D01*
X38675Y02980D01*
X38675Y00325D01*
X38675Y00325D01*
G37*
G54D37*
X38675Y00325D02*
X38636Y00325D01*
X38636Y01273D01*
X38636Y01725D01*
X38463Y02143D01*
X38336Y02270D01*
X38336Y03041D01*
X38336Y03671D01*
X38336Y03771D01*
X38336Y04401D01*
X38336Y05600D01*
X38336Y06230D01*
X38336Y06330D01*
X38336Y06960D01*
X38299Y06997D01*
X38299Y08300D01*
X38299Y08399D01*
X38299Y08999D01*
X38299Y10450D01*
X38299Y10549D01*
X38299Y11149D01*
X38261Y11241D01*
X38191Y11311D01*
X38100Y11349D01*
X38058Y11349D01*
X38058Y11572D01*
X37750Y11879D01*
X37442Y11572D01*
X37469Y11478D01*
X37671Y11407D01*
X37884Y11418D01*
X38031Y11478D01*
X38058Y11572D01*
X38058Y11349D01*
X38001Y11349D01*
X37401Y11349D01*
X37309Y11311D01*
X37239Y11241D01*
X37201Y11150D01*
X37201Y11051D01*
X37201Y10451D01*
X37239Y10359D01*
X37309Y10289D01*
X37400Y10251D01*
X37462Y10251D01*
X37442Y10178D01*
X37750Y09871D01*
X38058Y10178D01*
X38037Y10251D01*
X38099Y10251D01*
X38191Y10289D01*
X38261Y10359D01*
X38299Y10450D01*
X38299Y08999D01*
X38293Y09014D01*
X38293Y09721D01*
X38282Y09934D01*
X38222Y10081D01*
X38128Y10108D01*
X37821Y09800D01*
X38128Y09492D01*
X38222Y09519D01*
X38293Y09721D01*
X38293Y09014D01*
X38261Y09091D01*
X38191Y09161D01*
X38100Y09199D01*
X38058Y09199D01*
X38058Y09422D01*
X37750Y09729D01*
X37679Y09659D01*
X37679Y09800D01*
X37372Y10108D01*
X37278Y10081D01*
X37207Y09879D01*
X37218Y09666D01*
X37278Y09519D01*
X37372Y09492D01*
X37679Y09800D01*
X37679Y09659D01*
X37442Y09422D01*
X37469Y09328D01*
X37671Y09257D01*
X37884Y09268D01*
X38031Y09328D01*
X38058Y09422D01*
X38058Y09199D01*
X38001Y09199D01*
X37401Y09199D01*
X37309Y09161D01*
X37239Y09091D01*
X37201Y09000D01*
X37201Y08901D01*
X37201Y08301D01*
X37239Y08209D01*
X37309Y08139D01*
X37400Y08101D01*
X37462Y08101D01*
X37442Y08028D01*
X37750Y07721D01*
X38058Y08028D01*
X38037Y08101D01*
X38099Y08101D01*
X38191Y08139D01*
X38261Y08209D01*
X38299Y08300D01*
X38299Y06997D01*
X38293Y07003D01*
X38293Y07571D01*
X38282Y07784D01*
X38222Y07931D01*
X38128Y07958D01*
X37821Y07650D01*
X38128Y07342D01*
X38222Y07369D01*
X38293Y07571D01*
X38293Y07003D01*
X38274Y07022D01*
X38160Y07021D01*
X38061Y07021D01*
X38058Y07020D01*
X38058Y07272D01*
X37750Y07579D01*
X37679Y07509D01*
X37679Y07650D01*
X37372Y07958D01*
X37278Y07931D01*
X37207Y07729D01*
X37218Y07516D01*
X37278Y07369D01*
X37372Y07342D01*
X37679Y07650D01*
X37679Y07509D01*
X37442Y07272D01*
X37469Y07178D01*
X37671Y07107D01*
X37884Y07118D01*
X38031Y07178D01*
X38058Y07272D01*
X38058Y07020D01*
X37970Y06983D01*
X37900Y06913D01*
X37862Y06821D01*
X37861Y06392D01*
X37923Y06330D01*
X38336Y06330D01*
X38336Y06230D01*
X37923Y06230D01*
X37861Y06168D01*
X37862Y05739D01*
X37900Y05647D01*
X37970Y05577D01*
X38061Y05539D01*
X38160Y05539D01*
X38274Y05538D01*
X38336Y05600D01*
X38336Y04401D01*
X38274Y04463D01*
X38160Y04462D01*
X38061Y04462D01*
X37970Y04424D01*
X37900Y04354D01*
X37862Y04262D01*
X37861Y03833D01*
X37923Y03771D01*
X38336Y03771D01*
X38336Y03671D01*
X37923Y03671D01*
X37861Y03609D01*
X37862Y03180D01*
X37900Y03088D01*
X37970Y03018D01*
X38061Y02980D01*
X38160Y02980D01*
X38274Y02979D01*
X38336Y03041D01*
X38336Y02270D01*
X38144Y02462D01*
X37727Y02636D01*
X37275Y02636D01*
X36857Y02463D01*
X36538Y02144D01*
X36364Y01727D01*
X36364Y01275D01*
X36537Y00857D01*
X36856Y00538D01*
X37273Y00364D01*
X37725Y00364D01*
X38143Y00537D01*
X38462Y00856D01*
X38636Y01273D01*
X38636Y00325D01*
X34139Y00325D01*
X34223Y00359D01*
X34236Y00443D01*
X34035Y00644D01*
X34000Y00679D01*
X33949Y00730D01*
X33949Y00770D01*
X33980Y00801D01*
X34020Y00801D01*
X34071Y00750D01*
X34106Y00715D01*
X34307Y00514D01*
X34391Y00527D01*
X34446Y00694D01*
X34433Y00870D01*
X34391Y00973D01*
X34368Y00977D01*
X34394Y01002D01*
X34386Y01010D01*
X34449Y01160D01*
X34449Y01289D01*
X35996Y02836D01*
X36614Y02836D01*
X36725Y02858D01*
X36819Y02921D01*
X36858Y02980D01*
X36938Y02980D01*
X37030Y03018D01*
X37100Y03088D01*
X37138Y03179D01*
X37138Y03278D01*
X37138Y04262D01*
X37100Y04354D01*
X37030Y04424D01*
X36939Y04462D01*
X36904Y04462D01*
X36904Y05539D01*
X36938Y05539D01*
X37030Y05577D01*
X37100Y05647D01*
X37138Y05738D01*
X37138Y05837D01*
X37138Y06821D01*
X37100Y06913D01*
X37030Y06983D01*
X36939Y07021D01*
X36840Y07021D01*
X36290Y07021D01*
X36198Y06983D01*
X36128Y06913D01*
X36090Y06822D01*
X36090Y06723D01*
X36090Y05739D01*
X36128Y05647D01*
X36198Y05577D01*
X36289Y05539D01*
X36324Y05539D01*
X36324Y04462D01*
X36290Y04462D01*
X36198Y04424D01*
X36128Y04354D01*
X36090Y04263D01*
X36090Y04164D01*
X36090Y03416D01*
X35876Y03416D01*
X35765Y03394D01*
X35671Y03331D01*
X34039Y01699D01*
X33911Y01699D01*
X33749Y01633D01*
X33590Y01699D01*
X33411Y01699D01*
X33249Y01633D01*
X33090Y01699D01*
X32911Y01699D01*
X32790Y01650D01*
X32790Y07035D01*
X34556Y05269D01*
X34556Y04868D01*
X34578Y04757D01*
X34641Y04663D01*
X34663Y04641D01*
X34757Y04578D01*
X34868Y04556D01*
X35632Y04556D01*
X35743Y04578D01*
X35837Y04641D01*
X35859Y04663D01*
X35922Y04757D01*
X35944Y04868D01*
X35944Y11900D01*
X37213Y11900D01*
X37218Y11816D01*
X37278Y11669D01*
X37372Y11642D01*
X37629Y11900D01*
X37870Y11900D01*
X38128Y11642D01*
X38222Y11669D01*
X38293Y11871D01*
X38291Y11900D01*
X38675Y11900D01*
X38675Y07021D01*
X38612Y07021D01*
X38498Y07022D01*
X38436Y06960D01*
X38436Y06380D01*
X38436Y06330D01*
X38436Y06230D01*
X38436Y06180D01*
X38436Y05600D01*
X38498Y05538D01*
X38612Y05539D01*
X38675Y05539D01*
X38675Y04462D01*
X38612Y04462D01*
X38498Y04463D01*
X38436Y04401D01*
X38436Y03821D01*
X38436Y03771D01*
X38436Y03671D01*
X38436Y03621D01*
X38436Y03041D01*
X38498Y02979D01*
X38612Y02980D01*
X38675Y02980D01*
X38675Y00325D01*
M02*
