G04 (created by PCBNEW-RS274X (2012-01-19 BZR 3256)-stable) date 29/09/2012 11:03:43*
G01*
G70*
G90*
%MOIN*%
G04 Gerber Fmt 3.4, Leading zero omitted, Abs format*
%FSLAX34Y34*%
G04 APERTURE LIST*
%ADD10C,0.006000*%
%ADD11C,0.090000*%
%ADD12R,0.090000X0.090000*%
%ADD13R,0.080000X0.080000*%
%ADD14C,0.080000*%
%ADD15R,0.118400X0.075000*%
%ADD16R,0.060000X0.060000*%
%ADD17C,0.060000*%
%ADD18C,0.106600*%
%ADD19C,0.098700*%
%ADD20R,0.043600X0.088900*%
%ADD21R,0.079100X0.059400*%
%ADD22R,0.059400X0.081000*%
%ADD23R,0.051500X0.079100*%
%ADD24R,0.079100X0.079100*%
%ADD25R,0.063300X0.079100*%
%ADD26C,0.197200*%
%ADD27R,0.075000X0.075000*%
%ADD28C,0.075000*%
G04 APERTURE END LIST*
G54D10*
G54D11*
X02750Y14250D03*
X02750Y15250D03*
G54D12*
X02750Y13250D03*
G54D11*
X02750Y10000D03*
X02750Y11000D03*
G54D12*
X02750Y09000D03*
G54D13*
X04500Y11000D03*
G54D14*
X05500Y11000D03*
G54D13*
X07500Y11000D03*
G54D14*
X06500Y11000D03*
G54D13*
X09500Y11000D03*
G54D14*
X08500Y11000D03*
G54D13*
X12500Y11000D03*
G54D14*
X13500Y11000D03*
G54D13*
X15500Y11000D03*
G54D14*
X14500Y11000D03*
G54D13*
X17500Y11000D03*
G54D14*
X16500Y11000D03*
G54D13*
X20500Y11000D03*
G54D14*
X21500Y11000D03*
G54D13*
X23500Y11000D03*
G54D14*
X22500Y11000D03*
G54D13*
X25500Y11000D03*
G54D14*
X24500Y11000D03*
G54D13*
X28500Y11000D03*
G54D14*
X29500Y11000D03*
G54D13*
X33500Y11000D03*
G54D14*
X32500Y11000D03*
G54D13*
X31500Y11000D03*
G54D14*
X30500Y11000D03*
G54D13*
X12500Y01000D03*
G54D14*
X13500Y01000D03*
X14500Y01000D03*
X15500Y01000D03*
X16500Y01000D03*
X17500Y01000D03*
G54D11*
X09500Y03250D03*
G54D12*
X09500Y02250D03*
G54D11*
X09500Y01250D03*
G54D15*
X34529Y05136D03*
X34529Y03364D03*
X31970Y05136D03*
X31970Y03364D03*
G54D16*
X31250Y01000D03*
G54D17*
X31250Y01500D03*
X31750Y01000D03*
X31750Y01500D03*
X32250Y01000D03*
X32250Y01500D03*
X32750Y01000D03*
X32750Y01500D03*
X33250Y01000D03*
X33250Y01500D03*
G54D13*
X30750Y07250D03*
G54D14*
X30750Y06250D03*
G54D12*
X05500Y03250D03*
G54D11*
X05500Y01250D03*
G54D18*
X18250Y05715D03*
X18250Y03785D03*
G54D19*
X08500Y18000D03*
X10500Y18000D03*
X06500Y18000D03*
X04500Y18000D03*
X16500Y18000D03*
X18500Y18000D03*
X14500Y18000D03*
X12500Y18000D03*
X32500Y18000D03*
X34500Y18000D03*
X30500Y18000D03*
X28500Y18000D03*
X24500Y18000D03*
X26500Y18000D03*
X22500Y18000D03*
X20500Y18000D03*
X01500Y04500D03*
X01500Y06500D03*
G54D20*
X28272Y00445D03*
X25241Y00445D03*
X25674Y00445D03*
X26107Y00445D03*
X26540Y00445D03*
X26973Y00445D03*
X27406Y00445D03*
X27839Y00445D03*
G54D21*
X28705Y04067D03*
G54D22*
X24296Y04678D03*
G54D23*
X28843Y03477D03*
X24138Y03733D03*
G54D24*
X24276Y00465D03*
G54D25*
X28783Y00485D03*
G54D13*
X12000Y05250D03*
G54D14*
X12000Y06250D03*
X12000Y07250D03*
G54D13*
X01000Y15750D03*
G54D14*
X01000Y14750D03*
X01000Y13750D03*
X01000Y12750D03*
G54D13*
X01000Y11500D03*
G54D14*
X01000Y10500D03*
X01000Y09500D03*
X01000Y08500D03*
G54D13*
X37750Y09700D03*
G54D14*
X37750Y08700D03*
X37750Y07700D03*
G54D13*
X37750Y12850D03*
G54D14*
X37750Y11850D03*
X37750Y10850D03*
G54D13*
X37750Y16000D03*
G54D14*
X37750Y15000D03*
X37750Y14000D03*
G54D13*
X37750Y06600D03*
G54D14*
X37750Y05600D03*
G54D13*
X37750Y04500D03*
G54D14*
X37750Y03500D03*
G54D13*
X13500Y03000D03*
G54D14*
X12500Y03000D03*
G54D13*
X16000Y03000D03*
G54D14*
X15000Y03000D03*
G54D26*
X37500Y01500D03*
X37500Y18000D03*
X01500Y18000D03*
X01500Y01500D03*
G54D14*
X35500Y09000D03*
X34500Y09000D03*
X33500Y09000D03*
X32500Y09000D03*
X31500Y09000D03*
X30500Y09000D03*
X29500Y09000D03*
X28500Y09000D03*
X28500Y15000D03*
X29500Y15000D03*
X30500Y15000D03*
X31500Y15000D03*
X32500Y15000D03*
X33500Y15000D03*
X34500Y15000D03*
X35500Y15000D03*
X28500Y10000D03*
X29500Y10000D03*
X30500Y10000D03*
X31500Y10000D03*
X32500Y10000D03*
X33500Y10000D03*
X34500Y10000D03*
X35500Y10000D03*
X27500Y09000D03*
X26500Y09000D03*
X25500Y09000D03*
X24500Y09000D03*
X23500Y09000D03*
X22500Y09000D03*
X21500Y09000D03*
X20500Y09000D03*
X20500Y15000D03*
X21500Y15000D03*
X22500Y15000D03*
X23500Y15000D03*
X24500Y15000D03*
X25500Y15000D03*
X26500Y15000D03*
X27500Y15000D03*
X20500Y10000D03*
X21500Y10000D03*
X22500Y10000D03*
X23500Y10000D03*
X24500Y10000D03*
X25500Y10000D03*
X26500Y10000D03*
X27500Y10000D03*
X19500Y09000D03*
X18500Y09000D03*
X17500Y09000D03*
X16500Y09000D03*
X15500Y09000D03*
X14500Y09000D03*
X13500Y09000D03*
X12500Y09000D03*
X12500Y15000D03*
X13500Y15000D03*
X14500Y15000D03*
X15500Y15000D03*
X16500Y15000D03*
X17500Y15000D03*
X18500Y15000D03*
X19500Y15000D03*
X12500Y10000D03*
X13500Y10000D03*
X14500Y10000D03*
X15500Y10000D03*
X16500Y10000D03*
X17500Y10000D03*
X18500Y10000D03*
X19500Y10000D03*
X11500Y09000D03*
X10500Y09000D03*
X09500Y09000D03*
X08500Y09000D03*
X07500Y09000D03*
X06500Y09000D03*
X05500Y09000D03*
X04500Y09000D03*
X04500Y15000D03*
X05500Y15000D03*
X06500Y15000D03*
X07500Y15000D03*
X08500Y15000D03*
X09500Y15000D03*
X10500Y15000D03*
X11500Y15000D03*
X04500Y10000D03*
X05500Y10000D03*
X06500Y10000D03*
X07500Y10000D03*
X08500Y10000D03*
X09500Y10000D03*
X10500Y10000D03*
X11500Y10000D03*
G54D27*
X05500Y12500D03*
G54D28*
X05500Y13500D03*
G54D27*
X13500Y12500D03*
G54D28*
X13500Y13500D03*
G54D27*
X21500Y12500D03*
G54D28*
X21500Y13500D03*
G54D27*
X29500Y12500D03*
G54D28*
X29500Y13500D03*
M02*
