G04 (created by PCBNEW-RS274X (2012-01-19 BZR 3256)-stable) date 29/09/2012 11:03:43*
G01*
G70*
G90*
%MOIN*%
G04 Gerber Fmt 3.4, Leading zero omitted, Abs format*
%FSLAX34Y34*%
G04 APERTURE LIST*
%ADD10C,0.006000*%
%ADD11C,0.090000*%
%ADD12R,0.090000X0.090000*%
%ADD13R,0.100000X0.164000*%
%ADD14R,0.100000X0.060000*%
%ADD15R,0.075000X0.055000*%
%ADD16R,0.080000X0.080000*%
%ADD17C,0.080000*%
%ADD18R,0.075000X0.030500*%
%ADD19R,0.030500X0.075000*%
%ADD20R,0.118400X0.075000*%
%ADD21R,0.055000X0.075000*%
%ADD22R,0.060000X0.060000*%
%ADD23C,0.060000*%
%ADD24C,0.106600*%
%ADD25R,0.067200X0.197200*%
%ADD26C,0.098700*%
%ADD27R,0.067200X0.067200*%
%ADD28C,0.197200*%
%ADD29R,0.035700X0.043600*%
%ADD30R,0.075000X0.075000*%
%ADD31C,0.075000*%
G04 APERTURE END LIST*
G54D10*
G54D11*
X02750Y14250D03*
X02750Y15250D03*
G54D12*
X02750Y13250D03*
G54D11*
X02750Y10000D03*
X02750Y11000D03*
G54D12*
X02750Y09000D03*
G54D13*
X10550Y06000D03*
G54D14*
X07950Y06000D03*
X07950Y05100D03*
X07950Y06900D03*
G54D15*
X04250Y07375D03*
X04250Y06625D03*
X35500Y12875D03*
X35500Y13625D03*
X35750Y03225D03*
X35750Y02475D03*
X35850Y06475D03*
X35850Y05725D03*
X19500Y13125D03*
X19500Y13875D03*
X11500Y12875D03*
X11500Y13625D03*
X19750Y05875D03*
X19750Y05125D03*
X04250Y05625D03*
X04250Y04875D03*
X05500Y04875D03*
X05500Y05625D03*
X27500Y13125D03*
X27500Y13875D03*
X08250Y01125D03*
X08250Y01875D03*
X08250Y03375D03*
X08250Y02625D03*
X19750Y03125D03*
X19750Y03875D03*
G54D16*
X04500Y11000D03*
G54D17*
X05500Y11000D03*
G54D16*
X07500Y11000D03*
G54D17*
X06500Y11000D03*
G54D16*
X09500Y11000D03*
G54D17*
X08500Y11000D03*
G54D16*
X12500Y11000D03*
G54D17*
X13500Y11000D03*
G54D16*
X15500Y11000D03*
G54D17*
X14500Y11000D03*
G54D16*
X17500Y11000D03*
G54D17*
X16500Y11000D03*
G54D16*
X20500Y11000D03*
G54D17*
X21500Y11000D03*
G54D16*
X23500Y11000D03*
G54D17*
X22500Y11000D03*
G54D16*
X25500Y11000D03*
G54D17*
X24500Y11000D03*
G54D16*
X28500Y11000D03*
G54D17*
X29500Y11000D03*
G54D16*
X33500Y11000D03*
G54D17*
X32500Y11000D03*
G54D16*
X31500Y11000D03*
G54D17*
X30500Y11000D03*
G54D16*
X12500Y01000D03*
G54D17*
X13500Y01000D03*
X14500Y01000D03*
X15500Y01000D03*
X16500Y01000D03*
X17500Y01000D03*
G54D11*
X09500Y03250D03*
G54D12*
X09500Y02250D03*
G54D11*
X09500Y01250D03*
G54D18*
X22750Y05334D03*
G54D19*
X23416Y02500D03*
G54D18*
X26250Y03166D03*
G54D19*
X25584Y06000D03*
G54D18*
X22750Y05137D03*
G54D19*
X23613Y02500D03*
G54D18*
X26250Y03363D03*
G54D19*
X25387Y06000D03*
G54D18*
X22750Y04940D03*
G54D19*
X23810Y02500D03*
G54D18*
X26250Y03560D03*
G54D19*
X25190Y06000D03*
G54D18*
X22750Y04743D03*
G54D19*
X24007Y02500D03*
G54D18*
X26250Y03757D03*
G54D19*
X24993Y06000D03*
G54D18*
X22750Y04546D03*
G54D19*
X24204Y02500D03*
G54D18*
X26250Y03954D03*
G54D19*
X24796Y06000D03*
G54D18*
X22750Y04349D03*
G54D19*
X24401Y02500D03*
G54D18*
X26250Y04151D03*
G54D19*
X24599Y06000D03*
G54D18*
X22750Y04152D03*
G54D19*
X24598Y02500D03*
G54D18*
X26250Y04348D03*
G54D19*
X24402Y06000D03*
G54D18*
X22750Y03955D03*
G54D19*
X24795Y02500D03*
G54D18*
X26250Y04545D03*
G54D19*
X24205Y06000D03*
G54D18*
X22750Y03758D03*
G54D19*
X24992Y02500D03*
G54D18*
X26250Y04742D03*
G54D19*
X24008Y06000D03*
G54D18*
X22750Y03561D03*
G54D19*
X25189Y02500D03*
G54D18*
X26250Y04939D03*
G54D19*
X23811Y06000D03*
G54D18*
X22750Y03364D03*
G54D19*
X25386Y02500D03*
G54D18*
X26250Y05136D03*
G54D19*
X23614Y06000D03*
G54D18*
X22750Y03167D03*
G54D19*
X25583Y02500D03*
G54D18*
X26250Y05333D03*
G54D19*
X23417Y06000D03*
G54D20*
X34529Y05136D03*
X34529Y03364D03*
X31970Y05136D03*
X31970Y03364D03*
G54D15*
X27950Y05625D03*
X27950Y04875D03*
G54D21*
X26625Y02500D03*
X27375Y02500D03*
G54D15*
X20750Y05875D03*
X20750Y05125D03*
X28650Y05625D03*
X28650Y04875D03*
X20750Y03125D03*
X20750Y03875D03*
G54D21*
X22725Y06500D03*
X21975Y06500D03*
G54D15*
X19750Y00625D03*
X19750Y01375D03*
G54D21*
X27965Y06520D03*
X28715Y06520D03*
G54D15*
X20750Y00625D03*
X20750Y01375D03*
X21750Y01375D03*
X21750Y00625D03*
G54D22*
X31250Y01000D03*
G54D23*
X31250Y01500D03*
X31750Y01000D03*
X31750Y01500D03*
X32250Y01000D03*
X32250Y01500D03*
X32750Y01000D03*
X32750Y01500D03*
X33250Y01000D03*
X33250Y01500D03*
G54D16*
X30750Y07250D03*
G54D17*
X30750Y06250D03*
G54D15*
X35850Y05225D03*
X35850Y04475D03*
X35550Y01975D03*
X35550Y01225D03*
G54D12*
X05500Y03250D03*
G54D11*
X05500Y01250D03*
G54D24*
X18250Y05715D03*
G54D25*
X18250Y02939D03*
X18250Y06561D03*
G54D24*
X18250Y03785D03*
G54D26*
X08500Y18000D03*
X10500Y18000D03*
X06500Y18000D03*
X04500Y18000D03*
X16500Y18000D03*
X18500Y18000D03*
X14500Y18000D03*
X12500Y18000D03*
X32500Y18000D03*
X34500Y18000D03*
X30500Y18000D03*
X28500Y18000D03*
X24500Y18000D03*
X26500Y18000D03*
X22500Y18000D03*
X20500Y18000D03*
X01500Y04500D03*
X01500Y06500D03*
G54D15*
X06750Y06625D03*
X06750Y07375D03*
G54D27*
X05500Y06587D03*
X05500Y07413D03*
G54D16*
X12000Y05250D03*
G54D17*
X12000Y06250D03*
X12000Y07250D03*
G54D16*
X01000Y15750D03*
G54D17*
X01000Y14750D03*
X01000Y13750D03*
X01000Y12750D03*
G54D16*
X01000Y11500D03*
G54D17*
X01000Y10500D03*
X01000Y09500D03*
X01000Y08500D03*
G54D16*
X37750Y09700D03*
G54D17*
X37750Y08700D03*
X37750Y07700D03*
G54D16*
X37750Y12850D03*
G54D17*
X37750Y11850D03*
X37750Y10850D03*
G54D16*
X37750Y16000D03*
G54D17*
X37750Y15000D03*
X37750Y14000D03*
G54D16*
X37750Y06600D03*
G54D17*
X37750Y05600D03*
G54D16*
X37750Y04500D03*
G54D17*
X37750Y03500D03*
G54D16*
X13500Y03000D03*
G54D17*
X12500Y03000D03*
G54D16*
X16000Y03000D03*
G54D17*
X15000Y03000D03*
G54D28*
X37500Y01500D03*
X37500Y18000D03*
X01500Y18000D03*
X01500Y01500D03*
G54D17*
X35500Y09000D03*
X34500Y09000D03*
X33500Y09000D03*
X32500Y09000D03*
X31500Y09000D03*
X30500Y09000D03*
X29500Y09000D03*
X28500Y09000D03*
X28500Y15000D03*
X29500Y15000D03*
X30500Y15000D03*
X31500Y15000D03*
X32500Y15000D03*
X33500Y15000D03*
X34500Y15000D03*
X35500Y15000D03*
X28500Y10000D03*
X29500Y10000D03*
X30500Y10000D03*
X31500Y10000D03*
X32500Y10000D03*
X33500Y10000D03*
X34500Y10000D03*
X35500Y10000D03*
X27500Y09000D03*
X26500Y09000D03*
X25500Y09000D03*
X24500Y09000D03*
X23500Y09000D03*
X22500Y09000D03*
X21500Y09000D03*
X20500Y09000D03*
X20500Y15000D03*
X21500Y15000D03*
X22500Y15000D03*
X23500Y15000D03*
X24500Y15000D03*
X25500Y15000D03*
X26500Y15000D03*
X27500Y15000D03*
X20500Y10000D03*
X21500Y10000D03*
X22500Y10000D03*
X23500Y10000D03*
X24500Y10000D03*
X25500Y10000D03*
X26500Y10000D03*
X27500Y10000D03*
X19500Y09000D03*
X18500Y09000D03*
X17500Y09000D03*
X16500Y09000D03*
X15500Y09000D03*
X14500Y09000D03*
X13500Y09000D03*
X12500Y09000D03*
X12500Y15000D03*
X13500Y15000D03*
X14500Y15000D03*
X15500Y15000D03*
X16500Y15000D03*
X17500Y15000D03*
X18500Y15000D03*
X19500Y15000D03*
X12500Y10000D03*
X13500Y10000D03*
X14500Y10000D03*
X15500Y10000D03*
X16500Y10000D03*
X17500Y10000D03*
X18500Y10000D03*
X19500Y10000D03*
X11500Y09000D03*
X10500Y09000D03*
X09500Y09000D03*
X08500Y09000D03*
X07500Y09000D03*
X06500Y09000D03*
X05500Y09000D03*
X04500Y09000D03*
X04500Y15000D03*
X05500Y15000D03*
X06500Y15000D03*
X07500Y15000D03*
X08500Y15000D03*
X09500Y15000D03*
X10500Y15000D03*
X11500Y15000D03*
X04500Y10000D03*
X05500Y10000D03*
X06500Y10000D03*
X07500Y10000D03*
X08500Y10000D03*
X09500Y10000D03*
X10500Y10000D03*
X11500Y10000D03*
G54D29*
X07073Y03500D03*
X07427Y03500D03*
X07073Y02500D03*
X07427Y02500D03*
G54D15*
X23250Y01375D03*
X23250Y00625D03*
G54D30*
X05500Y12500D03*
G54D31*
X05500Y13500D03*
G54D30*
X13500Y12500D03*
G54D31*
X13500Y13500D03*
G54D30*
X21500Y12500D03*
G54D31*
X21500Y13500D03*
G54D30*
X29500Y12500D03*
G54D31*
X29500Y13500D03*
M02*
