M48
INCH,TZ
T1C0.025
T2C0.026
T3C0.032
T4C0.039
T5C0.040
T6C0.043
T7C0.045
T8C0.122
%
G90
G05
T1
X9219Y4829
X12814Y7901
X13313Y7834
X20060Y7719
X20976Y7421
X21930Y3380
X22500Y310
X23283Y5047
X23295Y4608
X23998Y5461
X24035Y6535
X24533Y3060
X24608Y1801
X24650Y13100
X24780Y990
X24900Y8020
X24995Y4355
X25186Y3036
X25553Y4151
X25944Y2202
X26960Y7950
X26970Y1110
X27840Y1140
X28190Y2550
X29380Y2220
X29900Y1730
X30663Y3108
X33002Y5433
X34894Y7246
T2
X31250Y1500
X31250Y1000
X31750Y1500
X31750Y1000
X32250Y1500
X32250Y1000
X32750Y1500
X32750Y1000
X33250Y1500
X33250Y1000
T3
X4500Y15000
X4500Y10000
X4500Y9000
X5500Y15000
X5500Y13500
X5500Y12500
X5500Y10000
X5500Y9000
X6500Y15000
X6500Y10000
X6500Y9000
X7500Y15000
X7500Y10000
X7500Y9000
X8500Y15000
X8500Y10000
X8500Y9000
X9500Y15000
X9500Y10000
X9500Y9000
X10500Y15000
X10500Y10000
X10500Y9000
X11500Y15000
X11500Y10000
X11500Y9000
X12500Y15000
X12500Y10000
X12500Y9000
X13500Y15000
X13500Y13500
X13500Y12500
X13500Y10000
X13500Y9000
X14500Y15000
X14500Y10000
X14500Y9000
X15500Y15000
X15500Y10000
X15500Y9000
X16500Y15000
X16500Y10000
X16500Y9000
X17500Y15000
X17500Y10000
X17500Y9000
X18500Y15000
X18500Y10000
X18500Y9000
X19500Y15000
X19500Y10000
X19500Y9000
X20500Y15000
X20500Y10000
X20500Y9000
X21500Y15000
X21500Y13500
X21500Y12500
X21500Y10000
X21500Y9000
X22500Y15000
X22500Y10000
X22500Y9000
X23500Y15000
X23500Y10000
X23500Y9000
X24500Y15000
X24500Y10000
X24500Y9000
X25500Y15000
X25500Y10000
X25500Y9000
X26500Y15000
X26500Y10000
X26500Y9000
X27500Y15000
X27500Y10000
X27500Y9000
X28500Y15000
X28500Y10000
X28500Y9000
X29500Y15000
X29500Y13500
X29500Y12500
X29500Y10000
X29500Y9000
X30500Y15000
X30500Y10000
X30500Y9000
X31500Y15000
X31500Y10000
X31500Y9000
X32500Y15000
X32500Y10000
X32500Y9000
X33500Y15000
X33500Y10000
X33500Y9000
X34500Y15000
X34500Y10000
X34500Y9000
X35500Y15000
X35500Y10000
X35500Y9000
T4
X31970Y5136
X31970Y3364
X34529Y5136
X34529Y3364
T5
X1000Y15750
X1000Y14750
X1000Y13750
X1000Y12750
X1000Y11500
X1000Y10500
X1000Y9500
X1000Y8500
X2750Y15250
X2750Y14250
X2750Y13250
X2750Y11000
X2750Y10000
X2750Y9000
X4500Y11000
X5500Y11000
X5500Y3250
X5500Y1250
X6500Y11000
X7500Y11000
X8500Y11000
X9500Y11000
X12000Y7250
X12000Y6250
X12000Y5250
X12500Y11000
X12500Y3000
X12500Y1000
X13500Y11000
X13500Y3000
X13500Y1000
X14500Y11000
X14500Y1000
X15000Y3000
X15500Y11000
X15500Y1000
X16000Y3000
X16500Y11000
X16500Y1000
X17500Y11000
X17500Y1000
X18250Y5715
X18250Y3785
X20500Y11000
X21500Y11000
X22500Y11000
X23500Y11000
X24500Y11000
X25500Y11000
X28500Y11000
X29500Y11000
X30500Y11000
X30750Y7250
X30750Y6250
X31500Y11000
X32500Y11000
X33500Y11000
X37750Y16000
X37750Y15000
X37750Y14000
X37750Y12850
X37750Y11850
X37750Y10850
X37750Y9700
X37750Y8700
X37750Y7700
X37750Y6600
X37750Y5600
X37750Y4500
X37750Y3500
T6
X1500Y6500
X1500Y4500
X4500Y18000
X6500Y18000
X8500Y18000
X10500Y18000
X12500Y18000
X14500Y18000
X16500Y18000
X18500Y18000
X20500Y18000
X22500Y18000
X24500Y18000
X26500Y18000
X28500Y18000
X30500Y18000
X32500Y18000
X34500Y18000
T7
X9500Y3250
X9500Y2250
X9500Y1250
T8
X1500Y18000
X1500Y1500
X37500Y18000
X37500Y1500
T0
M30
