M48
INCH,TZ
T1C0.020
T2C0.032
T3C0.039
T4C0.039
T5C0.040
T6C0.047
T7C0.049
T8C0.051
T9C0.067
T10C0.122
T11C0.154
%
G90
G05
T1
X0.075Y1.475
X0.075Y1.25
X0.125Y1.425
X0.125Y1.3
X0.175Y1.475
X0.175Y1.25
X0.2Y1.375
X0.225Y1.425
X0.225Y1.3
X0.25Y1.475
X0.275Y1.375
X0.3Y1.425
X0.3Y1.3
X0.325Y1.475
X0.525Y1.25
X0.5293Y3.9545
X0.5293Y3.8679
X0.5293Y3.7813
X0.535Y3.295
X0.6278Y3.9624
X0.7222Y3.9624
X0.775Y3.285
X0.8207Y3.9545
X0.8207Y3.8679
X0.8207Y3.7813
X0.89Y1.485
X0.95Y0.6
X0.95Y0.5
X0.95Y0.4
X0.95Y0.3
X0.95Y0.2
X0.95Y0.1
X1.Y2.975
X1.Y0.65
X1.Y0.55
X1.Y0.45
X1.Y0.35
X1.Y0.25
X1.Y0.15
X1.Y0.05
X1.02Y2.76
X1.025Y0.1
X1.0293Y3.9545
X1.0293Y3.8679
X1.0293Y3.7813
X1.03Y3.3
X1.04Y2.905
X1.05Y2.805
X1.05Y0.6
X1.05Y0.4
X1.075Y0.65
X1.075Y0.05
X1.08Y0.225
X1.09Y3.015
X1.105Y0.85
X1.125Y0.6
X1.125Y0.4
X1.1278Y3.9624
X1.145Y2.195
X1.15Y0.65
X1.15Y0.05
X1.16Y1.24
X1.16Y0.895
X1.175Y0.15
X1.18Y1.85
X1.185Y2.16
X1.2Y0.6
X1.2Y0.4
X1.2Y0.225
X1.22Y1.235
X1.22Y0.905
X1.2222Y3.9624
X1.225Y0.05
X1.23Y1.855
X1.2325Y2.16
X1.25Y0.65
X1.25Y0.55
X1.25Y0.45
X1.25Y0.35
X1.25Y0.275
X1.265Y3.265
X1.3Y0.6
X1.3Y0.05
X1.3207Y3.9545
X1.3207Y3.8679
X1.3207Y3.7813
X1.325Y0.65
X1.325Y0.55
X1.325Y0.45
X1.325Y0.35
X1.325Y0.25
X1.375Y0.6
X1.375Y0.5
X1.375Y0.4
X1.375Y0.3
X1.375Y0.05
X1.5293Y3.9545
X1.5293Y3.8679
X1.5293Y3.7813
X1.54Y3.29
X1.6278Y3.9624
X1.7222Y3.9624
X1.73Y0.885
X1.77Y3.26
X1.8207Y3.9545
X1.8207Y3.8679
X1.8207Y3.7813
X1.885Y2.575
X1.89Y2.72
X1.905Y0.49
X1.98Y2.77
X2.0293Y3.9545
X2.0293Y3.8679
X2.0293Y3.7813
X2.03Y3.295
X2.1278Y3.9624
X2.17Y0.385
X2.19Y0.805
X2.2222Y3.9624
X2.275Y3.255
X2.3207Y3.9545
X2.3207Y3.8679
X2.3207Y3.7813
X2.5293Y3.9545
X2.5293Y3.8679
X2.5293Y3.7813
X2.53Y3.29
X2.535Y1.725
X2.575Y3.25
X2.6278Y3.9624
X2.7222Y3.9624
X2.8207Y3.9545
X2.8207Y3.8679
X2.8207Y3.7813
X2.9Y3.255
X3.0293Y3.9545
X3.0293Y3.8679
X3.0293Y3.7813
X3.03Y3.295
X3.095Y1.34
X3.105Y2.26
X3.1278Y3.9624
X3.2222Y3.9624
X3.3207Y3.9545
X3.3207Y3.8679
X3.3207Y3.7813
X3.34Y2.26
X3.35Y1.32
X3.525Y3.295
X3.5293Y3.9545
X3.5293Y3.8679
X3.5293Y3.7813
X3.585Y3.245
X3.6278Y3.9624
X3.7222Y3.9624
X3.8207Y3.9545
X3.8207Y3.8679
X3.8207Y3.7813
X3.88Y3.255
X3.945Y2.225
X3.95Y1.35
X4.0293Y3.9545
X4.0293Y3.8679
X4.0293Y3.7813
X4.035Y3.29
X4.1278Y3.9624
X4.215Y2.6
X4.2222Y3.9624
X4.3207Y3.9545
X4.3207Y3.8679
X4.3207Y3.7813
X4.385Y2.025
X4.395Y3.255
X4.4Y0.9
X4.5293Y3.9545
X4.5293Y3.8679
X4.5293Y3.7813
X4.53Y3.29
X4.55Y1.275
X4.59Y0.6
X4.6278Y3.9624
X4.642Y0.991
X4.708Y0.834
X4.715Y1.024
X4.7222Y3.9624
X4.785Y2.035
X4.785Y1.24
X4.81Y0.996
X4.8207Y3.9545
X4.8207Y3.8679
X4.8207Y3.7813
X4.875Y3.255
X4.875Y0.915
X4.88Y0.575
X4.89Y1.93
X4.925Y0.85
X5.025Y0.85
X5.0293Y3.9545
X5.0293Y3.8679
X5.0293Y3.7813
X5.03Y3.29
X5.09Y0.755
X5.1278Y3.9624
X5.145Y0.28
X5.16Y0.83
X5.2222Y3.9624
X5.3207Y3.9545
X5.3207Y3.8679
X5.3207Y3.7813
X5.415Y2.895
X5.5078Y3.0501
T2
X1.3Y2.775
X1.3Y2.675
X1.3Y2.575
X1.3Y2.475
X1.3Y2.375
X1.3Y2.275
X1.3Y2.175
X1.3Y2.075
X1.3Y1.875
X1.3Y1.775
X1.3Y1.675
X1.3Y1.575
X1.3Y1.475
X1.3Y1.375
X1.3Y1.275
X1.3Y1.175
X1.8Y2.775
X1.8Y2.675
X1.8Y2.575
X1.8Y2.475
X1.8Y2.375
X1.8Y2.275
X1.8Y2.175
X1.8Y2.075
X1.8Y1.875
X1.8Y1.775
X1.8Y1.675
X1.8Y1.575
X1.8Y1.475
X1.8Y1.375
X1.8Y1.275
X1.8Y1.175
X2.15Y2.775
X2.15Y2.675
X2.15Y2.575
X2.15Y2.475
X2.15Y2.375
X2.15Y2.275
X2.15Y2.175
X2.15Y2.075
X2.15Y1.875
X2.15Y1.775
X2.15Y1.675
X2.15Y1.575
X2.15Y1.475
X2.15Y1.375
X2.15Y1.275
X2.15Y1.175
X2.65Y2.775
X2.65Y2.675
X2.65Y2.575
X2.65Y2.475
X2.65Y2.375
X2.65Y2.275
X2.65Y2.175
X2.65Y2.075
X2.65Y1.875
X2.65Y1.775
X2.65Y1.675
X2.65Y1.575
X2.65Y1.475
X2.65Y1.375
X2.65Y1.275
X2.65Y1.175
X3.Y2.775
X3.Y2.675
X3.Y2.575
X3.Y2.475
X3.Y2.375
X3.Y2.275
X3.Y2.175
X3.Y2.075
X3.Y1.875
X3.Y1.775
X3.Y1.675
X3.Y1.575
X3.Y1.475
X3.Y1.375
X3.Y1.275
X3.Y1.175
X3.5Y2.775
X3.5Y2.675
X3.5Y2.575
X3.5Y2.475
X3.5Y2.375
X3.5Y2.275
X3.5Y2.175
X3.5Y2.075
X3.5Y1.875
X3.5Y1.775
X3.5Y1.675
X3.5Y1.575
X3.5Y1.475
X3.5Y1.375
X3.5Y1.275
X3.5Y1.175
X3.85Y2.775
X3.85Y2.675
X3.85Y2.575
X3.85Y2.475
X3.85Y2.375
X3.85Y2.275
X3.85Y2.175
X3.85Y2.075
X3.85Y1.875
X3.85Y1.775
X3.85Y1.675
X3.85Y1.575
X3.85Y1.475
X3.85Y1.375
X3.85Y1.275
X3.85Y1.175
X4.35Y2.775
X4.35Y2.675
X4.35Y2.575
X4.35Y2.475
X4.35Y2.375
X4.35Y2.275
X4.35Y2.175
X4.35Y2.075
X4.35Y1.875
X4.35Y1.775
X4.35Y1.675
X4.35Y1.575
X4.35Y1.475
X4.35Y1.375
X4.35Y1.275
X4.35Y1.175
X4.95Y2.775
X4.95Y2.675
X4.95Y2.575
X4.95Y2.475
X4.95Y2.375
X4.95Y2.275
X4.95Y2.175
X4.95Y2.075
X4.95Y1.875
X4.95Y1.775
X4.95Y1.675
X4.95Y1.575
X4.95Y1.475
X4.95Y1.375
X4.95Y1.275
X4.95Y1.175
X5.45Y2.775
X5.45Y2.675
X5.45Y2.575
X5.45Y2.475
X5.45Y2.375
X5.45Y2.275
X5.45Y2.175
X5.45Y2.075
X5.45Y1.875
X5.45Y1.775
X5.45Y1.675
X5.45Y1.575
X5.45Y1.475
X5.45Y1.375
X5.45Y1.275
X5.45Y1.175
T3
X5.0364Y0.075
X5.2136Y0.075
T4
X1.125Y2.575
X1.125Y2.475
X1.125Y2.375
X1.125Y2.275
X1.125Y1.675
X1.125Y1.575
X1.125Y1.475
X1.125Y1.375
X1.425Y2.575
X1.425Y2.475
X1.425Y2.375
X1.425Y1.675
X1.425Y1.575
X1.425Y1.475
X1.525Y2.575
X1.525Y2.475
X1.525Y2.375
X1.525Y1.675
X1.525Y1.575
X1.525Y1.475
X1.625Y3.1
X1.725Y3.1
X1.8Y0.575
X1.8Y0.475
X1.825Y3.1
X1.925Y3.1
X1.975Y2.575
X1.975Y2.475
X1.975Y2.375
X1.975Y2.275
X1.975Y1.675
X1.975Y1.575
X1.975Y1.475
X1.975Y1.375
X1.975Y0.65
X2.075Y0.65
X2.125Y3.1
X2.2Y0.65
X2.225Y3.1
X2.275Y2.6
X2.275Y2.5
X2.275Y2.4
X2.275Y1.7
X2.275Y1.6
X2.275Y1.5
X2.3Y0.65
X2.375Y3.1
X2.375Y2.6
X2.375Y2.5
X2.375Y2.4
X2.375Y1.7
X2.375Y1.6
X2.375Y1.5
X2.475Y3.1
X2.5Y0.65
X2.6Y0.65
X2.675Y3.1
X2.725Y0.65
X2.775Y3.1
X2.825Y2.575
X2.825Y2.475
X2.825Y2.375
X2.825Y2.275
X2.825Y1.675
X2.825Y1.575
X2.825Y1.475
X2.825Y1.375
X2.825Y0.65
X2.925Y3.1
X3.025Y3.1
X3.025Y0.65
X3.125Y2.6
X3.125Y2.5
X3.125Y2.4
X3.125Y1.7
X3.125Y1.6
X3.125Y1.5
X3.125Y0.65
X3.225Y3.1
X3.225Y2.6
X3.225Y2.5
X3.225Y2.4
X3.225Y1.7
X3.225Y1.6
X3.225Y1.5
X3.25Y0.65
X3.325Y3.1
X3.35Y0.65
X3.425Y3.1
X3.525Y3.1
X3.55Y0.65
X3.65Y0.65
X3.675Y2.575
X3.675Y2.475
X3.675Y2.375
X3.675Y2.275
X3.675Y1.675
X3.675Y1.575
X3.675Y1.475
X3.675Y1.375
X3.7Y3.1
X3.775Y0.65
X3.8Y3.1
X3.875Y0.65
X3.95Y3.1
X3.975Y2.6
X3.975Y2.5
X3.975Y2.4
X3.975Y1.7
X3.975Y1.6
X3.975Y1.5
X4.05Y3.1
X4.075Y2.6
X4.075Y2.5
X4.075Y2.4
X4.075Y1.7
X4.075Y1.6
X4.075Y1.5
X4.075Y0.65
X4.175Y0.65
X4.25Y3.1
X4.35Y3.1
X4.5Y3.1
X4.6Y3.1
X4.75Y2.575
X4.75Y2.475
X4.75Y2.375
X4.75Y2.275
X4.75Y1.675
X4.75Y1.575
X4.75Y1.475
X4.75Y1.375
X4.8Y3.1
X4.9Y3.1
X5.05Y3.1
X5.075Y2.6
X5.075Y2.5
X5.075Y2.4
X5.075Y1.675
X5.075Y1.575
X5.075Y1.475
X5.125Y0.95
X5.15Y3.1
X5.175Y2.6
X5.175Y2.5
X5.175Y2.4
X5.175Y1.675
X5.175Y1.575
X5.175Y1.475
X5.225Y0.95
X5.325Y0.95
X5.425Y0.95
T5
X0.5Y4.25
X0.535Y3.665
X0.675Y4.1
X0.775Y4.1
X0.8Y4.25
X1.03Y3.665
X1.175Y4.1
X1.275Y4.25
X1.275Y4.1
X1.49Y2.875
X1.53Y3.665
X1.59Y2.875
X1.675Y4.1
X1.69Y2.875
X1.775Y4.1
X1.79Y2.875
X1.8Y4.25
X1.85Y0.975
X1.89Y2.875
X1.95Y0.975
X1.975Y0.125
X1.99Y2.875
X2.02Y3.665
X2.05Y0.975
X2.075Y0.125
X2.09Y2.875
X2.15Y0.975
X2.175Y4.1
X2.19Y2.875
X2.225Y0.125
X2.25Y0.975
X2.275Y4.25
X2.275Y4.1
X2.29Y2.875
X2.325Y0.125
X2.35Y0.975
X2.39Y2.875
X2.45Y0.975
X2.5Y0.125
X2.525Y3.66
X2.55Y2.875
X2.55Y0.975
X2.6Y0.125
X2.65Y2.875
X2.675Y4.1
X2.75Y2.875
X2.75Y0.975
X2.775Y4.1
X2.775Y0.125
X2.8Y4.25
X2.85Y2.875
X2.85Y0.975
X2.875Y0.125
X2.95Y2.875
X2.95Y0.975
X3.02Y3.66
X3.05Y2.875
X3.05Y0.975
X3.05Y0.125
X3.15Y2.875
X3.15Y0.975
X3.15Y0.125
X3.175Y4.1
X3.25Y2.875
X3.25Y0.975
X3.275Y4.25
X3.275Y4.1
X3.3Y0.125
X3.35Y0.975
X3.4Y0.125
X3.45Y2.875
X3.45Y0.975
X3.525Y3.66
X3.55Y2.875
X3.575Y0.125
X3.65Y2.875
X3.65Y0.975
X3.675Y4.1
X3.675Y0.125
X3.75Y2.875
X3.75Y0.975
X3.775Y4.1
X3.8Y4.25
X3.825Y0.125
X3.85Y2.875
X3.85Y0.975
X3.925Y0.125
X3.95Y2.875
X3.95Y0.975
X4.03Y3.66
X4.05Y2.875
X4.05Y0.975
X4.1Y0.125
X4.15Y2.875
X4.15Y0.975
X4.175Y4.1
X4.2Y0.125
X4.25Y0.975
X4.275Y4.25
X4.275Y4.1
X4.3Y0.65
X4.35Y0.975
X4.35Y0.125
X4.4Y0.65
X4.45Y2.875
X4.45Y2.775
X4.45Y2.675
X4.45Y2.575
X4.45Y2.475
X4.45Y2.375
X4.45Y2.275
X4.45Y2.175
X4.45Y2.075
X4.45Y1.975
X4.45Y1.875
X4.45Y1.775
X4.45Y1.675
X4.45Y1.575
X4.45Y1.475
X4.45Y1.375
X4.45Y1.275
X4.45Y1.175
X4.45Y0.125
X4.525Y3.665
X4.55Y2.875
X4.55Y2.775
X4.55Y2.675
X4.55Y2.575
X4.55Y2.475
X4.55Y2.375
X4.55Y2.275
X4.55Y2.175
X4.55Y2.075
X4.55Y1.975
X4.55Y1.875
X4.55Y1.775
X4.55Y1.675
X4.55Y1.575
X4.55Y1.475
X4.55Y1.375
X4.55Y1.275
X4.55Y1.175
X4.675Y4.1
X4.7Y0.375
X4.7Y0.275
X4.7Y0.175
X4.775Y4.1
X4.8Y4.25
X4.8Y0.375
X4.8Y0.275
X4.8Y0.175
X5.015Y3.66
X5.15Y4.1
X5.25Y4.25
X5.25Y4.1
T6
X0.1776Y1.7189
X0.1776Y1.5811
T7
X0.175Y1.
X0.175Y0.8
X0.175Y0.6
X0.175Y0.4
T8
X4.9872Y0.1734
X5.2628Y0.1734
T9
X0.1081Y3.1669
X0.1081Y2.7831
X0.1081Y2.3919
X0.1081Y2.0081
X0.2419Y3.1669
X0.2419Y2.7831
X0.2419Y2.3919
X0.2419Y2.0081
X0.4831Y2.4419
X0.4831Y2.3081
X0.8669Y2.4419
X0.8669Y2.3081
T10
X-0.1969Y4.2126
X-0.1969Y0.1181
X5.4724Y4.2126
X5.4724Y0.1181
T11
X0.725Y1.9807
X0.725Y1.65
X0.725Y1.15
X0.725Y0.8193
T0
M30
