%FSTAX43Y43*%
%MOMM*%
G71*
G01*
G75*
%ADD10R,2.540X1.524*%
%ADD11R,1.524X1.524*%
%ADD12R,0.600X1.000*%
%ADD13R,1.143X1.270*%
%ADD14R,1.524X1.524*%
%ADD15R,1.700X1.200*%
%ADD16R,1.270X1.143*%
%ADD17R,0.762X0.762*%
%ADD18R,1.100X1.000*%
%ADD19R,2.400X1.000*%
%ADD20R,3.000X1.400*%
%ADD21R,6.500X6.000*%
%ADD22R,1.000X0.600*%
%ADD23R,0.500X1.600*%
%ADD24R,4.500X4.200*%
G04:AMPARAMS|DCode=25|XSize=3mm|YSize=1mm|CornerRadius=0mm|HoleSize=0mm|Usage=FLASHONLY|Rotation=180.000|XOffset=0mm|YOffset=0mm|HoleType=Round|Shape=Octagon|*
%AMOCTAGOND25*
4,1,8,-1.500,0.250,-1.500,-0.250,-1.250,-0.500,1.250,-0.500,1.500,-0.250,1.500,0.250,1.250,0.500,-1.250,0.500,-1.500,0.250,0.0*
%
%ADD25OCTAGOND25*%

%ADD26R,2.400X1.050*%
%ADD27R,8.900X10.650*%
%ADD28R,1.200X1.700*%
%ADD29R,2.000X1.000*%
%ADD30R,1.200X1.150*%
%ADD31R,1.100X1.100*%
%ADD32R,0.700X1.000*%
%ADD33R,1.000X0.600*%
%ADD34R,1.000X0.700*%
%ADD35R,0.900X1.400*%
%ADD36R,1.200X1.450*%
%ADD37O,0.450X1.700*%
%ADD38R,0.450X1.700*%
%ADD39R,0.762X0.762*%
%ADD40C,0.600*%
%ADD41C,0.500*%
%ADD42C,0.400*%
%ADD43C,0.300*%
%ADD44C,1.200*%
%ADD45C,1.000*%
%ADD46C,1.500*%
%ADD47C,2.540*%
%ADD48C,0.800*%
%ADD49C,2.000*%
%ADD50C,0.700*%
%ADD51C,1.700*%
%ADD52C,1.300*%
%ADD53C,5.500*%
%ADD54C,5.000*%
%ADD55C,1.400*%
%ADD56C,1.600*%
%ADD57C,0.254*%
%ADD58C,0.152*%
%ADD59R,1.500X1.500*%
%ADD60C,1.500*%
%ADD61C,3.000*%
%ADD62R,1.500X1.500*%
%ADD63R,6.000X5.500*%
%ADD64C,2.500*%
%ADD65C,2.000*%
%ADD66C,1.200*%
%ADD67C,1.000*%
D10*
X00586Y00884D02*
D03*
Y0084971D02*
D03*
X00546Y0085D02*
D03*
Y0088429D02*
D03*
X00127Y00884D02*
D03*
Y0084971D02*
D03*
X00168Y0085D02*
D03*
Y0088429D02*
D03*
X00209Y0085D02*
D03*
Y0088429D02*
D03*
X00256Y0085D02*
D03*
Y0088429D02*
D03*
X00336Y00884D02*
D03*
Y0084971D02*
D03*
X00296Y0085D02*
D03*
Y0088429D02*
D03*
X00382Y0085D02*
D03*
Y0088429D02*
D03*
X00422Y0085D02*
D03*
Y0088429D02*
D03*
X00462Y00884D02*
D03*
Y0084971D02*
D03*
X00506Y0085D02*
D03*
Y0088429D02*
D03*
X00634D02*
D03*
Y0085D02*
D03*
X00675Y0088429D02*
D03*
Y0085D02*
D03*
X00716Y0085071D02*
D03*
Y00885D02*
D03*
X00773Y00851D02*
D03*
Y0088529D02*
D03*
X00814Y00851D02*
D03*
Y0088529D02*
D03*
X00855Y00885D02*
D03*
Y0085071D02*
D03*
X00899Y0085D02*
D03*
Y0088429D02*
D03*
X00941Y0085D02*
D03*
Y0088429D02*
D03*
X00982Y00885D02*
D03*
Y0085071D02*
D03*
X01025Y0085D02*
D03*
Y0088429D02*
D03*
X01105Y00884D02*
D03*
Y0084971D02*
D03*
X01065Y0085D02*
D03*
Y0088429D02*
D03*
X0115Y0085D02*
D03*
Y0088429D02*
D03*
X01359Y0088429D02*
D03*
Y0085D02*
D03*
X01318Y0088429D02*
D03*
Y0085D02*
D03*
X01277Y0084971D02*
D03*
Y00884D02*
D03*
X0123D02*
D03*
Y0084971D02*
D03*
X0119Y0085D02*
D03*
Y0088429D02*
D03*
D11*
X00224Y00471D02*
D03*
Y0050529D02*
D03*
X00249Y00471D02*
D03*
Y0050529D02*
D03*
D12*
X00219Y0038075D02*
D03*
X002095Y0039925D02*
D03*
X002285D02*
D03*
X0025Y0043525D02*
D03*
X002595Y0041675D02*
D03*
X002405D02*
D03*
D13*
X0023414Y00357D02*
D03*
X00257D02*
D03*
X0058714Y00732D02*
D03*
X0061D02*
D03*
X0128714Y00699D02*
D03*
X0131D02*
D03*
X0096386Y00139D02*
D03*
X00941D02*
D03*
X0133486Y00649D02*
D03*
X01312D02*
D03*
X0102586Y00645D02*
D03*
X01003D02*
D03*
X0079886Y00645D02*
D03*
X00776D02*
D03*
X0060086Y00629D02*
D03*
X00578D02*
D03*
X0039686D02*
D03*
X00374D02*
D03*
X0134086Y00418D02*
D03*
X01318D02*
D03*
X0103186Y00422D02*
D03*
X01009D02*
D03*
X0082886Y0042D02*
D03*
X00806D02*
D03*
X0062486D02*
D03*
X00602D02*
D03*
X0042186Y00422D02*
D03*
X00399D02*
D03*
X0116214Y0004D02*
D03*
X01185D02*
D03*
D14*
X00177Y0044D02*
D03*
X0021129D02*
D03*
X0049371Y001075D02*
D03*
X00528D02*
D03*
X0062771Y00108D02*
D03*
X00662D02*
D03*
X0056071Y00107D02*
D03*
X00595D02*
D03*
X007302Y00108D02*
D03*
X0069591D02*
D03*
X007972Y001075D02*
D03*
X0076291D02*
D03*
X008652D02*
D03*
X0083091D02*
D03*
X009322D02*
D03*
X0089791D02*
D03*
X009972D02*
D03*
X0096291D02*
D03*
X010622D02*
D03*
X0102791D02*
D03*
X011247D02*
D03*
X0109041D02*
D03*
D15*
X00177Y00475D02*
D03*
Y00509D02*
D03*
X00256Y00619D02*
D03*
Y00585D02*
D03*
D16*
X002Y0048414D02*
D03*
Y00507D02*
D03*
X00885Y0065214D02*
D03*
Y00675D02*
D03*
X00836Y0071014D02*
D03*
Y00733D02*
D03*
X01097Y0068314D02*
D03*
Y00706D02*
D03*
X00557Y0016886D02*
D03*
Y00146D02*
D03*
X007Y0016786D02*
D03*
Y00145D02*
D03*
X00844Y0014614D02*
D03*
Y00169D02*
D03*
X00991Y0082186D02*
D03*
Y00799D02*
D03*
X01115Y0082186D02*
D03*
Y00799D02*
D03*
X01053Y0082086D02*
D03*
Y00798D02*
D03*
X01134Y0014014D02*
D03*
Y00163D02*
D03*
X00255Y0056286D02*
D03*
Y0054D02*
D03*
X00158Y0082086D02*
D03*
Y00798D02*
D03*
X01349Y0051014D02*
D03*
Y00533D02*
D03*
Y0055414D02*
D03*
Y00577D02*
D03*
Y0062086D02*
D03*
Y00598D02*
D03*
X01032Y0050714D02*
D03*
Y0053D02*
D03*
Y0055114D02*
D03*
Y00574D02*
D03*
Y0061786D02*
D03*
Y00595D02*
D03*
X00827Y0051114D02*
D03*
Y00534D02*
D03*
X00828Y0055514D02*
D03*
Y00578D02*
D03*
Y0062286D02*
D03*
Y006D02*
D03*
X00624Y0050614D02*
D03*
Y00529D02*
D03*
Y0055114D02*
D03*
Y00574D02*
D03*
Y0061786D02*
D03*
Y00595D02*
D03*
X00422Y0050114D02*
D03*
Y00524D02*
D03*
Y0054514D02*
D03*
Y00568D02*
D03*
Y0061286D02*
D03*
Y0059D02*
D03*
X01349Y0028414D02*
D03*
Y00307D02*
D03*
Y0032814D02*
D03*
Y00351D02*
D03*
Y0039586D02*
D03*
Y00373D02*
D03*
X01032Y0028914D02*
D03*
Y00312D02*
D03*
Y0033314D02*
D03*
Y00356D02*
D03*
Y0040086D02*
D03*
Y00378D02*
D03*
X00828Y0028214D02*
D03*
Y00305D02*
D03*
Y0032614D02*
D03*
Y00349D02*
D03*
Y0039286D02*
D03*
Y0037D02*
D03*
X00624Y0028214D02*
D03*
Y00305D02*
D03*
Y0032614D02*
D03*
Y00349D02*
D03*
Y0039286D02*
D03*
Y0037D02*
D03*
X00422Y0028914D02*
D03*
Y00312D02*
D03*
Y0033314D02*
D03*
Y00356D02*
D03*
Y0040086D02*
D03*
Y00378D02*
D03*
X00218Y0082286D02*
D03*
Y008D02*
D03*
X00285Y0082186D02*
D03*
Y00799D02*
D03*
X00346Y0082186D02*
D03*
Y00799D02*
D03*
X00405Y0082186D02*
D03*
Y00799D02*
D03*
X0047Y0082286D02*
D03*
Y008D02*
D03*
X00534Y0082186D02*
D03*
Y00799D02*
D03*
X00598Y0082186D02*
D03*
Y00799D02*
D03*
X00662Y0082086D02*
D03*
Y00798D02*
D03*
X00728Y0082386D02*
D03*
Y00801D02*
D03*
X00803Y0082286D02*
D03*
Y008D02*
D03*
X00864Y0082286D02*
D03*
Y008D02*
D03*
X00928Y0082186D02*
D03*
Y00799D02*
D03*
X0137Y0082086D02*
D03*
Y00798D02*
D03*
X01307Y0082086D02*
D03*
Y00798D02*
D03*
X01242Y0082186D02*
D03*
Y00799D02*
D03*
X01176Y0081986D02*
D03*
Y00797D02*
D03*
D17*
X00203Y0075597D02*
D03*
Y00742D02*
D03*
Y0070103D02*
D03*
Y00715D02*
D03*
X0026175Y0074722D02*
D03*
Y0073325D02*
D03*
X00262Y0070003D02*
D03*
Y00714D02*
D03*
D18*
X00222Y0070825D02*
D03*
Y0073975D02*
D03*
X00242Y0070825D02*
D03*
Y0073975D02*
D03*
D19*
X00199Y00659D02*
D03*
X00162D02*
D03*
X00417Y00171D02*
D03*
X00454D02*
D03*
X00269Y00659D02*
D03*
X00232D02*
D03*
D20*
X0016935Y0075188D02*
D03*
X00169Y00706D02*
D03*
X0029815Y0070435D02*
D03*
X002985Y0075023D02*
D03*
X00141Y00447D02*
D03*
X0014135Y0049288D02*
D03*
D21*
X00106Y0072887D02*
D03*
X003615Y0072736D02*
D03*
X00078Y0046987D02*
D03*
D22*
X0113775Y00811D02*
D03*
X0115625Y008205D02*
D03*
Y008015D02*
D03*
X0109325Y00812D02*
D03*
X0107475Y008025D02*
D03*
Y008215D02*
D03*
X0101275Y00812D02*
D03*
X0103125Y008215D02*
D03*
Y008025D02*
D03*
X0049375Y00814D02*
D03*
X0051225Y008235D02*
D03*
Y008045D02*
D03*
X0057525Y00812D02*
D03*
X0055675Y008025D02*
D03*
Y008215D02*
D03*
X0019925Y00811D02*
D03*
X0018075Y008015D02*
D03*
Y008205D02*
D03*
X0011675Y00813D02*
D03*
X0013525Y008225D02*
D03*
Y008035D02*
D03*
X0024575Y00812D02*
D03*
X0026425Y008215D02*
D03*
Y008025D02*
D03*
X0032425Y00813D02*
D03*
X0030575Y008035D02*
D03*
Y008225D02*
D03*
X0036475Y00813D02*
D03*
X0038325Y008225D02*
D03*
Y008035D02*
D03*
X0044725Y00812D02*
D03*
X0042875Y008025D02*
D03*
Y008215D02*
D03*
X0062175Y00812D02*
D03*
X0064025Y008215D02*
D03*
Y008025D02*
D03*
X0070425Y00811D02*
D03*
X0068575Y008015D02*
D03*
Y008205D02*
D03*
X0076175Y00814D02*
D03*
X0078025Y008235D02*
D03*
Y008045D02*
D03*
X0084225Y00814D02*
D03*
X0082375Y008045D02*
D03*
Y008235D02*
D03*
X0088975Y00814D02*
D03*
X0090825Y008235D02*
D03*
Y008045D02*
D03*
X0096825Y00812D02*
D03*
X0094975Y008025D02*
D03*
Y008215D02*
D03*
X0135025Y0081D02*
D03*
X0133175Y008005D02*
D03*
Y008195D02*
D03*
X0126175Y0081D02*
D03*
X0128025Y008195D02*
D03*
Y008005D02*
D03*
X0121825Y0081D02*
D03*
X0119975Y008005D02*
D03*
Y008195D02*
D03*
D23*
X0066Y0094D02*
D03*
X006727D02*
D03*
X006854D02*
D03*
X006981D02*
D03*
X0117D02*
D03*
X011827D02*
D03*
X011954D02*
D03*
X012081D02*
D03*
X0015D02*
D03*
X001627D02*
D03*
X001754D02*
D03*
X001881D02*
D03*
X0028D02*
D03*
X002927D02*
D03*
X003054D02*
D03*
X003181D02*
D03*
X0041D02*
D03*
X004227D02*
D03*
X004354D02*
D03*
X004481D02*
D03*
X00535D02*
D03*
X005477D02*
D03*
X005604D02*
D03*
X005731D02*
D03*
X008D02*
D03*
X008127D02*
D03*
X008254D02*
D03*
X008381D02*
D03*
X0105D02*
D03*
X010627D02*
D03*
X010754D02*
D03*
X010881D02*
D03*
X00925D02*
D03*
X009377D02*
D03*
X009504D02*
D03*
X009631D02*
D03*
X0131D02*
D03*
X013227D02*
D03*
X013354D02*
D03*
X013481D02*
D03*
D24*
X0067905Y00975D02*
D03*
X0118905D02*
D03*
X0016905D02*
D03*
X0029905D02*
D03*
X0042905D02*
D03*
X0055405D02*
D03*
X0081905D02*
D03*
X0106905D02*
D03*
X0094405D02*
D03*
X0132905D02*
D03*
D25*
X0081312Y0026024D02*
D03*
X0075851D02*
D03*
X0055658Y0025491D02*
D03*
X0061119D02*
D03*
X0041434Y0025643D02*
D03*
X0035973D02*
D03*
X0127991Y0026024D02*
D03*
X0133452D02*
D03*
X0101632Y0048249D02*
D03*
X0096171D02*
D03*
X0076105D02*
D03*
X0081566D02*
D03*
X0061119Y004797D02*
D03*
X0055658D02*
D03*
X0035211Y0047995D02*
D03*
X0040672D02*
D03*
X0133833D02*
D03*
X0128372D02*
D03*
X0101632Y0026024D02*
D03*
X0096171D02*
D03*
D26*
X00209Y005486D02*
D03*
Y005994D02*
D03*
D27*
X001055Y00574D02*
D03*
D28*
X00113Y00915D02*
D03*
X00147D02*
D03*
X00246Y00916D02*
D03*
X0028D02*
D03*
X00376Y00914D02*
D03*
X0041D02*
D03*
X00498Y00915D02*
D03*
X00532D02*
D03*
X00626Y00914D02*
D03*
X0066D02*
D03*
X00765D02*
D03*
X00799D02*
D03*
X01014Y00913D02*
D03*
X01048D02*
D03*
X0089Y00913D02*
D03*
X00924D02*
D03*
X01138Y00914D02*
D03*
X01172D02*
D03*
X01274Y00913D02*
D03*
X01308D02*
D03*
D29*
X004975Y000725D02*
D03*
X005275D02*
D03*
X00565Y00072D02*
D03*
X00595D02*
D03*
X0063Y000725D02*
D03*
X0066D02*
D03*
X007D02*
D03*
X0073D02*
D03*
X007675D02*
D03*
X007975D02*
D03*
X008352D02*
D03*
X008652D02*
D03*
X009022D02*
D03*
X009322D02*
D03*
X00965D02*
D03*
X00995D02*
D03*
X0103D02*
D03*
X0106D02*
D03*
X010925D02*
D03*
X011225D02*
D03*
X00389Y00172D02*
D03*
X00359D02*
D03*
X01155Y00075D02*
D03*
X01185D02*
D03*
D30*
X013324Y0007225D02*
D03*
D31*
X013065D02*
D03*
D32*
X0132Y001775D02*
D03*
D33*
X01295Y00083D02*
D03*
D34*
Y00094D02*
D03*
Y00105D02*
D03*
Y00116D02*
D03*
Y00127D02*
D03*
Y00138D02*
D03*
Y00149D02*
D03*
Y0016D02*
D03*
D35*
X013324Y001756D02*
D03*
D36*
X013065Y0017525D02*
D03*
D37*
X01254Y00106D02*
D03*
X012475D02*
D03*
X01241D02*
D03*
X012345D02*
D03*
X01228D02*
D03*
X012215D02*
D03*
X01215D02*
D03*
X01254Y00045D02*
D03*
X012475D02*
D03*
X01241D02*
D03*
X012345D02*
D03*
X01228D02*
D03*
X012215D02*
D03*
D38*
X01215D02*
D03*
D39*
X01175Y0011D02*
D03*
X0116103D02*
D03*
X00387Y00207D02*
D03*
X0037303D02*
D03*
D57*
X-0002254Y011D02*
X-0001746D01*
X-0002254Y0D02*
X-0001746D01*
X-0002Y011D02*
X-0001492Y0108476D01*
X-0002508D02*
X-0002Y011D01*
Y0D02*
X-0001492Y0001524D01*
X-0002508D02*
X-0002Y0D01*
Y0060612D02*
Y011D01*
Y0D02*
Y0049388D01*
X0Y0D02*
X0142D01*
X0D02*
Y011D01*
Y-00025D02*
X0065261D01*
X0076739D02*
X0142D01*
X0D02*
X0001524Y-0001992D01*
X0Y-00025D02*
X0001524Y-0003008D01*
X0140476Y-0001992D02*
X0142Y-00025D01*
X0140476Y-0003008D02*
X0142Y-00025D01*
X0Y-0002754D02*
Y-0002246D01*
X0142Y-0002754D02*
Y-0002246D01*
Y0D02*
Y011D01*
X0D02*
X009325D01*
X01134D02*
X0142D01*
X009325D02*
X01134D01*
D58*
X-0001086Y0049642D02*
Y005015D01*
Y0049896D01*
X-0002609D01*
X-0002355Y0049642D01*
X-0001086Y0050912D02*
Y005142D01*
Y0051166D01*
X-0002609D01*
X-0002355Y0050912D01*
Y0052181D02*
X-0002609Y0052435D01*
Y0052943D01*
X-0002355Y0053197D01*
X-000134D01*
X-0001086Y0052943D01*
Y0052435D01*
X-000134Y0052181D01*
X-0002355D01*
X-0001086Y0055736D02*
X-0001594Y0055228D01*
X-0002102D01*
X-0002609Y0055736D01*
X-0001086Y0056498D02*
X-0002102D01*
Y0056752D01*
X-0001848Y0057006D01*
X-0001086D01*
X-0001848D01*
X-0002102Y005726D01*
X-0001848Y0057514D01*
X-0001086D01*
Y0058022D02*
X-0002102D01*
Y0058275D01*
X-0001848Y0058529D01*
X-0001086D01*
X-0001848D01*
X-0002102Y0058783D01*
X-0001848Y0059037D01*
X-0001086D01*
Y0059545D02*
X-0001594Y0060053D01*
X-0002102D01*
X-0002609Y0059545D01*
X0065515Y-0003414D02*
X0066023D01*
X0065769D01*
Y-0001891D01*
X0065515Y-0002145D01*
X0067547Y-0003414D02*
Y-0001891D01*
X0066785Y-0002652D01*
X0067801D01*
X0069324Y-0003414D02*
X0068308D01*
X0069324Y-0002398D01*
Y-0002145D01*
X006907Y-0001891D01*
X0068562D01*
X0068308Y-0002145D01*
X0071863Y-0003414D02*
X0071355Y-0002906D01*
Y-0002398D01*
X0071863Y-0001891D01*
X0072625Y-0003414D02*
Y-0002398D01*
X0072879D01*
X0073133Y-0002652D01*
Y-0003414D01*
Y-0002652D01*
X0073387Y-0002398D01*
X0073641Y-0002652D01*
Y-0003414D01*
X0074149D02*
Y-0002398D01*
X0074402D01*
X0074656Y-0002652D01*
Y-0003414D01*
Y-0002652D01*
X007491Y-0002398D01*
X0075164Y-0002652D01*
Y-0003414D01*
X0075672D02*
X007618Y-0002906D01*
Y-0002398D01*
X0075672Y-0001891D01*
D59*
X0131Y00205D02*
D03*
X009272Y00035D02*
D03*
X009922Y00035D02*
D03*
X010572D02*
D03*
X011222D02*
D03*
X008627D02*
D03*
X007947D02*
D03*
X007282Y00035D02*
D03*
X00662D02*
D03*
X00595D02*
D03*
X00528D02*
D03*
X01355Y01025D02*
D03*
X01215D02*
D03*
X01095D02*
D03*
X0097D02*
D03*
X00845D02*
D03*
X00705D02*
D03*
X0058D02*
D03*
X00455D02*
D03*
X00325D02*
D03*
X00195D02*
D03*
X0063852Y0069839D02*
D03*
X00734Y00732D02*
D03*
X0042008Y0069839D02*
D03*
X0086712D02*
D03*
X0091792Y0021579D02*
D03*
X0068932D02*
D03*
X0067Y00732D02*
D03*
X00888D02*
D03*
X00806D02*
D03*
X01021D02*
D03*
X00954D02*
D03*
X01182D02*
D03*
X01104D02*
D03*
X01329D02*
D03*
X01254D02*
D03*
X00586Y00165D02*
D03*
X00502D02*
D03*
X0073D02*
D03*
X00646D02*
D03*
X01165D02*
D03*
X0108D02*
D03*
X01015D02*
D03*
X0094D02*
D03*
X0087D02*
D03*
X00791D02*
D03*
X0051279Y0021579D02*
D03*
X00473Y00732D02*
D03*
D60*
X013354Y00205D02*
D03*
X013608D02*
D03*
X013862D02*
D03*
X009018Y00035D02*
D03*
X009668Y00035D02*
D03*
X010318D02*
D03*
X010968D02*
D03*
X008373D02*
D03*
X007693D02*
D03*
X007028Y00035D02*
D03*
X006366D02*
D03*
X005696D02*
D03*
X005026D02*
D03*
X013296Y01025D02*
D03*
X011896D02*
D03*
X010696D02*
D03*
X009446D02*
D03*
X008196D02*
D03*
X006796D02*
D03*
X005546D02*
D03*
X004296D02*
D03*
X002996D02*
D03*
X001696D02*
D03*
X0112112Y0029199D02*
D03*
X0114652D02*
D03*
X0112112Y0031739D02*
D03*
X0114652D02*
D03*
X0112112Y0034279D02*
D03*
X0114652D02*
D03*
X0112112Y0036819D02*
D03*
X0114652D02*
D03*
X0112112Y0039359D02*
D03*
X0114652D02*
D03*
X0112112Y0041899D02*
D03*
X0114652D02*
D03*
X0112112Y0044439D02*
D03*
X0114652D02*
D03*
X0112112Y0046979D02*
D03*
X0114652D02*
D03*
X0112112Y0049519D02*
D03*
X0114652D02*
D03*
X0112112Y0052059D02*
D03*
X0114652D02*
D03*
X0112112Y0054599D02*
D03*
X0114652D02*
D03*
X0112112Y0057139D02*
D03*
X0114652D02*
D03*
X0112112Y0059679D02*
D03*
X0114652D02*
D03*
X0112112Y0062219D02*
D03*
X0114652D02*
D03*
X0112112Y0064759D02*
D03*
X0114652D02*
D03*
X0112112Y0067299D02*
D03*
X0114652D02*
D03*
X0112112Y0069839D02*
D03*
X0114652Y0026659D02*
D03*
X0112112D02*
D03*
X0066392Y0069839D02*
D03*
X0068932D02*
D03*
X0071472D02*
D03*
X0074012D02*
D03*
X0076552D02*
D03*
X0079092D02*
D03*
X0081632D02*
D03*
X007086Y00732D02*
D03*
X0065031Y0063362D02*
D03*
Y0060822D02*
D03*
Y0058282D02*
D03*
Y0055742D02*
D03*
Y0053202D02*
D03*
Y0050662D02*
D03*
Y0048122D02*
D03*
X0052356Y0063362D02*
D03*
Y0060822D02*
D03*
Y0058282D02*
D03*
Y0055742D02*
D03*
Y0053202D02*
D03*
Y0050662D02*
D03*
Y0048122D02*
D03*
X0085376Y0063362D02*
D03*
Y0060822D02*
D03*
Y0058282D02*
D03*
Y0055742D02*
D03*
Y0053202D02*
D03*
Y0050662D02*
D03*
Y0048122D02*
D03*
X0072701Y0063362D02*
D03*
Y0060822D02*
D03*
Y0058282D02*
D03*
Y0055742D02*
D03*
Y0053202D02*
D03*
Y0050662D02*
D03*
Y0048122D02*
D03*
X0032163Y0040883D02*
D03*
Y0038343D02*
D03*
Y0035803D02*
D03*
Y0033263D02*
D03*
Y0030723D02*
D03*
Y0028183D02*
D03*
Y0025643D02*
D03*
X0052356Y0040883D02*
D03*
Y0038343D02*
D03*
Y0035803D02*
D03*
Y0033263D02*
D03*
Y0030723D02*
D03*
Y0028183D02*
D03*
Y0025643D02*
D03*
X0072701Y0040883D02*
D03*
Y0038343D02*
D03*
Y0035803D02*
D03*
Y0033263D02*
D03*
Y0030723D02*
D03*
Y0028183D02*
D03*
Y0025643D02*
D03*
X0105721Y0063362D02*
D03*
Y0060822D02*
D03*
Y0058282D02*
D03*
Y0055742D02*
D03*
Y0053202D02*
D03*
Y0050662D02*
D03*
Y0048122D02*
D03*
X0085376Y0040883D02*
D03*
Y0038343D02*
D03*
Y0035803D02*
D03*
Y0033263D02*
D03*
Y0030723D02*
D03*
Y0028183D02*
D03*
Y0025643D02*
D03*
X0105721Y0040883D02*
D03*
Y0038343D02*
D03*
Y0035803D02*
D03*
Y0033263D02*
D03*
Y0030723D02*
D03*
Y0028183D02*
D03*
Y0025643D02*
D03*
X0093047Y0040883D02*
D03*
Y0038343D02*
D03*
Y0035803D02*
D03*
Y0033263D02*
D03*
Y0030723D02*
D03*
Y0028183D02*
D03*
Y0025643D02*
D03*
Y0063362D02*
D03*
Y0060822D02*
D03*
Y0058282D02*
D03*
Y0055742D02*
D03*
Y0053202D02*
D03*
Y0050662D02*
D03*
Y0048122D02*
D03*
X0137491Y0040883D02*
D03*
Y0038343D02*
D03*
Y0035803D02*
D03*
Y0033263D02*
D03*
Y0030723D02*
D03*
Y0028183D02*
D03*
Y0025643D02*
D03*
X0124816Y0040883D02*
D03*
Y0038343D02*
D03*
Y0035803D02*
D03*
Y0033263D02*
D03*
Y0030723D02*
D03*
Y0028183D02*
D03*
Y0025643D02*
D03*
X0047088Y0069839D02*
D03*
X0044548D02*
D03*
X0049628D02*
D03*
X0052168D02*
D03*
X0054708D02*
D03*
X0057248D02*
D03*
X0059788D02*
D03*
X0089252D02*
D03*
X0091792D02*
D03*
X0094332D02*
D03*
X0096872D02*
D03*
X0099412D02*
D03*
X0101952D02*
D03*
X0104492D02*
D03*
X0094332Y0021579D02*
D03*
X0096872D02*
D03*
X0099412D02*
D03*
X0101952D02*
D03*
X0104492D02*
D03*
X0107032D02*
D03*
X0109572D02*
D03*
X0071472D02*
D03*
X0074012D02*
D03*
X0076552D02*
D03*
X0079092D02*
D03*
X0081632D02*
D03*
X0084172D02*
D03*
X0086712D02*
D03*
X0044838Y0063362D02*
D03*
Y0060822D02*
D03*
Y0058282D02*
D03*
Y0055742D02*
D03*
Y0053202D02*
D03*
Y0050662D02*
D03*
Y0048122D02*
D03*
X0065031Y0040883D02*
D03*
Y0038343D02*
D03*
Y0035803D02*
D03*
Y0033263D02*
D03*
Y0030723D02*
D03*
Y0028183D02*
D03*
Y0025643D02*
D03*
X0044838Y0040883D02*
D03*
Y0038343D02*
D03*
Y0035803D02*
D03*
Y0033263D02*
D03*
Y0030723D02*
D03*
Y0028183D02*
D03*
Y0025643D02*
D03*
X0080198Y0034094D02*
D03*
Y0036634D02*
D03*
Y0039174D02*
D03*
X0132398Y0033894D02*
D03*
Y0036434D02*
D03*
Y0038974D02*
D03*
X0059798Y0033894D02*
D03*
Y0036434D02*
D03*
Y0038974D02*
D03*
X0039598Y0033894D02*
D03*
Y0036434D02*
D03*
Y0038974D02*
D03*
X0028607Y0033263D02*
D03*
Y0035803D02*
D03*
Y0038343D02*
D03*
X0039598Y0053794D02*
D03*
Y0056334D02*
D03*
Y0058874D02*
D03*
X0059798Y0053894D02*
D03*
Y0056434D02*
D03*
Y0058974D02*
D03*
X0079998Y0053994D02*
D03*
Y0056534D02*
D03*
Y0059074D02*
D03*
X0100617Y0053871D02*
D03*
Y0056411D02*
D03*
Y0058951D02*
D03*
X0068993Y0033263D02*
D03*
Y0035803D02*
D03*
Y0038343D02*
D03*
X0089186Y0033263D02*
D03*
Y0035803D02*
D03*
Y0038343D02*
D03*
X0121133Y0033263D02*
D03*
Y0035803D02*
D03*
Y0038343D02*
D03*
X00488Y0033263D02*
D03*
Y0035803D02*
D03*
Y0038343D02*
D03*
X0028607Y0055742D02*
D03*
Y0058282D02*
D03*
Y0060822D02*
D03*
X00488Y0055742D02*
D03*
Y0058282D02*
D03*
Y0060822D02*
D03*
X0068866Y0055742D02*
D03*
Y0058282D02*
D03*
Y0060822D02*
D03*
X0121133Y0055742D02*
D03*
Y0058282D02*
D03*
Y0060822D02*
D03*
X0037058Y0053794D02*
D03*
Y0056334D02*
D03*
X0057258Y0056434D02*
D03*
Y0053894D02*
D03*
X0077458Y0056534D02*
D03*
Y0053994D02*
D03*
X0129858Y0036434D02*
D03*
Y0033894D02*
D03*
X0037058Y0036434D02*
D03*
Y0033894D02*
D03*
X0077658Y0036634D02*
D03*
Y0034094D02*
D03*
X0098077Y0056411D02*
D03*
Y0053871D02*
D03*
X0057258Y0036434D02*
D03*
Y0033894D02*
D03*
X006446Y00732D02*
D03*
X008626D02*
D03*
X007806D02*
D03*
X009956D02*
D03*
X009286D02*
D03*
X011566D02*
D03*
X010786D02*
D03*
X013036D02*
D03*
X012286D02*
D03*
X006114Y00165D02*
D03*
X005274D02*
D03*
X007554D02*
D03*
X006714D02*
D03*
X011904D02*
D03*
X011054D02*
D03*
X010404D02*
D03*
X009654D02*
D03*
X008954D02*
D03*
X008164D02*
D03*
X0100598Y0033994D02*
D03*
Y0036534D02*
D03*
Y0039074D02*
D03*
X0098058Y0036534D02*
D03*
Y0033994D02*
D03*
X0089313Y0055742D02*
D03*
Y0058282D02*
D03*
Y0060822D02*
D03*
X0032163Y0063362D02*
D03*
Y0060822D02*
D03*
Y0058282D02*
D03*
Y0055742D02*
D03*
Y0053202D02*
D03*
Y0050662D02*
D03*
Y0048122D02*
D03*
X0063979Y0021579D02*
D03*
X0061439D02*
D03*
X0058899D02*
D03*
X0056359D02*
D03*
X0053819D02*
D03*
X0132398Y0053994D02*
D03*
Y0056534D02*
D03*
Y0059074D02*
D03*
X0129858Y0056534D02*
D03*
Y0053994D02*
D03*
X0137465Y0063362D02*
D03*
Y0060822D02*
D03*
Y0058282D02*
D03*
Y0055742D02*
D03*
Y0053202D02*
D03*
Y0050662D02*
D03*
Y0048122D02*
D03*
X0124816Y0063362D02*
D03*
Y0060822D02*
D03*
Y0058282D02*
D03*
Y0055742D02*
D03*
Y0053202D02*
D03*
Y0050662D02*
D03*
Y0048122D02*
D03*
X005492Y00732D02*
D03*
X005238D02*
D03*
X004984D02*
D03*
D61*
X0139Y0003D02*
D03*
Y0107D02*
D03*
X0003D02*
D03*
Y0003D02*
D03*
X00155Y00194D02*
D03*
Y002321D02*
D03*
Y003083D02*
D03*
Y002702D02*
D03*
Y003464D02*
D03*
Y003845D02*
D03*
D62*
X0114652Y0069839D02*
D03*
X0065031Y0065902D02*
D03*
X0052356D02*
D03*
X0085376D02*
D03*
X0072701D02*
D03*
X0032163Y0043423D02*
D03*
X0052356D02*
D03*
X0072701D02*
D03*
X0105721Y0065902D02*
D03*
X0085376Y0043423D02*
D03*
X0105721D02*
D03*
X0093047D02*
D03*
Y0065902D02*
D03*
X0137491Y0043423D02*
D03*
X0124816D02*
D03*
X0044838Y0065902D02*
D03*
X0065031Y0043423D02*
D03*
X0044838D02*
D03*
X0028607Y0030723D02*
D03*
X0068993D02*
D03*
X0089186D02*
D03*
X0121133D02*
D03*
X00488D02*
D03*
X0028607Y0053202D02*
D03*
X00488D02*
D03*
X0068866D02*
D03*
X0121133D02*
D03*
X0037058Y0058874D02*
D03*
X0057258Y0058974D02*
D03*
X0077458Y0059074D02*
D03*
X0129858Y0038974D02*
D03*
X0037058D02*
D03*
X0077658Y0039174D02*
D03*
X0098077Y0058951D02*
D03*
X0057258Y0038974D02*
D03*
X0098058Y0039074D02*
D03*
X0089313Y0053202D02*
D03*
X0032163Y0065902D02*
D03*
X0129858Y0059074D02*
D03*
X0137465Y0065902D02*
D03*
X0124816D02*
D03*
D63*
X002133Y00105D02*
D03*
X004236D02*
D03*
X003403D02*
D03*
X0013D02*
D03*
D64*
X0042842Y000504D02*
D03*
X0035842D02*
D03*
D65*
X0036994Y00025D02*
D03*
X0041494D02*
D03*
M02*
