G04 (created by PCBNEW (2013-07-07 BZR 4022)-stable) date 30/01/2014 17:39:20*
%MOIN*%
G04 Gerber Fmt 3.4, Leading zero omitted, Abs format*
%FSLAX34Y34*%
G01*
G70*
G90*
G04 APERTURE LIST*
%ADD10C,0.00590551*%
%ADD11C,0.06*%
%ADD12R,0.0866X0.06*%
%ADD13O,0.0866X0.06*%
%ADD14R,0.06X0.0866*%
%ADD15O,0.06X0.0866*%
%ADD16R,0.0787X0.06*%
%ADD17O,0.0787X0.06*%
%ADD18R,0.06X0.06*%
%ADD19C,0.1772*%
%ADD20C,0.0590551*%
%ADD21C,0.0866142*%
%ADD22C,0.275591*%
%ADD23C,0.0944882*%
%ADD24R,0.0944882X0.0944882*%
%ADD25R,0.1181X0.1181*%
%ADD26C,0.1181*%
%ADD27C,0.065*%
%ADD28C,0.11811*%
G04 APERTURE END LIST*
G54D10*
G54D11*
X49500Y27750D03*
X49500Y26750D03*
X49500Y25750D03*
X49500Y24750D03*
X49500Y23750D03*
X49500Y22750D03*
X49500Y21750D03*
X49500Y20750D03*
X54500Y20750D03*
X54500Y21750D03*
X54500Y22750D03*
X54500Y23750D03*
X54500Y24750D03*
X54500Y25750D03*
X54500Y26750D03*
X54500Y27750D03*
X38500Y18750D03*
X38500Y17750D03*
X38500Y16750D03*
X38500Y15750D03*
X38500Y14750D03*
X38500Y13750D03*
X38500Y12750D03*
X38500Y11750D03*
X43500Y11750D03*
X43500Y12750D03*
X43500Y13750D03*
X43500Y14750D03*
X43500Y15750D03*
X43500Y16750D03*
X43500Y17750D03*
X43500Y18750D03*
X30000Y27750D03*
X30000Y26750D03*
X30000Y25750D03*
X30000Y24750D03*
X30000Y23750D03*
X30000Y22750D03*
X30000Y21750D03*
X30000Y20750D03*
X35000Y20750D03*
X35000Y21750D03*
X35000Y22750D03*
X35000Y23750D03*
X35000Y24750D03*
X35000Y25750D03*
X35000Y26750D03*
X35000Y27750D03*
X30000Y18750D03*
X30000Y17750D03*
X30000Y16750D03*
X30000Y15750D03*
X30000Y14750D03*
X30000Y13750D03*
X30000Y12750D03*
X30000Y11750D03*
X35000Y11750D03*
X35000Y12750D03*
X35000Y13750D03*
X35000Y14750D03*
X35000Y15750D03*
X35000Y16750D03*
X35000Y17750D03*
X35000Y18750D03*
X21500Y18750D03*
X21500Y17750D03*
X21500Y16750D03*
X21500Y15750D03*
X21500Y14750D03*
X21500Y13750D03*
X21500Y12750D03*
X21500Y11750D03*
X26500Y11750D03*
X26500Y12750D03*
X26500Y13750D03*
X26500Y14750D03*
X26500Y15750D03*
X26500Y16750D03*
X26500Y17750D03*
X26500Y18750D03*
X13000Y18750D03*
X13000Y17750D03*
X13000Y16750D03*
X13000Y15750D03*
X13000Y14750D03*
X13000Y13750D03*
X13000Y12750D03*
X13000Y11750D03*
X18000Y11750D03*
X18000Y12750D03*
X18000Y13750D03*
X18000Y14750D03*
X18000Y15750D03*
X18000Y16750D03*
X18000Y17750D03*
X18000Y18750D03*
X49500Y18750D03*
X49500Y17750D03*
X49500Y16750D03*
X49500Y15750D03*
X49500Y14750D03*
X49500Y13750D03*
X49500Y12750D03*
X49500Y11750D03*
X54500Y11750D03*
X54500Y12750D03*
X54500Y13750D03*
X54500Y14750D03*
X54500Y15750D03*
X54500Y16750D03*
X54500Y17750D03*
X54500Y18750D03*
X38500Y27750D03*
X38500Y26750D03*
X38500Y25750D03*
X38500Y24750D03*
X38500Y23750D03*
X38500Y22750D03*
X38500Y21750D03*
X38500Y20750D03*
X43500Y20750D03*
X43500Y21750D03*
X43500Y22750D03*
X43500Y23750D03*
X43500Y24750D03*
X43500Y25750D03*
X43500Y26750D03*
X43500Y27750D03*
X21500Y27750D03*
X21500Y26750D03*
X21500Y25750D03*
X21500Y24750D03*
X21500Y23750D03*
X21500Y22750D03*
X21500Y21750D03*
X21500Y20750D03*
X26500Y20750D03*
X26500Y21750D03*
X26500Y22750D03*
X26500Y23750D03*
X26500Y24750D03*
X26500Y25750D03*
X26500Y26750D03*
X26500Y27750D03*
X13000Y27750D03*
X13000Y26750D03*
X13000Y25750D03*
X13000Y24750D03*
X13000Y23750D03*
X13000Y22750D03*
X13000Y21750D03*
X13000Y20750D03*
X18000Y20750D03*
X18000Y21750D03*
X18000Y22750D03*
X18000Y23750D03*
X18000Y24750D03*
X18000Y25750D03*
X18000Y26750D03*
X18000Y27750D03*
G54D12*
X11250Y13750D03*
G54D13*
X11250Y14750D03*
X11250Y15750D03*
X11250Y16750D03*
G54D12*
X19750Y22750D03*
G54D13*
X19750Y23750D03*
X19750Y24750D03*
X19750Y25750D03*
G54D12*
X47500Y22750D03*
G54D13*
X47500Y23750D03*
X47500Y24750D03*
X47500Y25750D03*
G54D12*
X28250Y22750D03*
G54D13*
X28250Y23750D03*
X28250Y24750D03*
X28250Y25750D03*
G54D14*
X54250Y9500D03*
G54D15*
X53250Y9500D03*
X52250Y9500D03*
X51250Y9500D03*
G54D14*
X32250Y31000D03*
G54D15*
X33250Y31000D03*
X34250Y31000D03*
X35250Y31000D03*
G54D12*
X19750Y13750D03*
G54D13*
X19750Y14750D03*
X19750Y15750D03*
X19750Y16750D03*
G54D12*
X11250Y22750D03*
G54D13*
X11250Y23750D03*
X11250Y24750D03*
X11250Y25750D03*
G54D12*
X36750Y13750D03*
G54D13*
X36750Y14750D03*
X36750Y15750D03*
X36750Y16750D03*
G54D12*
X47500Y13750D03*
G54D13*
X47500Y14750D03*
X47500Y15750D03*
X47500Y16750D03*
G54D12*
X28250Y13750D03*
G54D13*
X28250Y14750D03*
X28250Y15750D03*
X28250Y16750D03*
G54D16*
X14152Y16750D03*
G54D17*
X15348Y16750D03*
X14152Y15750D03*
X15348Y15750D03*
X14152Y14750D03*
X15348Y14750D03*
G54D16*
X31152Y17000D03*
G54D17*
X32348Y17000D03*
X31152Y16000D03*
X32348Y16000D03*
X31152Y15000D03*
X32348Y15000D03*
G54D16*
X39652Y17000D03*
G54D17*
X40848Y17000D03*
X39652Y16000D03*
X40848Y16000D03*
X39652Y15000D03*
X40848Y15000D03*
G54D16*
X50652Y26000D03*
G54D17*
X51848Y26000D03*
X50652Y25000D03*
X51848Y25000D03*
X50652Y24000D03*
X51848Y24000D03*
G54D16*
X22652Y17000D03*
G54D17*
X23848Y17000D03*
X22652Y16000D03*
X23848Y16000D03*
X22652Y15000D03*
X23848Y15000D03*
G54D16*
X39652Y26000D03*
G54D17*
X40848Y26000D03*
X39652Y25000D03*
X40848Y25000D03*
X39652Y24000D03*
X40848Y24000D03*
G54D16*
X14152Y25750D03*
G54D17*
X15348Y25750D03*
X14152Y24750D03*
X15348Y24750D03*
X14152Y23750D03*
X15348Y23750D03*
G54D16*
X31152Y26000D03*
G54D17*
X32348Y26000D03*
X31152Y25000D03*
X32348Y25000D03*
X31152Y24000D03*
X32348Y24000D03*
G54D16*
X22652Y26000D03*
G54D17*
X23848Y26000D03*
X22652Y25000D03*
X23848Y25000D03*
X22652Y24000D03*
X23848Y24000D03*
G54D16*
X50652Y16750D03*
G54D17*
X51848Y16750D03*
X50652Y15750D03*
X51848Y15750D03*
X50652Y14750D03*
X51848Y14750D03*
G54D14*
X48000Y31000D03*
G54D15*
X49000Y31000D03*
G54D14*
X23750Y31000D03*
G54D15*
X24750Y31000D03*
G54D14*
X45000Y31000D03*
G54D15*
X46000Y31000D03*
G54D14*
X37000Y31000D03*
G54D15*
X38000Y31000D03*
G54D14*
X50500Y31000D03*
G54D15*
X51500Y31000D03*
G54D14*
X42500Y31000D03*
G54D15*
X43500Y31000D03*
G54D14*
X29250Y31000D03*
G54D15*
X30250Y31000D03*
G54D14*
X21250Y31000D03*
G54D15*
X22250Y31000D03*
G54D14*
X35500Y6500D03*
G54D15*
X36500Y6500D03*
G54D14*
X37750Y6500D03*
G54D15*
X38750Y6500D03*
G54D14*
X26750Y31000D03*
G54D15*
X27750Y31000D03*
G54D14*
X22000Y6500D03*
G54D15*
X23000Y6500D03*
G54D14*
X39500Y31000D03*
G54D15*
X40500Y31000D03*
G54D14*
X30250Y6500D03*
G54D15*
X31250Y6500D03*
G54D14*
X32500Y6500D03*
G54D15*
X33500Y6500D03*
G54D14*
X19750Y6500D03*
G54D15*
X20750Y6500D03*
G54D14*
X25000Y6500D03*
G54D15*
X26000Y6500D03*
G54D14*
X27250Y6500D03*
G54D15*
X28250Y6500D03*
G54D18*
X23250Y1250D03*
G54D11*
X22250Y1250D03*
G54D18*
X26000Y1250D03*
G54D11*
X25000Y1250D03*
G54D18*
X7750Y41000D03*
G54D11*
X6750Y41000D03*
G54D18*
X20750Y1250D03*
G54D11*
X19750Y1250D03*
G54D18*
X22750Y41000D03*
G54D11*
X21750Y41000D03*
G54D18*
X27750Y41000D03*
G54D11*
X26750Y41000D03*
G54D18*
X17750Y41000D03*
G54D11*
X16750Y41000D03*
G54D18*
X12750Y41000D03*
G54D11*
X11750Y41000D03*
G54D18*
X52500Y41000D03*
G54D11*
X51500Y41000D03*
G54D18*
X39250Y1250D03*
G54D11*
X38250Y1250D03*
G54D18*
X37750Y41000D03*
G54D11*
X36750Y41000D03*
G54D18*
X42750Y41000D03*
G54D11*
X41750Y41000D03*
G54D18*
X47750Y41000D03*
G54D11*
X46750Y41000D03*
G54D18*
X44500Y1250D03*
G54D11*
X43500Y1250D03*
G54D18*
X42000Y1250D03*
G54D11*
X41000Y1250D03*
G54D18*
X36750Y1250D03*
G54D11*
X35750Y1250D03*
G54D18*
X34000Y1250D03*
G54D11*
X33000Y1250D03*
G54D18*
X32750Y41000D03*
G54D11*
X31750Y41000D03*
G54D18*
X31500Y1250D03*
G54D11*
X30500Y1250D03*
G54D18*
X28750Y1250D03*
G54D11*
X27750Y1250D03*
G54D19*
X-1968Y1181D03*
X-1968Y42125D03*
X54724Y42125D03*
X54724Y1181D03*
G54D20*
X50364Y750D03*
X52135Y750D03*
G54D21*
X49872Y1734D03*
X52627Y1734D03*
G54D22*
X7250Y16500D03*
X7250Y19807D03*
X7250Y11500D03*
X7250Y8192D03*
G54D23*
X1775Y17188D03*
G54D24*
X1775Y15811D03*
G54D12*
X18000Y4750D03*
G54D13*
X18000Y5750D03*
G54D25*
X1750Y4000D03*
G54D26*
X1750Y6000D03*
X1750Y8000D03*
X1750Y10000D03*
G54D14*
X16250Y31000D03*
G54D15*
X17250Y31000D03*
X18250Y31000D03*
X19250Y31000D03*
G54D18*
X47000Y3750D03*
G54D11*
X48000Y3750D03*
X47000Y2750D03*
X48000Y2750D03*
X47000Y1750D03*
X48000Y1750D03*
G54D27*
X34500Y28750D03*
X35500Y28750D03*
X36500Y28750D03*
X37500Y28750D03*
X38500Y28750D03*
X39500Y28750D03*
X40500Y28750D03*
X41500Y28750D03*
X43500Y9750D03*
X42500Y9750D03*
X41500Y9750D03*
X40500Y9750D03*
X36500Y9750D03*
X34500Y9750D03*
X33500Y9750D03*
X37500Y9750D03*
X38500Y9750D03*
X39500Y9750D03*
X32500Y9750D03*
X31500Y9750D03*
X30500Y9750D03*
X27500Y9750D03*
X28500Y9750D03*
X29500Y9750D03*
X25500Y9750D03*
X24500Y9750D03*
X23500Y9750D03*
X21500Y9750D03*
X20500Y9750D03*
X32500Y28750D03*
X31500Y28750D03*
X30500Y28750D03*
X29500Y28750D03*
X28500Y28750D03*
X27500Y28750D03*
X26500Y28750D03*
X25500Y28750D03*
X23900Y28750D03*
X22900Y28750D03*
X21900Y28750D03*
X20900Y28750D03*
X19900Y28750D03*
X18900Y28750D03*
X17900Y28750D03*
X16900Y28750D03*
X22500Y9750D03*
G54D11*
X44500Y27750D03*
X45500Y27750D03*
X44500Y26750D03*
X45500Y26750D03*
X44500Y25750D03*
X45500Y25750D03*
X44500Y24750D03*
X45500Y24750D03*
X44500Y28750D03*
X45500Y28750D03*
X45500Y23750D03*
X44500Y23750D03*
X44500Y22750D03*
X45500Y22750D03*
X44500Y21750D03*
X45500Y21750D03*
X44500Y20750D03*
X45500Y20750D03*
X44500Y19750D03*
X45500Y19750D03*
X44500Y18750D03*
X45500Y18750D03*
X44500Y17750D03*
X45500Y17750D03*
X44500Y16750D03*
X45500Y16750D03*
X44500Y15750D03*
X45500Y15750D03*
X44500Y14750D03*
X45500Y14750D03*
X44500Y13750D03*
X45500Y13750D03*
X44500Y12750D03*
X45500Y12750D03*
X44500Y11750D03*
X45500Y11750D03*
G54D27*
X15900Y28750D03*
X14900Y28750D03*
X19500Y9750D03*
X18500Y9750D03*
G54D28*
X2419Y31669D03*
X1080Y31669D03*
X2419Y27830D03*
X1080Y27830D03*
X8669Y23080D03*
X8669Y24419D03*
X4830Y23080D03*
X4830Y24419D03*
X1080Y20080D03*
X2419Y20080D03*
X1080Y23919D03*
X2419Y23919D03*
G54D18*
X43000Y6500D03*
G54D11*
X44000Y6500D03*
G54D12*
X36750Y22750D03*
G54D13*
X36750Y23750D03*
X36750Y24750D03*
X36750Y25750D03*
G54D14*
X40750Y6500D03*
G54D15*
X41750Y6500D03*
M02*
