G04 (created by PCBNEW (2013-07-07 BZR 4022)-stable) date 30/01/2014 17:39:20*
%MOIN*%
G04 Gerber Fmt 3.4, Leading zero omitted, Abs format*
%FSLAX34Y34*%
G01*
G70*
G90*
G04 APERTURE LIST*
%ADD10C,0.00590551*%
%ADD11R,0.055X0.035*%
%ADD12R,0.035X0.055*%
%ADD13R,0.045X0.025*%
%ADD14R,0.025X0.045*%
%ADD15R,0.063X0.1417*%
%ADD16R,0.063X0.1181*%
%ADD17R,0.0394X0.0787*%
%ADD18R,0.0335X0.0335*%
%ADD19R,0.0315X0.0394*%
%ADD20R,0.0394X0.0315*%
%ADD21R,0.12X0.065*%
%ADD22R,0.24X0.24*%
%ADD23R,0.1496X0.0787*%
%ADD24R,0.3543X0.4528*%
%ADD25R,0.0393701X0.0275591*%
%ADD26R,0.0472441X0.0452756*%
%ADD27R,0.0472441X0.0570866*%
%ADD28R,0.0275591X0.0393701*%
%ADD29R,0.0354331X0.0590551*%
%ADD30R,0.0669X0.0827*%
%ADD31R,0.0472X0.0472*%
%ADD32R,0.0512X0.0118*%
%ADD33R,0.0275591X0.0669291*%
%ADD34R,0.0472441X0.0472441*%
%ADD35R,0.023622X0.0354331*%
%ADD36R,0.0354331X0.023622*%
%ADD37R,0.0393701X0.0708661*%
%ADD38R,0.0984X0.0591*%
G04 APERTURE END LIST*
G54D10*
G54D11*
X14000Y27125D03*
X14000Y27875D03*
X23500Y27125D03*
X23500Y27875D03*
X24500Y27125D03*
X24500Y27875D03*
X21000Y34125D03*
X21000Y33375D03*
X17000Y27875D03*
X17000Y27125D03*
X32000Y27125D03*
X32000Y27875D03*
X32000Y33375D03*
X32000Y34125D03*
X22500Y27125D03*
X22500Y27875D03*
X25500Y27875D03*
X25500Y27125D03*
X31000Y34125D03*
X31000Y33375D03*
X33000Y27125D03*
X33000Y27875D03*
X42000Y33375D03*
X42000Y34125D03*
X22000Y33375D03*
X22000Y34125D03*
X15000Y27125D03*
X15000Y27875D03*
X16000Y27125D03*
X16000Y27875D03*
X16000Y34125D03*
X16000Y33375D03*
X53500Y18625D03*
X53500Y17875D03*
X50500Y17875D03*
X50500Y18625D03*
X17000Y33375D03*
X17000Y34125D03*
X51500Y17875D03*
X51500Y18625D03*
X52500Y17875D03*
X52500Y18625D03*
X11000Y34125D03*
X11000Y33375D03*
X42500Y18625D03*
X42500Y17875D03*
X39500Y17875D03*
X39500Y18625D03*
X51550Y27125D03*
X51550Y27875D03*
X49750Y4775D03*
X49750Y4025D03*
G54D12*
X4975Y14650D03*
X4225Y14650D03*
G54D11*
X51000Y34125D03*
X51000Y33375D03*
X52000Y33375D03*
X52000Y34125D03*
X26000Y34125D03*
X26000Y33375D03*
X27000Y33375D03*
X27000Y34125D03*
X46000Y34125D03*
X46000Y33375D03*
X53500Y27875D03*
X53500Y27125D03*
X50550Y27125D03*
X50550Y27875D03*
X47000Y33375D03*
X47000Y34125D03*
X37000Y33375D03*
X37000Y34125D03*
X52550Y27125D03*
X52550Y27875D03*
X41000Y34125D03*
X41000Y33375D03*
X42500Y27875D03*
X42500Y27125D03*
X39500Y27125D03*
X39500Y27875D03*
X33000Y17875D03*
X33000Y18625D03*
X40500Y27125D03*
X40500Y27875D03*
X41500Y27125D03*
X41500Y27875D03*
X36000Y34125D03*
X36000Y33375D03*
X34000Y27875D03*
X34000Y27125D03*
X31000Y27125D03*
X31000Y27875D03*
X39750Y5625D03*
X39750Y6375D03*
X41500Y30875D03*
X41500Y30125D03*
X45000Y5625D03*
X45000Y6375D03*
X16000Y17625D03*
X16000Y18375D03*
X24000Y5625D03*
X24000Y6375D03*
X47000Y30875D03*
X47000Y30125D03*
X24500Y17875D03*
X24500Y18625D03*
X23500Y17875D03*
X23500Y18625D03*
X25750Y30875D03*
X25750Y30125D03*
X52500Y30875D03*
X52500Y30125D03*
X31250Y30875D03*
X31250Y30125D03*
X7000Y33375D03*
X7000Y34125D03*
X31000Y17875D03*
X31000Y18625D03*
X17000Y18375D03*
X17000Y17625D03*
X34000Y18625D03*
X34000Y17875D03*
X6000Y34125D03*
X6000Y33375D03*
X22500Y17875D03*
X22500Y18625D03*
X25500Y18625D03*
X25500Y17875D03*
X32000Y17875D03*
X32000Y18625D03*
X15000Y17625D03*
X15000Y18375D03*
X41500Y17875D03*
X41500Y18625D03*
X34500Y5625D03*
X34500Y6375D03*
X14000Y17625D03*
X14000Y18375D03*
X40500Y17875D03*
X40500Y18625D03*
X29250Y5625D03*
X29250Y6375D03*
X12000Y33375D03*
X12000Y34125D03*
G54D13*
X8500Y30200D03*
X8500Y30800D03*
X9750Y28450D03*
X9750Y29050D03*
G54D14*
X8450Y29000D03*
X9050Y29000D03*
G54D13*
X8500Y32300D03*
X8500Y31700D03*
X44600Y8400D03*
X44600Y9000D03*
G54D15*
X32000Y20417D03*
X32000Y22583D03*
X51500Y20417D03*
X51500Y22583D03*
X32000Y11417D03*
X32000Y13583D03*
X23750Y11417D03*
X23750Y13583D03*
X51500Y11167D03*
X51500Y13333D03*
X40500Y20417D03*
X40500Y22583D03*
X23500Y20417D03*
X23500Y22583D03*
X40500Y11417D03*
X40500Y13583D03*
X15000Y20167D03*
X15000Y22333D03*
X15000Y11167D03*
X15000Y13333D03*
G54D16*
X54500Y31866D03*
X54500Y30134D03*
X14250Y31866D03*
X14250Y30134D03*
X11750Y31866D03*
X11750Y30134D03*
G54D17*
X12478Y1500D03*
X11022Y1500D03*
G54D18*
X11091Y29000D03*
X12409Y29000D03*
X9500Y30591D03*
X9500Y31909D03*
G54D19*
X23250Y33317D03*
X22875Y34183D03*
X23625Y34183D03*
X53250Y33317D03*
X52875Y34183D03*
X53625Y34183D03*
X49750Y33317D03*
X49375Y34183D03*
X50125Y34183D03*
X28250Y33317D03*
X27875Y34183D03*
X28625Y34183D03*
X24750Y33317D03*
X24375Y34183D03*
X25125Y34183D03*
X48250Y33317D03*
X47875Y34183D03*
X48625Y34183D03*
X44750Y33317D03*
X44375Y34183D03*
X45125Y34183D03*
X43250Y33317D03*
X42875Y34183D03*
X43625Y34183D03*
X39750Y33317D03*
X39375Y34183D03*
X40125Y34183D03*
X38250Y33317D03*
X37875Y34183D03*
X38625Y34183D03*
X34750Y33317D03*
X34375Y34183D03*
X35125Y34183D03*
X33250Y33317D03*
X32875Y34183D03*
X33625Y34183D03*
X29750Y33317D03*
X29375Y34183D03*
X30125Y34183D03*
G54D20*
X5133Y11250D03*
X4267Y10875D03*
X4267Y11625D03*
G54D19*
X19750Y33317D03*
X19375Y34183D03*
X20125Y34183D03*
X18250Y33317D03*
X17875Y34183D03*
X18625Y34183D03*
X14850Y33317D03*
X14475Y34183D03*
X15225Y34183D03*
X13250Y33317D03*
X12875Y34183D03*
X13625Y34183D03*
X9750Y33317D03*
X9375Y34183D03*
X10125Y34183D03*
X8250Y33317D03*
X7875Y34183D03*
X8625Y34183D03*
X4750Y33317D03*
X4375Y34183D03*
X5125Y34183D03*
G54D20*
X4683Y12750D03*
X3817Y12375D03*
X3817Y13125D03*
G54D11*
X13500Y1125D03*
X13500Y1875D03*
G54D12*
X4975Y13750D03*
X4225Y13750D03*
G54D21*
X7250Y30350D03*
G54D22*
X4750Y31250D03*
G54D21*
X7250Y32150D03*
X7250Y27100D03*
G54D22*
X4750Y28000D03*
G54D21*
X7250Y28900D03*
G54D23*
X11185Y3016D03*
X11185Y4984D03*
G54D24*
X6815Y4000D03*
G54D25*
X51000Y5283D03*
X51000Y4850D03*
X51000Y4417D03*
X51000Y3984D03*
X51000Y5716D03*
X51000Y6149D03*
X51000Y6582D03*
X51000Y7015D03*
G54D26*
X51452Y3551D03*
X52456Y3551D03*
G54D27*
X51590Y7665D03*
G54D28*
X52043Y7763D03*
G54D29*
X52496Y7665D03*
G54D18*
X18000Y8659D03*
X18000Y7341D03*
G54D12*
X43719Y3937D03*
X44469Y3937D03*
X40963Y3937D03*
X41713Y3937D03*
X38601Y3937D03*
X39351Y3937D03*
X35648Y3937D03*
X36398Y3937D03*
X33089Y3937D03*
X33839Y3937D03*
X30530Y3937D03*
X31280Y3937D03*
X27774Y3937D03*
X28524Y3937D03*
X25018Y3937D03*
X25768Y3937D03*
X22459Y3937D03*
X23209Y3937D03*
X19900Y3937D03*
X20650Y3937D03*
X33839Y3149D03*
X33089Y3149D03*
X20650Y3149D03*
X19900Y3149D03*
G54D11*
X49750Y5775D03*
X49750Y6525D03*
G54D12*
X36398Y3149D03*
X35648Y3149D03*
X25768Y3149D03*
X25018Y3149D03*
X39351Y3149D03*
X38601Y3149D03*
X28524Y3149D03*
X27774Y3149D03*
X31280Y3149D03*
X30530Y3149D03*
X44469Y3149D03*
X43719Y3149D03*
X23209Y3149D03*
X22459Y3149D03*
X41713Y3149D03*
X40963Y3149D03*
G54D30*
X9250Y39181D03*
X9250Y37819D03*
G54D11*
X6000Y34875D03*
X6000Y35625D03*
X17000Y34875D03*
X17000Y35625D03*
X16000Y35625D03*
X16000Y34875D03*
G54D12*
X23625Y35000D03*
X22875Y35000D03*
G54D11*
X7000Y35625D03*
X7000Y34875D03*
G54D12*
X38625Y35000D03*
X37875Y35000D03*
G54D11*
X12000Y34875D03*
X12000Y35625D03*
X11000Y35625D03*
X11000Y34875D03*
G54D12*
X13625Y35000D03*
X12875Y35000D03*
G54D11*
X41000Y35625D03*
X41000Y34875D03*
G54D12*
X53625Y35000D03*
X52875Y35000D03*
G54D11*
X51000Y35625D03*
X51000Y34875D03*
X52000Y34875D03*
X52000Y35625D03*
G54D12*
X28625Y35000D03*
X27875Y35000D03*
G54D11*
X26000Y35625D03*
X26000Y34875D03*
X27000Y34875D03*
X27000Y35625D03*
G54D12*
X43625Y35000D03*
X42875Y35000D03*
G54D11*
X46000Y35625D03*
X46000Y34875D03*
X47000Y34875D03*
X47000Y35625D03*
G54D12*
X48625Y35000D03*
X47875Y35000D03*
G54D11*
X22000Y34875D03*
X22000Y35625D03*
X42000Y34875D03*
X42000Y35625D03*
G54D12*
X8625Y35000D03*
X7875Y35000D03*
G54D11*
X36000Y35625D03*
X36000Y34875D03*
X37000Y34875D03*
X37000Y35625D03*
G54D12*
X33625Y35000D03*
X32875Y35000D03*
G54D11*
X31000Y35625D03*
X31000Y34875D03*
X32000Y34875D03*
X32000Y35625D03*
G54D12*
X18625Y35000D03*
X17875Y35000D03*
G54D11*
X21000Y35625D03*
X21000Y34875D03*
G54D12*
X2375Y11500D03*
X3125Y11500D03*
X3125Y12350D03*
X2375Y12350D03*
G54D31*
X8250Y35837D03*
X8250Y36663D03*
G54D11*
X5000Y15875D03*
X5000Y16625D03*
G54D31*
X18250Y35837D03*
X18250Y36663D03*
X43250Y35837D03*
X43250Y36663D03*
X53250Y35837D03*
X53250Y36663D03*
X28250Y35837D03*
X28250Y36663D03*
G54D30*
X3750Y17181D03*
X3750Y15819D03*
X24250Y39431D03*
X24250Y38069D03*
X19250Y39181D03*
X19250Y37819D03*
X44250Y39181D03*
X44250Y37819D03*
X54250Y39181D03*
X54250Y37819D03*
X29250Y39181D03*
X29250Y37819D03*
G54D31*
X23250Y35837D03*
X23250Y36663D03*
G54D30*
X39250Y39181D03*
X39250Y37819D03*
G54D31*
X48250Y35837D03*
X48250Y36663D03*
X38250Y35837D03*
X38250Y36663D03*
G54D30*
X49250Y39181D03*
X49250Y37819D03*
X34250Y39181D03*
X34250Y37819D03*
G54D31*
X33250Y35837D03*
X33250Y36663D03*
X-337Y14600D03*
X-1163Y14600D03*
G54D30*
X14250Y39181D03*
X14250Y37819D03*
G54D31*
X13250Y35837D03*
X13250Y36663D03*
G54D11*
X16000Y5375D03*
X16000Y4625D03*
X15000Y7625D03*
X15000Y6875D03*
X16000Y7625D03*
X16000Y6875D03*
X8500Y27625D03*
X8500Y26875D03*
X9500Y26875D03*
X9500Y27625D03*
G54D32*
X48100Y7990D03*
X48100Y8240D03*
X48100Y8500D03*
X48100Y8750D03*
X48100Y9010D03*
X48100Y9265D03*
X48100Y9520D03*
X45900Y9520D03*
X45900Y9265D03*
X45900Y9010D03*
X45900Y8750D03*
X45900Y8495D03*
X45900Y8240D03*
X45900Y7985D03*
G54D33*
X51000Y36650D03*
X51500Y36650D03*
X52000Y36650D03*
X52500Y36650D03*
G54D34*
X51277Y37852D03*
X52222Y37852D03*
X51277Y38797D03*
X52222Y38797D03*
G54D33*
X31000Y36650D03*
X31500Y36650D03*
X32000Y36650D03*
X32500Y36650D03*
G54D34*
X31277Y37852D03*
X32222Y37852D03*
X31277Y38797D03*
X32222Y38797D03*
G54D33*
X36000Y36650D03*
X36500Y36650D03*
X37000Y36650D03*
X37500Y36650D03*
G54D34*
X36277Y37852D03*
X37222Y37852D03*
X36277Y38797D03*
X37222Y38797D03*
G54D33*
X46000Y36650D03*
X46500Y36650D03*
X47000Y36650D03*
X47500Y36650D03*
G54D34*
X46277Y37852D03*
X47222Y37852D03*
X46277Y38797D03*
X47222Y38797D03*
G54D33*
X41000Y36650D03*
X41500Y36650D03*
X42000Y36650D03*
X42500Y36650D03*
G54D34*
X41277Y37852D03*
X42222Y37852D03*
X41277Y38797D03*
X42222Y38797D03*
G54D33*
X26000Y36650D03*
X26500Y36650D03*
X27000Y36650D03*
X27500Y36650D03*
G54D34*
X26277Y37852D03*
X27222Y37852D03*
X26277Y38797D03*
X27222Y38797D03*
G54D33*
X16000Y36650D03*
X16500Y36650D03*
X17000Y36650D03*
X17500Y36650D03*
G54D34*
X16277Y37852D03*
X17222Y37852D03*
X16277Y38797D03*
X17222Y38797D03*
G54D33*
X21000Y36650D03*
X21500Y36650D03*
X22000Y36650D03*
X22500Y36650D03*
G54D34*
X21277Y37852D03*
X22222Y37852D03*
X21277Y38797D03*
X22222Y38797D03*
G54D33*
X11000Y36650D03*
X11500Y36650D03*
X12000Y36650D03*
X12500Y36650D03*
G54D34*
X11277Y37852D03*
X12222Y37852D03*
X11277Y38797D03*
X12222Y38797D03*
G54D35*
X7399Y38895D03*
X6966Y38895D03*
X6100Y38895D03*
G54D36*
X7202Y38265D03*
X6297Y38265D03*
X6750Y38265D03*
X6750Y37931D03*
G54D33*
X6000Y36650D03*
X6500Y36650D03*
X7000Y36650D03*
X7500Y36650D03*
G54D36*
X6297Y37596D03*
X7202Y37596D03*
X6297Y37931D03*
X7202Y37931D03*
X6750Y37596D03*
G54D35*
X6533Y38895D03*
G54D37*
X-1509Y13537D03*
X-1509Y12750D03*
X-1509Y11962D03*
X-2415Y11962D03*
X-2415Y12750D03*
X-2415Y13537D03*
X-604Y13537D03*
X-604Y12750D03*
G54D38*
X1108Y11854D03*
X1108Y13646D03*
G54D37*
X-604Y11962D03*
G54D11*
X15000Y5375D03*
X15000Y4625D03*
G54D31*
X14750Y2337D03*
X14750Y3163D03*
X15750Y3163D03*
X15750Y2337D03*
X16750Y3163D03*
X16750Y2337D03*
X17750Y3163D03*
X17750Y2337D03*
M02*
