M48
INCH,TZ
T1C0.020
T2C0.032
T3C0.039
T4C0.039
T5C0.040
T6C0.047
T7C0.049
T8C0.051
T9C0.122
T10C0.154
%
G90
G05
T1
X0.5293Y3.9545
X0.5293Y3.8679
X0.5293Y3.7813
X0.535Y3.295
X0.6278Y3.9624
X0.7222Y3.9624
X0.725Y2.6
X0.725Y2.4
X0.75Y2.45
X0.775Y3.285
X0.775Y2.6
X0.775Y2.4
X0.8207Y3.9545
X0.8207Y3.8679
X0.8207Y3.7813
X0.825Y2.575
X0.825Y2.45
X0.825Y1.725
X0.825Y1.625
X0.825Y1.525
X0.825Y1.425
X0.825Y1.325
X0.825Y1.225
X0.85Y2.5
X0.875Y2.575
X0.875Y2.45
X0.875Y1.675
X0.875Y1.575
X0.875Y1.475
X0.875Y1.375
X0.875Y1.275
X0.875Y1.175
X0.9Y1.225
X0.925Y2.575
X0.925Y2.5
X0.925Y2.45
X0.925Y1.725
X0.925Y1.525
X0.95Y1.175
X0.955Y1.35
X1.Y2.975
X1.Y1.725
X1.Y1.525
X1.0293Y3.9545
X1.0293Y3.8679
X1.0293Y3.7813
X1.03Y3.3
X1.04Y2.795
X1.05Y1.275
X1.07Y2.39
X1.075Y1.725
X1.075Y1.525
X1.075Y1.35
X1.125Y1.675
X1.125Y1.575
X1.125Y1.475
X1.125Y1.4
X1.1278Y3.9624
X1.135Y2.14
X1.165Y3.045
X1.205Y2.76
X1.2222Y3.9624
X1.235Y1.19
X1.24Y1.765
X1.265Y3.265
X1.265Y2.135
X1.295Y1.235
X1.3207Y3.9545
X1.3207Y3.8679
X1.3207Y3.7813
X1.335Y0.845
X1.46Y0.9
X1.5293Y3.9545
X1.5293Y3.8679
X1.5293Y3.7813
X1.54Y3.29
X1.6278Y3.9624
X1.66Y0.87
X1.715Y0.87
X1.7222Y3.9624
X1.77Y3.26
X1.8207Y3.9545
X1.8207Y3.8679
X1.8207Y3.7813
X1.98Y2.77
X2.0293Y3.9545
X2.0293Y3.8679
X2.0293Y3.7813
X2.03Y3.295
X2.1215Y0.5527
X2.1278Y3.9624
X2.17Y0.385
X2.19Y0.805
X2.2222Y3.9624
X2.275Y3.255
X2.275Y3.14
X2.3207Y3.9545
X2.3207Y3.8679
X2.3207Y3.7813
X2.5293Y3.9545
X2.5293Y3.8679
X2.5293Y3.7813
X2.53Y3.29
X2.56Y1.725
X2.575Y3.25
X2.6278Y3.9624
X2.6966Y0.5496
X2.7222Y3.9624
X2.8207Y3.9545
X2.8207Y3.8679
X2.8207Y3.7813
X2.85Y3.14
X2.9Y3.255
X3.0293Y3.9545
X3.0293Y3.8679
X3.0293Y3.7813
X3.03Y3.295
X3.07Y1.34
X3.1278Y3.9624
X3.2222Y3.9624
X3.245Y1.32
X3.26Y2.315
X3.3207Y3.9545
X3.3207Y3.8679
X3.3207Y3.7813
X3.4041Y0.5527
X3.525Y3.295
X3.5293Y3.9545
X3.5293Y3.8679
X3.5293Y3.7813
X3.585Y3.245
X3.6278Y3.9624
X3.7222Y3.9624
X3.8207Y3.9545
X3.8207Y3.8679
X3.8207Y3.7813
X3.875Y1.35
X3.88Y3.255
X3.88Y2.225
X3.8962Y0.5617
X3.9Y3.145
X4.0293Y3.9545
X4.0293Y3.8679
X4.0293Y3.7813
X4.035Y3.29
X4.1278Y3.9624
X4.14Y2.6
X4.2222Y3.9624
X4.3183Y0.548
X4.3207Y3.9545
X4.3207Y3.8679
X4.3207Y3.7813
X4.344Y2.024
X4.395Y3.255
X4.4Y1.627
X4.4Y0.9
X4.453Y3.1306
X4.5293Y3.9545
X4.5293Y3.8679
X4.5293Y3.7813
X4.53Y3.29
X4.55Y1.275
X4.601Y0.498
X4.6278Y3.9624
X4.642Y0.991
X4.708Y0.834
X4.715Y1.024
X4.7222Y3.9624
X4.755Y1.265
X4.775Y1.925
X4.81Y0.996
X4.8207Y3.9545
X4.8207Y3.8679
X4.8207Y3.7813
X4.865Y1.825
X4.875Y3.255
X4.875Y0.915
X4.88Y0.575
X4.925Y0.85
X5.025Y0.85
X5.0293Y3.9545
X5.0293Y3.8679
X5.0293Y3.7813
X5.03Y3.29
X5.05Y3.14
X5.09Y0.755
X5.1278Y3.9624
X5.145Y0.28
X5.16Y0.83
X5.2222Y3.9624
X5.3207Y3.9545
X5.3207Y3.8679
X5.3207Y3.7813
X5.475Y2.775
X5.5078Y3.0501
T2
X1.375Y2.775
X1.375Y2.675
X1.375Y2.575
X1.375Y2.475
X1.375Y2.375
X1.375Y2.275
X1.375Y2.175
X1.375Y2.075
X1.375Y1.875
X1.375Y1.775
X1.375Y1.675
X1.375Y1.575
X1.375Y1.475
X1.375Y1.375
X1.375Y1.275
X1.375Y1.175
X1.875Y2.775
X1.875Y2.675
X1.875Y2.575
X1.875Y2.475
X1.875Y2.375
X1.875Y2.275
X1.875Y2.175
X1.875Y2.075
X1.875Y1.875
X1.875Y1.775
X1.875Y1.675
X1.875Y1.575
X1.875Y1.475
X1.875Y1.375
X1.875Y1.275
X1.875Y1.175
X2.175Y2.775
X2.175Y2.675
X2.175Y2.575
X2.175Y2.475
X2.175Y2.375
X2.175Y2.275
X2.175Y2.175
X2.175Y2.075
X2.175Y1.875
X2.175Y1.775
X2.175Y1.675
X2.175Y1.575
X2.175Y1.475
X2.175Y1.375
X2.175Y1.275
X2.175Y1.175
X2.675Y2.775
X2.675Y2.675
X2.675Y2.575
X2.675Y2.475
X2.675Y2.375
X2.675Y2.275
X2.675Y2.175
X2.675Y2.075
X2.675Y1.875
X2.675Y1.775
X2.675Y1.675
X2.675Y1.575
X2.675Y1.475
X2.675Y1.375
X2.675Y1.275
X2.675Y1.175
X2.975Y2.775
X2.975Y2.675
X2.975Y2.575
X2.975Y2.475
X2.975Y2.375
X2.975Y2.275
X2.975Y2.175
X2.975Y2.075
X2.975Y1.875
X2.975Y1.775
X2.975Y1.675
X2.975Y1.575
X2.975Y1.475
X2.975Y1.375
X2.975Y1.275
X2.975Y1.175
X3.475Y2.775
X3.475Y2.675
X3.475Y2.575
X3.475Y2.475
X3.475Y2.375
X3.475Y2.275
X3.475Y2.175
X3.475Y2.075
X3.475Y1.875
X3.475Y1.775
X3.475Y1.675
X3.475Y1.575
X3.475Y1.475
X3.475Y1.375
X3.475Y1.275
X3.475Y1.175
X3.775Y2.775
X3.775Y2.675
X3.775Y2.575
X3.775Y2.475
X3.775Y2.375
X3.775Y2.275
X3.775Y2.175
X3.775Y2.075
X3.775Y1.875
X3.775Y1.775
X3.775Y1.675
X3.775Y1.575
X3.775Y1.475
X3.775Y1.375
X3.775Y1.275
X3.775Y1.175
X4.275Y2.775
X4.275Y2.675
X4.275Y2.575
X4.275Y2.475
X4.275Y2.375
X4.275Y2.275
X4.275Y2.175
X4.275Y2.075
X4.275Y1.875
X4.275Y1.775
X4.275Y1.675
X4.275Y1.575
X4.275Y1.475
X4.275Y1.375
X4.275Y1.275
X4.275Y1.175
X4.95Y2.7
X4.95Y2.6
X4.95Y2.5
X4.95Y2.4
X4.95Y2.3
X4.95Y2.2
X4.95Y2.1
X4.95Y2.
X4.95Y1.85
X4.95Y1.75
X4.95Y1.65
X4.95Y1.55
X4.95Y1.45
X4.95Y1.35
X4.95Y1.25
X4.95Y1.15
X5.45Y2.7
X5.45Y2.6
X5.45Y2.5
X5.45Y2.4
X5.45Y2.3
X5.45Y2.2
X5.45Y2.1
X5.45Y2.
X5.45Y1.85
X5.45Y1.75
X5.45Y1.65
X5.45Y1.55
X5.45Y1.45
X5.45Y1.35
X5.45Y1.25
X5.45Y1.15
T3
X5.0364Y0.075
X5.2136Y0.075
T4
X1.225Y2.575
X1.225Y2.475
X1.225Y2.375
X1.225Y2.275
X1.225Y1.675
X1.225Y1.575
X1.225Y1.475
X1.225Y1.375
X1.5Y2.575
X1.5Y2.475
X1.5Y2.375
X1.5Y1.675
X1.5Y1.575
X1.5Y1.475
X1.575Y3.1
X1.6Y2.575
X1.6Y2.475
X1.6Y2.375
X1.6Y1.675
X1.6Y1.575
X1.6Y1.475
X1.675Y3.1
X1.775Y3.1
X1.8Y0.575
X1.8Y0.475
X1.875Y3.1
X1.975Y0.65
X2.025Y2.575
X2.025Y2.475
X2.025Y2.375
X2.025Y2.275
X2.025Y1.675
X2.025Y1.575
X2.025Y1.475
X2.025Y1.375
X2.075Y3.1
X2.075Y0.65
X2.175Y3.1
X2.275Y0.65
X2.3Y2.6
X2.3Y2.5
X2.3Y2.4
X2.3Y1.7
X2.3Y1.6
X2.3Y1.5
X2.375Y3.1
X2.375Y0.65
X2.4Y2.6
X2.4Y2.5
X2.4Y2.4
X2.4Y1.7
X2.4Y1.6
X2.4Y1.5
X2.475Y3.1
X2.55Y0.65
X2.65Y3.1
X2.65Y0.65
X2.75Y3.1
X2.825Y2.575
X2.825Y2.475
X2.825Y2.375
X2.825Y2.275
X2.825Y1.675
X2.825Y1.575
X2.825Y1.475
X2.825Y1.375
X2.85Y0.65
X2.95Y3.1
X2.95Y0.65
X3.05Y3.1
X3.1Y2.6
X3.1Y2.5
X3.1Y2.4
X3.1Y1.7
X3.1Y1.6
X3.1Y1.5
X3.15Y0.65
X3.2Y2.6
X3.2Y2.5
X3.2Y2.4
X3.2Y1.7
X3.2Y1.6
X3.2Y1.5
X3.225Y3.1
X3.25Y0.65
X3.325Y3.1
X3.425Y3.1
X3.45Y0.65
X3.525Y3.1
X3.55Y0.65
X3.625Y2.575
X3.625Y2.475
X3.625Y2.375
X3.625Y2.275
X3.625Y1.675
X3.625Y1.575
X3.625Y1.475
X3.625Y1.375
X3.7Y3.1
X3.75Y0.65
X3.8Y3.1
X3.85Y0.65
X3.9Y2.6
X3.9Y2.5
X3.9Y2.4
X3.9Y1.7
X3.9Y1.6
X3.9Y1.5
X4.Y3.1
X4.Y2.6
X4.Y2.5
X4.Y2.4
X4.Y1.7
X4.Y1.6
X4.Y1.5
X4.05Y0.65
X4.1Y3.1
X4.15Y0.65
X4.275Y3.1
X4.35Y0.65
X4.375Y3.1
X4.45Y0.65
X4.575Y3.1
X4.65Y0.65
X4.675Y3.1
X4.75Y0.65
X4.8Y2.5
X4.8Y2.4
X4.8Y2.3
X4.8Y2.2
X4.8Y1.65
X4.8Y1.55
X4.8Y1.45
X4.8Y1.35
X4.85Y3.1
X4.95Y3.1
X5.075Y2.525
X5.075Y2.425
X5.075Y2.325
X5.075Y1.65
X5.075Y1.55
X5.075Y1.45
X5.125Y0.95
X5.15Y3.1
X5.175Y2.525
X5.175Y2.425
X5.175Y2.325
X5.175Y1.65
X5.175Y1.55
X5.175Y1.45
X5.225Y0.95
X5.25Y3.1
X5.325Y0.95
X5.425Y0.95
T5
X0.15Y3.9
X0.15Y3.65
X0.15Y3.45
X0.15Y3.2
X0.15Y3.
X0.15Y2.8
X0.15Y2.6
X0.15Y2.4
X0.15Y2.2
X0.15Y1.95
X0.15Y1.7
X0.15Y1.45
X0.15Y1.25
X0.15Y1.05
X0.15Y0.8
X0.15Y0.55
X0.2971Y0.3971
X0.3Y4.05
X0.5Y4.25
X0.535Y3.665
X0.675Y4.05
X0.775Y4.05
X0.8Y4.25
X1.03Y3.665
X1.175Y4.05
X1.275Y4.25
X1.275Y4.05
X1.49Y2.875
X1.53Y3.665
X1.59Y2.875
X1.675Y4.05
X1.69Y2.875
X1.775Y4.05
X1.79Y2.875
X1.8Y4.25
X1.85Y0.975
X1.89Y2.875
X1.95Y0.975
X1.9776Y0.1378
X1.99Y2.875
X2.02Y3.665
X2.05Y0.975
X2.0776Y0.1378
X2.09Y2.875
X2.15Y0.975
X2.175Y4.05
X2.19Y2.875
X2.2335Y0.1378
X2.25Y0.975
X2.275Y4.25
X2.275Y4.05
X2.29Y2.875
X2.3335Y0.1378
X2.35Y0.975
X2.39Y2.875
X2.45Y0.975
X2.4992Y0.1378
X2.525Y3.66
X2.55Y2.875
X2.55Y0.975
X2.5992Y0.1378
X2.65Y2.875
X2.675Y4.05
X2.75Y2.875
X2.75Y0.975
X2.765Y0.1378
X2.775Y4.05
X2.8Y4.25
X2.85Y2.875
X2.85Y0.975
X2.865Y0.1378
X2.95Y2.875
X2.95Y0.975
X3.02Y3.66
X3.0307Y0.1378
X3.05Y2.875
X3.05Y0.975
X3.1307Y0.1378
X3.15Y2.875
X3.15Y0.975
X3.175Y4.05
X3.25Y2.875
X3.25Y0.975
X3.275Y4.25
X3.275Y4.05
X3.2965Y0.1378
X3.35Y0.975
X3.3965Y0.1378
X3.45Y2.875
X3.45Y0.975
X3.525Y3.66
X3.55Y2.875
X3.5622Y0.1378
X3.65Y2.875
X3.65Y0.975
X3.6622Y0.1378
X3.675Y4.05
X3.75Y2.875
X3.75Y0.975
X3.775Y4.05
X3.8Y4.25
X3.8378Y0.1378
X3.85Y2.875
X3.85Y0.975
X3.9378Y0.1378
X3.95Y2.875
X3.95Y0.975
X4.03Y3.66
X4.05Y2.875
X4.05Y0.975
X4.0937Y0.1378
X4.15Y2.875
X4.15Y0.975
X4.175Y4.05
X4.1937Y0.1378
X4.25Y0.975
X4.275Y4.25
X4.275Y4.05
X4.35Y0.975
X4.3594Y0.1378
X4.45Y2.875
X4.45Y2.775
X4.45Y2.675
X4.45Y2.575
X4.45Y2.475
X4.45Y2.375
X4.45Y2.275
X4.45Y2.175
X4.45Y2.075
X4.45Y1.975
X4.45Y1.875
X4.45Y1.775
X4.45Y1.675
X4.45Y1.575
X4.45Y1.475
X4.45Y1.375
X4.45Y1.275
X4.45Y1.175
X4.4594Y0.1378
X4.525Y3.665
X4.55Y2.875
X4.55Y2.775
X4.55Y2.675
X4.55Y2.575
X4.55Y2.475
X4.55Y2.375
X4.55Y2.275
X4.55Y2.175
X4.55Y2.075
X4.55Y1.975
X4.55Y1.875
X4.55Y1.775
X4.55Y1.675
X4.55Y1.575
X4.55Y1.475
X4.55Y1.375
X4.55Y1.275
X4.55Y1.175
X4.675Y4.05
X4.7Y0.375
X4.7Y0.275
X4.7Y0.175
X4.775Y4.05
X4.8Y4.25
X4.8Y0.375
X4.8Y0.275
X4.8Y0.175
X5.015Y3.66
X5.175Y4.05
X5.25Y4.25
X5.275Y4.05
T6
X0.5776Y2.1689
X0.5776Y2.0311
T7
X0.575Y1.125
X0.575Y0.925
X0.575Y0.725
X0.575Y0.525
T8
X4.9872Y0.1734
X5.2628Y0.1734
T9
X0.1181Y4.2126
X0.1181Y0.1181
X5.4724Y4.2126
X5.4724Y0.1181
T10
X0.4943Y0.2
X0.825Y0.2
X1.325Y0.2
X1.6557Y0.2
T0
M30
