%FSTAX43Y43*%
%MOMM*%
G71*
G01*
G75*
G04 Layer_Physical_Order=1*
G04 Layer_Color=255*
%ADD10R,2.540X1.524*%
%ADD11R,1.524X1.524*%
%ADD12R,0.600X1.000*%
%ADD13R,1.143X1.270*%
%ADD14R,1.524X1.524*%
%ADD15R,1.700X1.200*%
%ADD16R,1.270X1.143*%
%ADD17R,0.762X0.762*%
%ADD18R,1.100X1.000*%
%ADD19R,2.400X1.000*%
%ADD20R,3.000X1.400*%
%ADD21R,6.500X6.000*%
%ADD22R,1.000X0.600*%
%ADD23R,0.500X1.600*%
%ADD24R,4.500X4.200*%
G04:AMPARAMS|DCode=25|XSize=3mm|YSize=1mm|CornerRadius=0mm|HoleSize=0mm|Usage=FLASHONLY|Rotation=180.000|XOffset=0mm|YOffset=0mm|HoleType=Round|Shape=Octagon|*
%AMOCTAGOND25*
4,1,8,-1.500,0.250,-1.500,-0.250,-1.250,-0.500,1.250,-0.500,1.500,-0.250,1.500,0.250,1.250,0.500,-1.250,0.500,-1.500,0.250,0.0*
%
%ADD25OCTAGOND25*%

%ADD26R,2.400X1.050*%
%ADD27R,8.900X10.650*%
%ADD28R,1.200X1.700*%
%ADD29R,2.000X1.000*%
%ADD30R,1.200X1.150*%
%ADD31R,1.100X1.100*%
%ADD32R,0.700X1.000*%
%ADD33R,1.000X0.600*%
%ADD34R,1.000X0.700*%
%ADD35R,0.900X1.400*%
%ADD36R,1.200X1.450*%
%ADD37O,0.450X1.700*%
%ADD38R,0.450X1.700*%
%ADD39R,0.762X0.762*%
%ADD40C,0.600*%
%ADD41C,0.500*%
%ADD42C,0.400*%
%ADD43C,0.300*%
%ADD44C,1.200*%
%ADD45C,1.000*%
%ADD46C,1.500*%
%ADD47C,2.540*%
%ADD48C,0.800*%
%ADD49C,2.000*%
%ADD50C,0.700*%
%ADD51C,1.700*%
%ADD52C,1.300*%
%ADD53C,5.500*%
%ADD54C,5.000*%
%ADD55C,1.400*%
%ADD56C,1.600*%
%ADD57C,0.254*%
%ADD58C,0.152*%
%ADD59R,1.500X1.500*%
%ADD60C,1.500*%
%ADD61C,3.000*%
%ADD62R,1.500X1.500*%
%ADD63R,6.000X5.500*%
%ADD64C,2.500*%
%ADD65C,2.000*%
%ADD66C,1.200*%
%ADD67C,1.000*%
G36*
X0061Y00955D02*
X0060058D01*
X0059929Y0095879D01*
X0060038Y0095962D01*
X0060159Y009612D01*
X0060235Y0096303D01*
X0060244Y0096373D01*
X0058756D01*
X0058765Y0096303D01*
X0058841Y009612D01*
X0058962Y0095962D01*
X0059071Y0095879D01*
X0058942Y00955D01*
X0057909D01*
Y0097373D01*
X0052901D01*
Y00955D01*
X0052058D01*
X0051929Y0095879D01*
X0052038Y0095962D01*
X0052159Y009612D01*
X0052235Y0096303D01*
X0052244Y0096373D01*
X0050756D01*
X0050765Y0096303D01*
X0050841Y009612D01*
X0050962Y0095962D01*
X0051071Y0095879D01*
X0050942Y00955D01*
X005D01*
Y010125D01*
X0050673D01*
X005085Y0100891D01*
X0050841Y010088D01*
X0050765Y0100697D01*
X0050756Y0100627D01*
X0052244D01*
X0052235Y0100697D01*
X0052159Y010088D01*
X0052038Y0101038D01*
X005188Y0101159D01*
Y0101159D01*
X0051972Y010125D01*
X0052673D01*
X005285Y0100891D01*
X0052841Y010088D01*
X0052765Y0100697D01*
X0052756Y0100627D01*
X00535D01*
Y0100373D01*
X0052756D01*
X0052765Y0100303D01*
X0052841Y010012D01*
X0052901Y0100042D01*
X0052901Y0099854D01*
X0052901D01*
Y0098958D01*
X0052841Y009888D01*
X0052765Y0098697D01*
X0052756Y0098627D01*
X00535D01*
Y0098373D01*
X0052756D01*
X0052765Y0098303D01*
X0052841Y009812D01*
X0052901Y0098042D01*
Y0097627D01*
X0057909D01*
Y0097863D01*
X0058038Y0097962D01*
X0058159Y009812D01*
X0058235Y0098303D01*
X0058244Y0098373D01*
X00575D01*
Y0098627D01*
X0058244D01*
X0058235Y0098697D01*
X0058159Y009888D01*
X0058038Y0099038D01*
X0057909Y0099137D01*
Y0099854D01*
X0057909Y0099854D01*
X0057909D01*
X0057906Y0099861D01*
X0058038Y0099962D01*
X0058159Y010012D01*
X0058235Y0100303D01*
X0058244Y0100373D01*
X00575D01*
Y0100627D01*
X0058244D01*
X0058235Y0100697D01*
X0058159Y010088D01*
X0058038Y0101038D01*
X005788Y0101159D01*
Y0101159D01*
X0057972Y010125D01*
X0058673D01*
X005885Y0100891D01*
X0058841Y010088D01*
X0058765Y0100697D01*
X0058756Y0100627D01*
X0060244D01*
X0060235Y0100697D01*
X0060159Y010088D01*
X0060038Y0101038D01*
X005988Y0101159D01*
Y0101159D01*
X0059972Y010125D01*
X0061D01*
Y00955D01*
D02*
G37*
G36*
X00735D02*
X0072558D01*
X0072429Y0095879D01*
X0072538Y0095962D01*
X0072659Y009612D01*
X0072735Y0096303D01*
X0072744Y0096373D01*
X0071256D01*
X0071265Y0096303D01*
X0071341Y009612D01*
X0071462Y0095962D01*
X0071571Y0095879D01*
X0071442Y00955D01*
X0070409D01*
Y0097373D01*
X0065401D01*
Y00955D01*
X0064558D01*
X0064429Y0095879D01*
X0064538Y0095962D01*
X0064659Y009612D01*
X0064735Y0096303D01*
X0064744Y0096373D01*
X0063256D01*
X0063265Y0096303D01*
X0063341Y009612D01*
X0063462Y0095962D01*
X0063571Y0095879D01*
X0063442Y00955D01*
X00625D01*
Y010125D01*
X0063173D01*
X006335Y0100891D01*
X0063341Y010088D01*
X0063265Y0100697D01*
X0063256Y0100627D01*
X0064744D01*
X0064735Y0100697D01*
X0064659Y010088D01*
X0064538Y0101038D01*
X006438Y0101159D01*
Y0101159D01*
X0064472Y010125D01*
X0065173D01*
X006535Y0100891D01*
X0065341Y010088D01*
X0065265Y0100697D01*
X0065256Y0100627D01*
X0066D01*
Y0100373D01*
X0065256D01*
X0065265Y0100303D01*
X0065341Y010012D01*
X0065401Y0100042D01*
X0065401Y0099854D01*
X0065401D01*
Y0098958D01*
X0065341Y009888D01*
X0065265Y0098697D01*
X0065256Y0098627D01*
X0066D01*
Y0098373D01*
X0065256D01*
X0065265Y0098303D01*
X0065341Y009812D01*
X0065401Y0098042D01*
Y0097627D01*
X0070409D01*
Y0097863D01*
X0070538Y0097962D01*
X0070659Y009812D01*
X0070735Y0098303D01*
X0070744Y0098373D01*
X007D01*
Y0098627D01*
X0070744D01*
X0070735Y0098697D01*
X0070659Y009888D01*
X0070538Y0099038D01*
X0070409Y0099137D01*
Y0099854D01*
X0070409Y0099854D01*
X0070409D01*
X0070406Y0099861D01*
X0070538Y0099962D01*
X0070659Y010012D01*
X0070735Y0100303D01*
X0070744Y0100373D01*
X007D01*
Y0100627D01*
X0070744D01*
X0070735Y0100697D01*
X0070659Y010088D01*
X0070538Y0101038D01*
X007038Y0101159D01*
Y0101159D01*
X0070472Y010125D01*
X0071173D01*
X007135Y0100891D01*
X0071341Y010088D01*
X0071265Y0100697D01*
X0071256Y0100627D01*
X0072744D01*
X0072735Y0100697D01*
X0072659Y010088D01*
X0072538Y0101038D01*
X007238Y0101159D01*
Y0101159D01*
X0072472Y010125D01*
X00735D01*
Y00955D01*
D02*
G37*
G36*
X00485D02*
X0047558D01*
X0047429Y0095879D01*
X0047538Y0095962D01*
X0047659Y009612D01*
X0047735Y0096303D01*
X0047744Y0096373D01*
X0046256D01*
X0046265Y0096303D01*
X0046341Y009612D01*
X0046462Y0095962D01*
X0046571Y0095879D01*
X0046442Y00955D01*
X0045409D01*
Y0097373D01*
X0040401D01*
Y00955D01*
X0039558D01*
X0039429Y0095879D01*
X0039538Y0095962D01*
X0039659Y009612D01*
X0039735Y0096303D01*
X0039744Y0096373D01*
X0038256D01*
X0038265Y0096303D01*
X0038341Y009612D01*
X0038462Y0095962D01*
X0038571Y0095879D01*
X0038442Y00955D01*
X00375D01*
Y010125D01*
X0038173D01*
X003835Y0100891D01*
X0038341Y010088D01*
X0038265Y0100697D01*
X0038256Y0100627D01*
X0039744D01*
X0039735Y0100697D01*
X0039659Y010088D01*
X0039538Y0101038D01*
X003938Y0101159D01*
Y0101159D01*
X0039472Y010125D01*
X0040173D01*
X004035Y0100891D01*
X0040341Y010088D01*
X0040265Y0100697D01*
X0040256Y0100627D01*
X0041D01*
Y0100373D01*
X0040256D01*
X0040265Y0100303D01*
X0040341Y010012D01*
X0040401Y0100042D01*
X0040401Y0099854D01*
X0040401D01*
Y0098958D01*
X0040341Y009888D01*
X0040265Y0098697D01*
X0040256Y0098627D01*
X0041D01*
Y0098373D01*
X0040256D01*
X0040265Y0098303D01*
X0040341Y009812D01*
X0040401Y0098042D01*
Y0097627D01*
X0045409D01*
Y0097863D01*
X0045538Y0097962D01*
X0045659Y009812D01*
X0045735Y0098303D01*
X0045744Y0098373D01*
X0045D01*
Y0098627D01*
X0045744D01*
X0045735Y0098697D01*
X0045659Y009888D01*
X0045538Y0099038D01*
X0045409Y0099137D01*
Y0099854D01*
X0045409Y0099854D01*
X0045409D01*
X0045406Y0099861D01*
X0045538Y0099962D01*
X0045659Y010012D01*
X0045735Y0100303D01*
X0045744Y0100373D01*
X0045D01*
Y0100627D01*
X0045744D01*
X0045735Y0100697D01*
X0045659Y010088D01*
X0045538Y0101038D01*
X004538Y0101159D01*
Y0101159D01*
X0045472Y010125D01*
X0046173D01*
X004635Y0100891D01*
X0046341Y010088D01*
X0046265Y0100697D01*
X0046256Y0100627D01*
X0047744D01*
X0047735Y0100697D01*
X0047659Y010088D01*
X0047538Y0101038D01*
X004738Y0101159D01*
Y0101159D01*
X0047472Y010125D01*
X00485D01*
Y00955D01*
D02*
G37*
G36*
X00225D02*
X0021558D01*
X0021429Y0095879D01*
X0021538Y0095962D01*
X0021659Y009612D01*
X0021735Y0096303D01*
X0021744Y0096373D01*
X0020256D01*
X0020265Y0096303D01*
X0020341Y009612D01*
X0020462Y0095962D01*
X0020571Y0095879D01*
X0020442Y00955D01*
X0019409D01*
Y0097373D01*
X0014401D01*
Y00955D01*
X0013558D01*
X0013429Y0095879D01*
X0013538Y0095962D01*
X0013659Y009612D01*
X0013735Y0096303D01*
X0013744Y0096373D01*
X0012256D01*
X0012265Y0096303D01*
X0012341Y009612D01*
X0012462Y0095962D01*
X0012571Y0095879D01*
X0012442Y00955D01*
X00115D01*
Y010125D01*
X0012173D01*
X001235Y0100891D01*
X0012341Y010088D01*
X0012265Y0100697D01*
X0012256Y0100627D01*
X0013744D01*
X0013735Y0100697D01*
X0013659Y010088D01*
X0013538Y0101038D01*
X001338Y0101159D01*
Y0101159D01*
X0013472Y010125D01*
X0014173D01*
X001435Y0100891D01*
X0014341Y010088D01*
X0014265Y0100697D01*
X0014256Y0100627D01*
X0015D01*
Y0100373D01*
X0014256D01*
X0014265Y0100303D01*
X0014341Y010012D01*
X0014401Y0100042D01*
X0014401Y0099854D01*
X0014401D01*
Y0098958D01*
X0014341Y009888D01*
X0014265Y0098697D01*
X0014256Y0098627D01*
X0015D01*
Y0098373D01*
X0014256D01*
X0014265Y0098303D01*
X0014341Y009812D01*
X0014401Y0098042D01*
Y0097627D01*
X0019409D01*
Y0097863D01*
X0019538Y0097962D01*
X0019659Y009812D01*
X0019735Y0098303D01*
X0019744Y0098373D01*
X0019D01*
Y0098627D01*
X0019744D01*
X0019735Y0098697D01*
X0019659Y009888D01*
X0019538Y0099038D01*
X0019409Y0099137D01*
Y0099854D01*
X0019409Y0099854D01*
X0019409D01*
X0019406Y0099861D01*
X0019538Y0099962D01*
X0019659Y010012D01*
X0019735Y0100303D01*
X0019744Y0100373D01*
X0019D01*
Y0100627D01*
X0019744D01*
X0019735Y0100697D01*
X0019659Y010088D01*
X0019538Y0101038D01*
X001938Y0101159D01*
Y0101159D01*
X0019472Y010125D01*
X0020173D01*
X002035Y0100891D01*
X0020341Y010088D01*
X0020265Y0100697D01*
X0020256Y0100627D01*
X0021744D01*
X0021735Y0100697D01*
X0021659Y010088D01*
X0021538Y0101038D01*
X002138Y0101159D01*
Y0101159D01*
X0021472Y010125D01*
X00225D01*
Y00955D01*
D02*
G37*
G36*
X00355D02*
X0034558D01*
X0034429Y0095879D01*
X0034538Y0095962D01*
X0034659Y009612D01*
X0034735Y0096303D01*
X0034744Y0096373D01*
X0033256D01*
X0033265Y0096303D01*
X0033341Y009612D01*
X0033462Y0095962D01*
X0033571Y0095879D01*
X0033442Y00955D01*
X0032409D01*
Y0097373D01*
X0027401D01*
Y00955D01*
X0026558D01*
X0026429Y0095879D01*
X0026538Y0095962D01*
X0026659Y009612D01*
X0026735Y0096303D01*
X0026744Y0096373D01*
X0025256D01*
X0025265Y0096303D01*
X0025341Y009612D01*
X0025462Y0095962D01*
X0025571Y0095879D01*
X0025442Y00955D01*
X00245D01*
Y010125D01*
X0025173D01*
X002535Y0100891D01*
X0025341Y010088D01*
X0025265Y0100697D01*
X0025256Y0100627D01*
X0026744D01*
X0026735Y0100697D01*
X0026659Y010088D01*
X0026538Y0101038D01*
X002638Y0101159D01*
Y0101159D01*
X0026472Y010125D01*
X0027173D01*
X002735Y0100891D01*
X0027341Y010088D01*
X0027265Y0100697D01*
X0027256Y0100627D01*
X0028D01*
Y0100373D01*
X0027256D01*
X0027265Y0100303D01*
X0027341Y010012D01*
X0027401Y0100042D01*
X0027401Y0099854D01*
X0027401D01*
Y0098958D01*
X0027341Y009888D01*
X0027265Y0098697D01*
X0027256Y0098627D01*
X0028D01*
Y0098373D01*
X0027256D01*
X0027265Y0098303D01*
X0027341Y009812D01*
X0027401Y0098042D01*
Y0097627D01*
X0032409D01*
Y0097863D01*
X0032538Y0097962D01*
X0032659Y009812D01*
X0032735Y0098303D01*
X0032744Y0098373D01*
X0032D01*
Y0098627D01*
X0032744D01*
X0032735Y0098697D01*
X0032659Y009888D01*
X0032538Y0099038D01*
X0032409Y0099137D01*
Y0099854D01*
X0032409Y0099854D01*
X0032409D01*
X0032406Y0099861D01*
X0032538Y0099962D01*
X0032659Y010012D01*
X0032735Y0100303D01*
X0032744Y0100373D01*
X0032D01*
Y0100627D01*
X0032744D01*
X0032735Y0100697D01*
X0032659Y010088D01*
X0032538Y0101038D01*
X003238Y0101159D01*
Y0101159D01*
X0032472Y010125D01*
X0033173D01*
X003335Y0100891D01*
X0033341Y010088D01*
X0033265Y0100697D01*
X0033256Y0100627D01*
X0034744D01*
X0034735Y0100697D01*
X0034659Y010088D01*
X0034538Y0101038D01*
X003438Y0101159D01*
Y0101159D01*
X0034472Y010125D01*
X00355D01*
Y00955D01*
D02*
G37*
G36*
X01245D02*
X0123558D01*
X0123429Y0095879D01*
X0123538Y0095962D01*
X0123659Y009612D01*
X0123735Y0096303D01*
X0123744Y0096373D01*
X0122256D01*
X0122265Y0096303D01*
X0122341Y009612D01*
X0122462Y0095962D01*
X0122571Y0095879D01*
X0122442Y00955D01*
X0121409D01*
Y0097373D01*
X0116401D01*
Y00955D01*
X0115558D01*
X0115429Y0095879D01*
X0115538Y0095962D01*
X0115659Y009612D01*
X0115735Y0096303D01*
X0115744Y0096373D01*
X0114256D01*
X0114265Y0096303D01*
X0114341Y009612D01*
X0114462Y0095962D01*
X0114571Y0095879D01*
X0114442Y00955D01*
X01135D01*
Y010125D01*
X0114173D01*
X011435Y0100891D01*
X0114341Y010088D01*
X0114265Y0100697D01*
X0114256Y0100627D01*
X0115744D01*
X0115735Y0100697D01*
X0115659Y010088D01*
X0115538Y0101038D01*
X011538Y0101159D01*
Y0101159D01*
X0115472Y010125D01*
X0116173D01*
X011635Y0100891D01*
X0116341Y010088D01*
X0116265Y0100697D01*
X0116256Y0100627D01*
X0117D01*
Y0100373D01*
X0116256D01*
X0116265Y0100303D01*
X0116341Y010012D01*
X0116401Y0100042D01*
X0116401Y0099854D01*
X0116401D01*
Y0098958D01*
X0116341Y009888D01*
X0116265Y0098697D01*
X0116256Y0098627D01*
X0117D01*
Y0098373D01*
X0116256D01*
X0116265Y0098303D01*
X0116341Y009812D01*
X0116401Y0098042D01*
Y0097627D01*
X0121409D01*
Y0097863D01*
X0121538Y0097962D01*
X0121659Y009812D01*
X0121735Y0098303D01*
X0121744Y0098373D01*
X0121D01*
Y0098627D01*
X0121744D01*
X0121735Y0098697D01*
X0121659Y009888D01*
X0121538Y0099038D01*
X0121409Y0099137D01*
Y0099854D01*
X0121409Y0099854D01*
X0121409D01*
X0121406Y0099861D01*
X0121538Y0099962D01*
X0121659Y010012D01*
X0121735Y0100303D01*
X0121744Y0100373D01*
X0121D01*
Y0100627D01*
X0121744D01*
X0121735Y0100697D01*
X0121659Y010088D01*
X0121538Y0101038D01*
X012138Y0101159D01*
Y0101159D01*
X0121472Y010125D01*
X0122173D01*
X012235Y0100891D01*
X0122341Y010088D01*
X0122265Y0100697D01*
X0122256Y0100627D01*
X0123744D01*
X0123735Y0100697D01*
X0123659Y010088D01*
X0123538Y0101038D01*
X012338Y0101159D01*
Y0101159D01*
X0123472Y010125D01*
X01245D01*
Y00955D01*
D02*
G37*
G36*
X01385D02*
X0137558D01*
X0137429Y0095879D01*
X0137538Y0095962D01*
X0137659Y009612D01*
X0137735Y0096303D01*
X0137744Y0096373D01*
X0136256D01*
X0136265Y0096303D01*
X0136341Y009612D01*
X0136462Y0095962D01*
X0136571Y0095879D01*
X0136442Y00955D01*
X0135409D01*
Y0097373D01*
X0130401D01*
Y00955D01*
X0129558D01*
X0129429Y0095879D01*
X0129538Y0095962D01*
X0129659Y009612D01*
X0129735Y0096303D01*
X0129744Y0096373D01*
X0128256D01*
X0128265Y0096303D01*
X0128341Y009612D01*
X0128462Y0095962D01*
X0128571Y0095879D01*
X0128442Y00955D01*
X01275D01*
Y010125D01*
X0128173D01*
X012835Y0100891D01*
X0128341Y010088D01*
X0128265Y0100697D01*
X0128256Y0100627D01*
X0129744D01*
X0129735Y0100697D01*
X0129659Y010088D01*
X0129538Y0101038D01*
X012938Y0101159D01*
Y0101159D01*
X0129472Y010125D01*
X0130173D01*
X013035Y0100891D01*
X0130341Y010088D01*
X0130265Y0100697D01*
X0130256Y0100627D01*
X0131D01*
Y0100373D01*
X0130256D01*
X0130265Y0100303D01*
X0130341Y010012D01*
X0130401Y0100042D01*
X0130401Y0099854D01*
X0130401D01*
Y0098958D01*
X0130341Y009888D01*
X0130265Y0098697D01*
X0130256Y0098627D01*
X0131D01*
Y0098373D01*
X0130256D01*
X0130265Y0098303D01*
X0130341Y009812D01*
X0130401Y0098042D01*
Y0097627D01*
X0135409D01*
Y0097863D01*
X0135538Y0097962D01*
X0135659Y009812D01*
X0135735Y0098303D01*
X0135744Y0098373D01*
X0135D01*
Y0098627D01*
X0135744D01*
X0135735Y0098697D01*
X0135659Y009888D01*
X0135538Y0099038D01*
X0135409Y0099137D01*
Y0099854D01*
X0135409Y0099854D01*
X0135409D01*
X0135406Y0099861D01*
X0135538Y0099962D01*
X0135659Y010012D01*
X0135735Y0100303D01*
X0135744Y0100373D01*
X0135D01*
Y0100627D01*
X0135744D01*
X0135735Y0100697D01*
X0135659Y010088D01*
X0135538Y0101038D01*
X013538Y0101159D01*
Y0101159D01*
X0135472Y010125D01*
X0136173D01*
X013635Y0100891D01*
X0136341Y010088D01*
X0136265Y0100697D01*
X0136256Y0100627D01*
X0137744D01*
X0137735Y0100697D01*
X0137659Y010088D01*
X0137538Y0101038D01*
X013738Y0101159D01*
Y0101159D01*
X0137472Y010125D01*
X01385D01*
Y00955D01*
D02*
G37*
G36*
X01125D02*
X0111558D01*
X0111429Y0095879D01*
X0111538Y0095962D01*
X0111659Y009612D01*
X0111735Y0096303D01*
X0111744Y0096373D01*
X0110256D01*
X0110265Y0096303D01*
X0110341Y009612D01*
X0110462Y0095962D01*
X0110571Y0095879D01*
X0110442Y00955D01*
X0109409D01*
Y0097373D01*
X0104401D01*
Y00955D01*
X0103558D01*
X0103429Y0095879D01*
X0103538Y0095962D01*
X0103659Y009612D01*
X0103735Y0096303D01*
X0103744Y0096373D01*
X0102256D01*
X0102265Y0096303D01*
X0102341Y009612D01*
X0102462Y0095962D01*
X0102571Y0095879D01*
X0102442Y00955D01*
X01015D01*
Y010125D01*
X0102173D01*
X010235Y0100891D01*
X0102341Y010088D01*
X0102265Y0100697D01*
X0102256Y0100627D01*
X0103744D01*
X0103735Y0100697D01*
X0103659Y010088D01*
X0103538Y0101038D01*
X010338Y0101159D01*
Y0101159D01*
X0103472Y010125D01*
X0104173D01*
X010435Y0100891D01*
X0104341Y010088D01*
X0104265Y0100697D01*
X0104256Y0100627D01*
X0105D01*
Y0100373D01*
X0104256D01*
X0104265Y0100303D01*
X0104341Y010012D01*
X0104401Y0100042D01*
X0104401Y0099854D01*
X0104401D01*
Y0098958D01*
X0104341Y009888D01*
X0104265Y0098697D01*
X0104256Y0098627D01*
X0105D01*
Y0098373D01*
X0104256D01*
X0104265Y0098303D01*
X0104341Y009812D01*
X0104401Y0098042D01*
Y0097627D01*
X0109409D01*
Y0097863D01*
X0109538Y0097962D01*
X0109659Y009812D01*
X0109735Y0098303D01*
X0109744Y0098373D01*
X0109D01*
Y0098627D01*
X0109744D01*
X0109735Y0098697D01*
X0109659Y009888D01*
X0109538Y0099038D01*
X0109409Y0099137D01*
Y0099854D01*
X0109409Y0099854D01*
X0109409D01*
X0109406Y0099861D01*
X0109538Y0099962D01*
X0109659Y010012D01*
X0109735Y0100303D01*
X0109744Y0100373D01*
X0109D01*
Y0100627D01*
X0109744D01*
X0109735Y0100697D01*
X0109659Y010088D01*
X0109538Y0101038D01*
X010938Y0101159D01*
Y0101159D01*
X0109472Y010125D01*
X0110173D01*
X011035Y0100891D01*
X0110341Y010088D01*
X0110265Y0100697D01*
X0110256Y0100627D01*
X0111744D01*
X0111735Y0100697D01*
X0111659Y010088D01*
X0111538Y0101038D01*
X011138Y0101159D01*
Y0101159D01*
X0111472Y010125D01*
X01125D01*
Y00955D01*
D02*
G37*
G36*
X00875D02*
X0086558D01*
X0086429Y0095879D01*
X0086538Y0095962D01*
X0086659Y009612D01*
X0086735Y0096303D01*
X0086744Y0096373D01*
X0085256D01*
X0085265Y0096303D01*
X0085341Y009612D01*
X0085462Y0095962D01*
X0085571Y0095879D01*
X0085442Y00955D01*
X0084409D01*
Y0097373D01*
X0079401D01*
Y00955D01*
X0078558D01*
X0078429Y0095879D01*
X0078538Y0095962D01*
X0078659Y009612D01*
X0078735Y0096303D01*
X0078744Y0096373D01*
X0077256D01*
X0077265Y0096303D01*
X0077341Y009612D01*
X0077462Y0095962D01*
X0077571Y0095879D01*
X0077442Y00955D01*
X00765D01*
Y010125D01*
X0077173D01*
X007735Y0100891D01*
X0077341Y010088D01*
X0077265Y0100697D01*
X0077256Y0100627D01*
X0078744D01*
X0078735Y0100697D01*
X0078659Y010088D01*
X0078538Y0101038D01*
X007838Y0101159D01*
Y0101159D01*
X0078472Y010125D01*
X0079173D01*
X007935Y0100891D01*
X0079341Y010088D01*
X0079265Y0100697D01*
X0079256Y0100627D01*
X008D01*
Y0100373D01*
X0079256D01*
X0079265Y0100303D01*
X0079341Y010012D01*
X0079401Y0100042D01*
X0079401Y0099854D01*
X0079401D01*
Y0098958D01*
X0079341Y009888D01*
X0079265Y0098697D01*
X0079256Y0098627D01*
X008D01*
Y0098373D01*
X0079256D01*
X0079265Y0098303D01*
X0079341Y009812D01*
X0079401Y0098042D01*
Y0097627D01*
X0084409D01*
Y0097863D01*
X0084538Y0097962D01*
X0084659Y009812D01*
X0084735Y0098303D01*
X0084744Y0098373D01*
X0084D01*
Y0098627D01*
X0084744D01*
X0084735Y0098697D01*
X0084659Y009888D01*
X0084538Y0099038D01*
X0084409Y0099137D01*
Y0099854D01*
X0084409Y0099854D01*
X0084409D01*
X0084406Y0099861D01*
X0084538Y0099962D01*
X0084659Y010012D01*
X0084735Y0100303D01*
X0084744Y0100373D01*
X0084D01*
Y0100627D01*
X0084744D01*
X0084735Y0100697D01*
X0084659Y010088D01*
X0084538Y0101038D01*
X008438Y0101159D01*
Y0101159D01*
X0084472Y010125D01*
X0085173D01*
X008535Y0100891D01*
X0085341Y010088D01*
X0085265Y0100697D01*
X0085256Y0100627D01*
X0086744D01*
X0086735Y0100697D01*
X0086659Y010088D01*
X0086538Y0101038D01*
X008638Y0101159D01*
Y0101159D01*
X0086472Y010125D01*
X00875D01*
Y00955D01*
D02*
G37*
G36*
X01D02*
X0099058D01*
X0098929Y0095879D01*
X0099038Y0095962D01*
X0099159Y009612D01*
X0099235Y0096303D01*
X0099244Y0096373D01*
X0097756D01*
X0097765Y0096303D01*
X0097841Y009612D01*
X0097962Y0095962D01*
X0098071Y0095879D01*
X0097942Y00955D01*
X0096909D01*
Y0097373D01*
X0091901D01*
Y00955D01*
X0091058D01*
X0090929Y0095879D01*
X0091038Y0095962D01*
X0091159Y009612D01*
X0091235Y0096303D01*
X0091244Y0096373D01*
X0089756D01*
X0089765Y0096303D01*
X0089841Y009612D01*
X0089962Y0095962D01*
X0090071Y0095879D01*
X0089942Y00955D01*
X0089D01*
Y010125D01*
X0089673D01*
X008985Y0100891D01*
X0089841Y010088D01*
X0089765Y0100697D01*
X0089756Y0100627D01*
X0091244D01*
X0091235Y0100697D01*
X0091159Y010088D01*
X0091038Y0101038D01*
X009088Y0101159D01*
Y0101159D01*
X0090972Y010125D01*
X0091673D01*
X009185Y0100891D01*
X0091841Y010088D01*
X0091765Y0100697D01*
X0091756Y0100627D01*
X00925D01*
Y0100373D01*
X0091756D01*
X0091765Y0100303D01*
X0091841Y010012D01*
X0091901Y0100042D01*
X0091901Y0099854D01*
X0091901D01*
Y0098958D01*
X0091841Y009888D01*
X0091765Y0098697D01*
X0091756Y0098627D01*
X00925D01*
Y0098373D01*
X0091756D01*
X0091765Y0098303D01*
X0091841Y009812D01*
X0091901Y0098042D01*
Y0097627D01*
X0096909D01*
Y0097863D01*
X0097038Y0097962D01*
X0097159Y009812D01*
X0097235Y0098303D01*
X0097244Y0098373D01*
X00965D01*
Y0098627D01*
X0097244D01*
X0097235Y0098697D01*
X0097159Y009888D01*
X0097038Y0099038D01*
X0096909Y0099137D01*
Y0099854D01*
X0096909Y0099854D01*
X0096909D01*
X0096906Y0099861D01*
X0097038Y0099962D01*
X0097159Y010012D01*
X0097235Y0100303D01*
X0097244Y0100373D01*
X00965D01*
Y0100627D01*
X0097244D01*
X0097235Y0100697D01*
X0097159Y010088D01*
X0097038Y0101038D01*
X009688Y0101159D01*
Y0101159D01*
X0096972Y010125D01*
X0097673D01*
X009785Y0100891D01*
X0097841Y010088D01*
X0097765Y0100697D01*
X0097756Y0100627D01*
X0099244D01*
X0099235Y0100697D01*
X0099159Y010088D01*
X0099038Y0101038D01*
X009888Y0101159D01*
Y0101159D01*
X0098972Y010125D01*
X01D01*
Y00955D01*
D02*
G37*
G36*
X0014496Y0094127D02*
X0015D01*
Y0093873D01*
X0014496D01*
Y0092946D01*
X0014496D01*
Y0092887D01*
X0014213Y0092604D01*
X0013846D01*
Y0091627D01*
X00147D01*
Y0091373D01*
X0013846D01*
Y0090533D01*
X0013846Y0090533D01*
X0013846Y0090533D01*
X0013846Y0090396D01*
X00137Y009025D01*
X0013D01*
Y009425D01*
X00135Y009475D01*
X0014496D01*
Y0094127D01*
D02*
G37*
G36*
X0093266D02*
X009377D01*
Y0094D01*
X0093897D01*
Y0092946D01*
X0093936D01*
X0093977Y0092826D01*
X0093862Y0092738D01*
X0093741Y009258D01*
X0093665Y0092397D01*
X0093656Y0092327D01*
X0095144D01*
X0095135Y0092397D01*
X0095059Y009258D01*
X0094938Y0092738D01*
X0094823Y0092826D01*
X0094864Y0092946D01*
X0094913D01*
Y0094D01*
X0095167D01*
Y0092946D01*
X00953D01*
Y00905D01*
X00949Y00901D01*
X0093254D01*
Y0090196D01*
X0093254D01*
Y0091173D01*
X0091546D01*
Y0090196D01*
X0091546D01*
Y009019D01*
X0091456Y00901D01*
X00907D01*
X00905Y00903D01*
Y00916D01*
Y00927D01*
X00903Y00929D01*
X00878D01*
X00875Y00926D01*
Y00907D01*
Y00905D01*
X00873Y00903D01*
X00863D01*
X00856Y0091D01*
X00848Y00918D01*
Y00932D01*
Y00941D01*
X00855Y00948D01*
X0091996D01*
Y0094127D01*
X0093004D01*
Y00948D01*
X0093266D01*
Y0094127D01*
D02*
G37*
G36*
X0017667Y0092946D02*
X001775D01*
Y009025D01*
X0015554D01*
Y009025D01*
Y0090396D01*
X0015554Y0090533D01*
X0015554D01*
X0015554Y0090533D01*
Y0091372D01*
X0015933Y0091501D01*
X0015962Y0091462D01*
X001612Y0091341D01*
X0016303Y0091265D01*
X0016373Y0091256D01*
Y0092D01*
X00165D01*
Y0092127D01*
X0017244D01*
X0017235Y0092197D01*
X0017159Y009238D01*
X0017038Y0092538D01*
X0016999Y0092567D01*
X0017128Y0092946D01*
X0017413D01*
Y0094D01*
X0017667D01*
Y0092946D01*
D02*
G37*
G36*
X0105766Y0094127D02*
X010627D01*
Y0094D01*
X0106397D01*
Y0092946D01*
X0106336D01*
X0106377Y0092826D01*
X0106262Y0092738D01*
X0106141Y009258D01*
X0106065Y0092397D01*
X0106056Y0092327D01*
X0107544D01*
X0107535Y0092397D01*
X0107459Y009258D01*
X0107338Y0092738D01*
X0107223Y0092826D01*
X0107264Y0092946D01*
X0107413D01*
Y0094D01*
X0107667D01*
Y0092946D01*
X01078D01*
Y00905D01*
X01074Y00901D01*
X0105654D01*
Y0090196D01*
X0105654D01*
Y0091173D01*
X0103946D01*
Y0090196D01*
X0103946D01*
Y009019D01*
X0103856Y00901D01*
X01032D01*
X0103Y00903D01*
Y00916D01*
Y00927D01*
X01028Y00929D01*
X01003D01*
X01Y00926D01*
Y00907D01*
Y00905D01*
X00998Y00903D01*
X00988D01*
X00981Y0091D01*
X00973Y00918D01*
Y00932D01*
Y00941D01*
X0098Y00948D01*
X0104496D01*
Y0094127D01*
X0105504D01*
Y00948D01*
X0105766D01*
Y0094127D01*
D02*
G37*
G36*
X0131766D02*
X013227D01*
Y0094D01*
X0132397D01*
Y0092946D01*
X0132436D01*
X0132477Y0092826D01*
X0132362Y0092738D01*
X0132241Y009258D01*
X0132165Y0092397D01*
X0132156Y0092327D01*
X0133644D01*
X0133635Y0092397D01*
X0133559Y009258D01*
X0133438Y0092738D01*
X0133323Y0092826D01*
X0133364Y0092946D01*
X0133413D01*
Y0094D01*
X0133667D01*
Y0092946D01*
X01338D01*
Y00905D01*
X01334Y00901D01*
X0131654D01*
Y0090196D01*
X0131654D01*
Y0091173D01*
X0129946D01*
Y0090196D01*
X0129946D01*
Y009019D01*
X0129856Y00901D01*
X01292D01*
X0129Y00903D01*
Y00916D01*
Y00927D01*
X01288Y00929D01*
X01263D01*
X0126Y00926D01*
Y00907D01*
Y00905D01*
X01258Y00903D01*
X01248D01*
X01241Y0091D01*
X01233Y00918D01*
Y00932D01*
Y00941D01*
X0124Y00948D01*
X0130496D01*
Y0094127D01*
X0131504D01*
Y00948D01*
X0131766D01*
Y0094127D01*
D02*
G37*
G36*
X0117766D02*
X011827D01*
Y0094D01*
X0118397D01*
Y0092946D01*
X0118436D01*
X0118477Y0092826D01*
X0118362Y0092738D01*
X0118241Y009258D01*
X0118179Y0092429D01*
X0118054Y0092453D01*
Y0092504D01*
X0117327D01*
Y0091527D01*
X0118054D01*
Y0091947D01*
X0118179Y0091971D01*
X0118241Y009182D01*
X0118362Y0091662D01*
X011852Y0091541D01*
X0118703Y0091465D01*
X0118773Y0091456D01*
Y00922D01*
X01189D01*
Y0092327D01*
X0119644D01*
X0119635Y0092397D01*
X0119559Y009258D01*
X0119438Y0092738D01*
X0119323Y0092826D01*
X0119364Y0092946D01*
X0119413D01*
Y0094D01*
X0119667D01*
Y0092946D01*
X01198D01*
Y00905D01*
X0119415Y00901D01*
X0115375D01*
X0115183Y00903D01*
Y00916D01*
Y00927D01*
X011499Y00929D01*
X0112586D01*
X0112297Y00926D01*
Y00907D01*
Y00905D01*
X0112105Y00903D01*
X0111143D01*
X011047Y0091D01*
X01097Y00918D01*
Y00932D01*
Y00941D01*
X0110373Y00948D01*
X0116496D01*
Y0094127D01*
X0117504D01*
Y00948D01*
X0117766D01*
Y0094127D01*
D02*
G37*
G36*
X0041766D02*
X004227D01*
Y0094D01*
X0042397D01*
Y0092946D01*
X0042302D01*
X0042358Y0092832D01*
X0042241Y009268D01*
X0042165Y0092497D01*
X0042156Y0092427D01*
X0043644D01*
X0043635Y0092497D01*
X0043559Y009268D01*
X0043438Y0092838D01*
X0043474Y0092946D01*
X0043413D01*
Y0094D01*
X0043667D01*
Y0092946D01*
X00439D01*
Y00903D01*
X00437Y00901D01*
X00393D01*
X00391Y00903D01*
Y00913D01*
Y0093D01*
X00387Y00934D01*
X00363D01*
X0036Y00931D01*
Y00904D01*
Y00903D01*
X00358Y00901D01*
X0033D01*
X00328Y00903D01*
Y00912D01*
Y00944D01*
X00332Y00948D01*
X0040496D01*
Y0094127D01*
X0041504D01*
Y00948D01*
X0041766D01*
Y0094127D01*
D02*
G37*
G36*
X0028766D02*
X002927D01*
Y0094D01*
X0029397D01*
Y0092946D01*
X0029302D01*
X0029358Y0092832D01*
X0029241Y009268D01*
X0029165Y0092497D01*
X0029156Y0092427D01*
X0030644D01*
X0030635Y0092497D01*
X0030559Y009268D01*
X0030438Y0092838D01*
X0030474Y0092946D01*
X0030413D01*
Y0094D01*
X0030667D01*
Y0092946D01*
X00309D01*
Y00903D01*
X00307Y00901D01*
X00263D01*
X00261Y00903D01*
Y00913D01*
Y0093D01*
X00257Y00934D01*
X00233D01*
X0023Y00931D01*
Y00904D01*
Y00903D01*
X00228Y00901D01*
X002D01*
X00198Y00903D01*
Y00912D01*
Y00944D01*
X00202Y00948D01*
X0027496D01*
Y0094127D01*
X0028504D01*
Y00948D01*
X0028766D01*
Y0094127D01*
D02*
G37*
G36*
X0054266D02*
X005477D01*
Y0094D01*
X0054897D01*
Y0092946D01*
X0054802D01*
X0054858Y0092832D01*
X0054741Y009268D01*
X0054665Y0092497D01*
X0054656Y0092427D01*
X0056144D01*
X0056135Y0092497D01*
X0056059Y009268D01*
X0055938Y0092838D01*
X0055974Y0092946D01*
X0055913D01*
Y0094D01*
X0056167D01*
Y0092946D01*
X00564D01*
Y00903D01*
X0056205Y00901D01*
X0051924D01*
X005173Y00903D01*
Y00913D01*
Y0093D01*
X0051341Y00934D01*
X0049005D01*
X0048714Y00931D01*
Y00904D01*
Y00903D01*
X0048519Y00901D01*
X0045795D01*
X00456Y00903D01*
Y00912D01*
Y00944D01*
X0045989Y00948D01*
X0052996D01*
Y0094127D01*
X0054004D01*
Y00948D01*
X0054266D01*
Y0094127D01*
D02*
G37*
G36*
X0080766D02*
X008127D01*
Y0094D01*
X0081397D01*
Y0092946D01*
X0081302D01*
X0081358Y0092832D01*
X0081241Y009268D01*
X0081165Y0092497D01*
X0081156Y0092427D01*
X0082644D01*
X0082635Y0092497D01*
X0082559Y009268D01*
X0082438Y0092838D01*
X0082474Y0092946D01*
X0082413D01*
Y0094D01*
X0082667D01*
Y0092946D01*
X00828D01*
Y00903D01*
X0082598Y00901D01*
X0078256D01*
X0078054Y00903D01*
Y00918D01*
Y0093D01*
X0077953Y00931D01*
X0075126D01*
X0074924Y00929D01*
Y00922D01*
Y00904D01*
X0074621Y00901D01*
X0072501D01*
X00724Y00902D01*
Y00914D01*
Y00944D01*
X0072804Y00948D01*
X0079496D01*
Y0094127D01*
X0080504D01*
Y00948D01*
X0080766D01*
Y0094127D01*
D02*
G37*
G36*
X0066766D02*
X006727D01*
Y0094D01*
X0067397D01*
Y0092946D01*
X0067436D01*
X0067477Y0092826D01*
X0067362Y0092738D01*
X0067241Y009258D01*
X0067165Y0092397D01*
X0067156Y0092327D01*
X0068644D01*
X0068635Y0092397D01*
X0068559Y009258D01*
X0068438Y0092738D01*
X0068323Y0092826D01*
X0068364Y0092946D01*
X0068413D01*
Y0094D01*
X0068667D01*
Y0092946D01*
X00688D01*
Y00903D01*
X00686Y00901D01*
X00643D01*
X00641Y00903D01*
Y00918D01*
Y0093D01*
X0064Y00931D01*
X00612D01*
X0061Y00929D01*
Y00922D01*
Y00904D01*
X00607Y00901D01*
X00586D01*
X00585Y00902D01*
Y00914D01*
Y00944D01*
X00589Y00948D01*
X0065496D01*
Y0094127D01*
X0066504D01*
Y00948D01*
X0066766D01*
Y0094127D01*
D02*
G37*
G36*
X000546Y011075D02*
X0005246D01*
X0005163Y0110971D01*
X0004769D01*
X0004689Y011075D01*
X0004481D01*
X000486Y0111726D01*
X0005068D01*
X000546Y011075D01*
D02*
G37*
G36*
X000395Y0110915D02*
X0004439D01*
Y011075D01*
X0003753D01*
Y0111717D01*
X000395D01*
Y0110915D01*
D02*
G37*
G36*
X0002852Y0111725D02*
X0002872D01*
X0002912Y0111723D01*
X000295Y011172D01*
X0002968Y0111719D01*
X0002984Y0111716D01*
X0002998Y0111714D01*
X000301Y0111711D01*
X0003011D01*
X0003014Y011171D01*
X0003017Y0111708D01*
X0003023Y0111707D01*
X0003039Y0111701D01*
X0003059Y0111691D01*
X0003081Y0111679D01*
X0003103Y0111661D01*
X0003127Y011164D01*
X0003149Y0111615D01*
Y0111613D01*
X0003152Y0111612D01*
X0003155Y0111607D01*
X0003158Y0111601D01*
X0003163Y0111594D01*
X0003167Y0111585D01*
X0003179Y0111564D01*
X0003189Y0111536D01*
X0003198Y0111503D01*
X0003204Y0111466D01*
X0003207Y0111425D01*
Y0111423D01*
Y011142D01*
Y0111416D01*
Y011141D01*
X0003206Y0111393D01*
X0003203Y0111373D01*
X00032Y0111349D01*
X0003194Y0111324D01*
X0003185Y0111298D01*
X0003175Y0111275D01*
X0003173Y0111272D01*
X0003169Y0111264D01*
X0003161Y0111254D01*
X0003152Y011124D01*
X000314Y0111224D01*
X0003126Y0111208D01*
X0003109Y0111193D01*
X0003091Y0111178D01*
X000309Y0111176D01*
X0003082Y0111172D01*
X0003072Y0111166D01*
X000306Y011116D01*
X0003044Y0111151D01*
X0003028Y0111144D01*
X0003008Y0111138D01*
X0002989Y0111132D01*
X0002986D01*
X0002981Y011113D01*
X0002976D01*
X0002968Y0111129D01*
X0002959Y0111127D01*
X0002949Y0111126D01*
X0002937D01*
X0002924Y0111124D01*
X0002909Y0111123D01*
X0002892Y0111121D01*
X0002873Y011112D01*
X0002854D01*
X0002833Y0111118D01*
X0002658D01*
Y011075D01*
X000246D01*
Y0111726D01*
X0002834D01*
X0002852Y0111725D01*
D02*
G37*
G36*
X0007833D02*
X0007864D01*
X000788Y0111723D01*
X0007918Y011172D01*
X0007955Y0111714D01*
X000799Y0111708D01*
X0008007Y0111704D01*
X000802Y0111699D01*
X0008022D01*
X0008023Y0111698D01*
X0008032Y0111695D01*
X0008045Y0111688D01*
X0008062Y0111677D01*
X000808Y0111664D01*
X0008099Y0111647D01*
X0008117Y0111628D01*
X0008135Y0111604D01*
X0008136Y0111601D01*
X0008142Y0111592D01*
X0008148Y0111579D01*
X0008157Y011156D01*
X0008164Y0111538D01*
X0008172Y0111512D01*
X0008176Y0111483D01*
X0008178Y0111451D01*
Y011145D01*
Y0111447D01*
Y0111441D01*
X0008176Y0111434D01*
Y0111423D01*
X0008175Y0111413D01*
X000817Y0111387D01*
X0008161Y0111359D01*
X0008149Y0111328D01*
X0008135Y0111298D01*
X0008124Y0111283D01*
X0008112Y011127D01*
Y0111269D01*
X0008109Y0111267D01*
X0008105Y0111264D01*
X00081Y0111258D01*
X0008093Y0111254D01*
X0008086Y0111246D01*
X0008075Y0111239D01*
X0008065Y0111231D01*
X0008051Y0111224D01*
X0008038Y0111217D01*
X0008022Y0111209D01*
X0008004Y0111202D01*
X0007986Y0111194D01*
X0007965Y0111188D01*
X0007944Y0111184D01*
X0007921Y0111179D01*
X0007922D01*
X0007924Y0111178D01*
X0007931Y0111173D01*
X0007943Y0111166D01*
X0007958Y0111156D01*
X0007974Y0111144D01*
X0007992Y0111129D01*
X000801Y0111114D01*
X0008026Y0111098D01*
X0008028Y0111096D01*
X0008034Y0111089D01*
X0008042Y0111078D01*
X0008056Y0111062D01*
X0008072Y011104D01*
X000809Y0111013D01*
X0008102Y0110997D01*
X0008112Y0110979D01*
X0008124Y0110961D01*
X0008138Y011094D01*
X0008256Y011075D01*
X000802D01*
X000788Y0110961D01*
X0007879Y0110962D01*
X0007877Y0110965D01*
X0007873Y0110971D01*
X0007869Y0110979D01*
X0007863Y0110989D01*
X0007855Y0110998D01*
X0007839Y0111022D01*
X0007823Y0111047D01*
X0007805Y0111069D01*
X0007788Y011109D01*
X0007782Y0111099D01*
X0007776Y0111105D01*
X0007775Y0111107D01*
X0007772Y011111D01*
X0007766Y0111116D01*
X0007759Y0111121D01*
X0007739Y0111135D01*
X0007729Y0111141D01*
X0007717Y0111145D01*
X0007716D01*
X0007711Y0111147D01*
X0007704Y011115D01*
X0007693Y0111151D01*
X000768Y0111154D01*
X0007664Y0111156D01*
X0007643Y0111157D01*
X000758D01*
Y011075D01*
X0007383D01*
Y0111726D01*
X000782D01*
X0007833Y0111725D01*
D02*
G37*
G36*
X0007195Y0111561D02*
X0006671D01*
Y0111344D01*
X0007158D01*
Y0111179D01*
X0006671D01*
Y0110915D01*
X0007215D01*
Y011075D01*
X0006473D01*
Y0111726D01*
X0007195D01*
Y0111561D01*
D02*
G37*
G36*
X0006017Y0111159D02*
Y011075D01*
X000582D01*
Y011116D01*
X0005463Y0111726D01*
X0005692D01*
X0005922Y0111338D01*
X0006148Y0111726D01*
X0006374D01*
X0006017Y0111159D01*
D02*
G37*
G36*
X01363Y01091D02*
Y01087D01*
Y01059D01*
X0137Y01052D01*
Y0105D01*
Y01024D01*
X0136867Y0102267D01*
X013675Y0102316D01*
Y0102373D01*
X01355D01*
Y0102627D01*
X013675D01*
Y010375D01*
X0136378D01*
X0136322Y0103864D01*
X0136461Y0104045D01*
X0136572Y0104313D01*
X0136593Y0104473D01*
X0134407D01*
X0134428Y0104313D01*
X0134539Y0104045D01*
X0134678Y0103864D01*
X0134622Y010375D01*
X013425D01*
X01341Y01039D01*
X0122493D01*
X0122437Y0104014D01*
X0122461Y0104045D01*
X0122572Y0104313D01*
X0122593Y0104473D01*
X0120407D01*
X0120428Y0104313D01*
X0120539Y0104045D01*
X0120563Y0104014D01*
X0120507Y01039D01*
X0110324D01*
X0110285Y0104015D01*
X0110461Y0104245D01*
X0110572Y0104513D01*
X0110593Y0104673D01*
X0108407D01*
X0108428Y0104513D01*
X0108539Y0104245D01*
X0108715Y0104015D01*
X0108676Y01039D01*
X0097824D01*
X0097785Y0104015D01*
X0097961Y0104245D01*
X0098072Y0104513D01*
X0098093Y0104673D01*
X0095907D01*
X0095928Y0104513D01*
X0096039Y0104245D01*
X0096215Y0104015D01*
X0096176Y01039D01*
X0085416D01*
X008536Y0104014D01*
X0085461Y0104145D01*
X0085572Y0104413D01*
X0085593Y0104573D01*
X0083407D01*
X0083428Y0104413D01*
X0083539Y0104145D01*
X008364Y0104014D01*
X0083584Y01039D01*
X0071324D01*
X0071285Y0104015D01*
X0071461Y0104245D01*
X0071572Y0104513D01*
X0071593Y0104673D01*
X0069407D01*
X0069428Y0104513D01*
X0069539Y0104245D01*
X0069715Y0104015D01*
X0069676Y01039D01*
X0058916D01*
X005886Y0104014D01*
X0058961Y0104145D01*
X0059072Y0104413D01*
X0059093Y0104573D01*
X0056907D01*
X0056928Y0104413D01*
X0057039Y0104145D01*
X005714Y0104014D01*
X0057084Y01039D01*
X0046416D01*
X004636Y0104014D01*
X0046461Y0104145D01*
X0046572Y0104413D01*
X0046593Y0104573D01*
X0044407D01*
X0044428Y0104413D01*
X0044539Y0104145D01*
X004464Y0104014D01*
X0044584Y01039D01*
X0033416D01*
X003336Y0104014D01*
X0033461Y0104145D01*
X0033572Y0104413D01*
X0033593Y0104573D01*
X0031407D01*
X0031428Y0104413D01*
X0031539Y0104145D01*
X003164Y0104014D01*
X0031584Y01039D01*
X0020416D01*
X002036Y0104014D01*
X0020461Y0104145D01*
X0020572Y0104413D01*
X0020593Y0104573D01*
X0018407D01*
X0018428Y0104413D01*
X0018539Y0104145D01*
X001864Y0104014D01*
X0018584Y01039D01*
X00124D01*
X00065Y0098D01*
Y00825D01*
Y00785D01*
X0003Y0075D01*
Y0045D01*
Y0038D01*
X00055Y00355D01*
X0009Y0032D01*
Y0021D01*
X00105Y00195D01*
X0014Y0016D01*
X0018D01*
X00185Y00165D01*
Y00185D01*
Y00235D01*
Y00325D01*
Y0035D01*
Y0037D01*
X0017046D01*
X0016992Y0037115D01*
X0017171Y0037333D01*
X0017357Y0037681D01*
X0017471Y0038058D01*
X0017497Y0038323D01*
X00155D01*
Y003845D01*
X0015373D01*
Y0040447D01*
X0015108Y0040421D01*
X0014731Y0040307D01*
X0014383Y0040121D01*
X0014115Y00399D01*
X0014Y0039955D01*
Y00415D01*
X00145Y0042D01*
X00185D01*
X0019Y00415D01*
Y0039D01*
X00205Y00375D01*
Y0037D01*
Y0034D01*
X00225Y0032D01*
Y0032D01*
X0024193D01*
X0024205Y0032127D01*
X00257D01*
Y0032D01*
X0025827D01*
Y0030505D01*
X002598Y003052D01*
X00305Y0026D01*
X0030853D01*
X0030937Y0025905D01*
X0030919Y002577D01*
X0033407D01*
X0033381Y0025969D01*
X0033401Y0026D01*
X0033973D01*
Y002577D01*
X0035973D01*
Y0025516D01*
X0033973D01*
Y0025143D01*
X0034473Y0024643D01*
X0035D01*
Y00225D01*
X00335D01*
X0033Y0022D01*
X002475Y001375D01*
X0021457D01*
Y00105D01*
Y000725D01*
X00245D01*
Y0006D01*
X0023Y00045D01*
X0006D01*
X0000656Y0009844D01*
Y0100656D01*
X00025Y01025D01*
X0009344Y0109344D01*
X0136056D01*
X01363Y01091D01*
D02*
G37*
G36*
X0001852Y0111741D02*
X0001867D01*
X0001885Y0111738D01*
X0001906Y0111735D01*
X0001929Y0111731D01*
X0001955Y0111726D01*
X0001983Y0111719D01*
X000201Y011171D01*
X0002039Y0111698D01*
X0002068Y0111686D01*
X0002096Y011167D01*
X0002124Y0111652D01*
X0002151Y0111631D01*
X0002176Y0111607D01*
X0002178Y0111606D01*
X0002182Y0111601D01*
X0002188Y0111594D01*
X0002197Y0111582D01*
X0002206Y0111569D01*
X0002218Y0111552D01*
X0002228Y0111533D01*
X0002241Y0111511D01*
X0002253Y0111486D01*
X0002265Y0111457D01*
X0002276Y0111428D01*
X0002285Y0111395D01*
X0002293Y0111359D01*
X0002299Y0111321D01*
X0002304Y0111279D01*
X0002305Y0111236D01*
Y0111233D01*
Y0111225D01*
X0002304Y0111214D01*
Y0111197D01*
X0002301Y0111176D01*
X0002298Y0111154D01*
X0002295Y0111127D01*
X0002289Y0111101D01*
X0002283Y0111071D01*
X0002274Y0111041D01*
X0002264Y011101D01*
X000225Y0110979D01*
X0002236Y0110949D01*
X0002219Y0110919D01*
X0002198Y0110891D01*
X0002176Y0110864D01*
X0002175Y0110863D01*
X000217Y0110858D01*
X0002163Y0110853D01*
X0002152Y0110844D01*
X000214Y0110833D01*
X0002124Y0110823D01*
X0002106Y0110811D01*
X0002085Y0110799D01*
X0002062Y0110786D01*
X0002036Y0110774D01*
X0002008Y0110763D01*
X0001977Y0110753D01*
X0001944Y0110744D01*
X000191Y0110738D01*
X0001873Y0110734D01*
X0001833Y0110732D01*
X0001824D01*
X0001812Y0110734D01*
X0001797D01*
X0001779Y0110737D01*
X0001757Y011074D01*
X0001733Y0110743D01*
X0001708Y0110749D01*
X0001681Y0110756D01*
X0001653Y0110765D01*
X0001625Y0110775D01*
X0001597Y0110789D01*
X0001567Y0110803D01*
X000154Y0110821D01*
X0001513Y0110841D01*
X0001488Y0110864D01*
X0001487Y0110866D01*
X0001482Y011087D01*
X0001476Y0110878D01*
X0001469Y0110888D01*
X0001458Y0110902D01*
X0001448Y0110918D01*
X0001436Y0110937D01*
X0001424Y011096D01*
X0001412Y0110985D01*
X00014Y0111012D01*
X000139Y0111041D01*
X000138Y0111074D01*
X0001372Y011111D01*
X0001366Y0111147D01*
X0001362Y0111187D01*
X000136Y011123D01*
Y0111231D01*
Y0111237D01*
Y0111245D01*
Y0111255D01*
X0001362Y0111269D01*
X0001363Y0111283D01*
Y01113D01*
X0001366Y0111318D01*
X0001371Y0111358D01*
X0001378Y0111399D01*
X0001389Y0111441D01*
X0001403Y0111481D01*
Y0111483D01*
X0001405Y0111484D01*
X0001409Y0111493D01*
X0001417Y0111508D01*
X0001427Y0111526D01*
X0001441Y0111546D01*
X0001455Y0111569D01*
X0001475Y0111592D01*
X0001494Y0111615D01*
X0001497Y0111618D01*
X0001504Y0111625D01*
X0001516Y0111636D01*
X0001531Y0111647D01*
X0001551Y0111662D01*
X0001571Y0111677D01*
X0001595Y0111691D01*
X000162Y0111702D01*
X0001622D01*
X0001625Y0111704D01*
X0001629Y0111707D01*
X0001637Y0111708D01*
X0001646Y0111711D01*
X0001656Y0111716D01*
X0001668Y0111719D01*
X0001681Y0111723D01*
X0001712Y0111729D01*
X0001748Y0111737D01*
X0001788Y0111741D01*
X0001831Y0111743D01*
X000184D01*
X0001852Y0111741D01*
D02*
G37*
G36*
X0001271Y0111561D02*
X0000984D01*
Y011075D01*
X0000787D01*
Y0111561D01*
X00005D01*
Y0111726D01*
X0001271D01*
Y0111561D01*
D02*
G37*
%LPC*%
G36*
X0054004Y0093873D02*
X0053627D01*
Y0092946D01*
X0054004D01*
Y0093873D01*
D02*
G37*
G36*
X0054643D02*
X0054266D01*
Y0092946D01*
X0054643D01*
Y0093873D01*
D02*
G37*
G36*
X0131504D02*
X0131127D01*
Y0092946D01*
X0131504D01*
Y0093873D01*
D02*
G37*
G36*
X0132143D02*
X0131766D01*
Y0092946D01*
X0132143D01*
Y0093873D01*
D02*
G37*
G36*
X0013127Y0097244D02*
Y0096627D01*
X0013744D01*
X0013735Y0096697D01*
X0013659Y009688D01*
X0013538Y0097038D01*
X001338Y0097159D01*
X0013197Y0097235D01*
X0013127Y0097244D01*
D02*
G37*
G36*
X0012873D02*
X0012803Y0097235D01*
X001262Y0097159D01*
X0012462Y0097038D01*
X0012341Y009688D01*
X0012265Y0096697D01*
X0012256Y0096627D01*
X0012873D01*
Y0097244D01*
D02*
G37*
G36*
X0053373Y0093873D02*
X0052996D01*
Y0092946D01*
X0053373D01*
Y0093873D01*
D02*
G37*
G36*
X0020873Y0097244D02*
X0020803Y0097235D01*
X002062Y0097159D01*
X0020462Y0097038D01*
X0020341Y009688D01*
X0020265Y0096697D01*
X0020256Y0096627D01*
X0020873D01*
Y0097244D01*
D02*
G37*
G36*
X0130873Y0093873D02*
X0130496D01*
Y0092946D01*
X0130873D01*
Y0093873D01*
D02*
G37*
G36*
X0080504D02*
X0080127D01*
Y0092946D01*
X0080504D01*
Y0093873D01*
D02*
G37*
G36*
X0079873D02*
X0079496D01*
Y0092946D01*
X0079873D01*
Y0093873D01*
D02*
G37*
G36*
X0067143D02*
X0066766D01*
Y0092946D01*
X0067143D01*
Y0093873D01*
D02*
G37*
G36*
X0081143D02*
X0080766D01*
Y0092946D01*
X0081143D01*
Y0093873D01*
D02*
G37*
G36*
X0093643D02*
X0093266D01*
Y0092946D01*
X0093643D01*
Y0093873D01*
D02*
G37*
G36*
X0093004D02*
X0092627D01*
Y0092946D01*
X0093004D01*
Y0093873D01*
D02*
G37*
G36*
X0092373D02*
X0091996D01*
Y0092946D01*
X0092373D01*
Y0093873D01*
D02*
G37*
G36*
X0066504D02*
X0066127D01*
Y0092946D01*
X0066504D01*
Y0093873D01*
D02*
G37*
G36*
X0116873D02*
X0116496D01*
Y0092946D01*
X0116873D01*
Y0093873D01*
D02*
G37*
G36*
X0117504D02*
X0117127D01*
Y0092946D01*
X0117504D01*
Y0093873D01*
D02*
G37*
G36*
X0118143D02*
X0117766D01*
Y0092946D01*
X0118143D01*
Y0093873D01*
D02*
G37*
G36*
X0106143D02*
X0105766D01*
Y0092946D01*
X0106143D01*
Y0093873D01*
D02*
G37*
G36*
X0104873D02*
X0104496D01*
Y0092946D01*
X0104873D01*
Y0093873D01*
D02*
G37*
G36*
X0105504D02*
X0105127D01*
Y0092946D01*
X0105504D01*
Y0093873D01*
D02*
G37*
G36*
X0065873D02*
X0065496D01*
Y0092946D01*
X0065873D01*
Y0093873D01*
D02*
G37*
G36*
X0090627Y0097244D02*
Y0096627D01*
X0091244D01*
X0091235Y0096697D01*
X0091159Y009688D01*
X0091038Y0097038D01*
X009088Y0097159D01*
X0090697Y0097235D01*
X0090627Y0097244D01*
D02*
G37*
G36*
X0090373D02*
X0090303Y0097235D01*
X009012Y0097159D01*
X0089962Y0097038D01*
X0089841Y009688D01*
X0089765Y0096697D01*
X0089756Y0096627D01*
X0090373D01*
Y0097244D01*
D02*
G37*
G36*
X0098627D02*
Y0096627D01*
X0099244D01*
X0099235Y0096697D01*
X0099159Y009688D01*
X0099038Y0097038D01*
X009888Y0097159D01*
X0098697Y0097235D01*
X0098627Y0097244D01*
D02*
G37*
G36*
X0098373D02*
X0098303Y0097235D01*
X009812Y0097159D01*
X0097962Y0097038D01*
X0097841Y009688D01*
X0097765Y0096697D01*
X0097756Y0096627D01*
X0098373D01*
Y0097244D01*
D02*
G37*
G36*
X0078127D02*
Y0096627D01*
X0078744D01*
X0078735Y0096697D01*
X0078659Y009688D01*
X0078538Y0097038D01*
X007838Y0097159D01*
X0078197Y0097235D01*
X0078127Y0097244D01*
D02*
G37*
G36*
X0077873D02*
X0077803Y0097235D01*
X007762Y0097159D01*
X0077462Y0097038D01*
X0077341Y009688D01*
X0077265Y0096697D01*
X0077256Y0096627D01*
X0077873D01*
Y0097244D01*
D02*
G37*
G36*
X0086127D02*
Y0096627D01*
X0086744D01*
X0086735Y0096697D01*
X0086659Y009688D01*
X0086538Y0097038D01*
X008638Y0097159D01*
X0086197Y0097235D01*
X0086127Y0097244D01*
D02*
G37*
G36*
X0085873D02*
X0085803Y0097235D01*
X008562Y0097159D01*
X0085462Y0097038D01*
X0085341Y009688D01*
X0085265Y0096697D01*
X0085256Y0096627D01*
X0085873D01*
Y0097244D01*
D02*
G37*
G36*
X0115127D02*
Y0096627D01*
X0115744D01*
X0115735Y0096697D01*
X0115659Y009688D01*
X0115538Y0097038D01*
X011538Y0097159D01*
X0115197Y0097235D01*
X0115127Y0097244D01*
D02*
G37*
G36*
X0114873D02*
X0114803Y0097235D01*
X011462Y0097159D01*
X0114462Y0097038D01*
X0114341Y009688D01*
X0114265Y0096697D01*
X0114256Y0096627D01*
X0114873D01*
Y0097244D01*
D02*
G37*
G36*
X0123127D02*
Y0096627D01*
X0123744D01*
X0123735Y0096697D01*
X0123659Y009688D01*
X0123538Y0097038D01*
X012338Y0097159D01*
X0123197Y0097235D01*
X0123127Y0097244D01*
D02*
G37*
G36*
X0122873D02*
X0122803Y0097235D01*
X012262Y0097159D01*
X0122462Y0097038D01*
X0122341Y009688D01*
X0122265Y0096697D01*
X0122256Y0096627D01*
X0122873D01*
Y0097244D01*
D02*
G37*
G36*
X0103127D02*
Y0096627D01*
X0103744D01*
X0103735Y0096697D01*
X0103659Y009688D01*
X0103538Y0097038D01*
X010338Y0097159D01*
X0103197Y0097235D01*
X0103127Y0097244D01*
D02*
G37*
G36*
X0102873D02*
X0102803Y0097235D01*
X010262Y0097159D01*
X0102462Y0097038D01*
X0102341Y009688D01*
X0102265Y0096697D01*
X0102256Y0096627D01*
X0102873D01*
Y0097244D01*
D02*
G37*
G36*
X0111127D02*
Y0096627D01*
X0111744D01*
X0111735Y0096697D01*
X0111659Y009688D01*
X0111538Y0097038D01*
X011138Y0097159D01*
X0111197Y0097235D01*
X0111127Y0097244D01*
D02*
G37*
G36*
X0110873D02*
X0110803Y0097235D01*
X011062Y0097159D01*
X0110462Y0097038D01*
X0110341Y009688D01*
X0110265Y0096697D01*
X0110256Y0096627D01*
X0110873D01*
Y0097244D01*
D02*
G37*
G36*
X0072127D02*
Y0096627D01*
X0072744D01*
X0072735Y0096697D01*
X0072659Y009688D01*
X0072538Y0097038D01*
X007238Y0097159D01*
X0072197Y0097235D01*
X0072127Y0097244D01*
D02*
G37*
G36*
X0038873D02*
X0038803Y0097235D01*
X003862Y0097159D01*
X0038462Y0097038D01*
X0038341Y009688D01*
X0038265Y0096697D01*
X0038256Y0096627D01*
X0038873D01*
Y0097244D01*
D02*
G37*
G36*
X0034127D02*
Y0096627D01*
X0034744D01*
X0034735Y0096697D01*
X0034659Y009688D01*
X0034538Y0097038D01*
X003438Y0097159D01*
X0034197Y0097235D01*
X0034127Y0097244D01*
D02*
G37*
G36*
X0046873D02*
X0046803Y0097235D01*
X004662Y0097159D01*
X0046462Y0097038D01*
X0046341Y009688D01*
X0046265Y0096697D01*
X0046256Y0096627D01*
X0046873D01*
Y0097244D01*
D02*
G37*
G36*
X0039127D02*
Y0096627D01*
X0039744D01*
X0039735Y0096697D01*
X0039659Y009688D01*
X0039538Y0097038D01*
X003938Y0097159D01*
X0039197Y0097235D01*
X0039127Y0097244D01*
D02*
G37*
G36*
X0025873D02*
X0025803Y0097235D01*
X002562Y0097159D01*
X0025462Y0097038D01*
X0025341Y009688D01*
X0025265Y0096697D01*
X0025256Y0096627D01*
X0025873D01*
Y0097244D01*
D02*
G37*
G36*
X0021127D02*
Y0096627D01*
X0021744D01*
X0021735Y0096697D01*
X0021659Y009688D01*
X0021538Y0097038D01*
X002138Y0097159D01*
X0021197Y0097235D01*
X0021127Y0097244D01*
D02*
G37*
G36*
X0033873D02*
X0033803Y0097235D01*
X003362Y0097159D01*
X0033462Y0097038D01*
X0033341Y009688D01*
X0033265Y0096697D01*
X0033256Y0096627D01*
X0033873D01*
Y0097244D01*
D02*
G37*
G36*
X0026127D02*
Y0096627D01*
X0026744D01*
X0026735Y0096697D01*
X0026659Y009688D01*
X0026538Y0097038D01*
X002638Y0097159D01*
X0026197Y0097235D01*
X0026127Y0097244D01*
D02*
G37*
G36*
X0063873D02*
X0063803Y0097235D01*
X006362Y0097159D01*
X0063462Y0097038D01*
X0063341Y009688D01*
X0063265Y0096697D01*
X0063256Y0096627D01*
X0063873D01*
Y0097244D01*
D02*
G37*
G36*
X0059627D02*
Y0096627D01*
X0060244D01*
X0060235Y0096697D01*
X0060159Y009688D01*
X0060038Y0097038D01*
X005988Y0097159D01*
X0059697Y0097235D01*
X0059627Y0097244D01*
D02*
G37*
G36*
X0071873D02*
X0071803Y0097235D01*
X007162Y0097159D01*
X0071462Y0097038D01*
X0071341Y009688D01*
X0071265Y0096697D01*
X0071256Y0096627D01*
X0071873D01*
Y0097244D01*
D02*
G37*
G36*
X0064127D02*
Y0096627D01*
X0064744D01*
X0064735Y0096697D01*
X0064659Y009688D01*
X0064538Y0097038D01*
X006438Y0097159D01*
X0064197Y0097235D01*
X0064127Y0097244D01*
D02*
G37*
G36*
X0051373D02*
X0051303Y0097235D01*
X005112Y0097159D01*
X0050962Y0097038D01*
X0050841Y009688D01*
X0050765Y0096697D01*
X0050756Y0096627D01*
X0051373D01*
Y0097244D01*
D02*
G37*
G36*
X0047127D02*
Y0096627D01*
X0047744D01*
X0047735Y0096697D01*
X0047659Y009688D01*
X0047538Y0097038D01*
X004738Y0097159D01*
X0047197Y0097235D01*
X0047127Y0097244D01*
D02*
G37*
G36*
X0059373D02*
X0059303Y0097235D01*
X005912Y0097159D01*
X0058962Y0097038D01*
X0058841Y009688D01*
X0058765Y0096697D01*
X0058756Y0096627D01*
X0059373D01*
Y0097244D01*
D02*
G37*
G36*
X0051627D02*
Y0096627D01*
X0052244D01*
X0052235Y0096697D01*
X0052159Y009688D01*
X0052038Y0097038D01*
X005188Y0097159D01*
X0051697Y0097235D01*
X0051627Y0097244D01*
D02*
G37*
G36*
X0042143Y0093873D02*
X0041766D01*
Y0092946D01*
X0042143D01*
Y0093873D01*
D02*
G37*
G36*
X0053073Y0091373D02*
X0052346D01*
Y0090396D01*
X0053073D01*
Y0091373D01*
D02*
G37*
G36*
X0080754Y0091273D02*
X0080027D01*
Y0090296D01*
X0080754D01*
Y0091273D01*
D02*
G37*
G36*
X0027873Y0091473D02*
X0027146D01*
Y0090496D01*
X0027873D01*
Y0091473D01*
D02*
G37*
G36*
X0054054Y0091373D02*
X0053327D01*
Y0090396D01*
X0054054D01*
Y0091373D01*
D02*
G37*
G36*
X0065873Y0091273D02*
X0065146D01*
Y0090296D01*
X0065873D01*
Y0091273D01*
D02*
G37*
G36*
X0041854D02*
X0041127D01*
Y0090296D01*
X0041854D01*
Y0091273D01*
D02*
G37*
G36*
X0079773D02*
X0079046D01*
Y0090296D01*
X0079773D01*
Y0091273D01*
D02*
G37*
G36*
X0066854D02*
X0066127D01*
Y0090296D01*
X0066854D01*
Y0091273D01*
D02*
G37*
G36*
X0131654Y0092404D02*
X0130927D01*
Y0091427D01*
X0131654D01*
Y0092404D01*
D02*
G37*
G36*
X0130673D02*
X0129946D01*
Y0091427D01*
X0130673D01*
Y0092404D01*
D02*
G37*
G36*
X0105654Y0092404D02*
X0104927D01*
Y0091427D01*
X0105654D01*
Y0092404D01*
D02*
G37*
G36*
X0104673D02*
X0103946D01*
Y0091427D01*
X0104673D01*
Y0092404D01*
D02*
G37*
G36*
X0017244Y0091873D02*
X0016627D01*
Y0091256D01*
X0016697Y0091265D01*
X001688Y0091341D01*
X0017038Y0091462D01*
X0017159Y009162D01*
X0017235Y0091803D01*
X0017244Y0091873D01*
D02*
G37*
G36*
X0028854Y0091473D02*
X0028127D01*
Y0090496D01*
X0028854D01*
Y0091473D01*
D02*
G37*
G36*
X0093254Y0092404D02*
X0092527D01*
Y0091427D01*
X0093254D01*
Y0092404D01*
D02*
G37*
G36*
X0092273D02*
X0091546D01*
Y0091427D01*
X0092273D01*
Y0092404D01*
D02*
G37*
G36*
X0040873Y0091273D02*
X0040146D01*
Y0090296D01*
X0040873D01*
Y0091273D01*
D02*
G37*
G36*
X00165Y0010373D02*
X0013127D01*
Y000725D01*
X00165D01*
Y0010373D01*
D02*
G37*
G36*
X0012873D02*
X00095D01*
Y000725D01*
X0012873D01*
Y0010373D01*
D02*
G37*
G36*
Y001375D02*
X00095D01*
Y0010627D01*
X0012873D01*
Y001375D01*
D02*
G37*
G36*
X0021203Y0010373D02*
X001783D01*
Y000725D01*
X0021203D01*
Y0010373D01*
D02*
G37*
G36*
X0004962Y0111499D02*
X000483Y0111136D01*
X0005099D01*
X0004962Y0111499D01*
D02*
G37*
G36*
X0001833Y0111575D02*
X0001821D01*
X0001812Y0111573D01*
X0001802Y0111572D01*
X000179Y011157D01*
X0001763Y0111564D01*
X0001732Y0111554D01*
X0001715Y0111548D01*
X0001699Y0111539D01*
X0001683Y0111529D01*
X0001666Y0111518D01*
X0001652Y0111505D01*
X0001637Y011149D01*
X0001635Y0111488D01*
X0001634Y0111486D01*
X0001631Y0111481D01*
X0001625Y0111475D01*
X000162Y0111466D01*
X0001614Y0111454D01*
X0001607Y0111442D01*
X0001601Y0111428D01*
X0001594Y0111411D01*
X0001588Y0111392D01*
X000158Y0111371D01*
X0001576Y0111349D01*
X0001571Y0111324D01*
X0001567Y0111297D01*
X0001565Y0111269D01*
X0001564Y0111237D01*
Y0111236D01*
Y011123D01*
Y0111221D01*
X0001565Y0111211D01*
X0001567Y0111196D01*
X0001568Y0111181D01*
X000157Y0111163D01*
X0001573Y0111144D01*
X0001582Y0111102D01*
X0001597Y0111061D01*
X0001604Y011104D01*
X0001614Y011102D01*
X0001626Y0111001D01*
X000164Y0110985D01*
X0001641Y0110983D01*
X0001643Y0110982D01*
X0001647Y0110977D01*
X0001653Y0110971D01*
X000166Y0110965D01*
X0001669Y0110958D01*
X0001692Y0110943D01*
X000172Y0110927D01*
X0001753Y0110913D01*
X0001772Y0110908D01*
X0001791Y0110903D01*
X0001812Y0110902D01*
X0001833Y01109D01*
X0001845D01*
X0001852Y0110902D01*
X0001863Y0110903D01*
X0001874Y0110905D01*
X0001901Y011091D01*
X0001931Y0110921D01*
X0001947Y0110928D01*
X0001964Y0110936D01*
X000198Y0110946D01*
X0001996Y0110957D01*
X0002011Y011097D01*
X0002026Y0110985D01*
X0002027Y0110986D01*
X0002029Y0110989D01*
X0002033Y0110994D01*
X0002038Y0111001D01*
X0002044Y011101D01*
X000205Y011102D01*
X0002057Y0111034D01*
X0002065Y0111049D01*
X0002071Y0111065D01*
X0002078Y0111084D01*
X0002084Y0111105D01*
X000209Y0111129D01*
X0002094Y0111153D01*
X0002099Y0111181D01*
X00021Y0111209D01*
X0002102Y011124D01*
Y0111242D01*
Y0111248D01*
Y0111257D01*
X00021Y0111269D01*
Y0111282D01*
X0002097Y0111298D01*
X0002096Y0111316D01*
X0002093Y0111335D01*
X0002084Y0111376D01*
X0002071Y0111417D01*
X0002062Y0111438D01*
X0002053Y0111457D01*
X0002041Y0111475D01*
X0002027Y0111491D01*
X0002026Y0111493D01*
X0002025Y0111494D01*
X000202Y0111499D01*
X0002014Y0111505D01*
X0002007Y0111511D01*
X0001998Y0111518D01*
X0001987Y0111526D01*
X0001975Y0111533D01*
X0001949Y0111548D01*
X0001915Y0111561D01*
X0001876Y0111572D01*
X0001855Y0111573D01*
X0001833Y0111575D01*
D02*
G37*
G36*
X0007805Y0111561D02*
X000758D01*
Y0111313D01*
X0007771D01*
X0007799Y0111315D01*
X0007828Y0111316D01*
X0007857Y0111318D01*
X000787Y0111319D01*
X000788Y0111321D01*
X0007891Y0111324D01*
X0007898Y0111325D01*
X00079D01*
X0007904Y0111328D01*
X000791Y0111331D01*
X0007919Y0111334D01*
X0007937Y0111347D01*
X0007946Y0111355D01*
X0007953Y0111365D01*
X0007955Y0111367D01*
X0007956Y0111371D01*
X0007959Y0111377D01*
X0007964Y0111386D01*
X0007968Y0111396D01*
X0007971Y011141D01*
X0007973Y0111423D01*
X0007974Y0111439D01*
Y0111441D01*
Y0111448D01*
X0007973Y0111457D01*
X0007971Y0111468D01*
X0007968Y011148D01*
X0007962Y0111493D01*
X0007956Y0111506D01*
X0007947Y0111518D01*
X0007946Y011152D01*
X0007943Y0111523D01*
X0007937Y0111529D01*
X0007928Y0111535D01*
X0007918Y0111542D01*
X0007906Y0111548D01*
X0007891Y0111552D01*
X0007875Y0111557D01*
X0007873D01*
X0007869Y0111558D01*
X0007861D01*
X0007848Y011156D01*
X0007818D01*
X0007805Y0111561D01*
D02*
G37*
G36*
X0002805D02*
X0002658D01*
Y0111283D01*
X0002793D01*
X0002803Y0111285D01*
X0002827D01*
X0002854Y0111286D01*
X0002879Y0111289D01*
X0002901Y0111294D01*
X0002912Y0111295D01*
X0002919Y0111298D01*
X0002921Y01113D01*
X0002925Y0111301D01*
X0002932Y0111304D01*
X0002941Y011131D01*
X0002952Y0111316D01*
X0002962Y0111325D01*
X0002973Y0111334D01*
X0002981Y0111346D01*
X0002983Y0111347D01*
X0002984Y0111352D01*
X0002989Y0111359D01*
X0002993Y0111368D01*
X0002996Y0111379D01*
X0003001Y0111392D01*
X0003002Y0111407D01*
X0003004Y0111422D01*
Y0111425D01*
Y0111431D01*
X0003002Y0111441D01*
X0002999Y0111453D01*
X0002996Y0111466D01*
X000299Y0111481D01*
X0002983Y0111496D01*
X0002973Y0111509D01*
X0002971Y0111511D01*
X0002967Y0111515D01*
X0002961Y0111521D01*
X000295Y0111529D01*
X000294Y0111536D01*
X0002925Y0111543D01*
X000291Y0111549D01*
X0002892Y0111554D01*
X0002891D01*
X0002885Y0111555D01*
X0002876Y0111557D01*
X0002863Y0111558D01*
X0002843D01*
X0002818Y011156D01*
X0002805Y0111561D01*
D02*
G37*
G36*
X0015627Y0040447D02*
Y0038577D01*
X0017497D01*
X0017471Y0038842D01*
X0017357Y0039219D01*
X0017171Y0039567D01*
X0016921Y0039871D01*
X0016617Y0040121D01*
X0016269Y0040307D01*
X0015892Y0040421D01*
X0015627Y0040447D01*
D02*
G37*
G36*
X0025573Y0031873D02*
X0024205D01*
X0024222Y0031706D01*
X0024307Y0031423D01*
X0024447Y0031163D01*
X0024634Y0030934D01*
X0024863Y0030747D01*
X0025123Y0030607D01*
X0025406Y0030522D01*
X0025573Y0030505D01*
Y0031873D01*
D02*
G37*
G36*
X0118054Y0091273D02*
X0117327D01*
Y0090296D01*
X0118054D01*
Y0091273D01*
D02*
G37*
G36*
X0117073D02*
X0116346D01*
Y0090296D01*
X0117073D01*
Y0091273D01*
D02*
G37*
G36*
X0021203Y001375D02*
X001783D01*
Y0010627D01*
X0021203D01*
Y001375D01*
D02*
G37*
G36*
X00165D02*
X0013127D01*
Y0010627D01*
X00165D01*
Y001375D01*
D02*
G37*
G36*
X0033407Y0025516D02*
X003229D01*
Y0024399D01*
X0032489Y0024425D01*
X0032793Y0024551D01*
X0033054Y0024751D01*
X0033255Y0025013D01*
X0033381Y0025317D01*
X0033407Y0025516D01*
D02*
G37*
G36*
X0032036D02*
X0030919D01*
X0030945Y0025317D01*
X0031071Y0025013D01*
X0031271Y0024751D01*
X0031533Y0024551D01*
X0031837Y0024425D01*
X0032036Y0024399D01*
Y0025516D01*
D02*
G37*
G36*
X0081773Y0092173D02*
X0081156D01*
X0081165Y0092103D01*
X0081241Y009192D01*
X0081362Y0091762D01*
X008152Y0091641D01*
X0081703Y0091565D01*
X0081773Y0091556D01*
Y0092173D01*
D02*
G37*
G36*
X0056144D02*
X0055527D01*
Y0091556D01*
X0055597Y0091565D01*
X005578Y0091641D01*
X0055938Y0091762D01*
X0056059Y009192D01*
X0056135Y0092103D01*
X0056144Y0092173D01*
D02*
G37*
G36*
X0053073Y0092604D02*
X0052346D01*
Y0091627D01*
X0053073D01*
Y0092604D01*
D02*
G37*
G36*
X0082644Y0092173D02*
X0082027D01*
Y0091556D01*
X0082097Y0091565D01*
X008228Y0091641D01*
X0082438Y0091762D01*
X0082559Y009192D01*
X0082635Y0092103D01*
X0082644Y0092173D01*
D02*
G37*
G36*
X0042773D02*
X0042156D01*
X0042165Y0092103D01*
X0042241Y009192D01*
X0042362Y0091762D01*
X004252Y0091641D01*
X0042703Y0091565D01*
X0042773Y0091556D01*
Y0092173D01*
D02*
G37*
G36*
X0030644D02*
X0030027D01*
Y0091556D01*
X0030097Y0091565D01*
X003028Y0091641D01*
X0030438Y0091762D01*
X0030559Y009192D01*
X0030635Y0092103D01*
X0030644Y0092173D01*
D02*
G37*
G36*
X0055273D02*
X0054656D01*
X0054665Y0092103D01*
X0054741Y009192D01*
X0054862Y0091762D01*
X005502Y0091641D01*
X0055203Y0091565D01*
X0055273Y0091556D01*
Y0092173D01*
D02*
G37*
G36*
X0043644D02*
X0043027D01*
Y0091556D01*
X0043097Y0091565D01*
X004328Y0091641D01*
X0043438Y0091762D01*
X0043559Y009192D01*
X0043635Y0092103D01*
X0043644Y0092173D01*
D02*
G37*
G36*
X0029143Y0093873D02*
X0028766D01*
Y0092946D01*
X0029143D01*
Y0093873D01*
D02*
G37*
G36*
X0028504D02*
X0028127D01*
Y0092946D01*
X0028504D01*
Y0093873D01*
D02*
G37*
G36*
X0041504D02*
X0041127D01*
Y0092946D01*
X0041504D01*
Y0093873D01*
D02*
G37*
G36*
X0040873D02*
X0040496D01*
Y0092946D01*
X0040873D01*
Y0093873D01*
D02*
G37*
G36*
X0027873Y0092704D02*
X0027146D01*
Y0091727D01*
X0027873D01*
Y0092704D01*
D02*
G37*
G36*
X0054054Y0092604D02*
X0053327D01*
Y0091627D01*
X0054054D01*
Y0092604D01*
D02*
G37*
G36*
X0027873Y0093873D02*
X0027496D01*
Y0092946D01*
X0027873D01*
Y0093873D01*
D02*
G37*
G36*
X0028854Y0092704D02*
X0028127D01*
Y0091727D01*
X0028854D01*
Y0092704D01*
D02*
G37*
G36*
X0029773Y0092173D02*
X0029156D01*
X0029165Y0092103D01*
X0029241Y009192D01*
X0029362Y0091762D01*
X002952Y0091641D01*
X0029703Y0091565D01*
X0029773Y0091556D01*
Y0092173D01*
D02*
G37*
G36*
X0107544Y0092073D02*
X0106927D01*
Y0091456D01*
X0106997Y0091465D01*
X010718Y0091541D01*
X0107338Y0091662D01*
X0107459Y009182D01*
X0107535Y0092003D01*
X0107544Y0092073D01*
D02*
G37*
G36*
X0106673D02*
X0106056D01*
X0106065Y0092003D01*
X0106141Y009182D01*
X0106262Y0091662D01*
X010642Y0091541D01*
X0106603Y0091465D01*
X0106673Y0091456D01*
Y0092073D01*
D02*
G37*
G36*
X0132773D02*
X0132156D01*
X0132165Y0092003D01*
X0132241Y009182D01*
X0132362Y0091662D01*
X013252Y0091541D01*
X0132703Y0091465D01*
X0132773Y0091456D01*
Y0092073D01*
D02*
G37*
G36*
X0119644D02*
X0119027D01*
Y0091456D01*
X0119097Y0091465D01*
X011928Y0091541D01*
X0119438Y0091662D01*
X0119559Y009182D01*
X0119635Y0092003D01*
X0119644Y0092073D01*
D02*
G37*
G36*
X0068644D02*
X0068027D01*
Y0091456D01*
X0068097Y0091465D01*
X006828Y0091541D01*
X0068438Y0091662D01*
X0068559Y009182D01*
X0068635Y0092003D01*
X0068644Y0092073D01*
D02*
G37*
G36*
X0067773D02*
X0067156D01*
X0067165Y0092003D01*
X0067241Y009182D01*
X0067362Y0091662D01*
X006752Y0091541D01*
X0067703Y0091465D01*
X0067773Y0091456D01*
Y0092073D01*
D02*
G37*
G36*
X0095144D02*
X0094527D01*
Y0091456D01*
X0094597Y0091465D01*
X009478Y0091541D01*
X0094938Y0091662D01*
X0095059Y009182D01*
X0095135Y0092003D01*
X0095144Y0092073D01*
D02*
G37*
G36*
X0094273D02*
X0093656D01*
X0093665Y0092003D01*
X0093741Y009182D01*
X0093862Y0091662D01*
X009402Y0091541D01*
X0094203Y0091465D01*
X0094273Y0091456D01*
Y0092073D01*
D02*
G37*
G36*
X0066854Y0092504D02*
X0066127D01*
Y0091527D01*
X0066854D01*
Y0092504D01*
D02*
G37*
G36*
X0065873D02*
X0065146D01*
Y0091527D01*
X0065873D01*
Y0092504D01*
D02*
G37*
G36*
X0080754D02*
X0080027D01*
Y0091527D01*
X0080754D01*
Y0092504D01*
D02*
G37*
G36*
X0079773D02*
X0079046D01*
Y0091527D01*
X0079773D01*
Y0092504D01*
D02*
G37*
G36*
X0117073Y0092504D02*
X0116346D01*
Y0091527D01*
X0117073D01*
Y0092504D01*
D02*
G37*
G36*
X0133644Y0092073D02*
X0133027D01*
Y0091456D01*
X0133097Y0091465D01*
X013328Y0091541D01*
X0133438Y0091662D01*
X0133559Y009182D01*
X0133635Y0092003D01*
X0133644Y0092073D01*
D02*
G37*
G36*
X0041854Y0092504D02*
X0041127D01*
Y0091527D01*
X0041854D01*
Y0092504D01*
D02*
G37*
G36*
X0040873D02*
X0040146D01*
Y0091527D01*
X0040873D01*
Y0092504D01*
D02*
G37*
G36*
X0128873Y0097244D02*
X0128803Y0097235D01*
X012862Y0097159D01*
X0128462Y0097038D01*
X0128341Y009688D01*
X0128265Y0096697D01*
X0128256Y0096627D01*
X0128873D01*
Y0097244D01*
D02*
G37*
G36*
X0051373Y0100373D02*
X0050756D01*
X0050765Y0100303D01*
X0050841Y010012D01*
X0050962Y0099962D01*
X005112Y0099841D01*
X0051303Y0099765D01*
X0051373Y0099756D01*
Y0100373D01*
D02*
G37*
G36*
X0047744D02*
X0047127D01*
Y0099756D01*
X0047197Y0099765D01*
X004738Y0099841D01*
X0047538Y0099962D01*
X0047659Y010012D01*
X0047735Y0100303D01*
X0047744Y0100373D01*
D02*
G37*
G36*
X0059373D02*
X0058756D01*
X0058765Y0100303D01*
X0058841Y010012D01*
X0058962Y0099962D01*
X005912Y0099841D01*
X0059303Y0099765D01*
X0059373Y0099756D01*
Y0100373D01*
D02*
G37*
G36*
X0052244D02*
X0051627D01*
Y0099756D01*
X0051697Y0099765D01*
X005188Y0099841D01*
X0052038Y0099962D01*
X0052159Y010012D01*
X0052235Y0100303D01*
X0052244Y0100373D01*
D02*
G37*
G36*
X0038873D02*
X0038256D01*
X0038265Y0100303D01*
X0038341Y010012D01*
X0038462Y0099962D01*
X003862Y0099841D01*
X0038803Y0099765D01*
X0038873Y0099756D01*
Y0100373D01*
D02*
G37*
G36*
X0034744D02*
X0034127D01*
Y0099756D01*
X0034197Y0099765D01*
X003438Y0099841D01*
X0034538Y0099962D01*
X0034659Y010012D01*
X0034735Y0100303D01*
X0034744Y0100373D01*
D02*
G37*
G36*
X0046873D02*
X0046256D01*
X0046265Y0100303D01*
X0046341Y010012D01*
X0046462Y0099962D01*
X004662Y0099841D01*
X0046803Y0099765D01*
X0046873Y0099756D01*
Y0100373D01*
D02*
G37*
G36*
X0039744D02*
X0039127D01*
Y0099756D01*
X0039197Y0099765D01*
X003938Y0099841D01*
X0039538Y0099962D01*
X0039659Y010012D01*
X0039735Y0100303D01*
X0039744Y0100373D01*
D02*
G37*
G36*
X0060244D02*
X0059627D01*
Y0099756D01*
X0059697Y0099765D01*
X005988Y0099841D01*
X0060038Y0099962D01*
X0060159Y010012D01*
X0060235Y0100303D01*
X0060244Y0100373D01*
D02*
G37*
G36*
X0078744D02*
X0078127D01*
Y0099756D01*
X0078197Y0099765D01*
X007838Y0099841D01*
X0078538Y0099962D01*
X0078659Y010012D01*
X0078735Y0100303D01*
X0078744Y0100373D01*
D02*
G37*
G36*
X0077873D02*
X0077256D01*
X0077265Y0100303D01*
X0077341Y010012D01*
X0077462Y0099962D01*
X007762Y0099841D01*
X0077803Y0099765D01*
X0077873Y0099756D01*
Y0100373D01*
D02*
G37*
G36*
X0086744D02*
X0086127D01*
Y0099756D01*
X0086197Y0099765D01*
X008638Y0099841D01*
X0086538Y0099962D01*
X0086659Y010012D01*
X0086735Y0100303D01*
X0086744Y0100373D01*
D02*
G37*
G36*
X0085873D02*
X0085256D01*
X0085265Y0100303D01*
X0085341Y010012D01*
X0085462Y0099962D01*
X008562Y0099841D01*
X0085803Y0099765D01*
X0085873Y0099756D01*
Y0100373D01*
D02*
G37*
G36*
X0064744D02*
X0064127D01*
Y0099756D01*
X0064197Y0099765D01*
X006438Y0099841D01*
X0064538Y0099962D01*
X0064659Y010012D01*
X0064735Y0100303D01*
X0064744Y0100373D01*
D02*
G37*
G36*
X0063873D02*
X0063256D01*
X0063265Y0100303D01*
X0063341Y010012D01*
X0063462Y0099962D01*
X006362Y0099841D01*
X0063803Y0099765D01*
X0063873Y0099756D01*
Y0100373D01*
D02*
G37*
G36*
X0072744D02*
X0072127D01*
Y0099756D01*
X0072197Y0099765D01*
X007238Y0099841D01*
X0072538Y0099962D01*
X0072659Y010012D01*
X0072735Y0100303D01*
X0072744Y0100373D01*
D02*
G37*
G36*
X0071873D02*
X0071256D01*
X0071265Y0100303D01*
X0071341Y010012D01*
X0071462Y0099962D01*
X007162Y0099841D01*
X0071803Y0099765D01*
X0071873Y0099756D01*
Y0100373D01*
D02*
G37*
G36*
X0033873D02*
X0033256D01*
X0033265Y0100303D01*
X0033341Y010012D01*
X0033462Y0099962D01*
X003362Y0099841D01*
X0033803Y0099765D01*
X0033873Y0099756D01*
Y0100373D01*
D02*
G37*
G36*
X0122873Y0099244D02*
X0122803Y0099235D01*
X012262Y0099159D01*
X0122462Y0099038D01*
X0122341Y009888D01*
X0122265Y0098697D01*
X0122256Y0098627D01*
X0122873D01*
Y0099244D01*
D02*
G37*
G36*
X0115127D02*
Y0098627D01*
X0115744D01*
X0115735Y0098697D01*
X0115659Y009888D01*
X0115538Y0099038D01*
X011538Y0099159D01*
X0115197Y0099235D01*
X0115127Y0099244D01*
D02*
G37*
G36*
X0128873D02*
X0128803Y0099235D01*
X012862Y0099159D01*
X0128462Y0099038D01*
X0128341Y009888D01*
X0128265Y0098697D01*
X0128256Y0098627D01*
X0128873D01*
Y0099244D01*
D02*
G37*
G36*
X0123127D02*
Y0098627D01*
X0123744D01*
X0123735Y0098697D01*
X0123659Y009888D01*
X0123538Y0099038D01*
X012338Y0099159D01*
X0123197Y0099235D01*
X0123127Y0099244D01*
D02*
G37*
G36*
X0110873D02*
X0110803Y0099235D01*
X011062Y0099159D01*
X0110462Y0099038D01*
X0110341Y009888D01*
X0110265Y0098697D01*
X0110256Y0098627D01*
X0110873D01*
Y0099244D01*
D02*
G37*
G36*
X0103127D02*
Y0098627D01*
X0103744D01*
X0103735Y0098697D01*
X0103659Y009888D01*
X0103538Y0099038D01*
X010338Y0099159D01*
X0103197Y0099235D01*
X0103127Y0099244D01*
D02*
G37*
G36*
X0114873D02*
X0114803Y0099235D01*
X011462Y0099159D01*
X0114462Y0099038D01*
X0114341Y009888D01*
X0114265Y0098697D01*
X0114256Y0098627D01*
X0114873D01*
Y0099244D01*
D02*
G37*
G36*
X0111127D02*
Y0098627D01*
X0111744D01*
X0111735Y0098697D01*
X0111659Y009888D01*
X0111538Y0099038D01*
X011138Y0099159D01*
X0111197Y0099235D01*
X0111127Y0099244D01*
D02*
G37*
G36*
X0129127D02*
Y0098627D01*
X0129744D01*
X0129735Y0098697D01*
X0129659Y009888D01*
X0129538Y0099038D01*
X012938Y0099159D01*
X0129197Y0099235D01*
X0129127Y0099244D01*
D02*
G37*
G36*
X0021744Y0100373D02*
X0021127D01*
Y0099756D01*
X0021197Y0099765D01*
X002138Y0099841D01*
X0021538Y0099962D01*
X0021659Y010012D01*
X0021735Y0100303D01*
X0021744Y0100373D01*
D02*
G37*
G36*
X0020873D02*
X0020256D01*
X0020265Y0100303D01*
X0020341Y010012D01*
X0020462Y0099962D01*
X002062Y0099841D01*
X0020803Y0099765D01*
X0020873Y0099756D01*
Y0100373D01*
D02*
G37*
G36*
X0026744D02*
X0026127D01*
Y0099756D01*
X0026197Y0099765D01*
X002638Y0099841D01*
X0026538Y0099962D01*
X0026659Y010012D01*
X0026735Y0100303D01*
X0026744Y0100373D01*
D02*
G37*
G36*
X0025873D02*
X0025256D01*
X0025265Y0100303D01*
X0025341Y010012D01*
X0025462Y0099962D01*
X002562Y0099841D01*
X0025803Y0099765D01*
X0025873Y0099756D01*
Y0100373D01*
D02*
G37*
G36*
X0137127Y0099244D02*
Y0098627D01*
X0137744D01*
X0137735Y0098697D01*
X0137659Y009888D01*
X0137538Y0099038D01*
X013738Y0099159D01*
X0137197Y0099235D01*
X0137127Y0099244D01*
D02*
G37*
G36*
X0136873D02*
X0136803Y0099235D01*
X013662Y0099159D01*
X0136462Y0099038D01*
X0136341Y009888D01*
X0136265Y0098697D01*
X0136256Y0098627D01*
X0136873D01*
Y0099244D01*
D02*
G37*
G36*
X0013744Y0100373D02*
X0013127D01*
Y0099756D01*
X0013197Y0099765D01*
X001338Y0099841D01*
X0013538Y0099962D01*
X0013659Y010012D01*
X0013735Y0100303D01*
X0013744Y0100373D01*
D02*
G37*
G36*
X0012873D02*
X0012256D01*
X0012265Y0100303D01*
X0012341Y010012D01*
X0012462Y0099962D01*
X001262Y0099841D01*
X0012803Y0099765D01*
X0012873Y0099756D01*
Y0100373D01*
D02*
G37*
G36*
X0090373D02*
X0089756D01*
X0089765Y0100303D01*
X0089841Y010012D01*
X0089962Y0099962D01*
X009012Y0099841D01*
X0090303Y0099765D01*
X0090373Y0099756D01*
Y0100373D01*
D02*
G37*
G36*
X0045373Y0105793D02*
X0045213Y0105772D01*
X0044945Y0105661D01*
X0044715Y0105485D01*
X0044539Y0105255D01*
X0044428Y0104987D01*
X0044407Y0104827D01*
X0045373D01*
Y0105793D01*
D02*
G37*
G36*
X0032627D02*
Y0104827D01*
X0033593D01*
X0033572Y0104987D01*
X0033461Y0105255D01*
X0033285Y0105485D01*
X0033055Y0105661D01*
X0032787Y0105772D01*
X0032627Y0105793D01*
D02*
G37*
G36*
X0057873D02*
X0057713Y0105772D01*
X0057445Y0105661D01*
X0057215Y0105485D01*
X0057039Y0105255D01*
X0056928Y0104987D01*
X0056907Y0104827D01*
X0057873D01*
Y0105793D01*
D02*
G37*
G36*
X0045627D02*
Y0104827D01*
X0046593D01*
X0046572Y0104987D01*
X0046461Y0105255D01*
X0046285Y0105485D01*
X0046055Y0105661D01*
X0045787Y0105772D01*
X0045627Y0105793D01*
D02*
G37*
G36*
X0019373D02*
X0019213Y0105772D01*
X0018945Y0105661D01*
X0018715Y0105485D01*
X0018539Y0105255D01*
X0018428Y0104987D01*
X0018407Y0104827D01*
X0019373D01*
Y0105793D01*
D02*
G37*
G36*
X0135627Y0105693D02*
Y0104727D01*
X0136593D01*
X0136572Y0104887D01*
X0136461Y0105155D01*
X0136285Y0105385D01*
X0136055Y0105561D01*
X0135787Y0105672D01*
X0135627Y0105693D01*
D02*
G37*
G36*
X0032373Y0105793D02*
X0032213Y0105772D01*
X0031945Y0105661D01*
X0031715Y0105485D01*
X0031539Y0105255D01*
X0031428Y0104987D01*
X0031407Y0104827D01*
X0032373D01*
Y0105793D01*
D02*
G37*
G36*
X0019627D02*
Y0104827D01*
X0020593D01*
X0020572Y0104987D01*
X0020461Y0105255D01*
X0020285Y0105485D01*
X0020055Y0105661D01*
X0019787Y0105772D01*
X0019627Y0105793D01*
D02*
G37*
G36*
X0058127D02*
Y0104827D01*
X0059093D01*
X0059072Y0104987D01*
X0058961Y0105255D01*
X0058785Y0105485D01*
X0058555Y0105661D01*
X0058287Y0105772D01*
X0058127Y0105793D01*
D02*
G37*
G36*
X0097127Y0105893D02*
Y0104927D01*
X0098093D01*
X0098072Y0105087D01*
X0097961Y0105355D01*
X0097785Y0105585D01*
X0097555Y0105761D01*
X0097287Y0105872D01*
X0097127Y0105893D01*
D02*
G37*
G36*
X0096873D02*
X0096713Y0105872D01*
X0096445Y0105761D01*
X0096215Y0105585D01*
X0096039Y0105355D01*
X0095928Y0105087D01*
X0095907Y0104927D01*
X0096873D01*
Y0105893D01*
D02*
G37*
G36*
X0109627D02*
Y0104927D01*
X0110593D01*
X0110572Y0105087D01*
X0110461Y0105355D01*
X0110285Y0105585D01*
X0110055Y0105761D01*
X0109787Y0105872D01*
X0109627Y0105893D01*
D02*
G37*
G36*
X0109373D02*
X0109213Y0105872D01*
X0108945Y0105761D01*
X0108715Y0105585D01*
X0108539Y0105355D01*
X0108428Y0105087D01*
X0108407Y0104927D01*
X0109373D01*
Y0105893D01*
D02*
G37*
G36*
X0084627Y0105793D02*
Y0104827D01*
X0085593D01*
X0085572Y0104987D01*
X0085461Y0105255D01*
X0085285Y0105485D01*
X0085055Y0105661D01*
X0084787Y0105772D01*
X0084627Y0105793D01*
D02*
G37*
G36*
X0084373D02*
X0084213Y0105772D01*
X0083945Y0105661D01*
X0083715Y0105485D01*
X0083539Y0105255D01*
X0083428Y0104987D01*
X0083407Y0104827D01*
X0084373D01*
Y0105793D01*
D02*
G37*
G36*
X0070627Y0105893D02*
Y0104927D01*
X0071593D01*
X0071572Y0105087D01*
X0071461Y0105355D01*
X0071285Y0105585D01*
X0071055Y0105761D01*
X0070787Y0105872D01*
X0070627Y0105893D01*
D02*
G37*
G36*
X0070373D02*
X0070213Y0105872D01*
X0069945Y0105761D01*
X0069715Y0105585D01*
X0069539Y0105355D01*
X0069428Y0105087D01*
X0069407Y0104927D01*
X0070373D01*
Y0105893D01*
D02*
G37*
G36*
X0135373Y0105693D02*
X0135213Y0105672D01*
X0134945Y0105561D01*
X0134715Y0105385D01*
X0134539Y0105155D01*
X0134428Y0104887D01*
X0134407Y0104727D01*
X0135373D01*
Y0105693D01*
D02*
G37*
G36*
X0110873Y0100373D02*
X0110256D01*
X0110265Y0100303D01*
X0110341Y010012D01*
X0110462Y0099962D01*
X011062Y0099841D01*
X0110803Y0099765D01*
X0110873Y0099756D01*
Y0100373D01*
D02*
G37*
G36*
X0103744D02*
X0103127D01*
Y0099756D01*
X0103197Y0099765D01*
X010338Y0099841D01*
X0103538Y0099962D01*
X0103659Y010012D01*
X0103735Y0100303D01*
X0103744Y0100373D01*
D02*
G37*
G36*
X0114873D02*
X0114256D01*
X0114265Y0100303D01*
X0114341Y010012D01*
X0114462Y0099962D01*
X011462Y0099841D01*
X0114803Y0099765D01*
X0114873Y0099756D01*
Y0100373D01*
D02*
G37*
G36*
X0111744D02*
X0111127D01*
Y0099756D01*
X0111197Y0099765D01*
X011138Y0099841D01*
X0111538Y0099962D01*
X0111659Y010012D01*
X0111735Y0100303D01*
X0111744Y0100373D01*
D02*
G37*
G36*
X0098373D02*
X0097756D01*
X0097765Y0100303D01*
X0097841Y010012D01*
X0097962Y0099962D01*
X009812Y0099841D01*
X0098303Y0099765D01*
X0098373Y0099756D01*
Y0100373D01*
D02*
G37*
G36*
X0091244D02*
X0090627D01*
Y0099756D01*
X0090697Y0099765D01*
X009088Y0099841D01*
X0091038Y0099962D01*
X0091159Y010012D01*
X0091235Y0100303D01*
X0091244Y0100373D01*
D02*
G37*
G36*
X0102873D02*
X0102256D01*
X0102265Y0100303D01*
X0102341Y010012D01*
X0102462Y0099962D01*
X010262Y0099841D01*
X0102803Y0099765D01*
X0102873Y0099756D01*
Y0100373D01*
D02*
G37*
G36*
X0099244D02*
X0098627D01*
Y0099756D01*
X0098697Y0099765D01*
X009888Y0099841D01*
X0099038Y0099962D01*
X0099159Y010012D01*
X0099235Y0100303D01*
X0099244Y0100373D01*
D02*
G37*
G36*
X0115744D02*
X0115127D01*
Y0099756D01*
X0115197Y0099765D01*
X011538Y0099841D01*
X0115538Y0099962D01*
X0115659Y010012D01*
X0115735Y0100303D01*
X0115744Y0100373D01*
D02*
G37*
G36*
X0137744D02*
X0137127D01*
Y0099756D01*
X0137197Y0099765D01*
X013738Y0099841D01*
X0137538Y0099962D01*
X0137659Y010012D01*
X0137735Y0100303D01*
X0137744Y0100373D01*
D02*
G37*
G36*
X0136873D02*
X0136256D01*
X0136265Y0100303D01*
X0136341Y010012D01*
X0136462Y0099962D01*
X013662Y0099841D01*
X0136803Y0099765D01*
X0136873Y0099756D01*
Y0100373D01*
D02*
G37*
G36*
X0121627Y0105693D02*
Y0104727D01*
X0122593D01*
X0122572Y0104887D01*
X0122461Y0105155D01*
X0122285Y0105385D01*
X0122055Y0105561D01*
X0121787Y0105672D01*
X0121627Y0105693D01*
D02*
G37*
G36*
X0121373D02*
X0121213Y0105672D01*
X0120945Y0105561D01*
X0120715Y0105385D01*
X0120539Y0105155D01*
X0120428Y0104887D01*
X0120407Y0104727D01*
X0121373D01*
Y0105693D01*
D02*
G37*
G36*
X0123744Y0100373D02*
X0123127D01*
Y0099756D01*
X0123197Y0099765D01*
X012338Y0099841D01*
X0123538Y0099962D01*
X0123659Y010012D01*
X0123735Y0100303D01*
X0123744Y0100373D01*
D02*
G37*
G36*
X0122873D02*
X0122256D01*
X0122265Y0100303D01*
X0122341Y010012D01*
X0122462Y0099962D01*
X012262Y0099841D01*
X0122803Y0099765D01*
X0122873Y0099756D01*
Y0100373D01*
D02*
G37*
G36*
X0129744D02*
X0129127D01*
Y0099756D01*
X0129197Y0099765D01*
X012938Y0099841D01*
X0129538Y0099962D01*
X0129659Y010012D01*
X0129735Y0100303D01*
X0129744Y0100373D01*
D02*
G37*
G36*
X0128873D02*
X0128256D01*
X0128265Y0100303D01*
X0128341Y010012D01*
X0128462Y0099962D01*
X012862Y0099841D01*
X0128803Y0099765D01*
X0128873Y0099756D01*
Y0100373D01*
D02*
G37*
G36*
X0102873Y0099244D02*
X0102803Y0099235D01*
X010262Y0099159D01*
X0102462Y0099038D01*
X0102341Y009888D01*
X0102265Y0098697D01*
X0102256Y0098627D01*
X0102873D01*
Y0099244D01*
D02*
G37*
G36*
X0077873Y0098373D02*
X0077256D01*
X0077265Y0098303D01*
X0077341Y009812D01*
X0077462Y0097962D01*
X007762Y0097841D01*
X0077803Y0097765D01*
X0077873Y0097756D01*
Y0098373D01*
D02*
G37*
G36*
X0072744D02*
X0072127D01*
Y0097756D01*
X0072197Y0097765D01*
X007238Y0097841D01*
X0072538Y0097962D01*
X0072659Y009812D01*
X0072735Y0098303D01*
X0072744Y0098373D01*
D02*
G37*
G36*
X0085873D02*
X0085256D01*
X0085265Y0098303D01*
X0085341Y009812D01*
X0085462Y0097962D01*
X008562Y0097841D01*
X0085803Y0097765D01*
X0085873Y0097756D01*
Y0098373D01*
D02*
G37*
G36*
X0078744D02*
X0078127D01*
Y0097756D01*
X0078197Y0097765D01*
X007838Y0097841D01*
X0078538Y0097962D01*
X0078659Y009812D01*
X0078735Y0098303D01*
X0078744Y0098373D01*
D02*
G37*
G36*
X0063873D02*
X0063256D01*
X0063265Y0098303D01*
X0063341Y009812D01*
X0063462Y0097962D01*
X006362Y0097841D01*
X0063803Y0097765D01*
X0063873Y0097756D01*
Y0098373D01*
D02*
G37*
G36*
X0060244D02*
X0059627D01*
Y0097756D01*
X0059697Y0097765D01*
X005988Y0097841D01*
X0060038Y0097962D01*
X0060159Y009812D01*
X0060235Y0098303D01*
X0060244Y0098373D01*
D02*
G37*
G36*
X0071873D02*
X0071256D01*
X0071265Y0098303D01*
X0071341Y009812D01*
X0071462Y0097962D01*
X007162Y0097841D01*
X0071803Y0097765D01*
X0071873Y0097756D01*
Y0098373D01*
D02*
G37*
G36*
X0064744D02*
X0064127D01*
Y0097756D01*
X0064197Y0097765D01*
X006438Y0097841D01*
X0064538Y0097962D01*
X0064659Y009812D01*
X0064735Y0098303D01*
X0064744Y0098373D01*
D02*
G37*
G36*
X0086744D02*
X0086127D01*
Y0097756D01*
X0086197Y0097765D01*
X008638Y0097841D01*
X0086538Y0097962D01*
X0086659Y009812D01*
X0086735Y0098303D01*
X0086744Y0098373D01*
D02*
G37*
G36*
X0103744D02*
X0103127D01*
Y0097756D01*
X0103197Y0097765D01*
X010338Y0097841D01*
X0103538Y0097962D01*
X0103659Y009812D01*
X0103735Y0098303D01*
X0103744Y0098373D01*
D02*
G37*
G36*
X0102873D02*
X0102256D01*
X0102265Y0098303D01*
X0102341Y009812D01*
X0102462Y0097962D01*
X010262Y0097841D01*
X0102803Y0097765D01*
X0102873Y0097756D01*
Y0098373D01*
D02*
G37*
G36*
X0111744D02*
X0111127D01*
Y0097756D01*
X0111197Y0097765D01*
X011138Y0097841D01*
X0111538Y0097962D01*
X0111659Y009812D01*
X0111735Y0098303D01*
X0111744Y0098373D01*
D02*
G37*
G36*
X0110873D02*
X0110256D01*
X0110265Y0098303D01*
X0110341Y009812D01*
X0110462Y0097962D01*
X011062Y0097841D01*
X0110803Y0097765D01*
X0110873Y0097756D01*
Y0098373D01*
D02*
G37*
G36*
X0091244D02*
X0090627D01*
Y0097756D01*
X0090697Y0097765D01*
X009088Y0097841D01*
X0091038Y0097962D01*
X0091159Y009812D01*
X0091235Y0098303D01*
X0091244Y0098373D01*
D02*
G37*
G36*
X0090373D02*
X0089756D01*
X0089765Y0098303D01*
X0089841Y009812D01*
X0089962Y0097962D01*
X009012Y0097841D01*
X0090303Y0097765D01*
X0090373Y0097756D01*
Y0098373D01*
D02*
G37*
G36*
X0099244D02*
X0098627D01*
Y0097756D01*
X0098697Y0097765D01*
X009888Y0097841D01*
X0099038Y0097962D01*
X0099159Y009812D01*
X0099235Y0098303D01*
X0099244Y0098373D01*
D02*
G37*
G36*
X0098373D02*
X0097756D01*
X0097765Y0098303D01*
X0097841Y009812D01*
X0097962Y0097962D01*
X009812Y0097841D01*
X0098303Y0097765D01*
X0098373Y0097756D01*
Y0098373D01*
D02*
G37*
G36*
X0059373D02*
X0058756D01*
X0058765Y0098303D01*
X0058841Y009812D01*
X0058962Y0097962D01*
X005912Y0097841D01*
X0059303Y0097765D01*
X0059373Y0097756D01*
Y0098373D01*
D02*
G37*
G36*
X0020873D02*
X0020256D01*
X0020265Y0098303D01*
X0020341Y009812D01*
X0020462Y0097962D01*
X002062Y0097841D01*
X0020803Y0097765D01*
X0020873Y0097756D01*
Y0098373D01*
D02*
G37*
G36*
X0013744D02*
X0013127D01*
Y0097756D01*
X0013197Y0097765D01*
X001338Y0097841D01*
X0013538Y0097962D01*
X0013659Y009812D01*
X0013735Y0098303D01*
X0013744Y0098373D01*
D02*
G37*
G36*
X0025873D02*
X0025256D01*
X0025265Y0098303D01*
X0025341Y009812D01*
X0025462Y0097962D01*
X002562Y0097841D01*
X0025803Y0097765D01*
X0025873Y0097756D01*
Y0098373D01*
D02*
G37*
G36*
X0021744D02*
X0021127D01*
Y0097756D01*
X0021197Y0097765D01*
X002138Y0097841D01*
X0021538Y0097962D01*
X0021659Y009812D01*
X0021735Y0098303D01*
X0021744Y0098373D01*
D02*
G37*
G36*
X0136873Y0097244D02*
X0136803Y0097235D01*
X013662Y0097159D01*
X0136462Y0097038D01*
X0136341Y009688D01*
X0136265Y0096697D01*
X0136256Y0096627D01*
X0136873D01*
Y0097244D01*
D02*
G37*
G36*
X0129127D02*
Y0096627D01*
X0129744D01*
X0129735Y0096697D01*
X0129659Y009688D01*
X0129538Y0097038D01*
X012938Y0097159D01*
X0129197Y0097235D01*
X0129127Y0097244D01*
D02*
G37*
G36*
X0012873Y0098373D02*
X0012256D01*
X0012265Y0098303D01*
X0012341Y009812D01*
X0012462Y0097962D01*
X001262Y0097841D01*
X0012803Y0097765D01*
X0012873Y0097756D01*
Y0098373D01*
D02*
G37*
G36*
X0137127Y0097244D02*
Y0096627D01*
X0137744D01*
X0137735Y0096697D01*
X0137659Y009688D01*
X0137538Y0097038D01*
X013738Y0097159D01*
X0137197Y0097235D01*
X0137127Y0097244D01*
D02*
G37*
G36*
X0026744Y0098373D02*
X0026127D01*
Y0097756D01*
X0026197Y0097765D01*
X002638Y0097841D01*
X0026538Y0097962D01*
X0026659Y009812D01*
X0026735Y0098303D01*
X0026744Y0098373D01*
D02*
G37*
G36*
X0047744D02*
X0047127D01*
Y0097756D01*
X0047197Y0097765D01*
X004738Y0097841D01*
X0047538Y0097962D01*
X0047659Y009812D01*
X0047735Y0098303D01*
X0047744Y0098373D01*
D02*
G37*
G36*
X0046873D02*
X0046256D01*
X0046265Y0098303D01*
X0046341Y009812D01*
X0046462Y0097962D01*
X004662Y0097841D01*
X0046803Y0097765D01*
X0046873Y0097756D01*
Y0098373D01*
D02*
G37*
G36*
X0052244D02*
X0051627D01*
Y0097756D01*
X0051697Y0097765D01*
X005188Y0097841D01*
X0052038Y0097962D01*
X0052159Y009812D01*
X0052235Y0098303D01*
X0052244Y0098373D01*
D02*
G37*
G36*
X0051373D02*
X0050756D01*
X0050765Y0098303D01*
X0050841Y009812D01*
X0050962Y0097962D01*
X005112Y0097841D01*
X0051303Y0097765D01*
X0051373Y0097756D01*
Y0098373D01*
D02*
G37*
G36*
X0034744D02*
X0034127D01*
Y0097756D01*
X0034197Y0097765D01*
X003438Y0097841D01*
X0034538Y0097962D01*
X0034659Y009812D01*
X0034735Y0098303D01*
X0034744Y0098373D01*
D02*
G37*
G36*
X0033873D02*
X0033256D01*
X0033265Y0098303D01*
X0033341Y009812D01*
X0033462Y0097962D01*
X003362Y0097841D01*
X0033803Y0097765D01*
X0033873Y0097756D01*
Y0098373D01*
D02*
G37*
G36*
X0039744D02*
X0039127D01*
Y0097756D01*
X0039197Y0097765D01*
X003938Y0097841D01*
X0039538Y0097962D01*
X0039659Y009812D01*
X0039735Y0098303D01*
X0039744Y0098373D01*
D02*
G37*
G36*
X0038873D02*
X0038256D01*
X0038265Y0098303D01*
X0038341Y009812D01*
X0038462Y0097962D01*
X003862Y0097841D01*
X0038803Y0097765D01*
X0038873Y0097756D01*
Y0098373D01*
D02*
G37*
G36*
X0114873D02*
X0114256D01*
X0114265Y0098303D01*
X0114341Y009812D01*
X0114462Y0097962D01*
X011462Y0097841D01*
X0114803Y0097765D01*
X0114873Y0097756D01*
Y0098373D01*
D02*
G37*
G36*
X0063873Y0099244D02*
X0063803Y0099235D01*
X006362Y0099159D01*
X0063462Y0099038D01*
X0063341Y009888D01*
X0063265Y0098697D01*
X0063256Y0098627D01*
X0063873D01*
Y0099244D01*
D02*
G37*
G36*
X0059627D02*
Y0098627D01*
X0060244D01*
X0060235Y0098697D01*
X0060159Y009888D01*
X0060038Y0099038D01*
X005988Y0099159D01*
X0059697Y0099235D01*
X0059627Y0099244D01*
D02*
G37*
G36*
X0071873D02*
X0071803Y0099235D01*
X007162Y0099159D01*
X0071462Y0099038D01*
X0071341Y009888D01*
X0071265Y0098697D01*
X0071256Y0098627D01*
X0071873D01*
Y0099244D01*
D02*
G37*
G36*
X0064127D02*
Y0098627D01*
X0064744D01*
X0064735Y0098697D01*
X0064659Y009888D01*
X0064538Y0099038D01*
X006438Y0099159D01*
X0064197Y0099235D01*
X0064127Y0099244D01*
D02*
G37*
G36*
X0051373D02*
X0051303Y0099235D01*
X005112Y0099159D01*
X0050962Y0099038D01*
X0050841Y009888D01*
X0050765Y0098697D01*
X0050756Y0098627D01*
X0051373D01*
Y0099244D01*
D02*
G37*
G36*
X0047127D02*
Y0098627D01*
X0047744D01*
X0047735Y0098697D01*
X0047659Y009888D01*
X0047538Y0099038D01*
X004738Y0099159D01*
X0047197Y0099235D01*
X0047127Y0099244D01*
D02*
G37*
G36*
X0059373D02*
X0059303Y0099235D01*
X005912Y0099159D01*
X0058962Y0099038D01*
X0058841Y009888D01*
X0058765Y0098697D01*
X0058756Y0098627D01*
X0059373D01*
Y0099244D01*
D02*
G37*
G36*
X0051627D02*
Y0098627D01*
X0052244D01*
X0052235Y0098697D01*
X0052159Y009888D01*
X0052038Y0099038D01*
X005188Y0099159D01*
X0051697Y0099235D01*
X0051627Y0099244D01*
D02*
G37*
G36*
X0072127D02*
Y0098627D01*
X0072744D01*
X0072735Y0098697D01*
X0072659Y009888D01*
X0072538Y0099038D01*
X007238Y0099159D01*
X0072197Y0099235D01*
X0072127Y0099244D01*
D02*
G37*
G36*
X0090627D02*
Y0098627D01*
X0091244D01*
X0091235Y0098697D01*
X0091159Y009888D01*
X0091038Y0099038D01*
X009088Y0099159D01*
X0090697Y0099235D01*
X0090627Y0099244D01*
D02*
G37*
G36*
X0090373D02*
X0090303Y0099235D01*
X009012Y0099159D01*
X0089962Y0099038D01*
X0089841Y009888D01*
X0089765Y0098697D01*
X0089756Y0098627D01*
X0090373D01*
Y0099244D01*
D02*
G37*
G36*
X0098627D02*
Y0098627D01*
X0099244D01*
X0099235Y0098697D01*
X0099159Y009888D01*
X0099038Y0099038D01*
X009888Y0099159D01*
X0098697Y0099235D01*
X0098627Y0099244D01*
D02*
G37*
G36*
X0098373D02*
X0098303Y0099235D01*
X009812Y0099159D01*
X0097962Y0099038D01*
X0097841Y009888D01*
X0097765Y0098697D01*
X0097756Y0098627D01*
X0098373D01*
Y0099244D01*
D02*
G37*
G36*
X0078127D02*
Y0098627D01*
X0078744D01*
X0078735Y0098697D01*
X0078659Y009888D01*
X0078538Y0099038D01*
X007838Y0099159D01*
X0078197Y0099235D01*
X0078127Y0099244D01*
D02*
G37*
G36*
X0077873D02*
X0077803Y0099235D01*
X007762Y0099159D01*
X0077462Y0099038D01*
X0077341Y009888D01*
X0077265Y0098697D01*
X0077256Y0098627D01*
X0077873D01*
Y0099244D01*
D02*
G37*
G36*
X0086127D02*
Y0098627D01*
X0086744D01*
X0086735Y0098697D01*
X0086659Y009888D01*
X0086538Y0099038D01*
X008638Y0099159D01*
X0086197Y0099235D01*
X0086127Y0099244D01*
D02*
G37*
G36*
X0085873D02*
X0085803Y0099235D01*
X008562Y0099159D01*
X0085462Y0099038D01*
X0085341Y009888D01*
X0085265Y0098697D01*
X0085256Y0098627D01*
X0085873D01*
Y0099244D01*
D02*
G37*
G36*
X0046873D02*
X0046803Y0099235D01*
X004662Y0099159D01*
X0046462Y0099038D01*
X0046341Y009888D01*
X0046265Y0098697D01*
X0046256Y0098627D01*
X0046873D01*
Y0099244D01*
D02*
G37*
G36*
X0136873Y0098373D02*
X0136256D01*
X0136265Y0098303D01*
X0136341Y009812D01*
X0136462Y0097962D01*
X013662Y0097841D01*
X0136803Y0097765D01*
X0136873Y0097756D01*
Y0098373D01*
D02*
G37*
G36*
X0129744D02*
X0129127D01*
Y0097756D01*
X0129197Y0097765D01*
X012938Y0097841D01*
X0129538Y0097962D01*
X0129659Y009812D01*
X0129735Y0098303D01*
X0129744Y0098373D01*
D02*
G37*
G36*
X0012873Y0099244D02*
X0012803Y0099235D01*
X001262Y0099159D01*
X0012462Y0099038D01*
X0012341Y009888D01*
X0012265Y0098697D01*
X0012256Y0098627D01*
X0012873D01*
Y0099244D01*
D02*
G37*
G36*
X0137744Y0098373D02*
X0137127D01*
Y0097756D01*
X0137197Y0097765D01*
X013738Y0097841D01*
X0137538Y0097962D01*
X0137659Y009812D01*
X0137735Y0098303D01*
X0137744Y0098373D01*
D02*
G37*
G36*
X0122873D02*
X0122256D01*
X0122265Y0098303D01*
X0122341Y009812D01*
X0122462Y0097962D01*
X012262Y0097841D01*
X0122803Y0097765D01*
X0122873Y0097756D01*
Y0098373D01*
D02*
G37*
G36*
X0115744D02*
X0115127D01*
Y0097756D01*
X0115197Y0097765D01*
X011538Y0097841D01*
X0115538Y0097962D01*
X0115659Y009812D01*
X0115735Y0098303D01*
X0115744Y0098373D01*
D02*
G37*
G36*
X0128873D02*
X0128256D01*
X0128265Y0098303D01*
X0128341Y009812D01*
X0128462Y0097962D01*
X012862Y0097841D01*
X0128803Y0097765D01*
X0128873Y0097756D01*
Y0098373D01*
D02*
G37*
G36*
X0123744D02*
X0123127D01*
Y0097756D01*
X0123197Y0097765D01*
X012338Y0097841D01*
X0123538Y0097962D01*
X0123659Y009812D01*
X0123735Y0098303D01*
X0123744Y0098373D01*
D02*
G37*
G36*
X0013127Y0099244D02*
Y0098627D01*
X0013744D01*
X0013735Y0098697D01*
X0013659Y009888D01*
X0013538Y0099038D01*
X001338Y0099159D01*
X0013197Y0099235D01*
X0013127Y0099244D01*
D02*
G37*
G36*
X0034127D02*
Y0098627D01*
X0034744D01*
X0034735Y0098697D01*
X0034659Y009888D01*
X0034538Y0099038D01*
X003438Y0099159D01*
X0034197Y0099235D01*
X0034127Y0099244D01*
D02*
G37*
G36*
X0033873D02*
X0033803Y0099235D01*
X003362Y0099159D01*
X0033462Y0099038D01*
X0033341Y009888D01*
X0033265Y0098697D01*
X0033256Y0098627D01*
X0033873D01*
Y0099244D01*
D02*
G37*
G36*
X0039127D02*
Y0098627D01*
X0039744D01*
X0039735Y0098697D01*
X0039659Y009888D01*
X0039538Y0099038D01*
X003938Y0099159D01*
X0039197Y0099235D01*
X0039127Y0099244D01*
D02*
G37*
G36*
X0038873D02*
X0038803Y0099235D01*
X003862Y0099159D01*
X0038462Y0099038D01*
X0038341Y009888D01*
X0038265Y0098697D01*
X0038256Y0098627D01*
X0038873D01*
Y0099244D01*
D02*
G37*
G36*
X0021127D02*
Y0098627D01*
X0021744D01*
X0021735Y0098697D01*
X0021659Y009888D01*
X0021538Y0099038D01*
X002138Y0099159D01*
X0021197Y0099235D01*
X0021127Y0099244D01*
D02*
G37*
G36*
X0020873D02*
X0020803Y0099235D01*
X002062Y0099159D01*
X0020462Y0099038D01*
X0020341Y009888D01*
X0020265Y0098697D01*
X0020256Y0098627D01*
X0020873D01*
Y0099244D01*
D02*
G37*
G36*
X0026127D02*
Y0098627D01*
X0026744D01*
X0026735Y0098697D01*
X0026659Y009888D01*
X0026538Y0099038D01*
X002638Y0099159D01*
X0026197Y0099235D01*
X0026127Y0099244D01*
D02*
G37*
G36*
X0025873D02*
X0025803Y0099235D01*
X002562Y0099159D01*
X0025462Y0099038D01*
X0025341Y009888D01*
X0025265Y0098697D01*
X0025256Y0098627D01*
X0025873D01*
Y0099244D01*
D02*
G37*
%LPD*%
D10*
X00586Y00884D02*
D03*
Y0084971D02*
D03*
X00546Y0085D02*
D03*
Y0088429D02*
D03*
X00127Y00884D02*
D03*
Y0084971D02*
D03*
X00168Y0085D02*
D03*
Y0088429D02*
D03*
X00209Y0085D02*
D03*
Y0088429D02*
D03*
X00256Y0085D02*
D03*
Y0088429D02*
D03*
X00336Y00884D02*
D03*
Y0084971D02*
D03*
X00296Y0085D02*
D03*
Y0088429D02*
D03*
X00382Y0085D02*
D03*
Y0088429D02*
D03*
X00422Y0085D02*
D03*
Y0088429D02*
D03*
X00462Y00884D02*
D03*
Y0084971D02*
D03*
X00506Y0085D02*
D03*
Y0088429D02*
D03*
X00634D02*
D03*
Y0085D02*
D03*
X00675Y0088429D02*
D03*
Y0085D02*
D03*
X00716Y0085071D02*
D03*
Y00885D02*
D03*
X00773Y00851D02*
D03*
Y0088529D02*
D03*
X00814Y00851D02*
D03*
Y0088529D02*
D03*
X00855Y00885D02*
D03*
Y0085071D02*
D03*
X00899Y0085D02*
D03*
Y0088429D02*
D03*
X00941Y0085D02*
D03*
Y0088429D02*
D03*
X00982Y00885D02*
D03*
Y0085071D02*
D03*
X01025Y0085D02*
D03*
Y0088429D02*
D03*
X01105Y00884D02*
D03*
Y0084971D02*
D03*
X01065Y0085D02*
D03*
Y0088429D02*
D03*
X0115Y0085D02*
D03*
Y0088429D02*
D03*
X01359Y0088429D02*
D03*
Y0085D02*
D03*
X01318Y0088429D02*
D03*
Y0085D02*
D03*
X01277Y0084971D02*
D03*
Y00884D02*
D03*
X0123D02*
D03*
Y0084971D02*
D03*
X0119Y0085D02*
D03*
Y0088429D02*
D03*
D11*
X00224Y00471D02*
D03*
Y0050529D02*
D03*
X00249Y00471D02*
D03*
Y0050529D02*
D03*
D12*
X00219Y0038075D02*
D03*
X002095Y0039925D02*
D03*
X002285D02*
D03*
X0025Y0043525D02*
D03*
X002595Y0041675D02*
D03*
X002405D02*
D03*
D13*
X0023414Y00357D02*
D03*
X00257D02*
D03*
X0058714Y00732D02*
D03*
X0061D02*
D03*
X0128714Y00699D02*
D03*
X0131D02*
D03*
X0096386Y00139D02*
D03*
X00941D02*
D03*
X0133486Y00649D02*
D03*
X01312D02*
D03*
X0102586Y00645D02*
D03*
X01003D02*
D03*
X0079886Y00645D02*
D03*
X00776D02*
D03*
X0060086Y00629D02*
D03*
X00578D02*
D03*
X0039686D02*
D03*
X00374D02*
D03*
X0134086Y00418D02*
D03*
X01318D02*
D03*
X0103186Y00422D02*
D03*
X01009D02*
D03*
X0082886Y0042D02*
D03*
X00806D02*
D03*
X0062486D02*
D03*
X00602D02*
D03*
X0042186Y00422D02*
D03*
X00399D02*
D03*
X0116214Y0004D02*
D03*
X01185D02*
D03*
D14*
X00177Y0044D02*
D03*
X0021129D02*
D03*
X0049371Y001075D02*
D03*
X00528D02*
D03*
X0062771Y00108D02*
D03*
X00662D02*
D03*
X0056071Y00107D02*
D03*
X00595D02*
D03*
X007302Y00108D02*
D03*
X0069591D02*
D03*
X007972Y001075D02*
D03*
X0076291D02*
D03*
X008652D02*
D03*
X0083091D02*
D03*
X009322D02*
D03*
X0089791D02*
D03*
X009972D02*
D03*
X0096291D02*
D03*
X010622D02*
D03*
X0102791D02*
D03*
X011247D02*
D03*
X0109041D02*
D03*
D15*
X00177Y00475D02*
D03*
Y00509D02*
D03*
X00256Y00619D02*
D03*
Y00585D02*
D03*
D16*
X002Y0048414D02*
D03*
Y00507D02*
D03*
X00885Y0065214D02*
D03*
Y00675D02*
D03*
X00836Y0071014D02*
D03*
Y00733D02*
D03*
X01097Y0068314D02*
D03*
Y00706D02*
D03*
X00557Y0016886D02*
D03*
Y00146D02*
D03*
X007Y0016786D02*
D03*
Y00145D02*
D03*
X00844Y0014614D02*
D03*
Y00169D02*
D03*
X00991Y0082186D02*
D03*
Y00799D02*
D03*
X01115Y0082186D02*
D03*
Y00799D02*
D03*
X01053Y0082086D02*
D03*
Y00798D02*
D03*
X01134Y0014014D02*
D03*
Y00163D02*
D03*
X00255Y0056286D02*
D03*
Y0054D02*
D03*
X00158Y0082086D02*
D03*
Y00798D02*
D03*
X01349Y0051014D02*
D03*
Y00533D02*
D03*
Y0055414D02*
D03*
Y00577D02*
D03*
Y0062086D02*
D03*
Y00598D02*
D03*
X01032Y0050714D02*
D03*
Y0053D02*
D03*
Y0055114D02*
D03*
Y00574D02*
D03*
Y0061786D02*
D03*
Y00595D02*
D03*
X00827Y0051114D02*
D03*
Y00534D02*
D03*
X00828Y0055514D02*
D03*
Y00578D02*
D03*
Y0062286D02*
D03*
Y006D02*
D03*
X00624Y0050614D02*
D03*
Y00529D02*
D03*
Y0055114D02*
D03*
Y00574D02*
D03*
Y0061786D02*
D03*
Y00595D02*
D03*
X00422Y0050114D02*
D03*
Y00524D02*
D03*
Y0054514D02*
D03*
Y00568D02*
D03*
Y0061286D02*
D03*
Y0059D02*
D03*
X01349Y0028414D02*
D03*
Y00307D02*
D03*
Y0032814D02*
D03*
Y00351D02*
D03*
Y0039586D02*
D03*
Y00373D02*
D03*
X01032Y0028914D02*
D03*
Y00312D02*
D03*
Y0033314D02*
D03*
Y00356D02*
D03*
Y0040086D02*
D03*
Y00378D02*
D03*
X00828Y0028214D02*
D03*
Y00305D02*
D03*
Y0032614D02*
D03*
Y00349D02*
D03*
Y0039286D02*
D03*
Y0037D02*
D03*
X00624Y0028214D02*
D03*
Y00305D02*
D03*
Y0032614D02*
D03*
Y00349D02*
D03*
Y0039286D02*
D03*
Y0037D02*
D03*
X00422Y0028914D02*
D03*
Y00312D02*
D03*
Y0033314D02*
D03*
Y00356D02*
D03*
Y0040086D02*
D03*
Y00378D02*
D03*
X00218Y0082286D02*
D03*
Y008D02*
D03*
X00285Y0082186D02*
D03*
Y00799D02*
D03*
X00346Y0082186D02*
D03*
Y00799D02*
D03*
X00405Y0082186D02*
D03*
Y00799D02*
D03*
X0047Y0082286D02*
D03*
Y008D02*
D03*
X00534Y0082186D02*
D03*
Y00799D02*
D03*
X00598Y0082186D02*
D03*
Y00799D02*
D03*
X00662Y0082086D02*
D03*
Y00798D02*
D03*
X00728Y0082386D02*
D03*
Y00801D02*
D03*
X00803Y0082286D02*
D03*
Y008D02*
D03*
X00864Y0082286D02*
D03*
Y008D02*
D03*
X00928Y0082186D02*
D03*
Y00799D02*
D03*
X0137Y0082086D02*
D03*
Y00798D02*
D03*
X01307Y0082086D02*
D03*
Y00798D02*
D03*
X01242Y0082186D02*
D03*
Y00799D02*
D03*
X01176Y0081986D02*
D03*
Y00797D02*
D03*
D17*
X00203Y0075597D02*
D03*
Y00742D02*
D03*
Y0070103D02*
D03*
Y00715D02*
D03*
X0026175Y0074722D02*
D03*
Y0073325D02*
D03*
X00262Y0070003D02*
D03*
Y00714D02*
D03*
D18*
X00222Y0070825D02*
D03*
Y0073975D02*
D03*
X00242Y0070825D02*
D03*
Y0073975D02*
D03*
D19*
X00199Y00659D02*
D03*
X00162D02*
D03*
X00417Y00171D02*
D03*
X00454D02*
D03*
X00269Y00659D02*
D03*
X00232D02*
D03*
D20*
X0016935Y0075188D02*
D03*
X00169Y00706D02*
D03*
X0029815Y0070435D02*
D03*
X002985Y0075023D02*
D03*
X00141Y00447D02*
D03*
X0014135Y0049288D02*
D03*
D21*
X00106Y0072887D02*
D03*
X003615Y0072736D02*
D03*
X00078Y0046987D02*
D03*
D22*
X0113775Y00811D02*
D03*
X0115625Y008205D02*
D03*
Y008015D02*
D03*
X0109325Y00812D02*
D03*
X0107475Y008025D02*
D03*
Y008215D02*
D03*
X0101275Y00812D02*
D03*
X0103125Y008215D02*
D03*
Y008025D02*
D03*
X0049375Y00814D02*
D03*
X0051225Y008235D02*
D03*
Y008045D02*
D03*
X0057525Y00812D02*
D03*
X0055675Y008025D02*
D03*
Y008215D02*
D03*
X0019925Y00811D02*
D03*
X0018075Y008015D02*
D03*
Y008205D02*
D03*
X0011675Y00813D02*
D03*
X0013525Y008225D02*
D03*
Y008035D02*
D03*
X0024575Y00812D02*
D03*
X0026425Y008215D02*
D03*
Y008025D02*
D03*
X0032425Y00813D02*
D03*
X0030575Y008035D02*
D03*
Y008225D02*
D03*
X0036475Y00813D02*
D03*
X0038325Y008225D02*
D03*
Y008035D02*
D03*
X0044725Y00812D02*
D03*
X0042875Y008025D02*
D03*
Y008215D02*
D03*
X0062175Y00812D02*
D03*
X0064025Y008215D02*
D03*
Y008025D02*
D03*
X0070425Y00811D02*
D03*
X0068575Y008015D02*
D03*
Y008205D02*
D03*
X0076175Y00814D02*
D03*
X0078025Y008235D02*
D03*
Y008045D02*
D03*
X0084225Y00814D02*
D03*
X0082375Y008045D02*
D03*
Y008235D02*
D03*
X0088975Y00814D02*
D03*
X0090825Y008235D02*
D03*
Y008045D02*
D03*
X0096825Y00812D02*
D03*
X0094975Y008025D02*
D03*
Y008215D02*
D03*
X0135025Y0081D02*
D03*
X0133175Y008005D02*
D03*
Y008195D02*
D03*
X0126175Y0081D02*
D03*
X0128025Y008195D02*
D03*
Y008005D02*
D03*
X0121825Y0081D02*
D03*
X0119975Y008005D02*
D03*
Y008195D02*
D03*
D23*
X0066Y0094D02*
D03*
X006727D02*
D03*
X006854D02*
D03*
X006981D02*
D03*
X0117D02*
D03*
X011827D02*
D03*
X011954D02*
D03*
X012081D02*
D03*
X0015D02*
D03*
X001627D02*
D03*
X001754D02*
D03*
X001881D02*
D03*
X0028D02*
D03*
X002927D02*
D03*
X003054D02*
D03*
X003181D02*
D03*
X0041D02*
D03*
X004227D02*
D03*
X004354D02*
D03*
X004481D02*
D03*
X00535D02*
D03*
X005477D02*
D03*
X005604D02*
D03*
X005731D02*
D03*
X008D02*
D03*
X008127D02*
D03*
X008254D02*
D03*
X008381D02*
D03*
X0105D02*
D03*
X010627D02*
D03*
X010754D02*
D03*
X010881D02*
D03*
X00925D02*
D03*
X009377D02*
D03*
X009504D02*
D03*
X009631D02*
D03*
X0131D02*
D03*
X013227D02*
D03*
X013354D02*
D03*
X013481D02*
D03*
D24*
X0067905Y00975D02*
D03*
X0118905D02*
D03*
X0016905D02*
D03*
X0029905D02*
D03*
X0042905D02*
D03*
X0055405D02*
D03*
X0081905D02*
D03*
X0106905D02*
D03*
X0094405D02*
D03*
X0132905D02*
D03*
D25*
X0081312Y0026024D02*
D03*
X0075851D02*
D03*
X0055658Y0025491D02*
D03*
X0061119D02*
D03*
X0041434Y0025643D02*
D03*
X0035973D02*
D03*
X0127991Y0026024D02*
D03*
X0133452D02*
D03*
X0101632Y0048249D02*
D03*
X0096171D02*
D03*
X0076105D02*
D03*
X0081566D02*
D03*
X0061119Y004797D02*
D03*
X0055658D02*
D03*
X0035211Y0047995D02*
D03*
X0040672D02*
D03*
X0133833D02*
D03*
X0128372D02*
D03*
X0101632Y0026024D02*
D03*
X0096171D02*
D03*
D26*
X00209Y005486D02*
D03*
Y005994D02*
D03*
D27*
X001055Y00574D02*
D03*
D28*
X00113Y00915D02*
D03*
X00147D02*
D03*
X00246Y00916D02*
D03*
X0028D02*
D03*
X00376Y00914D02*
D03*
X0041D02*
D03*
X00498Y00915D02*
D03*
X00532D02*
D03*
X00626Y00914D02*
D03*
X0066D02*
D03*
X00765D02*
D03*
X00799D02*
D03*
X01014Y00913D02*
D03*
X01048D02*
D03*
X0089Y00913D02*
D03*
X00924D02*
D03*
X01138Y00914D02*
D03*
X01172D02*
D03*
X01274Y00913D02*
D03*
X01308D02*
D03*
D29*
X004975Y000725D02*
D03*
X005275D02*
D03*
X00565Y00072D02*
D03*
X00595D02*
D03*
X0063Y000725D02*
D03*
X0066D02*
D03*
X007D02*
D03*
X0073D02*
D03*
X007675D02*
D03*
X007975D02*
D03*
X008352D02*
D03*
X008652D02*
D03*
X009022D02*
D03*
X009322D02*
D03*
X00965D02*
D03*
X00995D02*
D03*
X0103D02*
D03*
X0106D02*
D03*
X010925D02*
D03*
X011225D02*
D03*
X00389Y00172D02*
D03*
X00359D02*
D03*
X01155Y00075D02*
D03*
X01185D02*
D03*
D30*
X013324Y0007225D02*
D03*
D31*
X013065D02*
D03*
D32*
X0132Y001775D02*
D03*
D33*
X01295Y00083D02*
D03*
D34*
Y00094D02*
D03*
Y00105D02*
D03*
Y00116D02*
D03*
Y00127D02*
D03*
Y00138D02*
D03*
Y00149D02*
D03*
Y0016D02*
D03*
D35*
X013324Y001756D02*
D03*
D36*
X013065Y0017525D02*
D03*
D37*
X01254Y00106D02*
D03*
X012475D02*
D03*
X01241D02*
D03*
X012345D02*
D03*
X01228D02*
D03*
X012215D02*
D03*
X01215D02*
D03*
X01254Y00045D02*
D03*
X012475D02*
D03*
X01241D02*
D03*
X012345D02*
D03*
X01228D02*
D03*
X012215D02*
D03*
D38*
X01215D02*
D03*
D39*
X01175Y0011D02*
D03*
X0116103D02*
D03*
X00387Y00207D02*
D03*
X0037303D02*
D03*
D40*
X00982Y00885D02*
Y00895D01*
X009631Y009139D02*
X00982Y00895D01*
X009631Y009139D02*
Y0094D01*
X01105Y00884D02*
Y00898D01*
X010881Y009149D02*
X01105Y00898D01*
X010881Y009149D02*
Y0094D01*
X01228Y00884D02*
Y00899D01*
X012081Y009189D02*
X01228Y00899D01*
X012081Y009189D02*
Y0094D01*
X01165Y00165D02*
Y00184D01*
X01158Y00191D02*
X01165Y00184D01*
X01086Y00191D02*
X01158D01*
X0108Y00185D02*
X01086Y00191D01*
X0108Y00165D02*
Y00185D01*
X0017347Y00756D02*
X00213D01*
X0026239Y0072736D02*
X00285D01*
X00203Y00729D02*
Y0074D01*
Y00716D02*
Y00729D01*
X00213Y00756D02*
X00222Y00747D01*
X0016935Y0075188D02*
X0017347Y00756D01*
X0074638Y0063362D02*
X0075Y0063D01*
X0074638Y0063362D02*
X00776D01*
X0072701D02*
X0074638D01*
X002095Y0043821D02*
X0021129Y0044D01*
X002095Y0039925D02*
Y0043821D01*
X0029115Y00659D02*
X0029815Y00666D01*
X00269Y00659D02*
X0029115D01*
X0026175Y00728D02*
X0026239Y0072736D01*
X0026175Y00728D02*
Y0073325D01*
Y0071425D02*
Y00728D01*
X0021578Y0070203D02*
X00222Y0070825D01*
X00169Y00706D02*
X0017297Y0070203D01*
X00222Y0073975D02*
Y00747D01*
Y0070825D02*
Y00716D01*
X00242Y00736D01*
Y0073975D01*
Y0070825D02*
X0025022Y0070003D01*
X00262D01*
X00242Y0073975D02*
X0024947Y0074722D01*
X0026175D01*
X0054875Y0052925D02*
Y0062937D01*
Y0052925D02*
X00556Y00522D01*
X006135D01*
X01004Y00841D02*
Y00869D01*
X00991Y00828D02*
X01004Y00841D01*
X00991Y0082186D02*
Y00828D01*
X0058Y00792D02*
Y0080725D01*
X0057525Y00812D02*
X0058Y0080725D01*
X0032163Y0040883D02*
X0034342D01*
X00256Y0082975D02*
X0026425Y008215D01*
X00256Y0082975D02*
Y0085D01*
X00345Y0082186D02*
X00359Y0083586D01*
Y00866D01*
X00341Y00884D02*
X00359Y00866D01*
X00336Y00884D02*
X00341D01*
X0047Y0082286D02*
X00484Y0083686D01*
Y00862D01*
X00462Y00884D02*
X00484Y00862D01*
X0064025Y008025D02*
X0064364D01*
X00662Y0082086D01*
X0066236Y008205D01*
X0068575D01*
X0078025Y008045D02*
X0078464D01*
X00803Y0082286D01*
X0080364Y008235D01*
X0082575D01*
X0115Y0085D02*
X0115625Y0084375D01*
Y008205D02*
Y0084375D01*
X01025Y0085D02*
X0103125Y0084375D01*
Y008215D02*
Y0084375D01*
X00988Y00885D02*
X01004Y00869D01*
X00982Y00885D02*
X00988D01*
X00864Y0082286D02*
X00877Y0083586D01*
Y00869D01*
X00861Y00885D02*
X00877Y00869D01*
X00855Y00885D02*
X00861D01*
X00773Y0083075D02*
X0078025Y008235D01*
X00773Y0083075D02*
Y00851D01*
X00634Y0085D02*
X0064025Y0084375D01*
Y008215D02*
Y0084375D01*
X00512Y0082375D02*
X0051225Y008235D01*
X00512Y0082375D02*
Y00827D01*
X0051225Y008045D02*
X0051664D01*
X00534Y0082186D01*
X00382Y0085D02*
X0038325Y0084875D01*
Y008225D02*
Y0084875D01*
Y008035D02*
X0038664D01*
X00405Y0082186D01*
X004481Y008849D02*
X00449Y00884D01*
X004481Y008849D02*
Y0094D01*
X005731Y008969D02*
X00586Y00884D01*
X005731Y008969D02*
Y0094D01*
X006981Y008859D02*
X00699Y00885D01*
X006981Y008859D02*
Y0094D01*
X00318Y0088429D02*
X003181Y0088439D01*
Y0094D01*
X001881Y0088469D02*
X001885Y0088429D01*
X001881Y0088469D02*
Y0094D01*
X0018039Y0082086D02*
X0018075Y008205D01*
X00158Y0082086D02*
X0018039D01*
X00127Y0083075D02*
Y0084971D01*
Y0083075D02*
X0013525Y008225D01*
X00218Y0082286D02*
X00233Y0083786D01*
Y00864D01*
X0021271Y0088429D02*
X00233Y00864D01*
X00209Y0088429D02*
X0021271D01*
X0042839Y0082186D02*
X0042875Y008215D01*
X00405Y0082186D02*
X0042839D01*
X0055639D02*
X0055675Y008215D01*
X00534Y0082186D02*
X0055639D01*
X00899Y0083275D02*
Y0085D01*
Y0083275D02*
X0090825Y008235D01*
X00928Y0082186D02*
X0092836Y008215D01*
X01014Y0089529D02*
X01025Y0088429D01*
X01014Y0089529D02*
Y00913D01*
X01114Y0082186D02*
X01127Y0083486D01*
Y00868D01*
X01111Y00884D02*
X01127Y00868D01*
X01105Y00884D02*
X01111D01*
X01359Y0088429D02*
X0136Y0088529D01*
Y00906D01*
X013481Y009179D02*
X0136Y00906D01*
X013481Y009179D02*
Y00945D01*
X01277Y0084971D02*
X0128025Y0084646D01*
Y008195D02*
Y0084646D01*
X01359Y0088429D02*
X0137671D01*
X0029383Y0070003D02*
X0029815Y0070435D01*
X00262Y0070003D02*
X0029383D01*
X0026175Y0071425D02*
X00262Y00714D01*
X0026175Y0074722D02*
X0026476Y0075023D01*
X002985D01*
X005445Y0063362D02*
X0054875Y0062937D01*
X005445Y0063362D02*
X0057338D01*
X0052356D02*
X005445D01*
X006205Y00529D02*
X00624D01*
X00776Y0063362D02*
X0078038D01*
X00776D02*
Y00645D01*
X0054475Y0040883D02*
X0054883D01*
X0056Y0042D01*
X00602D01*
X0124816Y0040883D02*
X0127283D01*
X01282Y00418D01*
X01318D01*
X0124816Y0063362D02*
X0126962D01*
X01285Y00649D01*
X01312D01*
X01032Y00356D02*
Y00378D01*
X01349Y00351D02*
Y00373D01*
Y00577D02*
Y00598D01*
X01032Y00574D02*
Y00595D01*
X00814Y006D02*
X00828D01*
X0078038Y0063362D02*
X00814Y006D01*
X00828Y00578D02*
Y006D01*
X00624Y00574D02*
Y00595D01*
X0057338Y0063362D02*
X00578Y00629D01*
X00374Y00617D02*
Y00629D01*
Y00617D02*
X00383Y00608D01*
X00404D01*
X00422Y0059D01*
Y00568D02*
Y0059D01*
X0093047Y0063362D02*
X0093185Y00635D01*
X0128025Y008005D02*
X012835D01*
X0130386Y0082086D02*
X01307D01*
X0133039D01*
X0133175Y008195D01*
X012835Y008005D02*
X0130386Y0082086D01*
X01176Y0081986D02*
X0119939D01*
X0119975Y008195D01*
X01053Y0082086D02*
X0105364Y008215D01*
X0107475D01*
X0137671Y0088429D02*
X01385Y00876D01*
X0137Y0082086D02*
X01385Y0083586D01*
Y00876D01*
X0090825Y008045D02*
X0092561Y0082186D01*
X00928D01*
X0092836Y008215D02*
X0094975D01*
X0095175D01*
X0117461Y0081986D02*
X01176D01*
X0115625Y008015D02*
X0117461Y0081986D01*
X0115525Y008005D02*
X011585D01*
X00586Y00884D02*
X00603D01*
X0061Y00877D01*
Y0083386D02*
Y00877D01*
X00598Y0082186D02*
X0061Y0083386D01*
X00612Y00607D02*
X00624Y00595D01*
X00578Y00614D02*
Y00629D01*
Y00614D02*
X00585Y00607D01*
X00612D01*
X006135Y00522D02*
X006205Y00529D01*
X0034342Y0040883D02*
X0037083D01*
X00384Y00422D01*
X00399D01*
X00916Y0040883D02*
X0093047D01*
X00806Y0042D02*
Y0043D01*
X00826Y0045D01*
X00867D01*
X00876Y00441D01*
Y0043D02*
Y00441D01*
Y0043D02*
X0089717Y0040883D01*
X00916D01*
X00711Y0061761D02*
X0072701Y0063362D01*
X00711Y0041383D02*
Y0061761D01*
Y0041383D02*
X00716Y0040883D01*
X0072701D01*
X0075Y00538D02*
Y0063D01*
X0075183Y0040883D02*
X00763Y0042D01*
X0072701Y0040883D02*
X0075183D01*
X00763Y0042D02*
X007865D01*
X00806D01*
X00219Y00344D02*
Y0038075D01*
Y00344D02*
X00226Y00337D01*
X00233D01*
X0109041Y001075D02*
Y0011959D01*
X01085Y00125D02*
X0109041Y0011959D01*
X0102791Y001075D02*
Y0012209D01*
X01025Y00125D02*
X0102791Y0012209D01*
X0089791Y001075D02*
Y0012209D01*
X00895Y00125D02*
X0089791Y0012209D01*
X0083091Y001075D02*
Y0011909D01*
X00825Y00125D02*
X0083091Y0011909D01*
X0076291Y001075D02*
Y0012209D01*
X0076Y00125D02*
X0076291Y0012209D01*
X0069591Y00108D02*
Y0012409D01*
X00695Y00125D02*
X0069591Y0012409D01*
X0056071Y00107D02*
Y0012229D01*
X0049Y00125D02*
X00558D01*
X0056071Y0012229D01*
X0062771Y00108D02*
Y0012029D01*
X00558Y00125D02*
X00623D01*
X00695D01*
X00623D02*
X0062771Y0012029D01*
X0017297Y0070203D02*
X0021578D01*
X006714Y001596D02*
Y00165D01*
Y001596D02*
X00686Y00145D01*
X007D01*
X0061439Y0018561D02*
Y0021579D01*
Y0018561D02*
X00617Y00183D01*
X00952Y0011841D02*
Y00123D01*
Y0011841D02*
X0096291Y001075D01*
X0096386Y00139D02*
X0098Y0012286D01*
Y00094D02*
Y0012286D01*
X00965Y00079D02*
X0098Y00094D01*
X00965Y000725D02*
Y00079D01*
D41*
X00855Y00885D02*
Y00897D01*
X008381Y009139D02*
X00855Y00897D01*
X008381Y009139D02*
Y0094D01*
X011247Y001075D02*
Y001153D01*
X01097Y00143D02*
X011247Y001153D01*
X01067Y00143D02*
X01097D01*
X0106Y0015D02*
X01067Y00143D01*
X01158Y00126D02*
X0116103Y0012297D01*
Y0011D02*
Y0012297D01*
X01202Y00045D02*
Y00107D01*
X01146Y00012D02*
X0116214Y0002814D01*
X00496Y00012D02*
X01146D01*
X00476Y00032D02*
X00496Y00012D01*
X013324Y0007225D02*
Y000776D01*
X01305Y00105D02*
X013324Y000776D01*
X01295Y00105D02*
X01305D01*
X01155Y0010397D02*
X0116103Y0011D01*
X01155Y00075D02*
Y0010397D01*
X013812Y0019D02*
X013862Y00195D01*
X01314Y0019D02*
X013812D01*
X013065Y001825D02*
X01314Y0019D01*
X013065Y0017525D02*
Y001825D01*
X00869Y00675D02*
X0087Y00674D01*
X0083152Y0050662D02*
X0085376D01*
X00827Y0051114D02*
X0083152Y0050662D01*
X00249Y00471D02*
X00264D01*
X00271Y00464D01*
Y00423D02*
Y00464D01*
X0026475Y0041675D02*
X00271Y00423D01*
X002595Y0041675D02*
X0026475D01*
X002285Y003935D02*
Y0039925D01*
X0023625D01*
X002405Y004035D01*
X0082Y00534D02*
X00827D01*
X001627Y0094D02*
X001754D01*
X01037Y00733D02*
X01065Y00705D01*
X0104025Y00669D02*
X01065Y0069375D01*
X01097Y00706D02*
Y00712D01*
X010786Y007304D02*
X01097Y00712D01*
X010786Y007304D02*
Y00732D01*
X01097Y0068314D02*
X01099Y0068114D01*
Y00666D02*
Y0068114D01*
X00885Y00675D02*
X00903D01*
X0091792Y0068992D01*
Y0069839D01*
Y0070915D01*
X0092377Y00715D01*
X009786D01*
X009956Y00732D01*
X0061D02*
X006446D01*
X01115Y00799D02*
X01132D01*
X01114D02*
X01115D01*
X01008Y00822D02*
X0101275Y0081725D01*
Y00812D02*
Y0081725D01*
X0044725Y00812D02*
X00452Y0080725D01*
Y00794D02*
Y0080725D01*
X01098Y0081675D02*
Y00823D01*
X0109325Y00812D02*
X01098Y0081675D01*
X0070425Y00811D02*
X0071Y0080525D01*
Y00794D02*
Y0080525D01*
X00847Y00795D02*
Y0080925D01*
X0084225Y00814D02*
X00847Y0080925D01*
X00974Y0081775D02*
Y00824D01*
X0096825Y00812D02*
X00974Y0081775D01*
X0139Y00755D02*
X014055Y007395D01*
Y002455D02*
Y007395D01*
X01133Y00821D02*
X0113775Y0081625D01*
Y00811D02*
Y0081625D01*
Y0080475D02*
Y00811D01*
X01132Y00799D02*
X0113775Y0080475D01*
X01224Y00797D02*
Y0080425D01*
X0121825Y0081D02*
X01224Y0080425D01*
X01004Y00799D02*
X0101275Y0080775D01*
Y00812D01*
X00991Y00799D02*
X01004D01*
X00882Y00803D02*
X0088975Y0081075D01*
X00879Y008D02*
X00882Y00803D01*
X0088975Y0081075D02*
Y00814D01*
X00864Y008D02*
X00879D01*
X00728Y00801D02*
X00729Y008D01*
X0075D01*
X0076175Y0081175D01*
Y00814D01*
X0062175Y0080575D02*
Y00812D01*
X00615Y00799D02*
X0062175Y0080575D01*
X00598Y00799D02*
X00615D01*
X00487Y00801D02*
X0049375Y0080775D01*
X00486Y008D02*
X00487Y00801D01*
X0049375Y0080775D02*
Y00814D01*
X0047Y008D02*
X00486D01*
X00998Y00154D02*
Y001855D01*
Y00154D02*
X0101Y00142D01*
X00998Y001855D02*
X01019Y002065D01*
X0095393Y00201D02*
X0096872Y0021579D01*
X00944Y00201D02*
X0095393D01*
X00922Y00179D02*
X00944Y00201D01*
X00922Y001197D02*
Y00179D01*
Y001197D02*
X009322Y001095D01*
X00913Y0018547D02*
X0094332Y0021579D01*
X00989Y00199D02*
X0099412Y0020412D01*
X0106Y0015D02*
Y0020071D01*
X0104492Y0021579D02*
X0106Y0020071D01*
X01185Y0004D02*
X01197D01*
X01175Y0011D02*
X01185Y001D01*
Y00075D02*
Y001D01*
X01155Y0004714D02*
X0116214Y0004D01*
X01155Y0004714D02*
Y00075D01*
X00865Y001077D02*
Y00133D01*
Y001077D02*
X008652Y001075D01*
X0133911Y0051014D02*
X01349D01*
X0132398Y0052527D02*
X0133911Y0051014D01*
X0132398Y0052527D02*
Y0053994D01*
X0035075Y00799D02*
X0036475Y00813D01*
X00285Y0082186D02*
X0028564Y008225D01*
X0030675D01*
X0026425Y008025D02*
X0026564D01*
X00285Y0082186D01*
X00218Y008D02*
X0023375D01*
X0131Y0094D02*
Y00945D01*
Y0092D02*
Y0094D01*
X0021025Y008D02*
X00218D01*
X0019925Y00811D02*
X0021025Y008D01*
X0014064Y008035D02*
X00158Y0082086D01*
X0013525Y008035D02*
X0014064D01*
X0066Y00914D02*
Y0094D01*
X00532Y00915D02*
X00535Y00918D01*
Y0094D01*
X0041Y00916D02*
Y0094D01*
X0028Y00916D02*
X0028Y00916D01*
Y0094D01*
X00799Y00914D02*
X008Y00915D01*
Y0094D01*
X00924Y00913D02*
X00925Y00914D01*
Y0094D01*
X01048Y00913D02*
X0105Y00915D01*
Y0094D01*
X0117Y00916D02*
X01172Y00914D01*
X0117Y00916D02*
Y0094D01*
X01241Y0082486D02*
X01253Y0083686D01*
Y00866D01*
X01235Y00884D02*
X01253Y00866D01*
X0123Y00884D02*
X01235D01*
X0135025Y0081D02*
X0136225Y00798D01*
X0137D01*
X009322Y001075D02*
Y001095D01*
X010622Y001075D02*
Y001238D01*
X01044Y00142D02*
X010622Y001238D01*
X0101Y00142D02*
X01044D01*
X00555Y00305D02*
X00624D01*
X00828Y00349D02*
Y0037D01*
X0101025Y00301D02*
X0102211Y0028914D01*
X01032D01*
X0101903Y0056411D02*
X01032Y0055114D01*
X0100617Y0056411D02*
X0101903D01*
X01003Y00624D02*
X01032Y00595D01*
X01003Y00624D02*
Y00645D01*
X01012Y00669D02*
X0104025D01*
X01003Y00645D02*
X010035Y006455D01*
Y006605D01*
X01012Y00669D01*
X0099412Y0020412D02*
Y0021579D01*
X01019Y002065D02*
Y0021527D01*
X00624Y0050614D02*
X0064983D01*
X011247Y001075D02*
X011252Y00107D01*
X008652Y001075D02*
X008652Y001075D01*
X009322Y001075D02*
X009332Y001085D01*
X01019Y0021527D02*
X0101952Y0021579D01*
X00828Y0032614D02*
X0083485D01*
X0085376Y0030723D01*
X0082514Y00285D02*
X00828Y0028214D01*
X0082831Y0028183D01*
X0085376D01*
X0065Y0028214D02*
X0065031Y0028183D01*
X00624Y0028214D02*
X0065D01*
X00624Y00349D02*
Y0037D01*
X00611Y0038D02*
X00621Y0037D01*
X00611Y0038D02*
Y00411D01*
X00602Y0042D02*
X00611Y00411D01*
X00621Y0037D02*
X00624D01*
X0040266Y0056334D02*
X0042086Y0054514D01*
X0039598Y0056334D02*
X0040266D01*
X004429Y0050114D02*
X0044838Y0050662D01*
X00422Y0050114D02*
X004429D01*
X0042086Y0054514D02*
X00422D01*
X0043898Y0053202D02*
X0044838D01*
X0042586Y0054514D02*
X0043898Y0053202D01*
X00422Y0054514D02*
X0042586D01*
X00409Y0034614D02*
X00422Y0033314D01*
X00409Y0034614D02*
Y0035132D01*
X0039598Y0036434D02*
X00409Y0035132D01*
X00422Y0033314D02*
X0042686D01*
X0044838Y0031162D01*
Y0030723D02*
Y0031162D01*
X00422Y00356D02*
Y00378D01*
Y0028914D02*
X0042931Y0028183D01*
X0044838D01*
X0042114Y0029D02*
X00422Y0028914D01*
X01032D02*
X0103931Y0028183D01*
X0105721D01*
X01349Y0032814D02*
X01354D01*
X0137491Y0030723D01*
X013726Y0028414D02*
X0137491Y0028183D01*
X01349Y0028414D02*
X013726D01*
X01349Y0055414D02*
X0135253D01*
X0137465Y0053202D01*
X0132398Y0056534D02*
X0133366D01*
X0134486Y0055414D01*
X01349D01*
X0135252Y0050662D02*
X0137465D01*
X01349Y0051014D02*
X0135252Y0050662D01*
X01032Y0055114D02*
X0103809D01*
X0105721Y0053202D01*
X0105669Y0050714D02*
X0105721Y0050662D01*
X01032Y0050714D02*
X0105669D01*
X0082486Y0055514D02*
X00828D01*
X0081466Y0056534D02*
X0082486Y0055514D01*
X0079998Y0056534D02*
X0081466D01*
X00828Y0055514D02*
X0083064D01*
X0085376Y0053202D01*
X0062314Y00552D02*
X00624Y0055114D01*
X00615Y00552D02*
X0062314D01*
X0060266Y0056434D02*
X00615Y00552D01*
X0059798Y0056434D02*
X0060266D01*
X00624Y0055114D02*
X0063119D01*
X0065031Y0053202D01*
X0064983Y0050614D02*
X0065031Y0050662D01*
X0063Y00633D02*
X0065031Y0061269D01*
X0060486Y00633D02*
X0063D01*
X0065031Y0060822D02*
Y0061269D01*
X0060086Y00629D02*
X0060486Y00633D01*
X0039598Y0058874D02*
X00396Y0058876D01*
X0103125Y008025D02*
X0103464D01*
X01053Y0082086D01*
X0131Y0094D02*
X013227D01*
X013354D01*
X0117D02*
X011827D01*
X011954D01*
X0105D02*
X010627D01*
X010754D01*
X00925D02*
X009377D01*
X009504D01*
X008D02*
X008127D01*
X008254D01*
X0066D02*
X006727D01*
X006854D01*
X00535D02*
X005477D01*
X005604D01*
X0041D02*
X004227D01*
X004354D01*
X0028D02*
X002927D01*
X003054D01*
X0015D02*
X001627D01*
X01241Y00819D02*
Y0082486D01*
X0121825Y0081D02*
X0126175D01*
X00345Y00799D02*
X00346D01*
X0035075D01*
X00595D02*
X00598D01*
X00725Y00801D02*
X00728D01*
X00991Y00799D02*
X00994Y00796D01*
X01197Y0004D02*
X01202Y00045D01*
X01198Y00111D02*
X01202Y00107D01*
X01009Y00422D02*
Y00436D01*
X00911Y0041383D02*
X00916Y0040883D01*
X00983Y00665D02*
X01003Y00645D01*
X00971Y00665D02*
X00983D01*
X01384Y00224D02*
X014055Y002455D01*
X0128579Y0021579D02*
X01294Y00224D01*
X01384D01*
X0109572Y0021579D02*
X0128579D01*
X0096171Y0026024D02*
X0097776D01*
X0100617Y0051783D02*
Y0053871D01*
Y0051783D02*
X0101686Y0050714D01*
X01032D01*
X00991Y00454D02*
X01009Y00436D01*
X0097776Y0026024D02*
X01006Y00232D01*
X0101632Y0026024D02*
X0102676D01*
X01006Y00232D02*
X01074D01*
X0102676Y0026024D02*
X01045Y00242D01*
X0109359Y0026659D02*
X0112112D01*
X01045Y00242D02*
X01069D01*
X0109359Y0026659D01*
X01074Y00232D02*
X01086Y00244D01*
X0123573D01*
X0124816Y0025643D01*
X0075Y00538D02*
X00766Y00522D01*
X00808D01*
X0082Y00534D01*
X00911Y0041383D02*
Y00446D01*
X00919Y00454D01*
X00991D01*
X002405Y004035D02*
Y0041675D01*
X002285Y003935D02*
X0023414Y0038786D01*
Y00357D02*
Y0038786D01*
X00865Y00133D02*
X0087Y00138D01*
X00904D01*
X00913Y00147D01*
Y0018547D01*
X0068486Y00183D02*
X007Y0016786D01*
X00557Y0016886D02*
X0057114Y00183D01*
X00617D01*
X0068486D01*
X00989Y00146D02*
Y00199D01*
Y00146D02*
X009972Y001378D01*
Y001075D02*
Y001078D01*
Y001378D01*
Y001078D02*
X009975Y001075D01*
X00844Y00144D02*
Y0014614D01*
Y00144D02*
X00848Y0014D01*
Y0009387D02*
Y0014D01*
X008352Y0008107D02*
X00848Y0009387D01*
X008352Y000725D02*
Y0008107D01*
X00467Y00023D02*
Y00142D01*
X00452Y00008D02*
X00467Y00023D01*
X0038694Y00008D02*
X00452D01*
X0036994Y00025D02*
X0038694Y00008D01*
X00467Y00142D02*
X00473Y00148D01*
X00476Y00134D02*
X00484Y00142D01*
X0116214Y0002814D02*
Y0004D01*
X00476Y00032D02*
Y00134D01*
X0053819Y0021019D02*
Y0021579D01*
X00526Y00198D02*
X0053819Y0021019D01*
X00473Y00148D02*
Y00196D01*
X0049279Y0021579D01*
X0051279D01*
X00484Y00142D02*
Y00187D01*
X00495Y00198D01*
X00526D01*
X005274Y001529D02*
Y00165D01*
Y001529D02*
X005343Y00146D01*
X00557D01*
X0055Y0031D02*
X00555Y00305D01*
X01065Y0069375D02*
Y00705D01*
X01021Y00733D02*
X01037D01*
X0023375Y008D02*
X0024575Y00812D01*
X00408Y00914D02*
X0041Y00916D01*
D42*
X01093Y00322D02*
X01101Y0033D01*
X01093Y0029222D02*
Y00322D01*
X0105721Y0025643D02*
X01093Y0029222D01*
X01152Y00148D02*
X01184D01*
X01137Y00163D02*
X01152Y00148D01*
X01134Y00163D02*
X01137D01*
X006865Y006385D02*
Y0067017D01*
X0071472Y0069839D01*
X00676Y00643D02*
Y00673D01*
X00665Y00684D02*
X00676Y00673D01*
X0064169Y00684D02*
X00665D01*
X00662Y00675D02*
X00667Y0067D01*
Y0065031D02*
Y0067D01*
X0065031Y0063362D02*
X00667Y0065031D01*
X0062127Y00675D02*
X00662D01*
X0063852Y0068717D02*
Y0069839D01*
Y0068717D02*
X0064169Y00684D01*
X00665Y0042D02*
X00672Y00427D01*
X0059788Y0069839D02*
X0062127Y00675D01*
X00158Y00798D02*
X00184Y00772D01*
X0057248Y0069839D02*
X0061185Y0065902D01*
X0065031D01*
X01055Y00735D02*
X01083Y00707D01*
Y00664D02*
Y00707D01*
Y00664D02*
X011Y00647D01*
Y00578D02*
Y00647D01*
X010855Y00574D02*
Y006425D01*
X01069Y00659D02*
X010855Y006425D01*
X0105723Y00659D02*
X01069D01*
X00427Y00747D02*
X01121D01*
X00435Y00754D02*
X0118875D01*
X00443Y00761D02*
X01193D01*
X0056475Y0076825D02*
X0119675D01*
X00685Y00775D02*
X01201D01*
X0089252Y0069839D02*
Y0071248D01*
X00889Y00716D02*
X0089252Y0071248D01*
X0087Y00716D02*
X00889D01*
X008626Y007234D02*
X0087Y00716D01*
X008626Y007234D02*
Y00732D01*
X013036D02*
X0131Y007256D01*
Y00699D02*
Y007256D01*
X0128Y0072025D02*
Y00746D01*
X01268Y00758D02*
X0128Y00746D01*
X0123Y00758D02*
X01268D01*
X01195Y0063525D02*
X0128Y0072025D01*
X00969Y00792D02*
X00971Y00794D01*
X00935Y00792D02*
X00969D01*
X0082Y00783D02*
X01205D01*
X00803Y008D02*
X0082Y00783D01*
X01121Y00747D02*
X01162Y00706D01*
X01364Y00741D02*
X01368D01*
X01307Y00798D02*
X01364Y00741D01*
X01205Y00783D02*
X0123Y00758D01*
X01233Y00767D02*
X01323D01*
X01209Y00791D02*
X01233Y00767D01*
X01183Y00791D02*
X01209D01*
X01227Y00749D02*
X01263D01*
X01201Y00775D02*
X01227Y00749D01*
X01323Y00767D02*
X0139375Y0069625D01*
X01263Y00749D02*
X01269Y00743D01*
Y00724D02*
Y00743D01*
X0139375Y0024875D02*
Y0069625D01*
X0135948Y00241D02*
X0137491Y0025643D01*
X00305Y00779D02*
X0041D01*
X00285Y00799D02*
X00305Y00779D01*
X0041D02*
X00435Y00754D01*
X0105721Y0065902D02*
X0105723Y00659D01*
X00714Y00153D02*
X007302Y001368D01*
X00773Y00149D02*
Y00182D01*
Y00149D02*
X007972Y001248D01*
X0108675Y00559D02*
X0113413D01*
X010855Y00574D02*
X010935Y00566D01*
X0111573D01*
X0109374Y0054599D02*
X0112112D01*
X010775Y0052975D02*
X0109374Y0054599D01*
X010775Y0050151D02*
Y0052975D01*
X0105721Y0048122D02*
X010775Y0050151D01*
Y0035775D02*
Y0040225D01*
X0107092Y0040883D02*
X010775Y0040225D01*
X0105721Y0040883D02*
X0107092D01*
X010775Y0035775D02*
X0109246Y0034279D01*
X0112112D01*
X0105721Y0043423D02*
X0108452D01*
X007972Y001075D02*
Y001248D01*
X0034342Y0040883D02*
X0034725Y00405D01*
X01101Y0033D02*
X0113373D01*
X01195Y00504D02*
Y0063525D01*
X003915Y0051725D02*
X0041525D01*
X003835Y0052525D02*
X003915Y0051725D01*
X003835Y0052525D02*
Y006075D01*
X0079Y0039684D02*
Y004165D01*
X0078994Y0032606D02*
Y0039678D01*
Y0032606D02*
X00811Y00305D01*
X0078994Y0039678D02*
X0079Y0039684D01*
X00811Y00305D02*
X00828D01*
X00806Y0042D02*
X008155Y004105D01*
Y003825D02*
Y004105D01*
Y003825D02*
X00828Y0037D01*
X00409Y00391D02*
X00422Y00378D01*
X00409Y00391D02*
Y004115D01*
X00399Y004215D02*
X00409Y004115D01*
X00399Y004215D02*
Y00422D01*
X0034725Y00329D02*
Y00405D01*
Y00329D02*
X0036425Y00312D01*
X00422D01*
X00383Y00608D02*
X003835Y006075D01*
X0041525Y0051725D02*
X00422Y00524D01*
X0131125Y0058175D02*
X01315Y00578D01*
X0131125Y0058175D02*
Y0064825D01*
Y0055525D02*
Y0058175D01*
Y0064825D02*
X01312Y00649D01*
X0131125Y0055525D02*
X01314Y005525D01*
X013295D01*
X01349Y00533D01*
X01315Y00578D02*
X01348D01*
X01349Y00577D01*
X010325Y001729D02*
Y002D01*
Y001729D02*
X010404Y00165D01*
X007972Y001075D02*
X007972Y001075D01*
X0102553Y00679D02*
X0104492Y0069839D01*
X00981Y00679D02*
X0102553D01*
X0085376Y0043423D02*
X00876Y0041199D01*
X0113333Y00355D02*
X0114652Y0036819D01*
X0112112Y0041899D02*
X0113413Y00432D01*
X0134849Y0046065D02*
X0137491Y0043423D01*
X0133274Y00451D02*
X0137491Y0040883D01*
X0114652Y0054599D02*
X0115599D01*
X0112112Y0049519D02*
X0112519D01*
X0115599Y0054599D02*
X01162Y00552D01*
X0115823Y0050723D02*
X0117Y00519D01*
X0112112Y0044439D02*
X0113348Y0045675D01*
X01196Y00722D02*
Y0074675D01*
X00662Y00798D02*
X00685Y00775D01*
X01203Y00719D02*
Y00751D01*
X0121Y00715D02*
Y00755D01*
X01176Y00797D02*
X01177D01*
X01183Y00791D01*
X0117Y00696D02*
X01196Y00722D01*
X01178Y00694D02*
X01203Y00719D01*
X01093Y00792D02*
X01095Y00794D01*
X01059Y00792D02*
X01093D01*
X01053Y00798D02*
X01059Y00792D01*
X00928Y00799D02*
X00935Y00792D01*
X0113373Y0033D02*
X0114652Y0034279D01*
X0113413Y00559D02*
X0114652Y0057139D01*
X0112519Y0049519D02*
X0113723Y0050723D01*
X0117Y00519D02*
Y00696D01*
X0113723Y0050723D02*
X0115823D01*
X01104Y00355D02*
X0113333D01*
X0112112Y0039359D02*
X0113371Y00381D01*
X00405Y00799D02*
X00443Y00761D01*
X00534Y00799D02*
X0056475Y0076825D01*
X0118875Y00754D02*
X01196Y0074675D01*
X01193Y00761D02*
X01203Y00751D01*
X0119675Y0076825D02*
X0121Y00755D01*
X01246Y00701D02*
X01269Y00724D01*
X01215Y00701D02*
X01246D01*
X0113413Y00432D02*
X01174D01*
X0120265Y0046065D01*
X01187Y00692D02*
X0121Y00715D01*
X01178Y005D02*
Y00694D01*
X0111573Y00566D02*
X0112112Y0057139D01*
X007302Y00108D02*
Y001368D01*
X01195Y00504D02*
X012Y00499D01*
X00184Y00772D02*
X00402D01*
X00427Y00747D01*
X01075Y0057075D02*
X0108675Y00559D01*
X01075Y0057075D02*
Y0061583D01*
X0105721Y0063362D02*
X01075Y0061583D01*
X01162Y00552D02*
Y00706D01*
X00365Y00657D02*
X00395D01*
X0035Y00642D02*
Y00643D01*
X0114652Y0041899D02*
X0118299D01*
X01215Y00451D01*
X0133274D01*
X0120265Y0046065D02*
X0134849D01*
X0112112Y0046979D02*
X0113383Y004825D01*
X011605D01*
X01178Y005D01*
X0113348Y0045675D02*
X0116275D01*
X01187Y00481D01*
Y00692D01*
X01306Y00254D02*
Y00272D01*
X01273Y00305D02*
X01306Y00272D01*
X01319Y00241D02*
X0135948D01*
X01306Y00254D02*
X01319Y00241D01*
X01265Y00396D02*
X01273Y00388D01*
X0108452Y0043423D02*
X010945Y0042425D01*
Y003645D02*
X01104Y00355D01*
X010945Y003645D02*
Y0042425D01*
X01181Y00396D02*
X01265D01*
X0113371Y00381D02*
X01166D01*
X01181Y00396D01*
X01273Y00305D02*
Y00388D01*
X01378Y00233D02*
X0139375Y0024875D01*
X01271Y00233D02*
X01378D01*
X0126583Y0022783D02*
X01271Y00233D01*
X0107032Y0021579D02*
X0108236Y0022783D01*
X0126583D01*
X00665Y00632D02*
X00676Y00643D01*
X00672Y00624D02*
X006865Y006385D01*
X0065031Y0048122D02*
X00665Y0049591D01*
Y00632D01*
X00672Y00427D02*
Y00624D01*
X00683Y00412D02*
Y00498D01*
X00673Y00402D02*
X00683Y00412D01*
Y00498D02*
X00703Y00518D01*
Y00668D01*
X007865Y0042D02*
X0079Y004165D01*
X00902Y0027D02*
X00912D01*
X00876Y00296D02*
X00902Y0027D01*
X00876Y00296D02*
Y0041199D01*
X0035Y00642D02*
X00365Y00657D01*
X00281Y0041D02*
Y0048D01*
X00257Y00357D02*
Y00386D01*
X00281Y0041D01*
X0025Y0043525D02*
Y00449D01*
X00714Y00153D02*
Y00178D01*
X011904Y001544D02*
Y00165D01*
X01184Y00148D02*
X011904Y001544D01*
X00673Y00208D02*
Y00402D01*
X00665Y00206D02*
Y0042D01*
X00755Y002D02*
X00773Y00182D01*
X00673Y00208D02*
X00681Y002D01*
X00755D01*
X00665Y00206D02*
X00679Y00192D01*
X007D01*
X00714Y00178D01*
X00941Y00139D02*
X009427D01*
X009654Y001617D01*
Y00165D01*
X008164D02*
X008204Y00169D01*
X00844D01*
D43*
X01196Y00128D02*
X01208D01*
X01215Y00121D01*
Y00106D02*
Y00121D01*
X0113614Y0014D02*
X01175D01*
X01232D01*
X01175Y00125D02*
Y0014D01*
Y0011D02*
Y00125D01*
X01232Y0014D02*
X01241Y00131D01*
Y00106D02*
Y00131D01*
X01277Y00127D02*
X01295D01*
X01266Y00116D02*
X01277Y00127D01*
X01266Y0009D02*
Y00116D01*
X01265Y00045D02*
X01265Y00045D01*
X01254Y00045D02*
X01265D01*
X01259Y00083D02*
X01266Y0009D01*
X01243Y00083D02*
X01259D01*
X01274Y00109D02*
X01281Y00116D01*
X01274Y00084D02*
Y00109D01*
X012475Y000575D02*
X01274Y00084D01*
X01281Y00116D02*
X01295D01*
X01254Y00123D02*
X01269Y00138D01*
X01254Y00106D02*
Y00123D01*
X01269Y00138D02*
X01295D01*
X01228Y00098D02*
X01243Y00083D01*
X01228Y00098D02*
Y00106D01*
X01282Y00043D02*
Y00091D01*
X01285Y00094D01*
X01274Y00148D02*
X01275Y00149D01*
X01295D01*
X012475Y001545D02*
X01251Y00158D01*
X012475Y00106D02*
Y001545D01*
X01185Y0003D02*
Y0004D01*
Y0003D02*
X01194Y00021D01*
X0126D01*
X01282Y00043D01*
X01249Y00028D02*
X01254Y00033D01*
X01235Y00028D02*
X01249D01*
X01285Y00094D02*
X01295D01*
X008616Y00733D02*
X008626Y00732D01*
X00836Y00733D02*
X008616D01*
X005378Y00718D02*
X0079671D01*
X00493Y00712D02*
X0077731D01*
X005238Y00732D02*
X005378Y00718D01*
X00473Y00732D02*
X00493Y00712D01*
X01086Y00837D02*
X0109871Y0084971D01*
X01086Y00819D02*
Y00837D01*
X0107475Y0080775D02*
X01086Y00819D01*
X00961Y00836D02*
X0097571Y0085071D01*
X00961Y00819D02*
Y00836D01*
X0095175Y0080975D02*
X00961Y00819D01*
X01254Y00033D02*
Y00045D01*
X01228Y00074D02*
X01229Y00075D01*
X01228Y00066D02*
Y00074D01*
X012215Y00045D02*
Y000595D01*
X01215Y00066D02*
X012215Y000595D01*
X01215Y00066D02*
Y00084D01*
X01228Y00106D02*
X012345D01*
X01241Y00066D02*
Y00068D01*
Y00066D02*
X01241Y00066D01*
Y00045D02*
Y00066D01*
X01228Y00045D02*
Y00066D01*
X01228Y00066D02*
X01228Y00066D01*
X012475Y00045D02*
Y000575D01*
X012345Y000285D02*
X01235Y00028D01*
X012345Y000285D02*
Y00045D01*
X012215Y00106D02*
X01228D01*
X01215D02*
X012215D01*
X010875Y005065D02*
X0110159Y0052059D01*
X010875Y004825D02*
Y005065D01*
X0110159Y0052059D02*
X0112112D01*
X010985Y005025D02*
X01104Y00508D01*
X010985Y004785D02*
Y005025D01*
X01104Y00508D02*
X01127D01*
X0062486Y0042D02*
X00636Y0040886D01*
Y0039774D02*
Y0040886D01*
Y0039774D02*
X0065031Y0038343D01*
X0134736Y0062086D02*
X01349D01*
X0132398Y0059748D02*
X0134736Y0062086D01*
X0132398Y0059074D02*
Y0059748D01*
X00209Y00835D02*
Y0085D01*
X0018075Y0080675D02*
X00209Y00835D01*
X0018075Y008015D02*
Y0080675D01*
X00462Y00841D02*
Y0084971D01*
X0042875Y0080775D02*
X00462Y00841D01*
X0042875Y008025D02*
Y0080775D01*
X0055675Y008025D02*
Y0080775D01*
X00586Y00837D01*
Y0084971D01*
X00716Y00837D02*
Y0085071D01*
X0068575Y0080675D02*
X00716Y00837D01*
X0068575Y008015D02*
Y0080675D01*
X0123Y00836D02*
Y0084971D01*
X0119975Y0080575D02*
X0123Y00836D01*
X0119975Y008005D02*
Y0080575D01*
X01359Y00833D02*
Y0085D01*
X0133175Y0080575D02*
X01359Y00833D01*
X0133175Y008005D02*
Y0080575D01*
X00815Y00337D02*
X0082586Y0032614D01*
X00815Y00337D02*
Y0035332D01*
X0080198Y0036634D02*
X00815Y0035332D01*
X013135Y0037675D02*
X0134525D01*
X013115Y0037875D02*
X013135Y0037675D01*
X013115Y0037875D02*
Y004115D01*
X0131125Y00323D02*
Y0041125D01*
X013115Y004115D01*
X01318Y00418D01*
X0131125Y00323D02*
X0132725Y00307D01*
X01349D01*
X0132398Y0038974D02*
X013301Y0039586D01*
X01349D01*
X0134525Y0037675D02*
X01349Y00373D01*
X009935Y0032925D02*
X0101075Y00312D01*
X009935Y0032925D02*
Y0037425D01*
X0101075Y00312D02*
X01032D01*
X009975Y0037825D02*
X0103175D01*
X01019Y00391D02*
X0103175Y0037825D01*
X01032Y00378D01*
X009935Y0037425D02*
X009975Y0037825D01*
X01032Y0053D02*
Y005315D01*
X0101225Y0055125D02*
X01032Y005315D01*
X009985Y0055125D02*
X0101225D01*
X009935Y0055625D02*
X009985Y0055125D01*
X009935Y0055625D02*
Y0057275D01*
X009975Y0057675D01*
X0102925D01*
X01032Y00574D01*
X01019Y00391D02*
Y00412D01*
X01009Y00422D02*
X01019Y00412D01*
X01044Y004D02*
Y00417D01*
X01039Y00422D02*
X01044Y00417D01*
X0103186Y00422D02*
X01039D01*
X00435Y004D02*
Y0040886D01*
X0042186Y00422D02*
X00435Y0040886D01*
X01032Y0033244D02*
X0105721Y0030723D01*
X01044Y004D02*
X0105721Y0038679D01*
X01044Y0034584D02*
Y0038886D01*
Y0034584D02*
X0105721Y0033263D01*
X01032Y0040086D02*
X01044Y0038886D01*
X0084Y0034639D02*
X0085376Y0033263D01*
X0084Y0034639D02*
Y0038086D01*
X00828Y0039286D02*
X0084Y0038086D01*
X0085257Y0038343D02*
X0085376D01*
X00841Y00395D02*
X0085257Y0038343D01*
X00841Y00395D02*
Y0040786D01*
X0082886Y0042D02*
X00841Y0040786D01*
X0082586Y0032614D02*
X00828D01*
X00612Y0033814D02*
X00624Y0032614D01*
X00612Y0033814D02*
Y0035032D01*
X0059798Y0036434D02*
X00612Y0035032D01*
X00624Y0032614D02*
X006314D01*
X0065031Y0030723D01*
X00624Y00391D02*
Y0039286D01*
Y00391D02*
X00637Y00378D01*
Y0034594D02*
Y00378D01*
Y0034594D02*
X0065031Y0033263D01*
X0043568Y0057012D02*
Y0060932D01*
Y0057012D02*
X0044838Y0055742D01*
Y0038343D02*
Y0038662D01*
X00435Y004D02*
X0044838Y0038662D01*
X00434Y0034701D02*
Y00391D01*
X00425Y004D02*
X00434Y00391D01*
Y0034701D02*
X0044838Y0033263D01*
X0042286Y004D02*
X00425D01*
X00422Y0040086D02*
X0042286Y004D01*
X0105721Y0038343D02*
Y0038679D01*
X01032Y0033244D02*
Y0033314D01*
X0103086D02*
X01032D01*
X01019Y00345D02*
X0103086Y0033314D01*
X01019Y00345D02*
Y0035232D01*
X0100598Y0036534D02*
X01019Y0035232D01*
X0136Y00401D02*
X0137491Y0038609D01*
Y0038343D02*
Y0038609D01*
X01349Y0039586D02*
X01361Y0038386D01*
Y0034654D02*
Y0038386D01*
Y0034654D02*
X0137491Y0033263D01*
X0134886Y0032814D02*
X01349D01*
X01337Y0034D02*
X0134886Y0032814D01*
X01337Y0034D02*
Y0035132D01*
X0132398Y0036434D02*
X01337Y0035132D01*
X0133486Y00649D02*
X01353D01*
X01361Y00641D01*
Y0062187D02*
Y00641D01*
Y0062187D02*
X0137465Y0060822D01*
X01361Y0057107D02*
Y0060886D01*
X01349Y0062086D02*
X01361Y0060886D01*
Y0057107D02*
X0137465Y0055742D01*
X0105721Y0060822D02*
Y0061379D01*
X01032Y0061786D02*
X01045Y0060486D01*
Y0057195D02*
Y0060486D01*
Y0057195D02*
X0105721Y0055974D01*
Y0055742D02*
Y0055974D01*
X00833Y00645D02*
X0084Y00638D01*
Y00627D02*
Y00638D01*
Y00627D02*
X00854Y00613D01*
X0079886Y00645D02*
X00833D01*
X00854Y00612D02*
Y00613D01*
X0085376Y0061176D02*
X00854Y00612D01*
X0085376Y0060822D02*
Y0061176D01*
X0084Y0057118D02*
Y0061086D01*
X00828Y0062286D02*
X0084Y0061086D01*
Y0057118D02*
X0085376Y0055742D01*
X00624Y0061786D02*
X00637Y0060486D01*
Y0057073D02*
Y0060486D01*
Y0057073D02*
X0065031Y0055742D01*
X0039686Y00629D02*
X004276D01*
X0044838Y0060822D01*
X0043214Y0061286D02*
X0043568Y0060932D01*
X00422Y0061286D02*
X0043214D01*
X0077731Y00712D02*
X0079092Y0069839D01*
X0079671Y00718D02*
X0081632Y0069839D01*
X01026Y00645D02*
X0105721Y0061379D01*
X0102586Y00645D02*
X01026D01*
X0134086Y00418D02*
X01352D01*
X0136Y0041D01*
Y00401D02*
Y0041D01*
X0107475Y008025D02*
Y0080775D01*
X01127Y00508D02*
X0113959Y0052059D01*
X0114652D01*
X0030675Y008035D02*
Y0080975D01*
X00336Y00839D01*
Y0084971D01*
X0082575Y008045D02*
Y0081175D01*
X00855Y00841D01*
Y0085071D01*
X0097571D02*
X00982D01*
X0095175Y008025D02*
Y0080975D01*
X0109871Y0084971D02*
X01105D01*
X01073Y00468D02*
X010875Y004825D01*
X01081Y00461D02*
X010985Y004785D01*
X00891Y00445D02*
Y00459D01*
X00896Y00429D02*
X00903Y00436D01*
Y00458D01*
X0136143Y00468D02*
X0137465Y0048122D01*
X01221Y00468D02*
X0136143D01*
X01207Y00482D02*
X01221Y00468D01*
X00903Y00458D02*
X00906Y00461D01*
X00891Y00459D02*
X009Y00468D01*
X01073D01*
X00906Y00461D02*
X01081D01*
X006714Y00165D02*
X006724Y00166D01*
X01215Y00032D02*
Y00045D01*
Y00032D02*
X01219Y00028D01*
X01235D01*
X01134Y0014214D02*
X0113614Y0014D01*
D44*
X01332Y00055D02*
X013324Y000554D01*
Y0007225D01*
X013862Y00195D02*
Y00205D01*
Y0012605D02*
Y00195D01*
X013324Y0007225D02*
X013862Y0012605D01*
X013065Y0007225D02*
X013324D01*
X00885Y0065214D02*
X0090914D01*
X0091602Y0065902D01*
X0093047D01*
X00417Y00171D02*
X00421D01*
X00389Y00207D02*
X00405D01*
X00406D01*
X00389Y00171D02*
X00417D01*
D45*
X00449D02*
X00453Y00167D01*
X00445Y0015D02*
X00453Y00158D01*
X00358Y00162D02*
Y00172D01*
X00177Y00475D02*
X0019086D01*
X002Y0048414D01*
X00285Y0072736D02*
X003615D01*
X0087Y00661D02*
Y00674D01*
Y00661D02*
X0087886Y0065214D01*
X00836Y00682D02*
X00862D01*
X00869Y00675D01*
X0087886Y0065214D02*
X00885D01*
X0044548Y0069839D02*
Y0071552D01*
X0043364Y0072736D02*
X0044548Y0071552D01*
X0039805Y0047995D02*
X0040672D01*
X0037058Y0050742D02*
X0039805Y0047995D01*
X0037058Y0050742D02*
Y0053794D01*
X00116Y00791D02*
X0013Y00777D01*
X00153D01*
X0016935Y0076065D01*
Y0075188D02*
Y0076065D01*
X0017Y00447D02*
X00177Y0044D01*
X00141Y00447D02*
X0017D01*
X00177Y0044D02*
Y00475D01*
X00224Y00503D02*
Y0050529D01*
X0020514Y0048414D02*
X00224Y00503D01*
X002Y0048414D02*
X0020514D01*
X00224Y0050529D02*
X00249D01*
X0029815Y00666D02*
Y0068635D01*
Y006501D02*
Y00666D01*
X00305Y006795D02*
X00399D01*
X006013Y004797D02*
X0061119D01*
X0057438Y0050662D02*
X006013Y004797D01*
X0052356Y0050662D02*
X0057438D01*
X00163Y00923D02*
Y00927D01*
X00113Y00898D02*
X00127Y00884D01*
X00113Y00898D02*
Y00915D01*
X00836Y00682D02*
Y0071014D01*
X00821Y00667D02*
X00836Y00682D01*
X00755Y00667D02*
X00821D01*
X0074702Y0065902D02*
X00755Y00667D01*
X0072701Y0065902D02*
X0074702D01*
X0124816D02*
X01274D01*
X0128714Y0067216D01*
Y00699D01*
X01329Y00732D02*
Y00733D01*
Y00679D02*
Y00732D01*
X00346Y00799D02*
X00353Y00792D01*
X00363D01*
X00328Y00794D02*
Y0080925D01*
X0032612Y0081113D02*
X00328Y0080925D01*
X00116Y00791D02*
X0011675Y0079175D01*
Y00811D01*
X01059Y00913D02*
X01068Y00922D01*
X01048Y00913D02*
X01059D01*
X00935Y00913D02*
X00944Y00922D01*
X00924Y00913D02*
X00935D01*
X0081Y00914D02*
X00819Y00923D01*
X00799Y00914D02*
X0081D01*
X00671D02*
X00679Y00922D01*
X0066Y00914D02*
X00671D01*
X00546Y00915D02*
X00554Y00923D01*
X00532Y00915D02*
X00546D01*
X0042Y00914D02*
X00429Y00923D01*
X0041Y00914D02*
X0042D01*
X00292Y00916D02*
X00299Y00923D01*
X0028Y00916D02*
X00292D01*
X00155Y00915D02*
X00163Y00923D01*
X00147Y00915D02*
X00155D01*
X01181Y00914D02*
X01189Y00922D01*
X01172Y00914D02*
X01181D01*
X00389Y00171D02*
Y00172D01*
X01312Y00662D02*
X01329Y00679D01*
X01312Y00649D02*
Y00662D01*
X00565Y00072D02*
Y00073D01*
Y000396D02*
Y00072D01*
X0038229Y00884D02*
X00449D01*
X00374Y0089229D02*
Y00914D01*
X00743Y00839D02*
Y00874D01*
X00732Y00885D02*
X00743Y00874D01*
X00716Y00885D02*
X00732D01*
X0089971D02*
X00982D01*
X0077329D02*
X00855D01*
X00512Y00827D02*
Y00831D01*
X00506Y00837D02*
X00512Y00831D01*
X00506Y00837D02*
Y0085D01*
X01274Y0088758D02*
Y00913D01*
Y0088758D02*
X01277Y0088458D01*
X00626Y0089229D02*
X00634Y0088429D01*
X00626Y0089229D02*
Y00914D01*
X00449Y00884D02*
X00462D01*
X00699Y00885D02*
X00716D01*
X0067571D02*
X00699D01*
X00374Y0089229D02*
X00382Y0088429D01*
X00318D02*
X0033571D01*
X00296D02*
X00318D01*
X00246Y0089429D02*
X00256Y0088429D01*
X00246Y0089429D02*
Y00916D01*
X001885Y0088429D02*
X00209D01*
X00168D02*
X001885D01*
X00168Y0085D02*
X00209D01*
X0012729Y0088429D02*
X00168D01*
X00127Y00884D02*
X0012729Y0088429D01*
X00256D02*
X00296D01*
X0033571D02*
X00336Y00884D01*
X00256Y0085D02*
X00296D01*
X00382D02*
X00422D01*
X00382Y0088429D02*
X0038229Y00884D01*
X00506Y0085D02*
X00546D01*
X00498Y0089229D02*
X00506Y0088429D01*
X00498Y0089229D02*
Y00915D01*
X00506Y0088429D02*
X00546D01*
X0054629Y00884D01*
X00586D01*
X00634Y0085D02*
X00675D01*
X00634Y0088429D02*
X00675D01*
X0067571Y00885D01*
X00773Y00851D02*
X00814D01*
X00899Y0085D02*
X00941D01*
X00765Y0089329D02*
Y00914D01*
Y0089329D02*
X00773Y0088529D01*
X0077329Y00885D01*
X0089Y0089329D02*
X00899Y0088429D01*
X0089Y0089329D02*
Y00913D01*
X00899Y0088429D02*
X0089971Y00885D01*
X0110471Y0088429D02*
X01105Y00884D01*
X01065Y0088429D02*
X0110471D01*
X01025D02*
X01065D01*
X01025Y0085D02*
X01065D01*
X0115Y0085D02*
X0119D01*
X0119Y0085D01*
X01138Y0089629D02*
X0115Y0088429D01*
X01138Y0089629D02*
Y00914D01*
X01277Y00884D02*
Y0088458D01*
X0115Y0088429D02*
X0115029Y00884D01*
X01318Y0088429D02*
X01359D01*
X0127729D02*
X01318D01*
X01277Y00884D02*
X0127729Y0088429D01*
X01318Y0085D02*
X01359D01*
X004675Y006785D02*
X0051238Y0063362D01*
X0029815Y0068635D02*
X00305Y006795D01*
X0029815Y0068635D02*
Y0070435D01*
X0031463Y0063362D02*
X0032163D01*
X0029815Y006501D02*
X0031463Y0063362D01*
X0051238D02*
X0052356D01*
X0032163Y0028183D02*
X0038894D01*
X0041434Y0025643D01*
X0072701Y0048122D02*
X0072828Y0048249D01*
X0076105D01*
X0072701Y0025643D02*
X0073082Y0026024D01*
X0075851D01*
X0124816Y0048122D02*
X0124943Y0047995D01*
X0128372D01*
X007972Y00105D02*
Y00106D01*
X007972Y00106D02*
X007972Y00106D01*
X007972Y00106D02*
Y001075D01*
X0098077Y0051877D02*
Y0052D01*
X0072786Y0082386D02*
X00743Y00839D01*
X00648Y00108D02*
X00662D01*
X0115029Y00884D02*
X0123D01*
X005275Y000725D02*
Y00107D01*
X00528Y001075D01*
Y00035D02*
Y00072D01*
X005275Y000725D02*
X00528Y00072D01*
X005925Y000725D02*
Y001045D01*
X00595Y00107D01*
X00662Y00035D02*
Y000705D01*
X0066Y000725D02*
X00662Y000705D01*
Y000745D02*
Y00108D01*
X0066Y000725D02*
X00662Y000745D01*
X007975Y000725D02*
Y001072D01*
X007972Y001075D02*
X007975Y001072D01*
Y000378D02*
Y000725D01*
X007947Y00035D02*
X007975Y000378D01*
X010572Y00035D02*
Y000697D01*
X0106Y000725D01*
Y001053D01*
X010622Y001075D01*
X0109291Y0003889D02*
X010968Y00035D01*
X0103Y000368D02*
Y000725D01*
Y000368D02*
X010318Y00035D01*
X00965Y000368D02*
X009668Y00035D01*
X00965Y000368D02*
Y000725D01*
X009022Y000354D02*
Y000725D01*
X009018Y00035D02*
X009022Y000354D01*
X008352Y000371D02*
X008373Y00035D01*
X008352Y000371D02*
Y000725D01*
X007675Y000368D02*
X007693Y00035D01*
X007675Y000368D02*
Y000725D01*
X007Y000378D02*
X007028Y00035D01*
X007Y000378D02*
Y000725D01*
X0063Y000416D02*
X006366Y00035D01*
X0063Y000416D02*
Y000725D01*
X00565Y000396D02*
X005696Y00035D01*
X00255Y00531D02*
Y0054D01*
X00361Y0043423D02*
X0040672Y0047995D01*
X0032163Y0043423D02*
X00361D01*
X00255Y00531D02*
X0030478Y0048122D01*
X0032163D01*
X00399Y006795D02*
X004665D01*
X00372Y00627D02*
X00374Y00629D01*
X0032163Y0063362D02*
X0032825Y00627D01*
X00372D01*
X0133833Y0047995D02*
Y0048467D01*
X0129858Y0052442D02*
X0133833Y0048467D01*
X0129858Y0052442D02*
Y0053994D01*
X0128372Y0047995D02*
X01295Y0049123D01*
Y00494D01*
X0129858Y0030642D02*
Y0033894D01*
Y0030642D02*
X0133452Y0027048D01*
Y0026024D02*
Y0027048D01*
X0114652Y0026659D02*
X0120259D01*
X0121783Y0028183D01*
X0124816D01*
X0098077Y0050723D02*
Y0051877D01*
Y0050723D02*
X0100551Y0048249D01*
X0101632D01*
X0088922Y0048122D02*
X0093047D01*
X00871Y00463D02*
X0088922Y0048122D01*
X0074777Y00463D02*
X00871D01*
X0072955Y0048122D02*
X0074777Y00463D01*
X0072701Y0048122D02*
X0072955D01*
X0077638Y0050662D02*
X0080051Y0048249D01*
X0072701Y0050662D02*
X0077638D01*
X0080051Y0048249D02*
X0081566D01*
X0092943Y0025643D02*
X0093047D01*
X0072701D02*
X0074644Y00237D01*
X0091D01*
X0092943Y0025643D01*
X00358Y00162D02*
X0037Y0015D01*
X00445D01*
X00453Y00158D02*
Y00167D01*
X0049371Y001075D02*
Y0012129D01*
X0049Y00125D02*
X0049371Y0012129D01*
X011054Y00164D02*
X01135D01*
X00454Y00156D02*
X00458Y00152D01*
X00454Y00156D02*
Y00171D01*
X004975Y000401D02*
Y000725D01*
Y000401D02*
X005026Y00035D01*
X005925Y000725D02*
X00595Y0007D01*
Y00035D02*
Y0007D01*
X00389Y00172D02*
Y00207D01*
X0015Y0094D02*
X00163Y00927D01*
X003615Y0072736D02*
X0043364D01*
X0109291Y0003889D02*
Y000725D01*
D46*
X00244Y00306D02*
X00257Y00319D01*
X00237Y00299D02*
X00244Y00306D01*
X0023D02*
X00244D01*
X00197Y00339D02*
X0023Y00306D01*
X00257Y00319D02*
Y0032D01*
X00197Y00339D02*
Y00371D01*
X0050377Y0043423D02*
X0052356D01*
X00492Y00446D02*
X0050377Y0043423D01*
X00492Y00446D02*
Y00494D01*
X0050462Y0050662D01*
X0052356D01*
X00101Y0094D02*
X0015D01*
X0009Y00929D02*
X00101Y0094D01*
X0009Y0074487D02*
Y00929D01*
Y0074487D02*
X00106Y0072887D01*
X00195Y01025D02*
Y01052D01*
X00325Y01025D02*
Y01054D01*
X00454Y01055D02*
X00455Y01054D01*
Y01025D02*
Y01054D01*
X00704Y01053D02*
X00705Y01052D01*
Y01025D02*
Y01052D01*
X00845Y01025D02*
Y01051D01*
X0097Y01025D02*
Y01054D01*
X01095Y01025D02*
Y01051D01*
X01215Y01025D02*
Y01051D01*
X00493Y0010821D02*
X0049371Y001075D01*
X0058327Y0028183D02*
X0061019Y0025491D01*
X0098058Y0029598D02*
X0101378Y0026278D01*
X0098058Y0031258D02*
Y0033994D01*
Y0029598D02*
Y0031258D01*
X0061439Y0021579D02*
Y0025171D01*
X0058899Y0021579D02*
X0061439D01*
X0052356Y0025643D02*
X0052508Y0025491D01*
X0055658D01*
X0093047Y0025643D02*
X009579D01*
X0095924Y0025777D01*
X0052356Y0048122D02*
X0052508Y004797D01*
X0055658D01*
X012761Y0025643D02*
X0127733Y0025767D01*
X0124816Y0025643D02*
X012761D01*
X0093047Y0028183D02*
X0094983D01*
X0098058Y0031258D01*
X00169Y00688D02*
Y00706D01*
X00155Y003845D02*
X001835D01*
X00197Y00371D01*
X002133Y00105D02*
Y00115D01*
X00237Y001387D01*
X0023757Y0025643D02*
X0032163D01*
X00237Y00257D02*
X0023757Y0025643D01*
X00237Y001387D02*
Y00257D01*
Y00299D01*
X0049443Y0025643D02*
X0052356D01*
X0047Y00232D02*
X0049443Y0025643D01*
X0035343Y00232D02*
X0047D01*
X0032163Y0025643D02*
X00329D01*
X0035973D01*
X00329D02*
X0035343Y00232D01*
X0061082Y0025442D02*
X0061439Y0025171D01*
X0061019Y0025491D02*
X0061082Y0025442D01*
D47*
X001096Y003464D02*
X00155D01*
X00078Y00378D02*
X001096Y003464D01*
X00078Y00378D02*
Y0046987D01*
D48*
X002155Y00659D02*
X00232D01*
X00199D02*
X002155D01*
X00143D02*
X00162D01*
X00169Y0073D02*
X0016935Y0073035D01*
Y0075188D01*
X00177Y00509D02*
Y00591D01*
X001854Y005994D01*
X00209D01*
X00236Y00619D02*
X00256D01*
X00232Y00623D02*
X00236Y00619D01*
X00232Y00609D02*
Y00623D01*
X00224Y00471D02*
X00249D01*
X00177Y00509D02*
X00179Y00507D01*
X002D01*
X00165Y00509D02*
X00177D01*
X0014888Y0049288D02*
X00165Y00509D01*
X0014135Y0049288D02*
X0014888D01*
X0023686Y0056286D02*
X00255D01*
X002226Y005486D02*
X0023686Y0056286D01*
X00209Y005486D02*
X002226D01*
X00255Y0056286D02*
X00256Y0056386D01*
Y00585D01*
X00232Y00625D02*
Y00659D01*
X00209Y005994D02*
X002224D01*
X00232Y00609D01*
X0112112Y0069839D02*
Y0072188D01*
X01111Y00732D02*
X0112112Y0072188D01*
X01104Y00732D02*
X01111D01*
X005492D02*
X0058714D01*
X008652Y000725D02*
Y001075D01*
Y000375D02*
Y000725D01*
X01124Y000758D02*
X011252Y00077D01*
X01124Y000498D02*
Y000758D01*
X011222Y00048D02*
X01124Y000498D01*
X011222Y00035D02*
Y00048D01*
X004665Y006795D02*
X004675Y006785D01*
X0056359Y0021579D02*
Y0022866D01*
X0052356Y0040883D02*
X0054475D01*
X008627Y00035D02*
X008652Y000375D01*
X009322Y0004D02*
Y001075D01*
X009272Y00035D02*
X009322Y0004D01*
X007302Y00075D02*
Y00108D01*
X011252Y00077D02*
Y00107D01*
X009922Y00035D02*
X009972Y0004D01*
X007282Y00035D02*
X0073Y000368D01*
Y000725D01*
X004675Y00455D02*
Y006785D01*
X009972Y0004D02*
X0099748Y0007248D01*
X009975Y00075D01*
Y001075D01*
X00502Y00165D02*
Y00175D01*
X00512Y00185D01*
X00546D01*
X0056359Y0020259D01*
Y0021579D01*
X004675Y0042133D02*
X0048Y0040883D01*
X004675Y0042133D02*
Y00455D01*
X0048Y0040883D02*
X0052356D01*
X0056359Y0022866D02*
X00583Y0024807D01*
X0054475Y0040883D02*
X0055Y0040358D01*
Y0031D02*
Y0040358D01*
Y00291D02*
Y0031D01*
Y00291D02*
X00583Y00258D01*
Y0024807D02*
Y00258D01*
D49*
X0098077Y0058951D02*
Y0062423D01*
X0094598Y0065902D02*
X0098077Y0062423D01*
X0093047Y0065902D02*
X0094598D01*
X0028607Y0038343D02*
X0032163D01*
X0080651Y0026024D02*
X0081312D01*
X0077658Y0029017D02*
X0080651Y0026024D01*
X0077658Y0029017D02*
Y0031158D01*
X0074683Y0028183D02*
X0077658Y0031158D01*
X0072701Y0028183D02*
X0074683D01*
X0068993Y0030723D02*
X0072701D01*
X0068993Y0033263D02*
X0072701D01*
X0068993Y0035803D02*
X0072701D01*
X0068993Y0038343D02*
X0072701D01*
X00488Y0030723D02*
X0052356D01*
X00488Y0033263D02*
X0052356D01*
X00488Y0035803D02*
X0052356D01*
X00488Y0038343D02*
X0052356D01*
X0028607Y0030723D02*
X0032163D01*
X0028607Y0033263D02*
X0032163D01*
X0028607Y0035803D02*
X0032163D01*
X0098058Y0039074D02*
Y0041342D01*
X0089186Y0030723D02*
X0093047D01*
X0089186Y0033263D02*
X0093047D01*
X0089186Y0035803D02*
X0093047D01*
X0089186Y0038343D02*
X0093047D01*
X0121133Y0035803D02*
X0124816D01*
X0121133Y0033263D02*
X0124816D01*
X0121133Y0030723D02*
X0124816D01*
X0093047Y0050662D02*
X0096739D01*
X0096862D01*
X0098077Y0051877D01*
X0096739Y0050662D02*
X0098077Y0052D01*
Y0053871D01*
X0028607Y0053202D02*
X0032163D01*
X0028607Y0055742D02*
X0032163D01*
X0028607Y0060822D02*
X0032163D01*
X0028607Y0058282D02*
X0032163D01*
X0121133Y0060822D02*
X0124816D01*
X0121133Y0058282D02*
X0124816D01*
X0121133Y0055742D02*
X0124816D01*
X0093047Y0043423D02*
X0095977D01*
X0098058Y0041342D01*
D50*
X01396Y00808D02*
Y00809D01*
X01386Y00798D02*
X01396Y00808D01*
X0137Y00798D02*
X01386D01*
X01252Y00789D02*
X01259D01*
X01242Y00799D02*
X01252Y00789D01*
X0132Y00913D02*
X01329Y00922D01*
X01308Y00913D02*
X0132D01*
X00399Y00435D02*
X00419Y00455D01*
X00399Y00422D02*
Y00435D01*
X00419Y00455D02*
X004675D01*
X00368Y00207D02*
X0037303D01*
X00359Y00172D02*
Y00198D01*
X00368Y00207D01*
X01241Y00799D02*
X01242Y00798D01*
D51*
X0058Y01025D02*
Y01051D01*
X01355Y01025D02*
Y01053D01*
X0077658Y0031158D02*
Y0034094D01*
X0032163Y0048122D02*
X003229Y0047995D01*
X0035211D01*
D52*
X0016905Y00975D02*
X0017Y0097595D01*
Y01025D01*
X0029905Y00975D02*
X003Y0097595D01*
Y01025D01*
X0042905Y00975D02*
X0043Y0097595D01*
Y01025D01*
X0055405Y00975D02*
X00555Y0097595D01*
Y01025D01*
X0067905Y00975D02*
X0068Y0097595D01*
Y01025D01*
X0081905Y00975D02*
X0082Y0097595D01*
Y01025D01*
X0094405Y00975D02*
X00945Y0097595D01*
Y01025D01*
X0106905Y00975D02*
X0107Y0097595D01*
Y01025D01*
X0118905Y00975D02*
X0119Y0097595D01*
Y01025D01*
X0132905Y00975D02*
X0133Y0097595D01*
Y01025D01*
X0093047Y0048122D02*
X0093174Y0048249D01*
X0096171D01*
X0085376Y0035803D02*
Y0038343D01*
X0065031Y0035803D02*
Y0038343D01*
X0044838Y0035803D02*
Y0038343D01*
D53*
X003403Y00105D02*
X004236D01*
D54*
X0013D02*
X002133D01*
D55*
X0121133Y0038343D02*
X0124816D01*
D56*
X0121133Y0053202D02*
X0124816D01*
D57*
X-0002254Y011D02*
X-0001746D01*
X-0002254Y0D02*
X-0001746D01*
X-0002Y011D02*
X-0001492Y0108476D01*
X-0002508D02*
X-0002Y011D01*
Y0D02*
X-0001492Y0001524D01*
X-0002508D02*
X-0002Y0D01*
Y0060612D02*
Y011D01*
Y0D02*
Y0049388D01*
X0Y0D02*
X0142D01*
X0D02*
Y011D01*
Y-00025D02*
X0065261D01*
X0076739D02*
X0142D01*
X0D02*
X0001524Y-0001992D01*
X0Y-00025D02*
X0001524Y-0003008D01*
X0140476Y-0001992D02*
X0142Y-00025D01*
X0140476Y-0003008D02*
X0142Y-00025D01*
X0Y-0002754D02*
Y-0002246D01*
X0142Y-0002754D02*
Y-0002246D01*
Y0D02*
Y011D01*
X0D02*
X009325D01*
X01134D02*
X0142D01*
X009325D02*
X01134D01*
D58*
X-0001086Y0049642D02*
Y005015D01*
Y0049896D01*
X-0002609D01*
X-0002355Y0049642D01*
X-0001086Y0050912D02*
Y005142D01*
Y0051166D01*
X-0002609D01*
X-0002355Y0050912D01*
Y0052181D02*
X-0002609Y0052435D01*
Y0052943D01*
X-0002355Y0053197D01*
X-000134D01*
X-0001086Y0052943D01*
Y0052435D01*
X-000134Y0052181D01*
X-0002355D01*
X-0001086Y0055736D02*
X-0001594Y0055228D01*
X-0002102D01*
X-0002609Y0055736D01*
X-0001086Y0056498D02*
X-0002102D01*
Y0056752D01*
X-0001848Y0057006D01*
X-0001086D01*
X-0001848D01*
X-0002102Y005726D01*
X-0001848Y0057514D01*
X-0001086D01*
Y0058022D02*
X-0002102D01*
Y0058275D01*
X-0001848Y0058529D01*
X-0001086D01*
X-0001848D01*
X-0002102Y0058783D01*
X-0001848Y0059037D01*
X-0001086D01*
Y0059545D02*
X-0001594Y0060053D01*
X-0002102D01*
X-0002609Y0059545D01*
X0065515Y-0003414D02*
X0066023D01*
X0065769D01*
Y-0001891D01*
X0065515Y-0002145D01*
X0067547Y-0003414D02*
Y-0001891D01*
X0066785Y-0002652D01*
X0067801D01*
X0069324Y-0003414D02*
X0068308D01*
X0069324Y-0002398D01*
Y-0002145D01*
X006907Y-0001891D01*
X0068562D01*
X0068308Y-0002145D01*
X0071863Y-0003414D02*
X0071355Y-0002906D01*
Y-0002398D01*
X0071863Y-0001891D01*
X0072625Y-0003414D02*
Y-0002398D01*
X0072879D01*
X0073133Y-0002652D01*
Y-0003414D01*
Y-0002652D01*
X0073387Y-0002398D01*
X0073641Y-0002652D01*
Y-0003414D01*
X0074149D02*
Y-0002398D01*
X0074402D01*
X0074656Y-0002652D01*
Y-0003414D01*
Y-0002652D01*
X007491Y-0002398D01*
X0075164Y-0002652D01*
Y-0003414D01*
X0075672D02*
X007618Y-0002906D01*
Y-0002398D01*
X0075672Y-0001891D01*
D59*
X0131Y00205D02*
D03*
X009272Y00035D02*
D03*
X009922Y00035D02*
D03*
X010572D02*
D03*
X011222D02*
D03*
X008627D02*
D03*
X007947D02*
D03*
X007282Y00035D02*
D03*
X00662D02*
D03*
X00595D02*
D03*
X00528D02*
D03*
X01355Y01025D02*
D03*
X01215D02*
D03*
X01095D02*
D03*
X0097D02*
D03*
X00845D02*
D03*
X00705D02*
D03*
X0058D02*
D03*
X00455D02*
D03*
X00325D02*
D03*
X00195D02*
D03*
X0063852Y0069839D02*
D03*
X00734Y00732D02*
D03*
X0042008Y0069839D02*
D03*
X0086712D02*
D03*
X0091792Y0021579D02*
D03*
X0068932D02*
D03*
X0067Y00732D02*
D03*
X00888D02*
D03*
X00806D02*
D03*
X01021D02*
D03*
X00954D02*
D03*
X01182D02*
D03*
X01104D02*
D03*
X01329D02*
D03*
X01254D02*
D03*
X00586Y00165D02*
D03*
X00502D02*
D03*
X0073D02*
D03*
X00646D02*
D03*
X01165D02*
D03*
X0108D02*
D03*
X01015D02*
D03*
X0094D02*
D03*
X0087D02*
D03*
X00791D02*
D03*
X0051279Y0021579D02*
D03*
X00473Y00732D02*
D03*
D60*
X013354Y00205D02*
D03*
X013608D02*
D03*
X013862D02*
D03*
X009018Y00035D02*
D03*
X009668Y00035D02*
D03*
X010318D02*
D03*
X010968D02*
D03*
X008373D02*
D03*
X007693D02*
D03*
X007028Y00035D02*
D03*
X006366D02*
D03*
X005696D02*
D03*
X005026D02*
D03*
X013296Y01025D02*
D03*
X011896D02*
D03*
X010696D02*
D03*
X009446D02*
D03*
X008196D02*
D03*
X006796D02*
D03*
X005546D02*
D03*
X004296D02*
D03*
X002996D02*
D03*
X001696D02*
D03*
X0112112Y0029199D02*
D03*
X0114652D02*
D03*
X0112112Y0031739D02*
D03*
X0114652D02*
D03*
X0112112Y0034279D02*
D03*
X0114652D02*
D03*
X0112112Y0036819D02*
D03*
X0114652D02*
D03*
X0112112Y0039359D02*
D03*
X0114652D02*
D03*
X0112112Y0041899D02*
D03*
X0114652D02*
D03*
X0112112Y0044439D02*
D03*
X0114652D02*
D03*
X0112112Y0046979D02*
D03*
X0114652D02*
D03*
X0112112Y0049519D02*
D03*
X0114652D02*
D03*
X0112112Y0052059D02*
D03*
X0114652D02*
D03*
X0112112Y0054599D02*
D03*
X0114652D02*
D03*
X0112112Y0057139D02*
D03*
X0114652D02*
D03*
X0112112Y0059679D02*
D03*
X0114652D02*
D03*
X0112112Y0062219D02*
D03*
X0114652D02*
D03*
X0112112Y0064759D02*
D03*
X0114652D02*
D03*
X0112112Y0067299D02*
D03*
X0114652D02*
D03*
X0112112Y0069839D02*
D03*
X0114652Y0026659D02*
D03*
X0112112D02*
D03*
X0066392Y0069839D02*
D03*
X0068932D02*
D03*
X0071472D02*
D03*
X0074012D02*
D03*
X0076552D02*
D03*
X0079092D02*
D03*
X0081632D02*
D03*
X007086Y00732D02*
D03*
X0065031Y0063362D02*
D03*
Y0060822D02*
D03*
Y0058282D02*
D03*
Y0055742D02*
D03*
Y0053202D02*
D03*
Y0050662D02*
D03*
Y0048122D02*
D03*
X0052356Y0063362D02*
D03*
Y0060822D02*
D03*
Y0058282D02*
D03*
Y0055742D02*
D03*
Y0053202D02*
D03*
Y0050662D02*
D03*
Y0048122D02*
D03*
X0085376Y0063362D02*
D03*
Y0060822D02*
D03*
Y0058282D02*
D03*
Y0055742D02*
D03*
Y0053202D02*
D03*
Y0050662D02*
D03*
Y0048122D02*
D03*
X0072701Y0063362D02*
D03*
Y0060822D02*
D03*
Y0058282D02*
D03*
Y0055742D02*
D03*
Y0053202D02*
D03*
Y0050662D02*
D03*
Y0048122D02*
D03*
X0032163Y0040883D02*
D03*
Y0038343D02*
D03*
Y0035803D02*
D03*
Y0033263D02*
D03*
Y0030723D02*
D03*
Y0028183D02*
D03*
Y0025643D02*
D03*
X0052356Y0040883D02*
D03*
Y0038343D02*
D03*
Y0035803D02*
D03*
Y0033263D02*
D03*
Y0030723D02*
D03*
Y0028183D02*
D03*
Y0025643D02*
D03*
X0072701Y0040883D02*
D03*
Y0038343D02*
D03*
Y0035803D02*
D03*
Y0033263D02*
D03*
Y0030723D02*
D03*
Y0028183D02*
D03*
Y0025643D02*
D03*
X0105721Y0063362D02*
D03*
Y0060822D02*
D03*
Y0058282D02*
D03*
Y0055742D02*
D03*
Y0053202D02*
D03*
Y0050662D02*
D03*
Y0048122D02*
D03*
X0085376Y0040883D02*
D03*
Y0038343D02*
D03*
Y0035803D02*
D03*
Y0033263D02*
D03*
Y0030723D02*
D03*
Y0028183D02*
D03*
Y0025643D02*
D03*
X0105721Y0040883D02*
D03*
Y0038343D02*
D03*
Y0035803D02*
D03*
Y0033263D02*
D03*
Y0030723D02*
D03*
Y0028183D02*
D03*
Y0025643D02*
D03*
X0093047Y0040883D02*
D03*
Y0038343D02*
D03*
Y0035803D02*
D03*
Y0033263D02*
D03*
Y0030723D02*
D03*
Y0028183D02*
D03*
Y0025643D02*
D03*
Y0063362D02*
D03*
Y0060822D02*
D03*
Y0058282D02*
D03*
Y0055742D02*
D03*
Y0053202D02*
D03*
Y0050662D02*
D03*
Y0048122D02*
D03*
X0137491Y0040883D02*
D03*
Y0038343D02*
D03*
Y0035803D02*
D03*
Y0033263D02*
D03*
Y0030723D02*
D03*
Y0028183D02*
D03*
Y0025643D02*
D03*
X0124816Y0040883D02*
D03*
Y0038343D02*
D03*
Y0035803D02*
D03*
Y0033263D02*
D03*
Y0030723D02*
D03*
Y0028183D02*
D03*
Y0025643D02*
D03*
X0047088Y0069839D02*
D03*
X0044548D02*
D03*
X0049628D02*
D03*
X0052168D02*
D03*
X0054708D02*
D03*
X0057248D02*
D03*
X0059788D02*
D03*
X0089252D02*
D03*
X0091792D02*
D03*
X0094332D02*
D03*
X0096872D02*
D03*
X0099412D02*
D03*
X0101952D02*
D03*
X0104492D02*
D03*
X0094332Y0021579D02*
D03*
X0096872D02*
D03*
X0099412D02*
D03*
X0101952D02*
D03*
X0104492D02*
D03*
X0107032D02*
D03*
X0109572D02*
D03*
X0071472D02*
D03*
X0074012D02*
D03*
X0076552D02*
D03*
X0079092D02*
D03*
X0081632D02*
D03*
X0084172D02*
D03*
X0086712D02*
D03*
X0044838Y0063362D02*
D03*
Y0060822D02*
D03*
Y0058282D02*
D03*
Y0055742D02*
D03*
Y0053202D02*
D03*
Y0050662D02*
D03*
Y0048122D02*
D03*
X0065031Y0040883D02*
D03*
Y0038343D02*
D03*
Y0035803D02*
D03*
Y0033263D02*
D03*
Y0030723D02*
D03*
Y0028183D02*
D03*
Y0025643D02*
D03*
X0044838Y0040883D02*
D03*
Y0038343D02*
D03*
Y0035803D02*
D03*
Y0033263D02*
D03*
Y0030723D02*
D03*
Y0028183D02*
D03*
Y0025643D02*
D03*
X0080198Y0034094D02*
D03*
Y0036634D02*
D03*
Y0039174D02*
D03*
X0132398Y0033894D02*
D03*
Y0036434D02*
D03*
Y0038974D02*
D03*
X0059798Y0033894D02*
D03*
Y0036434D02*
D03*
Y0038974D02*
D03*
X0039598Y0033894D02*
D03*
Y0036434D02*
D03*
Y0038974D02*
D03*
X0028607Y0033263D02*
D03*
Y0035803D02*
D03*
Y0038343D02*
D03*
X0039598Y0053794D02*
D03*
Y0056334D02*
D03*
Y0058874D02*
D03*
X0059798Y0053894D02*
D03*
Y0056434D02*
D03*
Y0058974D02*
D03*
X0079998Y0053994D02*
D03*
Y0056534D02*
D03*
Y0059074D02*
D03*
X0100617Y0053871D02*
D03*
Y0056411D02*
D03*
Y0058951D02*
D03*
X0068993Y0033263D02*
D03*
Y0035803D02*
D03*
Y0038343D02*
D03*
X0089186Y0033263D02*
D03*
Y0035803D02*
D03*
Y0038343D02*
D03*
X0121133Y0033263D02*
D03*
Y0035803D02*
D03*
Y0038343D02*
D03*
X00488Y0033263D02*
D03*
Y0035803D02*
D03*
Y0038343D02*
D03*
X0028607Y0055742D02*
D03*
Y0058282D02*
D03*
Y0060822D02*
D03*
X00488Y0055742D02*
D03*
Y0058282D02*
D03*
Y0060822D02*
D03*
X0068866Y0055742D02*
D03*
Y0058282D02*
D03*
Y0060822D02*
D03*
X0121133Y0055742D02*
D03*
Y0058282D02*
D03*
Y0060822D02*
D03*
X0037058Y0053794D02*
D03*
Y0056334D02*
D03*
X0057258Y0056434D02*
D03*
Y0053894D02*
D03*
X0077458Y0056534D02*
D03*
Y0053994D02*
D03*
X0129858Y0036434D02*
D03*
Y0033894D02*
D03*
X0037058Y0036434D02*
D03*
Y0033894D02*
D03*
X0077658Y0036634D02*
D03*
Y0034094D02*
D03*
X0098077Y0056411D02*
D03*
Y0053871D02*
D03*
X0057258Y0036434D02*
D03*
Y0033894D02*
D03*
X006446Y00732D02*
D03*
X008626D02*
D03*
X007806D02*
D03*
X009956D02*
D03*
X009286D02*
D03*
X011566D02*
D03*
X010786D02*
D03*
X013036D02*
D03*
X012286D02*
D03*
X006114Y00165D02*
D03*
X005274D02*
D03*
X007554D02*
D03*
X006714D02*
D03*
X011904D02*
D03*
X011054D02*
D03*
X010404D02*
D03*
X009654D02*
D03*
X008954D02*
D03*
X008164D02*
D03*
X0100598Y0033994D02*
D03*
Y0036534D02*
D03*
Y0039074D02*
D03*
X0098058Y0036534D02*
D03*
Y0033994D02*
D03*
X0089313Y0055742D02*
D03*
Y0058282D02*
D03*
Y0060822D02*
D03*
X0032163Y0063362D02*
D03*
Y0060822D02*
D03*
Y0058282D02*
D03*
Y0055742D02*
D03*
Y0053202D02*
D03*
Y0050662D02*
D03*
Y0048122D02*
D03*
X0063979Y0021579D02*
D03*
X0061439D02*
D03*
X0058899D02*
D03*
X0056359D02*
D03*
X0053819D02*
D03*
X0132398Y0053994D02*
D03*
Y0056534D02*
D03*
Y0059074D02*
D03*
X0129858Y0056534D02*
D03*
Y0053994D02*
D03*
X0137465Y0063362D02*
D03*
Y0060822D02*
D03*
Y0058282D02*
D03*
Y0055742D02*
D03*
Y0053202D02*
D03*
Y0050662D02*
D03*
Y0048122D02*
D03*
X0124816Y0063362D02*
D03*
Y0060822D02*
D03*
Y0058282D02*
D03*
Y0055742D02*
D03*
Y0053202D02*
D03*
Y0050662D02*
D03*
Y0048122D02*
D03*
X005492Y00732D02*
D03*
X005238D02*
D03*
X004984D02*
D03*
X00169Y00688D02*
D03*
X00405Y00207D02*
D03*
X00583Y00283D02*
D03*
D61*
X0139Y0003D02*
D03*
Y0107D02*
D03*
X0003D02*
D03*
Y0003D02*
D03*
X00155Y00194D02*
D03*
Y002321D02*
D03*
Y003083D02*
D03*
Y002702D02*
D03*
Y003464D02*
D03*
Y003845D02*
D03*
D62*
X0114652Y0069839D02*
D03*
X0065031Y0065902D02*
D03*
X0052356D02*
D03*
X0085376D02*
D03*
X0072701D02*
D03*
X0032163Y0043423D02*
D03*
X0052356D02*
D03*
X0072701D02*
D03*
X0105721Y0065902D02*
D03*
X0085376Y0043423D02*
D03*
X0105721D02*
D03*
X0093047D02*
D03*
Y0065902D02*
D03*
X0137491Y0043423D02*
D03*
X0124816D02*
D03*
X0044838Y0065902D02*
D03*
X0065031Y0043423D02*
D03*
X0044838D02*
D03*
X0028607Y0030723D02*
D03*
X0068993D02*
D03*
X0089186D02*
D03*
X0121133D02*
D03*
X00488D02*
D03*
X0028607Y0053202D02*
D03*
X00488D02*
D03*
X0068866D02*
D03*
X0121133D02*
D03*
X0037058Y0058874D02*
D03*
X0057258Y0058974D02*
D03*
X0077458Y0059074D02*
D03*
X0129858Y0038974D02*
D03*
X0037058D02*
D03*
X0077658Y0039174D02*
D03*
X0098077Y0058951D02*
D03*
X0057258Y0038974D02*
D03*
X0098058Y0039074D02*
D03*
X0089313Y0053202D02*
D03*
X0032163Y0065902D02*
D03*
X0129858Y0059074D02*
D03*
X0137465Y0065902D02*
D03*
X0124816D02*
D03*
D63*
X002133Y00105D02*
D03*
X004236D02*
D03*
X003403D02*
D03*
X0013D02*
D03*
D64*
X0042842Y000504D02*
D03*
X0035842D02*
D03*
D65*
X0036994Y00025D02*
D03*
X0041494D02*
D03*
X00257Y0032D02*
D03*
D66*
X00131Y00527D02*
D03*
X0013Y00624D02*
D03*
X00115Y00526D02*
D03*
X00195Y01047D02*
D03*
X00325D02*
D03*
X00455D02*
D03*
X0058D02*
D03*
X00705Y01048D02*
D03*
X00845Y01047D02*
D03*
X0097Y01048D02*
D03*
X01095D02*
D03*
X01215Y01046D02*
D03*
X01355D02*
D03*
D67*
X01196Y00128D02*
D03*
X01158Y00126D02*
D03*
X01175Y00125D02*
D03*
X01265Y00045D02*
D03*
X01332Y00055D02*
D03*
X00233Y00337D02*
D03*
X0012Y00728D02*
D03*
X00364D02*
D03*
X002155Y00659D02*
D03*
X00203Y00729D02*
D03*
X00285Y0072736D02*
D03*
X00143Y00659D02*
D03*
X00169Y0073D02*
D03*
X00703Y00668D02*
D03*
X00399Y006795D02*
D03*
X00847Y00795D02*
D03*
X01068Y007D02*
D03*
X01099Y00666D02*
D03*
X01008Y00822D02*
D03*
X00971Y00794D02*
D03*
X0058Y00792D02*
D03*
X00452Y00794D02*
D03*
X01098Y00823D02*
D03*
X01095Y00794D02*
D03*
X0071D02*
D03*
X01259Y00789D02*
D03*
X0139Y00755D02*
D03*
X01368Y00741D02*
D03*
X01396Y00809D02*
D03*
X01133Y00821D02*
D03*
X01224Y00797D02*
D03*
X00236Y00802D02*
D03*
X00974Y00824D02*
D03*
X00882Y00803D02*
D03*
X0075Y008D02*
D03*
X00615Y00799D02*
D03*
X00487Y00801D02*
D03*
X00363Y00792D02*
D03*
X00328Y00794D02*
D03*
X00116Y00791D02*
D03*
X00163Y00923D02*
D03*
X00299D02*
D03*
X00429D02*
D03*
X00554D02*
D03*
X00679Y00922D02*
D03*
X00819Y00923D02*
D03*
X00944Y00922D02*
D03*
X01068D02*
D03*
X01189D02*
D03*
X01329D02*
D03*
X0129Y01005D02*
D03*
X01229Y00075D02*
D03*
X01215Y00084D02*
D03*
X01241Y00066D02*
D03*
X0131Y00985D02*
D03*
X0135D02*
D03*
X0137D02*
D03*
X0133Y01005D02*
D03*
X0131D02*
D03*
X0129Y00985D02*
D03*
Y00965D02*
D03*
X0117Y00985D02*
D03*
X0121D02*
D03*
X0123Y00965D02*
D03*
Y00985D02*
D03*
Y01005D02*
D03*
X0121D02*
D03*
X0119D02*
D03*
X0117D02*
D03*
X0115D02*
D03*
Y00985D02*
D03*
Y00965D02*
D03*
X0105Y00985D02*
D03*
X0109D02*
D03*
X0111Y00965D02*
D03*
Y00985D02*
D03*
Y01005D02*
D03*
X0109D02*
D03*
X0107D02*
D03*
X0105D02*
D03*
X0103D02*
D03*
Y00985D02*
D03*
Y00965D02*
D03*
X00925Y00985D02*
D03*
X00965D02*
D03*
X00985Y00965D02*
D03*
Y00985D02*
D03*
Y01005D02*
D03*
X00965D02*
D03*
X00945D02*
D03*
X00925D02*
D03*
X00905D02*
D03*
Y00985D02*
D03*
Y00965D02*
D03*
X008Y00985D02*
D03*
X0084D02*
D03*
X0086Y00965D02*
D03*
Y00985D02*
D03*
Y01005D02*
D03*
X0084D02*
D03*
X0082D02*
D03*
X008D02*
D03*
X0078D02*
D03*
Y00985D02*
D03*
Y00965D02*
D03*
X007Y00985D02*
D03*
X0066D02*
D03*
Y01005D02*
D03*
X0068D02*
D03*
X007D02*
D03*
X0072D02*
D03*
Y00985D02*
D03*
Y00965D02*
D03*
X0064D02*
D03*
Y00985D02*
D03*
Y01005D02*
D03*
X00535Y00985D02*
D03*
X00575D02*
D03*
X00595Y00965D02*
D03*
Y00985D02*
D03*
Y01005D02*
D03*
X00575D02*
D03*
X00555D02*
D03*
X00535D02*
D03*
X00515D02*
D03*
Y00985D02*
D03*
Y00965D02*
D03*
X0041Y00985D02*
D03*
X0045D02*
D03*
X0047Y00965D02*
D03*
Y00985D02*
D03*
Y01005D02*
D03*
X0045D02*
D03*
X0043D02*
D03*
X0041D02*
D03*
X0039D02*
D03*
Y00985D02*
D03*
Y00965D02*
D03*
X0028Y00985D02*
D03*
X0032D02*
D03*
X0034Y00965D02*
D03*
Y00985D02*
D03*
Y01005D02*
D03*
X0032D02*
D03*
X003D02*
D03*
X0028D02*
D03*
X0026D02*
D03*
Y00985D02*
D03*
Y00965D02*
D03*
X0015Y00985D02*
D03*
X0019D02*
D03*
X0021Y00965D02*
D03*
Y00985D02*
D03*
Y01005D02*
D03*
X0019D02*
D03*
X0017D02*
D03*
X0015D02*
D03*
X0013D02*
D03*
Y00985D02*
D03*
Y00965D02*
D03*
X0101025Y00301D02*
D03*
X00891Y00445D02*
D03*
X00896Y00429D02*
D03*
X00981Y00679D02*
D03*
X010325Y002D02*
D03*
X01055Y00735D02*
D03*
X011Y00578D02*
D03*
X01215Y00701D02*
D03*
X012Y00499D02*
D03*
X00648Y00108D02*
D03*
X01251Y00158D02*
D03*
X01274Y00148D02*
D03*
X01198Y00111D02*
D03*
X00281Y0048D02*
D03*
X00395Y00657D02*
D03*
X0035Y00643D02*
D03*
X00971Y00665D02*
D03*
X01207Y00482D02*
D03*
X01295Y00494D02*
D03*
X00912Y0027D02*
D03*
X00145Y00625D02*
D03*
X00115D02*
D03*
X00145Y00525D02*
D03*
X0025Y00449D02*
D03*
X01085Y00125D02*
D03*
X01025D02*
D03*
X00895D02*
D03*
X00825D02*
D03*
X0076D02*
D03*
X00695D02*
D03*
X0049D02*
D03*
X00952Y00123D02*
D03*
X00458Y00152D02*
D03*
X0137Y00965D02*
D03*
Y01005D02*
D03*
X0135D02*
D03*
X00537Y00994D02*
D03*
M02*
