G04 (created by PCBNEW (2013-07-07 BZR 4022)-stable) date 18/10/2013 16:38:57*
%MOIN*%
G04 Gerber Fmt 3.4, Leading zero omitted, Abs format*
%FSLAX34Y34*%
G01*
G70*
G90*
G04 APERTURE LIST*
%ADD10C,0.00590551*%
%ADD11C,0.0055*%
G04 APERTURE END LIST*
G54D10*
G54D11*
X147Y23622D02*
X422Y23622D01*
X455Y23633D01*
X471Y23643D01*
X487Y23664D01*
X487Y23706D01*
X471Y23727D01*
X455Y23738D01*
X422Y23748D01*
X147Y23748D01*
X180Y23842D02*
X163Y23853D01*
X147Y23874D01*
X147Y23926D01*
X163Y23947D01*
X180Y23958D01*
X212Y23968D01*
X244Y23968D01*
X293Y23958D01*
X487Y23832D01*
X487Y23968D01*
X147Y24104D02*
X147Y24125D01*
X163Y24146D01*
X180Y24157D01*
X212Y24167D01*
X277Y24178D01*
X358Y24178D01*
X422Y24167D01*
X455Y24157D01*
X471Y24146D01*
X487Y24125D01*
X487Y24104D01*
X471Y24083D01*
X455Y24073D01*
X422Y24062D01*
X358Y24052D01*
X277Y24052D01*
X212Y24062D01*
X180Y24073D01*
X163Y24083D01*
X147Y24104D01*
X487Y24387D02*
X487Y24261D01*
X487Y24324D02*
X147Y24324D01*
X196Y24303D01*
X228Y24282D01*
X244Y24261D01*
M02*
