G04 (created by PCBNEW (2013-07-07 BZR 4022)-stable) date 22/10/2013 00:57:18*
%MOIN*%
G04 Gerber Fmt 3.4, Leading zero omitted, Abs format*
%FSLAX34Y34*%
G01*
G70*
G90*
G04 APERTURE LIST*
%ADD10C,0.00590551*%
%ADD11R,0.055X0.055*%
%ADD12C,0.055*%
%ADD13R,0.0984X0.055*%
%ADD14R,0.144X0.08*%
%ADD15R,0.04X0.08*%
%ADD16R,0.035X0.055*%
%ADD17R,0.055X0.035*%
%ADD18R,0.06X0.06*%
%ADD19C,0.06*%
%ADD20R,0.0689X0.0236*%
%ADD21R,0.0394X0.0591*%
%ADD22R,0.061X0.0394*%
%ADD23R,0.0591X0.0315*%
%ADD24R,0.0591X0.0591*%
%ADD25R,0.0591X0.0433*%
%ADD26R,0.0886X0.0197*%
%ADD27R,0.1378X0.0591*%
%ADD28C,0.0354*%
%ADD29C,0.1772*%
%ADD30O,0.06X0.1*%
%ADD31C,0.125*%
%ADD32R,0.063X0.1417*%
%ADD33C,0.0944882*%
%ADD34R,0.0944882X0.0944882*%
%ADD35R,0.06X0.0866*%
%ADD36O,0.06X0.0866*%
%ADD37R,0.07X0.07*%
%ADD38C,0.07*%
%ADD39R,0.35X0.35*%
%ADD40R,0.0472X0.0472*%
%ADD41C,0.16*%
%ADD42C,0.0591*%
%ADD43C,0.09*%
%ADD44C,0.065*%
%ADD45C,0.035*%
%ADD46C,0.01*%
G04 APERTURE END LIST*
G54D10*
G54D11*
X1000Y10000D03*
G54D12*
X2000Y10000D03*
X3000Y10000D03*
X4000Y10000D03*
X5000Y10000D03*
X6000Y10000D03*
X7000Y10000D03*
X8000Y10000D03*
X9000Y10000D03*
X10000Y10000D03*
X11000Y10000D03*
X12000Y10000D03*
X13000Y10000D03*
X14000Y10000D03*
X15000Y10000D03*
X16000Y10000D03*
X17000Y10000D03*
X18000Y10000D03*
X19000Y10000D03*
X20000Y10000D03*
X21000Y10000D03*
X22000Y10000D03*
X23000Y10000D03*
X24000Y10000D03*
X25000Y10000D03*
X26000Y10000D03*
X27000Y10000D03*
X1000Y19000D03*
X2000Y19000D03*
X3000Y19000D03*
X4000Y19000D03*
X5000Y19000D03*
X6000Y19000D03*
X7000Y19000D03*
X8000Y19000D03*
X9000Y19000D03*
X10000Y19000D03*
X11000Y19000D03*
X12000Y19000D03*
X13000Y19000D03*
X14000Y19000D03*
X15000Y19000D03*
X16000Y19000D03*
X17000Y19000D03*
X18000Y19000D03*
X19000Y19000D03*
X20000Y19000D03*
X21000Y19000D03*
X22000Y19000D03*
X23000Y19000D03*
X24000Y19000D03*
X25000Y19000D03*
X26000Y19000D03*
X27000Y19000D03*
X27000Y17000D03*
X26000Y17000D03*
X25000Y17000D03*
X27000Y16000D03*
X26000Y16000D03*
X25000Y16000D03*
X27000Y15000D03*
X26000Y15000D03*
X25000Y15000D03*
X27000Y14000D03*
X26000Y14000D03*
X25000Y14000D03*
X27000Y13000D03*
X26000Y13000D03*
X25000Y13000D03*
X27000Y12000D03*
X26000Y12000D03*
X25000Y12000D03*
X24000Y12000D03*
G54D13*
X32779Y2886D03*
X32779Y1114D03*
X30220Y2886D03*
X30220Y1114D03*
G54D14*
X34500Y11200D03*
G54D15*
X34500Y13800D03*
X33600Y13800D03*
X35400Y13800D03*
G54D16*
X4625Y22000D03*
X5375Y22000D03*
X4625Y26000D03*
X5375Y26000D03*
G54D17*
X31500Y11875D03*
X31500Y11125D03*
X6000Y14125D03*
X6000Y14875D03*
G54D16*
X34625Y15500D03*
X35375Y15500D03*
G54D17*
X30500Y11875D03*
X30500Y11125D03*
X9500Y4625D03*
X9500Y5375D03*
X8500Y4625D03*
X8500Y5375D03*
X7500Y4625D03*
X7500Y5375D03*
G54D18*
X15500Y33000D03*
G54D19*
X14500Y33000D03*
X13500Y33000D03*
X12500Y33000D03*
G54D18*
X13000Y2500D03*
G54D19*
X13000Y1500D03*
G54D18*
X10000Y2500D03*
G54D19*
X10000Y1500D03*
G54D18*
X11500Y2500D03*
G54D19*
X11500Y1500D03*
G54D18*
X15500Y1500D03*
G54D19*
X15500Y2500D03*
G54D20*
X795Y16272D03*
X795Y13241D03*
X795Y13674D03*
X795Y14107D03*
X795Y14540D03*
X795Y14973D03*
X795Y15406D03*
X795Y15839D03*
G54D21*
X4417Y16705D03*
G54D22*
X5028Y12296D03*
G54D23*
X3827Y16843D03*
X4083Y12138D03*
G54D24*
X815Y12276D03*
G54D25*
X835Y16783D03*
G54D26*
X3024Y24000D03*
X3024Y24314D03*
X3024Y23371D03*
G54D27*
X1291Y25850D03*
X2984Y25850D03*
X1291Y22150D03*
X2984Y22150D03*
G54D26*
X3024Y23685D03*
G54D28*
X2157Y24866D03*
X2157Y23134D03*
G54D26*
X3024Y24629D03*
G54D29*
X35500Y24000D03*
X6000Y24000D03*
X38000Y5000D03*
X5500Y5000D03*
G54D30*
X27000Y24000D03*
X28000Y24000D03*
X29000Y24000D03*
X30000Y24000D03*
X31000Y24000D03*
X32000Y24000D03*
X33000Y24000D03*
X34000Y24000D03*
X36000Y5000D03*
X35000Y5000D03*
X34000Y5000D03*
X33000Y5000D03*
X29000Y5000D03*
X27000Y5000D03*
X26000Y5000D03*
X30000Y5000D03*
X31000Y5000D03*
X32000Y5000D03*
X25000Y5000D03*
X24000Y5000D03*
X23000Y5000D03*
X20000Y5000D03*
X21000Y5000D03*
X22000Y5000D03*
X18000Y5000D03*
X17000Y5000D03*
X16000Y5000D03*
X14000Y5000D03*
X13000Y5000D03*
X25000Y24000D03*
X24000Y24000D03*
X23000Y24000D03*
X22000Y24000D03*
X21000Y24000D03*
X20000Y24000D03*
X19000Y24000D03*
X18000Y24000D03*
X16400Y24000D03*
X15400Y24000D03*
X14400Y24000D03*
X13400Y24000D03*
X12400Y24000D03*
X11400Y24000D03*
X10400Y24000D03*
X9400Y24000D03*
X15000Y5000D03*
G54D31*
X38000Y5000D03*
X35500Y24000D03*
X6000Y24000D03*
X5500Y5000D03*
G54D19*
X37000Y23000D03*
X38000Y23000D03*
X37000Y22000D03*
X38000Y22000D03*
X37000Y21000D03*
X38000Y21000D03*
X37000Y20000D03*
X38000Y20000D03*
X37000Y24000D03*
X38000Y24000D03*
X38000Y19000D03*
X37000Y19000D03*
X37000Y18000D03*
X38000Y18000D03*
X37000Y17000D03*
X38000Y17000D03*
X37000Y16000D03*
X38000Y16000D03*
X37000Y15000D03*
X38000Y15000D03*
X37000Y14000D03*
X38000Y14000D03*
X37000Y13000D03*
X38000Y13000D03*
X37000Y12000D03*
X38000Y12000D03*
X37000Y11000D03*
X38000Y11000D03*
X37000Y10000D03*
X38000Y10000D03*
X37000Y9000D03*
X38000Y9000D03*
X37000Y8000D03*
X38000Y8000D03*
X37000Y7000D03*
X38000Y7000D03*
G54D30*
X8400Y24000D03*
X7400Y24000D03*
X12000Y5000D03*
X11000Y5000D03*
G54D32*
X30000Y9083D03*
X30000Y6917D03*
X34000Y9083D03*
X34000Y6917D03*
G54D33*
X1775Y6188D03*
G54D34*
X1775Y4811D03*
G54D35*
X18000Y1500D03*
G54D36*
X19000Y1500D03*
X20000Y1500D03*
X21000Y1500D03*
X22000Y1500D03*
X23000Y1500D03*
G54D37*
X31500Y13500D03*
G54D38*
X29500Y13500D03*
X30500Y13500D03*
G54D39*
X30500Y20000D03*
G54D40*
X3500Y2413D03*
X3500Y1587D03*
X5500Y2413D03*
X5500Y1587D03*
X7500Y2413D03*
X7500Y1587D03*
G54D13*
X37279Y2886D03*
X37279Y1114D03*
X34720Y2886D03*
X34720Y1114D03*
G54D16*
X11125Y31000D03*
X11875Y31000D03*
X11125Y29000D03*
X11875Y29000D03*
G54D41*
X4250Y28000D03*
X4250Y32500D03*
G54D24*
X6750Y32000D03*
G54D42*
X7750Y31500D03*
X6750Y31000D03*
X7750Y30500D03*
X6750Y30000D03*
X7750Y29500D03*
X6750Y29000D03*
X7750Y28500D03*
G54D43*
X5450Y33350D03*
X5450Y27150D03*
G54D44*
X2650Y32850D03*
X2650Y31850D03*
X2650Y28650D03*
X2650Y27650D03*
G54D45*
X8547Y25009D03*
X21080Y8809D03*
X8119Y14444D03*
X33759Y15048D03*
X16465Y8560D03*
X30592Y9083D03*
X28844Y16177D03*
X29422Y15642D03*
X1596Y15838D03*
X2948Y14701D03*
X3769Y24643D03*
X33242Y15975D03*
X27275Y9209D03*
X26711Y10990D03*
G54D46*
X30220Y2885D02*
X32778Y2885D01*
X32778Y2885D02*
X32779Y2885D01*
X32778Y2885D02*
X32779Y2885D01*
X30220Y2885D02*
X30220Y2885D01*
X30220Y2885D02*
X30220Y2885D01*
X12616Y32116D02*
X13500Y33000D01*
X10185Y32116D02*
X12616Y32116D01*
X9068Y31000D02*
X10185Y32116D01*
X6750Y31000D02*
X9068Y31000D01*
X15500Y31962D02*
X8547Y25009D01*
X15500Y33000D02*
X15500Y31962D01*
X14045Y33454D02*
X14500Y33000D01*
X9704Y33454D02*
X14045Y33454D01*
X7750Y31500D02*
X9704Y33454D01*
X13000Y4350D02*
X13000Y5000D01*
X14038Y3311D02*
X13000Y4350D01*
X33652Y3311D02*
X14038Y3311D01*
X34077Y2885D02*
X33652Y3311D01*
X34720Y2885D02*
X34077Y2885D01*
X34720Y2885D02*
X34720Y2885D01*
X37279Y2885D02*
X37278Y2885D01*
X37278Y2885D02*
X34720Y2885D01*
X37278Y2885D02*
X37279Y2885D01*
X22000Y9728D02*
X21080Y8809D01*
X22000Y10000D02*
X22000Y9728D01*
X9572Y18572D02*
X10000Y19000D01*
X7796Y18572D02*
X9572Y18572D01*
X7500Y18869D02*
X7796Y18572D01*
X7500Y20560D02*
X7500Y18869D01*
X4060Y24000D02*
X7500Y20560D01*
X3024Y24000D02*
X4060Y24000D01*
X9000Y19343D02*
X9000Y19000D01*
X4029Y24314D02*
X9000Y19343D01*
X3024Y24314D02*
X4029Y24314D01*
X34625Y14475D02*
X34625Y15350D01*
X34500Y14350D02*
X34625Y14475D01*
X34500Y13800D02*
X34500Y14350D01*
X35370Y11200D02*
X34500Y11200D01*
X35370Y9537D02*
X35370Y11200D01*
X39036Y8764D02*
X38263Y9537D01*
X39036Y4564D02*
X39036Y8764D01*
X38426Y3954D02*
X39036Y4564D01*
X14395Y3954D02*
X38426Y3954D01*
X14000Y4350D02*
X14395Y3954D01*
X14000Y5000D02*
X14000Y4350D01*
X38263Y9537D02*
X35370Y9537D01*
X12000Y5000D02*
X12000Y5650D01*
X14000Y5650D02*
X12000Y5650D01*
X14000Y5000D02*
X14000Y5650D01*
X10440Y5650D02*
X12000Y5650D01*
X9740Y4950D02*
X10440Y5650D01*
X9150Y4950D02*
X9740Y4950D01*
X8925Y4725D02*
X9150Y4950D01*
X8925Y4224D02*
X8925Y4725D01*
X7500Y2799D02*
X8925Y4224D01*
X7500Y2412D02*
X7500Y2799D01*
X38455Y9729D02*
X38263Y9537D01*
X38455Y12194D02*
X38455Y9729D01*
X38150Y12500D02*
X38455Y12194D01*
X37863Y12500D02*
X38150Y12500D01*
X37550Y12813D02*
X37863Y12500D01*
X37550Y13086D02*
X37550Y12813D01*
X37186Y13450D02*
X37550Y13086D01*
X36907Y13450D02*
X37186Y13450D01*
X35902Y14455D02*
X36907Y13450D01*
X35902Y15648D02*
X35902Y14455D01*
X35622Y15927D02*
X35902Y15648D01*
X35119Y15927D02*
X35622Y15927D01*
X34625Y15432D02*
X35119Y15927D01*
X34625Y15350D02*
X34625Y15432D01*
X34625Y15432D02*
X34625Y15350D01*
X34000Y9083D02*
X34000Y9083D01*
X34919Y9537D02*
X35370Y9537D01*
X34464Y9083D02*
X34919Y9537D01*
X34000Y9083D02*
X34464Y9083D01*
X34000Y9083D02*
X34000Y9082D01*
X34625Y15500D02*
X34625Y15466D01*
X34625Y15466D02*
X34625Y15432D01*
X34625Y15466D02*
X34625Y15500D01*
X34625Y15466D02*
X34625Y15466D01*
X795Y14540D02*
X795Y14540D01*
X6000Y14125D02*
X6000Y14125D01*
X5574Y14125D02*
X6000Y14125D01*
X5324Y14375D02*
X5574Y14125D01*
X1454Y14375D02*
X5324Y14375D01*
X1289Y14540D02*
X1454Y14375D01*
X795Y14540D02*
X1289Y14540D01*
X6744Y14444D02*
X8119Y14444D01*
X6425Y14125D02*
X6744Y14444D01*
X6000Y14125D02*
X6425Y14125D01*
X11125Y31000D02*
X10799Y31000D01*
X11125Y29674D02*
X10299Y30500D01*
X11125Y29000D02*
X11125Y29674D01*
X7750Y30500D02*
X10299Y30500D01*
X10299Y30500D02*
X10799Y31000D01*
X15500Y1500D02*
X13000Y1500D01*
X11500Y1500D02*
X13000Y1500D01*
X9700Y1200D02*
X10000Y1500D01*
X5165Y1200D02*
X9700Y1200D01*
X5113Y1252D02*
X5165Y1200D01*
X5113Y2026D02*
X5113Y1252D01*
X5500Y2412D02*
X5113Y2026D01*
X10000Y1500D02*
X11500Y1500D01*
X33600Y14888D02*
X33600Y13800D01*
X33759Y15048D02*
X33600Y14888D01*
X30500Y13500D02*
X30500Y11875D01*
X30500Y11875D02*
X30500Y11874D01*
X29535Y9083D02*
X30000Y9083D01*
X28934Y8482D02*
X29535Y9083D01*
X16543Y8482D02*
X28934Y8482D01*
X16465Y8560D02*
X16543Y8482D01*
X30000Y9083D02*
X30592Y9083D01*
X30000Y9083D02*
X30000Y9082D01*
X7554Y10444D02*
X8000Y10000D01*
X6164Y10444D02*
X7554Y10444D01*
X4572Y12037D02*
X6164Y10444D01*
X4572Y12318D02*
X4572Y12037D01*
X3217Y13674D02*
X4572Y12318D01*
X795Y13674D02*
X3217Y13674D01*
X23555Y12444D02*
X24000Y12000D01*
X23555Y19168D02*
X23555Y12444D01*
X26833Y22445D02*
X23555Y19168D01*
X36550Y22445D02*
X26833Y22445D01*
X36577Y22472D02*
X36550Y22445D01*
X37163Y22472D02*
X36577Y22472D01*
X37450Y22186D02*
X37163Y22472D01*
X37450Y20450D02*
X37450Y22186D01*
X37000Y20000D02*
X37450Y20450D01*
X28200Y10800D02*
X27000Y12000D01*
X31874Y10800D02*
X28200Y10800D01*
X34074Y13000D02*
X31874Y10800D01*
X37000Y13000D02*
X34074Y13000D01*
X27704Y16704D02*
X27000Y16000D01*
X36295Y16704D02*
X27704Y16704D01*
X37000Y16000D02*
X36295Y16704D01*
X25911Y18088D02*
X25000Y19000D01*
X35088Y18088D02*
X25911Y18088D01*
X35466Y18466D02*
X35088Y18088D01*
X37170Y18466D02*
X35466Y18466D01*
X37450Y18186D02*
X37170Y18466D01*
X37450Y14550D02*
X37450Y18186D01*
X38000Y14000D02*
X37450Y14550D01*
X26438Y15561D02*
X26000Y16000D01*
X27753Y15561D02*
X26438Y15561D01*
X28697Y16504D02*
X27753Y15561D01*
X35636Y16504D02*
X28697Y16504D01*
X36365Y15775D02*
X35636Y16504D01*
X36365Y14961D02*
X36365Y15775D01*
X36827Y14500D02*
X36365Y14961D01*
X37136Y14500D02*
X36827Y14500D01*
X37450Y14186D02*
X37136Y14500D01*
X37450Y13550D02*
X37450Y14186D01*
X38000Y13000D02*
X37450Y13550D01*
X31959Y10000D02*
X27000Y10000D01*
X33709Y11750D02*
X31959Y10000D01*
X35282Y11750D02*
X33709Y11750D01*
X36486Y10545D02*
X35282Y11750D01*
X37545Y10545D02*
X36486Y10545D01*
X38000Y11000D02*
X37545Y10545D01*
X37540Y11540D02*
X38000Y12000D01*
X35927Y11540D02*
X37540Y11540D01*
X35497Y11971D02*
X35927Y11540D01*
X33646Y11971D02*
X35497Y11971D01*
X32060Y10384D02*
X33646Y11971D01*
X27778Y10384D02*
X32060Y10384D01*
X26846Y11316D02*
X27778Y10384D01*
X25683Y11316D02*
X26846Y11316D01*
X25000Y12000D02*
X25683Y11316D01*
X36699Y17699D02*
X37000Y18000D01*
X26098Y17699D02*
X36699Y17699D01*
X25570Y17172D02*
X26098Y17699D01*
X25570Y16570D02*
X25570Y17172D01*
X25000Y16000D02*
X25570Y16570D01*
X28972Y16304D02*
X28844Y16177D01*
X35528Y16304D02*
X28972Y16304D01*
X36165Y15667D02*
X35528Y16304D01*
X36165Y14834D02*
X36165Y15667D01*
X37000Y14000D02*
X36165Y14834D01*
X17000Y5650D02*
X16000Y5650D01*
X17000Y5000D02*
X17000Y5650D01*
X16000Y5000D02*
X16000Y5650D01*
X4082Y12137D02*
X815Y12137D01*
X300Y13041D02*
X300Y15405D01*
X620Y12721D02*
X300Y13041D01*
X815Y12721D02*
X620Y12721D01*
X815Y12275D02*
X815Y12721D01*
X6848Y6188D02*
X7500Y5537D01*
X1775Y6188D02*
X6848Y6188D01*
X35400Y15050D02*
X35400Y13800D01*
X35374Y15074D02*
X35400Y15050D01*
X35374Y15500D02*
X35374Y15074D01*
X38000Y7000D02*
X37000Y7000D01*
X29500Y15564D02*
X29422Y15642D01*
X29500Y13500D02*
X29500Y15564D01*
X30500Y11125D02*
X30500Y11165D01*
X29500Y12206D02*
X29500Y13500D01*
X30500Y11206D02*
X29500Y12206D01*
X30500Y11165D02*
X30500Y11206D01*
X9500Y5700D02*
X9500Y5375D01*
X9659Y5859D02*
X9500Y5700D01*
X15790Y5859D02*
X9659Y5859D01*
X16000Y5650D02*
X15790Y5859D01*
X6000Y14874D02*
X6000Y14875D01*
X7500Y5374D02*
X7500Y5375D01*
X7500Y5375D02*
X7500Y5537D01*
X815Y12275D02*
X815Y12137D01*
X1000Y11645D02*
X1000Y10000D01*
X815Y11830D02*
X1000Y11645D01*
X815Y12137D02*
X815Y11830D01*
X4417Y16259D02*
X4417Y16705D01*
X4778Y16259D02*
X4417Y16259D01*
X6000Y15037D02*
X4778Y16259D01*
X6000Y14875D02*
X6000Y15037D01*
X4417Y16705D02*
X4417Y16927D01*
X835Y16783D02*
X835Y16782D01*
X389Y16783D02*
X835Y16783D01*
X300Y16694D02*
X389Y16783D01*
X300Y15405D02*
X300Y16694D01*
X30000Y6917D02*
X30000Y6916D01*
X1340Y16842D02*
X3826Y16842D01*
X1280Y16783D02*
X1340Y16842D01*
X835Y16783D02*
X1280Y16783D01*
X4357Y16927D02*
X4417Y16927D01*
X4272Y16842D02*
X4357Y16927D01*
X3826Y16842D02*
X4272Y16842D01*
X3826Y16842D02*
X3827Y16842D01*
X4082Y12137D02*
X4082Y12137D01*
X795Y15405D02*
X794Y15405D01*
X794Y15405D02*
X300Y15405D01*
X794Y15405D02*
X795Y15405D01*
X11875Y31000D02*
X11875Y29000D01*
X11293Y28500D02*
X7750Y28500D01*
X11549Y28756D02*
X11293Y28500D01*
X11549Y29000D02*
X11549Y28756D01*
X11875Y29000D02*
X11549Y29000D01*
X8500Y5375D02*
X8500Y5374D01*
X9500Y5374D02*
X8500Y5374D01*
X9500Y5375D02*
X9500Y5374D01*
X7912Y5537D02*
X7500Y5537D01*
X8074Y5374D02*
X7912Y5537D01*
X8500Y5374D02*
X8074Y5374D01*
X30500Y11125D02*
X30500Y11125D01*
X35375Y15500D02*
X35374Y15500D01*
X31500Y11125D02*
X31500Y11125D01*
X31500Y11450D02*
X31500Y11125D01*
X31825Y11450D02*
X31500Y11450D01*
X33624Y13250D02*
X31825Y11450D01*
X35400Y13250D02*
X33624Y13250D01*
X35400Y13800D02*
X35400Y13250D01*
X31034Y11165D02*
X30500Y11165D01*
X31074Y11125D02*
X31034Y11165D01*
X31500Y11125D02*
X31074Y11125D01*
X18450Y1500D02*
X18000Y1500D01*
X18450Y1274D02*
X18450Y1500D01*
X18819Y905D02*
X18450Y1274D01*
X29369Y905D02*
X18819Y905D01*
X29577Y1114D02*
X29369Y905D01*
X30220Y1114D02*
X29577Y1114D01*
X30220Y1114D02*
X30220Y1114D01*
X32778Y1114D02*
X30220Y1114D01*
X32778Y1114D02*
X32779Y1114D01*
X1810Y23991D02*
X2430Y23370D01*
X1810Y25000D02*
X1810Y23991D01*
X2214Y25404D02*
X1810Y25000D01*
X4698Y25404D02*
X2214Y25404D01*
X5049Y25756D02*
X4698Y25404D01*
X5049Y26000D02*
X5049Y25756D01*
X5049Y22000D02*
X5212Y22000D01*
X5049Y20597D02*
X5049Y22000D01*
X4429Y19977D02*
X5049Y20597D01*
X4429Y16940D02*
X4429Y19977D01*
X4417Y16927D02*
X4429Y16940D01*
X5212Y22000D02*
X5375Y22000D01*
X2727Y23370D02*
X2430Y23370D01*
X2727Y23370D02*
X3024Y23370D01*
X5212Y22105D02*
X5212Y22000D01*
X3947Y23370D02*
X5212Y22105D01*
X3024Y23370D02*
X3947Y23370D01*
X4600Y32500D02*
X5450Y33350D01*
X4250Y32500D02*
X4600Y32500D01*
X6800Y28500D02*
X7750Y28500D01*
X5450Y27150D02*
X6800Y28500D01*
X30000Y6916D02*
X33999Y6916D01*
X34548Y7000D02*
X37000Y7000D01*
X34464Y6916D02*
X34548Y7000D01*
X33999Y6916D02*
X34464Y6916D01*
X33999Y6916D02*
X34000Y6917D01*
X34720Y1114D02*
X34720Y1114D01*
X34720Y1114D02*
X34720Y1114D01*
X34720Y1114D02*
X32778Y1114D01*
X5375Y26000D02*
X5212Y26000D01*
X5212Y26000D02*
X5049Y26000D01*
X5212Y27024D02*
X5218Y27031D01*
X5212Y26000D02*
X5212Y27024D01*
X5331Y27031D02*
X5218Y27031D01*
X5450Y27150D02*
X5331Y27031D01*
X5218Y27031D02*
X4250Y28000D01*
X12433Y10433D02*
X12000Y10000D01*
X14179Y10433D02*
X12433Y10433D01*
X14500Y10112D02*
X14179Y10433D01*
X14500Y9871D02*
X14500Y10112D01*
X16147Y8224D02*
X14500Y9871D01*
X36224Y8224D02*
X16147Y8224D01*
X37000Y9000D02*
X36224Y8224D01*
X795Y15838D02*
X795Y15838D01*
X795Y15838D02*
X1596Y15838D01*
X795Y15838D02*
X795Y15839D01*
X37500Y8500D02*
X38000Y9000D01*
X37500Y7827D02*
X37500Y8500D01*
X37195Y7523D02*
X37500Y7827D01*
X35782Y7523D02*
X37195Y7523D01*
X35525Y7779D02*
X35782Y7523D01*
X13220Y7779D02*
X35525Y7779D01*
X11000Y10000D02*
X13220Y7779D01*
X795Y14107D02*
X795Y14107D01*
X5434Y9565D02*
X5000Y10000D01*
X8189Y9565D02*
X5434Y9565D01*
X8429Y9805D02*
X8189Y9565D01*
X8429Y10181D02*
X8429Y9805D01*
X4503Y14107D02*
X8429Y10181D01*
X795Y14107D02*
X4503Y14107D01*
X795Y14107D02*
X795Y14107D01*
X8500Y4300D02*
X8500Y4625D01*
X6173Y1973D02*
X8500Y4300D01*
X5500Y1973D02*
X6173Y1973D01*
X5500Y1587D02*
X5500Y1973D01*
X8500Y4625D02*
X8500Y4625D01*
X9500Y3719D02*
X9500Y4625D01*
X7753Y1973D02*
X9500Y3719D01*
X7500Y1973D02*
X7753Y1973D01*
X7500Y1587D02*
X7500Y1973D01*
X9500Y4625D02*
X9500Y4625D01*
X6924Y4625D02*
X7499Y4625D01*
X3886Y1587D02*
X6924Y4625D01*
X3500Y1587D02*
X3886Y1587D01*
X7499Y4625D02*
X7500Y4625D01*
X7499Y4625D02*
X7500Y4625D01*
X4149Y25850D02*
X2984Y25850D01*
X4299Y26000D02*
X4149Y25850D01*
X4625Y26000D02*
X4299Y26000D01*
X4149Y22150D02*
X2984Y22150D01*
X4299Y22000D02*
X4149Y22150D01*
X4625Y22000D02*
X4299Y22000D01*
X1290Y22150D02*
X2130Y22150D01*
X2984Y22150D02*
X2130Y22150D01*
X1610Y23031D02*
X1610Y25677D01*
X2130Y22512D02*
X1610Y23031D01*
X2130Y22150D02*
X2130Y22512D01*
X1463Y25677D02*
X1610Y25677D01*
X1290Y25850D02*
X1463Y25677D01*
X2144Y25850D02*
X2984Y25850D01*
X1972Y25677D02*
X2144Y25850D01*
X1610Y25677D02*
X1972Y25677D01*
X11000Y11601D02*
X11000Y19000D01*
X9552Y10154D02*
X11000Y11601D01*
X9552Y9841D02*
X9552Y10154D01*
X12382Y7011D02*
X9552Y9841D01*
X17207Y7011D02*
X12382Y7011D01*
X18569Y5650D02*
X17207Y7011D01*
X35000Y5650D02*
X18569Y5650D01*
X35000Y5000D02*
X35000Y5650D01*
X12000Y11609D02*
X12000Y19000D01*
X10574Y10183D02*
X12000Y11609D01*
X10574Y9820D02*
X10574Y10183D01*
X12860Y7534D02*
X10574Y9820D01*
X16967Y7534D02*
X12860Y7534D01*
X18451Y6050D02*
X16967Y7534D01*
X35599Y6050D02*
X18451Y6050D01*
X36000Y5650D02*
X35599Y6050D01*
X36000Y5000D02*
X36000Y5650D01*
X32000Y23349D02*
X32000Y24000D01*
X31716Y23066D02*
X32000Y23349D01*
X18066Y23066D02*
X31716Y23066D01*
X14000Y19000D02*
X18066Y23066D01*
X15000Y8000D02*
X13000Y10000D01*
X37000Y8000D02*
X15000Y8000D01*
X795Y14972D02*
X795Y14972D01*
X1561Y14701D02*
X2948Y14701D01*
X1289Y14972D02*
X1561Y14701D01*
X795Y14972D02*
X1289Y14972D01*
X795Y14972D02*
X795Y14972D01*
X34000Y23349D02*
X34000Y24000D01*
X33295Y22645D02*
X34000Y23349D01*
X26044Y22645D02*
X33295Y22645D01*
X22572Y19173D02*
X26044Y22645D01*
X22572Y12427D02*
X22572Y19173D01*
X25000Y10000D02*
X22572Y12427D01*
X17349Y23349D02*
X13000Y19000D01*
X31000Y23349D02*
X17349Y23349D01*
X31000Y24000D02*
X31000Y23349D01*
X10425Y11425D02*
X9000Y10000D01*
X10425Y21324D02*
X10425Y11425D01*
X8400Y23349D02*
X10425Y21324D01*
X8400Y24000D02*
X8400Y23349D01*
X31500Y13500D02*
X31500Y11875D01*
X3500Y2799D02*
X3500Y2412D01*
X2110Y4188D02*
X3500Y2799D01*
X1775Y4188D02*
X2110Y4188D01*
X1775Y4811D02*
X1775Y4188D01*
X18000Y5650D02*
X18000Y5000D01*
X16838Y6811D02*
X18000Y5650D01*
X1493Y6811D02*
X16838Y6811D01*
X1153Y6471D02*
X1493Y6811D01*
X1153Y5900D02*
X1153Y6471D01*
X1619Y5433D02*
X1153Y5900D01*
X1775Y5433D02*
X1619Y5433D01*
X1775Y4811D02*
X1775Y5433D01*
X31500Y11874D02*
X31500Y11875D01*
X3755Y24629D02*
X3769Y24643D01*
X3024Y24629D02*
X3755Y24629D01*
X26437Y14562D02*
X26000Y15000D01*
X27718Y14562D02*
X26437Y14562D01*
X29132Y15975D02*
X27718Y14562D01*
X33242Y15975D02*
X29132Y15975D01*
X22000Y12601D02*
X22000Y19000D01*
X24500Y10101D02*
X22000Y12601D01*
X24500Y9892D02*
X24500Y10101D01*
X25183Y9209D02*
X24500Y9892D01*
X27275Y9209D02*
X25183Y9209D01*
X24568Y15431D02*
X25000Y15000D01*
X24568Y19183D02*
X24568Y15431D01*
X27385Y22000D02*
X24568Y19183D01*
X37000Y22000D02*
X27385Y22000D01*
X24405Y10990D02*
X26711Y10990D01*
X23000Y12396D02*
X24405Y10990D01*
X23000Y19000D02*
X23000Y12396D01*
X25500Y12500D02*
X25000Y13000D01*
X26102Y12500D02*
X25500Y12500D01*
X26425Y12177D02*
X26102Y12500D01*
X26425Y11958D02*
X26425Y12177D01*
X26866Y11516D02*
X26425Y11958D01*
X26964Y11516D02*
X26866Y11516D01*
X27896Y10584D02*
X26964Y11516D01*
X31977Y10584D02*
X27896Y10584D01*
X33566Y12174D02*
X31977Y10584D01*
X36825Y12174D02*
X33566Y12174D01*
X37000Y12000D02*
X36825Y12174D01*
X25500Y14500D02*
X25000Y14000D01*
X25500Y16102D02*
X25500Y14500D01*
X25968Y16570D02*
X25500Y16102D01*
X27272Y16570D02*
X25968Y16570D01*
X27701Y17000D02*
X27272Y16570D01*
X37000Y17000D02*
X27701Y17000D01*
M02*
