G04 (created by PCBNEW (2013-07-07 BZR 4022)-stable) date 18/10/2013 16:38:57*
%MOIN*%
G04 Gerber Fmt 3.4, Leading zero omitted, Abs format*
%FSLAX34Y34*%
G01*
G70*
G90*
G04 APERTURE LIST*
%ADD10C,0.00590551*%
%ADD11C,0.005*%
%ADD12C,0.008*%
%ADD13C,0.0039*%
%ADD14C,0.01*%
%ADD15C,0.006*%
%ADD16C,0.015*%
%ADD17C,0.0075*%
%ADD18C,0.012*%
%ADD19C,0.0031*%
%ADD20C,0.0026*%
%ADD21C,0.002*%
%ADD22C,0.004*%
%ADD23C,0.0001*%
%ADD24C,0.007*%
%ADD25C,0.0043*%
%ADD26C,0.0047*%
%ADD27C,0.011811*%
G04 APERTURE END LIST*
G54D10*
X0Y10500D02*
X500Y10500D01*
X500Y10500D02*
X500Y18500D01*
X500Y18500D02*
X0Y18500D01*
X0Y19500D02*
X-500Y19500D01*
X0Y9500D02*
X-500Y9500D01*
X1000Y19500D02*
X20000Y19500D01*
X20000Y9500D02*
X500Y9500D01*
X20000Y10500D02*
X20000Y18500D01*
X500Y9500D02*
X0Y9500D01*
X500Y19500D02*
X0Y19500D01*
X-500Y7500D02*
X-500Y21000D01*
X-500Y21000D02*
X27500Y21000D01*
X27500Y21000D02*
X27500Y7500D01*
X27500Y7500D02*
X-500Y7500D01*
X1000Y19500D02*
X500Y19500D01*
X27500Y9500D02*
X27500Y19500D01*
G54D11*
X32129Y2000D02*
G75*
G03X32129Y2000I-630J0D01*
G74*
G01*
X30318Y3181D02*
X30318Y819D01*
X30319Y819D02*
X32681Y819D01*
X32681Y820D02*
X32681Y3182D01*
X32681Y3181D02*
X30319Y3181D01*
G54D12*
X35900Y13100D02*
X35900Y14300D01*
X35900Y14300D02*
X33100Y14300D01*
X33100Y14300D02*
X33100Y13100D01*
X35900Y11900D02*
X35900Y11600D01*
X35900Y11600D02*
X35300Y10700D01*
X35300Y10700D02*
X33700Y10700D01*
X33700Y10700D02*
X33100Y11600D01*
X33100Y11600D02*
X33100Y11900D01*
G54D13*
X4400Y21700D02*
G75*
G03X4400Y21700I-50J0D01*
G74*
G01*
X4800Y21700D02*
X4400Y21700D01*
X4400Y21700D02*
X4400Y22300D01*
X4400Y22300D02*
X4800Y22300D01*
X5200Y22300D02*
X5600Y22300D01*
X5600Y22300D02*
X5600Y21700D01*
X5600Y21700D02*
X5200Y21700D01*
X4400Y25700D02*
G75*
G03X4400Y25700I-50J0D01*
G74*
G01*
X4800Y25700D02*
X4400Y25700D01*
X4400Y25700D02*
X4400Y26300D01*
X4400Y26300D02*
X4800Y26300D01*
X5200Y26300D02*
X5600Y26300D01*
X5600Y26300D02*
X5600Y25700D01*
X5600Y25700D02*
X5200Y25700D01*
X31250Y12150D02*
G75*
G03X31250Y12150I-50J0D01*
G74*
G01*
X31200Y11700D02*
X31200Y12100D01*
X31200Y12100D02*
X31800Y12100D01*
X31800Y12100D02*
X31800Y11700D01*
X31800Y11300D02*
X31800Y10900D01*
X31800Y10900D02*
X31200Y10900D01*
X31200Y10900D02*
X31200Y11300D01*
X6350Y13850D02*
G75*
G03X6350Y13850I-50J0D01*
G74*
G01*
X6300Y14300D02*
X6300Y13900D01*
X6300Y13900D02*
X5700Y13900D01*
X5700Y13900D02*
X5700Y14300D01*
X5700Y14700D02*
X5700Y15100D01*
X5700Y15100D02*
X6300Y15100D01*
X6300Y15100D02*
X6300Y14700D01*
X34400Y15200D02*
G75*
G03X34400Y15200I-50J0D01*
G74*
G01*
X34800Y15200D02*
X34400Y15200D01*
X34400Y15200D02*
X34400Y15800D01*
X34400Y15800D02*
X34800Y15800D01*
X35200Y15800D02*
X35600Y15800D01*
X35600Y15800D02*
X35600Y15200D01*
X35600Y15200D02*
X35200Y15200D01*
X30250Y12150D02*
G75*
G03X30250Y12150I-50J0D01*
G74*
G01*
X30200Y11700D02*
X30200Y12100D01*
X30200Y12100D02*
X30800Y12100D01*
X30800Y12100D02*
X30800Y11700D01*
X30800Y11300D02*
X30800Y10900D01*
X30800Y10900D02*
X30200Y10900D01*
X30200Y10900D02*
X30200Y11300D01*
X9850Y4350D02*
G75*
G03X9850Y4350I-50J0D01*
G74*
G01*
X9800Y4800D02*
X9800Y4400D01*
X9800Y4400D02*
X9200Y4400D01*
X9200Y4400D02*
X9200Y4800D01*
X9200Y5200D02*
X9200Y5600D01*
X9200Y5600D02*
X9800Y5600D01*
X9800Y5600D02*
X9800Y5200D01*
X8850Y4350D02*
G75*
G03X8850Y4350I-50J0D01*
G74*
G01*
X8800Y4800D02*
X8800Y4400D01*
X8800Y4400D02*
X8200Y4400D01*
X8200Y4400D02*
X8200Y4800D01*
X8200Y5200D02*
X8200Y5600D01*
X8200Y5600D02*
X8800Y5600D01*
X8800Y5600D02*
X8800Y5200D01*
X7850Y4350D02*
G75*
G03X7850Y4350I-50J0D01*
G74*
G01*
X7800Y4800D02*
X7800Y4400D01*
X7800Y4400D02*
X7200Y4400D01*
X7200Y4400D02*
X7200Y4800D01*
X7200Y5200D02*
X7200Y5600D01*
X7200Y5600D02*
X7800Y5600D01*
X7800Y5600D02*
X7800Y5200D01*
G54D14*
X12000Y33500D02*
X16000Y33500D01*
X12000Y32500D02*
X16000Y32500D01*
X16000Y32500D02*
X16000Y33500D01*
X12000Y33500D02*
X12000Y32500D01*
G54D15*
X12500Y3000D02*
X13500Y3000D01*
X13500Y3000D02*
X13500Y1000D01*
X13500Y1000D02*
X12500Y1000D01*
X12500Y1000D02*
X12500Y3000D01*
X9500Y3000D02*
X10500Y3000D01*
X10500Y3000D02*
X10500Y1000D01*
X10500Y1000D02*
X9500Y1000D01*
X9500Y1000D02*
X9500Y3000D01*
X11000Y3000D02*
X12000Y3000D01*
X12000Y3000D02*
X12000Y1000D01*
X12000Y1000D02*
X11000Y1000D01*
X11000Y1000D02*
X11000Y3000D01*
X16000Y1000D02*
X15000Y1000D01*
X15000Y1000D02*
X15000Y3000D01*
X15000Y3000D02*
X16000Y3000D01*
X16000Y3000D02*
X16000Y1000D01*
G54D16*
X5047Y16863D02*
X5047Y12138D01*
X539Y12138D02*
X539Y12945D01*
X539Y16863D02*
X539Y16567D01*
X5048Y12137D02*
X540Y12137D01*
X1386Y16863D02*
X1386Y12138D01*
X1386Y14500D02*
X1760Y14500D01*
X5048Y16862D02*
X540Y16862D01*
G54D17*
X-205Y22465D02*
X425Y22465D01*
X-205Y25535D02*
X425Y25535D01*
X-205Y22465D02*
X-205Y25535D01*
G54D12*
X3340Y23021D02*
X3340Y22721D01*
X3340Y25329D02*
X3340Y24979D01*
G54D11*
X184Y24500D02*
X1434Y24250D01*
X1434Y24250D02*
X1434Y23750D01*
X1434Y23750D02*
X184Y23500D01*
X1184Y22750D02*
X184Y22875D01*
X184Y22875D02*
X184Y23125D01*
X184Y23125D02*
X1184Y23250D01*
X1184Y25250D02*
X184Y25125D01*
X184Y25125D02*
X184Y24875D01*
X184Y24875D02*
X1184Y24750D01*
G54D18*
X36878Y24000D02*
G75*
G03X36878Y24000I-1378J0D01*
G74*
G01*
X7378Y24000D02*
G75*
G03X7378Y24000I-1378J0D01*
G74*
G01*
X39378Y5000D02*
G75*
G03X39378Y5000I-1378J0D01*
G74*
G01*
X6878Y5000D02*
G75*
G03X6878Y5000I-1378J0D01*
G74*
G01*
G54D10*
X6500Y5000D02*
G75*
G03X6500Y5000I-1000J0D01*
G74*
G01*
X39000Y5000D02*
G75*
G03X39000Y5000I-1000J0D01*
G74*
G01*
X36500Y24000D02*
G75*
G03X36500Y24000I-1000J0D01*
G74*
G01*
X7000Y24000D02*
G75*
G03X7000Y24000I-1000J0D01*
G74*
G01*
G54D11*
X29700Y6850D02*
X30300Y6850D01*
X30450Y6900D02*
X29550Y6900D01*
X29450Y6950D02*
X30550Y6950D01*
X30650Y7000D02*
X29350Y7000D01*
X29300Y7050D02*
X30700Y7050D01*
X31200Y8000D02*
G75*
G03X31200Y8000I-1200J0D01*
G74*
G01*
X28700Y6700D02*
X31300Y6700D01*
X31300Y6700D02*
X31300Y9000D01*
X31300Y9000D02*
X31000Y9300D01*
X31000Y9300D02*
X29000Y9300D01*
X29000Y9300D02*
X28700Y9000D01*
X28700Y9000D02*
X28700Y6700D01*
X30000Y8850D02*
X30000Y8550D01*
X29850Y8700D02*
X30150Y8700D01*
X33700Y6850D02*
X34300Y6850D01*
X34450Y6900D02*
X33550Y6900D01*
X33450Y6950D02*
X34550Y6950D01*
X34650Y7000D02*
X33350Y7000D01*
X33300Y7050D02*
X34700Y7050D01*
X35200Y8000D02*
G75*
G03X35200Y8000I-1200J0D01*
G74*
G01*
X32700Y6700D02*
X35300Y6700D01*
X35300Y6700D02*
X35300Y9000D01*
X35300Y9000D02*
X35000Y9300D01*
X35000Y9300D02*
X33000Y9300D01*
X33000Y9300D02*
X32700Y9000D01*
X32700Y9000D02*
X32700Y6700D01*
X34000Y8850D02*
X34000Y8550D01*
X33850Y8700D02*
X34150Y8700D01*
G54D12*
X2050Y3900D02*
X2300Y3900D01*
X2300Y3900D02*
X2300Y7100D01*
X2300Y7100D02*
X1900Y7100D01*
X-50Y3900D02*
X-450Y3650D01*
X-450Y5500D02*
X-450Y7350D01*
X-450Y7350D02*
X-50Y7100D01*
X-450Y5500D02*
X-450Y3650D01*
X1900Y7100D02*
X-50Y7100D01*
X2050Y3900D02*
X-50Y3900D01*
G54D16*
X161Y5500D02*
X3Y5500D01*
X594Y6877D02*
X594Y4122D01*
X161Y6877D02*
X161Y4122D01*
X2996Y6877D02*
X3Y6877D01*
X3Y4122D02*
X2996Y4122D01*
X2996Y4122D02*
X2996Y6877D01*
G54D18*
X18500Y2000D02*
X18500Y1000D01*
X17500Y1000D02*
X17500Y2000D01*
X17500Y2000D02*
X23500Y2000D01*
X23500Y2000D02*
X23500Y1000D01*
X23500Y1000D02*
X17500Y1000D01*
X29500Y13500D02*
X29500Y15500D01*
X30500Y13500D02*
X30500Y15500D01*
X31500Y13500D02*
X31500Y15500D01*
X32500Y15500D02*
X32500Y21500D01*
X32500Y21500D02*
X28500Y21500D01*
X28500Y21500D02*
X28500Y15500D01*
X28500Y15500D02*
X32500Y15500D01*
X32000Y18500D02*
X28500Y18500D01*
X32000Y18500D02*
X32500Y18500D01*
G54D19*
X4100Y1700D02*
G75*
G03X4100Y1700I-120J0D01*
G74*
G01*
X3255Y2400D02*
X3255Y1600D01*
X3745Y2400D02*
X3745Y1605D01*
X3365Y1600D02*
X3255Y1600D01*
X3635Y1605D02*
X3735Y1605D01*
X3365Y2400D02*
X3255Y2400D01*
X3745Y2400D02*
X3635Y2400D01*
G54D20*
X3382Y1804D02*
X3254Y1804D01*
X3627Y1804D02*
X3568Y1804D01*
X3432Y1804D02*
X3373Y1804D01*
X3578Y1804D02*
X3422Y1804D01*
X3382Y2196D02*
X3254Y2196D01*
X3746Y2196D02*
X3618Y2196D01*
X3432Y2196D02*
X3373Y2196D01*
X3627Y2196D02*
X3568Y2196D01*
X3578Y2196D02*
X3422Y2196D01*
X3539Y2040D02*
X3461Y2040D01*
X3461Y2040D02*
X3461Y1962D01*
X3539Y1962D02*
X3461Y1962D01*
X3539Y2040D02*
X3539Y1962D01*
X3736Y1804D02*
X3618Y1804D01*
G54D21*
X3715Y1691D02*
G75*
G03X3715Y1691I-28J0D01*
G74*
G01*
G54D22*
X3637Y1607D02*
G75*
G03X3363Y1607I-137J0D01*
G74*
G01*
X3363Y2393D02*
G75*
G03X3637Y2393I137J0D01*
G74*
G01*
G54D19*
X6100Y1700D02*
G75*
G03X6100Y1700I-120J0D01*
G74*
G01*
X5255Y2400D02*
X5255Y1600D01*
X5745Y2400D02*
X5745Y1605D01*
X5365Y1600D02*
X5255Y1600D01*
X5635Y1605D02*
X5735Y1605D01*
X5365Y2400D02*
X5255Y2400D01*
X5745Y2400D02*
X5635Y2400D01*
G54D20*
X5382Y1804D02*
X5254Y1804D01*
X5627Y1804D02*
X5568Y1804D01*
X5432Y1804D02*
X5373Y1804D01*
X5578Y1804D02*
X5422Y1804D01*
X5382Y2196D02*
X5254Y2196D01*
X5746Y2196D02*
X5618Y2196D01*
X5432Y2196D02*
X5373Y2196D01*
X5627Y2196D02*
X5568Y2196D01*
X5578Y2196D02*
X5422Y2196D01*
X5539Y2040D02*
X5461Y2040D01*
X5461Y2040D02*
X5461Y1962D01*
X5539Y1962D02*
X5461Y1962D01*
X5539Y2040D02*
X5539Y1962D01*
X5736Y1804D02*
X5618Y1804D01*
G54D21*
X5715Y1691D02*
G75*
G03X5715Y1691I-28J0D01*
G74*
G01*
G54D22*
X5637Y1607D02*
G75*
G03X5363Y1607I-137J0D01*
G74*
G01*
X5363Y2393D02*
G75*
G03X5637Y2393I137J0D01*
G74*
G01*
G54D19*
X8100Y1700D02*
G75*
G03X8100Y1700I-120J0D01*
G74*
G01*
X7255Y2400D02*
X7255Y1600D01*
X7745Y2400D02*
X7745Y1605D01*
X7365Y1600D02*
X7255Y1600D01*
X7635Y1605D02*
X7735Y1605D01*
X7365Y2400D02*
X7255Y2400D01*
X7745Y2400D02*
X7635Y2400D01*
G54D20*
X7382Y1804D02*
X7254Y1804D01*
X7627Y1804D02*
X7568Y1804D01*
X7432Y1804D02*
X7373Y1804D01*
X7578Y1804D02*
X7422Y1804D01*
X7382Y2196D02*
X7254Y2196D01*
X7746Y2196D02*
X7618Y2196D01*
X7432Y2196D02*
X7373Y2196D01*
X7627Y2196D02*
X7568Y2196D01*
X7578Y2196D02*
X7422Y2196D01*
X7539Y2040D02*
X7461Y2040D01*
X7461Y2040D02*
X7461Y1962D01*
X7539Y1962D02*
X7461Y1962D01*
X7539Y2040D02*
X7539Y1962D01*
X7736Y1804D02*
X7618Y1804D01*
G54D21*
X7715Y1691D02*
G75*
G03X7715Y1691I-28J0D01*
G74*
G01*
G54D22*
X7637Y1607D02*
G75*
G03X7363Y1607I-137J0D01*
G74*
G01*
X7363Y2393D02*
G75*
G03X7637Y2393I137J0D01*
G74*
G01*
G54D11*
X36629Y2000D02*
G75*
G03X36629Y2000I-630J0D01*
G74*
G01*
X34818Y3181D02*
X34818Y819D01*
X34819Y819D02*
X37181Y819D01*
X37181Y820D02*
X37181Y3182D01*
X37181Y3181D02*
X34819Y3181D01*
G54D13*
X10900Y30700D02*
G75*
G03X10900Y30700I-50J0D01*
G74*
G01*
X11300Y30700D02*
X10900Y30700D01*
X10900Y30700D02*
X10900Y31300D01*
X10900Y31300D02*
X11300Y31300D01*
X11700Y31300D02*
X12100Y31300D01*
X12100Y31300D02*
X12100Y30700D01*
X12100Y30700D02*
X11700Y30700D01*
X10900Y28700D02*
G75*
G03X10900Y28700I-50J0D01*
G74*
G01*
X11300Y28700D02*
X10900Y28700D01*
X10900Y28700D02*
X10900Y29300D01*
X10900Y29300D02*
X11300Y29300D01*
X11700Y29300D02*
X12100Y29300D01*
X12100Y29300D02*
X12100Y28700D01*
X12100Y28700D02*
X11700Y28700D01*
G54D23*
G36*
X34722Y29482D02*
X34745Y29494D01*
X34796Y29526D01*
X34869Y29574D01*
X34956Y29632D01*
X35043Y29691D01*
X35114Y29739D01*
X35164Y29771D01*
X35185Y29782D01*
X35196Y29778D01*
X35237Y29758D01*
X35297Y29727D01*
X35332Y29709D01*
X35387Y29686D01*
X35414Y29681D01*
X35419Y29688D01*
X35439Y29730D01*
X35470Y29802D01*
X35512Y29897D01*
X35559Y30008D01*
X35610Y30128D01*
X35661Y30250D01*
X35709Y30367D01*
X35752Y30472D01*
X35786Y30557D01*
X35809Y30616D01*
X35817Y30642D01*
X35815Y30647D01*
X35787Y30674D01*
X35739Y30710D01*
X35636Y30794D01*
X35533Y30922D01*
X35471Y31067D01*
X35450Y31228D01*
X35468Y31378D01*
X35527Y31522D01*
X35627Y31651D01*
X35748Y31747D01*
X35890Y31808D01*
X36050Y31827D01*
X36203Y31810D01*
X36349Y31752D01*
X36479Y31654D01*
X36533Y31591D01*
X36608Y31460D01*
X36651Y31320D01*
X36656Y31284D01*
X36649Y31130D01*
X36604Y30983D01*
X36523Y30851D01*
X36410Y30743D01*
X36396Y30732D01*
X36343Y30693D01*
X36308Y30666D01*
X36281Y30644D01*
X36477Y30172D01*
X36508Y30097D01*
X36562Y29968D01*
X36609Y29857D01*
X36647Y29769D01*
X36673Y29710D01*
X36685Y29686D01*
X36686Y29685D01*
X36703Y29682D01*
X36739Y29695D01*
X36805Y29727D01*
X36849Y29749D01*
X36899Y29773D01*
X36921Y29782D01*
X36940Y29772D01*
X36988Y29741D01*
X37058Y29694D01*
X37143Y29636D01*
X37223Y29582D01*
X37297Y29533D01*
X37351Y29499D01*
X37377Y29485D01*
X37381Y29485D01*
X37404Y29498D01*
X37446Y29533D01*
X37511Y29594D01*
X37602Y29684D01*
X37616Y29697D01*
X37690Y29773D01*
X37751Y29837D01*
X37792Y29882D01*
X37806Y29903D01*
X37806Y29903D01*
X37793Y29929D01*
X37759Y29982D01*
X37710Y30057D01*
X37650Y30145D01*
X37494Y30372D01*
X37580Y30586D01*
X37606Y30651D01*
X37640Y30731D01*
X37665Y30788D01*
X37677Y30813D01*
X37701Y30821D01*
X37759Y30835D01*
X37844Y30853D01*
X37946Y30872D01*
X38042Y30889D01*
X38129Y30906D01*
X38193Y30918D01*
X38221Y30924D01*
X38228Y30928D01*
X38233Y30941D01*
X38237Y30971D01*
X38239Y31024D01*
X38240Y31108D01*
X38240Y31228D01*
X38240Y31241D01*
X38239Y31357D01*
X38237Y31448D01*
X38234Y31509D01*
X38230Y31532D01*
X38230Y31533D01*
X38203Y31539D01*
X38141Y31552D01*
X38054Y31569D01*
X37950Y31589D01*
X37943Y31590D01*
X37840Y31610D01*
X37753Y31628D01*
X37692Y31642D01*
X37666Y31650D01*
X37661Y31658D01*
X37640Y31698D01*
X37610Y31762D01*
X37576Y31841D01*
X37542Y31922D01*
X37513Y31995D01*
X37493Y32050D01*
X37487Y32075D01*
X37488Y32075D01*
X37503Y32100D01*
X37539Y32154D01*
X37589Y32229D01*
X37650Y32317D01*
X37654Y32323D01*
X37714Y32411D01*
X37762Y32485D01*
X37794Y32538D01*
X37806Y32562D01*
X37806Y32563D01*
X37786Y32589D01*
X37742Y32639D01*
X37678Y32706D01*
X37601Y32783D01*
X37577Y32807D01*
X37492Y32890D01*
X37432Y32945D01*
X37396Y32974D01*
X37378Y32980D01*
X37377Y32980D01*
X37351Y32964D01*
X37296Y32928D01*
X37221Y32877D01*
X37132Y32816D01*
X37126Y32812D01*
X37038Y32753D01*
X36965Y32703D01*
X36913Y32669D01*
X36891Y32655D01*
X36887Y32655D01*
X36851Y32666D01*
X36789Y32688D01*
X36712Y32717D01*
X36631Y32750D01*
X36558Y32781D01*
X36502Y32806D01*
X36476Y32821D01*
X36476Y32822D01*
X36466Y32853D01*
X36451Y32919D01*
X36433Y33009D01*
X36412Y33116D01*
X36409Y33134D01*
X36389Y33238D01*
X36372Y33324D01*
X36360Y33384D01*
X36354Y33408D01*
X36339Y33412D01*
X36288Y33416D01*
X36210Y33418D01*
X36116Y33419D01*
X36017Y33418D01*
X35920Y33416D01*
X35837Y33413D01*
X35778Y33409D01*
X35754Y33404D01*
X35753Y33403D01*
X35744Y33370D01*
X35729Y33305D01*
X35711Y33214D01*
X35690Y33106D01*
X35686Y33087D01*
X35667Y32983D01*
X35649Y32898D01*
X35637Y32839D01*
X35630Y32816D01*
X35621Y32811D01*
X35578Y32792D01*
X35508Y32763D01*
X35422Y32728D01*
X35221Y32647D01*
X34975Y32816D01*
X34952Y32831D01*
X34864Y32891D01*
X34791Y32940D01*
X34741Y32972D01*
X34720Y32984D01*
X34718Y32983D01*
X34694Y32962D01*
X34645Y32916D01*
X34578Y32851D01*
X34501Y32774D01*
X34444Y32717D01*
X34376Y32648D01*
X34333Y32602D01*
X34310Y32572D01*
X34301Y32554D01*
X34303Y32542D01*
X34319Y32517D01*
X34355Y32463D01*
X34406Y32388D01*
X34466Y32301D01*
X34515Y32229D01*
X34568Y32146D01*
X34603Y32087D01*
X34615Y32058D01*
X34612Y32046D01*
X34595Y31998D01*
X34566Y31925D01*
X34529Y31839D01*
X34443Y31644D01*
X34316Y31619D01*
X34238Y31605D01*
X34130Y31584D01*
X34027Y31564D01*
X33865Y31533D01*
X33859Y30939D01*
X33884Y30928D01*
X33908Y30922D01*
X33968Y30908D01*
X34054Y30891D01*
X34154Y30872D01*
X34240Y30856D01*
X34327Y30840D01*
X34389Y30828D01*
X34417Y30822D01*
X34424Y30813D01*
X34445Y30771D01*
X34476Y30704D01*
X34510Y30624D01*
X34545Y30541D01*
X34575Y30464D01*
X34597Y30406D01*
X34605Y30375D01*
X34593Y30353D01*
X34560Y30302D01*
X34512Y30229D01*
X34454Y30143D01*
X34395Y30057D01*
X34345Y29984D01*
X34311Y29931D01*
X34296Y29907D01*
X34303Y29890D01*
X34338Y29849D01*
X34403Y29781D01*
X34499Y29686D01*
X34515Y29671D01*
X34592Y29597D01*
X34657Y29537D01*
X34702Y29497D01*
X34722Y29482D01*
X34722Y29482D01*
G37*
G54D24*
X1150Y27050D02*
X1150Y33450D01*
X8650Y33450D02*
X0Y33450D01*
X8650Y27050D02*
X0Y27050D01*
X8650Y27050D02*
X8650Y33450D01*
X0Y33450D02*
X0Y27050D01*
G54D18*
X12100Y14416D02*
X12100Y13916D01*
X12066Y13816D01*
X12000Y13750D01*
X11900Y13716D01*
X11833Y13716D01*
X12800Y13716D02*
X12400Y13716D01*
X12600Y13716D02*
X12600Y14416D01*
X12533Y14316D01*
X12466Y14250D01*
X12400Y14216D01*
X13233Y14416D02*
X13300Y14416D01*
X13366Y14383D01*
X13400Y14350D01*
X13433Y14283D01*
X13466Y14150D01*
X13466Y13983D01*
X13433Y13850D01*
X13400Y13783D01*
X13366Y13750D01*
X13300Y13716D01*
X13233Y13716D01*
X13166Y13750D01*
X13133Y13783D01*
X13100Y13850D01*
X13066Y13983D01*
X13066Y14150D01*
X13100Y14283D01*
X13133Y14350D01*
X13166Y14383D01*
X13233Y14416D01*
X14133Y13716D02*
X13733Y13716D01*
X13933Y13716D02*
X13933Y14416D01*
X13866Y14316D01*
X13800Y14250D01*
X13733Y14216D01*
X7447Y16736D02*
X7138Y16736D01*
X7138Y17386D01*
X7664Y16736D02*
X7664Y17386D01*
X7911Y17386D01*
X7973Y17355D01*
X8004Y17325D01*
X8035Y17263D01*
X8035Y17170D01*
X8004Y17108D01*
X7973Y17077D01*
X7911Y17046D01*
X7664Y17046D01*
X8685Y16798D02*
X8654Y16767D01*
X8561Y16736D01*
X8500Y16736D01*
X8407Y16767D01*
X8345Y16829D01*
X8314Y16891D01*
X8283Y17015D01*
X8283Y17108D01*
X8314Y17232D01*
X8345Y17294D01*
X8407Y17355D01*
X8500Y17386D01*
X8561Y17386D01*
X8654Y17355D01*
X8685Y17325D01*
X8902Y17386D02*
X9335Y16736D01*
X9335Y17386D02*
X8902Y16736D01*
X9583Y16736D02*
X9583Y17386D01*
X9830Y17386D01*
X9892Y17355D01*
X9923Y17325D01*
X9954Y17263D01*
X9954Y17170D01*
X9923Y17108D01*
X9892Y17077D01*
X9830Y17046D01*
X9583Y17046D01*
X10604Y16736D02*
X10388Y17046D01*
X10233Y16736D02*
X10233Y17386D01*
X10480Y17386D01*
X10542Y17355D01*
X10573Y17325D01*
X10604Y17263D01*
X10604Y17170D01*
X10573Y17108D01*
X10542Y17077D01*
X10480Y17046D01*
X10233Y17046D01*
X10883Y17077D02*
X11100Y17077D01*
X11192Y16736D02*
X10883Y16736D01*
X10883Y17386D01*
X11192Y17386D01*
X11440Y16767D02*
X11533Y16736D01*
X11688Y16736D01*
X11750Y16767D01*
X11780Y16798D01*
X11811Y16860D01*
X11811Y16922D01*
X11780Y16984D01*
X11750Y17015D01*
X11688Y17046D01*
X11564Y17077D01*
X11502Y17108D01*
X11471Y17139D01*
X11440Y17201D01*
X11440Y17263D01*
X11471Y17325D01*
X11502Y17355D01*
X11564Y17386D01*
X11719Y17386D01*
X11811Y17355D01*
X12059Y16767D02*
X12152Y16736D01*
X12307Y16736D01*
X12369Y16767D01*
X12400Y16798D01*
X12430Y16860D01*
X12430Y16922D01*
X12400Y16984D01*
X12369Y17015D01*
X12307Y17046D01*
X12183Y17077D01*
X12121Y17108D01*
X12090Y17139D01*
X12059Y17201D01*
X12059Y17263D01*
X12090Y17325D01*
X12121Y17355D01*
X12183Y17386D01*
X12338Y17386D01*
X12430Y17355D01*
X12833Y17386D02*
X12957Y17386D01*
X13019Y17355D01*
X13080Y17294D01*
X13111Y17170D01*
X13111Y16953D01*
X13080Y16829D01*
X13019Y16767D01*
X12957Y16736D01*
X12833Y16736D01*
X12771Y16767D01*
X12709Y16829D01*
X12678Y16953D01*
X12678Y17170D01*
X12709Y17294D01*
X12771Y17355D01*
X12833Y17386D01*
X13235Y16675D02*
X13730Y16675D01*
X14226Y16736D02*
X13854Y16736D01*
X14040Y16736D02*
X14040Y17386D01*
X13978Y17294D01*
X13916Y17232D01*
X13854Y17201D01*
X14442Y17386D02*
X14876Y17386D01*
X14597Y16736D01*
X15402Y17386D02*
X15278Y17386D01*
X15216Y17355D01*
X15185Y17325D01*
X15123Y17232D01*
X15092Y17108D01*
X15092Y16860D01*
X15123Y16798D01*
X15154Y16767D01*
X15216Y16736D01*
X15340Y16736D01*
X15402Y16767D01*
X15433Y16798D01*
X15464Y16860D01*
X15464Y17015D01*
X15433Y17077D01*
X15402Y17108D01*
X15340Y17139D01*
X15216Y17139D01*
X15154Y17108D01*
X15123Y17077D01*
X15092Y17015D01*
X15773Y16736D02*
X15897Y16736D01*
X15959Y16767D01*
X15990Y16798D01*
X16052Y16891D01*
X16083Y17015D01*
X16083Y17263D01*
X16052Y17325D01*
X16021Y17355D01*
X15959Y17386D01*
X15835Y17386D01*
X15773Y17355D01*
X15742Y17325D01*
X15711Y17263D01*
X15711Y17108D01*
X15742Y17046D01*
X15773Y17015D01*
X15835Y16984D01*
X15959Y16984D01*
X16021Y17015D01*
X16052Y17046D01*
X16083Y17108D01*
X16207Y16675D02*
X16702Y16675D01*
X16857Y16736D02*
X16857Y17386D01*
X16857Y17077D02*
X17228Y17077D01*
X17228Y16736D02*
X17228Y17386D01*
X17538Y17077D02*
X17754Y17077D01*
X17847Y16736D02*
X17538Y16736D01*
X17538Y17386D01*
X17847Y17386D01*
X18095Y16922D02*
X18404Y16922D01*
X18033Y16736D02*
X18250Y17386D01*
X18466Y16736D01*
X18683Y16736D02*
X18683Y17386D01*
X18838Y17386D01*
X18930Y17355D01*
X18992Y17294D01*
X19023Y17232D01*
X19054Y17108D01*
X19054Y17015D01*
X19023Y16891D01*
X18992Y16829D01*
X18930Y16767D01*
X18838Y16736D01*
X18683Y16736D01*
X19333Y17077D02*
X19550Y17077D01*
X19642Y16736D02*
X19333Y16736D01*
X19333Y17386D01*
X19642Y17386D01*
X20292Y16736D02*
X20076Y17046D01*
X19921Y16736D02*
X19921Y17386D01*
X20169Y17386D01*
X20230Y17355D01*
X20261Y17325D01*
X20292Y17263D01*
X20292Y17170D01*
X20261Y17108D01*
X20230Y17077D01*
X20169Y17046D01*
X19921Y17046D01*
G54D12*
X30585Y3432D02*
X30642Y3413D01*
X30738Y3413D01*
X30776Y3432D01*
X30795Y3451D01*
X30814Y3489D01*
X30814Y3527D01*
X30795Y3565D01*
X30776Y3584D01*
X30738Y3603D01*
X30661Y3622D01*
X30623Y3641D01*
X30604Y3660D01*
X30585Y3698D01*
X30585Y3736D01*
X30604Y3775D01*
X30623Y3794D01*
X30661Y3813D01*
X30757Y3813D01*
X30814Y3794D01*
X30947Y3813D02*
X31042Y3413D01*
X31119Y3698D01*
X31195Y3413D01*
X31290Y3813D01*
X31423Y3775D02*
X31442Y3794D01*
X31480Y3813D01*
X31576Y3813D01*
X31614Y3794D01*
X31633Y3775D01*
X31652Y3736D01*
X31652Y3698D01*
X31633Y3641D01*
X31404Y3413D01*
X31652Y3413D01*
X31900Y3813D02*
X31938Y3813D01*
X31976Y3794D01*
X31995Y3775D01*
X32014Y3736D01*
X32033Y3660D01*
X32033Y3565D01*
X32014Y3489D01*
X31995Y3451D01*
X31976Y3432D01*
X31938Y3413D01*
X31900Y3413D01*
X31861Y3432D01*
X31842Y3451D01*
X31823Y3489D01*
X31804Y3565D01*
X31804Y3660D01*
X31823Y3736D01*
X31842Y3775D01*
X31861Y3794D01*
X31900Y3813D01*
X32185Y3775D02*
X32204Y3794D01*
X32242Y3813D01*
X32338Y3813D01*
X32376Y3794D01*
X32395Y3775D01*
X32414Y3736D01*
X32414Y3698D01*
X32395Y3641D01*
X32166Y3413D01*
X32414Y3413D01*
X30109Y472D02*
X30166Y453D01*
X30185Y434D01*
X30204Y396D01*
X30204Y339D01*
X30185Y301D01*
X30166Y282D01*
X30128Y263D01*
X29976Y263D01*
X29976Y663D01*
X30109Y663D01*
X30147Y644D01*
X30166Y625D01*
X30185Y586D01*
X30185Y548D01*
X30166Y510D01*
X30147Y491D01*
X30109Y472D01*
X29976Y472D01*
X30433Y263D02*
X30395Y282D01*
X30376Y301D01*
X30357Y339D01*
X30357Y453D01*
X30376Y491D01*
X30395Y510D01*
X30433Y529D01*
X30490Y529D01*
X30528Y510D01*
X30547Y491D01*
X30566Y453D01*
X30566Y339D01*
X30547Y301D01*
X30528Y282D01*
X30490Y263D01*
X30433Y263D01*
X30795Y263D02*
X30757Y282D01*
X30738Y301D01*
X30719Y339D01*
X30719Y453D01*
X30738Y491D01*
X30757Y510D01*
X30795Y529D01*
X30852Y529D01*
X30890Y510D01*
X30909Y491D01*
X30928Y453D01*
X30928Y339D01*
X30909Y301D01*
X30890Y282D01*
X30852Y263D01*
X30795Y263D01*
X31042Y529D02*
X31195Y529D01*
X31100Y663D02*
X31100Y320D01*
X31119Y282D01*
X31157Y263D01*
X31195Y263D01*
X31385Y263D02*
X31347Y282D01*
X31328Y320D01*
X31328Y663D01*
X31595Y263D02*
X31557Y282D01*
X31538Y301D01*
X31519Y339D01*
X31519Y453D01*
X31538Y491D01*
X31557Y510D01*
X31595Y529D01*
X31652Y529D01*
X31690Y510D01*
X31709Y491D01*
X31728Y453D01*
X31728Y339D01*
X31709Y301D01*
X31690Y282D01*
X31652Y263D01*
X31595Y263D01*
X32071Y263D02*
X32071Y472D01*
X32052Y510D01*
X32014Y529D01*
X31938Y529D01*
X31900Y510D01*
X32071Y282D02*
X32033Y263D01*
X31938Y263D01*
X31900Y282D01*
X31880Y320D01*
X31880Y358D01*
X31900Y396D01*
X31938Y415D01*
X32033Y415D01*
X32071Y434D01*
X32433Y263D02*
X32433Y663D01*
X32433Y282D02*
X32395Y263D01*
X32319Y263D01*
X32280Y282D01*
X32261Y301D01*
X32242Y339D01*
X32242Y453D01*
X32261Y491D01*
X32280Y510D01*
X32319Y529D01*
X32395Y529D01*
X32433Y510D01*
X32776Y282D02*
X32738Y263D01*
X32661Y263D01*
X32623Y282D01*
X32604Y320D01*
X32604Y472D01*
X32623Y510D01*
X32661Y529D01*
X32738Y529D01*
X32776Y510D01*
X32795Y472D01*
X32795Y434D01*
X32604Y396D01*
X32966Y263D02*
X32966Y529D01*
X32966Y453D02*
X32985Y491D01*
X33004Y510D01*
X33042Y529D01*
X33080Y529D01*
X33814Y12438D02*
X33814Y12114D01*
X33833Y12076D01*
X33852Y12057D01*
X33890Y12038D01*
X33966Y12038D01*
X34004Y12057D01*
X34023Y12076D01*
X34042Y12114D01*
X34042Y12438D01*
X34195Y12438D02*
X34442Y12438D01*
X34309Y12285D01*
X34366Y12285D01*
X34404Y12266D01*
X34423Y12247D01*
X34442Y12209D01*
X34442Y12114D01*
X34423Y12076D01*
X34404Y12057D01*
X34366Y12038D01*
X34252Y12038D01*
X34214Y12057D01*
X34195Y12076D01*
X34690Y12438D02*
X34728Y12438D01*
X34766Y12419D01*
X34785Y12400D01*
X34804Y12361D01*
X34823Y12285D01*
X34823Y12190D01*
X34804Y12114D01*
X34785Y12076D01*
X34766Y12057D01*
X34728Y12038D01*
X34690Y12038D01*
X34652Y12057D01*
X34633Y12076D01*
X34614Y12114D01*
X34595Y12190D01*
X34595Y12285D01*
X34614Y12361D01*
X34633Y12400D01*
X34652Y12419D01*
X34690Y12438D01*
X34976Y12400D02*
X34995Y12419D01*
X35033Y12438D01*
X35128Y12438D01*
X35166Y12419D01*
X35185Y12400D01*
X35204Y12361D01*
X35204Y12323D01*
X35185Y12266D01*
X34957Y12038D01*
X35204Y12038D01*
X34042Y12638D02*
X33814Y12638D01*
X33928Y12638D02*
X33928Y13038D01*
X33890Y12980D01*
X33852Y12942D01*
X33814Y12923D01*
X34423Y12638D02*
X34195Y12638D01*
X34309Y12638D02*
X34309Y13038D01*
X34271Y12980D01*
X34233Y12942D01*
X34195Y12923D01*
X34804Y12638D02*
X34576Y12638D01*
X34690Y12638D02*
X34690Y13038D01*
X34652Y12980D01*
X34614Y12942D01*
X34576Y12923D01*
X34938Y13038D02*
X35204Y13038D01*
X35033Y12638D01*
G54D25*
X4779Y22045D02*
X4713Y22139D01*
X4666Y22045D02*
X4666Y22242D01*
X4742Y22242D01*
X4760Y22232D01*
X4770Y22223D01*
X4779Y22204D01*
X4779Y22176D01*
X4770Y22157D01*
X4760Y22148D01*
X4742Y22139D01*
X4666Y22139D01*
X4854Y22223D02*
X4863Y22232D01*
X4882Y22242D01*
X4929Y22242D01*
X4948Y22232D01*
X4957Y22223D01*
X4967Y22204D01*
X4967Y22185D01*
X4957Y22157D01*
X4845Y22045D01*
X4967Y22045D01*
X5089Y22242D02*
X5107Y22242D01*
X5126Y22232D01*
X5136Y22223D01*
X5145Y22204D01*
X5154Y22167D01*
X5154Y22120D01*
X5145Y22082D01*
X5136Y22064D01*
X5126Y22054D01*
X5107Y22045D01*
X5089Y22045D01*
X5070Y22054D01*
X5060Y22064D01*
X5051Y22082D01*
X5042Y22120D01*
X5042Y22167D01*
X5051Y22204D01*
X5060Y22223D01*
X5070Y22232D01*
X5089Y22242D01*
X5342Y22045D02*
X5229Y22045D01*
X5286Y22045D02*
X5286Y22242D01*
X5267Y22214D01*
X5248Y22195D01*
X5229Y22185D01*
X4943Y21770D02*
X4831Y21770D01*
X4887Y21770D02*
X4887Y21967D01*
X4868Y21939D01*
X4849Y21920D01*
X4831Y21910D01*
X5028Y21770D02*
X5028Y21967D01*
X5093Y21826D01*
X5159Y21967D01*
X5159Y21770D01*
X4779Y26064D02*
X4770Y26054D01*
X4742Y26045D01*
X4723Y26045D01*
X4695Y26054D01*
X4676Y26073D01*
X4666Y26092D01*
X4657Y26129D01*
X4657Y26157D01*
X4666Y26195D01*
X4676Y26214D01*
X4695Y26232D01*
X4723Y26242D01*
X4742Y26242D01*
X4770Y26232D01*
X4779Y26223D01*
X4854Y26223D02*
X4863Y26232D01*
X4882Y26242D01*
X4929Y26242D01*
X4948Y26232D01*
X4957Y26223D01*
X4967Y26204D01*
X4967Y26185D01*
X4957Y26157D01*
X4845Y26045D01*
X4967Y26045D01*
X5089Y26242D02*
X5107Y26242D01*
X5126Y26232D01*
X5136Y26223D01*
X5145Y26204D01*
X5154Y26167D01*
X5154Y26120D01*
X5145Y26082D01*
X5136Y26064D01*
X5126Y26054D01*
X5107Y26045D01*
X5089Y26045D01*
X5070Y26054D01*
X5060Y26064D01*
X5051Y26082D01*
X5042Y26120D01*
X5042Y26167D01*
X5051Y26204D01*
X5060Y26223D01*
X5070Y26232D01*
X5089Y26242D01*
X5229Y26223D02*
X5239Y26232D01*
X5257Y26242D01*
X5304Y26242D01*
X5323Y26232D01*
X5333Y26223D01*
X5342Y26204D01*
X5342Y26185D01*
X5333Y26157D01*
X5220Y26045D01*
X5342Y26045D01*
X4854Y25901D02*
X4854Y25770D01*
X4807Y25976D02*
X4760Y25835D01*
X4882Y25835D01*
X4957Y25901D02*
X4957Y25770D01*
X4957Y25882D02*
X4967Y25892D01*
X4985Y25901D01*
X5014Y25901D01*
X5032Y25892D01*
X5042Y25873D01*
X5042Y25770D01*
X5117Y25967D02*
X5248Y25967D01*
X5164Y25770D01*
X31685Y11279D02*
X31695Y11270D01*
X31704Y11242D01*
X31704Y11223D01*
X31695Y11195D01*
X31676Y11176D01*
X31657Y11166D01*
X31620Y11157D01*
X31592Y11157D01*
X31554Y11166D01*
X31535Y11176D01*
X31517Y11195D01*
X31507Y11223D01*
X31507Y11242D01*
X31517Y11270D01*
X31526Y11279D01*
X31507Y11345D02*
X31507Y11467D01*
X31582Y11401D01*
X31582Y11429D01*
X31592Y11448D01*
X31601Y11457D01*
X31620Y11467D01*
X31667Y11467D01*
X31685Y11457D01*
X31695Y11448D01*
X31704Y11429D01*
X31704Y11373D01*
X31695Y11354D01*
X31685Y11345D01*
X31507Y11589D02*
X31507Y11607D01*
X31517Y11626D01*
X31526Y11636D01*
X31545Y11645D01*
X31582Y11654D01*
X31629Y11654D01*
X31667Y11645D01*
X31685Y11636D01*
X31695Y11626D01*
X31704Y11607D01*
X31704Y11589D01*
X31695Y11570D01*
X31685Y11560D01*
X31667Y11551D01*
X31629Y11542D01*
X31582Y11542D01*
X31545Y11551D01*
X31526Y11560D01*
X31517Y11570D01*
X31507Y11589D01*
X31704Y11842D02*
X31704Y11729D01*
X31704Y11786D02*
X31507Y11786D01*
X31535Y11767D01*
X31554Y11748D01*
X31564Y11729D01*
X31429Y11101D02*
X31429Y10988D01*
X31429Y11045D02*
X31232Y11045D01*
X31260Y11026D01*
X31279Y11007D01*
X31289Y10988D01*
X31298Y11270D02*
X31429Y11270D01*
X31298Y11185D02*
X31401Y11185D01*
X31420Y11195D01*
X31429Y11213D01*
X31429Y11242D01*
X31420Y11260D01*
X31410Y11270D01*
X31223Y11504D02*
X31476Y11335D01*
X31232Y11664D02*
X31232Y11570D01*
X31326Y11560D01*
X31317Y11570D01*
X31307Y11589D01*
X31307Y11636D01*
X31317Y11654D01*
X31326Y11664D01*
X31345Y11673D01*
X31392Y11673D01*
X31410Y11664D01*
X31420Y11654D01*
X31429Y11636D01*
X31429Y11589D01*
X31420Y11570D01*
X31410Y11560D01*
X31232Y11795D02*
X31232Y11814D01*
X31242Y11833D01*
X31251Y11842D01*
X31270Y11851D01*
X31307Y11861D01*
X31354Y11861D01*
X31392Y11851D01*
X31410Y11842D01*
X31420Y11833D01*
X31429Y11814D01*
X31429Y11795D01*
X31420Y11776D01*
X31410Y11767D01*
X31392Y11757D01*
X31354Y11748D01*
X31307Y11748D01*
X31270Y11757D01*
X31251Y11767D01*
X31242Y11776D01*
X31232Y11795D01*
X31298Y11926D02*
X31429Y11973D01*
X31298Y12020D01*
X6110Y15379D02*
X6120Y15370D01*
X6129Y15342D01*
X6129Y15323D01*
X6120Y15295D01*
X6101Y15276D01*
X6082Y15266D01*
X6045Y15257D01*
X6017Y15257D01*
X5979Y15266D01*
X5960Y15276D01*
X5942Y15295D01*
X5932Y15323D01*
X5932Y15342D01*
X5942Y15370D01*
X5951Y15379D01*
X5951Y15454D02*
X5942Y15463D01*
X5932Y15482D01*
X5932Y15529D01*
X5942Y15548D01*
X5951Y15557D01*
X5970Y15567D01*
X5989Y15567D01*
X6017Y15557D01*
X6129Y15445D01*
X6129Y15567D01*
X5932Y15689D02*
X5932Y15707D01*
X5942Y15726D01*
X5951Y15736D01*
X5970Y15745D01*
X6007Y15754D01*
X6054Y15754D01*
X6092Y15745D01*
X6110Y15736D01*
X6120Y15726D01*
X6129Y15707D01*
X6129Y15689D01*
X6120Y15670D01*
X6110Y15660D01*
X6092Y15651D01*
X6054Y15642D01*
X6007Y15642D01*
X5970Y15651D01*
X5951Y15660D01*
X5942Y15670D01*
X5932Y15689D01*
X6129Y15942D02*
X6129Y15829D01*
X6129Y15886D02*
X5932Y15886D01*
X5960Y15867D01*
X5979Y15848D01*
X5989Y15829D01*
X6229Y14467D02*
X6229Y14354D01*
X6229Y14410D02*
X6032Y14410D01*
X6060Y14392D01*
X6079Y14373D01*
X6089Y14354D01*
X6098Y14636D02*
X6229Y14636D01*
X6098Y14551D02*
X6201Y14551D01*
X6220Y14560D01*
X6229Y14579D01*
X6229Y14607D01*
X6220Y14626D01*
X6210Y14636D01*
X34779Y15564D02*
X34770Y15554D01*
X34742Y15545D01*
X34723Y15545D01*
X34695Y15554D01*
X34676Y15573D01*
X34666Y15592D01*
X34657Y15629D01*
X34657Y15657D01*
X34666Y15695D01*
X34676Y15714D01*
X34695Y15732D01*
X34723Y15742D01*
X34742Y15742D01*
X34770Y15732D01*
X34779Y15723D01*
X34845Y15742D02*
X34967Y15742D01*
X34901Y15667D01*
X34929Y15667D01*
X34948Y15657D01*
X34957Y15648D01*
X34967Y15629D01*
X34967Y15582D01*
X34957Y15564D01*
X34948Y15554D01*
X34929Y15545D01*
X34873Y15545D01*
X34854Y15554D01*
X34845Y15564D01*
X35089Y15742D02*
X35107Y15742D01*
X35126Y15732D01*
X35136Y15723D01*
X35145Y15704D01*
X35154Y15667D01*
X35154Y15620D01*
X35145Y15582D01*
X35136Y15564D01*
X35126Y15554D01*
X35107Y15545D01*
X35089Y15545D01*
X35070Y15554D01*
X35060Y15564D01*
X35051Y15582D01*
X35042Y15620D01*
X35042Y15667D01*
X35051Y15704D01*
X35060Y15723D01*
X35070Y15732D01*
X35089Y15742D01*
X35333Y15742D02*
X35239Y15742D01*
X35229Y15648D01*
X35239Y15657D01*
X35257Y15667D01*
X35304Y15667D01*
X35323Y15657D01*
X35333Y15648D01*
X35342Y15629D01*
X35342Y15582D01*
X35333Y15564D01*
X35323Y15554D01*
X35304Y15545D01*
X35257Y15545D01*
X35239Y15554D01*
X35229Y15564D01*
X34666Y15448D02*
X34676Y15457D01*
X34695Y15467D01*
X34742Y15467D01*
X34760Y15457D01*
X34770Y15448D01*
X34779Y15429D01*
X34779Y15410D01*
X34770Y15382D01*
X34657Y15270D01*
X34779Y15270D01*
X34854Y15448D02*
X34863Y15457D01*
X34882Y15467D01*
X34929Y15467D01*
X34948Y15457D01*
X34957Y15448D01*
X34967Y15429D01*
X34967Y15410D01*
X34957Y15382D01*
X34845Y15270D01*
X34967Y15270D01*
X35089Y15467D02*
X35107Y15467D01*
X35126Y15457D01*
X35136Y15448D01*
X35145Y15429D01*
X35154Y15392D01*
X35154Y15345D01*
X35145Y15307D01*
X35136Y15289D01*
X35126Y15279D01*
X35107Y15270D01*
X35089Y15270D01*
X35070Y15279D01*
X35060Y15289D01*
X35051Y15307D01*
X35042Y15345D01*
X35042Y15392D01*
X35051Y15429D01*
X35060Y15448D01*
X35070Y15457D01*
X35089Y15467D01*
X35239Y15401D02*
X35239Y15270D01*
X35239Y15382D02*
X35248Y15392D01*
X35267Y15401D01*
X35295Y15401D01*
X35314Y15392D01*
X35323Y15373D01*
X35323Y15270D01*
X30685Y11279D02*
X30695Y11270D01*
X30704Y11242D01*
X30704Y11223D01*
X30695Y11195D01*
X30676Y11176D01*
X30657Y11166D01*
X30620Y11157D01*
X30592Y11157D01*
X30554Y11166D01*
X30535Y11176D01*
X30517Y11195D01*
X30507Y11223D01*
X30507Y11242D01*
X30517Y11270D01*
X30526Y11279D01*
X30507Y11345D02*
X30507Y11467D01*
X30582Y11401D01*
X30582Y11429D01*
X30592Y11448D01*
X30601Y11457D01*
X30620Y11467D01*
X30667Y11467D01*
X30685Y11457D01*
X30695Y11448D01*
X30704Y11429D01*
X30704Y11373D01*
X30695Y11354D01*
X30685Y11345D01*
X30507Y11589D02*
X30507Y11607D01*
X30517Y11626D01*
X30526Y11636D01*
X30545Y11645D01*
X30582Y11654D01*
X30629Y11654D01*
X30667Y11645D01*
X30685Y11636D01*
X30695Y11626D01*
X30704Y11607D01*
X30704Y11589D01*
X30695Y11570D01*
X30685Y11560D01*
X30667Y11551D01*
X30629Y11542D01*
X30582Y11542D01*
X30545Y11551D01*
X30526Y11560D01*
X30517Y11570D01*
X30507Y11589D01*
X30573Y11823D02*
X30704Y11823D01*
X30498Y11776D02*
X30639Y11729D01*
X30639Y11851D01*
X30251Y11166D02*
X30242Y11176D01*
X30232Y11195D01*
X30232Y11242D01*
X30242Y11260D01*
X30251Y11270D01*
X30270Y11279D01*
X30289Y11279D01*
X30317Y11270D01*
X30429Y11157D01*
X30429Y11279D01*
X30251Y11354D02*
X30242Y11363D01*
X30232Y11382D01*
X30232Y11429D01*
X30242Y11448D01*
X30251Y11457D01*
X30270Y11467D01*
X30289Y11467D01*
X30317Y11457D01*
X30429Y11345D01*
X30429Y11467D01*
X30232Y11589D02*
X30232Y11607D01*
X30242Y11626D01*
X30251Y11636D01*
X30270Y11645D01*
X30307Y11654D01*
X30354Y11654D01*
X30392Y11645D01*
X30410Y11636D01*
X30420Y11626D01*
X30429Y11607D01*
X30429Y11589D01*
X30420Y11570D01*
X30410Y11560D01*
X30392Y11551D01*
X30354Y11542D01*
X30307Y11542D01*
X30270Y11551D01*
X30251Y11560D01*
X30242Y11570D01*
X30232Y11589D01*
X30298Y11739D02*
X30429Y11739D01*
X30317Y11739D02*
X30307Y11748D01*
X30298Y11767D01*
X30298Y11795D01*
X30307Y11814D01*
X30326Y11823D01*
X30429Y11823D01*
X9454Y4779D02*
X9360Y4713D01*
X9454Y4666D02*
X9257Y4666D01*
X9257Y4742D01*
X9267Y4760D01*
X9276Y4770D01*
X9295Y4779D01*
X9323Y4779D01*
X9342Y4770D01*
X9351Y4760D01*
X9360Y4742D01*
X9360Y4666D01*
X9257Y4845D02*
X9257Y4967D01*
X9332Y4901D01*
X9332Y4929D01*
X9342Y4948D01*
X9351Y4957D01*
X9370Y4967D01*
X9417Y4967D01*
X9435Y4957D01*
X9445Y4948D01*
X9454Y4929D01*
X9454Y4873D01*
X9445Y4854D01*
X9435Y4845D01*
X9257Y5089D02*
X9257Y5107D01*
X9267Y5126D01*
X9276Y5136D01*
X9295Y5145D01*
X9332Y5154D01*
X9379Y5154D01*
X9417Y5145D01*
X9435Y5136D01*
X9445Y5126D01*
X9454Y5107D01*
X9454Y5089D01*
X9445Y5070D01*
X9435Y5060D01*
X9417Y5051D01*
X9379Y5042D01*
X9332Y5042D01*
X9295Y5051D01*
X9276Y5060D01*
X9267Y5070D01*
X9257Y5089D01*
X9454Y5342D02*
X9454Y5229D01*
X9454Y5286D02*
X9257Y5286D01*
X9285Y5267D01*
X9304Y5248D01*
X9314Y5229D01*
X9729Y4868D02*
X9729Y4756D01*
X9729Y4812D02*
X9532Y4812D01*
X9560Y4793D01*
X9579Y4774D01*
X9589Y4756D01*
X9532Y4990D02*
X9532Y5009D01*
X9542Y5028D01*
X9551Y5037D01*
X9570Y5046D01*
X9607Y5056D01*
X9654Y5056D01*
X9692Y5046D01*
X9710Y5037D01*
X9720Y5028D01*
X9729Y5009D01*
X9729Y4990D01*
X9720Y4971D01*
X9710Y4962D01*
X9692Y4953D01*
X9654Y4943D01*
X9607Y4943D01*
X9570Y4953D01*
X9551Y4962D01*
X9542Y4971D01*
X9532Y4990D01*
X9532Y5178D02*
X9532Y5197D01*
X9542Y5215D01*
X9551Y5225D01*
X9570Y5234D01*
X9607Y5243D01*
X9654Y5243D01*
X9692Y5234D01*
X9710Y5225D01*
X9720Y5215D01*
X9729Y5197D01*
X9729Y5178D01*
X9720Y5159D01*
X9710Y5150D01*
X9692Y5140D01*
X9654Y5131D01*
X9607Y5131D01*
X9570Y5140D01*
X9551Y5150D01*
X9542Y5159D01*
X9532Y5178D01*
X8454Y4779D02*
X8360Y4713D01*
X8454Y4666D02*
X8257Y4666D01*
X8257Y4742D01*
X8267Y4760D01*
X8276Y4770D01*
X8295Y4779D01*
X8323Y4779D01*
X8342Y4770D01*
X8351Y4760D01*
X8360Y4742D01*
X8360Y4666D01*
X8257Y4845D02*
X8257Y4967D01*
X8332Y4901D01*
X8332Y4929D01*
X8342Y4948D01*
X8351Y4957D01*
X8370Y4967D01*
X8417Y4967D01*
X8435Y4957D01*
X8445Y4948D01*
X8454Y4929D01*
X8454Y4873D01*
X8445Y4854D01*
X8435Y4845D01*
X8257Y5089D02*
X8257Y5107D01*
X8267Y5126D01*
X8276Y5136D01*
X8295Y5145D01*
X8332Y5154D01*
X8379Y5154D01*
X8417Y5145D01*
X8435Y5136D01*
X8445Y5126D01*
X8454Y5107D01*
X8454Y5089D01*
X8445Y5070D01*
X8435Y5060D01*
X8417Y5051D01*
X8379Y5042D01*
X8332Y5042D01*
X8295Y5051D01*
X8276Y5060D01*
X8267Y5070D01*
X8257Y5089D01*
X8257Y5220D02*
X8257Y5342D01*
X8332Y5276D01*
X8332Y5304D01*
X8342Y5323D01*
X8351Y5333D01*
X8370Y5342D01*
X8417Y5342D01*
X8435Y5333D01*
X8445Y5323D01*
X8454Y5304D01*
X8454Y5248D01*
X8445Y5229D01*
X8435Y5220D01*
X8532Y4849D02*
X8532Y4812D01*
X8542Y4793D01*
X8551Y4784D01*
X8579Y4765D01*
X8617Y4756D01*
X8692Y4756D01*
X8710Y4765D01*
X8720Y4774D01*
X8729Y4793D01*
X8729Y4831D01*
X8720Y4849D01*
X8710Y4859D01*
X8692Y4868D01*
X8645Y4868D01*
X8626Y4859D01*
X8617Y4849D01*
X8607Y4831D01*
X8607Y4793D01*
X8617Y4774D01*
X8626Y4765D01*
X8645Y4756D01*
X8617Y4981D02*
X8607Y4962D01*
X8598Y4953D01*
X8579Y4943D01*
X8570Y4943D01*
X8551Y4953D01*
X8542Y4962D01*
X8532Y4981D01*
X8532Y5018D01*
X8542Y5037D01*
X8551Y5046D01*
X8570Y5056D01*
X8579Y5056D01*
X8598Y5046D01*
X8607Y5037D01*
X8617Y5018D01*
X8617Y4981D01*
X8626Y4962D01*
X8635Y4953D01*
X8654Y4943D01*
X8692Y4943D01*
X8710Y4953D01*
X8720Y4962D01*
X8729Y4981D01*
X8729Y5018D01*
X8720Y5037D01*
X8710Y5046D01*
X8692Y5056D01*
X8654Y5056D01*
X8635Y5046D01*
X8626Y5037D01*
X8617Y5018D01*
X8532Y5178D02*
X8532Y5197D01*
X8542Y5215D01*
X8551Y5225D01*
X8570Y5234D01*
X8607Y5243D01*
X8654Y5243D01*
X8692Y5234D01*
X8710Y5225D01*
X8720Y5215D01*
X8729Y5197D01*
X8729Y5178D01*
X8720Y5159D01*
X8710Y5150D01*
X8692Y5140D01*
X8654Y5131D01*
X8607Y5131D01*
X8570Y5140D01*
X8551Y5150D01*
X8542Y5159D01*
X8532Y5178D01*
X7454Y4779D02*
X7360Y4713D01*
X7454Y4666D02*
X7257Y4666D01*
X7257Y4742D01*
X7267Y4760D01*
X7276Y4770D01*
X7295Y4779D01*
X7323Y4779D01*
X7342Y4770D01*
X7351Y4760D01*
X7360Y4742D01*
X7360Y4666D01*
X7257Y4845D02*
X7257Y4967D01*
X7332Y4901D01*
X7332Y4929D01*
X7342Y4948D01*
X7351Y4957D01*
X7370Y4967D01*
X7417Y4967D01*
X7435Y4957D01*
X7445Y4948D01*
X7454Y4929D01*
X7454Y4873D01*
X7445Y4854D01*
X7435Y4845D01*
X7257Y5089D02*
X7257Y5107D01*
X7267Y5126D01*
X7276Y5136D01*
X7295Y5145D01*
X7332Y5154D01*
X7379Y5154D01*
X7417Y5145D01*
X7435Y5136D01*
X7445Y5126D01*
X7454Y5107D01*
X7454Y5089D01*
X7445Y5070D01*
X7435Y5060D01*
X7417Y5051D01*
X7379Y5042D01*
X7332Y5042D01*
X7295Y5051D01*
X7276Y5060D01*
X7267Y5070D01*
X7257Y5089D01*
X7276Y5229D02*
X7267Y5239D01*
X7257Y5257D01*
X7257Y5304D01*
X7267Y5323D01*
X7276Y5333D01*
X7295Y5342D01*
X7314Y5342D01*
X7342Y5333D01*
X7454Y5220D01*
X7454Y5342D01*
X7729Y4882D02*
X7729Y4770D01*
X7729Y4826D02*
X7532Y4826D01*
X7560Y4807D01*
X7579Y4788D01*
X7589Y4770D01*
X7729Y4967D02*
X7532Y4967D01*
X7654Y4985D02*
X7729Y5042D01*
X7598Y5042D02*
X7673Y4967D01*
X7617Y5154D02*
X7607Y5136D01*
X7598Y5126D01*
X7579Y5117D01*
X7570Y5117D01*
X7551Y5126D01*
X7542Y5136D01*
X7532Y5154D01*
X7532Y5192D01*
X7542Y5211D01*
X7551Y5220D01*
X7570Y5229D01*
X7579Y5229D01*
X7598Y5220D01*
X7607Y5211D01*
X7617Y5192D01*
X7617Y5154D01*
X7626Y5136D01*
X7635Y5126D01*
X7654Y5117D01*
X7692Y5117D01*
X7710Y5126D01*
X7720Y5136D01*
X7729Y5154D01*
X7729Y5192D01*
X7720Y5211D01*
X7710Y5220D01*
X7692Y5229D01*
X7654Y5229D01*
X7635Y5220D01*
X7626Y5211D01*
X7617Y5192D01*
G54D12*
X13485Y32238D02*
X13485Y31952D01*
X13466Y31895D01*
X13428Y31857D01*
X13371Y31838D01*
X13333Y31838D01*
X13657Y32200D02*
X13676Y32219D01*
X13714Y32238D01*
X13809Y32238D01*
X13847Y32219D01*
X13866Y32200D01*
X13885Y32161D01*
X13885Y32123D01*
X13866Y32066D01*
X13638Y31838D01*
X13885Y31838D01*
X14133Y32238D02*
X14171Y32238D01*
X14209Y32219D01*
X14228Y32200D01*
X14247Y32161D01*
X14266Y32085D01*
X14266Y31990D01*
X14247Y31914D01*
X14228Y31876D01*
X14209Y31857D01*
X14171Y31838D01*
X14133Y31838D01*
X14095Y31857D01*
X14076Y31876D01*
X14057Y31914D01*
X14038Y31990D01*
X14038Y32085D01*
X14057Y32161D01*
X14076Y32200D01*
X14095Y32219D01*
X14133Y32238D01*
X14400Y32238D02*
X14647Y32238D01*
X14514Y32085D01*
X14571Y32085D01*
X14609Y32066D01*
X14628Y32047D01*
X14647Y32009D01*
X14647Y31914D01*
X14628Y31876D01*
X14609Y31857D01*
X14571Y31838D01*
X14457Y31838D01*
X14419Y31857D01*
X14400Y31876D01*
G54D15*
X13571Y1464D02*
X13785Y1464D01*
X13828Y1450D01*
X13857Y1421D01*
X13871Y1378D01*
X13871Y1350D01*
X13871Y1607D02*
X13571Y1607D01*
X13571Y1721D01*
X13585Y1750D01*
X13600Y1764D01*
X13628Y1778D01*
X13671Y1778D01*
X13700Y1764D01*
X13714Y1750D01*
X13728Y1721D01*
X13728Y1607D01*
X13571Y1878D02*
X13571Y2064D01*
X13685Y1964D01*
X13685Y2007D01*
X13700Y2035D01*
X13714Y2050D01*
X13742Y2064D01*
X13814Y2064D01*
X13842Y2050D01*
X13857Y2035D01*
X13871Y2007D01*
X13871Y1921D01*
X13857Y1892D01*
X13842Y1878D01*
X13571Y2250D02*
X13571Y2278D01*
X13585Y2307D01*
X13600Y2321D01*
X13628Y2335D01*
X13685Y2350D01*
X13757Y2350D01*
X13814Y2335D01*
X13842Y2321D01*
X13857Y2307D01*
X13871Y2278D01*
X13871Y2250D01*
X13857Y2221D01*
X13842Y2207D01*
X13814Y2192D01*
X13757Y2178D01*
X13685Y2178D01*
X13628Y2192D01*
X13600Y2207D01*
X13585Y2221D01*
X13571Y2250D01*
X13871Y2635D02*
X13871Y2464D01*
X13871Y2550D02*
X13571Y2550D01*
X13614Y2521D01*
X13642Y2492D01*
X13657Y2464D01*
X10571Y1464D02*
X10785Y1464D01*
X10828Y1450D01*
X10857Y1421D01*
X10871Y1378D01*
X10871Y1350D01*
X10871Y1607D02*
X10571Y1607D01*
X10571Y1721D01*
X10585Y1750D01*
X10600Y1764D01*
X10628Y1778D01*
X10671Y1778D01*
X10700Y1764D01*
X10714Y1750D01*
X10728Y1721D01*
X10728Y1607D01*
X10571Y1878D02*
X10571Y2064D01*
X10685Y1964D01*
X10685Y2007D01*
X10700Y2035D01*
X10714Y2050D01*
X10742Y2064D01*
X10814Y2064D01*
X10842Y2050D01*
X10857Y2035D01*
X10871Y2007D01*
X10871Y1921D01*
X10857Y1892D01*
X10842Y1878D01*
X10571Y2250D02*
X10571Y2278D01*
X10585Y2307D01*
X10600Y2321D01*
X10628Y2335D01*
X10685Y2350D01*
X10757Y2350D01*
X10814Y2335D01*
X10842Y2321D01*
X10857Y2307D01*
X10871Y2278D01*
X10871Y2250D01*
X10857Y2221D01*
X10842Y2207D01*
X10814Y2192D01*
X10757Y2178D01*
X10685Y2178D01*
X10628Y2192D01*
X10600Y2207D01*
X10585Y2221D01*
X10571Y2250D01*
X10571Y2450D02*
X10571Y2635D01*
X10685Y2535D01*
X10685Y2578D01*
X10700Y2607D01*
X10714Y2621D01*
X10742Y2635D01*
X10814Y2635D01*
X10842Y2621D01*
X10857Y2607D01*
X10871Y2578D01*
X10871Y2492D01*
X10857Y2464D01*
X10842Y2450D01*
X12071Y1464D02*
X12285Y1464D01*
X12328Y1450D01*
X12357Y1421D01*
X12371Y1378D01*
X12371Y1350D01*
X12371Y1607D02*
X12071Y1607D01*
X12071Y1721D01*
X12085Y1750D01*
X12100Y1764D01*
X12128Y1778D01*
X12171Y1778D01*
X12200Y1764D01*
X12214Y1750D01*
X12228Y1721D01*
X12228Y1607D01*
X12071Y1878D02*
X12071Y2064D01*
X12185Y1964D01*
X12185Y2007D01*
X12200Y2035D01*
X12214Y2050D01*
X12242Y2064D01*
X12314Y2064D01*
X12342Y2050D01*
X12357Y2035D01*
X12371Y2007D01*
X12371Y1921D01*
X12357Y1892D01*
X12342Y1878D01*
X12071Y2250D02*
X12071Y2278D01*
X12085Y2307D01*
X12100Y2321D01*
X12128Y2335D01*
X12185Y2350D01*
X12257Y2350D01*
X12314Y2335D01*
X12342Y2321D01*
X12357Y2307D01*
X12371Y2278D01*
X12371Y2250D01*
X12357Y2221D01*
X12342Y2207D01*
X12314Y2192D01*
X12257Y2178D01*
X12185Y2178D01*
X12128Y2192D01*
X12100Y2207D01*
X12085Y2221D01*
X12071Y2250D01*
X12100Y2464D02*
X12085Y2478D01*
X12071Y2507D01*
X12071Y2578D01*
X12085Y2607D01*
X12100Y2621D01*
X12128Y2635D01*
X12157Y2635D01*
X12200Y2621D01*
X12371Y2450D01*
X12371Y2635D01*
X14571Y1464D02*
X14785Y1464D01*
X14828Y1450D01*
X14857Y1421D01*
X14871Y1378D01*
X14871Y1350D01*
X14871Y1607D02*
X14571Y1607D01*
X14571Y1721D01*
X14585Y1750D01*
X14600Y1764D01*
X14628Y1778D01*
X14671Y1778D01*
X14700Y1764D01*
X14714Y1750D01*
X14728Y1721D01*
X14728Y1607D01*
X14571Y1878D02*
X14571Y2064D01*
X14685Y1964D01*
X14685Y2007D01*
X14700Y2035D01*
X14714Y2050D01*
X14742Y2064D01*
X14814Y2064D01*
X14842Y2050D01*
X14857Y2035D01*
X14871Y2007D01*
X14871Y1921D01*
X14857Y1892D01*
X14842Y1878D01*
X14571Y2250D02*
X14571Y2278D01*
X14585Y2307D01*
X14600Y2321D01*
X14628Y2335D01*
X14685Y2350D01*
X14757Y2350D01*
X14814Y2335D01*
X14842Y2321D01*
X14857Y2307D01*
X14871Y2278D01*
X14871Y2250D01*
X14857Y2221D01*
X14842Y2207D01*
X14814Y2192D01*
X14757Y2178D01*
X14685Y2178D01*
X14628Y2192D01*
X14600Y2207D01*
X14585Y2221D01*
X14571Y2250D01*
X14571Y2621D02*
X14571Y2478D01*
X14714Y2464D01*
X14700Y2478D01*
X14685Y2507D01*
X14685Y2578D01*
X14700Y2607D01*
X14714Y2621D01*
X14742Y2635D01*
X14814Y2635D01*
X14842Y2621D01*
X14857Y2607D01*
X14871Y2578D01*
X14871Y2507D01*
X14857Y2478D01*
X14842Y2464D01*
G54D18*
X3042Y13571D02*
X3528Y13571D01*
X3585Y13600D01*
X3614Y13628D01*
X3642Y13685D01*
X3642Y13800D01*
X3614Y13857D01*
X3585Y13885D01*
X3528Y13914D01*
X3042Y13914D01*
X3100Y14171D02*
X3071Y14199D01*
X3042Y14257D01*
X3042Y14399D01*
X3071Y14457D01*
X3100Y14485D01*
X3157Y14514D01*
X3214Y14514D01*
X3300Y14485D01*
X3642Y14142D01*
X3642Y14514D01*
X3042Y14885D02*
X3042Y14942D01*
X3071Y15000D01*
X3100Y15028D01*
X3157Y15057D01*
X3271Y15085D01*
X3414Y15085D01*
X3528Y15057D01*
X3585Y15028D01*
X3614Y15000D01*
X3642Y14942D01*
X3642Y14885D01*
X3614Y14828D01*
X3585Y14800D01*
X3528Y14771D01*
X3414Y14742D01*
X3271Y14742D01*
X3157Y14771D01*
X3100Y14800D01*
X3071Y14828D01*
X3042Y14885D01*
X3100Y15314D02*
X3071Y15342D01*
X3042Y15400D01*
X3042Y15542D01*
X3071Y15600D01*
X3100Y15628D01*
X3157Y15657D01*
X3214Y15657D01*
X3300Y15628D01*
X3642Y15285D01*
X3642Y15657D01*
X2635Y11778D02*
X2664Y11750D01*
X2692Y11664D01*
X2692Y11607D01*
X2664Y11521D01*
X2607Y11464D01*
X2550Y11435D01*
X2435Y11407D01*
X2350Y11407D01*
X2235Y11435D01*
X2178Y11464D01*
X2121Y11521D01*
X2092Y11607D01*
X2092Y11664D01*
X2121Y11750D01*
X2150Y11778D01*
X2092Y12150D02*
X2092Y12264D01*
X2121Y12321D01*
X2178Y12378D01*
X2292Y12407D01*
X2492Y12407D01*
X2607Y12378D01*
X2664Y12321D01*
X2692Y12264D01*
X2692Y12150D01*
X2664Y12092D01*
X2607Y12035D01*
X2492Y12007D01*
X2292Y12007D01*
X2178Y12035D01*
X2121Y12092D01*
X2092Y12150D01*
X2692Y12664D02*
X2092Y12664D01*
X2692Y13007D01*
X2092Y13007D01*
X2692Y13292D02*
X2092Y13292D01*
X2692Y13635D01*
X2092Y13635D01*
X2750Y13778D02*
X2750Y14235D01*
X2692Y14378D02*
X2092Y14378D01*
X2521Y14578D01*
X2092Y14778D01*
X2692Y14778D01*
X2692Y15064D02*
X2092Y15064D01*
X2635Y15692D02*
X2664Y15664D01*
X2692Y15578D01*
X2692Y15521D01*
X2664Y15435D01*
X2607Y15378D01*
X2550Y15349D01*
X2435Y15321D01*
X2350Y15321D01*
X2235Y15349D01*
X2178Y15378D01*
X2121Y15435D01*
X2092Y15521D01*
X2092Y15578D01*
X2121Y15664D01*
X2150Y15692D01*
X2692Y16292D02*
X2407Y16092D01*
X2692Y15949D02*
X2092Y15949D01*
X2092Y16178D01*
X2121Y16235D01*
X2150Y16264D01*
X2207Y16292D01*
X2292Y16292D01*
X2350Y16264D01*
X2378Y16235D01*
X2407Y16178D01*
X2407Y15949D01*
X2092Y16664D02*
X2092Y16778D01*
X2121Y16835D01*
X2178Y16892D01*
X2292Y16921D01*
X2492Y16921D01*
X2607Y16892D01*
X2664Y16835D01*
X2692Y16778D01*
X2692Y16664D01*
X2664Y16607D01*
X2607Y16549D01*
X2492Y16521D01*
X2292Y16521D01*
X2178Y16549D01*
X2121Y16607D01*
X2092Y16664D01*
X2664Y17149D02*
X2692Y17235D01*
X2692Y17378D01*
X2664Y17435D01*
X2635Y17464D01*
X2578Y17492D01*
X2521Y17492D01*
X2464Y17464D01*
X2435Y17435D01*
X2407Y17378D01*
X2378Y17264D01*
X2350Y17207D01*
X2321Y17178D01*
X2264Y17149D01*
X2207Y17149D01*
X2150Y17178D01*
X2121Y17207D01*
X2092Y17264D01*
X2092Y17407D01*
X2121Y17492D01*
X2692Y17749D02*
X2092Y17749D01*
X2092Y17892D01*
X2121Y17978D01*
X2178Y18035D01*
X2235Y18064D01*
X2350Y18092D01*
X2435Y18092D01*
X2550Y18064D01*
X2607Y18035D01*
X2664Y17978D01*
X2692Y17892D01*
X2692Y17749D01*
G54D26*
X28510Y7779D02*
X28520Y7770D01*
X28529Y7742D01*
X28529Y7723D01*
X28520Y7695D01*
X28501Y7676D01*
X28482Y7666D01*
X28445Y7657D01*
X28417Y7657D01*
X28379Y7666D01*
X28360Y7676D01*
X28342Y7695D01*
X28332Y7723D01*
X28332Y7742D01*
X28342Y7770D01*
X28351Y7779D01*
X28332Y7845D02*
X28332Y7967D01*
X28407Y7901D01*
X28407Y7929D01*
X28417Y7948D01*
X28426Y7957D01*
X28445Y7967D01*
X28492Y7967D01*
X28510Y7957D01*
X28520Y7948D01*
X28529Y7929D01*
X28529Y7873D01*
X28520Y7854D01*
X28510Y7845D01*
X28332Y8089D02*
X28332Y8107D01*
X28342Y8126D01*
X28351Y8136D01*
X28370Y8145D01*
X28407Y8154D01*
X28454Y8154D01*
X28492Y8145D01*
X28510Y8136D01*
X28520Y8126D01*
X28529Y8107D01*
X28529Y8089D01*
X28520Y8070D01*
X28510Y8060D01*
X28492Y8051D01*
X28454Y8042D01*
X28407Y8042D01*
X28370Y8051D01*
X28351Y8060D01*
X28342Y8070D01*
X28332Y8089D01*
X28351Y8229D02*
X28342Y8239D01*
X28332Y8257D01*
X28332Y8304D01*
X28342Y8323D01*
X28351Y8333D01*
X28370Y8342D01*
X28389Y8342D01*
X28417Y8333D01*
X28529Y8220D01*
X28529Y8342D01*
X32510Y7779D02*
X32520Y7770D01*
X32529Y7742D01*
X32529Y7723D01*
X32520Y7695D01*
X32501Y7676D01*
X32482Y7666D01*
X32445Y7657D01*
X32417Y7657D01*
X32379Y7666D01*
X32360Y7676D01*
X32342Y7695D01*
X32332Y7723D01*
X32332Y7742D01*
X32342Y7770D01*
X32351Y7779D01*
X32332Y7845D02*
X32332Y7967D01*
X32407Y7901D01*
X32407Y7929D01*
X32417Y7948D01*
X32426Y7957D01*
X32445Y7967D01*
X32492Y7967D01*
X32510Y7957D01*
X32520Y7948D01*
X32529Y7929D01*
X32529Y7873D01*
X32520Y7854D01*
X32510Y7845D01*
X32332Y8089D02*
X32332Y8107D01*
X32342Y8126D01*
X32351Y8136D01*
X32370Y8145D01*
X32407Y8154D01*
X32454Y8154D01*
X32492Y8145D01*
X32510Y8136D01*
X32520Y8126D01*
X32529Y8107D01*
X32529Y8089D01*
X32520Y8070D01*
X32510Y8060D01*
X32492Y8051D01*
X32454Y8042D01*
X32407Y8042D01*
X32370Y8051D01*
X32351Y8060D01*
X32342Y8070D01*
X32332Y8089D01*
X32332Y8220D02*
X32332Y8342D01*
X32407Y8276D01*
X32407Y8304D01*
X32417Y8323D01*
X32426Y8333D01*
X32445Y8342D01*
X32492Y8342D01*
X32510Y8333D01*
X32520Y8323D01*
X32529Y8304D01*
X32529Y8248D01*
X32520Y8229D01*
X32510Y8220D01*
G54D27*
X989Y4501D02*
X398Y4501D01*
X398Y4726D01*
X426Y4782D01*
X454Y4811D01*
X510Y4839D01*
X595Y4839D01*
X651Y4811D01*
X679Y4782D01*
X707Y4726D01*
X707Y4501D01*
X398Y5035D02*
X398Y5401D01*
X623Y5204D01*
X623Y5289D01*
X651Y5345D01*
X679Y5373D01*
X735Y5401D01*
X876Y5401D01*
X932Y5373D01*
X960Y5345D01*
X989Y5289D01*
X989Y5120D01*
X960Y5064D01*
X932Y5035D01*
X398Y5767D02*
X398Y5823D01*
X426Y5879D01*
X454Y5907D01*
X510Y5935D01*
X623Y5964D01*
X764Y5964D01*
X876Y5935D01*
X932Y5907D01*
X960Y5879D01*
X989Y5823D01*
X989Y5767D01*
X960Y5710D01*
X932Y5682D01*
X876Y5654D01*
X764Y5626D01*
X623Y5626D01*
X510Y5654D01*
X454Y5682D01*
X426Y5710D01*
X398Y5767D01*
X989Y6526D02*
X989Y6188D01*
X989Y6357D02*
X398Y6357D01*
X482Y6301D01*
X539Y6245D01*
X567Y6188D01*
X3707Y5134D02*
X3707Y4796D01*
X3707Y4965D02*
X3116Y4965D01*
X3201Y4909D01*
X3257Y4853D01*
X3285Y4796D01*
X3173Y5359D02*
X3145Y5387D01*
X3116Y5443D01*
X3116Y5584D01*
X3145Y5640D01*
X3173Y5668D01*
X3229Y5696D01*
X3285Y5696D01*
X3370Y5668D01*
X3707Y5331D01*
X3707Y5696D01*
X3116Y5865D02*
X3707Y6062D01*
X3116Y6259D01*
G54D12*
X19823Y2188D02*
X19823Y2588D01*
X19976Y2588D01*
X20014Y2569D01*
X20033Y2550D01*
X20052Y2511D01*
X20052Y2454D01*
X20033Y2416D01*
X20014Y2397D01*
X19976Y2378D01*
X19823Y2378D01*
X20204Y2550D02*
X20223Y2569D01*
X20261Y2588D01*
X20357Y2588D01*
X20395Y2569D01*
X20414Y2550D01*
X20433Y2511D01*
X20433Y2473D01*
X20414Y2416D01*
X20185Y2188D01*
X20433Y2188D01*
X20680Y2588D02*
X20719Y2588D01*
X20757Y2569D01*
X20776Y2550D01*
X20795Y2511D01*
X20814Y2435D01*
X20814Y2340D01*
X20795Y2264D01*
X20776Y2226D01*
X20757Y2207D01*
X20719Y2188D01*
X20680Y2188D01*
X20642Y2207D01*
X20623Y2226D01*
X20604Y2264D01*
X20585Y2340D01*
X20585Y2435D01*
X20604Y2511D01*
X20623Y2550D01*
X20642Y2569D01*
X20680Y2588D01*
X21195Y2188D02*
X20966Y2188D01*
X21080Y2188D02*
X21080Y2588D01*
X21042Y2530D01*
X21004Y2492D01*
X20966Y2473D01*
X29814Y16488D02*
X29814Y16164D01*
X29833Y16126D01*
X29852Y16107D01*
X29890Y16088D01*
X29966Y16088D01*
X30004Y16107D01*
X30023Y16126D01*
X30042Y16164D01*
X30042Y16488D01*
X30195Y16488D02*
X30442Y16488D01*
X30309Y16335D01*
X30366Y16335D01*
X30404Y16316D01*
X30423Y16297D01*
X30442Y16259D01*
X30442Y16164D01*
X30423Y16126D01*
X30404Y16107D01*
X30366Y16088D01*
X30252Y16088D01*
X30214Y16107D01*
X30195Y16126D01*
X30690Y16488D02*
X30728Y16488D01*
X30766Y16469D01*
X30785Y16450D01*
X30804Y16411D01*
X30823Y16335D01*
X30823Y16240D01*
X30804Y16164D01*
X30785Y16126D01*
X30766Y16107D01*
X30728Y16088D01*
X30690Y16088D01*
X30652Y16107D01*
X30633Y16126D01*
X30614Y16164D01*
X30595Y16240D01*
X30595Y16335D01*
X30614Y16411D01*
X30633Y16450D01*
X30652Y16469D01*
X30690Y16488D01*
X31204Y16088D02*
X30976Y16088D01*
X31090Y16088D02*
X31090Y16488D01*
X31052Y16430D01*
X31014Y16392D01*
X30976Y16373D01*
X29633Y17588D02*
X29442Y17588D01*
X29442Y17988D01*
X29766Y17588D02*
X29766Y17988D01*
X29900Y17702D01*
X30033Y17988D01*
X30033Y17588D01*
X30185Y17988D02*
X30452Y17988D01*
X30280Y17588D01*
X30661Y17816D02*
X30623Y17835D01*
X30604Y17854D01*
X30585Y17892D01*
X30585Y17911D01*
X30604Y17950D01*
X30623Y17969D01*
X30661Y17988D01*
X30738Y17988D01*
X30776Y17969D01*
X30795Y17950D01*
X30814Y17911D01*
X30814Y17892D01*
X30795Y17854D01*
X30776Y17835D01*
X30738Y17816D01*
X30661Y17816D01*
X30623Y17797D01*
X30604Y17778D01*
X30585Y17740D01*
X30585Y17664D01*
X30604Y17626D01*
X30623Y17607D01*
X30661Y17588D01*
X30738Y17588D01*
X30776Y17607D01*
X30795Y17626D01*
X30814Y17664D01*
X30814Y17740D01*
X30795Y17778D01*
X30776Y17797D01*
X30738Y17816D01*
X31061Y17988D02*
X31100Y17988D01*
X31138Y17969D01*
X31157Y17950D01*
X31176Y17911D01*
X31195Y17835D01*
X31195Y17740D01*
X31176Y17664D01*
X31157Y17626D01*
X31138Y17607D01*
X31100Y17588D01*
X31061Y17588D01*
X31023Y17607D01*
X31004Y17626D01*
X30985Y17664D01*
X30966Y17740D01*
X30966Y17835D01*
X30985Y17911D01*
X31004Y17950D01*
X31023Y17969D01*
X31061Y17988D01*
X31557Y17988D02*
X31366Y17988D01*
X31347Y17797D01*
X31366Y17816D01*
X31404Y17835D01*
X31500Y17835D01*
X31538Y17816D01*
X31557Y17797D01*
X31576Y17759D01*
X31576Y17664D01*
X31557Y17626D01*
X31538Y17607D01*
X31500Y17588D01*
X31404Y17588D01*
X31366Y17607D01*
X31347Y17626D01*
G54D11*
X4121Y1492D02*
X3821Y1492D01*
X3821Y1564D01*
X3835Y1607D01*
X3864Y1635D01*
X3892Y1650D01*
X3950Y1664D01*
X3992Y1664D01*
X4050Y1650D01*
X4078Y1635D01*
X4107Y1607D01*
X4121Y1564D01*
X4121Y1492D01*
X3821Y1764D02*
X3821Y1950D01*
X3935Y1850D01*
X3935Y1892D01*
X3950Y1921D01*
X3964Y1935D01*
X3992Y1950D01*
X4064Y1950D01*
X4092Y1935D01*
X4107Y1921D01*
X4121Y1892D01*
X4121Y1807D01*
X4107Y1778D01*
X4092Y1764D01*
X3821Y2135D02*
X3821Y2164D01*
X3835Y2192D01*
X3850Y2207D01*
X3878Y2221D01*
X3935Y2235D01*
X4007Y2235D01*
X4064Y2221D01*
X4092Y2207D01*
X4107Y2192D01*
X4121Y2164D01*
X4121Y2135D01*
X4107Y2107D01*
X4092Y2092D01*
X4064Y2078D01*
X4007Y2064D01*
X3935Y2064D01*
X3878Y2078D01*
X3850Y2092D01*
X3835Y2107D01*
X3821Y2135D01*
X3821Y2335D02*
X3821Y2521D01*
X3935Y2421D01*
X3935Y2464D01*
X3950Y2492D01*
X3964Y2507D01*
X3992Y2521D01*
X4064Y2521D01*
X4092Y2507D01*
X4107Y2492D01*
X4121Y2464D01*
X4121Y2378D01*
X4107Y2350D01*
X4092Y2335D01*
X2821Y1557D02*
X3121Y1657D01*
X2821Y1757D01*
X3150Y1785D02*
X3150Y2014D01*
X3121Y2085D02*
X2821Y2085D01*
X3121Y2228D02*
X2821Y2228D01*
X3121Y2400D01*
X2821Y2400D01*
X6121Y1492D02*
X5821Y1492D01*
X5821Y1564D01*
X5835Y1607D01*
X5864Y1635D01*
X5892Y1650D01*
X5950Y1664D01*
X5992Y1664D01*
X6050Y1650D01*
X6078Y1635D01*
X6107Y1607D01*
X6121Y1564D01*
X6121Y1492D01*
X5821Y1764D02*
X5821Y1950D01*
X5935Y1850D01*
X5935Y1892D01*
X5950Y1921D01*
X5964Y1935D01*
X5992Y1950D01*
X6064Y1950D01*
X6092Y1935D01*
X6107Y1921D01*
X6121Y1892D01*
X6121Y1807D01*
X6107Y1778D01*
X6092Y1764D01*
X5821Y2135D02*
X5821Y2164D01*
X5835Y2192D01*
X5850Y2207D01*
X5878Y2221D01*
X5935Y2235D01*
X6007Y2235D01*
X6064Y2221D01*
X6092Y2207D01*
X6107Y2192D01*
X6121Y2164D01*
X6121Y2135D01*
X6107Y2107D01*
X6092Y2092D01*
X6064Y2078D01*
X6007Y2064D01*
X5935Y2064D01*
X5878Y2078D01*
X5850Y2092D01*
X5835Y2107D01*
X5821Y2135D01*
X6121Y2521D02*
X6121Y2350D01*
X6121Y2435D02*
X5821Y2435D01*
X5864Y2407D01*
X5892Y2378D01*
X5907Y2350D01*
X4821Y1392D02*
X4821Y1250D01*
X4964Y1235D01*
X4950Y1250D01*
X4935Y1278D01*
X4935Y1350D01*
X4950Y1378D01*
X4964Y1392D01*
X4992Y1407D01*
X5064Y1407D01*
X5092Y1392D01*
X5107Y1378D01*
X5121Y1350D01*
X5121Y1278D01*
X5107Y1250D01*
X5092Y1235D01*
X4821Y1492D02*
X5121Y1592D01*
X4821Y1692D01*
X5150Y1721D02*
X5150Y1950D01*
X5121Y2192D02*
X4978Y2092D01*
X5121Y2021D02*
X4821Y2021D01*
X4821Y2135D01*
X4835Y2164D01*
X4850Y2178D01*
X4878Y2192D01*
X4921Y2192D01*
X4950Y2178D01*
X4964Y2164D01*
X4978Y2135D01*
X4978Y2021D01*
X4964Y2321D02*
X4964Y2421D01*
X5121Y2464D02*
X5121Y2321D01*
X4821Y2321D01*
X4821Y2464D01*
X4835Y2750D02*
X4821Y2721D01*
X4821Y2678D01*
X4835Y2635D01*
X4864Y2607D01*
X4892Y2592D01*
X4950Y2578D01*
X4992Y2578D01*
X5050Y2592D01*
X5078Y2607D01*
X5107Y2635D01*
X5121Y2678D01*
X5121Y2707D01*
X5107Y2750D01*
X5092Y2764D01*
X4992Y2764D01*
X4992Y2707D01*
X8121Y1492D02*
X7821Y1492D01*
X7821Y1564D01*
X7835Y1607D01*
X7864Y1635D01*
X7892Y1650D01*
X7950Y1664D01*
X7992Y1664D01*
X8050Y1650D01*
X8078Y1635D01*
X8107Y1607D01*
X8121Y1564D01*
X8121Y1492D01*
X7821Y1764D02*
X7821Y1950D01*
X7935Y1850D01*
X7935Y1892D01*
X7950Y1921D01*
X7964Y1935D01*
X7992Y1950D01*
X8064Y1950D01*
X8092Y1935D01*
X8107Y1921D01*
X8121Y1892D01*
X8121Y1807D01*
X8107Y1778D01*
X8092Y1764D01*
X7821Y2135D02*
X7821Y2164D01*
X7835Y2192D01*
X7850Y2207D01*
X7878Y2221D01*
X7935Y2235D01*
X8007Y2235D01*
X8064Y2221D01*
X8092Y2207D01*
X8107Y2192D01*
X8121Y2164D01*
X8121Y2135D01*
X8107Y2107D01*
X8092Y2092D01*
X8064Y2078D01*
X8007Y2064D01*
X7935Y2064D01*
X7878Y2078D01*
X7850Y2092D01*
X7835Y2107D01*
X7821Y2135D01*
X7850Y2350D02*
X7835Y2364D01*
X7821Y2392D01*
X7821Y2464D01*
X7835Y2492D01*
X7850Y2507D01*
X7878Y2521D01*
X7907Y2521D01*
X7950Y2507D01*
X8121Y2335D01*
X8121Y2521D01*
X6821Y1628D02*
X6821Y1814D01*
X6935Y1714D01*
X6935Y1757D01*
X6950Y1785D01*
X6964Y1800D01*
X6992Y1814D01*
X7064Y1814D01*
X7092Y1800D01*
X7107Y1785D01*
X7121Y1757D01*
X7121Y1671D01*
X7107Y1642D01*
X7092Y1628D01*
X6821Y1900D02*
X7121Y2000D01*
X6821Y2100D01*
X6821Y2171D02*
X6821Y2357D01*
X6935Y2257D01*
X6935Y2300D01*
X6950Y2328D01*
X6964Y2342D01*
X6992Y2357D01*
X7064Y2357D01*
X7092Y2342D01*
X7107Y2328D01*
X7121Y2300D01*
X7121Y2214D01*
X7107Y2185D01*
X7092Y2171D01*
G54D12*
X35085Y3432D02*
X35142Y3413D01*
X35238Y3413D01*
X35276Y3432D01*
X35295Y3451D01*
X35314Y3489D01*
X35314Y3527D01*
X35295Y3565D01*
X35276Y3584D01*
X35238Y3603D01*
X35161Y3622D01*
X35123Y3641D01*
X35104Y3660D01*
X35085Y3698D01*
X35085Y3736D01*
X35104Y3775D01*
X35123Y3794D01*
X35161Y3813D01*
X35257Y3813D01*
X35314Y3794D01*
X35447Y3813D02*
X35542Y3413D01*
X35619Y3698D01*
X35695Y3413D01*
X35790Y3813D01*
X35923Y3775D02*
X35942Y3794D01*
X35980Y3813D01*
X36076Y3813D01*
X36114Y3794D01*
X36133Y3775D01*
X36152Y3736D01*
X36152Y3698D01*
X36133Y3641D01*
X35904Y3413D01*
X36152Y3413D01*
X36400Y3813D02*
X36438Y3813D01*
X36476Y3794D01*
X36495Y3775D01*
X36514Y3736D01*
X36533Y3660D01*
X36533Y3565D01*
X36514Y3489D01*
X36495Y3451D01*
X36476Y3432D01*
X36438Y3413D01*
X36400Y3413D01*
X36361Y3432D01*
X36342Y3451D01*
X36323Y3489D01*
X36304Y3565D01*
X36304Y3660D01*
X36323Y3736D01*
X36342Y3775D01*
X36361Y3794D01*
X36400Y3813D01*
X36666Y3813D02*
X36914Y3813D01*
X36780Y3660D01*
X36838Y3660D01*
X36876Y3641D01*
X36895Y3622D01*
X36914Y3584D01*
X36914Y3489D01*
X36895Y3451D01*
X36876Y3432D01*
X36838Y3413D01*
X36723Y3413D01*
X36685Y3432D01*
X36666Y3451D01*
X35504Y263D02*
X35371Y453D01*
X35276Y263D02*
X35276Y663D01*
X35428Y663D01*
X35466Y644D01*
X35485Y625D01*
X35504Y586D01*
X35504Y529D01*
X35485Y491D01*
X35466Y472D01*
X35428Y453D01*
X35276Y453D01*
X35828Y282D02*
X35790Y263D01*
X35714Y263D01*
X35676Y282D01*
X35657Y320D01*
X35657Y472D01*
X35676Y510D01*
X35714Y529D01*
X35790Y529D01*
X35828Y510D01*
X35847Y472D01*
X35847Y434D01*
X35657Y396D01*
X36000Y282D02*
X36038Y263D01*
X36114Y263D01*
X36152Y282D01*
X36171Y320D01*
X36171Y339D01*
X36152Y377D01*
X36114Y396D01*
X36057Y396D01*
X36019Y415D01*
X36000Y453D01*
X36000Y472D01*
X36019Y510D01*
X36057Y529D01*
X36114Y529D01*
X36152Y510D01*
X36495Y282D02*
X36457Y263D01*
X36380Y263D01*
X36342Y282D01*
X36323Y320D01*
X36323Y472D01*
X36342Y510D01*
X36380Y529D01*
X36457Y529D01*
X36495Y510D01*
X36514Y472D01*
X36514Y434D01*
X36323Y396D01*
X36628Y529D02*
X36780Y529D01*
X36685Y663D02*
X36685Y320D01*
X36704Y282D01*
X36742Y263D01*
X36780Y263D01*
G54D25*
X11279Y31064D02*
X11270Y31054D01*
X11242Y31045D01*
X11223Y31045D01*
X11195Y31054D01*
X11176Y31073D01*
X11166Y31092D01*
X11157Y31129D01*
X11157Y31157D01*
X11166Y31195D01*
X11176Y31214D01*
X11195Y31232D01*
X11223Y31242D01*
X11242Y31242D01*
X11270Y31232D01*
X11279Y31223D01*
X11354Y31223D02*
X11363Y31232D01*
X11382Y31242D01*
X11429Y31242D01*
X11448Y31232D01*
X11457Y31223D01*
X11467Y31204D01*
X11467Y31185D01*
X11457Y31157D01*
X11345Y31045D01*
X11467Y31045D01*
X11589Y31242D02*
X11607Y31242D01*
X11626Y31232D01*
X11636Y31223D01*
X11645Y31204D01*
X11654Y31167D01*
X11654Y31120D01*
X11645Y31082D01*
X11636Y31064D01*
X11626Y31054D01*
X11607Y31045D01*
X11589Y31045D01*
X11570Y31054D01*
X11560Y31064D01*
X11551Y31082D01*
X11542Y31120D01*
X11542Y31167D01*
X11551Y31204D01*
X11560Y31223D01*
X11570Y31232D01*
X11589Y31242D01*
X11720Y31242D02*
X11842Y31242D01*
X11776Y31167D01*
X11804Y31167D01*
X11823Y31157D01*
X11833Y31148D01*
X11842Y31129D01*
X11842Y31082D01*
X11833Y31064D01*
X11823Y31054D01*
X11804Y31045D01*
X11748Y31045D01*
X11729Y31054D01*
X11720Y31064D01*
X11279Y30770D02*
X11166Y30770D01*
X11223Y30770D02*
X11223Y30967D01*
X11204Y30939D01*
X11185Y30920D01*
X11166Y30910D01*
X11401Y30967D02*
X11420Y30967D01*
X11439Y30957D01*
X11448Y30948D01*
X11457Y30929D01*
X11467Y30892D01*
X11467Y30845D01*
X11457Y30807D01*
X11448Y30789D01*
X11439Y30779D01*
X11420Y30770D01*
X11401Y30770D01*
X11382Y30779D01*
X11373Y30789D01*
X11363Y30807D01*
X11354Y30845D01*
X11354Y30892D01*
X11363Y30929D01*
X11373Y30948D01*
X11382Y30957D01*
X11401Y30967D01*
X11589Y30967D02*
X11607Y30967D01*
X11626Y30957D01*
X11636Y30948D01*
X11645Y30929D01*
X11654Y30892D01*
X11654Y30845D01*
X11645Y30807D01*
X11636Y30789D01*
X11626Y30779D01*
X11607Y30770D01*
X11589Y30770D01*
X11570Y30779D01*
X11560Y30789D01*
X11551Y30807D01*
X11542Y30845D01*
X11542Y30892D01*
X11551Y30929D01*
X11560Y30948D01*
X11570Y30957D01*
X11589Y30967D01*
X11739Y30901D02*
X11739Y30770D01*
X11739Y30882D02*
X11748Y30892D01*
X11767Y30901D01*
X11795Y30901D01*
X11814Y30892D01*
X11823Y30873D01*
X11823Y30770D01*
X11279Y29064D02*
X11270Y29054D01*
X11242Y29045D01*
X11223Y29045D01*
X11195Y29054D01*
X11176Y29073D01*
X11166Y29092D01*
X11157Y29129D01*
X11157Y29157D01*
X11166Y29195D01*
X11176Y29214D01*
X11195Y29232D01*
X11223Y29242D01*
X11242Y29242D01*
X11270Y29232D01*
X11279Y29223D01*
X11354Y29223D02*
X11363Y29232D01*
X11382Y29242D01*
X11429Y29242D01*
X11448Y29232D01*
X11457Y29223D01*
X11467Y29204D01*
X11467Y29185D01*
X11457Y29157D01*
X11345Y29045D01*
X11467Y29045D01*
X11589Y29242D02*
X11607Y29242D01*
X11626Y29232D01*
X11636Y29223D01*
X11645Y29204D01*
X11654Y29167D01*
X11654Y29120D01*
X11645Y29082D01*
X11636Y29064D01*
X11626Y29054D01*
X11607Y29045D01*
X11589Y29045D01*
X11570Y29054D01*
X11560Y29064D01*
X11551Y29082D01*
X11542Y29120D01*
X11542Y29167D01*
X11551Y29204D01*
X11560Y29223D01*
X11570Y29232D01*
X11589Y29242D01*
X11823Y29176D02*
X11823Y29045D01*
X11776Y29251D02*
X11729Y29110D01*
X11851Y29110D01*
X11279Y28770D02*
X11166Y28770D01*
X11223Y28770D02*
X11223Y28967D01*
X11204Y28939D01*
X11185Y28920D01*
X11166Y28910D01*
X11401Y28967D02*
X11420Y28967D01*
X11439Y28957D01*
X11448Y28948D01*
X11457Y28929D01*
X11467Y28892D01*
X11467Y28845D01*
X11457Y28807D01*
X11448Y28789D01*
X11439Y28779D01*
X11420Y28770D01*
X11401Y28770D01*
X11382Y28779D01*
X11373Y28789D01*
X11363Y28807D01*
X11354Y28845D01*
X11354Y28892D01*
X11363Y28929D01*
X11373Y28948D01*
X11382Y28957D01*
X11401Y28967D01*
X11589Y28967D02*
X11607Y28967D01*
X11626Y28957D01*
X11636Y28948D01*
X11645Y28929D01*
X11654Y28892D01*
X11654Y28845D01*
X11645Y28807D01*
X11636Y28789D01*
X11626Y28779D01*
X11607Y28770D01*
X11589Y28770D01*
X11570Y28779D01*
X11560Y28789D01*
X11551Y28807D01*
X11542Y28845D01*
X11542Y28892D01*
X11551Y28929D01*
X11560Y28948D01*
X11570Y28957D01*
X11589Y28967D01*
X11739Y28901D02*
X11739Y28770D01*
X11739Y28882D02*
X11748Y28892D01*
X11767Y28901D01*
X11795Y28901D01*
X11814Y28892D01*
X11823Y28873D01*
X11823Y28770D01*
G54D18*
X33910Y27939D02*
X33910Y28539D01*
X34167Y27939D02*
X34167Y28253D01*
X34138Y28310D01*
X34081Y28339D01*
X33996Y28339D01*
X33938Y28310D01*
X33910Y28282D01*
X34710Y27939D02*
X34710Y28253D01*
X34681Y28310D01*
X34624Y28339D01*
X34510Y28339D01*
X34453Y28310D01*
X34710Y27967D02*
X34653Y27939D01*
X34510Y27939D01*
X34453Y27967D01*
X34424Y28024D01*
X34424Y28082D01*
X34453Y28139D01*
X34510Y28167D01*
X34653Y28167D01*
X34710Y28196D01*
X34996Y27939D02*
X34996Y28339D01*
X34996Y28224D02*
X35024Y28282D01*
X35053Y28310D01*
X35110Y28339D01*
X35167Y28339D01*
X35624Y27939D02*
X35624Y28539D01*
X35624Y27967D02*
X35567Y27939D01*
X35453Y27939D01*
X35396Y27967D01*
X35367Y27996D01*
X35338Y28053D01*
X35338Y28224D01*
X35367Y28282D01*
X35396Y28310D01*
X35453Y28339D01*
X35567Y28339D01*
X35624Y28310D01*
X35853Y28339D02*
X35967Y27939D01*
X36081Y28224D01*
X36196Y27939D01*
X36310Y28339D01*
X36796Y27939D02*
X36796Y28253D01*
X36767Y28310D01*
X36710Y28339D01*
X36596Y28339D01*
X36538Y28310D01*
X36796Y27967D02*
X36738Y27939D01*
X36596Y27939D01*
X36538Y27967D01*
X36510Y28024D01*
X36510Y28082D01*
X36538Y28139D01*
X36596Y28167D01*
X36738Y28167D01*
X36796Y28196D01*
X37081Y27939D02*
X37081Y28339D01*
X37081Y28224D02*
X37110Y28282D01*
X37138Y28310D01*
X37196Y28339D01*
X37253Y28339D01*
X37681Y27967D02*
X37624Y27939D01*
X37510Y27939D01*
X37453Y27967D01*
X37424Y28024D01*
X37424Y28253D01*
X37453Y28310D01*
X37510Y28339D01*
X37624Y28339D01*
X37681Y28310D01*
X37710Y28253D01*
X37710Y28196D01*
X37424Y28139D01*
X33453Y28766D02*
X33396Y28794D01*
X33368Y28823D01*
X33339Y28880D01*
X33339Y29051D01*
X33368Y29109D01*
X33396Y29137D01*
X33453Y29166D01*
X33539Y29166D01*
X33596Y29137D01*
X33625Y29109D01*
X33653Y29051D01*
X33653Y28880D01*
X33625Y28823D01*
X33596Y28794D01*
X33539Y28766D01*
X33453Y28766D01*
X33911Y29166D02*
X33911Y28566D01*
X33911Y29137D02*
X33968Y29166D01*
X34082Y29166D01*
X34139Y29137D01*
X34168Y29109D01*
X34196Y29051D01*
X34196Y28880D01*
X34168Y28823D01*
X34139Y28794D01*
X34082Y28766D01*
X33968Y28766D01*
X33911Y28794D01*
X34682Y28794D02*
X34625Y28766D01*
X34511Y28766D01*
X34453Y28794D01*
X34425Y28851D01*
X34425Y29080D01*
X34453Y29137D01*
X34511Y29166D01*
X34625Y29166D01*
X34682Y29137D01*
X34711Y29080D01*
X34711Y29023D01*
X34425Y28966D01*
X34968Y29166D02*
X34968Y28766D01*
X34968Y29109D02*
X34996Y29137D01*
X35053Y29166D01*
X35139Y29166D01*
X35196Y29137D01*
X35225Y29080D01*
X35225Y28766D01*
X35939Y28794D02*
X35996Y28766D01*
X36111Y28766D01*
X36168Y28794D01*
X36196Y28851D01*
X36196Y28880D01*
X36168Y28937D01*
X36111Y28966D01*
X36025Y28966D01*
X35968Y28994D01*
X35939Y29051D01*
X35939Y29080D01*
X35968Y29137D01*
X36025Y29166D01*
X36111Y29166D01*
X36168Y29137D01*
X36539Y28766D02*
X36482Y28794D01*
X36453Y28823D01*
X36425Y28880D01*
X36425Y29051D01*
X36453Y29109D01*
X36482Y29137D01*
X36539Y29166D01*
X36625Y29166D01*
X36682Y29137D01*
X36711Y29109D01*
X36739Y29051D01*
X36739Y28880D01*
X36711Y28823D01*
X36682Y28794D01*
X36625Y28766D01*
X36539Y28766D01*
X37253Y29166D02*
X37253Y28766D01*
X36996Y29166D02*
X36996Y28851D01*
X37025Y28794D01*
X37082Y28766D01*
X37168Y28766D01*
X37225Y28794D01*
X37253Y28823D01*
X37539Y28766D02*
X37539Y29166D01*
X37539Y29051D02*
X37568Y29109D01*
X37596Y29137D01*
X37653Y29166D01*
X37711Y29166D01*
X38168Y28794D02*
X38111Y28766D01*
X37996Y28766D01*
X37939Y28794D01*
X37911Y28823D01*
X37882Y28880D01*
X37882Y29051D01*
X37911Y29109D01*
X37939Y29137D01*
X37996Y29166D01*
X38111Y29166D01*
X38168Y29137D01*
X38653Y28794D02*
X38596Y28766D01*
X38482Y28766D01*
X38425Y28794D01*
X38396Y28851D01*
X38396Y29080D01*
X38425Y29137D01*
X38482Y29166D01*
X38596Y29166D01*
X38653Y29137D01*
X38682Y29080D01*
X38682Y29023D01*
X38396Y28966D01*
G54D24*
X5809Y29890D02*
X6038Y29890D01*
X6083Y29876D01*
X6114Y29850D01*
X6129Y29810D01*
X6129Y29783D01*
X5840Y30010D02*
X5824Y30023D01*
X5809Y30050D01*
X5809Y30116D01*
X5824Y30143D01*
X5840Y30156D01*
X5870Y30170D01*
X5900Y30170D01*
X5946Y30156D01*
X6129Y29996D01*
X6129Y30170D01*
X5809Y30343D02*
X5809Y30370D01*
X5824Y30396D01*
X5840Y30410D01*
X5870Y30423D01*
X5931Y30436D01*
X6007Y30436D01*
X6068Y30423D01*
X6099Y30410D01*
X6114Y30396D01*
X6129Y30370D01*
X6129Y30343D01*
X6114Y30316D01*
X6099Y30303D01*
X6068Y30290D01*
X6007Y30276D01*
X5931Y30276D01*
X5870Y30290D01*
X5840Y30303D01*
X5824Y30316D01*
X5809Y30343D01*
X6129Y30703D02*
X6129Y30543D01*
X6129Y30623D02*
X5809Y30623D01*
X5855Y30596D01*
X5885Y30570D01*
X5900Y30543D01*
X4379Y27823D02*
X4059Y27823D01*
X4059Y27930D01*
X4074Y27956D01*
X4090Y27970D01*
X4120Y27983D01*
X4166Y27983D01*
X4196Y27970D01*
X4211Y27956D01*
X4227Y27930D01*
X4227Y27823D01*
X4059Y28103D02*
X4318Y28103D01*
X4349Y28116D01*
X4364Y28130D01*
X4379Y28156D01*
X4379Y28210D01*
X4364Y28236D01*
X4349Y28250D01*
X4318Y28263D01*
X4059Y28263D01*
X4379Y28530D02*
X4379Y28396D01*
X4059Y28396D01*
X4364Y28610D02*
X4379Y28650D01*
X4379Y28716D01*
X4364Y28743D01*
X4349Y28756D01*
X4318Y28770D01*
X4288Y28770D01*
X4257Y28756D01*
X4242Y28743D01*
X4227Y28716D01*
X4211Y28663D01*
X4196Y28636D01*
X4181Y28623D01*
X4150Y28610D01*
X4120Y28610D01*
X4090Y28623D01*
X4074Y28636D01*
X4059Y28663D01*
X4059Y28730D01*
X4074Y28770D01*
X4211Y28889D02*
X4211Y28983D01*
X4379Y29023D02*
X4379Y28889D01*
X4059Y28889D01*
X4059Y29023D01*
X4410Y29076D02*
X4410Y29290D01*
X4059Y29436D02*
X4288Y29436D01*
X4333Y29423D01*
X4364Y29396D01*
X4379Y29356D01*
X4379Y29330D01*
X4059Y29623D02*
X4059Y29650D01*
X4074Y29676D01*
X4090Y29690D01*
X4120Y29703D01*
X4181Y29716D01*
X4257Y29716D01*
X4318Y29703D01*
X4349Y29690D01*
X4364Y29676D01*
X4379Y29650D01*
X4379Y29623D01*
X4364Y29596D01*
X4349Y29583D01*
X4318Y29570D01*
X4257Y29556D01*
X4181Y29556D01*
X4120Y29570D01*
X4090Y29583D01*
X4074Y29596D01*
X4059Y29623D01*
X4059Y29890D02*
X4059Y29916D01*
X4074Y29943D01*
X4090Y29956D01*
X4120Y29970D01*
X4181Y29983D01*
X4257Y29983D01*
X4318Y29970D01*
X4349Y29956D01*
X4364Y29943D01*
X4379Y29916D01*
X4379Y29890D01*
X4364Y29863D01*
X4349Y29850D01*
X4318Y29836D01*
X4257Y29823D01*
X4181Y29823D01*
X4120Y29836D01*
X4090Y29850D01*
X4074Y29863D01*
X4059Y29890D01*
X4379Y30250D02*
X4379Y30090D01*
X4379Y30170D02*
X4059Y30170D01*
X4105Y30143D01*
X4135Y30116D01*
X4150Y30090D01*
X4379Y30516D02*
X4379Y30356D01*
X4379Y30436D02*
X4059Y30436D01*
X4105Y30409D01*
X4135Y30383D01*
X4150Y30356D01*
X4410Y30569D02*
X4410Y30783D01*
X4379Y30849D02*
X4059Y30849D01*
X4059Y30956D01*
X4074Y30983D01*
X4090Y30996D01*
X4120Y31009D01*
X4166Y31009D01*
X4196Y30996D01*
X4211Y30983D01*
X4227Y30956D01*
X4227Y30849D01*
X4379Y31129D02*
X4059Y31129D01*
X4211Y31129D02*
X4211Y31289D01*
X4379Y31289D02*
X4059Y31289D01*
X4227Y31476D02*
X4379Y31476D01*
X4059Y31383D02*
X4227Y31476D01*
X4059Y31570D01*
X4410Y31596D02*
X4410Y31810D01*
X4364Y31863D02*
X4379Y31903D01*
X4379Y31970D01*
X4364Y31996D01*
X4349Y32010D01*
X4318Y32023D01*
X4288Y32023D01*
X4257Y32010D01*
X4242Y31996D01*
X4227Y31970D01*
X4211Y31916D01*
X4196Y31890D01*
X4181Y31876D01*
X4150Y31863D01*
X4120Y31863D01*
X4090Y31876D01*
X4074Y31890D01*
X4059Y31916D01*
X4059Y31983D01*
X4074Y32023D01*
X4379Y32143D02*
X4059Y32143D01*
X4379Y32276D02*
X4059Y32276D01*
X4059Y32343D01*
X4074Y32383D01*
X4105Y32410D01*
X4135Y32423D01*
X4196Y32436D01*
X4242Y32436D01*
X4303Y32423D01*
X4333Y32410D01*
X4364Y32383D01*
X4379Y32343D01*
X4379Y32276D01*
X4211Y32556D02*
X4211Y32650D01*
X4379Y32690D02*
X4379Y32556D01*
X4059Y32556D01*
X4059Y32690D01*
M02*
