G04 (created by PCBNEW (2013-07-07 BZR 4022)-stable) date 22/10/2013 00:57:18*
%MOIN*%
G04 Gerber Fmt 3.4, Leading zero omitted, Abs format*
%FSLAX34Y34*%
G01*
G70*
G90*
G04 APERTURE LIST*
%ADD10C,0.00590551*%
%ADD11R,0.055X0.055*%
%ADD12C,0.055*%
%ADD13R,0.0984X0.055*%
%ADD14R,0.06X0.06*%
%ADD15C,0.06*%
%ADD16C,0.0354*%
%ADD17C,0.1772*%
%ADD18O,0.06X0.1*%
%ADD19C,0.125*%
%ADD20C,0.0944882*%
%ADD21R,0.0944882X0.0944882*%
%ADD22R,0.06X0.0866*%
%ADD23O,0.06X0.0866*%
%ADD24R,0.07X0.07*%
%ADD25C,0.07*%
%ADD26R,0.35X0.35*%
%ADD27C,0.16*%
%ADD28R,0.0591X0.0591*%
%ADD29C,0.0591*%
%ADD30C,0.09*%
%ADD31C,0.065*%
%ADD32C,0.035*%
%ADD33C,0.01*%
G04 APERTURE END LIST*
G54D10*
G54D11*
X1000Y10000D03*
G54D12*
X2000Y10000D03*
X3000Y10000D03*
X4000Y10000D03*
X5000Y10000D03*
X6000Y10000D03*
X7000Y10000D03*
X8000Y10000D03*
X9000Y10000D03*
X10000Y10000D03*
X11000Y10000D03*
X12000Y10000D03*
X13000Y10000D03*
X14000Y10000D03*
X15000Y10000D03*
X16000Y10000D03*
X17000Y10000D03*
X18000Y10000D03*
X19000Y10000D03*
X20000Y10000D03*
X21000Y10000D03*
X22000Y10000D03*
X23000Y10000D03*
X24000Y10000D03*
X25000Y10000D03*
X26000Y10000D03*
X27000Y10000D03*
X1000Y19000D03*
X2000Y19000D03*
X3000Y19000D03*
X4000Y19000D03*
X5000Y19000D03*
X6000Y19000D03*
X7000Y19000D03*
X8000Y19000D03*
X9000Y19000D03*
X10000Y19000D03*
X11000Y19000D03*
X12000Y19000D03*
X13000Y19000D03*
X14000Y19000D03*
X15000Y19000D03*
X16000Y19000D03*
X17000Y19000D03*
X18000Y19000D03*
X19000Y19000D03*
X20000Y19000D03*
X21000Y19000D03*
X22000Y19000D03*
X23000Y19000D03*
X24000Y19000D03*
X25000Y19000D03*
X26000Y19000D03*
X27000Y19000D03*
X27000Y17000D03*
X26000Y17000D03*
X25000Y17000D03*
X27000Y16000D03*
X26000Y16000D03*
X25000Y16000D03*
X27000Y15000D03*
X26000Y15000D03*
X25000Y15000D03*
X27000Y14000D03*
X26000Y14000D03*
X25000Y14000D03*
X27000Y13000D03*
X26000Y13000D03*
X25000Y13000D03*
X27000Y12000D03*
X26000Y12000D03*
X25000Y12000D03*
X24000Y12000D03*
G54D13*
X32779Y2886D03*
X32779Y1114D03*
X30220Y2886D03*
X30220Y1114D03*
G54D14*
X15500Y33000D03*
G54D15*
X14500Y33000D03*
X13500Y33000D03*
X12500Y33000D03*
G54D14*
X13000Y2500D03*
G54D15*
X13000Y1500D03*
G54D14*
X10000Y2500D03*
G54D15*
X10000Y1500D03*
G54D14*
X11500Y2500D03*
G54D15*
X11500Y1500D03*
G54D14*
X15500Y1500D03*
G54D15*
X15500Y2500D03*
G54D16*
X2157Y24866D03*
X2157Y23134D03*
G54D17*
X35500Y24000D03*
X6000Y24000D03*
X38000Y5000D03*
X5500Y5000D03*
G54D18*
X27000Y24000D03*
X28000Y24000D03*
X29000Y24000D03*
X30000Y24000D03*
X31000Y24000D03*
X32000Y24000D03*
X33000Y24000D03*
X34000Y24000D03*
X36000Y5000D03*
X35000Y5000D03*
X34000Y5000D03*
X33000Y5000D03*
X29000Y5000D03*
X27000Y5000D03*
X26000Y5000D03*
X30000Y5000D03*
X31000Y5000D03*
X32000Y5000D03*
X25000Y5000D03*
X24000Y5000D03*
X23000Y5000D03*
X20000Y5000D03*
X21000Y5000D03*
X22000Y5000D03*
X18000Y5000D03*
X17000Y5000D03*
X16000Y5000D03*
X14000Y5000D03*
X13000Y5000D03*
X25000Y24000D03*
X24000Y24000D03*
X23000Y24000D03*
X22000Y24000D03*
X21000Y24000D03*
X20000Y24000D03*
X19000Y24000D03*
X18000Y24000D03*
X16400Y24000D03*
X15400Y24000D03*
X14400Y24000D03*
X13400Y24000D03*
X12400Y24000D03*
X11400Y24000D03*
X10400Y24000D03*
X9400Y24000D03*
X15000Y5000D03*
G54D19*
X38000Y5000D03*
X35500Y24000D03*
X6000Y24000D03*
X5500Y5000D03*
G54D15*
X37000Y23000D03*
X38000Y23000D03*
X37000Y22000D03*
X38000Y22000D03*
X37000Y21000D03*
X38000Y21000D03*
X37000Y20000D03*
X38000Y20000D03*
X37000Y24000D03*
X38000Y24000D03*
X38000Y19000D03*
X37000Y19000D03*
X37000Y18000D03*
X38000Y18000D03*
X37000Y17000D03*
X38000Y17000D03*
X37000Y16000D03*
X38000Y16000D03*
X37000Y15000D03*
X38000Y15000D03*
X37000Y14000D03*
X38000Y14000D03*
X37000Y13000D03*
X38000Y13000D03*
X37000Y12000D03*
X38000Y12000D03*
X37000Y11000D03*
X38000Y11000D03*
X37000Y10000D03*
X38000Y10000D03*
X37000Y9000D03*
X38000Y9000D03*
X37000Y8000D03*
X38000Y8000D03*
X37000Y7000D03*
X38000Y7000D03*
G54D18*
X8400Y24000D03*
X7400Y24000D03*
X12000Y5000D03*
X11000Y5000D03*
G54D20*
X1775Y6188D03*
G54D21*
X1775Y4811D03*
G54D22*
X18000Y1500D03*
G54D23*
X19000Y1500D03*
X20000Y1500D03*
X21000Y1500D03*
X22000Y1500D03*
X23000Y1500D03*
G54D24*
X31500Y13500D03*
G54D25*
X29500Y13500D03*
X30500Y13500D03*
G54D26*
X30500Y20000D03*
G54D13*
X37279Y2886D03*
X37279Y1114D03*
X34720Y2886D03*
X34720Y1114D03*
G54D27*
X4250Y28000D03*
X4250Y32500D03*
G54D28*
X6750Y32000D03*
G54D29*
X7750Y31500D03*
X6750Y31000D03*
X7750Y30500D03*
X6750Y30000D03*
X7750Y29500D03*
X6750Y29000D03*
X7750Y28500D03*
G54D30*
X5450Y33350D03*
X5450Y27150D03*
G54D31*
X2650Y32850D03*
X2650Y31850D03*
X2650Y28650D03*
X2650Y27650D03*
G54D32*
X8547Y25009D03*
X21080Y8809D03*
X8119Y14444D03*
X33759Y15048D03*
X16465Y8560D03*
X30592Y9083D03*
X28844Y16177D03*
X29422Y15642D03*
X1596Y15838D03*
X2948Y14701D03*
X3769Y24643D03*
X33242Y15975D03*
X27275Y9209D03*
X26711Y10990D03*
G54D33*
X30220Y2885D02*
X30220Y2885D01*
X30220Y2885D02*
X30220Y2885D01*
X24000Y18375D02*
X24000Y19000D01*
X22972Y17347D02*
X24000Y18375D01*
X22972Y10655D02*
X22972Y17347D01*
X23500Y10127D02*
X22972Y10655D01*
X23500Y9875D02*
X23500Y10127D01*
X25309Y8065D02*
X23500Y9875D01*
X26790Y8065D02*
X25309Y8065D01*
X29500Y5355D02*
X26790Y8065D01*
X29500Y2963D02*
X29500Y5355D01*
X29577Y2885D02*
X29500Y2963D01*
X30220Y2885D02*
X29577Y2885D01*
X4748Y20251D02*
X6000Y19000D01*
X4748Y24857D02*
X4748Y20251D01*
X6252Y26360D02*
X4748Y24857D01*
X6252Y28418D02*
X6252Y26360D01*
X6098Y28571D02*
X6252Y28418D01*
X6098Y30348D02*
X6098Y28571D01*
X6750Y31000D02*
X6098Y30348D01*
X8207Y29957D02*
X8207Y31961D01*
X7750Y29500D02*
X8207Y29957D01*
X9245Y33000D02*
X12500Y33000D01*
X8207Y31961D02*
X9245Y33000D01*
X4548Y19451D02*
X5000Y19000D01*
X4548Y24940D02*
X4548Y19451D01*
X6052Y26443D02*
X4548Y24940D01*
X6052Y28335D02*
X6052Y26443D01*
X5898Y28488D02*
X6052Y28335D01*
X5898Y30787D02*
X5898Y28488D01*
X6665Y31554D02*
X5898Y30787D01*
X7155Y31554D02*
X6665Y31554D01*
X7562Y31961D02*
X7155Y31554D01*
X8207Y31961D02*
X7562Y31961D01*
X15049Y33112D02*
X15049Y33000D01*
X14712Y33450D02*
X15049Y33112D01*
X8645Y33450D02*
X14712Y33450D01*
X7195Y32000D02*
X8645Y33450D01*
X6750Y32000D02*
X7195Y32000D01*
X15500Y33000D02*
X15049Y33000D01*
X7935Y19064D02*
X8000Y19000D01*
X7935Y24397D02*
X7935Y19064D01*
X8547Y25009D02*
X7935Y24397D01*
X4948Y21051D02*
X7000Y19000D01*
X4948Y24674D02*
X4948Y21051D01*
X6452Y26178D02*
X4948Y24674D01*
X6452Y28601D02*
X6452Y26178D01*
X6299Y28754D02*
X6452Y28601D01*
X6299Y30184D02*
X6299Y28754D01*
X6615Y30500D02*
X6299Y30184D01*
X6922Y30500D02*
X6615Y30500D01*
X7750Y31327D02*
X6922Y30500D01*
X7750Y31500D02*
X7750Y31327D01*
X13000Y4350D02*
X13000Y5000D01*
X12526Y3876D02*
X13000Y4350D01*
X12526Y1881D02*
X12526Y3876D01*
X11687Y1042D02*
X12526Y1881D01*
X9798Y1042D02*
X11687Y1042D01*
X7406Y3434D02*
X9798Y1042D01*
X7406Y6593D02*
X7406Y3434D01*
X4000Y10000D02*
X7406Y6593D01*
X22571Y10571D02*
X22000Y10000D01*
X22571Y20921D02*
X22571Y10571D01*
X25000Y23349D02*
X22571Y20921D01*
X25000Y24000D02*
X25000Y23349D01*
X21124Y8809D02*
X21080Y8809D01*
X24468Y5464D02*
X21124Y8809D01*
X24468Y4620D02*
X24468Y5464D01*
X24002Y4155D02*
X24468Y4620D01*
X23872Y4155D02*
X24002Y4155D01*
X21450Y1732D02*
X23872Y4155D01*
X21450Y1500D02*
X21450Y1732D01*
X21000Y1500D02*
X21450Y1500D01*
X20569Y10430D02*
X21000Y10000D01*
X20569Y19918D02*
X20569Y10430D01*
X24000Y23349D02*
X20569Y19918D01*
X24000Y24000D02*
X24000Y23349D01*
X25456Y5543D02*
X21000Y10000D01*
X25456Y4619D02*
X25456Y5543D01*
X23117Y2280D02*
X25456Y4619D01*
X23001Y2280D02*
X23117Y2280D01*
X22450Y1729D02*
X23001Y2280D01*
X22450Y1500D02*
X22450Y1729D01*
X22000Y1500D02*
X22450Y1500D01*
X12000Y5650D02*
X12000Y5000D01*
X10500Y7150D02*
X12000Y5650D01*
X10500Y12063D02*
X10500Y7150D01*
X8119Y14444D02*
X10500Y12063D01*
X7297Y29698D02*
X7122Y29872D01*
X7297Y27362D02*
X7297Y29698D01*
X8872Y25786D02*
X7297Y27362D01*
X8872Y21498D02*
X8872Y25786D01*
X8429Y21054D02*
X8872Y21498D01*
X8429Y14753D02*
X8429Y21054D01*
X8119Y14444D02*
X8429Y14753D01*
X7750Y30500D02*
X7122Y29872D01*
X6877Y29872D02*
X6750Y30000D01*
X7122Y29872D02*
X6877Y29872D01*
X15000Y3500D02*
X15000Y5000D01*
X13000Y1500D02*
X15000Y3500D01*
X37468Y23531D02*
X37000Y24000D01*
X37531Y23531D02*
X37468Y23531D01*
X37531Y23531D02*
X38000Y24000D01*
X37531Y15532D02*
X37531Y23531D01*
X34244Y15532D02*
X33759Y15048D01*
X37531Y15532D02*
X34244Y15532D01*
X38127Y15532D02*
X37531Y15532D01*
X38453Y15206D02*
X38127Y15532D01*
X38453Y8796D02*
X38453Y15206D01*
X38156Y8500D02*
X38453Y8796D01*
X37863Y8500D02*
X38156Y8500D01*
X37550Y8186D02*
X37863Y8500D01*
X37550Y6534D02*
X37550Y8186D01*
X36497Y5481D02*
X37550Y6534D01*
X36497Y4647D02*
X36497Y5481D01*
X35216Y3367D02*
X36497Y4647D01*
X32012Y3367D02*
X35216Y3367D01*
X30556Y1911D02*
X32012Y3367D01*
X29879Y1911D02*
X30556Y1911D01*
X28664Y696D02*
X29879Y1911D01*
X16753Y696D02*
X28664Y696D01*
X15950Y1500D02*
X16753Y696D01*
X15500Y1500D02*
X15950Y1500D01*
X13450Y5544D02*
X16465Y8560D01*
X13450Y3400D02*
X13450Y5544D01*
X13000Y2950D02*
X13450Y3400D01*
X13000Y2500D02*
X13000Y2950D01*
X30500Y9175D02*
X30592Y9083D01*
X30500Y13500D02*
X30500Y9175D01*
X23350Y5650D02*
X19000Y10000D01*
X24000Y5650D02*
X23350Y5650D01*
X24000Y5000D02*
X24000Y5650D01*
X20349Y10000D02*
X20000Y10000D01*
X24699Y5650D02*
X20349Y10000D01*
X25000Y5650D02*
X24699Y5650D01*
X25000Y5000D02*
X25000Y5650D01*
X26500Y12500D02*
X26000Y12000D01*
X27792Y12500D02*
X26500Y12500D01*
X29499Y14207D02*
X27792Y12500D01*
X32122Y14207D02*
X29499Y14207D01*
X36793Y9536D02*
X32122Y14207D01*
X37196Y9536D02*
X36793Y9536D01*
X37500Y9839D02*
X37196Y9536D01*
X37500Y14500D02*
X37500Y9839D01*
X38000Y15000D02*
X37500Y14500D01*
X28822Y16177D02*
X28844Y16177D01*
X26000Y19000D02*
X28822Y16177D01*
X1000Y6964D02*
X1000Y10000D01*
X1775Y6188D02*
X1000Y6964D01*
X32098Y11901D02*
X37000Y7000D01*
X32098Y13813D02*
X32098Y11901D01*
X31908Y14003D02*
X32098Y13813D01*
X30003Y14003D02*
X31908Y14003D01*
X29500Y13500D02*
X30003Y14003D01*
X18000Y3350D02*
X18000Y1500D01*
X17000Y4350D02*
X18000Y3350D01*
X17000Y5000D02*
X17000Y4350D01*
X38000Y6523D02*
X38000Y7000D01*
X36885Y5409D02*
X38000Y6523D01*
X36885Y4002D02*
X36885Y5409D01*
X36637Y3753D02*
X36885Y4002D01*
X36637Y1114D02*
X36637Y3753D01*
X29422Y16577D02*
X29422Y15642D01*
X27000Y19000D02*
X29422Y16577D01*
X37279Y1114D02*
X37278Y1114D01*
X37278Y1114D02*
X36637Y1114D01*
X37278Y1114D02*
X37279Y1114D01*
X10400Y25850D02*
X7750Y28500D01*
X10400Y24000D02*
X10400Y25850D01*
X34720Y1114D02*
X36637Y1114D01*
X4250Y32500D02*
X4250Y28000D01*
X34720Y1114D02*
X34720Y1114D01*
X34720Y1114D02*
X34720Y1114D01*
X13831Y831D02*
X15500Y2500D01*
X9718Y831D02*
X13831Y831D01*
X7135Y3414D02*
X9718Y831D01*
X7135Y4864D02*
X7135Y3414D01*
X2000Y10000D02*
X7135Y4864D01*
X1596Y14403D02*
X1596Y15838D01*
X6000Y10000D02*
X1596Y14403D01*
X22771Y10228D02*
X23000Y10000D01*
X22771Y17846D02*
X22771Y10228D01*
X23500Y18574D02*
X22771Y17846D01*
X23500Y19850D02*
X23500Y18574D01*
X27000Y23349D02*
X23500Y19850D01*
X27000Y24000D02*
X27000Y23349D01*
X28000Y23349D02*
X28000Y24000D01*
X24482Y19832D02*
X28000Y23349D01*
X24482Y18574D02*
X24482Y19832D01*
X23172Y17264D02*
X24482Y18574D01*
X23172Y10827D02*
X23172Y17264D01*
X24000Y10000D02*
X23172Y10827D01*
X15433Y18566D02*
X15000Y19000D01*
X16174Y18566D02*
X15433Y18566D01*
X16444Y18836D02*
X16174Y18566D01*
X16444Y23305D02*
X16444Y18836D01*
X16400Y23349D02*
X16444Y23305D01*
X16400Y24000D02*
X16400Y23349D01*
X16000Y22749D02*
X16000Y19000D01*
X15400Y23349D02*
X16000Y22749D01*
X15400Y24000D02*
X15400Y23349D01*
X16366Y18366D02*
X17000Y19000D01*
X15013Y18366D02*
X16366Y18366D01*
X14500Y18880D02*
X15013Y18366D01*
X14500Y23249D02*
X14500Y18880D01*
X14400Y23349D02*
X14500Y23249D01*
X14400Y24000D02*
X14400Y23349D01*
X17425Y19574D02*
X18000Y19000D01*
X17425Y23827D02*
X17425Y19574D01*
X16602Y24650D02*
X17425Y23827D01*
X13400Y24650D02*
X16602Y24650D01*
X13400Y24000D02*
X13400Y24650D01*
X18163Y18163D02*
X19000Y19000D01*
X14225Y18163D02*
X18163Y18163D01*
X13500Y18889D02*
X14225Y18163D01*
X13500Y22249D02*
X13500Y18889D01*
X12400Y23349D02*
X13500Y22249D01*
X12400Y24000D02*
X12400Y23349D01*
X20000Y20350D02*
X20000Y19000D01*
X23000Y23349D02*
X20000Y20350D01*
X23000Y24000D02*
X23000Y23349D01*
X7400Y23349D02*
X7400Y24000D01*
X7515Y23234D02*
X7400Y23349D01*
X7515Y12484D02*
X7515Y23234D01*
X10000Y10000D02*
X7515Y12484D01*
X2948Y14051D02*
X2948Y14701D01*
X7000Y10000D02*
X2948Y14051D01*
X25444Y10555D02*
X26000Y10000D01*
X24540Y10555D02*
X25444Y10555D01*
X23372Y11724D02*
X24540Y10555D01*
X23372Y16631D02*
X23372Y11724D01*
X25500Y18759D02*
X23372Y16631D01*
X25500Y19101D02*
X25500Y18759D01*
X29748Y23349D02*
X25500Y19101D01*
X33000Y23349D02*
X29748Y23349D01*
X33000Y24000D02*
X33000Y23349D01*
X19500Y15500D02*
X14000Y10000D01*
X19500Y21849D02*
X19500Y15500D01*
X21000Y23349D02*
X19500Y21849D01*
X21000Y24000D02*
X21000Y23349D01*
X15743Y9256D02*
X15000Y10000D01*
X16393Y9256D02*
X15743Y9256D01*
X20000Y5650D02*
X16393Y9256D01*
X20000Y5000D02*
X20000Y5650D01*
X20350Y5650D02*
X16000Y10000D01*
X21000Y5650D02*
X20350Y5650D01*
X21000Y5000D02*
X21000Y5650D01*
X21350Y5650D02*
X17000Y10000D01*
X22000Y5650D02*
X21350Y5650D01*
X22000Y5000D02*
X22000Y5650D01*
X22350Y5650D02*
X18000Y10000D01*
X23000Y5650D02*
X22350Y5650D01*
X23000Y5000D02*
X23000Y5650D01*
X31500Y11255D02*
X31500Y13500D01*
X35456Y7298D02*
X31500Y11255D01*
X35456Y4601D02*
X35456Y7298D01*
X35102Y4246D02*
X35456Y4601D01*
X32565Y4246D02*
X35102Y4246D01*
X30728Y2409D02*
X32565Y4246D01*
X30076Y2409D02*
X30728Y2409D01*
X28583Y916D02*
X30076Y2409D01*
X20797Y916D02*
X28583Y916D01*
X20500Y1213D02*
X20797Y916D01*
X20500Y1850D02*
X20500Y1213D01*
X18000Y4350D02*
X20500Y1850D01*
X18000Y5000D02*
X18000Y4350D01*
X2000Y16109D02*
X2000Y19000D01*
X7500Y10609D02*
X2000Y16109D01*
X7500Y8240D02*
X7500Y10609D01*
X7632Y8107D02*
X7500Y8240D01*
X7632Y4042D02*
X7632Y8107D01*
X9625Y2050D02*
X7632Y4042D01*
X10599Y2050D02*
X9625Y2050D01*
X11049Y2500D02*
X10599Y2050D01*
X11500Y2500D02*
X11049Y2500D01*
X3560Y24434D02*
X3769Y24643D01*
X3560Y15524D02*
X3560Y24434D01*
X8457Y10627D02*
X3560Y15524D01*
X8457Y4492D02*
X8457Y10627D01*
X10000Y2950D02*
X8457Y4492D01*
X10000Y2500D02*
X10000Y2950D01*
X21500Y18500D02*
X21000Y19000D01*
X21500Y9898D02*
X21500Y18500D01*
X23831Y7566D02*
X21500Y9898D01*
X26433Y7566D02*
X23831Y7566D01*
X29000Y5000D02*
X26433Y7566D01*
X28009Y13000D02*
X27000Y13000D01*
X29416Y14407D02*
X28009Y13000D01*
X32592Y14407D02*
X29416Y14407D01*
X37000Y10000D02*
X32592Y14407D01*
X26370Y17629D02*
X27000Y17000D01*
X24714Y17629D02*
X26370Y17629D01*
X23572Y16487D02*
X24714Y17629D01*
X23572Y11807D02*
X23572Y16487D01*
X24063Y11315D02*
X23572Y11807D01*
X25285Y11315D02*
X24063Y11315D01*
X26500Y10101D02*
X25285Y11315D01*
X26500Y9150D02*
X26500Y10101D01*
X30000Y5650D02*
X26500Y9150D01*
X30000Y5000D02*
X30000Y5650D01*
X36266Y19000D02*
X33242Y15975D01*
X37000Y19000D02*
X36266Y19000D01*
X27316Y15316D02*
X27000Y15000D01*
X29558Y15316D02*
X27316Y15316D01*
X37000Y22758D02*
X29558Y15316D01*
X37000Y23000D02*
X37000Y22758D01*
X30834Y5650D02*
X27275Y9209D01*
X31000Y5650D02*
X30834Y5650D01*
X31000Y5000D02*
X31000Y5650D01*
X26425Y13425D02*
X26000Y13000D01*
X27718Y13425D02*
X26425Y13425D01*
X28900Y14607D02*
X27718Y13425D01*
X32817Y14607D02*
X28900Y14607D01*
X36424Y11000D02*
X32817Y14607D01*
X37000Y11000D02*
X36424Y11000D01*
X25574Y17425D02*
X26000Y17000D01*
X24817Y17425D02*
X25574Y17425D01*
X24559Y17166D02*
X24817Y17425D01*
X24559Y11821D02*
X24559Y17166D01*
X24849Y11531D02*
X24559Y11821D01*
X25569Y11531D02*
X24849Y11531D01*
X26558Y10542D02*
X25569Y11531D01*
X27107Y10542D02*
X26558Y10542D01*
X32000Y5650D02*
X27107Y10542D01*
X32000Y5000D02*
X32000Y5650D01*
X27807Y14807D02*
X27000Y14000D01*
X32900Y14807D02*
X27807Y14807D01*
X32984Y14722D02*
X32900Y14807D01*
X36722Y14722D02*
X32984Y14722D01*
X37000Y15000D02*
X36722Y14722D01*
X33000Y5650D02*
X33000Y5000D01*
X27659Y10990D02*
X33000Y5650D01*
X26711Y10990D02*
X27659Y10990D01*
X25500Y16500D02*
X25000Y17000D01*
X25500Y11891D02*
X25500Y16500D01*
X26059Y11331D02*
X25500Y11891D01*
X27668Y11331D02*
X26059Y11331D01*
X33350Y5650D02*
X27668Y11331D01*
X34000Y5650D02*
X33350Y5650D01*
X34000Y5000D02*
X34000Y5650D01*
X26500Y14500D02*
X26000Y14000D01*
X27216Y14500D02*
X26500Y14500D01*
X27833Y15116D02*
X27216Y14500D01*
X31116Y15116D02*
X27833Y15116D01*
X37000Y21000D02*
X31116Y15116D01*
M02*
