M48
INCH,TZ
T1C0.025
T2C0.032
T3C0.035
T4C0.039
T5C0.040
T6C0.045
T7C0.047
T8C0.063
T9C0.120
T10C0.122
T11C0.125
T12C0.128
%
G90
G05
T1
X0.1596Y1.5839
X0.2949Y1.4701
X0.377Y2.4643
X0.8119Y1.4444
X0.8547Y2.501
X1.6466Y0.856
X2.1081Y0.8809
X2.6711Y1.0991
X2.7276Y0.9209
X2.8845Y1.6177
X2.9422Y1.5643
X3.0593Y0.9083
X3.3243Y1.5976
X3.376Y1.5048
T2
X0.1Y1.9
X0.1Y1.
X0.2Y1.9
X0.2Y1.
X0.3Y1.9
X0.3Y1.
X0.4Y1.9
X0.4Y1.
X0.5Y1.9
X0.5Y1.
X0.6Y1.9
X0.6Y1.
X0.7Y1.9
X0.7Y1.
X0.8Y1.9
X0.8Y1.
X0.9Y1.9
X0.9Y1.
X1.Y1.9
X1.Y1.
X1.1Y1.9
X1.1Y1.
X1.2Y1.9
X1.2Y1.
X1.3Y1.9
X1.3Y1.
X1.4Y1.9
X1.4Y1.
X1.5Y1.9
X1.5Y1.
X1.6Y1.9
X1.6Y1.
X1.7Y1.9
X1.7Y1.
X1.8Y1.9
X1.8Y1.
X1.9Y1.9
X1.9Y1.
X2.Y1.9
X2.Y1.
X2.1Y1.9
X2.1Y1.
X2.2Y1.9
X2.2Y1.
X2.3Y1.9
X2.3Y1.
X2.4Y1.9
X2.4Y1.2
X2.4Y1.
X2.5Y1.9
X2.5Y1.7
X2.5Y1.6
X2.5Y1.5
X2.5Y1.4
X2.5Y1.3
X2.5Y1.2
X2.5Y1.
X2.6Y1.9
X2.6Y1.7
X2.6Y1.6
X2.6Y1.5
X2.6Y1.4
X2.6Y1.3
X2.6Y1.2
X2.6Y1.
X2.7Y1.9
X2.7Y1.7
X2.7Y1.6
X2.7Y1.5
X2.7Y1.4
X2.7Y1.3
X2.7Y1.2
X2.7Y1.
T3
X0.2157Y2.4866
X0.2157Y2.3134
X0.675Y3.2
X0.675Y3.1
X0.675Y3.
X0.675Y2.9
X0.775Y3.15
X0.775Y3.05
X0.775Y2.95
X0.775Y2.85
T4
X1.8Y0.15
X1.9Y0.15
X2.Y0.15
X2.1Y0.15
X2.2Y0.15
X2.3Y0.15
X3.022Y0.2886
X3.022Y0.1114
X3.2779Y0.2886
X3.2779Y0.1114
X3.472Y0.2886
X3.472Y0.1114
X3.7279Y0.2886
X3.7279Y0.1114
T5
X0.265Y3.285
X0.265Y3.185
X0.265Y2.865
X0.265Y2.765
X0.74Y2.4
X0.84Y2.4
X0.94Y2.4
X1.Y0.25
X1.Y0.15
X1.04Y2.4
X1.1Y0.5
X1.14Y2.4
X1.15Y0.25
X1.15Y0.15
X1.2Y0.5
X1.24Y2.4
X1.25Y3.3
X1.3Y0.5
X1.3Y0.25
X1.3Y0.15
X1.34Y2.4
X1.35Y3.3
X1.4Y0.5
X1.44Y2.4
X1.45Y3.3
X1.5Y0.5
X1.54Y2.4
X1.55Y3.3
X1.55Y0.25
X1.55Y0.15
X1.6Y0.5
X1.64Y2.4
X1.7Y0.5
X1.8Y2.4
X1.8Y0.5
X1.9Y2.4
X2.Y2.4
X2.Y0.5
X2.1Y2.4
X2.1Y0.5
X2.2Y2.4
X2.2Y0.5
X2.3Y2.4
X2.3Y0.5
X2.4Y2.4
X2.4Y0.5
X2.5Y2.4
X2.5Y0.5
X2.6Y0.5
X2.7Y2.4
X2.7Y0.5
X2.8Y2.4
X2.9Y2.4
X2.9Y0.5
X3.Y2.4
X3.Y0.5
X3.1Y2.4
X3.1Y0.5
X3.2Y2.4
X3.2Y0.5
X3.3Y2.4
X3.3Y0.5
X3.4Y2.4
X3.4Y0.5
X3.5Y0.5
X3.6Y0.5
X3.7Y2.4
X3.7Y2.3
X3.7Y2.2
X3.7Y2.1
X3.7Y2.
X3.7Y1.9
X3.7Y1.8
X3.7Y1.7
X3.7Y1.6
X3.7Y1.5
X3.7Y1.4
X3.7Y1.3
X3.7Y1.2
X3.7Y1.1
X3.7Y1.
X3.7Y0.9
X3.7Y0.8
X3.7Y0.7
X3.8Y2.4
X3.8Y2.3
X3.8Y2.2
X3.8Y2.1
X3.8Y2.
X3.8Y1.9
X3.8Y1.8
X3.8Y1.7
X3.8Y1.6
X3.8Y1.5
X3.8Y1.4
X3.8Y1.3
X3.8Y1.2
X3.8Y1.1
X3.8Y1.
X3.8Y0.9
X3.8Y0.8
X3.8Y0.7
T6
X2.95Y1.35
X3.05Y1.35
X3.15Y1.35
T7
X0.1776Y0.6189
X0.1776Y0.4811
T8
X0.545Y3.335
X0.545Y2.715
T9
X3.05Y2.
T10
X0.55Y0.5
X0.6Y2.4
X3.55Y2.4
X3.8Y0.5
T11
X0.55Y0.5
X0.6Y2.4
X3.55Y2.4
X3.8Y0.5
T12
X0.425Y3.25
X0.425Y2.8
T0
M30
