G04 (created by PCBNEW-RS274X (2012-01-19 BZR 3256)-stable) date 16/02/2013 15:24:50*
G01*
G70*
G90*
%MOIN*%
G04 Gerber Fmt 3.4, Leading zero omitted, Abs format*
%FSLAX34Y34*%
G04 APERTURE LIST*
%ADD10C,0.006000*%
%ADD11R,0.060000X0.118100*%
%ADD12R,0.118100X0.060000*%
%ADD13C,0.177200*%
%ADD14C,0.035000*%
%ADD15C,0.026000*%
%ADD16C,0.008000*%
G04 APERTURE END LIST*
G54D10*
G54D11*
X07000Y02250D03*
X08000Y00750D03*
X09000Y02250D03*
X10000Y00750D03*
X11000Y02250D03*
X12000Y00750D03*
X13000Y02250D03*
X14000Y00750D03*
X16000Y02250D03*
X17000Y00750D03*
X18000Y02250D03*
X19000Y00750D03*
X20000Y02250D03*
X21000Y00750D03*
X22000Y02250D03*
X23000Y00750D03*
X25000Y02250D03*
X26000Y00750D03*
X27000Y02250D03*
X28000Y00750D03*
X29000Y02250D03*
X30000Y00750D03*
X31000Y02250D03*
X32000Y00750D03*
X14000Y21250D03*
X15000Y19750D03*
X16000Y21250D03*
X17000Y19750D03*
X18000Y21250D03*
X19000Y19750D03*
X20000Y21250D03*
X21000Y19750D03*
X23000Y21250D03*
X24000Y19750D03*
X25000Y21250D03*
X26000Y19750D03*
X27000Y21250D03*
X28000Y19750D03*
X29000Y21250D03*
X30000Y19750D03*
X03400Y21250D03*
X04400Y19750D03*
X05400Y21250D03*
X06400Y19750D03*
X07400Y21250D03*
X08400Y19750D03*
X09400Y21250D03*
X10400Y19750D03*
X11400Y21250D03*
X12400Y19750D03*
G54D12*
X20500Y12500D03*
X22500Y12500D03*
X22500Y11500D03*
X22500Y10500D03*
X20500Y11500D03*
X20500Y10500D03*
X32500Y20500D03*
X34500Y20500D03*
X32500Y15500D03*
X34500Y19500D03*
X32500Y14500D03*
X34500Y18500D03*
X32500Y13500D03*
X34500Y17500D03*
X32500Y12500D03*
X34500Y16500D03*
X32500Y11500D03*
X34500Y15500D03*
X32500Y10500D03*
X34500Y14500D03*
X32500Y09500D03*
X34500Y13500D03*
X32500Y08500D03*
X34500Y12500D03*
X32500Y07500D03*
X34500Y11500D03*
X32500Y06500D03*
X34500Y10500D03*
X32500Y05500D03*
X34500Y09500D03*
X34500Y08500D03*
X32500Y04500D03*
X34500Y07500D03*
X34500Y05500D03*
X34500Y04500D03*
X34500Y03500D03*
X32500Y03500D03*
X32500Y19500D03*
X32500Y18500D03*
X32500Y17500D03*
X32500Y16500D03*
X34500Y06500D03*
G54D13*
X01500Y01500D03*
X02000Y20500D03*
X34000Y01500D03*
G54D14*
X13405Y01380D03*
G54D15*
X10518Y00614D03*
G54D14*
X10984Y01186D03*
X21269Y16272D03*
G54D15*
X04886Y21411D03*
G54D14*
X08204Y18871D03*
X06808Y21271D03*
X31629Y19432D03*
X35372Y19361D03*
X33629Y18338D03*
X33620Y17517D03*
X35372Y16647D03*
X35374Y15676D03*
X33380Y14730D03*
X35378Y14355D03*
X35373Y13360D03*
X35374Y12359D03*
X35369Y11317D03*
X31629Y10300D03*
X33622Y10630D03*
X31626Y09325D03*
X35378Y09660D03*
X31626Y08486D03*
X33631Y08365D03*
X35379Y07646D03*
X35372Y06346D03*
X33625Y04300D03*
G54D15*
X13522Y20536D03*
G54D14*
X07412Y01381D03*
X09065Y03129D03*
G54D15*
X07000Y03067D03*
X03493Y20444D03*
X04400Y18937D03*
G54D14*
X27000Y03119D03*
X27422Y00750D03*
X29183Y03124D03*
X18421Y01388D03*
X19580Y03119D03*
X21590Y01375D03*
X25421Y01384D03*
X25579Y21250D03*
X25820Y18872D03*
X33377Y16356D03*
X31629Y18372D03*
X31630Y17311D03*
X31625Y13730D03*
X33377Y15695D03*
X33370Y12649D03*
X09877Y15082D03*
X11779Y15176D03*
X12943Y15396D03*
X07277Y17718D03*
X33625Y03500D03*
X12420Y01615D03*
G54D15*
X22997Y13017D03*
X23608Y11332D03*
G54D14*
X22422Y18718D03*
X23545Y17585D03*
X20000Y20380D03*
X22195Y16516D03*
G54D15*
X31517Y04500D03*
G54D14*
X29925Y18872D03*
X29581Y20616D03*
X08822Y20612D03*
X15151Y18878D03*
X15422Y20612D03*
X17000Y18869D03*
X29409Y01375D03*
X31040Y03124D03*
X32153Y01625D03*
X22725Y14411D03*
X23338Y15482D03*
X22003Y15486D03*
X21080Y15419D03*
X16411Y01370D03*
X33372Y11665D03*
X15831Y03123D03*
X24059Y16911D03*
X22120Y14407D03*
X22421Y00750D03*
X18185Y03122D03*
X22000Y03130D03*
X24296Y15804D03*
X23977Y16184D03*
X33372Y06347D03*
X25000Y03123D03*
X33376Y07292D03*
G54D16*
X14000Y01483D02*
X14000Y00750D01*
X13508Y01483D02*
X14000Y01483D01*
X13405Y01380D02*
X13508Y01483D01*
X10218Y00968D02*
X10518Y00668D01*
X10518Y00668D02*
X10518Y00614D01*
X10218Y00968D02*
X10436Y01186D01*
X10000Y00750D02*
X10218Y00968D01*
X10436Y01186D02*
X10984Y01186D01*
X21643Y15898D02*
X21643Y12583D01*
X31766Y20500D02*
X32500Y20500D01*
X31766Y20249D02*
X31766Y20500D01*
X24017Y12500D02*
X31766Y20249D01*
X22500Y12500D02*
X24017Y12500D01*
X21643Y12583D02*
X21726Y12500D01*
X21269Y16272D02*
X21643Y15898D01*
X34500Y20500D02*
X32500Y20500D01*
X22500Y12500D02*
X21726Y12500D01*
X11000Y03159D02*
X11000Y02250D01*
X21283Y12057D02*
X19898Y12057D01*
X21726Y12500D02*
X21283Y12057D01*
X19898Y12057D02*
X11000Y03159D01*
X05239Y21411D02*
X04886Y21411D01*
X05400Y21250D02*
X05239Y21411D01*
X08400Y19750D02*
X08400Y19016D01*
X08349Y19016D02*
X08204Y18871D01*
X08400Y19016D02*
X08349Y19016D01*
X06808Y21271D02*
X07379Y21271D01*
X07379Y21271D02*
X07400Y21250D01*
X31698Y19432D02*
X31766Y19500D01*
X31629Y19432D02*
X31698Y19432D01*
X31766Y19500D02*
X32500Y19500D01*
X35233Y19500D02*
X34500Y19500D01*
X35372Y19361D02*
X35233Y19500D01*
X34500Y18500D02*
X33766Y18500D01*
X33766Y18500D02*
X33766Y18475D01*
X33766Y18475D02*
X33629Y18338D01*
X33749Y17517D02*
X33620Y17517D01*
X33766Y17500D02*
X33749Y17517D01*
X34500Y17500D02*
X33766Y17500D01*
X35233Y16500D02*
X34500Y16500D01*
X35233Y16508D02*
X35233Y16500D01*
X35372Y16647D02*
X35233Y16508D01*
X34500Y15500D02*
X35233Y15500D01*
X35233Y15535D02*
X35374Y15676D01*
X35233Y15500D02*
X35233Y15535D01*
X33233Y14500D02*
X32500Y14500D01*
X33233Y14583D02*
X33233Y14500D01*
X33380Y14730D02*
X33233Y14583D01*
X35233Y14500D02*
X35378Y14355D01*
X34500Y14500D02*
X35233Y14500D01*
X35373Y13360D02*
X35233Y13500D01*
X35233Y13500D02*
X34500Y13500D01*
X35233Y12500D02*
X34500Y12500D01*
X35374Y12359D02*
X35233Y12500D01*
X35233Y11500D02*
X34500Y11500D01*
X35233Y11453D02*
X35233Y11500D01*
X35369Y11317D02*
X35233Y11453D01*
X31766Y10500D02*
X32500Y10500D01*
X31766Y10437D02*
X31766Y10500D01*
X31629Y10300D02*
X31766Y10437D01*
X33766Y10500D02*
X33636Y10630D01*
X33636Y10630D02*
X33622Y10630D01*
X34500Y10500D02*
X33766Y10500D01*
X31766Y09465D02*
X31626Y09325D01*
X31766Y09500D02*
X31766Y09465D01*
X32500Y09500D02*
X31766Y09500D01*
X35233Y09515D02*
X35378Y09660D01*
X35233Y09500D02*
X35233Y09515D01*
X34500Y09500D02*
X35233Y09500D01*
X31752Y08486D02*
X31626Y08486D01*
X32500Y08500D02*
X31766Y08500D01*
X31766Y08500D02*
X31752Y08486D01*
X33631Y08365D02*
X33766Y08500D01*
X33766Y08500D02*
X34500Y08500D01*
X35233Y07500D02*
X35379Y07646D01*
X34500Y07500D02*
X35233Y07500D01*
X35233Y06485D02*
X35372Y06346D01*
X35233Y06500D02*
X35233Y06485D01*
X34500Y06500D02*
X35233Y06500D01*
X33766Y04441D02*
X33766Y04500D01*
X33625Y04300D02*
X33766Y04441D01*
X33766Y04500D02*
X34500Y04500D01*
X14000Y21250D02*
X14000Y20536D01*
X14000Y20536D02*
X13522Y20536D01*
X08000Y01483D02*
X08000Y00750D01*
X07514Y01483D02*
X08000Y01483D01*
X07412Y01381D02*
X07514Y01483D01*
X09065Y03129D02*
X09065Y03048D01*
X09065Y03048D02*
X09000Y02983D01*
X09000Y02983D02*
X09000Y02250D01*
X07000Y02250D02*
X07000Y03067D01*
X03493Y20444D02*
X03401Y20536D01*
X03401Y20536D02*
X03400Y20536D01*
X03400Y21250D02*
X03400Y20536D01*
X04400Y19750D02*
X04400Y18937D01*
X27000Y02250D02*
X27000Y03119D01*
X27422Y01461D02*
X27422Y00750D01*
X27444Y01483D02*
X27422Y01461D01*
X28000Y00750D02*
X28000Y01483D01*
X28000Y01483D02*
X27444Y01483D01*
X29000Y02983D02*
X29000Y02250D01*
X29042Y02983D02*
X29000Y02983D01*
X29183Y03124D02*
X29042Y02983D01*
X19000Y01483D02*
X19000Y00750D01*
X18516Y01483D02*
X19000Y01483D01*
X18421Y01388D02*
X18516Y01483D01*
X20000Y02983D02*
X19716Y02983D01*
X19716Y02983D02*
X19580Y03119D01*
X20000Y02250D02*
X20000Y02983D01*
X21482Y01483D02*
X21590Y01375D01*
X21000Y01483D02*
X21482Y01483D01*
X21000Y00750D02*
X21000Y01483D01*
X25520Y01483D02*
X26000Y01483D01*
X26000Y01483D02*
X26000Y00750D01*
X25421Y01384D02*
X25520Y01483D01*
X25000Y21250D02*
X25579Y21250D01*
X25964Y19016D02*
X25820Y18872D01*
X26000Y19750D02*
X26000Y19016D01*
X26000Y19016D02*
X25964Y19016D01*
X33233Y16500D02*
X32500Y16500D01*
X33377Y16356D02*
X33233Y16500D01*
X31638Y18372D02*
X31629Y18372D01*
X31766Y18500D02*
X31638Y18372D01*
X32500Y18500D02*
X31766Y18500D01*
X32500Y17500D02*
X31766Y17500D01*
X31766Y17447D02*
X31630Y17311D01*
X31766Y17500D02*
X31766Y17447D01*
X31766Y13500D02*
X32500Y13500D01*
X31766Y13589D02*
X31766Y13500D01*
X31625Y13730D02*
X31766Y13589D01*
X33233Y15500D02*
X33233Y15551D01*
X33233Y15551D02*
X33377Y15695D01*
X32500Y15500D02*
X33233Y15500D01*
X33233Y12512D02*
X33370Y12649D01*
X33233Y12500D02*
X33233Y12512D01*
X32500Y12500D02*
X33233Y12500D01*
X10400Y19016D02*
X09877Y18493D01*
X09877Y18493D02*
X09877Y15082D01*
X10400Y19750D02*
X10400Y19016D01*
X11400Y20516D02*
X11779Y20137D01*
X11779Y20137D02*
X11779Y15176D01*
X11400Y21250D02*
X11400Y20516D01*
X12400Y19016D02*
X12400Y19750D01*
X12943Y18473D02*
X12400Y19016D01*
X12943Y15396D02*
X12943Y18473D01*
X06400Y19750D02*
X06400Y19016D01*
X30233Y03500D02*
X32500Y03500D01*
X13000Y02983D02*
X15240Y02983D01*
X06400Y19016D02*
X07277Y18139D01*
X07277Y18139D02*
X07277Y17718D01*
X12000Y00750D02*
X12000Y00959D01*
X22500Y10500D02*
X22757Y10500D01*
X22757Y10500D02*
X23233Y10500D01*
X15240Y02983D02*
X22757Y10500D01*
X12420Y01516D02*
X12387Y01483D01*
X13000Y02250D02*
X13000Y02983D01*
X34500Y03500D02*
X33625Y03500D01*
X12420Y01516D02*
X12420Y01615D01*
X10556Y02712D02*
X10556Y01537D01*
X11444Y01515D02*
X12000Y00959D01*
X10578Y01515D02*
X11444Y01515D01*
X10556Y01537D02*
X10578Y01515D01*
X23233Y10500D02*
X30233Y03500D01*
X07277Y05991D02*
X10556Y02712D01*
X07277Y17718D02*
X07277Y05991D01*
X12000Y01483D02*
X12000Y00959D01*
X12387Y01483D02*
X12000Y01483D01*
X13000Y01516D02*
X12420Y01516D01*
X13000Y02250D02*
X13000Y01516D01*
X32500Y03500D02*
X33625Y03500D01*
X21821Y14540D02*
X21821Y14193D01*
X21821Y14193D02*
X22997Y13017D01*
X18598Y20464D02*
X19350Y20464D01*
X21213Y12500D02*
X21479Y12766D01*
X22314Y15033D02*
X21821Y14540D01*
X22314Y15934D02*
X22314Y15033D01*
X19350Y20464D02*
X19423Y20391D01*
X19423Y20391D02*
X19423Y18825D01*
X21479Y12766D02*
X21479Y15443D01*
X21479Y15443D02*
X18312Y18610D01*
X18312Y20178D02*
X18598Y20464D01*
X18312Y18610D02*
X18312Y20178D01*
X19423Y18825D02*
X22314Y15934D01*
X20500Y12500D02*
X21213Y12500D01*
X22500Y11500D02*
X23213Y11500D01*
X23440Y11500D02*
X23608Y11332D01*
X23213Y11500D02*
X23440Y11500D01*
X23545Y17585D02*
X22422Y18708D01*
X22422Y18708D02*
X22422Y18718D01*
X20000Y20380D02*
X20000Y18711D01*
X20000Y18711D02*
X22195Y16516D01*
X20500Y11500D02*
X21213Y11500D01*
X24940Y11077D02*
X31517Y04500D01*
X21636Y11077D02*
X24940Y11077D01*
X21213Y11500D02*
X21636Y11077D01*
X30000Y18947D02*
X29925Y18872D01*
X30000Y19750D02*
X30000Y18947D01*
X29581Y20616D02*
X29481Y20516D01*
X29000Y20516D02*
X29000Y21250D01*
X29481Y20516D02*
X29000Y20516D01*
X09400Y20516D02*
X09400Y21250D01*
X08918Y20516D02*
X09400Y20516D01*
X08822Y20612D02*
X08918Y20516D01*
X15000Y19016D02*
X15013Y19016D01*
X15000Y19750D02*
X15000Y19016D01*
X15013Y19016D02*
X15151Y18878D01*
X15518Y20516D02*
X15422Y20612D01*
X16000Y20516D02*
X15518Y20516D01*
X16000Y21250D02*
X16000Y20516D01*
X17000Y19750D02*
X17000Y18869D01*
X29517Y01483D02*
X30000Y01483D01*
X29409Y01375D02*
X29517Y01483D01*
X30000Y01483D02*
X30000Y00750D01*
X31040Y03023D02*
X31000Y02983D01*
X31000Y02983D02*
X31000Y02250D01*
X31040Y03124D02*
X31040Y03023D01*
X32000Y01483D02*
X32000Y00750D01*
X32011Y01483D02*
X32000Y01483D01*
X32153Y01625D02*
X32011Y01483D01*
X21000Y18928D02*
X22725Y17203D01*
X22725Y17203D02*
X22725Y14411D01*
X21000Y19750D02*
X21000Y18928D01*
X23338Y16850D02*
X23338Y15482D01*
X21765Y18423D02*
X23338Y16850D01*
X21765Y20077D02*
X21765Y18423D01*
X20000Y21250D02*
X20592Y21250D01*
X20592Y21250D02*
X21765Y20077D01*
X22003Y16013D02*
X22003Y15486D01*
X19000Y19016D02*
X22003Y16013D01*
X19000Y19750D02*
X19000Y19016D01*
X18000Y21250D02*
X18000Y18499D01*
X18000Y18499D02*
X21080Y15419D01*
X17000Y01483D02*
X17000Y00750D01*
X16524Y01483D02*
X17000Y01483D01*
X16411Y01370D02*
X16524Y01483D01*
X33233Y11526D02*
X33372Y11665D01*
X33233Y11500D02*
X33233Y11526D01*
X32500Y11500D02*
X33233Y11500D01*
X16000Y02983D02*
X15971Y02983D01*
X15971Y02983D02*
X15831Y03123D01*
X16000Y02250D02*
X16000Y02983D01*
X24000Y19016D02*
X24059Y18957D01*
X24000Y19750D02*
X24000Y19016D01*
X24059Y18957D02*
X24059Y16911D01*
X23000Y21250D02*
X23000Y20516D01*
X22435Y14092D02*
X22120Y14407D01*
X22858Y14092D02*
X22435Y14092D01*
X23657Y14891D02*
X22858Y14092D01*
X23657Y16791D02*
X23657Y14891D01*
X21948Y18500D02*
X23657Y16791D01*
X21948Y19464D02*
X21948Y18500D01*
X23000Y20516D02*
X21948Y19464D01*
X23000Y01483D02*
X22443Y01483D01*
X22443Y01483D02*
X22421Y01461D01*
X23000Y00750D02*
X23000Y01483D01*
X22421Y01461D02*
X22421Y00750D01*
X18000Y02983D02*
X18000Y02250D01*
X18046Y02983D02*
X18000Y02983D01*
X18185Y03122D02*
X18046Y02983D01*
X22000Y02250D02*
X22000Y03130D01*
X27508Y19016D02*
X24296Y15804D01*
X28000Y19016D02*
X27508Y19016D01*
X28000Y19750D02*
X28000Y19016D01*
X27000Y19207D02*
X23977Y16184D01*
X27000Y21250D02*
X27000Y19207D01*
X33233Y06500D02*
X32500Y06500D01*
X33233Y06486D02*
X33233Y06500D01*
X33372Y06347D02*
X33233Y06486D01*
X25000Y02250D02*
X25000Y03123D01*
X33233Y07500D02*
X32500Y07500D01*
X33233Y07435D02*
X33233Y07500D01*
X33376Y07292D02*
X33233Y07435D01*
M02*
