G04 (created by PCBNEW-RS274X (2012-01-19 BZR 3256)-stable) date 16/02/2013 15:24:50*
G01*
G70*
G90*
%MOIN*%
G04 Gerber Fmt 3.4, Leading zero omitted, Abs format*
%FSLAX34Y34*%
G04 APERTURE LIST*
%ADD10C,0.006000*%
%ADD11R,0.080000X0.138100*%
%ADD12R,0.036000X0.070000*%
%ADD13R,0.075000X0.055000*%
%ADD14R,0.047600X0.059400*%
%ADD15R,0.138100X0.080000*%
%ADD16C,0.197200*%
G04 APERTURE END LIST*
G54D10*
G54D11*
X07000Y02250D03*
X08000Y00750D03*
X09000Y02250D03*
X10000Y00750D03*
X11000Y02250D03*
X12000Y00750D03*
X13000Y02250D03*
X14000Y00750D03*
X16000Y02250D03*
X17000Y00750D03*
X18000Y02250D03*
X19000Y00750D03*
X20000Y02250D03*
X21000Y00750D03*
X22000Y02250D03*
X23000Y00750D03*
X25000Y02250D03*
X26000Y00750D03*
X27000Y02250D03*
X28000Y00750D03*
X29000Y02250D03*
X30000Y00750D03*
X31000Y02250D03*
X32000Y00750D03*
X14000Y21250D03*
X15000Y19750D03*
X16000Y21250D03*
X17000Y19750D03*
X18000Y21250D03*
X19000Y19750D03*
X20000Y21250D03*
X21000Y19750D03*
X23000Y21250D03*
X24000Y19750D03*
X25000Y21250D03*
X26000Y19750D03*
X27000Y21250D03*
X28000Y19750D03*
X29000Y21250D03*
X30000Y19750D03*
X03400Y21250D03*
X04400Y19750D03*
X05400Y21250D03*
X06400Y19750D03*
X07400Y21250D03*
X08400Y19750D03*
X09400Y21250D03*
X10400Y19750D03*
X11400Y21250D03*
X12400Y19750D03*
G54D12*
X21350Y14950D03*
X21600Y14950D03*
X21860Y14950D03*
X22120Y14950D03*
X22370Y14950D03*
X22630Y14950D03*
X22890Y14950D03*
X23140Y14950D03*
X23400Y14950D03*
X23650Y14950D03*
X23650Y17050D03*
X23400Y17050D03*
X23140Y17050D03*
X22890Y17050D03*
X22630Y17050D03*
X22370Y17050D03*
X22120Y17050D03*
X21860Y17050D03*
X21600Y17050D03*
X21350Y17050D03*
G54D13*
X25500Y15625D03*
X25500Y16375D03*
X20000Y16375D03*
X20000Y15625D03*
X09500Y13875D03*
X09500Y14625D03*
X11500Y13875D03*
X11500Y14625D03*
X13500Y13875D03*
X13500Y14625D03*
G54D14*
X09125Y17250D03*
X09500Y17250D03*
X09875Y17250D03*
X09875Y16250D03*
X09500Y16250D03*
X09125Y16250D03*
X11125Y17250D03*
X11500Y17250D03*
X11875Y17250D03*
X11875Y16250D03*
X11500Y16250D03*
X11125Y16250D03*
X13125Y17250D03*
X13500Y17250D03*
X13875Y17250D03*
X13875Y16250D03*
X13500Y16250D03*
X13125Y16250D03*
G54D15*
X32500Y20500D03*
X34500Y20500D03*
X32500Y15500D03*
X34500Y19500D03*
X32500Y14500D03*
X34500Y18500D03*
X32500Y13500D03*
X34500Y17500D03*
X32500Y12500D03*
X34500Y16500D03*
X32500Y11500D03*
X34500Y15500D03*
X32500Y10500D03*
X34500Y14500D03*
X32500Y09500D03*
X34500Y13500D03*
X32500Y08500D03*
X34500Y12500D03*
X32500Y07500D03*
X34500Y11500D03*
X32500Y06500D03*
X34500Y10500D03*
X32500Y05500D03*
X34500Y09500D03*
X34500Y08500D03*
X32500Y04500D03*
X34500Y07500D03*
X34500Y05500D03*
X34500Y04500D03*
X34500Y03500D03*
X32500Y03500D03*
X32500Y19500D03*
X32500Y18500D03*
X32500Y17500D03*
X32500Y16500D03*
X34500Y06500D03*
G54D16*
X01500Y01500D03*
X02000Y20500D03*
X34000Y01500D03*
M02*
