M48
INCH,TZ
T1C0.013
T2C0.122
%
G90
G05
T1
X3493Y20444
X4400Y18937
X4886Y21411
X6808Y21271
X7000Y3067
X7277Y17718
X7412Y1381
X8204Y18871
X8822Y20612
X9065Y3129
X9877Y15082
X10518Y614
X10984Y1186
X11779Y15176
X12420Y1615
X12943Y15396
X13405Y1380
X13522Y20536
X15151Y18878
X15422Y20612
X15831Y3123
X16411Y1370
X17000Y18869
X18185Y3122
X18421Y1388
X19580Y3119
X20000Y20380
X21080Y15419
X21269Y16272
X21590Y1375
X22000Y3130
X22003Y15486
X22120Y14407
X22195Y16516
X22421Y750
X22422Y18718
X22725Y14411
X22997Y13017
X23338Y15482
X23545Y17585
X23608Y11332
X23977Y16184
X24059Y16911
X24296Y15804
X25000Y3123
X25421Y1384
X25579Y21250
X25820Y18872
X27000Y3119
X27422Y750
X29183Y3124
X29409Y1375
X29581Y20616
X29925Y18872
X31040Y3124
X31517Y4500
X31625Y13730
X31626Y9325
X31626Y8486
X31629Y19432
X31629Y18372
X31629Y10300
X31630Y17311
X32153Y1625
X33370Y12649
X33372Y11665
X33372Y6347
X33376Y7292
X33377Y16356
X33377Y15695
X33380Y14730
X33620Y17517
X33622Y10630
X33625Y4300
X33625Y3500
X33629Y18338
X33631Y8365
X35369Y11317
X35372Y19361
X35372Y16647
X35372Y6346
X35373Y13360
X35374Y15676
X35374Y12359
X35378Y14355
X35378Y9660
X35379Y7646
T2
X1500Y1500
X2000Y20500
X34000Y1500
T0
M30
