G04 (created by PCBNEW-RS274X (2012-01-19 BZR 3256)-stable) date 25/06/2013 20:59:23*
G01*
G70*
G90*
%MOIN*%
G04 Gerber Fmt 3.4, Leading zero omitted, Abs format*
%FSLAX34Y34*%
G04 APERTURE LIST*
%ADD10C,0.006000*%
%ADD11C,0.015000*%
%ADD12C,0.060000*%
%ADD13R,0.060000X0.060000*%
%ADD14R,0.086600X0.060000*%
%ADD15O,0.086600X0.060000*%
%ADD16C,0.078700*%
%ADD17C,0.070000*%
%ADD18R,0.070000X0.070000*%
%ADD19O,0.060000X0.100000*%
%ADD20C,0.125000*%
%ADD21R,0.118100X0.118100*%
%ADD22C,0.118100*%
%ADD23C,0.086600*%
%ADD24R,0.060000X0.086600*%
%ADD25O,0.060000X0.086600*%
%ADD26R,0.078700X0.060000*%
%ADD27O,0.078700X0.060000*%
%ADD28R,0.098400X0.055000*%
%ADD29C,0.025000*%
%ADD30C,0.045000*%
%ADD31C,0.008000*%
%ADD32C,0.090000*%
%ADD33C,0.045000*%
G04 APERTURE END LIST*
G54D10*
G54D11*
X00355Y10492D02*
X00355Y09508D01*
X00355Y09508D02*
X00453Y09508D01*
X00453Y09508D02*
X00453Y10492D01*
X00453Y10492D02*
X00552Y10492D01*
X00552Y10492D02*
X00552Y09705D01*
X00552Y09705D02*
X00650Y09705D01*
X00650Y09705D02*
X00650Y10197D01*
X00650Y10197D02*
X00748Y10197D01*
X00748Y10197D02*
X00748Y09606D01*
X00748Y09606D02*
X00847Y09606D01*
X00847Y09606D02*
X00847Y10394D01*
X00847Y10394D02*
X00945Y10394D01*
X00945Y10394D02*
X00945Y09606D01*
G54D12*
X18900Y08000D03*
X17900Y08000D03*
X16900Y08000D03*
X15900Y08000D03*
X14900Y08000D03*
X13900Y08000D03*
X12900Y08000D03*
X11900Y08000D03*
X11900Y03000D03*
X12900Y03000D03*
X13900Y03000D03*
X14900Y03000D03*
X15900Y03000D03*
X16900Y03000D03*
X17900Y03000D03*
X18900Y03000D03*
X26900Y08000D03*
X25900Y08000D03*
X24900Y08000D03*
X23900Y08000D03*
X22900Y08000D03*
X21900Y08000D03*
X20900Y08000D03*
X19900Y08000D03*
X19900Y03000D03*
X20900Y03000D03*
X21900Y03000D03*
X22900Y03000D03*
X23900Y03000D03*
X24900Y03000D03*
X25900Y03000D03*
X26900Y03000D03*
X34900Y08000D03*
X33900Y08000D03*
X32900Y08000D03*
X31900Y08000D03*
X30900Y08000D03*
X29900Y08000D03*
X28900Y08000D03*
X27900Y08000D03*
X27900Y03000D03*
X28900Y03000D03*
X29900Y03000D03*
X30900Y03000D03*
X31900Y03000D03*
X32900Y03000D03*
X33900Y03000D03*
X34900Y03000D03*
X09900Y21500D03*
X10900Y21500D03*
X11900Y21500D03*
X12900Y21500D03*
X13900Y21500D03*
X14900Y21500D03*
X15900Y21500D03*
X16900Y21500D03*
X16900Y26500D03*
X15900Y26500D03*
X14900Y26500D03*
X13900Y26500D03*
X12900Y26500D03*
X11900Y26500D03*
X10900Y26500D03*
X09900Y26500D03*
X17900Y21500D03*
X18900Y21500D03*
X19900Y21500D03*
X20900Y21500D03*
X21900Y21500D03*
X22900Y21500D03*
X23900Y21500D03*
X24900Y21500D03*
X24900Y26500D03*
X23900Y26500D03*
X22900Y26500D03*
X21900Y26500D03*
X20900Y26500D03*
X19900Y26500D03*
X18900Y26500D03*
X17900Y26500D03*
G54D13*
X33400Y17000D03*
G54D12*
X33400Y18000D03*
X33400Y19000D03*
X33400Y20000D03*
G54D13*
X15900Y09000D03*
G54D12*
X15900Y10000D03*
X16900Y09000D03*
X16900Y10000D03*
X17900Y09000D03*
X17900Y10000D03*
G54D13*
X14900Y20500D03*
G54D12*
X14900Y19500D03*
X13900Y20500D03*
X13900Y19500D03*
X12900Y20500D03*
X12900Y19500D03*
G54D13*
X29900Y20500D03*
G54D12*
X29900Y19500D03*
X28900Y20500D03*
X28900Y19500D03*
X27900Y20500D03*
X27900Y19500D03*
G54D13*
X31900Y09000D03*
G54D12*
X31900Y10000D03*
X32900Y09000D03*
X32900Y10000D03*
X33900Y09000D03*
X33900Y10000D03*
G54D13*
X23900Y09000D03*
G54D12*
X23900Y10000D03*
X24900Y09000D03*
X24900Y10000D03*
X25900Y09000D03*
X25900Y10000D03*
G54D13*
X31400Y17500D03*
G54D12*
X30400Y17500D03*
X29400Y17500D03*
G54D13*
X32900Y30000D03*
G54D12*
X32900Y31000D03*
X32900Y32000D03*
G54D13*
X34900Y30000D03*
G54D12*
X34900Y31000D03*
X34900Y32000D03*
G54D13*
X35900Y30000D03*
G54D12*
X35900Y31000D03*
X35900Y32000D03*
G54D13*
X36900Y30000D03*
G54D12*
X36900Y31000D03*
X36900Y32000D03*
G54D13*
X37900Y30000D03*
G54D12*
X37900Y31000D03*
X37900Y32000D03*
G54D13*
X31400Y18500D03*
G54D12*
X30400Y18500D03*
X29400Y18500D03*
G54D13*
X33900Y30000D03*
G54D12*
X33900Y31000D03*
X33900Y32000D03*
G54D13*
X31400Y16500D03*
G54D12*
X30400Y16500D03*
X29400Y16500D03*
G54D13*
X31400Y15500D03*
G54D12*
X30400Y15500D03*
X29400Y15500D03*
G54D13*
X03650Y04500D03*
G54D12*
X03650Y03500D03*
G54D13*
X12900Y09500D03*
X11900Y11000D03*
X11900Y09500D03*
X33400Y15500D03*
G54D12*
X34400Y15500D03*
X33400Y14500D03*
X34400Y14500D03*
X33400Y13500D03*
X34400Y13500D03*
X33400Y12500D03*
X34400Y12500D03*
X33400Y11500D03*
X34400Y11500D03*
G54D13*
X30400Y14500D03*
G54D12*
X31400Y14500D03*
X30400Y13500D03*
X31400Y13500D03*
X30400Y12500D03*
X31400Y12500D03*
X30400Y11500D03*
X31400Y11500D03*
G54D13*
X34400Y17000D03*
G54D12*
X34400Y18000D03*
X34400Y19000D03*
X34400Y20000D03*
G54D14*
X38400Y06000D03*
G54D15*
X38400Y07000D03*
X38400Y08000D03*
X38400Y09000D03*
X38400Y10000D03*
X38400Y11000D03*
X38400Y12000D03*
X38400Y13000D03*
X38400Y14000D03*
X38400Y15000D03*
X38400Y16000D03*
X38400Y17000D03*
X38400Y18000D03*
X38400Y19000D03*
X38400Y20000D03*
X38400Y21000D03*
X38400Y22000D03*
X38400Y23000D03*
G54D16*
X07650Y13000D03*
X11650Y13000D03*
X11900Y05250D03*
X15900Y05250D03*
G54D17*
X07400Y17000D03*
X06400Y17000D03*
G54D18*
X08400Y17000D03*
G54D17*
X06150Y27750D03*
X05150Y27750D03*
G54D18*
X07150Y27750D03*
G54D17*
X07400Y20750D03*
X06400Y20750D03*
G54D18*
X08400Y20750D03*
G54D19*
X26400Y23000D03*
X27400Y23000D03*
X28400Y23000D03*
X29400Y23000D03*
X30400Y23000D03*
X31400Y23000D03*
X32400Y23000D03*
X33400Y23000D03*
X35400Y04000D03*
X34400Y04000D03*
X33400Y04000D03*
X32400Y04000D03*
X28400Y04000D03*
X26400Y04000D03*
X25400Y04000D03*
X29400Y04000D03*
X30400Y04000D03*
X31400Y04000D03*
X24400Y04000D03*
X23400Y04000D03*
X22400Y04000D03*
X19400Y04000D03*
X20400Y04000D03*
X21400Y04000D03*
X17400Y04000D03*
X16400Y04000D03*
X15400Y04000D03*
X13400Y04000D03*
X12400Y04000D03*
X24400Y23000D03*
X23400Y23000D03*
X22400Y23000D03*
X21400Y23000D03*
X20400Y23000D03*
X19400Y23000D03*
X18400Y23000D03*
X17400Y23000D03*
X15800Y23000D03*
X14800Y23000D03*
X13800Y23000D03*
X12800Y23000D03*
X11800Y23000D03*
X10800Y23000D03*
X09800Y23000D03*
X08800Y23000D03*
X14400Y04000D03*
G54D20*
X37400Y04000D03*
X05400Y23000D03*
X04900Y04000D03*
G54D12*
X36400Y22000D03*
X37400Y22000D03*
X36400Y21000D03*
X37400Y21000D03*
X36400Y20000D03*
X37400Y20000D03*
X36400Y19000D03*
X37400Y19000D03*
X36400Y23000D03*
X37400Y23000D03*
X37400Y18000D03*
X36400Y18000D03*
X36400Y17000D03*
X37400Y17000D03*
X36400Y16000D03*
X37400Y16000D03*
X36400Y15000D03*
X37400Y15000D03*
X36400Y14000D03*
X37400Y14000D03*
X36400Y13000D03*
X37400Y13000D03*
X36400Y12000D03*
X37400Y12000D03*
X36400Y11000D03*
X37400Y11000D03*
X36400Y10000D03*
X37400Y10000D03*
X36400Y09000D03*
X37400Y09000D03*
X36400Y08000D03*
X37400Y08000D03*
X36400Y07000D03*
X37400Y07000D03*
X36400Y06000D03*
X37400Y06000D03*
G54D19*
X07800Y23000D03*
X06800Y23000D03*
X11400Y04000D03*
X10400Y04000D03*
G54D17*
X06150Y32000D03*
X05150Y32000D03*
G54D18*
X07150Y32000D03*
G54D21*
X01900Y05500D03*
G54D22*
X01900Y07500D03*
G54D21*
X01900Y29500D03*
G54D22*
X01900Y31500D03*
G54D13*
X17900Y01000D03*
G54D12*
X16900Y01000D03*
X15900Y01000D03*
X14900Y01000D03*
G54D13*
X24900Y01000D03*
G54D12*
X23900Y01000D03*
X22900Y01000D03*
X21900Y01000D03*
G54D13*
X32900Y01000D03*
G54D12*
X31900Y01000D03*
X30900Y01000D03*
X29900Y01000D03*
G54D13*
X11900Y31500D03*
G54D12*
X12900Y31500D03*
X13900Y31500D03*
X14900Y31500D03*
G54D23*
X08292Y01992D03*
X06008Y01992D03*
X06008Y01008D03*
X04630Y01992D03*
X04630Y01008D03*
X08292Y01008D03*
X09670Y01008D03*
X09670Y01992D03*
X07150Y01500D03*
X08292Y06992D03*
X06008Y06992D03*
X06008Y06008D03*
X04630Y06992D03*
X04630Y06008D03*
X08292Y06008D03*
X09670Y06008D03*
X09670Y06992D03*
X07150Y06500D03*
X04908Y13142D03*
X04908Y10858D03*
X05892Y10858D03*
X04908Y09480D03*
X05892Y09480D03*
X05892Y13142D03*
X05892Y14520D03*
X04908Y14520D03*
X05400Y12000D03*
G54D24*
X11900Y06750D03*
G54D25*
X12900Y06750D03*
X13900Y06750D03*
G54D26*
X38498Y24500D03*
G54D27*
X37302Y24500D03*
X38498Y25500D03*
X37302Y25500D03*
X38498Y26500D03*
X37302Y26500D03*
X38498Y27500D03*
X37302Y27500D03*
G54D21*
X01900Y21500D03*
G54D22*
X01900Y23500D03*
G54D21*
X01900Y17500D03*
G54D22*
X01900Y19500D03*
G54D21*
X01900Y25500D03*
G54D22*
X01900Y27500D03*
G54D21*
X01900Y01500D03*
G54D22*
X01900Y03500D03*
G54D21*
X01900Y10500D03*
G54D22*
X01900Y12500D03*
G54D28*
X36121Y00614D03*
X36121Y02386D03*
X38680Y00614D03*
X38680Y02386D03*
G54D16*
X00650Y10492D03*
X00650Y09508D03*
G54D13*
X28400Y09750D03*
G54D12*
X29400Y09750D03*
G54D13*
X19900Y31500D03*
G54D12*
X20900Y31500D03*
X21900Y31500D03*
X22900Y31500D03*
G54D13*
X27400Y31500D03*
G54D12*
X28400Y31500D03*
X29400Y31500D03*
X30400Y31500D03*
X25900Y21500D03*
X26900Y21500D03*
X27900Y21500D03*
X28900Y21500D03*
X29900Y21500D03*
X30900Y21500D03*
X31900Y21500D03*
X32900Y21500D03*
X32900Y26500D03*
X31900Y26500D03*
X30900Y26500D03*
X29900Y26500D03*
X28900Y26500D03*
X27900Y26500D03*
X26900Y26500D03*
X25900Y26500D03*
G54D13*
X21900Y20500D03*
G54D12*
X21900Y19500D03*
X20900Y20500D03*
X20900Y19500D03*
X19900Y20500D03*
X19900Y19500D03*
G54D26*
X24302Y15000D03*
G54D27*
X25498Y15000D03*
X24302Y14000D03*
X25498Y14000D03*
X24302Y13000D03*
X25498Y13000D03*
G54D29*
X31045Y07128D03*
X14284Y15509D03*
X11886Y13856D03*
X28539Y13522D03*
X28214Y13035D03*
X26576Y15715D03*
X16433Y13750D03*
X22400Y21275D03*
X25686Y11330D03*
G54D30*
X33334Y06000D03*
X10603Y02391D03*
X19147Y04888D03*
G54D29*
X24441Y17112D03*
X26757Y18127D03*
X23383Y12481D03*
X32868Y19157D03*
X34549Y21413D03*
X27379Y17374D03*
X27781Y12500D03*
X24182Y19579D03*
X20039Y11705D03*
X19998Y13893D03*
X21400Y15485D03*
X22400Y17235D03*
X35831Y26842D03*
X35262Y26899D03*
X27408Y06285D03*
X28128Y06126D03*
X28382Y06653D03*
X28644Y07119D03*
X34408Y10625D03*
X29651Y07388D03*
G54D31*
X13923Y08624D02*
X14400Y08147D01*
X12900Y09500D02*
X13323Y09500D01*
X35375Y21975D02*
X35375Y19208D01*
X34667Y18500D02*
X33168Y18500D01*
X30824Y18924D02*
X30400Y18500D01*
X13323Y09224D02*
X13323Y09500D01*
X32744Y18924D02*
X30824Y18924D01*
X12900Y06750D02*
X13400Y07250D01*
X13923Y08624D02*
X13323Y09224D01*
X30400Y17500D02*
X30400Y18500D01*
X30400Y16500D02*
X30400Y17500D01*
X21310Y17487D02*
X13323Y09500D01*
X22913Y17487D02*
X21310Y17487D01*
X13400Y07250D02*
X13400Y08101D01*
X30400Y15500D02*
X30400Y16500D01*
X36400Y23000D02*
X35375Y21975D01*
X14400Y04000D02*
X14400Y04623D01*
X33168Y18500D02*
X32744Y18924D01*
X13400Y08101D02*
X13923Y08624D01*
X35375Y19208D02*
X34667Y18500D01*
X25400Y15000D02*
X22913Y17487D01*
X14400Y08147D02*
X14400Y04623D01*
G54D32*
X05892Y14520D02*
X05892Y13142D01*
G54D31*
X32400Y14923D02*
X32977Y15500D01*
X30845Y14923D02*
X32400Y14923D01*
X30823Y14901D02*
X30845Y14923D01*
X30823Y14500D02*
X30823Y14901D01*
X29267Y07367D02*
X29900Y08000D01*
X33400Y15500D02*
X32977Y15500D01*
X30400Y14500D02*
X30823Y14500D01*
X13400Y21000D02*
X13400Y20000D01*
X13900Y21500D02*
X13400Y21000D01*
X13400Y20000D02*
X13900Y19500D01*
X12900Y19500D02*
X13400Y20000D01*
X21900Y08000D02*
X21900Y03650D01*
X30900Y09157D02*
X31743Y10000D01*
X34823Y11323D02*
X34823Y16154D01*
X31900Y10000D02*
X32900Y10000D01*
X30900Y08000D02*
X30900Y09157D01*
X31743Y10000D02*
X31900Y10000D01*
X29900Y21500D02*
X29900Y24500D01*
X34400Y17000D02*
X34400Y16577D01*
X32900Y10000D02*
X33977Y11077D01*
X33977Y11077D02*
X34577Y11077D01*
X29900Y24500D02*
X31900Y26500D01*
X34823Y16154D02*
X34400Y16577D01*
X34577Y11077D02*
X34823Y11323D01*
X21250Y03000D02*
X20900Y03000D01*
X21900Y03650D02*
X21250Y03000D01*
X27876Y06709D02*
X28534Y07367D01*
X27876Y05808D02*
X27876Y06709D01*
X28900Y04784D02*
X27876Y05808D01*
X28900Y03000D02*
X28900Y04784D01*
X22900Y09000D02*
X23900Y10000D01*
X22900Y08000D02*
X22900Y09000D01*
X28534Y07367D02*
X29267Y07367D01*
X13900Y06750D02*
X13477Y06750D01*
X22900Y21424D02*
X22900Y21500D01*
X22503Y21027D02*
X22900Y21424D01*
X22324Y21027D02*
X22503Y21027D01*
X14900Y09000D02*
X15900Y10000D01*
X14900Y08000D02*
X14900Y09000D01*
X22324Y19924D02*
X22324Y21027D01*
X21900Y19500D02*
X22324Y19924D01*
X22298Y21027D02*
X22324Y21027D01*
X21900Y21425D02*
X22298Y21027D01*
X21900Y21500D02*
X21900Y21425D01*
X30900Y08000D02*
X29900Y08000D01*
X13900Y08000D02*
X13900Y06750D01*
X12900Y05750D02*
X12900Y03000D01*
X13477Y06327D02*
X12900Y05750D01*
X13477Y06750D02*
X13477Y06327D01*
X33400Y17000D02*
X33400Y16577D01*
X20900Y19500D02*
X21900Y19500D01*
X33400Y16577D02*
X33400Y15500D01*
G54D33*
X09900Y26500D02*
X07079Y26500D01*
X09670Y06992D02*
X09670Y06008D01*
X04375Y22707D02*
X05401Y21681D01*
X08681Y21681D02*
X09743Y20619D01*
X04375Y23796D02*
X04375Y22707D01*
X07079Y26500D02*
X04375Y23796D01*
X08292Y06008D02*
X08292Y06992D01*
X09743Y20619D02*
X09743Y07065D01*
X09743Y07065D02*
X09670Y06992D01*
X05401Y21681D02*
X08681Y21681D01*
X11142Y12492D02*
X11142Y06008D01*
X01900Y21500D02*
X01900Y22399D01*
X01001Y24601D02*
X01002Y24602D01*
X01131Y22399D02*
X01001Y22529D01*
X01900Y22399D02*
X01131Y22399D01*
X01001Y22529D02*
X01001Y24601D01*
X01002Y24602D02*
X01900Y24602D01*
X08292Y01008D02*
X08292Y01992D01*
X01900Y25500D02*
X01900Y24602D01*
X09670Y01992D02*
X09670Y01008D01*
X11650Y13000D02*
X11142Y12492D01*
X11142Y06008D02*
X11900Y05250D01*
G54D31*
X16527Y04623D02*
X15900Y05250D01*
X17400Y04623D02*
X16527Y04623D01*
X17400Y04000D02*
X17400Y04623D01*
X33324Y09596D02*
X33324Y10081D01*
X33324Y10081D02*
X34156Y10913D01*
X34156Y10913D02*
X34644Y10913D01*
X31388Y07471D02*
X31388Y09332D01*
X31630Y09574D02*
X33302Y09574D01*
X34644Y10913D02*
X36400Y12669D01*
X31388Y09332D02*
X31630Y09574D01*
X31045Y07128D02*
X31388Y07471D01*
X33302Y09574D02*
X33324Y09596D01*
X36400Y12669D02*
X36400Y13000D01*
G54D32*
X05892Y09480D02*
X05892Y10858D01*
G54D31*
X12323Y05583D02*
X12637Y05269D01*
X12323Y06750D02*
X12323Y05583D01*
X12637Y05237D02*
X12023Y04623D01*
X11900Y06750D02*
X12323Y06750D01*
X11400Y04000D02*
X11400Y04623D01*
X12023Y04623D02*
X11400Y04623D01*
X12637Y05269D02*
X12637Y05237D01*
G54D33*
X04630Y06008D02*
X04630Y06992D01*
X06008Y06008D02*
X06008Y06992D01*
X06008Y01008D02*
X06008Y01992D01*
X04630Y01008D02*
X04630Y01992D01*
G54D31*
X11915Y03591D02*
X12129Y03377D01*
X11883Y03591D02*
X11915Y03591D01*
X11300Y03008D02*
X11883Y03591D01*
X12400Y04000D02*
X12400Y03377D01*
X36121Y00614D02*
X35506Y00614D01*
X12129Y03377D02*
X12400Y03377D01*
X11300Y02986D02*
X11300Y03008D01*
X13944Y00342D02*
X11300Y02986D01*
X35234Y00342D02*
X13944Y00342D01*
X35506Y00614D02*
X35234Y00342D01*
G54D33*
X15900Y02000D02*
X14900Y03000D01*
X15900Y01000D02*
X15900Y02000D01*
X13900Y02000D02*
X13900Y03000D01*
X14900Y01000D02*
X13900Y02000D01*
X16900Y02000D02*
X15900Y03000D01*
X16900Y01000D02*
X16900Y02000D01*
X17900Y02000D02*
X16900Y03000D01*
X17900Y01000D02*
X17900Y02000D01*
X22900Y01000D02*
X22900Y03000D01*
X21900Y01000D02*
X21900Y03000D01*
X23900Y01000D02*
X23900Y03000D01*
X24900Y01000D02*
X24900Y03000D01*
X30900Y01000D02*
X30900Y03000D01*
X29900Y01000D02*
X29900Y03000D01*
X31900Y01000D02*
X31900Y03000D01*
X32900Y01000D02*
X32900Y03000D01*
X28400Y27000D02*
X28900Y26500D01*
X28400Y31500D02*
X28400Y27000D01*
X27400Y27000D02*
X27900Y26500D01*
X27400Y31500D02*
X27400Y27000D01*
X21900Y31500D02*
X21900Y26500D01*
X22900Y31500D02*
X22900Y26500D01*
X20900Y31500D02*
X20900Y26500D01*
X19900Y31500D02*
X19900Y26500D01*
X13900Y31500D02*
X13900Y26500D01*
X14900Y31500D02*
X14900Y26500D01*
X12900Y31500D02*
X12900Y26500D01*
X11900Y31500D02*
X11900Y26500D01*
G54D31*
X23400Y04000D02*
X23400Y04623D01*
X31900Y13000D02*
X33400Y14500D01*
X29841Y13000D02*
X31900Y13000D01*
X26400Y09559D02*
X29841Y13000D01*
X26400Y07623D02*
X26400Y09559D01*
X23400Y04623D02*
X26400Y07623D01*
X28391Y09327D02*
X28812Y09327D01*
X27466Y08402D02*
X28391Y09327D01*
X24400Y04000D02*
X24400Y04623D01*
X27466Y07689D02*
X27466Y08402D01*
X28834Y10166D02*
X29742Y11074D01*
X24400Y04623D02*
X27466Y07689D01*
X28812Y09327D02*
X28834Y09349D01*
X32406Y12506D02*
X33400Y13500D01*
X32406Y11906D02*
X32406Y12506D01*
X28834Y09349D02*
X28834Y10166D01*
X31574Y11074D02*
X32406Y11906D01*
X29742Y11074D02*
X31574Y11074D01*
X31679Y10779D02*
X33400Y12500D01*
X31062Y10779D02*
X31679Y10779D01*
X28400Y08117D02*
X31062Y10779D01*
X28400Y07901D02*
X28400Y08117D01*
X25400Y04901D02*
X28400Y07901D01*
X25400Y04000D02*
X25400Y04901D01*
X26400Y05666D02*
X28264Y07530D01*
X26400Y04000D02*
X26400Y04623D01*
X32632Y11500D02*
X33400Y11500D01*
X28264Y07530D02*
X29031Y07530D01*
X29031Y07530D02*
X29324Y07823D01*
X29324Y07823D02*
X29324Y08192D01*
X26400Y04623D02*
X26400Y05666D01*
X29324Y08192D02*
X32632Y11500D01*
X37977Y22577D02*
X38400Y22577D01*
X37400Y22000D02*
X37977Y22577D01*
X38400Y23000D02*
X38400Y22577D01*
X37977Y21577D02*
X38400Y21577D01*
X37400Y21000D02*
X37977Y21577D01*
X38400Y22000D02*
X38400Y21577D01*
X37400Y20000D02*
X37977Y20577D01*
X38400Y21000D02*
X38400Y20577D01*
X37977Y20577D02*
X38400Y20577D01*
X37977Y19577D02*
X38400Y19577D01*
X37400Y19000D02*
X37977Y19577D01*
X38400Y20000D02*
X38400Y19577D01*
X37977Y18577D02*
X38400Y18577D01*
X37400Y18000D02*
X37977Y18577D01*
X38400Y19000D02*
X38400Y18577D01*
X37977Y17577D02*
X38400Y17577D01*
X37400Y17000D02*
X37977Y17577D01*
X38400Y18000D02*
X38400Y17577D01*
X37977Y16577D02*
X38400Y16577D01*
X37400Y16000D02*
X37977Y16577D01*
X38400Y17000D02*
X38400Y16577D01*
X37977Y15577D02*
X38400Y15577D01*
X37400Y15000D02*
X37977Y15577D01*
X38400Y16000D02*
X38400Y15577D01*
X37977Y14577D02*
X38400Y14577D01*
X37400Y14000D02*
X37977Y14577D01*
X38400Y15000D02*
X38400Y14577D01*
X37977Y13577D02*
X38400Y13577D01*
X37400Y13000D02*
X37977Y13577D01*
X38400Y14000D02*
X38400Y13577D01*
X38400Y13000D02*
X38400Y12577D01*
X37977Y12577D02*
X38400Y12577D01*
X37400Y12000D02*
X37977Y12577D01*
X37977Y11577D02*
X38400Y11577D01*
X37400Y11000D02*
X37977Y11577D01*
X38400Y12000D02*
X38400Y11577D01*
X37977Y10577D02*
X38400Y10577D01*
X37400Y10000D02*
X37977Y10577D01*
X38400Y11000D02*
X38400Y10577D01*
X37977Y08577D02*
X38400Y08577D01*
X37400Y08000D02*
X37977Y08577D01*
X38400Y09000D02*
X38400Y08577D01*
X15405Y16630D02*
X14284Y15509D01*
X15405Y21982D02*
X15405Y16630D01*
X15800Y22377D02*
X15405Y21982D01*
X15800Y23000D02*
X15800Y22377D01*
X14637Y23786D02*
X10704Y23786D01*
X10704Y23786D02*
X10376Y23458D01*
X10376Y23458D02*
X10376Y15366D01*
X10376Y15366D02*
X11886Y13856D01*
X14800Y23000D02*
X14800Y23623D01*
X14800Y23623D02*
X14637Y23786D01*
X26400Y23000D02*
X26400Y22377D01*
X26324Y22301D02*
X26400Y22377D01*
X26324Y15611D02*
X26324Y22301D01*
X28413Y13522D02*
X26324Y15611D01*
X28539Y13522D02*
X28413Y13522D01*
X25900Y15675D02*
X28214Y13361D01*
X28214Y13361D02*
X28214Y13035D01*
X25900Y21500D02*
X25900Y15675D01*
X24900Y22383D02*
X24900Y21500D01*
X27400Y23623D02*
X27237Y23786D01*
X25646Y23129D02*
X24900Y22383D01*
X25646Y23360D02*
X25646Y23129D01*
X26072Y23786D02*
X25646Y23360D01*
X27237Y23786D02*
X26072Y23786D01*
X27400Y23000D02*
X27400Y23623D01*
X27496Y21942D02*
X27474Y21920D01*
X29400Y22263D02*
X29079Y21942D01*
X29400Y22263D02*
X29400Y23000D01*
X29079Y21942D02*
X27496Y21942D01*
X26508Y18374D02*
X26508Y15783D01*
X27474Y21920D02*
X27474Y19340D01*
X27474Y19340D02*
X26508Y18374D01*
X26508Y15783D02*
X26576Y15715D01*
X17900Y21500D02*
X16433Y20033D01*
X16433Y20033D02*
X16433Y13750D01*
X28400Y23000D02*
X28400Y23623D01*
X23900Y21692D02*
X23900Y21500D01*
X25483Y23275D02*
X23900Y21692D01*
X25483Y23428D02*
X25483Y23275D01*
X26004Y23949D02*
X25483Y23428D01*
X28074Y23949D02*
X26004Y23949D01*
X28400Y23623D02*
X28074Y23949D01*
X17381Y23799D02*
X16900Y23318D01*
X16900Y23318D02*
X16900Y21500D01*
X17900Y23312D02*
X17413Y23799D01*
X17413Y23799D02*
X17381Y23799D01*
X17900Y22614D02*
X17900Y23312D01*
X18415Y22099D02*
X17900Y22614D01*
X22400Y21902D02*
X22203Y22099D01*
X22400Y21275D02*
X22400Y21902D01*
X22203Y22099D02*
X18415Y22099D01*
X34400Y15500D02*
X33959Y15059D01*
X33959Y15059D02*
X33959Y14267D01*
X33552Y18000D02*
X33400Y18000D01*
X33694Y14002D02*
X33182Y14002D01*
X33182Y14002D02*
X31836Y12656D01*
X31836Y12656D02*
X31836Y12088D01*
X31836Y12088D02*
X31814Y12066D01*
X31814Y12066D02*
X30966Y12066D01*
X30966Y12066D02*
X30400Y11500D01*
X33976Y17576D02*
X33976Y15924D01*
X33976Y15924D02*
X34400Y15500D01*
X32900Y26500D02*
X33324Y26924D01*
X31746Y17923D02*
X31823Y18000D01*
X31823Y18000D02*
X33400Y18000D01*
X31400Y18500D02*
X31823Y18500D01*
X33976Y17576D02*
X33552Y18000D01*
X31400Y17923D02*
X31746Y17923D01*
X31400Y17500D02*
X31400Y17923D01*
X31823Y18000D02*
X31823Y18500D01*
X33324Y26924D02*
X33324Y30576D01*
X33324Y30576D02*
X32900Y31000D01*
X33900Y31000D02*
X33748Y31000D01*
X33748Y31000D02*
X33324Y30576D01*
X33959Y14267D02*
X33694Y14002D01*
X25686Y12714D02*
X25400Y13000D01*
X25686Y11330D02*
X25686Y12714D01*
X19900Y02167D02*
X18309Y00576D01*
X13400Y02802D02*
X12950Y02352D01*
X12950Y02352D02*
X12548Y02352D01*
X12548Y02352D02*
X11900Y03000D01*
X15400Y01318D02*
X14347Y02371D01*
X35972Y19572D02*
X34400Y18000D01*
X13804Y03554D02*
X13400Y03150D01*
X13400Y03150D02*
X13400Y02802D01*
X18309Y00576D02*
X15642Y00576D01*
X15642Y00576D02*
X15400Y00818D01*
X15400Y00818D02*
X15400Y01318D01*
X15400Y03377D02*
X15129Y03377D01*
X14347Y03254D02*
X14047Y03554D01*
X14047Y03554D02*
X13804Y03554D01*
X14347Y02371D02*
X14347Y03254D01*
X38400Y07000D02*
X38400Y06577D01*
X14548Y03254D02*
X14347Y03254D01*
X14884Y03590D02*
X14548Y03254D01*
X14916Y03590D02*
X14884Y03590D01*
X15129Y03377D02*
X14916Y03590D01*
X38400Y26500D02*
X38400Y25500D01*
X38400Y26500D02*
X38400Y27500D01*
X15400Y04000D02*
X15400Y03377D01*
X31400Y15500D02*
X31400Y16500D01*
X37400Y06000D02*
X37466Y06000D01*
X37466Y06000D02*
X38043Y06577D01*
X38043Y06577D02*
X38400Y06577D01*
X19900Y03000D02*
X19900Y02167D01*
X31400Y16500D02*
X31400Y17500D01*
X38400Y24500D02*
X37981Y24500D01*
X37981Y24500D02*
X37981Y24252D01*
X37981Y24252D02*
X36867Y23138D01*
X36867Y23138D02*
X36867Y22659D01*
X36867Y22659D02*
X36708Y22500D01*
X36708Y22500D02*
X36210Y22500D01*
X35972Y22262D02*
X35972Y19572D01*
X38400Y25500D02*
X38400Y24500D01*
X36210Y22500D02*
X35972Y22262D01*
X34400Y18000D02*
X33976Y17576D01*
G54D32*
X00650Y10492D02*
X00658Y10500D01*
X05886Y17000D02*
X06400Y17000D01*
X03135Y14249D02*
X05886Y17000D01*
X03135Y11735D02*
X03135Y14249D01*
X01900Y10500D02*
X03135Y11735D01*
X00658Y10500D02*
X01900Y10500D01*
G54D31*
X26566Y10574D02*
X29492Y13500D01*
X24400Y14577D02*
X23977Y14577D01*
X23977Y14577D02*
X23047Y13647D01*
X23047Y13647D02*
X23047Y12464D01*
X23047Y12464D02*
X24937Y10574D01*
X24937Y10574D02*
X26566Y10574D01*
X29492Y13500D02*
X30400Y13500D01*
X24400Y15000D02*
X24400Y14577D01*
G54D33*
X05577Y20750D02*
X03749Y22578D01*
X03749Y22578D02*
X03749Y26349D01*
X03749Y26349D02*
X05150Y27750D01*
X02921Y03500D02*
X02921Y04479D01*
X02921Y04479D02*
X02798Y04602D01*
X02798Y04602D02*
X01900Y04602D01*
X01900Y02399D02*
X02074Y02399D01*
X02074Y02399D02*
X02921Y03246D01*
X02921Y03246D02*
X02921Y03500D01*
X02921Y03500D02*
X03650Y03500D01*
X07650Y09993D02*
X06362Y08705D01*
X06362Y08705D02*
X03438Y08705D01*
X03438Y08705D02*
X03438Y07039D01*
X03438Y07039D02*
X02798Y06399D01*
X02798Y06399D02*
X01900Y06399D01*
X01900Y05500D02*
X01900Y06399D01*
X06400Y20750D02*
X05577Y20750D01*
X26291Y25891D02*
X19509Y25891D01*
X19509Y25891D02*
X18900Y26500D01*
X05150Y28580D02*
X05150Y32000D01*
X26900Y26500D02*
X26291Y25891D01*
X08820Y28580D02*
X10900Y26500D01*
X05150Y28580D02*
X08820Y28580D01*
X18291Y25891D02*
X18900Y26500D01*
X11509Y25891D02*
X18291Y25891D01*
X10900Y26500D02*
X11509Y25891D01*
X05150Y27750D02*
X05150Y28580D01*
X33900Y03000D02*
X35098Y01802D01*
X35098Y01802D02*
X36792Y01802D01*
X36792Y01802D02*
X36922Y01932D01*
X36922Y01932D02*
X36922Y03120D01*
X36922Y03120D02*
X36059Y03983D01*
X36059Y03983D02*
X36059Y04541D01*
X36059Y04541D02*
X34600Y06000D01*
X34600Y06000D02*
X33334Y06000D01*
X07650Y13000D02*
X07650Y09993D01*
X01453Y08705D02*
X00650Y09508D01*
X03438Y08705D02*
X01453Y08705D01*
X01900Y05500D02*
X01900Y04602D01*
X03650Y03500D02*
X04288Y02862D01*
X04288Y02862D02*
X10132Y02862D01*
X10132Y02862D02*
X10603Y02391D01*
X06400Y20750D02*
X09164Y17986D01*
X09164Y17986D02*
X09164Y14514D01*
X09164Y14514D02*
X07650Y13000D01*
X01900Y01500D02*
X01900Y02399D01*
X18024Y03765D02*
X19147Y04888D01*
X18024Y03124D02*
X18024Y03765D01*
X17900Y03000D02*
X18024Y03124D01*
G54D31*
X24900Y09000D02*
X24900Y08000D01*
X24323Y09000D02*
X24323Y09401D01*
X24323Y09401D02*
X24345Y09423D01*
X24345Y09423D02*
X25313Y09423D01*
X25313Y09423D02*
X25334Y09402D01*
X25334Y09402D02*
X25334Y08566D01*
X23900Y09000D02*
X24323Y09000D01*
X25334Y08566D02*
X25900Y08000D01*
X16900Y09000D02*
X16900Y08000D01*
X32900Y09000D02*
X32900Y08000D01*
X33476Y07576D02*
X33900Y08000D01*
X32488Y07576D02*
X33476Y07576D01*
X32323Y07741D02*
X32488Y07576D01*
X32323Y08555D02*
X32323Y07741D01*
X32301Y08577D02*
X32323Y08555D01*
X31900Y08577D02*
X32301Y08577D01*
X31900Y09000D02*
X31900Y08577D01*
X15900Y09000D02*
X16323Y09000D01*
X16323Y09000D02*
X16323Y09401D01*
X16323Y09401D02*
X16345Y09423D01*
X16345Y09423D02*
X17313Y09423D01*
X17313Y09423D02*
X17334Y09402D01*
X17334Y09402D02*
X17334Y08566D01*
X17334Y08566D02*
X17900Y08000D01*
X32327Y26910D02*
X32305Y26932D01*
X32327Y26391D02*
X32327Y26910D01*
X32795Y25923D02*
X32327Y26391D01*
X33026Y25923D02*
X32795Y25923D01*
X31498Y26932D02*
X31476Y26910D01*
X35027Y27924D02*
X33026Y25923D01*
X37812Y27924D02*
X35027Y27924D01*
X37819Y27917D02*
X37812Y27924D01*
X37819Y25500D02*
X37819Y27917D01*
X37400Y25500D02*
X37819Y25500D01*
X32305Y26932D02*
X31498Y26932D01*
X25868Y23085D02*
X25476Y22693D01*
X26820Y23623D02*
X26140Y23623D01*
X26140Y23623D02*
X25868Y23351D01*
X25868Y23351D02*
X25868Y23085D01*
X25476Y22693D02*
X25476Y18147D01*
X25476Y18147D02*
X24441Y17112D01*
X26842Y22676D02*
X26842Y23601D01*
X27141Y22377D02*
X26842Y22676D01*
X28719Y22377D02*
X27141Y22377D01*
X28959Y22617D02*
X28719Y22377D01*
X28959Y23859D02*
X28959Y22617D01*
X26842Y23601D02*
X26820Y23623D01*
X31476Y26376D02*
X28959Y23859D01*
X31476Y26910D02*
X31476Y26376D01*
X27293Y18127D02*
X28363Y19197D01*
X28877Y20076D02*
X29079Y20076D01*
X28363Y19562D02*
X28877Y20076D01*
X28363Y19197D02*
X28363Y19562D01*
X26757Y18127D02*
X27293Y18127D01*
X29079Y20076D02*
X29459Y20456D01*
X29459Y20456D02*
X29459Y20903D01*
X30006Y20924D02*
X30476Y21394D01*
X30476Y21394D02*
X30476Y21758D01*
X30476Y21758D02*
X30976Y22258D01*
X30976Y22258D02*
X30976Y23641D01*
X30976Y23641D02*
X34835Y27500D01*
X34835Y27500D02*
X37400Y27500D01*
X29480Y20924D02*
X30006Y20924D01*
X29459Y20903D02*
X29480Y20924D01*
X23383Y12481D02*
X24783Y11081D01*
X29976Y14215D02*
X29976Y18903D01*
X29976Y18903D02*
X30230Y19157D01*
X30230Y19157D02*
X32868Y19157D01*
X26842Y11081D02*
X29976Y14215D01*
X24783Y11081D02*
X26842Y11081D01*
X34549Y22287D02*
X34549Y21413D01*
X36762Y24500D02*
X34549Y22287D01*
X37400Y24500D02*
X36762Y24500D01*
X36977Y26923D02*
X36736Y27164D01*
X37400Y26923D02*
X36977Y26923D01*
X29421Y19703D02*
X29421Y19416D01*
X31400Y21226D02*
X30169Y19995D01*
X29421Y19416D02*
X27379Y17374D01*
X35165Y27164D02*
X31976Y23975D01*
X31976Y22258D02*
X31400Y21682D01*
X37400Y26500D02*
X37400Y26923D01*
X31976Y23975D02*
X31976Y22258D01*
X36736Y27164D02*
X35165Y27164D01*
X30169Y19995D02*
X29713Y19995D01*
X29713Y19995D02*
X29421Y19703D01*
X31400Y21682D02*
X31400Y21226D01*
X28900Y20500D02*
X27900Y21500D01*
X19900Y20500D02*
X20900Y21500D01*
X12900Y20500D02*
X12900Y21500D01*
X21477Y20945D02*
X21477Y21759D01*
X21499Y20923D02*
X21477Y20945D01*
X21900Y20923D02*
X21499Y20923D01*
X21900Y20500D02*
X21900Y20923D01*
X21477Y21759D02*
X21301Y21935D01*
X19335Y21935D02*
X18900Y21500D01*
X21301Y21935D02*
X19335Y21935D01*
X14900Y20923D02*
X14499Y20923D01*
X11300Y21900D02*
X10900Y21500D01*
X11300Y23383D02*
X11300Y21900D01*
X11540Y23623D02*
X11300Y23383D01*
X12120Y23623D02*
X11540Y23623D01*
X12359Y23384D02*
X12120Y23623D01*
X14900Y20500D02*
X14900Y20923D01*
X12359Y22440D02*
X12359Y23384D01*
X12424Y22375D02*
X12359Y22440D01*
X13626Y22375D02*
X12424Y22375D01*
X14477Y21524D02*
X13626Y22375D01*
X14477Y20945D02*
X14477Y21524D01*
X14499Y20923D02*
X14477Y20945D01*
X11900Y11000D02*
X11900Y11423D01*
X11800Y23000D02*
X11800Y22377D01*
X12323Y11846D02*
X11900Y11423D01*
X12323Y21854D02*
X12323Y11846D01*
X11800Y22377D02*
X12323Y21854D01*
X26781Y13500D02*
X27781Y12500D01*
X24900Y13500D02*
X26781Y13500D01*
X24400Y14000D02*
X24900Y13500D01*
X33400Y23000D02*
X33400Y20000D01*
X32400Y20000D02*
X33400Y19000D01*
X32400Y23000D02*
X32400Y20000D01*
X17795Y22377D02*
X18400Y21772D01*
X18400Y21772D02*
X18400Y20935D01*
X18400Y20935D02*
X19411Y19924D01*
X19411Y19924D02*
X20312Y19924D01*
X20312Y19924D02*
X20466Y19770D01*
X20466Y19770D02*
X20466Y19098D01*
X20466Y19098D02*
X20488Y19076D01*
X17400Y22377D02*
X17795Y22377D01*
X29400Y13870D02*
X29400Y15500D01*
X28317Y12787D02*
X29400Y13870D01*
X17400Y23000D02*
X17400Y22377D01*
X27966Y12933D02*
X28112Y12787D01*
X26150Y15150D02*
X27966Y12933D01*
X22005Y19076D02*
X26150Y15150D01*
X28112Y12787D02*
X28317Y12787D01*
X20488Y19076D02*
X22005Y19076D01*
X18400Y23000D02*
X18400Y22377D01*
X18400Y22377D02*
X22775Y22377D01*
X22775Y22377D02*
X23337Y21815D01*
X23337Y21815D02*
X23337Y20424D01*
X23337Y20424D02*
X24182Y19579D01*
X19496Y04719D02*
X19496Y07040D01*
X19400Y04000D02*
X19400Y04623D01*
X19459Y11125D02*
X20039Y11705D01*
X19400Y04623D02*
X19496Y04719D01*
X19496Y07040D02*
X19459Y07077D01*
X19459Y07077D02*
X19459Y11125D01*
X20400Y13491D02*
X19998Y13893D01*
X20400Y04000D02*
X20400Y13491D01*
X21400Y04000D02*
X21400Y15485D01*
X22400Y04000D02*
X22400Y17235D01*
X34301Y20099D02*
X34400Y20000D01*
X34301Y25312D02*
X34301Y20099D01*
X35831Y26842D02*
X34301Y25312D01*
X33900Y25537D02*
X35262Y26899D01*
X33900Y19500D02*
X33900Y25537D01*
X34400Y19000D02*
X33900Y19500D01*
X28400Y04000D02*
X28400Y04623D01*
X28400Y04623D02*
X27408Y05615D01*
X27408Y05615D02*
X27408Y06285D01*
X29400Y04000D02*
X29400Y04623D01*
X28128Y05895D02*
X28128Y06126D01*
X29400Y04623D02*
X28128Y05895D01*
X28382Y06641D02*
X28382Y06653D01*
X30400Y04623D02*
X28382Y06641D01*
X30400Y04000D02*
X30400Y04623D01*
X30897Y03599D02*
X30669Y03371D01*
X31400Y04000D02*
X31400Y03377D01*
X31400Y03377D02*
X31151Y03377D01*
X30929Y03599D02*
X30897Y03599D01*
X31151Y03377D02*
X30929Y03599D01*
X30669Y03371D02*
X30230Y03371D01*
X30230Y03371D02*
X30047Y03554D01*
X30047Y03554D02*
X29804Y03554D01*
X29804Y03554D02*
X29400Y03150D01*
X20900Y03650D02*
X20900Y08000D01*
X20342Y03092D02*
X20900Y03650D01*
X20342Y01851D02*
X20342Y03092D01*
X27396Y00572D02*
X21621Y00572D01*
X21621Y00572D02*
X20342Y01851D01*
X29400Y02576D02*
X27396Y00572D01*
X29400Y03150D02*
X29400Y02576D01*
X32400Y04000D02*
X32400Y04623D01*
X31140Y04623D02*
X28644Y07119D01*
X32400Y04623D02*
X31140Y04623D01*
X36025Y10625D02*
X34408Y10625D01*
X36400Y11000D02*
X36025Y10625D01*
X33400Y04000D02*
X33400Y04623D01*
X33200Y04623D02*
X33400Y04623D01*
X30435Y07388D02*
X33200Y04623D01*
X29651Y07388D02*
X30435Y07388D01*
M02*
