G04 (created by PCBNEW (2013-07-07 BZR 4022)-stable) date 12/01/2014 01:21:10*
%MOIN*%
G04 Gerber Fmt 3.4, Leading zero omitted, Abs format*
%FSLAX34Y34*%
G01*
G70*
G90*
G04 APERTURE LIST*
%ADD10C,0.00590551*%
%ADD11R,0.055X0.035*%
%ADD12R,0.035X0.055*%
%ADD13C,0.06*%
%ADD14R,0.06X0.06*%
%ADD15R,0.1417X0.063*%
%ADD16C,0.07*%
%ADD17R,0.07X0.07*%
%ADD18R,0.0472X0.0472*%
%ADD19R,0.1181X0.1181*%
%ADD20C,0.1181*%
%ADD21R,0.06X0.0866*%
%ADD22O,0.06X0.0866*%
%ADD23R,0.0787X0.06*%
%ADD24O,0.0787X0.06*%
%ADD25R,0.0984X0.055*%
%ADD26R,0.05X0.02*%
%ADD27R,0.045X0.02*%
%ADD28R,0.03X0.017*%
%ADD29R,0.017X0.03*%
%ADD30R,0.0866X0.06*%
%ADD31O,0.0866X0.06*%
%ADD32C,0.13*%
%ADD33C,0.149*%
%ADD34R,0.036X0.036*%
%ADD35R,0.0657X0.061*%
%ADD36R,0.02X0.045*%
%ADD37C,0.0944882*%
%ADD38R,0.0944882X0.0944882*%
%ADD39R,0.0236X0.0551*%
%ADD40R,0.0394X0.0315*%
%ADD41R,0.0236X0.0394*%
%ADD42R,0.1024X0.063*%
%ADD43O,0.06X0.1*%
%ADD44C,0.125*%
%ADD45R,0.0551X0.0590551*%
%ADD46R,0.192913X0.188976*%
%ADD47C,0.025*%
%ADD48C,0.064*%
%ADD49C,0.045*%
%ADD50C,0.016*%
%ADD51C,0.008*%
%ADD52C,0.09*%
%ADD53C,0.063*%
%ADD54C,0.045*%
%ADD55C,0.03*%
%ADD56C,0.01*%
G04 APERTURE END LIST*
G54D10*
G54D11*
X32400Y20875D03*
X32400Y21625D03*
X33400Y20875D03*
X33400Y21625D03*
X25900Y21875D03*
X25900Y21125D03*
X17900Y21875D03*
X17900Y21125D03*
G54D12*
X10275Y21750D03*
X9525Y21750D03*
G54D11*
X26802Y9625D03*
X26802Y10375D03*
X18900Y9625D03*
X18900Y10375D03*
X35300Y9575D03*
X35300Y10325D03*
X16900Y21125D03*
X16900Y21875D03*
G54D12*
X32525Y28750D03*
X33275Y28750D03*
G54D11*
X12650Y11125D03*
X12650Y11875D03*
X22750Y16625D03*
X22750Y15875D03*
X22750Y13875D03*
X22750Y14625D03*
X22750Y13125D03*
X22750Y12375D03*
G54D12*
X10267Y19610D03*
X9517Y19610D03*
X7025Y24250D03*
X6275Y24250D03*
X9070Y18795D03*
X8320Y18795D03*
G54D13*
X18900Y8000D03*
X17900Y8000D03*
X16900Y8000D03*
X15900Y8000D03*
X14900Y8000D03*
X13900Y8000D03*
X12900Y8000D03*
X11900Y8000D03*
X11900Y3000D03*
X12900Y3000D03*
X13900Y3000D03*
X14900Y3000D03*
X15900Y3000D03*
X16900Y3000D03*
X17900Y3000D03*
X18900Y3000D03*
X26900Y8000D03*
X25900Y8000D03*
X24900Y8000D03*
X23900Y8000D03*
X22900Y8000D03*
X21900Y8000D03*
X20900Y8000D03*
X19900Y8000D03*
X19900Y3000D03*
X20900Y3000D03*
X21900Y3000D03*
X22900Y3000D03*
X23900Y3000D03*
X24900Y3000D03*
X25900Y3000D03*
X26900Y3000D03*
X34900Y8000D03*
X33900Y8000D03*
X32900Y8000D03*
X31900Y8000D03*
X30900Y8000D03*
X29900Y8000D03*
X28900Y8000D03*
X27900Y8000D03*
X27900Y3000D03*
X28900Y3000D03*
X29900Y3000D03*
X30900Y3000D03*
X31900Y3000D03*
X32900Y3000D03*
X33900Y3000D03*
X34900Y3000D03*
X10400Y24500D03*
X11400Y24500D03*
X12400Y24500D03*
X13400Y24500D03*
X14400Y24500D03*
X15400Y24500D03*
X16400Y24500D03*
X17400Y24500D03*
X17400Y29500D03*
X16400Y29500D03*
X15400Y29500D03*
X14400Y29500D03*
X13400Y29500D03*
X12400Y29500D03*
X11400Y29500D03*
X10400Y29500D03*
X18400Y24500D03*
X19400Y24500D03*
X20400Y24500D03*
X21400Y24500D03*
X22400Y24500D03*
X23400Y24500D03*
X24400Y24500D03*
X25400Y24500D03*
X25400Y29500D03*
X24400Y29500D03*
X23400Y29500D03*
X22400Y29500D03*
X21400Y29500D03*
X20400Y29500D03*
X19400Y29500D03*
X18400Y29500D03*
G54D14*
X31065Y35850D03*
G54D13*
X32065Y35850D03*
X33065Y35850D03*
X34065Y35850D03*
G54D14*
X17900Y10000D03*
G54D13*
X17900Y9000D03*
X16900Y10000D03*
X16900Y9000D03*
X15900Y10000D03*
X15900Y9000D03*
G54D14*
X11400Y20750D03*
G54D13*
X11400Y21750D03*
X12400Y20750D03*
X12400Y21750D03*
X13400Y20750D03*
X13400Y21750D03*
G54D14*
X26900Y20750D03*
G54D13*
X26900Y21750D03*
X27900Y20750D03*
X27900Y21750D03*
X28900Y20750D03*
X28900Y21750D03*
G54D14*
X33900Y10000D03*
G54D13*
X33900Y9000D03*
X32900Y10000D03*
X32900Y9000D03*
X31900Y10000D03*
X31900Y9000D03*
G54D14*
X25900Y10000D03*
G54D13*
X25900Y9000D03*
X24900Y10000D03*
X24900Y9000D03*
X23900Y10000D03*
X23900Y9000D03*
G54D14*
X18951Y36808D03*
G54D13*
X18951Y35808D03*
X18951Y34808D03*
G54D14*
X19951Y36808D03*
G54D13*
X19951Y35808D03*
X19951Y34808D03*
G54D14*
X17951Y36808D03*
G54D13*
X17951Y35808D03*
X17951Y34808D03*
G54D14*
X16951Y36808D03*
G54D13*
X16951Y35808D03*
X16951Y34808D03*
G54D14*
X21900Y9250D03*
G54D15*
X34483Y6000D03*
X32317Y6000D03*
X8067Y13500D03*
X10233Y13500D03*
X18567Y27500D03*
X20733Y27500D03*
X11748Y27500D03*
X13914Y27500D03*
X27483Y6000D03*
X25317Y6000D03*
X19317Y6000D03*
X21483Y6000D03*
G54D16*
X7148Y16929D03*
X6148Y16929D03*
G54D17*
X8148Y16929D03*
G54D16*
X7147Y26252D03*
X6147Y26252D03*
G54D17*
X8147Y26252D03*
G54D16*
X7152Y20294D03*
X6152Y20294D03*
G54D17*
X8152Y20294D03*
G54D18*
X15900Y21087D03*
X15900Y21913D03*
G54D11*
X28900Y9625D03*
X28900Y10375D03*
G54D16*
X7150Y29120D03*
X6150Y29120D03*
G54D17*
X8150Y29120D03*
G54D12*
X6175Y27550D03*
X5425Y27550D03*
G54D19*
X1900Y5500D03*
G54D20*
X1900Y7500D03*
G54D14*
X17400Y1250D03*
G54D13*
X16400Y1250D03*
X15400Y1250D03*
X14400Y1250D03*
G54D14*
X24900Y1250D03*
G54D13*
X23900Y1250D03*
X22900Y1250D03*
X21900Y1250D03*
G54D14*
X32900Y1250D03*
G54D13*
X31900Y1250D03*
X30900Y1250D03*
X29900Y1250D03*
G54D14*
X12410Y36040D03*
G54D13*
X13410Y36040D03*
X14410Y36040D03*
X15410Y36040D03*
G54D11*
X22750Y17625D03*
X22750Y18375D03*
G54D21*
X11900Y6250D03*
G54D22*
X12900Y6250D03*
X13900Y6250D03*
G54D23*
X38498Y24500D03*
G54D24*
X37302Y24500D03*
X38498Y25500D03*
X37302Y25500D03*
X38498Y26500D03*
X37302Y26500D03*
X38498Y27500D03*
X37302Y27500D03*
G54D11*
X19000Y17625D03*
X19000Y18375D03*
X19000Y15875D03*
X19000Y16625D03*
X19000Y12375D03*
X19000Y13125D03*
X19000Y14125D03*
X19000Y14875D03*
X21750Y18375D03*
X21750Y17625D03*
X21900Y16625D03*
X21900Y15875D03*
X21750Y13125D03*
X21750Y12375D03*
X21750Y14625D03*
X21750Y13875D03*
G54D19*
X1900Y15500D03*
G54D20*
X1900Y17500D03*
G54D19*
X1900Y1500D03*
G54D20*
X1900Y3500D03*
G54D25*
X36121Y364D03*
X36121Y2136D03*
X38680Y364D03*
X38680Y2136D03*
G54D11*
X27994Y10373D03*
X27994Y9623D03*
G54D14*
X21900Y36040D03*
G54D13*
X22900Y36040D03*
X23900Y36040D03*
X24900Y36040D03*
G54D14*
X26340Y36040D03*
G54D13*
X27340Y36040D03*
X28340Y36040D03*
X29340Y36040D03*
G54D15*
X25733Y27500D03*
X23567Y27500D03*
G54D13*
X26400Y24500D03*
X27400Y24500D03*
X28400Y24500D03*
X29400Y24500D03*
X30400Y24500D03*
X31400Y24500D03*
X32400Y24500D03*
X33400Y24500D03*
X33400Y29500D03*
X32400Y29500D03*
X31400Y29500D03*
X30400Y29500D03*
X29400Y29500D03*
X28400Y29500D03*
X27400Y29500D03*
X26400Y29500D03*
G54D14*
X18900Y20750D03*
G54D13*
X18900Y21750D03*
X19900Y20750D03*
X19900Y21750D03*
X20900Y20750D03*
X20900Y21750D03*
G54D23*
X24302Y15000D03*
G54D24*
X25498Y15000D03*
X24302Y14000D03*
X25498Y14000D03*
X24302Y13000D03*
X25498Y13000D03*
G54D26*
X15800Y12750D03*
X15800Y13250D03*
X15800Y13750D03*
X15800Y14250D03*
X15800Y14750D03*
X15800Y15250D03*
X15800Y15750D03*
X15800Y16250D03*
X15800Y16750D03*
X15800Y17250D03*
X12000Y17250D03*
X12000Y16750D03*
X12000Y16250D03*
X12000Y15750D03*
X12000Y15250D03*
X12000Y14750D03*
X12000Y14250D03*
X12000Y13750D03*
X12000Y13250D03*
X12000Y12750D03*
G54D27*
X9050Y36250D03*
X9050Y35750D03*
X9050Y35250D03*
X9050Y34750D03*
X9050Y34250D03*
X9050Y33750D03*
X9050Y33250D03*
X11150Y33250D03*
X11150Y33750D03*
X11150Y34250D03*
X11150Y34750D03*
X11150Y35250D03*
X11150Y35750D03*
X11150Y36250D03*
G54D11*
X14150Y18125D03*
X14150Y18875D03*
X8150Y36625D03*
X8150Y35875D03*
G54D12*
X5775Y35500D03*
X5025Y35500D03*
X6525Y35500D03*
X7275Y35500D03*
G54D28*
X8850Y31543D03*
X8250Y31543D03*
X8850Y31857D03*
X8250Y31857D03*
X8850Y31228D03*
X8850Y32172D03*
X8250Y32172D03*
X8250Y31228D03*
G54D29*
X11993Y18200D03*
X11993Y18800D03*
X12307Y18200D03*
X12307Y18800D03*
X11678Y18200D03*
X12622Y18200D03*
X12622Y18800D03*
X11678Y18800D03*
X15743Y18200D03*
X15743Y18800D03*
X16057Y18200D03*
X16057Y18800D03*
X15428Y18200D03*
X16372Y18200D03*
X16372Y18800D03*
X15428Y18800D03*
G54D30*
X34900Y29500D03*
G54D31*
X34900Y28500D03*
X34900Y27500D03*
X34900Y26500D03*
X34900Y25500D03*
X34900Y24500D03*
G54D21*
X3900Y36500D03*
G54D22*
X4900Y36500D03*
X5900Y36500D03*
X6900Y36500D03*
G54D21*
X14150Y9250D03*
G54D22*
X13150Y9250D03*
X12150Y9250D03*
G54D14*
X16398Y5338D03*
G54D13*
X17398Y5338D03*
G54D16*
X10650Y9250D03*
G54D17*
X10650Y10250D03*
G54D16*
X10650Y11250D03*
G54D14*
X30900Y13000D03*
G54D13*
X29900Y13000D03*
X30900Y14000D03*
X29900Y14000D03*
X30900Y15000D03*
X29900Y15000D03*
X30900Y16000D03*
X29900Y16000D03*
X30900Y17000D03*
X29900Y17000D03*
G54D30*
X35900Y29500D03*
G54D31*
X35900Y28500D03*
X35900Y27500D03*
X35900Y26500D03*
X35900Y25500D03*
X35900Y24500D03*
G54D14*
X1650Y35250D03*
G54D13*
X1650Y36250D03*
G54D32*
X5900Y2180D03*
X8900Y820D03*
G54D33*
X7400Y1500D03*
G54D32*
X5900Y7180D03*
X8900Y5820D03*
G54D33*
X7400Y6500D03*
G54D32*
X4720Y10250D03*
X6080Y13250D03*
G54D33*
X5400Y11750D03*
G54D34*
X6550Y32100D03*
X6550Y31400D03*
X5750Y31750D03*
X7002Y33380D03*
X6302Y33380D03*
X6652Y34180D03*
G54D11*
X5494Y30212D03*
X5494Y30962D03*
X5476Y32907D03*
X5476Y33657D03*
G54D14*
X1650Y30750D03*
G54D13*
X1650Y31750D03*
G54D14*
X1650Y33000D03*
G54D13*
X1650Y34000D03*
G54D35*
X3650Y21374D03*
X3650Y19813D03*
G54D11*
X11900Y11875D03*
X11900Y11125D03*
G54D35*
X4400Y17274D03*
X4400Y15713D03*
X3600Y25024D03*
X3600Y23463D03*
X3650Y28174D03*
X3650Y26613D03*
X3650Y31374D03*
X3650Y29813D03*
X3650Y34424D03*
X3650Y32863D03*
G54D30*
X38400Y6000D03*
G54D31*
X38400Y7000D03*
X38400Y8000D03*
X38400Y9000D03*
X38400Y10000D03*
X38400Y11000D03*
X38400Y12000D03*
X38400Y13000D03*
X38400Y14000D03*
X38400Y15000D03*
X38400Y16000D03*
X38400Y17000D03*
X38400Y18000D03*
X38400Y19000D03*
X38400Y20000D03*
X38400Y21000D03*
X38400Y22000D03*
X38400Y23000D03*
G54D36*
X32900Y27750D03*
X32400Y27750D03*
X31900Y27750D03*
X31400Y27750D03*
X30900Y27750D03*
X30400Y27750D03*
X29900Y27750D03*
X29400Y27750D03*
X29400Y25750D03*
X29900Y25750D03*
X30400Y25750D03*
X30900Y25750D03*
X31400Y25750D03*
X31900Y25750D03*
X32400Y25750D03*
X32900Y25750D03*
G54D14*
X33400Y18000D03*
G54D13*
X34400Y18000D03*
X33400Y17000D03*
X34400Y17000D03*
X33400Y16000D03*
X34400Y16000D03*
X33400Y15000D03*
X34400Y15000D03*
X33400Y14000D03*
X34400Y14000D03*
X33400Y13000D03*
X34400Y13000D03*
G54D30*
X34900Y750D03*
G54D31*
X34900Y1750D03*
G54D37*
X1675Y21488D03*
G54D38*
X1675Y20111D03*
G54D37*
X1675Y25238D03*
G54D38*
X1675Y23861D03*
G54D37*
X1675Y28988D03*
G54D38*
X1675Y27611D03*
G54D28*
X27700Y27843D03*
X27100Y27843D03*
X27700Y28157D03*
X27100Y28157D03*
X27700Y27528D03*
X27700Y28472D03*
X27100Y28472D03*
X27100Y27528D03*
X27700Y25843D03*
X27100Y25843D03*
X27700Y26157D03*
X27100Y26157D03*
X27700Y25528D03*
X27700Y26472D03*
X27100Y26472D03*
X27100Y25528D03*
G54D14*
X30900Y20750D03*
G54D13*
X30900Y21750D03*
G54D35*
X15150Y6624D03*
X15150Y5063D03*
G54D19*
X1900Y10500D03*
G54D20*
X1900Y12500D03*
G54D18*
X4650Y24237D03*
X4650Y25063D03*
X4650Y27387D03*
X4650Y28213D03*
X4694Y20787D03*
X4694Y21613D03*
X4684Y19120D03*
X4684Y18294D03*
X4650Y30537D03*
X4650Y31363D03*
X4657Y33660D03*
X4657Y34486D03*
G54D11*
X31978Y34299D03*
X31978Y33549D03*
X17190Y20269D03*
X17190Y19519D03*
X16000Y20275D03*
X16000Y19525D03*
G54D12*
X9070Y17902D03*
X8320Y17902D03*
X8525Y21500D03*
X7775Y21500D03*
X8525Y30500D03*
X7775Y30500D03*
X8775Y27500D03*
X8025Y27500D03*
G54D28*
X11700Y31343D03*
X11100Y31343D03*
X11700Y31657D03*
X11100Y31657D03*
X11700Y31028D03*
X11700Y31972D03*
X11100Y31972D03*
X11100Y31028D03*
G54D39*
X32750Y34310D03*
X32750Y32210D03*
X33250Y34310D03*
X33750Y34310D03*
X34250Y34310D03*
X33250Y32210D03*
X33750Y32210D03*
X34250Y32210D03*
G54D40*
X27183Y18500D03*
X26317Y18125D03*
X26317Y18875D03*
G54D41*
X19750Y17567D03*
X19750Y18433D03*
X20750Y18433D03*
X20750Y17567D03*
X19750Y12317D03*
X19750Y13183D03*
X20750Y13183D03*
X20750Y12317D03*
X20750Y16683D03*
X20750Y15817D03*
X19750Y15817D03*
X19750Y16683D03*
X19750Y14067D03*
X19750Y14933D03*
X20750Y14933D03*
X20750Y14067D03*
G54D11*
X25500Y18125D03*
X25500Y18875D03*
X28000Y18875D03*
X28000Y18125D03*
X24500Y18125D03*
X24500Y18875D03*
X8150Y35125D03*
X8150Y34375D03*
G54D12*
X7025Y30500D03*
X6275Y30500D03*
G54D21*
X13900Y5250D03*
G54D22*
X12900Y5250D03*
G54D14*
X12900Y1250D03*
G54D13*
X11900Y1250D03*
G54D42*
X25541Y16750D03*
X26959Y16750D03*
G54D11*
X18000Y12375D03*
X18000Y13125D03*
X18000Y15875D03*
X18000Y16625D03*
X18000Y14125D03*
X18000Y14875D03*
X18000Y17625D03*
X18000Y18375D03*
G54D14*
X37891Y29870D03*
G54D13*
X37891Y28870D03*
G54D41*
X29900Y10433D03*
X29900Y9567D03*
G54D30*
X35367Y36811D03*
G54D31*
X35367Y35811D03*
X35367Y34811D03*
X35367Y33811D03*
X35367Y32811D03*
X35367Y31811D03*
G54D23*
X37269Y36811D03*
G54D24*
X38465Y36811D03*
X37269Y35811D03*
X38465Y35811D03*
X37269Y34811D03*
X38465Y34811D03*
X37269Y33811D03*
X38465Y33811D03*
X37269Y32811D03*
X38465Y32811D03*
X37269Y31811D03*
X38465Y31811D03*
G54D43*
X26400Y23000D03*
X27400Y23000D03*
X28400Y23000D03*
X29400Y23000D03*
X30400Y23000D03*
X31400Y23000D03*
X32400Y23000D03*
X33400Y23000D03*
X35400Y4000D03*
X34400Y4000D03*
X33400Y4000D03*
X32400Y4000D03*
X28400Y4000D03*
X26400Y4000D03*
X25400Y4000D03*
X29400Y4000D03*
X30400Y4000D03*
X31400Y4000D03*
X24400Y4000D03*
X23400Y4000D03*
X22400Y4000D03*
X19400Y4000D03*
X20400Y4000D03*
X21400Y4000D03*
X17400Y4000D03*
X16400Y4000D03*
X15400Y4000D03*
X13400Y4000D03*
X12400Y4000D03*
X24400Y23000D03*
X23400Y23000D03*
X22400Y23000D03*
X21400Y23000D03*
X20400Y23000D03*
X19400Y23000D03*
X18400Y23000D03*
X17400Y23000D03*
X15800Y23000D03*
X14800Y23000D03*
X13800Y23000D03*
X12800Y23000D03*
X11800Y23000D03*
X10800Y23000D03*
X9800Y23000D03*
X8800Y23000D03*
X14400Y4000D03*
G54D44*
X37400Y4000D03*
X34900Y23000D03*
X5400Y23000D03*
X4900Y4000D03*
G54D13*
X36400Y22000D03*
X37400Y22000D03*
X36400Y21000D03*
X37400Y21000D03*
X36400Y20000D03*
X37400Y20000D03*
X36400Y19000D03*
X37400Y19000D03*
X36400Y23000D03*
X37400Y23000D03*
X37400Y18000D03*
X36400Y18000D03*
X36400Y17000D03*
X37400Y17000D03*
X36400Y16000D03*
X37400Y16000D03*
X36400Y15000D03*
X37400Y15000D03*
X36400Y14000D03*
X37400Y14000D03*
X36400Y13000D03*
X37400Y13000D03*
X36400Y12000D03*
X37400Y12000D03*
X36400Y11000D03*
X37400Y11000D03*
X36400Y10000D03*
X37400Y10000D03*
X36400Y9000D03*
X37400Y9000D03*
X36400Y8000D03*
X37400Y8000D03*
X36400Y7000D03*
X37400Y7000D03*
X36400Y6000D03*
X37400Y6000D03*
G54D43*
X7800Y23000D03*
X6800Y23000D03*
X11400Y4000D03*
X10400Y4000D03*
G54D45*
X8809Y9417D03*
X7991Y9417D03*
G54D46*
X8400Y11091D03*
G54D34*
X15000Y21100D03*
X14300Y21100D03*
X14650Y21900D03*
G54D47*
X16650Y12360D03*
X22800Y11690D03*
X26500Y15090D03*
X15050Y11030D03*
X13750Y12400D03*
X13700Y14200D03*
X13700Y17400D03*
X7071Y22067D03*
X475Y26435D03*
X31700Y28770D03*
X21650Y19350D03*
X35500Y7150D03*
X31759Y20876D03*
G54D48*
X2900Y18900D03*
G54D49*
X10800Y1750D03*
X7700Y19200D03*
X9000Y17000D03*
G54D47*
X16700Y18200D03*
X10930Y21455D03*
X13410Y10280D03*
X13530Y1440D03*
X19750Y750D03*
X16366Y11452D03*
X28248Y12207D03*
X16600Y17700D03*
X31573Y8499D03*
X22800Y17100D03*
X22760Y15150D03*
X10400Y25550D03*
X10250Y33550D03*
X10650Y31025D03*
X10650Y25250D03*
X10350Y31950D03*
X10350Y31350D03*
X10900Y24950D03*
X22450Y25175D03*
X11100Y32350D03*
X10350Y34750D03*
X34608Y19717D03*
X32840Y19860D03*
X29250Y19700D03*
X22200Y22200D03*
X17150Y20700D03*
X15292Y15527D03*
X11539Y17000D03*
X10907Y17909D03*
X15336Y19452D03*
X15337Y15931D03*
X8776Y20909D03*
X12458Y17702D03*
X12458Y16250D03*
X31820Y23720D03*
X31487Y10645D03*
X31910Y12050D03*
X15400Y8900D03*
X26850Y15440D03*
X22510Y11340D03*
X20440Y11280D03*
X15400Y36750D03*
X11300Y18800D03*
X13300Y18050D03*
X17000Y12460D03*
X36570Y30070D03*
X11150Y36625D03*
X32150Y20450D03*
X10268Y18794D03*
X7550Y33650D03*
X7550Y34550D03*
G54D49*
X8850Y32650D03*
X20750Y28550D03*
X14581Y11228D03*
X17386Y13292D03*
X10500Y36500D03*
X19000Y19100D03*
X13460Y11870D03*
X9020Y8680D03*
X17385Y14875D03*
X33396Y6762D03*
X30550Y18850D03*
X11675Y32400D03*
X28900Y18200D03*
X25900Y20600D03*
G54D47*
X29097Y28095D03*
G54D49*
X18019Y6281D03*
X12648Y19878D03*
X13355Y19170D03*
X33400Y33236D03*
X7000Y32618D03*
X25400Y10576D03*
G54D47*
X30129Y28803D03*
X30920Y28340D03*
X31140Y28600D03*
X30966Y30556D03*
X28800Y29050D03*
X34675Y10000D03*
X38840Y23720D03*
X10850Y25800D03*
X15050Y20400D03*
X14750Y15230D03*
X27445Y10662D03*
X27810Y15900D03*
X37190Y18510D03*
X22750Y21000D03*
X31018Y26351D03*
X23340Y20310D03*
X26394Y23796D03*
X34070Y20973D03*
X35264Y19218D03*
X23950Y18900D03*
X22100Y19000D03*
X32900Y31550D03*
X34174Y25253D03*
X3180Y37060D03*
X31900Y31400D03*
X16900Y27350D03*
X17400Y27350D03*
X19650Y27500D03*
X19950Y28200D03*
X29550Y19450D03*
X20340Y12010D03*
X21150Y13600D03*
X21200Y15450D03*
X21200Y17170D03*
X30686Y24929D03*
X38130Y23880D03*
X36760Y26050D03*
X33210Y19850D03*
X31891Y25226D03*
X33436Y25644D03*
X28379Y7385D03*
X14470Y8460D03*
X18360Y8430D03*
X34780Y11700D03*
X29361Y6976D03*
X16630Y7440D03*
X30960Y27220D03*
X32092Y27056D03*
X30070Y6722D03*
X20490Y2690D03*
X32894Y27228D03*
X31831Y27273D03*
X30430Y6860D03*
X35582Y11474D03*
G54D50*
X21010Y11700D02*
X22790Y11700D01*
X17530Y11880D02*
X17130Y11880D01*
X19900Y11700D02*
X19720Y11880D01*
X19720Y11880D02*
X17530Y11880D01*
X21010Y11700D02*
X19900Y11700D01*
X17130Y11880D02*
X16650Y12360D01*
X22790Y11700D02*
X22800Y11690D01*
X26500Y15090D02*
X25630Y15960D01*
X24500Y16310D02*
X24500Y16260D01*
X24500Y16260D02*
X24800Y15960D01*
X24800Y15960D02*
X25630Y15960D01*
X24500Y16310D02*
X24500Y16550D01*
X24500Y18125D02*
X24500Y16550D01*
X15060Y11020D02*
X15060Y10470D01*
X15050Y11030D02*
X15060Y11020D01*
X13632Y10000D02*
X13650Y10000D01*
X13150Y9250D02*
X13150Y9517D01*
X13150Y9517D02*
X13632Y10000D01*
X13850Y10200D02*
X13850Y10470D01*
X13650Y10000D02*
X13850Y10200D01*
X13850Y10480D02*
X13850Y10470D01*
X13850Y10470D02*
X15060Y10470D01*
X15060Y10470D02*
X15290Y10470D01*
X16400Y10330D02*
X16260Y10470D01*
X16260Y10470D02*
X15290Y10470D01*
X15384Y6624D02*
X15150Y6624D01*
X16400Y7640D02*
X16400Y9400D01*
X15384Y6624D02*
X16400Y7640D01*
X16400Y9400D02*
X16400Y10330D01*
X13700Y16900D02*
X13700Y17400D01*
X13850Y12300D02*
X13750Y12400D01*
X13700Y14200D02*
X13700Y16900D01*
X13850Y10470D02*
X13850Y12300D01*
X7071Y22067D02*
X7043Y22095D01*
X7043Y22095D02*
X4271Y22095D01*
X4271Y22095D02*
X3655Y22711D01*
X3655Y22711D02*
X824Y22711D01*
X824Y22711D02*
X475Y23060D01*
X475Y23060D02*
X475Y26435D01*
G54D51*
X3650Y29813D02*
X5095Y29813D01*
X5095Y29813D02*
X5494Y30212D01*
G54D50*
X1650Y30750D02*
X2713Y30750D01*
X2713Y30750D02*
X3650Y29813D01*
X13150Y9250D02*
X13150Y9050D01*
X1650Y30750D02*
X1600Y30750D01*
X1150Y32500D02*
X1650Y33000D01*
X1150Y31200D02*
X1150Y32500D01*
X1600Y30750D02*
X1150Y31200D01*
X2038Y32862D02*
X3650Y32862D01*
X3650Y32862D02*
X5274Y32864D01*
X5274Y32864D02*
X5476Y32899D01*
X1650Y33000D02*
X1900Y33000D01*
X1900Y33000D02*
X2038Y32862D01*
G54D52*
X1900Y15500D02*
X4394Y15500D01*
X4394Y15500D02*
X6081Y13251D01*
G54D50*
X32162Y28750D02*
X31720Y28750D01*
X32525Y28750D02*
X32162Y28750D01*
X31720Y28750D02*
X31700Y28770D01*
X14900Y8000D02*
X14900Y9000D01*
X14900Y9000D02*
X15900Y10000D01*
X12900Y6250D02*
X12900Y6560D01*
X13900Y7560D02*
X13900Y8000D01*
X12900Y6560D02*
X13900Y7560D01*
X23400Y24500D02*
X23400Y24450D01*
X26900Y20900D02*
X26900Y20750D01*
X26300Y21500D02*
X26900Y20900D01*
X25500Y21500D02*
X26300Y21500D01*
X25450Y21550D02*
X25500Y21500D01*
X25450Y23350D02*
X25450Y21550D01*
X25050Y23750D02*
X25450Y23350D01*
X24100Y23750D02*
X25050Y23750D01*
X23400Y24450D02*
X24100Y23750D01*
X20900Y20100D02*
X20900Y20750D01*
X21650Y19350D02*
X20900Y20100D01*
X34400Y13000D02*
X34400Y13060D01*
X34400Y13060D02*
X33980Y13480D01*
X33980Y13480D02*
X31910Y13480D01*
X31910Y13480D02*
X31430Y13000D01*
X31430Y13000D02*
X30900Y13000D01*
X38400Y6000D02*
X38400Y6030D01*
X36130Y6520D02*
X35500Y7150D01*
X37910Y6520D02*
X36130Y6520D01*
X38400Y6030D02*
X37910Y6520D01*
X31760Y20875D02*
X31759Y20876D01*
X31760Y20875D02*
X32400Y20875D01*
G54D51*
X6375Y37155D02*
X6375Y35650D01*
X6375Y35650D02*
X6525Y35500D01*
X5775Y35500D02*
X6525Y35500D01*
G54D50*
X4225Y37155D02*
X4005Y37155D01*
X16400Y29500D02*
X16400Y36450D01*
X15695Y37155D02*
X16400Y36450D01*
X8575Y37155D02*
X15695Y37155D01*
X8575Y37155D02*
X6375Y37155D01*
X6375Y37155D02*
X4225Y37155D01*
X3900Y37050D02*
X3900Y36500D01*
X4005Y37155D02*
X3900Y37050D01*
X12900Y3000D02*
X12900Y4390D01*
X13390Y5760D02*
X12900Y6250D01*
X13390Y4880D02*
X13390Y5760D01*
X12900Y4390D02*
X13390Y4880D01*
X29900Y8025D02*
X28812Y9112D01*
X29900Y8000D02*
X29900Y8025D01*
X32525Y28750D02*
X32525Y28933D01*
X32400Y29058D02*
X32400Y29500D01*
X32525Y28933D02*
X32400Y29058D01*
X17900Y10000D02*
X19381Y10000D01*
X20433Y9467D02*
X21900Y8000D01*
X19914Y9467D02*
X20433Y9467D01*
X19381Y10000D02*
X19914Y9467D01*
X19900Y20750D02*
X20900Y20750D01*
X18900Y20750D02*
X19900Y20750D01*
X30400Y24500D02*
X31400Y24500D01*
X22400Y24500D02*
X23400Y24500D01*
X14400Y24500D02*
X15400Y24500D01*
X21900Y8000D02*
X22900Y8000D01*
X16900Y10000D02*
X17900Y10000D01*
X13900Y8000D02*
X14900Y8000D01*
X31065Y35850D02*
X31065Y35226D01*
X31065Y35226D02*
X31981Y34310D01*
X31981Y34310D02*
X32750Y34310D01*
X27150Y10000D02*
X27325Y9825D01*
X28812Y9112D02*
X28900Y9200D01*
X28900Y9200D02*
X28900Y9625D01*
X28800Y9100D02*
X28812Y9112D01*
X27550Y9100D02*
X28800Y9100D01*
X27325Y9325D02*
X27550Y9100D01*
X27325Y9825D02*
X27325Y9325D01*
G54D51*
X13400Y20750D02*
X12400Y20750D01*
G54D50*
X26900Y20750D02*
X27900Y20750D01*
X33400Y20875D02*
X32400Y20875D01*
X28900Y20750D02*
X27900Y20750D01*
X23900Y10000D02*
X24900Y10000D01*
X32900Y10000D02*
X33900Y10000D01*
G54D51*
X12400Y20750D02*
X11677Y20750D01*
X11677Y20750D02*
X11400Y20750D01*
G54D50*
X32525Y28750D02*
X32525Y28416D01*
X32845Y28095D02*
X32900Y28095D01*
X32525Y28416D02*
X32845Y28095D01*
X32900Y27750D02*
X32900Y28095D01*
G54D51*
X32377Y29477D02*
X32400Y29500D01*
G54D50*
X31900Y10000D02*
X32900Y10000D01*
X31194Y9294D02*
X31900Y10000D01*
X31194Y8294D02*
X31194Y9294D01*
X30900Y8000D02*
X31194Y8294D01*
X30900Y8000D02*
X29900Y8000D01*
X24900Y10000D02*
X25900Y10000D01*
X25900Y10000D02*
X27150Y10000D01*
G54D53*
X26900Y3000D02*
X26900Y3250D01*
X27150Y3500D02*
X27150Y5068D01*
X26900Y3250D02*
X27150Y3500D01*
X19317Y6000D02*
X19317Y5346D01*
X19317Y5346D02*
X19038Y5068D01*
X34483Y6000D02*
X34483Y5068D01*
X34004Y5068D02*
X34483Y5068D01*
X34483Y5068D02*
X35831Y5068D01*
X34900Y3000D02*
X35960Y3000D01*
X36190Y3230D02*
X35960Y3000D01*
X36190Y4540D02*
X36190Y3230D01*
X34004Y5068D02*
X27150Y5068D01*
X27150Y5068D02*
X27050Y5068D01*
X36190Y4710D02*
X36190Y4540D01*
X35831Y5068D02*
X36190Y4710D01*
X608Y18752D02*
X756Y18900D01*
X608Y8977D02*
X608Y18752D01*
X985Y8683D02*
X608Y8977D01*
X7747Y8683D02*
X985Y8683D01*
X8900Y7530D02*
X7747Y8683D01*
X8900Y5820D02*
X8900Y7530D01*
X756Y18900D02*
X2900Y18900D01*
X18584Y26500D02*
X11950Y26500D01*
X11748Y26701D02*
X11748Y27500D01*
X11950Y26500D02*
X11748Y26701D01*
X11748Y27500D02*
X10550Y27500D01*
X10550Y27500D02*
X10550Y29100D01*
X10550Y29100D02*
X10400Y29250D01*
X10400Y29250D02*
X10400Y29500D01*
X26400Y29500D02*
X26400Y29050D01*
X25750Y27517D02*
X25733Y27500D01*
X25750Y28400D02*
X25750Y27517D01*
X26400Y29050D02*
X25750Y28400D01*
X18400Y29500D02*
X18400Y28600D01*
X25733Y26533D02*
X25733Y27500D01*
X25700Y26500D02*
X25733Y26533D01*
X18584Y26500D02*
X25700Y26500D01*
X18567Y26517D02*
X18584Y26500D01*
X18567Y28433D02*
X18567Y26517D01*
X18400Y28600D02*
X18567Y28433D01*
X11748Y27500D02*
X11411Y27500D01*
X19731Y5068D02*
X27050Y5068D01*
X27050Y5068D02*
X27095Y5068D01*
X18900Y3000D02*
X18900Y900D01*
X8900Y2400D02*
X8900Y5820D01*
X10800Y500D02*
X8900Y2400D01*
X18500Y500D02*
X10800Y500D01*
X18900Y900D02*
X18500Y500D01*
X27482Y6000D02*
X27482Y5289D01*
X27261Y5068D02*
X27095Y5068D01*
X27482Y5289D02*
X27261Y5068D01*
X18704Y4734D02*
X19038Y5068D01*
X18704Y3195D02*
X18704Y4734D01*
X18900Y3000D02*
X18704Y3195D01*
X19038Y5068D02*
X19731Y5068D01*
G54D54*
X12650Y9750D02*
X12650Y11125D01*
X10200Y8800D02*
X10650Y9250D01*
X10200Y8750D02*
X10200Y8800D01*
X10200Y6150D02*
X10200Y8750D01*
X10200Y5550D02*
X10200Y6150D01*
X9650Y5000D02*
X10200Y5550D01*
X9650Y2700D02*
X9650Y5000D01*
X10800Y1750D02*
X9650Y2700D01*
X8067Y13500D02*
X8067Y15227D01*
X3650Y20105D02*
X3955Y19800D01*
X3955Y19800D02*
X5150Y19800D01*
X5150Y19800D02*
X5750Y19200D01*
X5750Y19200D02*
X7700Y19200D01*
X3650Y20105D02*
X3650Y19813D01*
X8067Y15217D02*
X8067Y15227D01*
X9000Y16150D02*
X8067Y15217D01*
X9000Y16450D02*
X9000Y16150D01*
X9000Y17000D02*
X9000Y16450D01*
X8400Y11091D02*
X8400Y13167D01*
X8400Y13167D02*
X8067Y13500D01*
X10650Y9250D02*
X10270Y9250D01*
X8429Y11091D02*
X8400Y11091D01*
X10270Y9250D02*
X8429Y11091D01*
X3650Y26613D02*
X2673Y26613D01*
X2673Y26613D02*
X1675Y27611D01*
X1675Y23861D02*
X3201Y23861D01*
X3201Y23861D02*
X3600Y23463D01*
X12150Y9250D02*
X12650Y9750D01*
X3251Y20111D02*
X3646Y20109D01*
X1675Y20111D02*
X3251Y20111D01*
X10650Y9250D02*
X12150Y9250D01*
G54D51*
X16870Y17431D02*
X16870Y18030D01*
X16744Y13824D02*
X16780Y13860D01*
X16780Y13860D02*
X16780Y16860D01*
X16780Y16860D02*
X16870Y16950D01*
X16870Y16950D02*
X16870Y17431D01*
X16744Y13822D02*
X16744Y13824D01*
X16870Y18030D02*
X16700Y18200D01*
X16744Y13822D02*
X16744Y13834D01*
X16744Y13822D02*
X16170Y13250D01*
X15800Y13250D02*
X16170Y13250D01*
X16372Y18200D02*
X16700Y18200D01*
X9210Y22020D02*
X9210Y22040D01*
X10650Y19840D02*
X10650Y20000D01*
X10550Y20100D02*
X9210Y21440D01*
X9210Y21960D02*
X9210Y21440D01*
X11678Y18200D02*
X10950Y18200D01*
X10650Y18500D02*
X10650Y19250D01*
X10950Y18200D02*
X10650Y18500D01*
X10650Y19250D02*
X10650Y19840D01*
X10650Y20000D02*
X10550Y20100D01*
X9210Y21960D02*
X9210Y22020D01*
X18400Y24260D02*
X18400Y24500D01*
X18110Y23970D02*
X18400Y24260D01*
X8640Y23970D02*
X18110Y23970D01*
X8330Y23660D02*
X8640Y23970D01*
X8330Y22390D02*
X8330Y23660D01*
X8370Y22350D02*
X8330Y22390D01*
X8900Y22350D02*
X8370Y22350D01*
X9210Y22040D02*
X8900Y22350D01*
X12000Y13250D02*
X11629Y13250D01*
X11677Y18200D02*
X11662Y18184D01*
X11125Y13754D02*
X11629Y13250D01*
X11125Y17647D02*
X11125Y13754D01*
X11662Y18184D02*
X11125Y17647D01*
X11992Y18200D02*
X11992Y18470D01*
X12000Y14250D02*
X11629Y14250D01*
X10930Y21455D02*
X10930Y21455D01*
X10930Y18719D02*
X10930Y21455D01*
X11179Y18470D02*
X10930Y18719D01*
X11992Y18470D02*
X11179Y18470D01*
X11992Y18074D02*
X11992Y18200D01*
X11286Y17368D02*
X11992Y18074D01*
X11286Y14593D02*
X11286Y17368D01*
X11629Y14250D02*
X11286Y14593D01*
G54D50*
X4649Y31750D02*
X4649Y31363D01*
X4649Y31363D02*
X4650Y31363D01*
X3646Y31750D02*
X3646Y31378D01*
X3646Y31378D02*
X3650Y31374D01*
X1650Y31750D02*
X3646Y31750D01*
X3646Y31750D02*
X4649Y31750D01*
X4649Y31750D02*
X4654Y31751D01*
X4738Y31757D02*
X4649Y31747D01*
X5750Y31750D02*
X5620Y31756D01*
X5620Y31756D02*
X4738Y31757D01*
X2050Y34400D02*
X3625Y34400D01*
X1650Y34000D02*
X2050Y34400D01*
X3625Y34400D02*
X3650Y34424D01*
X3625Y34400D02*
X4562Y34398D01*
X4562Y34398D02*
X4654Y34397D01*
X4654Y34397D02*
X6432Y34397D01*
X6432Y34397D02*
X6652Y34180D01*
G54D54*
X4650Y25455D02*
X3601Y25455D01*
X3601Y25455D02*
X3385Y25238D01*
X3385Y25238D02*
X3600Y25024D01*
X1675Y25238D02*
X3385Y25238D01*
X3385Y25238D02*
X3600Y25024D01*
X4650Y25455D02*
X4650Y25163D01*
X5482Y25455D02*
X4650Y25455D01*
X5482Y25455D02*
X6839Y25455D01*
X6839Y25455D02*
X7150Y25767D01*
X7147Y26252D02*
X7150Y25767D01*
G54D52*
X1900Y17500D02*
X4687Y17501D01*
X4687Y17501D02*
X4687Y18065D01*
X4687Y18065D02*
X6700Y18062D01*
X6700Y18062D02*
X7147Y17616D01*
X7147Y17616D02*
X7148Y16928D01*
G54D54*
X3650Y21374D02*
X3650Y21613D01*
X3650Y21613D02*
X4694Y21613D01*
X3650Y21613D02*
X3650Y21374D01*
X4694Y21613D02*
X2853Y21613D01*
X2728Y21488D02*
X1675Y21488D01*
X2853Y21613D02*
X2728Y21488D01*
X7151Y20601D02*
X7152Y20294D01*
X6135Y21612D02*
X7151Y20601D01*
X4694Y21612D02*
X6135Y21612D01*
X4650Y28213D02*
X3689Y28213D01*
X3689Y28213D02*
X3650Y28174D01*
X5350Y28300D02*
X4737Y28300D01*
X7150Y29120D02*
X7150Y28800D01*
X6650Y28300D02*
X5350Y28300D01*
X7150Y28800D02*
X6650Y28300D01*
X4737Y28300D02*
X4650Y28213D01*
X1675Y28988D02*
X2835Y28988D01*
X2835Y28988D02*
X3611Y28213D01*
G54D52*
X4720Y10429D02*
X4720Y10250D01*
X2650Y12500D02*
X4720Y10429D01*
X1900Y12500D02*
X2650Y12500D01*
G54D50*
X16398Y5338D02*
X15923Y5340D01*
X15646Y5063D02*
X15150Y5063D01*
X15923Y5340D02*
X15646Y5063D01*
X11900Y11875D02*
X11900Y11670D01*
X13410Y11260D02*
X13410Y10280D01*
X13150Y11520D02*
X13410Y11260D01*
X12050Y11520D02*
X13150Y11520D01*
X11900Y11670D02*
X12050Y11520D01*
X11275Y11875D02*
X11900Y11875D01*
X10650Y11250D02*
X11275Y11875D01*
G54D54*
X5580Y7500D02*
X5740Y7339D01*
X1900Y7500D02*
X5580Y7500D01*
X5740Y7339D02*
X5900Y7179D01*
X5740Y7339D02*
X5900Y7180D01*
X5740Y7339D02*
X5740Y7339D01*
X5900Y2179D02*
X5899Y2179D01*
X2900Y3500D02*
X1900Y3500D01*
X4220Y2179D02*
X2900Y3500D01*
X5899Y2179D02*
X4220Y2179D01*
X5899Y2179D02*
X5900Y2180D01*
G54D51*
X19750Y750D02*
X19750Y700D01*
X13530Y1440D02*
X12400Y2570D01*
X12400Y4000D02*
X12400Y2570D01*
X34550Y400D02*
X34900Y750D01*
X20050Y400D02*
X34550Y400D01*
X19750Y700D02*
X20050Y400D01*
X35453Y419D02*
X35508Y364D01*
X35453Y750D02*
X35453Y419D01*
X38680Y364D02*
X36120Y364D01*
X36120Y364D02*
X35508Y364D01*
X34900Y750D02*
X35453Y750D01*
G54D55*
X23900Y36040D02*
X23900Y33480D01*
X22400Y31980D02*
X22400Y29500D01*
X23900Y33480D02*
X22400Y31980D01*
X24900Y36040D02*
X24900Y33330D01*
X23400Y31830D02*
X23400Y29500D01*
X24900Y33330D02*
X23400Y31830D01*
X22900Y36040D02*
X22900Y33580D01*
X21400Y32080D02*
X21400Y29500D01*
X22900Y33580D02*
X21400Y32080D01*
X21900Y36040D02*
X21900Y33700D01*
X20400Y32200D02*
X20400Y29500D01*
X21900Y33700D02*
X20400Y32200D01*
X14410Y36040D02*
X14410Y29510D01*
X14410Y29510D02*
X14400Y29500D01*
X15410Y36040D02*
X15410Y29510D01*
X15410Y29510D02*
X15400Y29500D01*
X13410Y36040D02*
X13410Y29510D01*
X13410Y29510D02*
X13400Y29500D01*
X12410Y36040D02*
X12410Y29510D01*
X12410Y29510D02*
X12400Y29500D01*
X14900Y3000D02*
X14900Y1750D01*
X14900Y1750D02*
X15400Y1250D01*
X13900Y3000D02*
X13900Y1750D01*
X13900Y1750D02*
X14400Y1250D01*
X15900Y3000D02*
X15900Y1750D01*
X15900Y1750D02*
X16400Y1250D01*
X16900Y3000D02*
X16900Y1750D01*
X16900Y1750D02*
X17400Y1250D01*
X22900Y3000D02*
X22900Y1250D01*
X21900Y3000D02*
X21900Y1250D01*
X23900Y3000D02*
X23900Y1250D01*
X24900Y3000D02*
X24900Y1250D01*
X30900Y3000D02*
X30900Y1250D01*
X29900Y3000D02*
X29900Y1250D01*
X31900Y3000D02*
X31900Y1250D01*
X32900Y3000D02*
X32900Y1250D01*
G54D51*
X16170Y17414D02*
X16170Y16250D01*
X16069Y17515D02*
X16170Y17414D01*
X15684Y17515D02*
X16069Y17515D01*
X15427Y17772D02*
X15684Y17515D01*
X15427Y18200D02*
X15427Y17772D01*
X15800Y16250D02*
X16170Y16250D01*
X16345Y11452D02*
X16366Y11452D01*
X15096Y12701D02*
X16345Y11452D01*
X15096Y14879D02*
X15096Y12701D01*
X15024Y14951D02*
X15096Y14879D01*
X15024Y15982D02*
X15024Y14951D01*
X15292Y16250D02*
X15024Y15982D01*
X15800Y16250D02*
X15292Y16250D01*
X16330Y17513D02*
X16330Y17519D01*
X16170Y15250D02*
X16330Y15410D01*
X16330Y15410D02*
X16330Y17513D01*
X15742Y17929D02*
X15742Y18200D01*
X15742Y17757D02*
X15742Y17929D01*
X15800Y17700D02*
X15742Y17757D01*
X16150Y17700D02*
X15800Y17700D01*
X16330Y17519D02*
X16150Y17700D01*
X23757Y12209D02*
X22479Y10931D01*
X28248Y12207D02*
X23757Y12209D01*
X16170Y15249D02*
X16170Y15250D01*
X16170Y15249D02*
X16170Y14600D01*
X16170Y14600D02*
X16099Y14529D01*
X16099Y14529D02*
X15534Y14529D01*
X15534Y14529D02*
X15429Y14424D01*
X15429Y14424D02*
X15429Y14100D01*
X15429Y14100D02*
X15530Y14000D01*
X15530Y14000D02*
X16073Y14000D01*
X16073Y14000D02*
X16170Y13903D01*
X16170Y13903D02*
X16170Y13600D01*
X16170Y13600D02*
X16069Y13500D01*
X16069Y13500D02*
X15527Y13500D01*
X15527Y13500D02*
X15429Y13402D01*
X15429Y13402D02*
X15429Y13100D01*
X15429Y13100D02*
X15548Y12981D01*
X15548Y12981D02*
X16179Y12981D01*
X16179Y12981D02*
X16330Y12830D01*
X16330Y12830D02*
X16330Y12307D01*
X16330Y12307D02*
X16981Y11656D01*
X16981Y11656D02*
X19630Y11656D01*
X20355Y10931D02*
X19630Y11656D01*
X22479Y10931D02*
X20355Y10931D01*
X15800Y15250D02*
X16170Y15250D01*
X16400Y17700D02*
X16200Y17900D01*
X16600Y17700D02*
X16400Y17700D01*
X16057Y17943D02*
X16057Y18200D01*
X16100Y17900D02*
X16057Y17943D01*
X16200Y17900D02*
X16100Y17900D01*
X16600Y17700D02*
X16600Y14679D01*
X16600Y14679D02*
X16170Y14250D01*
X31573Y8499D02*
X32010Y8499D01*
X32010Y8499D02*
X32400Y8109D01*
X32400Y8109D02*
X32400Y7877D01*
X32400Y7877D02*
X32707Y7570D01*
X32707Y7570D02*
X34470Y7570D01*
X34470Y7570D02*
X34900Y8000D01*
X15800Y14250D02*
X16170Y14250D01*
G54D50*
X17398Y5338D02*
X17398Y4002D01*
X17398Y4002D02*
X17400Y4000D01*
G54D51*
X22750Y17100D02*
X22800Y17100D01*
X21110Y22300D02*
X22400Y21010D01*
X16310Y23670D02*
X16560Y23420D01*
X16560Y23420D02*
X16560Y22600D01*
X16560Y22600D02*
X16860Y22300D01*
X22400Y19330D02*
X22400Y21010D01*
X20550Y22300D02*
X18400Y22300D01*
X16860Y22300D02*
X18400Y22300D01*
X20550Y22300D02*
X20850Y22300D01*
X20850Y22300D02*
X21110Y22300D01*
X8800Y23430D02*
X8800Y23000D01*
X9040Y23670D02*
X8800Y23430D01*
X16080Y23670D02*
X9040Y23670D01*
X16080Y23670D02*
X16310Y23670D01*
X22760Y15150D02*
X21350Y15150D01*
X22375Y14250D02*
X22750Y13875D01*
X21300Y14250D02*
X22375Y14250D01*
X21200Y14350D02*
X21300Y14250D01*
X21200Y15000D02*
X21200Y14350D01*
X21350Y15150D02*
X21200Y15000D01*
X21900Y18750D02*
X22300Y18750D01*
X21900Y18750D02*
X21500Y18750D01*
X21500Y18750D02*
X21250Y18500D01*
X21250Y18500D02*
X21250Y18150D01*
X21250Y18150D02*
X21400Y18000D01*
X21400Y18000D02*
X22375Y18000D01*
X22750Y17625D02*
X22375Y18000D01*
X22400Y18850D02*
X22400Y19330D01*
X22300Y18750D02*
X22400Y18850D01*
X22400Y19330D02*
X22400Y19250D01*
X22750Y13875D02*
X22750Y13125D01*
X22750Y17100D02*
X22750Y16625D01*
X22750Y17625D02*
X22750Y17100D01*
X22775Y13100D02*
X22750Y13125D01*
X9735Y26251D02*
X9735Y25765D01*
X10650Y31025D02*
X10550Y31025D01*
X9525Y29975D02*
X9525Y30000D01*
X9735Y26251D02*
X9735Y28575D01*
X9735Y28575D02*
X9525Y28785D01*
X9525Y28785D02*
X9525Y29975D01*
X9525Y30000D02*
X10025Y30500D01*
X10025Y30500D02*
X10550Y31025D01*
X10400Y25550D02*
X9950Y25550D01*
X9735Y25765D02*
X9950Y25550D01*
X9050Y34250D02*
X9550Y34250D01*
X10250Y33550D02*
X9550Y34250D01*
X11097Y31025D02*
X11100Y31028D01*
X10650Y31025D02*
X11097Y31025D01*
X8775Y27500D02*
X8775Y28525D01*
X8775Y28525D02*
X8950Y28700D01*
X8950Y30600D02*
X9550Y31200D01*
X9550Y31200D02*
X9550Y33625D01*
X9550Y33625D02*
X9425Y33750D01*
X9050Y33750D02*
X9425Y33750D01*
X8950Y28700D02*
X8950Y29975D01*
X8950Y29975D02*
X8950Y30600D01*
X8250Y32172D02*
X8250Y33125D01*
X8875Y33750D02*
X9050Y33750D01*
X8250Y33125D02*
X8875Y33750D01*
X9325Y30075D02*
X9325Y30325D01*
X9325Y29975D02*
X9325Y30075D01*
X9325Y28751D02*
X9325Y29975D01*
X9325Y30325D02*
X10350Y31350D01*
X9568Y25482D02*
X9500Y25550D01*
X9568Y25482D02*
X9800Y25250D01*
X10650Y25250D02*
X9800Y25250D01*
X9322Y28751D02*
X9325Y28751D01*
X9500Y28574D02*
X9322Y28751D01*
X9500Y25550D02*
X9500Y28574D01*
X9325Y28754D02*
X9325Y28751D01*
X10500Y32950D02*
X10450Y32950D01*
X10450Y32950D02*
X10350Y32850D01*
X10350Y32850D02*
X10350Y31950D01*
X10550Y32950D02*
X10500Y32950D01*
X11550Y33750D02*
X11650Y33650D01*
X11650Y33650D02*
X11650Y33000D01*
X11650Y33000D02*
X11600Y32950D01*
X11600Y32950D02*
X10550Y32950D01*
X11150Y33750D02*
X11550Y33750D01*
X10350Y31350D02*
X10343Y31343D01*
X11100Y31343D02*
X10343Y31343D01*
X10250Y31657D02*
X10250Y31650D01*
X9150Y30550D02*
X9900Y31300D01*
X9300Y28548D02*
X9300Y25754D01*
X9300Y28548D02*
X9150Y28698D01*
X9150Y28698D02*
X9150Y29975D01*
X9150Y29975D02*
X9150Y30550D01*
X10250Y31650D02*
X9900Y31300D01*
X10250Y31657D02*
X10657Y31657D01*
X10900Y24950D02*
X9800Y24950D01*
X9800Y24950D02*
X9450Y25300D01*
X9450Y25300D02*
X9300Y25450D01*
X9300Y25450D02*
X9300Y25754D01*
X9300Y25754D02*
X9300Y25754D01*
X10750Y34450D02*
X10750Y34050D01*
X10657Y31657D02*
X10657Y32657D01*
X10750Y34050D02*
X10800Y34000D01*
X10800Y34000D02*
X11600Y34000D01*
X11600Y34000D02*
X11850Y33750D01*
X11850Y33750D02*
X11850Y32850D01*
X11850Y32850D02*
X11750Y32750D01*
X11750Y32750D02*
X10750Y32750D01*
X10750Y32750D02*
X10657Y32657D01*
X11150Y35250D02*
X11600Y35250D01*
X10800Y34500D02*
X10750Y34450D01*
X11600Y34500D02*
X10800Y34500D01*
X11650Y34550D02*
X11600Y34500D01*
X11650Y35200D02*
X11650Y34550D01*
X11600Y35250D02*
X11650Y35200D01*
X11100Y31657D02*
X10657Y31657D01*
X14300Y21100D02*
X14300Y21600D01*
X14300Y21600D02*
X13649Y22251D01*
X10800Y23000D02*
X10800Y22468D01*
X10800Y22468D02*
X11017Y22251D01*
X11017Y22251D02*
X13649Y22251D01*
X9906Y26394D02*
X9906Y25944D01*
X9906Y26394D02*
X9906Y26436D01*
X9906Y28648D02*
X9901Y28648D01*
X22450Y25175D02*
X11625Y25175D01*
X9906Y26436D02*
X9906Y28648D01*
X11328Y31972D02*
X11100Y31972D01*
X11400Y31900D02*
X11328Y31972D01*
X11400Y30550D02*
X11400Y31900D01*
X11175Y30325D02*
X11400Y30550D01*
X10125Y30325D02*
X11175Y30325D01*
X9725Y29925D02*
X10125Y30325D01*
X9725Y28825D02*
X9725Y29925D01*
X9901Y28648D02*
X9725Y28825D01*
X11625Y25175D02*
X11125Y25175D01*
X10500Y25800D02*
X11125Y25175D01*
X10050Y25800D02*
X10500Y25800D01*
X9906Y25944D02*
X10050Y25800D01*
X11100Y31972D02*
X11100Y32350D01*
X10050Y35750D02*
X10350Y35450D01*
X10350Y35450D02*
X10350Y34750D01*
X10050Y35750D02*
X9050Y35750D01*
X38400Y21000D02*
X37400Y22000D01*
X37400Y21000D02*
X38400Y20000D01*
X38400Y19000D02*
X37400Y20000D01*
X38400Y18000D02*
X37400Y19000D01*
X38400Y17000D02*
X37400Y18000D01*
X37143Y15486D02*
X36073Y15486D01*
X37833Y14646D02*
X37960Y14520D01*
X37960Y14520D02*
X38700Y14520D01*
X38700Y14520D02*
X38990Y14230D01*
X38990Y14230D02*
X38990Y8690D01*
X38990Y8690D02*
X38400Y8100D01*
X38400Y8000D02*
X38400Y8100D01*
X37511Y15486D02*
X37833Y15165D01*
X37143Y15486D02*
X37511Y15486D01*
X37833Y15165D02*
X37833Y14646D01*
X35880Y16480D02*
X36400Y17000D01*
X35880Y15680D02*
X35880Y16480D01*
X36073Y15486D02*
X35880Y15680D01*
X34208Y19317D02*
X34608Y19717D01*
X30033Y19317D02*
X34208Y19317D01*
X29353Y19997D02*
X30033Y19317D01*
X24702Y19997D02*
X29353Y19997D01*
X22900Y21800D02*
X24702Y19997D01*
X22900Y23305D02*
X22900Y21800D01*
X21900Y24305D02*
X22900Y23305D01*
X21900Y24620D02*
X21900Y24305D01*
X21539Y24981D02*
X21900Y24620D01*
X16881Y24981D02*
X21539Y24981D01*
X16400Y24500D02*
X16881Y24981D01*
X38400Y16000D02*
X37400Y17000D01*
X38400Y15000D02*
X37400Y16000D01*
X38400Y14000D02*
X38050Y14000D01*
X37400Y14650D02*
X37400Y15000D01*
X38050Y14000D02*
X37400Y14650D01*
X38400Y13000D02*
X37400Y14000D01*
X15800Y12750D02*
X16170Y12750D01*
X36900Y13500D02*
X37400Y14000D01*
X35859Y13500D02*
X36900Y13500D01*
X34699Y12339D02*
X35859Y13500D01*
X23714Y11930D02*
X31439Y11930D01*
X31439Y11930D02*
X31849Y12339D01*
X31849Y12339D02*
X34699Y12339D01*
X22555Y10771D02*
X23714Y11930D01*
X20282Y10771D02*
X22555Y10771D01*
X19570Y11483D02*
X20282Y10771D01*
X16925Y11483D02*
X19570Y11483D01*
X16170Y12238D02*
X16925Y11483D01*
X16170Y12750D02*
X16170Y12238D01*
X38400Y12000D02*
X37400Y13000D01*
X26400Y22214D02*
X26235Y22214D01*
X24600Y24000D02*
X24400Y24200D01*
X25550Y24000D02*
X24600Y24000D01*
X25850Y23700D02*
X25550Y24000D01*
X25850Y22600D02*
X25850Y23700D01*
X26235Y22214D02*
X25850Y22600D01*
X24400Y24200D02*
X24400Y24500D01*
X32840Y19860D02*
X32410Y19760D01*
X32410Y19760D02*
X30665Y19760D01*
X30665Y19760D02*
X30303Y20122D01*
X24400Y24200D02*
X24400Y24500D01*
X27036Y22214D02*
X26400Y22214D01*
X26400Y22214D02*
X26385Y22214D01*
X27400Y21850D02*
X27036Y22214D01*
X27400Y21655D02*
X27400Y21850D01*
X27802Y21253D02*
X27400Y21655D01*
X29172Y21253D02*
X27802Y21253D01*
X30303Y20122D02*
X29172Y21253D01*
X38400Y11000D02*
X37400Y12000D01*
X38400Y10000D02*
X37400Y11000D01*
X15800Y13750D02*
X15429Y13750D01*
X36820Y11579D02*
X37400Y11000D01*
X36820Y12174D02*
X36820Y11579D01*
X36555Y12438D02*
X36820Y12174D01*
X35851Y12438D02*
X36555Y12438D01*
X35392Y11979D02*
X35851Y12438D01*
X32309Y11979D02*
X35392Y11979D01*
X32098Y11768D02*
X32309Y11979D01*
X23802Y11768D02*
X32098Y11768D01*
X22614Y10579D02*
X23802Y11768D01*
X20229Y10579D02*
X22614Y10579D01*
X19486Y11322D02*
X20229Y10579D01*
X16847Y11322D02*
X19486Y11322D01*
X16061Y12108D02*
X16847Y11322D01*
X15921Y12108D02*
X16061Y12108D01*
X15269Y12759D02*
X15921Y12108D01*
X15269Y13589D02*
X15269Y12759D01*
X15429Y13750D02*
X15269Y13589D01*
X22185Y22184D02*
X24684Y19686D01*
X24684Y19686D02*
X29250Y19700D01*
X22200Y22200D02*
X22185Y22184D01*
X38400Y9000D02*
X37400Y10000D01*
X17191Y20549D02*
X17191Y20659D01*
X17191Y20659D02*
X17150Y20700D01*
X17191Y20216D02*
X17191Y20549D01*
X15292Y14886D02*
X15429Y14750D01*
X15292Y15527D02*
X15292Y14886D01*
X15800Y14750D02*
X15429Y14750D01*
X10900Y17902D02*
X9070Y17902D01*
X10907Y17909D02*
X10900Y17902D01*
X12000Y15250D02*
X11669Y15250D01*
X12307Y18200D02*
X12307Y17929D01*
X11538Y15381D02*
X11539Y17000D01*
X11669Y15250D02*
X11538Y15381D01*
X12152Y17929D02*
X12307Y17929D01*
X11538Y17315D02*
X12152Y17929D01*
X11539Y17000D02*
X11538Y17315D01*
X15336Y19452D02*
X15336Y19636D01*
X15336Y19636D02*
X15973Y20273D01*
X15975Y20216D02*
X15850Y20216D01*
X15800Y15750D02*
X15429Y15750D01*
X15429Y15839D02*
X15429Y15750D01*
X15337Y15931D02*
X15429Y15839D01*
X8776Y20909D02*
X8741Y20909D01*
X8525Y21125D02*
X8525Y21500D01*
X8741Y20909D02*
X8525Y21125D01*
X12622Y18200D02*
X12622Y17865D01*
X12000Y16250D02*
X12458Y16250D01*
X12622Y17865D02*
X12458Y17702D01*
G54D50*
X14400Y4000D02*
X14400Y4750D01*
X14400Y4750D02*
X13900Y5250D01*
G54D51*
X13086Y13750D02*
X12000Y13750D01*
X15998Y10837D02*
X13086Y13750D01*
X19288Y10837D02*
X15998Y10837D01*
X20089Y10036D02*
X19288Y10837D01*
X22852Y10036D02*
X20089Y10036D01*
X24104Y11287D02*
X22852Y10036D01*
X35389Y11287D02*
X24104Y11287D01*
X35451Y11225D02*
X35389Y11287D01*
X35713Y11225D02*
X35451Y11225D01*
X36400Y11912D02*
X35713Y11225D01*
X36400Y12000D02*
X36400Y11912D01*
X32400Y24300D02*
X32400Y24500D01*
X31820Y23720D02*
X32400Y24300D01*
X32344Y12169D02*
X35135Y12169D01*
X35135Y12169D02*
X35966Y13000D01*
X36400Y13000D02*
X35966Y13000D01*
X31098Y10537D02*
X30004Y10537D01*
X31207Y10645D02*
X31098Y10537D01*
X31487Y10645D02*
X31207Y10645D01*
X30004Y10537D02*
X29900Y10433D01*
X32029Y12169D02*
X32344Y12169D01*
X31910Y12050D02*
X32029Y12169D01*
G54D50*
X15400Y8900D02*
X15400Y8890D01*
X13900Y6250D02*
X13900Y6580D01*
X15400Y7550D02*
X15400Y8890D01*
X15200Y7350D02*
X15400Y7550D01*
X14670Y7350D02*
X15200Y7350D01*
X13900Y6580D02*
X14670Y7350D01*
X29850Y18000D02*
X29150Y17300D01*
X29150Y17300D02*
X29150Y16650D01*
X29150Y16650D02*
X28100Y15600D01*
X31250Y18000D02*
X33400Y18000D01*
X31250Y18000D02*
X29850Y18000D01*
X27940Y15440D02*
X28100Y15600D01*
X26880Y15440D02*
X27940Y15440D01*
X26850Y15440D02*
X26880Y15440D01*
X20500Y11340D02*
X22510Y11340D01*
X20440Y11280D02*
X20500Y11340D01*
X12900Y1250D02*
X12900Y1290D01*
X11380Y2810D02*
X11380Y3140D01*
X12900Y1290D02*
X11380Y2810D01*
X11890Y4120D02*
X11890Y4590D01*
X11890Y4590D02*
X12550Y5250D01*
X12550Y5250D02*
X12900Y5250D01*
X11890Y3610D02*
X11890Y4120D01*
X11700Y3420D02*
X11890Y3610D01*
X11660Y3420D02*
X11700Y3420D01*
X11580Y3340D02*
X11660Y3420D01*
X11380Y3140D02*
X11580Y3340D01*
X12900Y1250D02*
X12870Y1250D01*
X15275Y36625D02*
X11150Y36625D01*
X15400Y36750D02*
X15275Y36625D01*
X7300Y23700D02*
X7300Y23975D01*
X9000Y21240D02*
X9141Y21099D01*
X10267Y19973D02*
X9141Y21099D01*
X10267Y19610D02*
X10267Y19973D01*
X7300Y22400D02*
X7300Y23700D01*
X7580Y22120D02*
X7300Y22400D01*
X8710Y22120D02*
X7580Y22120D01*
X9000Y21830D02*
X8710Y22120D01*
X9000Y21350D02*
X9000Y21830D01*
X9000Y21350D02*
X9000Y21240D01*
X7300Y23975D02*
X7025Y24250D01*
X11150Y36625D02*
X11150Y36650D01*
X8439Y36914D02*
X8150Y36625D01*
X10885Y36914D02*
X8439Y36914D01*
X11150Y36650D02*
X10885Y36914D01*
G54D51*
X16372Y18800D02*
X16372Y19072D01*
X16500Y20725D02*
X16900Y21125D01*
X16500Y19200D02*
X16500Y20725D01*
X16372Y19072D02*
X16500Y19200D01*
G54D50*
X11300Y18800D02*
X11678Y18800D01*
X13375Y18125D02*
X13300Y18050D01*
X14150Y18125D02*
X13375Y18125D01*
X17000Y16750D02*
X17090Y16840D01*
X17090Y18380D02*
X17090Y18460D01*
X17090Y16840D02*
X17090Y18380D01*
X16750Y18800D02*
X16372Y18800D01*
X17000Y12580D02*
X17000Y12700D01*
X17000Y12700D02*
X17000Y13670D01*
X17000Y12580D02*
X17000Y12460D01*
X17000Y13670D02*
X17000Y16750D01*
X17090Y18460D02*
X16750Y18800D01*
X37460Y28300D02*
X37250Y28300D01*
X36790Y29160D02*
X36790Y29850D01*
X36790Y29850D02*
X36570Y30070D01*
X37890Y26730D02*
X37890Y28040D01*
X32150Y20450D02*
X34030Y20450D01*
X34290Y20710D02*
X34030Y20450D01*
X35920Y22480D02*
X34510Y21070D01*
X34510Y21070D02*
X34510Y20930D01*
X34510Y20930D02*
X34290Y20710D01*
X36590Y23890D02*
X37490Y23890D01*
X35920Y23220D02*
X35925Y23225D01*
X35925Y23225D02*
X36590Y23890D01*
X37490Y23890D02*
X37890Y24290D01*
X37890Y24290D02*
X37890Y26730D01*
X35920Y23220D02*
X35920Y22480D01*
X37630Y28300D02*
X37460Y28300D01*
X37890Y28040D02*
X37630Y28300D01*
X36790Y28760D02*
X36790Y29160D01*
X37250Y28300D02*
X36790Y28760D01*
X32150Y20450D02*
X31670Y20450D01*
X31670Y20450D02*
X31370Y20750D01*
X30900Y20750D02*
X31370Y20750D01*
G54D51*
X5850Y27150D02*
X5073Y27150D01*
X5073Y27150D02*
X4823Y26900D01*
X4823Y26900D02*
X4290Y26900D01*
G54D50*
X4290Y26900D02*
X3590Y27600D01*
X3590Y27600D02*
X3150Y27600D01*
X3150Y27600D02*
X2450Y28300D01*
X2450Y28300D02*
X1150Y28300D01*
X1150Y28300D02*
X875Y28575D01*
X875Y33991D02*
X875Y28575D01*
X875Y34125D02*
X1450Y34700D01*
X1450Y34700D02*
X2650Y34700D01*
X2650Y34700D02*
X2900Y34950D01*
X2900Y34950D02*
X7550Y34950D01*
X7550Y34950D02*
X7650Y35050D01*
X7650Y35050D02*
X7650Y36400D01*
X7650Y36400D02*
X7875Y36625D01*
X7875Y36625D02*
X8150Y36625D01*
X875Y33991D02*
X875Y34125D01*
G54D51*
X6175Y27550D02*
X6175Y27475D01*
X5850Y27150D02*
X6175Y27475D01*
G54D50*
X11150Y36625D02*
X11150Y36250D01*
X14150Y18125D02*
X14554Y18125D01*
X18951Y35808D02*
X19951Y35808D01*
X17951Y35808D02*
X18951Y35808D01*
X16951Y35808D02*
X17951Y35808D01*
X35367Y32811D02*
X35367Y31811D01*
X35367Y33811D02*
X35367Y32811D01*
X35367Y34811D02*
X35367Y33811D01*
X35367Y35811D02*
X35367Y34811D01*
X35367Y36811D02*
X35367Y35811D01*
X10268Y18794D02*
X9071Y18794D01*
G54D51*
X9071Y18794D02*
X9070Y18795D01*
G54D50*
X10267Y18795D02*
X10267Y19610D01*
G54D51*
X10268Y18794D02*
X10267Y18795D01*
G54D50*
X35367Y36811D02*
X21458Y36811D01*
X20455Y35808D02*
X18951Y35808D01*
X21458Y36811D02*
X20455Y35808D01*
X14554Y18125D02*
X15429Y17250D01*
X15800Y17250D02*
X15429Y17250D01*
X12004Y18796D02*
X11677Y18797D01*
X15228Y18798D02*
X15434Y18798D01*
X15434Y18798D02*
X15734Y18798D01*
X15734Y18798D02*
X16058Y18798D01*
X16058Y18798D02*
X16372Y18798D01*
X14554Y18125D02*
X15228Y18798D01*
G54D51*
X16057Y18800D02*
X16057Y18732D01*
X11992Y18800D02*
X11992Y18791D01*
X11992Y18791D02*
X11992Y18783D01*
X11686Y18791D02*
X11677Y18800D01*
X11992Y18783D02*
X12006Y18770D01*
X8547Y31802D02*
X8547Y30522D01*
X8547Y31802D02*
X8493Y31857D01*
X8250Y31857D02*
X8493Y31857D01*
X8547Y30522D02*
X8525Y30500D01*
X10250Y33250D02*
X10000Y33250D01*
X8093Y31857D02*
X7950Y32000D01*
X7950Y32000D02*
X7950Y33175D01*
X7950Y33175D02*
X8775Y34000D01*
X8775Y34000D02*
X8825Y34000D01*
X11150Y33250D02*
X10250Y33250D01*
X9500Y34000D02*
X8825Y34000D01*
X8093Y31857D02*
X8250Y31857D01*
X9750Y33750D02*
X9500Y34000D01*
X9750Y33500D02*
X9750Y33750D01*
X10000Y33250D02*
X9750Y33500D01*
X7750Y31800D02*
X7750Y31600D01*
X7750Y31800D02*
X7750Y33250D01*
X7750Y33250D02*
X8625Y34125D01*
X8625Y34125D02*
X8625Y34450D01*
X10700Y34750D02*
X10450Y34500D01*
X11150Y34750D02*
X10700Y34750D01*
X8675Y34500D02*
X8625Y34450D01*
X10450Y34500D02*
X8675Y34500D01*
X7750Y31600D02*
X7700Y31550D01*
X8007Y31543D02*
X7693Y31543D01*
X8250Y31543D02*
X8007Y31543D01*
X7693Y31543D02*
X7700Y31550D01*
X7025Y30875D02*
X7025Y30500D01*
X7700Y31550D02*
X7025Y30875D01*
X7550Y32025D02*
X7550Y31750D01*
X7550Y34550D02*
X8125Y35125D01*
X8150Y35125D02*
X8125Y35125D01*
X7550Y32025D02*
X7550Y33425D01*
X7550Y33425D02*
X7550Y33650D01*
X7728Y31228D02*
X8250Y31228D01*
X7400Y30900D02*
X7728Y31228D01*
X7400Y30150D02*
X7400Y30900D01*
X7350Y30100D02*
X7400Y30150D01*
X7300Y30050D02*
X7350Y30100D01*
X6700Y30050D02*
X7300Y30050D01*
X6650Y30100D02*
X6700Y30050D01*
X6650Y30850D02*
X6650Y30100D01*
X6925Y31125D02*
X6750Y30950D01*
X6650Y30850D02*
X6750Y30950D01*
X7550Y31750D02*
X6925Y31125D01*
X9050Y35250D02*
X8275Y35250D01*
X8275Y35250D02*
X8150Y35125D01*
G54D50*
X11900Y6250D02*
X11900Y5030D01*
X11400Y4530D02*
X11400Y4000D01*
X11900Y5030D02*
X11400Y4530D01*
G54D51*
X26190Y14500D02*
X24900Y14500D01*
X27700Y14500D02*
X29500Y16300D01*
X29500Y16300D02*
X29700Y16500D01*
X33400Y17000D02*
X32769Y17000D01*
X32271Y16502D02*
X32769Y17000D01*
X29700Y16500D02*
X32271Y16502D01*
X26190Y14500D02*
X27700Y14500D01*
X24900Y14500D02*
X24400Y15000D01*
X25400Y14000D02*
X27800Y14000D01*
X33895Y16495D02*
X34400Y17000D01*
X33013Y16495D02*
X33895Y16495D01*
X32019Y15501D02*
X33013Y16495D01*
X29301Y15501D02*
X32019Y15501D01*
X27800Y14000D02*
X29301Y15501D01*
G54D50*
X10650Y10250D02*
X11650Y10250D01*
X11900Y10500D02*
X11900Y11125D01*
X11650Y10250D02*
X11900Y10500D01*
G54D54*
X10650Y10250D02*
X9900Y11000D01*
X10233Y12083D02*
X10233Y13500D01*
X9900Y11750D02*
X10233Y12083D01*
X9900Y11000D02*
X9900Y11750D01*
G54D51*
X9550Y36600D02*
X10400Y36600D01*
X8150Y35900D02*
X8600Y36350D01*
X8600Y36350D02*
X8600Y36550D01*
X8600Y36550D02*
X8650Y36600D01*
X8650Y36600D02*
X9550Y36600D01*
X8150Y35875D02*
X8150Y35900D01*
X10400Y36600D02*
X10500Y36500D01*
X9800Y23000D02*
X9800Y22025D01*
X9800Y22025D02*
X9525Y21750D01*
X17900Y21125D02*
X17905Y20195D01*
G54D50*
X19000Y19100D02*
X19000Y18650D01*
X19000Y18650D02*
X19000Y18375D01*
G54D51*
X17905Y20195D02*
X19000Y19100D01*
X15050Y19170D02*
X15933Y19170D01*
X15975Y19211D02*
X15975Y19466D01*
X15933Y19170D02*
X15975Y19211D01*
X15050Y19170D02*
X15050Y19800D01*
X15300Y20800D02*
X15000Y21100D01*
X15300Y20050D02*
X15300Y20800D01*
X15050Y19800D02*
X15300Y20050D01*
G54D50*
X13460Y11870D02*
X12650Y11875D01*
G54D54*
X7991Y9417D02*
X8809Y9417D01*
X8809Y9417D02*
X9020Y9206D01*
X9020Y9206D02*
X9020Y8680D01*
X20750Y28550D02*
X20750Y27517D01*
X20750Y27517D02*
X20733Y27500D01*
X23567Y27500D02*
X23567Y28417D01*
X23650Y28500D02*
X24592Y28500D01*
X23567Y28417D02*
X23650Y28500D01*
G54D50*
X32014Y33236D02*
X30695Y33236D01*
G54D54*
X30695Y33236D02*
X27400Y29941D01*
G54D50*
X33400Y33236D02*
X32014Y33236D01*
X31978Y33272D02*
X31978Y33549D01*
X32014Y33236D02*
X31978Y33272D01*
G54D54*
X17386Y14875D02*
X17385Y14875D01*
G54D51*
X17386Y18968D02*
X17386Y18514D01*
X18000Y18375D02*
X17525Y18375D01*
X17386Y18968D02*
X17386Y18968D01*
X17386Y18514D02*
X17525Y18375D01*
G54D50*
X17385Y14875D02*
X17385Y14625D01*
X17385Y14625D02*
X17320Y14560D01*
X17320Y14560D02*
X17320Y13358D01*
X17320Y13358D02*
X17386Y13292D01*
X17386Y16616D02*
X17395Y16625D01*
X17385Y14875D02*
X17385Y15234D01*
X17385Y15234D02*
X17290Y15330D01*
X17290Y15330D02*
X17290Y16520D01*
X17290Y16520D02*
X17395Y16625D01*
X18000Y14875D02*
X17386Y14875D01*
G54D54*
X30870Y6000D02*
X30870Y6430D01*
X30870Y6430D02*
X31202Y6762D01*
X31202Y6762D02*
X33396Y6762D01*
G54D50*
X11700Y31657D02*
X11700Y31972D01*
X28900Y18200D02*
X29550Y18850D01*
X29550Y18850D02*
X30550Y18850D01*
G54D51*
X8275Y36000D02*
X8150Y35875D01*
G54D50*
X8850Y32650D02*
X8900Y32650D01*
X8850Y32172D02*
X8850Y32650D01*
X9050Y32800D02*
X9050Y33250D01*
X8900Y32650D02*
X9050Y32800D01*
X11700Y32375D02*
X11700Y31657D01*
X11675Y32400D02*
X11700Y32375D01*
X11700Y31657D02*
X11700Y31343D01*
X11700Y31343D02*
X11700Y31028D01*
X25900Y21125D02*
X25900Y20600D01*
X28825Y18125D02*
X28000Y18125D01*
X28900Y18200D02*
X28825Y18125D01*
X28000Y18125D02*
X27183Y18125D01*
X27183Y18500D02*
X27183Y18125D01*
X27183Y18125D02*
X27183Y16974D01*
X27183Y16974D02*
X26959Y16750D01*
X18000Y16625D02*
X17395Y16625D01*
X17395Y16625D02*
X17386Y16625D01*
X18000Y13125D02*
X17553Y13125D01*
X17553Y13125D02*
X17386Y13292D01*
X18000Y13125D02*
X19000Y13125D01*
X19000Y13125D02*
X19058Y13183D01*
X19058Y13183D02*
X19750Y13183D01*
X19750Y14933D02*
X19058Y14933D01*
X19058Y14933D02*
X19000Y14875D01*
X19000Y14875D02*
X18000Y14875D01*
X19750Y16683D02*
X19058Y16683D01*
X19058Y16683D02*
X19000Y16625D01*
X19000Y16625D02*
X18000Y16625D01*
X19000Y18375D02*
X18000Y18375D01*
X19750Y18433D02*
X19058Y18433D01*
X19058Y18433D02*
X19000Y18375D01*
X25400Y13000D02*
X25399Y13000D01*
X29097Y28095D02*
X29400Y28095D01*
X29400Y27750D02*
X29400Y28095D01*
G54D51*
X26802Y10375D02*
X27083Y10375D01*
X27835Y9623D02*
X27994Y9623D01*
X27083Y10375D02*
X27835Y9623D01*
X35300Y10325D02*
X35300Y10661D01*
X26802Y10767D02*
X26802Y10375D01*
X27002Y10967D02*
X26802Y10767D01*
X34994Y10967D02*
X27002Y10967D01*
X35300Y10661D02*
X34994Y10967D01*
G54D50*
X16400Y4000D02*
X16400Y4182D01*
G54D54*
X18019Y6281D02*
X18018Y6281D01*
X25400Y29500D02*
X25400Y29308D01*
X25400Y29308D02*
X24592Y28500D01*
X24592Y28500D02*
X24580Y28488D01*
G54D50*
X12307Y18800D02*
X12307Y19537D01*
X12307Y19537D02*
X12648Y19878D01*
G54D51*
X14150Y19170D02*
X13355Y19170D01*
G54D50*
X8850Y31857D02*
X8850Y32172D01*
X8850Y31543D02*
X8850Y31857D01*
X8850Y31228D02*
X8850Y31543D01*
G54D51*
X17191Y19466D02*
X17191Y19185D01*
X17191Y19185D02*
X17205Y19170D01*
X17386Y18968D02*
X17386Y18967D01*
X17386Y18967D02*
X17386Y18990D01*
X17386Y18990D02*
X17205Y19170D01*
G54D50*
X12307Y18800D02*
X12622Y18800D01*
G54D51*
X31978Y33549D02*
X31978Y33377D01*
G54D50*
X33250Y32210D02*
X33250Y33086D01*
X33250Y33086D02*
X33400Y33236D01*
X33750Y32210D02*
X34250Y32210D01*
X33250Y32210D02*
X33750Y32210D01*
X32750Y32210D02*
X33250Y32210D01*
X33250Y34310D02*
X33250Y33386D01*
X33250Y33386D02*
X33400Y33236D01*
X32065Y35850D02*
X32065Y35365D01*
X32065Y35365D02*
X32430Y35000D01*
X32430Y35000D02*
X33070Y35000D01*
X33070Y35000D02*
X33250Y34820D01*
X33250Y34820D02*
X33250Y34310D01*
G54D54*
X25400Y29500D02*
X25400Y29955D01*
X26923Y30418D02*
X27400Y29941D01*
X25863Y30418D02*
X26923Y30418D01*
X25400Y29955D02*
X25863Y30418D01*
X27400Y29941D02*
X27400Y29500D01*
X33400Y33236D02*
X33403Y33236D01*
X7000Y32618D02*
X7002Y32618D01*
X11400Y29500D02*
X11400Y29078D01*
X13914Y28151D02*
X13914Y27500D01*
X13506Y28560D02*
X13914Y28151D01*
X11918Y28560D02*
X13506Y28560D01*
X11400Y29078D02*
X11918Y28560D01*
X6550Y32100D02*
X6550Y32162D01*
X7002Y32614D02*
X7002Y32618D01*
X6550Y32162D02*
X7002Y32614D01*
X20732Y28532D02*
X20750Y28550D01*
X17900Y3000D02*
X17959Y3059D01*
X17959Y3059D02*
X18018Y3118D01*
X18018Y3118D02*
X18018Y4763D01*
X18018Y4763D02*
X18018Y6281D01*
X18018Y6281D02*
X18018Y6283D01*
X18018Y6283D02*
X18365Y6631D01*
X18365Y6631D02*
X18365Y6620D01*
G54D50*
X33275Y28750D02*
X33275Y29145D01*
X33400Y29500D02*
X33400Y29270D01*
X33400Y29270D02*
X33275Y29145D01*
X12000Y12750D02*
X12370Y12750D01*
X12370Y12750D02*
X12651Y12466D01*
X12651Y12466D02*
X12650Y11875D01*
G54D51*
X18900Y10375D02*
X19295Y10375D01*
X14150Y18875D02*
X14150Y19170D01*
X15050Y19170D02*
X14150Y19170D01*
G54D50*
X30405Y13505D02*
X29900Y13000D01*
X33400Y15000D02*
X32874Y15000D01*
X32874Y15000D02*
X31379Y13505D01*
X31379Y13505D02*
X30405Y13505D01*
G54D51*
X23881Y10576D02*
X25400Y10576D01*
X22979Y9675D02*
X23881Y10576D01*
X19994Y9675D02*
X22979Y9675D01*
X19295Y10375D02*
X19994Y9675D01*
X26302Y10576D02*
X26504Y10375D01*
X26793Y10375D02*
X26802Y10375D01*
X26793Y10375D02*
X26504Y10375D01*
X25400Y10576D02*
X26302Y10576D01*
G54D50*
X29900Y13000D02*
X25400Y13000D01*
G54D51*
X35484Y10029D02*
X35300Y10029D01*
X35300Y10325D02*
X35300Y10029D01*
X38400Y7000D02*
X38400Y7420D01*
X38400Y7420D02*
X37369Y7420D01*
X37369Y7420D02*
X36820Y7969D01*
X36820Y7969D02*
X36820Y8174D01*
X36820Y8174D02*
X36494Y8500D01*
X36494Y8500D02*
X36275Y8500D01*
X36275Y8500D02*
X35754Y9020D01*
X35754Y9020D02*
X35754Y9759D01*
X35754Y9759D02*
X35484Y10029D01*
X26802Y10375D02*
X26814Y10375D01*
X26860Y10421D02*
X26860Y10421D01*
X26814Y10375D02*
X26860Y10421D01*
G54D54*
X25317Y6000D02*
X25317Y6620D01*
X32317Y6000D02*
X30870Y6000D01*
X25317Y6000D02*
X21482Y6000D01*
X21482Y6000D02*
X20982Y6620D01*
X19400Y29500D02*
X19400Y29453D01*
X20982Y6620D02*
X18365Y6620D01*
X28950Y6000D02*
X30870Y6000D01*
X28330Y6620D02*
X28950Y6000D01*
X25317Y6620D02*
X28330Y6620D01*
X11472Y29500D02*
X11400Y29500D01*
X7002Y32618D02*
X7002Y33380D01*
G54D51*
X17900Y8000D02*
X17900Y9000D01*
X18504Y9604D02*
X18504Y9625D01*
X17900Y9000D02*
X18504Y9604D01*
X18900Y9625D02*
X18504Y9625D01*
X16900Y9000D02*
X16900Y8000D01*
X26504Y9604D02*
X26504Y9625D01*
X25900Y9000D02*
X26504Y9604D01*
X26802Y9625D02*
X26504Y9625D01*
X15900Y9000D02*
X15900Y8000D01*
X30900Y28095D02*
X30900Y28320D01*
X29960Y28803D02*
X30129Y28803D01*
X30900Y28095D02*
X30900Y27750D01*
X30900Y28320D02*
X30920Y28340D01*
X37367Y35811D02*
X37367Y35715D01*
X29960Y29769D02*
X29960Y28803D01*
X30209Y30018D02*
X29960Y29769D01*
X30920Y30018D02*
X30209Y30018D01*
X31766Y30864D02*
X30920Y30018D01*
X35717Y30864D02*
X31766Y30864D01*
X36156Y31303D02*
X35717Y30864D01*
X36156Y34504D02*
X36156Y31303D01*
X37367Y35715D02*
X36156Y34504D01*
X28233Y28157D02*
X27700Y28157D01*
X28879Y28803D02*
X28233Y28157D01*
X29960Y28803D02*
X28879Y28803D01*
X31900Y28095D02*
X31900Y28110D01*
X31900Y28095D02*
X31900Y27750D01*
X31410Y28600D02*
X31140Y28600D01*
X31900Y28110D02*
X31410Y28600D01*
X37367Y36811D02*
X37367Y36716D01*
X31526Y31116D02*
X30966Y30556D01*
X35664Y31116D02*
X31526Y31116D01*
X35946Y31398D02*
X35664Y31116D01*
X35946Y35295D02*
X35946Y31398D01*
X37367Y36716D02*
X35946Y35295D01*
X28225Y28475D02*
X27973Y28475D01*
X27970Y28472D02*
X27700Y28472D01*
X27973Y28475D02*
X27970Y28472D01*
X28800Y29050D02*
X28225Y28475D01*
X37367Y31811D02*
X37367Y31235D01*
X30734Y26444D02*
X30734Y26095D01*
X30934Y26644D02*
X30734Y26444D01*
X32973Y26644D02*
X30934Y26644D01*
X33910Y27581D02*
X32973Y26644D01*
X33910Y29730D02*
X33910Y27581D01*
X34185Y30005D02*
X33910Y29730D01*
X36137Y30005D02*
X34185Y30005D01*
X37367Y31235D02*
X36137Y30005D01*
X31900Y25750D02*
X31900Y26095D01*
X27700Y25527D02*
X27970Y25527D01*
X31900Y26095D02*
X30734Y26095D01*
X28266Y25231D02*
X27970Y25527D01*
X30455Y25231D02*
X28266Y25231D01*
X30650Y25425D02*
X30455Y25231D01*
X30650Y26010D02*
X30650Y25425D01*
X30734Y26095D02*
X30650Y26010D01*
G54D50*
X27094Y25835D02*
X27094Y26150D01*
X30900Y21750D02*
X30684Y21750D01*
X30684Y21750D02*
X29897Y22536D01*
X29897Y22536D02*
X29897Y23481D01*
X29897Y23481D02*
X29503Y23876D01*
X29503Y23876D02*
X28292Y23876D01*
X28292Y23876D02*
X27900Y24268D01*
X27900Y24268D02*
X27900Y24728D01*
X27900Y24728D02*
X27094Y25531D01*
X27094Y28154D02*
X27094Y28481D01*
X27094Y27848D02*
X27094Y28154D01*
X27094Y27539D02*
X27094Y27848D01*
X27094Y26472D02*
X27094Y27539D01*
X27094Y26150D02*
X27094Y26472D01*
X27094Y25531D02*
X27094Y25529D01*
X27094Y25529D02*
X27094Y25835D01*
G54D51*
X37367Y32811D02*
X37367Y32712D01*
X32908Y28382D02*
X33140Y28150D01*
X33140Y28150D02*
X33140Y27127D01*
X33140Y27127D02*
X32817Y26804D01*
X32817Y26804D02*
X30868Y26804D01*
X30868Y26804D02*
X30400Y26335D01*
X30400Y26335D02*
X30400Y25750D01*
X32908Y29710D02*
X32908Y28382D01*
X33405Y30207D02*
X32908Y29710D01*
X36005Y30207D02*
X33405Y30207D01*
X36739Y30941D02*
X36005Y30207D01*
X36739Y32084D02*
X36739Y30941D01*
X37367Y32712D02*
X36739Y32084D01*
X28057Y25842D02*
X27700Y25842D01*
X28495Y25404D02*
X28057Y25842D01*
X30400Y25404D02*
X28495Y25404D01*
X30400Y25750D02*
X30400Y25404D01*
X37367Y34811D02*
X37367Y34709D01*
X30913Y29231D02*
X29900Y28217D01*
X30913Y29726D02*
X30913Y29231D01*
X31831Y30644D02*
X30913Y29726D01*
X35804Y30644D02*
X31831Y30644D01*
X36359Y31199D02*
X35804Y30644D01*
X36359Y33701D02*
X36359Y31199D01*
X37367Y34709D02*
X36359Y33701D01*
X29900Y27750D02*
X29900Y28217D01*
X29775Y28342D02*
X29900Y28217D01*
X28700Y28342D02*
X29775Y28342D01*
X28201Y27842D02*
X28700Y28342D01*
X27700Y27842D02*
X28201Y27842D01*
X37367Y33811D02*
X37367Y33706D01*
X31900Y29403D02*
X31393Y28897D01*
X31393Y28897D02*
X30977Y28897D01*
X30977Y28897D02*
X30160Y28080D01*
X30160Y28080D02*
X30160Y26855D01*
X30160Y26855D02*
X29400Y26095D01*
X31900Y29706D02*
X31900Y29403D01*
X32613Y30419D02*
X31900Y29706D01*
X35889Y30419D02*
X32613Y30419D01*
X36565Y31095D02*
X35889Y30419D01*
X36565Y32904D02*
X36565Y31095D01*
X37367Y33706D02*
X36565Y32904D01*
X28032Y26095D02*
X27970Y26157D01*
X29400Y26095D02*
X28032Y26095D01*
X27700Y26157D02*
X27970Y26157D01*
X29400Y25750D02*
X29400Y26095D01*
X8152Y20294D02*
X8152Y21123D01*
X8152Y21123D02*
X7775Y21500D01*
X8320Y18795D02*
X5009Y18795D01*
X5009Y18795D02*
X4684Y19120D01*
X4684Y19119D02*
X4861Y19088D01*
X9517Y19610D02*
X8920Y19610D01*
X4963Y20787D02*
X4694Y20787D01*
X5641Y20109D02*
X4963Y20787D01*
X5641Y20084D02*
X5641Y20109D01*
X5938Y19787D02*
X5641Y20084D01*
X8743Y19787D02*
X5938Y19787D01*
X8920Y19610D02*
X8743Y19787D01*
X5425Y27550D02*
X4813Y27550D01*
X4813Y27550D02*
X4650Y27387D01*
X5425Y27550D02*
X5256Y27550D01*
X8150Y29120D02*
X8150Y30125D01*
X8150Y30125D02*
X7775Y30500D01*
X8152Y29118D02*
X8150Y29120D01*
X4650Y24237D02*
X6262Y24237D01*
X6262Y24237D02*
X6275Y24250D01*
X8025Y27500D02*
X8025Y26374D01*
X8025Y26374D02*
X8147Y26252D01*
X8148Y16929D02*
X8148Y17730D01*
X8148Y17730D02*
X8320Y17902D01*
X18900Y21750D02*
X17901Y21876D01*
X17901Y21876D02*
X17900Y21875D01*
X11400Y21750D02*
X10275Y21750D01*
X26420Y21750D02*
X26295Y21875D01*
X26900Y21750D02*
X26420Y21750D01*
X25900Y21875D02*
X26295Y21875D01*
X37891Y28870D02*
X38070Y28870D01*
X27900Y10725D02*
X27994Y10373D01*
X27950Y10775D02*
X27900Y10725D01*
X29350Y10775D02*
X27950Y10775D01*
X29450Y10675D02*
X29350Y10775D01*
X29450Y10175D02*
X29450Y10675D01*
X29562Y10062D02*
X29450Y10175D01*
X31875Y10600D02*
X31337Y10062D01*
X34575Y10600D02*
X31875Y10600D01*
X34675Y10500D02*
X34575Y10600D01*
X34675Y10000D02*
X34675Y10500D01*
X31337Y10062D02*
X29562Y10062D01*
X39019Y23899D02*
X38840Y23720D01*
X39019Y27920D02*
X39019Y23899D01*
X38070Y28870D02*
X39019Y27920D01*
X10066Y26583D02*
X10066Y26133D01*
X10066Y26583D02*
X10066Y26624D01*
X15050Y20400D02*
X15050Y20300D01*
X9900Y29850D02*
X10200Y30150D01*
X9900Y29850D02*
X9900Y28881D01*
X9900Y28881D02*
X10066Y28714D01*
X10066Y28714D02*
X10066Y26624D01*
X12050Y30350D02*
X12050Y34100D01*
X11850Y30150D02*
X12050Y30350D01*
X10200Y30150D02*
X11850Y30150D01*
X11925Y34225D02*
X12050Y34100D01*
X15050Y20300D02*
X14270Y19520D01*
X12990Y19300D02*
X12990Y17750D01*
X14270Y19520D02*
X13210Y19520D01*
X13210Y19520D02*
X12990Y19300D01*
X10650Y26000D02*
X10850Y25800D01*
X10200Y26000D02*
X10650Y26000D01*
X10066Y26133D02*
X10200Y26000D01*
X9050Y34750D02*
X9400Y34750D01*
X8750Y36250D02*
X9050Y36250D01*
X8600Y36100D02*
X8750Y36250D01*
X8600Y35600D02*
X8600Y36100D01*
X8700Y35500D02*
X8600Y35600D01*
X9400Y35500D02*
X8700Y35500D01*
X9450Y35450D02*
X9400Y35500D01*
X9450Y34800D02*
X9450Y35450D01*
X9400Y34750D02*
X9450Y34800D01*
X14740Y15240D02*
X14750Y15230D01*
X14740Y16750D02*
X14740Y15240D01*
X12990Y17750D02*
X14450Y17750D01*
X14450Y17750D02*
X14740Y17460D01*
X14740Y17460D02*
X14740Y16750D01*
X27445Y10261D02*
X27632Y10075D01*
X27632Y10075D02*
X28800Y10075D01*
X28800Y10075D02*
X28900Y10175D01*
X27445Y10662D02*
X27445Y10261D01*
X28000Y15900D02*
X27810Y15900D01*
X37180Y19440D02*
X35460Y19440D01*
X38143Y18507D02*
X37830Y18820D01*
X37830Y18820D02*
X37830Y19220D01*
X37830Y19220D02*
X37610Y19440D01*
X37610Y19440D02*
X37180Y19440D01*
X29850Y18300D02*
X28900Y17350D01*
X28900Y17350D02*
X28900Y16800D01*
X28900Y16800D02*
X28000Y15900D01*
X35123Y19547D02*
X35352Y19547D01*
X34255Y18679D02*
X35123Y19547D01*
X33153Y18679D02*
X34255Y18679D01*
X32786Y18312D02*
X33153Y18679D01*
X31250Y18300D02*
X32786Y18312D01*
X31250Y18300D02*
X29850Y18300D01*
X38753Y18507D02*
X38143Y18507D01*
X35460Y19440D02*
X35352Y19547D01*
X15335Y16750D02*
X14740Y16750D01*
X15335Y16750D02*
X15800Y16750D01*
X11150Y35750D02*
X10750Y35750D01*
X10250Y36250D02*
X9050Y36250D01*
X10750Y35750D02*
X10250Y36250D01*
X11925Y34225D02*
X11925Y35550D01*
X11925Y35550D02*
X11725Y35750D01*
X11725Y35750D02*
X11150Y35750D01*
X12990Y17250D02*
X12990Y17750D01*
X12000Y17250D02*
X12990Y17250D01*
X11175Y34225D02*
X11150Y34250D01*
X11925Y34225D02*
X11175Y34225D01*
X37907Y29866D02*
X38484Y29866D01*
X38753Y18507D02*
X39180Y18934D01*
X39180Y18934D02*
X39180Y29170D01*
X39180Y29170D02*
X38484Y29866D01*
X38746Y18500D02*
X38753Y18507D01*
X29900Y9567D02*
X29483Y9567D01*
X29000Y10075D02*
X29275Y10075D01*
X29000Y10075D02*
X28900Y10175D01*
X29400Y9950D02*
X29275Y10075D01*
X29400Y9650D02*
X29400Y9950D01*
X29483Y9567D02*
X29400Y9650D01*
X28900Y10175D02*
X28900Y10375D01*
X5476Y33657D02*
X5266Y33660D01*
X5266Y33660D02*
X4657Y33660D01*
X6275Y30500D02*
X6275Y31125D01*
X6275Y31125D02*
X6550Y31400D01*
X8150Y34375D02*
X7825Y34375D01*
X7400Y33950D02*
X7825Y34375D01*
X6302Y33652D02*
X6425Y33775D01*
X7400Y33950D02*
X7400Y33950D01*
X7225Y33775D02*
X7400Y33950D01*
X6302Y33652D02*
X6302Y33380D01*
X6425Y33775D02*
X7225Y33775D01*
X5494Y30962D02*
X5075Y30962D01*
X5075Y30962D02*
X4650Y30537D01*
X5494Y30962D02*
X5299Y30923D01*
X28000Y18875D02*
X26317Y18875D01*
X26317Y18875D02*
X25500Y18875D01*
X22750Y12375D02*
X22625Y12375D01*
X21875Y13125D02*
X21750Y13125D01*
X22625Y12375D02*
X21875Y13125D01*
X22875Y12500D02*
X23700Y12500D01*
X36000Y18510D02*
X35350Y17860D01*
X35350Y17860D02*
X35350Y16690D01*
X31298Y12499D02*
X34512Y12499D01*
X34512Y12499D02*
X35350Y13337D01*
X35350Y13337D02*
X35350Y16690D01*
X37190Y18510D02*
X36000Y18510D01*
X23700Y12500D02*
X31305Y12498D01*
X31305Y12498D02*
X31298Y12499D01*
X22875Y12500D02*
X22750Y12375D01*
X22750Y12375D02*
X22875Y12500D01*
X22750Y19600D02*
X22750Y21000D01*
X22750Y18375D02*
X22750Y18654D01*
X22750Y18654D02*
X22750Y19600D01*
X36976Y27924D02*
X37400Y27500D01*
X31023Y26356D02*
X31018Y26351D01*
X33015Y26356D02*
X31023Y26356D01*
X34578Y27920D02*
X33015Y26356D01*
X36976Y27924D02*
X34578Y27920D01*
X22750Y18375D02*
X21750Y18375D01*
X23125Y15875D02*
X23180Y15930D01*
X22750Y15875D02*
X23125Y15875D01*
X23180Y20150D02*
X23340Y20310D01*
X23180Y15930D02*
X23180Y20150D01*
X33830Y21290D02*
X33810Y21270D01*
X33830Y21330D02*
X33830Y21290D01*
X33830Y21330D02*
X33830Y23630D01*
X33830Y23630D02*
X33885Y23685D01*
X36548Y25088D02*
X36460Y25000D01*
X36460Y25000D02*
X34470Y25000D01*
X34470Y25000D02*
X34340Y24870D01*
X34340Y24870D02*
X34340Y24140D01*
X34340Y24140D02*
X33885Y23685D01*
X37189Y26079D02*
X36548Y25438D01*
X37400Y26079D02*
X37189Y26079D01*
X37400Y26079D02*
X37400Y26500D01*
X36548Y25438D02*
X36548Y25088D01*
X33810Y21270D02*
X30322Y21270D01*
X30322Y21270D02*
X28913Y22678D01*
X28913Y22678D02*
X28913Y23280D01*
X28913Y23280D02*
X28573Y23620D01*
X28573Y23620D02*
X26571Y23620D01*
X26571Y23620D02*
X26394Y23796D01*
X23350Y20300D02*
X23340Y20310D01*
X22750Y15875D02*
X22750Y15900D01*
X22225Y16300D02*
X21900Y16625D01*
X22350Y16300D02*
X22225Y16300D01*
X22750Y15900D02*
X22350Y16300D01*
X22750Y15875D02*
X22775Y15850D01*
X22750Y15875D02*
X22775Y15850D01*
X22750Y14625D02*
X21750Y14625D01*
X22750Y14625D02*
X22875Y14625D01*
X23720Y15470D02*
X23450Y15200D01*
X26340Y14770D02*
X27620Y14770D01*
X23750Y15470D02*
X25790Y15470D01*
X25790Y15470D02*
X26220Y15040D01*
X26220Y15040D02*
X26220Y14890D01*
X26220Y14890D02*
X26340Y14770D01*
X29900Y17500D02*
X29900Y17495D01*
X29905Y17495D02*
X29900Y17500D01*
X29695Y17495D02*
X29905Y17495D01*
X29400Y17200D02*
X29695Y17495D01*
X29400Y16550D02*
X29400Y17200D01*
X27630Y14780D02*
X29400Y16550D01*
X27620Y14770D02*
X27630Y14780D01*
X23750Y15470D02*
X23720Y15470D01*
X22875Y14625D02*
X23450Y15200D01*
X34070Y20973D02*
X34070Y21219D01*
X34070Y21219D02*
X33990Y21300D01*
X33990Y21300D02*
X33990Y23550D01*
X33990Y23550D02*
X34470Y24030D01*
X34470Y24030D02*
X36210Y24030D01*
X36210Y24030D02*
X36708Y24528D01*
X36708Y24528D02*
X36708Y24598D01*
X34706Y17495D02*
X29900Y17495D01*
X37400Y25500D02*
X37400Y25079D01*
X37189Y25079D02*
X36708Y24598D01*
X37400Y25079D02*
X37189Y25079D01*
X35264Y19218D02*
X35264Y18053D01*
X35264Y18053D02*
X34706Y17495D01*
X29900Y17495D02*
X30050Y17495D01*
X15900Y21087D02*
X16112Y21087D01*
X16112Y21087D02*
X16900Y21875D01*
X14650Y21900D02*
X15887Y21900D01*
X15887Y21900D02*
X15900Y21913D01*
X32900Y9000D02*
X32900Y8000D01*
X35300Y9575D02*
X34904Y9575D01*
X33900Y9000D02*
X33900Y8000D01*
X34329Y9000D02*
X34904Y9575D01*
X33900Y9000D02*
X34329Y9000D01*
X20750Y18433D02*
X20750Y18600D01*
X24475Y18900D02*
X23950Y18900D01*
X24475Y18900D02*
X24500Y18875D01*
X21150Y19000D02*
X22100Y19000D01*
X20750Y18600D02*
X21150Y19000D01*
X20100Y16260D02*
X20130Y16260D01*
X20250Y16700D02*
X20250Y16420D01*
X20040Y15380D02*
X20050Y15370D01*
X20310Y15110D02*
X20050Y15370D01*
X20310Y15110D02*
X20310Y14940D01*
X17720Y15380D02*
X17540Y15560D01*
X17540Y15560D02*
X17540Y16130D01*
X17540Y16130D02*
X17670Y16260D01*
X17670Y16260D02*
X20100Y16260D01*
X17720Y15380D02*
X20040Y15380D01*
X20250Y16380D02*
X20250Y16420D01*
X20130Y16260D02*
X20250Y16380D01*
X20750Y14933D02*
X20310Y14933D01*
X20310Y14933D02*
X20310Y14940D01*
X20080Y14480D02*
X20310Y14710D01*
X20040Y14480D02*
X20080Y14480D01*
X17650Y14480D02*
X20040Y14480D01*
X17560Y14390D02*
X17650Y14480D01*
X17560Y13690D02*
X17560Y14390D01*
X17620Y13630D02*
X17560Y13690D01*
X20230Y13630D02*
X17620Y13630D01*
X20677Y13183D02*
X20230Y13630D01*
X20677Y13183D02*
X20750Y13183D01*
X20310Y14710D02*
X20310Y14940D01*
X25500Y18125D02*
X25375Y18125D01*
X25375Y18125D02*
X24625Y18875D01*
X24625Y18875D02*
X24500Y18875D01*
X20250Y18060D02*
X20250Y18360D01*
X20250Y18360D02*
X20323Y18433D01*
X20250Y17110D02*
X17740Y17110D01*
X20190Y18000D02*
X20250Y18060D01*
X17640Y18000D02*
X20190Y18000D01*
X17540Y17900D02*
X17640Y18000D01*
X17540Y17310D02*
X17540Y17900D01*
X17740Y17110D02*
X17540Y17310D01*
X20317Y18433D02*
X20323Y18433D01*
X20323Y18433D02*
X20750Y18433D01*
X20250Y16700D02*
X20733Y16700D01*
X20733Y16700D02*
X20750Y16683D01*
X20250Y16700D02*
X20250Y17110D01*
X25541Y16750D02*
X25541Y18084D01*
X25541Y18084D02*
X25500Y18125D01*
X25500Y18125D02*
X26317Y18125D01*
X21900Y9250D02*
X22320Y9250D01*
X36970Y7429D02*
X37400Y7000D01*
X36008Y7429D02*
X36970Y7429D01*
X35985Y7407D02*
X36008Y7429D01*
X29898Y7407D02*
X35985Y7407D01*
X29386Y7919D02*
X29898Y7407D01*
X29386Y8122D02*
X29386Y7919D01*
X29065Y8443D02*
X29386Y8122D01*
X23126Y8443D02*
X29065Y8443D01*
X22320Y9250D02*
X23126Y8443D01*
X24815Y13956D02*
X24815Y14000D01*
X25197Y13574D02*
X24815Y13956D01*
X27724Y13574D02*
X25197Y13574D01*
X28650Y14500D02*
X27724Y13574D01*
X31900Y14500D02*
X28650Y14500D01*
X33400Y16000D02*
X31900Y14500D01*
X24400Y14000D02*
X24815Y14000D01*
X32900Y31550D02*
X34519Y31550D01*
X33400Y23000D02*
X33400Y23795D01*
X34174Y24569D02*
X34174Y25253D01*
X33400Y23795D02*
X34174Y24569D01*
X33750Y33880D02*
X33750Y34310D01*
X33820Y33810D02*
X33750Y33880D01*
X34450Y33810D02*
X33820Y33810D01*
X34609Y33650D02*
X34450Y33810D01*
X34609Y31640D02*
X34609Y33650D01*
X34519Y31550D02*
X34609Y31640D01*
X33750Y34310D02*
X33750Y35535D01*
X33750Y35535D02*
X34065Y35850D01*
X33400Y22837D02*
X33400Y21625D01*
X33400Y22837D02*
X33400Y23000D01*
X6800Y23000D02*
X6800Y23600D01*
X7500Y26900D02*
X6550Y26900D01*
X7650Y26750D02*
X7500Y26900D01*
X7650Y25300D02*
X7650Y26750D01*
X7100Y24750D02*
X7650Y25300D01*
X6750Y24750D02*
X7100Y24750D01*
X6650Y24650D02*
X6750Y24750D01*
X6650Y23750D02*
X6650Y24650D01*
X6800Y23600D02*
X6650Y23750D01*
X848Y36830D02*
X850Y36830D01*
X850Y36830D02*
X1080Y37060D01*
X1080Y37060D02*
X3180Y37060D01*
X1566Y25925D02*
X4375Y25925D01*
X6550Y26900D02*
X6400Y26750D01*
X6400Y26750D02*
X5200Y26750D01*
X848Y36830D02*
X501Y36483D01*
X501Y36483D02*
X501Y27003D01*
X501Y27003D02*
X1566Y25925D01*
X4375Y25925D02*
X5200Y26750D01*
X7275Y35500D02*
X7275Y36125D01*
X7275Y36125D02*
X6900Y36500D01*
X32070Y31400D02*
X32390Y31400D01*
X31900Y31400D02*
X32070Y31400D01*
X34770Y33790D02*
X34250Y34310D01*
X34770Y31360D02*
X34770Y33790D01*
X34690Y31280D02*
X34770Y31360D01*
X32510Y31280D02*
X34690Y31280D01*
X32390Y31400D02*
X32510Y31280D01*
X34250Y34310D02*
X34250Y35043D01*
X34250Y35043D02*
X34567Y35360D01*
X34567Y35360D02*
X34567Y36053D01*
X34567Y36053D02*
X34273Y36347D01*
X34273Y36347D02*
X33195Y36347D01*
X33195Y36347D02*
X33065Y36217D01*
X33065Y36217D02*
X33065Y35850D01*
X32400Y21625D02*
X32400Y23000D01*
X3600Y35850D02*
X3300Y35850D01*
X5025Y35500D02*
X4675Y35850D01*
X3600Y35850D02*
X4675Y35850D01*
X3300Y35850D02*
X2300Y36850D01*
X8550Y26900D02*
X8400Y27050D01*
X4250Y26100D02*
X1638Y26100D01*
X4250Y26100D02*
X5100Y26950D01*
X5100Y26950D02*
X6350Y26950D01*
X6350Y26950D02*
X6820Y27420D01*
X674Y34074D02*
X674Y36249D01*
X1638Y26100D02*
X670Y27068D01*
X670Y27068D02*
X674Y34074D01*
X1275Y36850D02*
X2300Y36850D01*
X674Y36249D02*
X1275Y36850D01*
X6820Y27420D02*
X7400Y28000D01*
X8400Y27050D02*
X8400Y27900D01*
X8400Y27900D02*
X8300Y28000D01*
X8300Y28000D02*
X7400Y28000D01*
X7800Y23000D02*
X7800Y24200D01*
X8900Y25300D02*
X7800Y24200D01*
X8900Y26550D02*
X8900Y25300D01*
X8550Y26900D02*
X8900Y26550D01*
X5025Y35500D02*
X5025Y35625D01*
X5025Y35625D02*
X5900Y36500D01*
X16900Y33740D02*
X16900Y27350D01*
X16951Y33791D02*
X16900Y33740D01*
X16951Y33791D02*
X16951Y34808D01*
X17900Y29300D02*
X17400Y28800D01*
X17400Y28800D02*
X17400Y27350D01*
X17951Y34808D02*
X17951Y34263D01*
X17951Y34263D02*
X17900Y34212D01*
X17900Y34212D02*
X17900Y29300D01*
X18951Y34808D02*
X18951Y34318D01*
X19650Y28628D02*
X19650Y27500D01*
X18901Y29377D02*
X19650Y28628D01*
X18901Y34268D02*
X18901Y29377D01*
X18951Y34318D02*
X18901Y34268D01*
X19951Y34808D02*
X19951Y34236D01*
X19900Y28250D02*
X19950Y28200D01*
X19900Y34185D02*
X19900Y28250D01*
X19951Y34236D02*
X19900Y34185D01*
X22114Y21885D02*
X22014Y21885D01*
X24682Y19439D02*
X22235Y21885D01*
X29550Y19450D02*
X24682Y19439D01*
X22235Y21885D02*
X22114Y21885D01*
X20400Y23350D02*
X20400Y23000D01*
X20700Y23650D02*
X20400Y23350D01*
X21750Y23650D02*
X20700Y23650D01*
X21900Y23500D02*
X21750Y23650D01*
X21900Y22000D02*
X21900Y23500D01*
X22014Y21885D02*
X21900Y22000D01*
X20330Y12020D02*
X20330Y12317D01*
X20340Y12010D02*
X20330Y12020D01*
X20223Y12317D02*
X20243Y12317D01*
X20220Y12320D02*
X20223Y12317D01*
X20243Y12317D02*
X20250Y12317D01*
X20240Y12320D02*
X20243Y12317D01*
X20750Y12317D02*
X20330Y12317D01*
X20330Y12317D02*
X20250Y12317D01*
X20250Y12317D02*
X19750Y12317D01*
X20750Y12317D02*
X20808Y12375D01*
X20808Y12375D02*
X21750Y12375D01*
X18000Y12375D02*
X19000Y12375D01*
X19000Y12375D02*
X19058Y12317D01*
X19058Y12317D02*
X19750Y12317D01*
G54D50*
X19750Y14067D02*
X19058Y14067D01*
X19058Y14067D02*
X19000Y14125D01*
G54D51*
X19750Y14067D02*
X20200Y14067D01*
X20200Y14067D02*
X20750Y14067D01*
X21150Y13600D02*
X21150Y13875D01*
X21750Y13875D02*
X21150Y13875D01*
X21150Y13875D02*
X20942Y13875D01*
X20942Y13875D02*
X20750Y14067D01*
X19058Y14067D02*
X19000Y14125D01*
X19000Y14125D02*
X18000Y14125D01*
X21200Y15450D02*
X21200Y15875D01*
X19000Y15875D02*
X19692Y15875D01*
X19692Y15875D02*
X19750Y15817D01*
X19750Y15817D02*
X20250Y15817D01*
X20250Y15817D02*
X20750Y15817D01*
X18000Y15875D02*
X19000Y15875D01*
X19000Y15875D02*
X19058Y15817D01*
X20750Y15817D02*
X20808Y15875D01*
X20808Y15875D02*
X21200Y15875D01*
X21200Y15875D02*
X21900Y15875D01*
X21190Y17180D02*
X21190Y17625D01*
X21200Y17170D02*
X21190Y17180D01*
X18000Y17625D02*
X19000Y17625D01*
X19000Y17625D02*
X19058Y17567D01*
X19058Y17567D02*
X19750Y17567D01*
X19750Y17567D02*
X20350Y17567D01*
X20350Y17567D02*
X20750Y17567D01*
X20750Y17567D02*
X20808Y17625D01*
X20808Y17625D02*
X21190Y17625D01*
X21190Y17625D02*
X21300Y17625D01*
X21300Y17625D02*
X21750Y17625D01*
X30686Y24929D02*
X31981Y24929D01*
X32288Y26196D02*
X33352Y26196D01*
X33352Y26196D02*
X34076Y26920D01*
X34076Y26920D02*
X35900Y26920D01*
X35900Y26920D02*
X35900Y26500D01*
X32155Y26063D02*
X32288Y26196D01*
X32155Y25103D02*
X32155Y26063D01*
X31981Y24929D02*
X32155Y25103D01*
X37170Y20450D02*
X35520Y20450D01*
X37660Y20450D02*
X37170Y20450D01*
X37840Y20270D02*
X37660Y20450D01*
X37840Y19790D02*
X37840Y20270D01*
X38070Y19560D02*
X37840Y19790D01*
X38730Y19560D02*
X38070Y19560D01*
X38970Y19800D02*
X38730Y19560D01*
X35900Y25500D02*
X36210Y25500D01*
X38970Y23310D02*
X38970Y19921D01*
X38840Y23440D02*
X38970Y23310D01*
X38570Y23440D02*
X38840Y23440D01*
X38130Y23880D02*
X38570Y23440D01*
X36210Y25500D02*
X36760Y26050D01*
X38970Y19921D02*
X38970Y19800D01*
X35520Y20450D02*
X35062Y19992D01*
X30072Y19590D02*
X34078Y19590D01*
X23400Y21600D02*
X23400Y23000D01*
X23400Y21600D02*
X24780Y20219D01*
X24780Y20219D02*
X29442Y20219D01*
X29442Y20219D02*
X30072Y19590D01*
X35062Y19992D02*
X34480Y19992D01*
X34078Y19590D02*
X34480Y19992D01*
X31400Y23000D02*
X31400Y23681D01*
X34036Y26500D02*
X34900Y26500D01*
X33688Y26152D02*
X34036Y26500D01*
X33688Y25545D02*
X33688Y26152D01*
X33301Y25158D02*
X33688Y25545D01*
X32442Y25158D02*
X33301Y25158D01*
X31898Y24614D02*
X32442Y25158D01*
X31898Y24179D02*
X31898Y24614D01*
X31400Y23681D02*
X31898Y24179D01*
X30400Y23000D02*
X30400Y22545D01*
X33878Y25500D02*
X34900Y25500D01*
X33373Y24995D02*
X33878Y25500D01*
X33181Y24995D02*
X33373Y24995D01*
X32899Y24712D02*
X33181Y24995D01*
X32899Y24290D02*
X32899Y24712D01*
X32461Y23852D02*
X32899Y24290D01*
X32334Y23852D02*
X32461Y23852D01*
X31900Y23418D02*
X32334Y23852D01*
X31900Y22585D02*
X31900Y23418D01*
X31613Y22298D02*
X31900Y22585D01*
X30647Y22298D02*
X31613Y22298D01*
X30400Y22545D02*
X30647Y22298D01*
X38400Y22000D02*
X38140Y22000D01*
X36730Y21470D02*
X35740Y21470D01*
X36880Y21620D02*
X36730Y21470D01*
X36880Y22170D02*
X36880Y21620D01*
X37150Y22440D02*
X36880Y22170D01*
X37700Y22440D02*
X37150Y22440D01*
X38140Y22000D02*
X37700Y22440D01*
X35740Y21470D02*
X35630Y21360D01*
X34300Y20050D02*
X34299Y20050D01*
X35630Y21360D02*
X34570Y20300D01*
X34570Y20300D02*
X34550Y20300D01*
X34550Y20300D02*
X34300Y20050D01*
X33235Y19825D02*
X33210Y19850D01*
X34074Y19825D02*
X33235Y19825D01*
X34299Y20050D02*
X34074Y19825D01*
X38250Y22000D02*
X38400Y22000D01*
X38400Y23000D02*
X38280Y23000D01*
X35960Y21955D02*
X34517Y20500D01*
X34517Y20500D02*
X34500Y20500D01*
X36207Y22437D02*
X35960Y22190D01*
X35960Y22190D02*
X35960Y21955D01*
X36567Y22437D02*
X36207Y22437D01*
X36910Y22780D02*
X36567Y22437D01*
X36910Y23300D02*
X36910Y22780D01*
X37050Y23440D02*
X36910Y23300D01*
X37840Y23440D02*
X37050Y23440D01*
X38280Y23000D02*
X37840Y23440D01*
X30590Y20159D02*
X30600Y20159D01*
X30600Y20159D02*
X30830Y19930D01*
X30830Y19930D02*
X32430Y19930D01*
X32430Y19930D02*
X32630Y20130D01*
X32630Y20130D02*
X34126Y20130D01*
X34126Y20130D02*
X34156Y20160D01*
X34156Y20160D02*
X34160Y20160D01*
X30344Y20405D02*
X30590Y20159D01*
X30344Y20925D02*
X30344Y20405D01*
X28890Y22379D02*
X30344Y20925D01*
X28400Y22379D02*
X28890Y22379D01*
X28400Y22379D02*
X28400Y23000D01*
X34500Y20500D02*
X34160Y20160D01*
X38400Y23000D02*
X38400Y22998D01*
X34500Y20500D02*
X34498Y20500D01*
X30900Y25404D02*
X31079Y25225D01*
X31079Y25225D02*
X31891Y25226D01*
X30900Y25404D02*
X30900Y25750D01*
X32400Y25750D02*
X32400Y25457D01*
X33112Y25320D02*
X33436Y25644D01*
X32537Y25320D02*
X33112Y25320D01*
X32400Y25457D02*
X32537Y25320D01*
X18560Y8430D02*
X18360Y8430D01*
X20069Y8420D02*
X20060Y8430D01*
X20060Y8430D02*
X18560Y8430D01*
X20320Y8175D02*
X20075Y8420D01*
X20320Y7981D02*
X20320Y8175D01*
X20915Y7385D02*
X20320Y7981D01*
X28379Y7385D02*
X20915Y7385D01*
X20075Y8420D02*
X20069Y8420D01*
X11900Y8150D02*
X11900Y8000D01*
X12210Y8460D02*
X11900Y8150D01*
X14470Y8460D02*
X12210Y8460D01*
X34059Y11607D02*
X34059Y11608D01*
X34687Y11607D02*
X34059Y11607D01*
X34780Y11700D02*
X34687Y11607D01*
X12000Y16750D02*
X12370Y16750D01*
X23903Y11608D02*
X34059Y11608D01*
X34059Y11608D02*
X34059Y11608D01*
X22701Y10405D02*
X23903Y11608D01*
X20173Y10405D02*
X22701Y10405D01*
X19421Y11157D02*
X20173Y10405D01*
X16314Y11157D02*
X19421Y11157D01*
X12730Y14742D02*
X16314Y11157D01*
X12730Y16389D02*
X12730Y14742D01*
X12370Y16750D02*
X12730Y16389D01*
X19968Y7517D02*
X16707Y7517D01*
X19968Y7517D02*
X20508Y6976D01*
X20508Y6976D02*
X29361Y6976D01*
X16707Y7517D02*
X16630Y7440D01*
X30538Y27177D02*
X30927Y27177D01*
X30400Y27750D02*
X30400Y27316D01*
X30400Y27316D02*
X30538Y27177D01*
X30960Y27210D02*
X30960Y27220D01*
X30927Y27177D02*
X30960Y27210D01*
X29900Y25750D02*
X29900Y26095D01*
X32001Y26965D02*
X32092Y27056D01*
X30770Y26965D02*
X32001Y26965D01*
X29900Y26095D02*
X30770Y26965D01*
X30070Y6722D02*
X30068Y6722D01*
X29569Y7221D02*
X28659Y7221D01*
X28659Y7221D02*
X28575Y7136D01*
X28575Y7136D02*
X20763Y7136D01*
X19900Y8000D02*
X20763Y7136D01*
X30068Y6722D02*
X29569Y7221D01*
X12000Y15750D02*
X12370Y15750D01*
X12370Y15087D02*
X12370Y15750D01*
X12312Y15029D02*
X12370Y15087D01*
X11734Y15029D02*
X12312Y15029D01*
X11629Y14924D02*
X11734Y15029D01*
X11629Y14600D02*
X11629Y14924D01*
X11700Y14529D02*
X11629Y14600D01*
X12265Y14529D02*
X11700Y14529D01*
X12370Y14424D02*
X12265Y14529D01*
X12370Y14100D02*
X12370Y14424D01*
X12299Y14029D02*
X12370Y14100D01*
X11734Y14029D02*
X12299Y14029D01*
X11629Y13924D02*
X11734Y14029D01*
X11629Y13579D02*
X11629Y13924D01*
X11679Y13529D02*
X11629Y13579D01*
X12989Y13529D02*
X11679Y13529D01*
X15842Y10677D02*
X12989Y13529D01*
X19222Y10677D02*
X15842Y10677D01*
X20050Y9849D02*
X19222Y10677D01*
X22913Y9849D02*
X20050Y9849D01*
X24191Y11127D02*
X22913Y9849D01*
X35272Y11127D02*
X24191Y11127D01*
X36400Y10000D02*
X35272Y11127D01*
X20400Y2350D02*
X20400Y1000D01*
X31400Y800D02*
X31200Y600D01*
X31200Y600D02*
X20800Y600D01*
X20800Y600D02*
X20400Y1000D01*
X31400Y800D02*
X31400Y4000D01*
X20480Y2430D02*
X20400Y2350D01*
X20480Y2680D02*
X20480Y2430D01*
X20490Y2690D02*
X20480Y2680D01*
X32400Y27750D02*
X32400Y27404D01*
X32894Y27228D02*
X32717Y27404D01*
X32717Y27404D02*
X32400Y27404D01*
X31831Y27273D02*
X31699Y27404D01*
X31699Y27404D02*
X31400Y27404D01*
X31400Y27750D02*
X31400Y27404D01*
X28585Y7532D02*
X29484Y7532D01*
X28585Y7532D02*
X28117Y8000D01*
X27900Y8000D02*
X28117Y8000D01*
X29859Y7158D02*
X30430Y6860D01*
X29484Y7532D02*
X29859Y7158D01*
X12000Y14750D02*
X12412Y14750D01*
X16164Y10997D02*
X12412Y14750D01*
X19354Y10997D02*
X16164Y10997D01*
X20133Y10218D02*
X19354Y10997D01*
X22775Y10218D02*
X20133Y10218D01*
X24004Y11447D02*
X22775Y10218D01*
X35556Y11447D02*
X24004Y11447D01*
X35582Y11474D02*
X35556Y11447D01*
G54D10*
G36*
X7850Y2336D02*
X7588Y2444D01*
X7212Y2445D01*
X6865Y2301D01*
X6799Y2235D01*
X6797Y2372D01*
X6670Y2678D01*
X6538Y2748D01*
X6468Y2677D01*
X6468Y2818D01*
X6398Y2950D01*
X6065Y3082D01*
X5725Y3077D01*
X5725Y4163D01*
X5599Y4466D01*
X5367Y4698D01*
X5064Y4824D01*
X4736Y4825D01*
X4433Y4699D01*
X4201Y4467D01*
X4075Y4164D01*
X4074Y3836D01*
X4200Y3533D01*
X4432Y3301D01*
X4735Y3175D01*
X5063Y3174D01*
X5366Y3300D01*
X5598Y3532D01*
X5724Y3835D01*
X5725Y4163D01*
X5725Y3077D01*
X5707Y3077D01*
X5401Y2950D01*
X5331Y2818D01*
X5900Y2250D01*
X6468Y2818D01*
X6468Y2677D01*
X5970Y2180D01*
X5976Y2174D01*
X5905Y2103D01*
X5900Y2109D01*
X5829Y2038D01*
X5829Y2180D01*
X5261Y2748D01*
X5129Y2678D01*
X4997Y2345D01*
X5002Y1987D01*
X5129Y1681D01*
X5261Y1611D01*
X5829Y2180D01*
X5829Y2038D01*
X5331Y1541D01*
X5401Y1409D01*
X5734Y1277D01*
X6092Y1282D01*
X6398Y1409D01*
X6455Y1516D01*
X6454Y1312D01*
X6598Y965D01*
X6763Y800D01*
X4168Y800D01*
X2743Y2021D01*
X2743Y3348D01*
X2737Y3683D01*
X2621Y3962D01*
X2496Y4025D01*
X2425Y3954D01*
X2425Y4096D01*
X2362Y4221D01*
X2051Y4343D01*
X1716Y4337D01*
X1437Y4221D01*
X1374Y4096D01*
X1900Y3570D01*
X2425Y4096D01*
X2425Y3954D01*
X1970Y3500D01*
X2496Y2974D01*
X2621Y3037D01*
X2743Y3348D01*
X2743Y2021D01*
X2690Y2066D01*
X2690Y2130D01*
X2660Y2203D01*
X2603Y2259D01*
X2530Y2290D01*
X2450Y2290D01*
X2429Y2290D01*
X2425Y2294D01*
X2425Y2903D01*
X1900Y3429D01*
X1374Y2903D01*
X1437Y2778D01*
X1748Y2656D01*
X2083Y2662D01*
X2362Y2778D01*
X2425Y2903D01*
X2425Y2294D01*
X2418Y2300D01*
X1200Y2300D01*
X1200Y3026D01*
X1303Y2974D01*
X1829Y3500D01*
X1303Y4025D01*
X1200Y3973D01*
X1200Y4738D01*
X1269Y4709D01*
X1349Y4709D01*
X2530Y4709D01*
X2603Y4739D01*
X2659Y4796D01*
X2690Y4869D01*
X2690Y4949D01*
X2690Y4950D01*
X7850Y4950D01*
X7850Y2336D01*
X7850Y2336D01*
G37*
G54D56*
X7850Y2336D02*
X7588Y2444D01*
X7212Y2445D01*
X6865Y2301D01*
X6799Y2235D01*
X6797Y2372D01*
X6670Y2678D01*
X6538Y2748D01*
X6468Y2677D01*
X6468Y2818D01*
X6398Y2950D01*
X6065Y3082D01*
X5725Y3077D01*
X5725Y4163D01*
X5599Y4466D01*
X5367Y4698D01*
X5064Y4824D01*
X4736Y4825D01*
X4433Y4699D01*
X4201Y4467D01*
X4075Y4164D01*
X4074Y3836D01*
X4200Y3533D01*
X4432Y3301D01*
X4735Y3175D01*
X5063Y3174D01*
X5366Y3300D01*
X5598Y3532D01*
X5724Y3835D01*
X5725Y4163D01*
X5725Y3077D01*
X5707Y3077D01*
X5401Y2950D01*
X5331Y2818D01*
X5900Y2250D01*
X6468Y2818D01*
X6468Y2677D01*
X5970Y2180D01*
X5976Y2174D01*
X5905Y2103D01*
X5900Y2109D01*
X5829Y2038D01*
X5829Y2180D01*
X5261Y2748D01*
X5129Y2678D01*
X4997Y2345D01*
X5002Y1987D01*
X5129Y1681D01*
X5261Y1611D01*
X5829Y2180D01*
X5829Y2038D01*
X5331Y1541D01*
X5401Y1409D01*
X5734Y1277D01*
X6092Y1282D01*
X6398Y1409D01*
X6455Y1516D01*
X6454Y1312D01*
X6598Y965D01*
X6763Y800D01*
X4168Y800D01*
X2743Y2021D01*
X2743Y3348D01*
X2737Y3683D01*
X2621Y3962D01*
X2496Y4025D01*
X2425Y3954D01*
X2425Y4096D01*
X2362Y4221D01*
X2051Y4343D01*
X1716Y4337D01*
X1437Y4221D01*
X1374Y4096D01*
X1900Y3570D01*
X2425Y4096D01*
X2425Y3954D01*
X1970Y3500D01*
X2496Y2974D01*
X2621Y3037D01*
X2743Y3348D01*
X2743Y2021D01*
X2690Y2066D01*
X2690Y2130D01*
X2660Y2203D01*
X2603Y2259D01*
X2530Y2290D01*
X2450Y2290D01*
X2429Y2290D01*
X2425Y2294D01*
X2425Y2903D01*
X1900Y3429D01*
X1374Y2903D01*
X1437Y2778D01*
X1748Y2656D01*
X2083Y2662D01*
X2362Y2778D01*
X2425Y2903D01*
X2425Y2294D01*
X2418Y2300D01*
X1200Y2300D01*
X1200Y3026D01*
X1303Y2974D01*
X1829Y3500D01*
X1303Y4025D01*
X1200Y3973D01*
X1200Y4738D01*
X1269Y4709D01*
X1349Y4709D01*
X2530Y4709D01*
X2603Y4739D01*
X2659Y4796D01*
X2690Y4869D01*
X2690Y4949D01*
X2690Y4950D01*
X7850Y4950D01*
X7850Y2336D01*
G54D10*
G36*
X7850Y5300D02*
X2743Y5300D01*
X2743Y7348D01*
X2737Y7683D01*
X2621Y7962D01*
X2496Y8025D01*
X1970Y7500D01*
X2496Y6974D01*
X2621Y7037D01*
X2743Y7348D01*
X2743Y5300D01*
X2690Y5300D01*
X2690Y6130D01*
X2660Y6203D01*
X2603Y6259D01*
X2530Y6290D01*
X2450Y6290D01*
X2425Y6290D01*
X2425Y6903D01*
X1900Y7429D01*
X1374Y6903D01*
X1437Y6778D01*
X1748Y6656D01*
X2083Y6662D01*
X2362Y6778D01*
X2425Y6903D01*
X2425Y6290D01*
X1269Y6290D01*
X1200Y6261D01*
X1200Y7026D01*
X1303Y6974D01*
X1829Y7500D01*
X1303Y8025D01*
X1200Y7973D01*
X1200Y8168D01*
X1411Y8168D01*
X1374Y8096D01*
X1900Y7570D01*
X2425Y8096D01*
X2388Y8168D01*
X7533Y8168D01*
X7850Y7852D01*
X7850Y7336D01*
X7588Y7444D01*
X7212Y7445D01*
X6865Y7301D01*
X6799Y7235D01*
X6797Y7372D01*
X6670Y7678D01*
X6538Y7748D01*
X6468Y7677D01*
X6468Y7818D01*
X6398Y7950D01*
X6065Y8082D01*
X5707Y8077D01*
X5401Y7950D01*
X5331Y7818D01*
X5900Y7250D01*
X6468Y7818D01*
X6468Y7677D01*
X5970Y7180D01*
X5976Y7174D01*
X5905Y7103D01*
X5900Y7109D01*
X5829Y7038D01*
X5829Y7180D01*
X5261Y7748D01*
X5129Y7678D01*
X4997Y7345D01*
X5002Y6987D01*
X5129Y6681D01*
X5261Y6611D01*
X5829Y7180D01*
X5829Y7038D01*
X5331Y6541D01*
X5401Y6409D01*
X5734Y6277D01*
X6092Y6282D01*
X6398Y6409D01*
X6455Y6516D01*
X6454Y6312D01*
X6598Y5965D01*
X6864Y5699D01*
X7211Y5555D01*
X7587Y5554D01*
X7850Y5663D01*
X7850Y5300D01*
X7850Y5300D01*
G37*
G54D56*
X7850Y5300D02*
X2743Y5300D01*
X2743Y7348D01*
X2737Y7683D01*
X2621Y7962D01*
X2496Y8025D01*
X1970Y7500D01*
X2496Y6974D01*
X2621Y7037D01*
X2743Y7348D01*
X2743Y5300D01*
X2690Y5300D01*
X2690Y6130D01*
X2660Y6203D01*
X2603Y6259D01*
X2530Y6290D01*
X2450Y6290D01*
X2425Y6290D01*
X2425Y6903D01*
X1900Y7429D01*
X1374Y6903D01*
X1437Y6778D01*
X1748Y6656D01*
X2083Y6662D01*
X2362Y6778D01*
X2425Y6903D01*
X2425Y6290D01*
X1269Y6290D01*
X1200Y6261D01*
X1200Y7026D01*
X1303Y6974D01*
X1829Y7500D01*
X1303Y8025D01*
X1200Y7973D01*
X1200Y8168D01*
X1411Y8168D01*
X1374Y8096D01*
X1900Y7570D01*
X2425Y8096D01*
X2388Y8168D01*
X7533Y8168D01*
X7850Y7852D01*
X7850Y7336D01*
X7588Y7444D01*
X7212Y7445D01*
X6865Y7301D01*
X6799Y7235D01*
X6797Y7372D01*
X6670Y7678D01*
X6538Y7748D01*
X6468Y7677D01*
X6468Y7818D01*
X6398Y7950D01*
X6065Y8082D01*
X5707Y8077D01*
X5401Y7950D01*
X5331Y7818D01*
X5900Y7250D01*
X6468Y7818D01*
X6468Y7677D01*
X5970Y7180D01*
X5976Y7174D01*
X5905Y7103D01*
X5900Y7109D01*
X5829Y7038D01*
X5829Y7180D01*
X5261Y7748D01*
X5129Y7678D01*
X4997Y7345D01*
X5002Y6987D01*
X5129Y6681D01*
X5261Y6611D01*
X5829Y7180D01*
X5829Y7038D01*
X5331Y6541D01*
X5401Y6409D01*
X5734Y6277D01*
X6092Y6282D01*
X6398Y6409D01*
X6455Y6516D01*
X6454Y6312D01*
X6598Y5965D01*
X6864Y5699D01*
X7211Y5555D01*
X7587Y5554D01*
X7850Y5663D01*
X7850Y5300D01*
G54D10*
G36*
X7083Y9298D02*
X5288Y9298D01*
X5288Y9611D01*
X4720Y10179D01*
X4649Y10108D01*
X4649Y10250D01*
X4081Y10818D01*
X3949Y10748D01*
X3817Y10415D01*
X3822Y10057D01*
X3949Y9751D01*
X4081Y9681D01*
X4649Y10250D01*
X4649Y10108D01*
X4151Y9611D01*
X4221Y9479D01*
X4554Y9347D01*
X4912Y9352D01*
X5218Y9479D01*
X5288Y9611D01*
X5288Y9298D01*
X2743Y9299D01*
X2743Y12348D01*
X2737Y12683D01*
X2621Y12962D01*
X2496Y13025D01*
X1970Y12500D01*
X2496Y11974D01*
X2621Y12037D01*
X2743Y12348D01*
X2743Y9299D01*
X1200Y9299D01*
X1200Y9738D01*
X1269Y9709D01*
X1349Y9709D01*
X2530Y9709D01*
X2603Y9739D01*
X2659Y9796D01*
X2690Y9869D01*
X2690Y9949D01*
X2690Y11130D01*
X2660Y11203D01*
X2603Y11259D01*
X2530Y11290D01*
X2450Y11290D01*
X2425Y11290D01*
X2425Y11903D01*
X1900Y12429D01*
X1374Y11903D01*
X1437Y11778D01*
X1748Y11656D01*
X2083Y11662D01*
X2362Y11778D01*
X2425Y11903D01*
X2425Y11290D01*
X1269Y11290D01*
X1200Y11261D01*
X1200Y12026D01*
X1303Y11974D01*
X1829Y12500D01*
X1303Y13025D01*
X1200Y12973D01*
X1200Y13200D01*
X1426Y13200D01*
X1374Y13096D01*
X1900Y12570D01*
X2425Y13096D01*
X2373Y13200D01*
X4131Y13200D01*
X4891Y12562D01*
X4865Y12551D01*
X4599Y12285D01*
X4455Y11938D01*
X4454Y11562D01*
X4598Y11215D01*
X4664Y11149D01*
X4527Y11147D01*
X4221Y11020D01*
X4151Y10888D01*
X4720Y10320D01*
X4725Y10326D01*
X4796Y10255D01*
X4790Y10250D01*
X5358Y9681D01*
X5490Y9751D01*
X5622Y10084D01*
X5617Y10442D01*
X5490Y10748D01*
X5383Y10805D01*
X5587Y10804D01*
X5934Y10948D01*
X6200Y11214D01*
X6277Y11399D01*
X7083Y10724D01*
X7083Y9298D01*
X7083Y9298D01*
G37*
G54D56*
X7083Y9298D02*
X5288Y9298D01*
X5288Y9611D01*
X4720Y10179D01*
X4649Y10108D01*
X4649Y10250D01*
X4081Y10818D01*
X3949Y10748D01*
X3817Y10415D01*
X3822Y10057D01*
X3949Y9751D01*
X4081Y9681D01*
X4649Y10250D01*
X4649Y10108D01*
X4151Y9611D01*
X4221Y9479D01*
X4554Y9347D01*
X4912Y9352D01*
X5218Y9479D01*
X5288Y9611D01*
X5288Y9298D01*
X2743Y9299D01*
X2743Y12348D01*
X2737Y12683D01*
X2621Y12962D01*
X2496Y13025D01*
X1970Y12500D01*
X2496Y11974D01*
X2621Y12037D01*
X2743Y12348D01*
X2743Y9299D01*
X1200Y9299D01*
X1200Y9738D01*
X1269Y9709D01*
X1349Y9709D01*
X2530Y9709D01*
X2603Y9739D01*
X2659Y9796D01*
X2690Y9869D01*
X2690Y9949D01*
X2690Y11130D01*
X2660Y11203D01*
X2603Y11259D01*
X2530Y11290D01*
X2450Y11290D01*
X2425Y11290D01*
X2425Y11903D01*
X1900Y12429D01*
X1374Y11903D01*
X1437Y11778D01*
X1748Y11656D01*
X2083Y11662D01*
X2362Y11778D01*
X2425Y11903D01*
X2425Y11290D01*
X1269Y11290D01*
X1200Y11261D01*
X1200Y12026D01*
X1303Y11974D01*
X1829Y12500D01*
X1303Y13025D01*
X1200Y12973D01*
X1200Y13200D01*
X1426Y13200D01*
X1374Y13096D01*
X1900Y12570D01*
X2425Y13096D01*
X2373Y13200D01*
X4131Y13200D01*
X4891Y12562D01*
X4865Y12551D01*
X4599Y12285D01*
X4455Y11938D01*
X4454Y11562D01*
X4598Y11215D01*
X4664Y11149D01*
X4527Y11147D01*
X4221Y11020D01*
X4151Y10888D01*
X4720Y10320D01*
X4725Y10326D01*
X4796Y10255D01*
X4790Y10250D01*
X5358Y9681D01*
X5490Y9751D01*
X5622Y10084D01*
X5617Y10442D01*
X5490Y10748D01*
X5383Y10805D01*
X5587Y10804D01*
X5934Y10948D01*
X6200Y11214D01*
X6277Y11399D01*
X7083Y10724D01*
X7083Y9298D01*
G54D10*
G36*
X7083Y11330D02*
X6982Y11415D01*
X6982Y13084D01*
X6977Y13442D01*
X6850Y13748D01*
X6718Y13818D01*
X6648Y13747D01*
X6648Y13888D01*
X6578Y14020D01*
X6245Y14152D01*
X5887Y14147D01*
X5581Y14020D01*
X5511Y13888D01*
X6080Y13320D01*
X6648Y13888D01*
X6648Y13747D01*
X6150Y13250D01*
X6718Y12681D01*
X6850Y12751D01*
X6982Y13084D01*
X6982Y11415D01*
X6339Y11950D01*
X6201Y12284D01*
X6135Y12350D01*
X6272Y12352D01*
X6578Y12479D01*
X6648Y12611D01*
X6080Y13179D01*
X6074Y13173D01*
X6003Y13244D01*
X6009Y13250D01*
X5441Y13818D01*
X5309Y13748D01*
X5177Y13415D01*
X5182Y13057D01*
X5273Y12837D01*
X4978Y13083D01*
X4978Y15358D01*
X4978Y15600D01*
X4916Y15663D01*
X4450Y15663D01*
X4450Y15220D01*
X4512Y15158D01*
X4678Y15157D01*
X4778Y15158D01*
X4870Y15196D01*
X4940Y15266D01*
X4978Y15358D01*
X4978Y13083D01*
X4418Y13550D01*
X4350Y13550D01*
X4350Y15220D01*
X4350Y15663D01*
X3884Y15663D01*
X3821Y15600D01*
X3821Y15358D01*
X3859Y15266D01*
X3929Y15196D01*
X4021Y15158D01*
X4121Y15157D01*
X4287Y15158D01*
X4350Y15220D01*
X4350Y13550D01*
X2740Y13550D01*
X2740Y14859D01*
X2740Y15387D01*
X2678Y15450D01*
X1950Y15450D01*
X1950Y14722D01*
X2012Y14659D01*
X2440Y14659D01*
X2540Y14659D01*
X2632Y14697D01*
X2702Y14768D01*
X2740Y14859D01*
X2740Y13550D01*
X1200Y13550D01*
X1200Y14684D01*
X1259Y14659D01*
X1359Y14659D01*
X1787Y14659D01*
X1850Y14722D01*
X1850Y15450D01*
X1842Y15450D01*
X1842Y15550D01*
X1850Y15550D01*
X1850Y15557D01*
X1950Y15557D01*
X1950Y15550D01*
X2678Y15550D01*
X2740Y15612D01*
X2740Y16140D01*
X2715Y16200D01*
X3899Y16200D01*
X3859Y16159D01*
X3821Y16067D01*
X3821Y15825D01*
X3884Y15763D01*
X4350Y15763D01*
X4350Y15770D01*
X4450Y15770D01*
X4450Y15763D01*
X4916Y15763D01*
X4978Y15825D01*
X4978Y16067D01*
X4940Y16159D01*
X4900Y16200D01*
X4918Y16200D01*
X7082Y14043D01*
X7083Y11330D01*
X7083Y11330D01*
G37*
G54D56*
X7083Y11330D02*
X6982Y11415D01*
X6982Y13084D01*
X6977Y13442D01*
X6850Y13748D01*
X6718Y13818D01*
X6648Y13747D01*
X6648Y13888D01*
X6578Y14020D01*
X6245Y14152D01*
X5887Y14147D01*
X5581Y14020D01*
X5511Y13888D01*
X6080Y13320D01*
X6648Y13888D01*
X6648Y13747D01*
X6150Y13250D01*
X6718Y12681D01*
X6850Y12751D01*
X6982Y13084D01*
X6982Y11415D01*
X6339Y11950D01*
X6201Y12284D01*
X6135Y12350D01*
X6272Y12352D01*
X6578Y12479D01*
X6648Y12611D01*
X6080Y13179D01*
X6074Y13173D01*
X6003Y13244D01*
X6009Y13250D01*
X5441Y13818D01*
X5309Y13748D01*
X5177Y13415D01*
X5182Y13057D01*
X5273Y12837D01*
X4978Y13083D01*
X4978Y15358D01*
X4978Y15600D01*
X4916Y15663D01*
X4450Y15663D01*
X4450Y15220D01*
X4512Y15158D01*
X4678Y15157D01*
X4778Y15158D01*
X4870Y15196D01*
X4940Y15266D01*
X4978Y15358D01*
X4978Y13083D01*
X4418Y13550D01*
X4350Y13550D01*
X4350Y15220D01*
X4350Y15663D01*
X3884Y15663D01*
X3821Y15600D01*
X3821Y15358D01*
X3859Y15266D01*
X3929Y15196D01*
X4021Y15158D01*
X4121Y15157D01*
X4287Y15158D01*
X4350Y15220D01*
X4350Y13550D01*
X2740Y13550D01*
X2740Y14859D01*
X2740Y15387D01*
X2678Y15450D01*
X1950Y15450D01*
X1950Y14722D01*
X2012Y14659D01*
X2440Y14659D01*
X2540Y14659D01*
X2632Y14697D01*
X2702Y14768D01*
X2740Y14859D01*
X2740Y13550D01*
X1200Y13550D01*
X1200Y14684D01*
X1259Y14659D01*
X1359Y14659D01*
X1787Y14659D01*
X1850Y14722D01*
X1850Y15450D01*
X1842Y15450D01*
X1842Y15550D01*
X1850Y15550D01*
X1850Y15557D01*
X1950Y15557D01*
X1950Y15550D01*
X2678Y15550D01*
X2740Y15612D01*
X2740Y16140D01*
X2715Y16200D01*
X3899Y16200D01*
X3859Y16159D01*
X3821Y16067D01*
X3821Y15825D01*
X3884Y15763D01*
X4350Y15763D01*
X4350Y15770D01*
X4450Y15770D01*
X4450Y15763D01*
X4916Y15763D01*
X4978Y15825D01*
X4978Y16067D01*
X4940Y16159D01*
X4900Y16200D01*
X4918Y16200D01*
X7082Y14043D01*
X7083Y11330D01*
G54D10*
G36*
X7600Y15550D02*
X7499Y15550D01*
X7499Y16506D01*
X7148Y16858D01*
X7077Y16787D01*
X7077Y16929D01*
X6725Y17280D01*
X6625Y17246D01*
X6618Y17229D01*
X6614Y17240D01*
X6459Y17394D01*
X6257Y17478D01*
X6039Y17479D01*
X5836Y17395D01*
X5682Y17240D01*
X5598Y17038D01*
X5597Y16820D01*
X5681Y16617D01*
X5836Y16463D01*
X6038Y16379D01*
X6256Y16378D01*
X6459Y16462D01*
X6613Y16617D01*
X6618Y16627D01*
X6625Y16611D01*
X6725Y16577D01*
X7077Y16929D01*
X7077Y16787D01*
X6796Y16506D01*
X6830Y16406D01*
X7054Y16324D01*
X7292Y16334D01*
X7465Y16406D01*
X7499Y16506D01*
X7499Y15550D01*
X6170Y15550D01*
X5170Y16545D01*
X5170Y18008D01*
X5170Y18181D01*
X5107Y18244D01*
X4734Y18244D01*
X4734Y18236D01*
X4634Y18236D01*
X4634Y18244D01*
X4260Y18244D01*
X4198Y18181D01*
X4197Y18008D01*
X4235Y17916D01*
X4306Y17846D01*
X4349Y17827D01*
X4349Y17766D01*
X4287Y17829D01*
X4121Y17829D01*
X4021Y17828D01*
X3929Y17790D01*
X3859Y17720D01*
X3821Y17628D01*
X3821Y17386D01*
X3884Y17324D01*
X4350Y17324D01*
X4350Y17331D01*
X4450Y17331D01*
X4450Y17324D01*
X4916Y17324D01*
X4978Y17386D01*
X4978Y17628D01*
X4940Y17720D01*
X4870Y17790D01*
X4828Y17807D01*
X4870Y17807D01*
X4969Y17808D01*
X5061Y17846D01*
X5132Y17916D01*
X5170Y18008D01*
X5170Y16545D01*
X5166Y16548D01*
X4978Y16549D01*
X4978Y16919D01*
X4978Y17161D01*
X4916Y17224D01*
X4450Y17224D01*
X4450Y16781D01*
X4512Y16719D01*
X4678Y16718D01*
X4778Y16719D01*
X4870Y16757D01*
X4940Y16827D01*
X4978Y16919D01*
X4978Y16549D01*
X4350Y16549D01*
X4350Y16781D01*
X4350Y17224D01*
X3884Y17224D01*
X3821Y17161D01*
X3821Y16919D01*
X3859Y16827D01*
X3929Y16757D01*
X4021Y16719D01*
X4121Y16718D01*
X4287Y16719D01*
X4350Y16781D01*
X4350Y16549D01*
X2743Y16549D01*
X2743Y17348D01*
X2737Y17683D01*
X2621Y17962D01*
X2496Y18025D01*
X2425Y17954D01*
X2425Y18096D01*
X2362Y18221D01*
X2051Y18343D01*
X1716Y18337D01*
X1437Y18221D01*
X1374Y18096D01*
X1900Y17570D01*
X2425Y18096D01*
X2425Y17954D01*
X1970Y17500D01*
X2496Y16974D01*
X2621Y17037D01*
X2743Y17348D01*
X2743Y16549D01*
X2425Y16549D01*
X2425Y16903D01*
X1900Y17429D01*
X1374Y16903D01*
X1437Y16778D01*
X1748Y16656D01*
X2083Y16662D01*
X2362Y16778D01*
X2425Y16903D01*
X2425Y16549D01*
X1200Y16549D01*
X1200Y17026D01*
X1303Y16974D01*
X1829Y17500D01*
X1303Y18025D01*
X1200Y17973D01*
X1200Y18385D01*
X2784Y18385D01*
X2796Y18380D01*
X3002Y18379D01*
X3172Y18450D01*
X4197Y18450D01*
X4198Y18406D01*
X4260Y18344D01*
X4634Y18344D01*
X4634Y18351D01*
X4734Y18351D01*
X4734Y18344D01*
X5107Y18344D01*
X5170Y18406D01*
X5170Y18450D01*
X6879Y18450D01*
X7600Y17729D01*
X7600Y17323D01*
X7598Y17318D01*
X7597Y17271D01*
X7570Y17280D01*
X7499Y17209D01*
X7499Y17351D01*
X7465Y17451D01*
X7241Y17533D01*
X7003Y17523D01*
X6830Y17451D01*
X6796Y17351D01*
X7148Y16999D01*
X7499Y17351D01*
X7499Y17209D01*
X7218Y16929D01*
X7570Y16577D01*
X7597Y16586D01*
X7597Y16539D01*
X7600Y16534D01*
X7600Y16500D01*
X7600Y15550D01*
X7600Y15550D01*
G37*
G54D56*
X7600Y15550D02*
X7499Y15550D01*
X7499Y16506D01*
X7148Y16858D01*
X7077Y16787D01*
X7077Y16929D01*
X6725Y17280D01*
X6625Y17246D01*
X6618Y17229D01*
X6614Y17240D01*
X6459Y17394D01*
X6257Y17478D01*
X6039Y17479D01*
X5836Y17395D01*
X5682Y17240D01*
X5598Y17038D01*
X5597Y16820D01*
X5681Y16617D01*
X5836Y16463D01*
X6038Y16379D01*
X6256Y16378D01*
X6459Y16462D01*
X6613Y16617D01*
X6618Y16627D01*
X6625Y16611D01*
X6725Y16577D01*
X7077Y16929D01*
X7077Y16787D01*
X6796Y16506D01*
X6830Y16406D01*
X7054Y16324D01*
X7292Y16334D01*
X7465Y16406D01*
X7499Y16506D01*
X7499Y15550D01*
X6170Y15550D01*
X5170Y16545D01*
X5170Y18008D01*
X5170Y18181D01*
X5107Y18244D01*
X4734Y18244D01*
X4734Y18236D01*
X4634Y18236D01*
X4634Y18244D01*
X4260Y18244D01*
X4198Y18181D01*
X4197Y18008D01*
X4235Y17916D01*
X4306Y17846D01*
X4349Y17827D01*
X4349Y17766D01*
X4287Y17829D01*
X4121Y17829D01*
X4021Y17828D01*
X3929Y17790D01*
X3859Y17720D01*
X3821Y17628D01*
X3821Y17386D01*
X3884Y17324D01*
X4350Y17324D01*
X4350Y17331D01*
X4450Y17331D01*
X4450Y17324D01*
X4916Y17324D01*
X4978Y17386D01*
X4978Y17628D01*
X4940Y17720D01*
X4870Y17790D01*
X4828Y17807D01*
X4870Y17807D01*
X4969Y17808D01*
X5061Y17846D01*
X5132Y17916D01*
X5170Y18008D01*
X5170Y16545D01*
X5166Y16548D01*
X4978Y16549D01*
X4978Y16919D01*
X4978Y17161D01*
X4916Y17224D01*
X4450Y17224D01*
X4450Y16781D01*
X4512Y16719D01*
X4678Y16718D01*
X4778Y16719D01*
X4870Y16757D01*
X4940Y16827D01*
X4978Y16919D01*
X4978Y16549D01*
X4350Y16549D01*
X4350Y16781D01*
X4350Y17224D01*
X3884Y17224D01*
X3821Y17161D01*
X3821Y16919D01*
X3859Y16827D01*
X3929Y16757D01*
X4021Y16719D01*
X4121Y16718D01*
X4287Y16719D01*
X4350Y16781D01*
X4350Y16549D01*
X2743Y16549D01*
X2743Y17348D01*
X2737Y17683D01*
X2621Y17962D01*
X2496Y18025D01*
X2425Y17954D01*
X2425Y18096D01*
X2362Y18221D01*
X2051Y18343D01*
X1716Y18337D01*
X1437Y18221D01*
X1374Y18096D01*
X1900Y17570D01*
X2425Y18096D01*
X2425Y17954D01*
X1970Y17500D01*
X2496Y16974D01*
X2621Y17037D01*
X2743Y17348D01*
X2743Y16549D01*
X2425Y16549D01*
X2425Y16903D01*
X1900Y17429D01*
X1374Y16903D01*
X1437Y16778D01*
X1748Y16656D01*
X2083Y16662D01*
X2362Y16778D01*
X2425Y16903D01*
X2425Y16549D01*
X1200Y16549D01*
X1200Y17026D01*
X1303Y16974D01*
X1829Y17500D01*
X1303Y18025D01*
X1200Y17973D01*
X1200Y18385D01*
X2784Y18385D01*
X2796Y18380D01*
X3002Y18379D01*
X3172Y18450D01*
X4197Y18450D01*
X4198Y18406D01*
X4260Y18344D01*
X4634Y18344D01*
X4634Y18351D01*
X4734Y18351D01*
X4734Y18344D01*
X5107Y18344D01*
X5170Y18406D01*
X5170Y18450D01*
X6879Y18450D01*
X7600Y17729D01*
X7600Y17323D01*
X7598Y17318D01*
X7597Y17271D01*
X7570Y17280D01*
X7499Y17209D01*
X7499Y17351D01*
X7465Y17451D01*
X7241Y17533D01*
X7003Y17523D01*
X6830Y17451D01*
X6796Y17351D01*
X7148Y16999D01*
X7499Y17351D01*
X7499Y17209D01*
X7218Y16929D01*
X7570Y16577D01*
X7597Y16586D01*
X7597Y16539D01*
X7600Y16534D01*
X7600Y16500D01*
X7600Y15550D01*
G54D10*
G36*
X16580Y27557D02*
X16525Y27424D01*
X16525Y27370D01*
X14872Y27370D01*
X14872Y27765D01*
X14872Y27864D01*
X14834Y27956D01*
X14764Y28027D01*
X14672Y28065D01*
X14026Y28065D01*
X13964Y28002D01*
X13964Y27550D01*
X14810Y27550D01*
X14872Y27612D01*
X14872Y27765D01*
X14872Y27370D01*
X14872Y27370D01*
X14872Y27387D01*
X14810Y27450D01*
X13964Y27450D01*
X13964Y27442D01*
X13960Y27442D01*
X13960Y27933D01*
X13864Y27947D01*
X13864Y28002D01*
X13801Y28065D01*
X13200Y28065D01*
X13200Y28300D01*
X11970Y28290D01*
X11938Y28290D01*
X11926Y28294D01*
X11819Y28400D01*
X11819Y28970D01*
X12242Y28970D01*
X12290Y28950D01*
X12508Y28949D01*
X12557Y28970D01*
X13242Y28970D01*
X13290Y28950D01*
X13508Y28949D01*
X13557Y28970D01*
X14242Y28970D01*
X14290Y28950D01*
X14508Y28949D01*
X14557Y28970D01*
X15242Y28970D01*
X15290Y28950D01*
X15508Y28949D01*
X15557Y28970D01*
X16242Y28970D01*
X16290Y28950D01*
X16508Y28949D01*
X16557Y28970D01*
X16580Y28970D01*
X16580Y27557D01*
X16580Y27557D01*
G37*
G54D56*
X16580Y27557D02*
X16525Y27424D01*
X16525Y27370D01*
X14872Y27370D01*
X14872Y27765D01*
X14872Y27864D01*
X14834Y27956D01*
X14764Y28027D01*
X14672Y28065D01*
X14026Y28065D01*
X13964Y28002D01*
X13964Y27550D01*
X14810Y27550D01*
X14872Y27612D01*
X14872Y27765D01*
X14872Y27370D01*
X14872Y27370D01*
X14872Y27387D01*
X14810Y27450D01*
X13964Y27450D01*
X13964Y27442D01*
X13960Y27442D01*
X13960Y27933D01*
X13864Y27947D01*
X13864Y28002D01*
X13801Y28065D01*
X13200Y28065D01*
X13200Y28300D01*
X11970Y28290D01*
X11938Y28290D01*
X11926Y28294D01*
X11819Y28400D01*
X11819Y28970D01*
X12242Y28970D01*
X12290Y28950D01*
X12508Y28949D01*
X12557Y28970D01*
X13242Y28970D01*
X13290Y28950D01*
X13508Y28949D01*
X13557Y28970D01*
X14242Y28970D01*
X14290Y28950D01*
X14508Y28949D01*
X14557Y28970D01*
X15242Y28970D01*
X15290Y28950D01*
X15508Y28949D01*
X15557Y28970D01*
X16242Y28970D01*
X16290Y28950D01*
X16508Y28949D01*
X16557Y28970D01*
X16580Y28970D01*
X16580Y27557D01*
G54D10*
G36*
X18476Y29494D02*
X18405Y29423D01*
X18400Y29429D01*
X18394Y29423D01*
X18323Y29494D01*
X18329Y29500D01*
X18323Y29505D01*
X18394Y29576D01*
X18400Y29570D01*
X18405Y29576D01*
X18476Y29505D01*
X18470Y29500D01*
X18476Y29494D01*
X18476Y29494D01*
G37*
G54D56*
X18476Y29494D02*
X18405Y29423D01*
X18400Y29429D01*
X18394Y29423D01*
X18323Y29494D01*
X18329Y29500D01*
X18323Y29505D01*
X18394Y29576D01*
X18400Y29570D01*
X18405Y29576D01*
X18476Y29505D01*
X18470Y29500D01*
X18476Y29494D01*
G54D10*
G36*
X26850Y28786D02*
X26808Y28769D01*
X26738Y28698D01*
X26715Y28643D01*
X26715Y29114D01*
X26400Y29429D01*
X26084Y29114D01*
X26112Y29018D01*
X26318Y28945D01*
X26536Y28956D01*
X26687Y29018D01*
X26715Y29114D01*
X26715Y28643D01*
X26700Y28606D01*
X26699Y28507D01*
X26699Y28337D01*
X26709Y28314D01*
X26700Y28291D01*
X26699Y28192D01*
X26699Y28022D01*
X26709Y28000D01*
X26700Y27977D01*
X26699Y27878D01*
X26699Y27708D01*
X26709Y27685D01*
X26700Y27662D01*
X26699Y27563D01*
X26699Y27393D01*
X26737Y27301D01*
X26764Y27275D01*
X26764Y26724D01*
X26738Y26698D01*
X26700Y26606D01*
X26699Y26507D01*
X26699Y26337D01*
X26709Y26314D01*
X26700Y26291D01*
X26699Y26192D01*
X26699Y26022D01*
X26709Y26000D01*
X26700Y25977D01*
X26699Y25902D01*
X26691Y25895D01*
X26691Y27234D01*
X26691Y27765D01*
X26691Y27864D01*
X26653Y27956D01*
X26582Y28027D01*
X26491Y28065D01*
X25845Y28065D01*
X25783Y28002D01*
X25783Y27550D01*
X26629Y27550D01*
X26691Y27612D01*
X26691Y27765D01*
X26691Y27234D01*
X26691Y27387D01*
X26629Y27450D01*
X25783Y27450D01*
X25783Y26997D01*
X25845Y26935D01*
X26491Y26934D01*
X26582Y26972D01*
X26653Y27043D01*
X26691Y27135D01*
X26691Y27234D01*
X26691Y25895D01*
X26197Y25495D01*
X22657Y25495D01*
X22524Y25549D01*
X22375Y25550D01*
X22242Y25495D01*
X11862Y25495D01*
X11698Y25621D01*
X11698Y26997D01*
X11698Y27450D01*
X10852Y27450D01*
X10789Y27387D01*
X10789Y27234D01*
X10789Y27135D01*
X10827Y27043D01*
X10898Y26972D01*
X10990Y26934D01*
X11635Y26935D01*
X11698Y26997D01*
X11698Y25621D01*
X11094Y26086D01*
X11062Y26117D01*
X11042Y26126D01*
X10356Y26654D01*
X10356Y28714D01*
X10356Y28714D01*
X10356Y28714D01*
X10333Y28825D01*
X10271Y28920D01*
X10271Y28920D01*
X10205Y28985D01*
X10318Y28945D01*
X10536Y28956D01*
X10687Y29018D01*
X10715Y29114D01*
X10400Y29429D01*
X10394Y29423D01*
X10323Y29494D01*
X10329Y29500D01*
X10323Y29505D01*
X10394Y29576D01*
X10400Y29570D01*
X10405Y29576D01*
X10476Y29505D01*
X10470Y29500D01*
X10785Y29184D01*
X10850Y29203D01*
X10850Y27978D01*
X10827Y27956D01*
X10789Y27864D01*
X10789Y27765D01*
X10789Y27612D01*
X10852Y27550D01*
X11698Y27550D01*
X11698Y27557D01*
X11798Y27557D01*
X11798Y27550D01*
X11805Y27550D01*
X11805Y27450D01*
X11798Y27450D01*
X11798Y26997D01*
X11860Y26935D01*
X12506Y26934D01*
X12598Y26972D01*
X12600Y26974D01*
X12600Y26950D01*
X13119Y26950D01*
X13155Y26935D01*
X13255Y26934D01*
X14672Y26934D01*
X14708Y26950D01*
X17772Y26950D01*
X17808Y26934D01*
X18454Y26935D01*
X18517Y26997D01*
X18517Y27450D01*
X18509Y27450D01*
X18509Y27550D01*
X18517Y27550D01*
X18517Y28002D01*
X18454Y28065D01*
X17950Y28065D01*
X17950Y28939D01*
X18093Y29083D01*
X18112Y29018D01*
X18318Y28945D01*
X18536Y28956D01*
X18687Y29018D01*
X18715Y29114D01*
X18760Y29068D01*
X18779Y29088D01*
X19100Y28767D01*
X19100Y28065D01*
X18679Y28065D01*
X18617Y28002D01*
X18617Y27550D01*
X18624Y27550D01*
X18624Y27450D01*
X18617Y27450D01*
X18617Y26997D01*
X18679Y26935D01*
X19325Y26934D01*
X19361Y26950D01*
X19938Y26950D01*
X19974Y26935D01*
X20074Y26934D01*
X21491Y26934D01*
X21527Y26950D01*
X22772Y26950D01*
X22808Y26935D01*
X22908Y26934D01*
X24325Y26934D01*
X24361Y26950D01*
X24938Y26950D01*
X24974Y26934D01*
X25620Y26935D01*
X25683Y26997D01*
X25683Y27450D01*
X25675Y27450D01*
X25675Y27550D01*
X25683Y27550D01*
X25683Y28002D01*
X25620Y28065D01*
X25050Y28065D01*
X25050Y28230D01*
X25548Y28785D01*
X25735Y28972D01*
X25735Y28972D01*
X25789Y29052D01*
X25789Y29052D01*
X25930Y29208D01*
X26014Y29184D01*
X26329Y29500D01*
X26323Y29505D01*
X26394Y29576D01*
X26400Y29570D01*
X26405Y29576D01*
X26476Y29505D01*
X26470Y29500D01*
X26785Y29184D01*
X26850Y29203D01*
X26850Y28786D01*
X26850Y28786D01*
G37*
G54D56*
X26850Y28786D02*
X26808Y28769D01*
X26738Y28698D01*
X26715Y28643D01*
X26715Y29114D01*
X26400Y29429D01*
X26084Y29114D01*
X26112Y29018D01*
X26318Y28945D01*
X26536Y28956D01*
X26687Y29018D01*
X26715Y29114D01*
X26715Y28643D01*
X26700Y28606D01*
X26699Y28507D01*
X26699Y28337D01*
X26709Y28314D01*
X26700Y28291D01*
X26699Y28192D01*
X26699Y28022D01*
X26709Y28000D01*
X26700Y27977D01*
X26699Y27878D01*
X26699Y27708D01*
X26709Y27685D01*
X26700Y27662D01*
X26699Y27563D01*
X26699Y27393D01*
X26737Y27301D01*
X26764Y27275D01*
X26764Y26724D01*
X26738Y26698D01*
X26700Y26606D01*
X26699Y26507D01*
X26699Y26337D01*
X26709Y26314D01*
X26700Y26291D01*
X26699Y26192D01*
X26699Y26022D01*
X26709Y26000D01*
X26700Y25977D01*
X26699Y25902D01*
X26691Y25895D01*
X26691Y27234D01*
X26691Y27765D01*
X26691Y27864D01*
X26653Y27956D01*
X26582Y28027D01*
X26491Y28065D01*
X25845Y28065D01*
X25783Y28002D01*
X25783Y27550D01*
X26629Y27550D01*
X26691Y27612D01*
X26691Y27765D01*
X26691Y27234D01*
X26691Y27387D01*
X26629Y27450D01*
X25783Y27450D01*
X25783Y26997D01*
X25845Y26935D01*
X26491Y26934D01*
X26582Y26972D01*
X26653Y27043D01*
X26691Y27135D01*
X26691Y27234D01*
X26691Y25895D01*
X26197Y25495D01*
X22657Y25495D01*
X22524Y25549D01*
X22375Y25550D01*
X22242Y25495D01*
X11862Y25495D01*
X11698Y25621D01*
X11698Y26997D01*
X11698Y27450D01*
X10852Y27450D01*
X10789Y27387D01*
X10789Y27234D01*
X10789Y27135D01*
X10827Y27043D01*
X10898Y26972D01*
X10990Y26934D01*
X11635Y26935D01*
X11698Y26997D01*
X11698Y25621D01*
X11094Y26086D01*
X11062Y26117D01*
X11042Y26126D01*
X10356Y26654D01*
X10356Y28714D01*
X10356Y28714D01*
X10356Y28714D01*
X10333Y28825D01*
X10271Y28920D01*
X10271Y28920D01*
X10205Y28985D01*
X10318Y28945D01*
X10536Y28956D01*
X10687Y29018D01*
X10715Y29114D01*
X10400Y29429D01*
X10394Y29423D01*
X10323Y29494D01*
X10329Y29500D01*
X10323Y29505D01*
X10394Y29576D01*
X10400Y29570D01*
X10405Y29576D01*
X10476Y29505D01*
X10470Y29500D01*
X10785Y29184D01*
X10850Y29203D01*
X10850Y27978D01*
X10827Y27956D01*
X10789Y27864D01*
X10789Y27765D01*
X10789Y27612D01*
X10852Y27550D01*
X11698Y27550D01*
X11698Y27557D01*
X11798Y27557D01*
X11798Y27550D01*
X11805Y27550D01*
X11805Y27450D01*
X11798Y27450D01*
X11798Y26997D01*
X11860Y26935D01*
X12506Y26934D01*
X12598Y26972D01*
X12600Y26974D01*
X12600Y26950D01*
X13119Y26950D01*
X13155Y26935D01*
X13255Y26934D01*
X14672Y26934D01*
X14708Y26950D01*
X17772Y26950D01*
X17808Y26934D01*
X18454Y26935D01*
X18517Y26997D01*
X18517Y27450D01*
X18509Y27450D01*
X18509Y27550D01*
X18517Y27550D01*
X18517Y28002D01*
X18454Y28065D01*
X17950Y28065D01*
X17950Y28939D01*
X18093Y29083D01*
X18112Y29018D01*
X18318Y28945D01*
X18536Y28956D01*
X18687Y29018D01*
X18715Y29114D01*
X18760Y29068D01*
X18779Y29088D01*
X19100Y28767D01*
X19100Y28065D01*
X18679Y28065D01*
X18617Y28002D01*
X18617Y27550D01*
X18624Y27550D01*
X18624Y27450D01*
X18617Y27450D01*
X18617Y26997D01*
X18679Y26935D01*
X19325Y26934D01*
X19361Y26950D01*
X19938Y26950D01*
X19974Y26935D01*
X20074Y26934D01*
X21491Y26934D01*
X21527Y26950D01*
X22772Y26950D01*
X22808Y26935D01*
X22908Y26934D01*
X24325Y26934D01*
X24361Y26950D01*
X24938Y26950D01*
X24974Y26934D01*
X25620Y26935D01*
X25683Y26997D01*
X25683Y27450D01*
X25675Y27450D01*
X25675Y27550D01*
X25683Y27550D01*
X25683Y28002D01*
X25620Y28065D01*
X25050Y28065D01*
X25050Y28230D01*
X25548Y28785D01*
X25735Y28972D01*
X25735Y28972D01*
X25789Y29052D01*
X25789Y29052D01*
X25930Y29208D01*
X26014Y29184D01*
X26329Y29500D01*
X26323Y29505D01*
X26394Y29576D01*
X26400Y29570D01*
X26405Y29576D01*
X26476Y29505D01*
X26470Y29500D01*
X26785Y29184D01*
X26850Y29203D01*
X26850Y28786D01*
G54D10*
G36*
X33600Y6494D02*
X33562Y6456D01*
X33524Y6364D01*
X33524Y6265D01*
X33524Y5635D01*
X33525Y5633D01*
X33274Y5633D01*
X33275Y5635D01*
X33275Y5734D01*
X33275Y6265D01*
X33275Y6364D01*
X33237Y6456D01*
X33166Y6527D01*
X33075Y6565D01*
X32429Y6565D01*
X32367Y6502D01*
X32367Y6050D01*
X33213Y6050D01*
X33275Y6112D01*
X33275Y6265D01*
X33275Y5734D01*
X33275Y5887D01*
X33213Y5950D01*
X32367Y5950D01*
X32367Y5942D01*
X32267Y5942D01*
X32267Y5950D01*
X32267Y6050D01*
X32267Y6502D01*
X32204Y6565D01*
X31558Y6565D01*
X31467Y6527D01*
X31396Y6456D01*
X31358Y6364D01*
X31358Y6265D01*
X31358Y6112D01*
X31421Y6050D01*
X32267Y6050D01*
X32267Y5950D01*
X31421Y5950D01*
X31358Y5887D01*
X31358Y5734D01*
X31358Y5635D01*
X31359Y5633D01*
X28440Y5633D01*
X28441Y5635D01*
X28441Y5734D01*
X28441Y6364D01*
X28403Y6456D01*
X28333Y6526D01*
X28241Y6564D01*
X28141Y6565D01*
X26724Y6565D01*
X26633Y6527D01*
X26562Y6456D01*
X26524Y6364D01*
X26524Y6265D01*
X26524Y5635D01*
X26525Y5633D01*
X26274Y5633D01*
X26275Y5635D01*
X26275Y5734D01*
X26275Y6265D01*
X26275Y6364D01*
X26237Y6456D01*
X26166Y6527D01*
X26075Y6565D01*
X25429Y6565D01*
X25367Y6502D01*
X25367Y6050D01*
X26213Y6050D01*
X26275Y6112D01*
X26275Y6265D01*
X26275Y5734D01*
X26275Y5887D01*
X26213Y5950D01*
X25367Y5950D01*
X25367Y5942D01*
X25267Y5942D01*
X25267Y5950D01*
X25267Y6050D01*
X25267Y6502D01*
X25204Y6565D01*
X24558Y6565D01*
X24467Y6527D01*
X24396Y6456D01*
X24358Y6364D01*
X24358Y6265D01*
X24358Y6112D01*
X24421Y6050D01*
X25267Y6050D01*
X25267Y5950D01*
X24421Y5950D01*
X24358Y5887D01*
X24358Y5734D01*
X24358Y5635D01*
X24359Y5633D01*
X22440Y5633D01*
X22441Y5635D01*
X22441Y5734D01*
X22441Y6265D01*
X22441Y6364D01*
X22403Y6456D01*
X22332Y6527D01*
X22241Y6565D01*
X21595Y6565D01*
X21533Y6502D01*
X21533Y6050D01*
X22379Y6050D01*
X22441Y6112D01*
X22441Y6265D01*
X22441Y5734D01*
X22441Y5887D01*
X22379Y5950D01*
X21533Y5950D01*
X21533Y5942D01*
X21433Y5942D01*
X21433Y5950D01*
X21433Y6050D01*
X21433Y6502D01*
X21370Y6565D01*
X20724Y6565D01*
X20633Y6527D01*
X20562Y6456D01*
X20524Y6364D01*
X20524Y6265D01*
X20524Y6112D01*
X20587Y6050D01*
X21433Y6050D01*
X21433Y5950D01*
X20587Y5950D01*
X20524Y5887D01*
X20524Y5734D01*
X20524Y5635D01*
X20525Y5633D01*
X20274Y5633D01*
X20275Y5635D01*
X20275Y5734D01*
X20275Y6364D01*
X20237Y6456D01*
X20167Y6526D01*
X20075Y6564D01*
X19975Y6565D01*
X18558Y6565D01*
X18467Y6527D01*
X18396Y6456D01*
X18358Y6364D01*
X18358Y6265D01*
X18358Y5635D01*
X18393Y5550D01*
X17905Y5550D01*
X17864Y5649D01*
X17709Y5803D01*
X17507Y5887D01*
X17450Y5887D01*
X17450Y7200D01*
X19874Y7200D01*
X20303Y6771D01*
X20397Y6708D01*
X20508Y6686D01*
X29121Y6686D01*
X29148Y6658D01*
X29286Y6601D01*
X29435Y6601D01*
X29573Y6658D01*
X29648Y6732D01*
X29694Y6685D01*
X29694Y6647D01*
X29751Y6509D01*
X29857Y6404D01*
X29995Y6347D01*
X30144Y6346D01*
X30282Y6403D01*
X30363Y6485D01*
X30504Y6484D01*
X30642Y6541D01*
X30747Y6647D01*
X30804Y6785D01*
X30805Y6934D01*
X30748Y7072D01*
X30703Y7117D01*
X33600Y7117D01*
X33600Y6494D01*
X33600Y6494D01*
G37*
G54D56*
X33600Y6494D02*
X33562Y6456D01*
X33524Y6364D01*
X33524Y6265D01*
X33524Y5635D01*
X33525Y5633D01*
X33274Y5633D01*
X33275Y5635D01*
X33275Y5734D01*
X33275Y6265D01*
X33275Y6364D01*
X33237Y6456D01*
X33166Y6527D01*
X33075Y6565D01*
X32429Y6565D01*
X32367Y6502D01*
X32367Y6050D01*
X33213Y6050D01*
X33275Y6112D01*
X33275Y6265D01*
X33275Y5734D01*
X33275Y5887D01*
X33213Y5950D01*
X32367Y5950D01*
X32367Y5942D01*
X32267Y5942D01*
X32267Y5950D01*
X32267Y6050D01*
X32267Y6502D01*
X32204Y6565D01*
X31558Y6565D01*
X31467Y6527D01*
X31396Y6456D01*
X31358Y6364D01*
X31358Y6265D01*
X31358Y6112D01*
X31421Y6050D01*
X32267Y6050D01*
X32267Y5950D01*
X31421Y5950D01*
X31358Y5887D01*
X31358Y5734D01*
X31358Y5635D01*
X31359Y5633D01*
X28440Y5633D01*
X28441Y5635D01*
X28441Y5734D01*
X28441Y6364D01*
X28403Y6456D01*
X28333Y6526D01*
X28241Y6564D01*
X28141Y6565D01*
X26724Y6565D01*
X26633Y6527D01*
X26562Y6456D01*
X26524Y6364D01*
X26524Y6265D01*
X26524Y5635D01*
X26525Y5633D01*
X26274Y5633D01*
X26275Y5635D01*
X26275Y5734D01*
X26275Y6265D01*
X26275Y6364D01*
X26237Y6456D01*
X26166Y6527D01*
X26075Y6565D01*
X25429Y6565D01*
X25367Y6502D01*
X25367Y6050D01*
X26213Y6050D01*
X26275Y6112D01*
X26275Y6265D01*
X26275Y5734D01*
X26275Y5887D01*
X26213Y5950D01*
X25367Y5950D01*
X25367Y5942D01*
X25267Y5942D01*
X25267Y5950D01*
X25267Y6050D01*
X25267Y6502D01*
X25204Y6565D01*
X24558Y6565D01*
X24467Y6527D01*
X24396Y6456D01*
X24358Y6364D01*
X24358Y6265D01*
X24358Y6112D01*
X24421Y6050D01*
X25267Y6050D01*
X25267Y5950D01*
X24421Y5950D01*
X24358Y5887D01*
X24358Y5734D01*
X24358Y5635D01*
X24359Y5633D01*
X22440Y5633D01*
X22441Y5635D01*
X22441Y5734D01*
X22441Y6265D01*
X22441Y6364D01*
X22403Y6456D01*
X22332Y6527D01*
X22241Y6565D01*
X21595Y6565D01*
X21533Y6502D01*
X21533Y6050D01*
X22379Y6050D01*
X22441Y6112D01*
X22441Y6265D01*
X22441Y5734D01*
X22441Y5887D01*
X22379Y5950D01*
X21533Y5950D01*
X21533Y5942D01*
X21433Y5942D01*
X21433Y5950D01*
X21433Y6050D01*
X21433Y6502D01*
X21370Y6565D01*
X20724Y6565D01*
X20633Y6527D01*
X20562Y6456D01*
X20524Y6364D01*
X20524Y6265D01*
X20524Y6112D01*
X20587Y6050D01*
X21433Y6050D01*
X21433Y5950D01*
X20587Y5950D01*
X20524Y5887D01*
X20524Y5734D01*
X20524Y5635D01*
X20525Y5633D01*
X20274Y5633D01*
X20275Y5635D01*
X20275Y5734D01*
X20275Y6364D01*
X20237Y6456D01*
X20167Y6526D01*
X20075Y6564D01*
X19975Y6565D01*
X18558Y6565D01*
X18467Y6527D01*
X18396Y6456D01*
X18358Y6364D01*
X18358Y6265D01*
X18358Y5635D01*
X18393Y5550D01*
X17905Y5550D01*
X17864Y5649D01*
X17709Y5803D01*
X17507Y5887D01*
X17450Y5887D01*
X17450Y7200D01*
X19874Y7200D01*
X20303Y6771D01*
X20397Y6708D01*
X20508Y6686D01*
X29121Y6686D01*
X29148Y6658D01*
X29286Y6601D01*
X29435Y6601D01*
X29573Y6658D01*
X29648Y6732D01*
X29694Y6685D01*
X29694Y6647D01*
X29751Y6509D01*
X29857Y6404D01*
X29995Y6347D01*
X30144Y6346D01*
X30282Y6403D01*
X30363Y6485D01*
X30504Y6484D01*
X30642Y6541D01*
X30747Y6647D01*
X30804Y6785D01*
X30805Y6934D01*
X30748Y7072D01*
X30703Y7117D01*
X33600Y7117D01*
X33600Y6494D01*
G54D10*
G36*
X24600Y27300D02*
X24525Y27300D01*
X24525Y27765D01*
X24525Y27864D01*
X24487Y27956D01*
X24416Y28027D01*
X24325Y28065D01*
X23679Y28065D01*
X23617Y28002D01*
X23617Y27550D01*
X24463Y27550D01*
X24525Y27612D01*
X24525Y27765D01*
X24525Y27300D01*
X24525Y27300D01*
X24525Y27387D01*
X24463Y27450D01*
X23617Y27450D01*
X23617Y27442D01*
X23517Y27442D01*
X23517Y27450D01*
X23517Y27550D01*
X23517Y28002D01*
X23454Y28065D01*
X22808Y28065D01*
X22717Y28027D01*
X22646Y27956D01*
X22608Y27864D01*
X22608Y27765D01*
X22608Y27612D01*
X22671Y27550D01*
X23517Y27550D01*
X23517Y27450D01*
X22671Y27450D01*
X22608Y27387D01*
X22608Y27300D01*
X21691Y27300D01*
X21691Y27765D01*
X21691Y27864D01*
X21653Y27956D01*
X21582Y28027D01*
X21491Y28065D01*
X20845Y28065D01*
X20783Y28002D01*
X20783Y27550D01*
X21629Y27550D01*
X21691Y27612D01*
X21691Y27765D01*
X21691Y27300D01*
X21691Y27300D01*
X21691Y27387D01*
X21629Y27450D01*
X20783Y27450D01*
X20783Y27442D01*
X20683Y27442D01*
X20683Y27450D01*
X20675Y27450D01*
X20675Y27550D01*
X20683Y27550D01*
X20683Y28002D01*
X20620Y28065D01*
X20299Y28065D01*
X20324Y28125D01*
X20325Y28274D01*
X20268Y28412D01*
X20200Y28480D01*
X20200Y28948D01*
X20230Y28946D01*
X24600Y28949D01*
X24600Y27300D01*
X24600Y27300D01*
G37*
G54D56*
X24600Y27300D02*
X24525Y27300D01*
X24525Y27765D01*
X24525Y27864D01*
X24487Y27956D01*
X24416Y28027D01*
X24325Y28065D01*
X23679Y28065D01*
X23617Y28002D01*
X23617Y27550D01*
X24463Y27550D01*
X24525Y27612D01*
X24525Y27765D01*
X24525Y27300D01*
X24525Y27300D01*
X24525Y27387D01*
X24463Y27450D01*
X23617Y27450D01*
X23617Y27442D01*
X23517Y27442D01*
X23517Y27450D01*
X23517Y27550D01*
X23517Y28002D01*
X23454Y28065D01*
X22808Y28065D01*
X22717Y28027D01*
X22646Y27956D01*
X22608Y27864D01*
X22608Y27765D01*
X22608Y27612D01*
X22671Y27550D01*
X23517Y27550D01*
X23517Y27450D01*
X22671Y27450D01*
X22608Y27387D01*
X22608Y27300D01*
X21691Y27300D01*
X21691Y27765D01*
X21691Y27864D01*
X21653Y27956D01*
X21582Y28027D01*
X21491Y28065D01*
X20845Y28065D01*
X20783Y28002D01*
X20783Y27550D01*
X21629Y27550D01*
X21691Y27612D01*
X21691Y27765D01*
X21691Y27300D01*
X21691Y27300D01*
X21691Y27387D01*
X21629Y27450D01*
X20783Y27450D01*
X20783Y27442D01*
X20683Y27442D01*
X20683Y27450D01*
X20675Y27450D01*
X20675Y27550D01*
X20683Y27550D01*
X20683Y28002D01*
X20620Y28065D01*
X20299Y28065D01*
X20324Y28125D01*
X20325Y28274D01*
X20268Y28412D01*
X20200Y28480D01*
X20200Y28948D01*
X20230Y28946D01*
X24600Y28949D01*
X24600Y27300D01*
G54D10*
G36*
X34319Y32692D02*
X34300Y32673D01*
X34300Y32260D01*
X34307Y32260D01*
X34307Y32160D01*
X34300Y32160D01*
X34300Y32152D01*
X34200Y32152D01*
X34200Y32160D01*
X34200Y32260D01*
X34200Y32673D01*
X34137Y32735D01*
X34082Y32735D01*
X34000Y32701D01*
X33917Y32735D01*
X33862Y32735D01*
X33800Y32673D01*
X33800Y32260D01*
X33944Y32260D01*
X34055Y32260D01*
X34200Y32260D01*
X34200Y32160D01*
X34055Y32160D01*
X33944Y32160D01*
X33800Y32160D01*
X33800Y32152D01*
X33700Y32152D01*
X33700Y32160D01*
X33700Y32260D01*
X33700Y32673D01*
X33637Y32735D01*
X33582Y32735D01*
X33500Y32701D01*
X33417Y32735D01*
X33362Y32735D01*
X33300Y32673D01*
X33300Y32260D01*
X33444Y32260D01*
X33555Y32260D01*
X33700Y32260D01*
X33700Y32160D01*
X33555Y32160D01*
X33444Y32160D01*
X33300Y32160D01*
X33300Y32152D01*
X33200Y32152D01*
X33200Y32160D01*
X33200Y32260D01*
X33200Y32673D01*
X33137Y32735D01*
X33082Y32735D01*
X33000Y32701D01*
X32917Y32735D01*
X32862Y32735D01*
X32800Y32673D01*
X32800Y32260D01*
X32944Y32260D01*
X33055Y32260D01*
X33200Y32260D01*
X33200Y32160D01*
X33055Y32160D01*
X32944Y32160D01*
X32800Y32160D01*
X32800Y32152D01*
X32700Y32152D01*
X32700Y32160D01*
X32700Y32260D01*
X32700Y32673D01*
X32637Y32735D01*
X32582Y32735D01*
X32490Y32697D01*
X32420Y32627D01*
X32382Y32535D01*
X32381Y32435D01*
X32382Y32322D01*
X32444Y32260D01*
X32700Y32260D01*
X32700Y32160D01*
X32444Y32160D01*
X32382Y32097D01*
X32381Y31984D01*
X32382Y31884D01*
X32420Y31792D01*
X32490Y31722D01*
X32554Y31695D01*
X32533Y31645D01*
X32500Y31667D01*
X32390Y31690D01*
X32140Y31690D01*
X32112Y31717D01*
X31974Y31774D01*
X31825Y31775D01*
X31687Y31718D01*
X31582Y31612D01*
X31525Y31474D01*
X31525Y31426D01*
X31167Y31426D01*
X30003Y30265D01*
X24159Y30265D01*
X24159Y31729D01*
X25540Y33109D01*
X25540Y35289D01*
X29909Y35280D01*
X31452Y33736D01*
X31453Y33661D01*
X31515Y33599D01*
X31590Y33599D01*
X31690Y33499D01*
X31515Y33499D01*
X31453Y33436D01*
X31452Y33324D01*
X31490Y33232D01*
X31561Y33162D01*
X31653Y33124D01*
X31752Y33123D01*
X31865Y33124D01*
X31928Y33186D01*
X31928Y33370D01*
X32028Y33370D01*
X32028Y33186D01*
X32090Y33124D01*
X32203Y33123D01*
X32302Y33124D01*
X32394Y33162D01*
X32465Y33232D01*
X32503Y33324D01*
X32503Y33370D01*
X34319Y33370D01*
X34319Y32692D01*
X34319Y32692D01*
G37*
G54D56*
X34319Y32692D02*
X34300Y32673D01*
X34300Y32260D01*
X34307Y32260D01*
X34307Y32160D01*
X34300Y32160D01*
X34300Y32152D01*
X34200Y32152D01*
X34200Y32160D01*
X34200Y32260D01*
X34200Y32673D01*
X34137Y32735D01*
X34082Y32735D01*
X34000Y32701D01*
X33917Y32735D01*
X33862Y32735D01*
X33800Y32673D01*
X33800Y32260D01*
X33944Y32260D01*
X34055Y32260D01*
X34200Y32260D01*
X34200Y32160D01*
X34055Y32160D01*
X33944Y32160D01*
X33800Y32160D01*
X33800Y32152D01*
X33700Y32152D01*
X33700Y32160D01*
X33700Y32260D01*
X33700Y32673D01*
X33637Y32735D01*
X33582Y32735D01*
X33500Y32701D01*
X33417Y32735D01*
X33362Y32735D01*
X33300Y32673D01*
X33300Y32260D01*
X33444Y32260D01*
X33555Y32260D01*
X33700Y32260D01*
X33700Y32160D01*
X33555Y32160D01*
X33444Y32160D01*
X33300Y32160D01*
X33300Y32152D01*
X33200Y32152D01*
X33200Y32160D01*
X33200Y32260D01*
X33200Y32673D01*
X33137Y32735D01*
X33082Y32735D01*
X33000Y32701D01*
X32917Y32735D01*
X32862Y32735D01*
X32800Y32673D01*
X32800Y32260D01*
X32944Y32260D01*
X33055Y32260D01*
X33200Y32260D01*
X33200Y32160D01*
X33055Y32160D01*
X32944Y32160D01*
X32800Y32160D01*
X32800Y32152D01*
X32700Y32152D01*
X32700Y32160D01*
X32700Y32260D01*
X32700Y32673D01*
X32637Y32735D01*
X32582Y32735D01*
X32490Y32697D01*
X32420Y32627D01*
X32382Y32535D01*
X32381Y32435D01*
X32382Y32322D01*
X32444Y32260D01*
X32700Y32260D01*
X32700Y32160D01*
X32444Y32160D01*
X32382Y32097D01*
X32381Y31984D01*
X32382Y31884D01*
X32420Y31792D01*
X32490Y31722D01*
X32554Y31695D01*
X32533Y31645D01*
X32500Y31667D01*
X32390Y31690D01*
X32140Y31690D01*
X32112Y31717D01*
X31974Y31774D01*
X31825Y31775D01*
X31687Y31718D01*
X31582Y31612D01*
X31525Y31474D01*
X31525Y31426D01*
X31167Y31426D01*
X30003Y30265D01*
X24159Y30265D01*
X24159Y31729D01*
X25540Y33109D01*
X25540Y35289D01*
X29909Y35280D01*
X31452Y33736D01*
X31453Y33661D01*
X31515Y33599D01*
X31590Y33599D01*
X31690Y33499D01*
X31515Y33499D01*
X31453Y33436D01*
X31452Y33324D01*
X31490Y33232D01*
X31561Y33162D01*
X31653Y33124D01*
X31752Y33123D01*
X31865Y33124D01*
X31928Y33186D01*
X31928Y33370D01*
X32028Y33370D01*
X32028Y33186D01*
X32090Y33124D01*
X32203Y33123D01*
X32302Y33124D01*
X32394Y33162D01*
X32465Y33232D01*
X32503Y33324D01*
X32503Y33370D01*
X34319Y33370D01*
X34319Y32692D01*
G54D10*
G36*
X10835Y14065D02*
X9474Y14065D01*
X9383Y14027D01*
X9312Y13956D01*
X9274Y13864D01*
X9274Y13765D01*
X9274Y13135D01*
X9312Y13043D01*
X9382Y12973D01*
X9474Y12935D01*
X9574Y12934D01*
X9758Y12934D01*
X9758Y12279D01*
X9599Y12121D01*
X9576Y12177D01*
X9505Y12247D01*
X9414Y12285D01*
X9025Y12285D01*
X9025Y13234D01*
X9025Y13765D01*
X9025Y13864D01*
X8987Y13956D01*
X8916Y14027D01*
X8825Y14065D01*
X8379Y14065D01*
X8317Y14002D01*
X8317Y13657D01*
X8963Y13657D01*
X9025Y13720D01*
X9025Y13765D01*
X9025Y13234D01*
X9025Y13280D01*
X8963Y13342D01*
X8317Y13342D01*
X8317Y12997D01*
X8379Y12935D01*
X8825Y12934D01*
X8916Y12972D01*
X8987Y13043D01*
X9025Y13135D01*
X9025Y13234D01*
X9025Y12285D01*
X8712Y12285D01*
X8650Y12223D01*
X8650Y11341D01*
X8657Y11341D01*
X8657Y10841D01*
X8650Y10841D01*
X8650Y10833D01*
X8150Y10833D01*
X8150Y10841D01*
X8142Y10841D01*
X8142Y11341D01*
X8150Y11341D01*
X8150Y12223D01*
X8087Y12285D01*
X7450Y12285D01*
X7450Y12934D01*
X7754Y12935D01*
X7817Y12997D01*
X7817Y13342D01*
X7809Y13342D01*
X7809Y13657D01*
X7817Y13657D01*
X7817Y14002D01*
X7754Y14065D01*
X7450Y14065D01*
X7450Y15200D01*
X7950Y15200D01*
X7950Y16328D01*
X8547Y16328D01*
X8639Y16366D01*
X8709Y16437D01*
X8747Y16529D01*
X8748Y16628D01*
X8748Y17328D01*
X8710Y17420D01*
X8676Y17454D01*
X8695Y17473D01*
X8753Y17415D01*
X8845Y17377D01*
X8944Y17376D01*
X9294Y17376D01*
X9386Y17414D01*
X9456Y17485D01*
X9494Y17577D01*
X9494Y17612D01*
X10673Y17612D01*
X10694Y17591D01*
X10832Y17534D01*
X10835Y17534D01*
X10835Y14065D01*
X10835Y14065D01*
G37*
G54D56*
X10835Y14065D02*
X9474Y14065D01*
X9383Y14027D01*
X9312Y13956D01*
X9274Y13864D01*
X9274Y13765D01*
X9274Y13135D01*
X9312Y13043D01*
X9382Y12973D01*
X9474Y12935D01*
X9574Y12934D01*
X9758Y12934D01*
X9758Y12279D01*
X9599Y12121D01*
X9576Y12177D01*
X9505Y12247D01*
X9414Y12285D01*
X9025Y12285D01*
X9025Y13234D01*
X9025Y13765D01*
X9025Y13864D01*
X8987Y13956D01*
X8916Y14027D01*
X8825Y14065D01*
X8379Y14065D01*
X8317Y14002D01*
X8317Y13657D01*
X8963Y13657D01*
X9025Y13720D01*
X9025Y13765D01*
X9025Y13234D01*
X9025Y13280D01*
X8963Y13342D01*
X8317Y13342D01*
X8317Y12997D01*
X8379Y12935D01*
X8825Y12934D01*
X8916Y12972D01*
X8987Y13043D01*
X9025Y13135D01*
X9025Y13234D01*
X9025Y12285D01*
X8712Y12285D01*
X8650Y12223D01*
X8650Y11341D01*
X8657Y11341D01*
X8657Y10841D01*
X8650Y10841D01*
X8650Y10833D01*
X8150Y10833D01*
X8150Y10841D01*
X8142Y10841D01*
X8142Y11341D01*
X8150Y11341D01*
X8150Y12223D01*
X8087Y12285D01*
X7450Y12285D01*
X7450Y12934D01*
X7754Y12935D01*
X7817Y12997D01*
X7817Y13342D01*
X7809Y13342D01*
X7809Y13657D01*
X7817Y13657D01*
X7817Y14002D01*
X7754Y14065D01*
X7450Y14065D01*
X7450Y15200D01*
X7950Y15200D01*
X7950Y16328D01*
X8547Y16328D01*
X8639Y16366D01*
X8709Y16437D01*
X8747Y16529D01*
X8748Y16628D01*
X8748Y17328D01*
X8710Y17420D01*
X8676Y17454D01*
X8695Y17473D01*
X8753Y17415D01*
X8845Y17377D01*
X8944Y17376D01*
X9294Y17376D01*
X9386Y17414D01*
X9456Y17485D01*
X9494Y17577D01*
X9494Y17612D01*
X10673Y17612D01*
X10694Y17591D01*
X10832Y17534D01*
X10835Y17534D01*
X10835Y14065D01*
G54D10*
G36*
X11350Y1065D02*
X11034Y1065D01*
X9465Y2634D01*
X9465Y5112D01*
X9662Y5309D01*
X9799Y5640D01*
X9800Y5998D01*
X9663Y6329D01*
X9465Y6527D01*
X9465Y7530D01*
X9421Y7746D01*
X9421Y7746D01*
X9299Y7930D01*
X9024Y8204D01*
X9114Y8204D01*
X9201Y8241D01*
X9288Y8277D01*
X9422Y8410D01*
X9458Y8498D01*
X9494Y8585D01*
X9495Y8680D01*
X9495Y8774D01*
X9495Y8774D01*
X9495Y9206D01*
X9458Y9387D01*
X9355Y9541D01*
X9355Y9541D01*
X9334Y9563D01*
X9334Y9761D01*
X9296Y9853D01*
X9254Y9896D01*
X9414Y9896D01*
X9505Y9934D01*
X9576Y10004D01*
X9614Y10096D01*
X9614Y10195D01*
X9614Y10613D01*
X10049Y10178D01*
X10049Y9850D01*
X10087Y9758D01*
X10158Y9688D01*
X10204Y9668D01*
X10041Y9505D01*
X10086Y9459D01*
X10072Y9452D01*
X10039Y9216D01*
X10072Y9047D01*
X10158Y9005D01*
X10402Y9250D01*
X10343Y9308D01*
X10591Y9556D01*
X10650Y9497D01*
X10708Y9556D01*
X10956Y9308D01*
X10897Y9250D01*
X11141Y9005D01*
X11227Y9047D01*
X11260Y9283D01*
X11227Y9452D01*
X11213Y9459D01*
X11258Y9505D01*
X11095Y9668D01*
X11141Y9687D01*
X11211Y9758D01*
X11249Y9850D01*
X11250Y9920D01*
X11350Y9920D01*
X11350Y7999D01*
X11349Y7891D01*
X11350Y7890D01*
X11350Y6682D01*
X11349Y6633D01*
X11349Y5767D01*
X11350Y5767D01*
X11350Y4946D01*
X11260Y4857D01*
X11166Y4763D01*
X11099Y4662D01*
X11099Y4662D01*
X11011Y4603D01*
X10900Y4437D01*
X10894Y4445D01*
X10894Y8758D01*
X10650Y9002D01*
X10405Y8758D01*
X10447Y8672D01*
X10683Y8639D01*
X10852Y8672D01*
X10894Y8758D01*
X10894Y4445D01*
X10788Y4603D01*
X10610Y4722D01*
X10402Y4764D01*
X10400Y4764D01*
X10189Y4722D01*
X10011Y4603D01*
X9891Y4425D01*
X9850Y4214D01*
X9850Y3785D01*
X9891Y3574D01*
X10011Y3396D01*
X10189Y3277D01*
X10400Y3235D01*
X10610Y3277D01*
X10788Y3396D01*
X10900Y3562D01*
X11011Y3396D01*
X11115Y3326D01*
X11075Y3266D01*
X11050Y3140D01*
X11050Y2810D01*
X11075Y2683D01*
X11146Y2576D01*
X11350Y2373D01*
X11350Y1249D01*
X11349Y1141D01*
X11350Y1140D01*
X11350Y1065D01*
X11350Y1065D01*
G37*
G54D56*
X11350Y1065D02*
X11034Y1065D01*
X9465Y2634D01*
X9465Y5112D01*
X9662Y5309D01*
X9799Y5640D01*
X9800Y5998D01*
X9663Y6329D01*
X9465Y6527D01*
X9465Y7530D01*
X9421Y7746D01*
X9421Y7746D01*
X9299Y7930D01*
X9024Y8204D01*
X9114Y8204D01*
X9201Y8241D01*
X9288Y8277D01*
X9422Y8410D01*
X9458Y8498D01*
X9494Y8585D01*
X9495Y8680D01*
X9495Y8774D01*
X9495Y8774D01*
X9495Y9206D01*
X9458Y9387D01*
X9355Y9541D01*
X9355Y9541D01*
X9334Y9563D01*
X9334Y9761D01*
X9296Y9853D01*
X9254Y9896D01*
X9414Y9896D01*
X9505Y9934D01*
X9576Y10004D01*
X9614Y10096D01*
X9614Y10195D01*
X9614Y10613D01*
X10049Y10178D01*
X10049Y9850D01*
X10087Y9758D01*
X10158Y9688D01*
X10204Y9668D01*
X10041Y9505D01*
X10086Y9459D01*
X10072Y9452D01*
X10039Y9216D01*
X10072Y9047D01*
X10158Y9005D01*
X10402Y9250D01*
X10343Y9308D01*
X10591Y9556D01*
X10650Y9497D01*
X10708Y9556D01*
X10956Y9308D01*
X10897Y9250D01*
X11141Y9005D01*
X11227Y9047D01*
X11260Y9283D01*
X11227Y9452D01*
X11213Y9459D01*
X11258Y9505D01*
X11095Y9668D01*
X11141Y9687D01*
X11211Y9758D01*
X11249Y9850D01*
X11250Y9920D01*
X11350Y9920D01*
X11350Y7999D01*
X11349Y7891D01*
X11350Y7890D01*
X11350Y6682D01*
X11349Y6633D01*
X11349Y5767D01*
X11350Y5767D01*
X11350Y4946D01*
X11260Y4857D01*
X11166Y4763D01*
X11099Y4662D01*
X11099Y4662D01*
X11011Y4603D01*
X10900Y4437D01*
X10894Y4445D01*
X10894Y8758D01*
X10650Y9002D01*
X10405Y8758D01*
X10447Y8672D01*
X10683Y8639D01*
X10852Y8672D01*
X10894Y8758D01*
X10894Y4445D01*
X10788Y4603D01*
X10610Y4722D01*
X10402Y4764D01*
X10400Y4764D01*
X10189Y4722D01*
X10011Y4603D01*
X9891Y4425D01*
X9850Y4214D01*
X9850Y3785D01*
X9891Y3574D01*
X10011Y3396D01*
X10189Y3277D01*
X10400Y3235D01*
X10610Y3277D01*
X10788Y3396D01*
X10900Y3562D01*
X11011Y3396D01*
X11115Y3326D01*
X11075Y3266D01*
X11050Y3140D01*
X11050Y2810D01*
X11075Y2683D01*
X11146Y2576D01*
X11350Y2373D01*
X11350Y1249D01*
X11349Y1141D01*
X11350Y1140D01*
X11350Y1065D01*
M02*
