G04 (created by PCBNEW (2013-07-07 BZR 4022)-stable) date 03/10/2013 01:20:31*
%MOIN*%
G04 Gerber Fmt 3.4, Leading zero omitted, Abs format*
%FSLAX34Y34*%
G01*
G70*
G90*
G04 APERTURE LIST*
%ADD10C,0.00590551*%
%ADD11C,0.015*%
%ADD12C,0.06*%
%ADD13R,0.06X0.06*%
%ADD14C,0.0787*%
%ADD15C,0.07*%
%ADD16R,0.07X0.07*%
%ADD17O,0.06X0.1*%
%ADD18C,0.125*%
%ADD19R,0.1181X0.1181*%
%ADD20C,0.1181*%
%ADD21R,0.06X0.0866*%
%ADD22O,0.06X0.0866*%
%ADD23R,0.0787X0.06*%
%ADD24O,0.0787X0.06*%
%ADD25R,0.0984X0.055*%
%ADD26R,0.0866X0.06*%
%ADD27O,0.0866X0.06*%
%ADD28C,0.13*%
%ADD29C,0.149*%
%ADD30C,0.12*%
%ADD31C,0.0944882*%
%ADD32R,0.0944882X0.0944882*%
%ADD33C,0.025*%
%ADD34C,0.045*%
%ADD35C,0.008*%
%ADD36C,0.045*%
%ADD37C,0.015748*%
%ADD38C,0.09*%
%ADD39C,0.01*%
G04 APERTURE END LIST*
G54D10*
G54D11*
X355Y10142D02*
X355Y9158D01*
X355Y9158D02*
X453Y9158D01*
X453Y9158D02*
X453Y10142D01*
X453Y10142D02*
X552Y10142D01*
X552Y10142D02*
X552Y9355D01*
X552Y9355D02*
X650Y9355D01*
X650Y9355D02*
X650Y9847D01*
X650Y9847D02*
X748Y9847D01*
X748Y9847D02*
X748Y9256D01*
X748Y9256D02*
X847Y9256D01*
X847Y9256D02*
X847Y10044D01*
X847Y10044D02*
X945Y10044D01*
X945Y10044D02*
X945Y9256D01*
X10892Y3195D02*
X9908Y3195D01*
X9908Y3195D02*
X9908Y3097D01*
X9908Y3097D02*
X10892Y3097D01*
X10892Y3097D02*
X10892Y2998D01*
X10892Y2998D02*
X10105Y2998D01*
X10105Y2998D02*
X10105Y2900D01*
X10105Y2900D02*
X10597Y2900D01*
X10597Y2900D02*
X10597Y2802D01*
X10597Y2802D02*
X10006Y2802D01*
X10006Y2802D02*
X10006Y2703D01*
X10006Y2703D02*
X10794Y2703D01*
X10794Y2703D02*
X10794Y2605D01*
X10794Y2605D02*
X10006Y2605D01*
G54D12*
X18900Y8000D03*
X17900Y8000D03*
X16900Y8000D03*
X15900Y8000D03*
X14900Y8000D03*
X13900Y8000D03*
X12900Y8000D03*
X11900Y8000D03*
X11900Y3000D03*
X12900Y3000D03*
X13900Y3000D03*
X14900Y3000D03*
X15900Y3000D03*
X16900Y3000D03*
X17900Y3000D03*
X18900Y3000D03*
X26900Y8000D03*
X25900Y8000D03*
X24900Y8000D03*
X23900Y8000D03*
X22900Y8000D03*
X21900Y8000D03*
X20900Y8000D03*
X19900Y8000D03*
X19900Y3000D03*
X20900Y3000D03*
X21900Y3000D03*
X22900Y3000D03*
X23900Y3000D03*
X24900Y3000D03*
X25900Y3000D03*
X26900Y3000D03*
X34900Y8000D03*
X33900Y8000D03*
X32900Y8000D03*
X31900Y8000D03*
X30900Y8000D03*
X29900Y8000D03*
X28900Y8000D03*
X27900Y8000D03*
X27900Y3000D03*
X28900Y3000D03*
X29900Y3000D03*
X30900Y3000D03*
X31900Y3000D03*
X32900Y3000D03*
X33900Y3000D03*
X34900Y3000D03*
X10400Y24500D03*
X11400Y24500D03*
X12400Y24500D03*
X13400Y24500D03*
X14400Y24500D03*
X15400Y24500D03*
X16400Y24500D03*
X17400Y24500D03*
X17400Y29500D03*
X16400Y29500D03*
X15400Y29500D03*
X14400Y29500D03*
X13400Y29500D03*
X12400Y29500D03*
X11400Y29500D03*
X10400Y29500D03*
X18400Y24500D03*
X19400Y24500D03*
X20400Y24500D03*
X21400Y24500D03*
X22400Y24500D03*
X23400Y24500D03*
X24400Y24500D03*
X25400Y24500D03*
X25400Y29500D03*
X24400Y29500D03*
X23400Y29500D03*
X22400Y29500D03*
X21400Y29500D03*
X20400Y29500D03*
X19400Y29500D03*
X18400Y29500D03*
G54D13*
X32400Y34500D03*
G54D12*
X32400Y33500D03*
X32400Y32500D03*
X32400Y31500D03*
G54D13*
X17900Y10000D03*
G54D12*
X17900Y9000D03*
X16900Y10000D03*
X16900Y9000D03*
X15900Y10000D03*
X15900Y9000D03*
G54D13*
X11400Y20750D03*
G54D12*
X11400Y21750D03*
X12400Y20750D03*
X12400Y21750D03*
X13400Y20750D03*
X13400Y21750D03*
G54D13*
X26900Y20750D03*
G54D12*
X26900Y21750D03*
X27900Y20750D03*
X27900Y21750D03*
X28900Y20750D03*
X28900Y21750D03*
G54D13*
X33900Y10000D03*
G54D12*
X33900Y9000D03*
X32900Y10000D03*
X32900Y9000D03*
X31900Y10000D03*
X31900Y9000D03*
G54D13*
X25900Y10000D03*
G54D12*
X25900Y9000D03*
X24900Y10000D03*
X24900Y9000D03*
X23900Y10000D03*
X23900Y9000D03*
G54D13*
X18900Y33500D03*
G54D12*
X18900Y32500D03*
X18900Y31500D03*
G54D13*
X33400Y31500D03*
G54D12*
X33400Y32500D03*
X33400Y33500D03*
G54D13*
X35400Y31500D03*
G54D12*
X35400Y32500D03*
X35400Y33500D03*
G54D13*
X36400Y31500D03*
G54D12*
X36400Y32500D03*
X36400Y33500D03*
G54D13*
X37400Y31500D03*
G54D12*
X37400Y32500D03*
X37400Y33500D03*
G54D13*
X38400Y31500D03*
G54D12*
X38400Y32500D03*
X38400Y33500D03*
G54D13*
X19900Y33500D03*
G54D12*
X19900Y32500D03*
X19900Y31500D03*
G54D13*
X34400Y31500D03*
G54D12*
X34400Y32500D03*
X34400Y33500D03*
G54D13*
X17900Y33500D03*
G54D12*
X17900Y32500D03*
X17900Y31500D03*
G54D13*
X16900Y33500D03*
G54D12*
X16900Y32500D03*
X16900Y31500D03*
G54D13*
X34400Y1250D03*
G54D14*
X7900Y13000D03*
X7900Y9000D03*
X11650Y6500D03*
X15650Y6500D03*
G54D15*
X7150Y16500D03*
X6150Y16500D03*
G54D16*
X8150Y16500D03*
G54D15*
X7650Y26000D03*
X6650Y26000D03*
G54D16*
X8650Y26000D03*
G54D15*
X7150Y20000D03*
X6150Y20000D03*
G54D16*
X8150Y20000D03*
G54D17*
X26400Y23000D03*
X27400Y23000D03*
X28400Y23000D03*
X29400Y23000D03*
X30400Y23000D03*
X31400Y23000D03*
X32400Y23000D03*
X33400Y23000D03*
X35400Y4000D03*
X34400Y4000D03*
X33400Y4000D03*
X32400Y4000D03*
X28400Y4000D03*
X26400Y4000D03*
X25400Y4000D03*
X29400Y4000D03*
X30400Y4000D03*
X31400Y4000D03*
X24400Y4000D03*
X23400Y4000D03*
X22400Y4000D03*
X19400Y4000D03*
X20400Y4000D03*
X21400Y4000D03*
X17400Y4000D03*
X16400Y4000D03*
X15400Y4000D03*
X13400Y4000D03*
X12400Y4000D03*
X24400Y23000D03*
X23400Y23000D03*
X22400Y23000D03*
X21400Y23000D03*
X20400Y23000D03*
X19400Y23000D03*
X18400Y23000D03*
X17400Y23000D03*
X15800Y23000D03*
X14800Y23000D03*
X13800Y23000D03*
X12800Y23000D03*
X11800Y23000D03*
X10800Y23000D03*
X9800Y23000D03*
X8800Y23000D03*
X14400Y4000D03*
G54D18*
X37400Y4000D03*
X5400Y23000D03*
X4900Y4000D03*
G54D12*
X36400Y22000D03*
X37400Y22000D03*
X36400Y21000D03*
X37400Y21000D03*
X36400Y20000D03*
X37400Y20000D03*
X36400Y19000D03*
X37400Y19000D03*
X36400Y23000D03*
X37400Y23000D03*
X37400Y18000D03*
X36400Y18000D03*
X36400Y17000D03*
X37400Y17000D03*
X36400Y16000D03*
X37400Y16000D03*
X36400Y15000D03*
X37400Y15000D03*
X36400Y14000D03*
X37400Y14000D03*
X36400Y13000D03*
X37400Y13000D03*
X36400Y12000D03*
X37400Y12000D03*
X36400Y11000D03*
X37400Y11000D03*
X36400Y10000D03*
X37400Y10000D03*
X36400Y9000D03*
X37400Y9000D03*
X36400Y8000D03*
X37400Y8000D03*
X36400Y7000D03*
X37400Y7000D03*
X36400Y6000D03*
X37400Y6000D03*
G54D17*
X7800Y23000D03*
X6800Y23000D03*
X11400Y4000D03*
X10400Y4000D03*
G54D15*
X7650Y29000D03*
X6650Y29000D03*
G54D16*
X8650Y29000D03*
G54D19*
X1900Y5500D03*
G54D20*
X1900Y7500D03*
G54D13*
X17900Y1250D03*
G54D12*
X16900Y1250D03*
X15900Y1250D03*
X14900Y1250D03*
G54D13*
X24900Y1250D03*
G54D12*
X23900Y1250D03*
X22900Y1250D03*
X21900Y1250D03*
G54D13*
X32900Y1250D03*
G54D12*
X31900Y1250D03*
X30900Y1250D03*
X29900Y1250D03*
G54D13*
X10900Y32500D03*
G54D12*
X11900Y32500D03*
X12900Y32500D03*
X13900Y32500D03*
G54D21*
X11900Y5250D03*
G54D22*
X12900Y5250D03*
X13900Y5250D03*
G54D23*
X38498Y24500D03*
G54D24*
X37302Y24500D03*
X38498Y25500D03*
X37302Y25500D03*
X38498Y26500D03*
X37302Y26500D03*
X38498Y27500D03*
X37302Y27500D03*
G54D19*
X1900Y15500D03*
G54D20*
X1900Y17500D03*
G54D19*
X1900Y1500D03*
G54D20*
X1900Y3500D03*
G54D19*
X1900Y10500D03*
G54D20*
X1900Y12500D03*
G54D25*
X36121Y614D03*
X36121Y2386D03*
X38680Y614D03*
X38680Y2386D03*
G54D13*
X37400Y30000D03*
G54D12*
X38400Y30000D03*
G54D13*
X21900Y32500D03*
G54D12*
X22900Y32500D03*
X23900Y32500D03*
X24900Y32500D03*
G54D13*
X26900Y32500D03*
G54D12*
X27900Y32500D03*
X28900Y32500D03*
X29900Y32500D03*
X26400Y24500D03*
X27400Y24500D03*
X28400Y24500D03*
X29400Y24500D03*
X30400Y24500D03*
X31400Y24500D03*
X32400Y24500D03*
X33400Y24500D03*
X33400Y29500D03*
X32400Y29500D03*
X31400Y29500D03*
X30400Y29500D03*
X29400Y29500D03*
X28400Y29500D03*
X27400Y29500D03*
X26400Y29500D03*
G54D13*
X18900Y20750D03*
G54D12*
X18900Y21750D03*
X19900Y20750D03*
X19900Y21750D03*
X20900Y20750D03*
X20900Y21750D03*
G54D23*
X24302Y15000D03*
G54D24*
X25498Y15000D03*
X24302Y14000D03*
X25498Y14000D03*
X24302Y13000D03*
X25498Y13000D03*
G54D26*
X34900Y29500D03*
G54D27*
X34900Y28500D03*
X34900Y27500D03*
X34900Y26500D03*
X34900Y25500D03*
X34900Y24500D03*
G54D26*
X15900Y34500D03*
G54D27*
X15900Y33500D03*
X15900Y32500D03*
X15900Y31500D03*
G54D21*
X14150Y11250D03*
G54D22*
X13150Y11250D03*
X12150Y11250D03*
G54D13*
X15650Y5250D03*
G54D12*
X16650Y5250D03*
G54D15*
X12150Y9500D03*
G54D16*
X13150Y9500D03*
G54D15*
X14150Y9500D03*
G54D13*
X30900Y13000D03*
G54D12*
X29900Y13000D03*
X30900Y14000D03*
X29900Y14000D03*
X30900Y15000D03*
X29900Y15000D03*
X30900Y16000D03*
X29900Y16000D03*
X30900Y17000D03*
X29900Y17000D03*
G54D26*
X35900Y29500D03*
G54D27*
X35900Y28500D03*
X35900Y27500D03*
X35900Y26500D03*
X35900Y25500D03*
X35900Y24500D03*
G54D13*
X12900Y1250D03*
G54D12*
X11900Y1250D03*
G54D28*
X5900Y2180D03*
X8900Y820D03*
G54D29*
X7400Y1500D03*
G54D28*
X5900Y7180D03*
X8900Y5820D03*
G54D29*
X7400Y6500D03*
G54D28*
X4720Y10250D03*
X6080Y13250D03*
G54D29*
X5400Y11750D03*
G54D13*
X1650Y30750D03*
G54D12*
X1650Y31750D03*
G54D13*
X1650Y33000D03*
G54D12*
X1650Y34000D03*
G54D26*
X38400Y6000D03*
G54D27*
X38400Y7000D03*
X38400Y8000D03*
X38400Y9000D03*
X38400Y10000D03*
X38400Y11000D03*
X38400Y12000D03*
X38400Y13000D03*
X38400Y14000D03*
X38400Y15000D03*
X38400Y16000D03*
X38400Y17000D03*
X38400Y18000D03*
X38400Y19000D03*
X38400Y20000D03*
X38400Y21000D03*
X38400Y22000D03*
X38400Y23000D03*
G54D13*
X33400Y18000D03*
G54D12*
X34400Y18000D03*
X33400Y17000D03*
X34400Y17000D03*
X33400Y16000D03*
X34400Y16000D03*
X33400Y15000D03*
X34400Y15000D03*
X33400Y14000D03*
X34400Y14000D03*
X33400Y13000D03*
X34400Y13000D03*
G54D21*
X37400Y29000D03*
G54D22*
X38400Y29000D03*
G54D14*
X650Y10142D03*
X650Y9158D03*
X10892Y2900D03*
X9908Y2900D03*
G54D30*
X34900Y23000D03*
G54D31*
X1675Y21488D03*
G54D32*
X1675Y20111D03*
G54D31*
X1675Y25238D03*
G54D32*
X1675Y23861D03*
G54D31*
X1675Y28988D03*
G54D32*
X1675Y27611D03*
G54D33*
X17520Y14471D03*
X14462Y7629D03*
X33395Y19052D03*
X35731Y20785D03*
X23400Y28062D03*
X29886Y6413D03*
X35758Y6569D03*
X15077Y13720D03*
X32651Y27324D03*
X22911Y18174D03*
G54D34*
X8450Y32050D03*
X28556Y1343D03*
X18567Y26879D03*
G54D33*
X16068Y26716D03*
X16429Y23812D03*
X16626Y22175D03*
X26791Y15663D03*
X9620Y28292D03*
X9550Y19150D03*
X11345Y17173D03*
X11831Y17330D03*
X8466Y21514D03*
X16700Y17868D03*
X15338Y12956D03*
X14970Y18003D03*
X11660Y17835D03*
X9368Y23629D03*
X10725Y23874D03*
X9829Y30061D03*
X15731Y26778D03*
X17889Y25910D03*
X22808Y22077D03*
X24834Y19617D03*
X38710Y28260D03*
X16674Y15157D03*
X21568Y15107D03*
X16296Y17746D03*
X15259Y14212D03*
X25566Y11144D03*
X34114Y10687D03*
X21333Y7332D03*
X22207Y6458D03*
X21214Y5450D03*
X28736Y8856D03*
X18355Y10763D03*
X29180Y14695D03*
X28844Y10596D03*
X31148Y8816D03*
X26021Y17116D03*
X18379Y20589D03*
X26710Y17469D03*
X19764Y19942D03*
X23703Y18709D03*
X20016Y19699D03*
X24981Y17436D03*
X28590Y12644D03*
X17284Y21807D03*
X30914Y17745D03*
X30345Y17429D03*
X22331Y15209D03*
X16257Y12412D03*
X36942Y21420D03*
X33478Y20461D03*
X32617Y19981D03*
X27159Y21289D03*
X25519Y23675D03*
X34850Y12164D03*
X18671Y12976D03*
X17504Y12862D03*
X34883Y10734D03*
X28881Y11247D03*
X34221Y12474D03*
X15079Y14500D03*
X14778Y15500D03*
X35329Y19000D03*
X23375Y14831D03*
X25874Y12288D03*
X35250Y12806D03*
X35302Y16309D03*
X32970Y10674D03*
X6000Y29650D03*
X6000Y26050D03*
X8852Y26564D03*
X13698Y25627D03*
X22337Y18560D03*
X20261Y20238D03*
X15220Y21939D03*
X14788Y27534D03*
X16408Y25228D03*
X22727Y18591D03*
X9550Y29550D03*
X16292Y21706D03*
X16845Y20110D03*
X30225Y10846D03*
X27690Y16504D03*
X31858Y14417D03*
X7844Y27577D03*
G54D34*
X7250Y31500D03*
X18500Y6900D03*
X24350Y6900D03*
X32300Y6900D03*
G54D33*
X25958Y25610D03*
X22966Y21765D03*
X24248Y17436D03*
X38624Y23965D03*
X37755Y20397D03*
X31170Y19140D03*
X29748Y17843D03*
X23202Y12104D03*
X26518Y8896D03*
X27399Y9863D03*
X28031Y15694D03*
X33768Y30094D03*
X26546Y18852D03*
X27189Y19228D03*
X28653Y18975D03*
X30006Y19751D03*
X35151Y20856D03*
X36441Y24009D03*
X36636Y30563D03*
X27887Y26723D03*
X38820Y30580D03*
X31689Y32587D03*
X28900Y29050D03*
X23527Y14367D03*
X26356Y15559D03*
X28995Y18177D03*
X31943Y21998D03*
X8650Y30000D03*
X37440Y3001D03*
X36101Y1819D03*
X27479Y8294D03*
X15184Y16500D03*
X28729Y18436D03*
X29582Y19244D03*
X38968Y18284D03*
X39024Y27208D03*
X23784Y15710D03*
X35444Y1733D03*
X32855Y21968D03*
X29554Y18599D03*
X26193Y19809D03*
X22943Y28060D03*
X14659Y26796D03*
X26100Y26250D03*
X31650Y32200D03*
X15868Y28937D03*
X17530Y28935D03*
X19487Y27773D03*
X21822Y28066D03*
X31582Y14693D03*
X23661Y21633D03*
X18670Y11174D03*
X19866Y13681D03*
X20025Y4620D03*
X19912Y15407D03*
X17263Y2569D03*
X12652Y6764D03*
X15818Y10514D03*
X18240Y17189D03*
X28247Y25609D03*
X26921Y25986D03*
X32751Y25995D03*
X30400Y23994D03*
X33650Y22122D03*
X9655Y24500D03*
X10400Y20400D03*
X11326Y7628D03*
X29493Y26436D03*
X28928Y24029D03*
X30091Y22381D03*
X30065Y20641D03*
X33052Y20369D03*
X35071Y18000D03*
X33993Y25654D03*
X22784Y6360D03*
X16306Y15314D03*
X25196Y11738D03*
X35245Y12401D03*
X27726Y4133D03*
X19288Y6369D03*
X30037Y27557D03*
X30323Y20899D03*
X31576Y20592D03*
X28420Y26365D03*
X26600Y23890D03*
X29877Y21339D03*
X29747Y20476D03*
X28014Y4780D03*
X25600Y5564D03*
X16454Y15662D03*
X23222Y12783D03*
X35278Y11297D03*
X30332Y28431D03*
X27960Y24054D03*
X31781Y21080D03*
X35098Y17104D03*
X34560Y19755D03*
X31515Y27366D03*
X17388Y12384D03*
X18150Y12564D03*
X34929Y11810D03*
X30201Y7508D03*
G54D35*
X38240Y31079D02*
X38400Y31079D01*
X37820Y30659D02*
X38240Y31079D01*
X37820Y23420D02*
X37820Y30659D01*
X37820Y30659D02*
X37400Y31079D01*
X38400Y31500D02*
X38400Y31079D01*
X37400Y31289D02*
X37400Y31079D01*
X36400Y31500D02*
X35400Y31500D01*
X34400Y31500D02*
X33400Y31500D01*
X14320Y4700D02*
X14400Y4620D01*
X14320Y5250D02*
X14320Y4700D01*
X13900Y5250D02*
X14320Y5250D01*
X14400Y4000D02*
X14400Y4620D01*
X37400Y23000D02*
X37820Y23420D01*
X14511Y7579D02*
X14462Y7629D01*
X15084Y7579D02*
X14511Y7579D01*
X15479Y7974D02*
X15084Y7579D01*
X15479Y9181D02*
X15479Y7974D01*
X15798Y9500D02*
X15479Y9181D01*
X15994Y9500D02*
X15798Y9500D01*
X16320Y9825D02*
X15994Y9500D01*
X16320Y10648D02*
X16320Y9825D01*
X17143Y11472D02*
X16320Y10648D01*
X17143Y14094D02*
X17143Y11472D01*
X17520Y14471D02*
X17143Y14094D01*
X33395Y18424D02*
X33395Y19052D01*
X33400Y18420D02*
X33395Y18424D01*
X35800Y22050D02*
X36400Y23000D01*
X35731Y20785D02*
X35800Y22050D01*
X33400Y18000D02*
X33400Y18420D01*
X37400Y31500D02*
X37400Y31289D01*
X37030Y31289D02*
X36820Y31500D01*
X37400Y31289D02*
X37030Y31289D01*
X36400Y31500D02*
X36820Y31500D01*
X31550Y32850D02*
X31550Y33650D01*
X31550Y33650D02*
X32400Y34500D01*
X31979Y31300D02*
X31979Y29920D01*
X31979Y29920D02*
X32400Y29500D01*
X33900Y10000D02*
X33900Y10420D01*
X12900Y5250D02*
X12900Y3000D01*
X22900Y9000D02*
X22900Y8000D01*
X23900Y10000D02*
X22900Y9000D01*
X28900Y5427D02*
X29886Y6413D01*
X28900Y3000D02*
X28900Y5427D01*
X13900Y8000D02*
X14900Y8000D01*
X33900Y10000D02*
X33900Y9579D01*
X23400Y24500D02*
X23400Y28062D01*
X35736Y6569D02*
X35758Y6569D01*
X34434Y7871D02*
X35736Y6569D01*
X34434Y9059D02*
X34434Y7871D01*
X33914Y9579D02*
X34434Y9059D01*
X33900Y9579D02*
X33914Y9579D01*
X14900Y9000D02*
X14900Y8000D01*
X15900Y10000D02*
X14900Y9000D01*
X14129Y14668D02*
X15077Y13720D01*
X14129Y20020D02*
X14129Y14668D01*
X14129Y20020D02*
X14129Y20020D01*
X13400Y20750D02*
X14129Y20020D01*
X14359Y24459D02*
X14400Y24500D01*
X14359Y21709D02*
X14359Y24459D01*
X13400Y20750D02*
X14359Y21709D01*
X31400Y26072D02*
X32651Y27324D01*
X31400Y24500D02*
X31400Y26072D01*
X30900Y9000D02*
X30900Y8000D01*
X31900Y10000D02*
X30900Y9000D01*
X22973Y18236D02*
X22911Y18174D01*
X22973Y18718D02*
X22973Y18236D01*
X20921Y20771D02*
X22973Y18718D01*
X21835Y21685D02*
X20921Y20771D01*
X21835Y23935D02*
X21835Y21685D01*
X22400Y24500D02*
X21835Y23935D01*
X20921Y20771D02*
X20900Y20750D01*
X15077Y10822D02*
X15900Y10000D01*
X15077Y13720D02*
X15077Y10822D01*
X30400Y24384D02*
X30400Y24500D01*
X29845Y23829D02*
X30400Y24384D01*
X29845Y21695D02*
X29845Y23829D01*
X28900Y20750D02*
X29845Y21695D01*
X24820Y29079D02*
X24400Y29500D01*
X26580Y29079D02*
X24820Y29079D01*
X26900Y29398D02*
X26580Y29079D01*
X26900Y29594D02*
X26900Y29398D01*
X28892Y31587D02*
X26900Y29594D01*
X29588Y31587D02*
X28892Y31587D01*
X30851Y32850D02*
X29588Y31587D01*
X31979Y32850D02*
X31550Y32850D01*
X31550Y32850D02*
X30851Y32850D01*
X31979Y32850D02*
X31979Y31300D01*
X31979Y31300D02*
X31979Y31295D01*
X33869Y10450D02*
X33900Y10420D01*
X33869Y12469D02*
X33869Y10450D01*
X34400Y13000D02*
X33869Y12469D01*
G54D36*
X10278Y17571D02*
X11200Y16650D01*
X10278Y17571D02*
X9100Y18750D01*
X4450Y32050D02*
X8450Y32050D01*
X3100Y30700D02*
X4450Y32050D01*
X3100Y20800D02*
X3100Y30700D01*
X5150Y18750D02*
X3100Y20800D01*
X9100Y18750D02*
X5150Y18750D01*
X10850Y11450D02*
X10850Y7198D01*
X11200Y11800D02*
X10850Y11450D01*
X11200Y16650D02*
X11200Y11800D01*
X17477Y27969D02*
X18567Y26879D01*
X11930Y27969D02*
X17477Y27969D01*
X10400Y29500D02*
X11930Y27969D01*
X29255Y644D02*
X28556Y1343D01*
X34827Y644D02*
X29255Y644D01*
X35013Y831D02*
X34827Y644D01*
X35013Y2886D02*
X35013Y831D01*
X34900Y3000D02*
X35013Y2886D01*
X10278Y7198D02*
X8900Y5820D01*
X10850Y7198D02*
X10278Y7198D01*
X15939Y7198D02*
X10850Y7198D01*
X18332Y4805D02*
X15939Y7198D01*
X18332Y3567D02*
X18332Y4805D01*
X18900Y3000D02*
X18332Y3567D01*
X12150Y9500D02*
X12150Y11250D01*
G54D35*
X16626Y22175D02*
X16626Y22175D01*
X16626Y21528D02*
X16626Y22175D01*
X21366Y16788D02*
X16626Y21528D01*
X21663Y16788D02*
X21366Y16788D01*
X21992Y16459D02*
X21663Y16788D01*
X25996Y16459D02*
X21992Y16459D01*
X26791Y15663D02*
X25996Y16459D01*
X15843Y26326D02*
X15761Y26408D01*
X15843Y24398D02*
X15843Y26326D01*
X16429Y23812D02*
X15843Y24398D01*
X16068Y26716D02*
X15761Y26408D01*
X10865Y27046D02*
X9620Y28292D01*
X14766Y27046D02*
X10865Y27046D01*
X15404Y26408D02*
X14766Y27046D01*
X15761Y26408D02*
X15404Y26408D01*
X10550Y18250D02*
X10450Y18250D01*
X10450Y18250D02*
X9550Y19150D01*
X10550Y18250D02*
X11345Y17454D01*
X11345Y17454D02*
X11345Y17173D01*
X11802Y17330D02*
X11831Y17330D01*
X8466Y20666D02*
X11802Y17330D01*
X8466Y21514D02*
X8466Y20666D01*
X16700Y17868D02*
X16700Y17868D01*
X16700Y17030D02*
X16700Y17868D01*
X15644Y15975D02*
X16700Y17030D01*
X15644Y13262D02*
X15644Y15975D01*
X15338Y12956D02*
X15644Y13262D01*
X17979Y24920D02*
X18400Y24500D01*
X17207Y24920D02*
X17979Y24920D01*
X16900Y24612D02*
X17207Y24920D01*
X16900Y23046D02*
X16900Y24612D01*
X14970Y21117D02*
X16900Y23046D01*
X14970Y18003D02*
X14970Y21117D01*
X10400Y24200D02*
X10725Y23874D01*
X10400Y24500D02*
X10400Y24200D01*
X11532Y17835D02*
X11660Y17835D01*
X9368Y19999D02*
X11532Y17835D01*
X9368Y23629D02*
X9368Y19999D01*
X15731Y26778D02*
X15303Y27206D01*
X15303Y27206D02*
X12088Y27206D01*
X12088Y27206D02*
X9829Y29315D01*
X9829Y29315D02*
X9829Y30061D01*
X23211Y21239D02*
X24834Y19617D01*
X23211Y21867D02*
X23211Y21239D01*
X23001Y22077D02*
X23211Y21867D01*
X22808Y22077D02*
X23001Y22077D01*
X16816Y26983D02*
X17889Y25910D01*
X15936Y26983D02*
X16816Y26983D01*
X15731Y26778D02*
X15936Y26983D01*
G54D37*
X15650Y5250D02*
X15650Y6500D01*
X14150Y9500D02*
X14150Y11250D01*
G54D35*
X38067Y2720D02*
X38067Y614D01*
X39275Y3928D02*
X38067Y2720D01*
X39275Y27695D02*
X39275Y3928D01*
X38710Y28260D02*
X39275Y27695D01*
X38680Y614D02*
X38373Y614D01*
X38373Y614D02*
X38067Y614D01*
X38067Y614D02*
X36120Y614D01*
X18930Y8030D02*
X18900Y8000D01*
X18930Y13432D02*
X18930Y8030D01*
X17206Y15157D02*
X18930Y13432D01*
X16674Y15157D02*
X17206Y15157D01*
X26900Y9769D02*
X26900Y8000D01*
X26093Y10576D02*
X26900Y9769D01*
X25304Y10576D02*
X26093Y10576D01*
X23502Y12378D02*
X25304Y10576D01*
X23054Y12378D02*
X23502Y12378D01*
X21568Y13863D02*
X23054Y12378D01*
X21568Y15107D02*
X21568Y13863D01*
X34900Y9902D02*
X34900Y8000D01*
X34114Y10687D02*
X34900Y9902D01*
X15484Y16934D02*
X16296Y17746D01*
X15484Y14436D02*
X15484Y16934D01*
X15259Y14212D02*
X15484Y14436D01*
X16296Y17810D02*
X16296Y17746D01*
X16614Y18128D02*
X16296Y17810D01*
X18111Y18128D02*
X16614Y18128D01*
X19832Y16407D02*
X18111Y18128D01*
X21479Y16407D02*
X19832Y16407D01*
X22726Y15161D02*
X21479Y16407D01*
X22726Y13646D02*
X22726Y15161D01*
X25227Y11144D02*
X22726Y13646D01*
X25566Y11144D02*
X25227Y11144D01*
X21214Y5465D02*
X22207Y6458D01*
X21214Y5450D02*
X21214Y5465D01*
X21333Y7332D02*
X21333Y7332D01*
X27832Y7332D02*
X21333Y7332D01*
X28338Y7838D02*
X27832Y7332D01*
X28338Y8109D02*
X28338Y7838D01*
X29476Y9247D02*
X28338Y8109D01*
X29476Y13174D02*
X29476Y9247D01*
X29768Y13467D02*
X29476Y13174D01*
X30140Y13467D02*
X29768Y13467D01*
X30673Y14000D02*
X30140Y13467D01*
X30900Y14000D02*
X30673Y14000D01*
X24400Y4000D02*
X24400Y3379D01*
X18355Y7752D02*
X18355Y10763D01*
X17826Y7222D02*
X18355Y7752D01*
X17826Y6426D02*
X17826Y7222D01*
X19824Y4428D02*
X17826Y6426D01*
X19824Y3537D02*
X19824Y4428D01*
X19466Y3179D02*
X19824Y3537D01*
X19466Y2821D02*
X19466Y3179D01*
X19726Y2561D02*
X19466Y2821D01*
X23056Y2561D02*
X19726Y2561D01*
X23343Y2849D02*
X23056Y2561D01*
X23343Y3056D02*
X23343Y2849D01*
X23727Y3441D02*
X23343Y3056D01*
X24097Y3441D02*
X23727Y3441D01*
X24158Y3379D02*
X24097Y3441D01*
X24400Y3379D02*
X24158Y3379D01*
X29315Y9436D02*
X28736Y8856D01*
X29315Y13415D02*
X29315Y9436D01*
X29900Y14000D02*
X29315Y13415D01*
X25400Y4000D02*
X25400Y4620D01*
X26580Y4620D02*
X25400Y4620D01*
X27400Y3801D02*
X26580Y4620D01*
X27400Y2897D02*
X27400Y3801D01*
X27721Y2575D02*
X27400Y2897D01*
X29092Y2575D02*
X27721Y2575D01*
X29400Y2883D02*
X29092Y2575D01*
X29400Y3186D02*
X29400Y2883D01*
X29956Y3743D02*
X29400Y3186D01*
X29956Y4371D02*
X29956Y3743D01*
X30813Y5228D02*
X29956Y4371D01*
X31117Y5228D02*
X30813Y5228D01*
X32662Y6772D02*
X31117Y5228D01*
X32662Y7026D02*
X32662Y6772D01*
X32301Y7387D02*
X32662Y7026D01*
X30917Y7387D02*
X32301Y7387D01*
X30476Y7828D02*
X30917Y7387D01*
X30476Y9833D02*
X30476Y7828D01*
X32113Y11470D02*
X30476Y9833D01*
X32113Y14508D02*
X32113Y11470D01*
X31622Y15000D02*
X32113Y14508D01*
X30900Y15000D02*
X31622Y15000D01*
X26400Y2892D02*
X26400Y4000D01*
X26897Y2395D02*
X26400Y2892D01*
X29911Y2395D02*
X26897Y2395D01*
X30400Y2883D02*
X29911Y2395D01*
X30400Y3186D02*
X30400Y2883D01*
X30956Y3743D02*
X30400Y3186D01*
X30956Y4721D02*
X30956Y3743D01*
X32846Y6611D02*
X30956Y4721D01*
X32846Y7091D02*
X32846Y6611D01*
X32363Y7574D02*
X32846Y7091D01*
X31702Y7574D02*
X32363Y7574D01*
X31400Y7877D02*
X31702Y7574D01*
X31400Y8565D02*
X31400Y7877D01*
X31148Y8816D02*
X31400Y8565D01*
X29141Y10893D02*
X28844Y10596D01*
X29141Y14656D02*
X29141Y10893D01*
X29180Y14695D02*
X29141Y14656D01*
X34400Y5986D02*
X34400Y4000D01*
X33399Y6987D02*
X34400Y5986D01*
X33399Y10097D02*
X33399Y6987D01*
X33072Y10424D02*
X33399Y10097D01*
X32873Y10424D02*
X33072Y10424D01*
X32725Y10572D02*
X32873Y10424D01*
X32725Y14366D02*
X32725Y10572D01*
X31091Y16000D02*
X32725Y14366D01*
X30900Y16000D02*
X31091Y16000D01*
X35400Y4000D02*
X35400Y3379D01*
X35122Y3379D02*
X35400Y3379D01*
X35060Y3441D02*
X35122Y3379D01*
X34691Y3441D02*
X35060Y3441D01*
X34611Y3361D02*
X34691Y3441D01*
X34222Y3361D02*
X34611Y3361D01*
X33837Y3746D02*
X34222Y3361D01*
X33837Y5680D02*
X33837Y3746D01*
X33141Y6376D02*
X33837Y5680D01*
X33141Y7161D02*
X33141Y6376D01*
X32464Y7839D02*
X33141Y7161D01*
X32464Y14387D02*
X32464Y7839D01*
X31428Y15423D02*
X32464Y14387D01*
X30476Y15423D02*
X31428Y15423D01*
X29900Y16000D02*
X30476Y15423D01*
G54D37*
X17400Y4000D02*
X17400Y4620D01*
X16770Y5250D02*
X16650Y5250D01*
X17400Y4620D02*
X16770Y5250D01*
G54D35*
X18379Y20482D02*
X18379Y20589D01*
X21271Y17589D02*
X18379Y20482D01*
X21602Y17589D02*
X21271Y17589D01*
X22160Y17031D02*
X21602Y17589D01*
X25936Y17031D02*
X22160Y17031D01*
X26021Y17116D02*
X25936Y17031D01*
X19764Y19593D02*
X19764Y19942D01*
X21608Y17749D02*
X19764Y19593D01*
X21721Y17749D02*
X21608Y17749D01*
X22279Y17191D02*
X21721Y17749D01*
X25749Y17191D02*
X22279Y17191D01*
X26027Y17469D02*
X25749Y17191D01*
X26710Y17469D02*
X26027Y17469D01*
X21791Y17924D02*
X20016Y19699D01*
X23013Y17924D02*
X21791Y17924D01*
X23703Y18614D02*
X23013Y17924D01*
X23703Y18709D02*
X23703Y18614D01*
X22400Y23000D02*
X22400Y22379D01*
X25080Y17536D02*
X24981Y17436D01*
X25080Y19742D02*
X25080Y17536D01*
X23415Y21406D02*
X25080Y19742D01*
X23415Y21889D02*
X23415Y21406D01*
X22925Y22379D02*
X23415Y21889D01*
X22400Y22379D02*
X22925Y22379D01*
X38400Y17000D02*
X37400Y18000D01*
X28590Y15978D02*
X28590Y12644D01*
X27809Y16760D02*
X28590Y15978D01*
X26366Y16760D02*
X27809Y16760D01*
X26317Y16711D02*
X26366Y16760D01*
X21967Y16711D02*
X26317Y16711D01*
X21729Y16948D02*
X21967Y16711D01*
X21432Y16948D02*
X21729Y16948D01*
X17284Y21097D02*
X21432Y16948D01*
X17284Y21807D02*
X17284Y21097D01*
X36900Y16500D02*
X36400Y17000D01*
X36900Y13903D02*
X36900Y16500D01*
X37223Y13579D02*
X36900Y13903D01*
X37418Y13579D02*
X37223Y13579D01*
X37833Y13164D02*
X37418Y13579D01*
X37833Y11825D02*
X37833Y13164D01*
X38215Y11443D02*
X37833Y11825D01*
X38705Y11443D02*
X38215Y11443D01*
X38965Y11182D02*
X38705Y11443D01*
X38965Y8828D02*
X38965Y11182D01*
X38557Y8420D02*
X38965Y8828D01*
X38400Y8420D02*
X38557Y8420D01*
X38400Y8000D02*
X38400Y8420D01*
X37979Y16420D02*
X37400Y17000D01*
X38400Y16420D02*
X37979Y16420D01*
X38400Y16000D02*
X38400Y16420D01*
X30661Y17745D02*
X30345Y17429D01*
X30914Y17745D02*
X30661Y17745D01*
X16061Y12608D02*
X16257Y12412D01*
X16061Y15615D02*
X16061Y12608D01*
X16470Y16024D02*
X16061Y15615D01*
X21515Y16024D02*
X16470Y16024D01*
X22331Y15209D02*
X21515Y16024D01*
X25519Y22534D02*
X25519Y23675D01*
X26764Y21289D02*
X25519Y22534D01*
X27159Y21289D02*
X26764Y21289D01*
X38400Y12000D02*
X38400Y12420D01*
X36942Y19851D02*
X36942Y21420D01*
X37373Y19420D02*
X36942Y19851D01*
X37595Y19420D02*
X37373Y19420D01*
X37820Y19195D02*
X37595Y19420D01*
X37820Y17843D02*
X37820Y19195D01*
X38120Y17543D02*
X37820Y17843D01*
X38597Y17543D02*
X38120Y17543D01*
X38953Y17187D02*
X38597Y17543D01*
X38953Y12816D02*
X38953Y17187D01*
X38557Y12420D02*
X38953Y12816D01*
X38400Y12420D02*
X38557Y12420D01*
X33324Y20615D02*
X33478Y20461D01*
X32916Y20615D02*
X33324Y20615D01*
X32617Y20317D02*
X32916Y20615D01*
X32617Y19981D02*
X32617Y20317D01*
X38400Y11000D02*
X37400Y12000D01*
X24400Y24137D02*
X24400Y24500D01*
X23979Y23716D02*
X24400Y24137D01*
X23979Y22617D02*
X23979Y23716D01*
X24231Y22365D02*
X23979Y22617D01*
X24426Y22365D02*
X24231Y22365D01*
X27476Y19315D02*
X24426Y22365D01*
X27476Y18818D02*
X27476Y19315D01*
X29795Y16500D02*
X27476Y18818D01*
X31727Y16500D02*
X29795Y16500D01*
X32727Y15500D02*
X31727Y16500D01*
X34514Y15500D02*
X32727Y15500D01*
X34834Y15179D02*
X34514Y15500D01*
X34834Y14474D02*
X34834Y15179D01*
X35818Y13490D02*
X34834Y14474D01*
X36503Y13490D02*
X35818Y13490D01*
X36820Y13174D02*
X36503Y13490D01*
X36820Y12579D02*
X36820Y13174D01*
X37400Y12000D02*
X36820Y12579D01*
X17618Y12976D02*
X17504Y12862D01*
X18671Y12976D02*
X17618Y12976D01*
X36956Y11443D02*
X37400Y11000D01*
X36283Y11443D02*
X36956Y11443D01*
X35570Y12156D02*
X36283Y11443D01*
X34858Y12156D02*
X35570Y12156D01*
X34850Y12164D02*
X34858Y12156D01*
X28881Y15957D02*
X28881Y11247D01*
X27919Y16920D02*
X28881Y15957D01*
X26300Y16920D02*
X27919Y16920D01*
X26251Y16871D02*
X26300Y16920D01*
X22033Y16871D02*
X26251Y16871D01*
X21649Y17255D02*
X22033Y16871D01*
X21352Y17255D02*
X21649Y17255D01*
X17900Y20707D02*
X21352Y17255D01*
X17900Y24000D02*
X17900Y20707D01*
X17400Y24500D02*
X17900Y24000D01*
X36820Y9420D02*
X37400Y10000D01*
X36820Y7825D02*
X36820Y9420D01*
X36572Y7578D02*
X36820Y7825D01*
X36213Y7578D02*
X36572Y7578D01*
X35597Y8194D02*
X36213Y7578D01*
X35597Y10020D02*
X35597Y8194D01*
X34883Y10734D02*
X35597Y10020D01*
X35757Y8642D02*
X36400Y8000D01*
X35757Y10244D02*
X35757Y8642D01*
X34445Y11556D02*
X35757Y10244D01*
X34445Y12332D02*
X34445Y11556D01*
X34839Y12725D02*
X34445Y12332D01*
X34839Y13170D02*
X34839Y12725D01*
X34509Y13500D02*
X34839Y13170D01*
X33900Y13500D02*
X34509Y13500D01*
X33400Y14000D02*
X33900Y13500D01*
X37833Y8433D02*
X37400Y8000D01*
X37833Y11163D02*
X37833Y8433D01*
X37496Y11500D02*
X37833Y11163D01*
X37295Y11500D02*
X37496Y11500D01*
X36900Y11895D02*
X37295Y11500D01*
X36900Y12098D02*
X36900Y11895D01*
X36498Y12500D02*
X36900Y12098D01*
X35931Y12500D02*
X36498Y12500D01*
X34431Y14000D02*
X35931Y12500D01*
X34400Y14000D02*
X34431Y14000D01*
X35402Y7997D02*
X36400Y7000D01*
X35402Y9847D02*
X35402Y7997D01*
X34221Y11028D02*
X35402Y9847D01*
X34221Y12474D02*
X34221Y11028D01*
X15800Y23000D02*
X15800Y22172D01*
X14725Y21098D02*
X15800Y22172D01*
X14725Y16472D02*
X14725Y21098D01*
X15079Y16118D02*
X14725Y16472D01*
X15079Y14500D02*
X15079Y16118D01*
X14800Y23000D02*
X14800Y22379D01*
X14565Y15713D02*
X14778Y15500D01*
X14565Y22145D02*
X14565Y15713D01*
X14800Y22379D02*
X14565Y22145D01*
X34376Y20535D02*
X34376Y22273D01*
X33400Y24500D02*
X33400Y24137D01*
X34376Y20535D02*
X35329Y19582D01*
X35329Y19582D02*
X35329Y19000D01*
X34050Y23487D02*
X33400Y24137D01*
X34050Y22600D02*
X34050Y23487D01*
X34376Y22273D02*
X34050Y22600D01*
X36056Y12000D02*
X35250Y12806D01*
X36400Y12000D02*
X36056Y12000D01*
X25517Y12288D02*
X25874Y12288D01*
X24956Y12849D02*
X25517Y12288D01*
X24956Y13043D02*
X24956Y12849D01*
X24499Y13500D02*
X24956Y13043D01*
X24048Y13500D02*
X24499Y13500D01*
X23282Y14266D02*
X24048Y13500D01*
X23282Y14738D02*
X23282Y14266D01*
X23375Y14831D02*
X23282Y14738D01*
X32900Y24000D02*
X32400Y24500D01*
X32900Y22595D02*
X32900Y24000D01*
X33121Y22374D02*
X32900Y22595D01*
X33751Y22374D02*
X33121Y22374D01*
X33975Y22150D02*
X33751Y22374D01*
X33975Y19577D02*
X33975Y22150D01*
X35372Y18181D02*
X33975Y19577D01*
X35372Y16379D02*
X35372Y18181D01*
X35302Y16309D02*
X35372Y16379D01*
X32970Y10674D02*
X32970Y10674D01*
X32970Y14203D02*
X32970Y10674D01*
X33194Y14427D02*
X32970Y14203D01*
X34574Y14427D02*
X33194Y14427D01*
X36001Y13000D02*
X34574Y14427D01*
X36400Y13000D02*
X36001Y13000D01*
X13698Y25627D02*
X12761Y26564D01*
X12761Y26564D02*
X8852Y26564D01*
X6000Y29650D02*
X6000Y26050D01*
X20659Y20238D02*
X22337Y18560D01*
X20261Y20238D02*
X20659Y20238D01*
X13888Y25627D02*
X13698Y25627D01*
X14820Y24696D02*
X13888Y25627D01*
X14820Y24150D02*
X14820Y24696D01*
X15220Y23750D02*
X14820Y24150D01*
X15220Y21939D02*
X15220Y23750D01*
X18178Y25967D02*
X18178Y25320D01*
X18178Y25967D02*
X16611Y27534D01*
X16611Y27534D02*
X14788Y27534D01*
X18086Y25228D02*
X16408Y25228D01*
X18178Y25320D02*
X18086Y25228D01*
X22433Y18296D02*
X22727Y18591D01*
X21810Y18296D02*
X22433Y18296D01*
X19913Y20194D02*
X21810Y18296D01*
X19839Y20194D02*
X19913Y20194D01*
X19343Y20690D02*
X19839Y20194D01*
X19343Y22154D02*
X19343Y20690D01*
X18953Y22544D02*
X19343Y22154D01*
X18953Y24545D02*
X18953Y22544D01*
X18178Y25320D02*
X18953Y24545D01*
X32956Y31943D02*
X32956Y32943D01*
X33400Y29500D02*
X33400Y30433D01*
X33400Y30433D02*
X32956Y30876D01*
X32956Y30876D02*
X32956Y31943D01*
X32956Y32943D02*
X32400Y33500D01*
X16059Y33079D02*
X16059Y33340D01*
X16466Y33079D02*
X16059Y33079D01*
X16059Y33340D02*
X15900Y33500D01*
X16466Y33079D02*
X16466Y31666D01*
X16466Y31038D02*
X16466Y31666D01*
X17400Y30104D02*
X16466Y31038D01*
X17400Y30104D02*
X17400Y29500D01*
X9464Y29464D02*
X9550Y29550D01*
X9464Y28935D02*
X9464Y29464D01*
X38400Y26500D02*
X38400Y25500D01*
X38400Y25500D02*
X38400Y24500D01*
X37400Y6000D02*
X36400Y6000D01*
X15400Y4000D02*
X15400Y3379D01*
X11800Y2900D02*
X11900Y3000D01*
X10892Y2900D02*
X11800Y2900D01*
X15158Y3379D02*
X15400Y3379D01*
X15097Y3441D02*
X15158Y3379D01*
X14727Y3441D02*
X15097Y3441D01*
X14343Y3056D02*
X14727Y3441D01*
X14343Y2849D02*
X14343Y3056D01*
X14069Y2574D02*
X14343Y2849D01*
X12325Y2574D02*
X14069Y2574D01*
X11900Y3000D02*
X12325Y2574D01*
X20320Y33289D02*
X20320Y33500D01*
X22095Y31514D02*
X20320Y33289D01*
X23385Y31514D02*
X22095Y31514D01*
X25400Y29500D02*
X23385Y31514D01*
X19900Y33500D02*
X20320Y33500D01*
X20213Y3000D02*
X19900Y3000D01*
X20956Y3743D02*
X20213Y3000D01*
X20956Y4378D02*
X20956Y3743D01*
X21362Y4784D02*
X20956Y4378D01*
X26643Y4784D02*
X21362Y4784D01*
X27900Y3527D02*
X26643Y4784D01*
X27900Y3000D02*
X27900Y3527D01*
X34900Y29500D02*
X33400Y29500D01*
X33400Y33500D02*
X32400Y33500D01*
X36400Y3072D02*
X36400Y6000D01*
X36733Y2739D02*
X36400Y3072D01*
X36733Y2385D02*
X36733Y2739D01*
X36120Y2385D02*
X36733Y2385D01*
X38400Y29000D02*
X38400Y27500D01*
X38400Y27500D02*
X38400Y26500D01*
X16900Y33079D02*
X16466Y33079D01*
X16900Y33500D02*
X16900Y33079D01*
X16292Y20663D02*
X16845Y20110D01*
X16292Y21706D02*
X16292Y20663D01*
X27690Y15501D02*
X27690Y16504D01*
X25610Y13420D02*
X27690Y15501D01*
X25400Y13420D02*
X25610Y13420D01*
X25400Y13000D02*
X25400Y13420D01*
X30320Y13420D02*
X29900Y13000D01*
X30931Y13420D02*
X30320Y13420D01*
X31858Y14346D02*
X30931Y13420D01*
X31858Y14417D02*
X31858Y14346D01*
X30225Y12675D02*
X30225Y10846D01*
X29900Y13000D02*
X30225Y12675D01*
X7149Y26882D02*
X7844Y27577D01*
X7149Y25368D02*
X7149Y26882D01*
X6376Y24594D02*
X7149Y25368D01*
X6376Y22606D02*
X6376Y24594D01*
X6623Y22359D02*
X6376Y22606D01*
X7958Y22359D02*
X6623Y22359D01*
X8260Y22661D02*
X7958Y22359D01*
X8260Y23265D02*
X8260Y22661D01*
X8878Y23883D02*
X8260Y23265D01*
X9536Y23883D02*
X8878Y23883D01*
X9800Y23620D02*
X9536Y23883D01*
X9800Y23000D02*
X9800Y23620D01*
X8106Y27577D02*
X9464Y28935D01*
X7844Y27577D02*
X8106Y27577D01*
G54D38*
X650Y11005D02*
X650Y10142D01*
X650Y13750D02*
X650Y11005D01*
X900Y14000D02*
X650Y13750D01*
X3400Y14000D02*
X900Y14000D01*
X5900Y16500D02*
X3400Y14000D01*
X6150Y16500D02*
X5900Y16500D01*
X657Y10150D02*
X1900Y10500D01*
X650Y10142D02*
X657Y10150D01*
X650Y11005D02*
X650Y10142D01*
G54D35*
X11479Y4700D02*
X11400Y4620D01*
X11479Y5250D02*
X11479Y4700D01*
X11900Y5250D02*
X11479Y5250D01*
X11400Y4000D02*
X11400Y4620D01*
G54D36*
X4924Y8294D02*
X6744Y8294D01*
X7900Y13000D02*
X7900Y11270D01*
X4924Y8294D02*
X4924Y5500D01*
X7150Y10520D02*
X7900Y11270D01*
X7150Y8700D02*
X7150Y10520D01*
X6744Y8294D02*
X7150Y8700D01*
X7250Y30500D02*
X7250Y31500D01*
X24350Y6900D02*
X18500Y6900D01*
X32300Y6900D02*
X24350Y6900D01*
X25900Y2250D02*
X25900Y3000D01*
X17900Y3000D02*
X17900Y2250D01*
X33900Y2250D02*
X33900Y3000D01*
X33650Y2000D02*
X33900Y2250D01*
X26150Y2000D02*
X33650Y2000D01*
X25900Y2250D02*
X26150Y2000D01*
X25650Y2000D02*
X25900Y2250D01*
X18150Y2000D02*
X25650Y2000D01*
X17900Y2250D02*
X18150Y2000D01*
X17650Y2000D02*
X17900Y2250D01*
X12400Y2000D02*
X17650Y2000D01*
X11900Y1500D02*
X12400Y2000D01*
X11900Y1250D02*
X11900Y1500D01*
X9907Y2742D02*
X9907Y2900D01*
X11400Y1250D02*
X9907Y2742D01*
X11900Y1250D02*
X11400Y1250D01*
X27400Y28750D02*
X27400Y29500D01*
X27150Y28500D02*
X27400Y28750D01*
X19900Y28500D02*
X27150Y28500D01*
X19400Y29000D02*
X19900Y28500D01*
X18900Y28500D02*
X19400Y29000D01*
X12150Y28500D02*
X18900Y28500D01*
X11400Y29250D02*
X12150Y28500D01*
X11400Y29500D02*
X11400Y29250D01*
X650Y2100D02*
X650Y5900D01*
X1250Y1500D02*
X650Y2100D01*
X1900Y1500D02*
X1250Y1500D01*
X1050Y5500D02*
X1900Y5500D01*
X650Y5900D02*
X1050Y5500D01*
X19400Y29500D02*
X19400Y29000D01*
X6650Y30250D02*
X6650Y29000D01*
X11400Y29500D02*
X11400Y29750D01*
X11400Y29750D02*
X10650Y30500D01*
X6650Y29000D02*
X6650Y26000D01*
X650Y9157D02*
X650Y5900D01*
X650Y9157D02*
X650Y9157D01*
X6150Y20750D02*
X6150Y20000D01*
X4150Y22750D02*
X6150Y20750D01*
X4150Y23500D02*
X4150Y22750D01*
X6650Y26000D02*
X4150Y23500D01*
X1900Y5500D02*
X4924Y5500D01*
X9807Y3000D02*
X9907Y2900D01*
X8900Y3000D02*
X9807Y3000D01*
X6400Y5500D02*
X8900Y3000D01*
X4924Y5500D02*
X6400Y5500D01*
X6900Y30500D02*
X6650Y30250D01*
X10650Y30500D02*
X7250Y30500D01*
X7250Y30500D02*
X6900Y30500D01*
X6889Y30489D02*
X6900Y30500D01*
G54D35*
X32900Y9000D02*
X32900Y8000D01*
X31900Y9000D02*
X31900Y8000D01*
X36373Y30664D02*
X36523Y30815D01*
X36373Y30296D02*
X36373Y30664D01*
X36453Y30216D02*
X36373Y30296D01*
X36453Y29149D02*
X36453Y30216D01*
X37400Y26500D02*
X37400Y26920D01*
X24248Y18853D02*
X24248Y17436D01*
X22966Y20135D02*
X24248Y18853D01*
X22966Y21765D02*
X22966Y20135D01*
X37189Y26920D02*
X37400Y26920D01*
X36786Y27323D02*
X37189Y26920D01*
X36786Y28205D02*
X36786Y27323D01*
X36881Y28299D02*
X36786Y28205D01*
X36881Y30669D02*
X36881Y28299D01*
X36735Y30815D02*
X36881Y30669D01*
X36523Y30815D02*
X36735Y30815D01*
X36383Y29079D02*
X36453Y29149D01*
X30008Y29079D02*
X36383Y29079D01*
X29355Y28427D02*
X30008Y29079D01*
X28776Y28427D02*
X29355Y28427D01*
X25958Y25610D02*
X28776Y28427D01*
X37846Y20489D02*
X37755Y20397D01*
X37846Y22197D02*
X37846Y20489D01*
X38149Y22500D02*
X37846Y22197D01*
X38653Y22500D02*
X38149Y22500D01*
X38955Y22801D02*
X38653Y22500D01*
X38955Y23633D02*
X38955Y22801D01*
X38624Y23965D02*
X38955Y23633D01*
X29873Y17843D02*
X29748Y17843D01*
X31170Y19140D02*
X29873Y17843D01*
X28031Y10494D02*
X28031Y15694D01*
X27399Y9863D02*
X28031Y10494D01*
X26518Y8982D02*
X26518Y8896D01*
X25945Y9556D02*
X26518Y8982D01*
X25573Y9556D02*
X25945Y9556D01*
X25479Y9650D02*
X25573Y9556D01*
X25479Y10026D02*
X25479Y9650D01*
X23401Y12104D02*
X25479Y10026D01*
X23202Y12104D02*
X23401Y12104D01*
X33768Y30094D02*
X34820Y31145D01*
X34820Y32079D02*
X34400Y32500D01*
X34820Y31145D02*
X34820Y32079D01*
X35151Y20856D02*
X35151Y21201D01*
X27189Y19228D02*
X26922Y19228D01*
X26922Y19228D02*
X26546Y18852D01*
X30006Y19751D02*
X29429Y19751D01*
X29429Y19751D02*
X28653Y18975D01*
X35950Y23517D02*
X36441Y24009D01*
X35950Y22620D02*
X35950Y23517D01*
X35550Y22220D02*
X35950Y22620D01*
X35550Y21600D02*
X35550Y22220D01*
X35151Y21201D02*
X35550Y21600D01*
X36636Y30563D02*
X36636Y28503D01*
X38820Y31879D02*
X38820Y30580D01*
X38756Y31943D02*
X38820Y31879D01*
X37956Y31943D02*
X38756Y31943D01*
X37400Y32500D02*
X37956Y31943D01*
X30015Y28851D02*
X27887Y26723D01*
X32254Y28851D02*
X30015Y28851D01*
X33042Y28062D02*
X32254Y28851D01*
X36196Y28062D02*
X33042Y28062D01*
X36636Y28503D02*
X36196Y28062D01*
X28900Y29050D02*
X28900Y30400D01*
X31444Y32587D02*
X29900Y31043D01*
X31689Y32587D02*
X31444Y32587D01*
X29543Y31043D02*
X29900Y31043D01*
X28900Y30400D02*
X29543Y31043D01*
X28900Y29050D02*
X28900Y29050D01*
X23527Y14367D02*
X23746Y14586D01*
X23746Y14586D02*
X23746Y15325D01*
X23746Y15325D02*
X23981Y15559D01*
X23981Y15559D02*
X26356Y15559D01*
X28995Y18177D02*
X28995Y18399D01*
X28995Y18399D02*
X29595Y18999D01*
X29595Y18999D02*
X29684Y18999D01*
X29684Y18999D02*
X31010Y20326D01*
X31010Y20326D02*
X31010Y21066D01*
X31010Y21066D02*
X31943Y21998D01*
X8650Y29000D02*
X8650Y30000D01*
X28400Y23961D02*
X28400Y24500D01*
X27900Y23461D02*
X28400Y23961D01*
X27900Y21750D02*
X27900Y23461D01*
X20400Y23804D02*
X20400Y24500D01*
X19900Y23304D02*
X20400Y23804D01*
X19900Y21750D02*
X19900Y23304D01*
X20900Y24000D02*
X20900Y21750D01*
X21400Y24500D02*
X20900Y24000D01*
X26900Y24000D02*
X27400Y24500D01*
X26900Y21750D02*
X26900Y24000D01*
X29400Y23904D02*
X29400Y24500D01*
X28900Y23404D02*
X29400Y23904D01*
X28900Y21750D02*
X28900Y23404D01*
X13375Y24475D02*
X13400Y24500D01*
X13375Y21775D02*
X13375Y24475D01*
X13400Y21750D02*
X13375Y21775D01*
X12375Y24475D02*
X12400Y24500D01*
X12375Y21775D02*
X12375Y24475D01*
X12400Y21750D02*
X12375Y21775D01*
X11375Y21775D02*
X11400Y21750D01*
X11375Y24475D02*
X11375Y21775D01*
X11400Y24500D02*
X11375Y24475D01*
X36491Y1819D02*
X36101Y1819D01*
X37440Y2768D02*
X36491Y1819D01*
X37440Y3001D02*
X37440Y2768D01*
X39115Y18431D02*
X38968Y18284D01*
X39115Y27117D02*
X39115Y18431D01*
X39024Y27208D02*
X39115Y27117D01*
X28774Y18436D02*
X28729Y18436D01*
X29582Y19244D02*
X28774Y18436D01*
X23286Y15710D02*
X23122Y15546D01*
X23784Y15710D02*
X23286Y15710D01*
X15184Y16996D02*
X15184Y16500D01*
X16476Y18288D02*
X15184Y16996D01*
X19512Y18288D02*
X16476Y18288D01*
X21172Y16628D02*
X19512Y18288D01*
X21596Y16628D02*
X21172Y16628D01*
X22679Y15546D02*
X21596Y16628D01*
X23122Y15546D02*
X22679Y15546D01*
X23122Y13489D02*
X23122Y15546D01*
X24432Y12178D02*
X23122Y13489D01*
X25118Y12178D02*
X24432Y12178D01*
X27154Y10142D02*
X25118Y12178D01*
X27154Y8619D02*
X27154Y10142D01*
X27479Y8294D02*
X27154Y8619D01*
X23900Y9000D02*
X23900Y8000D01*
X24900Y9000D02*
X24900Y8000D01*
X16900Y9000D02*
X16900Y8000D01*
X33900Y9000D02*
X33900Y8000D01*
X15900Y9000D02*
X15900Y8000D01*
X17900Y9000D02*
X17900Y8000D01*
X35444Y3155D02*
X35444Y1733D01*
X35868Y3579D02*
X35444Y3155D01*
X35868Y6062D02*
X35868Y3579D01*
X36385Y6579D02*
X35868Y6062D01*
X36979Y6579D02*
X36385Y6579D01*
X37400Y7000D02*
X36979Y6579D01*
X31170Y20215D02*
X29554Y18599D01*
X31170Y20817D02*
X31170Y20215D01*
X32321Y21968D02*
X31170Y20817D01*
X32855Y21968D02*
X32321Y21968D01*
X22943Y22647D02*
X22943Y28060D01*
X23594Y21996D02*
X22943Y22647D01*
X24006Y21996D02*
X23594Y21996D01*
X26193Y19809D02*
X24006Y21996D01*
X6800Y23000D02*
X6800Y23620D01*
X14635Y26820D02*
X14659Y26796D01*
X8585Y26820D02*
X14635Y26820D01*
X8179Y26414D02*
X8585Y26820D01*
X8179Y24999D02*
X8179Y26414D01*
X6800Y23620D02*
X8179Y24999D01*
X31250Y31800D02*
X31650Y32200D01*
X26100Y26250D02*
X28450Y28600D01*
X28450Y28600D02*
X29250Y28600D01*
X29250Y28600D02*
X29900Y29250D01*
X29900Y29250D02*
X29900Y30450D01*
X29900Y30450D02*
X31250Y31800D01*
X16824Y30312D02*
X16824Y30325D01*
X16824Y30312D02*
X16824Y29305D01*
X16824Y29305D02*
X16456Y28937D01*
X16456Y28937D02*
X15868Y28937D01*
X15868Y28937D02*
X15868Y28937D01*
X15300Y31900D02*
X15900Y32500D01*
X15300Y31150D02*
X15300Y31900D01*
X15550Y30900D02*
X15300Y31150D01*
X16250Y30900D02*
X15550Y30900D01*
X16824Y30325D02*
X16250Y30900D01*
X17900Y29305D02*
X17530Y28935D01*
X17900Y31500D02*
X17900Y29305D01*
X19821Y27439D02*
X19487Y27773D01*
X19821Y24041D02*
X19821Y27439D01*
X19400Y23620D02*
X19821Y24041D01*
X19400Y23000D02*
X19400Y23620D01*
X21822Y24148D02*
X21822Y28066D01*
X21400Y23726D02*
X21822Y24148D01*
X21400Y23000D02*
X21400Y23726D01*
X23661Y21390D02*
X23661Y21633D01*
X27238Y17812D02*
X23661Y21390D01*
X27287Y17812D02*
X27238Y17812D01*
X29479Y15620D02*
X27287Y17812D01*
X29479Y14808D02*
X29479Y15620D01*
X29709Y14578D02*
X29479Y14808D01*
X31466Y14578D02*
X29709Y14578D01*
X31582Y14693D02*
X31466Y14578D01*
X18282Y11174D02*
X18670Y11174D01*
X17479Y10372D02*
X18282Y11174D01*
X17479Y6540D02*
X17479Y10372D01*
X19400Y4620D02*
X17479Y6540D01*
X19400Y4000D02*
X19400Y4620D01*
X20400Y4000D02*
X20400Y4620D01*
X19398Y5621D02*
X20400Y4620D01*
X19279Y5621D02*
X19398Y5621D01*
X18146Y6754D02*
X19279Y5621D01*
X18146Y7044D02*
X18146Y6754D01*
X18464Y7362D02*
X18146Y7044D01*
X19863Y7362D02*
X18464Y7362D01*
X20332Y7831D02*
X19863Y7362D01*
X20332Y13214D02*
X20332Y7831D01*
X19866Y13681D02*
X20332Y13214D01*
X19320Y14814D02*
X19912Y15407D01*
X19320Y7805D02*
X19320Y14814D01*
X19041Y7527D02*
X19320Y7805D01*
X18402Y7527D02*
X19041Y7527D01*
X17986Y7110D02*
X18402Y7527D01*
X17986Y6659D02*
X17986Y7110D01*
X20025Y4620D02*
X17986Y6659D01*
X16710Y2569D02*
X17263Y2569D01*
X16343Y2936D02*
X16710Y2569D01*
X16343Y3170D02*
X16343Y2936D01*
X15900Y3613D02*
X16343Y3170D01*
X15900Y4325D02*
X15900Y3613D01*
X15577Y4647D02*
X15900Y4325D01*
X15480Y4647D02*
X15577Y4647D01*
X13362Y6764D02*
X15480Y4647D01*
X12652Y6764D02*
X13362Y6764D01*
X15818Y10514D02*
X15818Y10514D01*
X15818Y15599D02*
X15818Y10514D01*
X17408Y17189D02*
X15818Y15599D01*
X18240Y17189D02*
X17408Y17189D01*
X24400Y23000D02*
X24400Y23620D01*
X35900Y26500D02*
X35900Y26920D01*
X25114Y23620D02*
X24400Y23620D01*
X25901Y24406D02*
X25114Y23620D01*
X25901Y24619D02*
X25901Y24406D01*
X27546Y26264D02*
X25901Y24619D01*
X27777Y26264D02*
X27546Y26264D01*
X30196Y28682D02*
X27777Y26264D01*
X32196Y28682D02*
X30196Y28682D01*
X33959Y26920D02*
X32196Y28682D01*
X35900Y26920D02*
X33959Y26920D01*
X26000Y25065D02*
X26921Y25986D01*
X24353Y25065D02*
X26000Y25065D01*
X23882Y24594D02*
X24353Y25065D01*
X23882Y24159D02*
X23882Y24594D01*
X23400Y23677D02*
X23882Y24159D01*
X23400Y23000D02*
X23400Y23677D01*
X35900Y25500D02*
X35900Y25920D01*
X29479Y26841D02*
X28247Y25609D01*
X29479Y27352D02*
X29479Y26841D01*
X29932Y27804D02*
X29479Y27352D01*
X32744Y27804D02*
X29932Y27804D01*
X34629Y25920D02*
X32744Y27804D01*
X35900Y25920D02*
X34629Y25920D01*
X31400Y23000D02*
X31400Y23620D01*
X31833Y25077D02*
X32751Y25995D01*
X31833Y24053D02*
X31833Y25077D01*
X31400Y23620D02*
X31833Y24053D01*
X30400Y23000D02*
X30400Y23994D01*
X28400Y23000D02*
X28400Y20649D01*
X28400Y20649D02*
X28821Y20227D01*
X28821Y20227D02*
X29998Y20227D01*
X29998Y20227D02*
X30784Y21013D01*
X30784Y21013D02*
X30784Y21109D01*
X30784Y21109D02*
X31480Y21806D01*
X31480Y21806D02*
X31480Y21883D01*
X31480Y21883D02*
X31841Y22243D01*
X31841Y22243D02*
X32044Y22243D01*
X32044Y22243D02*
X32074Y22213D01*
X32074Y22213D02*
X33559Y22213D01*
X33559Y22213D02*
X33650Y22122D01*
X27400Y23000D02*
X27400Y22379D01*
X27476Y22303D02*
X27400Y22379D01*
X27476Y19741D02*
X27476Y22303D01*
X28177Y19040D02*
X27476Y19741D01*
X28177Y18637D02*
X28177Y19040D01*
X29814Y17000D02*
X28177Y18637D01*
X29900Y17000D02*
X29814Y17000D01*
G54D37*
X12115Y17795D02*
X12115Y18684D01*
X12115Y11850D02*
X12115Y17795D01*
X12115Y18684D02*
X10400Y20400D01*
X10264Y23890D02*
X10264Y20535D01*
X10264Y20535D02*
X10400Y20400D01*
X9655Y24500D02*
X10264Y23890D01*
X13150Y11250D02*
X12691Y11250D01*
X12348Y11850D02*
X12115Y11850D01*
X12691Y11508D02*
X12348Y11850D01*
X12691Y11250D02*
X12691Y11508D01*
X11326Y11218D02*
X11326Y7628D01*
X11958Y11850D02*
X11326Y11218D01*
X12115Y11850D02*
X11958Y11850D01*
G54D35*
X28928Y25871D02*
X28928Y24029D01*
X29493Y26436D02*
X28928Y25871D01*
X30065Y20987D02*
X30065Y20641D01*
X30130Y21053D02*
X30065Y20987D01*
X30130Y22342D02*
X30130Y21053D01*
X30091Y22381D02*
X30130Y22342D01*
X33052Y20018D02*
X35071Y18000D01*
X33052Y20369D02*
X33052Y20018D01*
X34568Y25079D02*
X33993Y25654D01*
X36056Y25079D02*
X34568Y25079D01*
X36740Y24396D02*
X36056Y25079D01*
X36740Y23888D02*
X36740Y24396D01*
X36840Y23788D02*
X36740Y23888D01*
X36840Y22440D02*
X36840Y23788D01*
X36400Y22000D02*
X36840Y22440D01*
X26780Y6360D02*
X22784Y6360D01*
X28400Y4741D02*
X26780Y6360D01*
X28400Y4000D02*
X28400Y4741D01*
X35918Y9481D02*
X36400Y9000D01*
X35918Y10310D02*
X35918Y9481D01*
X34605Y11623D02*
X35918Y10310D01*
X34605Y12265D02*
X34605Y11623D01*
X34765Y12425D02*
X34605Y12265D01*
X35220Y12425D02*
X34765Y12425D01*
X35245Y12401D02*
X35220Y12425D01*
X16394Y15402D02*
X16306Y15314D01*
X16951Y15402D02*
X16394Y15402D01*
X17222Y15673D02*
X16951Y15402D01*
X21350Y15673D02*
X17222Y15673D01*
X21830Y15193D02*
X21350Y15673D01*
X21830Y13828D02*
X21830Y15193D01*
X23120Y12538D02*
X21830Y13828D01*
X23569Y12538D02*
X23120Y12538D01*
X25208Y10898D02*
X23569Y12538D01*
X25683Y10898D02*
X25208Y10898D01*
X25826Y11041D02*
X25683Y10898D01*
X25826Y11244D02*
X25826Y11041D01*
X25332Y11738D02*
X25826Y11244D01*
X25196Y11738D02*
X25332Y11738D01*
X26653Y5205D02*
X27726Y4133D01*
X20452Y5205D02*
X26653Y5205D01*
X19288Y6369D02*
X20452Y5205D01*
X30834Y21410D02*
X30323Y20899D01*
X30834Y26760D02*
X30834Y21410D01*
X30037Y27557D02*
X30834Y26760D01*
X31576Y18208D02*
X31576Y20592D01*
X33284Y16500D02*
X31576Y18208D01*
X34520Y16500D02*
X33284Y16500D01*
X35234Y15786D02*
X34520Y16500D01*
X35234Y14315D02*
X35234Y15786D01*
X35634Y13916D02*
X35234Y14315D01*
X36316Y13916D02*
X35634Y13916D01*
X36400Y14000D02*
X36316Y13916D01*
X26829Y24775D02*
X28420Y26365D01*
X26829Y24240D02*
X26829Y24775D01*
X26600Y24011D02*
X26829Y24240D01*
X26600Y23890D02*
X26600Y24011D01*
X29747Y21209D02*
X29747Y20476D01*
X29877Y21339D02*
X29747Y21209D01*
X27229Y5564D02*
X28014Y4780D01*
X25600Y5564D02*
X27229Y5564D01*
X36400Y10175D02*
X36400Y10000D01*
X35278Y11297D02*
X36400Y10175D01*
X16637Y15845D02*
X16454Y15662D01*
X21404Y15845D02*
X16637Y15845D01*
X21990Y15259D02*
X21404Y15845D01*
X21990Y14014D02*
X21990Y15259D01*
X23222Y12783D02*
X21990Y14014D01*
X27960Y25668D02*
X27960Y24054D01*
X28146Y25854D02*
X27960Y25668D01*
X28261Y25854D02*
X28146Y25854D01*
X28776Y26369D02*
X28261Y25854D01*
X28776Y26875D02*
X28776Y26369D01*
X30332Y28431D02*
X28776Y26875D01*
X31889Y20972D02*
X31781Y21080D01*
X31889Y20362D02*
X31889Y20972D01*
X32954Y19297D02*
X31889Y20362D01*
X33497Y19297D02*
X32954Y19297D01*
X33843Y18952D02*
X33497Y19297D01*
X33843Y17944D02*
X33843Y18952D01*
X34207Y17579D02*
X33843Y17944D01*
X34623Y17579D02*
X34207Y17579D01*
X35098Y17104D02*
X34623Y17579D01*
X34135Y20180D02*
X34135Y22264D01*
X31515Y27366D02*
X31724Y27575D01*
X31724Y27575D02*
X32747Y27575D01*
X32747Y27575D02*
X33004Y27318D01*
X33004Y27318D02*
X33004Y25774D01*
X33004Y25774D02*
X32978Y25748D01*
X32978Y25748D02*
X32978Y24303D01*
X34135Y20180D02*
X34560Y19755D01*
X32978Y24171D02*
X32978Y24303D01*
X33200Y23950D02*
X32978Y24171D01*
X33350Y23950D02*
X33200Y23950D01*
X33850Y23450D02*
X33350Y23950D01*
X33850Y22550D02*
X33850Y23450D01*
X34135Y22264D02*
X33850Y22550D01*
X17971Y12384D02*
X18150Y12564D01*
X17388Y12384D02*
X17971Y12384D01*
X35589Y11810D02*
X36400Y11000D01*
X34929Y11810D02*
X35589Y11810D01*
X30201Y7508D02*
X30201Y7508D01*
X29391Y7508D02*
X30201Y7508D01*
X28900Y8000D02*
X29391Y7508D01*
G54D10*
G36*
X15358Y9869D02*
X14694Y9205D01*
X14632Y9110D01*
X14610Y9000D01*
X14610Y8475D01*
X14588Y8466D01*
X14434Y8311D01*
X14424Y8290D01*
X14375Y8290D01*
X14366Y8311D01*
X14211Y8465D01*
X14009Y8549D01*
X13791Y8550D01*
X13588Y8466D01*
X13434Y8311D01*
X13400Y8230D01*
X13366Y8311D01*
X13211Y8465D01*
X13009Y8549D01*
X12791Y8550D01*
X12588Y8466D01*
X12434Y8311D01*
X12400Y8230D01*
X12366Y8311D01*
X12211Y8465D01*
X12009Y8549D01*
X11791Y8550D01*
X11654Y8493D01*
X11654Y9146D01*
X11809Y8991D01*
X12030Y8900D01*
X12268Y8899D01*
X12489Y8991D01*
X12564Y9065D01*
X12587Y9008D01*
X12658Y8938D01*
X12750Y8900D01*
X12849Y8899D01*
X12987Y8900D01*
X13050Y8962D01*
X13050Y9400D01*
X13042Y9400D01*
X13042Y9600D01*
X13050Y9600D01*
X13050Y10037D01*
X12987Y10100D01*
X12849Y10100D01*
X12750Y10099D01*
X12658Y10061D01*
X12625Y10028D01*
X12625Y10843D01*
X12650Y10880D01*
X12761Y10714D01*
X12939Y10595D01*
X13150Y10553D01*
X13360Y10595D01*
X13538Y10714D01*
X13599Y10806D01*
X13599Y10767D01*
X13637Y10675D01*
X13708Y10605D01*
X13800Y10567D01*
X13821Y10567D01*
X13821Y10013D01*
X13810Y10008D01*
X13735Y9934D01*
X13712Y9991D01*
X13641Y10061D01*
X13549Y10099D01*
X13450Y10100D01*
X13312Y10100D01*
X13250Y10037D01*
X13250Y9600D01*
X13257Y9600D01*
X13257Y9400D01*
X13250Y9400D01*
X13250Y8962D01*
X13312Y8900D01*
X13450Y8899D01*
X13549Y8900D01*
X13641Y8938D01*
X13712Y9008D01*
X13735Y9065D01*
X13809Y8991D01*
X14030Y8900D01*
X14268Y8899D01*
X14489Y8991D01*
X14658Y9159D01*
X14749Y9380D01*
X14750Y9618D01*
X14658Y9839D01*
X14490Y10008D01*
X14478Y10013D01*
X14478Y10566D01*
X14499Y10566D01*
X14591Y10604D01*
X14661Y10675D01*
X14699Y10767D01*
X14700Y10866D01*
X14700Y11732D01*
X14662Y11824D01*
X14591Y11894D01*
X14499Y11932D01*
X14400Y11933D01*
X13800Y11933D01*
X13708Y11895D01*
X13638Y11824D01*
X13600Y11732D01*
X13600Y11693D01*
X13538Y11785D01*
X13360Y11904D01*
X13150Y11946D01*
X12939Y11904D01*
X12831Y11832D01*
X12580Y12083D01*
X12474Y12154D01*
X12443Y12160D01*
X12443Y17795D01*
X12443Y18684D01*
X12443Y18684D01*
X12418Y18810D01*
X12347Y18917D01*
X12347Y18917D01*
X11064Y20200D01*
X11149Y20199D01*
X11749Y20199D01*
X11841Y20237D01*
X11911Y20308D01*
X11949Y20400D01*
X11949Y20422D01*
X12088Y20284D01*
X12290Y20200D01*
X12508Y20199D01*
X12711Y20283D01*
X12865Y20438D01*
X12899Y20519D01*
X12933Y20438D01*
X13088Y20284D01*
X13290Y20200D01*
X13508Y20199D01*
X13530Y20208D01*
X13839Y19900D01*
X13839Y14668D01*
X13861Y14557D01*
X13924Y14463D01*
X14702Y13685D01*
X14702Y13645D01*
X14759Y13508D01*
X14787Y13479D01*
X14787Y10822D01*
X14809Y10711D01*
X14872Y10617D01*
X15358Y10131D01*
X15350Y10109D01*
X15349Y9891D01*
X15358Y9869D01*
X15358Y9869D01*
G37*
G54D39*
X15358Y9869D02*
X14694Y9205D01*
X14632Y9110D01*
X14610Y9000D01*
X14610Y8475D01*
X14588Y8466D01*
X14434Y8311D01*
X14424Y8290D01*
X14375Y8290D01*
X14366Y8311D01*
X14211Y8465D01*
X14009Y8549D01*
X13791Y8550D01*
X13588Y8466D01*
X13434Y8311D01*
X13400Y8230D01*
X13366Y8311D01*
X13211Y8465D01*
X13009Y8549D01*
X12791Y8550D01*
X12588Y8466D01*
X12434Y8311D01*
X12400Y8230D01*
X12366Y8311D01*
X12211Y8465D01*
X12009Y8549D01*
X11791Y8550D01*
X11654Y8493D01*
X11654Y9146D01*
X11809Y8991D01*
X12030Y8900D01*
X12268Y8899D01*
X12489Y8991D01*
X12564Y9065D01*
X12587Y9008D01*
X12658Y8938D01*
X12750Y8900D01*
X12849Y8899D01*
X12987Y8900D01*
X13050Y8962D01*
X13050Y9400D01*
X13042Y9400D01*
X13042Y9600D01*
X13050Y9600D01*
X13050Y10037D01*
X12987Y10100D01*
X12849Y10100D01*
X12750Y10099D01*
X12658Y10061D01*
X12625Y10028D01*
X12625Y10843D01*
X12650Y10880D01*
X12761Y10714D01*
X12939Y10595D01*
X13150Y10553D01*
X13360Y10595D01*
X13538Y10714D01*
X13599Y10806D01*
X13599Y10767D01*
X13637Y10675D01*
X13708Y10605D01*
X13800Y10567D01*
X13821Y10567D01*
X13821Y10013D01*
X13810Y10008D01*
X13735Y9934D01*
X13712Y9991D01*
X13641Y10061D01*
X13549Y10099D01*
X13450Y10100D01*
X13312Y10100D01*
X13250Y10037D01*
X13250Y9600D01*
X13257Y9600D01*
X13257Y9400D01*
X13250Y9400D01*
X13250Y8962D01*
X13312Y8900D01*
X13450Y8899D01*
X13549Y8900D01*
X13641Y8938D01*
X13712Y9008D01*
X13735Y9065D01*
X13809Y8991D01*
X14030Y8900D01*
X14268Y8899D01*
X14489Y8991D01*
X14658Y9159D01*
X14749Y9380D01*
X14750Y9618D01*
X14658Y9839D01*
X14490Y10008D01*
X14478Y10013D01*
X14478Y10566D01*
X14499Y10566D01*
X14591Y10604D01*
X14661Y10675D01*
X14699Y10767D01*
X14700Y10866D01*
X14700Y11732D01*
X14662Y11824D01*
X14591Y11894D01*
X14499Y11932D01*
X14400Y11933D01*
X13800Y11933D01*
X13708Y11895D01*
X13638Y11824D01*
X13600Y11732D01*
X13600Y11693D01*
X13538Y11785D01*
X13360Y11904D01*
X13150Y11946D01*
X12939Y11904D01*
X12831Y11832D01*
X12580Y12083D01*
X12474Y12154D01*
X12443Y12160D01*
X12443Y17795D01*
X12443Y18684D01*
X12443Y18684D01*
X12418Y18810D01*
X12347Y18917D01*
X12347Y18917D01*
X11064Y20200D01*
X11149Y20199D01*
X11749Y20199D01*
X11841Y20237D01*
X11911Y20308D01*
X11949Y20400D01*
X11949Y20422D01*
X12088Y20284D01*
X12290Y20200D01*
X12508Y20199D01*
X12711Y20283D01*
X12865Y20438D01*
X12899Y20519D01*
X12933Y20438D01*
X13088Y20284D01*
X13290Y20200D01*
X13508Y20199D01*
X13530Y20208D01*
X13839Y19900D01*
X13839Y14668D01*
X13861Y14557D01*
X13924Y14463D01*
X14702Y13685D01*
X14702Y13645D01*
X14759Y13508D01*
X14787Y13479D01*
X14787Y10822D01*
X14809Y10711D01*
X14872Y10617D01*
X15358Y10131D01*
X15350Y10109D01*
X15349Y9891D01*
X15358Y9869D01*
G54D10*
G36*
X32372Y6892D02*
X30997Y5518D01*
X30813Y5518D01*
X30702Y5495D01*
X30608Y5433D01*
X30608Y5433D01*
X29782Y4607D01*
X29610Y4722D01*
X29400Y4764D01*
X29190Y4722D01*
X29190Y5307D01*
X29921Y6038D01*
X29960Y6038D01*
X30098Y6095D01*
X30204Y6201D01*
X30261Y6338D01*
X30261Y6488D01*
X30204Y6625D01*
X30099Y6731D01*
X29961Y6788D01*
X29812Y6788D01*
X29674Y6731D01*
X29568Y6626D01*
X29511Y6488D01*
X29511Y6448D01*
X28694Y5632D01*
X28632Y5538D01*
X28610Y5427D01*
X28610Y4938D01*
X28605Y4946D01*
X28605Y4946D01*
X26985Y6565D01*
X26891Y6628D01*
X26780Y6650D01*
X23025Y6650D01*
X22997Y6678D01*
X22859Y6735D01*
X22710Y6735D01*
X22572Y6678D01*
X22536Y6642D01*
X22525Y6670D01*
X22420Y6775D01*
X22282Y6833D01*
X22133Y6833D01*
X21995Y6776D01*
X21889Y6670D01*
X21832Y6533D01*
X21832Y6493D01*
X21165Y5825D01*
X21140Y5825D01*
X21002Y5768D01*
X20897Y5663D01*
X20839Y5525D01*
X20839Y5495D01*
X20573Y5495D01*
X19663Y6404D01*
X19663Y6444D01*
X19606Y6581D01*
X19501Y6687D01*
X19363Y6744D01*
X19214Y6744D01*
X19076Y6687D01*
X18971Y6582D01*
X18913Y6444D01*
X18913Y6397D01*
X18436Y6874D01*
X18436Y6924D01*
X18584Y7072D01*
X19863Y7072D01*
X19974Y7094D01*
X20068Y7157D01*
X20516Y7605D01*
X20588Y7534D01*
X20790Y7450D01*
X20975Y7449D01*
X20958Y7407D01*
X20958Y7258D01*
X21015Y7120D01*
X21120Y7014D01*
X21258Y6957D01*
X21407Y6957D01*
X21545Y7014D01*
X21573Y7042D01*
X27832Y7042D01*
X27943Y7064D01*
X28037Y7127D01*
X28516Y7605D01*
X28588Y7534D01*
X28790Y7450D01*
X29008Y7449D01*
X29030Y7458D01*
X29186Y7303D01*
X29186Y7303D01*
X29280Y7240D01*
X29391Y7218D01*
X29391Y7218D01*
X29391Y7218D01*
X29960Y7218D01*
X29988Y7191D01*
X30126Y7133D01*
X30275Y7133D01*
X30413Y7190D01*
X30519Y7296D01*
X30542Y7352D01*
X30712Y7182D01*
X30712Y7182D01*
X30806Y7119D01*
X30917Y7097D01*
X30917Y7097D01*
X30917Y7097D01*
X32181Y7097D01*
X32372Y6906D01*
X32372Y6892D01*
X32372Y6892D01*
G37*
G54D39*
X32372Y6892D02*
X30997Y5518D01*
X30813Y5518D01*
X30702Y5495D01*
X30608Y5433D01*
X30608Y5433D01*
X29782Y4607D01*
X29610Y4722D01*
X29400Y4764D01*
X29190Y4722D01*
X29190Y5307D01*
X29921Y6038D01*
X29960Y6038D01*
X30098Y6095D01*
X30204Y6201D01*
X30261Y6338D01*
X30261Y6488D01*
X30204Y6625D01*
X30099Y6731D01*
X29961Y6788D01*
X29812Y6788D01*
X29674Y6731D01*
X29568Y6626D01*
X29511Y6488D01*
X29511Y6448D01*
X28694Y5632D01*
X28632Y5538D01*
X28610Y5427D01*
X28610Y4938D01*
X28605Y4946D01*
X28605Y4946D01*
X26985Y6565D01*
X26891Y6628D01*
X26780Y6650D01*
X23025Y6650D01*
X22997Y6678D01*
X22859Y6735D01*
X22710Y6735D01*
X22572Y6678D01*
X22536Y6642D01*
X22525Y6670D01*
X22420Y6775D01*
X22282Y6833D01*
X22133Y6833D01*
X21995Y6776D01*
X21889Y6670D01*
X21832Y6533D01*
X21832Y6493D01*
X21165Y5825D01*
X21140Y5825D01*
X21002Y5768D01*
X20897Y5663D01*
X20839Y5525D01*
X20839Y5495D01*
X20573Y5495D01*
X19663Y6404D01*
X19663Y6444D01*
X19606Y6581D01*
X19501Y6687D01*
X19363Y6744D01*
X19214Y6744D01*
X19076Y6687D01*
X18971Y6582D01*
X18913Y6444D01*
X18913Y6397D01*
X18436Y6874D01*
X18436Y6924D01*
X18584Y7072D01*
X19863Y7072D01*
X19974Y7094D01*
X20068Y7157D01*
X20516Y7605D01*
X20588Y7534D01*
X20790Y7450D01*
X20975Y7449D01*
X20958Y7407D01*
X20958Y7258D01*
X21015Y7120D01*
X21120Y7014D01*
X21258Y6957D01*
X21407Y6957D01*
X21545Y7014D01*
X21573Y7042D01*
X27832Y7042D01*
X27943Y7064D01*
X28037Y7127D01*
X28516Y7605D01*
X28588Y7534D01*
X28790Y7450D01*
X29008Y7449D01*
X29030Y7458D01*
X29186Y7303D01*
X29186Y7303D01*
X29280Y7240D01*
X29391Y7218D01*
X29391Y7218D01*
X29391Y7218D01*
X29960Y7218D01*
X29988Y7191D01*
X30126Y7133D01*
X30275Y7133D01*
X30413Y7190D01*
X30519Y7296D01*
X30542Y7352D01*
X30712Y7182D01*
X30712Y7182D01*
X30806Y7119D01*
X30917Y7097D01*
X30917Y7097D01*
X30917Y7097D01*
X32181Y7097D01*
X32372Y6906D01*
X32372Y6892D01*
G54D10*
G36*
X34538Y1800D02*
X34174Y1800D01*
X34174Y2584D01*
X33900Y2858D01*
X33625Y2584D01*
X33656Y2494D01*
X33868Y2440D01*
X34085Y2470D01*
X34143Y2494D01*
X34174Y2584D01*
X34174Y1800D01*
X34050Y1800D01*
X33958Y1762D01*
X33888Y1691D01*
X33850Y1599D01*
X33849Y1500D01*
X33849Y1119D01*
X33450Y1119D01*
X33450Y1599D01*
X33412Y1691D01*
X33341Y1761D01*
X33249Y1799D01*
X33150Y1800D01*
X32550Y1800D01*
X32458Y1762D01*
X32388Y1691D01*
X32350Y1599D01*
X32350Y1577D01*
X32211Y1715D01*
X32009Y1799D01*
X31791Y1800D01*
X31588Y1716D01*
X31434Y1561D01*
X31400Y1480D01*
X31366Y1561D01*
X31211Y1715D01*
X31009Y1799D01*
X30791Y1800D01*
X30588Y1716D01*
X30434Y1561D01*
X30400Y1480D01*
X30366Y1561D01*
X30211Y1715D01*
X30009Y1799D01*
X29791Y1800D01*
X29588Y1716D01*
X29434Y1561D01*
X29350Y1359D01*
X29349Y1221D01*
X28892Y1678D01*
X28825Y1745D01*
X28651Y1818D01*
X28462Y1818D01*
X28287Y1746D01*
X28154Y1612D01*
X28081Y1438D01*
X28081Y1249D01*
X28153Y1074D01*
X28287Y941D01*
X28287Y940D01*
X28903Y325D01*
X26174Y325D01*
X25450Y325D01*
X25450Y999D01*
X25450Y1599D01*
X25412Y1691D01*
X25341Y1761D01*
X25249Y1799D01*
X25150Y1800D01*
X24550Y1800D01*
X24458Y1762D01*
X24388Y1691D01*
X24350Y1599D01*
X24350Y1577D01*
X24211Y1715D01*
X24009Y1799D01*
X23791Y1800D01*
X23588Y1716D01*
X23434Y1561D01*
X23400Y1480D01*
X23366Y1561D01*
X23211Y1715D01*
X23009Y1799D01*
X22791Y1800D01*
X22588Y1716D01*
X22434Y1561D01*
X22400Y1480D01*
X22366Y1561D01*
X22211Y1715D01*
X22009Y1799D01*
X21791Y1800D01*
X21588Y1716D01*
X21434Y1561D01*
X21350Y1359D01*
X21349Y1141D01*
X21433Y938D01*
X21588Y784D01*
X21790Y700D01*
X22008Y699D01*
X22211Y783D01*
X22365Y938D01*
X22399Y1019D01*
X22433Y938D01*
X22588Y784D01*
X22790Y700D01*
X23008Y699D01*
X23211Y783D01*
X23365Y938D01*
X23399Y1019D01*
X23433Y938D01*
X23588Y784D01*
X23790Y700D01*
X24008Y699D01*
X24211Y783D01*
X24349Y922D01*
X24349Y900D01*
X24387Y808D01*
X24458Y738D01*
X24550Y700D01*
X24649Y699D01*
X25249Y699D01*
X25341Y737D01*
X25411Y808D01*
X25449Y900D01*
X25450Y999D01*
X25450Y325D01*
X18450Y325D01*
X18450Y999D01*
X18450Y1599D01*
X18412Y1691D01*
X18341Y1761D01*
X18249Y1799D01*
X18150Y1800D01*
X17550Y1800D01*
X17458Y1762D01*
X17388Y1691D01*
X17350Y1599D01*
X17350Y1577D01*
X17211Y1715D01*
X17009Y1799D01*
X16791Y1800D01*
X16588Y1716D01*
X16434Y1561D01*
X16400Y1480D01*
X16366Y1561D01*
X16211Y1715D01*
X16009Y1799D01*
X15791Y1800D01*
X15588Y1716D01*
X15434Y1561D01*
X15400Y1480D01*
X15366Y1561D01*
X15211Y1715D01*
X15009Y1799D01*
X14791Y1800D01*
X14588Y1716D01*
X14434Y1561D01*
X14350Y1359D01*
X14349Y1141D01*
X14433Y938D01*
X14588Y784D01*
X14790Y700D01*
X15008Y699D01*
X15211Y783D01*
X15365Y938D01*
X15399Y1019D01*
X15433Y938D01*
X15588Y784D01*
X15790Y700D01*
X16008Y699D01*
X16211Y783D01*
X16365Y938D01*
X16399Y1019D01*
X16433Y938D01*
X16588Y784D01*
X16790Y700D01*
X17008Y699D01*
X17211Y783D01*
X17349Y922D01*
X17349Y900D01*
X17387Y808D01*
X17458Y738D01*
X17550Y700D01*
X17649Y699D01*
X18249Y699D01*
X18341Y737D01*
X18411Y808D01*
X18449Y900D01*
X18450Y999D01*
X18450Y325D01*
X13450Y325D01*
X13450Y999D01*
X13450Y1599D01*
X13412Y1691D01*
X13341Y1761D01*
X13249Y1799D01*
X13150Y1800D01*
X12550Y1800D01*
X12458Y1762D01*
X12388Y1691D01*
X12350Y1599D01*
X12349Y1512D01*
X12315Y1524D01*
X12174Y1383D01*
X12174Y1665D01*
X12143Y1755D01*
X11931Y1809D01*
X11714Y1779D01*
X11656Y1755D01*
X11625Y1665D01*
X11900Y1391D01*
X12174Y1665D01*
X12174Y1383D01*
X12041Y1250D01*
X12315Y975D01*
X12349Y987D01*
X12349Y900D01*
X12387Y808D01*
X12458Y738D01*
X12550Y700D01*
X12649Y699D01*
X13249Y699D01*
X13341Y737D01*
X13411Y808D01*
X13449Y900D01*
X13450Y999D01*
X13450Y325D01*
X12174Y325D01*
X12174Y834D01*
X11900Y1108D01*
X11758Y967D01*
X11758Y1250D01*
X11484Y1524D01*
X11394Y1493D01*
X11340Y1281D01*
X11370Y1064D01*
X11394Y1006D01*
X11484Y975D01*
X11758Y1250D01*
X11758Y967D01*
X11625Y834D01*
X11656Y744D01*
X11868Y690D01*
X12085Y720D01*
X12143Y744D01*
X12174Y834D01*
X12174Y325D01*
X9668Y325D01*
X9799Y640D01*
X9800Y998D01*
X9663Y1329D01*
X9410Y1582D01*
X9079Y1719D01*
X8721Y1720D01*
X8395Y1585D01*
X8395Y1697D01*
X8244Y2062D01*
X7964Y2343D01*
X7598Y2494D01*
X7202Y2495D01*
X6837Y2344D01*
X6800Y2307D01*
X6800Y2358D01*
X6663Y2689D01*
X6410Y2942D01*
X6079Y3079D01*
X5775Y3080D01*
X5775Y4173D01*
X5642Y4495D01*
X5396Y4741D01*
X5074Y4874D01*
X4726Y4875D01*
X4405Y4742D01*
X4158Y4496D01*
X4025Y4174D01*
X4024Y3826D01*
X4157Y3505D01*
X4403Y3258D01*
X4725Y3125D01*
X5073Y3124D01*
X5395Y3257D01*
X5641Y3503D01*
X5774Y3825D01*
X5775Y4173D01*
X5775Y3080D01*
X5721Y3080D01*
X5390Y2943D01*
X5137Y2690D01*
X5000Y2359D01*
X4999Y2001D01*
X5136Y1670D01*
X5389Y1417D01*
X5720Y1280D01*
X6078Y1279D01*
X6404Y1414D01*
X6404Y1302D01*
X6555Y937D01*
X6835Y656D01*
X7201Y505D01*
X7597Y504D01*
X7962Y655D01*
X7999Y692D01*
X7999Y641D01*
X8130Y325D01*
X2740Y325D01*
X2740Y3666D01*
X2740Y7666D01*
X2612Y7975D01*
X2376Y8212D01*
X2067Y8340D01*
X1733Y8340D01*
X1424Y8212D01*
X1187Y7976D01*
X1059Y7667D01*
X1059Y7333D01*
X1187Y7024D01*
X1423Y6787D01*
X1732Y6659D01*
X2066Y6659D01*
X2375Y6787D01*
X2612Y7023D01*
X2740Y7332D01*
X2740Y7666D01*
X2740Y3666D01*
X2740Y3666D01*
X2740Y4859D01*
X2740Y6140D01*
X2702Y6231D01*
X2632Y6302D01*
X2540Y6340D01*
X2440Y6340D01*
X2062Y6340D01*
X2000Y6278D01*
X2000Y5600D01*
X2678Y5600D01*
X2740Y5662D01*
X2740Y6140D01*
X2740Y4859D01*
X2740Y5337D01*
X2678Y5400D01*
X2000Y5400D01*
X2000Y4722D01*
X2062Y4659D01*
X2440Y4659D01*
X2540Y4659D01*
X2632Y4697D01*
X2702Y4768D01*
X2740Y4859D01*
X2740Y3666D01*
X2612Y3975D01*
X2376Y4212D01*
X2067Y4340D01*
X1800Y4340D01*
X1800Y4722D01*
X1800Y5400D01*
X1800Y5600D01*
X1800Y6278D01*
X1737Y6340D01*
X1359Y6340D01*
X1259Y6340D01*
X1167Y6302D01*
X1097Y6231D01*
X1059Y6140D01*
X1059Y5662D01*
X1122Y5600D01*
X1800Y5600D01*
X1800Y5400D01*
X1122Y5400D01*
X1059Y5337D01*
X1059Y4859D01*
X1097Y4768D01*
X1167Y4697D01*
X1259Y4659D01*
X1359Y4659D01*
X1737Y4659D01*
X1800Y4722D01*
X1800Y4340D01*
X1733Y4340D01*
X1424Y4212D01*
X1187Y3976D01*
X1059Y3667D01*
X1059Y3333D01*
X1187Y3024D01*
X1423Y2787D01*
X1732Y2659D01*
X2066Y2659D01*
X2375Y2787D01*
X2612Y3023D01*
X2740Y3332D01*
X2740Y3666D01*
X2740Y325D01*
X2740Y325D01*
X2740Y859D01*
X2740Y2140D01*
X2702Y2231D01*
X2632Y2302D01*
X2540Y2340D01*
X2440Y2340D01*
X2062Y2340D01*
X2000Y2278D01*
X2000Y1600D01*
X2678Y1600D01*
X2740Y1662D01*
X2740Y2140D01*
X2740Y859D01*
X2740Y1337D01*
X2678Y1400D01*
X2000Y1400D01*
X2000Y722D01*
X2062Y659D01*
X2440Y659D01*
X2540Y659D01*
X2632Y697D01*
X2702Y768D01*
X2740Y859D01*
X2740Y325D01*
X1800Y325D01*
X1800Y722D01*
X1800Y1400D01*
X1800Y1600D01*
X1800Y2278D01*
X1737Y2340D01*
X1359Y2340D01*
X1259Y2340D01*
X1167Y2302D01*
X1097Y2231D01*
X1059Y2140D01*
X1059Y1662D01*
X1122Y1600D01*
X1800Y1600D01*
X1800Y1400D01*
X1122Y1400D01*
X1059Y1337D01*
X1059Y859D01*
X1097Y768D01*
X1167Y697D01*
X1259Y659D01*
X1359Y659D01*
X1737Y659D01*
X1800Y722D01*
X1800Y325D01*
X325Y325D01*
X325Y8631D01*
X349Y8574D01*
X595Y8504D01*
X850Y8533D01*
X950Y8574D01*
X993Y8673D01*
X732Y8934D01*
X748Y8931D01*
X847Y8931D01*
X896Y8940D01*
X945Y8931D01*
X1006Y8943D01*
X1134Y8814D01*
X1233Y8857D01*
X1303Y9103D01*
X1292Y9200D01*
X6800Y9200D01*
X6800Y12697D01*
X6842Y12739D01*
X6979Y13070D01*
X6980Y13428D01*
X6843Y13759D01*
X6800Y13802D01*
X6800Y16001D01*
X6809Y15991D01*
X7030Y15900D01*
X7268Y15899D01*
X7489Y15991D01*
X7564Y16065D01*
X7587Y16008D01*
X7658Y15938D01*
X7750Y15900D01*
X7849Y15899D01*
X8549Y15899D01*
X8641Y15937D01*
X8711Y16008D01*
X8749Y16100D01*
X8750Y16199D01*
X8750Y16899D01*
X8712Y16991D01*
X8641Y17061D01*
X8549Y17099D01*
X8450Y17100D01*
X7750Y17100D01*
X7658Y17062D01*
X7588Y16991D01*
X7564Y16934D01*
X7490Y17008D01*
X7269Y17099D01*
X7031Y17100D01*
X6810Y17008D01*
X6800Y16998D01*
X6800Y17300D01*
X2727Y17300D01*
X2740Y17332D01*
X2740Y17666D01*
X2612Y17975D01*
X2398Y18190D01*
X2398Y21632D01*
X2398Y25382D01*
X2398Y29132D01*
X2288Y29397D01*
X2200Y29486D01*
X2200Y31858D01*
X2200Y34108D01*
X2116Y34311D01*
X1961Y34465D01*
X1759Y34549D01*
X1541Y34550D01*
X1338Y34466D01*
X1184Y34311D01*
X1100Y34109D01*
X1099Y33891D01*
X1183Y33688D01*
X1322Y33550D01*
X1300Y33550D01*
X1208Y33512D01*
X1138Y33441D01*
X1100Y33349D01*
X1099Y33250D01*
X1099Y32650D01*
X1137Y32558D01*
X1208Y32488D01*
X1300Y32450D01*
X1399Y32449D01*
X1999Y32449D01*
X2091Y32487D01*
X2161Y32558D01*
X2199Y32650D01*
X2200Y32749D01*
X2200Y33349D01*
X2162Y33441D01*
X2091Y33511D01*
X1999Y33549D01*
X1977Y33549D01*
X2115Y33688D01*
X2199Y33890D01*
X2200Y34108D01*
X2200Y31858D01*
X2116Y32061D01*
X1961Y32215D01*
X1759Y32299D01*
X1541Y32300D01*
X1338Y32216D01*
X1184Y32061D01*
X1100Y31859D01*
X1099Y31641D01*
X1183Y31438D01*
X1322Y31300D01*
X1300Y31300D01*
X1208Y31262D01*
X1138Y31191D01*
X1100Y31099D01*
X1099Y31000D01*
X1099Y30400D01*
X1137Y30308D01*
X1208Y30238D01*
X1300Y30200D01*
X1399Y30199D01*
X1999Y30199D01*
X2091Y30237D01*
X2161Y30308D01*
X2199Y30400D01*
X2200Y30499D01*
X2200Y31099D01*
X2162Y31191D01*
X2091Y31261D01*
X1999Y31299D01*
X1977Y31299D01*
X2115Y31438D01*
X2199Y31640D01*
X2200Y31858D01*
X2200Y29486D01*
X2085Y29601D01*
X1819Y29711D01*
X1532Y29711D01*
X1266Y29601D01*
X1063Y29398D01*
X953Y29133D01*
X953Y28845D01*
X1062Y28580D01*
X1265Y28376D01*
X1370Y28333D01*
X1153Y28333D01*
X1061Y28295D01*
X991Y28225D01*
X953Y28133D01*
X953Y28033D01*
X953Y27089D01*
X991Y26997D01*
X1061Y26926D01*
X1153Y26888D01*
X1252Y26888D01*
X2197Y26888D01*
X2289Y26926D01*
X2359Y26996D01*
X2397Y27088D01*
X2398Y27188D01*
X2398Y28132D01*
X2360Y28224D01*
X2289Y28295D01*
X2197Y28333D01*
X2098Y28333D01*
X1981Y28333D01*
X2084Y28376D01*
X2287Y28579D01*
X2397Y28844D01*
X2398Y29132D01*
X2398Y25382D01*
X2288Y25647D01*
X2085Y25851D01*
X1819Y25961D01*
X1532Y25961D01*
X1266Y25851D01*
X1063Y25648D01*
X953Y25383D01*
X953Y25095D01*
X1062Y24830D01*
X1265Y24626D01*
X1370Y24583D01*
X1153Y24583D01*
X1061Y24545D01*
X991Y24475D01*
X953Y24383D01*
X953Y24283D01*
X953Y23339D01*
X991Y23247D01*
X1061Y23176D01*
X1153Y23138D01*
X1252Y23138D01*
X2197Y23138D01*
X2289Y23176D01*
X2359Y23246D01*
X2397Y23338D01*
X2398Y23438D01*
X2398Y24382D01*
X2360Y24474D01*
X2289Y24545D01*
X2197Y24583D01*
X2098Y24583D01*
X1981Y24583D01*
X2084Y24626D01*
X2287Y24829D01*
X2397Y25094D01*
X2398Y25382D01*
X2398Y21632D01*
X2288Y21897D01*
X2085Y22101D01*
X1819Y22211D01*
X1532Y22211D01*
X1266Y22101D01*
X1063Y21898D01*
X953Y21633D01*
X953Y21345D01*
X1062Y21080D01*
X1265Y20876D01*
X1370Y20833D01*
X1153Y20833D01*
X1061Y20795D01*
X991Y20725D01*
X953Y20633D01*
X953Y20533D01*
X953Y19589D01*
X991Y19497D01*
X1061Y19426D01*
X1153Y19388D01*
X1252Y19388D01*
X2197Y19388D01*
X2289Y19426D01*
X2359Y19496D01*
X2397Y19588D01*
X2398Y19688D01*
X2398Y20632D01*
X2360Y20724D01*
X2289Y20795D01*
X2197Y20833D01*
X2098Y20833D01*
X1981Y20833D01*
X2084Y20876D01*
X2287Y21079D01*
X2397Y21344D01*
X2398Y21632D01*
X2398Y18190D01*
X2376Y18212D01*
X2067Y18340D01*
X1733Y18340D01*
X1424Y18212D01*
X1187Y17976D01*
X1059Y17667D01*
X1059Y17333D01*
X1073Y17300D01*
X325Y17300D01*
X325Y24000D01*
X325Y27500D01*
X325Y30000D01*
X325Y33000D01*
X325Y34000D01*
X325Y34675D01*
X15216Y34675D01*
X15216Y34150D01*
X15254Y34058D01*
X15325Y33988D01*
X15417Y33950D01*
X15456Y33950D01*
X15364Y33888D01*
X15245Y33710D01*
X15203Y33500D01*
X15245Y33289D01*
X15364Y33111D01*
X15530Y33000D01*
X15364Y32888D01*
X15245Y32710D01*
X15203Y32500D01*
X15245Y32289D01*
X15259Y32269D01*
X15094Y32105D01*
X15032Y32010D01*
X15010Y31900D01*
X15010Y31150D01*
X15032Y31039D01*
X15094Y30944D01*
X15344Y30694D01*
X15344Y30694D01*
X15439Y30632D01*
X15550Y30610D01*
X16129Y30610D01*
X16534Y30205D01*
X16534Y30039D01*
X16509Y30049D01*
X16291Y30050D01*
X16088Y29966D01*
X15934Y29811D01*
X15900Y29730D01*
X15866Y29811D01*
X15711Y29965D01*
X15509Y30049D01*
X15291Y30050D01*
X15088Y29966D01*
X14934Y29811D01*
X14900Y29730D01*
X14866Y29811D01*
X14711Y29965D01*
X14509Y30049D01*
X14450Y30049D01*
X14450Y32608D01*
X14366Y32811D01*
X14211Y32965D01*
X14009Y33049D01*
X13791Y33050D01*
X13588Y32966D01*
X13434Y32811D01*
X13400Y32730D01*
X13366Y32811D01*
X13211Y32965D01*
X13009Y33049D01*
X12791Y33050D01*
X12588Y32966D01*
X12434Y32811D01*
X12400Y32730D01*
X12366Y32811D01*
X12211Y32965D01*
X12009Y33049D01*
X11791Y33050D01*
X11588Y32966D01*
X11450Y32827D01*
X11450Y32849D01*
X11412Y32941D01*
X11341Y33011D01*
X11249Y33049D01*
X11150Y33050D01*
X10550Y33050D01*
X10458Y33012D01*
X10388Y32941D01*
X10350Y32849D01*
X10349Y32750D01*
X10349Y32150D01*
X10387Y32058D01*
X10458Y31988D01*
X10550Y31950D01*
X10649Y31949D01*
X11249Y31949D01*
X11341Y31987D01*
X11411Y32058D01*
X11449Y32150D01*
X11449Y32172D01*
X11588Y32034D01*
X11790Y31950D01*
X12008Y31949D01*
X12211Y32033D01*
X12365Y32188D01*
X12399Y32269D01*
X12433Y32188D01*
X12588Y32034D01*
X12790Y31950D01*
X13008Y31949D01*
X13211Y32033D01*
X13365Y32188D01*
X13399Y32269D01*
X13433Y32188D01*
X13588Y32034D01*
X13790Y31950D01*
X14008Y31949D01*
X14211Y32033D01*
X14365Y32188D01*
X14449Y32390D01*
X14450Y32608D01*
X14450Y30049D01*
X14291Y30050D01*
X14088Y29966D01*
X13934Y29811D01*
X13900Y29730D01*
X13866Y29811D01*
X13711Y29965D01*
X13509Y30049D01*
X13291Y30050D01*
X13088Y29966D01*
X12934Y29811D01*
X12900Y29730D01*
X12866Y29811D01*
X12711Y29965D01*
X12509Y30049D01*
X12291Y30050D01*
X12088Y29966D01*
X11934Y29811D01*
X11905Y29742D01*
X11905Y29743D01*
X11815Y29774D01*
X11674Y29633D01*
X11674Y29915D01*
X11643Y30005D01*
X11431Y30059D01*
X11214Y30029D01*
X11156Y30005D01*
X11125Y29915D01*
X11400Y29641D01*
X11674Y29915D01*
X11674Y29633D01*
X11541Y29500D01*
X11815Y29225D01*
X11905Y29256D01*
X11905Y29257D01*
X11933Y29188D01*
X12088Y29034D01*
X12290Y28950D01*
X12508Y28949D01*
X12711Y29033D01*
X12865Y29188D01*
X12899Y29269D01*
X12933Y29188D01*
X13088Y29034D01*
X13290Y28950D01*
X13508Y28949D01*
X13711Y29033D01*
X13865Y29188D01*
X13899Y29269D01*
X13933Y29188D01*
X14088Y29034D01*
X14290Y28950D01*
X14508Y28949D01*
X14711Y29033D01*
X14865Y29188D01*
X14899Y29269D01*
X14933Y29188D01*
X15088Y29034D01*
X15290Y28950D01*
X15493Y28949D01*
X15493Y28863D01*
X15550Y28725D01*
X15655Y28620D01*
X15793Y28563D01*
X15942Y28562D01*
X16080Y28619D01*
X16108Y28647D01*
X16456Y28647D01*
X16567Y28670D01*
X16661Y28732D01*
X17025Y29096D01*
X17088Y29034D01*
X17155Y29006D01*
X17154Y28861D01*
X17211Y28723D01*
X17317Y28617D01*
X17455Y28560D01*
X17604Y28560D01*
X17742Y28617D01*
X17847Y28722D01*
X17904Y28860D01*
X17905Y28900D01*
X18063Y29058D01*
X18088Y29034D01*
X18290Y28950D01*
X18508Y28949D01*
X18711Y29033D01*
X18865Y29188D01*
X18894Y29257D01*
X18894Y29256D01*
X18984Y29225D01*
X19258Y29500D01*
X18984Y29774D01*
X18894Y29743D01*
X18894Y29742D01*
X18866Y29811D01*
X18711Y29965D01*
X18509Y30049D01*
X18291Y30050D01*
X18190Y30008D01*
X18190Y31024D01*
X18211Y31033D01*
X18365Y31188D01*
X18399Y31269D01*
X18433Y31188D01*
X18588Y31034D01*
X18790Y30950D01*
X19008Y30949D01*
X19211Y31033D01*
X19365Y31188D01*
X19399Y31269D01*
X19433Y31188D01*
X19588Y31034D01*
X19790Y30950D01*
X20008Y30949D01*
X20211Y31033D01*
X20365Y31188D01*
X20449Y31390D01*
X20450Y31608D01*
X20366Y31811D01*
X20211Y31965D01*
X20130Y31999D01*
X20211Y32033D01*
X20365Y32188D01*
X20449Y32390D01*
X20450Y32608D01*
X20366Y32811D01*
X20227Y32949D01*
X20249Y32949D01*
X20249Y32950D01*
X21890Y31309D01*
X21890Y31309D01*
X21984Y31246D01*
X22095Y31224D01*
X22095Y31224D01*
X22095Y31224D01*
X23265Y31224D01*
X24439Y30049D01*
X24291Y30050D01*
X24088Y29966D01*
X23934Y29811D01*
X23900Y29730D01*
X23866Y29811D01*
X23711Y29965D01*
X23509Y30049D01*
X23291Y30050D01*
X23088Y29966D01*
X22934Y29811D01*
X22900Y29730D01*
X22866Y29811D01*
X22711Y29965D01*
X22509Y30049D01*
X22291Y30050D01*
X22088Y29966D01*
X21934Y29811D01*
X21900Y29730D01*
X21866Y29811D01*
X21711Y29965D01*
X21509Y30049D01*
X21291Y30050D01*
X21088Y29966D01*
X20934Y29811D01*
X20900Y29730D01*
X20866Y29811D01*
X20711Y29965D01*
X20509Y30049D01*
X20291Y30050D01*
X20088Y29966D01*
X19934Y29811D01*
X19905Y29742D01*
X19905Y29743D01*
X19815Y29774D01*
X19674Y29633D01*
X19674Y29915D01*
X19643Y30005D01*
X19431Y30059D01*
X19214Y30029D01*
X19156Y30005D01*
X19125Y29915D01*
X19400Y29641D01*
X19674Y29915D01*
X19674Y29633D01*
X19541Y29500D01*
X19815Y29225D01*
X19905Y29256D01*
X19905Y29257D01*
X19933Y29188D01*
X20088Y29034D01*
X20290Y28950D01*
X20508Y28949D01*
X20711Y29033D01*
X20865Y29188D01*
X20899Y29269D01*
X20933Y29188D01*
X21088Y29034D01*
X21290Y28950D01*
X21508Y28949D01*
X21711Y29033D01*
X21865Y29188D01*
X21899Y29269D01*
X21933Y29188D01*
X22088Y29034D01*
X22290Y28950D01*
X22508Y28949D01*
X22711Y29033D01*
X22865Y29188D01*
X22899Y29269D01*
X22933Y29188D01*
X23088Y29034D01*
X23290Y28950D01*
X23508Y28949D01*
X23711Y29033D01*
X23865Y29188D01*
X23899Y29269D01*
X23933Y29188D01*
X24088Y29034D01*
X24290Y28950D01*
X24508Y28949D01*
X24530Y28958D01*
X24615Y28874D01*
X24709Y28811D01*
X24820Y28789D01*
X26580Y28789D01*
X26691Y28811D01*
X26785Y28874D01*
X27009Y29098D01*
X27074Y29033D01*
X27125Y29084D01*
X27156Y28994D01*
X27368Y28940D01*
X27585Y28970D01*
X27643Y28994D01*
X27674Y29084D01*
X27400Y29358D01*
X27394Y29353D01*
X27253Y29494D01*
X27258Y29500D01*
X27253Y29505D01*
X27394Y29646D01*
X27400Y29641D01*
X27674Y29915D01*
X27663Y29947D01*
X29013Y31297D01*
X29411Y31297D01*
X29338Y31248D01*
X29338Y31248D01*
X28694Y30605D01*
X28632Y30510D01*
X28610Y30400D01*
X28610Y30008D01*
X28509Y30049D01*
X28291Y30050D01*
X28088Y29966D01*
X27934Y29811D01*
X27905Y29742D01*
X27905Y29743D01*
X27815Y29774D01*
X27541Y29500D01*
X27815Y29225D01*
X27905Y29256D01*
X27905Y29257D01*
X27933Y29188D01*
X28088Y29034D01*
X28290Y28950D01*
X28508Y28949D01*
X28531Y28959D01*
X28560Y28890D01*
X28450Y28890D01*
X28449Y28890D01*
X28339Y28867D01*
X28244Y28805D01*
X28244Y28805D01*
X27674Y28234D01*
X26064Y26625D01*
X26025Y26625D01*
X25887Y26568D01*
X25782Y26462D01*
X25725Y26324D01*
X25724Y26175D01*
X25781Y26037D01*
X25849Y25970D01*
X25746Y25928D01*
X25641Y25822D01*
X25583Y25684D01*
X25583Y25535D01*
X25640Y25397D01*
X25683Y25355D01*
X24353Y25355D01*
X24242Y25333D01*
X24148Y25270D01*
X24148Y25270D01*
X23777Y24899D01*
X23711Y24965D01*
X23690Y24975D01*
X23690Y27822D01*
X23717Y27850D01*
X23774Y27987D01*
X23775Y28137D01*
X23718Y28274D01*
X23612Y28380D01*
X23474Y28437D01*
X23325Y28437D01*
X23187Y28380D01*
X23170Y28363D01*
X23155Y28378D01*
X23018Y28435D01*
X22868Y28435D01*
X22730Y28378D01*
X22625Y28273D01*
X22568Y28135D01*
X22568Y27986D01*
X22625Y27848D01*
X22653Y27820D01*
X22653Y24990D01*
X22509Y25049D01*
X22291Y25050D01*
X22112Y24976D01*
X22112Y27826D01*
X22139Y27853D01*
X22196Y27991D01*
X22197Y28140D01*
X22140Y28278D01*
X22034Y28384D01*
X21896Y28441D01*
X21747Y28441D01*
X21609Y28384D01*
X21504Y28279D01*
X21447Y28141D01*
X21446Y27992D01*
X21503Y27854D01*
X21532Y27826D01*
X21532Y25040D01*
X21509Y25049D01*
X21291Y25050D01*
X21088Y24966D01*
X20934Y24811D01*
X20900Y24730D01*
X20866Y24811D01*
X20711Y24965D01*
X20509Y25049D01*
X20291Y25050D01*
X20111Y24975D01*
X20111Y27439D01*
X20089Y27550D01*
X20026Y27644D01*
X19863Y27808D01*
X19863Y27847D01*
X19806Y27985D01*
X19700Y28091D01*
X19674Y28101D01*
X19674Y29084D01*
X19400Y29358D01*
X19125Y29084D01*
X19156Y28994D01*
X19368Y28940D01*
X19585Y28970D01*
X19643Y28994D01*
X19674Y29084D01*
X19674Y28101D01*
X19562Y28148D01*
X19413Y28148D01*
X19275Y28091D01*
X19170Y27986D01*
X19113Y27848D01*
X19112Y27699D01*
X19169Y27561D01*
X19275Y27455D01*
X19413Y27398D01*
X19452Y27398D01*
X19531Y27319D01*
X19531Y25040D01*
X19509Y25049D01*
X19291Y25050D01*
X19088Y24966D01*
X19015Y24893D01*
X18468Y25440D01*
X18468Y25967D01*
X18446Y26078D01*
X18383Y26173D01*
X17061Y27494D01*
X17280Y27494D01*
X18230Y26544D01*
X18297Y26477D01*
X18385Y26441D01*
X18472Y26404D01*
X18661Y26404D01*
X18748Y26441D01*
X18835Y26476D01*
X18969Y26610D01*
X19005Y26698D01*
X19041Y26784D01*
X19042Y26973D01*
X19005Y27061D01*
X18969Y27148D01*
X18836Y27282D01*
X18836Y27282D01*
X17812Y28305D01*
X17658Y28408D01*
X17477Y28444D01*
X12126Y28444D01*
X11596Y28975D01*
X11643Y28994D01*
X11674Y29084D01*
X11400Y29358D01*
X11394Y29353D01*
X11253Y29494D01*
X11258Y29500D01*
X10984Y29774D01*
X10894Y29743D01*
X10894Y29742D01*
X10866Y29811D01*
X10711Y29965D01*
X10509Y30049D01*
X10291Y30050D01*
X10204Y30014D01*
X10204Y30135D01*
X10147Y30273D01*
X10042Y30379D01*
X9904Y30436D01*
X9755Y30436D01*
X9617Y30379D01*
X9512Y30274D01*
X9454Y30136D01*
X9454Y29987D01*
X9480Y29925D01*
X9475Y29925D01*
X9337Y29868D01*
X9232Y29762D01*
X9175Y29624D01*
X9174Y29528D01*
X9141Y29561D01*
X9049Y29599D01*
X8950Y29600D01*
X8940Y29600D01*
X8940Y29759D01*
X8967Y29787D01*
X9024Y29925D01*
X9025Y30074D01*
X8968Y30212D01*
X8862Y30317D01*
X8724Y30374D01*
X8575Y30375D01*
X8437Y30318D01*
X8332Y30212D01*
X8275Y30074D01*
X8274Y29925D01*
X8331Y29787D01*
X8360Y29759D01*
X8360Y29600D01*
X8250Y29600D01*
X8158Y29562D01*
X8088Y29491D01*
X8064Y29434D01*
X7990Y29508D01*
X7769Y29599D01*
X7531Y29600D01*
X7310Y29508D01*
X7141Y29340D01*
X7125Y29302D01*
X7102Y29311D01*
X6961Y29169D01*
X6791Y29000D01*
X7102Y28688D01*
X7125Y28697D01*
X7141Y28660D01*
X7309Y28491D01*
X7530Y28400D01*
X7768Y28399D01*
X7989Y28491D01*
X8064Y28565D01*
X8087Y28508D01*
X8158Y28438D01*
X8250Y28400D01*
X8349Y28399D01*
X8518Y28399D01*
X8026Y27908D01*
X7919Y27952D01*
X7770Y27952D01*
X7632Y27895D01*
X7526Y27790D01*
X7469Y27652D01*
X7469Y27612D01*
X6961Y27104D01*
X6944Y27087D01*
X6882Y26993D01*
X6859Y26882D01*
X6859Y26564D01*
X6693Y26610D01*
X6456Y26580D01*
X6376Y26547D01*
X6338Y26452D01*
X6290Y26501D01*
X6290Y28498D01*
X6338Y28547D01*
X6376Y28452D01*
X6606Y28389D01*
X6843Y28419D01*
X6923Y28452D01*
X6961Y28547D01*
X6650Y28858D01*
X6644Y28853D01*
X6503Y28994D01*
X6508Y29000D01*
X6503Y29005D01*
X6644Y29146D01*
X6650Y29141D01*
X6961Y29452D01*
X6923Y29547D01*
X6693Y29610D01*
X6456Y29580D01*
X6376Y29547D01*
X6338Y29452D01*
X6328Y29463D01*
X6374Y29575D01*
X6375Y29724D01*
X6318Y29862D01*
X6212Y29967D01*
X6074Y30024D01*
X5925Y30025D01*
X5787Y29968D01*
X5682Y29862D01*
X5625Y29724D01*
X5624Y29575D01*
X5681Y29437D01*
X5710Y29409D01*
X5710Y26290D01*
X5682Y26262D01*
X5625Y26124D01*
X5624Y25975D01*
X5681Y25837D01*
X5787Y25732D01*
X5925Y25675D01*
X6074Y25674D01*
X6151Y25706D01*
X6197Y25688D01*
X6508Y26000D01*
X6503Y26005D01*
X6644Y26146D01*
X6650Y26141D01*
X6655Y26146D01*
X6796Y26005D01*
X6791Y26000D01*
X6796Y25994D01*
X6655Y25853D01*
X6650Y25858D01*
X6508Y25717D01*
X6338Y25547D01*
X6376Y25452D01*
X6606Y25389D01*
X6783Y25412D01*
X6171Y24799D01*
X6108Y24705D01*
X6086Y24594D01*
X6086Y23550D01*
X5896Y23741D01*
X5574Y23874D01*
X5226Y23875D01*
X4905Y23742D01*
X4658Y23496D01*
X4525Y23174D01*
X4524Y22826D01*
X4657Y22505D01*
X4903Y22258D01*
X5225Y22125D01*
X5573Y22124D01*
X5895Y22257D01*
X6118Y22480D01*
X6171Y22401D01*
X6418Y22154D01*
X6418Y22154D01*
X6512Y22091D01*
X6623Y22069D01*
X6623Y22069D01*
X6623Y22069D01*
X7958Y22069D01*
X8069Y22091D01*
X8163Y22154D01*
X8408Y22399D01*
X8411Y22396D01*
X8589Y22277D01*
X8800Y22235D01*
X9010Y22277D01*
X9078Y22322D01*
X9078Y20464D01*
X8756Y20786D01*
X8756Y21273D01*
X8784Y21301D01*
X8841Y21439D01*
X8841Y21588D01*
X8784Y21726D01*
X8679Y21831D01*
X8541Y21888D01*
X8392Y21889D01*
X8254Y21832D01*
X8148Y21726D01*
X8091Y21588D01*
X8091Y21439D01*
X8148Y21301D01*
X8176Y21273D01*
X8176Y20666D01*
X8189Y20600D01*
X7750Y20600D01*
X7658Y20562D01*
X7588Y20491D01*
X7564Y20434D01*
X7490Y20508D01*
X7269Y20599D01*
X7031Y20600D01*
X6810Y20508D01*
X6641Y20340D01*
X6625Y20302D01*
X6602Y20311D01*
X6461Y20169D01*
X6461Y20452D01*
X6423Y20547D01*
X6193Y20610D01*
X5956Y20580D01*
X5876Y20547D01*
X5838Y20452D01*
X6150Y20141D01*
X6461Y20452D01*
X6461Y20169D01*
X6291Y20000D01*
X6602Y19688D01*
X6625Y19697D01*
X6641Y19660D01*
X6809Y19491D01*
X7030Y19400D01*
X7268Y19399D01*
X7489Y19491D01*
X7564Y19565D01*
X7587Y19508D01*
X7658Y19438D01*
X7750Y19400D01*
X7849Y19399D01*
X8549Y19399D01*
X8641Y19437D01*
X8711Y19508D01*
X8749Y19600D01*
X8750Y19699D01*
X8750Y19972D01*
X9296Y19426D01*
X9232Y19362D01*
X9175Y19224D01*
X9175Y19210D01*
X9100Y19225D01*
X6461Y19225D01*
X6461Y19547D01*
X6150Y19858D01*
X6008Y19717D01*
X6008Y20000D01*
X5697Y20311D01*
X5602Y20273D01*
X5539Y20043D01*
X5569Y19806D01*
X5602Y19726D01*
X5697Y19688D01*
X6008Y20000D01*
X6008Y19717D01*
X5838Y19547D01*
X5876Y19452D01*
X6106Y19389D01*
X6343Y19419D01*
X6423Y19452D01*
X6461Y19547D01*
X6461Y19225D01*
X5346Y19225D01*
X3575Y20996D01*
X3575Y30503D01*
X4646Y31575D01*
X8449Y31575D01*
X8450Y31575D01*
X8544Y31574D01*
X8631Y31611D01*
X8718Y31647D01*
X8852Y31780D01*
X8888Y31868D01*
X8924Y31955D01*
X8925Y32050D01*
X8925Y32144D01*
X8888Y32231D01*
X8852Y32318D01*
X8719Y32452D01*
X8631Y32488D01*
X8544Y32524D01*
X8355Y32525D01*
X8355Y32525D01*
X4450Y32525D01*
X4268Y32488D01*
X4114Y32385D01*
X2764Y31035D01*
X2661Y30881D01*
X2625Y30700D01*
X2625Y20800D01*
X2661Y20618D01*
X2764Y20464D01*
X4814Y18414D01*
X4968Y18311D01*
X5150Y18275D01*
X8903Y18275D01*
X9942Y17235D01*
X9942Y17235D01*
X9942Y17235D01*
X10725Y16453D01*
X10725Y11996D01*
X10514Y11785D01*
X10411Y11631D01*
X10375Y11450D01*
X10375Y7673D01*
X10278Y7673D01*
X10096Y7637D01*
X9942Y7534D01*
X9113Y6705D01*
X9079Y6719D01*
X8721Y6720D01*
X8553Y6650D01*
X8553Y12945D01*
X8524Y13200D01*
X8483Y13300D01*
X8384Y13343D01*
X8243Y13201D01*
X8243Y13484D01*
X8200Y13583D01*
X7954Y13653D01*
X7699Y13624D01*
X7599Y13583D01*
X7556Y13484D01*
X7900Y13141D01*
X8243Y13484D01*
X8243Y13201D01*
X8041Y13000D01*
X8384Y12656D01*
X8483Y12699D01*
X8553Y12945D01*
X8553Y6650D01*
X8543Y6646D01*
X8543Y9127D01*
X8445Y9364D01*
X8264Y9545D01*
X8243Y9554D01*
X8243Y12515D01*
X7900Y12858D01*
X7758Y12717D01*
X7758Y13000D01*
X7415Y13343D01*
X7316Y13300D01*
X7246Y13054D01*
X7275Y12799D01*
X7316Y12699D01*
X7415Y12656D01*
X7758Y13000D01*
X7758Y12717D01*
X7556Y12515D01*
X7599Y12416D01*
X7845Y12346D01*
X8100Y12375D01*
X8200Y12416D01*
X8243Y12515D01*
X8243Y9554D01*
X8028Y9643D01*
X7772Y9643D01*
X7535Y9545D01*
X7354Y9364D01*
X7256Y9128D01*
X7256Y8872D01*
X7354Y8635D01*
X7535Y8454D01*
X7771Y8356D01*
X8027Y8356D01*
X8264Y8454D01*
X8445Y8635D01*
X8543Y8871D01*
X8543Y9127D01*
X8543Y6646D01*
X8395Y6585D01*
X8395Y6697D01*
X8244Y7062D01*
X7964Y7343D01*
X7598Y7494D01*
X7202Y7495D01*
X6837Y7344D01*
X6800Y7307D01*
X6800Y7358D01*
X6663Y7689D01*
X6410Y7942D01*
X6079Y8079D01*
X5721Y8080D01*
X5390Y7943D01*
X5137Y7690D01*
X5000Y7359D01*
X4999Y7001D01*
X5136Y6670D01*
X5389Y6417D01*
X5720Y6280D01*
X6078Y6279D01*
X6404Y6414D01*
X6404Y6302D01*
X6555Y5937D01*
X6835Y5656D01*
X7201Y5505D01*
X7597Y5504D01*
X7962Y5655D01*
X7999Y5692D01*
X7999Y5641D01*
X8136Y5310D01*
X8389Y5057D01*
X8720Y4920D01*
X9078Y4919D01*
X9409Y5056D01*
X9662Y5309D01*
X9799Y5640D01*
X9800Y5998D01*
X9785Y6033D01*
X10475Y6723D01*
X10850Y6723D01*
X11046Y6723D01*
X11006Y6628D01*
X11006Y6372D01*
X11104Y6135D01*
X11285Y5954D01*
X11449Y5886D01*
X11388Y5824D01*
X11350Y5732D01*
X11349Y5633D01*
X11349Y5505D01*
X11274Y5455D01*
X11211Y5360D01*
X11189Y5250D01*
X11189Y4817D01*
X11132Y4731D01*
X11121Y4677D01*
X11011Y4603D01*
X10900Y4437D01*
X10788Y4603D01*
X10610Y4722D01*
X10400Y4764D01*
X10189Y4722D01*
X10011Y4603D01*
X9891Y4425D01*
X9850Y4214D01*
X9850Y3785D01*
X9891Y3574D01*
X9909Y3547D01*
X9707Y3524D01*
X9607Y3483D01*
X9564Y3384D01*
X9616Y3332D01*
X9607Y3319D01*
X9583Y3195D01*
X9583Y3097D01*
X9586Y3080D01*
X9423Y3243D01*
X9324Y3200D01*
X9254Y2954D01*
X9283Y2699D01*
X9324Y2599D01*
X9423Y2556D01*
X9684Y2817D01*
X9681Y2802D01*
X9681Y2703D01*
X9690Y2654D01*
X9681Y2605D01*
X9693Y2543D01*
X9564Y2415D01*
X9607Y2316D01*
X9853Y2246D01*
X10108Y2275D01*
X10119Y2280D01*
X10707Y2280D01*
X10763Y2256D01*
X11019Y2256D01*
X11256Y2354D01*
X11437Y2535D01*
X11468Y2610D01*
X11512Y2610D01*
X11588Y2534D01*
X11790Y2450D01*
X12008Y2449D01*
X12030Y2458D01*
X12120Y2369D01*
X12214Y2306D01*
X12325Y2284D01*
X14069Y2284D01*
X14180Y2306D01*
X14274Y2369D01*
X14513Y2608D01*
X14588Y2534D01*
X14790Y2450D01*
X15008Y2449D01*
X15211Y2533D01*
X15365Y2688D01*
X15399Y2769D01*
X15433Y2688D01*
X15588Y2534D01*
X15790Y2450D01*
X16008Y2449D01*
X16211Y2533D01*
X16273Y2596D01*
X16505Y2363D01*
X16505Y2363D01*
X16599Y2301D01*
X16710Y2279D01*
X16710Y2279D01*
X16710Y2279D01*
X17023Y2279D01*
X17051Y2251D01*
X17188Y2194D01*
X17337Y2193D01*
X17475Y2250D01*
X17581Y2356D01*
X17638Y2494D01*
X17638Y2546D01*
X17656Y2494D01*
X17868Y2440D01*
X18085Y2470D01*
X18143Y2494D01*
X18174Y2584D01*
X17900Y2858D01*
X17894Y2853D01*
X17753Y2994D01*
X17758Y3000D01*
X17753Y3005D01*
X17894Y3146D01*
X17900Y3141D01*
X17905Y3146D01*
X18046Y3005D01*
X18041Y3000D01*
X18315Y2725D01*
X18405Y2756D01*
X18405Y2757D01*
X18433Y2688D01*
X18588Y2534D01*
X18790Y2450D01*
X19008Y2449D01*
X19211Y2533D01*
X19277Y2600D01*
X19521Y2356D01*
X19615Y2293D01*
X19726Y2271D01*
X23056Y2271D01*
X23167Y2293D01*
X23261Y2356D01*
X23513Y2608D01*
X23588Y2534D01*
X23790Y2450D01*
X24008Y2449D01*
X24211Y2533D01*
X24365Y2688D01*
X24399Y2769D01*
X24433Y2688D01*
X24588Y2534D01*
X24790Y2450D01*
X25008Y2449D01*
X25211Y2533D01*
X25365Y2688D01*
X25394Y2757D01*
X25394Y2756D01*
X25484Y2725D01*
X25758Y3000D01*
X25753Y3005D01*
X25894Y3146D01*
X25900Y3141D01*
X25905Y3146D01*
X26046Y3005D01*
X26041Y3000D01*
X26046Y2994D01*
X25905Y2853D01*
X25900Y2858D01*
X25625Y2584D01*
X25656Y2494D01*
X25868Y2440D01*
X26085Y2470D01*
X26143Y2494D01*
X26174Y2584D01*
X26174Y2584D01*
X26225Y2533D01*
X26287Y2595D01*
X26692Y2190D01*
X26692Y2190D01*
X26786Y2127D01*
X26897Y2105D01*
X26897Y2105D01*
X26897Y2105D01*
X29911Y2105D01*
X30022Y2127D01*
X30117Y2190D01*
X30524Y2597D01*
X30588Y2534D01*
X30790Y2450D01*
X31008Y2449D01*
X31211Y2533D01*
X31365Y2688D01*
X31399Y2769D01*
X31433Y2688D01*
X31588Y2534D01*
X31790Y2450D01*
X32008Y2449D01*
X32211Y2533D01*
X32365Y2688D01*
X32399Y2769D01*
X32433Y2688D01*
X32588Y2534D01*
X32790Y2450D01*
X33008Y2449D01*
X33211Y2533D01*
X33365Y2688D01*
X33394Y2757D01*
X33394Y2756D01*
X33484Y2725D01*
X33758Y3000D01*
X33753Y3005D01*
X33894Y3146D01*
X33900Y3141D01*
X33905Y3146D01*
X34046Y3005D01*
X34041Y3000D01*
X34315Y2725D01*
X34405Y2756D01*
X34405Y2757D01*
X34433Y2688D01*
X34538Y2583D01*
X34538Y1800D01*
X34538Y1800D01*
G37*
G54D39*
X34538Y1800D02*
X34174Y1800D01*
X34174Y2584D01*
X33900Y2858D01*
X33625Y2584D01*
X33656Y2494D01*
X33868Y2440D01*
X34085Y2470D01*
X34143Y2494D01*
X34174Y2584D01*
X34174Y1800D01*
X34050Y1800D01*
X33958Y1762D01*
X33888Y1691D01*
X33850Y1599D01*
X33849Y1500D01*
X33849Y1119D01*
X33450Y1119D01*
X33450Y1599D01*
X33412Y1691D01*
X33341Y1761D01*
X33249Y1799D01*
X33150Y1800D01*
X32550Y1800D01*
X32458Y1762D01*
X32388Y1691D01*
X32350Y1599D01*
X32350Y1577D01*
X32211Y1715D01*
X32009Y1799D01*
X31791Y1800D01*
X31588Y1716D01*
X31434Y1561D01*
X31400Y1480D01*
X31366Y1561D01*
X31211Y1715D01*
X31009Y1799D01*
X30791Y1800D01*
X30588Y1716D01*
X30434Y1561D01*
X30400Y1480D01*
X30366Y1561D01*
X30211Y1715D01*
X30009Y1799D01*
X29791Y1800D01*
X29588Y1716D01*
X29434Y1561D01*
X29350Y1359D01*
X29349Y1221D01*
X28892Y1678D01*
X28825Y1745D01*
X28651Y1818D01*
X28462Y1818D01*
X28287Y1746D01*
X28154Y1612D01*
X28081Y1438D01*
X28081Y1249D01*
X28153Y1074D01*
X28287Y941D01*
X28287Y940D01*
X28903Y325D01*
X26174Y325D01*
X25450Y325D01*
X25450Y999D01*
X25450Y1599D01*
X25412Y1691D01*
X25341Y1761D01*
X25249Y1799D01*
X25150Y1800D01*
X24550Y1800D01*
X24458Y1762D01*
X24388Y1691D01*
X24350Y1599D01*
X24350Y1577D01*
X24211Y1715D01*
X24009Y1799D01*
X23791Y1800D01*
X23588Y1716D01*
X23434Y1561D01*
X23400Y1480D01*
X23366Y1561D01*
X23211Y1715D01*
X23009Y1799D01*
X22791Y1800D01*
X22588Y1716D01*
X22434Y1561D01*
X22400Y1480D01*
X22366Y1561D01*
X22211Y1715D01*
X22009Y1799D01*
X21791Y1800D01*
X21588Y1716D01*
X21434Y1561D01*
X21350Y1359D01*
X21349Y1141D01*
X21433Y938D01*
X21588Y784D01*
X21790Y700D01*
X22008Y699D01*
X22211Y783D01*
X22365Y938D01*
X22399Y1019D01*
X22433Y938D01*
X22588Y784D01*
X22790Y700D01*
X23008Y699D01*
X23211Y783D01*
X23365Y938D01*
X23399Y1019D01*
X23433Y938D01*
X23588Y784D01*
X23790Y700D01*
X24008Y699D01*
X24211Y783D01*
X24349Y922D01*
X24349Y900D01*
X24387Y808D01*
X24458Y738D01*
X24550Y700D01*
X24649Y699D01*
X25249Y699D01*
X25341Y737D01*
X25411Y808D01*
X25449Y900D01*
X25450Y999D01*
X25450Y325D01*
X18450Y325D01*
X18450Y999D01*
X18450Y1599D01*
X18412Y1691D01*
X18341Y1761D01*
X18249Y1799D01*
X18150Y1800D01*
X17550Y1800D01*
X17458Y1762D01*
X17388Y1691D01*
X17350Y1599D01*
X17350Y1577D01*
X17211Y1715D01*
X17009Y1799D01*
X16791Y1800D01*
X16588Y1716D01*
X16434Y1561D01*
X16400Y1480D01*
X16366Y1561D01*
X16211Y1715D01*
X16009Y1799D01*
X15791Y1800D01*
X15588Y1716D01*
X15434Y1561D01*
X15400Y1480D01*
X15366Y1561D01*
X15211Y1715D01*
X15009Y1799D01*
X14791Y1800D01*
X14588Y1716D01*
X14434Y1561D01*
X14350Y1359D01*
X14349Y1141D01*
X14433Y938D01*
X14588Y784D01*
X14790Y700D01*
X15008Y699D01*
X15211Y783D01*
X15365Y938D01*
X15399Y1019D01*
X15433Y938D01*
X15588Y784D01*
X15790Y700D01*
X16008Y699D01*
X16211Y783D01*
X16365Y938D01*
X16399Y1019D01*
X16433Y938D01*
X16588Y784D01*
X16790Y700D01*
X17008Y699D01*
X17211Y783D01*
X17349Y922D01*
X17349Y900D01*
X17387Y808D01*
X17458Y738D01*
X17550Y700D01*
X17649Y699D01*
X18249Y699D01*
X18341Y737D01*
X18411Y808D01*
X18449Y900D01*
X18450Y999D01*
X18450Y325D01*
X13450Y325D01*
X13450Y999D01*
X13450Y1599D01*
X13412Y1691D01*
X13341Y1761D01*
X13249Y1799D01*
X13150Y1800D01*
X12550Y1800D01*
X12458Y1762D01*
X12388Y1691D01*
X12350Y1599D01*
X12349Y1512D01*
X12315Y1524D01*
X12174Y1383D01*
X12174Y1665D01*
X12143Y1755D01*
X11931Y1809D01*
X11714Y1779D01*
X11656Y1755D01*
X11625Y1665D01*
X11900Y1391D01*
X12174Y1665D01*
X12174Y1383D01*
X12041Y1250D01*
X12315Y975D01*
X12349Y987D01*
X12349Y900D01*
X12387Y808D01*
X12458Y738D01*
X12550Y700D01*
X12649Y699D01*
X13249Y699D01*
X13341Y737D01*
X13411Y808D01*
X13449Y900D01*
X13450Y999D01*
X13450Y325D01*
X12174Y325D01*
X12174Y834D01*
X11900Y1108D01*
X11758Y967D01*
X11758Y1250D01*
X11484Y1524D01*
X11394Y1493D01*
X11340Y1281D01*
X11370Y1064D01*
X11394Y1006D01*
X11484Y975D01*
X11758Y1250D01*
X11758Y967D01*
X11625Y834D01*
X11656Y744D01*
X11868Y690D01*
X12085Y720D01*
X12143Y744D01*
X12174Y834D01*
X12174Y325D01*
X9668Y325D01*
X9799Y640D01*
X9800Y998D01*
X9663Y1329D01*
X9410Y1582D01*
X9079Y1719D01*
X8721Y1720D01*
X8395Y1585D01*
X8395Y1697D01*
X8244Y2062D01*
X7964Y2343D01*
X7598Y2494D01*
X7202Y2495D01*
X6837Y2344D01*
X6800Y2307D01*
X6800Y2358D01*
X6663Y2689D01*
X6410Y2942D01*
X6079Y3079D01*
X5775Y3080D01*
X5775Y4173D01*
X5642Y4495D01*
X5396Y4741D01*
X5074Y4874D01*
X4726Y4875D01*
X4405Y4742D01*
X4158Y4496D01*
X4025Y4174D01*
X4024Y3826D01*
X4157Y3505D01*
X4403Y3258D01*
X4725Y3125D01*
X5073Y3124D01*
X5395Y3257D01*
X5641Y3503D01*
X5774Y3825D01*
X5775Y4173D01*
X5775Y3080D01*
X5721Y3080D01*
X5390Y2943D01*
X5137Y2690D01*
X5000Y2359D01*
X4999Y2001D01*
X5136Y1670D01*
X5389Y1417D01*
X5720Y1280D01*
X6078Y1279D01*
X6404Y1414D01*
X6404Y1302D01*
X6555Y937D01*
X6835Y656D01*
X7201Y505D01*
X7597Y504D01*
X7962Y655D01*
X7999Y692D01*
X7999Y641D01*
X8130Y325D01*
X2740Y325D01*
X2740Y3666D01*
X2740Y7666D01*
X2612Y7975D01*
X2376Y8212D01*
X2067Y8340D01*
X1733Y8340D01*
X1424Y8212D01*
X1187Y7976D01*
X1059Y7667D01*
X1059Y7333D01*
X1187Y7024D01*
X1423Y6787D01*
X1732Y6659D01*
X2066Y6659D01*
X2375Y6787D01*
X2612Y7023D01*
X2740Y7332D01*
X2740Y7666D01*
X2740Y3666D01*
X2740Y3666D01*
X2740Y4859D01*
X2740Y6140D01*
X2702Y6231D01*
X2632Y6302D01*
X2540Y6340D01*
X2440Y6340D01*
X2062Y6340D01*
X2000Y6278D01*
X2000Y5600D01*
X2678Y5600D01*
X2740Y5662D01*
X2740Y6140D01*
X2740Y4859D01*
X2740Y5337D01*
X2678Y5400D01*
X2000Y5400D01*
X2000Y4722D01*
X2062Y4659D01*
X2440Y4659D01*
X2540Y4659D01*
X2632Y4697D01*
X2702Y4768D01*
X2740Y4859D01*
X2740Y3666D01*
X2612Y3975D01*
X2376Y4212D01*
X2067Y4340D01*
X1800Y4340D01*
X1800Y4722D01*
X1800Y5400D01*
X1800Y5600D01*
X1800Y6278D01*
X1737Y6340D01*
X1359Y6340D01*
X1259Y6340D01*
X1167Y6302D01*
X1097Y6231D01*
X1059Y6140D01*
X1059Y5662D01*
X1122Y5600D01*
X1800Y5600D01*
X1800Y5400D01*
X1122Y5400D01*
X1059Y5337D01*
X1059Y4859D01*
X1097Y4768D01*
X1167Y4697D01*
X1259Y4659D01*
X1359Y4659D01*
X1737Y4659D01*
X1800Y4722D01*
X1800Y4340D01*
X1733Y4340D01*
X1424Y4212D01*
X1187Y3976D01*
X1059Y3667D01*
X1059Y3333D01*
X1187Y3024D01*
X1423Y2787D01*
X1732Y2659D01*
X2066Y2659D01*
X2375Y2787D01*
X2612Y3023D01*
X2740Y3332D01*
X2740Y3666D01*
X2740Y325D01*
X2740Y325D01*
X2740Y859D01*
X2740Y2140D01*
X2702Y2231D01*
X2632Y2302D01*
X2540Y2340D01*
X2440Y2340D01*
X2062Y2340D01*
X2000Y2278D01*
X2000Y1600D01*
X2678Y1600D01*
X2740Y1662D01*
X2740Y2140D01*
X2740Y859D01*
X2740Y1337D01*
X2678Y1400D01*
X2000Y1400D01*
X2000Y722D01*
X2062Y659D01*
X2440Y659D01*
X2540Y659D01*
X2632Y697D01*
X2702Y768D01*
X2740Y859D01*
X2740Y325D01*
X1800Y325D01*
X1800Y722D01*
X1800Y1400D01*
X1800Y1600D01*
X1800Y2278D01*
X1737Y2340D01*
X1359Y2340D01*
X1259Y2340D01*
X1167Y2302D01*
X1097Y2231D01*
X1059Y2140D01*
X1059Y1662D01*
X1122Y1600D01*
X1800Y1600D01*
X1800Y1400D01*
X1122Y1400D01*
X1059Y1337D01*
X1059Y859D01*
X1097Y768D01*
X1167Y697D01*
X1259Y659D01*
X1359Y659D01*
X1737Y659D01*
X1800Y722D01*
X1800Y325D01*
X325Y325D01*
X325Y8631D01*
X349Y8574D01*
X595Y8504D01*
X850Y8533D01*
X950Y8574D01*
X993Y8673D01*
X732Y8934D01*
X748Y8931D01*
X847Y8931D01*
X896Y8940D01*
X945Y8931D01*
X1006Y8943D01*
X1134Y8814D01*
X1233Y8857D01*
X1303Y9103D01*
X1292Y9200D01*
X6800Y9200D01*
X6800Y12697D01*
X6842Y12739D01*
X6979Y13070D01*
X6980Y13428D01*
X6843Y13759D01*
X6800Y13802D01*
X6800Y16001D01*
X6809Y15991D01*
X7030Y15900D01*
X7268Y15899D01*
X7489Y15991D01*
X7564Y16065D01*
X7587Y16008D01*
X7658Y15938D01*
X7750Y15900D01*
X7849Y15899D01*
X8549Y15899D01*
X8641Y15937D01*
X8711Y16008D01*
X8749Y16100D01*
X8750Y16199D01*
X8750Y16899D01*
X8712Y16991D01*
X8641Y17061D01*
X8549Y17099D01*
X8450Y17100D01*
X7750Y17100D01*
X7658Y17062D01*
X7588Y16991D01*
X7564Y16934D01*
X7490Y17008D01*
X7269Y17099D01*
X7031Y17100D01*
X6810Y17008D01*
X6800Y16998D01*
X6800Y17300D01*
X2727Y17300D01*
X2740Y17332D01*
X2740Y17666D01*
X2612Y17975D01*
X2398Y18190D01*
X2398Y21632D01*
X2398Y25382D01*
X2398Y29132D01*
X2288Y29397D01*
X2200Y29486D01*
X2200Y31858D01*
X2200Y34108D01*
X2116Y34311D01*
X1961Y34465D01*
X1759Y34549D01*
X1541Y34550D01*
X1338Y34466D01*
X1184Y34311D01*
X1100Y34109D01*
X1099Y33891D01*
X1183Y33688D01*
X1322Y33550D01*
X1300Y33550D01*
X1208Y33512D01*
X1138Y33441D01*
X1100Y33349D01*
X1099Y33250D01*
X1099Y32650D01*
X1137Y32558D01*
X1208Y32488D01*
X1300Y32450D01*
X1399Y32449D01*
X1999Y32449D01*
X2091Y32487D01*
X2161Y32558D01*
X2199Y32650D01*
X2200Y32749D01*
X2200Y33349D01*
X2162Y33441D01*
X2091Y33511D01*
X1999Y33549D01*
X1977Y33549D01*
X2115Y33688D01*
X2199Y33890D01*
X2200Y34108D01*
X2200Y31858D01*
X2116Y32061D01*
X1961Y32215D01*
X1759Y32299D01*
X1541Y32300D01*
X1338Y32216D01*
X1184Y32061D01*
X1100Y31859D01*
X1099Y31641D01*
X1183Y31438D01*
X1322Y31300D01*
X1300Y31300D01*
X1208Y31262D01*
X1138Y31191D01*
X1100Y31099D01*
X1099Y31000D01*
X1099Y30400D01*
X1137Y30308D01*
X1208Y30238D01*
X1300Y30200D01*
X1399Y30199D01*
X1999Y30199D01*
X2091Y30237D01*
X2161Y30308D01*
X2199Y30400D01*
X2200Y30499D01*
X2200Y31099D01*
X2162Y31191D01*
X2091Y31261D01*
X1999Y31299D01*
X1977Y31299D01*
X2115Y31438D01*
X2199Y31640D01*
X2200Y31858D01*
X2200Y29486D01*
X2085Y29601D01*
X1819Y29711D01*
X1532Y29711D01*
X1266Y29601D01*
X1063Y29398D01*
X953Y29133D01*
X953Y28845D01*
X1062Y28580D01*
X1265Y28376D01*
X1370Y28333D01*
X1153Y28333D01*
X1061Y28295D01*
X991Y28225D01*
X953Y28133D01*
X953Y28033D01*
X953Y27089D01*
X991Y26997D01*
X1061Y26926D01*
X1153Y26888D01*
X1252Y26888D01*
X2197Y26888D01*
X2289Y26926D01*
X2359Y26996D01*
X2397Y27088D01*
X2398Y27188D01*
X2398Y28132D01*
X2360Y28224D01*
X2289Y28295D01*
X2197Y28333D01*
X2098Y28333D01*
X1981Y28333D01*
X2084Y28376D01*
X2287Y28579D01*
X2397Y28844D01*
X2398Y29132D01*
X2398Y25382D01*
X2288Y25647D01*
X2085Y25851D01*
X1819Y25961D01*
X1532Y25961D01*
X1266Y25851D01*
X1063Y25648D01*
X953Y25383D01*
X953Y25095D01*
X1062Y24830D01*
X1265Y24626D01*
X1370Y24583D01*
X1153Y24583D01*
X1061Y24545D01*
X991Y24475D01*
X953Y24383D01*
X953Y24283D01*
X953Y23339D01*
X991Y23247D01*
X1061Y23176D01*
X1153Y23138D01*
X1252Y23138D01*
X2197Y23138D01*
X2289Y23176D01*
X2359Y23246D01*
X2397Y23338D01*
X2398Y23438D01*
X2398Y24382D01*
X2360Y24474D01*
X2289Y24545D01*
X2197Y24583D01*
X2098Y24583D01*
X1981Y24583D01*
X2084Y24626D01*
X2287Y24829D01*
X2397Y25094D01*
X2398Y25382D01*
X2398Y21632D01*
X2288Y21897D01*
X2085Y22101D01*
X1819Y22211D01*
X1532Y22211D01*
X1266Y22101D01*
X1063Y21898D01*
X953Y21633D01*
X953Y21345D01*
X1062Y21080D01*
X1265Y20876D01*
X1370Y20833D01*
X1153Y20833D01*
X1061Y20795D01*
X991Y20725D01*
X953Y20633D01*
X953Y20533D01*
X953Y19589D01*
X991Y19497D01*
X1061Y19426D01*
X1153Y19388D01*
X1252Y19388D01*
X2197Y19388D01*
X2289Y19426D01*
X2359Y19496D01*
X2397Y19588D01*
X2398Y19688D01*
X2398Y20632D01*
X2360Y20724D01*
X2289Y20795D01*
X2197Y20833D01*
X2098Y20833D01*
X1981Y20833D01*
X2084Y20876D01*
X2287Y21079D01*
X2397Y21344D01*
X2398Y21632D01*
X2398Y18190D01*
X2376Y18212D01*
X2067Y18340D01*
X1733Y18340D01*
X1424Y18212D01*
X1187Y17976D01*
X1059Y17667D01*
X1059Y17333D01*
X1073Y17300D01*
X325Y17300D01*
X325Y24000D01*
X325Y27500D01*
X325Y30000D01*
X325Y33000D01*
X325Y34000D01*
X325Y34675D01*
X15216Y34675D01*
X15216Y34150D01*
X15254Y34058D01*
X15325Y33988D01*
X15417Y33950D01*
X15456Y33950D01*
X15364Y33888D01*
X15245Y33710D01*
X15203Y33500D01*
X15245Y33289D01*
X15364Y33111D01*
X15530Y33000D01*
X15364Y32888D01*
X15245Y32710D01*
X15203Y32500D01*
X15245Y32289D01*
X15259Y32269D01*
X15094Y32105D01*
X15032Y32010D01*
X15010Y31900D01*
X15010Y31150D01*
X15032Y31039D01*
X15094Y30944D01*
X15344Y30694D01*
X15344Y30694D01*
X15439Y30632D01*
X15550Y30610D01*
X16129Y30610D01*
X16534Y30205D01*
X16534Y30039D01*
X16509Y30049D01*
X16291Y30050D01*
X16088Y29966D01*
X15934Y29811D01*
X15900Y29730D01*
X15866Y29811D01*
X15711Y29965D01*
X15509Y30049D01*
X15291Y30050D01*
X15088Y29966D01*
X14934Y29811D01*
X14900Y29730D01*
X14866Y29811D01*
X14711Y29965D01*
X14509Y30049D01*
X14450Y30049D01*
X14450Y32608D01*
X14366Y32811D01*
X14211Y32965D01*
X14009Y33049D01*
X13791Y33050D01*
X13588Y32966D01*
X13434Y32811D01*
X13400Y32730D01*
X13366Y32811D01*
X13211Y32965D01*
X13009Y33049D01*
X12791Y33050D01*
X12588Y32966D01*
X12434Y32811D01*
X12400Y32730D01*
X12366Y32811D01*
X12211Y32965D01*
X12009Y33049D01*
X11791Y33050D01*
X11588Y32966D01*
X11450Y32827D01*
X11450Y32849D01*
X11412Y32941D01*
X11341Y33011D01*
X11249Y33049D01*
X11150Y33050D01*
X10550Y33050D01*
X10458Y33012D01*
X10388Y32941D01*
X10350Y32849D01*
X10349Y32750D01*
X10349Y32150D01*
X10387Y32058D01*
X10458Y31988D01*
X10550Y31950D01*
X10649Y31949D01*
X11249Y31949D01*
X11341Y31987D01*
X11411Y32058D01*
X11449Y32150D01*
X11449Y32172D01*
X11588Y32034D01*
X11790Y31950D01*
X12008Y31949D01*
X12211Y32033D01*
X12365Y32188D01*
X12399Y32269D01*
X12433Y32188D01*
X12588Y32034D01*
X12790Y31950D01*
X13008Y31949D01*
X13211Y32033D01*
X13365Y32188D01*
X13399Y32269D01*
X13433Y32188D01*
X13588Y32034D01*
X13790Y31950D01*
X14008Y31949D01*
X14211Y32033D01*
X14365Y32188D01*
X14449Y32390D01*
X14450Y32608D01*
X14450Y30049D01*
X14291Y30050D01*
X14088Y29966D01*
X13934Y29811D01*
X13900Y29730D01*
X13866Y29811D01*
X13711Y29965D01*
X13509Y30049D01*
X13291Y30050D01*
X13088Y29966D01*
X12934Y29811D01*
X12900Y29730D01*
X12866Y29811D01*
X12711Y29965D01*
X12509Y30049D01*
X12291Y30050D01*
X12088Y29966D01*
X11934Y29811D01*
X11905Y29742D01*
X11905Y29743D01*
X11815Y29774D01*
X11674Y29633D01*
X11674Y29915D01*
X11643Y30005D01*
X11431Y30059D01*
X11214Y30029D01*
X11156Y30005D01*
X11125Y29915D01*
X11400Y29641D01*
X11674Y29915D01*
X11674Y29633D01*
X11541Y29500D01*
X11815Y29225D01*
X11905Y29256D01*
X11905Y29257D01*
X11933Y29188D01*
X12088Y29034D01*
X12290Y28950D01*
X12508Y28949D01*
X12711Y29033D01*
X12865Y29188D01*
X12899Y29269D01*
X12933Y29188D01*
X13088Y29034D01*
X13290Y28950D01*
X13508Y28949D01*
X13711Y29033D01*
X13865Y29188D01*
X13899Y29269D01*
X13933Y29188D01*
X14088Y29034D01*
X14290Y28950D01*
X14508Y28949D01*
X14711Y29033D01*
X14865Y29188D01*
X14899Y29269D01*
X14933Y29188D01*
X15088Y29034D01*
X15290Y28950D01*
X15493Y28949D01*
X15493Y28863D01*
X15550Y28725D01*
X15655Y28620D01*
X15793Y28563D01*
X15942Y28562D01*
X16080Y28619D01*
X16108Y28647D01*
X16456Y28647D01*
X16567Y28670D01*
X16661Y28732D01*
X17025Y29096D01*
X17088Y29034D01*
X17155Y29006D01*
X17154Y28861D01*
X17211Y28723D01*
X17317Y28617D01*
X17455Y28560D01*
X17604Y28560D01*
X17742Y28617D01*
X17847Y28722D01*
X17904Y28860D01*
X17905Y28900D01*
X18063Y29058D01*
X18088Y29034D01*
X18290Y28950D01*
X18508Y28949D01*
X18711Y29033D01*
X18865Y29188D01*
X18894Y29257D01*
X18894Y29256D01*
X18984Y29225D01*
X19258Y29500D01*
X18984Y29774D01*
X18894Y29743D01*
X18894Y29742D01*
X18866Y29811D01*
X18711Y29965D01*
X18509Y30049D01*
X18291Y30050D01*
X18190Y30008D01*
X18190Y31024D01*
X18211Y31033D01*
X18365Y31188D01*
X18399Y31269D01*
X18433Y31188D01*
X18588Y31034D01*
X18790Y30950D01*
X19008Y30949D01*
X19211Y31033D01*
X19365Y31188D01*
X19399Y31269D01*
X19433Y31188D01*
X19588Y31034D01*
X19790Y30950D01*
X20008Y30949D01*
X20211Y31033D01*
X20365Y31188D01*
X20449Y31390D01*
X20450Y31608D01*
X20366Y31811D01*
X20211Y31965D01*
X20130Y31999D01*
X20211Y32033D01*
X20365Y32188D01*
X20449Y32390D01*
X20450Y32608D01*
X20366Y32811D01*
X20227Y32949D01*
X20249Y32949D01*
X20249Y32950D01*
X21890Y31309D01*
X21890Y31309D01*
X21984Y31246D01*
X22095Y31224D01*
X22095Y31224D01*
X22095Y31224D01*
X23265Y31224D01*
X24439Y30049D01*
X24291Y30050D01*
X24088Y29966D01*
X23934Y29811D01*
X23900Y29730D01*
X23866Y29811D01*
X23711Y29965D01*
X23509Y30049D01*
X23291Y30050D01*
X23088Y29966D01*
X22934Y29811D01*
X22900Y29730D01*
X22866Y29811D01*
X22711Y29965D01*
X22509Y30049D01*
X22291Y30050D01*
X22088Y29966D01*
X21934Y29811D01*
X21900Y29730D01*
X21866Y29811D01*
X21711Y29965D01*
X21509Y30049D01*
X21291Y30050D01*
X21088Y29966D01*
X20934Y29811D01*
X20900Y29730D01*
X20866Y29811D01*
X20711Y29965D01*
X20509Y30049D01*
X20291Y30050D01*
X20088Y29966D01*
X19934Y29811D01*
X19905Y29742D01*
X19905Y29743D01*
X19815Y29774D01*
X19674Y29633D01*
X19674Y29915D01*
X19643Y30005D01*
X19431Y30059D01*
X19214Y30029D01*
X19156Y30005D01*
X19125Y29915D01*
X19400Y29641D01*
X19674Y29915D01*
X19674Y29633D01*
X19541Y29500D01*
X19815Y29225D01*
X19905Y29256D01*
X19905Y29257D01*
X19933Y29188D01*
X20088Y29034D01*
X20290Y28950D01*
X20508Y28949D01*
X20711Y29033D01*
X20865Y29188D01*
X20899Y29269D01*
X20933Y29188D01*
X21088Y29034D01*
X21290Y28950D01*
X21508Y28949D01*
X21711Y29033D01*
X21865Y29188D01*
X21899Y29269D01*
X21933Y29188D01*
X22088Y29034D01*
X22290Y28950D01*
X22508Y28949D01*
X22711Y29033D01*
X22865Y29188D01*
X22899Y29269D01*
X22933Y29188D01*
X23088Y29034D01*
X23290Y28950D01*
X23508Y28949D01*
X23711Y29033D01*
X23865Y29188D01*
X23899Y29269D01*
X23933Y29188D01*
X24088Y29034D01*
X24290Y28950D01*
X24508Y28949D01*
X24530Y28958D01*
X24615Y28874D01*
X24709Y28811D01*
X24820Y28789D01*
X26580Y28789D01*
X26691Y28811D01*
X26785Y28874D01*
X27009Y29098D01*
X27074Y29033D01*
X27125Y29084D01*
X27156Y28994D01*
X27368Y28940D01*
X27585Y28970D01*
X27643Y28994D01*
X27674Y29084D01*
X27400Y29358D01*
X27394Y29353D01*
X27253Y29494D01*
X27258Y29500D01*
X27253Y29505D01*
X27394Y29646D01*
X27400Y29641D01*
X27674Y29915D01*
X27663Y29947D01*
X29013Y31297D01*
X29411Y31297D01*
X29338Y31248D01*
X29338Y31248D01*
X28694Y30605D01*
X28632Y30510D01*
X28610Y30400D01*
X28610Y30008D01*
X28509Y30049D01*
X28291Y30050D01*
X28088Y29966D01*
X27934Y29811D01*
X27905Y29742D01*
X27905Y29743D01*
X27815Y29774D01*
X27541Y29500D01*
X27815Y29225D01*
X27905Y29256D01*
X27905Y29257D01*
X27933Y29188D01*
X28088Y29034D01*
X28290Y28950D01*
X28508Y28949D01*
X28531Y28959D01*
X28560Y28890D01*
X28450Y28890D01*
X28449Y28890D01*
X28339Y28867D01*
X28244Y28805D01*
X28244Y28805D01*
X27674Y28234D01*
X26064Y26625D01*
X26025Y26625D01*
X25887Y26568D01*
X25782Y26462D01*
X25725Y26324D01*
X25724Y26175D01*
X25781Y26037D01*
X25849Y25970D01*
X25746Y25928D01*
X25641Y25822D01*
X25583Y25684D01*
X25583Y25535D01*
X25640Y25397D01*
X25683Y25355D01*
X24353Y25355D01*
X24242Y25333D01*
X24148Y25270D01*
X24148Y25270D01*
X23777Y24899D01*
X23711Y24965D01*
X23690Y24975D01*
X23690Y27822D01*
X23717Y27850D01*
X23774Y27987D01*
X23775Y28137D01*
X23718Y28274D01*
X23612Y28380D01*
X23474Y28437D01*
X23325Y28437D01*
X23187Y28380D01*
X23170Y28363D01*
X23155Y28378D01*
X23018Y28435D01*
X22868Y28435D01*
X22730Y28378D01*
X22625Y28273D01*
X22568Y28135D01*
X22568Y27986D01*
X22625Y27848D01*
X22653Y27820D01*
X22653Y24990D01*
X22509Y25049D01*
X22291Y25050D01*
X22112Y24976D01*
X22112Y27826D01*
X22139Y27853D01*
X22196Y27991D01*
X22197Y28140D01*
X22140Y28278D01*
X22034Y28384D01*
X21896Y28441D01*
X21747Y28441D01*
X21609Y28384D01*
X21504Y28279D01*
X21447Y28141D01*
X21446Y27992D01*
X21503Y27854D01*
X21532Y27826D01*
X21532Y25040D01*
X21509Y25049D01*
X21291Y25050D01*
X21088Y24966D01*
X20934Y24811D01*
X20900Y24730D01*
X20866Y24811D01*
X20711Y24965D01*
X20509Y25049D01*
X20291Y25050D01*
X20111Y24975D01*
X20111Y27439D01*
X20089Y27550D01*
X20026Y27644D01*
X19863Y27808D01*
X19863Y27847D01*
X19806Y27985D01*
X19700Y28091D01*
X19674Y28101D01*
X19674Y29084D01*
X19400Y29358D01*
X19125Y29084D01*
X19156Y28994D01*
X19368Y28940D01*
X19585Y28970D01*
X19643Y28994D01*
X19674Y29084D01*
X19674Y28101D01*
X19562Y28148D01*
X19413Y28148D01*
X19275Y28091D01*
X19170Y27986D01*
X19113Y27848D01*
X19112Y27699D01*
X19169Y27561D01*
X19275Y27455D01*
X19413Y27398D01*
X19452Y27398D01*
X19531Y27319D01*
X19531Y25040D01*
X19509Y25049D01*
X19291Y25050D01*
X19088Y24966D01*
X19015Y24893D01*
X18468Y25440D01*
X18468Y25967D01*
X18446Y26078D01*
X18383Y26173D01*
X17061Y27494D01*
X17280Y27494D01*
X18230Y26544D01*
X18297Y26477D01*
X18385Y26441D01*
X18472Y26404D01*
X18661Y26404D01*
X18748Y26441D01*
X18835Y26476D01*
X18969Y26610D01*
X19005Y26698D01*
X19041Y26784D01*
X19042Y26973D01*
X19005Y27061D01*
X18969Y27148D01*
X18836Y27282D01*
X18836Y27282D01*
X17812Y28305D01*
X17658Y28408D01*
X17477Y28444D01*
X12126Y28444D01*
X11596Y28975D01*
X11643Y28994D01*
X11674Y29084D01*
X11400Y29358D01*
X11394Y29353D01*
X11253Y29494D01*
X11258Y29500D01*
X10984Y29774D01*
X10894Y29743D01*
X10894Y29742D01*
X10866Y29811D01*
X10711Y29965D01*
X10509Y30049D01*
X10291Y30050D01*
X10204Y30014D01*
X10204Y30135D01*
X10147Y30273D01*
X10042Y30379D01*
X9904Y30436D01*
X9755Y30436D01*
X9617Y30379D01*
X9512Y30274D01*
X9454Y30136D01*
X9454Y29987D01*
X9480Y29925D01*
X9475Y29925D01*
X9337Y29868D01*
X9232Y29762D01*
X9175Y29624D01*
X9174Y29528D01*
X9141Y29561D01*
X9049Y29599D01*
X8950Y29600D01*
X8940Y29600D01*
X8940Y29759D01*
X8967Y29787D01*
X9024Y29925D01*
X9025Y30074D01*
X8968Y30212D01*
X8862Y30317D01*
X8724Y30374D01*
X8575Y30375D01*
X8437Y30318D01*
X8332Y30212D01*
X8275Y30074D01*
X8274Y29925D01*
X8331Y29787D01*
X8360Y29759D01*
X8360Y29600D01*
X8250Y29600D01*
X8158Y29562D01*
X8088Y29491D01*
X8064Y29434D01*
X7990Y29508D01*
X7769Y29599D01*
X7531Y29600D01*
X7310Y29508D01*
X7141Y29340D01*
X7125Y29302D01*
X7102Y29311D01*
X6961Y29169D01*
X6791Y29000D01*
X7102Y28688D01*
X7125Y28697D01*
X7141Y28660D01*
X7309Y28491D01*
X7530Y28400D01*
X7768Y28399D01*
X7989Y28491D01*
X8064Y28565D01*
X8087Y28508D01*
X8158Y28438D01*
X8250Y28400D01*
X8349Y28399D01*
X8518Y28399D01*
X8026Y27908D01*
X7919Y27952D01*
X7770Y27952D01*
X7632Y27895D01*
X7526Y27790D01*
X7469Y27652D01*
X7469Y27612D01*
X6961Y27104D01*
X6944Y27087D01*
X6882Y26993D01*
X6859Y26882D01*
X6859Y26564D01*
X6693Y26610D01*
X6456Y26580D01*
X6376Y26547D01*
X6338Y26452D01*
X6290Y26501D01*
X6290Y28498D01*
X6338Y28547D01*
X6376Y28452D01*
X6606Y28389D01*
X6843Y28419D01*
X6923Y28452D01*
X6961Y28547D01*
X6650Y28858D01*
X6644Y28853D01*
X6503Y28994D01*
X6508Y29000D01*
X6503Y29005D01*
X6644Y29146D01*
X6650Y29141D01*
X6961Y29452D01*
X6923Y29547D01*
X6693Y29610D01*
X6456Y29580D01*
X6376Y29547D01*
X6338Y29452D01*
X6328Y29463D01*
X6374Y29575D01*
X6375Y29724D01*
X6318Y29862D01*
X6212Y29967D01*
X6074Y30024D01*
X5925Y30025D01*
X5787Y29968D01*
X5682Y29862D01*
X5625Y29724D01*
X5624Y29575D01*
X5681Y29437D01*
X5710Y29409D01*
X5710Y26290D01*
X5682Y26262D01*
X5625Y26124D01*
X5624Y25975D01*
X5681Y25837D01*
X5787Y25732D01*
X5925Y25675D01*
X6074Y25674D01*
X6151Y25706D01*
X6197Y25688D01*
X6508Y26000D01*
X6503Y26005D01*
X6644Y26146D01*
X6650Y26141D01*
X6655Y26146D01*
X6796Y26005D01*
X6791Y26000D01*
X6796Y25994D01*
X6655Y25853D01*
X6650Y25858D01*
X6508Y25717D01*
X6338Y25547D01*
X6376Y25452D01*
X6606Y25389D01*
X6783Y25412D01*
X6171Y24799D01*
X6108Y24705D01*
X6086Y24594D01*
X6086Y23550D01*
X5896Y23741D01*
X5574Y23874D01*
X5226Y23875D01*
X4905Y23742D01*
X4658Y23496D01*
X4525Y23174D01*
X4524Y22826D01*
X4657Y22505D01*
X4903Y22258D01*
X5225Y22125D01*
X5573Y22124D01*
X5895Y22257D01*
X6118Y22480D01*
X6171Y22401D01*
X6418Y22154D01*
X6418Y22154D01*
X6512Y22091D01*
X6623Y22069D01*
X6623Y22069D01*
X6623Y22069D01*
X7958Y22069D01*
X8069Y22091D01*
X8163Y22154D01*
X8408Y22399D01*
X8411Y22396D01*
X8589Y22277D01*
X8800Y22235D01*
X9010Y22277D01*
X9078Y22322D01*
X9078Y20464D01*
X8756Y20786D01*
X8756Y21273D01*
X8784Y21301D01*
X8841Y21439D01*
X8841Y21588D01*
X8784Y21726D01*
X8679Y21831D01*
X8541Y21888D01*
X8392Y21889D01*
X8254Y21832D01*
X8148Y21726D01*
X8091Y21588D01*
X8091Y21439D01*
X8148Y21301D01*
X8176Y21273D01*
X8176Y20666D01*
X8189Y20600D01*
X7750Y20600D01*
X7658Y20562D01*
X7588Y20491D01*
X7564Y20434D01*
X7490Y20508D01*
X7269Y20599D01*
X7031Y20600D01*
X6810Y20508D01*
X6641Y20340D01*
X6625Y20302D01*
X6602Y20311D01*
X6461Y20169D01*
X6461Y20452D01*
X6423Y20547D01*
X6193Y20610D01*
X5956Y20580D01*
X5876Y20547D01*
X5838Y20452D01*
X6150Y20141D01*
X6461Y20452D01*
X6461Y20169D01*
X6291Y20000D01*
X6602Y19688D01*
X6625Y19697D01*
X6641Y19660D01*
X6809Y19491D01*
X7030Y19400D01*
X7268Y19399D01*
X7489Y19491D01*
X7564Y19565D01*
X7587Y19508D01*
X7658Y19438D01*
X7750Y19400D01*
X7849Y19399D01*
X8549Y19399D01*
X8641Y19437D01*
X8711Y19508D01*
X8749Y19600D01*
X8750Y19699D01*
X8750Y19972D01*
X9296Y19426D01*
X9232Y19362D01*
X9175Y19224D01*
X9175Y19210D01*
X9100Y19225D01*
X6461Y19225D01*
X6461Y19547D01*
X6150Y19858D01*
X6008Y19717D01*
X6008Y20000D01*
X5697Y20311D01*
X5602Y20273D01*
X5539Y20043D01*
X5569Y19806D01*
X5602Y19726D01*
X5697Y19688D01*
X6008Y20000D01*
X6008Y19717D01*
X5838Y19547D01*
X5876Y19452D01*
X6106Y19389D01*
X6343Y19419D01*
X6423Y19452D01*
X6461Y19547D01*
X6461Y19225D01*
X5346Y19225D01*
X3575Y20996D01*
X3575Y30503D01*
X4646Y31575D01*
X8449Y31575D01*
X8450Y31575D01*
X8544Y31574D01*
X8631Y31611D01*
X8718Y31647D01*
X8852Y31780D01*
X8888Y31868D01*
X8924Y31955D01*
X8925Y32050D01*
X8925Y32144D01*
X8888Y32231D01*
X8852Y32318D01*
X8719Y32452D01*
X8631Y32488D01*
X8544Y32524D01*
X8355Y32525D01*
X8355Y32525D01*
X4450Y32525D01*
X4268Y32488D01*
X4114Y32385D01*
X2764Y31035D01*
X2661Y30881D01*
X2625Y30700D01*
X2625Y20800D01*
X2661Y20618D01*
X2764Y20464D01*
X4814Y18414D01*
X4968Y18311D01*
X5150Y18275D01*
X8903Y18275D01*
X9942Y17235D01*
X9942Y17235D01*
X9942Y17235D01*
X10725Y16453D01*
X10725Y11996D01*
X10514Y11785D01*
X10411Y11631D01*
X10375Y11450D01*
X10375Y7673D01*
X10278Y7673D01*
X10096Y7637D01*
X9942Y7534D01*
X9113Y6705D01*
X9079Y6719D01*
X8721Y6720D01*
X8553Y6650D01*
X8553Y12945D01*
X8524Y13200D01*
X8483Y13300D01*
X8384Y13343D01*
X8243Y13201D01*
X8243Y13484D01*
X8200Y13583D01*
X7954Y13653D01*
X7699Y13624D01*
X7599Y13583D01*
X7556Y13484D01*
X7900Y13141D01*
X8243Y13484D01*
X8243Y13201D01*
X8041Y13000D01*
X8384Y12656D01*
X8483Y12699D01*
X8553Y12945D01*
X8553Y6650D01*
X8543Y6646D01*
X8543Y9127D01*
X8445Y9364D01*
X8264Y9545D01*
X8243Y9554D01*
X8243Y12515D01*
X7900Y12858D01*
X7758Y12717D01*
X7758Y13000D01*
X7415Y13343D01*
X7316Y13300D01*
X7246Y13054D01*
X7275Y12799D01*
X7316Y12699D01*
X7415Y12656D01*
X7758Y13000D01*
X7758Y12717D01*
X7556Y12515D01*
X7599Y12416D01*
X7845Y12346D01*
X8100Y12375D01*
X8200Y12416D01*
X8243Y12515D01*
X8243Y9554D01*
X8028Y9643D01*
X7772Y9643D01*
X7535Y9545D01*
X7354Y9364D01*
X7256Y9128D01*
X7256Y8872D01*
X7354Y8635D01*
X7535Y8454D01*
X7771Y8356D01*
X8027Y8356D01*
X8264Y8454D01*
X8445Y8635D01*
X8543Y8871D01*
X8543Y9127D01*
X8543Y6646D01*
X8395Y6585D01*
X8395Y6697D01*
X8244Y7062D01*
X7964Y7343D01*
X7598Y7494D01*
X7202Y7495D01*
X6837Y7344D01*
X6800Y7307D01*
X6800Y7358D01*
X6663Y7689D01*
X6410Y7942D01*
X6079Y8079D01*
X5721Y8080D01*
X5390Y7943D01*
X5137Y7690D01*
X5000Y7359D01*
X4999Y7001D01*
X5136Y6670D01*
X5389Y6417D01*
X5720Y6280D01*
X6078Y6279D01*
X6404Y6414D01*
X6404Y6302D01*
X6555Y5937D01*
X6835Y5656D01*
X7201Y5505D01*
X7597Y5504D01*
X7962Y5655D01*
X7999Y5692D01*
X7999Y5641D01*
X8136Y5310D01*
X8389Y5057D01*
X8720Y4920D01*
X9078Y4919D01*
X9409Y5056D01*
X9662Y5309D01*
X9799Y5640D01*
X9800Y5998D01*
X9785Y6033D01*
X10475Y6723D01*
X10850Y6723D01*
X11046Y6723D01*
X11006Y6628D01*
X11006Y6372D01*
X11104Y6135D01*
X11285Y5954D01*
X11449Y5886D01*
X11388Y5824D01*
X11350Y5732D01*
X11349Y5633D01*
X11349Y5505D01*
X11274Y5455D01*
X11211Y5360D01*
X11189Y5250D01*
X11189Y4817D01*
X11132Y4731D01*
X11121Y4677D01*
X11011Y4603D01*
X10900Y4437D01*
X10788Y4603D01*
X10610Y4722D01*
X10400Y4764D01*
X10189Y4722D01*
X10011Y4603D01*
X9891Y4425D01*
X9850Y4214D01*
X9850Y3785D01*
X9891Y3574D01*
X9909Y3547D01*
X9707Y3524D01*
X9607Y3483D01*
X9564Y3384D01*
X9616Y3332D01*
X9607Y3319D01*
X9583Y3195D01*
X9583Y3097D01*
X9586Y3080D01*
X9423Y3243D01*
X9324Y3200D01*
X9254Y2954D01*
X9283Y2699D01*
X9324Y2599D01*
X9423Y2556D01*
X9684Y2817D01*
X9681Y2802D01*
X9681Y2703D01*
X9690Y2654D01*
X9681Y2605D01*
X9693Y2543D01*
X9564Y2415D01*
X9607Y2316D01*
X9853Y2246D01*
X10108Y2275D01*
X10119Y2280D01*
X10707Y2280D01*
X10763Y2256D01*
X11019Y2256D01*
X11256Y2354D01*
X11437Y2535D01*
X11468Y2610D01*
X11512Y2610D01*
X11588Y2534D01*
X11790Y2450D01*
X12008Y2449D01*
X12030Y2458D01*
X12120Y2369D01*
X12214Y2306D01*
X12325Y2284D01*
X14069Y2284D01*
X14180Y2306D01*
X14274Y2369D01*
X14513Y2608D01*
X14588Y2534D01*
X14790Y2450D01*
X15008Y2449D01*
X15211Y2533D01*
X15365Y2688D01*
X15399Y2769D01*
X15433Y2688D01*
X15588Y2534D01*
X15790Y2450D01*
X16008Y2449D01*
X16211Y2533D01*
X16273Y2596D01*
X16505Y2363D01*
X16505Y2363D01*
X16599Y2301D01*
X16710Y2279D01*
X16710Y2279D01*
X16710Y2279D01*
X17023Y2279D01*
X17051Y2251D01*
X17188Y2194D01*
X17337Y2193D01*
X17475Y2250D01*
X17581Y2356D01*
X17638Y2494D01*
X17638Y2546D01*
X17656Y2494D01*
X17868Y2440D01*
X18085Y2470D01*
X18143Y2494D01*
X18174Y2584D01*
X17900Y2858D01*
X17894Y2853D01*
X17753Y2994D01*
X17758Y3000D01*
X17753Y3005D01*
X17894Y3146D01*
X17900Y3141D01*
X17905Y3146D01*
X18046Y3005D01*
X18041Y3000D01*
X18315Y2725D01*
X18405Y2756D01*
X18405Y2757D01*
X18433Y2688D01*
X18588Y2534D01*
X18790Y2450D01*
X19008Y2449D01*
X19211Y2533D01*
X19277Y2600D01*
X19521Y2356D01*
X19615Y2293D01*
X19726Y2271D01*
X23056Y2271D01*
X23167Y2293D01*
X23261Y2356D01*
X23513Y2608D01*
X23588Y2534D01*
X23790Y2450D01*
X24008Y2449D01*
X24211Y2533D01*
X24365Y2688D01*
X24399Y2769D01*
X24433Y2688D01*
X24588Y2534D01*
X24790Y2450D01*
X25008Y2449D01*
X25211Y2533D01*
X25365Y2688D01*
X25394Y2757D01*
X25394Y2756D01*
X25484Y2725D01*
X25758Y3000D01*
X25753Y3005D01*
X25894Y3146D01*
X25900Y3141D01*
X25905Y3146D01*
X26046Y3005D01*
X26041Y3000D01*
X26046Y2994D01*
X25905Y2853D01*
X25900Y2858D01*
X25625Y2584D01*
X25656Y2494D01*
X25868Y2440D01*
X26085Y2470D01*
X26143Y2494D01*
X26174Y2584D01*
X26174Y2584D01*
X26225Y2533D01*
X26287Y2595D01*
X26692Y2190D01*
X26692Y2190D01*
X26786Y2127D01*
X26897Y2105D01*
X26897Y2105D01*
X26897Y2105D01*
X29911Y2105D01*
X30022Y2127D01*
X30117Y2190D01*
X30524Y2597D01*
X30588Y2534D01*
X30790Y2450D01*
X31008Y2449D01*
X31211Y2533D01*
X31365Y2688D01*
X31399Y2769D01*
X31433Y2688D01*
X31588Y2534D01*
X31790Y2450D01*
X32008Y2449D01*
X32211Y2533D01*
X32365Y2688D01*
X32399Y2769D01*
X32433Y2688D01*
X32588Y2534D01*
X32790Y2450D01*
X33008Y2449D01*
X33211Y2533D01*
X33365Y2688D01*
X33394Y2757D01*
X33394Y2756D01*
X33484Y2725D01*
X33758Y3000D01*
X33753Y3005D01*
X33894Y3146D01*
X33900Y3141D01*
X33905Y3146D01*
X34046Y3005D01*
X34041Y3000D01*
X34315Y2725D01*
X34405Y2756D01*
X34405Y2757D01*
X34433Y2688D01*
X34538Y2583D01*
X34538Y1800D01*
G54D10*
G36*
X6700Y10646D02*
X6675Y10520D01*
X6675Y9300D01*
X2740Y9300D01*
X2740Y12666D01*
X2740Y12666D01*
X2740Y14959D01*
X2740Y16140D01*
X2702Y16231D01*
X2632Y16302D01*
X2540Y16340D01*
X2440Y16340D01*
X1259Y16340D01*
X1168Y16302D01*
X1097Y16232D01*
X1059Y16140D01*
X1059Y16040D01*
X1059Y14859D01*
X1097Y14768D01*
X1167Y14697D01*
X1259Y14659D01*
X1359Y14659D01*
X2540Y14659D01*
X2631Y14697D01*
X2702Y14767D01*
X2740Y14859D01*
X2740Y14959D01*
X2740Y12666D01*
X2612Y12975D01*
X2376Y13212D01*
X2067Y13340D01*
X1733Y13340D01*
X1424Y13212D01*
X1187Y12976D01*
X1059Y12667D01*
X1059Y12333D01*
X1187Y12024D01*
X1423Y11787D01*
X1732Y11659D01*
X2066Y11659D01*
X2375Y11787D01*
X2612Y12023D01*
X2740Y12332D01*
X2740Y12666D01*
X2740Y9300D01*
X2740Y9300D01*
X2740Y9859D01*
X2740Y11140D01*
X2702Y11231D01*
X2632Y11302D01*
X2540Y11340D01*
X2440Y11340D01*
X2062Y11340D01*
X2000Y11278D01*
X2000Y10600D01*
X2678Y10600D01*
X2740Y10662D01*
X2740Y11140D01*
X2740Y9859D01*
X2740Y10337D01*
X2678Y10400D01*
X2000Y10400D01*
X2000Y9722D01*
X2062Y9659D01*
X2440Y9659D01*
X2540Y9659D01*
X2632Y9697D01*
X2702Y9768D01*
X2740Y9859D01*
X2740Y9300D01*
X1287Y9300D01*
X1270Y9342D01*
X1270Y9659D01*
X1359Y9659D01*
X1737Y9659D01*
X1800Y9722D01*
X1800Y10400D01*
X1800Y10600D01*
X1800Y11278D01*
X1737Y11340D01*
X1359Y11340D01*
X1259Y11340D01*
X1167Y11302D01*
X1097Y11231D01*
X1059Y11140D01*
X1059Y10662D01*
X1122Y10600D01*
X1800Y10600D01*
X1800Y10400D01*
X1250Y10400D01*
X1233Y10442D01*
X1134Y10485D01*
X1006Y10356D01*
X945Y10369D01*
X847Y10369D01*
X791Y10357D01*
X781Y10371D01*
X755Y10389D01*
X993Y10626D01*
X950Y10725D01*
X704Y10795D01*
X449Y10766D01*
X349Y10725D01*
X325Y10668D01*
X325Y17200D01*
X1114Y17200D01*
X1187Y17024D01*
X1423Y16787D01*
X1732Y16659D01*
X2066Y16659D01*
X2375Y16787D01*
X2612Y17023D01*
X2685Y17200D01*
X6700Y17200D01*
X6700Y16898D01*
X6641Y16840D01*
X6625Y16802D01*
X6602Y16811D01*
X6461Y16669D01*
X6461Y16952D01*
X6423Y17047D01*
X6193Y17110D01*
X5956Y17080D01*
X5876Y17047D01*
X5838Y16952D01*
X6150Y16641D01*
X6461Y16952D01*
X6461Y16669D01*
X6291Y16500D01*
X6602Y16188D01*
X6625Y16197D01*
X6641Y16160D01*
X6700Y16101D01*
X6700Y13902D01*
X6590Y14012D01*
X6461Y14066D01*
X6461Y16047D01*
X6150Y16358D01*
X6008Y16217D01*
X6008Y16500D01*
X5697Y16811D01*
X5602Y16773D01*
X5539Y16543D01*
X5569Y16306D01*
X5602Y16226D01*
X5697Y16188D01*
X6008Y16500D01*
X6008Y16217D01*
X5838Y16047D01*
X5876Y15952D01*
X6106Y15889D01*
X6343Y15919D01*
X6423Y15952D01*
X6461Y16047D01*
X6461Y14066D01*
X6259Y14149D01*
X5901Y14150D01*
X5570Y14013D01*
X5317Y13760D01*
X5180Y13429D01*
X5179Y13071D01*
X5314Y12745D01*
X5202Y12745D01*
X4837Y12594D01*
X4556Y12314D01*
X4405Y11948D01*
X4404Y11552D01*
X4555Y11187D01*
X4592Y11150D01*
X4541Y11150D01*
X4210Y11013D01*
X3957Y10760D01*
X3820Y10429D01*
X3819Y10071D01*
X3956Y9740D01*
X4209Y9487D01*
X4540Y9350D01*
X4898Y9349D01*
X5229Y9486D01*
X5482Y9739D01*
X5619Y10070D01*
X5620Y10428D01*
X5485Y10754D01*
X5597Y10754D01*
X5962Y10905D01*
X6243Y11185D01*
X6394Y11551D01*
X6395Y11947D01*
X6244Y12312D01*
X6207Y12349D01*
X6258Y12349D01*
X6589Y12486D01*
X6700Y12597D01*
X6700Y10646D01*
X6700Y10646D01*
G37*
G54D39*
X6700Y10646D02*
X6675Y10520D01*
X6675Y9300D01*
X2740Y9300D01*
X2740Y12666D01*
X2740Y12666D01*
X2740Y14959D01*
X2740Y16140D01*
X2702Y16231D01*
X2632Y16302D01*
X2540Y16340D01*
X2440Y16340D01*
X1259Y16340D01*
X1168Y16302D01*
X1097Y16232D01*
X1059Y16140D01*
X1059Y16040D01*
X1059Y14859D01*
X1097Y14768D01*
X1167Y14697D01*
X1259Y14659D01*
X1359Y14659D01*
X2540Y14659D01*
X2631Y14697D01*
X2702Y14767D01*
X2740Y14859D01*
X2740Y14959D01*
X2740Y12666D01*
X2612Y12975D01*
X2376Y13212D01*
X2067Y13340D01*
X1733Y13340D01*
X1424Y13212D01*
X1187Y12976D01*
X1059Y12667D01*
X1059Y12333D01*
X1187Y12024D01*
X1423Y11787D01*
X1732Y11659D01*
X2066Y11659D01*
X2375Y11787D01*
X2612Y12023D01*
X2740Y12332D01*
X2740Y12666D01*
X2740Y9300D01*
X2740Y9300D01*
X2740Y9859D01*
X2740Y11140D01*
X2702Y11231D01*
X2632Y11302D01*
X2540Y11340D01*
X2440Y11340D01*
X2062Y11340D01*
X2000Y11278D01*
X2000Y10600D01*
X2678Y10600D01*
X2740Y10662D01*
X2740Y11140D01*
X2740Y9859D01*
X2740Y10337D01*
X2678Y10400D01*
X2000Y10400D01*
X2000Y9722D01*
X2062Y9659D01*
X2440Y9659D01*
X2540Y9659D01*
X2632Y9697D01*
X2702Y9768D01*
X2740Y9859D01*
X2740Y9300D01*
X1287Y9300D01*
X1270Y9342D01*
X1270Y9659D01*
X1359Y9659D01*
X1737Y9659D01*
X1800Y9722D01*
X1800Y10400D01*
X1800Y10600D01*
X1800Y11278D01*
X1737Y11340D01*
X1359Y11340D01*
X1259Y11340D01*
X1167Y11302D01*
X1097Y11231D01*
X1059Y11140D01*
X1059Y10662D01*
X1122Y10600D01*
X1800Y10600D01*
X1800Y10400D01*
X1250Y10400D01*
X1233Y10442D01*
X1134Y10485D01*
X1006Y10356D01*
X945Y10369D01*
X847Y10369D01*
X791Y10357D01*
X781Y10371D01*
X755Y10389D01*
X993Y10626D01*
X950Y10725D01*
X704Y10795D01*
X449Y10766D01*
X349Y10725D01*
X325Y10668D01*
X325Y17200D01*
X1114Y17200D01*
X1187Y17024D01*
X1423Y16787D01*
X1732Y16659D01*
X2066Y16659D01*
X2375Y16787D01*
X2612Y17023D01*
X2685Y17200D01*
X6700Y17200D01*
X6700Y16898D01*
X6641Y16840D01*
X6625Y16802D01*
X6602Y16811D01*
X6461Y16669D01*
X6461Y16952D01*
X6423Y17047D01*
X6193Y17110D01*
X5956Y17080D01*
X5876Y17047D01*
X5838Y16952D01*
X6150Y16641D01*
X6461Y16952D01*
X6461Y16669D01*
X6291Y16500D01*
X6602Y16188D01*
X6625Y16197D01*
X6641Y16160D01*
X6700Y16101D01*
X6700Y13902D01*
X6590Y14012D01*
X6461Y14066D01*
X6461Y16047D01*
X6150Y16358D01*
X6008Y16217D01*
X6008Y16500D01*
X5697Y16811D01*
X5602Y16773D01*
X5539Y16543D01*
X5569Y16306D01*
X5602Y16226D01*
X5697Y16188D01*
X6008Y16500D01*
X6008Y16217D01*
X5838Y16047D01*
X5876Y15952D01*
X6106Y15889D01*
X6343Y15919D01*
X6423Y15952D01*
X6461Y16047D01*
X6461Y14066D01*
X6259Y14149D01*
X5901Y14150D01*
X5570Y14013D01*
X5317Y13760D01*
X5180Y13429D01*
X5179Y13071D01*
X5314Y12745D01*
X5202Y12745D01*
X4837Y12594D01*
X4556Y12314D01*
X4405Y11948D01*
X4404Y11552D01*
X4555Y11187D01*
X4592Y11150D01*
X4541Y11150D01*
X4210Y11013D01*
X3957Y10760D01*
X3820Y10429D01*
X3819Y10071D01*
X3956Y9740D01*
X4209Y9487D01*
X4540Y9350D01*
X4898Y9349D01*
X5229Y9486D01*
X5482Y9739D01*
X5619Y10070D01*
X5620Y10428D01*
X5485Y10754D01*
X5597Y10754D01*
X5962Y10905D01*
X6243Y11185D01*
X6394Y11551D01*
X6395Y11947D01*
X6244Y12312D01*
X6207Y12349D01*
X6258Y12349D01*
X6589Y12486D01*
X6700Y12597D01*
X6700Y10646D01*
M02*
