G04 (created by PCBNEW (2013-07-07 BZR 4022)-stable) date 06/10/2013 19:19:05*
%MOIN*%
G04 Gerber Fmt 3.4, Leading zero omitted, Abs format*
%FSLAX34Y34*%
G01*
G70*
G90*
G04 APERTURE LIST*
%ADD10C,0.00590551*%
%ADD11C,0.06*%
%ADD12R,0.06X0.06*%
%ADD13C,0.0787*%
%ADD14C,0.07*%
%ADD15R,0.07X0.07*%
%ADD16R,0.1181X0.1181*%
%ADD17C,0.1181*%
%ADD18R,0.06X0.0866*%
%ADD19O,0.06X0.0866*%
%ADD20R,0.0787X0.06*%
%ADD21O,0.0787X0.06*%
%ADD22R,0.0984X0.055*%
%ADD23R,0.0866X0.06*%
%ADD24O,0.0866X0.06*%
%ADD25C,0.13*%
%ADD26C,0.149*%
%ADD27C,0.0944882*%
%ADD28R,0.0944882X0.0944882*%
%ADD29O,0.06X0.1*%
%ADD30C,0.125*%
%ADD31C,0.025*%
%ADD32C,0.064*%
%ADD33C,0.045*%
%ADD34C,0.008*%
%ADD35C,0.063*%
%ADD36C,0.045*%
%ADD37C,0.016*%
%ADD38C,0.03*%
%ADD39C,0.09*%
%ADD40C,0.01*%
G04 APERTURE END LIST*
G54D10*
G54D11*
X18900Y8000D03*
X17900Y8000D03*
X16900Y8000D03*
X15900Y8000D03*
X14900Y8000D03*
X13900Y8000D03*
X12900Y8000D03*
X11900Y8000D03*
X11900Y3000D03*
X12900Y3000D03*
X13900Y3000D03*
X14900Y3000D03*
X15900Y3000D03*
X16900Y3000D03*
X17900Y3000D03*
X18900Y3000D03*
X26900Y8000D03*
X25900Y8000D03*
X24900Y8000D03*
X23900Y8000D03*
X22900Y8000D03*
X21900Y8000D03*
X20900Y8000D03*
X19900Y8000D03*
X19900Y3000D03*
X20900Y3000D03*
X21900Y3000D03*
X22900Y3000D03*
X23900Y3000D03*
X24900Y3000D03*
X25900Y3000D03*
X26900Y3000D03*
X34900Y8000D03*
X33900Y8000D03*
X32900Y8000D03*
X31900Y8000D03*
X30900Y8000D03*
X29900Y8000D03*
X28900Y8000D03*
X27900Y8000D03*
X27900Y3000D03*
X28900Y3000D03*
X29900Y3000D03*
X30900Y3000D03*
X31900Y3000D03*
X32900Y3000D03*
X33900Y3000D03*
X34900Y3000D03*
X10400Y24500D03*
X11400Y24500D03*
X12400Y24500D03*
X13400Y24500D03*
X14400Y24500D03*
X15400Y24500D03*
X16400Y24500D03*
X17400Y24500D03*
X17400Y29500D03*
X16400Y29500D03*
X15400Y29500D03*
X14400Y29500D03*
X13400Y29500D03*
X12400Y29500D03*
X11400Y29500D03*
X10400Y29500D03*
X18400Y24500D03*
X19400Y24500D03*
X20400Y24500D03*
X21400Y24500D03*
X22400Y24500D03*
X23400Y24500D03*
X24400Y24500D03*
X25400Y24500D03*
X25400Y29500D03*
X24400Y29500D03*
X23400Y29500D03*
X22400Y29500D03*
X21400Y29500D03*
X20400Y29500D03*
X19400Y29500D03*
X18400Y29500D03*
G54D12*
X32400Y34500D03*
G54D11*
X32400Y33500D03*
X32400Y32500D03*
X32400Y31500D03*
G54D12*
X17900Y10000D03*
G54D11*
X17900Y9000D03*
X16900Y10000D03*
X16900Y9000D03*
X15900Y10000D03*
X15900Y9000D03*
G54D12*
X11400Y20750D03*
G54D11*
X11400Y21750D03*
X12400Y20750D03*
X12400Y21750D03*
X13400Y20750D03*
X13400Y21750D03*
G54D12*
X26900Y20750D03*
G54D11*
X26900Y21750D03*
X27900Y20750D03*
X27900Y21750D03*
X28900Y20750D03*
X28900Y21750D03*
G54D12*
X33900Y10000D03*
G54D11*
X33900Y9000D03*
X32900Y10000D03*
X32900Y9000D03*
X31900Y10000D03*
X31900Y9000D03*
G54D12*
X25900Y10000D03*
G54D11*
X25900Y9000D03*
X24900Y10000D03*
X24900Y9000D03*
X23900Y10000D03*
X23900Y9000D03*
G54D12*
X18900Y34500D03*
G54D11*
X18900Y33500D03*
X18900Y32500D03*
G54D12*
X33400Y31500D03*
G54D11*
X33400Y32500D03*
X33400Y33500D03*
G54D12*
X35400Y31500D03*
G54D11*
X35400Y32500D03*
X35400Y33500D03*
G54D12*
X36400Y31500D03*
G54D11*
X36400Y32500D03*
X36400Y33500D03*
G54D12*
X37400Y31500D03*
G54D11*
X37400Y32500D03*
X37400Y33500D03*
G54D12*
X38400Y31500D03*
G54D11*
X38400Y32500D03*
X38400Y33500D03*
G54D12*
X19900Y34500D03*
G54D11*
X19900Y33500D03*
X19900Y32500D03*
G54D12*
X34400Y31500D03*
G54D11*
X34400Y32500D03*
X34400Y33500D03*
G54D12*
X17900Y34500D03*
G54D11*
X17900Y33500D03*
X17900Y32500D03*
G54D12*
X16900Y34500D03*
G54D11*
X16900Y33500D03*
X16900Y32500D03*
G54D12*
X21900Y9250D03*
G54D13*
X9650Y12500D03*
X9650Y16500D03*
G54D14*
X7150Y16500D03*
X6150Y16500D03*
G54D15*
X8150Y16500D03*
G54D14*
X7150Y26000D03*
X6150Y26000D03*
G54D15*
X8150Y26000D03*
G54D14*
X7150Y20000D03*
X6150Y20000D03*
G54D15*
X8150Y20000D03*
G54D14*
X7150Y29000D03*
X6150Y29000D03*
G54D15*
X8150Y29000D03*
G54D16*
X1900Y5500D03*
G54D17*
X1900Y7500D03*
G54D12*
X17400Y1250D03*
G54D11*
X16400Y1250D03*
X15400Y1250D03*
X14400Y1250D03*
G54D12*
X24900Y1250D03*
G54D11*
X23900Y1250D03*
X22900Y1250D03*
X21900Y1250D03*
G54D12*
X32900Y1250D03*
G54D11*
X31900Y1250D03*
X30900Y1250D03*
X29900Y1250D03*
G54D12*
X11900Y33000D03*
G54D11*
X12900Y33000D03*
X13900Y33000D03*
X14900Y33000D03*
G54D18*
X11900Y5250D03*
G54D19*
X12900Y5250D03*
X13900Y5250D03*
G54D20*
X38498Y24500D03*
G54D21*
X37302Y24500D03*
X38498Y25500D03*
X37302Y25500D03*
X38498Y26500D03*
X37302Y26500D03*
X38498Y27500D03*
X37302Y27500D03*
G54D16*
X1900Y15500D03*
G54D17*
X1900Y17500D03*
G54D16*
X1900Y1500D03*
G54D17*
X1900Y3500D03*
G54D22*
X36121Y364D03*
X36121Y2136D03*
X38680Y364D03*
X38680Y2136D03*
G54D12*
X38400Y30000D03*
G54D11*
X38400Y29000D03*
G54D12*
X21900Y33000D03*
G54D11*
X22900Y33000D03*
X23900Y33000D03*
X24900Y33000D03*
G54D12*
X26900Y33000D03*
G54D11*
X27900Y33000D03*
X28900Y33000D03*
X29900Y33000D03*
X26400Y24500D03*
X27400Y24500D03*
X28400Y24500D03*
X29400Y24500D03*
X30400Y24500D03*
X31400Y24500D03*
X32400Y24500D03*
X33400Y24500D03*
X33400Y29500D03*
X32400Y29500D03*
X31400Y29500D03*
X30400Y29500D03*
X29400Y29500D03*
X28400Y29500D03*
X27400Y29500D03*
X26400Y29500D03*
G54D12*
X18900Y20750D03*
G54D11*
X18900Y21750D03*
X19900Y20750D03*
X19900Y21750D03*
X20900Y20750D03*
X20900Y21750D03*
G54D20*
X24302Y15000D03*
G54D21*
X25498Y15000D03*
X24302Y14000D03*
X25498Y14000D03*
X24302Y13000D03*
X25498Y13000D03*
G54D23*
X34900Y29500D03*
G54D24*
X34900Y28500D03*
X34900Y27500D03*
X34900Y26500D03*
X34900Y25500D03*
X34900Y24500D03*
G54D18*
X7650Y34250D03*
G54D19*
X8650Y34250D03*
X9650Y34250D03*
X10650Y34250D03*
G54D18*
X14150Y9250D03*
G54D19*
X13150Y9250D03*
X12150Y9250D03*
G54D12*
X16400Y5250D03*
G54D11*
X17400Y5250D03*
G54D14*
X10650Y9250D03*
G54D15*
X10650Y10250D03*
G54D14*
X10650Y11250D03*
G54D12*
X30900Y13000D03*
G54D11*
X29900Y13000D03*
X30900Y14000D03*
X29900Y14000D03*
X30900Y15000D03*
X29900Y15000D03*
X30900Y16000D03*
X29900Y16000D03*
X30900Y17000D03*
X29900Y17000D03*
G54D23*
X35900Y29500D03*
G54D24*
X35900Y28500D03*
X35900Y27500D03*
X35900Y26500D03*
X35900Y25500D03*
X35900Y24500D03*
G54D12*
X12900Y1250D03*
G54D11*
X11900Y1250D03*
G54D25*
X5900Y2180D03*
X8900Y820D03*
G54D26*
X7400Y1500D03*
G54D25*
X5900Y7180D03*
X8900Y5820D03*
G54D26*
X7400Y6500D03*
G54D25*
X4720Y10250D03*
X6080Y13250D03*
G54D26*
X5400Y11750D03*
G54D12*
X1650Y30750D03*
G54D11*
X1650Y31750D03*
G54D12*
X1650Y33000D03*
G54D11*
X1650Y34000D03*
G54D23*
X38400Y6000D03*
G54D24*
X38400Y7000D03*
X38400Y8000D03*
X38400Y9000D03*
X38400Y10000D03*
X38400Y11000D03*
X38400Y12000D03*
X38400Y13000D03*
X38400Y14000D03*
X38400Y15000D03*
X38400Y16000D03*
X38400Y17000D03*
X38400Y18000D03*
X38400Y19000D03*
X38400Y20000D03*
X38400Y21000D03*
X38400Y22000D03*
X38400Y23000D03*
G54D12*
X33400Y18000D03*
G54D11*
X34400Y18000D03*
X33400Y17000D03*
X34400Y17000D03*
X33400Y16000D03*
X34400Y16000D03*
X33400Y15000D03*
X34400Y15000D03*
X33400Y14000D03*
X34400Y14000D03*
X33400Y13000D03*
X34400Y13000D03*
G54D23*
X34900Y750D03*
G54D24*
X34900Y1750D03*
G54D27*
X1675Y21488D03*
G54D28*
X1675Y20111D03*
G54D27*
X1675Y25238D03*
G54D28*
X1675Y23861D03*
G54D27*
X1675Y28988D03*
G54D28*
X1675Y27611D03*
G54D29*
X26400Y23000D03*
X27400Y23000D03*
X28400Y23000D03*
X29400Y23000D03*
X30400Y23000D03*
X31400Y23000D03*
X32400Y23000D03*
X33400Y23000D03*
X35400Y4000D03*
X34400Y4000D03*
X33400Y4000D03*
X32400Y4000D03*
X28400Y4000D03*
X26400Y4000D03*
X25400Y4000D03*
X29400Y4000D03*
X30400Y4000D03*
X31400Y4000D03*
X24400Y4000D03*
X23400Y4000D03*
X22400Y4000D03*
X19400Y4000D03*
X20400Y4000D03*
X21400Y4000D03*
X17400Y4000D03*
X16400Y4000D03*
X15400Y4000D03*
X13400Y4000D03*
X12400Y4000D03*
X24400Y23000D03*
X23400Y23000D03*
X22400Y23000D03*
X21400Y23000D03*
X20400Y23000D03*
X19400Y23000D03*
X18400Y23000D03*
X17400Y23000D03*
X15800Y23000D03*
X14800Y23000D03*
X13800Y23000D03*
X12800Y23000D03*
X11800Y23000D03*
X10800Y23000D03*
X9800Y23000D03*
X8800Y23000D03*
X14400Y4000D03*
G54D30*
X37400Y4000D03*
X34900Y23000D03*
X5400Y23000D03*
X4900Y4000D03*
G54D11*
X36400Y22000D03*
X37400Y22000D03*
X36400Y21000D03*
X37400Y21000D03*
X36400Y20000D03*
X37400Y20000D03*
X36400Y19000D03*
X37400Y19000D03*
X36400Y23000D03*
X37400Y23000D03*
X37400Y18000D03*
X36400Y18000D03*
X36400Y17000D03*
X37400Y17000D03*
X36400Y16000D03*
X37400Y16000D03*
X36400Y15000D03*
X37400Y15000D03*
X36400Y14000D03*
X37400Y14000D03*
X36400Y13000D03*
X37400Y13000D03*
X36400Y12000D03*
X37400Y12000D03*
X36400Y11000D03*
X37400Y11000D03*
X36400Y10000D03*
X37400Y10000D03*
X36400Y9000D03*
X37400Y9000D03*
X36400Y8000D03*
X37400Y8000D03*
X36400Y7000D03*
X37400Y7000D03*
X36400Y6000D03*
X37400Y6000D03*
G54D29*
X7800Y23000D03*
X6800Y23000D03*
X11400Y4000D03*
X10400Y4000D03*
G54D12*
X30900Y20750D03*
G54D11*
X30900Y21750D03*
G54D16*
X1900Y10500D03*
G54D17*
X1900Y12500D03*
G54D31*
X8581Y31336D03*
X9650Y31350D03*
X8950Y32900D03*
X9050Y32300D03*
X19842Y12391D03*
X19915Y14375D03*
X31475Y20951D03*
X31699Y28824D03*
G54D32*
X2900Y18900D03*
G54D33*
X10200Y6150D03*
X4733Y19295D03*
G54D31*
X8887Y27900D03*
X26900Y16587D03*
X9319Y28433D03*
X11538Y16919D03*
X9935Y18210D03*
X12458Y17702D03*
X12458Y16250D03*
X8500Y21505D03*
X17442Y17335D03*
X10930Y21455D03*
X19750Y750D03*
X13500Y1500D03*
X16366Y11452D03*
X28126Y12674D03*
X16740Y15096D03*
X31573Y8499D03*
X24029Y17775D03*
X27721Y17724D03*
X23886Y18106D03*
X34608Y19717D03*
X33096Y20075D03*
X27737Y19518D03*
X21652Y22184D03*
X15292Y15527D03*
X15337Y15931D03*
X31487Y10645D03*
X32237Y12013D03*
X8328Y23738D03*
X25151Y16534D03*
X26147Y14772D03*
G54D33*
X20750Y28550D03*
G54D31*
X29097Y28095D03*
X13355Y19170D03*
X25400Y10576D03*
X24187Y17227D03*
X25747Y20737D03*
G54D33*
X24580Y27500D03*
X7036Y32369D03*
X13230Y11875D03*
G54D31*
X31018Y26351D03*
X22919Y18262D03*
X38411Y23759D03*
X38910Y18434D03*
X26394Y23796D03*
X21929Y17065D03*
X34070Y20973D03*
X35264Y19218D03*
X28800Y29050D03*
X30966Y30556D03*
X31226Y28342D03*
X30751Y28180D03*
X30129Y28803D03*
X8597Y17796D03*
X34675Y10000D03*
X27445Y10662D03*
X24155Y15731D03*
X14808Y14821D03*
X34192Y24890D03*
X11150Y28200D03*
X11450Y33600D03*
X11950Y28950D03*
X16900Y27350D03*
X17900Y28050D03*
X19650Y27500D03*
X19950Y28200D03*
X27964Y19188D03*
X19727Y11706D03*
X20400Y13244D03*
X21473Y15189D03*
X22992Y15190D03*
X30686Y24929D03*
X32516Y19877D03*
X15250Y8850D03*
X15400Y7600D03*
X31958Y25225D03*
X33837Y25495D03*
X28379Y7385D03*
X34145Y11694D03*
X28761Y6976D03*
X30538Y27177D03*
X32092Y27056D03*
X30069Y6432D03*
X20400Y1000D03*
X20400Y2750D03*
X32894Y27228D03*
X31831Y27273D03*
X30153Y6893D03*
X35582Y11474D03*
G54D34*
X34400Y31500D02*
X33400Y31500D01*
X35400Y31500D02*
X36400Y31500D01*
X37400Y31289D02*
X37400Y31079D01*
X37030Y31289D02*
X36820Y31500D01*
X37400Y31289D02*
X37030Y31289D01*
X36400Y31500D02*
X36820Y31500D01*
X37400Y31500D02*
X37400Y31395D01*
X37400Y31395D02*
X37400Y31289D01*
X37874Y31395D02*
X37979Y31500D01*
X37400Y31395D02*
X37874Y31395D01*
X38400Y31500D02*
X37979Y31500D01*
X37820Y23420D02*
X37400Y23000D01*
X37820Y28693D02*
X37820Y23420D01*
X37400Y29113D02*
X37820Y28693D01*
X37400Y31079D02*
X37400Y29113D01*
X32979Y18250D02*
X32979Y18000D01*
X30900Y20329D02*
X32979Y18250D01*
X30900Y20750D02*
X30900Y20329D01*
X33400Y18000D02*
X32979Y18000D01*
X25400Y15000D02*
X24984Y15000D01*
X13900Y5250D02*
X14320Y5250D01*
X14400Y5170D02*
X14320Y5250D01*
X14400Y4000D02*
X14400Y5170D01*
X24984Y15207D02*
X24984Y15000D01*
X24756Y15435D02*
X24984Y15207D01*
X20003Y15435D02*
X24756Y15435D01*
X14739Y10172D02*
X20003Y15435D01*
X14739Y8727D02*
X14739Y10172D01*
X14320Y8307D02*
X14739Y8727D01*
X14320Y5250D02*
X14320Y8307D01*
X8581Y31336D02*
X9636Y31336D01*
X9636Y31336D02*
X9650Y31350D01*
X8950Y32900D02*
X9050Y32800D01*
X9050Y32800D02*
X9050Y32300D01*
X21900Y3693D02*
X21900Y8000D01*
X21206Y3000D02*
X21900Y3693D01*
X20900Y3000D02*
X21206Y3000D01*
X12900Y7000D02*
X12900Y5250D01*
X13900Y8000D02*
X12900Y7000D01*
X12900Y5250D02*
X12900Y3000D01*
X30900Y13000D02*
X30900Y12579D01*
X17900Y10000D02*
X17900Y10420D01*
X18900Y20750D02*
X18479Y20750D01*
X14273Y21623D02*
X13400Y20750D01*
X14273Y24373D02*
X14273Y21623D01*
X14400Y24500D02*
X14273Y24373D01*
X33900Y10000D02*
X33900Y9579D01*
X38400Y6000D02*
X38400Y5579D01*
X37214Y5579D02*
X38400Y5579D01*
X36900Y5894D02*
X37214Y5579D01*
X36900Y6094D02*
X36900Y5894D01*
X36574Y6420D02*
X36900Y6094D01*
X36362Y6420D02*
X36574Y6420D01*
X35499Y7283D02*
X36362Y6420D01*
X35499Y8014D02*
X35499Y7283D01*
X33934Y9579D02*
X35499Y8014D01*
X33900Y9579D02*
X33934Y9579D01*
X32400Y34500D02*
X32400Y34079D01*
X14900Y9000D02*
X15900Y10000D01*
X14900Y8000D02*
X14900Y9000D01*
X29213Y3000D02*
X28900Y3000D01*
X29820Y3606D02*
X29213Y3000D01*
X29820Y6920D02*
X29820Y3606D01*
X30900Y8000D02*
X29820Y6920D01*
X15601Y24500D02*
X15400Y24500D01*
X15601Y28701D02*
X16400Y29500D01*
X15601Y24500D02*
X15601Y28701D01*
X24212Y29312D02*
X24212Y27149D01*
X24400Y29500D02*
X24212Y29312D01*
X23400Y26336D02*
X24212Y27149D01*
X23400Y24500D02*
X23400Y26336D01*
X17900Y10449D02*
X19842Y12391D01*
X17900Y10420D02*
X17900Y10449D01*
X19915Y12464D02*
X19915Y14375D01*
X19842Y12391D02*
X19915Y12464D01*
X16822Y23278D02*
X15601Y24500D01*
X16822Y22407D02*
X16822Y23278D01*
X18479Y20750D02*
X16822Y22407D01*
X29900Y11579D02*
X30900Y12579D01*
X29900Y8000D02*
X29900Y11579D01*
X22400Y24022D02*
X22400Y24500D01*
X21900Y23522D02*
X22400Y24022D01*
X21900Y21750D02*
X21900Y23522D01*
X20900Y20750D02*
X21900Y21750D01*
X22900Y9000D02*
X22900Y8000D01*
X23900Y10000D02*
X22900Y9000D01*
X31257Y21170D02*
X31475Y20951D01*
X29320Y21170D02*
X31257Y21170D01*
X28900Y20750D02*
X29320Y21170D01*
X32452Y34079D02*
X32400Y34079D01*
X32820Y33712D02*
X32452Y34079D01*
X32820Y32325D02*
X32820Y33712D01*
X32492Y31997D02*
X32820Y32325D01*
X32293Y31997D02*
X32492Y31997D01*
X31969Y31673D02*
X32293Y31997D01*
X31969Y29930D02*
X31969Y31673D01*
X32400Y29500D02*
X31969Y29930D01*
X31699Y28469D02*
X31699Y28824D01*
X30653Y27423D02*
X31699Y28469D01*
X30396Y27423D02*
X30653Y27423D01*
X30122Y27149D02*
X30396Y27423D01*
X24212Y27149D02*
X30122Y27149D01*
X31423Y26652D02*
X30653Y27423D01*
X31423Y24523D02*
X31423Y26652D01*
X31400Y24500D02*
X31423Y24523D01*
G54D35*
X3200Y19200D02*
X3200Y19995D01*
X2900Y18900D02*
X3200Y19200D01*
X10400Y29500D02*
X10147Y29752D01*
X3200Y28050D02*
X3200Y19995D01*
X4902Y29752D02*
X3200Y28050D01*
X10147Y29752D02*
X4902Y29752D01*
G54D36*
X8900Y1668D02*
X8900Y4450D01*
X8900Y820D02*
X8900Y1668D01*
X10200Y5750D02*
X10200Y6150D01*
X8900Y4450D02*
X10200Y5750D01*
X898Y26055D02*
X1675Y26833D01*
X898Y24638D02*
X898Y26055D01*
X1675Y23861D02*
X898Y24638D01*
X1675Y27611D02*
X1675Y26833D01*
X2453Y22305D02*
X1675Y23083D01*
X2453Y20888D02*
X2453Y22305D01*
X1675Y20111D02*
X2453Y20888D01*
X1675Y23861D02*
X1675Y23083D01*
X9650Y16500D02*
X8951Y16500D01*
X6641Y17388D02*
X4733Y19295D01*
X8395Y17388D02*
X6641Y17388D01*
X8951Y16833D02*
X8395Y17388D01*
X8951Y16500D02*
X8951Y16833D01*
X8951Y16500D02*
X8951Y10803D01*
X10505Y9250D02*
X10650Y9250D01*
X8951Y10803D02*
X10505Y9250D01*
G54D34*
X9319Y28331D02*
X9319Y28433D01*
X8887Y27900D02*
X9319Y28331D01*
X26449Y16137D02*
X26900Y16587D01*
X16768Y16137D02*
X26449Y16137D01*
X15593Y14962D02*
X16768Y16137D01*
X15014Y14962D02*
X15593Y14962D01*
X14549Y15427D02*
X15014Y14962D01*
X14549Y15979D02*
X14549Y15427D01*
X8186Y22342D02*
X14549Y15979D01*
X6655Y22342D02*
X8186Y22342D01*
X6364Y22633D02*
X6655Y22342D01*
X6364Y23568D02*
X6364Y22633D01*
X7679Y24883D02*
X6364Y23568D01*
X7679Y26692D02*
X7679Y24883D01*
X8887Y27900D02*
X7679Y26692D01*
X11225Y16919D02*
X11538Y16919D01*
X9935Y18210D02*
X11225Y16919D01*
X12458Y17702D02*
X12458Y16250D01*
X12303Y17702D02*
X8500Y21505D01*
X12458Y17702D02*
X12303Y17702D01*
X23936Y17335D02*
X17442Y17335D01*
X24820Y18219D02*
X23936Y17335D01*
X24820Y22920D02*
X24820Y18219D01*
X26400Y24500D02*
X24820Y22920D01*
X10375Y22011D02*
X10930Y21455D01*
X10375Y24475D02*
X10375Y22011D01*
X10400Y24500D02*
X10375Y24475D01*
G54D37*
X13689Y9508D02*
X13689Y9250D01*
X11948Y11250D02*
X13689Y9508D01*
X10650Y11250D02*
X11948Y11250D01*
X14150Y9250D02*
X13689Y9250D01*
G54D34*
X19750Y750D02*
X13900Y750D01*
X13500Y1150D02*
X13500Y1500D01*
X13900Y750D02*
X13500Y1150D01*
G54D38*
X28900Y33000D02*
X28900Y31050D01*
X29600Y30350D02*
X30400Y29550D01*
X30400Y29550D02*
X30400Y29500D01*
X28900Y31050D02*
X29600Y30350D01*
X29900Y33000D02*
X31400Y31500D01*
X31400Y31500D02*
X31400Y29500D01*
G54D34*
X18900Y8603D02*
X18900Y8000D01*
X17946Y9556D02*
X18900Y8603D01*
X17573Y9556D02*
X17946Y9556D01*
X17479Y9650D02*
X17573Y9556D01*
X17479Y10339D02*
X17479Y9650D01*
X16366Y11452D02*
X17479Y10339D01*
X28126Y10544D02*
X28126Y12674D01*
X26900Y9317D02*
X28126Y10544D01*
X26900Y8000D02*
X26900Y9317D01*
X17621Y15977D02*
X16740Y15096D01*
X26134Y15977D02*
X17621Y15977D01*
X26690Y15421D02*
X26134Y15977D01*
X31077Y15421D02*
X26690Y15421D01*
X31494Y15004D02*
X31077Y15421D01*
X31494Y10999D02*
X31494Y15004D01*
X31242Y10747D02*
X31494Y10999D01*
X31242Y8831D02*
X31242Y10747D01*
X31573Y8499D02*
X31242Y8831D01*
X23400Y4000D02*
X23400Y4620D01*
X30462Y14437D02*
X30900Y14000D01*
X29543Y14437D02*
X30462Y14437D01*
X27850Y12744D02*
X29543Y14437D01*
X27850Y10494D02*
X27850Y12744D01*
X26400Y9044D02*
X27850Y10494D01*
X26400Y7620D02*
X26400Y9044D01*
X23400Y4620D02*
X26400Y7620D01*
X24400Y4000D02*
X24400Y4620D01*
X29320Y13420D02*
X29900Y14000D01*
X29320Y11511D02*
X29320Y13420D01*
X27400Y9591D02*
X29320Y11511D01*
X27400Y7620D02*
X27400Y9591D01*
X24400Y4620D02*
X27400Y7620D01*
X31333Y14566D02*
X30900Y15000D01*
X31333Y13834D02*
X31333Y14566D01*
X30942Y13443D02*
X31333Y13834D01*
X30565Y13443D02*
X30942Y13443D01*
X30456Y13334D02*
X30565Y13443D01*
X30456Y12363D02*
X30456Y13334D01*
X28400Y10306D02*
X30456Y12363D01*
X28400Y7775D02*
X28400Y10306D01*
X25400Y4775D02*
X28400Y7775D01*
X25400Y4000D02*
X25400Y4775D01*
X26400Y4000D02*
X26400Y3379D01*
X29879Y15000D02*
X29900Y15000D01*
X27690Y12811D02*
X29879Y15000D01*
X27690Y10560D02*
X27690Y12811D01*
X26696Y9566D02*
X27690Y10560D01*
X25847Y9566D02*
X26696Y9566D01*
X25400Y9119D02*
X25847Y9566D01*
X25400Y7438D02*
X25400Y9119D01*
X22969Y5008D02*
X25400Y7438D01*
X22969Y3610D02*
X22969Y5008D01*
X23218Y3361D02*
X22969Y3610D01*
X23667Y3361D02*
X23218Y3361D01*
X23735Y3429D02*
X23667Y3361D01*
X24175Y3429D02*
X23735Y3429D01*
X24235Y3370D02*
X24175Y3429D01*
X24675Y3370D02*
X24235Y3370D01*
X24735Y3429D02*
X24675Y3370D01*
X25175Y3429D02*
X24735Y3429D01*
X25235Y3370D02*
X25175Y3429D01*
X25675Y3370D02*
X25235Y3370D01*
X25747Y3441D02*
X25675Y3370D01*
X26116Y3441D02*
X25747Y3441D01*
X26177Y3379D02*
X26116Y3441D01*
X26400Y3379D02*
X26177Y3379D01*
X34400Y4000D02*
X34400Y4620D01*
X32499Y14400D02*
X30900Y16000D01*
X32499Y11928D02*
X32499Y14400D01*
X32477Y11906D02*
X32499Y11928D01*
X32477Y6542D02*
X32477Y11906D01*
X34400Y4620D02*
X32477Y6542D01*
X30157Y16000D02*
X29900Y16000D01*
X30590Y16433D02*
X30157Y16000D01*
X31060Y16433D02*
X30590Y16433D01*
X32821Y14672D02*
X31060Y16433D01*
X32821Y11755D02*
X32821Y14672D01*
X33479Y11097D02*
X32821Y11755D01*
X33479Y6540D02*
X33479Y11097D01*
X35400Y4620D02*
X33479Y6540D01*
X35400Y4000D02*
X35400Y4620D01*
G54D37*
X17400Y4000D02*
X17400Y5250D01*
G54D34*
X13800Y23000D02*
X13800Y23620D01*
X24029Y17775D02*
X24029Y17775D01*
X21102Y17775D02*
X24029Y17775D01*
X16658Y22219D02*
X21102Y17775D01*
X16658Y22938D02*
X16658Y22219D01*
X15732Y23865D02*
X16658Y22938D01*
X15437Y23865D02*
X15732Y23865D01*
X14900Y24402D02*
X15437Y23865D01*
X14900Y24596D02*
X14900Y24402D01*
X14573Y24922D02*
X14900Y24596D01*
X14223Y24922D02*
X14573Y24922D01*
X13862Y24561D02*
X14223Y24922D01*
X13862Y23682D02*
X13862Y24561D01*
X13800Y23620D02*
X13862Y23682D01*
X12800Y23000D02*
X12800Y22379D01*
X26010Y17724D02*
X27721Y17724D01*
X25096Y16810D02*
X26010Y17724D01*
X16921Y16810D02*
X25096Y16810D01*
X15394Y15282D02*
X16921Y16810D01*
X15191Y15282D02*
X15394Y15282D01*
X14984Y15489D02*
X15191Y15282D01*
X14984Y18213D02*
X14984Y15489D01*
X12900Y20298D02*
X14984Y18213D01*
X12900Y22279D02*
X12900Y20298D01*
X12800Y22379D02*
X12900Y22279D01*
X22400Y23000D02*
X22400Y22379D01*
X23797Y18017D02*
X23886Y18106D01*
X22796Y18017D02*
X23797Y18017D01*
X22400Y18414D02*
X22796Y18017D01*
X22400Y22379D02*
X22400Y18414D01*
X37979Y21420D02*
X38400Y21420D01*
X37400Y22000D02*
X37979Y21420D01*
X38400Y21000D02*
X38400Y21420D01*
X37979Y20420D02*
X38400Y20420D01*
X37400Y21000D02*
X37979Y20420D01*
X38400Y20000D02*
X38400Y20420D01*
X37979Y19420D02*
X38400Y19420D01*
X37400Y20000D02*
X37979Y19420D01*
X38400Y19000D02*
X38400Y19420D01*
X37979Y18420D02*
X38400Y18420D01*
X37400Y19000D02*
X37979Y18420D01*
X38400Y18000D02*
X38400Y18420D01*
X37979Y17420D02*
X38400Y17420D01*
X37400Y18000D02*
X37979Y17420D01*
X38400Y17000D02*
X38400Y17420D01*
X35019Y19305D02*
X34608Y19717D01*
X35019Y19116D02*
X35019Y19305D01*
X35794Y18342D02*
X35019Y19116D01*
X35794Y17816D02*
X35794Y18342D01*
X36400Y17210D02*
X35794Y17816D01*
X36400Y17000D02*
X36400Y17210D01*
X37979Y16420D02*
X38400Y16420D01*
X37400Y17000D02*
X37979Y16420D01*
X38400Y16000D02*
X38400Y16420D01*
X37979Y15420D02*
X38400Y15420D01*
X37400Y16000D02*
X37979Y15420D01*
X38400Y15000D02*
X38400Y15420D01*
X37979Y14420D02*
X38400Y14420D01*
X37400Y15000D02*
X37979Y14420D01*
X38400Y14000D02*
X38400Y14420D01*
X37979Y13420D02*
X38400Y13420D01*
X37400Y14000D02*
X37979Y13420D01*
X38400Y13000D02*
X38400Y13420D01*
X38400Y12000D02*
X38400Y12420D01*
X37979Y12420D02*
X37400Y13000D01*
X38400Y12420D02*
X37979Y12420D01*
X25821Y24921D02*
X25400Y24500D01*
X29604Y24921D02*
X25821Y24921D01*
X29868Y24657D02*
X29604Y24921D01*
X29868Y24351D02*
X29868Y24657D01*
X30900Y23319D02*
X29868Y24351D01*
X30900Y22618D02*
X30900Y23319D01*
X33459Y20058D02*
X30900Y22618D01*
X33459Y19997D02*
X33459Y20058D01*
X35313Y18143D02*
X33459Y19997D01*
X35313Y17617D02*
X35313Y18143D01*
X35534Y17396D02*
X35313Y17617D01*
X35534Y14267D02*
X35534Y17396D01*
X36358Y13443D02*
X35534Y14267D01*
X36956Y13443D02*
X36358Y13443D01*
X37400Y13000D02*
X36956Y13443D01*
X38400Y11000D02*
X38400Y11420D01*
X37979Y11420D02*
X37400Y12000D01*
X38400Y11420D02*
X37979Y11420D01*
X33152Y20075D02*
X33096Y20075D01*
X35153Y18074D02*
X33152Y20075D01*
X35153Y17550D02*
X35153Y18074D01*
X35374Y17330D02*
X35153Y17550D01*
X35374Y14200D02*
X35374Y17330D01*
X35969Y13605D02*
X35374Y14200D01*
X35969Y12812D02*
X35969Y13605D01*
X36282Y12500D02*
X35969Y12812D01*
X36900Y12500D02*
X36282Y12500D01*
X37400Y12000D02*
X36900Y12500D01*
X37979Y10420D02*
X38400Y10420D01*
X37400Y11000D02*
X37979Y10420D01*
X38400Y10000D02*
X38400Y10420D01*
X38400Y9000D02*
X38400Y9420D01*
X37979Y9420D02*
X37400Y10000D01*
X38400Y9420D02*
X37979Y9420D01*
X30575Y19518D02*
X27737Y19518D01*
X32537Y17556D02*
X30575Y19518D01*
X33734Y17556D02*
X32537Y17556D01*
X33843Y17665D02*
X33734Y17556D01*
X33843Y18037D02*
X33843Y17665D01*
X34244Y18438D02*
X33843Y18037D01*
X34562Y18438D02*
X34244Y18438D01*
X34963Y18037D02*
X34562Y18438D01*
X34963Y17321D02*
X34963Y18037D01*
X35214Y17070D02*
X34963Y17321D01*
X35214Y13983D02*
X35214Y17070D01*
X35809Y13388D02*
X35214Y13983D01*
X35809Y11981D02*
X35809Y13388D01*
X36241Y11548D02*
X35809Y11981D01*
X36445Y11548D02*
X36241Y11548D01*
X36820Y11174D02*
X36445Y11548D01*
X36820Y10579D02*
X36820Y11174D01*
X37400Y10000D02*
X36820Y10579D01*
X21652Y21891D02*
X21652Y22184D01*
X21088Y21327D02*
X21652Y21891D01*
X18727Y21327D02*
X21088Y21327D01*
X17956Y22098D02*
X18727Y21327D01*
X17956Y23289D02*
X17956Y22098D01*
X17400Y23846D02*
X17956Y23289D01*
X17400Y24500D02*
X17400Y23846D01*
X36966Y9433D02*
X37400Y9000D01*
X36966Y10028D02*
X36966Y9433D01*
X36494Y10500D02*
X36966Y10028D01*
X36177Y10500D02*
X36494Y10500D01*
X35337Y11340D02*
X36177Y10500D01*
X35337Y13633D02*
X35337Y11340D01*
X34859Y14112D02*
X35337Y13633D01*
X34859Y17166D02*
X34859Y14112D01*
X34400Y17625D02*
X34859Y17166D01*
X34400Y18000D02*
X34400Y17625D01*
X33900Y13500D02*
X33400Y14000D01*
X33900Y11266D02*
X33900Y13500D01*
X35483Y9682D02*
X33900Y11266D01*
X35483Y8916D02*
X35483Y9682D01*
X36400Y8000D02*
X35483Y8916D01*
X35045Y13354D02*
X34400Y14000D01*
X35045Y10753D02*
X35045Y13354D01*
X36299Y9500D02*
X35045Y10753D01*
X36513Y9500D02*
X36299Y9500D01*
X36900Y9113D02*
X36513Y9500D01*
X36900Y8500D02*
X36900Y9113D01*
X37400Y8000D02*
X36900Y8500D01*
X33739Y12660D02*
X33400Y13000D01*
X33739Y11059D02*
X33739Y12660D01*
X34379Y10420D02*
X33739Y11059D01*
X34379Y9418D02*
X34379Y10420D01*
X35792Y8005D02*
X34379Y9418D01*
X35792Y7607D02*
X35792Y8005D01*
X36400Y7000D02*
X35792Y7607D01*
X15800Y16035D02*
X15292Y15527D01*
X15800Y23000D02*
X15800Y16035D01*
X15337Y21842D02*
X15337Y15931D01*
X14800Y22379D02*
X15337Y21842D01*
X14800Y23000D02*
X14800Y22379D01*
X33981Y23918D02*
X33400Y24500D01*
X33981Y21652D02*
X33981Y23918D01*
X36400Y19233D02*
X33981Y21652D01*
X36400Y19000D02*
X36400Y19233D01*
X35855Y15544D02*
X36400Y15000D01*
X35855Y17529D02*
X35855Y15544D01*
X35634Y17750D02*
X35855Y17529D01*
X35634Y18276D02*
X35634Y17750D01*
X34859Y19050D02*
X35634Y18276D01*
X34859Y19112D02*
X34859Y19050D01*
X32956Y21015D02*
X34859Y19112D01*
X32956Y23943D02*
X32956Y21015D01*
X32400Y24500D02*
X32956Y23943D01*
X32237Y12013D02*
X32237Y11396D01*
X32237Y11396D02*
X31487Y10645D01*
X16872Y16534D02*
X25151Y16534D01*
X15460Y15122D02*
X16872Y16534D01*
X15085Y15122D02*
X15460Y15122D01*
X14709Y15499D02*
X15085Y15122D01*
X14709Y16270D02*
X14709Y15499D01*
X8328Y22651D02*
X14709Y16270D01*
X8328Y23738D02*
X8328Y22651D01*
X24815Y14896D02*
X24815Y15000D01*
X25144Y14566D02*
X24815Y14896D01*
X25942Y14566D02*
X25144Y14566D01*
X26147Y14772D02*
X25942Y14566D01*
X24400Y15000D02*
X24815Y15000D01*
G54D36*
X25900Y3000D02*
X25900Y2500D01*
X33900Y2450D02*
X33900Y3000D01*
X33550Y2100D02*
X33900Y2450D01*
X26300Y2100D02*
X33550Y2100D01*
X25900Y2500D02*
X26300Y2100D01*
X11900Y3000D02*
X11900Y2175D01*
X20075Y2175D02*
X11900Y2175D01*
X11900Y2175D02*
X10628Y2175D01*
X10628Y2175D02*
X10650Y2153D01*
X10650Y2153D02*
X10650Y2150D01*
X10650Y2150D02*
X10650Y2153D01*
X16000Y30650D02*
X19250Y30650D01*
X16000Y30650D02*
X12550Y30650D01*
X11400Y29500D02*
X12550Y30650D01*
X19400Y30500D02*
X19400Y29500D01*
X19250Y30650D02*
X19400Y30500D01*
X9912Y2900D02*
X9907Y2895D01*
X650Y9157D02*
X650Y10142D01*
G54D39*
X1007Y10500D02*
X1900Y10500D01*
X1007Y10500D02*
X650Y10142D01*
X650Y10142D02*
X650Y10142D01*
G54D36*
X25250Y2350D02*
X25050Y2150D01*
X25900Y3000D02*
X25250Y2350D01*
X19900Y2350D02*
X19900Y3000D01*
X20100Y2150D02*
X20075Y2175D01*
X20075Y2175D02*
X19900Y2350D01*
X25050Y2150D02*
X20100Y2150D01*
X19900Y3000D02*
X19950Y3000D01*
G54D34*
X37979Y6579D02*
X38400Y6579D01*
X37400Y6000D02*
X37979Y6579D01*
X38400Y7000D02*
X38400Y6579D01*
X11800Y2900D02*
X11900Y3000D01*
X38400Y26500D02*
X38400Y25500D01*
X38400Y25500D02*
X38400Y24500D01*
X34400Y33500D02*
X34900Y33000D01*
X35400Y33500D02*
X34900Y33000D01*
X34900Y33000D02*
X34900Y29500D01*
X16900Y34500D02*
X16900Y34079D01*
X17425Y34395D02*
X17320Y34500D01*
X17900Y34395D02*
X17425Y34395D01*
X16900Y34500D02*
X17320Y34500D01*
X17900Y34500D02*
X17900Y34447D01*
X17900Y34447D02*
X17900Y34395D01*
X18427Y34447D02*
X18479Y34500D01*
X17900Y34447D02*
X18427Y34447D01*
X18900Y34500D02*
X18479Y34500D01*
X15400Y4000D02*
X15400Y3990D01*
X17052Y3497D02*
X16400Y3497D01*
X19900Y3000D02*
X19522Y3000D01*
X19522Y3000D02*
X19086Y3436D01*
X19086Y3436D02*
X17741Y3436D01*
X17741Y3436D02*
X17671Y3365D01*
X17671Y3365D02*
X17184Y3365D01*
X17184Y3365D02*
X17052Y3497D01*
X16400Y4000D02*
X16400Y3497D01*
X16400Y3497D02*
X16400Y3379D01*
X15615Y3990D02*
X15400Y3990D01*
X16225Y3379D02*
X15615Y3990D01*
X16400Y3379D02*
X16225Y3379D01*
X12330Y2569D02*
X11900Y3000D01*
X13074Y2569D02*
X12330Y2569D01*
X13400Y2894D02*
X13074Y2569D01*
X13400Y3118D02*
X13400Y2894D01*
X13719Y3438D02*
X13400Y3118D01*
X14167Y3438D02*
X13719Y3438D01*
X14235Y3370D02*
X14167Y3438D01*
X14637Y3370D02*
X14235Y3370D01*
X15258Y3990D02*
X14637Y3370D01*
X15400Y3990D02*
X15258Y3990D01*
X9800Y22840D02*
X9800Y22379D01*
X9800Y22840D02*
X9800Y23000D01*
X16464Y33313D02*
X16784Y32993D01*
X16464Y33697D02*
X16464Y33313D01*
X16847Y34079D02*
X16464Y33697D01*
X16900Y34079D02*
X16847Y34079D01*
X17400Y32594D02*
X17400Y29500D01*
X17001Y32993D02*
X17400Y32594D01*
X16784Y32993D02*
X17001Y32993D01*
X36120Y2135D02*
X36427Y2135D01*
X36427Y2135D02*
X38680Y2135D01*
X36400Y2163D02*
X36427Y2135D01*
X36400Y6000D02*
X36400Y2163D01*
X15843Y32052D02*
X16784Y32993D01*
X15843Y29337D02*
X15843Y32052D01*
X11568Y25062D02*
X15843Y29337D01*
X10352Y25062D02*
X11568Y25062D01*
X9800Y24509D02*
X10352Y25062D01*
X9800Y23000D02*
X9800Y24509D01*
X11820Y20705D02*
X13355Y19170D01*
X11820Y21130D02*
X11820Y20705D01*
X11756Y21193D02*
X11820Y21130D01*
X10846Y21193D02*
X11756Y21193D01*
X9800Y22239D02*
X10846Y21193D01*
X9800Y22379D02*
X9800Y22239D01*
X38400Y27500D02*
X38400Y26500D01*
X25400Y13000D02*
X25400Y10576D01*
X25747Y18786D02*
X24187Y17227D01*
X25747Y20737D02*
X25747Y18786D01*
X25400Y29500D02*
X25833Y29933D01*
X27900Y29292D02*
X29097Y28095D01*
X27900Y29606D02*
X27900Y29292D01*
X27572Y29933D02*
X27900Y29606D01*
X25833Y29933D02*
X27572Y29933D01*
X24041Y34500D02*
X25833Y32708D01*
X19900Y34500D02*
X24041Y34500D01*
X26625Y33500D02*
X25833Y32708D01*
X32400Y33500D02*
X26625Y33500D01*
X25833Y32708D02*
X25833Y29933D01*
X38400Y28405D02*
X38400Y27500D01*
X37956Y28849D02*
X38400Y28405D01*
X37956Y30364D02*
X37956Y28849D01*
X38103Y30511D02*
X37956Y30364D01*
X38197Y30511D02*
X38103Y30511D01*
X38820Y31133D02*
X38197Y30511D01*
X38820Y33079D02*
X38820Y31133D01*
X38400Y33500D02*
X38820Y33079D01*
G54D39*
X3678Y14028D02*
X6150Y16500D01*
X1900Y10500D02*
X3678Y12278D01*
X3678Y12278D02*
X3678Y14028D01*
G54D36*
X650Y1500D02*
X650Y5500D01*
X1900Y1500D02*
X650Y1500D01*
X1900Y5500D02*
X650Y5500D01*
X650Y5500D02*
X650Y9157D01*
X650Y9157D02*
X650Y9157D01*
X25400Y27500D02*
X24580Y27500D01*
X27400Y29500D02*
X25400Y27500D01*
X9650Y12500D02*
X10350Y13200D01*
X7049Y19100D02*
X6150Y20000D01*
X8040Y19100D02*
X7049Y19100D01*
X10350Y16790D02*
X8040Y19100D01*
X10350Y13200D02*
X10350Y16790D01*
X11904Y13200D02*
X13230Y11875D01*
X10350Y13200D02*
X11904Y13200D01*
X11553Y1250D02*
X11900Y1250D01*
X10650Y2153D02*
X11553Y1250D01*
X9907Y2895D02*
X10650Y2153D01*
X9907Y2900D02*
X9907Y2895D01*
X9907Y2900D02*
X9792Y3015D01*
X9792Y3015D02*
X9792Y4539D01*
X9792Y4539D02*
X11221Y5968D01*
X11221Y5968D02*
X11221Y8535D01*
X11221Y8535D02*
X11317Y8632D01*
X11317Y8632D02*
X11317Y9582D01*
X11317Y9582D02*
X10650Y10250D01*
X4468Y24318D02*
X6150Y26000D01*
X4468Y21681D02*
X4468Y24318D01*
X6150Y20000D02*
X4468Y21681D01*
X11066Y29710D02*
X11066Y29500D01*
X10162Y30614D02*
X11066Y29710D01*
X8680Y30614D02*
X10162Y30614D01*
X7036Y32258D02*
X8680Y30614D01*
X7036Y32369D02*
X7036Y32258D01*
X11066Y29500D02*
X11400Y29500D01*
X6150Y26000D02*
X6150Y28328D01*
X6150Y28328D02*
X6150Y29000D01*
X8638Y28328D02*
X6150Y28328D01*
X8889Y28579D02*
X8638Y28328D01*
X8889Y28611D02*
X8889Y28579D01*
X9140Y28863D02*
X8889Y28611D01*
X10648Y28863D02*
X9140Y28863D01*
X11066Y29281D02*
X10648Y28863D01*
X11066Y29500D02*
X11066Y29281D01*
G54D34*
X25647Y26351D02*
X31018Y26351D01*
X23978Y24682D02*
X25647Y26351D01*
X23978Y19321D02*
X23978Y24682D01*
X22919Y18262D02*
X23978Y19321D01*
X38953Y23218D02*
X38411Y23759D01*
X38953Y18476D02*
X38953Y23218D01*
X38910Y18434D02*
X38953Y18476D01*
X22019Y16976D02*
X21929Y17065D01*
X24305Y16976D02*
X22019Y16976D01*
X25998Y18669D02*
X24305Y16976D01*
X25998Y20990D02*
X25998Y18669D01*
X25971Y21017D02*
X25998Y20990D01*
X25971Y23373D02*
X25971Y21017D01*
X26394Y23796D02*
X25971Y23373D01*
X35264Y19779D02*
X34070Y20973D01*
X35264Y19218D02*
X35264Y19779D01*
X30966Y29050D02*
X28800Y29050D01*
X30966Y28601D02*
X31226Y28342D01*
X30966Y30556D02*
X30966Y29050D01*
X30966Y29050D02*
X30966Y28601D01*
X30129Y28803D02*
X30751Y28180D01*
X7213Y17796D02*
X8597Y17796D01*
X5368Y19641D02*
X7213Y17796D01*
X4588Y19641D02*
X5368Y19641D01*
X4387Y19440D02*
X4588Y19641D01*
X4387Y19153D02*
X4387Y19440D01*
X6571Y16970D02*
X4387Y19153D01*
X7356Y16970D02*
X6571Y16970D01*
X7679Y16646D02*
X7356Y16970D01*
X7679Y16500D02*
X7679Y16646D01*
X8150Y16500D02*
X7679Y16500D01*
X27900Y24000D02*
X28400Y24500D01*
X27900Y21750D02*
X27900Y24000D01*
X19900Y24000D02*
X20400Y24500D01*
X19900Y21750D02*
X19900Y24000D01*
X26900Y24000D02*
X27400Y24500D01*
X26900Y21750D02*
X26900Y24000D01*
X28900Y24000D02*
X29400Y24500D01*
X28900Y21750D02*
X28900Y24000D01*
X13375Y24475D02*
X13400Y24500D01*
X13375Y21775D02*
X13375Y24475D01*
X13400Y21750D02*
X13375Y21775D01*
X12375Y24475D02*
X12400Y24500D01*
X12375Y21774D02*
X12375Y24475D01*
X12400Y21750D02*
X12375Y21774D01*
X20900Y24000D02*
X21400Y24500D01*
X20900Y21750D02*
X20900Y24000D01*
X11375Y24475D02*
X11400Y24500D01*
X11375Y21775D02*
X11375Y24475D01*
X11400Y21750D02*
X11375Y21775D01*
X38634Y8486D02*
X37936Y8486D01*
X38400Y29000D02*
X39159Y28240D01*
X39159Y28240D02*
X39159Y9011D01*
X39159Y9011D02*
X38634Y8486D01*
X34675Y9425D02*
X34675Y10000D01*
X35975Y8125D02*
X34675Y9425D01*
X35975Y7775D02*
X35975Y8125D01*
X36250Y7500D02*
X35975Y7775D01*
X37650Y7500D02*
X36250Y7500D01*
X37825Y7675D02*
X37650Y7500D01*
X37825Y8375D02*
X37825Y7675D01*
X37936Y8486D02*
X37825Y8375D01*
X27445Y10662D02*
X27445Y13826D01*
X27445Y13826D02*
X25539Y15731D01*
X24155Y15731D02*
X25539Y15731D01*
X19582Y15731D02*
X24155Y15731D01*
X18652Y14802D02*
X19582Y15731D01*
X14827Y14802D02*
X18652Y14802D01*
X14808Y14821D02*
X14827Y14802D01*
X23900Y9000D02*
X23900Y8000D01*
X24900Y9000D02*
X24900Y8000D01*
X31900Y9000D02*
X31900Y8000D01*
X15900Y9000D02*
X15900Y8000D01*
X16900Y9000D02*
X16900Y8000D01*
X25900Y9000D02*
X25900Y8000D01*
X17900Y9000D02*
X17900Y8000D01*
X34095Y24890D02*
X34192Y24890D01*
X32649Y26336D02*
X34095Y24890D01*
X32649Y27329D02*
X32649Y26336D01*
X32823Y27503D02*
X32649Y27329D01*
X32823Y31076D02*
X32823Y27503D01*
X32400Y31500D02*
X32823Y31076D01*
X7220Y23620D02*
X11150Y27550D01*
X11150Y27550D02*
X11150Y28200D01*
X6800Y23000D02*
X6800Y23620D01*
X6800Y23620D02*
X7148Y23620D01*
X7148Y23620D02*
X7220Y23620D01*
X32400Y23000D02*
X32400Y23620D01*
X31873Y24147D02*
X32400Y23620D01*
X31873Y24696D02*
X31873Y24147D01*
X31586Y24983D02*
X31873Y24696D01*
X31586Y27375D02*
X31586Y24983D01*
X31949Y27738D02*
X31586Y27375D01*
X31949Y29544D02*
X31949Y27738D01*
X31799Y29694D02*
X31949Y29544D01*
X31799Y31899D02*
X31799Y29694D01*
X32400Y32500D02*
X31799Y31899D01*
X11974Y27794D02*
X11974Y28925D01*
X7800Y23000D02*
X7800Y23620D01*
X11974Y27794D02*
X7800Y23620D01*
X9650Y34100D02*
X9650Y34250D01*
X10150Y33600D02*
X9650Y34100D01*
X11450Y33600D02*
X10150Y33600D01*
X11974Y28925D02*
X11950Y28950D01*
X16900Y24120D02*
X16900Y27350D01*
X17400Y23000D02*
X17400Y23620D01*
X17400Y23620D02*
X16900Y24120D01*
X17900Y24120D02*
X17900Y28050D01*
X18400Y23000D02*
X18400Y23620D01*
X18400Y23620D02*
X17900Y24120D01*
X19400Y23620D02*
X18900Y24120D01*
X19400Y23620D02*
X19400Y23000D01*
X18900Y26750D02*
X18900Y24120D01*
X19650Y27500D02*
X18900Y26750D01*
X21650Y25000D02*
X21850Y24800D01*
X21400Y23620D02*
X21837Y24057D01*
X21400Y23000D02*
X21400Y23620D01*
X19950Y28200D02*
X19950Y25150D01*
X19950Y25150D02*
X20100Y25000D01*
X20100Y25000D02*
X21650Y25000D01*
X21850Y24070D02*
X21837Y24057D01*
X21850Y24800D02*
X21850Y24070D01*
X29884Y19188D02*
X27964Y19188D01*
X32572Y16500D02*
X29884Y19188D01*
X33900Y16500D02*
X32572Y16500D01*
X34400Y16000D02*
X33900Y16500D01*
X19400Y11378D02*
X19727Y11706D01*
X19400Y4000D02*
X19400Y11378D01*
X20400Y4000D02*
X20400Y13244D01*
X21400Y4000D02*
X21400Y4620D01*
X21473Y4693D02*
X21473Y15189D01*
X21400Y4620D02*
X21473Y4693D01*
X22400Y14597D02*
X22992Y15190D01*
X22400Y4000D02*
X22400Y14597D01*
X30527Y25087D02*
X30686Y24929D01*
X25382Y25087D02*
X30527Y25087D01*
X24900Y24605D02*
X25382Y25087D01*
X24900Y24120D02*
X24900Y24605D01*
X24400Y23620D02*
X24900Y24120D01*
X24400Y23000D02*
X24400Y23620D01*
X29400Y23000D02*
X29400Y22379D01*
X32516Y20730D02*
X32516Y19877D01*
X30867Y22379D02*
X32516Y20730D01*
X29400Y22379D02*
X30867Y22379D01*
X27400Y23000D02*
X27400Y22379D01*
X29791Y17000D02*
X29900Y17000D01*
X27400Y19391D02*
X29791Y17000D01*
X27400Y22379D02*
X27400Y19391D01*
X27400Y22379D02*
X27400Y22379D01*
X30470Y16570D02*
X30900Y17000D01*
X29728Y16570D02*
X30470Y16570D01*
X26400Y19898D02*
X29728Y16570D01*
X26400Y23000D02*
X26400Y19898D01*
G54D37*
X15350Y8850D02*
X15250Y8850D01*
X15400Y8800D02*
X15350Y8850D01*
X15400Y7600D02*
X15400Y8800D01*
G54D34*
X32282Y25225D02*
X31958Y25225D01*
X32900Y24608D02*
X32282Y25225D01*
X32900Y24296D02*
X32900Y24608D01*
X33821Y23374D02*
X32900Y24296D01*
X33821Y21585D02*
X33821Y23374D01*
X35833Y19573D02*
X33821Y21585D01*
X35833Y18566D02*
X35833Y19573D01*
X36400Y18000D02*
X35833Y18566D01*
X34016Y25495D02*
X33837Y25495D01*
X34512Y25000D02*
X34016Y25495D01*
X36130Y25000D02*
X34512Y25000D01*
X36460Y24670D02*
X36130Y25000D01*
X36460Y23856D02*
X36460Y24670D01*
X35973Y23370D02*
X36460Y23856D01*
X35973Y22426D02*
X35973Y23370D01*
X36400Y22000D02*
X35973Y22426D01*
X28400Y7365D02*
X28379Y7385D01*
X28400Y4000D02*
X28400Y7365D01*
X34145Y11254D02*
X34145Y11694D01*
X36400Y9000D02*
X34145Y11254D01*
X29400Y4620D02*
X28761Y5258D01*
X28761Y5258D02*
X28761Y6976D01*
X29400Y4620D02*
X29400Y4000D01*
X31263Y26453D02*
X30538Y27177D01*
X31263Y26249D02*
X31263Y26453D01*
X30971Y25957D02*
X31263Y26249D01*
X30971Y24277D02*
X30971Y25957D01*
X31956Y23291D02*
X30971Y24277D01*
X31956Y21788D02*
X31956Y23291D01*
X34699Y19045D02*
X31956Y21788D01*
X34699Y18984D02*
X34699Y19045D01*
X35474Y18209D02*
X34699Y18984D01*
X35474Y17683D02*
X35474Y18209D01*
X35695Y17462D02*
X35474Y17683D01*
X35695Y14705D02*
X35695Y17462D01*
X36400Y14000D02*
X35695Y14705D01*
X32092Y26630D02*
X32092Y27056D01*
X34346Y24376D02*
X32092Y26630D01*
X34346Y24307D02*
X34346Y24376D01*
X34742Y23912D02*
X34346Y24307D01*
X35068Y23912D02*
X34742Y23912D01*
X35665Y23315D02*
X35068Y23912D01*
X35665Y21734D02*
X35665Y23315D01*
X36400Y21000D02*
X35665Y21734D01*
X30400Y4000D02*
X30400Y4620D01*
X30069Y4950D02*
X30069Y6432D01*
X30400Y4620D02*
X30069Y4950D01*
X20469Y3183D02*
X20469Y2819D01*
X31400Y4000D02*
X31400Y3379D01*
X31400Y3379D02*
X31622Y3379D01*
X31622Y3379D02*
X31683Y3441D01*
X31683Y3441D02*
X32052Y3441D01*
X32052Y3441D02*
X32124Y3370D01*
X32124Y3370D02*
X32564Y3370D01*
X32564Y3370D02*
X32616Y3422D01*
X32616Y3422D02*
X33109Y3422D01*
X33109Y3422D02*
X33162Y3370D01*
X33162Y3370D02*
X33564Y3370D01*
X33564Y3370D02*
X33632Y3438D01*
X33632Y3438D02*
X34073Y3438D01*
X34073Y3438D02*
X34346Y3164D01*
X34346Y3164D02*
X34346Y1172D01*
X34346Y1172D02*
X33470Y295D01*
X33470Y295D02*
X22253Y295D01*
X20469Y3183D02*
X20900Y3613D01*
X20900Y3613D02*
X20900Y8000D01*
X22249Y300D02*
X22253Y295D01*
X21100Y300D02*
X22249Y300D01*
X20400Y1000D02*
X21100Y300D01*
X20469Y2819D02*
X20400Y2750D01*
X34122Y26000D02*
X32894Y27228D01*
X36130Y26000D02*
X34122Y26000D01*
X36767Y25362D02*
X36130Y26000D01*
X36767Y23706D02*
X36767Y25362D01*
X36836Y23637D02*
X36767Y23706D01*
X36836Y16436D02*
X36836Y23637D01*
X36400Y16000D02*
X36836Y16436D01*
X31831Y26665D02*
X31831Y27273D01*
X34141Y24354D02*
X31831Y26665D01*
X34141Y22258D02*
X34141Y24354D01*
X36400Y20000D02*
X34141Y22258D01*
X32400Y4000D02*
X32400Y4620D01*
X30153Y6866D02*
X30153Y6893D01*
X32400Y4620D02*
X30153Y6866D01*
X36057Y11000D02*
X35582Y11474D01*
X36400Y11000D02*
X36057Y11000D01*
X29321Y7578D02*
X28900Y8000D01*
X30076Y7578D02*
X29321Y7578D01*
X30400Y7901D02*
X30076Y7578D01*
X30400Y8121D02*
X30400Y7901D01*
X30706Y8427D02*
X30400Y8121D01*
X31067Y8427D02*
X30706Y8427D01*
X31400Y8095D02*
X31067Y8427D01*
X31400Y6620D02*
X31400Y8095D01*
X33400Y4620D02*
X31400Y6620D01*
X33400Y4000D02*
X33400Y4620D01*
G54D10*
G36*
X14744Y16574D02*
X11069Y20250D01*
X11139Y20249D01*
X11739Y20249D01*
X11813Y20280D01*
X11869Y20336D01*
X11899Y20410D01*
X11900Y20489D01*
X11900Y20650D01*
X11975Y20467D01*
X12116Y20326D01*
X12300Y20250D01*
X12499Y20249D01*
X12660Y20316D01*
X12660Y20298D01*
X12678Y20206D01*
X12730Y20128D01*
X14744Y18114D01*
X14744Y16574D01*
X14744Y16574D01*
G37*
G54D40*
X14744Y16574D02*
X11069Y20250D01*
X11139Y20249D01*
X11739Y20249D01*
X11813Y20280D01*
X11869Y20336D01*
X11899Y20410D01*
X11900Y20489D01*
X11900Y20650D01*
X11975Y20467D01*
X12116Y20326D01*
X12300Y20250D01*
X12499Y20249D01*
X12660Y20316D01*
X12660Y20298D01*
X12678Y20206D01*
X12730Y20128D01*
X14744Y18114D01*
X14744Y16574D01*
G54D10*
G36*
X26069Y23830D02*
X26069Y23811D01*
X25801Y23542D01*
X25749Y23465D01*
X25731Y23373D01*
X25731Y21017D01*
X25749Y20925D01*
X25758Y20912D01*
X25758Y18768D01*
X24206Y17216D01*
X24156Y17216D01*
X24989Y18049D01*
X24989Y18049D01*
X25041Y18127D01*
X25060Y18219D01*
X25060Y18219D01*
X25060Y22820D01*
X26069Y23830D01*
X26069Y23830D01*
G37*
G54D40*
X26069Y23830D02*
X26069Y23811D01*
X25801Y23542D01*
X25749Y23465D01*
X25731Y23373D01*
X25731Y21017D01*
X25749Y20925D01*
X25758Y20912D01*
X25758Y18768D01*
X24206Y17216D01*
X24156Y17216D01*
X24989Y18049D01*
X24989Y18049D01*
X25041Y18127D01*
X25060Y18219D01*
X25060Y18219D01*
X25060Y22820D01*
X26069Y23830D01*
G54D10*
G36*
X27219Y10429D02*
X26596Y9806D01*
X26400Y9806D01*
X26400Y10339D01*
X26369Y10413D01*
X26313Y10469D01*
X26239Y10499D01*
X26160Y10500D01*
X26124Y10500D01*
X26124Y12864D01*
X26076Y12950D01*
X25548Y12950D01*
X25548Y12510D01*
X25634Y12448D01*
X25842Y12506D01*
X26012Y12640D01*
X26118Y12828D01*
X26124Y12864D01*
X26124Y10500D01*
X25560Y10500D01*
X25486Y10469D01*
X25430Y10413D01*
X25400Y10339D01*
X25399Y10260D01*
X25399Y10099D01*
X25324Y10282D01*
X25183Y10423D01*
X24999Y10499D01*
X24800Y10500D01*
X24617Y10424D01*
X24476Y10283D01*
X24400Y10099D01*
X24399Y9900D01*
X24475Y9717D01*
X24616Y9576D01*
X24800Y9500D01*
X24999Y9499D01*
X25182Y9575D01*
X25323Y9716D01*
X25399Y9900D01*
X25399Y9960D01*
X25399Y9660D01*
X25430Y9586D01*
X25479Y9537D01*
X25274Y9332D01*
X25183Y9423D01*
X24999Y9499D01*
X24800Y9500D01*
X24617Y9424D01*
X24476Y9283D01*
X24400Y9099D01*
X24399Y8900D01*
X24475Y8717D01*
X24616Y8576D01*
X24660Y8558D01*
X24660Y8441D01*
X24617Y8424D01*
X24476Y8283D01*
X24400Y8099D01*
X24399Y7900D01*
X24475Y7717D01*
X24616Y7576D01*
X24800Y7500D01*
X24999Y7499D01*
X25160Y7566D01*
X25160Y7538D01*
X22799Y5178D01*
X22747Y5100D01*
X22729Y5008D01*
X22729Y4583D01*
X22640Y4643D01*
X22640Y7566D01*
X22800Y7500D01*
X22999Y7499D01*
X23182Y7575D01*
X23323Y7716D01*
X23399Y7900D01*
X23400Y8099D01*
X23324Y8282D01*
X23183Y8423D01*
X23140Y8441D01*
X23140Y8900D01*
X23443Y9203D01*
X23400Y9099D01*
X23399Y8900D01*
X23475Y8717D01*
X23616Y8576D01*
X23660Y8558D01*
X23660Y8441D01*
X23617Y8424D01*
X23476Y8283D01*
X23400Y8099D01*
X23399Y7900D01*
X23475Y7717D01*
X23616Y7576D01*
X23800Y7500D01*
X23999Y7499D01*
X24182Y7575D01*
X24323Y7716D01*
X24399Y7900D01*
X24400Y8099D01*
X24324Y8282D01*
X24183Y8423D01*
X24140Y8441D01*
X24140Y8558D01*
X24182Y8575D01*
X24323Y8716D01*
X24399Y8900D01*
X24400Y9099D01*
X24324Y9282D01*
X24183Y9423D01*
X23999Y9499D01*
X23800Y9500D01*
X23696Y9456D01*
X23757Y9517D01*
X23800Y9500D01*
X23999Y9499D01*
X24182Y9575D01*
X24323Y9716D01*
X24399Y9900D01*
X24400Y10099D01*
X24324Y10282D01*
X24183Y10423D01*
X23999Y10499D01*
X23800Y10500D01*
X23617Y10424D01*
X23476Y10283D01*
X23400Y10099D01*
X23399Y9900D01*
X23417Y9857D01*
X22730Y9169D01*
X22678Y9091D01*
X22660Y9000D01*
X22660Y8441D01*
X22640Y8433D01*
X22640Y14497D01*
X23007Y14865D01*
X23057Y14865D01*
X23176Y14914D01*
X23268Y15005D01*
X23317Y15125D01*
X23317Y15195D01*
X23708Y15195D01*
X23708Y14660D01*
X23738Y14586D01*
X23795Y14530D01*
X23868Y14500D01*
X23948Y14499D01*
X24196Y14499D01*
X24005Y14461D01*
X23843Y14353D01*
X23734Y14191D01*
X23696Y14000D01*
X23734Y13808D01*
X23843Y13646D01*
X24005Y13538D01*
X24196Y13500D01*
X24005Y13461D01*
X23843Y13353D01*
X23734Y13191D01*
X23696Y13000D01*
X23734Y12808D01*
X23843Y12646D01*
X24005Y12538D01*
X24196Y12500D01*
X24407Y12500D01*
X24598Y12538D01*
X24760Y12646D01*
X24869Y12808D01*
X24875Y12841D01*
X24877Y12828D01*
X24983Y12640D01*
X25153Y12506D01*
X25361Y12448D01*
X25448Y12510D01*
X25448Y12950D01*
X25440Y12950D01*
X25440Y13050D01*
X25448Y13050D01*
X25448Y13057D01*
X25548Y13057D01*
X25548Y13050D01*
X26076Y13050D01*
X26124Y13135D01*
X26118Y13171D01*
X26012Y13359D01*
X25842Y13493D01*
X25729Y13525D01*
X25794Y13538D01*
X25956Y13646D01*
X26065Y13808D01*
X26103Y14000D01*
X26065Y14191D01*
X25970Y14332D01*
X26034Y14345D01*
X26111Y14397D01*
X26162Y14447D01*
X26212Y14447D01*
X26331Y14496D01*
X26383Y14548D01*
X27205Y13727D01*
X27205Y10882D01*
X27169Y10846D01*
X27120Y10727D01*
X27120Y10598D01*
X27169Y10478D01*
X27219Y10429D01*
X27219Y10429D01*
G37*
G54D40*
X27219Y10429D02*
X26596Y9806D01*
X26400Y9806D01*
X26400Y10339D01*
X26369Y10413D01*
X26313Y10469D01*
X26239Y10499D01*
X26160Y10500D01*
X26124Y10500D01*
X26124Y12864D01*
X26076Y12950D01*
X25548Y12950D01*
X25548Y12510D01*
X25634Y12448D01*
X25842Y12506D01*
X26012Y12640D01*
X26118Y12828D01*
X26124Y12864D01*
X26124Y10500D01*
X25560Y10500D01*
X25486Y10469D01*
X25430Y10413D01*
X25400Y10339D01*
X25399Y10260D01*
X25399Y10099D01*
X25324Y10282D01*
X25183Y10423D01*
X24999Y10499D01*
X24800Y10500D01*
X24617Y10424D01*
X24476Y10283D01*
X24400Y10099D01*
X24399Y9900D01*
X24475Y9717D01*
X24616Y9576D01*
X24800Y9500D01*
X24999Y9499D01*
X25182Y9575D01*
X25323Y9716D01*
X25399Y9900D01*
X25399Y9960D01*
X25399Y9660D01*
X25430Y9586D01*
X25479Y9537D01*
X25274Y9332D01*
X25183Y9423D01*
X24999Y9499D01*
X24800Y9500D01*
X24617Y9424D01*
X24476Y9283D01*
X24400Y9099D01*
X24399Y8900D01*
X24475Y8717D01*
X24616Y8576D01*
X24660Y8558D01*
X24660Y8441D01*
X24617Y8424D01*
X24476Y8283D01*
X24400Y8099D01*
X24399Y7900D01*
X24475Y7717D01*
X24616Y7576D01*
X24800Y7500D01*
X24999Y7499D01*
X25160Y7566D01*
X25160Y7538D01*
X22799Y5178D01*
X22747Y5100D01*
X22729Y5008D01*
X22729Y4583D01*
X22640Y4643D01*
X22640Y7566D01*
X22800Y7500D01*
X22999Y7499D01*
X23182Y7575D01*
X23323Y7716D01*
X23399Y7900D01*
X23400Y8099D01*
X23324Y8282D01*
X23183Y8423D01*
X23140Y8441D01*
X23140Y8900D01*
X23443Y9203D01*
X23400Y9099D01*
X23399Y8900D01*
X23475Y8717D01*
X23616Y8576D01*
X23660Y8558D01*
X23660Y8441D01*
X23617Y8424D01*
X23476Y8283D01*
X23400Y8099D01*
X23399Y7900D01*
X23475Y7717D01*
X23616Y7576D01*
X23800Y7500D01*
X23999Y7499D01*
X24182Y7575D01*
X24323Y7716D01*
X24399Y7900D01*
X24400Y8099D01*
X24324Y8282D01*
X24183Y8423D01*
X24140Y8441D01*
X24140Y8558D01*
X24182Y8575D01*
X24323Y8716D01*
X24399Y8900D01*
X24400Y9099D01*
X24324Y9282D01*
X24183Y9423D01*
X23999Y9499D01*
X23800Y9500D01*
X23696Y9456D01*
X23757Y9517D01*
X23800Y9500D01*
X23999Y9499D01*
X24182Y9575D01*
X24323Y9716D01*
X24399Y9900D01*
X24400Y10099D01*
X24324Y10282D01*
X24183Y10423D01*
X23999Y10499D01*
X23800Y10500D01*
X23617Y10424D01*
X23476Y10283D01*
X23400Y10099D01*
X23399Y9900D01*
X23417Y9857D01*
X22730Y9169D01*
X22678Y9091D01*
X22660Y9000D01*
X22660Y8441D01*
X22640Y8433D01*
X22640Y14497D01*
X23007Y14865D01*
X23057Y14865D01*
X23176Y14914D01*
X23268Y15005D01*
X23317Y15125D01*
X23317Y15195D01*
X23708Y15195D01*
X23708Y14660D01*
X23738Y14586D01*
X23795Y14530D01*
X23868Y14500D01*
X23948Y14499D01*
X24196Y14499D01*
X24005Y14461D01*
X23843Y14353D01*
X23734Y14191D01*
X23696Y14000D01*
X23734Y13808D01*
X23843Y13646D01*
X24005Y13538D01*
X24196Y13500D01*
X24005Y13461D01*
X23843Y13353D01*
X23734Y13191D01*
X23696Y13000D01*
X23734Y12808D01*
X23843Y12646D01*
X24005Y12538D01*
X24196Y12500D01*
X24407Y12500D01*
X24598Y12538D01*
X24760Y12646D01*
X24869Y12808D01*
X24875Y12841D01*
X24877Y12828D01*
X24983Y12640D01*
X25153Y12506D01*
X25361Y12448D01*
X25448Y12510D01*
X25448Y12950D01*
X25440Y12950D01*
X25440Y13050D01*
X25448Y13050D01*
X25448Y13057D01*
X25548Y13057D01*
X25548Y13050D01*
X26076Y13050D01*
X26124Y13135D01*
X26118Y13171D01*
X26012Y13359D01*
X25842Y13493D01*
X25729Y13525D01*
X25794Y13538D01*
X25956Y13646D01*
X26065Y13808D01*
X26103Y14000D01*
X26065Y14191D01*
X25970Y14332D01*
X26034Y14345D01*
X26111Y14397D01*
X26162Y14447D01*
X26212Y14447D01*
X26331Y14496D01*
X26383Y14548D01*
X27205Y13727D01*
X27205Y10882D01*
X27169Y10846D01*
X27120Y10727D01*
X27120Y10598D01*
X27169Y10478D01*
X27219Y10429D01*
G54D10*
G36*
X29976Y12994D02*
X29905Y12923D01*
X29900Y12929D01*
X29894Y12923D01*
X29823Y12994D01*
X29829Y13000D01*
X29823Y13005D01*
X29894Y13076D01*
X29900Y13070D01*
X29905Y13076D01*
X29976Y13005D01*
X29970Y13000D01*
X29976Y12994D01*
X29976Y12994D01*
G37*
G54D40*
X29976Y12994D02*
X29905Y12923D01*
X29900Y12929D01*
X29894Y12923D01*
X29823Y12994D01*
X29829Y13000D01*
X29823Y13005D01*
X29894Y13076D01*
X29900Y13070D01*
X29905Y13076D01*
X29976Y13005D01*
X29970Y13000D01*
X29976Y12994D01*
G54D10*
G36*
X34106Y1271D02*
X33400Y564D01*
X33400Y989D01*
X33400Y1589D01*
X33369Y1663D01*
X33313Y1719D01*
X33239Y1749D01*
X33160Y1750D01*
X32560Y1750D01*
X32486Y1719D01*
X32430Y1663D01*
X32400Y1589D01*
X32399Y1510D01*
X32399Y1349D01*
X32324Y1532D01*
X32183Y1673D01*
X31999Y1749D01*
X31800Y1750D01*
X31617Y1674D01*
X31476Y1533D01*
X31400Y1349D01*
X31400Y1348D01*
X31400Y1349D01*
X31324Y1532D01*
X31183Y1673D01*
X30999Y1749D01*
X30800Y1750D01*
X30617Y1674D01*
X30476Y1533D01*
X30400Y1349D01*
X30400Y1348D01*
X30400Y1349D01*
X30324Y1532D01*
X30183Y1673D01*
X29999Y1749D01*
X29800Y1750D01*
X29617Y1674D01*
X29476Y1533D01*
X29400Y1349D01*
X29399Y1150D01*
X29475Y967D01*
X29616Y826D01*
X29800Y750D01*
X29999Y749D01*
X30182Y825D01*
X30323Y966D01*
X30399Y1150D01*
X30400Y1349D01*
X30400Y1348D01*
X30399Y1150D01*
X30475Y967D01*
X30616Y826D01*
X30800Y750D01*
X30999Y749D01*
X31182Y825D01*
X31323Y966D01*
X31399Y1150D01*
X31400Y1349D01*
X31400Y1348D01*
X31399Y1150D01*
X31475Y967D01*
X31616Y826D01*
X31800Y750D01*
X31999Y749D01*
X32182Y825D01*
X32323Y966D01*
X32399Y1150D01*
X32399Y1210D01*
X32399Y910D01*
X32430Y836D01*
X32486Y780D01*
X32560Y750D01*
X32639Y749D01*
X33239Y749D01*
X33313Y780D01*
X33369Y836D01*
X33399Y910D01*
X33400Y989D01*
X33400Y564D01*
X33371Y535D01*
X28215Y535D01*
X28215Y2614D01*
X27900Y2929D01*
X27584Y2614D01*
X27612Y2518D01*
X27818Y2445D01*
X28036Y2456D01*
X28187Y2518D01*
X28215Y2614D01*
X28215Y535D01*
X26215Y535D01*
X26215Y2614D01*
X25900Y2929D01*
X25584Y2614D01*
X25612Y2518D01*
X25818Y2445D01*
X26036Y2456D01*
X26187Y2518D01*
X26215Y2614D01*
X26215Y535D01*
X25400Y535D01*
X25400Y989D01*
X25400Y1589D01*
X25369Y1663D01*
X25313Y1719D01*
X25239Y1749D01*
X25160Y1750D01*
X24560Y1750D01*
X24486Y1719D01*
X24430Y1663D01*
X24400Y1589D01*
X24399Y1510D01*
X24399Y1349D01*
X24324Y1532D01*
X24183Y1673D01*
X23999Y1749D01*
X23800Y1750D01*
X23617Y1674D01*
X23476Y1533D01*
X23400Y1349D01*
X23400Y1348D01*
X23400Y1349D01*
X23324Y1532D01*
X23183Y1673D01*
X22999Y1749D01*
X22800Y1750D01*
X22617Y1674D01*
X22476Y1533D01*
X22400Y1349D01*
X22400Y1348D01*
X22400Y1349D01*
X22324Y1532D01*
X22183Y1673D01*
X21999Y1749D01*
X21800Y1750D01*
X21617Y1674D01*
X21476Y1533D01*
X21400Y1349D01*
X21399Y1150D01*
X21475Y967D01*
X21616Y826D01*
X21800Y750D01*
X21999Y749D01*
X22182Y825D01*
X22323Y966D01*
X22399Y1150D01*
X22400Y1349D01*
X22400Y1348D01*
X22399Y1150D01*
X22475Y967D01*
X22616Y826D01*
X22800Y750D01*
X22999Y749D01*
X23182Y825D01*
X23323Y966D01*
X23399Y1150D01*
X23400Y1349D01*
X23400Y1348D01*
X23399Y1150D01*
X23475Y967D01*
X23616Y826D01*
X23800Y750D01*
X23999Y749D01*
X24182Y825D01*
X24323Y966D01*
X24399Y1150D01*
X24399Y1210D01*
X24399Y910D01*
X24430Y836D01*
X24486Y780D01*
X24560Y750D01*
X24639Y749D01*
X25239Y749D01*
X25313Y780D01*
X25369Y836D01*
X25399Y910D01*
X25400Y989D01*
X25400Y535D01*
X22269Y535D01*
X22249Y540D01*
X21199Y540D01*
X20725Y1014D01*
X20725Y1064D01*
X20675Y1183D01*
X20584Y1275D01*
X20464Y1324D01*
X20335Y1325D01*
X20216Y1275D01*
X20124Y1184D01*
X20075Y1064D01*
X20074Y935D01*
X20124Y816D01*
X20215Y724D01*
X20335Y675D01*
X20385Y675D01*
X20785Y275D01*
X20075Y275D01*
X20075Y814D01*
X20025Y933D01*
X19934Y1025D01*
X19814Y1074D01*
X19685Y1075D01*
X19566Y1025D01*
X19530Y990D01*
X18215Y990D01*
X18215Y2614D01*
X17900Y2929D01*
X17584Y2614D01*
X17612Y2518D01*
X17818Y2445D01*
X18036Y2456D01*
X18187Y2518D01*
X18215Y2614D01*
X18215Y990D01*
X17900Y990D01*
X17900Y1589D01*
X17869Y1663D01*
X17813Y1719D01*
X17739Y1749D01*
X17660Y1750D01*
X17060Y1750D01*
X16986Y1719D01*
X16930Y1663D01*
X16900Y1589D01*
X16899Y1510D01*
X16899Y1349D01*
X16824Y1532D01*
X16683Y1673D01*
X16499Y1749D01*
X16300Y1750D01*
X16117Y1674D01*
X15976Y1533D01*
X15900Y1349D01*
X15899Y1150D01*
X15966Y990D01*
X15833Y990D01*
X15899Y1150D01*
X15900Y1349D01*
X15824Y1532D01*
X15683Y1673D01*
X15499Y1749D01*
X15300Y1750D01*
X15117Y1674D01*
X14976Y1533D01*
X14900Y1349D01*
X14899Y1150D01*
X14966Y990D01*
X14833Y990D01*
X14899Y1150D01*
X14900Y1349D01*
X14824Y1532D01*
X14683Y1673D01*
X14499Y1749D01*
X14300Y1750D01*
X14117Y1674D01*
X13976Y1533D01*
X13900Y1349D01*
X13899Y1150D01*
X13943Y1046D01*
X13740Y1249D01*
X13740Y1280D01*
X13775Y1315D01*
X13824Y1435D01*
X13825Y1564D01*
X13775Y1683D01*
X13684Y1775D01*
X13564Y1824D01*
X13435Y1825D01*
X13316Y1775D01*
X13275Y1735D01*
X13239Y1749D01*
X13160Y1750D01*
X12560Y1750D01*
X12486Y1719D01*
X12430Y1663D01*
X12400Y1589D01*
X12399Y1510D01*
X12399Y1492D01*
X12381Y1537D01*
X12285Y1565D01*
X12215Y1494D01*
X12215Y1635D01*
X12215Y2614D01*
X11900Y2929D01*
X11584Y2614D01*
X11612Y2518D01*
X11818Y2445D01*
X12036Y2456D01*
X12187Y2518D01*
X12215Y2614D01*
X12215Y1635D01*
X12187Y1731D01*
X11981Y1804D01*
X11763Y1793D01*
X11612Y1731D01*
X11584Y1635D01*
X11900Y1320D01*
X12215Y1635D01*
X12215Y1494D01*
X11970Y1250D01*
X12285Y934D01*
X12381Y962D01*
X12399Y1014D01*
X12399Y910D01*
X12430Y836D01*
X12486Y780D01*
X12560Y750D01*
X12639Y749D01*
X13239Y749D01*
X13313Y780D01*
X13369Y836D01*
X13399Y910D01*
X13399Y910D01*
X13730Y580D01*
X13730Y580D01*
X13761Y559D01*
X13808Y528D01*
X13899Y510D01*
X13900Y510D01*
X19530Y510D01*
X19565Y474D01*
X19685Y425D01*
X19814Y424D01*
X19933Y474D01*
X20025Y565D01*
X20074Y685D01*
X20075Y814D01*
X20075Y275D01*
X12215Y275D01*
X12215Y864D01*
X11900Y1179D01*
X11829Y1108D01*
X11829Y1250D01*
X11514Y1565D01*
X11418Y1537D01*
X11345Y1331D01*
X11356Y1113D01*
X11418Y962D01*
X11514Y934D01*
X11829Y1250D01*
X11829Y1108D01*
X11584Y864D01*
X11612Y768D01*
X11818Y695D01*
X12036Y706D01*
X12187Y768D01*
X12215Y864D01*
X12215Y275D01*
X9557Y275D01*
X9620Y337D01*
X9749Y650D01*
X9750Y988D01*
X9621Y1300D01*
X9382Y1540D01*
X9325Y1563D01*
X9325Y1668D01*
X9325Y4273D01*
X10500Y5449D01*
X10592Y5587D01*
X10625Y5750D01*
X10625Y6149D01*
X10625Y6150D01*
X10625Y6234D01*
X10592Y6312D01*
X10560Y6390D01*
X10500Y6450D01*
X10441Y6510D01*
X10284Y6574D01*
X10115Y6575D01*
X9959Y6510D01*
X9839Y6391D01*
X9775Y6234D01*
X9774Y6065D01*
X9775Y6065D01*
X9775Y5926D01*
X9750Y5901D01*
X9750Y5988D01*
X9621Y6300D01*
X9382Y6540D01*
X9069Y6669D01*
X8731Y6670D01*
X8419Y6541D01*
X8344Y6466D01*
X8345Y6687D01*
X8201Y7034D01*
X7935Y7300D01*
X7588Y7444D01*
X7212Y7445D01*
X6930Y7328D01*
X6930Y13418D01*
X6801Y13730D01*
X6562Y13970D01*
X6501Y13995D01*
X6501Y16077D01*
X6150Y16429D01*
X6079Y16358D01*
X6079Y16500D01*
X5727Y16851D01*
X5627Y16817D01*
X5545Y16593D01*
X5555Y16355D01*
X5627Y16182D01*
X5727Y16148D01*
X6079Y16500D01*
X6079Y16358D01*
X5798Y16077D01*
X5832Y15977D01*
X6056Y15895D01*
X6294Y15905D01*
X6467Y15977D01*
X6501Y16077D01*
X6501Y13995D01*
X6249Y14099D01*
X5911Y14100D01*
X5599Y13971D01*
X5359Y13732D01*
X5230Y13419D01*
X5229Y13081D01*
X5358Y12769D01*
X5433Y12694D01*
X5212Y12695D01*
X4865Y12551D01*
X4599Y12285D01*
X4455Y11938D01*
X4454Y11562D01*
X4598Y11215D01*
X4713Y11100D01*
X4551Y11100D01*
X4239Y10971D01*
X3999Y10732D01*
X3870Y10419D01*
X3869Y10081D01*
X3998Y9769D01*
X4237Y9529D01*
X4550Y9400D01*
X4888Y9399D01*
X5200Y9528D01*
X5440Y9767D01*
X5569Y10080D01*
X5570Y10418D01*
X5441Y10730D01*
X5366Y10805D01*
X5587Y10804D01*
X5934Y10948D01*
X6200Y11214D01*
X6344Y11561D01*
X6345Y11937D01*
X6201Y12284D01*
X6086Y12399D01*
X6248Y12399D01*
X6560Y12528D01*
X6800Y12767D01*
X6929Y13080D01*
X6930Y13418D01*
X6930Y7328D01*
X6865Y7301D01*
X6750Y7186D01*
X6750Y7348D01*
X6621Y7660D01*
X6382Y7900D01*
X6069Y8029D01*
X5731Y8030D01*
X5419Y7901D01*
X5179Y7662D01*
X5050Y7349D01*
X5049Y7011D01*
X5178Y6699D01*
X5417Y6459D01*
X5730Y6330D01*
X6068Y6329D01*
X6380Y6458D01*
X6455Y6533D01*
X6454Y6312D01*
X6598Y5965D01*
X6864Y5699D01*
X7211Y5555D01*
X7587Y5554D01*
X7934Y5698D01*
X8049Y5813D01*
X8049Y5651D01*
X8178Y5339D01*
X8417Y5099D01*
X8730Y4970D01*
X8819Y4970D01*
X8599Y4750D01*
X8507Y4612D01*
X8475Y4450D01*
X8475Y1668D01*
X8475Y1564D01*
X8419Y1541D01*
X8344Y1466D01*
X8345Y1687D01*
X8201Y2034D01*
X7935Y2300D01*
X7588Y2444D01*
X7212Y2445D01*
X6865Y2301D01*
X6750Y2186D01*
X6750Y2348D01*
X6621Y2660D01*
X6382Y2900D01*
X6069Y3029D01*
X5731Y3030D01*
X5725Y3027D01*
X5725Y4163D01*
X5599Y4466D01*
X5367Y4698D01*
X5064Y4824D01*
X4736Y4825D01*
X4433Y4699D01*
X4201Y4467D01*
X4075Y4164D01*
X4074Y3836D01*
X4200Y3533D01*
X4432Y3301D01*
X4735Y3175D01*
X5063Y3174D01*
X5366Y3300D01*
X5598Y3532D01*
X5724Y3835D01*
X5725Y4163D01*
X5725Y3027D01*
X5419Y2901D01*
X5179Y2662D01*
X5050Y2349D01*
X5049Y2011D01*
X5178Y1699D01*
X5417Y1459D01*
X5730Y1330D01*
X6068Y1329D01*
X6380Y1458D01*
X6455Y1533D01*
X6454Y1312D01*
X6598Y965D01*
X6864Y699D01*
X7211Y555D01*
X7587Y554D01*
X7934Y698D01*
X8049Y813D01*
X8049Y651D01*
X8178Y339D01*
X8243Y275D01*
X2740Y275D01*
X2740Y859D01*
X2740Y2140D01*
X2740Y4859D01*
X2740Y6140D01*
X2740Y9859D01*
X2740Y11140D01*
X2702Y11231D01*
X2690Y11243D01*
X2690Y12656D01*
X2690Y17656D01*
X2570Y17947D01*
X2348Y18169D01*
X2057Y18290D01*
X1743Y18290D01*
X1452Y18170D01*
X1230Y17948D01*
X1109Y17657D01*
X1109Y17343D01*
X1229Y17052D01*
X1451Y16830D01*
X1742Y16709D01*
X2056Y16709D01*
X2347Y16829D01*
X2569Y17051D01*
X2690Y17342D01*
X2690Y17656D01*
X2690Y12656D01*
X2690Y12656D01*
X2690Y14949D01*
X2690Y16130D01*
X2660Y16203D01*
X2603Y16259D01*
X2530Y16290D01*
X2450Y16290D01*
X1269Y16290D01*
X1196Y16260D01*
X1140Y16203D01*
X1109Y16130D01*
X1109Y16050D01*
X1109Y14869D01*
X1139Y14796D01*
X1196Y14740D01*
X1269Y14709D01*
X1349Y14709D01*
X2530Y14709D01*
X2603Y14739D01*
X2659Y14796D01*
X2690Y14869D01*
X2690Y14949D01*
X2690Y12656D01*
X2570Y12947D01*
X2348Y13169D01*
X2057Y13290D01*
X1743Y13290D01*
X1452Y13170D01*
X1230Y12948D01*
X1109Y12657D01*
X1109Y12343D01*
X1229Y12052D01*
X1451Y11830D01*
X1742Y11709D01*
X2056Y11709D01*
X2347Y11829D01*
X2569Y12051D01*
X2690Y12342D01*
X2690Y12656D01*
X2690Y11243D01*
X2632Y11302D01*
X2540Y11340D01*
X2440Y11340D01*
X2012Y11340D01*
X1950Y11278D01*
X1950Y10550D01*
X2678Y10550D01*
X2740Y10612D01*
X2740Y11140D01*
X2740Y9859D01*
X2740Y10387D01*
X2678Y10450D01*
X1950Y10450D01*
X1950Y9722D01*
X2012Y9659D01*
X2440Y9659D01*
X2540Y9659D01*
X2632Y9697D01*
X2702Y9768D01*
X2740Y9859D01*
X2740Y6140D01*
X2702Y6231D01*
X2690Y6243D01*
X2690Y7656D01*
X2570Y7947D01*
X2348Y8169D01*
X2057Y8290D01*
X1850Y8290D01*
X1850Y9722D01*
X1850Y10450D01*
X1850Y10550D01*
X1850Y11278D01*
X1787Y11340D01*
X1359Y11340D01*
X1259Y11340D01*
X1167Y11302D01*
X1097Y11231D01*
X1059Y11140D01*
X1059Y10612D01*
X1122Y10550D01*
X1850Y10550D01*
X1850Y10450D01*
X1122Y10450D01*
X1059Y10387D01*
X1059Y9859D01*
X1097Y9768D01*
X1167Y9697D01*
X1259Y9659D01*
X1359Y9659D01*
X1787Y9659D01*
X1850Y9722D01*
X1850Y8290D01*
X1743Y8290D01*
X1452Y8170D01*
X1230Y7948D01*
X1109Y7657D01*
X1109Y7343D01*
X1229Y7052D01*
X1451Y6830D01*
X1742Y6709D01*
X2056Y6709D01*
X2347Y6829D01*
X2569Y7051D01*
X2690Y7342D01*
X2690Y7656D01*
X2690Y6243D01*
X2632Y6302D01*
X2540Y6340D01*
X2440Y6340D01*
X2012Y6340D01*
X1950Y6278D01*
X1950Y5550D01*
X2678Y5550D01*
X2740Y5612D01*
X2740Y6140D01*
X2740Y4859D01*
X2740Y5387D01*
X2678Y5450D01*
X1950Y5450D01*
X1950Y4722D01*
X2012Y4659D01*
X2440Y4659D01*
X2540Y4659D01*
X2632Y4697D01*
X2702Y4768D01*
X2740Y4859D01*
X2740Y2140D01*
X2702Y2231D01*
X2690Y2243D01*
X2690Y3656D01*
X2570Y3947D01*
X2348Y4169D01*
X2057Y4290D01*
X1850Y4290D01*
X1850Y4722D01*
X1850Y5450D01*
X1850Y5550D01*
X1850Y6278D01*
X1787Y6340D01*
X1359Y6340D01*
X1259Y6340D01*
X1167Y6302D01*
X1097Y6231D01*
X1059Y6140D01*
X1059Y5612D01*
X1122Y5550D01*
X1850Y5550D01*
X1850Y5450D01*
X1122Y5450D01*
X1059Y5387D01*
X1059Y4859D01*
X1097Y4768D01*
X1167Y4697D01*
X1259Y4659D01*
X1359Y4659D01*
X1787Y4659D01*
X1850Y4722D01*
X1850Y4290D01*
X1743Y4290D01*
X1452Y4170D01*
X1230Y3948D01*
X1109Y3657D01*
X1109Y3343D01*
X1229Y3052D01*
X1451Y2830D01*
X1742Y2709D01*
X2056Y2709D01*
X2347Y2829D01*
X2569Y3051D01*
X2690Y3342D01*
X2690Y3656D01*
X2690Y2243D01*
X2632Y2302D01*
X2540Y2340D01*
X2440Y2340D01*
X2012Y2340D01*
X1950Y2278D01*
X1950Y1550D01*
X2678Y1550D01*
X2740Y1612D01*
X2740Y2140D01*
X2740Y859D01*
X2740Y1387D01*
X2678Y1450D01*
X1950Y1450D01*
X1950Y722D01*
X2012Y659D01*
X2440Y659D01*
X2540Y659D01*
X2632Y697D01*
X2702Y768D01*
X2740Y859D01*
X2740Y275D01*
X1850Y275D01*
X1850Y722D01*
X1850Y1450D01*
X1850Y1550D01*
X1850Y2278D01*
X1787Y2340D01*
X1359Y2340D01*
X1259Y2340D01*
X1167Y2302D01*
X1097Y2231D01*
X1059Y2140D01*
X1059Y1612D01*
X1122Y1550D01*
X1850Y1550D01*
X1850Y1450D01*
X1122Y1450D01*
X1059Y1387D01*
X1059Y859D01*
X1097Y768D01*
X1167Y697D01*
X1259Y659D01*
X1359Y659D01*
X1787Y659D01*
X1850Y722D01*
X1850Y275D01*
X275Y275D01*
X275Y24000D01*
X275Y27500D01*
X275Y30000D01*
X275Y33000D01*
X275Y34000D01*
X275Y34725D01*
X7150Y34725D01*
X7150Y34722D01*
X7149Y34643D01*
X7149Y33777D01*
X7180Y33703D01*
X7236Y33647D01*
X7310Y33617D01*
X7389Y33616D01*
X7989Y33616D01*
X8063Y33647D01*
X8119Y33703D01*
X8149Y33777D01*
X8150Y33856D01*
X8150Y33897D01*
X8161Y33860D01*
X8296Y33692D01*
X8485Y33589D01*
X8514Y33583D01*
X8600Y33632D01*
X8600Y34200D01*
X8592Y34200D01*
X8592Y34300D01*
X8600Y34300D01*
X8600Y34307D01*
X8700Y34307D01*
X8700Y34300D01*
X8707Y34300D01*
X8707Y34200D01*
X8700Y34200D01*
X8700Y33632D01*
X8785Y33583D01*
X8814Y33589D01*
X9003Y33692D01*
X9138Y33860D01*
X9174Y33980D01*
X9188Y33913D01*
X9296Y33751D01*
X9458Y33642D01*
X9650Y33604D01*
X9780Y33630D01*
X9980Y33430D01*
X10058Y33378D01*
X10150Y33360D01*
X11230Y33360D01*
X11265Y33324D01*
X11385Y33275D01*
X11399Y33275D01*
X11399Y33260D01*
X11399Y32660D01*
X11430Y32586D01*
X11486Y32530D01*
X11560Y32500D01*
X11639Y32499D01*
X12239Y32499D01*
X12313Y32530D01*
X12369Y32586D01*
X12399Y32660D01*
X12400Y32739D01*
X12400Y32900D01*
X12475Y32717D01*
X12616Y32576D01*
X12800Y32500D01*
X12999Y32499D01*
X13182Y32575D01*
X13323Y32716D01*
X13399Y32900D01*
X13400Y33099D01*
X13324Y33282D01*
X13183Y33423D01*
X12999Y33499D01*
X12800Y33500D01*
X12617Y33424D01*
X12476Y33283D01*
X12400Y33099D01*
X12400Y33039D01*
X12400Y33339D01*
X12369Y33413D01*
X12313Y33469D01*
X12239Y33499D01*
X12160Y33500D01*
X11760Y33500D01*
X11774Y33535D01*
X11775Y33664D01*
X11725Y33783D01*
X11634Y33875D01*
X11514Y33924D01*
X11385Y33925D01*
X11266Y33875D01*
X11230Y33840D01*
X11062Y33840D01*
X11111Y33913D01*
X11150Y34104D01*
X11150Y34395D01*
X11111Y34586D01*
X11019Y34725D01*
X16349Y34725D01*
X16350Y34612D01*
X16412Y34550D01*
X16850Y34550D01*
X16850Y34557D01*
X16950Y34557D01*
X16950Y34550D01*
X17387Y34550D01*
X17400Y34562D01*
X17412Y34550D01*
X17850Y34550D01*
X17850Y34557D01*
X17950Y34557D01*
X17950Y34550D01*
X18387Y34550D01*
X18400Y34562D01*
X18412Y34550D01*
X18850Y34550D01*
X18850Y34557D01*
X18950Y34557D01*
X18950Y34550D01*
X19387Y34550D01*
X19400Y34562D01*
X19412Y34550D01*
X19850Y34550D01*
X19850Y34557D01*
X19950Y34557D01*
X19950Y34550D01*
X20387Y34550D01*
X20450Y34612D01*
X20450Y34725D01*
X31899Y34725D01*
X31899Y34160D01*
X31930Y34086D01*
X31986Y34030D01*
X32060Y34000D01*
X32139Y33999D01*
X32157Y33999D01*
X32112Y33981D01*
X32084Y33885D01*
X32400Y33570D01*
X32405Y33576D01*
X32476Y33505D01*
X32470Y33500D01*
X32476Y33494D01*
X32405Y33423D01*
X32400Y33429D01*
X32329Y33358D01*
X32329Y33500D01*
X32014Y33815D01*
X31918Y33787D01*
X31845Y33581D01*
X31856Y33363D01*
X31918Y33212D01*
X32014Y33184D01*
X32329Y33500D01*
X32329Y33358D01*
X32084Y33114D01*
X32112Y33018D01*
X32237Y32973D01*
X32117Y32924D01*
X31976Y32783D01*
X31900Y32599D01*
X31899Y32400D01*
X31917Y32357D01*
X31630Y32069D01*
X31578Y31991D01*
X31559Y31899D01*
X31559Y31835D01*
X30399Y32994D01*
X30400Y33099D01*
X30324Y33282D01*
X30183Y33423D01*
X29999Y33499D01*
X29800Y33500D01*
X29617Y33424D01*
X29476Y33283D01*
X29400Y33099D01*
X29399Y32900D01*
X29475Y32717D01*
X29616Y32576D01*
X29800Y32500D01*
X29905Y32499D01*
X31050Y31355D01*
X31050Y30874D01*
X31031Y30881D01*
X30902Y30881D01*
X30782Y30832D01*
X30691Y30741D01*
X30641Y30621D01*
X30641Y30492D01*
X30691Y30372D01*
X30726Y30337D01*
X30726Y29880D01*
X30683Y29923D01*
X30499Y29999D01*
X30445Y29999D01*
X29847Y30597D01*
X29847Y30597D01*
X29250Y31194D01*
X29250Y32642D01*
X29323Y32716D01*
X29399Y32900D01*
X29400Y33099D01*
X29324Y33282D01*
X29183Y33423D01*
X28999Y33499D01*
X28800Y33500D01*
X28617Y33424D01*
X28476Y33283D01*
X28400Y33099D01*
X28400Y33098D01*
X28400Y33099D01*
X28324Y33282D01*
X28183Y33423D01*
X27999Y33499D01*
X27800Y33500D01*
X27617Y33424D01*
X27476Y33283D01*
X27400Y33099D01*
X27400Y33039D01*
X27400Y33339D01*
X27369Y33413D01*
X27313Y33469D01*
X27239Y33499D01*
X27160Y33500D01*
X26560Y33500D01*
X26486Y33469D01*
X26430Y33413D01*
X26400Y33339D01*
X26399Y33260D01*
X26399Y32660D01*
X26430Y32586D01*
X26486Y32530D01*
X26560Y32500D01*
X26639Y32499D01*
X27239Y32499D01*
X27313Y32530D01*
X27369Y32586D01*
X27399Y32660D01*
X27400Y32739D01*
X27400Y32900D01*
X27475Y32717D01*
X27616Y32576D01*
X27800Y32500D01*
X27999Y32499D01*
X28182Y32575D01*
X28323Y32716D01*
X28399Y32900D01*
X28400Y33099D01*
X28400Y33098D01*
X28399Y32900D01*
X28475Y32717D01*
X28550Y32642D01*
X28550Y31050D01*
X28576Y30916D01*
X28652Y30802D01*
X29352Y30102D01*
X29352Y30102D01*
X29455Y29999D01*
X29300Y30000D01*
X29117Y29924D01*
X28976Y29783D01*
X28900Y29599D01*
X28899Y29400D01*
X28920Y29352D01*
X28885Y29366D01*
X28899Y29400D01*
X28900Y29599D01*
X28824Y29782D01*
X28683Y29923D01*
X28499Y29999D01*
X28300Y30000D01*
X28117Y29924D01*
X27976Y29783D01*
X27929Y29671D01*
X27881Y29787D01*
X27785Y29815D01*
X27715Y29744D01*
X27715Y29885D01*
X27687Y29981D01*
X27481Y30054D01*
X27263Y30043D01*
X27112Y29981D01*
X27084Y29885D01*
X27400Y29570D01*
X27715Y29885D01*
X27715Y29744D01*
X27470Y29500D01*
X27785Y29184D01*
X27881Y29212D01*
X27926Y29337D01*
X27975Y29217D01*
X28116Y29076D01*
X28300Y29000D01*
X28474Y28999D01*
X28474Y28985D01*
X28524Y28866D01*
X28615Y28774D01*
X28735Y28725D01*
X28864Y28724D01*
X28983Y28774D01*
X29019Y28810D01*
X29804Y28810D01*
X29803Y28738D01*
X29853Y28619D01*
X29944Y28527D01*
X30064Y28478D01*
X30114Y28478D01*
X30426Y28166D01*
X30426Y28116D01*
X30475Y27996D01*
X30566Y27905D01*
X30686Y27855D01*
X30747Y27855D01*
X30554Y27663D01*
X30396Y27663D01*
X30305Y27644D01*
X30227Y27592D01*
X30023Y27389D01*
X27715Y27389D01*
X27715Y29114D01*
X27400Y29429D01*
X27329Y29358D01*
X27329Y29500D01*
X27014Y29815D01*
X26918Y29787D01*
X26873Y29662D01*
X26824Y29782D01*
X26683Y29923D01*
X26499Y29999D01*
X26300Y30000D01*
X26117Y29924D01*
X25976Y29783D01*
X25929Y29671D01*
X25881Y29787D01*
X25785Y29815D01*
X25715Y29744D01*
X25715Y29885D01*
X25687Y29981D01*
X25481Y30054D01*
X25400Y30050D01*
X25400Y33099D01*
X25324Y33282D01*
X25183Y33423D01*
X24999Y33499D01*
X24800Y33500D01*
X24617Y33424D01*
X24476Y33283D01*
X24400Y33099D01*
X24400Y33098D01*
X24400Y33099D01*
X24324Y33282D01*
X24183Y33423D01*
X23999Y33499D01*
X23800Y33500D01*
X23617Y33424D01*
X23476Y33283D01*
X23400Y33099D01*
X23400Y33098D01*
X23400Y33099D01*
X23324Y33282D01*
X23183Y33423D01*
X22999Y33499D01*
X22800Y33500D01*
X22617Y33424D01*
X22476Y33283D01*
X22400Y33099D01*
X22400Y33039D01*
X22400Y33339D01*
X22369Y33413D01*
X22313Y33469D01*
X22239Y33499D01*
X22160Y33500D01*
X21560Y33500D01*
X21486Y33469D01*
X21430Y33413D01*
X21400Y33339D01*
X21399Y33260D01*
X21399Y32660D01*
X21430Y32586D01*
X21486Y32530D01*
X21560Y32500D01*
X21639Y32499D01*
X22239Y32499D01*
X22313Y32530D01*
X22369Y32586D01*
X22399Y32660D01*
X22400Y32739D01*
X22400Y32900D01*
X22475Y32717D01*
X22616Y32576D01*
X22800Y32500D01*
X22999Y32499D01*
X23182Y32575D01*
X23323Y32716D01*
X23399Y32900D01*
X23400Y33099D01*
X23400Y33098D01*
X23399Y32900D01*
X23475Y32717D01*
X23616Y32576D01*
X23800Y32500D01*
X23999Y32499D01*
X24182Y32575D01*
X24323Y32716D01*
X24399Y32900D01*
X24400Y33099D01*
X24400Y33098D01*
X24399Y32900D01*
X24475Y32717D01*
X24616Y32576D01*
X24800Y32500D01*
X24999Y32499D01*
X25182Y32575D01*
X25323Y32716D01*
X25399Y32900D01*
X25400Y33099D01*
X25400Y30050D01*
X25263Y30043D01*
X25112Y29981D01*
X25084Y29885D01*
X25400Y29570D01*
X25715Y29885D01*
X25715Y29744D01*
X25470Y29500D01*
X25785Y29184D01*
X25881Y29212D01*
X25926Y29337D01*
X25975Y29217D01*
X26116Y29076D01*
X26300Y29000D01*
X26499Y28999D01*
X26682Y29075D01*
X26823Y29216D01*
X26870Y29328D01*
X26918Y29212D01*
X27014Y29184D01*
X27329Y29500D01*
X27329Y29358D01*
X27084Y29114D01*
X27112Y29018D01*
X27318Y28945D01*
X27536Y28956D01*
X27687Y29018D01*
X27715Y29114D01*
X27715Y27389D01*
X25715Y27389D01*
X25715Y29114D01*
X25400Y29429D01*
X25084Y29114D01*
X25112Y29018D01*
X25318Y28945D01*
X25536Y28956D01*
X25687Y29018D01*
X25715Y29114D01*
X25715Y27389D01*
X24452Y27389D01*
X24452Y28999D01*
X24499Y28999D01*
X24682Y29075D01*
X24823Y29216D01*
X24870Y29328D01*
X24918Y29212D01*
X25014Y29184D01*
X25329Y29500D01*
X25014Y29815D01*
X24918Y29787D01*
X24873Y29662D01*
X24824Y29782D01*
X24683Y29923D01*
X24499Y29999D01*
X24300Y30000D01*
X24117Y29924D01*
X23976Y29783D01*
X23900Y29599D01*
X23900Y29598D01*
X23900Y29599D01*
X23824Y29782D01*
X23683Y29923D01*
X23499Y29999D01*
X23300Y30000D01*
X23117Y29924D01*
X22976Y29783D01*
X22900Y29599D01*
X22900Y29598D01*
X22900Y29599D01*
X22824Y29782D01*
X22683Y29923D01*
X22499Y29999D01*
X22300Y30000D01*
X22117Y29924D01*
X21976Y29783D01*
X21900Y29599D01*
X21900Y29598D01*
X21900Y29599D01*
X21824Y29782D01*
X21683Y29923D01*
X21499Y29999D01*
X21300Y30000D01*
X21117Y29924D01*
X20976Y29783D01*
X20900Y29599D01*
X20900Y29598D01*
X20900Y29599D01*
X20824Y29782D01*
X20683Y29923D01*
X20499Y29999D01*
X20450Y29999D01*
X20450Y34150D01*
X20450Y34387D01*
X20387Y34450D01*
X19950Y34450D01*
X19950Y34442D01*
X19850Y34442D01*
X19850Y34450D01*
X19412Y34450D01*
X19400Y34437D01*
X19387Y34450D01*
X18950Y34450D01*
X18950Y34442D01*
X18850Y34442D01*
X18850Y34450D01*
X18412Y34450D01*
X18400Y34437D01*
X18387Y34450D01*
X17950Y34450D01*
X17950Y34442D01*
X17850Y34442D01*
X17850Y34450D01*
X17412Y34450D01*
X17400Y34437D01*
X17387Y34450D01*
X16950Y34450D01*
X16950Y34442D01*
X16850Y34442D01*
X16850Y34450D01*
X16412Y34450D01*
X16350Y34387D01*
X16349Y34150D01*
X16387Y34058D01*
X16458Y33988D01*
X16550Y33950D01*
X16649Y33949D01*
X16679Y33949D01*
X16617Y33924D01*
X16476Y33783D01*
X16400Y33599D01*
X16399Y33400D01*
X16475Y33217D01*
X16616Y33076D01*
X16800Y33000D01*
X16999Y32999D01*
X17182Y33075D01*
X17323Y33216D01*
X17399Y33400D01*
X17400Y33599D01*
X17324Y33782D01*
X17183Y33923D01*
X17120Y33949D01*
X17150Y33949D01*
X17249Y33950D01*
X17341Y33988D01*
X17400Y34046D01*
X17458Y33988D01*
X17550Y33950D01*
X17649Y33949D01*
X17679Y33949D01*
X17617Y33924D01*
X17476Y33783D01*
X17400Y33599D01*
X17399Y33400D01*
X17475Y33217D01*
X17616Y33076D01*
X17800Y33000D01*
X17999Y32999D01*
X18182Y33075D01*
X18323Y33216D01*
X18399Y33400D01*
X18400Y33599D01*
X18324Y33782D01*
X18183Y33923D01*
X18120Y33949D01*
X18150Y33949D01*
X18249Y33950D01*
X18341Y33988D01*
X18400Y34046D01*
X18458Y33988D01*
X18550Y33950D01*
X18649Y33949D01*
X18679Y33949D01*
X18617Y33924D01*
X18476Y33783D01*
X18400Y33599D01*
X18399Y33400D01*
X18475Y33217D01*
X18616Y33076D01*
X18800Y33000D01*
X18999Y32999D01*
X19182Y33075D01*
X19323Y33216D01*
X19399Y33400D01*
X19400Y33599D01*
X19324Y33782D01*
X19183Y33923D01*
X19120Y33949D01*
X19150Y33949D01*
X19249Y33950D01*
X19341Y33988D01*
X19400Y34046D01*
X19458Y33988D01*
X19550Y33950D01*
X19649Y33949D01*
X19679Y33949D01*
X19617Y33924D01*
X19476Y33783D01*
X19400Y33599D01*
X19399Y33400D01*
X19475Y33217D01*
X19616Y33076D01*
X19800Y33000D01*
X19999Y32999D01*
X20182Y33075D01*
X20323Y33216D01*
X20399Y33400D01*
X20400Y33599D01*
X20324Y33782D01*
X20183Y33923D01*
X20120Y33949D01*
X20150Y33949D01*
X20249Y33950D01*
X20341Y33988D01*
X20412Y34058D01*
X20450Y34150D01*
X20450Y29999D01*
X20400Y30000D01*
X20400Y32599D01*
X20324Y32782D01*
X20183Y32923D01*
X19999Y32999D01*
X19800Y33000D01*
X19617Y32924D01*
X19476Y32783D01*
X19400Y32599D01*
X19400Y32598D01*
X19400Y32599D01*
X19324Y32782D01*
X19183Y32923D01*
X18999Y32999D01*
X18800Y33000D01*
X18617Y32924D01*
X18476Y32783D01*
X18400Y32599D01*
X18400Y32598D01*
X18400Y32599D01*
X18324Y32782D01*
X18183Y32923D01*
X17999Y32999D01*
X17800Y33000D01*
X17617Y32924D01*
X17476Y32783D01*
X17400Y32599D01*
X17400Y32598D01*
X17400Y32599D01*
X17324Y32782D01*
X17183Y32923D01*
X16999Y32999D01*
X16800Y33000D01*
X16617Y32924D01*
X16476Y32783D01*
X16400Y32599D01*
X16399Y32400D01*
X16475Y32217D01*
X16616Y32076D01*
X16800Y32000D01*
X16999Y31999D01*
X17182Y32075D01*
X17323Y32216D01*
X17399Y32400D01*
X17400Y32599D01*
X17400Y32598D01*
X17399Y32400D01*
X17475Y32217D01*
X17616Y32076D01*
X17800Y32000D01*
X17999Y31999D01*
X18182Y32075D01*
X18323Y32216D01*
X18399Y32400D01*
X18400Y32599D01*
X18400Y32598D01*
X18399Y32400D01*
X18475Y32217D01*
X18616Y32076D01*
X18800Y32000D01*
X18999Y31999D01*
X19182Y32075D01*
X19323Y32216D01*
X19399Y32400D01*
X19400Y32599D01*
X19400Y32598D01*
X19399Y32400D01*
X19475Y32217D01*
X19616Y32076D01*
X19800Y32000D01*
X19999Y31999D01*
X20182Y32075D01*
X20323Y32216D01*
X20399Y32400D01*
X20400Y32599D01*
X20400Y30000D01*
X20300Y30000D01*
X20117Y29924D01*
X19976Y29783D01*
X19929Y29671D01*
X19881Y29787D01*
X19785Y29815D01*
X19715Y29744D01*
X19715Y29885D01*
X19687Y29981D01*
X19481Y30054D01*
X19263Y30043D01*
X19112Y29981D01*
X19084Y29885D01*
X19400Y29570D01*
X19715Y29885D01*
X19715Y29744D01*
X19470Y29500D01*
X19785Y29184D01*
X19881Y29212D01*
X19926Y29337D01*
X19975Y29217D01*
X20116Y29076D01*
X20300Y29000D01*
X20499Y28999D01*
X20682Y29075D01*
X20823Y29216D01*
X20899Y29400D01*
X20900Y29599D01*
X20900Y29598D01*
X20899Y29400D01*
X20975Y29217D01*
X21116Y29076D01*
X21300Y29000D01*
X21499Y28999D01*
X21682Y29075D01*
X21823Y29216D01*
X21899Y29400D01*
X21900Y29599D01*
X21900Y29598D01*
X21899Y29400D01*
X21975Y29217D01*
X22116Y29076D01*
X22300Y29000D01*
X22499Y28999D01*
X22682Y29075D01*
X22823Y29216D01*
X22899Y29400D01*
X22900Y29599D01*
X22900Y29598D01*
X22899Y29400D01*
X22975Y29217D01*
X23116Y29076D01*
X23300Y29000D01*
X23499Y28999D01*
X23682Y29075D01*
X23823Y29216D01*
X23899Y29400D01*
X23900Y29599D01*
X23900Y29598D01*
X23899Y29400D01*
X23972Y29225D01*
X23972Y27248D01*
X23230Y26506D01*
X23178Y26428D01*
X23160Y26336D01*
X23160Y24941D01*
X23117Y24924D01*
X22976Y24783D01*
X22900Y24599D01*
X22899Y24400D01*
X22975Y24217D01*
X23116Y24076D01*
X23300Y24000D01*
X23499Y23999D01*
X23682Y24075D01*
X23738Y24131D01*
X23738Y23577D01*
X23591Y23675D01*
X23400Y23713D01*
X23208Y23675D01*
X23046Y23567D01*
X22938Y23405D01*
X22900Y23213D01*
X22861Y23405D01*
X22753Y23567D01*
X22591Y23675D01*
X22425Y23708D01*
X22569Y23852D01*
X22621Y23930D01*
X22639Y24022D01*
X22640Y24022D01*
X22640Y24058D01*
X22682Y24075D01*
X22823Y24216D01*
X22899Y24400D01*
X22900Y24599D01*
X22824Y24782D01*
X22683Y24923D01*
X22499Y24999D01*
X22300Y25000D01*
X22117Y24924D01*
X22073Y24880D01*
X22071Y24891D01*
X22019Y24969D01*
X22019Y24969D01*
X21819Y25169D01*
X21741Y25221D01*
X21650Y25240D01*
X20199Y25240D01*
X20190Y25249D01*
X20190Y27980D01*
X20225Y28015D01*
X20274Y28135D01*
X20275Y28264D01*
X20225Y28383D01*
X20134Y28475D01*
X20014Y28524D01*
X19885Y28525D01*
X19766Y28475D01*
X19715Y28424D01*
X19715Y29114D01*
X19400Y29429D01*
X19329Y29358D01*
X19329Y29500D01*
X19014Y29815D01*
X18918Y29787D01*
X18873Y29662D01*
X18824Y29782D01*
X18683Y29923D01*
X18499Y29999D01*
X18300Y30000D01*
X18117Y29924D01*
X17976Y29783D01*
X17929Y29671D01*
X17881Y29787D01*
X17785Y29815D01*
X17715Y29744D01*
X17715Y29885D01*
X17687Y29981D01*
X17481Y30054D01*
X17263Y30043D01*
X17112Y29981D01*
X17084Y29885D01*
X17400Y29570D01*
X17715Y29885D01*
X17715Y29744D01*
X17470Y29500D01*
X17785Y29184D01*
X17881Y29212D01*
X17926Y29337D01*
X17975Y29217D01*
X18116Y29076D01*
X18300Y29000D01*
X18499Y28999D01*
X18682Y29075D01*
X18823Y29216D01*
X18870Y29328D01*
X18918Y29212D01*
X19014Y29184D01*
X19329Y29500D01*
X19329Y29358D01*
X19084Y29114D01*
X19112Y29018D01*
X19318Y28945D01*
X19536Y28956D01*
X19687Y29018D01*
X19715Y29114D01*
X19715Y28424D01*
X19674Y28384D01*
X19625Y28264D01*
X19624Y28135D01*
X19674Y28016D01*
X19710Y27980D01*
X19710Y27824D01*
X19585Y27825D01*
X19466Y27775D01*
X19374Y27684D01*
X19325Y27564D01*
X19325Y27514D01*
X18730Y26919D01*
X18678Y26841D01*
X18660Y26750D01*
X18660Y24933D01*
X18499Y24999D01*
X18300Y25000D01*
X18140Y24933D01*
X18140Y27830D01*
X18175Y27865D01*
X18224Y27985D01*
X18225Y28114D01*
X18175Y28233D01*
X18084Y28325D01*
X17964Y28374D01*
X17835Y28375D01*
X17716Y28325D01*
X17715Y28324D01*
X17715Y29114D01*
X17400Y29429D01*
X17084Y29114D01*
X17112Y29018D01*
X17318Y28945D01*
X17536Y28956D01*
X17687Y29018D01*
X17715Y29114D01*
X17715Y28324D01*
X17624Y28234D01*
X17575Y28114D01*
X17574Y27985D01*
X17624Y27866D01*
X17660Y27830D01*
X17660Y24933D01*
X17499Y24999D01*
X17300Y25000D01*
X17140Y24933D01*
X17140Y27130D01*
X17175Y27165D01*
X17224Y27285D01*
X17225Y27414D01*
X17175Y27533D01*
X17084Y27625D01*
X16964Y27674D01*
X16835Y27675D01*
X16716Y27625D01*
X16624Y27534D01*
X16575Y27414D01*
X16574Y27285D01*
X16624Y27166D01*
X16660Y27130D01*
X16660Y24933D01*
X16499Y24999D01*
X16300Y25000D01*
X16117Y24924D01*
X15976Y24783D01*
X15900Y24599D01*
X15900Y24541D01*
X15900Y24541D01*
X15900Y24599D01*
X15841Y24740D01*
X15841Y28602D01*
X16257Y29017D01*
X16300Y29000D01*
X16499Y28999D01*
X16682Y29075D01*
X16823Y29216D01*
X16870Y29328D01*
X16918Y29212D01*
X17014Y29184D01*
X17329Y29500D01*
X17014Y29815D01*
X16918Y29787D01*
X16873Y29662D01*
X16824Y29782D01*
X16683Y29923D01*
X16499Y29999D01*
X16300Y30000D01*
X16117Y29924D01*
X15976Y29783D01*
X15900Y29599D01*
X15899Y29400D01*
X15917Y29357D01*
X15856Y29296D01*
X15899Y29400D01*
X15900Y29599D01*
X15824Y29782D01*
X15683Y29923D01*
X15499Y29999D01*
X15400Y30000D01*
X15400Y33099D01*
X15324Y33282D01*
X15183Y33423D01*
X14999Y33499D01*
X14800Y33500D01*
X14617Y33424D01*
X14476Y33283D01*
X14400Y33099D01*
X14400Y33098D01*
X14400Y33099D01*
X14324Y33282D01*
X14183Y33423D01*
X13999Y33499D01*
X13800Y33500D01*
X13617Y33424D01*
X13476Y33283D01*
X13400Y33099D01*
X13399Y32900D01*
X13475Y32717D01*
X13616Y32576D01*
X13800Y32500D01*
X13999Y32499D01*
X14182Y32575D01*
X14323Y32716D01*
X14399Y32900D01*
X14400Y33099D01*
X14400Y33098D01*
X14399Y32900D01*
X14475Y32717D01*
X14616Y32576D01*
X14800Y32500D01*
X14999Y32499D01*
X15182Y32575D01*
X15323Y32716D01*
X15399Y32900D01*
X15400Y33099D01*
X15400Y30000D01*
X15300Y30000D01*
X15117Y29924D01*
X14976Y29783D01*
X14900Y29599D01*
X14900Y29598D01*
X14900Y29599D01*
X14824Y29782D01*
X14683Y29923D01*
X14499Y29999D01*
X14300Y30000D01*
X14117Y29924D01*
X13976Y29783D01*
X13900Y29599D01*
X13900Y29598D01*
X13900Y29599D01*
X13824Y29782D01*
X13683Y29923D01*
X13499Y29999D01*
X13300Y30000D01*
X13117Y29924D01*
X12976Y29783D01*
X12900Y29599D01*
X12899Y29400D01*
X12975Y29217D01*
X13116Y29076D01*
X13300Y29000D01*
X13499Y28999D01*
X13682Y29075D01*
X13823Y29216D01*
X13899Y29400D01*
X13900Y29599D01*
X13900Y29598D01*
X13899Y29400D01*
X13975Y29217D01*
X14116Y29076D01*
X14300Y29000D01*
X14499Y28999D01*
X14682Y29075D01*
X14823Y29216D01*
X14899Y29400D01*
X14900Y29599D01*
X14900Y29598D01*
X14899Y29400D01*
X14975Y29217D01*
X15116Y29076D01*
X15300Y29000D01*
X15499Y28999D01*
X15603Y29043D01*
X15431Y28871D01*
X15379Y28793D01*
X15361Y28701D01*
X15361Y25000D01*
X15300Y25000D01*
X15117Y24924D01*
X15014Y24821D01*
X14743Y25092D01*
X14665Y25144D01*
X14573Y25162D01*
X14223Y25162D01*
X14131Y25144D01*
X14053Y25092D01*
X13784Y24822D01*
X13683Y24923D01*
X13499Y24999D01*
X13300Y25000D01*
X13117Y24924D01*
X12976Y24783D01*
X12900Y24599D01*
X12899Y24400D01*
X12975Y24217D01*
X13116Y24076D01*
X13135Y24068D01*
X13135Y23579D01*
X12991Y23675D01*
X12800Y23713D01*
X12615Y23676D01*
X12615Y24047D01*
X12682Y24075D01*
X12823Y24216D01*
X12899Y24400D01*
X12900Y24599D01*
X12824Y24782D01*
X12683Y24923D01*
X12499Y24999D01*
X12300Y25000D01*
X12117Y24924D01*
X11976Y24783D01*
X11900Y24599D01*
X11899Y24400D01*
X11975Y24217D01*
X12116Y24076D01*
X12135Y24068D01*
X12135Y23579D01*
X11991Y23675D01*
X11800Y23713D01*
X11615Y23676D01*
X11615Y24047D01*
X11682Y24075D01*
X11823Y24216D01*
X11899Y24400D01*
X11900Y24599D01*
X11824Y24782D01*
X11683Y24923D01*
X11499Y24999D01*
X11300Y25000D01*
X11117Y24924D01*
X10976Y24783D01*
X10900Y24599D01*
X10899Y24400D01*
X10975Y24217D01*
X11116Y24076D01*
X11135Y24068D01*
X11135Y23579D01*
X10991Y23675D01*
X10800Y23713D01*
X10615Y23676D01*
X10615Y24047D01*
X10682Y24075D01*
X10823Y24216D01*
X10899Y24400D01*
X10900Y24599D01*
X10824Y24782D01*
X10683Y24923D01*
X10499Y24999D01*
X10300Y25000D01*
X10117Y24924D01*
X9976Y24783D01*
X9900Y24599D01*
X9899Y24400D01*
X9975Y24217D01*
X10116Y24076D01*
X10135Y24068D01*
X10135Y23634D01*
X9964Y23727D01*
X9935Y23733D01*
X9850Y23684D01*
X9850Y23050D01*
X9857Y23050D01*
X9857Y22950D01*
X9850Y22950D01*
X9850Y22315D01*
X9935Y22266D01*
X9964Y22272D01*
X10135Y22365D01*
X10135Y22011D01*
X10153Y21919D01*
X10205Y21841D01*
X10605Y21441D01*
X10605Y21391D01*
X10655Y21271D01*
X10746Y21180D01*
X10865Y21130D01*
X10916Y21130D01*
X10900Y21089D01*
X10899Y21010D01*
X10899Y20419D01*
X8993Y22325D01*
X9153Y22432D01*
X9261Y22594D01*
X9275Y22663D01*
X9311Y22543D01*
X9446Y22375D01*
X9635Y22272D01*
X9664Y22266D01*
X9750Y22315D01*
X9750Y22950D01*
X9742Y22950D01*
X9742Y23050D01*
X9750Y23050D01*
X9750Y23684D01*
X9664Y23733D01*
X9635Y23727D01*
X9446Y23624D01*
X9311Y23456D01*
X9275Y23336D01*
X9261Y23405D01*
X9153Y23567D01*
X8991Y23675D01*
X8800Y23713D01*
X8653Y23684D01*
X8653Y23803D01*
X8604Y23922D01*
X8523Y24003D01*
X12144Y27624D01*
X12196Y27702D01*
X12214Y27794D01*
X12214Y28754D01*
X12225Y28765D01*
X12274Y28885D01*
X12275Y29010D01*
X12300Y29000D01*
X12499Y28999D01*
X12682Y29075D01*
X12823Y29216D01*
X12899Y29400D01*
X12900Y29599D01*
X12824Y29782D01*
X12683Y29923D01*
X12499Y29999D01*
X12300Y30000D01*
X12117Y29924D01*
X11976Y29783D01*
X11929Y29671D01*
X11881Y29787D01*
X11785Y29815D01*
X11715Y29744D01*
X11715Y29885D01*
X11687Y29981D01*
X11481Y30054D01*
X11263Y30043D01*
X11112Y29981D01*
X11084Y29885D01*
X11400Y29570D01*
X11715Y29885D01*
X11715Y29744D01*
X11470Y29500D01*
X11476Y29494D01*
X11405Y29423D01*
X11400Y29429D01*
X11329Y29358D01*
X11329Y29500D01*
X11014Y29815D01*
X10918Y29787D01*
X10879Y29678D01*
X10875Y29697D01*
X10833Y29760D01*
X10824Y29782D01*
X10807Y29799D01*
X10764Y29864D01*
X10511Y30116D01*
X10344Y30228D01*
X10147Y30267D01*
X9975Y30267D01*
X9975Y31414D01*
X9925Y31533D01*
X9834Y31625D01*
X9714Y31674D01*
X9585Y31675D01*
X9466Y31625D01*
X9416Y31576D01*
X9375Y31576D01*
X9375Y32364D01*
X9325Y32483D01*
X9290Y32519D01*
X9290Y32800D01*
X9274Y32875D01*
X9274Y32875D01*
X9275Y32964D01*
X9225Y33083D01*
X9134Y33175D01*
X9014Y33224D01*
X8885Y33225D01*
X8766Y33175D01*
X8674Y33084D01*
X8625Y32964D01*
X8624Y32835D01*
X8674Y32716D01*
X8765Y32624D01*
X8810Y32606D01*
X8810Y32519D01*
X8774Y32484D01*
X8725Y32364D01*
X8724Y32235D01*
X8774Y32116D01*
X8865Y32024D01*
X8985Y31975D01*
X9114Y31974D01*
X9233Y32024D01*
X9325Y32115D01*
X9374Y32235D01*
X9375Y32364D01*
X9375Y31576D01*
X8801Y31576D01*
X8765Y31611D01*
X8646Y31661D01*
X8517Y31661D01*
X8397Y31611D01*
X8306Y31520D01*
X8256Y31400D01*
X8256Y31271D01*
X8305Y31152D01*
X8397Y31060D01*
X8516Y31011D01*
X8645Y31011D01*
X8765Y31060D01*
X8801Y31096D01*
X9444Y31096D01*
X9465Y31074D01*
X9585Y31025D01*
X9714Y31024D01*
X9833Y31074D01*
X9925Y31165D01*
X9974Y31285D01*
X9975Y31414D01*
X9975Y30267D01*
X4902Y30267D01*
X4738Y30234D01*
X4705Y30228D01*
X4538Y30116D01*
X2835Y28414D01*
X2724Y28247D01*
X2685Y28050D01*
X2685Y22675D01*
X2171Y23188D01*
X2187Y23188D01*
X2261Y23218D01*
X2317Y23275D01*
X2347Y23348D01*
X2348Y23428D01*
X2348Y24373D01*
X2317Y24446D01*
X2261Y24502D01*
X2187Y24533D01*
X2108Y24533D01*
X1604Y24533D01*
X1571Y24566D01*
X1808Y24566D01*
X2056Y24668D01*
X2245Y24857D01*
X2347Y25104D01*
X2348Y25372D01*
X2348Y29122D01*
X2245Y29369D01*
X2150Y29465D01*
X2150Y31849D01*
X2150Y34099D01*
X2074Y34282D01*
X1933Y34423D01*
X1749Y34499D01*
X1550Y34500D01*
X1367Y34424D01*
X1226Y34283D01*
X1150Y34099D01*
X1149Y33900D01*
X1225Y33717D01*
X1366Y33576D01*
X1550Y33500D01*
X1610Y33500D01*
X1310Y33500D01*
X1236Y33469D01*
X1180Y33413D01*
X1150Y33339D01*
X1149Y33260D01*
X1149Y32660D01*
X1180Y32586D01*
X1236Y32530D01*
X1310Y32500D01*
X1389Y32499D01*
X1989Y32499D01*
X2063Y32530D01*
X2119Y32586D01*
X2149Y32660D01*
X2150Y32739D01*
X2150Y33339D01*
X2119Y33413D01*
X2063Y33469D01*
X1989Y33499D01*
X1910Y33500D01*
X1749Y33500D01*
X1932Y33575D01*
X2073Y33716D01*
X2149Y33900D01*
X2150Y34099D01*
X2150Y31849D01*
X2074Y32032D01*
X1933Y32173D01*
X1749Y32249D01*
X1550Y32250D01*
X1367Y32174D01*
X1226Y32033D01*
X1150Y31849D01*
X1149Y31650D01*
X1225Y31467D01*
X1366Y31326D01*
X1550Y31250D01*
X1610Y31250D01*
X1310Y31250D01*
X1236Y31219D01*
X1180Y31163D01*
X1150Y31089D01*
X1149Y31010D01*
X1149Y30410D01*
X1180Y30336D01*
X1236Y30280D01*
X1310Y30250D01*
X1389Y30249D01*
X1989Y30249D01*
X2063Y30280D01*
X2119Y30336D01*
X2149Y30410D01*
X2150Y30489D01*
X2150Y31089D01*
X2119Y31163D01*
X2063Y31219D01*
X1989Y31249D01*
X1910Y31250D01*
X1749Y31250D01*
X1932Y31325D01*
X2073Y31466D01*
X2149Y31650D01*
X2150Y31849D01*
X2150Y29465D01*
X2056Y29558D01*
X1809Y29661D01*
X1542Y29661D01*
X1295Y29559D01*
X1105Y29370D01*
X1003Y29123D01*
X1003Y28855D01*
X1105Y28608D01*
X1294Y28419D01*
X1541Y28316D01*
X1808Y28316D01*
X2056Y28418D01*
X2245Y28607D01*
X2347Y28854D01*
X2348Y29122D01*
X2348Y25372D01*
X2245Y25619D01*
X2056Y25808D01*
X1809Y25911D01*
X1542Y25911D01*
X1323Y25820D01*
X1323Y25879D01*
X1976Y26532D01*
X1976Y26532D01*
X1976Y26532D01*
X2068Y26670D01*
X2100Y26833D01*
X2100Y26833D01*
X2100Y26833D01*
X2100Y26938D01*
X2187Y26938D01*
X2261Y26968D01*
X2317Y27025D01*
X2347Y27098D01*
X2348Y27178D01*
X2348Y28123D01*
X2317Y28196D01*
X2261Y28252D01*
X2187Y28283D01*
X2108Y28283D01*
X1163Y28283D01*
X1090Y28253D01*
X1033Y28196D01*
X1003Y28123D01*
X1003Y28043D01*
X1003Y27098D01*
X1033Y27025D01*
X1089Y26969D01*
X1163Y26938D01*
X1179Y26938D01*
X597Y26356D01*
X505Y26218D01*
X473Y26055D01*
X473Y24638D01*
X505Y24475D01*
X597Y24338D01*
X1003Y23932D01*
X1003Y23348D01*
X1033Y23275D01*
X1089Y23219D01*
X1163Y23188D01*
X1242Y23188D01*
X1250Y23188D01*
X1250Y23083D01*
X1282Y22920D01*
X1375Y22782D01*
X2028Y22129D01*
X2028Y22070D01*
X1809Y22161D01*
X1542Y22161D01*
X1295Y22059D01*
X1105Y21870D01*
X1003Y21623D01*
X1003Y21355D01*
X1105Y21108D01*
X1294Y20919D01*
X1541Y20816D01*
X1779Y20816D01*
X1747Y20783D01*
X1163Y20783D01*
X1090Y20753D01*
X1033Y20696D01*
X1003Y20623D01*
X1003Y20543D01*
X1003Y19598D01*
X1033Y19525D01*
X1089Y19469D01*
X1163Y19438D01*
X1242Y19438D01*
X2187Y19438D01*
X2261Y19468D01*
X2317Y19525D01*
X2347Y19598D01*
X2348Y19678D01*
X2348Y20182D01*
X2685Y20519D01*
X2685Y19995D01*
X2685Y19413D01*
X2617Y19345D01*
X2605Y19341D01*
X2459Y19194D01*
X2380Y19003D01*
X2379Y18797D01*
X2458Y18605D01*
X2605Y18459D01*
X2796Y18380D01*
X3002Y18379D01*
X3194Y18458D01*
X3340Y18605D01*
X3345Y18617D01*
X3564Y18835D01*
X3564Y18835D01*
X3638Y18947D01*
X3675Y19002D01*
X3675Y19002D01*
X3714Y19199D01*
X3715Y19200D01*
X3715Y19995D01*
X3715Y27836D01*
X5115Y29237D01*
X5597Y29237D01*
X5545Y29093D01*
X5555Y28855D01*
X5627Y28682D01*
X5727Y28648D01*
X6079Y29000D01*
X6073Y29005D01*
X6144Y29076D01*
X6150Y29070D01*
X6155Y29076D01*
X6226Y29005D01*
X6220Y29000D01*
X6572Y28648D01*
X6672Y28682D01*
X6679Y28699D01*
X6683Y28688D01*
X6838Y28534D01*
X7040Y28450D01*
X7258Y28449D01*
X7461Y28533D01*
X7599Y28672D01*
X7599Y28610D01*
X7630Y28536D01*
X7686Y28480D01*
X7760Y28450D01*
X7839Y28449D01*
X8539Y28449D01*
X8613Y28480D01*
X8669Y28536D01*
X8699Y28610D01*
X8700Y28689D01*
X8700Y29237D01*
X9934Y29237D01*
X10035Y29135D01*
X10099Y29093D01*
X10116Y29076D01*
X10138Y29067D01*
X10202Y29024D01*
X10277Y29009D01*
X10300Y29000D01*
X10324Y29000D01*
X10400Y28985D01*
X10475Y28999D01*
X10499Y28999D01*
X10521Y29009D01*
X10597Y29024D01*
X10660Y29066D01*
X10682Y29075D01*
X10699Y29092D01*
X10764Y29135D01*
X10806Y29199D01*
X10823Y29216D01*
X10832Y29238D01*
X10875Y29302D01*
X10877Y29311D01*
X10918Y29212D01*
X11014Y29184D01*
X11329Y29500D01*
X11329Y29358D01*
X11084Y29114D01*
X11112Y29018D01*
X11318Y28945D01*
X11536Y28956D01*
X11625Y28992D01*
X11624Y28885D01*
X11674Y28766D01*
X11734Y28705D01*
X11734Y27894D01*
X11389Y27549D01*
X11389Y27550D01*
X11390Y27550D01*
X11390Y27980D01*
X11425Y28015D01*
X11474Y28135D01*
X11475Y28264D01*
X11425Y28383D01*
X11334Y28475D01*
X11214Y28524D01*
X11085Y28525D01*
X10966Y28475D01*
X10874Y28384D01*
X10825Y28264D01*
X10824Y28135D01*
X10874Y28016D01*
X10910Y27980D01*
X10910Y27649D01*
X7120Y23860D01*
X6995Y23860D01*
X7849Y24714D01*
X7901Y24792D01*
X7919Y24883D01*
X7919Y24883D01*
X7919Y25449D01*
X8539Y25449D01*
X8613Y25480D01*
X8669Y25536D01*
X8699Y25610D01*
X8700Y25689D01*
X8700Y26389D01*
X8669Y26463D01*
X8613Y26519D01*
X8539Y26549D01*
X8460Y26550D01*
X7919Y26550D01*
X7919Y26593D01*
X8901Y27574D01*
X8951Y27574D01*
X9071Y27624D01*
X9162Y27715D01*
X9212Y27835D01*
X9212Y27885D01*
X9471Y28144D01*
X9502Y28157D01*
X9594Y28248D01*
X9644Y28368D01*
X9644Y28497D01*
X9594Y28617D01*
X9503Y28708D01*
X9384Y28758D01*
X9254Y28758D01*
X9135Y28708D01*
X9043Y28617D01*
X8994Y28498D01*
X8994Y28368D01*
X9000Y28352D01*
X8872Y28225D01*
X8822Y28225D01*
X8703Y28175D01*
X8612Y28084D01*
X8562Y27964D01*
X8562Y27914D01*
X7510Y26862D01*
X7458Y26784D01*
X7439Y26692D01*
X7439Y26475D01*
X7259Y26549D01*
X7041Y26550D01*
X6838Y26466D01*
X6684Y26311D01*
X6679Y26301D01*
X6672Y26317D01*
X6572Y26351D01*
X6501Y26280D01*
X6501Y26422D01*
X6501Y28577D01*
X6150Y28929D01*
X5798Y28577D01*
X5832Y28477D01*
X6056Y28395D01*
X6294Y28405D01*
X6467Y28477D01*
X6501Y28577D01*
X6501Y26422D01*
X6467Y26522D01*
X6243Y26604D01*
X6005Y26594D01*
X5832Y26522D01*
X5798Y26422D01*
X6150Y26070D01*
X6501Y26422D01*
X6501Y26280D01*
X6220Y26000D01*
X6572Y25648D01*
X6672Y25682D01*
X6679Y25699D01*
X6683Y25688D01*
X6838Y25534D01*
X7040Y25450D01*
X7258Y25449D01*
X7439Y25524D01*
X7439Y24983D01*
X6501Y24044D01*
X6501Y25577D01*
X6150Y25929D01*
X6079Y25858D01*
X6079Y26000D01*
X5727Y26351D01*
X5627Y26317D01*
X5545Y26093D01*
X5555Y25855D01*
X5627Y25682D01*
X5727Y25648D01*
X6079Y26000D01*
X6079Y25858D01*
X5798Y25577D01*
X5832Y25477D01*
X6056Y25395D01*
X6294Y25405D01*
X6467Y25477D01*
X6501Y25577D01*
X6501Y24044D01*
X6194Y23738D01*
X6142Y23660D01*
X6124Y23568D01*
X6124Y23406D01*
X6099Y23466D01*
X5867Y23698D01*
X5564Y23824D01*
X5236Y23825D01*
X4933Y23699D01*
X4701Y23467D01*
X4575Y23164D01*
X4574Y22836D01*
X4700Y22533D01*
X4932Y22301D01*
X5235Y22175D01*
X5563Y22174D01*
X5866Y22300D01*
X6098Y22532D01*
X6129Y22606D01*
X6142Y22541D01*
X6194Y22463D01*
X6486Y22172D01*
X6486Y22172D01*
X6563Y22120D01*
X6655Y22102D01*
X6655Y22102D01*
X8087Y22102D01*
X8380Y21808D01*
X8316Y21781D01*
X8224Y21690D01*
X8175Y21570D01*
X8174Y21441D01*
X8224Y21322D01*
X8315Y21230D01*
X8435Y21181D01*
X8485Y21180D01*
X12133Y17533D01*
X12133Y17533D01*
X12211Y17481D01*
X12218Y17479D01*
X12218Y16469D01*
X12183Y16434D01*
X12134Y16314D01*
X12133Y16185D01*
X12183Y16066D01*
X12274Y15974D01*
X12394Y15925D01*
X12523Y15924D01*
X12642Y15974D01*
X12734Y16065D01*
X12783Y16185D01*
X12784Y16314D01*
X12734Y16433D01*
X12698Y16469D01*
X12698Y17483D01*
X12702Y17486D01*
X14309Y15879D01*
X14309Y15427D01*
X14327Y15335D01*
X14379Y15257D01*
X14582Y15054D01*
X14533Y15005D01*
X14483Y14886D01*
X14483Y14756D01*
X14533Y14637D01*
X14624Y14545D01*
X14743Y14496D01*
X14873Y14496D01*
X14992Y14545D01*
X15009Y14562D01*
X18652Y14562D01*
X18744Y14580D01*
X18822Y14632D01*
X19681Y15491D01*
X19720Y15491D01*
X14570Y10341D01*
X14518Y10264D01*
X14499Y10172D01*
X14499Y9878D01*
X14489Y9882D01*
X14410Y9883D01*
X13810Y9883D01*
X13740Y9854D01*
X12146Y11447D01*
X12055Y11508D01*
X11948Y11530D01*
X11863Y11530D01*
X11863Y16984D01*
X11813Y17103D01*
X11722Y17195D01*
X11603Y17244D01*
X11473Y17245D01*
X11354Y17195D01*
X11321Y17163D01*
X10260Y18224D01*
X10260Y18274D01*
X10211Y18394D01*
X10119Y18485D01*
X10000Y18535D01*
X9871Y18535D01*
X9751Y18485D01*
X9660Y18394D01*
X9610Y18275D01*
X9610Y18145D01*
X9659Y18026D01*
X9751Y17934D01*
X9870Y17885D01*
X9920Y17885D01*
X11055Y16750D01*
X11133Y16698D01*
X11225Y16679D01*
X11318Y16679D01*
X11353Y16644D01*
X11473Y16595D01*
X11602Y16594D01*
X11721Y16644D01*
X11813Y16735D01*
X11863Y16855D01*
X11863Y16984D01*
X11863Y11530D01*
X11129Y11530D01*
X11116Y11561D01*
X10961Y11715D01*
X10759Y11799D01*
X10541Y11800D01*
X10338Y11716D01*
X10297Y11675D01*
X10297Y12395D01*
X10288Y12651D01*
X10208Y12844D01*
X10103Y12882D01*
X9720Y12500D01*
X10103Y12117D01*
X10208Y12155D01*
X10297Y12395D01*
X10297Y11675D01*
X10184Y11561D01*
X10100Y11359D01*
X10099Y11141D01*
X10183Y10938D01*
X10272Y10850D01*
X10250Y10850D01*
X10158Y10812D01*
X10088Y10741D01*
X10050Y10649D01*
X10049Y10550D01*
X10050Y10362D01*
X10112Y10300D01*
X10056Y10300D01*
X9376Y10980D01*
X9376Y11915D01*
X9545Y11852D01*
X9801Y11861D01*
X9994Y11941D01*
X10032Y12046D01*
X9650Y12429D01*
X9644Y12423D01*
X9573Y12494D01*
X9579Y12500D01*
X9573Y12505D01*
X9644Y12576D01*
X9650Y12570D01*
X10032Y12953D01*
X9994Y13058D01*
X9754Y13147D01*
X9498Y13138D01*
X9376Y13087D01*
X9376Y15971D01*
X9531Y15906D01*
X9767Y15906D01*
X9985Y15996D01*
X10152Y16163D01*
X10243Y16381D01*
X10243Y16617D01*
X10153Y16835D01*
X9986Y17002D01*
X9768Y17093D01*
X9532Y17093D01*
X9333Y17011D01*
X9251Y17133D01*
X8823Y17562D01*
X8873Y17612D01*
X8922Y17731D01*
X8922Y17860D01*
X8873Y17980D01*
X8782Y18071D01*
X8700Y18106D01*
X8700Y19689D01*
X8700Y20389D01*
X8669Y20463D01*
X8613Y20519D01*
X8539Y20549D01*
X8460Y20550D01*
X7760Y20550D01*
X7686Y20519D01*
X7630Y20463D01*
X7600Y20389D01*
X7599Y20327D01*
X7461Y20465D01*
X7259Y20549D01*
X7041Y20550D01*
X6838Y20466D01*
X6684Y20311D01*
X6679Y20301D01*
X6672Y20317D01*
X6572Y20351D01*
X6501Y20280D01*
X6501Y20422D01*
X6467Y20522D01*
X6243Y20604D01*
X6005Y20594D01*
X5832Y20522D01*
X5798Y20422D01*
X6150Y20070D01*
X6501Y20422D01*
X6501Y20280D01*
X6220Y20000D01*
X6572Y19648D01*
X6672Y19682D01*
X6679Y19699D01*
X6683Y19688D01*
X6838Y19534D01*
X7040Y19450D01*
X7258Y19449D01*
X7461Y19533D01*
X7599Y19672D01*
X7599Y19610D01*
X7630Y19536D01*
X7686Y19480D01*
X7760Y19450D01*
X7839Y19449D01*
X8539Y19449D01*
X8613Y19480D01*
X8669Y19536D01*
X8699Y19610D01*
X8700Y19689D01*
X8700Y18106D01*
X8662Y18121D01*
X8533Y18121D01*
X8413Y18072D01*
X8378Y18036D01*
X7312Y18036D01*
X5894Y19454D01*
X6056Y19395D01*
X6294Y19405D01*
X6467Y19477D01*
X6501Y19577D01*
X6150Y19929D01*
X6144Y19923D01*
X6073Y19994D01*
X6079Y20000D01*
X5727Y20351D01*
X5627Y20317D01*
X5545Y20093D01*
X5555Y19855D01*
X5599Y19749D01*
X5538Y19810D01*
X5460Y19862D01*
X5368Y19881D01*
X4588Y19881D01*
X4496Y19862D01*
X4418Y19810D01*
X4217Y19610D01*
X4165Y19532D01*
X4147Y19440D01*
X4147Y19153D01*
X4165Y19062D01*
X4217Y18984D01*
X6103Y17098D01*
X6005Y17094D01*
X5832Y17022D01*
X5798Y16922D01*
X6150Y16570D01*
X6155Y16576D01*
X6226Y16505D01*
X6220Y16500D01*
X6572Y16148D01*
X6672Y16182D01*
X6679Y16199D01*
X6683Y16188D01*
X6838Y16034D01*
X7040Y15950D01*
X7258Y15949D01*
X7461Y16033D01*
X7599Y16172D01*
X7599Y16110D01*
X7630Y16036D01*
X7686Y15980D01*
X7760Y15950D01*
X7839Y15949D01*
X8526Y15949D01*
X8526Y10803D01*
X8558Y10641D01*
X8650Y10503D01*
X10161Y8992D01*
X10183Y8938D01*
X10338Y8784D01*
X10540Y8700D01*
X10758Y8699D01*
X10961Y8783D01*
X11115Y8938D01*
X11199Y9140D01*
X11200Y9358D01*
X11116Y9561D01*
X11027Y9649D01*
X11049Y9649D01*
X11141Y9687D01*
X11211Y9758D01*
X11249Y9850D01*
X11250Y9949D01*
X11250Y10137D01*
X11187Y10200D01*
X10700Y10200D01*
X10700Y10192D01*
X10600Y10192D01*
X10600Y10200D01*
X10592Y10200D01*
X10592Y10300D01*
X10600Y10300D01*
X10600Y10307D01*
X10700Y10307D01*
X10700Y10300D01*
X11187Y10300D01*
X11250Y10362D01*
X11250Y10550D01*
X11249Y10649D01*
X11211Y10741D01*
X11141Y10812D01*
X11049Y10850D01*
X11027Y10850D01*
X11115Y10938D01*
X11129Y10970D01*
X11832Y10970D01*
X12950Y9852D01*
X12796Y9748D01*
X12688Y9586D01*
X12650Y9395D01*
X12611Y9586D01*
X12503Y9748D01*
X12341Y9857D01*
X12150Y9895D01*
X11958Y9857D01*
X11796Y9748D01*
X11688Y9586D01*
X11650Y9395D01*
X11650Y9104D01*
X11688Y8913D01*
X11796Y8751D01*
X11958Y8642D01*
X12150Y8604D01*
X12341Y8642D01*
X12503Y8751D01*
X12611Y8913D01*
X12650Y9104D01*
X12688Y8913D01*
X12796Y8751D01*
X12958Y8642D01*
X13150Y8604D01*
X13341Y8642D01*
X13503Y8751D01*
X13611Y8913D01*
X13625Y8982D01*
X13649Y8977D01*
X13649Y8777D01*
X13680Y8703D01*
X13736Y8647D01*
X13810Y8617D01*
X13889Y8616D01*
X14289Y8616D01*
X14150Y8477D01*
X14129Y8446D01*
X13999Y8499D01*
X13800Y8500D01*
X13617Y8424D01*
X13476Y8283D01*
X13400Y8099D01*
X13399Y7900D01*
X13417Y7857D01*
X13356Y7796D01*
X13399Y7900D01*
X13400Y8099D01*
X13324Y8282D01*
X13183Y8423D01*
X12999Y8499D01*
X12800Y8500D01*
X12617Y8424D01*
X12476Y8283D01*
X12400Y8099D01*
X12400Y8098D01*
X12400Y8099D01*
X12324Y8282D01*
X12183Y8423D01*
X11999Y8499D01*
X11800Y8500D01*
X11617Y8424D01*
X11476Y8283D01*
X11400Y8099D01*
X11399Y7900D01*
X11475Y7717D01*
X11616Y7576D01*
X11800Y7500D01*
X11999Y7499D01*
X12182Y7575D01*
X12323Y7716D01*
X12399Y7900D01*
X12400Y8099D01*
X12400Y8098D01*
X12399Y7900D01*
X12475Y7717D01*
X12616Y7576D01*
X12800Y7500D01*
X12999Y7499D01*
X13103Y7543D01*
X12730Y7169D01*
X12678Y7091D01*
X12660Y7000D01*
X12660Y5824D01*
X12546Y5748D01*
X12438Y5586D01*
X12400Y5395D01*
X12400Y5722D01*
X12369Y5796D01*
X12313Y5852D01*
X12239Y5882D01*
X12160Y5883D01*
X11560Y5883D01*
X11486Y5852D01*
X11430Y5796D01*
X11400Y5722D01*
X11399Y5643D01*
X11399Y4777D01*
X11428Y4708D01*
X11400Y4713D01*
X11250Y4683D01*
X11208Y4675D01*
X11046Y4567D01*
X10938Y4405D01*
X10900Y4213D01*
X10861Y4405D01*
X10753Y4567D01*
X10591Y4675D01*
X10400Y4713D01*
X10208Y4675D01*
X10046Y4567D01*
X9938Y4405D01*
X9900Y4213D01*
X9900Y3786D01*
X9938Y3594D01*
X10046Y3432D01*
X10208Y3324D01*
X10400Y3286D01*
X10591Y3324D01*
X10753Y3432D01*
X10861Y3594D01*
X10900Y3786D01*
X10938Y3594D01*
X11046Y3432D01*
X11208Y3324D01*
X11400Y3286D01*
X11443Y3294D01*
X11418Y3287D01*
X11345Y3081D01*
X11356Y2863D01*
X11418Y2712D01*
X11514Y2684D01*
X11829Y3000D01*
X11823Y3005D01*
X11894Y3076D01*
X11900Y3070D01*
X11905Y3076D01*
X11976Y3005D01*
X11970Y3000D01*
X12285Y2684D01*
X12381Y2712D01*
X12426Y2837D01*
X12475Y2717D01*
X12616Y2576D01*
X12800Y2500D01*
X12999Y2499D01*
X13182Y2575D01*
X13323Y2716D01*
X13399Y2900D01*
X13400Y3099D01*
X13324Y3282D01*
X13301Y3305D01*
X13400Y3286D01*
X13498Y3305D01*
X13476Y3283D01*
X13400Y3099D01*
X13399Y2900D01*
X13475Y2717D01*
X13616Y2576D01*
X13800Y2500D01*
X13999Y2499D01*
X14182Y2575D01*
X14323Y2716D01*
X14399Y2900D01*
X14400Y3099D01*
X14324Y3282D01*
X14301Y3305D01*
X14400Y3286D01*
X14498Y3305D01*
X14476Y3283D01*
X14400Y3099D01*
X14399Y2900D01*
X14475Y2717D01*
X14616Y2576D01*
X14800Y2500D01*
X14999Y2499D01*
X15182Y2575D01*
X15323Y2716D01*
X15399Y2900D01*
X15400Y3099D01*
X15324Y3282D01*
X15312Y3294D01*
X15350Y3315D01*
X15350Y3950D01*
X15342Y3950D01*
X15342Y4050D01*
X15350Y4050D01*
X15350Y4684D01*
X15264Y4733D01*
X15235Y4727D01*
X15046Y4624D01*
X14911Y4456D01*
X14875Y4336D01*
X14861Y4405D01*
X14753Y4567D01*
X14640Y4643D01*
X14640Y5170D01*
X14639Y5170D01*
X14621Y5261D01*
X14590Y5308D01*
X14569Y5339D01*
X14569Y5339D01*
X14560Y5349D01*
X14560Y7632D01*
X14616Y7576D01*
X14800Y7500D01*
X14999Y7499D01*
X15076Y7531D01*
X15124Y7416D01*
X15215Y7324D01*
X15335Y7275D01*
X15464Y7274D01*
X15583Y7324D01*
X15675Y7415D01*
X15723Y7531D01*
X15800Y7500D01*
X15999Y7499D01*
X16182Y7575D01*
X16323Y7716D01*
X16399Y7900D01*
X16400Y8099D01*
X16324Y8282D01*
X16183Y8423D01*
X16140Y8441D01*
X16140Y8558D01*
X16182Y8575D01*
X16323Y8716D01*
X16399Y8900D01*
X16400Y9099D01*
X16324Y9282D01*
X16183Y9423D01*
X15999Y9499D01*
X15800Y9500D01*
X15696Y9456D01*
X15757Y9517D01*
X15800Y9500D01*
X15999Y9499D01*
X16182Y9575D01*
X16323Y9716D01*
X16399Y9900D01*
X16400Y10099D01*
X16324Y10282D01*
X16183Y10423D01*
X15999Y10499D01*
X15800Y10500D01*
X15617Y10424D01*
X15476Y10283D01*
X15400Y10099D01*
X15399Y9900D01*
X15417Y9857D01*
X14979Y9419D01*
X14979Y10072D01*
X16133Y11226D01*
X16182Y11177D01*
X16301Y11127D01*
X16352Y11127D01*
X16979Y10499D01*
X16800Y10500D01*
X16617Y10424D01*
X16476Y10283D01*
X16400Y10099D01*
X16399Y9900D01*
X16475Y9717D01*
X16616Y9576D01*
X16800Y9500D01*
X16999Y9499D01*
X17182Y9575D01*
X17242Y9635D01*
X17258Y9558D01*
X17310Y9480D01*
X17403Y9386D01*
X17403Y9386D01*
X17481Y9334D01*
X17520Y9327D01*
X17476Y9283D01*
X17400Y9099D01*
X17399Y8900D01*
X17475Y8717D01*
X17616Y8576D01*
X17660Y8558D01*
X17660Y8441D01*
X17617Y8424D01*
X17476Y8283D01*
X17400Y8099D01*
X17400Y8098D01*
X17400Y8099D01*
X17324Y8282D01*
X17183Y8423D01*
X17140Y8441D01*
X17140Y8558D01*
X17182Y8575D01*
X17323Y8716D01*
X17399Y8900D01*
X17400Y9099D01*
X17324Y9282D01*
X17183Y9423D01*
X16999Y9499D01*
X16800Y9500D01*
X16617Y9424D01*
X16476Y9283D01*
X16400Y9099D01*
X16399Y8900D01*
X16475Y8717D01*
X16616Y8576D01*
X16660Y8558D01*
X16660Y8441D01*
X16617Y8424D01*
X16476Y8283D01*
X16400Y8099D01*
X16399Y7900D01*
X16475Y7717D01*
X16616Y7576D01*
X16800Y7500D01*
X16999Y7499D01*
X17182Y7575D01*
X17323Y7716D01*
X17399Y7900D01*
X17400Y8099D01*
X17400Y8098D01*
X17399Y7900D01*
X17475Y7717D01*
X17616Y7576D01*
X17800Y7500D01*
X17999Y7499D01*
X18182Y7575D01*
X18323Y7716D01*
X18399Y7900D01*
X18400Y8099D01*
X18324Y8282D01*
X18183Y8423D01*
X18140Y8441D01*
X18140Y8558D01*
X18182Y8575D01*
X18323Y8716D01*
X18360Y8804D01*
X18660Y8504D01*
X18660Y8441D01*
X18617Y8424D01*
X18476Y8283D01*
X18400Y8099D01*
X18399Y7900D01*
X18475Y7717D01*
X18616Y7576D01*
X18800Y7500D01*
X18999Y7499D01*
X19160Y7566D01*
X19160Y4643D01*
X19046Y4567D01*
X18938Y4405D01*
X18900Y4213D01*
X18900Y3786D01*
X18938Y3594D01*
X19002Y3498D01*
X18999Y3499D01*
X18800Y3500D01*
X18617Y3424D01*
X18476Y3283D01*
X18429Y3171D01*
X18381Y3287D01*
X18285Y3315D01*
X18215Y3244D01*
X18215Y3385D01*
X18187Y3481D01*
X17981Y3554D01*
X17830Y3547D01*
X17861Y3594D01*
X17900Y3786D01*
X17900Y4213D01*
X17861Y4405D01*
X17753Y4567D01*
X17680Y4616D01*
X17680Y4824D01*
X17682Y4825D01*
X17823Y4966D01*
X17899Y5150D01*
X17900Y5349D01*
X17824Y5532D01*
X17683Y5673D01*
X17499Y5749D01*
X17300Y5750D01*
X17117Y5674D01*
X16976Y5533D01*
X16900Y5349D01*
X16900Y5289D01*
X16900Y5589D01*
X16869Y5663D01*
X16813Y5719D01*
X16739Y5749D01*
X16660Y5750D01*
X16060Y5750D01*
X15986Y5719D01*
X15930Y5663D01*
X15900Y5589D01*
X15899Y5510D01*
X15899Y4910D01*
X15930Y4836D01*
X15986Y4780D01*
X16060Y4750D01*
X16139Y4749D01*
X16349Y4749D01*
X16349Y4684D01*
X16264Y4733D01*
X16235Y4727D01*
X16046Y4624D01*
X15911Y4456D01*
X15900Y4419D01*
X15888Y4456D01*
X15753Y4624D01*
X15564Y4727D01*
X15535Y4733D01*
X15450Y4684D01*
X15450Y4050D01*
X15850Y4050D01*
X15950Y4050D01*
X16350Y4050D01*
X16350Y4057D01*
X16450Y4057D01*
X16450Y4050D01*
X16457Y4050D01*
X16457Y3950D01*
X16450Y3950D01*
X16450Y3315D01*
X16486Y3294D01*
X16476Y3283D01*
X16400Y3099D01*
X16400Y3098D01*
X16400Y3099D01*
X16324Y3282D01*
X16312Y3294D01*
X16350Y3315D01*
X16350Y3950D01*
X15950Y3950D01*
X15850Y3950D01*
X15450Y3950D01*
X15450Y3315D01*
X15486Y3294D01*
X15476Y3283D01*
X15400Y3099D01*
X15399Y2900D01*
X15475Y2717D01*
X15616Y2576D01*
X15800Y2500D01*
X15999Y2499D01*
X16182Y2575D01*
X16323Y2716D01*
X16399Y2900D01*
X16400Y3099D01*
X16400Y3098D01*
X16399Y2900D01*
X16475Y2717D01*
X16616Y2576D01*
X16800Y2500D01*
X16999Y2499D01*
X17182Y2575D01*
X17323Y2716D01*
X17370Y2828D01*
X17418Y2712D01*
X17514Y2684D01*
X17829Y3000D01*
X17823Y3005D01*
X17894Y3076D01*
X17900Y3070D01*
X18215Y3385D01*
X18215Y3244D01*
X17970Y3000D01*
X18285Y2684D01*
X18381Y2712D01*
X18426Y2837D01*
X18475Y2717D01*
X18616Y2576D01*
X18800Y2500D01*
X18999Y2499D01*
X19182Y2575D01*
X19323Y2716D01*
X19370Y2828D01*
X19418Y2712D01*
X19514Y2684D01*
X19829Y3000D01*
X19823Y3005D01*
X19894Y3076D01*
X19900Y3070D01*
X19905Y3076D01*
X19976Y3005D01*
X19970Y3000D01*
X19976Y2994D01*
X19905Y2923D01*
X19900Y2929D01*
X19584Y2614D01*
X19612Y2518D01*
X19818Y2445D01*
X20036Y2456D01*
X20176Y2513D01*
X20215Y2474D01*
X20335Y2425D01*
X20464Y2424D01*
X20583Y2474D01*
X20665Y2555D01*
X20800Y2500D01*
X20999Y2499D01*
X21182Y2575D01*
X21323Y2716D01*
X21368Y2825D01*
X21375Y2830D01*
X21413Y2867D01*
X21475Y2717D01*
X21616Y2576D01*
X21800Y2500D01*
X21999Y2499D01*
X22182Y2575D01*
X22323Y2716D01*
X22399Y2900D01*
X22400Y3099D01*
X22324Y3282D01*
X22301Y3305D01*
X22400Y3286D01*
X22498Y3305D01*
X22476Y3283D01*
X22400Y3099D01*
X22399Y2900D01*
X22475Y2717D01*
X22616Y2576D01*
X22800Y2500D01*
X22999Y2499D01*
X23182Y2575D01*
X23323Y2716D01*
X23399Y2900D01*
X23400Y3099D01*
X23390Y3121D01*
X23409Y3121D01*
X23400Y3099D01*
X23399Y2900D01*
X23475Y2717D01*
X23616Y2576D01*
X23800Y2500D01*
X23999Y2499D01*
X24182Y2575D01*
X24323Y2716D01*
X24399Y2900D01*
X24400Y3099D01*
X24387Y3130D01*
X24412Y3130D01*
X24400Y3099D01*
X24399Y2900D01*
X24475Y2717D01*
X24616Y2576D01*
X24800Y2500D01*
X24999Y2499D01*
X25182Y2575D01*
X25323Y2716D01*
X25370Y2828D01*
X25418Y2712D01*
X25514Y2684D01*
X25829Y3000D01*
X25823Y3005D01*
X25894Y3076D01*
X25900Y3070D01*
X25905Y3076D01*
X25976Y3005D01*
X25970Y3000D01*
X26285Y2684D01*
X26381Y2712D01*
X26426Y2837D01*
X26475Y2717D01*
X26616Y2576D01*
X26800Y2500D01*
X26999Y2499D01*
X27182Y2575D01*
X27323Y2716D01*
X27370Y2828D01*
X27418Y2712D01*
X27514Y2684D01*
X27829Y3000D01*
X27514Y3315D01*
X27418Y3287D01*
X27373Y3162D01*
X27324Y3282D01*
X27183Y3423D01*
X26999Y3499D01*
X26800Y3500D01*
X26797Y3498D01*
X26861Y3594D01*
X26900Y3786D01*
X26900Y4213D01*
X26861Y4405D01*
X26753Y4567D01*
X26591Y4675D01*
X26400Y4713D01*
X26208Y4675D01*
X26046Y4567D01*
X25938Y4405D01*
X25900Y4213D01*
X25861Y4405D01*
X25753Y4567D01*
X25640Y4643D01*
X25640Y4676D01*
X28134Y7171D01*
X28160Y7145D01*
X28160Y4643D01*
X28046Y4567D01*
X27938Y4405D01*
X27900Y4213D01*
X27900Y3786D01*
X27938Y3594D01*
X27965Y3553D01*
X27763Y3543D01*
X27612Y3481D01*
X27584Y3385D01*
X27900Y3070D01*
X27905Y3076D01*
X27976Y3005D01*
X27970Y3000D01*
X28285Y2684D01*
X28381Y2712D01*
X28426Y2837D01*
X28475Y2717D01*
X28616Y2576D01*
X28800Y2500D01*
X28999Y2499D01*
X29182Y2575D01*
X29323Y2716D01*
X29366Y2818D01*
X29383Y2830D01*
X29415Y2862D01*
X29475Y2717D01*
X29616Y2576D01*
X29800Y2500D01*
X29999Y2499D01*
X30182Y2575D01*
X30323Y2716D01*
X30399Y2900D01*
X30400Y3099D01*
X30324Y3282D01*
X30301Y3305D01*
X30400Y3286D01*
X30498Y3305D01*
X30476Y3283D01*
X30400Y3099D01*
X30399Y2900D01*
X30475Y2717D01*
X30616Y2576D01*
X30800Y2500D01*
X30999Y2499D01*
X31182Y2575D01*
X31323Y2716D01*
X31399Y2900D01*
X31400Y3099D01*
X31381Y3143D01*
X31400Y3139D01*
X31416Y3139D01*
X31400Y3099D01*
X31399Y2900D01*
X31475Y2717D01*
X31616Y2576D01*
X31800Y2500D01*
X31999Y2499D01*
X32182Y2575D01*
X32323Y2716D01*
X32399Y2900D01*
X32400Y3099D01*
X32387Y3130D01*
X32412Y3130D01*
X32400Y3099D01*
X32399Y2900D01*
X32475Y2717D01*
X32616Y2576D01*
X32800Y2500D01*
X32999Y2499D01*
X33182Y2575D01*
X33323Y2716D01*
X33370Y2828D01*
X33418Y2712D01*
X33514Y2684D01*
X33829Y3000D01*
X33823Y3005D01*
X33894Y3076D01*
X33900Y3070D01*
X33905Y3076D01*
X33976Y3005D01*
X33970Y3000D01*
X33976Y2994D01*
X33905Y2923D01*
X33900Y2929D01*
X33584Y2614D01*
X33612Y2518D01*
X33818Y2445D01*
X34036Y2456D01*
X34106Y2485D01*
X34106Y1271D01*
X34106Y1271D01*
G37*
G54D40*
X34106Y1271D02*
X33400Y564D01*
X33400Y989D01*
X33400Y1589D01*
X33369Y1663D01*
X33313Y1719D01*
X33239Y1749D01*
X33160Y1750D01*
X32560Y1750D01*
X32486Y1719D01*
X32430Y1663D01*
X32400Y1589D01*
X32399Y1510D01*
X32399Y1349D01*
X32324Y1532D01*
X32183Y1673D01*
X31999Y1749D01*
X31800Y1750D01*
X31617Y1674D01*
X31476Y1533D01*
X31400Y1349D01*
X31400Y1348D01*
X31400Y1349D01*
X31324Y1532D01*
X31183Y1673D01*
X30999Y1749D01*
X30800Y1750D01*
X30617Y1674D01*
X30476Y1533D01*
X30400Y1349D01*
X30400Y1348D01*
X30400Y1349D01*
X30324Y1532D01*
X30183Y1673D01*
X29999Y1749D01*
X29800Y1750D01*
X29617Y1674D01*
X29476Y1533D01*
X29400Y1349D01*
X29399Y1150D01*
X29475Y967D01*
X29616Y826D01*
X29800Y750D01*
X29999Y749D01*
X30182Y825D01*
X30323Y966D01*
X30399Y1150D01*
X30400Y1349D01*
X30400Y1348D01*
X30399Y1150D01*
X30475Y967D01*
X30616Y826D01*
X30800Y750D01*
X30999Y749D01*
X31182Y825D01*
X31323Y966D01*
X31399Y1150D01*
X31400Y1349D01*
X31400Y1348D01*
X31399Y1150D01*
X31475Y967D01*
X31616Y826D01*
X31800Y750D01*
X31999Y749D01*
X32182Y825D01*
X32323Y966D01*
X32399Y1150D01*
X32399Y1210D01*
X32399Y910D01*
X32430Y836D01*
X32486Y780D01*
X32560Y750D01*
X32639Y749D01*
X33239Y749D01*
X33313Y780D01*
X33369Y836D01*
X33399Y910D01*
X33400Y989D01*
X33400Y564D01*
X33371Y535D01*
X28215Y535D01*
X28215Y2614D01*
X27900Y2929D01*
X27584Y2614D01*
X27612Y2518D01*
X27818Y2445D01*
X28036Y2456D01*
X28187Y2518D01*
X28215Y2614D01*
X28215Y535D01*
X26215Y535D01*
X26215Y2614D01*
X25900Y2929D01*
X25584Y2614D01*
X25612Y2518D01*
X25818Y2445D01*
X26036Y2456D01*
X26187Y2518D01*
X26215Y2614D01*
X26215Y535D01*
X25400Y535D01*
X25400Y989D01*
X25400Y1589D01*
X25369Y1663D01*
X25313Y1719D01*
X25239Y1749D01*
X25160Y1750D01*
X24560Y1750D01*
X24486Y1719D01*
X24430Y1663D01*
X24400Y1589D01*
X24399Y1510D01*
X24399Y1349D01*
X24324Y1532D01*
X24183Y1673D01*
X23999Y1749D01*
X23800Y1750D01*
X23617Y1674D01*
X23476Y1533D01*
X23400Y1349D01*
X23400Y1348D01*
X23400Y1349D01*
X23324Y1532D01*
X23183Y1673D01*
X22999Y1749D01*
X22800Y1750D01*
X22617Y1674D01*
X22476Y1533D01*
X22400Y1349D01*
X22400Y1348D01*
X22400Y1349D01*
X22324Y1532D01*
X22183Y1673D01*
X21999Y1749D01*
X21800Y1750D01*
X21617Y1674D01*
X21476Y1533D01*
X21400Y1349D01*
X21399Y1150D01*
X21475Y967D01*
X21616Y826D01*
X21800Y750D01*
X21999Y749D01*
X22182Y825D01*
X22323Y966D01*
X22399Y1150D01*
X22400Y1349D01*
X22400Y1348D01*
X22399Y1150D01*
X22475Y967D01*
X22616Y826D01*
X22800Y750D01*
X22999Y749D01*
X23182Y825D01*
X23323Y966D01*
X23399Y1150D01*
X23400Y1349D01*
X23400Y1348D01*
X23399Y1150D01*
X23475Y967D01*
X23616Y826D01*
X23800Y750D01*
X23999Y749D01*
X24182Y825D01*
X24323Y966D01*
X24399Y1150D01*
X24399Y1210D01*
X24399Y910D01*
X24430Y836D01*
X24486Y780D01*
X24560Y750D01*
X24639Y749D01*
X25239Y749D01*
X25313Y780D01*
X25369Y836D01*
X25399Y910D01*
X25400Y989D01*
X25400Y535D01*
X22269Y535D01*
X22249Y540D01*
X21199Y540D01*
X20725Y1014D01*
X20725Y1064D01*
X20675Y1183D01*
X20584Y1275D01*
X20464Y1324D01*
X20335Y1325D01*
X20216Y1275D01*
X20124Y1184D01*
X20075Y1064D01*
X20074Y935D01*
X20124Y816D01*
X20215Y724D01*
X20335Y675D01*
X20385Y675D01*
X20785Y275D01*
X20075Y275D01*
X20075Y814D01*
X20025Y933D01*
X19934Y1025D01*
X19814Y1074D01*
X19685Y1075D01*
X19566Y1025D01*
X19530Y990D01*
X18215Y990D01*
X18215Y2614D01*
X17900Y2929D01*
X17584Y2614D01*
X17612Y2518D01*
X17818Y2445D01*
X18036Y2456D01*
X18187Y2518D01*
X18215Y2614D01*
X18215Y990D01*
X17900Y990D01*
X17900Y1589D01*
X17869Y1663D01*
X17813Y1719D01*
X17739Y1749D01*
X17660Y1750D01*
X17060Y1750D01*
X16986Y1719D01*
X16930Y1663D01*
X16900Y1589D01*
X16899Y1510D01*
X16899Y1349D01*
X16824Y1532D01*
X16683Y1673D01*
X16499Y1749D01*
X16300Y1750D01*
X16117Y1674D01*
X15976Y1533D01*
X15900Y1349D01*
X15899Y1150D01*
X15966Y990D01*
X15833Y990D01*
X15899Y1150D01*
X15900Y1349D01*
X15824Y1532D01*
X15683Y1673D01*
X15499Y1749D01*
X15300Y1750D01*
X15117Y1674D01*
X14976Y1533D01*
X14900Y1349D01*
X14899Y1150D01*
X14966Y990D01*
X14833Y990D01*
X14899Y1150D01*
X14900Y1349D01*
X14824Y1532D01*
X14683Y1673D01*
X14499Y1749D01*
X14300Y1750D01*
X14117Y1674D01*
X13976Y1533D01*
X13900Y1349D01*
X13899Y1150D01*
X13943Y1046D01*
X13740Y1249D01*
X13740Y1280D01*
X13775Y1315D01*
X13824Y1435D01*
X13825Y1564D01*
X13775Y1683D01*
X13684Y1775D01*
X13564Y1824D01*
X13435Y1825D01*
X13316Y1775D01*
X13275Y1735D01*
X13239Y1749D01*
X13160Y1750D01*
X12560Y1750D01*
X12486Y1719D01*
X12430Y1663D01*
X12400Y1589D01*
X12399Y1510D01*
X12399Y1492D01*
X12381Y1537D01*
X12285Y1565D01*
X12215Y1494D01*
X12215Y1635D01*
X12215Y2614D01*
X11900Y2929D01*
X11584Y2614D01*
X11612Y2518D01*
X11818Y2445D01*
X12036Y2456D01*
X12187Y2518D01*
X12215Y2614D01*
X12215Y1635D01*
X12187Y1731D01*
X11981Y1804D01*
X11763Y1793D01*
X11612Y1731D01*
X11584Y1635D01*
X11900Y1320D01*
X12215Y1635D01*
X12215Y1494D01*
X11970Y1250D01*
X12285Y934D01*
X12381Y962D01*
X12399Y1014D01*
X12399Y910D01*
X12430Y836D01*
X12486Y780D01*
X12560Y750D01*
X12639Y749D01*
X13239Y749D01*
X13313Y780D01*
X13369Y836D01*
X13399Y910D01*
X13399Y910D01*
X13730Y580D01*
X13730Y580D01*
X13761Y559D01*
X13808Y528D01*
X13899Y510D01*
X13900Y510D01*
X19530Y510D01*
X19565Y474D01*
X19685Y425D01*
X19814Y424D01*
X19933Y474D01*
X20025Y565D01*
X20074Y685D01*
X20075Y814D01*
X20075Y275D01*
X12215Y275D01*
X12215Y864D01*
X11900Y1179D01*
X11829Y1108D01*
X11829Y1250D01*
X11514Y1565D01*
X11418Y1537D01*
X11345Y1331D01*
X11356Y1113D01*
X11418Y962D01*
X11514Y934D01*
X11829Y1250D01*
X11829Y1108D01*
X11584Y864D01*
X11612Y768D01*
X11818Y695D01*
X12036Y706D01*
X12187Y768D01*
X12215Y864D01*
X12215Y275D01*
X9557Y275D01*
X9620Y337D01*
X9749Y650D01*
X9750Y988D01*
X9621Y1300D01*
X9382Y1540D01*
X9325Y1563D01*
X9325Y1668D01*
X9325Y4273D01*
X10500Y5449D01*
X10592Y5587D01*
X10625Y5750D01*
X10625Y6149D01*
X10625Y6150D01*
X10625Y6234D01*
X10592Y6312D01*
X10560Y6390D01*
X10500Y6450D01*
X10441Y6510D01*
X10284Y6574D01*
X10115Y6575D01*
X9959Y6510D01*
X9839Y6391D01*
X9775Y6234D01*
X9774Y6065D01*
X9775Y6065D01*
X9775Y5926D01*
X9750Y5901D01*
X9750Y5988D01*
X9621Y6300D01*
X9382Y6540D01*
X9069Y6669D01*
X8731Y6670D01*
X8419Y6541D01*
X8344Y6466D01*
X8345Y6687D01*
X8201Y7034D01*
X7935Y7300D01*
X7588Y7444D01*
X7212Y7445D01*
X6930Y7328D01*
X6930Y13418D01*
X6801Y13730D01*
X6562Y13970D01*
X6501Y13995D01*
X6501Y16077D01*
X6150Y16429D01*
X6079Y16358D01*
X6079Y16500D01*
X5727Y16851D01*
X5627Y16817D01*
X5545Y16593D01*
X5555Y16355D01*
X5627Y16182D01*
X5727Y16148D01*
X6079Y16500D01*
X6079Y16358D01*
X5798Y16077D01*
X5832Y15977D01*
X6056Y15895D01*
X6294Y15905D01*
X6467Y15977D01*
X6501Y16077D01*
X6501Y13995D01*
X6249Y14099D01*
X5911Y14100D01*
X5599Y13971D01*
X5359Y13732D01*
X5230Y13419D01*
X5229Y13081D01*
X5358Y12769D01*
X5433Y12694D01*
X5212Y12695D01*
X4865Y12551D01*
X4599Y12285D01*
X4455Y11938D01*
X4454Y11562D01*
X4598Y11215D01*
X4713Y11100D01*
X4551Y11100D01*
X4239Y10971D01*
X3999Y10732D01*
X3870Y10419D01*
X3869Y10081D01*
X3998Y9769D01*
X4237Y9529D01*
X4550Y9400D01*
X4888Y9399D01*
X5200Y9528D01*
X5440Y9767D01*
X5569Y10080D01*
X5570Y10418D01*
X5441Y10730D01*
X5366Y10805D01*
X5587Y10804D01*
X5934Y10948D01*
X6200Y11214D01*
X6344Y11561D01*
X6345Y11937D01*
X6201Y12284D01*
X6086Y12399D01*
X6248Y12399D01*
X6560Y12528D01*
X6800Y12767D01*
X6929Y13080D01*
X6930Y13418D01*
X6930Y7328D01*
X6865Y7301D01*
X6750Y7186D01*
X6750Y7348D01*
X6621Y7660D01*
X6382Y7900D01*
X6069Y8029D01*
X5731Y8030D01*
X5419Y7901D01*
X5179Y7662D01*
X5050Y7349D01*
X5049Y7011D01*
X5178Y6699D01*
X5417Y6459D01*
X5730Y6330D01*
X6068Y6329D01*
X6380Y6458D01*
X6455Y6533D01*
X6454Y6312D01*
X6598Y5965D01*
X6864Y5699D01*
X7211Y5555D01*
X7587Y5554D01*
X7934Y5698D01*
X8049Y5813D01*
X8049Y5651D01*
X8178Y5339D01*
X8417Y5099D01*
X8730Y4970D01*
X8819Y4970D01*
X8599Y4750D01*
X8507Y4612D01*
X8475Y4450D01*
X8475Y1668D01*
X8475Y1564D01*
X8419Y1541D01*
X8344Y1466D01*
X8345Y1687D01*
X8201Y2034D01*
X7935Y2300D01*
X7588Y2444D01*
X7212Y2445D01*
X6865Y2301D01*
X6750Y2186D01*
X6750Y2348D01*
X6621Y2660D01*
X6382Y2900D01*
X6069Y3029D01*
X5731Y3030D01*
X5725Y3027D01*
X5725Y4163D01*
X5599Y4466D01*
X5367Y4698D01*
X5064Y4824D01*
X4736Y4825D01*
X4433Y4699D01*
X4201Y4467D01*
X4075Y4164D01*
X4074Y3836D01*
X4200Y3533D01*
X4432Y3301D01*
X4735Y3175D01*
X5063Y3174D01*
X5366Y3300D01*
X5598Y3532D01*
X5724Y3835D01*
X5725Y4163D01*
X5725Y3027D01*
X5419Y2901D01*
X5179Y2662D01*
X5050Y2349D01*
X5049Y2011D01*
X5178Y1699D01*
X5417Y1459D01*
X5730Y1330D01*
X6068Y1329D01*
X6380Y1458D01*
X6455Y1533D01*
X6454Y1312D01*
X6598Y965D01*
X6864Y699D01*
X7211Y555D01*
X7587Y554D01*
X7934Y698D01*
X8049Y813D01*
X8049Y651D01*
X8178Y339D01*
X8243Y275D01*
X2740Y275D01*
X2740Y859D01*
X2740Y2140D01*
X2740Y4859D01*
X2740Y6140D01*
X2740Y9859D01*
X2740Y11140D01*
X2702Y11231D01*
X2690Y11243D01*
X2690Y12656D01*
X2690Y17656D01*
X2570Y17947D01*
X2348Y18169D01*
X2057Y18290D01*
X1743Y18290D01*
X1452Y18170D01*
X1230Y17948D01*
X1109Y17657D01*
X1109Y17343D01*
X1229Y17052D01*
X1451Y16830D01*
X1742Y16709D01*
X2056Y16709D01*
X2347Y16829D01*
X2569Y17051D01*
X2690Y17342D01*
X2690Y17656D01*
X2690Y12656D01*
X2690Y12656D01*
X2690Y14949D01*
X2690Y16130D01*
X2660Y16203D01*
X2603Y16259D01*
X2530Y16290D01*
X2450Y16290D01*
X1269Y16290D01*
X1196Y16260D01*
X1140Y16203D01*
X1109Y16130D01*
X1109Y16050D01*
X1109Y14869D01*
X1139Y14796D01*
X1196Y14740D01*
X1269Y14709D01*
X1349Y14709D01*
X2530Y14709D01*
X2603Y14739D01*
X2659Y14796D01*
X2690Y14869D01*
X2690Y14949D01*
X2690Y12656D01*
X2570Y12947D01*
X2348Y13169D01*
X2057Y13290D01*
X1743Y13290D01*
X1452Y13170D01*
X1230Y12948D01*
X1109Y12657D01*
X1109Y12343D01*
X1229Y12052D01*
X1451Y11830D01*
X1742Y11709D01*
X2056Y11709D01*
X2347Y11829D01*
X2569Y12051D01*
X2690Y12342D01*
X2690Y12656D01*
X2690Y11243D01*
X2632Y11302D01*
X2540Y11340D01*
X2440Y11340D01*
X2012Y11340D01*
X1950Y11278D01*
X1950Y10550D01*
X2678Y10550D01*
X2740Y10612D01*
X2740Y11140D01*
X2740Y9859D01*
X2740Y10387D01*
X2678Y10450D01*
X1950Y10450D01*
X1950Y9722D01*
X2012Y9659D01*
X2440Y9659D01*
X2540Y9659D01*
X2632Y9697D01*
X2702Y9768D01*
X2740Y9859D01*
X2740Y6140D01*
X2702Y6231D01*
X2690Y6243D01*
X2690Y7656D01*
X2570Y7947D01*
X2348Y8169D01*
X2057Y8290D01*
X1850Y8290D01*
X1850Y9722D01*
X1850Y10450D01*
X1850Y10550D01*
X1850Y11278D01*
X1787Y11340D01*
X1359Y11340D01*
X1259Y11340D01*
X1167Y11302D01*
X1097Y11231D01*
X1059Y11140D01*
X1059Y10612D01*
X1122Y10550D01*
X1850Y10550D01*
X1850Y10450D01*
X1122Y10450D01*
X1059Y10387D01*
X1059Y9859D01*
X1097Y9768D01*
X1167Y9697D01*
X1259Y9659D01*
X1359Y9659D01*
X1787Y9659D01*
X1850Y9722D01*
X1850Y8290D01*
X1743Y8290D01*
X1452Y8170D01*
X1230Y7948D01*
X1109Y7657D01*
X1109Y7343D01*
X1229Y7052D01*
X1451Y6830D01*
X1742Y6709D01*
X2056Y6709D01*
X2347Y6829D01*
X2569Y7051D01*
X2690Y7342D01*
X2690Y7656D01*
X2690Y6243D01*
X2632Y6302D01*
X2540Y6340D01*
X2440Y6340D01*
X2012Y6340D01*
X1950Y6278D01*
X1950Y5550D01*
X2678Y5550D01*
X2740Y5612D01*
X2740Y6140D01*
X2740Y4859D01*
X2740Y5387D01*
X2678Y5450D01*
X1950Y5450D01*
X1950Y4722D01*
X2012Y4659D01*
X2440Y4659D01*
X2540Y4659D01*
X2632Y4697D01*
X2702Y4768D01*
X2740Y4859D01*
X2740Y2140D01*
X2702Y2231D01*
X2690Y2243D01*
X2690Y3656D01*
X2570Y3947D01*
X2348Y4169D01*
X2057Y4290D01*
X1850Y4290D01*
X1850Y4722D01*
X1850Y5450D01*
X1850Y5550D01*
X1850Y6278D01*
X1787Y6340D01*
X1359Y6340D01*
X1259Y6340D01*
X1167Y6302D01*
X1097Y6231D01*
X1059Y6140D01*
X1059Y5612D01*
X1122Y5550D01*
X1850Y5550D01*
X1850Y5450D01*
X1122Y5450D01*
X1059Y5387D01*
X1059Y4859D01*
X1097Y4768D01*
X1167Y4697D01*
X1259Y4659D01*
X1359Y4659D01*
X1787Y4659D01*
X1850Y4722D01*
X1850Y4290D01*
X1743Y4290D01*
X1452Y4170D01*
X1230Y3948D01*
X1109Y3657D01*
X1109Y3343D01*
X1229Y3052D01*
X1451Y2830D01*
X1742Y2709D01*
X2056Y2709D01*
X2347Y2829D01*
X2569Y3051D01*
X2690Y3342D01*
X2690Y3656D01*
X2690Y2243D01*
X2632Y2302D01*
X2540Y2340D01*
X2440Y2340D01*
X2012Y2340D01*
X1950Y2278D01*
X1950Y1550D01*
X2678Y1550D01*
X2740Y1612D01*
X2740Y2140D01*
X2740Y859D01*
X2740Y1387D01*
X2678Y1450D01*
X1950Y1450D01*
X1950Y722D01*
X2012Y659D01*
X2440Y659D01*
X2540Y659D01*
X2632Y697D01*
X2702Y768D01*
X2740Y859D01*
X2740Y275D01*
X1850Y275D01*
X1850Y722D01*
X1850Y1450D01*
X1850Y1550D01*
X1850Y2278D01*
X1787Y2340D01*
X1359Y2340D01*
X1259Y2340D01*
X1167Y2302D01*
X1097Y2231D01*
X1059Y2140D01*
X1059Y1612D01*
X1122Y1550D01*
X1850Y1550D01*
X1850Y1450D01*
X1122Y1450D01*
X1059Y1387D01*
X1059Y859D01*
X1097Y768D01*
X1167Y697D01*
X1259Y659D01*
X1359Y659D01*
X1787Y659D01*
X1850Y722D01*
X1850Y275D01*
X275Y275D01*
X275Y24000D01*
X275Y27500D01*
X275Y30000D01*
X275Y33000D01*
X275Y34000D01*
X275Y34725D01*
X7150Y34725D01*
X7150Y34722D01*
X7149Y34643D01*
X7149Y33777D01*
X7180Y33703D01*
X7236Y33647D01*
X7310Y33617D01*
X7389Y33616D01*
X7989Y33616D01*
X8063Y33647D01*
X8119Y33703D01*
X8149Y33777D01*
X8150Y33856D01*
X8150Y33897D01*
X8161Y33860D01*
X8296Y33692D01*
X8485Y33589D01*
X8514Y33583D01*
X8600Y33632D01*
X8600Y34200D01*
X8592Y34200D01*
X8592Y34300D01*
X8600Y34300D01*
X8600Y34307D01*
X8700Y34307D01*
X8700Y34300D01*
X8707Y34300D01*
X8707Y34200D01*
X8700Y34200D01*
X8700Y33632D01*
X8785Y33583D01*
X8814Y33589D01*
X9003Y33692D01*
X9138Y33860D01*
X9174Y33980D01*
X9188Y33913D01*
X9296Y33751D01*
X9458Y33642D01*
X9650Y33604D01*
X9780Y33630D01*
X9980Y33430D01*
X10058Y33378D01*
X10150Y33360D01*
X11230Y33360D01*
X11265Y33324D01*
X11385Y33275D01*
X11399Y33275D01*
X11399Y33260D01*
X11399Y32660D01*
X11430Y32586D01*
X11486Y32530D01*
X11560Y32500D01*
X11639Y32499D01*
X12239Y32499D01*
X12313Y32530D01*
X12369Y32586D01*
X12399Y32660D01*
X12400Y32739D01*
X12400Y32900D01*
X12475Y32717D01*
X12616Y32576D01*
X12800Y32500D01*
X12999Y32499D01*
X13182Y32575D01*
X13323Y32716D01*
X13399Y32900D01*
X13400Y33099D01*
X13324Y33282D01*
X13183Y33423D01*
X12999Y33499D01*
X12800Y33500D01*
X12617Y33424D01*
X12476Y33283D01*
X12400Y33099D01*
X12400Y33039D01*
X12400Y33339D01*
X12369Y33413D01*
X12313Y33469D01*
X12239Y33499D01*
X12160Y33500D01*
X11760Y33500D01*
X11774Y33535D01*
X11775Y33664D01*
X11725Y33783D01*
X11634Y33875D01*
X11514Y33924D01*
X11385Y33925D01*
X11266Y33875D01*
X11230Y33840D01*
X11062Y33840D01*
X11111Y33913D01*
X11150Y34104D01*
X11150Y34395D01*
X11111Y34586D01*
X11019Y34725D01*
X16349Y34725D01*
X16350Y34612D01*
X16412Y34550D01*
X16850Y34550D01*
X16850Y34557D01*
X16950Y34557D01*
X16950Y34550D01*
X17387Y34550D01*
X17400Y34562D01*
X17412Y34550D01*
X17850Y34550D01*
X17850Y34557D01*
X17950Y34557D01*
X17950Y34550D01*
X18387Y34550D01*
X18400Y34562D01*
X18412Y34550D01*
X18850Y34550D01*
X18850Y34557D01*
X18950Y34557D01*
X18950Y34550D01*
X19387Y34550D01*
X19400Y34562D01*
X19412Y34550D01*
X19850Y34550D01*
X19850Y34557D01*
X19950Y34557D01*
X19950Y34550D01*
X20387Y34550D01*
X20450Y34612D01*
X20450Y34725D01*
X31899Y34725D01*
X31899Y34160D01*
X31930Y34086D01*
X31986Y34030D01*
X32060Y34000D01*
X32139Y33999D01*
X32157Y33999D01*
X32112Y33981D01*
X32084Y33885D01*
X32400Y33570D01*
X32405Y33576D01*
X32476Y33505D01*
X32470Y33500D01*
X32476Y33494D01*
X32405Y33423D01*
X32400Y33429D01*
X32329Y33358D01*
X32329Y33500D01*
X32014Y33815D01*
X31918Y33787D01*
X31845Y33581D01*
X31856Y33363D01*
X31918Y33212D01*
X32014Y33184D01*
X32329Y33500D01*
X32329Y33358D01*
X32084Y33114D01*
X32112Y33018D01*
X32237Y32973D01*
X32117Y32924D01*
X31976Y32783D01*
X31900Y32599D01*
X31899Y32400D01*
X31917Y32357D01*
X31630Y32069D01*
X31578Y31991D01*
X31559Y31899D01*
X31559Y31835D01*
X30399Y32994D01*
X30400Y33099D01*
X30324Y33282D01*
X30183Y33423D01*
X29999Y33499D01*
X29800Y33500D01*
X29617Y33424D01*
X29476Y33283D01*
X29400Y33099D01*
X29399Y32900D01*
X29475Y32717D01*
X29616Y32576D01*
X29800Y32500D01*
X29905Y32499D01*
X31050Y31355D01*
X31050Y30874D01*
X31031Y30881D01*
X30902Y30881D01*
X30782Y30832D01*
X30691Y30741D01*
X30641Y30621D01*
X30641Y30492D01*
X30691Y30372D01*
X30726Y30337D01*
X30726Y29880D01*
X30683Y29923D01*
X30499Y29999D01*
X30445Y29999D01*
X29847Y30597D01*
X29847Y30597D01*
X29250Y31194D01*
X29250Y32642D01*
X29323Y32716D01*
X29399Y32900D01*
X29400Y33099D01*
X29324Y33282D01*
X29183Y33423D01*
X28999Y33499D01*
X28800Y33500D01*
X28617Y33424D01*
X28476Y33283D01*
X28400Y33099D01*
X28400Y33098D01*
X28400Y33099D01*
X28324Y33282D01*
X28183Y33423D01*
X27999Y33499D01*
X27800Y33500D01*
X27617Y33424D01*
X27476Y33283D01*
X27400Y33099D01*
X27400Y33039D01*
X27400Y33339D01*
X27369Y33413D01*
X27313Y33469D01*
X27239Y33499D01*
X27160Y33500D01*
X26560Y33500D01*
X26486Y33469D01*
X26430Y33413D01*
X26400Y33339D01*
X26399Y33260D01*
X26399Y32660D01*
X26430Y32586D01*
X26486Y32530D01*
X26560Y32500D01*
X26639Y32499D01*
X27239Y32499D01*
X27313Y32530D01*
X27369Y32586D01*
X27399Y32660D01*
X27400Y32739D01*
X27400Y32900D01*
X27475Y32717D01*
X27616Y32576D01*
X27800Y32500D01*
X27999Y32499D01*
X28182Y32575D01*
X28323Y32716D01*
X28399Y32900D01*
X28400Y33099D01*
X28400Y33098D01*
X28399Y32900D01*
X28475Y32717D01*
X28550Y32642D01*
X28550Y31050D01*
X28576Y30916D01*
X28652Y30802D01*
X29352Y30102D01*
X29352Y30102D01*
X29455Y29999D01*
X29300Y30000D01*
X29117Y29924D01*
X28976Y29783D01*
X28900Y29599D01*
X28899Y29400D01*
X28920Y29352D01*
X28885Y29366D01*
X28899Y29400D01*
X28900Y29599D01*
X28824Y29782D01*
X28683Y29923D01*
X28499Y29999D01*
X28300Y30000D01*
X28117Y29924D01*
X27976Y29783D01*
X27929Y29671D01*
X27881Y29787D01*
X27785Y29815D01*
X27715Y29744D01*
X27715Y29885D01*
X27687Y29981D01*
X27481Y30054D01*
X27263Y30043D01*
X27112Y29981D01*
X27084Y29885D01*
X27400Y29570D01*
X27715Y29885D01*
X27715Y29744D01*
X27470Y29500D01*
X27785Y29184D01*
X27881Y29212D01*
X27926Y29337D01*
X27975Y29217D01*
X28116Y29076D01*
X28300Y29000D01*
X28474Y28999D01*
X28474Y28985D01*
X28524Y28866D01*
X28615Y28774D01*
X28735Y28725D01*
X28864Y28724D01*
X28983Y28774D01*
X29019Y28810D01*
X29804Y28810D01*
X29803Y28738D01*
X29853Y28619D01*
X29944Y28527D01*
X30064Y28478D01*
X30114Y28478D01*
X30426Y28166D01*
X30426Y28116D01*
X30475Y27996D01*
X30566Y27905D01*
X30686Y27855D01*
X30747Y27855D01*
X30554Y27663D01*
X30396Y27663D01*
X30305Y27644D01*
X30227Y27592D01*
X30023Y27389D01*
X27715Y27389D01*
X27715Y29114D01*
X27400Y29429D01*
X27329Y29358D01*
X27329Y29500D01*
X27014Y29815D01*
X26918Y29787D01*
X26873Y29662D01*
X26824Y29782D01*
X26683Y29923D01*
X26499Y29999D01*
X26300Y30000D01*
X26117Y29924D01*
X25976Y29783D01*
X25929Y29671D01*
X25881Y29787D01*
X25785Y29815D01*
X25715Y29744D01*
X25715Y29885D01*
X25687Y29981D01*
X25481Y30054D01*
X25400Y30050D01*
X25400Y33099D01*
X25324Y33282D01*
X25183Y33423D01*
X24999Y33499D01*
X24800Y33500D01*
X24617Y33424D01*
X24476Y33283D01*
X24400Y33099D01*
X24400Y33098D01*
X24400Y33099D01*
X24324Y33282D01*
X24183Y33423D01*
X23999Y33499D01*
X23800Y33500D01*
X23617Y33424D01*
X23476Y33283D01*
X23400Y33099D01*
X23400Y33098D01*
X23400Y33099D01*
X23324Y33282D01*
X23183Y33423D01*
X22999Y33499D01*
X22800Y33500D01*
X22617Y33424D01*
X22476Y33283D01*
X22400Y33099D01*
X22400Y33039D01*
X22400Y33339D01*
X22369Y33413D01*
X22313Y33469D01*
X22239Y33499D01*
X22160Y33500D01*
X21560Y33500D01*
X21486Y33469D01*
X21430Y33413D01*
X21400Y33339D01*
X21399Y33260D01*
X21399Y32660D01*
X21430Y32586D01*
X21486Y32530D01*
X21560Y32500D01*
X21639Y32499D01*
X22239Y32499D01*
X22313Y32530D01*
X22369Y32586D01*
X22399Y32660D01*
X22400Y32739D01*
X22400Y32900D01*
X22475Y32717D01*
X22616Y32576D01*
X22800Y32500D01*
X22999Y32499D01*
X23182Y32575D01*
X23323Y32716D01*
X23399Y32900D01*
X23400Y33099D01*
X23400Y33098D01*
X23399Y32900D01*
X23475Y32717D01*
X23616Y32576D01*
X23800Y32500D01*
X23999Y32499D01*
X24182Y32575D01*
X24323Y32716D01*
X24399Y32900D01*
X24400Y33099D01*
X24400Y33098D01*
X24399Y32900D01*
X24475Y32717D01*
X24616Y32576D01*
X24800Y32500D01*
X24999Y32499D01*
X25182Y32575D01*
X25323Y32716D01*
X25399Y32900D01*
X25400Y33099D01*
X25400Y30050D01*
X25263Y30043D01*
X25112Y29981D01*
X25084Y29885D01*
X25400Y29570D01*
X25715Y29885D01*
X25715Y29744D01*
X25470Y29500D01*
X25785Y29184D01*
X25881Y29212D01*
X25926Y29337D01*
X25975Y29217D01*
X26116Y29076D01*
X26300Y29000D01*
X26499Y28999D01*
X26682Y29075D01*
X26823Y29216D01*
X26870Y29328D01*
X26918Y29212D01*
X27014Y29184D01*
X27329Y29500D01*
X27329Y29358D01*
X27084Y29114D01*
X27112Y29018D01*
X27318Y28945D01*
X27536Y28956D01*
X27687Y29018D01*
X27715Y29114D01*
X27715Y27389D01*
X25715Y27389D01*
X25715Y29114D01*
X25400Y29429D01*
X25084Y29114D01*
X25112Y29018D01*
X25318Y28945D01*
X25536Y28956D01*
X25687Y29018D01*
X25715Y29114D01*
X25715Y27389D01*
X24452Y27389D01*
X24452Y28999D01*
X24499Y28999D01*
X24682Y29075D01*
X24823Y29216D01*
X24870Y29328D01*
X24918Y29212D01*
X25014Y29184D01*
X25329Y29500D01*
X25014Y29815D01*
X24918Y29787D01*
X24873Y29662D01*
X24824Y29782D01*
X24683Y29923D01*
X24499Y29999D01*
X24300Y30000D01*
X24117Y29924D01*
X23976Y29783D01*
X23900Y29599D01*
X23900Y29598D01*
X23900Y29599D01*
X23824Y29782D01*
X23683Y29923D01*
X23499Y29999D01*
X23300Y30000D01*
X23117Y29924D01*
X22976Y29783D01*
X22900Y29599D01*
X22900Y29598D01*
X22900Y29599D01*
X22824Y29782D01*
X22683Y29923D01*
X22499Y29999D01*
X22300Y30000D01*
X22117Y29924D01*
X21976Y29783D01*
X21900Y29599D01*
X21900Y29598D01*
X21900Y29599D01*
X21824Y29782D01*
X21683Y29923D01*
X21499Y29999D01*
X21300Y30000D01*
X21117Y29924D01*
X20976Y29783D01*
X20900Y29599D01*
X20900Y29598D01*
X20900Y29599D01*
X20824Y29782D01*
X20683Y29923D01*
X20499Y29999D01*
X20450Y29999D01*
X20450Y34150D01*
X20450Y34387D01*
X20387Y34450D01*
X19950Y34450D01*
X19950Y34442D01*
X19850Y34442D01*
X19850Y34450D01*
X19412Y34450D01*
X19400Y34437D01*
X19387Y34450D01*
X18950Y34450D01*
X18950Y34442D01*
X18850Y34442D01*
X18850Y34450D01*
X18412Y34450D01*
X18400Y34437D01*
X18387Y34450D01*
X17950Y34450D01*
X17950Y34442D01*
X17850Y34442D01*
X17850Y34450D01*
X17412Y34450D01*
X17400Y34437D01*
X17387Y34450D01*
X16950Y34450D01*
X16950Y34442D01*
X16850Y34442D01*
X16850Y34450D01*
X16412Y34450D01*
X16350Y34387D01*
X16349Y34150D01*
X16387Y34058D01*
X16458Y33988D01*
X16550Y33950D01*
X16649Y33949D01*
X16679Y33949D01*
X16617Y33924D01*
X16476Y33783D01*
X16400Y33599D01*
X16399Y33400D01*
X16475Y33217D01*
X16616Y33076D01*
X16800Y33000D01*
X16999Y32999D01*
X17182Y33075D01*
X17323Y33216D01*
X17399Y33400D01*
X17400Y33599D01*
X17324Y33782D01*
X17183Y33923D01*
X17120Y33949D01*
X17150Y33949D01*
X17249Y33950D01*
X17341Y33988D01*
X17400Y34046D01*
X17458Y33988D01*
X17550Y33950D01*
X17649Y33949D01*
X17679Y33949D01*
X17617Y33924D01*
X17476Y33783D01*
X17400Y33599D01*
X17399Y33400D01*
X17475Y33217D01*
X17616Y33076D01*
X17800Y33000D01*
X17999Y32999D01*
X18182Y33075D01*
X18323Y33216D01*
X18399Y33400D01*
X18400Y33599D01*
X18324Y33782D01*
X18183Y33923D01*
X18120Y33949D01*
X18150Y33949D01*
X18249Y33950D01*
X18341Y33988D01*
X18400Y34046D01*
X18458Y33988D01*
X18550Y33950D01*
X18649Y33949D01*
X18679Y33949D01*
X18617Y33924D01*
X18476Y33783D01*
X18400Y33599D01*
X18399Y33400D01*
X18475Y33217D01*
X18616Y33076D01*
X18800Y33000D01*
X18999Y32999D01*
X19182Y33075D01*
X19323Y33216D01*
X19399Y33400D01*
X19400Y33599D01*
X19324Y33782D01*
X19183Y33923D01*
X19120Y33949D01*
X19150Y33949D01*
X19249Y33950D01*
X19341Y33988D01*
X19400Y34046D01*
X19458Y33988D01*
X19550Y33950D01*
X19649Y33949D01*
X19679Y33949D01*
X19617Y33924D01*
X19476Y33783D01*
X19400Y33599D01*
X19399Y33400D01*
X19475Y33217D01*
X19616Y33076D01*
X19800Y33000D01*
X19999Y32999D01*
X20182Y33075D01*
X20323Y33216D01*
X20399Y33400D01*
X20400Y33599D01*
X20324Y33782D01*
X20183Y33923D01*
X20120Y33949D01*
X20150Y33949D01*
X20249Y33950D01*
X20341Y33988D01*
X20412Y34058D01*
X20450Y34150D01*
X20450Y29999D01*
X20400Y30000D01*
X20400Y32599D01*
X20324Y32782D01*
X20183Y32923D01*
X19999Y32999D01*
X19800Y33000D01*
X19617Y32924D01*
X19476Y32783D01*
X19400Y32599D01*
X19400Y32598D01*
X19400Y32599D01*
X19324Y32782D01*
X19183Y32923D01*
X18999Y32999D01*
X18800Y33000D01*
X18617Y32924D01*
X18476Y32783D01*
X18400Y32599D01*
X18400Y32598D01*
X18400Y32599D01*
X18324Y32782D01*
X18183Y32923D01*
X17999Y32999D01*
X17800Y33000D01*
X17617Y32924D01*
X17476Y32783D01*
X17400Y32599D01*
X17400Y32598D01*
X17400Y32599D01*
X17324Y32782D01*
X17183Y32923D01*
X16999Y32999D01*
X16800Y33000D01*
X16617Y32924D01*
X16476Y32783D01*
X16400Y32599D01*
X16399Y32400D01*
X16475Y32217D01*
X16616Y32076D01*
X16800Y32000D01*
X16999Y31999D01*
X17182Y32075D01*
X17323Y32216D01*
X17399Y32400D01*
X17400Y32599D01*
X17400Y32598D01*
X17399Y32400D01*
X17475Y32217D01*
X17616Y32076D01*
X17800Y32000D01*
X17999Y31999D01*
X18182Y32075D01*
X18323Y32216D01*
X18399Y32400D01*
X18400Y32599D01*
X18400Y32598D01*
X18399Y32400D01*
X18475Y32217D01*
X18616Y32076D01*
X18800Y32000D01*
X18999Y31999D01*
X19182Y32075D01*
X19323Y32216D01*
X19399Y32400D01*
X19400Y32599D01*
X19400Y32598D01*
X19399Y32400D01*
X19475Y32217D01*
X19616Y32076D01*
X19800Y32000D01*
X19999Y31999D01*
X20182Y32075D01*
X20323Y32216D01*
X20399Y32400D01*
X20400Y32599D01*
X20400Y30000D01*
X20300Y30000D01*
X20117Y29924D01*
X19976Y29783D01*
X19929Y29671D01*
X19881Y29787D01*
X19785Y29815D01*
X19715Y29744D01*
X19715Y29885D01*
X19687Y29981D01*
X19481Y30054D01*
X19263Y30043D01*
X19112Y29981D01*
X19084Y29885D01*
X19400Y29570D01*
X19715Y29885D01*
X19715Y29744D01*
X19470Y29500D01*
X19785Y29184D01*
X19881Y29212D01*
X19926Y29337D01*
X19975Y29217D01*
X20116Y29076D01*
X20300Y29000D01*
X20499Y28999D01*
X20682Y29075D01*
X20823Y29216D01*
X20899Y29400D01*
X20900Y29599D01*
X20900Y29598D01*
X20899Y29400D01*
X20975Y29217D01*
X21116Y29076D01*
X21300Y29000D01*
X21499Y28999D01*
X21682Y29075D01*
X21823Y29216D01*
X21899Y29400D01*
X21900Y29599D01*
X21900Y29598D01*
X21899Y29400D01*
X21975Y29217D01*
X22116Y29076D01*
X22300Y29000D01*
X22499Y28999D01*
X22682Y29075D01*
X22823Y29216D01*
X22899Y29400D01*
X22900Y29599D01*
X22900Y29598D01*
X22899Y29400D01*
X22975Y29217D01*
X23116Y29076D01*
X23300Y29000D01*
X23499Y28999D01*
X23682Y29075D01*
X23823Y29216D01*
X23899Y29400D01*
X23900Y29599D01*
X23900Y29598D01*
X23899Y29400D01*
X23972Y29225D01*
X23972Y27248D01*
X23230Y26506D01*
X23178Y26428D01*
X23160Y26336D01*
X23160Y24941D01*
X23117Y24924D01*
X22976Y24783D01*
X22900Y24599D01*
X22899Y24400D01*
X22975Y24217D01*
X23116Y24076D01*
X23300Y24000D01*
X23499Y23999D01*
X23682Y24075D01*
X23738Y24131D01*
X23738Y23577D01*
X23591Y23675D01*
X23400Y23713D01*
X23208Y23675D01*
X23046Y23567D01*
X22938Y23405D01*
X22900Y23213D01*
X22861Y23405D01*
X22753Y23567D01*
X22591Y23675D01*
X22425Y23708D01*
X22569Y23852D01*
X22621Y23930D01*
X22639Y24022D01*
X22640Y24022D01*
X22640Y24058D01*
X22682Y24075D01*
X22823Y24216D01*
X22899Y24400D01*
X22900Y24599D01*
X22824Y24782D01*
X22683Y24923D01*
X22499Y24999D01*
X22300Y25000D01*
X22117Y24924D01*
X22073Y24880D01*
X22071Y24891D01*
X22019Y24969D01*
X22019Y24969D01*
X21819Y25169D01*
X21741Y25221D01*
X21650Y25240D01*
X20199Y25240D01*
X20190Y25249D01*
X20190Y27980D01*
X20225Y28015D01*
X20274Y28135D01*
X20275Y28264D01*
X20225Y28383D01*
X20134Y28475D01*
X20014Y28524D01*
X19885Y28525D01*
X19766Y28475D01*
X19715Y28424D01*
X19715Y29114D01*
X19400Y29429D01*
X19329Y29358D01*
X19329Y29500D01*
X19014Y29815D01*
X18918Y29787D01*
X18873Y29662D01*
X18824Y29782D01*
X18683Y29923D01*
X18499Y29999D01*
X18300Y30000D01*
X18117Y29924D01*
X17976Y29783D01*
X17929Y29671D01*
X17881Y29787D01*
X17785Y29815D01*
X17715Y29744D01*
X17715Y29885D01*
X17687Y29981D01*
X17481Y30054D01*
X17263Y30043D01*
X17112Y29981D01*
X17084Y29885D01*
X17400Y29570D01*
X17715Y29885D01*
X17715Y29744D01*
X17470Y29500D01*
X17785Y29184D01*
X17881Y29212D01*
X17926Y29337D01*
X17975Y29217D01*
X18116Y29076D01*
X18300Y29000D01*
X18499Y28999D01*
X18682Y29075D01*
X18823Y29216D01*
X18870Y29328D01*
X18918Y29212D01*
X19014Y29184D01*
X19329Y29500D01*
X19329Y29358D01*
X19084Y29114D01*
X19112Y29018D01*
X19318Y28945D01*
X19536Y28956D01*
X19687Y29018D01*
X19715Y29114D01*
X19715Y28424D01*
X19674Y28384D01*
X19625Y28264D01*
X19624Y28135D01*
X19674Y28016D01*
X19710Y27980D01*
X19710Y27824D01*
X19585Y27825D01*
X19466Y27775D01*
X19374Y27684D01*
X19325Y27564D01*
X19325Y27514D01*
X18730Y26919D01*
X18678Y26841D01*
X18660Y26750D01*
X18660Y24933D01*
X18499Y24999D01*
X18300Y25000D01*
X18140Y24933D01*
X18140Y27830D01*
X18175Y27865D01*
X18224Y27985D01*
X18225Y28114D01*
X18175Y28233D01*
X18084Y28325D01*
X17964Y28374D01*
X17835Y28375D01*
X17716Y28325D01*
X17715Y28324D01*
X17715Y29114D01*
X17400Y29429D01*
X17084Y29114D01*
X17112Y29018D01*
X17318Y28945D01*
X17536Y28956D01*
X17687Y29018D01*
X17715Y29114D01*
X17715Y28324D01*
X17624Y28234D01*
X17575Y28114D01*
X17574Y27985D01*
X17624Y27866D01*
X17660Y27830D01*
X17660Y24933D01*
X17499Y24999D01*
X17300Y25000D01*
X17140Y24933D01*
X17140Y27130D01*
X17175Y27165D01*
X17224Y27285D01*
X17225Y27414D01*
X17175Y27533D01*
X17084Y27625D01*
X16964Y27674D01*
X16835Y27675D01*
X16716Y27625D01*
X16624Y27534D01*
X16575Y27414D01*
X16574Y27285D01*
X16624Y27166D01*
X16660Y27130D01*
X16660Y24933D01*
X16499Y24999D01*
X16300Y25000D01*
X16117Y24924D01*
X15976Y24783D01*
X15900Y24599D01*
X15900Y24541D01*
X15900Y24541D01*
X15900Y24599D01*
X15841Y24740D01*
X15841Y28602D01*
X16257Y29017D01*
X16300Y29000D01*
X16499Y28999D01*
X16682Y29075D01*
X16823Y29216D01*
X16870Y29328D01*
X16918Y29212D01*
X17014Y29184D01*
X17329Y29500D01*
X17014Y29815D01*
X16918Y29787D01*
X16873Y29662D01*
X16824Y29782D01*
X16683Y29923D01*
X16499Y29999D01*
X16300Y30000D01*
X16117Y29924D01*
X15976Y29783D01*
X15900Y29599D01*
X15899Y29400D01*
X15917Y29357D01*
X15856Y29296D01*
X15899Y29400D01*
X15900Y29599D01*
X15824Y29782D01*
X15683Y29923D01*
X15499Y29999D01*
X15400Y30000D01*
X15400Y33099D01*
X15324Y33282D01*
X15183Y33423D01*
X14999Y33499D01*
X14800Y33500D01*
X14617Y33424D01*
X14476Y33283D01*
X14400Y33099D01*
X14400Y33098D01*
X14400Y33099D01*
X14324Y33282D01*
X14183Y33423D01*
X13999Y33499D01*
X13800Y33500D01*
X13617Y33424D01*
X13476Y33283D01*
X13400Y33099D01*
X13399Y32900D01*
X13475Y32717D01*
X13616Y32576D01*
X13800Y32500D01*
X13999Y32499D01*
X14182Y32575D01*
X14323Y32716D01*
X14399Y32900D01*
X14400Y33099D01*
X14400Y33098D01*
X14399Y32900D01*
X14475Y32717D01*
X14616Y32576D01*
X14800Y32500D01*
X14999Y32499D01*
X15182Y32575D01*
X15323Y32716D01*
X15399Y32900D01*
X15400Y33099D01*
X15400Y30000D01*
X15300Y30000D01*
X15117Y29924D01*
X14976Y29783D01*
X14900Y29599D01*
X14900Y29598D01*
X14900Y29599D01*
X14824Y29782D01*
X14683Y29923D01*
X14499Y29999D01*
X14300Y30000D01*
X14117Y29924D01*
X13976Y29783D01*
X13900Y29599D01*
X13900Y29598D01*
X13900Y29599D01*
X13824Y29782D01*
X13683Y29923D01*
X13499Y29999D01*
X13300Y30000D01*
X13117Y29924D01*
X12976Y29783D01*
X12900Y29599D01*
X12899Y29400D01*
X12975Y29217D01*
X13116Y29076D01*
X13300Y29000D01*
X13499Y28999D01*
X13682Y29075D01*
X13823Y29216D01*
X13899Y29400D01*
X13900Y29599D01*
X13900Y29598D01*
X13899Y29400D01*
X13975Y29217D01*
X14116Y29076D01*
X14300Y29000D01*
X14499Y28999D01*
X14682Y29075D01*
X14823Y29216D01*
X14899Y29400D01*
X14900Y29599D01*
X14900Y29598D01*
X14899Y29400D01*
X14975Y29217D01*
X15116Y29076D01*
X15300Y29000D01*
X15499Y28999D01*
X15603Y29043D01*
X15431Y28871D01*
X15379Y28793D01*
X15361Y28701D01*
X15361Y25000D01*
X15300Y25000D01*
X15117Y24924D01*
X15014Y24821D01*
X14743Y25092D01*
X14665Y25144D01*
X14573Y25162D01*
X14223Y25162D01*
X14131Y25144D01*
X14053Y25092D01*
X13784Y24822D01*
X13683Y24923D01*
X13499Y24999D01*
X13300Y25000D01*
X13117Y24924D01*
X12976Y24783D01*
X12900Y24599D01*
X12899Y24400D01*
X12975Y24217D01*
X13116Y24076D01*
X13135Y24068D01*
X13135Y23579D01*
X12991Y23675D01*
X12800Y23713D01*
X12615Y23676D01*
X12615Y24047D01*
X12682Y24075D01*
X12823Y24216D01*
X12899Y24400D01*
X12900Y24599D01*
X12824Y24782D01*
X12683Y24923D01*
X12499Y24999D01*
X12300Y25000D01*
X12117Y24924D01*
X11976Y24783D01*
X11900Y24599D01*
X11899Y24400D01*
X11975Y24217D01*
X12116Y24076D01*
X12135Y24068D01*
X12135Y23579D01*
X11991Y23675D01*
X11800Y23713D01*
X11615Y23676D01*
X11615Y24047D01*
X11682Y24075D01*
X11823Y24216D01*
X11899Y24400D01*
X11900Y24599D01*
X11824Y24782D01*
X11683Y24923D01*
X11499Y24999D01*
X11300Y25000D01*
X11117Y24924D01*
X10976Y24783D01*
X10900Y24599D01*
X10899Y24400D01*
X10975Y24217D01*
X11116Y24076D01*
X11135Y24068D01*
X11135Y23579D01*
X10991Y23675D01*
X10800Y23713D01*
X10615Y23676D01*
X10615Y24047D01*
X10682Y24075D01*
X10823Y24216D01*
X10899Y24400D01*
X10900Y24599D01*
X10824Y24782D01*
X10683Y24923D01*
X10499Y24999D01*
X10300Y25000D01*
X10117Y24924D01*
X9976Y24783D01*
X9900Y24599D01*
X9899Y24400D01*
X9975Y24217D01*
X10116Y24076D01*
X10135Y24068D01*
X10135Y23634D01*
X9964Y23727D01*
X9935Y23733D01*
X9850Y23684D01*
X9850Y23050D01*
X9857Y23050D01*
X9857Y22950D01*
X9850Y22950D01*
X9850Y22315D01*
X9935Y22266D01*
X9964Y22272D01*
X10135Y22365D01*
X10135Y22011D01*
X10153Y21919D01*
X10205Y21841D01*
X10605Y21441D01*
X10605Y21391D01*
X10655Y21271D01*
X10746Y21180D01*
X10865Y21130D01*
X10916Y21130D01*
X10900Y21089D01*
X10899Y21010D01*
X10899Y20419D01*
X8993Y22325D01*
X9153Y22432D01*
X9261Y22594D01*
X9275Y22663D01*
X9311Y22543D01*
X9446Y22375D01*
X9635Y22272D01*
X9664Y22266D01*
X9750Y22315D01*
X9750Y22950D01*
X9742Y22950D01*
X9742Y23050D01*
X9750Y23050D01*
X9750Y23684D01*
X9664Y23733D01*
X9635Y23727D01*
X9446Y23624D01*
X9311Y23456D01*
X9275Y23336D01*
X9261Y23405D01*
X9153Y23567D01*
X8991Y23675D01*
X8800Y23713D01*
X8653Y23684D01*
X8653Y23803D01*
X8604Y23922D01*
X8523Y24003D01*
X12144Y27624D01*
X12196Y27702D01*
X12214Y27794D01*
X12214Y28754D01*
X12225Y28765D01*
X12274Y28885D01*
X12275Y29010D01*
X12300Y29000D01*
X12499Y28999D01*
X12682Y29075D01*
X12823Y29216D01*
X12899Y29400D01*
X12900Y29599D01*
X12824Y29782D01*
X12683Y29923D01*
X12499Y29999D01*
X12300Y30000D01*
X12117Y29924D01*
X11976Y29783D01*
X11929Y29671D01*
X11881Y29787D01*
X11785Y29815D01*
X11715Y29744D01*
X11715Y29885D01*
X11687Y29981D01*
X11481Y30054D01*
X11263Y30043D01*
X11112Y29981D01*
X11084Y29885D01*
X11400Y29570D01*
X11715Y29885D01*
X11715Y29744D01*
X11470Y29500D01*
X11476Y29494D01*
X11405Y29423D01*
X11400Y29429D01*
X11329Y29358D01*
X11329Y29500D01*
X11014Y29815D01*
X10918Y29787D01*
X10879Y29678D01*
X10875Y29697D01*
X10833Y29760D01*
X10824Y29782D01*
X10807Y29799D01*
X10764Y29864D01*
X10511Y30116D01*
X10344Y30228D01*
X10147Y30267D01*
X9975Y30267D01*
X9975Y31414D01*
X9925Y31533D01*
X9834Y31625D01*
X9714Y31674D01*
X9585Y31675D01*
X9466Y31625D01*
X9416Y31576D01*
X9375Y31576D01*
X9375Y32364D01*
X9325Y32483D01*
X9290Y32519D01*
X9290Y32800D01*
X9274Y32875D01*
X9274Y32875D01*
X9275Y32964D01*
X9225Y33083D01*
X9134Y33175D01*
X9014Y33224D01*
X8885Y33225D01*
X8766Y33175D01*
X8674Y33084D01*
X8625Y32964D01*
X8624Y32835D01*
X8674Y32716D01*
X8765Y32624D01*
X8810Y32606D01*
X8810Y32519D01*
X8774Y32484D01*
X8725Y32364D01*
X8724Y32235D01*
X8774Y32116D01*
X8865Y32024D01*
X8985Y31975D01*
X9114Y31974D01*
X9233Y32024D01*
X9325Y32115D01*
X9374Y32235D01*
X9375Y32364D01*
X9375Y31576D01*
X8801Y31576D01*
X8765Y31611D01*
X8646Y31661D01*
X8517Y31661D01*
X8397Y31611D01*
X8306Y31520D01*
X8256Y31400D01*
X8256Y31271D01*
X8305Y31152D01*
X8397Y31060D01*
X8516Y31011D01*
X8645Y31011D01*
X8765Y31060D01*
X8801Y31096D01*
X9444Y31096D01*
X9465Y31074D01*
X9585Y31025D01*
X9714Y31024D01*
X9833Y31074D01*
X9925Y31165D01*
X9974Y31285D01*
X9975Y31414D01*
X9975Y30267D01*
X4902Y30267D01*
X4738Y30234D01*
X4705Y30228D01*
X4538Y30116D01*
X2835Y28414D01*
X2724Y28247D01*
X2685Y28050D01*
X2685Y22675D01*
X2171Y23188D01*
X2187Y23188D01*
X2261Y23218D01*
X2317Y23275D01*
X2347Y23348D01*
X2348Y23428D01*
X2348Y24373D01*
X2317Y24446D01*
X2261Y24502D01*
X2187Y24533D01*
X2108Y24533D01*
X1604Y24533D01*
X1571Y24566D01*
X1808Y24566D01*
X2056Y24668D01*
X2245Y24857D01*
X2347Y25104D01*
X2348Y25372D01*
X2348Y29122D01*
X2245Y29369D01*
X2150Y29465D01*
X2150Y31849D01*
X2150Y34099D01*
X2074Y34282D01*
X1933Y34423D01*
X1749Y34499D01*
X1550Y34500D01*
X1367Y34424D01*
X1226Y34283D01*
X1150Y34099D01*
X1149Y33900D01*
X1225Y33717D01*
X1366Y33576D01*
X1550Y33500D01*
X1610Y33500D01*
X1310Y33500D01*
X1236Y33469D01*
X1180Y33413D01*
X1150Y33339D01*
X1149Y33260D01*
X1149Y32660D01*
X1180Y32586D01*
X1236Y32530D01*
X1310Y32500D01*
X1389Y32499D01*
X1989Y32499D01*
X2063Y32530D01*
X2119Y32586D01*
X2149Y32660D01*
X2150Y32739D01*
X2150Y33339D01*
X2119Y33413D01*
X2063Y33469D01*
X1989Y33499D01*
X1910Y33500D01*
X1749Y33500D01*
X1932Y33575D01*
X2073Y33716D01*
X2149Y33900D01*
X2150Y34099D01*
X2150Y31849D01*
X2074Y32032D01*
X1933Y32173D01*
X1749Y32249D01*
X1550Y32250D01*
X1367Y32174D01*
X1226Y32033D01*
X1150Y31849D01*
X1149Y31650D01*
X1225Y31467D01*
X1366Y31326D01*
X1550Y31250D01*
X1610Y31250D01*
X1310Y31250D01*
X1236Y31219D01*
X1180Y31163D01*
X1150Y31089D01*
X1149Y31010D01*
X1149Y30410D01*
X1180Y30336D01*
X1236Y30280D01*
X1310Y30250D01*
X1389Y30249D01*
X1989Y30249D01*
X2063Y30280D01*
X2119Y30336D01*
X2149Y30410D01*
X2150Y30489D01*
X2150Y31089D01*
X2119Y31163D01*
X2063Y31219D01*
X1989Y31249D01*
X1910Y31250D01*
X1749Y31250D01*
X1932Y31325D01*
X2073Y31466D01*
X2149Y31650D01*
X2150Y31849D01*
X2150Y29465D01*
X2056Y29558D01*
X1809Y29661D01*
X1542Y29661D01*
X1295Y29559D01*
X1105Y29370D01*
X1003Y29123D01*
X1003Y28855D01*
X1105Y28608D01*
X1294Y28419D01*
X1541Y28316D01*
X1808Y28316D01*
X2056Y28418D01*
X2245Y28607D01*
X2347Y28854D01*
X2348Y29122D01*
X2348Y25372D01*
X2245Y25619D01*
X2056Y25808D01*
X1809Y25911D01*
X1542Y25911D01*
X1323Y25820D01*
X1323Y25879D01*
X1976Y26532D01*
X1976Y26532D01*
X1976Y26532D01*
X2068Y26670D01*
X2100Y26833D01*
X2100Y26833D01*
X2100Y26833D01*
X2100Y26938D01*
X2187Y26938D01*
X2261Y26968D01*
X2317Y27025D01*
X2347Y27098D01*
X2348Y27178D01*
X2348Y28123D01*
X2317Y28196D01*
X2261Y28252D01*
X2187Y28283D01*
X2108Y28283D01*
X1163Y28283D01*
X1090Y28253D01*
X1033Y28196D01*
X1003Y28123D01*
X1003Y28043D01*
X1003Y27098D01*
X1033Y27025D01*
X1089Y26969D01*
X1163Y26938D01*
X1179Y26938D01*
X597Y26356D01*
X505Y26218D01*
X473Y26055D01*
X473Y24638D01*
X505Y24475D01*
X597Y24338D01*
X1003Y23932D01*
X1003Y23348D01*
X1033Y23275D01*
X1089Y23219D01*
X1163Y23188D01*
X1242Y23188D01*
X1250Y23188D01*
X1250Y23083D01*
X1282Y22920D01*
X1375Y22782D01*
X2028Y22129D01*
X2028Y22070D01*
X1809Y22161D01*
X1542Y22161D01*
X1295Y22059D01*
X1105Y21870D01*
X1003Y21623D01*
X1003Y21355D01*
X1105Y21108D01*
X1294Y20919D01*
X1541Y20816D01*
X1779Y20816D01*
X1747Y20783D01*
X1163Y20783D01*
X1090Y20753D01*
X1033Y20696D01*
X1003Y20623D01*
X1003Y20543D01*
X1003Y19598D01*
X1033Y19525D01*
X1089Y19469D01*
X1163Y19438D01*
X1242Y19438D01*
X2187Y19438D01*
X2261Y19468D01*
X2317Y19525D01*
X2347Y19598D01*
X2348Y19678D01*
X2348Y20182D01*
X2685Y20519D01*
X2685Y19995D01*
X2685Y19413D01*
X2617Y19345D01*
X2605Y19341D01*
X2459Y19194D01*
X2380Y19003D01*
X2379Y18797D01*
X2458Y18605D01*
X2605Y18459D01*
X2796Y18380D01*
X3002Y18379D01*
X3194Y18458D01*
X3340Y18605D01*
X3345Y18617D01*
X3564Y18835D01*
X3564Y18835D01*
X3638Y18947D01*
X3675Y19002D01*
X3675Y19002D01*
X3714Y19199D01*
X3715Y19200D01*
X3715Y19995D01*
X3715Y27836D01*
X5115Y29237D01*
X5597Y29237D01*
X5545Y29093D01*
X5555Y28855D01*
X5627Y28682D01*
X5727Y28648D01*
X6079Y29000D01*
X6073Y29005D01*
X6144Y29076D01*
X6150Y29070D01*
X6155Y29076D01*
X6226Y29005D01*
X6220Y29000D01*
X6572Y28648D01*
X6672Y28682D01*
X6679Y28699D01*
X6683Y28688D01*
X6838Y28534D01*
X7040Y28450D01*
X7258Y28449D01*
X7461Y28533D01*
X7599Y28672D01*
X7599Y28610D01*
X7630Y28536D01*
X7686Y28480D01*
X7760Y28450D01*
X7839Y28449D01*
X8539Y28449D01*
X8613Y28480D01*
X8669Y28536D01*
X8699Y28610D01*
X8700Y28689D01*
X8700Y29237D01*
X9934Y29237D01*
X10035Y29135D01*
X10099Y29093D01*
X10116Y29076D01*
X10138Y29067D01*
X10202Y29024D01*
X10277Y29009D01*
X10300Y29000D01*
X10324Y29000D01*
X10400Y28985D01*
X10475Y28999D01*
X10499Y28999D01*
X10521Y29009D01*
X10597Y29024D01*
X10660Y29066D01*
X10682Y29075D01*
X10699Y29092D01*
X10764Y29135D01*
X10806Y29199D01*
X10823Y29216D01*
X10832Y29238D01*
X10875Y29302D01*
X10877Y29311D01*
X10918Y29212D01*
X11014Y29184D01*
X11329Y29500D01*
X11329Y29358D01*
X11084Y29114D01*
X11112Y29018D01*
X11318Y28945D01*
X11536Y28956D01*
X11625Y28992D01*
X11624Y28885D01*
X11674Y28766D01*
X11734Y28705D01*
X11734Y27894D01*
X11389Y27549D01*
X11389Y27550D01*
X11390Y27550D01*
X11390Y27980D01*
X11425Y28015D01*
X11474Y28135D01*
X11475Y28264D01*
X11425Y28383D01*
X11334Y28475D01*
X11214Y28524D01*
X11085Y28525D01*
X10966Y28475D01*
X10874Y28384D01*
X10825Y28264D01*
X10824Y28135D01*
X10874Y28016D01*
X10910Y27980D01*
X10910Y27649D01*
X7120Y23860D01*
X6995Y23860D01*
X7849Y24714D01*
X7901Y24792D01*
X7919Y24883D01*
X7919Y24883D01*
X7919Y25449D01*
X8539Y25449D01*
X8613Y25480D01*
X8669Y25536D01*
X8699Y25610D01*
X8700Y25689D01*
X8700Y26389D01*
X8669Y26463D01*
X8613Y26519D01*
X8539Y26549D01*
X8460Y26550D01*
X7919Y26550D01*
X7919Y26593D01*
X8901Y27574D01*
X8951Y27574D01*
X9071Y27624D01*
X9162Y27715D01*
X9212Y27835D01*
X9212Y27885D01*
X9471Y28144D01*
X9502Y28157D01*
X9594Y28248D01*
X9644Y28368D01*
X9644Y28497D01*
X9594Y28617D01*
X9503Y28708D01*
X9384Y28758D01*
X9254Y28758D01*
X9135Y28708D01*
X9043Y28617D01*
X8994Y28498D01*
X8994Y28368D01*
X9000Y28352D01*
X8872Y28225D01*
X8822Y28225D01*
X8703Y28175D01*
X8612Y28084D01*
X8562Y27964D01*
X8562Y27914D01*
X7510Y26862D01*
X7458Y26784D01*
X7439Y26692D01*
X7439Y26475D01*
X7259Y26549D01*
X7041Y26550D01*
X6838Y26466D01*
X6684Y26311D01*
X6679Y26301D01*
X6672Y26317D01*
X6572Y26351D01*
X6501Y26280D01*
X6501Y26422D01*
X6501Y28577D01*
X6150Y28929D01*
X5798Y28577D01*
X5832Y28477D01*
X6056Y28395D01*
X6294Y28405D01*
X6467Y28477D01*
X6501Y28577D01*
X6501Y26422D01*
X6467Y26522D01*
X6243Y26604D01*
X6005Y26594D01*
X5832Y26522D01*
X5798Y26422D01*
X6150Y26070D01*
X6501Y26422D01*
X6501Y26280D01*
X6220Y26000D01*
X6572Y25648D01*
X6672Y25682D01*
X6679Y25699D01*
X6683Y25688D01*
X6838Y25534D01*
X7040Y25450D01*
X7258Y25449D01*
X7439Y25524D01*
X7439Y24983D01*
X6501Y24044D01*
X6501Y25577D01*
X6150Y25929D01*
X6079Y25858D01*
X6079Y26000D01*
X5727Y26351D01*
X5627Y26317D01*
X5545Y26093D01*
X5555Y25855D01*
X5627Y25682D01*
X5727Y25648D01*
X6079Y26000D01*
X6079Y25858D01*
X5798Y25577D01*
X5832Y25477D01*
X6056Y25395D01*
X6294Y25405D01*
X6467Y25477D01*
X6501Y25577D01*
X6501Y24044D01*
X6194Y23738D01*
X6142Y23660D01*
X6124Y23568D01*
X6124Y23406D01*
X6099Y23466D01*
X5867Y23698D01*
X5564Y23824D01*
X5236Y23825D01*
X4933Y23699D01*
X4701Y23467D01*
X4575Y23164D01*
X4574Y22836D01*
X4700Y22533D01*
X4932Y22301D01*
X5235Y22175D01*
X5563Y22174D01*
X5866Y22300D01*
X6098Y22532D01*
X6129Y22606D01*
X6142Y22541D01*
X6194Y22463D01*
X6486Y22172D01*
X6486Y22172D01*
X6563Y22120D01*
X6655Y22102D01*
X6655Y22102D01*
X8087Y22102D01*
X8380Y21808D01*
X8316Y21781D01*
X8224Y21690D01*
X8175Y21570D01*
X8174Y21441D01*
X8224Y21322D01*
X8315Y21230D01*
X8435Y21181D01*
X8485Y21180D01*
X12133Y17533D01*
X12133Y17533D01*
X12211Y17481D01*
X12218Y17479D01*
X12218Y16469D01*
X12183Y16434D01*
X12134Y16314D01*
X12133Y16185D01*
X12183Y16066D01*
X12274Y15974D01*
X12394Y15925D01*
X12523Y15924D01*
X12642Y15974D01*
X12734Y16065D01*
X12783Y16185D01*
X12784Y16314D01*
X12734Y16433D01*
X12698Y16469D01*
X12698Y17483D01*
X12702Y17486D01*
X14309Y15879D01*
X14309Y15427D01*
X14327Y15335D01*
X14379Y15257D01*
X14582Y15054D01*
X14533Y15005D01*
X14483Y14886D01*
X14483Y14756D01*
X14533Y14637D01*
X14624Y14545D01*
X14743Y14496D01*
X14873Y14496D01*
X14992Y14545D01*
X15009Y14562D01*
X18652Y14562D01*
X18744Y14580D01*
X18822Y14632D01*
X19681Y15491D01*
X19720Y15491D01*
X14570Y10341D01*
X14518Y10264D01*
X14499Y10172D01*
X14499Y9878D01*
X14489Y9882D01*
X14410Y9883D01*
X13810Y9883D01*
X13740Y9854D01*
X12146Y11447D01*
X12055Y11508D01*
X11948Y11530D01*
X11863Y11530D01*
X11863Y16984D01*
X11813Y17103D01*
X11722Y17195D01*
X11603Y17244D01*
X11473Y17245D01*
X11354Y17195D01*
X11321Y17163D01*
X10260Y18224D01*
X10260Y18274D01*
X10211Y18394D01*
X10119Y18485D01*
X10000Y18535D01*
X9871Y18535D01*
X9751Y18485D01*
X9660Y18394D01*
X9610Y18275D01*
X9610Y18145D01*
X9659Y18026D01*
X9751Y17934D01*
X9870Y17885D01*
X9920Y17885D01*
X11055Y16750D01*
X11133Y16698D01*
X11225Y16679D01*
X11318Y16679D01*
X11353Y16644D01*
X11473Y16595D01*
X11602Y16594D01*
X11721Y16644D01*
X11813Y16735D01*
X11863Y16855D01*
X11863Y16984D01*
X11863Y11530D01*
X11129Y11530D01*
X11116Y11561D01*
X10961Y11715D01*
X10759Y11799D01*
X10541Y11800D01*
X10338Y11716D01*
X10297Y11675D01*
X10297Y12395D01*
X10288Y12651D01*
X10208Y12844D01*
X10103Y12882D01*
X9720Y12500D01*
X10103Y12117D01*
X10208Y12155D01*
X10297Y12395D01*
X10297Y11675D01*
X10184Y11561D01*
X10100Y11359D01*
X10099Y11141D01*
X10183Y10938D01*
X10272Y10850D01*
X10250Y10850D01*
X10158Y10812D01*
X10088Y10741D01*
X10050Y10649D01*
X10049Y10550D01*
X10050Y10362D01*
X10112Y10300D01*
X10056Y10300D01*
X9376Y10980D01*
X9376Y11915D01*
X9545Y11852D01*
X9801Y11861D01*
X9994Y11941D01*
X10032Y12046D01*
X9650Y12429D01*
X9644Y12423D01*
X9573Y12494D01*
X9579Y12500D01*
X9573Y12505D01*
X9644Y12576D01*
X9650Y12570D01*
X10032Y12953D01*
X9994Y13058D01*
X9754Y13147D01*
X9498Y13138D01*
X9376Y13087D01*
X9376Y15971D01*
X9531Y15906D01*
X9767Y15906D01*
X9985Y15996D01*
X10152Y16163D01*
X10243Y16381D01*
X10243Y16617D01*
X10153Y16835D01*
X9986Y17002D01*
X9768Y17093D01*
X9532Y17093D01*
X9333Y17011D01*
X9251Y17133D01*
X8823Y17562D01*
X8873Y17612D01*
X8922Y17731D01*
X8922Y17860D01*
X8873Y17980D01*
X8782Y18071D01*
X8700Y18106D01*
X8700Y19689D01*
X8700Y20389D01*
X8669Y20463D01*
X8613Y20519D01*
X8539Y20549D01*
X8460Y20550D01*
X7760Y20550D01*
X7686Y20519D01*
X7630Y20463D01*
X7600Y20389D01*
X7599Y20327D01*
X7461Y20465D01*
X7259Y20549D01*
X7041Y20550D01*
X6838Y20466D01*
X6684Y20311D01*
X6679Y20301D01*
X6672Y20317D01*
X6572Y20351D01*
X6501Y20280D01*
X6501Y20422D01*
X6467Y20522D01*
X6243Y20604D01*
X6005Y20594D01*
X5832Y20522D01*
X5798Y20422D01*
X6150Y20070D01*
X6501Y20422D01*
X6501Y20280D01*
X6220Y20000D01*
X6572Y19648D01*
X6672Y19682D01*
X6679Y19699D01*
X6683Y19688D01*
X6838Y19534D01*
X7040Y19450D01*
X7258Y19449D01*
X7461Y19533D01*
X7599Y19672D01*
X7599Y19610D01*
X7630Y19536D01*
X7686Y19480D01*
X7760Y19450D01*
X7839Y19449D01*
X8539Y19449D01*
X8613Y19480D01*
X8669Y19536D01*
X8699Y19610D01*
X8700Y19689D01*
X8700Y18106D01*
X8662Y18121D01*
X8533Y18121D01*
X8413Y18072D01*
X8378Y18036D01*
X7312Y18036D01*
X5894Y19454D01*
X6056Y19395D01*
X6294Y19405D01*
X6467Y19477D01*
X6501Y19577D01*
X6150Y19929D01*
X6144Y19923D01*
X6073Y19994D01*
X6079Y20000D01*
X5727Y20351D01*
X5627Y20317D01*
X5545Y20093D01*
X5555Y19855D01*
X5599Y19749D01*
X5538Y19810D01*
X5460Y19862D01*
X5368Y19881D01*
X4588Y19881D01*
X4496Y19862D01*
X4418Y19810D01*
X4217Y19610D01*
X4165Y19532D01*
X4147Y19440D01*
X4147Y19153D01*
X4165Y19062D01*
X4217Y18984D01*
X6103Y17098D01*
X6005Y17094D01*
X5832Y17022D01*
X5798Y16922D01*
X6150Y16570D01*
X6155Y16576D01*
X6226Y16505D01*
X6220Y16500D01*
X6572Y16148D01*
X6672Y16182D01*
X6679Y16199D01*
X6683Y16188D01*
X6838Y16034D01*
X7040Y15950D01*
X7258Y15949D01*
X7461Y16033D01*
X7599Y16172D01*
X7599Y16110D01*
X7630Y16036D01*
X7686Y15980D01*
X7760Y15950D01*
X7839Y15949D01*
X8526Y15949D01*
X8526Y10803D01*
X8558Y10641D01*
X8650Y10503D01*
X10161Y8992D01*
X10183Y8938D01*
X10338Y8784D01*
X10540Y8700D01*
X10758Y8699D01*
X10961Y8783D01*
X11115Y8938D01*
X11199Y9140D01*
X11200Y9358D01*
X11116Y9561D01*
X11027Y9649D01*
X11049Y9649D01*
X11141Y9687D01*
X11211Y9758D01*
X11249Y9850D01*
X11250Y9949D01*
X11250Y10137D01*
X11187Y10200D01*
X10700Y10200D01*
X10700Y10192D01*
X10600Y10192D01*
X10600Y10200D01*
X10592Y10200D01*
X10592Y10300D01*
X10600Y10300D01*
X10600Y10307D01*
X10700Y10307D01*
X10700Y10300D01*
X11187Y10300D01*
X11250Y10362D01*
X11250Y10550D01*
X11249Y10649D01*
X11211Y10741D01*
X11141Y10812D01*
X11049Y10850D01*
X11027Y10850D01*
X11115Y10938D01*
X11129Y10970D01*
X11832Y10970D01*
X12950Y9852D01*
X12796Y9748D01*
X12688Y9586D01*
X12650Y9395D01*
X12611Y9586D01*
X12503Y9748D01*
X12341Y9857D01*
X12150Y9895D01*
X11958Y9857D01*
X11796Y9748D01*
X11688Y9586D01*
X11650Y9395D01*
X11650Y9104D01*
X11688Y8913D01*
X11796Y8751D01*
X11958Y8642D01*
X12150Y8604D01*
X12341Y8642D01*
X12503Y8751D01*
X12611Y8913D01*
X12650Y9104D01*
X12688Y8913D01*
X12796Y8751D01*
X12958Y8642D01*
X13150Y8604D01*
X13341Y8642D01*
X13503Y8751D01*
X13611Y8913D01*
X13625Y8982D01*
X13649Y8977D01*
X13649Y8777D01*
X13680Y8703D01*
X13736Y8647D01*
X13810Y8617D01*
X13889Y8616D01*
X14289Y8616D01*
X14150Y8477D01*
X14129Y8446D01*
X13999Y8499D01*
X13800Y8500D01*
X13617Y8424D01*
X13476Y8283D01*
X13400Y8099D01*
X13399Y7900D01*
X13417Y7857D01*
X13356Y7796D01*
X13399Y7900D01*
X13400Y8099D01*
X13324Y8282D01*
X13183Y8423D01*
X12999Y8499D01*
X12800Y8500D01*
X12617Y8424D01*
X12476Y8283D01*
X12400Y8099D01*
X12400Y8098D01*
X12400Y8099D01*
X12324Y8282D01*
X12183Y8423D01*
X11999Y8499D01*
X11800Y8500D01*
X11617Y8424D01*
X11476Y8283D01*
X11400Y8099D01*
X11399Y7900D01*
X11475Y7717D01*
X11616Y7576D01*
X11800Y7500D01*
X11999Y7499D01*
X12182Y7575D01*
X12323Y7716D01*
X12399Y7900D01*
X12400Y8099D01*
X12400Y8098D01*
X12399Y7900D01*
X12475Y7717D01*
X12616Y7576D01*
X12800Y7500D01*
X12999Y7499D01*
X13103Y7543D01*
X12730Y7169D01*
X12678Y7091D01*
X12660Y7000D01*
X12660Y5824D01*
X12546Y5748D01*
X12438Y5586D01*
X12400Y5395D01*
X12400Y5722D01*
X12369Y5796D01*
X12313Y5852D01*
X12239Y5882D01*
X12160Y5883D01*
X11560Y5883D01*
X11486Y5852D01*
X11430Y5796D01*
X11400Y5722D01*
X11399Y5643D01*
X11399Y4777D01*
X11428Y4708D01*
X11400Y4713D01*
X11250Y4683D01*
X11208Y4675D01*
X11046Y4567D01*
X10938Y4405D01*
X10900Y4213D01*
X10861Y4405D01*
X10753Y4567D01*
X10591Y4675D01*
X10400Y4713D01*
X10208Y4675D01*
X10046Y4567D01*
X9938Y4405D01*
X9900Y4213D01*
X9900Y3786D01*
X9938Y3594D01*
X10046Y3432D01*
X10208Y3324D01*
X10400Y3286D01*
X10591Y3324D01*
X10753Y3432D01*
X10861Y3594D01*
X10900Y3786D01*
X10938Y3594D01*
X11046Y3432D01*
X11208Y3324D01*
X11400Y3286D01*
X11443Y3294D01*
X11418Y3287D01*
X11345Y3081D01*
X11356Y2863D01*
X11418Y2712D01*
X11514Y2684D01*
X11829Y3000D01*
X11823Y3005D01*
X11894Y3076D01*
X11900Y3070D01*
X11905Y3076D01*
X11976Y3005D01*
X11970Y3000D01*
X12285Y2684D01*
X12381Y2712D01*
X12426Y2837D01*
X12475Y2717D01*
X12616Y2576D01*
X12800Y2500D01*
X12999Y2499D01*
X13182Y2575D01*
X13323Y2716D01*
X13399Y2900D01*
X13400Y3099D01*
X13324Y3282D01*
X13301Y3305D01*
X13400Y3286D01*
X13498Y3305D01*
X13476Y3283D01*
X13400Y3099D01*
X13399Y2900D01*
X13475Y2717D01*
X13616Y2576D01*
X13800Y2500D01*
X13999Y2499D01*
X14182Y2575D01*
X14323Y2716D01*
X14399Y2900D01*
X14400Y3099D01*
X14324Y3282D01*
X14301Y3305D01*
X14400Y3286D01*
X14498Y3305D01*
X14476Y3283D01*
X14400Y3099D01*
X14399Y2900D01*
X14475Y2717D01*
X14616Y2576D01*
X14800Y2500D01*
X14999Y2499D01*
X15182Y2575D01*
X15323Y2716D01*
X15399Y2900D01*
X15400Y3099D01*
X15324Y3282D01*
X15312Y3294D01*
X15350Y3315D01*
X15350Y3950D01*
X15342Y3950D01*
X15342Y4050D01*
X15350Y4050D01*
X15350Y4684D01*
X15264Y4733D01*
X15235Y4727D01*
X15046Y4624D01*
X14911Y4456D01*
X14875Y4336D01*
X14861Y4405D01*
X14753Y4567D01*
X14640Y4643D01*
X14640Y5170D01*
X14639Y5170D01*
X14621Y5261D01*
X14590Y5308D01*
X14569Y5339D01*
X14569Y5339D01*
X14560Y5349D01*
X14560Y7632D01*
X14616Y7576D01*
X14800Y7500D01*
X14999Y7499D01*
X15076Y7531D01*
X15124Y7416D01*
X15215Y7324D01*
X15335Y7275D01*
X15464Y7274D01*
X15583Y7324D01*
X15675Y7415D01*
X15723Y7531D01*
X15800Y7500D01*
X15999Y7499D01*
X16182Y7575D01*
X16323Y7716D01*
X16399Y7900D01*
X16400Y8099D01*
X16324Y8282D01*
X16183Y8423D01*
X16140Y8441D01*
X16140Y8558D01*
X16182Y8575D01*
X16323Y8716D01*
X16399Y8900D01*
X16400Y9099D01*
X16324Y9282D01*
X16183Y9423D01*
X15999Y9499D01*
X15800Y9500D01*
X15696Y9456D01*
X15757Y9517D01*
X15800Y9500D01*
X15999Y9499D01*
X16182Y9575D01*
X16323Y9716D01*
X16399Y9900D01*
X16400Y10099D01*
X16324Y10282D01*
X16183Y10423D01*
X15999Y10499D01*
X15800Y10500D01*
X15617Y10424D01*
X15476Y10283D01*
X15400Y10099D01*
X15399Y9900D01*
X15417Y9857D01*
X14979Y9419D01*
X14979Y10072D01*
X16133Y11226D01*
X16182Y11177D01*
X16301Y11127D01*
X16352Y11127D01*
X16979Y10499D01*
X16800Y10500D01*
X16617Y10424D01*
X16476Y10283D01*
X16400Y10099D01*
X16399Y9900D01*
X16475Y9717D01*
X16616Y9576D01*
X16800Y9500D01*
X16999Y9499D01*
X17182Y9575D01*
X17242Y9635D01*
X17258Y9558D01*
X17310Y9480D01*
X17403Y9386D01*
X17403Y9386D01*
X17481Y9334D01*
X17520Y9327D01*
X17476Y9283D01*
X17400Y9099D01*
X17399Y8900D01*
X17475Y8717D01*
X17616Y8576D01*
X17660Y8558D01*
X17660Y8441D01*
X17617Y8424D01*
X17476Y8283D01*
X17400Y8099D01*
X17400Y8098D01*
X17400Y8099D01*
X17324Y8282D01*
X17183Y8423D01*
X17140Y8441D01*
X17140Y8558D01*
X17182Y8575D01*
X17323Y8716D01*
X17399Y8900D01*
X17400Y9099D01*
X17324Y9282D01*
X17183Y9423D01*
X16999Y9499D01*
X16800Y9500D01*
X16617Y9424D01*
X16476Y9283D01*
X16400Y9099D01*
X16399Y8900D01*
X16475Y8717D01*
X16616Y8576D01*
X16660Y8558D01*
X16660Y8441D01*
X16617Y8424D01*
X16476Y8283D01*
X16400Y8099D01*
X16399Y7900D01*
X16475Y7717D01*
X16616Y7576D01*
X16800Y7500D01*
X16999Y7499D01*
X17182Y7575D01*
X17323Y7716D01*
X17399Y7900D01*
X17400Y8099D01*
X17400Y8098D01*
X17399Y7900D01*
X17475Y7717D01*
X17616Y7576D01*
X17800Y7500D01*
X17999Y7499D01*
X18182Y7575D01*
X18323Y7716D01*
X18399Y7900D01*
X18400Y8099D01*
X18324Y8282D01*
X18183Y8423D01*
X18140Y8441D01*
X18140Y8558D01*
X18182Y8575D01*
X18323Y8716D01*
X18360Y8804D01*
X18660Y8504D01*
X18660Y8441D01*
X18617Y8424D01*
X18476Y8283D01*
X18400Y8099D01*
X18399Y7900D01*
X18475Y7717D01*
X18616Y7576D01*
X18800Y7500D01*
X18999Y7499D01*
X19160Y7566D01*
X19160Y4643D01*
X19046Y4567D01*
X18938Y4405D01*
X18900Y4213D01*
X18900Y3786D01*
X18938Y3594D01*
X19002Y3498D01*
X18999Y3499D01*
X18800Y3500D01*
X18617Y3424D01*
X18476Y3283D01*
X18429Y3171D01*
X18381Y3287D01*
X18285Y3315D01*
X18215Y3244D01*
X18215Y3385D01*
X18187Y3481D01*
X17981Y3554D01*
X17830Y3547D01*
X17861Y3594D01*
X17900Y3786D01*
X17900Y4213D01*
X17861Y4405D01*
X17753Y4567D01*
X17680Y4616D01*
X17680Y4824D01*
X17682Y4825D01*
X17823Y4966D01*
X17899Y5150D01*
X17900Y5349D01*
X17824Y5532D01*
X17683Y5673D01*
X17499Y5749D01*
X17300Y5750D01*
X17117Y5674D01*
X16976Y5533D01*
X16900Y5349D01*
X16900Y5289D01*
X16900Y5589D01*
X16869Y5663D01*
X16813Y5719D01*
X16739Y5749D01*
X16660Y5750D01*
X16060Y5750D01*
X15986Y5719D01*
X15930Y5663D01*
X15900Y5589D01*
X15899Y5510D01*
X15899Y4910D01*
X15930Y4836D01*
X15986Y4780D01*
X16060Y4750D01*
X16139Y4749D01*
X16349Y4749D01*
X16349Y4684D01*
X16264Y4733D01*
X16235Y4727D01*
X16046Y4624D01*
X15911Y4456D01*
X15900Y4419D01*
X15888Y4456D01*
X15753Y4624D01*
X15564Y4727D01*
X15535Y4733D01*
X15450Y4684D01*
X15450Y4050D01*
X15850Y4050D01*
X15950Y4050D01*
X16350Y4050D01*
X16350Y4057D01*
X16450Y4057D01*
X16450Y4050D01*
X16457Y4050D01*
X16457Y3950D01*
X16450Y3950D01*
X16450Y3315D01*
X16486Y3294D01*
X16476Y3283D01*
X16400Y3099D01*
X16400Y3098D01*
X16400Y3099D01*
X16324Y3282D01*
X16312Y3294D01*
X16350Y3315D01*
X16350Y3950D01*
X15950Y3950D01*
X15850Y3950D01*
X15450Y3950D01*
X15450Y3315D01*
X15486Y3294D01*
X15476Y3283D01*
X15400Y3099D01*
X15399Y2900D01*
X15475Y2717D01*
X15616Y2576D01*
X15800Y2500D01*
X15999Y2499D01*
X16182Y2575D01*
X16323Y2716D01*
X16399Y2900D01*
X16400Y3099D01*
X16400Y3098D01*
X16399Y2900D01*
X16475Y2717D01*
X16616Y2576D01*
X16800Y2500D01*
X16999Y2499D01*
X17182Y2575D01*
X17323Y2716D01*
X17370Y2828D01*
X17418Y2712D01*
X17514Y2684D01*
X17829Y3000D01*
X17823Y3005D01*
X17894Y3076D01*
X17900Y3070D01*
X18215Y3385D01*
X18215Y3244D01*
X17970Y3000D01*
X18285Y2684D01*
X18381Y2712D01*
X18426Y2837D01*
X18475Y2717D01*
X18616Y2576D01*
X18800Y2500D01*
X18999Y2499D01*
X19182Y2575D01*
X19323Y2716D01*
X19370Y2828D01*
X19418Y2712D01*
X19514Y2684D01*
X19829Y3000D01*
X19823Y3005D01*
X19894Y3076D01*
X19900Y3070D01*
X19905Y3076D01*
X19976Y3005D01*
X19970Y3000D01*
X19976Y2994D01*
X19905Y2923D01*
X19900Y2929D01*
X19584Y2614D01*
X19612Y2518D01*
X19818Y2445D01*
X20036Y2456D01*
X20176Y2513D01*
X20215Y2474D01*
X20335Y2425D01*
X20464Y2424D01*
X20583Y2474D01*
X20665Y2555D01*
X20800Y2500D01*
X20999Y2499D01*
X21182Y2575D01*
X21323Y2716D01*
X21368Y2825D01*
X21375Y2830D01*
X21413Y2867D01*
X21475Y2717D01*
X21616Y2576D01*
X21800Y2500D01*
X21999Y2499D01*
X22182Y2575D01*
X22323Y2716D01*
X22399Y2900D01*
X22400Y3099D01*
X22324Y3282D01*
X22301Y3305D01*
X22400Y3286D01*
X22498Y3305D01*
X22476Y3283D01*
X22400Y3099D01*
X22399Y2900D01*
X22475Y2717D01*
X22616Y2576D01*
X22800Y2500D01*
X22999Y2499D01*
X23182Y2575D01*
X23323Y2716D01*
X23399Y2900D01*
X23400Y3099D01*
X23390Y3121D01*
X23409Y3121D01*
X23400Y3099D01*
X23399Y2900D01*
X23475Y2717D01*
X23616Y2576D01*
X23800Y2500D01*
X23999Y2499D01*
X24182Y2575D01*
X24323Y2716D01*
X24399Y2900D01*
X24400Y3099D01*
X24387Y3130D01*
X24412Y3130D01*
X24400Y3099D01*
X24399Y2900D01*
X24475Y2717D01*
X24616Y2576D01*
X24800Y2500D01*
X24999Y2499D01*
X25182Y2575D01*
X25323Y2716D01*
X25370Y2828D01*
X25418Y2712D01*
X25514Y2684D01*
X25829Y3000D01*
X25823Y3005D01*
X25894Y3076D01*
X25900Y3070D01*
X25905Y3076D01*
X25976Y3005D01*
X25970Y3000D01*
X26285Y2684D01*
X26381Y2712D01*
X26426Y2837D01*
X26475Y2717D01*
X26616Y2576D01*
X26800Y2500D01*
X26999Y2499D01*
X27182Y2575D01*
X27323Y2716D01*
X27370Y2828D01*
X27418Y2712D01*
X27514Y2684D01*
X27829Y3000D01*
X27514Y3315D01*
X27418Y3287D01*
X27373Y3162D01*
X27324Y3282D01*
X27183Y3423D01*
X26999Y3499D01*
X26800Y3500D01*
X26797Y3498D01*
X26861Y3594D01*
X26900Y3786D01*
X26900Y4213D01*
X26861Y4405D01*
X26753Y4567D01*
X26591Y4675D01*
X26400Y4713D01*
X26208Y4675D01*
X26046Y4567D01*
X25938Y4405D01*
X25900Y4213D01*
X25861Y4405D01*
X25753Y4567D01*
X25640Y4643D01*
X25640Y4676D01*
X28134Y7171D01*
X28160Y7145D01*
X28160Y4643D01*
X28046Y4567D01*
X27938Y4405D01*
X27900Y4213D01*
X27900Y3786D01*
X27938Y3594D01*
X27965Y3553D01*
X27763Y3543D01*
X27612Y3481D01*
X27584Y3385D01*
X27900Y3070D01*
X27905Y3076D01*
X27976Y3005D01*
X27970Y3000D01*
X28285Y2684D01*
X28381Y2712D01*
X28426Y2837D01*
X28475Y2717D01*
X28616Y2576D01*
X28800Y2500D01*
X28999Y2499D01*
X29182Y2575D01*
X29323Y2716D01*
X29366Y2818D01*
X29383Y2830D01*
X29415Y2862D01*
X29475Y2717D01*
X29616Y2576D01*
X29800Y2500D01*
X29999Y2499D01*
X30182Y2575D01*
X30323Y2716D01*
X30399Y2900D01*
X30400Y3099D01*
X30324Y3282D01*
X30301Y3305D01*
X30400Y3286D01*
X30498Y3305D01*
X30476Y3283D01*
X30400Y3099D01*
X30399Y2900D01*
X30475Y2717D01*
X30616Y2576D01*
X30800Y2500D01*
X30999Y2499D01*
X31182Y2575D01*
X31323Y2716D01*
X31399Y2900D01*
X31400Y3099D01*
X31381Y3143D01*
X31400Y3139D01*
X31416Y3139D01*
X31400Y3099D01*
X31399Y2900D01*
X31475Y2717D01*
X31616Y2576D01*
X31800Y2500D01*
X31999Y2499D01*
X32182Y2575D01*
X32323Y2716D01*
X32399Y2900D01*
X32400Y3099D01*
X32387Y3130D01*
X32412Y3130D01*
X32400Y3099D01*
X32399Y2900D01*
X32475Y2717D01*
X32616Y2576D01*
X32800Y2500D01*
X32999Y2499D01*
X33182Y2575D01*
X33323Y2716D01*
X33370Y2828D01*
X33418Y2712D01*
X33514Y2684D01*
X33829Y3000D01*
X33823Y3005D01*
X33894Y3076D01*
X33900Y3070D01*
X33905Y3076D01*
X33976Y3005D01*
X33970Y3000D01*
X33976Y2994D01*
X33905Y2923D01*
X33900Y2929D01*
X33584Y2614D01*
X33612Y2518D01*
X33818Y2445D01*
X34036Y2456D01*
X34106Y2485D01*
X34106Y1271D01*
G54D10*
G36*
X34619Y14450D02*
X34499Y14499D01*
X34300Y14500D01*
X34117Y14424D01*
X33976Y14283D01*
X33900Y14099D01*
X33899Y13900D01*
X33943Y13796D01*
X33882Y13857D01*
X33899Y13900D01*
X33900Y14099D01*
X33824Y14282D01*
X33683Y14423D01*
X33571Y14470D01*
X33687Y14518D01*
X33715Y14614D01*
X33400Y14929D01*
X33394Y14923D01*
X33323Y14994D01*
X33329Y15000D01*
X33014Y15315D01*
X32918Y15287D01*
X32845Y15081D01*
X32850Y14983D01*
X31230Y16603D01*
X31218Y16611D01*
X31323Y16716D01*
X31399Y16900D01*
X31400Y17099D01*
X31324Y17282D01*
X31183Y17423D01*
X30999Y17499D01*
X30800Y17500D01*
X30617Y17424D01*
X30476Y17283D01*
X30400Y17099D01*
X30399Y16900D01*
X30417Y16857D01*
X30370Y16810D01*
X30362Y16810D01*
X30399Y16900D01*
X30400Y17099D01*
X30324Y17282D01*
X30183Y17423D01*
X29999Y17499D01*
X29800Y17500D01*
X29680Y17450D01*
X28183Y18947D01*
X28183Y18948D01*
X29785Y18948D01*
X32403Y16330D01*
X32403Y16330D01*
X32481Y16278D01*
X32572Y16260D01*
X32966Y16260D01*
X32900Y16099D01*
X32899Y15900D01*
X32975Y15717D01*
X33116Y15576D01*
X33228Y15529D01*
X33112Y15481D01*
X33084Y15385D01*
X33400Y15070D01*
X33715Y15385D01*
X33687Y15481D01*
X33562Y15526D01*
X33682Y15575D01*
X33823Y15716D01*
X33899Y15900D01*
X33900Y16099D01*
X33856Y16203D01*
X33917Y16142D01*
X33900Y16099D01*
X33899Y15900D01*
X33975Y15717D01*
X34116Y15576D01*
X34300Y15500D01*
X34499Y15499D01*
X34619Y15549D01*
X34619Y15450D01*
X34499Y15499D01*
X34300Y15500D01*
X34117Y15424D01*
X33976Y15283D01*
X33929Y15171D01*
X33881Y15287D01*
X33785Y15315D01*
X33470Y15000D01*
X33785Y14684D01*
X33881Y14712D01*
X33926Y14837D01*
X33975Y14717D01*
X34116Y14576D01*
X34300Y14500D01*
X34499Y14499D01*
X34619Y14549D01*
X34619Y14450D01*
X34619Y14450D01*
G37*
G54D40*
X34619Y14450D02*
X34499Y14499D01*
X34300Y14500D01*
X34117Y14424D01*
X33976Y14283D01*
X33900Y14099D01*
X33899Y13900D01*
X33943Y13796D01*
X33882Y13857D01*
X33899Y13900D01*
X33900Y14099D01*
X33824Y14282D01*
X33683Y14423D01*
X33571Y14470D01*
X33687Y14518D01*
X33715Y14614D01*
X33400Y14929D01*
X33394Y14923D01*
X33323Y14994D01*
X33329Y15000D01*
X33014Y15315D01*
X32918Y15287D01*
X32845Y15081D01*
X32850Y14983D01*
X31230Y16603D01*
X31218Y16611D01*
X31323Y16716D01*
X31399Y16900D01*
X31400Y17099D01*
X31324Y17282D01*
X31183Y17423D01*
X30999Y17499D01*
X30800Y17500D01*
X30617Y17424D01*
X30476Y17283D01*
X30400Y17099D01*
X30399Y16900D01*
X30417Y16857D01*
X30370Y16810D01*
X30362Y16810D01*
X30399Y16900D01*
X30400Y17099D01*
X30324Y17282D01*
X30183Y17423D01*
X29999Y17499D01*
X29800Y17500D01*
X29680Y17450D01*
X28183Y18947D01*
X28183Y18948D01*
X29785Y18948D01*
X32403Y16330D01*
X32403Y16330D01*
X32481Y16278D01*
X32572Y16260D01*
X32966Y16260D01*
X32900Y16099D01*
X32899Y15900D01*
X32975Y15717D01*
X33116Y15576D01*
X33228Y15529D01*
X33112Y15481D01*
X33084Y15385D01*
X33400Y15070D01*
X33715Y15385D01*
X33687Y15481D01*
X33562Y15526D01*
X33682Y15575D01*
X33823Y15716D01*
X33899Y15900D01*
X33900Y16099D01*
X33856Y16203D01*
X33917Y16142D01*
X33900Y16099D01*
X33899Y15900D01*
X33975Y15717D01*
X34116Y15576D01*
X34300Y15500D01*
X34499Y15499D01*
X34619Y15549D01*
X34619Y15450D01*
X34499Y15499D01*
X34300Y15500D01*
X34117Y15424D01*
X33976Y15283D01*
X33929Y15171D01*
X33881Y15287D01*
X33785Y15315D01*
X33470Y15000D01*
X33785Y14684D01*
X33881Y14712D01*
X33926Y14837D01*
X33975Y14717D01*
X34116Y14576D01*
X34300Y14500D01*
X34499Y14499D01*
X34619Y14549D01*
X34619Y14450D01*
G54D10*
G36*
X37476Y5994D02*
X37405Y5923D01*
X37400Y5929D01*
X37394Y5923D01*
X37323Y5994D01*
X37329Y6000D01*
X37079Y6250D01*
X37079Y6250D01*
X37069Y6264D01*
X37069Y6264D01*
X36744Y6589D01*
X36715Y6608D01*
X36823Y6716D01*
X36899Y6900D01*
X36900Y7099D01*
X36833Y7260D01*
X36966Y7260D01*
X36900Y7099D01*
X36899Y6900D01*
X36975Y6717D01*
X37116Y6576D01*
X37228Y6529D01*
X37112Y6481D01*
X37084Y6385D01*
X37400Y6070D01*
X37405Y6076D01*
X37476Y6005D01*
X37470Y6000D01*
X37476Y5994D01*
X37476Y5994D01*
G37*
G54D40*
X37476Y5994D02*
X37405Y5923D01*
X37400Y5929D01*
X37394Y5923D01*
X37323Y5994D01*
X37329Y6000D01*
X37079Y6250D01*
X37079Y6250D01*
X37069Y6264D01*
X37069Y6264D01*
X36744Y6589D01*
X36715Y6608D01*
X36823Y6716D01*
X36899Y6900D01*
X36900Y7099D01*
X36833Y7260D01*
X36966Y7260D01*
X36900Y7099D01*
X36899Y6900D01*
X36975Y6717D01*
X37116Y6576D01*
X37228Y6529D01*
X37112Y6481D01*
X37084Y6385D01*
X37400Y6070D01*
X37405Y6076D01*
X37476Y6005D01*
X37470Y6000D01*
X37476Y5994D01*
G54D10*
G36*
X37580Y27965D02*
X37407Y28000D01*
X37196Y28000D01*
X37005Y27961D01*
X36843Y27853D01*
X36734Y27691D01*
X36696Y27500D01*
X36734Y27308D01*
X36843Y27146D01*
X37005Y27038D01*
X37196Y27000D01*
X37005Y26961D01*
X36843Y26853D01*
X36734Y26691D01*
X36696Y26500D01*
X36734Y26308D01*
X36843Y26146D01*
X37005Y26038D01*
X37196Y26000D01*
X37005Y25961D01*
X36843Y25853D01*
X36752Y25717D01*
X36353Y26116D01*
X36398Y26146D01*
X36507Y26308D01*
X36545Y26500D01*
X36507Y26691D01*
X36398Y26853D01*
X36236Y26961D01*
X36045Y27000D01*
X36236Y27038D01*
X36398Y27146D01*
X36507Y27308D01*
X36545Y27500D01*
X36507Y27691D01*
X36398Y27853D01*
X36236Y27961D01*
X36045Y28000D01*
X36236Y28038D01*
X36398Y28146D01*
X36507Y28308D01*
X36545Y28500D01*
X36507Y28691D01*
X36398Y28853D01*
X36254Y28949D01*
X36283Y28949D01*
X36382Y28950D01*
X36474Y28988D01*
X36545Y29058D01*
X36583Y29150D01*
X36583Y29849D01*
X36545Y29941D01*
X36474Y30011D01*
X36382Y30049D01*
X36283Y30050D01*
X36012Y30050D01*
X35950Y29987D01*
X35950Y29550D01*
X36520Y29550D01*
X36583Y29612D01*
X36583Y29849D01*
X36583Y29150D01*
X36583Y29387D01*
X36520Y29450D01*
X35950Y29450D01*
X35950Y29442D01*
X35850Y29442D01*
X35850Y29450D01*
X35850Y29550D01*
X35850Y29987D01*
X35787Y30050D01*
X35516Y30050D01*
X35417Y30049D01*
X35400Y30042D01*
X35382Y30049D01*
X35283Y30050D01*
X35012Y30050D01*
X34950Y29987D01*
X34950Y29550D01*
X35279Y29550D01*
X35520Y29550D01*
X35850Y29550D01*
X35850Y29450D01*
X35520Y29450D01*
X35279Y29450D01*
X34950Y29450D01*
X34950Y29442D01*
X34850Y29442D01*
X34850Y29450D01*
X34850Y29550D01*
X34850Y29987D01*
X34787Y30050D01*
X34516Y30050D01*
X34417Y30049D01*
X34325Y30011D01*
X34254Y29941D01*
X34216Y29849D01*
X34217Y29612D01*
X34279Y29550D01*
X34850Y29550D01*
X34850Y29450D01*
X34279Y29450D01*
X34217Y29387D01*
X34216Y29150D01*
X34254Y29058D01*
X34325Y28988D01*
X34417Y28950D01*
X34516Y28949D01*
X34545Y28949D01*
X34401Y28853D01*
X34292Y28691D01*
X34254Y28500D01*
X34292Y28308D01*
X34401Y28146D01*
X34563Y28038D01*
X34754Y28000D01*
X34563Y27961D01*
X34401Y27853D01*
X34292Y27691D01*
X34254Y27500D01*
X34292Y27308D01*
X34401Y27146D01*
X34563Y27038D01*
X34754Y27000D01*
X34563Y26961D01*
X34401Y26853D01*
X34292Y26691D01*
X34254Y26500D01*
X34292Y26308D01*
X34338Y26240D01*
X34222Y26240D01*
X33954Y26507D01*
X33954Y29418D01*
X33943Y29636D01*
X33881Y29787D01*
X33785Y29815D01*
X33715Y29744D01*
X33470Y29500D01*
X33785Y29184D01*
X33881Y29212D01*
X33954Y29418D01*
X33954Y26507D01*
X33715Y26746D01*
X33219Y27242D01*
X33219Y27292D01*
X33170Y27411D01*
X33078Y27503D01*
X33063Y27509D01*
X33063Y29092D01*
X33084Y29114D01*
X33112Y29018D01*
X33318Y28945D01*
X33536Y28956D01*
X33687Y29018D01*
X33715Y29114D01*
X33400Y29429D01*
X33394Y29423D01*
X33323Y29494D01*
X33329Y29500D01*
X33323Y29505D01*
X33394Y29576D01*
X33400Y29570D01*
X33715Y29885D01*
X33687Y29981D01*
X33481Y30054D01*
X33263Y30043D01*
X33112Y29981D01*
X33084Y29885D01*
X33063Y29907D01*
X33063Y31000D01*
X33139Y30999D01*
X33739Y30999D01*
X33813Y31030D01*
X33869Y31086D01*
X33899Y31160D01*
X33899Y31160D01*
X33930Y31086D01*
X33986Y31030D01*
X34060Y31000D01*
X34139Y30999D01*
X34739Y30999D01*
X34813Y31030D01*
X34869Y31086D01*
X34899Y31160D01*
X34899Y31160D01*
X34930Y31086D01*
X34986Y31030D01*
X35060Y31000D01*
X35139Y30999D01*
X35739Y30999D01*
X35813Y31030D01*
X35869Y31086D01*
X35899Y31160D01*
X35899Y31160D01*
X35930Y31086D01*
X35986Y31030D01*
X36060Y31000D01*
X36139Y30999D01*
X36739Y30999D01*
X36813Y31030D01*
X36869Y31086D01*
X36878Y31108D01*
X36891Y31099D01*
X36938Y31068D01*
X36951Y31065D01*
X36986Y31030D01*
X37060Y31000D01*
X37139Y30999D01*
X37160Y30999D01*
X37160Y29113D01*
X37178Y29021D01*
X37230Y28943D01*
X37580Y28593D01*
X37580Y27965D01*
X37580Y27965D01*
G37*
G54D40*
X37580Y27965D02*
X37407Y28000D01*
X37196Y28000D01*
X37005Y27961D01*
X36843Y27853D01*
X36734Y27691D01*
X36696Y27500D01*
X36734Y27308D01*
X36843Y27146D01*
X37005Y27038D01*
X37196Y27000D01*
X37005Y26961D01*
X36843Y26853D01*
X36734Y26691D01*
X36696Y26500D01*
X36734Y26308D01*
X36843Y26146D01*
X37005Y26038D01*
X37196Y26000D01*
X37005Y25961D01*
X36843Y25853D01*
X36752Y25717D01*
X36353Y26116D01*
X36398Y26146D01*
X36507Y26308D01*
X36545Y26500D01*
X36507Y26691D01*
X36398Y26853D01*
X36236Y26961D01*
X36045Y27000D01*
X36236Y27038D01*
X36398Y27146D01*
X36507Y27308D01*
X36545Y27500D01*
X36507Y27691D01*
X36398Y27853D01*
X36236Y27961D01*
X36045Y28000D01*
X36236Y28038D01*
X36398Y28146D01*
X36507Y28308D01*
X36545Y28500D01*
X36507Y28691D01*
X36398Y28853D01*
X36254Y28949D01*
X36283Y28949D01*
X36382Y28950D01*
X36474Y28988D01*
X36545Y29058D01*
X36583Y29150D01*
X36583Y29849D01*
X36545Y29941D01*
X36474Y30011D01*
X36382Y30049D01*
X36283Y30050D01*
X36012Y30050D01*
X35950Y29987D01*
X35950Y29550D01*
X36520Y29550D01*
X36583Y29612D01*
X36583Y29849D01*
X36583Y29150D01*
X36583Y29387D01*
X36520Y29450D01*
X35950Y29450D01*
X35950Y29442D01*
X35850Y29442D01*
X35850Y29450D01*
X35850Y29550D01*
X35850Y29987D01*
X35787Y30050D01*
X35516Y30050D01*
X35417Y30049D01*
X35400Y30042D01*
X35382Y30049D01*
X35283Y30050D01*
X35012Y30050D01*
X34950Y29987D01*
X34950Y29550D01*
X35279Y29550D01*
X35520Y29550D01*
X35850Y29550D01*
X35850Y29450D01*
X35520Y29450D01*
X35279Y29450D01*
X34950Y29450D01*
X34950Y29442D01*
X34850Y29442D01*
X34850Y29450D01*
X34850Y29550D01*
X34850Y29987D01*
X34787Y30050D01*
X34516Y30050D01*
X34417Y30049D01*
X34325Y30011D01*
X34254Y29941D01*
X34216Y29849D01*
X34217Y29612D01*
X34279Y29550D01*
X34850Y29550D01*
X34850Y29450D01*
X34279Y29450D01*
X34217Y29387D01*
X34216Y29150D01*
X34254Y29058D01*
X34325Y28988D01*
X34417Y28950D01*
X34516Y28949D01*
X34545Y28949D01*
X34401Y28853D01*
X34292Y28691D01*
X34254Y28500D01*
X34292Y28308D01*
X34401Y28146D01*
X34563Y28038D01*
X34754Y28000D01*
X34563Y27961D01*
X34401Y27853D01*
X34292Y27691D01*
X34254Y27500D01*
X34292Y27308D01*
X34401Y27146D01*
X34563Y27038D01*
X34754Y27000D01*
X34563Y26961D01*
X34401Y26853D01*
X34292Y26691D01*
X34254Y26500D01*
X34292Y26308D01*
X34338Y26240D01*
X34222Y26240D01*
X33954Y26507D01*
X33954Y29418D01*
X33943Y29636D01*
X33881Y29787D01*
X33785Y29815D01*
X33715Y29744D01*
X33470Y29500D01*
X33785Y29184D01*
X33881Y29212D01*
X33954Y29418D01*
X33954Y26507D01*
X33715Y26746D01*
X33219Y27242D01*
X33219Y27292D01*
X33170Y27411D01*
X33078Y27503D01*
X33063Y27509D01*
X33063Y29092D01*
X33084Y29114D01*
X33112Y29018D01*
X33318Y28945D01*
X33536Y28956D01*
X33687Y29018D01*
X33715Y29114D01*
X33400Y29429D01*
X33394Y29423D01*
X33323Y29494D01*
X33329Y29500D01*
X33323Y29505D01*
X33394Y29576D01*
X33400Y29570D01*
X33715Y29885D01*
X33687Y29981D01*
X33481Y30054D01*
X33263Y30043D01*
X33112Y29981D01*
X33084Y29885D01*
X33063Y29907D01*
X33063Y31000D01*
X33139Y30999D01*
X33739Y30999D01*
X33813Y31030D01*
X33869Y31086D01*
X33899Y31160D01*
X33899Y31160D01*
X33930Y31086D01*
X33986Y31030D01*
X34060Y31000D01*
X34139Y30999D01*
X34739Y30999D01*
X34813Y31030D01*
X34869Y31086D01*
X34899Y31160D01*
X34899Y31160D01*
X34930Y31086D01*
X34986Y31030D01*
X35060Y31000D01*
X35139Y30999D01*
X35739Y30999D01*
X35813Y31030D01*
X35869Y31086D01*
X35899Y31160D01*
X35899Y31160D01*
X35930Y31086D01*
X35986Y31030D01*
X36060Y31000D01*
X36139Y30999D01*
X36739Y30999D01*
X36813Y31030D01*
X36869Y31086D01*
X36878Y31108D01*
X36891Y31099D01*
X36938Y31068D01*
X36951Y31065D01*
X36986Y31030D01*
X37060Y31000D01*
X37139Y30999D01*
X37160Y30999D01*
X37160Y29113D01*
X37178Y29021D01*
X37230Y28943D01*
X37580Y28593D01*
X37580Y27965D01*
G54D10*
G36*
X38919Y27932D02*
X38842Y27993D01*
X38634Y28051D01*
X38548Y27989D01*
X38548Y27550D01*
X38555Y27550D01*
X38555Y27450D01*
X38548Y27450D01*
X38548Y27010D01*
X38562Y27000D01*
X38548Y26989D01*
X38548Y26550D01*
X38555Y26550D01*
X38555Y26450D01*
X38548Y26450D01*
X38548Y26010D01*
X38562Y26000D01*
X38548Y25989D01*
X38548Y25550D01*
X38555Y25550D01*
X38555Y25450D01*
X38548Y25450D01*
X38548Y25010D01*
X38561Y25000D01*
X38548Y24987D01*
X38548Y24550D01*
X38555Y24550D01*
X38555Y24450D01*
X38548Y24450D01*
X38548Y24442D01*
X38448Y24442D01*
X38448Y24450D01*
X38440Y24450D01*
X38440Y24550D01*
X38448Y24550D01*
X38448Y24987D01*
X38434Y25000D01*
X38448Y25010D01*
X38448Y25450D01*
X38440Y25450D01*
X38440Y25550D01*
X38448Y25550D01*
X38448Y25989D01*
X38433Y26000D01*
X38448Y26010D01*
X38448Y26450D01*
X38440Y26450D01*
X38440Y26550D01*
X38448Y26550D01*
X38448Y26989D01*
X38433Y27000D01*
X38448Y27010D01*
X38448Y27450D01*
X38440Y27450D01*
X38440Y27550D01*
X38448Y27550D01*
X38448Y27989D01*
X38361Y28051D01*
X38153Y27993D01*
X38060Y27920D01*
X38060Y28632D01*
X38116Y28576D01*
X38300Y28500D01*
X38499Y28499D01*
X38542Y28517D01*
X38919Y28140D01*
X38919Y27932D01*
X38919Y27932D01*
G37*
G54D40*
X38919Y27932D02*
X38842Y27993D01*
X38634Y28051D01*
X38548Y27989D01*
X38548Y27550D01*
X38555Y27550D01*
X38555Y27450D01*
X38548Y27450D01*
X38548Y27010D01*
X38562Y27000D01*
X38548Y26989D01*
X38548Y26550D01*
X38555Y26550D01*
X38555Y26450D01*
X38548Y26450D01*
X38548Y26010D01*
X38562Y26000D01*
X38548Y25989D01*
X38548Y25550D01*
X38555Y25550D01*
X38555Y25450D01*
X38548Y25450D01*
X38548Y25010D01*
X38561Y25000D01*
X38548Y24987D01*
X38548Y24550D01*
X38555Y24550D01*
X38555Y24450D01*
X38548Y24450D01*
X38548Y24442D01*
X38448Y24442D01*
X38448Y24450D01*
X38440Y24450D01*
X38440Y24550D01*
X38448Y24550D01*
X38448Y24987D01*
X38434Y25000D01*
X38448Y25010D01*
X38448Y25450D01*
X38440Y25450D01*
X38440Y25550D01*
X38448Y25550D01*
X38448Y25989D01*
X38433Y26000D01*
X38448Y26010D01*
X38448Y26450D01*
X38440Y26450D01*
X38440Y26550D01*
X38448Y26550D01*
X38448Y26989D01*
X38433Y27000D01*
X38448Y27010D01*
X38448Y27450D01*
X38440Y27450D01*
X38440Y27550D01*
X38448Y27550D01*
X38448Y27989D01*
X38361Y28051D01*
X38153Y27993D01*
X38060Y27920D01*
X38060Y28632D01*
X38116Y28576D01*
X38300Y28500D01*
X38499Y28499D01*
X38542Y28517D01*
X38919Y28140D01*
X38919Y27932D01*
G54D10*
G36*
X39125Y28614D02*
X38954Y28784D01*
X38954Y33418D01*
X38943Y33636D01*
X38881Y33787D01*
X38785Y33815D01*
X38715Y33744D01*
X38715Y33885D01*
X38687Y33981D01*
X38481Y34054D01*
X38263Y34043D01*
X38112Y33981D01*
X38084Y33885D01*
X38400Y33570D01*
X38715Y33885D01*
X38715Y33744D01*
X38470Y33500D01*
X38785Y33184D01*
X38881Y33212D01*
X38954Y33418D01*
X38954Y28784D01*
X38882Y28857D01*
X38899Y28900D01*
X38900Y29099D01*
X38824Y29282D01*
X38683Y29423D01*
X38499Y29499D01*
X38439Y29499D01*
X38739Y29499D01*
X38813Y29530D01*
X38869Y29586D01*
X38899Y29660D01*
X38900Y29739D01*
X38900Y30339D01*
X38869Y30413D01*
X38813Y30469D01*
X38739Y30499D01*
X38660Y30500D01*
X38060Y30500D01*
X37986Y30469D01*
X37930Y30413D01*
X37900Y30339D01*
X37899Y30260D01*
X37899Y29660D01*
X37930Y29586D01*
X37986Y29530D01*
X38060Y29500D01*
X38139Y29499D01*
X38300Y29499D01*
X38117Y29424D01*
X37976Y29283D01*
X37900Y29099D01*
X37899Y28952D01*
X37640Y29212D01*
X37640Y30999D01*
X37739Y30999D01*
X37813Y31030D01*
X37869Y31086D01*
X37899Y31159D01*
X37900Y31160D01*
X37930Y31086D01*
X37986Y31030D01*
X38060Y31000D01*
X38139Y30999D01*
X38739Y30999D01*
X38813Y31030D01*
X38869Y31086D01*
X38899Y31160D01*
X38900Y31239D01*
X38900Y31839D01*
X38869Y31913D01*
X38813Y31969D01*
X38739Y31999D01*
X38660Y32000D01*
X38499Y32000D01*
X38682Y32075D01*
X38823Y32216D01*
X38899Y32400D01*
X38900Y32599D01*
X38824Y32782D01*
X38683Y32923D01*
X38571Y32970D01*
X38687Y33018D01*
X38715Y33114D01*
X38400Y33429D01*
X38329Y33358D01*
X38329Y33500D01*
X38014Y33815D01*
X37918Y33787D01*
X37901Y33739D01*
X37881Y33787D01*
X37785Y33815D01*
X37715Y33744D01*
X37715Y33885D01*
X37687Y33981D01*
X37481Y34054D01*
X37263Y34043D01*
X37112Y33981D01*
X37084Y33885D01*
X37400Y33570D01*
X37715Y33885D01*
X37715Y33744D01*
X37470Y33500D01*
X37785Y33184D01*
X37881Y33212D01*
X37898Y33260D01*
X37918Y33212D01*
X38014Y33184D01*
X38329Y33500D01*
X38329Y33358D01*
X38084Y33114D01*
X38112Y33018D01*
X38237Y32973D01*
X38117Y32924D01*
X37976Y32783D01*
X37900Y32599D01*
X37899Y32400D01*
X37975Y32217D01*
X38116Y32076D01*
X38300Y32000D01*
X38360Y32000D01*
X38060Y32000D01*
X37986Y31969D01*
X37930Y31913D01*
X37900Y31839D01*
X37900Y31839D01*
X37869Y31913D01*
X37813Y31969D01*
X37739Y31999D01*
X37660Y32000D01*
X37499Y32000D01*
X37682Y32075D01*
X37823Y32216D01*
X37899Y32400D01*
X37900Y32599D01*
X37824Y32782D01*
X37683Y32923D01*
X37571Y32970D01*
X37687Y33018D01*
X37715Y33114D01*
X37400Y33429D01*
X37329Y33358D01*
X37329Y33500D01*
X37014Y33815D01*
X36918Y33787D01*
X36901Y33739D01*
X36881Y33787D01*
X36785Y33815D01*
X36715Y33744D01*
X36715Y33885D01*
X36687Y33981D01*
X36481Y34054D01*
X36263Y34043D01*
X36112Y33981D01*
X36084Y33885D01*
X36400Y33570D01*
X36715Y33885D01*
X36715Y33744D01*
X36470Y33500D01*
X36785Y33184D01*
X36881Y33212D01*
X36898Y33260D01*
X36918Y33212D01*
X37014Y33184D01*
X37329Y33500D01*
X37329Y33358D01*
X37084Y33114D01*
X37112Y33018D01*
X37237Y32973D01*
X37117Y32924D01*
X36976Y32783D01*
X36900Y32599D01*
X36899Y32400D01*
X36975Y32217D01*
X37116Y32076D01*
X37300Y32000D01*
X37360Y32000D01*
X37060Y32000D01*
X36986Y31969D01*
X36930Y31913D01*
X36900Y31839D01*
X36900Y31839D01*
X36869Y31913D01*
X36813Y31969D01*
X36739Y31999D01*
X36660Y32000D01*
X36499Y32000D01*
X36682Y32075D01*
X36823Y32216D01*
X36899Y32400D01*
X36900Y32599D01*
X36824Y32782D01*
X36683Y32923D01*
X36571Y32970D01*
X36687Y33018D01*
X36715Y33114D01*
X36400Y33429D01*
X36329Y33358D01*
X36329Y33500D01*
X36014Y33815D01*
X35918Y33787D01*
X35901Y33739D01*
X35881Y33787D01*
X35785Y33815D01*
X35715Y33744D01*
X35715Y33885D01*
X35687Y33981D01*
X35481Y34054D01*
X35263Y34043D01*
X35112Y33981D01*
X35084Y33885D01*
X35400Y33570D01*
X35715Y33885D01*
X35715Y33744D01*
X35470Y33500D01*
X35785Y33184D01*
X35881Y33212D01*
X35898Y33260D01*
X35918Y33212D01*
X36014Y33184D01*
X36329Y33500D01*
X36329Y33358D01*
X36084Y33114D01*
X36112Y33018D01*
X36237Y32973D01*
X36117Y32924D01*
X35976Y32783D01*
X35900Y32599D01*
X35899Y32400D01*
X35975Y32217D01*
X36116Y32076D01*
X36300Y32000D01*
X36360Y32000D01*
X36060Y32000D01*
X35986Y31969D01*
X35930Y31913D01*
X35900Y31839D01*
X35900Y31839D01*
X35869Y31913D01*
X35813Y31969D01*
X35739Y31999D01*
X35660Y32000D01*
X35499Y32000D01*
X35682Y32075D01*
X35823Y32216D01*
X35899Y32400D01*
X35900Y32599D01*
X35824Y32782D01*
X35683Y32923D01*
X35571Y32970D01*
X35687Y33018D01*
X35715Y33114D01*
X35400Y33429D01*
X35329Y33358D01*
X35329Y33500D01*
X35014Y33815D01*
X34918Y33787D01*
X34901Y33739D01*
X34881Y33787D01*
X34785Y33815D01*
X34715Y33744D01*
X34715Y33885D01*
X34687Y33981D01*
X34481Y34054D01*
X34263Y34043D01*
X34112Y33981D01*
X34084Y33885D01*
X34400Y33570D01*
X34715Y33885D01*
X34715Y33744D01*
X34470Y33500D01*
X34785Y33184D01*
X34881Y33212D01*
X34898Y33260D01*
X34918Y33212D01*
X35014Y33184D01*
X35329Y33500D01*
X35329Y33358D01*
X35084Y33114D01*
X35112Y33018D01*
X35237Y32973D01*
X35117Y32924D01*
X34976Y32783D01*
X34900Y32599D01*
X34899Y32400D01*
X34975Y32217D01*
X35116Y32076D01*
X35300Y32000D01*
X35360Y32000D01*
X35060Y32000D01*
X34986Y31969D01*
X34930Y31913D01*
X34900Y31839D01*
X34900Y31839D01*
X34869Y31913D01*
X34813Y31969D01*
X34739Y31999D01*
X34660Y32000D01*
X34499Y32000D01*
X34682Y32075D01*
X34823Y32216D01*
X34899Y32400D01*
X34900Y32599D01*
X34824Y32782D01*
X34683Y32923D01*
X34571Y32970D01*
X34687Y33018D01*
X34715Y33114D01*
X34400Y33429D01*
X34329Y33358D01*
X34329Y33500D01*
X34014Y33815D01*
X33918Y33787D01*
X33901Y33739D01*
X33881Y33787D01*
X33785Y33815D01*
X33715Y33744D01*
X33715Y33885D01*
X33687Y33981D01*
X33481Y34054D01*
X33263Y34043D01*
X33112Y33981D01*
X33084Y33885D01*
X33400Y33570D01*
X33715Y33885D01*
X33715Y33744D01*
X33470Y33500D01*
X33785Y33184D01*
X33881Y33212D01*
X33898Y33260D01*
X33918Y33212D01*
X34014Y33184D01*
X34329Y33500D01*
X34329Y33358D01*
X34084Y33114D01*
X34112Y33018D01*
X34237Y32973D01*
X34117Y32924D01*
X33976Y32783D01*
X33900Y32599D01*
X33899Y32400D01*
X33975Y32217D01*
X34116Y32076D01*
X34300Y32000D01*
X34360Y32000D01*
X34060Y32000D01*
X33986Y31969D01*
X33930Y31913D01*
X33900Y31839D01*
X33900Y31839D01*
X33869Y31913D01*
X33813Y31969D01*
X33739Y31999D01*
X33660Y32000D01*
X33499Y32000D01*
X33682Y32075D01*
X33823Y32216D01*
X33899Y32400D01*
X33900Y32599D01*
X33824Y32782D01*
X33683Y32923D01*
X33571Y32970D01*
X33687Y33018D01*
X33715Y33114D01*
X33400Y33429D01*
X33394Y33423D01*
X33323Y33494D01*
X33329Y33500D01*
X33046Y33783D01*
X33041Y33804D01*
X32989Y33882D01*
X32989Y33882D01*
X32827Y34044D01*
X32869Y34086D01*
X32899Y34160D01*
X32900Y34239D01*
X32900Y34725D01*
X39125Y34725D01*
X39125Y34000D01*
X39125Y33000D01*
X39125Y30000D01*
X39125Y28614D01*
X39125Y28614D01*
G37*
G54D40*
X39125Y28614D02*
X38954Y28784D01*
X38954Y33418D01*
X38943Y33636D01*
X38881Y33787D01*
X38785Y33815D01*
X38715Y33744D01*
X38715Y33885D01*
X38687Y33981D01*
X38481Y34054D01*
X38263Y34043D01*
X38112Y33981D01*
X38084Y33885D01*
X38400Y33570D01*
X38715Y33885D01*
X38715Y33744D01*
X38470Y33500D01*
X38785Y33184D01*
X38881Y33212D01*
X38954Y33418D01*
X38954Y28784D01*
X38882Y28857D01*
X38899Y28900D01*
X38900Y29099D01*
X38824Y29282D01*
X38683Y29423D01*
X38499Y29499D01*
X38439Y29499D01*
X38739Y29499D01*
X38813Y29530D01*
X38869Y29586D01*
X38899Y29660D01*
X38900Y29739D01*
X38900Y30339D01*
X38869Y30413D01*
X38813Y30469D01*
X38739Y30499D01*
X38660Y30500D01*
X38060Y30500D01*
X37986Y30469D01*
X37930Y30413D01*
X37900Y30339D01*
X37899Y30260D01*
X37899Y29660D01*
X37930Y29586D01*
X37986Y29530D01*
X38060Y29500D01*
X38139Y29499D01*
X38300Y29499D01*
X38117Y29424D01*
X37976Y29283D01*
X37900Y29099D01*
X37899Y28952D01*
X37640Y29212D01*
X37640Y30999D01*
X37739Y30999D01*
X37813Y31030D01*
X37869Y31086D01*
X37899Y31159D01*
X37900Y31160D01*
X37930Y31086D01*
X37986Y31030D01*
X38060Y31000D01*
X38139Y30999D01*
X38739Y30999D01*
X38813Y31030D01*
X38869Y31086D01*
X38899Y31160D01*
X38900Y31239D01*
X38900Y31839D01*
X38869Y31913D01*
X38813Y31969D01*
X38739Y31999D01*
X38660Y32000D01*
X38499Y32000D01*
X38682Y32075D01*
X38823Y32216D01*
X38899Y32400D01*
X38900Y32599D01*
X38824Y32782D01*
X38683Y32923D01*
X38571Y32970D01*
X38687Y33018D01*
X38715Y33114D01*
X38400Y33429D01*
X38329Y33358D01*
X38329Y33500D01*
X38014Y33815D01*
X37918Y33787D01*
X37901Y33739D01*
X37881Y33787D01*
X37785Y33815D01*
X37715Y33744D01*
X37715Y33885D01*
X37687Y33981D01*
X37481Y34054D01*
X37263Y34043D01*
X37112Y33981D01*
X37084Y33885D01*
X37400Y33570D01*
X37715Y33885D01*
X37715Y33744D01*
X37470Y33500D01*
X37785Y33184D01*
X37881Y33212D01*
X37898Y33260D01*
X37918Y33212D01*
X38014Y33184D01*
X38329Y33500D01*
X38329Y33358D01*
X38084Y33114D01*
X38112Y33018D01*
X38237Y32973D01*
X38117Y32924D01*
X37976Y32783D01*
X37900Y32599D01*
X37899Y32400D01*
X37975Y32217D01*
X38116Y32076D01*
X38300Y32000D01*
X38360Y32000D01*
X38060Y32000D01*
X37986Y31969D01*
X37930Y31913D01*
X37900Y31839D01*
X37900Y31839D01*
X37869Y31913D01*
X37813Y31969D01*
X37739Y31999D01*
X37660Y32000D01*
X37499Y32000D01*
X37682Y32075D01*
X37823Y32216D01*
X37899Y32400D01*
X37900Y32599D01*
X37824Y32782D01*
X37683Y32923D01*
X37571Y32970D01*
X37687Y33018D01*
X37715Y33114D01*
X37400Y33429D01*
X37329Y33358D01*
X37329Y33500D01*
X37014Y33815D01*
X36918Y33787D01*
X36901Y33739D01*
X36881Y33787D01*
X36785Y33815D01*
X36715Y33744D01*
X36715Y33885D01*
X36687Y33981D01*
X36481Y34054D01*
X36263Y34043D01*
X36112Y33981D01*
X36084Y33885D01*
X36400Y33570D01*
X36715Y33885D01*
X36715Y33744D01*
X36470Y33500D01*
X36785Y33184D01*
X36881Y33212D01*
X36898Y33260D01*
X36918Y33212D01*
X37014Y33184D01*
X37329Y33500D01*
X37329Y33358D01*
X37084Y33114D01*
X37112Y33018D01*
X37237Y32973D01*
X37117Y32924D01*
X36976Y32783D01*
X36900Y32599D01*
X36899Y32400D01*
X36975Y32217D01*
X37116Y32076D01*
X37300Y32000D01*
X37360Y32000D01*
X37060Y32000D01*
X36986Y31969D01*
X36930Y31913D01*
X36900Y31839D01*
X36900Y31839D01*
X36869Y31913D01*
X36813Y31969D01*
X36739Y31999D01*
X36660Y32000D01*
X36499Y32000D01*
X36682Y32075D01*
X36823Y32216D01*
X36899Y32400D01*
X36900Y32599D01*
X36824Y32782D01*
X36683Y32923D01*
X36571Y32970D01*
X36687Y33018D01*
X36715Y33114D01*
X36400Y33429D01*
X36329Y33358D01*
X36329Y33500D01*
X36014Y33815D01*
X35918Y33787D01*
X35901Y33739D01*
X35881Y33787D01*
X35785Y33815D01*
X35715Y33744D01*
X35715Y33885D01*
X35687Y33981D01*
X35481Y34054D01*
X35263Y34043D01*
X35112Y33981D01*
X35084Y33885D01*
X35400Y33570D01*
X35715Y33885D01*
X35715Y33744D01*
X35470Y33500D01*
X35785Y33184D01*
X35881Y33212D01*
X35898Y33260D01*
X35918Y33212D01*
X36014Y33184D01*
X36329Y33500D01*
X36329Y33358D01*
X36084Y33114D01*
X36112Y33018D01*
X36237Y32973D01*
X36117Y32924D01*
X35976Y32783D01*
X35900Y32599D01*
X35899Y32400D01*
X35975Y32217D01*
X36116Y32076D01*
X36300Y32000D01*
X36360Y32000D01*
X36060Y32000D01*
X35986Y31969D01*
X35930Y31913D01*
X35900Y31839D01*
X35900Y31839D01*
X35869Y31913D01*
X35813Y31969D01*
X35739Y31999D01*
X35660Y32000D01*
X35499Y32000D01*
X35682Y32075D01*
X35823Y32216D01*
X35899Y32400D01*
X35900Y32599D01*
X35824Y32782D01*
X35683Y32923D01*
X35571Y32970D01*
X35687Y33018D01*
X35715Y33114D01*
X35400Y33429D01*
X35329Y33358D01*
X35329Y33500D01*
X35014Y33815D01*
X34918Y33787D01*
X34901Y33739D01*
X34881Y33787D01*
X34785Y33815D01*
X34715Y33744D01*
X34715Y33885D01*
X34687Y33981D01*
X34481Y34054D01*
X34263Y34043D01*
X34112Y33981D01*
X34084Y33885D01*
X34400Y33570D01*
X34715Y33885D01*
X34715Y33744D01*
X34470Y33500D01*
X34785Y33184D01*
X34881Y33212D01*
X34898Y33260D01*
X34918Y33212D01*
X35014Y33184D01*
X35329Y33500D01*
X35329Y33358D01*
X35084Y33114D01*
X35112Y33018D01*
X35237Y32973D01*
X35117Y32924D01*
X34976Y32783D01*
X34900Y32599D01*
X34899Y32400D01*
X34975Y32217D01*
X35116Y32076D01*
X35300Y32000D01*
X35360Y32000D01*
X35060Y32000D01*
X34986Y31969D01*
X34930Y31913D01*
X34900Y31839D01*
X34900Y31839D01*
X34869Y31913D01*
X34813Y31969D01*
X34739Y31999D01*
X34660Y32000D01*
X34499Y32000D01*
X34682Y32075D01*
X34823Y32216D01*
X34899Y32400D01*
X34900Y32599D01*
X34824Y32782D01*
X34683Y32923D01*
X34571Y32970D01*
X34687Y33018D01*
X34715Y33114D01*
X34400Y33429D01*
X34329Y33358D01*
X34329Y33500D01*
X34014Y33815D01*
X33918Y33787D01*
X33901Y33739D01*
X33881Y33787D01*
X33785Y33815D01*
X33715Y33744D01*
X33715Y33885D01*
X33687Y33981D01*
X33481Y34054D01*
X33263Y34043D01*
X33112Y33981D01*
X33084Y33885D01*
X33400Y33570D01*
X33715Y33885D01*
X33715Y33744D01*
X33470Y33500D01*
X33785Y33184D01*
X33881Y33212D01*
X33898Y33260D01*
X33918Y33212D01*
X34014Y33184D01*
X34329Y33500D01*
X34329Y33358D01*
X34084Y33114D01*
X34112Y33018D01*
X34237Y32973D01*
X34117Y32924D01*
X33976Y32783D01*
X33900Y32599D01*
X33899Y32400D01*
X33975Y32217D01*
X34116Y32076D01*
X34300Y32000D01*
X34360Y32000D01*
X34060Y32000D01*
X33986Y31969D01*
X33930Y31913D01*
X33900Y31839D01*
X33900Y31839D01*
X33869Y31913D01*
X33813Y31969D01*
X33739Y31999D01*
X33660Y32000D01*
X33499Y32000D01*
X33682Y32075D01*
X33823Y32216D01*
X33899Y32400D01*
X33900Y32599D01*
X33824Y32782D01*
X33683Y32923D01*
X33571Y32970D01*
X33687Y33018D01*
X33715Y33114D01*
X33400Y33429D01*
X33394Y33423D01*
X33323Y33494D01*
X33329Y33500D01*
X33046Y33783D01*
X33041Y33804D01*
X32989Y33882D01*
X32989Y33882D01*
X32827Y34044D01*
X32869Y34086D01*
X32899Y34160D01*
X32900Y34239D01*
X32900Y34725D01*
X39125Y34725D01*
X39125Y34000D01*
X39125Y33000D01*
X39125Y30000D01*
X39125Y28614D01*
G54D10*
G36*
X39125Y839D02*
X38630Y839D01*
X38630Y1673D01*
X38630Y2086D01*
X38630Y2186D01*
X38630Y2598D01*
X38567Y2661D01*
X38225Y2661D01*
X38225Y4163D01*
X38099Y4466D01*
X37867Y4698D01*
X37564Y4824D01*
X37236Y4825D01*
X36933Y4699D01*
X36715Y4482D01*
X36715Y5614D01*
X36400Y5929D01*
X36329Y5858D01*
X36329Y6000D01*
X36014Y6315D01*
X35918Y6287D01*
X35845Y6081D01*
X35856Y5863D01*
X35918Y5712D01*
X36014Y5684D01*
X36329Y6000D01*
X36329Y5858D01*
X36084Y5614D01*
X36112Y5518D01*
X36318Y5445D01*
X36536Y5456D01*
X36687Y5518D01*
X36715Y5614D01*
X36715Y4482D01*
X36701Y4467D01*
X36575Y4164D01*
X36574Y3836D01*
X36700Y3533D01*
X36932Y3301D01*
X37235Y3175D01*
X37563Y3174D01*
X37866Y3300D01*
X38098Y3532D01*
X38224Y3835D01*
X38225Y4163D01*
X38225Y2661D01*
X38138Y2661D01*
X38046Y2623D01*
X37976Y2552D01*
X37938Y2460D01*
X37937Y2361D01*
X37938Y2248D01*
X38000Y2186D01*
X38630Y2186D01*
X38630Y2086D01*
X38000Y2086D01*
X37938Y2023D01*
X37937Y1910D01*
X37938Y1811D01*
X37976Y1719D01*
X38046Y1648D01*
X38138Y1610D01*
X38567Y1611D01*
X38630Y1673D01*
X38630Y839D01*
X38148Y839D01*
X38074Y808D01*
X38018Y752D01*
X37988Y678D01*
X37987Y599D01*
X37987Y275D01*
X36863Y275D01*
X36863Y1910D01*
X36863Y2361D01*
X36862Y2460D01*
X36824Y2552D01*
X36754Y2623D01*
X36662Y2661D01*
X36233Y2661D01*
X36171Y2598D01*
X36171Y2186D01*
X36800Y2186D01*
X36863Y2248D01*
X36863Y2361D01*
X36863Y1910D01*
X36863Y2023D01*
X36800Y2086D01*
X36171Y2086D01*
X36171Y1673D01*
X36233Y1611D01*
X36662Y1610D01*
X36754Y1648D01*
X36824Y1719D01*
X36862Y1811D01*
X36863Y1910D01*
X36863Y275D01*
X36813Y275D01*
X36813Y678D01*
X36782Y752D01*
X36726Y808D01*
X36652Y838D01*
X36573Y839D01*
X35589Y839D01*
X35533Y815D01*
X35533Y1089D01*
X35502Y1163D01*
X35446Y1219D01*
X35372Y1249D01*
X35293Y1250D01*
X35252Y1250D01*
X35289Y1261D01*
X35457Y1396D01*
X35560Y1585D01*
X35566Y1614D01*
X35565Y1616D01*
X35579Y1610D01*
X36008Y1611D01*
X36071Y1673D01*
X36071Y2086D01*
X36063Y2086D01*
X36063Y2186D01*
X36071Y2186D01*
X36071Y2598D01*
X36008Y2661D01*
X35579Y2661D01*
X35487Y2623D01*
X35417Y2552D01*
X35379Y2460D01*
X35378Y2361D01*
X35379Y2248D01*
X35441Y2186D01*
X35379Y2186D01*
X35379Y2166D01*
X35289Y2238D01*
X35083Y2300D01*
X34950Y2300D01*
X34950Y1800D01*
X34957Y1800D01*
X34957Y1700D01*
X34950Y1700D01*
X34950Y1692D01*
X34850Y1692D01*
X34850Y1700D01*
X34842Y1700D01*
X34842Y1800D01*
X34850Y1800D01*
X34850Y2300D01*
X34717Y2300D01*
X34586Y2261D01*
X34586Y2605D01*
X34616Y2576D01*
X34800Y2500D01*
X34999Y2499D01*
X35182Y2575D01*
X35323Y2716D01*
X35399Y2900D01*
X35400Y3099D01*
X35324Y3282D01*
X35301Y3305D01*
X35400Y3286D01*
X35591Y3324D01*
X35753Y3432D01*
X35861Y3594D01*
X35900Y3786D01*
X35900Y4213D01*
X35861Y4405D01*
X35753Y4567D01*
X35634Y4646D01*
X35621Y4711D01*
X35569Y4789D01*
X35569Y4789D01*
X33719Y6639D01*
X33719Y7533D01*
X33800Y7500D01*
X33999Y7499D01*
X34182Y7575D01*
X34323Y7716D01*
X34399Y7900D01*
X34400Y8099D01*
X34324Y8282D01*
X34183Y8423D01*
X33999Y8499D01*
X33800Y8500D01*
X33719Y8466D01*
X33719Y8533D01*
X33800Y8500D01*
X33999Y8499D01*
X34182Y8575D01*
X34323Y8716D01*
X34363Y8811D01*
X34711Y8463D01*
X34617Y8424D01*
X34476Y8283D01*
X34400Y8099D01*
X34399Y7900D01*
X34475Y7717D01*
X34616Y7576D01*
X34800Y7500D01*
X34999Y7499D01*
X35182Y7575D01*
X35259Y7652D01*
X35259Y7283D01*
X35277Y7191D01*
X35329Y7113D01*
X36192Y6250D01*
X36270Y6198D01*
X36272Y6198D01*
X36400Y6070D01*
X36405Y6076D01*
X36476Y6005D01*
X36470Y6000D01*
X36698Y5772D01*
X36730Y5724D01*
X37044Y5410D01*
X37044Y5410D01*
X37122Y5358D01*
X37214Y5339D01*
X38400Y5339D01*
X38491Y5358D01*
X38569Y5410D01*
X38621Y5488D01*
X38624Y5499D01*
X38872Y5499D01*
X38946Y5530D01*
X39002Y5586D01*
X39032Y5660D01*
X39033Y5739D01*
X39033Y6339D01*
X39002Y6413D01*
X38946Y6469D01*
X38872Y6499D01*
X38793Y6500D01*
X38752Y6500D01*
X38789Y6511D01*
X38957Y6646D01*
X39060Y6835D01*
X39066Y6864D01*
X39017Y6950D01*
X38450Y6950D01*
X38450Y6942D01*
X38350Y6942D01*
X38350Y6950D01*
X38342Y6950D01*
X38342Y7050D01*
X38350Y7050D01*
X38350Y7057D01*
X38450Y7057D01*
X38450Y7050D01*
X39017Y7050D01*
X39066Y7135D01*
X39060Y7164D01*
X38957Y7353D01*
X38789Y7488D01*
X38669Y7524D01*
X38736Y7538D01*
X38898Y7646D01*
X39007Y7808D01*
X39045Y8000D01*
X39007Y8191D01*
X38898Y8353D01*
X38864Y8376D01*
X39125Y8637D01*
X39125Y2661D01*
X38792Y2661D01*
X38730Y2598D01*
X38730Y2186D01*
X38737Y2186D01*
X38737Y2086D01*
X38730Y2086D01*
X38730Y1673D01*
X38792Y1611D01*
X39125Y1610D01*
X39125Y839D01*
X39125Y839D01*
G37*
G54D40*
X39125Y839D02*
X38630Y839D01*
X38630Y1673D01*
X38630Y2086D01*
X38630Y2186D01*
X38630Y2598D01*
X38567Y2661D01*
X38225Y2661D01*
X38225Y4163D01*
X38099Y4466D01*
X37867Y4698D01*
X37564Y4824D01*
X37236Y4825D01*
X36933Y4699D01*
X36715Y4482D01*
X36715Y5614D01*
X36400Y5929D01*
X36329Y5858D01*
X36329Y6000D01*
X36014Y6315D01*
X35918Y6287D01*
X35845Y6081D01*
X35856Y5863D01*
X35918Y5712D01*
X36014Y5684D01*
X36329Y6000D01*
X36329Y5858D01*
X36084Y5614D01*
X36112Y5518D01*
X36318Y5445D01*
X36536Y5456D01*
X36687Y5518D01*
X36715Y5614D01*
X36715Y4482D01*
X36701Y4467D01*
X36575Y4164D01*
X36574Y3836D01*
X36700Y3533D01*
X36932Y3301D01*
X37235Y3175D01*
X37563Y3174D01*
X37866Y3300D01*
X38098Y3532D01*
X38224Y3835D01*
X38225Y4163D01*
X38225Y2661D01*
X38138Y2661D01*
X38046Y2623D01*
X37976Y2552D01*
X37938Y2460D01*
X37937Y2361D01*
X37938Y2248D01*
X38000Y2186D01*
X38630Y2186D01*
X38630Y2086D01*
X38000Y2086D01*
X37938Y2023D01*
X37937Y1910D01*
X37938Y1811D01*
X37976Y1719D01*
X38046Y1648D01*
X38138Y1610D01*
X38567Y1611D01*
X38630Y1673D01*
X38630Y839D01*
X38148Y839D01*
X38074Y808D01*
X38018Y752D01*
X37988Y678D01*
X37987Y599D01*
X37987Y275D01*
X36863Y275D01*
X36863Y1910D01*
X36863Y2361D01*
X36862Y2460D01*
X36824Y2552D01*
X36754Y2623D01*
X36662Y2661D01*
X36233Y2661D01*
X36171Y2598D01*
X36171Y2186D01*
X36800Y2186D01*
X36863Y2248D01*
X36863Y2361D01*
X36863Y1910D01*
X36863Y2023D01*
X36800Y2086D01*
X36171Y2086D01*
X36171Y1673D01*
X36233Y1611D01*
X36662Y1610D01*
X36754Y1648D01*
X36824Y1719D01*
X36862Y1811D01*
X36863Y1910D01*
X36863Y275D01*
X36813Y275D01*
X36813Y678D01*
X36782Y752D01*
X36726Y808D01*
X36652Y838D01*
X36573Y839D01*
X35589Y839D01*
X35533Y815D01*
X35533Y1089D01*
X35502Y1163D01*
X35446Y1219D01*
X35372Y1249D01*
X35293Y1250D01*
X35252Y1250D01*
X35289Y1261D01*
X35457Y1396D01*
X35560Y1585D01*
X35566Y1614D01*
X35565Y1616D01*
X35579Y1610D01*
X36008Y1611D01*
X36071Y1673D01*
X36071Y2086D01*
X36063Y2086D01*
X36063Y2186D01*
X36071Y2186D01*
X36071Y2598D01*
X36008Y2661D01*
X35579Y2661D01*
X35487Y2623D01*
X35417Y2552D01*
X35379Y2460D01*
X35378Y2361D01*
X35379Y2248D01*
X35441Y2186D01*
X35379Y2186D01*
X35379Y2166D01*
X35289Y2238D01*
X35083Y2300D01*
X34950Y2300D01*
X34950Y1800D01*
X34957Y1800D01*
X34957Y1700D01*
X34950Y1700D01*
X34950Y1692D01*
X34850Y1692D01*
X34850Y1700D01*
X34842Y1700D01*
X34842Y1800D01*
X34850Y1800D01*
X34850Y2300D01*
X34717Y2300D01*
X34586Y2261D01*
X34586Y2605D01*
X34616Y2576D01*
X34800Y2500D01*
X34999Y2499D01*
X35182Y2575D01*
X35323Y2716D01*
X35399Y2900D01*
X35400Y3099D01*
X35324Y3282D01*
X35301Y3305D01*
X35400Y3286D01*
X35591Y3324D01*
X35753Y3432D01*
X35861Y3594D01*
X35900Y3786D01*
X35900Y4213D01*
X35861Y4405D01*
X35753Y4567D01*
X35634Y4646D01*
X35621Y4711D01*
X35569Y4789D01*
X35569Y4789D01*
X33719Y6639D01*
X33719Y7533D01*
X33800Y7500D01*
X33999Y7499D01*
X34182Y7575D01*
X34323Y7716D01*
X34399Y7900D01*
X34400Y8099D01*
X34324Y8282D01*
X34183Y8423D01*
X33999Y8499D01*
X33800Y8500D01*
X33719Y8466D01*
X33719Y8533D01*
X33800Y8500D01*
X33999Y8499D01*
X34182Y8575D01*
X34323Y8716D01*
X34363Y8811D01*
X34711Y8463D01*
X34617Y8424D01*
X34476Y8283D01*
X34400Y8099D01*
X34399Y7900D01*
X34475Y7717D01*
X34616Y7576D01*
X34800Y7500D01*
X34999Y7499D01*
X35182Y7575D01*
X35259Y7652D01*
X35259Y7283D01*
X35277Y7191D01*
X35329Y7113D01*
X36192Y6250D01*
X36270Y6198D01*
X36272Y6198D01*
X36400Y6070D01*
X36405Y6076D01*
X36476Y6005D01*
X36470Y6000D01*
X36698Y5772D01*
X36730Y5724D01*
X37044Y5410D01*
X37044Y5410D01*
X37122Y5358D01*
X37214Y5339D01*
X38400Y5339D01*
X38491Y5358D01*
X38569Y5410D01*
X38621Y5488D01*
X38624Y5499D01*
X38872Y5499D01*
X38946Y5530D01*
X39002Y5586D01*
X39032Y5660D01*
X39033Y5739D01*
X39033Y6339D01*
X39002Y6413D01*
X38946Y6469D01*
X38872Y6499D01*
X38793Y6500D01*
X38752Y6500D01*
X38789Y6511D01*
X38957Y6646D01*
X39060Y6835D01*
X39066Y6864D01*
X39017Y6950D01*
X38450Y6950D01*
X38450Y6942D01*
X38350Y6942D01*
X38350Y6950D01*
X38342Y6950D01*
X38342Y7050D01*
X38350Y7050D01*
X38350Y7057D01*
X38450Y7057D01*
X38450Y7050D01*
X39017Y7050D01*
X39066Y7135D01*
X39060Y7164D01*
X38957Y7353D01*
X38789Y7488D01*
X38669Y7524D01*
X38736Y7538D01*
X38898Y7646D01*
X39007Y7808D01*
X39045Y8000D01*
X39007Y8191D01*
X38898Y8353D01*
X38864Y8376D01*
X39125Y8637D01*
X39125Y2661D01*
X38792Y2661D01*
X38730Y2598D01*
X38730Y2186D01*
X38737Y2186D01*
X38737Y2086D01*
X38730Y2086D01*
X38730Y1673D01*
X38792Y1611D01*
X39125Y1610D01*
X39125Y839D01*
M02*
