M48
INCH,TZ
T1C0.012
T2C0.020
T3C0.032
T4C0.039
T5C0.040
T6C0.045
T7C0.047
T8C0.049
T9C0.050
T10C0.055
T11C0.125
T12C0.149
%
G90
G05
T1
X8329Y23739
X8500Y21506
X8581Y31336
X8598Y17797
X8887Y27900
X8950Y32900
X9050Y32300
X9319Y28433
X9650Y31350
X9935Y18210
X10931Y21455
X11150Y28200
X11450Y33600
X11538Y16920
X11950Y28950
X12459Y17703
X12459Y16250
X13500Y1500
X14809Y14821
X15250Y8850
X15293Y15528
X15338Y15932
X15400Y7600
X16367Y11452
X16741Y15097
X16900Y27350
X17442Y17335
X17900Y28050
X19650Y27500
X19728Y11706
X19750Y750
X19843Y12392
X19916Y14375
X19950Y28200
X20400Y13244
X20400Y2750
X20400Y1000
X21474Y15189
X21652Y22184
X21930Y17066
X22920Y18263
X22993Y15190
X23886Y18106
X24030Y17776
X24156Y15732
X25151Y16535
X26148Y14773
X26395Y23797
X26900Y16588
X27445Y10663
X27721Y17725
X27737Y19518
X27964Y19188
X28126Y12674
X28379Y7386
X28761Y6976
X28800Y29050
X30070Y6433
X30129Y28803
X30154Y6894
X30539Y27178
X30686Y24930
X30751Y28181
X30967Y30557
X31019Y26352
X31226Y28343
X31475Y20952
X31487Y10646
X31574Y8500
X31700Y28825
X31831Y27274
X31958Y25225
X32093Y27057
X32238Y12013
X32517Y19877
X32895Y27228
X33096Y20076
X33837Y25496
X34070Y20974
X34145Y11694
X34193Y24891
X34608Y19717
X34675Y10000
X35265Y19218
X35583Y11474
X38412Y23760
X38911Y18434
T2
X4734Y19296
X7037Y32369
X10200Y6150
X13230Y11875
X13355Y19170
X20750Y28550
X24188Y17227
X24581Y27500
X25400Y10577
X25747Y20737
X29098Y28095
T3
X10400Y29500
X10400Y24500
X11400Y29500
X11400Y24500
X11900Y8000
X11900Y3000
X12400Y29500
X12400Y24500
X12900Y8000
X12900Y3000
X13400Y29500
X13400Y24500
X13900Y8000
X13900Y3000
X14400Y29500
X14400Y24500
X14900Y8000
X14900Y3000
X15400Y29500
X15400Y24500
X15900Y8000
X15900Y3000
X16400Y29500
X16400Y24500
X16900Y8000
X16900Y3000
X17400Y29500
X17400Y24500
X17900Y8000
X17900Y3000
X18400Y29500
X18400Y24500
X18900Y8000
X18900Y3000
X19400Y29500
X19400Y24500
X19900Y8000
X19900Y3000
X20400Y29500
X20400Y24500
X20900Y8000
X20900Y3000
X21400Y29500
X21400Y24500
X21900Y8000
X21900Y3000
X22400Y29500
X22400Y24500
X22900Y8000
X22900Y3000
X23400Y29500
X23400Y24500
X23900Y8000
X23900Y3000
X24400Y29500
X24400Y24500
X24900Y8000
X24900Y3000
X25400Y29500
X25400Y24500
X25900Y8000
X25900Y3000
X26400Y29500
X26400Y24500
X26900Y8000
X26900Y3000
X27400Y29500
X27400Y24500
X27900Y8000
X27900Y3000
X28400Y29500
X28400Y24500
X28900Y8000
X28900Y3000
X29400Y29500
X29400Y24500
X29900Y8000
X29900Y3000
X30400Y29500
X30400Y24500
X30900Y8000
X30900Y3000
X31400Y29500
X31400Y24500
X31900Y8000
X31900Y3000
X32400Y29500
X32400Y24500
X32900Y8000
X32900Y3000
X33400Y29500
X33400Y24500
X33900Y8000
X33900Y3000
X34900Y8000
X34900Y3000
T4
X7650Y34250
X8650Y34250
X9650Y34250
X9650Y16500
X9650Y12500
X10650Y34250
X11900Y5250
X12150Y9250
X12900Y5250
X13150Y9250
X13900Y5250
X14150Y9250
X24400Y15000
X24400Y14000
X24400Y13000
X25400Y15000
X25400Y14000
X25400Y13000
X34900Y29500
X34900Y28500
X34900Y27500
X34900Y26500
X34900Y25500
X34900Y24500
X34900Y1750
X34900Y750
X35900Y29500
X35900Y28500
X35900Y27500
X35900Y26500
X35900Y25500
X35900Y24500
X36121Y2136
X36121Y364
X37400Y27500
X37400Y26500
X37400Y25500
X37400Y24500
X38400Y27500
X38400Y26500
X38400Y25500
X38400Y24500
X38400Y23000
X38400Y22000
X38400Y21000
X38400Y20000
X38400Y19000
X38400Y18000
X38400Y17000
X38400Y16000
X38400Y15000
X38400Y14000
X38400Y13000
X38400Y12000
X38400Y11000
X38400Y10000
X38400Y9000
X38400Y8000
X38400Y7000
X38400Y6000
X38680Y2136
X38680Y364
T5
X1650Y34000
X1650Y33000
X1650Y31750
X1650Y30750
X2900Y18900
X6150Y29000
X6150Y26000
X6150Y20000
X6150Y16500
X6800Y23000
X7150Y29000
X7150Y26000
X7150Y20000
X7150Y16500
X7800Y23000
X8150Y29000
X8150Y26000
X8150Y20000
X8150Y16500
X8800Y23000
X9800Y23000
X10400Y4000
X10800Y23000
X11400Y21750
X11400Y20750
X11400Y4000
X11800Y23000
X11900Y33000
X11900Y1250
X12400Y21750
X12400Y20750
X12400Y4000
X12800Y23000
X12900Y33000
X12900Y1250
X13400Y21750
X13400Y20750
X13400Y4000
X13800Y23000
X13900Y33000
X14400Y4000
X14400Y1250
X14800Y23000
X14900Y33000
X15400Y4000
X15400Y1250
X15800Y23000
X15900Y10000
X15900Y9000
X16400Y5250
X16400Y4000
X16400Y1250
X16900Y34500
X16900Y33500
X16900Y32500
X16900Y10000
X16900Y9000
X17400Y23000
X17400Y5250
X17400Y4000
X17400Y1250
X17900Y34500
X17900Y33500
X17900Y32500
X17900Y10000
X17900Y9000
X18400Y23000
X18900Y34500
X18900Y33500
X18900Y32500
X18900Y21750
X18900Y20750
X19400Y23000
X19400Y4000
X19900Y34500
X19900Y33500
X19900Y32500
X19900Y21750
X19900Y20750
X20400Y23000
X20400Y4000
X20900Y21750
X20900Y20750
X21400Y23000
X21400Y4000
X21900Y33000
X21900Y9250
X21900Y1250
X22400Y23000
X22400Y4000
X22900Y33000
X22900Y1250
X23400Y23000
X23400Y4000
X23900Y33000
X23900Y10000
X23900Y9000
X23900Y1250
X24400Y23000
X24400Y4000
X24900Y33000
X24900Y10000
X24900Y9000
X24900Y1250
X25400Y4000
X25900Y10000
X25900Y9000
X26400Y23000
X26400Y4000
X26900Y33000
X26900Y21750
X26900Y20750
X27400Y23000
X27900Y33000
X27900Y21750
X27900Y20750
X28400Y23000
X28400Y4000
X28900Y33000
X28900Y21750
X28900Y20750
X29400Y23000
X29400Y4000
X29900Y33000
X29900Y17000
X29900Y16000
X29900Y15000
X29900Y14000
X29900Y13000
X29900Y1250
X30400Y23000
X30400Y4000
X30900Y21750
X30900Y20750
X30900Y17000
X30900Y16000
X30900Y15000
X30900Y14000
X30900Y13000
X30900Y1250
X31400Y23000
X31400Y4000
X31900Y10000
X31900Y9000
X31900Y1250
X32400Y34500
X32400Y33500
X32400Y32500
X32400Y31500
X32400Y23000
X32400Y4000
X32900Y10000
X32900Y9000
X32900Y1250
X33400Y33500
X33400Y32500
X33400Y31500
X33400Y23000
X33400Y18000
X33400Y17000
X33400Y16000
X33400Y15000
X33400Y14000
X33400Y13000
X33400Y4000
X33900Y10000
X33900Y9000
X34400Y33500
X34400Y32500
X34400Y31500
X34400Y18000
X34400Y17000
X34400Y16000
X34400Y15000
X34400Y14000
X34400Y13000
X34400Y4000
X35400Y33500
X35400Y32500
X35400Y31500
X35400Y4000
X36400Y33500
X36400Y32500
X36400Y31500
X36400Y23000
X36400Y22000
X36400Y21000
X36400Y20000
X36400Y19000
X36400Y18000
X36400Y17000
X36400Y16000
X36400Y15000
X36400Y14000
X36400Y13000
X36400Y12000
X36400Y11000
X36400Y10000
X36400Y9000
X36400Y8000
X36400Y7000
X36400Y6000
X37400Y33500
X37400Y32500
X37400Y31500
X37400Y23000
X37400Y22000
X37400Y21000
X37400Y20000
X37400Y19000
X37400Y18000
X37400Y17000
X37400Y16000
X37400Y15000
X37400Y14000
X37400Y13000
X37400Y12000
X37400Y11000
X37400Y10000
X37400Y9000
X37400Y8000
X37400Y7000
X37400Y6000
X38400Y33500
X38400Y32500
X38400Y31500
X38400Y30000
X38400Y29000
T6
X10650Y11250
X10650Y10250
X10650Y9250
T7
X1676Y28989
X1676Y27611
X1676Y25239
X1676Y23861
X1676Y21489
X1676Y20111
T8
X1900Y17500
X1900Y15500
T9
X4720Y10250
X5900Y7180
X5900Y2180
X6080Y13250
X8900Y5820
X8900Y820
T10
X1900Y12500
X1900Y10500
X1900Y7500
X1900Y5500
X1900Y3500
X1900Y1500
T11
X4900Y4000
X5400Y23000
X34900Y23000
X37400Y4000
T12
X5400Y11750
X7400Y6500
X7400Y1500
T0
M30
