G04 (created by PCBNEW (2013-07-07 BZR 4022)-stable) date 03/10/2013 01:20:31*
%MOIN*%
G04 Gerber Fmt 3.4, Leading zero omitted, Abs format*
%FSLAX34Y34*%
G01*
G70*
G90*
G04 APERTURE LIST*
%ADD10C,0.00590551*%
%ADD11R,0.055X0.075*%
%ADD12R,0.075X0.055*%
%ADD13C,0.08*%
%ADD14R,0.08X0.08*%
%ADD15R,0.0672X0.0672*%
%ADD16R,0.1617X0.083*%
%ADD17R,0.083X0.1617*%
%ADD18R,0.1224X0.083*%
%ADD19C,0.0987*%
%ADD20C,0.09*%
%ADD21R,0.09X0.09*%
%ADD22R,0.056X0.056*%
%ADD23O,0.08X0.12*%
%ADD24C,0.145*%
%ADD25R,0.1381X0.1381*%
%ADD26C,0.1381*%
%ADD27R,0.08X0.1066*%
%ADD28O,0.08X0.1066*%
%ADD29R,0.0987X0.08*%
%ADD30O,0.0987X0.08*%
%ADD31R,0.1184X0.075*%
%ADD32R,0.07X0.04*%
%ADD33R,0.04X0.065*%
%ADD34R,0.05X0.037*%
%ADD35R,0.037X0.05*%
%ADD36R,0.1066X0.08*%
%ADD37O,0.1066X0.08*%
%ADD38C,0.15*%
%ADD39C,0.169*%
%ADD40R,0.0857X0.081*%
%ADD41C,0.14*%
%ADD42C,0.114488*%
%ADD43R,0.114488X0.114488*%
G04 APERTURE END LIST*
G54D10*
G54D11*
X11125Y25500D03*
X10375Y25500D03*
G54D12*
X32400Y20875D03*
X32400Y21625D03*
X33400Y20875D03*
X33400Y21625D03*
X25900Y21875D03*
X25900Y21125D03*
X17900Y21875D03*
X17900Y21125D03*
X10400Y21875D03*
X10400Y21125D03*
X26900Y9625D03*
X26900Y10375D03*
X18900Y9625D03*
X18900Y10375D03*
X35300Y9575D03*
X35300Y10325D03*
X15400Y20375D03*
X15400Y19625D03*
X33400Y27375D03*
X33400Y26625D03*
G54D11*
X9775Y13000D03*
X9025Y13000D03*
G54D12*
X20400Y16375D03*
X20400Y15625D03*
X20400Y14375D03*
X20400Y13625D03*
X20400Y12375D03*
X20400Y11625D03*
X9400Y20375D03*
X9400Y19625D03*
G54D11*
X9125Y24500D03*
X8375Y24500D03*
X10275Y18500D03*
X9525Y18500D03*
G54D13*
X18900Y8000D03*
X17900Y8000D03*
X16900Y8000D03*
X15900Y8000D03*
X14900Y8000D03*
X13900Y8000D03*
X12900Y8000D03*
X11900Y8000D03*
X11900Y3000D03*
X12900Y3000D03*
X13900Y3000D03*
X14900Y3000D03*
X15900Y3000D03*
X16900Y3000D03*
X17900Y3000D03*
X18900Y3000D03*
X26900Y8000D03*
X25900Y8000D03*
X24900Y8000D03*
X23900Y8000D03*
X22900Y8000D03*
X21900Y8000D03*
X20900Y8000D03*
X19900Y8000D03*
X19900Y3000D03*
X20900Y3000D03*
X21900Y3000D03*
X22900Y3000D03*
X23900Y3000D03*
X24900Y3000D03*
X25900Y3000D03*
X26900Y3000D03*
X34900Y8000D03*
X33900Y8000D03*
X32900Y8000D03*
X31900Y8000D03*
X30900Y8000D03*
X29900Y8000D03*
X28900Y8000D03*
X27900Y8000D03*
X27900Y3000D03*
X28900Y3000D03*
X29900Y3000D03*
X30900Y3000D03*
X31900Y3000D03*
X32900Y3000D03*
X33900Y3000D03*
X34900Y3000D03*
X10400Y24500D03*
X11400Y24500D03*
X12400Y24500D03*
X13400Y24500D03*
X14400Y24500D03*
X15400Y24500D03*
X16400Y24500D03*
X17400Y24500D03*
X17400Y29500D03*
X16400Y29500D03*
X15400Y29500D03*
X14400Y29500D03*
X13400Y29500D03*
X12400Y29500D03*
X11400Y29500D03*
X10400Y29500D03*
X18400Y24500D03*
X19400Y24500D03*
X20400Y24500D03*
X21400Y24500D03*
X22400Y24500D03*
X23400Y24500D03*
X24400Y24500D03*
X25400Y24500D03*
X25400Y29500D03*
X24400Y29500D03*
X23400Y29500D03*
X22400Y29500D03*
X21400Y29500D03*
X20400Y29500D03*
X19400Y29500D03*
X18400Y29500D03*
G54D14*
X32400Y34500D03*
G54D13*
X32400Y33500D03*
X32400Y32500D03*
X32400Y31500D03*
G54D14*
X17900Y10000D03*
G54D13*
X17900Y9000D03*
X16900Y10000D03*
X16900Y9000D03*
X15900Y10000D03*
X15900Y9000D03*
G54D14*
X11400Y20750D03*
G54D13*
X11400Y21750D03*
X12400Y20750D03*
X12400Y21750D03*
X13400Y20750D03*
X13400Y21750D03*
G54D14*
X26900Y20750D03*
G54D13*
X26900Y21750D03*
X27900Y20750D03*
X27900Y21750D03*
X28900Y20750D03*
X28900Y21750D03*
G54D14*
X33900Y10000D03*
G54D13*
X33900Y9000D03*
X32900Y10000D03*
X32900Y9000D03*
X31900Y10000D03*
X31900Y9000D03*
G54D14*
X25900Y10000D03*
G54D13*
X25900Y9000D03*
X24900Y10000D03*
X24900Y9000D03*
X23900Y10000D03*
X23900Y9000D03*
G54D14*
X18900Y33500D03*
G54D13*
X18900Y32500D03*
X18900Y31500D03*
G54D14*
X33400Y31500D03*
G54D13*
X33400Y32500D03*
X33400Y33500D03*
G54D14*
X35400Y31500D03*
G54D13*
X35400Y32500D03*
X35400Y33500D03*
G54D14*
X36400Y31500D03*
G54D13*
X36400Y32500D03*
X36400Y33500D03*
G54D14*
X37400Y31500D03*
G54D13*
X37400Y32500D03*
X37400Y33500D03*
G54D14*
X38400Y31500D03*
G54D13*
X38400Y32500D03*
X38400Y33500D03*
G54D14*
X19900Y33500D03*
G54D13*
X19900Y32500D03*
X19900Y31500D03*
G54D14*
X34400Y31500D03*
G54D13*
X34400Y32500D03*
X34400Y33500D03*
G54D14*
X17900Y33500D03*
G54D13*
X17900Y32500D03*
X17900Y31500D03*
G54D14*
X16900Y33500D03*
G54D13*
X16900Y32500D03*
X16900Y31500D03*
G54D14*
X34400Y1250D03*
G54D15*
X4650Y20337D03*
X4650Y21163D03*
X4650Y18413D03*
X4650Y17587D03*
X4650Y24087D03*
X4650Y24913D03*
G54D16*
X34483Y6000D03*
X32317Y6000D03*
G54D17*
X9900Y9417D03*
X9900Y11583D03*
G54D16*
X18567Y27500D03*
X20733Y27500D03*
X10817Y27500D03*
X12983Y27500D03*
X26483Y6000D03*
X24317Y6000D03*
X20483Y6000D03*
X18317Y6000D03*
G54D18*
X19109Y11750D03*
X17691Y11750D03*
X19109Y15750D03*
X17691Y15750D03*
X19109Y13750D03*
X17691Y13750D03*
G54D19*
X7900Y13000D03*
X7900Y9000D03*
X11650Y6500D03*
X15650Y6500D03*
G54D20*
X7150Y16500D03*
X6150Y16500D03*
G54D21*
X8150Y16500D03*
G54D20*
X7650Y26000D03*
X6650Y26000D03*
G54D21*
X8650Y26000D03*
G54D20*
X7150Y20000D03*
X6150Y20000D03*
G54D21*
X8150Y20000D03*
G54D22*
X8800Y27900D03*
X9500Y27900D03*
X9150Y27100D03*
G54D23*
X26400Y23000D03*
X27400Y23000D03*
X28400Y23000D03*
X29400Y23000D03*
X30400Y23000D03*
X31400Y23000D03*
X32400Y23000D03*
X33400Y23000D03*
X35400Y4000D03*
X34400Y4000D03*
X33400Y4000D03*
X32400Y4000D03*
X28400Y4000D03*
X26400Y4000D03*
X25400Y4000D03*
X29400Y4000D03*
X30400Y4000D03*
X31400Y4000D03*
X24400Y4000D03*
X23400Y4000D03*
X22400Y4000D03*
X19400Y4000D03*
X20400Y4000D03*
X21400Y4000D03*
X17400Y4000D03*
X16400Y4000D03*
X15400Y4000D03*
X13400Y4000D03*
X12400Y4000D03*
X24400Y23000D03*
X23400Y23000D03*
X22400Y23000D03*
X21400Y23000D03*
X20400Y23000D03*
X19400Y23000D03*
X18400Y23000D03*
X17400Y23000D03*
X15800Y23000D03*
X14800Y23000D03*
X13800Y23000D03*
X12800Y23000D03*
X11800Y23000D03*
X10800Y23000D03*
X9800Y23000D03*
X8800Y23000D03*
X14400Y4000D03*
G54D24*
X37400Y4000D03*
X5400Y23000D03*
X4900Y4000D03*
G54D13*
X36400Y22000D03*
X37400Y22000D03*
X36400Y21000D03*
X37400Y21000D03*
X36400Y20000D03*
X37400Y20000D03*
X36400Y19000D03*
X37400Y19000D03*
X36400Y23000D03*
X37400Y23000D03*
X37400Y18000D03*
X36400Y18000D03*
X36400Y17000D03*
X37400Y17000D03*
X36400Y16000D03*
X37400Y16000D03*
X36400Y15000D03*
X37400Y15000D03*
X36400Y14000D03*
X37400Y14000D03*
X36400Y13000D03*
X37400Y13000D03*
X36400Y12000D03*
X37400Y12000D03*
X36400Y11000D03*
X37400Y11000D03*
X36400Y10000D03*
X37400Y10000D03*
X36400Y9000D03*
X37400Y9000D03*
X36400Y8000D03*
X37400Y8000D03*
X36400Y7000D03*
X37400Y7000D03*
X36400Y6000D03*
X37400Y6000D03*
G54D23*
X7800Y23000D03*
X6800Y23000D03*
X11400Y4000D03*
X10400Y4000D03*
G54D15*
X16400Y19587D03*
X16400Y20413D03*
G54D12*
X29400Y6375D03*
X29400Y5625D03*
G54D20*
X7650Y29000D03*
X6650Y29000D03*
G54D21*
X8650Y29000D03*
G54D22*
X8800Y30900D03*
X9500Y30900D03*
X9150Y30100D03*
G54D12*
X7900Y30125D03*
X7900Y30875D03*
G54D11*
X8025Y27000D03*
X7275Y27000D03*
G54D25*
X1900Y5500D03*
G54D26*
X1900Y7500D03*
G54D15*
X4650Y26837D03*
X4650Y27663D03*
G54D14*
X17900Y1250D03*
G54D13*
X16900Y1250D03*
X15900Y1250D03*
X14900Y1250D03*
G54D14*
X24900Y1250D03*
G54D13*
X23900Y1250D03*
X22900Y1250D03*
X21900Y1250D03*
G54D14*
X32900Y1250D03*
G54D13*
X31900Y1250D03*
X30900Y1250D03*
X29900Y1250D03*
G54D14*
X10900Y32500D03*
G54D13*
X11900Y32500D03*
X12900Y32500D03*
X13900Y32500D03*
G54D12*
X20400Y18125D03*
X20400Y17375D03*
G54D27*
X11900Y5250D03*
G54D28*
X12900Y5250D03*
X13900Y5250D03*
G54D18*
X19109Y17750D03*
X17691Y17750D03*
G54D29*
X38498Y24500D03*
G54D30*
X37302Y24500D03*
X38498Y25500D03*
X37302Y25500D03*
X38498Y26500D03*
X37302Y26500D03*
X38498Y27500D03*
X37302Y27500D03*
G54D12*
X21400Y17375D03*
X21400Y18125D03*
X21400Y15625D03*
X21400Y16375D03*
X21400Y11625D03*
X21400Y12375D03*
X21400Y13625D03*
X21400Y14375D03*
X22400Y18125D03*
X22400Y17375D03*
X22400Y16375D03*
X22400Y15625D03*
X22400Y12375D03*
X22400Y11625D03*
X22400Y14375D03*
X22400Y13625D03*
G54D25*
X1900Y15500D03*
G54D26*
X1900Y17500D03*
G54D25*
X1900Y1500D03*
G54D26*
X1900Y3500D03*
G54D25*
X1900Y10500D03*
G54D26*
X1900Y12500D03*
G54D31*
X36121Y614D03*
X36121Y2386D03*
X38680Y614D03*
X38680Y2386D03*
G54D22*
X7800Y18650D03*
X8500Y18650D03*
X8150Y17850D03*
X7800Y21900D03*
X8500Y21900D03*
X8150Y21100D03*
G54D12*
X28400Y5625D03*
X28400Y6375D03*
G54D11*
X10275Y17500D03*
X9525Y17500D03*
G54D12*
X9400Y21125D03*
X9400Y21875D03*
G54D14*
X37400Y30000D03*
G54D13*
X38400Y30000D03*
G54D14*
X21900Y32500D03*
G54D13*
X22900Y32500D03*
X23900Y32500D03*
X24900Y32500D03*
G54D14*
X26900Y32500D03*
G54D13*
X27900Y32500D03*
X28900Y32500D03*
X29900Y32500D03*
G54D16*
X25067Y27500D03*
X27233Y27500D03*
G54D13*
X26400Y24500D03*
X27400Y24500D03*
X28400Y24500D03*
X29400Y24500D03*
X30400Y24500D03*
X31400Y24500D03*
X32400Y24500D03*
X33400Y24500D03*
X33400Y29500D03*
X32400Y29500D03*
X31400Y29500D03*
X30400Y29500D03*
X29400Y29500D03*
X28400Y29500D03*
X27400Y29500D03*
X26400Y29500D03*
G54D14*
X18900Y20750D03*
G54D13*
X18900Y21750D03*
X19900Y20750D03*
X19900Y21750D03*
X20900Y20750D03*
X20900Y21750D03*
G54D29*
X24302Y15000D03*
G54D30*
X25498Y15000D03*
X24302Y14000D03*
X25498Y14000D03*
X24302Y13000D03*
X25498Y13000D03*
G54D32*
X15800Y12500D03*
X15800Y13000D03*
X15800Y13500D03*
X15800Y14000D03*
X15800Y14500D03*
X15800Y15000D03*
X15800Y15500D03*
X15800Y16000D03*
X15800Y16500D03*
X15800Y17000D03*
X12000Y17000D03*
X12000Y16500D03*
X12000Y16000D03*
X12000Y15500D03*
X12000Y15000D03*
X12000Y14500D03*
X12000Y14000D03*
X12000Y13500D03*
X12000Y13000D03*
X12000Y12500D03*
G54D33*
X24400Y16150D03*
X24900Y16150D03*
X25400Y16150D03*
X25900Y16150D03*
X26400Y16150D03*
X26900Y16150D03*
X27400Y16150D03*
X27400Y18250D03*
X26900Y18250D03*
X26400Y18250D03*
X25900Y18250D03*
X25400Y18250D03*
X24900Y18250D03*
X24400Y18250D03*
G54D12*
X14150Y18125D03*
X14150Y18875D03*
X23400Y18125D03*
X23400Y17375D03*
X14400Y25625D03*
X14400Y26375D03*
X15400Y25625D03*
X15400Y26375D03*
G54D34*
X16350Y26157D03*
X16950Y26157D03*
X16350Y25843D03*
X16950Y25843D03*
X16350Y26472D03*
X16350Y25528D03*
X16950Y25528D03*
X16950Y26472D03*
G54D35*
X12243Y18200D03*
X12243Y18800D03*
X12557Y18200D03*
X12557Y18800D03*
X11928Y18200D03*
X12872Y18200D03*
X12872Y18800D03*
X11928Y18800D03*
X15743Y18200D03*
X15743Y18800D03*
X16057Y18200D03*
X16057Y18800D03*
X15428Y18200D03*
X16372Y18200D03*
X16372Y18800D03*
X15428Y18800D03*
G54D36*
X34900Y29500D03*
G54D37*
X34900Y28500D03*
X34900Y27500D03*
X34900Y26500D03*
X34900Y25500D03*
X34900Y24500D03*
G54D36*
X15900Y34500D03*
G54D37*
X15900Y33500D03*
X15900Y32500D03*
X15900Y31500D03*
G54D27*
X14150Y11250D03*
G54D28*
X13150Y11250D03*
X12150Y11250D03*
G54D14*
X15650Y5250D03*
G54D13*
X16650Y5250D03*
G54D20*
X12150Y9500D03*
G54D21*
X13150Y9500D03*
G54D20*
X14150Y9500D03*
G54D14*
X30900Y13000D03*
G54D13*
X29900Y13000D03*
X30900Y14000D03*
X29900Y14000D03*
X30900Y15000D03*
X29900Y15000D03*
X30900Y16000D03*
X29900Y16000D03*
X30900Y17000D03*
X29900Y17000D03*
G54D36*
X35900Y29500D03*
G54D37*
X35900Y28500D03*
X35900Y27500D03*
X35900Y26500D03*
X35900Y25500D03*
X35900Y24500D03*
G54D14*
X12900Y1250D03*
G54D13*
X11900Y1250D03*
G54D38*
X5900Y2180D03*
X8900Y820D03*
G54D39*
X7400Y1500D03*
G54D38*
X5900Y7180D03*
X8900Y5820D03*
G54D39*
X7400Y6500D03*
G54D38*
X4720Y10250D03*
X6080Y13250D03*
G54D39*
X5400Y11750D03*
G54D22*
X7000Y30100D03*
X6300Y30100D03*
X6650Y30900D03*
X7250Y32350D03*
X6550Y32350D03*
X6900Y33150D03*
G54D12*
X5500Y29875D03*
X5500Y30625D03*
X5650Y32125D03*
X5650Y32875D03*
G54D15*
X4650Y29837D03*
X4650Y30663D03*
X4650Y32087D03*
X4650Y32913D03*
G54D14*
X1650Y30750D03*
G54D13*
X1650Y31750D03*
G54D14*
X1650Y33000D03*
G54D13*
X1650Y34000D03*
G54D40*
X3650Y21274D03*
X3650Y19713D03*
X30650Y5226D03*
X30650Y6787D03*
G54D12*
X15150Y11625D03*
X15150Y10875D03*
G54D40*
X4650Y17024D03*
X4650Y15463D03*
X3650Y24524D03*
X3650Y22963D03*
X3650Y27774D03*
X3650Y26213D03*
X3650Y30774D03*
X3650Y29213D03*
X3650Y33274D03*
X3650Y31713D03*
G54D36*
X38400Y6000D03*
G54D37*
X38400Y7000D03*
X38400Y8000D03*
X38400Y9000D03*
X38400Y10000D03*
X38400Y11000D03*
X38400Y12000D03*
X38400Y13000D03*
X38400Y14000D03*
X38400Y15000D03*
X38400Y16000D03*
X38400Y17000D03*
X38400Y18000D03*
X38400Y19000D03*
X38400Y20000D03*
X38400Y21000D03*
X38400Y22000D03*
X38400Y23000D03*
G54D33*
X32400Y28000D03*
X31900Y28000D03*
X31400Y28000D03*
X30900Y28000D03*
X30400Y28000D03*
X29900Y28000D03*
X29400Y28000D03*
X28900Y28000D03*
X28900Y26000D03*
X29400Y26000D03*
X29900Y26000D03*
X30400Y26000D03*
X30900Y26000D03*
X31400Y26000D03*
X31900Y26000D03*
X32400Y26000D03*
G54D14*
X33400Y18000D03*
G54D13*
X34400Y18000D03*
X33400Y17000D03*
X34400Y17000D03*
X33400Y16000D03*
X34400Y16000D03*
X33400Y15000D03*
X34400Y15000D03*
X33400Y14000D03*
X34400Y14000D03*
X33400Y13000D03*
X34400Y13000D03*
G54D27*
X37400Y29000D03*
G54D28*
X38400Y29000D03*
G54D41*
X34900Y23000D03*
G54D42*
X1675Y21488D03*
G54D43*
X1675Y20111D03*
G54D42*
X1675Y25238D03*
G54D43*
X1675Y23861D03*
G54D42*
X1675Y28988D03*
G54D43*
X1675Y27611D03*
M02*
