G04 (created by PCBNEW (2013-07-07 BZR 4022)-stable) date 2/9/2014 8:47:50 PM*
%MOIN*%
G04 Gerber Fmt 3.4, Leading zero omitted, Abs format*
%FSLAX34Y34*%
G01*
G70*
G90*
G04 APERTURE LIST*
%ADD10C,0.00590551*%
%ADD11R,0.075X0.055*%
%ADD12R,0.055X0.075*%
%ADD13C,0.08*%
%ADD14R,0.08X0.08*%
%ADD15R,0.1617X0.083*%
%ADD16C,0.09*%
%ADD17R,0.09X0.09*%
%ADD18R,0.0672X0.0672*%
%ADD19R,0.1381X0.1381*%
%ADD20C,0.1381*%
%ADD21R,0.08X0.1066*%
%ADD22O,0.08X0.1066*%
%ADD23R,0.0987X0.08*%
%ADD24O,0.0987X0.08*%
%ADD25R,0.1184X0.075*%
%ADD26R,0.07X0.04*%
%ADD27R,0.065X0.04*%
%ADD28R,0.05X0.037*%
%ADD29R,0.037X0.05*%
%ADD30R,0.1066X0.08*%
%ADD31O,0.1066X0.08*%
%ADD32C,0.15*%
%ADD33C,0.169*%
%ADD34R,0.056X0.056*%
%ADD35R,0.0857X0.081*%
%ADD36R,0.04X0.065*%
%ADD37C,0.114488*%
%ADD38R,0.114488X0.114488*%
%ADD39R,0.0436X0.0751*%
%ADD40R,0.0594X0.0515*%
%ADD41R,0.0436X0.0594*%
%ADD42R,0.1224X0.083*%
%ADD43O,0.08X0.12*%
%ADD44C,0.145*%
%ADD45R,0.0751X0.0790551*%
%ADD46R,0.212913X0.208976*%
G04 APERTURE END LIST*
G54D10*
G54D11*
X32400Y20875D03*
X32400Y21625D03*
X33400Y20875D03*
X33400Y21625D03*
X25900Y21875D03*
X25900Y21125D03*
X17900Y21875D03*
X17900Y21125D03*
G54D12*
X10275Y21750D03*
X9525Y21750D03*
G54D11*
X26802Y9625D03*
X26802Y10375D03*
X18900Y9625D03*
X18900Y10375D03*
X35300Y9575D03*
X35300Y10325D03*
X16900Y21125D03*
X16900Y21875D03*
G54D12*
X32525Y28750D03*
X33275Y28750D03*
G54D11*
X12650Y11125D03*
X12650Y11875D03*
X22750Y16625D03*
X22750Y15875D03*
X22750Y13875D03*
X22750Y14625D03*
X22750Y13125D03*
X22750Y12375D03*
G54D12*
X10267Y19610D03*
X9517Y19610D03*
X7025Y24250D03*
X6275Y24250D03*
X9070Y18795D03*
X8320Y18795D03*
G54D13*
X18900Y8000D03*
X17900Y8000D03*
X16900Y8000D03*
X15900Y8000D03*
X14900Y8000D03*
X13900Y8000D03*
X12900Y8000D03*
X11900Y8000D03*
X11900Y3000D03*
X12900Y3000D03*
X13900Y3000D03*
X14900Y3000D03*
X15900Y3000D03*
X16900Y3000D03*
X17900Y3000D03*
X18900Y3000D03*
X26900Y8000D03*
X25900Y8000D03*
X24900Y8000D03*
X23900Y8000D03*
X22900Y8000D03*
X21900Y8000D03*
X20900Y8000D03*
X19900Y8000D03*
X19900Y3000D03*
X20900Y3000D03*
X21900Y3000D03*
X22900Y3000D03*
X23900Y3000D03*
X24900Y3000D03*
X25900Y3000D03*
X26900Y3000D03*
X34900Y8000D03*
X33900Y8000D03*
X32900Y8000D03*
X31900Y8000D03*
X30900Y8000D03*
X29900Y8000D03*
X28900Y8000D03*
X27900Y8000D03*
X27900Y3000D03*
X28900Y3000D03*
X29900Y3000D03*
X30900Y3000D03*
X31900Y3000D03*
X32900Y3000D03*
X33900Y3000D03*
X34900Y3000D03*
X10400Y24500D03*
X11400Y24500D03*
X12400Y24500D03*
X13400Y24500D03*
X14400Y24500D03*
X15400Y24500D03*
X16400Y24500D03*
X17400Y24500D03*
X17400Y29500D03*
X16400Y29500D03*
X15400Y29500D03*
X14400Y29500D03*
X13400Y29500D03*
X12400Y29500D03*
X11400Y29500D03*
X10400Y29500D03*
X18400Y24500D03*
X19400Y24500D03*
X20400Y24500D03*
X21400Y24500D03*
X22400Y24500D03*
X23400Y24500D03*
X24400Y24500D03*
X25400Y24500D03*
X25400Y29500D03*
X24400Y29500D03*
X23400Y29500D03*
X22400Y29500D03*
X21400Y29500D03*
X20400Y29500D03*
X19400Y29500D03*
X18400Y29500D03*
G54D14*
X31065Y35850D03*
G54D13*
X32065Y35850D03*
X33065Y35850D03*
X34065Y35850D03*
G54D14*
X17900Y10000D03*
G54D13*
X17900Y9000D03*
X16900Y10000D03*
X16900Y9000D03*
X15900Y10000D03*
X15900Y9000D03*
G54D14*
X11400Y20750D03*
G54D13*
X11400Y21750D03*
X12400Y20750D03*
X12400Y21750D03*
X13400Y20750D03*
X13400Y21750D03*
G54D14*
X26900Y20750D03*
G54D13*
X26900Y21750D03*
X27900Y20750D03*
X27900Y21750D03*
X28900Y20750D03*
X28900Y21750D03*
G54D14*
X33900Y10000D03*
G54D13*
X33900Y9000D03*
X32900Y10000D03*
X32900Y9000D03*
X31900Y10000D03*
X31900Y9000D03*
G54D14*
X25900Y10000D03*
G54D13*
X25900Y9000D03*
X24900Y10000D03*
X24900Y9000D03*
X23900Y10000D03*
X23900Y9000D03*
G54D14*
X18951Y36808D03*
G54D13*
X18951Y35808D03*
X18951Y34808D03*
G54D14*
X19951Y36808D03*
G54D13*
X19951Y35808D03*
X19951Y34808D03*
G54D14*
X17951Y36808D03*
G54D13*
X17951Y35808D03*
X17951Y34808D03*
G54D14*
X16951Y36808D03*
G54D13*
X16951Y35808D03*
X16951Y34808D03*
G54D14*
X21900Y9250D03*
G54D15*
X34483Y6000D03*
X32317Y6000D03*
X8067Y13500D03*
X10233Y13500D03*
X18567Y27500D03*
X20733Y27500D03*
X11748Y27500D03*
X13914Y27500D03*
X27483Y6000D03*
X25317Y6000D03*
X19317Y6000D03*
X21483Y6000D03*
G54D16*
X7148Y16929D03*
X6148Y16929D03*
G54D17*
X8148Y16929D03*
G54D16*
X7147Y26252D03*
X6147Y26252D03*
G54D17*
X8147Y26252D03*
G54D16*
X7152Y20294D03*
X6152Y20294D03*
G54D17*
X8152Y20294D03*
G54D18*
X15900Y21087D03*
X15900Y21913D03*
G54D11*
X28900Y9625D03*
X28900Y10375D03*
G54D16*
X7150Y29120D03*
X6150Y29120D03*
G54D17*
X8150Y29120D03*
G54D12*
X6175Y27550D03*
X5425Y27550D03*
G54D19*
X1900Y5500D03*
G54D20*
X1900Y7500D03*
G54D14*
X17400Y1250D03*
G54D13*
X16400Y1250D03*
X15400Y1250D03*
X14400Y1250D03*
G54D14*
X24900Y1250D03*
G54D13*
X23900Y1250D03*
X22900Y1250D03*
X21900Y1250D03*
G54D14*
X32900Y1250D03*
G54D13*
X31900Y1250D03*
X30900Y1250D03*
X29900Y1250D03*
G54D14*
X12410Y36040D03*
G54D13*
X13410Y36040D03*
X14410Y36040D03*
X15410Y36040D03*
G54D11*
X22750Y17625D03*
X22750Y18375D03*
G54D21*
X11900Y6250D03*
G54D22*
X12900Y6250D03*
X13900Y6250D03*
G54D23*
X38498Y24500D03*
G54D24*
X37302Y24500D03*
X38498Y25500D03*
X37302Y25500D03*
X38498Y26500D03*
X37302Y26500D03*
X38498Y27500D03*
X37302Y27500D03*
G54D11*
X19000Y17625D03*
X19000Y18375D03*
X19000Y15875D03*
X19000Y16625D03*
X19000Y12375D03*
X19000Y13125D03*
X19000Y14125D03*
X19000Y14875D03*
X21750Y18375D03*
X21750Y17625D03*
X21900Y16625D03*
X21900Y15875D03*
X21750Y13125D03*
X21750Y12375D03*
X21750Y14625D03*
X21750Y13875D03*
G54D19*
X1900Y15500D03*
G54D20*
X1900Y17500D03*
G54D19*
X1900Y1500D03*
G54D20*
X1900Y3500D03*
G54D25*
X36121Y364D03*
X36121Y2136D03*
X38680Y364D03*
X38680Y2136D03*
G54D11*
X27994Y10373D03*
X27994Y9623D03*
G54D14*
X21900Y36040D03*
G54D13*
X22900Y36040D03*
X23900Y36040D03*
X24900Y36040D03*
G54D14*
X26340Y36040D03*
G54D13*
X27340Y36040D03*
X28340Y36040D03*
X29340Y36040D03*
G54D15*
X25733Y27500D03*
X23567Y27500D03*
G54D13*
X26400Y24500D03*
X27400Y24500D03*
X28400Y24500D03*
X29400Y24500D03*
X30400Y24500D03*
X31400Y24500D03*
X32400Y24500D03*
X33400Y24500D03*
X33400Y29500D03*
X32400Y29500D03*
X31400Y29500D03*
X30400Y29500D03*
X29400Y29500D03*
X28400Y29500D03*
X27400Y29500D03*
X26400Y29500D03*
G54D14*
X18900Y20750D03*
G54D13*
X18900Y21750D03*
X19900Y20750D03*
X19900Y21750D03*
X20900Y20750D03*
X20900Y21750D03*
G54D23*
X24302Y15000D03*
G54D24*
X25498Y15000D03*
X24302Y14000D03*
X25498Y14000D03*
X24302Y13000D03*
X25498Y13000D03*
G54D26*
X15800Y12750D03*
X15800Y13250D03*
X15800Y13750D03*
X15800Y14250D03*
X15800Y14750D03*
X15800Y15250D03*
X15800Y15750D03*
X15800Y16250D03*
X15800Y16750D03*
X15800Y17250D03*
X12000Y17250D03*
X12000Y16750D03*
X12000Y16250D03*
X12000Y15750D03*
X12000Y15250D03*
X12000Y14750D03*
X12000Y14250D03*
X12000Y13750D03*
X12000Y13250D03*
X12000Y12750D03*
G54D27*
X9050Y36250D03*
X9050Y35750D03*
X9050Y35250D03*
X9050Y34750D03*
X9050Y34250D03*
X9050Y33750D03*
X9050Y33250D03*
X11150Y33250D03*
X11150Y33750D03*
X11150Y34250D03*
X11150Y34750D03*
X11150Y35250D03*
X11150Y35750D03*
X11150Y36250D03*
G54D11*
X14150Y18125D03*
X14150Y18875D03*
X8150Y36625D03*
X8150Y35875D03*
G54D12*
X5775Y35500D03*
X5025Y35500D03*
X6525Y35500D03*
X7275Y35500D03*
G54D28*
X8850Y31543D03*
X8250Y31543D03*
X8850Y31857D03*
X8250Y31857D03*
X8850Y31228D03*
X8850Y32172D03*
X8250Y32172D03*
X8250Y31228D03*
G54D29*
X11993Y18200D03*
X11993Y18800D03*
X12307Y18200D03*
X12307Y18800D03*
X11678Y18200D03*
X12622Y18200D03*
X12622Y18800D03*
X11678Y18800D03*
X15743Y18200D03*
X15743Y18800D03*
X16057Y18200D03*
X16057Y18800D03*
X15428Y18200D03*
X16372Y18200D03*
X16372Y18800D03*
X15428Y18800D03*
G54D30*
X34900Y29500D03*
G54D31*
X34900Y28500D03*
X34900Y27500D03*
X34900Y26500D03*
X34900Y25500D03*
X34900Y24500D03*
G54D21*
X3900Y36500D03*
G54D22*
X4900Y36500D03*
X5900Y36500D03*
X6900Y36500D03*
G54D21*
X14150Y9250D03*
G54D22*
X13150Y9250D03*
X12150Y9250D03*
G54D14*
X16398Y5338D03*
G54D13*
X17398Y5338D03*
G54D16*
X10650Y9250D03*
G54D17*
X10650Y10250D03*
G54D16*
X10650Y11250D03*
G54D14*
X30900Y13000D03*
G54D13*
X29900Y13000D03*
X30900Y14000D03*
X29900Y14000D03*
X30900Y15000D03*
X29900Y15000D03*
X30900Y16000D03*
X29900Y16000D03*
X30900Y17000D03*
X29900Y17000D03*
G54D30*
X35900Y29500D03*
G54D31*
X35900Y28500D03*
X35900Y27500D03*
X35900Y26500D03*
X35900Y25500D03*
X35900Y24500D03*
G54D14*
X1650Y35250D03*
G54D13*
X1650Y36250D03*
G54D32*
X5900Y2180D03*
X8900Y820D03*
G54D33*
X7400Y1500D03*
G54D32*
X5900Y7180D03*
X8900Y5820D03*
G54D33*
X7400Y6500D03*
G54D32*
X4720Y10250D03*
X6080Y13250D03*
G54D33*
X5400Y11750D03*
G54D34*
X6550Y32100D03*
X6550Y31400D03*
X5750Y31750D03*
X7002Y33380D03*
X6302Y33380D03*
X6652Y34180D03*
G54D11*
X5494Y30212D03*
X5494Y30962D03*
X5476Y32907D03*
X5476Y33657D03*
G54D14*
X1650Y30750D03*
G54D13*
X1650Y31750D03*
G54D14*
X1650Y33000D03*
G54D13*
X1650Y34000D03*
G54D35*
X3650Y21374D03*
X3650Y19813D03*
G54D11*
X11900Y11875D03*
X11900Y11125D03*
G54D35*
X4400Y17274D03*
X4400Y15713D03*
X3600Y25024D03*
X3600Y23463D03*
X3650Y28174D03*
X3650Y26613D03*
X3650Y31374D03*
X3650Y29813D03*
X3650Y34424D03*
X3650Y32863D03*
G54D30*
X38400Y6000D03*
G54D31*
X38400Y7000D03*
X38400Y8000D03*
X38400Y9000D03*
X38400Y10000D03*
X38400Y11000D03*
X38400Y12000D03*
X38400Y13000D03*
X38400Y14000D03*
X38400Y15000D03*
X38400Y16000D03*
X38400Y17000D03*
X38400Y18000D03*
X38400Y19000D03*
X38400Y20000D03*
X38400Y21000D03*
X38400Y22000D03*
X38400Y23000D03*
G54D36*
X32900Y27750D03*
X32400Y27750D03*
X31900Y27750D03*
X31400Y27750D03*
X30900Y27750D03*
X30400Y27750D03*
X29900Y27750D03*
X29400Y27750D03*
X29400Y25750D03*
X29900Y25750D03*
X30400Y25750D03*
X30900Y25750D03*
X31400Y25750D03*
X31900Y25750D03*
X32400Y25750D03*
X32900Y25750D03*
G54D14*
X33400Y18000D03*
G54D13*
X34400Y18000D03*
X33400Y17000D03*
X34400Y17000D03*
X33400Y16000D03*
X34400Y16000D03*
X33400Y15000D03*
X34400Y15000D03*
X33400Y14000D03*
X34400Y14000D03*
X33400Y13000D03*
X34400Y13000D03*
G54D30*
X34900Y750D03*
G54D31*
X34900Y1750D03*
G54D37*
X1675Y21488D03*
G54D38*
X1675Y20111D03*
G54D37*
X1675Y25238D03*
G54D38*
X1675Y23861D03*
G54D37*
X1675Y28988D03*
G54D38*
X1675Y27611D03*
G54D28*
X27700Y27843D03*
X27100Y27843D03*
X27700Y28157D03*
X27100Y28157D03*
X27700Y27528D03*
X27700Y28472D03*
X27100Y28472D03*
X27100Y27528D03*
X27700Y25843D03*
X27100Y25843D03*
X27700Y26157D03*
X27100Y26157D03*
X27700Y25528D03*
X27700Y26472D03*
X27100Y26472D03*
X27100Y25528D03*
G54D14*
X30900Y20750D03*
G54D13*
X30900Y21750D03*
G54D35*
X15150Y6624D03*
X15150Y5063D03*
G54D19*
X1900Y10500D03*
G54D20*
X1900Y12500D03*
G54D18*
X4650Y24237D03*
X4650Y25063D03*
X4650Y27387D03*
X4650Y28213D03*
X4694Y20787D03*
X4694Y21613D03*
X4684Y19120D03*
X4684Y18294D03*
X4650Y30537D03*
X4650Y31363D03*
X4657Y33660D03*
X4657Y34486D03*
G54D11*
X31978Y34299D03*
X31978Y33549D03*
X17190Y20269D03*
X17190Y19519D03*
X16000Y20275D03*
X16000Y19525D03*
G54D12*
X9070Y17902D03*
X8320Y17902D03*
X8525Y21500D03*
X7775Y21500D03*
X8525Y30500D03*
X7775Y30500D03*
X8775Y27500D03*
X8025Y27500D03*
G54D28*
X11700Y31343D03*
X11100Y31343D03*
X11700Y31657D03*
X11100Y31657D03*
X11700Y31028D03*
X11700Y31972D03*
X11100Y31972D03*
X11100Y31028D03*
G54D39*
X32750Y34310D03*
X32750Y32210D03*
X33250Y34310D03*
X33750Y34310D03*
X34250Y34310D03*
X33250Y32210D03*
X33750Y32210D03*
X34250Y32210D03*
G54D40*
X27183Y18500D03*
X26317Y18125D03*
X26317Y18875D03*
G54D41*
X19750Y17567D03*
X19750Y18433D03*
X20750Y18433D03*
X20750Y17567D03*
X19750Y12317D03*
X19750Y13183D03*
X20750Y13183D03*
X20750Y12317D03*
X20750Y16683D03*
X20750Y15817D03*
X19750Y15817D03*
X19750Y16683D03*
X19750Y14067D03*
X19750Y14933D03*
X20750Y14933D03*
X20750Y14067D03*
G54D11*
X25500Y18125D03*
X25500Y18875D03*
X28000Y18875D03*
X28000Y18125D03*
X24500Y18125D03*
X24500Y18875D03*
X8150Y35125D03*
X8150Y34375D03*
G54D12*
X7025Y30500D03*
X6275Y30500D03*
G54D21*
X13900Y5250D03*
G54D22*
X12900Y5250D03*
G54D14*
X12900Y1250D03*
G54D13*
X11900Y1250D03*
G54D42*
X25541Y16750D03*
X26959Y16750D03*
G54D11*
X18000Y12375D03*
X18000Y13125D03*
X18000Y15875D03*
X18000Y16625D03*
X18000Y14125D03*
X18000Y14875D03*
X18000Y17625D03*
X18000Y18375D03*
G54D14*
X37891Y29870D03*
G54D13*
X37891Y28870D03*
G54D41*
X29900Y10433D03*
X29900Y9567D03*
G54D30*
X35367Y36811D03*
G54D31*
X35367Y35811D03*
X35367Y34811D03*
X35367Y33811D03*
X35367Y32811D03*
X35367Y31811D03*
G54D23*
X37269Y36811D03*
G54D24*
X38465Y36811D03*
X37269Y35811D03*
X38465Y35811D03*
X37269Y34811D03*
X38465Y34811D03*
X37269Y33811D03*
X38465Y33811D03*
X37269Y32811D03*
X38465Y32811D03*
X37269Y31811D03*
X38465Y31811D03*
G54D43*
X26400Y23000D03*
X27400Y23000D03*
X28400Y23000D03*
X29400Y23000D03*
X30400Y23000D03*
X31400Y23000D03*
X32400Y23000D03*
X33400Y23000D03*
X35400Y4000D03*
X34400Y4000D03*
X33400Y4000D03*
X32400Y4000D03*
X28400Y4000D03*
X26400Y4000D03*
X25400Y4000D03*
X29400Y4000D03*
X30400Y4000D03*
X31400Y4000D03*
X24400Y4000D03*
X23400Y4000D03*
X22400Y4000D03*
X19400Y4000D03*
X20400Y4000D03*
X21400Y4000D03*
X17400Y4000D03*
X16400Y4000D03*
X15400Y4000D03*
X13400Y4000D03*
X12400Y4000D03*
X24400Y23000D03*
X23400Y23000D03*
X22400Y23000D03*
X21400Y23000D03*
X20400Y23000D03*
X19400Y23000D03*
X18400Y23000D03*
X17400Y23000D03*
X15800Y23000D03*
X14800Y23000D03*
X13800Y23000D03*
X12800Y23000D03*
X11800Y23000D03*
X10800Y23000D03*
X9800Y23000D03*
X8800Y23000D03*
X14400Y4000D03*
G54D44*
X37400Y4000D03*
X34900Y23000D03*
X5400Y23000D03*
X4900Y4000D03*
G54D13*
X36400Y22000D03*
X37400Y22000D03*
X36400Y21000D03*
X37400Y21000D03*
X36400Y20000D03*
X37400Y20000D03*
X36400Y19000D03*
X37400Y19000D03*
X36400Y23000D03*
X37400Y23000D03*
X37400Y18000D03*
X36400Y18000D03*
X36400Y17000D03*
X37400Y17000D03*
X36400Y16000D03*
X37400Y16000D03*
X36400Y15000D03*
X37400Y15000D03*
X36400Y14000D03*
X37400Y14000D03*
X36400Y13000D03*
X37400Y13000D03*
X36400Y12000D03*
X37400Y12000D03*
X36400Y11000D03*
X37400Y11000D03*
X36400Y10000D03*
X37400Y10000D03*
X36400Y9000D03*
X37400Y9000D03*
X36400Y8000D03*
X37400Y8000D03*
X36400Y7000D03*
X37400Y7000D03*
X36400Y6000D03*
X37400Y6000D03*
G54D43*
X7800Y23000D03*
X6800Y23000D03*
X11400Y4000D03*
X10400Y4000D03*
G54D45*
X8809Y9417D03*
X7991Y9417D03*
G54D46*
X8400Y11091D03*
G54D34*
X15000Y21100D03*
X14300Y21100D03*
X14650Y21900D03*
M02*
