M48
INCH,TZ
T1C0.012
T2C0.020
T3C0.032
T4C0.039
T5C0.040
T6C0.045
T7C0.047
T8C0.049
T9C0.050
T10C0.055
T11C0.125
T12C0.149
%
G90
G05
T1
X0.058Y2.976
X0.387Y3.569
X0.715Y2.145
X0.755Y3.455
X0.755Y3.365
X0.885Y2.025
X1.025Y3.355
X1.035Y3.475
X1.035Y3.195
X1.035Y3.135
X1.04Y2.555
X1.065Y3.1025
X1.065Y2.525
X1.085Y2.58
X1.09Y2.495
X1.0907Y1.7909
X1.0931Y2.1455
X1.11Y3.235
X1.115Y3.6625
X1.13Y1.88
X1.1539Y1.7
X1.2459Y1.7703
X1.2459Y1.625
X1.33Y1.805
X1.341Y1.028
X1.35Y0.845
X1.353Y0.144
X1.37Y1.74
X1.475Y1.523
X1.48Y1.31
X1.505Y2.04
X1.505Y1.103
X1.51Y1.055
X1.5293Y1.5528
X1.5336Y1.9452
X1.5338Y1.5932
X1.54Y3.675
X1.6367Y1.1452
X1.65Y1.775
X1.663Y0.744
X1.665Y1.236
X1.668Y1.82
X1.69Y2.735
X1.7Y1.246
X1.715Y2.07
X1.735Y1.04
X1.74Y2.735
X1.776Y2.025
X1.777Y1.961
X1.781Y2.371
X1.786Y2.063
X1.79Y1.995
X1.836Y0.843
X1.965Y2.75
X1.975Y0.075
X1.995Y2.82
X2.034Y1.201
X2.044Y1.128
X2.049Y0.269
X2.115Y1.36
X2.12Y1.717
X2.12Y1.545
X2.205Y2.072
X2.21Y1.98
X2.21Y1.935
X2.21Y1.9
X2.245Y2.5175
X2.251Y1.134
X2.275Y2.1
X2.276Y1.515
X2.28Y1.71
X2.28Y1.169
X2.334Y2.031
X2.37Y2.009
X2.395Y1.89
X2.397Y1.932
X2.404Y1.975
X2.455Y2.13
X2.6395Y2.3797
X2.685Y1.61
X2.72Y1.545
X2.7445Y1.0663
X2.75Y1.575
X2.781Y1.59
X2.8379Y0.7386
X2.865Y1.697
X2.88Y2.905
X2.9361Y0.6976
X3.007Y0.6722
X3.0129Y2.8803
X3.043Y0.686
X3.0686Y2.493
X3.092Y2.834
X3.096Y2.722
X3.0967Y3.0557
X3.1019Y2.6352
X3.114Y2.86
X3.126Y1.221
X3.145Y1.365
X3.1574Y0.85
X3.17Y2.877
X3.1759Y2.0876
X3.182Y2.372
X3.1891Y2.5226
X3.19Y3.14
X3.198Y1.719
X3.205Y2.725
X3.215Y2.045
X3.224Y1.749
X3.235Y2.705
X3.275Y1.24
X3.284Y1.986
X3.2895Y2.7228
X3.29Y3.155
X3.321Y1.985
X3.34Y1.89
X3.3436Y2.5644
X3.38Y1.905
X3.407Y2.0974
X3.4174Y2.5253
X3.452Y1.206
X3.454Y1.086
X3.4608Y1.9717
X3.467Y0.97
X3.487Y1.17
X3.5265Y1.9218
X3.55Y0.715
X3.5583Y1.1474
X3.657Y3.007
X3.676Y2.605
X3.719Y1.851
X3.813Y2.388
X3.884Y2.372
T2
X0.7Y3.2618
X0.77Y1.92
X0.885Y3.265
X0.99Y1.7
X1.05Y3.65
X1.075Y1.135
X1.08Y0.175
X1.105Y1.315
X1.1675Y3.24
X1.245Y1.955
X1.345Y1.185
X1.415Y1.955
X1.737Y1.664
X1.7385Y1.4875
X1.7386Y1.3292
X1.8Y1.899
X1.8019Y0.6281
X2.025Y0.93
X2.075Y2.855
X2.53Y2.115
X2.54Y1.0577
X2.799Y1.757
X2.9098Y2.8095
X3.3396Y0.6762
X3.34Y3.3236
X3.865Y0.477
T3
X1.04Y2.95
X1.04Y2.45
X1.14Y2.95
X1.14Y2.45
X1.19Y0.8
X1.19Y0.3
X1.24Y2.95
X1.24Y2.45
X1.29Y0.8
X1.29Y0.3
X1.34Y2.95
X1.34Y2.45
X1.39Y0.8
X1.39Y0.3
X1.44Y2.95
X1.44Y2.45
X1.49Y0.8
X1.49Y0.3
X1.54Y2.95
X1.54Y2.45
X1.59Y0.8
X1.59Y0.3
X1.64Y2.95
X1.64Y2.45
X1.69Y0.8
X1.69Y0.3
X1.74Y2.95
X1.74Y2.45
X1.79Y0.8
X1.79Y0.3
X1.84Y2.95
X1.84Y2.45
X1.89Y0.8
X1.89Y0.3
X1.94Y2.95
X1.94Y2.45
X1.99Y0.8
X1.99Y0.3
X2.04Y2.95
X2.04Y2.45
X2.09Y0.8
X2.09Y0.3
X2.14Y2.95
X2.14Y2.45
X2.19Y0.8
X2.19Y0.3
X2.24Y2.95
X2.24Y2.45
X2.29Y0.8
X2.29Y0.3
X2.34Y2.95
X2.34Y2.45
X2.39Y0.8
X2.39Y0.3
X2.44Y2.95
X2.44Y2.45
X2.49Y0.8
X2.49Y0.3
X2.54Y2.95
X2.54Y2.45
X2.59Y0.8
X2.59Y0.3
X2.64Y2.95
X2.64Y2.45
X2.69Y0.8
X2.69Y0.3
X2.74Y2.95
X2.74Y2.45
X2.79Y0.8
X2.79Y0.3
X2.84Y2.95
X2.84Y2.45
X2.89Y0.8
X2.89Y0.3
X2.94Y2.95
X2.94Y2.45
X2.99Y0.8
X2.99Y0.3
X3.04Y2.95
X3.04Y2.45
X3.09Y0.8
X3.09Y0.3
X3.14Y2.95
X3.14Y2.45
X3.19Y0.8
X3.19Y0.3
X3.24Y2.95
X3.24Y2.45
X3.29Y0.8
X3.29Y0.3
X3.34Y2.95
X3.34Y2.45
X3.39Y0.8
X3.39Y0.3
X3.49Y0.8
X3.49Y0.3
T4
X0.39Y3.65
X0.49Y3.65
X0.59Y3.65
X0.69Y3.65
X1.19Y0.7
X1.215Y0.925
X1.29Y0.7
X1.29Y0.525
X1.315Y0.925
X1.39Y0.7
X1.39Y0.525
X1.415Y0.925
X2.44Y1.5
X2.44Y1.4
X2.44Y1.3
X2.54Y1.5
X2.54Y1.4
X2.54Y1.3
X3.49Y2.95
X3.49Y2.85
X3.49Y2.75
X3.49Y2.65
X3.49Y2.55
X3.49Y2.45
X3.49Y0.175
X3.49Y0.075
X3.535Y3.68
X3.535Y3.58
X3.535Y3.48
X3.535Y3.38
X3.535Y3.28
X3.535Y3.18
X3.59Y2.95
X3.59Y2.85
X3.59Y2.75
X3.59Y2.65
X3.59Y2.55
X3.59Y2.45
X3.6121Y0.2136
X3.6121Y0.0364
X3.735Y3.68
X3.735Y3.58
X3.735Y3.48
X3.735Y3.38
X3.735Y3.28
X3.735Y3.18
X3.74Y2.75
X3.74Y2.65
X3.74Y2.55
X3.74Y2.45
X3.835Y3.68
X3.835Y3.58
X3.835Y3.48
X3.835Y3.38
X3.835Y3.28
X3.835Y3.18
X3.84Y2.75
X3.84Y2.65
X3.84Y2.55
X3.84Y2.45
X3.84Y2.3
X3.84Y2.2
X3.84Y2.1
X3.84Y2.
X3.84Y1.9
X3.84Y1.8
X3.84Y1.7
X3.84Y1.6
X3.84Y1.5
X3.84Y1.4
X3.84Y1.3
X3.84Y1.2
X3.84Y1.1
X3.84Y1.
X3.84Y0.9
X3.84Y0.8
X3.84Y0.7
X3.84Y0.6
X3.868Y0.2136
X3.868Y0.0364
T5
X0.165Y3.625
X0.165Y3.525
X0.165Y3.4
X0.165Y3.3
X0.165Y3.175
X0.165Y3.075
X0.29Y1.89
X0.6147Y2.6252
X0.6148Y1.6929
X0.615Y2.912
X0.6152Y2.0294
X0.68Y2.3
X0.7147Y2.6252
X0.7148Y1.6929
X0.715Y2.912
X0.7152Y2.0294
X0.78Y2.3
X0.8147Y2.6252
X0.8148Y1.6929
X0.815Y2.912
X0.8152Y2.0294
X0.88Y2.3
X0.98Y2.3
X1.04Y0.4
X1.08Y2.3
X1.14Y2.175
X1.14Y2.075
X1.14Y0.4
X1.18Y2.3
X1.19Y0.125
X1.24Y2.175
X1.24Y2.075
X1.24Y0.4
X1.241Y3.604
X1.28Y2.3
X1.29Y0.125
X1.34Y2.175
X1.34Y2.075
X1.34Y0.4
X1.341Y3.604
X1.38Y2.3
X1.44Y0.4
X1.44Y0.125
X1.441Y3.604
X1.48Y2.3
X1.54Y0.4
X1.54Y0.125
X1.541Y3.604
X1.58Y2.3
X1.59Y1.
X1.59Y0.9
X1.6398Y0.5338
X1.64Y0.4
X1.64Y0.125
X1.69Y1.
X1.69Y0.9
X1.6951Y3.6808
X1.6951Y3.5808
X1.6951Y3.4808
X1.7398Y0.5338
X1.74Y2.3
X1.74Y0.4
X1.74Y0.125
X1.79Y1.
X1.79Y0.9
X1.7951Y3.6808
X1.7951Y3.5808
X1.7951Y3.4808
X1.84Y2.3
X1.89Y2.175
X1.89Y2.075
X1.8951Y3.6808
X1.8951Y3.5808
X1.8951Y3.4808
X1.94Y2.3
X1.94Y0.4
X1.99Y2.175
X1.99Y2.075
X1.9951Y3.6808
X1.9951Y3.5808
X1.9951Y3.4808
X2.04Y2.3
X2.04Y0.4
X2.09Y2.175
X2.09Y2.075
X2.14Y2.3
X2.14Y0.4
X2.19Y3.604
X2.19Y0.925
X2.19Y0.125
X2.24Y2.3
X2.24Y0.4
X2.29Y3.604
X2.29Y0.125
X2.34Y2.3
X2.34Y0.4
X2.39Y3.604
X2.39Y1.
X2.39Y0.9
X2.39Y0.125
X2.44Y2.3
X2.44Y0.4
X2.49Y3.604
X2.49Y1.
X2.49Y0.9
X2.49Y0.125
X2.54Y0.4
X2.59Y1.
X2.59Y0.9
X2.634Y3.604
X2.64Y2.3
X2.64Y0.4
X2.69Y2.175
X2.69Y2.075
X2.734Y3.604
X2.74Y2.3
X2.79Y2.175
X2.79Y2.075
X2.834Y3.604
X2.84Y2.3
X2.84Y0.4
X2.89Y2.175
X2.89Y2.075
X2.934Y3.604
X2.94Y2.3
X2.94Y0.4
X2.99Y1.7
X2.99Y1.6
X2.99Y1.5
X2.99Y1.4
X2.99Y1.3
X2.99Y0.125
X3.04Y2.3
X3.04Y0.4
X3.09Y2.175
X3.09Y2.075
X3.09Y1.7
X3.09Y1.6
X3.09Y1.5
X3.09Y1.4
X3.09Y1.3
X3.09Y0.125
X3.1065Y3.585
X3.14Y2.3
X3.14Y0.4
X3.19Y1.
X3.19Y0.9
X3.19Y0.125
X3.2065Y3.585
X3.24Y2.3
X3.24Y0.4
X3.29Y1.
X3.29Y0.9
X3.29Y0.125
X3.3065Y3.585
X3.34Y2.3
X3.34Y1.8
X3.34Y1.7
X3.34Y1.6
X3.34Y1.5
X3.34Y1.4
X3.34Y1.3
X3.34Y0.4
X3.39Y1.
X3.39Y0.9
X3.4065Y3.585
X3.44Y1.8
X3.44Y1.7
X3.44Y1.6
X3.44Y1.5
X3.44Y1.4
X3.44Y1.3
X3.44Y0.4
X3.54Y0.4
X3.64Y2.3
X3.64Y2.2
X3.64Y2.1
X3.64Y2.
X3.64Y1.9
X3.64Y1.8
X3.64Y1.7
X3.64Y1.6
X3.64Y1.5
X3.64Y1.4
X3.64Y1.3
X3.64Y1.2
X3.64Y1.1
X3.64Y1.
X3.64Y0.9
X3.64Y0.8
X3.64Y0.7
X3.64Y0.6
X3.74Y2.3
X3.74Y2.2
X3.74Y2.1
X3.74Y2.
X3.74Y1.9
X3.74Y1.8
X3.74Y1.7
X3.74Y1.6
X3.74Y1.5
X3.74Y1.4
X3.74Y1.3
X3.74Y1.2
X3.74Y1.1
X3.74Y1.
X3.74Y0.9
X3.74Y0.8
X3.74Y0.7
X3.74Y0.6
X3.7891Y2.987
X3.7891Y2.887
T6
X0.865Y0.975
X0.965Y0.975
X1.065Y0.975
T7
X0.1676Y2.8989
X0.1676Y2.7611
X0.1676Y2.5239
X0.1676Y2.3861
X0.1676Y2.1489
X0.1676Y2.0111
T8
X0.19Y1.75
X0.19Y1.55
T9
X0.472Y1.025
X0.59Y0.718
X0.59Y0.218
X0.608Y1.325
X0.89Y0.582
X0.89Y0.082
T10
X0.19Y1.25
X0.19Y1.05
X0.19Y0.75
X0.19Y0.55
X0.19Y0.35
X0.19Y0.15
T11
X0.49Y0.4
X0.54Y2.3
X3.49Y2.3
X3.74Y0.4
T12
X0.54Y1.175
X0.74Y0.65
X0.74Y0.15
T0
M30
