G04 (created by PCBNEW (2013-07-07 BZR 4022)-stable) date 2/9/2014 8:47:50 PM*
%MOIN*%
G04 Gerber Fmt 3.4, Leading zero omitted, Abs format*
%FSLAX34Y34*%
G01*
G70*
G90*
G04 APERTURE LIST*
%ADD10C,0.00590551*%
%ADD11C,0.08*%
%ADD12R,0.08X0.08*%
%ADD13C,0.09*%
%ADD14R,0.09X0.09*%
%ADD15R,0.1381X0.1381*%
%ADD16C,0.1381*%
%ADD17R,0.08X0.1066*%
%ADD18O,0.08X0.1066*%
%ADD19R,0.0987X0.08*%
%ADD20O,0.0987X0.08*%
%ADD21R,0.1184X0.075*%
%ADD22R,0.1066X0.08*%
%ADD23O,0.1066X0.08*%
%ADD24C,0.15*%
%ADD25C,0.169*%
%ADD26C,0.114488*%
%ADD27R,0.114488X0.114488*%
%ADD28O,0.08X0.12*%
%ADD29C,0.145*%
G04 APERTURE END LIST*
G54D10*
G54D11*
X18900Y8000D03*
X17900Y8000D03*
X16900Y8000D03*
X15900Y8000D03*
X14900Y8000D03*
X13900Y8000D03*
X12900Y8000D03*
X11900Y8000D03*
X11900Y3000D03*
X12900Y3000D03*
X13900Y3000D03*
X14900Y3000D03*
X15900Y3000D03*
X16900Y3000D03*
X17900Y3000D03*
X18900Y3000D03*
X26900Y8000D03*
X25900Y8000D03*
X24900Y8000D03*
X23900Y8000D03*
X22900Y8000D03*
X21900Y8000D03*
X20900Y8000D03*
X19900Y8000D03*
X19900Y3000D03*
X20900Y3000D03*
X21900Y3000D03*
X22900Y3000D03*
X23900Y3000D03*
X24900Y3000D03*
X25900Y3000D03*
X26900Y3000D03*
X34900Y8000D03*
X33900Y8000D03*
X32900Y8000D03*
X31900Y8000D03*
X30900Y8000D03*
X29900Y8000D03*
X28900Y8000D03*
X27900Y8000D03*
X27900Y3000D03*
X28900Y3000D03*
X29900Y3000D03*
X30900Y3000D03*
X31900Y3000D03*
X32900Y3000D03*
X33900Y3000D03*
X34900Y3000D03*
X10400Y24500D03*
X11400Y24500D03*
X12400Y24500D03*
X13400Y24500D03*
X14400Y24500D03*
X15400Y24500D03*
X16400Y24500D03*
X17400Y24500D03*
X17400Y29500D03*
X16400Y29500D03*
X15400Y29500D03*
X14400Y29500D03*
X13400Y29500D03*
X12400Y29500D03*
X11400Y29500D03*
X10400Y29500D03*
X18400Y24500D03*
X19400Y24500D03*
X20400Y24500D03*
X21400Y24500D03*
X22400Y24500D03*
X23400Y24500D03*
X24400Y24500D03*
X25400Y24500D03*
X25400Y29500D03*
X24400Y29500D03*
X23400Y29500D03*
X22400Y29500D03*
X21400Y29500D03*
X20400Y29500D03*
X19400Y29500D03*
X18400Y29500D03*
G54D12*
X31065Y35850D03*
G54D11*
X32065Y35850D03*
X33065Y35850D03*
X34065Y35850D03*
G54D12*
X17900Y10000D03*
G54D11*
X17900Y9000D03*
X16900Y10000D03*
X16900Y9000D03*
X15900Y10000D03*
X15900Y9000D03*
G54D12*
X11400Y20750D03*
G54D11*
X11400Y21750D03*
X12400Y20750D03*
X12400Y21750D03*
X13400Y20750D03*
X13400Y21750D03*
G54D12*
X26900Y20750D03*
G54D11*
X26900Y21750D03*
X27900Y20750D03*
X27900Y21750D03*
X28900Y20750D03*
X28900Y21750D03*
G54D12*
X33900Y10000D03*
G54D11*
X33900Y9000D03*
X32900Y10000D03*
X32900Y9000D03*
X31900Y10000D03*
X31900Y9000D03*
G54D12*
X25900Y10000D03*
G54D11*
X25900Y9000D03*
X24900Y10000D03*
X24900Y9000D03*
X23900Y10000D03*
X23900Y9000D03*
G54D12*
X18951Y36808D03*
G54D11*
X18951Y35808D03*
X18951Y34808D03*
G54D12*
X19951Y36808D03*
G54D11*
X19951Y35808D03*
X19951Y34808D03*
G54D12*
X17951Y36808D03*
G54D11*
X17951Y35808D03*
X17951Y34808D03*
G54D12*
X16951Y36808D03*
G54D11*
X16951Y35808D03*
X16951Y34808D03*
G54D12*
X21900Y9250D03*
G54D13*
X7148Y16929D03*
X6148Y16929D03*
G54D14*
X8148Y16929D03*
G54D13*
X7147Y26252D03*
X6147Y26252D03*
G54D14*
X8147Y26252D03*
G54D13*
X7152Y20294D03*
X6152Y20294D03*
G54D14*
X8152Y20294D03*
G54D13*
X7150Y29120D03*
X6150Y29120D03*
G54D14*
X8150Y29120D03*
G54D15*
X1900Y5500D03*
G54D16*
X1900Y7500D03*
G54D12*
X17400Y1250D03*
G54D11*
X16400Y1250D03*
X15400Y1250D03*
X14400Y1250D03*
G54D12*
X24900Y1250D03*
G54D11*
X23900Y1250D03*
X22900Y1250D03*
X21900Y1250D03*
G54D12*
X32900Y1250D03*
G54D11*
X31900Y1250D03*
X30900Y1250D03*
X29900Y1250D03*
G54D12*
X12410Y36040D03*
G54D11*
X13410Y36040D03*
X14410Y36040D03*
X15410Y36040D03*
G54D17*
X11900Y6250D03*
G54D18*
X12900Y6250D03*
X13900Y6250D03*
G54D19*
X38498Y24500D03*
G54D20*
X37302Y24500D03*
X38498Y25500D03*
X37302Y25500D03*
X38498Y26500D03*
X37302Y26500D03*
X38498Y27500D03*
X37302Y27500D03*
G54D15*
X1900Y15500D03*
G54D16*
X1900Y17500D03*
G54D15*
X1900Y1500D03*
G54D16*
X1900Y3500D03*
G54D21*
X36121Y364D03*
X36121Y2136D03*
X38680Y364D03*
X38680Y2136D03*
G54D12*
X21900Y36040D03*
G54D11*
X22900Y36040D03*
X23900Y36040D03*
X24900Y36040D03*
G54D12*
X26340Y36040D03*
G54D11*
X27340Y36040D03*
X28340Y36040D03*
X29340Y36040D03*
X26400Y24500D03*
X27400Y24500D03*
X28400Y24500D03*
X29400Y24500D03*
X30400Y24500D03*
X31400Y24500D03*
X32400Y24500D03*
X33400Y24500D03*
X33400Y29500D03*
X32400Y29500D03*
X31400Y29500D03*
X30400Y29500D03*
X29400Y29500D03*
X28400Y29500D03*
X27400Y29500D03*
X26400Y29500D03*
G54D12*
X18900Y20750D03*
G54D11*
X18900Y21750D03*
X19900Y20750D03*
X19900Y21750D03*
X20900Y20750D03*
X20900Y21750D03*
G54D19*
X24302Y15000D03*
G54D20*
X25498Y15000D03*
X24302Y14000D03*
X25498Y14000D03*
X24302Y13000D03*
X25498Y13000D03*
G54D22*
X34900Y29500D03*
G54D23*
X34900Y28500D03*
X34900Y27500D03*
X34900Y26500D03*
X34900Y25500D03*
X34900Y24500D03*
G54D17*
X3900Y36500D03*
G54D18*
X4900Y36500D03*
X5900Y36500D03*
X6900Y36500D03*
G54D17*
X14150Y9250D03*
G54D18*
X13150Y9250D03*
X12150Y9250D03*
G54D12*
X16398Y5338D03*
G54D11*
X17398Y5338D03*
G54D13*
X10650Y9250D03*
G54D14*
X10650Y10250D03*
G54D13*
X10650Y11250D03*
G54D12*
X30900Y13000D03*
G54D11*
X29900Y13000D03*
X30900Y14000D03*
X29900Y14000D03*
X30900Y15000D03*
X29900Y15000D03*
X30900Y16000D03*
X29900Y16000D03*
X30900Y17000D03*
X29900Y17000D03*
G54D22*
X35900Y29500D03*
G54D23*
X35900Y28500D03*
X35900Y27500D03*
X35900Y26500D03*
X35900Y25500D03*
X35900Y24500D03*
G54D12*
X1650Y35250D03*
G54D11*
X1650Y36250D03*
G54D24*
X5900Y2180D03*
X8900Y820D03*
G54D25*
X7400Y1500D03*
G54D24*
X5900Y7180D03*
X8900Y5820D03*
G54D25*
X7400Y6500D03*
G54D24*
X4720Y10250D03*
X6080Y13250D03*
G54D25*
X5400Y11750D03*
G54D12*
X1650Y30750D03*
G54D11*
X1650Y31750D03*
G54D12*
X1650Y33000D03*
G54D11*
X1650Y34000D03*
G54D22*
X38400Y6000D03*
G54D23*
X38400Y7000D03*
X38400Y8000D03*
X38400Y9000D03*
X38400Y10000D03*
X38400Y11000D03*
X38400Y12000D03*
X38400Y13000D03*
X38400Y14000D03*
X38400Y15000D03*
X38400Y16000D03*
X38400Y17000D03*
X38400Y18000D03*
X38400Y19000D03*
X38400Y20000D03*
X38400Y21000D03*
X38400Y22000D03*
X38400Y23000D03*
G54D12*
X33400Y18000D03*
G54D11*
X34400Y18000D03*
X33400Y17000D03*
X34400Y17000D03*
X33400Y16000D03*
X34400Y16000D03*
X33400Y15000D03*
X34400Y15000D03*
X33400Y14000D03*
X34400Y14000D03*
X33400Y13000D03*
X34400Y13000D03*
G54D22*
X34900Y750D03*
G54D23*
X34900Y1750D03*
G54D26*
X1675Y21488D03*
G54D27*
X1675Y20111D03*
G54D26*
X1675Y25238D03*
G54D27*
X1675Y23861D03*
G54D26*
X1675Y28988D03*
G54D27*
X1675Y27611D03*
G54D12*
X30900Y20750D03*
G54D11*
X30900Y21750D03*
G54D15*
X1900Y10500D03*
G54D16*
X1900Y12500D03*
G54D17*
X13900Y5250D03*
G54D18*
X12900Y5250D03*
G54D12*
X12900Y1250D03*
G54D11*
X11900Y1250D03*
G54D12*
X37891Y29870D03*
G54D11*
X37891Y28870D03*
G54D22*
X35367Y36811D03*
G54D23*
X35367Y35811D03*
X35367Y34811D03*
X35367Y33811D03*
X35367Y32811D03*
X35367Y31811D03*
G54D19*
X37269Y36811D03*
G54D20*
X38465Y36811D03*
X37269Y35811D03*
X38465Y35811D03*
X37269Y34811D03*
X38465Y34811D03*
X37269Y33811D03*
X38465Y33811D03*
X37269Y32811D03*
X38465Y32811D03*
X37269Y31811D03*
X38465Y31811D03*
G54D28*
X26400Y23000D03*
X27400Y23000D03*
X28400Y23000D03*
X29400Y23000D03*
X30400Y23000D03*
X31400Y23000D03*
X32400Y23000D03*
X33400Y23000D03*
X35400Y4000D03*
X34400Y4000D03*
X33400Y4000D03*
X32400Y4000D03*
X28400Y4000D03*
X26400Y4000D03*
X25400Y4000D03*
X29400Y4000D03*
X30400Y4000D03*
X31400Y4000D03*
X24400Y4000D03*
X23400Y4000D03*
X22400Y4000D03*
X19400Y4000D03*
X20400Y4000D03*
X21400Y4000D03*
X17400Y4000D03*
X16400Y4000D03*
X15400Y4000D03*
X13400Y4000D03*
X12400Y4000D03*
X24400Y23000D03*
X23400Y23000D03*
X22400Y23000D03*
X21400Y23000D03*
X20400Y23000D03*
X19400Y23000D03*
X18400Y23000D03*
X17400Y23000D03*
X15800Y23000D03*
X14800Y23000D03*
X13800Y23000D03*
X12800Y23000D03*
X11800Y23000D03*
X10800Y23000D03*
X9800Y23000D03*
X8800Y23000D03*
X14400Y4000D03*
G54D29*
X37400Y4000D03*
X34900Y23000D03*
X5400Y23000D03*
X4900Y4000D03*
G54D11*
X36400Y22000D03*
X37400Y22000D03*
X36400Y21000D03*
X37400Y21000D03*
X36400Y20000D03*
X37400Y20000D03*
X36400Y19000D03*
X37400Y19000D03*
X36400Y23000D03*
X37400Y23000D03*
X37400Y18000D03*
X36400Y18000D03*
X36400Y17000D03*
X37400Y17000D03*
X36400Y16000D03*
X37400Y16000D03*
X36400Y15000D03*
X37400Y15000D03*
X36400Y14000D03*
X37400Y14000D03*
X36400Y13000D03*
X37400Y13000D03*
X36400Y12000D03*
X37400Y12000D03*
X36400Y11000D03*
X37400Y11000D03*
X36400Y10000D03*
X37400Y10000D03*
X36400Y9000D03*
X37400Y9000D03*
X36400Y8000D03*
X37400Y8000D03*
X36400Y7000D03*
X37400Y7000D03*
X36400Y6000D03*
X37400Y6000D03*
G54D28*
X7800Y23000D03*
X6800Y23000D03*
X11400Y4000D03*
X10400Y4000D03*
M02*
