M48
INCH,TZ
T1C0.012
T2C0.020
T3C0.032
T4C0.039
T5C0.040
T6C0.045
T7C0.047
T8C0.049
T9C0.050
T10C0.055
T11C0.125
T12C0.149
%
G90
G05
T1
X580Y29760
X3870Y35690
X7150Y21450
X7550Y34550
X7800Y33650
X8850Y20250
X10250Y33550
X10350Y34750
X10350Y31950
X10350Y31350
X10400Y25550
X10650Y31025
X10650Y25250
X10850Y25800
X10900Y24950
X10907Y17909
X10931Y21455
X11100Y32350
X11150Y36625
X11300Y18800
X11539Y17000
X12459Y17703
X12459Y16250
X13300Y18050
X13410Y10280
X13500Y8450
X13530Y1440
X13700Y17400
X14750Y15230
X14800Y13100
X15050Y20400
X15050Y11030
X15100Y10550
X15293Y15528
X15336Y19452
X15338Y15932
X15400Y36750
X16367Y11452
X16500Y17750
X16630Y7440
X16650Y12360
X16680Y18200
X16900Y27350
X17000Y12460
X17150Y20700
X17350Y10400
X17400Y27350
X17760Y20250
X17770Y19610
X17810Y23710
X17860Y20630
X17900Y19950
X18360Y8430
X19650Y27500
X19750Y750
X19950Y28200
X20440Y11280
X20490Y2690
X20500Y12000
X21150Y13650
X21400Y15450
X21450Y17200
X22050Y20720
X22100Y19800
X22100Y19350
X22100Y19000
X22450Y25175
X22510Y11340
X22750Y21000
X22760Y15150
X22800Y17100
X22800Y11690
X23340Y20310
X23700Y20090
X23950Y18900
X23970Y19320
X24040Y19750
X24550Y21300
X26395Y23797
X26850Y16100
X27200Y15450
X27445Y10663
X27500Y15750
X27810Y15900
X28379Y7386
X28650Y16970
X28800Y29050
X29361Y6976
X30070Y6722
X30129Y28803
X30430Y6860
X30686Y24930
X30920Y28340
X30960Y27220
X30967Y30557
X31019Y26352
X31140Y28600
X31260Y12210
X31450Y13650
X31574Y8500
X31700Y28770
X31759Y20876
X31820Y23720
X31891Y25226
X31900Y31400
X31980Y17190
X32050Y27250
X32150Y20450
X32240Y17490
X32350Y27050
X32750Y12400
X32840Y19860
X32895Y27228
X32900Y31550
X33210Y19850
X33400Y18900
X33436Y25644
X33800Y19050
X34070Y20974
X34174Y25253
X34520Y12060
X34540Y10860
X34608Y19717
X34670Y9700
X34870Y11700
X35265Y19218
X35500Y7150
X35583Y11474
X36570Y30070
X36760Y26050
X37190Y18510
X38130Y23880
X38840Y23720
T2
X7000Y32618
X7700Y19200
X8850Y32650
X9900Y17000
X10500Y36500
X10750Y11350
X10800Y1750
X11050Y13150
X11675Y32400
X12450Y19550
X13450Y11850
X14150Y19550
X17370Y16640
X17385Y14875
X17386Y13292
X18000Y18990
X18019Y6281
X20250Y9300
X20750Y28550
X25300Y21150
X25400Y10577
X27990Y17570
X29098Y28095
X33396Y6762
X33400Y33236
X38650Y4770
T3
X10400Y29500
X10400Y24500
X11400Y29500
X11400Y24500
X11900Y8000
X11900Y3000
X12400Y29500
X12400Y24500
X12900Y8000
X12900Y3000
X13400Y29500
X13400Y24500
X13900Y8000
X13900Y3000
X14400Y29500
X14400Y24500
X14900Y8000
X14900Y3000
X15400Y29500
X15400Y24500
X15900Y8000
X15900Y3000
X16400Y29500
X16400Y24500
X16900Y8000
X16900Y3000
X17400Y29500
X17400Y24500
X17900Y8000
X17900Y3000
X18400Y29500
X18400Y24500
X18900Y8000
X18900Y3000
X19400Y29500
X19400Y24500
X19900Y8000
X19900Y3000
X20400Y29500
X20400Y24500
X20900Y8000
X20900Y3000
X21400Y29500
X21400Y24500
X21900Y8000
X21900Y3000
X22400Y29500
X22400Y24500
X22900Y8000
X22900Y3000
X23400Y29500
X23400Y24500
X23900Y8000
X23900Y3000
X24400Y29500
X24400Y24500
X24900Y8000
X24900Y3000
X25400Y29500
X25400Y24500
X25900Y8000
X25900Y3000
X26400Y29500
X26400Y24500
X26900Y8000
X26900Y3000
X27400Y29500
X27400Y24500
X27900Y8000
X27900Y3000
X28400Y29500
X28400Y24500
X28900Y8000
X28900Y3000
X29400Y29500
X29400Y24500
X29900Y8000
X29900Y3000
X30400Y29500
X30400Y24500
X30900Y8000
X30900Y3000
X31400Y29500
X31400Y24500
X31900Y8000
X31900Y3000
X32400Y29500
X32400Y24500
X32900Y8000
X32900Y3000
X33400Y29500
X33400Y24500
X33900Y8000
X33900Y3000
X34900Y8000
X34900Y3000
T4
X3900Y36500
X4900Y36500
X5900Y36500
X6900Y36500
X11900Y7000
X12150Y9250
X12900Y7000
X12900Y5250
X13150Y9250
X13900Y7000
X13900Y5250
X14150Y9250
X24400Y15000
X24400Y14000
X24400Y13000
X25400Y15000
X25400Y14000
X25400Y13000
X34900Y29500
X34900Y28500
X34900Y27500
X34900Y26500
X34900Y25500
X34900Y24500
X34900Y1750
X34900Y750
X35350Y36800
X35350Y35800
X35350Y34800
X35350Y33800
X35350Y32800
X35350Y31800
X35900Y29500
X35900Y28500
X35900Y27500
X35900Y26500
X35900Y25500
X35900Y24500
X36121Y2136
X36121Y364
X37350Y36800
X37350Y35800
X37350Y34800
X37350Y33800
X37350Y32800
X37350Y31800
X37400Y27500
X37400Y26500
X37400Y25500
X37400Y24500
X38350Y36800
X38350Y35800
X38350Y34800
X38350Y33800
X38350Y32800
X38350Y31800
X38400Y27500
X38400Y26500
X38400Y25500
X38400Y24500
X38400Y23000
X38400Y22000
X38400Y21000
X38400Y20000
X38400Y19000
X38400Y18000
X38400Y17000
X38400Y16000
X38400Y15000
X38400Y14000
X38400Y13000
X38400Y12000
X38400Y11000
X38400Y10000
X38400Y9000
X38400Y8000
X38400Y7000
X38400Y6000
X38680Y2136
X38680Y364
T5
X1650Y36250
X1650Y35250
X1650Y34000
X1650Y33000
X1650Y31750
X1650Y30750
X2900Y18900
X6147Y26252
X6148Y16929
X6150Y29120
X6152Y20294
X6800Y23000
X7147Y26252
X7148Y16929
X7150Y29120
X7152Y20294
X7800Y23000
X8147Y26252
X8148Y16929
X8150Y29120
X8152Y20294
X8800Y23000
X9800Y23000
X10400Y4000
X10800Y23000
X11400Y21750
X11400Y20750
X11400Y4000
X11800Y23000
X11900Y1250
X12400Y21750
X12400Y20750
X12400Y4000
X12410Y36040
X12800Y23000
X12900Y1250
X13400Y21750
X13400Y20750
X13400Y4000
X13410Y36040
X13800Y23000
X14400Y4000
X14400Y1250
X14410Y36040
X14800Y23000
X15400Y4000
X15400Y1250
X15410Y36040
X15800Y23000
X15900Y10000
X15900Y9000
X16398Y5338
X16400Y4000
X16400Y1250
X16900Y10000
X16900Y9000
X16951Y36808
X16951Y35808
X16951Y34808
X17398Y5338
X17400Y23000
X17400Y4000
X17400Y1250
X17900Y10000
X17900Y9000
X17951Y36808
X17951Y35808
X17951Y34808
X18400Y23000
X18900Y21750
X18900Y20750
X18951Y36808
X18951Y35808
X18951Y34808
X19400Y23000
X19400Y4000
X19900Y21750
X19900Y20750
X19951Y36808
X19951Y35808
X19951Y34808
X20400Y23000
X20400Y4000
X20900Y21750
X20900Y20750
X21400Y23000
X21400Y4000
X21900Y36040
X21900Y9250
X21900Y1250
X22400Y23000
X22400Y4000
X22900Y36040
X22900Y1250
X23400Y23000
X23400Y4000
X23900Y36040
X23900Y10000
X23900Y9000
X23900Y1250
X24400Y23000
X24400Y4000
X24900Y36040
X24900Y10000
X24900Y9000
X24900Y1250
X25400Y4000
X25900Y10000
X25900Y9000
X26340Y36040
X26400Y23000
X26400Y4000
X26900Y21750
X26900Y20750
X27340Y36040
X27400Y23000
X27900Y21750
X27900Y20750
X28340Y36040
X28400Y23000
X28400Y4000
X28900Y21750
X28900Y20750
X29340Y36040
X29400Y23000
X29400Y4000
X29900Y17000
X29900Y16000
X29900Y15000
X29900Y14000
X29900Y13000
X29900Y1250
X30400Y23000
X30400Y4000
X30900Y21750
X30900Y20750
X30900Y17000
X30900Y16000
X30900Y15000
X30900Y14000
X30900Y13000
X30900Y1250
X31065Y35850
X31400Y23000
X31400Y4000
X31900Y10000
X31900Y9000
X31900Y1250
X32065Y35850
X32400Y23000
X32400Y4000
X32900Y10000
X32900Y9000
X32900Y1250
X33065Y35850
X33400Y23000
X33400Y18000
X33400Y17000
X33400Y16000
X33400Y15000
X33400Y14000
X33400Y13000
X33400Y4000
X33900Y10000
X33900Y9000
X34065Y35850
X34400Y18000
X34400Y17000
X34400Y16000
X34400Y15000
X34400Y14000
X34400Y13000
X34400Y4000
X35400Y4000
X36400Y23000
X36400Y22000
X36400Y21000
X36400Y20000
X36400Y19000
X36400Y18000
X36400Y17000
X36400Y16000
X36400Y15000
X36400Y14000
X36400Y13000
X36400Y12000
X36400Y11000
X36400Y10000
X36400Y9000
X36400Y8000
X36400Y7000
X36400Y6000
X37400Y23000
X37400Y22000
X37400Y21000
X37400Y20000
X37400Y19000
X37400Y18000
X37400Y17000
X37400Y16000
X37400Y15000
X37400Y14000
X37400Y13000
X37400Y12000
X37400Y11000
X37400Y10000
X37400Y9000
X37400Y8000
X37400Y7000
X37400Y6000
X37891Y29870
X37891Y28870
T6
X8650Y9750
X9650Y9750
X10650Y9750
T7
X1676Y28989
X1676Y27611
X1676Y25239
X1676Y23861
X1676Y21489
X1676Y20111
T8
X1900Y17500
X1900Y15500
T9
X4720Y10250
X5900Y7180
X5900Y2180
X6080Y13250
X8900Y5820
X8900Y820
T10
X1900Y12500
X1900Y10500
X1900Y7500
X1900Y5500
X1900Y3500
X1900Y1500
T11
X4900Y4000
X5400Y23000
X34900Y23000
X37400Y4000
T12
X5400Y11750
X7400Y6500
X7400Y1500
T0
M30
