G04 (created by PCBNEW-RS274X (2012-01-19 BZR 3256)-stable) date 25/06/2013 20:59:23*
G01*
G70*
G90*
%MOIN*%
G04 Gerber Fmt 3.4, Leading zero omitted, Abs format*
%FSLAX34Y34*%
G04 APERTURE LIST*
%ADD10C,0.006000*%
%ADD11C,0.015000*%
%ADD12R,0.016000X0.050000*%
%ADD13R,0.055000X0.035000*%
%ADD14R,0.035000X0.055000*%
%ADD15C,0.060000*%
%ADD16R,0.060000X0.060000*%
%ADD17R,0.047200X0.047200*%
%ADD18R,0.141700X0.063000*%
%ADD19R,0.102400X0.063000*%
%ADD20R,0.086600X0.060000*%
%ADD21O,0.086600X0.060000*%
%ADD22C,0.078700*%
%ADD23C,0.070000*%
%ADD24R,0.070000X0.070000*%
%ADD25R,0.036000X0.036000*%
%ADD26O,0.060000X0.100000*%
%ADD27C,0.125000*%
%ADD28R,0.118100X0.118100*%
%ADD29C,0.118100*%
%ADD30C,0.086600*%
%ADD31R,0.060000X0.086600*%
%ADD32O,0.060000X0.086600*%
%ADD33R,0.078700X0.060000*%
%ADD34O,0.078700X0.060000*%
%ADD35R,0.086600X0.070900*%
%ADD36R,0.098400X0.055000*%
%ADD37R,0.045000X0.020000*%
%ADD38C,0.025000*%
%ADD39C,0.045000*%
%ADD40C,0.008000*%
%ADD41C,0.090000*%
%ADD42C,0.045000*%
%ADD43C,0.069800*%
G04 APERTURE END LIST*
G54D10*
G54D11*
X08642Y13705D02*
X07658Y13705D01*
X07658Y13705D02*
X07658Y13803D01*
X07658Y13803D02*
X08642Y13803D01*
X08642Y13803D02*
X08642Y13902D01*
X08642Y13902D02*
X07855Y13902D01*
X07855Y13902D02*
X07855Y14000D01*
X07855Y14000D02*
X08347Y14000D01*
X08347Y14000D02*
X08347Y14098D01*
X08347Y14098D02*
X07756Y14098D01*
X07756Y14098D02*
X07756Y14197D01*
X07756Y14197D02*
X08544Y14197D01*
X08544Y14197D02*
X08544Y14295D01*
X08544Y14295D02*
X07756Y14295D01*
X03945Y25242D02*
X03945Y24258D01*
X03945Y24258D02*
X03847Y24258D01*
X03847Y24258D02*
X03847Y25242D01*
X03847Y25242D02*
X03748Y25242D01*
X03748Y25242D02*
X03748Y24455D01*
X03748Y24455D02*
X03650Y24455D01*
X03650Y24455D02*
X03650Y24947D01*
X03650Y24947D02*
X03552Y24947D01*
X03552Y24947D02*
X03552Y24356D01*
X03552Y24356D02*
X03453Y24356D01*
X03453Y24356D02*
X03453Y25144D01*
X03453Y25144D02*
X03355Y25144D01*
X03355Y25144D02*
X03355Y24356D01*
X05908Y15795D02*
X06892Y15795D01*
X06892Y15795D02*
X06892Y15697D01*
X06892Y15697D02*
X05908Y15697D01*
X05908Y15697D02*
X05908Y15598D01*
X05908Y15598D02*
X06695Y15598D01*
X06695Y15598D02*
X06695Y15500D01*
X06695Y15500D02*
X06203Y15500D01*
X06203Y15500D02*
X06203Y15402D01*
X06203Y15402D02*
X06794Y15402D01*
X06794Y15402D02*
X06794Y15303D01*
X06794Y15303D02*
X06006Y15303D01*
X06006Y15303D02*
X06006Y15205D01*
X06006Y15205D02*
X06794Y15205D01*
G54D12*
X34000Y25700D03*
X34250Y25700D03*
X34510Y25700D03*
X34770Y25700D03*
X35020Y25700D03*
X35280Y25700D03*
X35540Y25700D03*
X35790Y25700D03*
X36050Y25700D03*
X36300Y25700D03*
X36300Y27800D03*
X36050Y27800D03*
X35790Y27800D03*
X35540Y27800D03*
X35280Y27800D03*
X35020Y27800D03*
X34770Y27800D03*
X34510Y27800D03*
X34250Y27800D03*
X34000Y27800D03*
G54D13*
X34900Y10375D03*
X34900Y09625D03*
G54D14*
X11775Y24500D03*
X11025Y24500D03*
X07775Y25000D03*
X08525Y25000D03*
G54D13*
X18900Y19625D03*
X18900Y20375D03*
X32400Y18125D03*
X32400Y18875D03*
X32400Y20375D03*
X32400Y19625D03*
X30900Y20375D03*
X30900Y19625D03*
X11900Y19625D03*
X11900Y20375D03*
X22900Y20375D03*
X22900Y19625D03*
X15900Y20375D03*
X15900Y19625D03*
X26900Y10375D03*
X26900Y09625D03*
X18900Y10375D03*
X18900Y09625D03*
X22900Y09125D03*
X22900Y09875D03*
X14900Y09125D03*
X14900Y09875D03*
X30900Y09125D03*
X30900Y09875D03*
X16400Y18125D03*
X16400Y17375D03*
G54D14*
X33275Y27500D03*
X32525Y27500D03*
X09775Y08500D03*
X09025Y08500D03*
G54D13*
X20650Y16625D03*
X20650Y15875D03*
G54D14*
X33275Y28250D03*
X32525Y28250D03*
G54D13*
X26900Y19625D03*
X26900Y20375D03*
X20650Y14875D03*
X20650Y14125D03*
X20650Y12625D03*
X20650Y11875D03*
G54D14*
X08525Y22000D03*
X07775Y22000D03*
X06775Y25000D03*
X06025Y25000D03*
X08775Y18250D03*
X08025Y18250D03*
G54D15*
X18900Y08000D03*
X17900Y08000D03*
X16900Y08000D03*
X15900Y08000D03*
X14900Y08000D03*
X13900Y08000D03*
X12900Y08000D03*
X11900Y08000D03*
X11900Y03000D03*
X12900Y03000D03*
X13900Y03000D03*
X14900Y03000D03*
X15900Y03000D03*
X16900Y03000D03*
X17900Y03000D03*
X18900Y03000D03*
X26900Y08000D03*
X25900Y08000D03*
X24900Y08000D03*
X23900Y08000D03*
X22900Y08000D03*
X21900Y08000D03*
X20900Y08000D03*
X19900Y08000D03*
X19900Y03000D03*
X20900Y03000D03*
X21900Y03000D03*
X22900Y03000D03*
X23900Y03000D03*
X24900Y03000D03*
X25900Y03000D03*
X26900Y03000D03*
X34900Y08000D03*
X33900Y08000D03*
X32900Y08000D03*
X31900Y08000D03*
X30900Y08000D03*
X29900Y08000D03*
X28900Y08000D03*
X27900Y08000D03*
X27900Y03000D03*
X28900Y03000D03*
X29900Y03000D03*
X30900Y03000D03*
X31900Y03000D03*
X32900Y03000D03*
X33900Y03000D03*
X34900Y03000D03*
X09900Y21500D03*
X10900Y21500D03*
X11900Y21500D03*
X12900Y21500D03*
X13900Y21500D03*
X14900Y21500D03*
X15900Y21500D03*
X16900Y21500D03*
X16900Y26500D03*
X15900Y26500D03*
X14900Y26500D03*
X13900Y26500D03*
X12900Y26500D03*
X11900Y26500D03*
X10900Y26500D03*
X09900Y26500D03*
X17900Y21500D03*
X18900Y21500D03*
X19900Y21500D03*
X20900Y21500D03*
X21900Y21500D03*
X22900Y21500D03*
X23900Y21500D03*
X24900Y21500D03*
X24900Y26500D03*
X23900Y26500D03*
X22900Y26500D03*
X21900Y26500D03*
X20900Y26500D03*
X19900Y26500D03*
X18900Y26500D03*
X17900Y26500D03*
G54D16*
X33400Y17000D03*
G54D15*
X33400Y18000D03*
X33400Y19000D03*
X33400Y20000D03*
G54D16*
X15900Y09000D03*
G54D15*
X15900Y10000D03*
X16900Y09000D03*
X16900Y10000D03*
X17900Y09000D03*
X17900Y10000D03*
G54D16*
X14900Y20500D03*
G54D15*
X14900Y19500D03*
X13900Y20500D03*
X13900Y19500D03*
X12900Y20500D03*
X12900Y19500D03*
G54D16*
X29900Y20500D03*
G54D15*
X29900Y19500D03*
X28900Y20500D03*
X28900Y19500D03*
X27900Y20500D03*
X27900Y19500D03*
G54D16*
X31900Y09000D03*
G54D15*
X31900Y10000D03*
X32900Y09000D03*
X32900Y10000D03*
X33900Y09000D03*
X33900Y10000D03*
G54D16*
X23900Y09000D03*
G54D15*
X23900Y10000D03*
X24900Y09000D03*
X24900Y10000D03*
X25900Y09000D03*
X25900Y10000D03*
G54D16*
X31400Y17500D03*
G54D15*
X30400Y17500D03*
X29400Y17500D03*
G54D16*
X32900Y30000D03*
G54D15*
X32900Y31000D03*
X32900Y32000D03*
G54D16*
X34900Y30000D03*
G54D15*
X34900Y31000D03*
X34900Y32000D03*
G54D16*
X35900Y30000D03*
G54D15*
X35900Y31000D03*
X35900Y32000D03*
G54D16*
X36900Y30000D03*
G54D15*
X36900Y31000D03*
X36900Y32000D03*
G54D16*
X37900Y30000D03*
G54D15*
X37900Y31000D03*
X37900Y32000D03*
G54D16*
X31400Y18500D03*
G54D15*
X30400Y18500D03*
X29400Y18500D03*
G54D16*
X33900Y30000D03*
G54D15*
X33900Y31000D03*
X33900Y32000D03*
G54D16*
X31400Y16500D03*
G54D15*
X30400Y16500D03*
X29400Y16500D03*
G54D16*
X31400Y15500D03*
G54D15*
X30400Y15500D03*
X29400Y15500D03*
G54D16*
X03650Y04500D03*
G54D15*
X03650Y03500D03*
G54D16*
X12900Y09500D03*
X11900Y11000D03*
X11900Y09500D03*
G54D17*
X06813Y22000D03*
X05987Y22000D03*
X06813Y18750D03*
X05987Y18750D03*
X06813Y26250D03*
X05987Y26250D03*
G54D18*
X34483Y06000D03*
X32317Y06000D03*
X10233Y10750D03*
X08067Y10750D03*
X17067Y28500D03*
X19233Y28500D03*
X09817Y28500D03*
X11983Y28500D03*
X26483Y06000D03*
X24317Y06000D03*
X19483Y06000D03*
X17317Y06000D03*
G54D16*
X33400Y15500D03*
G54D15*
X34400Y15500D03*
X33400Y14500D03*
X34400Y14500D03*
X33400Y13500D03*
X34400Y13500D03*
X33400Y12500D03*
X34400Y12500D03*
X33400Y11500D03*
X34400Y11500D03*
G54D16*
X30400Y14500D03*
G54D15*
X31400Y14500D03*
X30400Y13500D03*
X31400Y13500D03*
X30400Y12500D03*
X31400Y12500D03*
X30400Y11500D03*
X31400Y11500D03*
G54D16*
X34400Y17000D03*
G54D15*
X34400Y18000D03*
X34400Y19000D03*
X34400Y20000D03*
G54D19*
X19109Y12000D03*
X17691Y12000D03*
X19109Y16000D03*
X17691Y16000D03*
X19109Y14000D03*
X17691Y14000D03*
G54D20*
X38400Y06000D03*
G54D21*
X38400Y07000D03*
X38400Y08000D03*
X38400Y09000D03*
X38400Y10000D03*
X38400Y11000D03*
X38400Y12000D03*
X38400Y13000D03*
X38400Y14000D03*
X38400Y15000D03*
X38400Y16000D03*
X38400Y17000D03*
X38400Y18000D03*
X38400Y19000D03*
X38400Y20000D03*
X38400Y21000D03*
X38400Y22000D03*
X38400Y23000D03*
G54D22*
X07650Y13000D03*
X11650Y13000D03*
X11900Y05250D03*
X15900Y05250D03*
G54D23*
X07400Y17000D03*
X06400Y17000D03*
G54D24*
X08400Y17000D03*
G54D23*
X06150Y27750D03*
X05150Y27750D03*
G54D24*
X07150Y27750D03*
G54D23*
X07400Y20750D03*
X06400Y20750D03*
G54D24*
X08400Y20750D03*
G54D25*
X08550Y26600D03*
X08550Y25900D03*
X07750Y26250D03*
G54D26*
X26400Y23000D03*
X27400Y23000D03*
X28400Y23000D03*
X29400Y23000D03*
X30400Y23000D03*
X31400Y23000D03*
X32400Y23000D03*
X33400Y23000D03*
X35400Y04000D03*
X34400Y04000D03*
X33400Y04000D03*
X32400Y04000D03*
X28400Y04000D03*
X26400Y04000D03*
X25400Y04000D03*
X29400Y04000D03*
X30400Y04000D03*
X31400Y04000D03*
X24400Y04000D03*
X23400Y04000D03*
X22400Y04000D03*
X19400Y04000D03*
X20400Y04000D03*
X21400Y04000D03*
X17400Y04000D03*
X16400Y04000D03*
X15400Y04000D03*
X13400Y04000D03*
X12400Y04000D03*
X24400Y23000D03*
X23400Y23000D03*
X22400Y23000D03*
X21400Y23000D03*
X20400Y23000D03*
X19400Y23000D03*
X18400Y23000D03*
X17400Y23000D03*
X15800Y23000D03*
X14800Y23000D03*
X13800Y23000D03*
X12800Y23000D03*
X11800Y23000D03*
X10800Y23000D03*
X09800Y23000D03*
X08800Y23000D03*
X14400Y04000D03*
G54D27*
X37400Y04000D03*
X05400Y23000D03*
X04900Y04000D03*
G54D15*
X36400Y22000D03*
X37400Y22000D03*
X36400Y21000D03*
X37400Y21000D03*
X36400Y20000D03*
X37400Y20000D03*
X36400Y19000D03*
X37400Y19000D03*
X36400Y23000D03*
X37400Y23000D03*
X37400Y18000D03*
X36400Y18000D03*
X36400Y17000D03*
X37400Y17000D03*
X36400Y16000D03*
X37400Y16000D03*
X36400Y15000D03*
X37400Y15000D03*
X36400Y14000D03*
X37400Y14000D03*
X36400Y13000D03*
X37400Y13000D03*
X36400Y12000D03*
X37400Y12000D03*
X36400Y11000D03*
X37400Y11000D03*
X36400Y10000D03*
X37400Y10000D03*
X36400Y09000D03*
X37400Y09000D03*
X36400Y08000D03*
X37400Y08000D03*
X36400Y07000D03*
X37400Y07000D03*
X36400Y06000D03*
X37400Y06000D03*
G54D26*
X07800Y23000D03*
X06800Y23000D03*
X11400Y04000D03*
X10400Y04000D03*
G54D17*
X15650Y17337D03*
X15650Y18163D03*
G54D13*
X29900Y06625D03*
X29900Y05875D03*
G54D23*
X06150Y32000D03*
X05150Y32000D03*
G54D24*
X07150Y32000D03*
G54D25*
X08550Y30600D03*
X08550Y29900D03*
X07750Y30250D03*
G54D14*
X11775Y25500D03*
X11025Y25500D03*
X07775Y29000D03*
X08525Y29000D03*
X06775Y29000D03*
X06025Y29000D03*
G54D28*
X01900Y05500D03*
G54D29*
X01900Y07500D03*
G54D28*
X01900Y29500D03*
G54D29*
X01900Y31500D03*
G54D17*
X06813Y30250D03*
X05987Y30250D03*
G54D16*
X17900Y01000D03*
G54D15*
X16900Y01000D03*
X15900Y01000D03*
X14900Y01000D03*
G54D16*
X24900Y01000D03*
G54D15*
X23900Y01000D03*
X22900Y01000D03*
X21900Y01000D03*
G54D16*
X32900Y01000D03*
G54D15*
X31900Y01000D03*
X30900Y01000D03*
X29900Y01000D03*
G54D16*
X11900Y31500D03*
G54D15*
X12900Y31500D03*
X13900Y31500D03*
X14900Y31500D03*
G54D30*
X08292Y01992D03*
X06008Y01992D03*
X06008Y01008D03*
X04630Y01992D03*
X04630Y01008D03*
X08292Y01008D03*
X09670Y01008D03*
X09670Y01992D03*
X07150Y01500D03*
X08292Y06992D03*
X06008Y06992D03*
X06008Y06008D03*
X04630Y06992D03*
X04630Y06008D03*
X08292Y06008D03*
X09670Y06008D03*
X09670Y06992D03*
X07150Y06500D03*
X04908Y13142D03*
X04908Y10858D03*
X05892Y10858D03*
X04908Y09480D03*
X05892Y09480D03*
X05892Y13142D03*
X05892Y14520D03*
X04908Y14520D03*
X05400Y12000D03*
G54D13*
X20650Y18375D03*
X20650Y17625D03*
G54D31*
X11900Y06750D03*
G54D32*
X12900Y06750D03*
X13900Y06750D03*
G54D19*
X19109Y18000D03*
X17691Y18000D03*
G54D33*
X38498Y24500D03*
G54D34*
X37302Y24500D03*
X38498Y25500D03*
X37302Y25500D03*
X38498Y26500D03*
X37302Y26500D03*
X38498Y27500D03*
X37302Y27500D03*
G54D13*
X21650Y17625D03*
X21650Y18375D03*
X21650Y15875D03*
X21650Y16625D03*
X21650Y11875D03*
X21650Y12625D03*
X21650Y14125D03*
X21650Y14875D03*
X13900Y25375D03*
X13900Y24625D03*
X12900Y25375D03*
X12900Y24625D03*
X22650Y18375D03*
X22650Y17625D03*
X22650Y16625D03*
X22650Y15875D03*
X22650Y12625D03*
X22650Y11875D03*
X22650Y14875D03*
X22650Y14125D03*
G54D35*
X04650Y18540D03*
X04650Y16960D03*
X04650Y21790D03*
X04650Y20210D03*
X04650Y26540D03*
X04650Y24960D03*
X04650Y30540D03*
X04650Y28960D03*
G54D28*
X01900Y21500D03*
G54D29*
X01900Y23500D03*
G54D28*
X01900Y17500D03*
G54D29*
X01900Y19500D03*
G54D28*
X01900Y25500D03*
G54D29*
X01900Y27500D03*
G54D28*
X01900Y01500D03*
G54D29*
X01900Y03500D03*
G54D28*
X01900Y10500D03*
G54D29*
X01900Y12500D03*
G54D36*
X36121Y00614D03*
X36121Y02386D03*
X38680Y00614D03*
X38680Y02386D03*
G54D22*
X08642Y14000D03*
X07658Y14000D03*
X03650Y25242D03*
X03650Y24258D03*
X05908Y15500D03*
X06892Y15500D03*
G54D25*
X11050Y16350D03*
X11050Y15650D03*
X10250Y16000D03*
X11050Y19850D03*
X11050Y19150D03*
X10250Y19500D03*
G54D37*
X27050Y14250D03*
X27050Y13750D03*
X27050Y13250D03*
X27050Y12750D03*
X27050Y12250D03*
X27050Y11750D03*
X27050Y11250D03*
X29150Y11250D03*
X29150Y11750D03*
X29150Y12250D03*
X29150Y12750D03*
X29150Y13250D03*
X29150Y13750D03*
X29150Y14250D03*
X16000Y12750D03*
X16000Y13250D03*
X16000Y13750D03*
X16000Y14250D03*
X16000Y14750D03*
X16000Y15250D03*
X16000Y15750D03*
X13900Y15750D03*
X13900Y15250D03*
X13900Y14750D03*
X13900Y14250D03*
X13900Y13750D03*
X13900Y13250D03*
X13900Y12750D03*
G54D13*
X30900Y05875D03*
X30900Y06625D03*
X28900Y05875D03*
X28900Y06625D03*
G54D14*
X12025Y16000D03*
X12775Y16000D03*
X12025Y17250D03*
X12775Y17250D03*
X12775Y14750D03*
X12025Y14750D03*
X12775Y18250D03*
X12025Y18250D03*
X10275Y14750D03*
X11025Y14750D03*
X10275Y18250D03*
X11025Y18250D03*
G54D16*
X28400Y09750D03*
G54D15*
X29400Y09750D03*
G54D16*
X19900Y31500D03*
G54D15*
X20900Y31500D03*
X21900Y31500D03*
X22900Y31500D03*
G54D16*
X27400Y31500D03*
G54D15*
X28400Y31500D03*
X29400Y31500D03*
X30400Y31500D03*
G54D18*
X24817Y28500D03*
X26983Y28500D03*
G54D15*
X25900Y21500D03*
X26900Y21500D03*
X27900Y21500D03*
X28900Y21500D03*
X29900Y21500D03*
X30900Y21500D03*
X31900Y21500D03*
X32900Y21500D03*
X32900Y26500D03*
X31900Y26500D03*
X30900Y26500D03*
X29900Y26500D03*
X28900Y26500D03*
X27900Y26500D03*
X26900Y26500D03*
X25900Y26500D03*
G54D16*
X21900Y20500D03*
G54D15*
X21900Y19500D03*
X20900Y20500D03*
X20900Y19500D03*
X19900Y20500D03*
X19900Y19500D03*
G54D33*
X24302Y15000D03*
G54D34*
X25498Y15000D03*
X24302Y14000D03*
X25498Y14000D03*
X24302Y13000D03*
X25498Y13000D03*
G54D38*
X31045Y07128D03*
X14284Y15509D03*
X11886Y13856D03*
X28539Y13522D03*
X28214Y13035D03*
X26576Y15715D03*
X16433Y13750D03*
X22400Y21275D03*
X25686Y11330D03*
G54D39*
X33334Y06000D03*
X10603Y02391D03*
X19147Y04888D03*
G54D38*
X24441Y17112D03*
X26757Y18127D03*
X23383Y12481D03*
X32868Y19157D03*
X34549Y21413D03*
X27379Y17374D03*
X27781Y12500D03*
X24182Y19579D03*
X20039Y11705D03*
X19998Y13893D03*
X21400Y15485D03*
X22400Y17235D03*
X35831Y26842D03*
X35262Y26899D03*
X27408Y06285D03*
X28128Y06126D03*
X28382Y06653D03*
X28644Y07119D03*
X34408Y10625D03*
X29651Y07388D03*
G54D40*
X32476Y31576D02*
X32900Y32000D01*
X32476Y29049D02*
X32476Y31576D01*
X35900Y32000D02*
X36900Y32000D01*
X32900Y32000D02*
X33900Y32000D01*
X25400Y15000D02*
X29651Y15000D01*
X32977Y28250D02*
X32977Y28548D01*
X34900Y32000D02*
X33900Y32000D01*
X36900Y32000D02*
X37900Y32000D01*
X36511Y23111D02*
X37289Y23111D01*
X11900Y09500D02*
X12900Y09500D01*
X29651Y15000D02*
X30151Y15500D01*
X34900Y32000D02*
X35900Y32000D01*
X36511Y23111D02*
X36511Y26183D01*
X36400Y23000D02*
X36511Y23111D01*
X36132Y26562D02*
X35115Y26562D01*
X32977Y28548D02*
X32476Y29049D01*
X37289Y23111D02*
X37400Y23000D01*
X35115Y26562D02*
X34250Y27427D01*
X33275Y28250D02*
X33573Y28250D01*
X33573Y27669D02*
X33815Y27427D01*
X33815Y27427D02*
X34250Y27427D01*
X34250Y27800D02*
X34250Y27427D01*
X33275Y28250D02*
X32977Y28250D01*
X30151Y15500D02*
X30400Y15500D01*
X36511Y26183D02*
X36132Y26562D01*
X33573Y28250D02*
X33573Y27669D01*
G54D41*
X05892Y14520D02*
X04908Y14520D01*
X05892Y15484D02*
X05892Y14520D01*
X04650Y16960D02*
X03684Y16960D01*
X03144Y17500D02*
X01900Y17500D01*
X05908Y15500D02*
X05892Y15484D01*
X05304Y16072D02*
X04650Y16072D01*
X03684Y16960D02*
X03144Y17500D01*
X05892Y13142D02*
X04908Y13142D01*
X05892Y15484D02*
X05304Y16072D01*
X04650Y16960D02*
X04650Y16072D01*
G54D40*
X18473Y07644D02*
X18605Y07512D01*
X33323Y26562D02*
X34692Y26562D01*
X29748Y14500D02*
X29498Y14250D01*
X30400Y14500D02*
X29748Y14500D01*
X29150Y14250D02*
X29498Y14250D01*
X18605Y07512D02*
X21412Y07512D01*
X18473Y10000D02*
X18473Y07644D01*
X21412Y07512D02*
X21900Y08000D01*
X21900Y08000D02*
X22900Y08000D01*
X16615Y25785D02*
X15900Y26500D01*
X23185Y25785D02*
X16615Y25785D01*
X34855Y26399D02*
X36051Y26399D01*
X34692Y26562D02*
X34855Y26399D01*
X32102Y18423D02*
X32400Y18423D01*
X32002Y20000D02*
X32002Y18523D01*
X32002Y20000D02*
X30400Y20000D01*
X33323Y26319D02*
X32904Y25900D01*
X13900Y25375D02*
X14298Y25375D01*
X12900Y25375D02*
X13900Y25375D01*
X13552Y08348D02*
X13900Y08000D01*
X33275Y27500D02*
X33275Y27102D01*
X33323Y26766D02*
X33323Y26562D01*
X33158Y26931D02*
X33323Y26766D01*
X33158Y26985D02*
X33158Y26931D01*
X33275Y27102D02*
X33158Y26985D01*
X14794Y21500D02*
X14347Y21947D01*
X33323Y26562D02*
X33323Y26319D01*
X24500Y25900D02*
X23900Y26500D01*
X31900Y25900D02*
X24500Y25900D01*
X19423Y19500D02*
X19900Y19500D01*
X19298Y19625D02*
X19423Y19500D01*
X13552Y12750D02*
X13552Y08348D01*
X13900Y08000D02*
X14900Y08000D01*
X29900Y19500D02*
X28900Y19500D01*
X14726Y25326D02*
X15900Y26500D01*
X14347Y25326D02*
X14726Y25326D01*
X14298Y25375D02*
X14347Y25326D01*
X20650Y18375D02*
X20650Y18673D01*
X32904Y25900D02*
X31900Y25900D01*
X23900Y26500D02*
X23185Y25785D01*
X28900Y19500D02*
X27900Y19500D01*
X30900Y21500D02*
X29900Y21500D01*
X32002Y20375D02*
X32002Y20000D01*
X32002Y18523D02*
X32102Y18423D01*
X30400Y20000D02*
X29900Y19500D01*
X20650Y15173D02*
X18863Y15173D01*
X18520Y16625D02*
X20650Y16625D01*
X31900Y26500D02*
X31900Y25900D01*
X20650Y19500D02*
X20650Y18673D01*
X19900Y19500D02*
X20650Y19500D01*
X20650Y19500D02*
X20900Y19500D01*
X18400Y19625D02*
X17735Y19625D01*
X18900Y19625D02*
X18400Y19625D01*
X14915Y21500D02*
X14900Y21500D01*
X15465Y20950D02*
X14915Y21500D01*
X16410Y20950D02*
X15465Y20950D01*
X17735Y19625D02*
X16410Y20950D01*
X18400Y16745D02*
X18520Y16625D01*
X18400Y19625D02*
X18400Y16745D01*
X18466Y16571D02*
X18520Y16625D01*
X18466Y15570D02*
X18466Y16571D01*
X18863Y15173D02*
X18466Y15570D01*
X20650Y14875D02*
X20650Y15173D01*
X13900Y19500D02*
X14900Y19500D01*
X27900Y19500D02*
X27423Y19500D01*
X26900Y19625D02*
X27298Y19625D01*
X28900Y05875D02*
X28900Y06173D01*
X29900Y07286D02*
X29900Y08000D01*
X13900Y12750D02*
X13552Y12750D01*
X33400Y17000D02*
X33400Y17212D01*
X34400Y17000D02*
X33977Y17000D01*
X20252Y12625D02*
X18674Y12625D01*
X18823Y10000D02*
X18900Y10077D01*
X18900Y10375D02*
X18900Y10077D01*
X16900Y10000D02*
X17900Y10000D01*
X18900Y10375D02*
X18900Y10673D01*
X20650Y12625D02*
X20252Y12625D01*
X17900Y10000D02*
X18473Y10000D01*
X11900Y19625D02*
X12298Y19625D01*
X12423Y19500D02*
X12298Y19625D01*
X12900Y19500D02*
X12423Y19500D01*
X18473Y10000D02*
X18823Y10000D01*
X14900Y21500D02*
X14794Y21500D01*
X23900Y10000D02*
X24900Y10000D01*
X14347Y25326D02*
X14347Y21947D01*
X14347Y21947D02*
X13900Y21500D01*
X16900Y10000D02*
X15900Y10000D01*
X18900Y19625D02*
X19298Y19625D01*
X12423Y17648D02*
X12025Y17250D01*
X12025Y17250D02*
X12025Y16000D01*
X18466Y12417D02*
X18466Y11107D01*
X18674Y12625D02*
X18466Y12417D01*
X32698Y20673D02*
X33824Y21799D01*
X29198Y06173D02*
X29486Y06461D01*
X28900Y06173D02*
X29198Y06173D01*
X32400Y18125D02*
X32400Y18423D01*
X32400Y18125D02*
X32798Y18125D01*
X27423Y19500D02*
X27298Y19625D01*
X32329Y20375D02*
X32400Y20375D01*
X33869Y26073D02*
X34250Y26073D01*
X33600Y25804D02*
X33869Y26073D01*
X33600Y23848D02*
X33600Y25804D01*
X33824Y23624D02*
X33600Y23848D01*
X33824Y21799D02*
X33824Y23624D01*
X29486Y06461D02*
X29486Y06872D01*
X32400Y20673D02*
X32698Y20673D01*
X32400Y20375D02*
X32400Y20673D01*
X34250Y25700D02*
X34250Y26073D01*
X32900Y10000D02*
X33900Y10000D01*
X34823Y10000D02*
X34900Y10077D01*
X33900Y10000D02*
X34823Y10000D01*
X34900Y10375D02*
X34900Y10077D01*
X35150Y10077D02*
X34900Y10077D01*
X35325Y09902D02*
X35150Y10077D01*
X35325Y07472D02*
X35325Y09902D01*
X36374Y06423D02*
X35325Y07472D01*
X26275Y10375D02*
X26502Y10375D01*
X32002Y20398D02*
X32002Y20375D01*
X30900Y21500D02*
X32002Y20398D01*
X23491Y07409D02*
X27277Y07409D01*
X33400Y17212D02*
X33765Y17212D01*
X32329Y20375D02*
X32002Y20375D01*
X36300Y26150D02*
X36300Y25700D01*
X36051Y26399D02*
X36300Y26150D01*
X25900Y10000D02*
X26275Y10375D01*
X12423Y19500D02*
X12423Y17648D01*
X18466Y11107D02*
X18900Y10673D01*
X29486Y06872D02*
X29900Y07286D01*
X38400Y06423D02*
X36374Y06423D01*
X32798Y17814D02*
X32798Y18125D01*
X33765Y17212D02*
X33977Y17000D01*
X26900Y10375D02*
X26502Y10375D01*
X33400Y17212D02*
X32798Y17814D01*
X28512Y06173D02*
X28900Y06173D01*
X27277Y07408D02*
X28512Y06173D01*
X38400Y06000D02*
X38400Y06423D01*
X22900Y08000D02*
X23491Y07409D01*
X27277Y07409D02*
X27277Y07408D01*
X24900Y10000D02*
X25900Y10000D01*
G54D42*
X24817Y28500D02*
X24817Y29123D01*
X15388Y06623D02*
X19483Y06623D01*
X09817Y29123D02*
X17067Y29123D01*
X24817Y28500D02*
X24817Y27877D01*
X26483Y06000D02*
X26483Y06623D01*
X25900Y26794D02*
X25900Y26500D01*
X34483Y05429D02*
X34483Y05377D01*
X08292Y06008D02*
X09670Y06008D01*
X18556Y05073D02*
X18556Y03344D01*
X34483Y05377D02*
X34228Y05122D01*
X19483Y06623D02*
X26483Y06623D01*
X34228Y05122D02*
X27442Y05122D01*
X34483Y05377D02*
X35106Y05377D01*
X19483Y06490D02*
X19483Y06623D01*
X35484Y03000D02*
X34900Y03000D01*
X17067Y28500D02*
X17067Y27333D01*
X17067Y29123D02*
X24817Y29123D01*
X09817Y28500D02*
X09817Y29123D01*
X27442Y05122D02*
X27090Y04770D01*
X34483Y06000D02*
X34483Y05429D01*
X14773Y06008D02*
X15388Y06623D01*
X27090Y04770D02*
X26483Y05377D01*
X09670Y06008D02*
X14773Y06008D01*
X17067Y27333D02*
X17900Y26500D01*
X26483Y06000D02*
X26483Y05377D01*
X18556Y03344D02*
X18900Y03000D01*
X27090Y03190D02*
X27090Y04770D01*
X17067Y28500D02*
X17067Y29123D01*
X09817Y26583D02*
X09900Y26500D01*
X36239Y04244D02*
X36239Y03755D01*
X19483Y06000D02*
X19483Y06490D01*
X09817Y28500D02*
X09817Y26583D01*
X24817Y27877D02*
X25900Y26794D01*
X36239Y03755D02*
X35484Y03000D01*
X35106Y05377D02*
X36239Y04244D01*
X26900Y03000D02*
X27090Y03190D01*
X19483Y06000D02*
X18556Y05073D01*
X02349Y21500D02*
X02798Y21500D01*
X10233Y11583D02*
X10233Y10750D01*
X01900Y21500D02*
X01900Y20602D01*
X01002Y20602D02*
X01000Y20600D01*
X01000Y20600D02*
X01000Y09731D01*
X11650Y13000D02*
X10233Y11583D01*
X09775Y08500D02*
X09775Y07917D01*
X02814Y07917D02*
X09775Y07917D01*
X01900Y20602D02*
X01002Y20602D01*
X01000Y09731D02*
X02814Y07917D01*
X01001Y26529D02*
X01001Y28601D01*
X04650Y28960D02*
X03909Y28960D01*
X03909Y24983D02*
X03650Y25242D01*
X02349Y21500D02*
X01900Y21500D01*
X01900Y29051D02*
X01900Y28602D01*
X02798Y21500D02*
X03909Y20389D01*
X03650Y25242D02*
X03392Y25500D01*
X01900Y29500D02*
X01900Y29051D01*
X11900Y05250D02*
X10526Y05250D01*
X10233Y10750D02*
X10233Y10127D01*
X04650Y20210D02*
X03909Y20210D01*
X01002Y28602D02*
X01900Y28602D01*
X01001Y28601D02*
X01002Y28602D01*
X01131Y26399D02*
X01001Y26529D01*
X03909Y20389D02*
X03909Y20210D01*
X09670Y01008D02*
X08292Y01008D01*
X04650Y24960D02*
X03909Y24960D01*
X01900Y29051D02*
X03818Y29051D01*
X03818Y29051D02*
X03909Y28960D01*
X01900Y26399D02*
X01131Y26399D01*
X10233Y10127D02*
X09775Y09669D01*
X09670Y04394D02*
X09670Y01992D01*
X03392Y25500D02*
X01900Y25500D01*
X10526Y05250D02*
X09670Y04394D01*
X09775Y09669D02*
X09775Y08500D01*
X01900Y25500D02*
X01900Y26399D01*
X03909Y24960D02*
X03909Y24983D01*
G54D40*
X30900Y06983D02*
X30900Y06625D01*
X31045Y07128D02*
X30900Y06983D01*
G54D41*
X05892Y09480D02*
X04908Y09480D01*
X05892Y10858D02*
X04908Y10858D01*
X03542Y10858D02*
X01900Y12500D01*
X04908Y10858D02*
X03542Y10858D01*
G54D40*
X10800Y23000D02*
X10800Y22377D01*
X15431Y20753D02*
X15171Y21013D01*
X16146Y20753D02*
X15431Y20753D01*
X13485Y21013D02*
X13334Y21164D01*
X16400Y18423D02*
X16400Y20499D01*
X15171Y21013D02*
X13485Y21013D01*
X16400Y18125D02*
X16400Y18423D01*
X16400Y20499D02*
X16146Y20753D01*
X13334Y21164D02*
X13334Y21905D01*
X12862Y22377D02*
X10800Y22377D01*
X13334Y21905D02*
X12862Y22377D01*
G54D42*
X04630Y06008D02*
X06008Y06008D01*
X02408Y06992D02*
X01900Y07500D01*
X04630Y06992D02*
X02408Y06992D01*
X05391Y26302D02*
X05443Y26250D01*
X04352Y27500D02*
X04650Y27202D01*
X05391Y26540D02*
X05391Y26302D01*
X06150Y27091D02*
X05599Y26540D01*
X06150Y27750D02*
X06150Y27091D01*
X04650Y26540D02*
X04650Y27202D01*
X05987Y26250D02*
X05443Y26250D01*
X05599Y26540D02*
X05391Y26540D01*
X01900Y27500D02*
X04352Y27500D01*
X04650Y26540D02*
X05391Y26540D01*
G54D41*
X07516Y17131D02*
X07516Y17332D01*
X05987Y18750D02*
X05987Y18497D01*
X05987Y18497D02*
X05987Y17981D01*
X02860Y18540D02*
X04650Y18540D01*
X01900Y19500D02*
X02860Y18540D01*
X05659Y18497D02*
X05987Y18497D01*
X05616Y18540D02*
X05659Y18497D01*
X04650Y18540D02*
X05616Y18540D01*
G54D43*
X07516Y17116D02*
X07400Y17000D01*
X07516Y17131D02*
X07516Y17116D01*
G54D41*
X06867Y17981D02*
X05987Y17981D01*
X07516Y17332D02*
X06867Y17981D01*
G54D42*
X05987Y22000D02*
X05987Y21456D01*
X05391Y21790D02*
X05391Y21948D01*
X05987Y22000D02*
X05443Y22000D01*
X06694Y21456D02*
X05987Y21456D01*
X01900Y23500D02*
X03610Y21790D01*
X04650Y21790D02*
X05391Y21790D01*
X05391Y21948D02*
X05443Y22000D01*
X07400Y20750D02*
X06694Y21456D01*
X03610Y21790D02*
X04650Y21790D01*
X02860Y30540D02*
X04650Y30540D01*
X01900Y31500D02*
X02860Y30540D01*
X05391Y30302D02*
X05443Y30250D01*
X05391Y30540D02*
X05391Y30302D01*
X05987Y30250D02*
X05443Y30250D01*
X04650Y30540D02*
X05391Y30540D01*
X06150Y30957D02*
X05987Y30794D01*
X06150Y32000D02*
X06150Y30957D01*
X05987Y30250D02*
X05987Y30794D01*
G54D40*
X07775Y29000D02*
X07477Y29000D01*
X07926Y21401D02*
X08227Y21702D01*
X08227Y21702D02*
X08227Y22000D01*
X10275Y18250D02*
X09945Y18250D01*
X08525Y22000D02*
X08525Y22398D01*
X07626Y25000D02*
X08307Y24319D01*
X08525Y22000D02*
X08227Y22000D01*
X08307Y24319D02*
X08307Y22616D01*
X07626Y25000D02*
X07477Y25000D01*
X06775Y28801D02*
X07278Y28801D01*
X09945Y18250D02*
X07926Y20269D01*
X07926Y20269D02*
X07926Y21401D01*
X07775Y25000D02*
X07626Y25000D01*
X08307Y22616D02*
X08525Y22398D01*
X07284Y25000D02*
X07477Y25000D01*
X07073Y25000D02*
X07284Y25000D01*
X07284Y26579D02*
X06676Y27187D01*
X06676Y27187D02*
X06676Y28503D01*
X06775Y28801D02*
X06775Y28602D01*
X06676Y28503D02*
X06775Y28602D01*
X06775Y25000D02*
X07073Y25000D01*
X06775Y25000D02*
X06477Y25000D01*
X06033Y24258D02*
X06477Y24702D01*
X07278Y28801D02*
X07477Y29000D01*
X07284Y25000D02*
X07284Y26579D01*
X06775Y29000D02*
X06775Y28801D01*
X06477Y24702D02*
X06477Y25000D01*
X03650Y24258D02*
X06033Y24258D01*
G54D42*
X04630Y01008D02*
X06008Y01008D01*
X03408Y01992D02*
X02217Y03183D01*
X04630Y01992D02*
X03408Y01992D01*
X02217Y03183D02*
X01900Y03500D01*
X03042Y04008D02*
X03042Y04500D01*
X02217Y03183D02*
X03042Y04008D01*
X03650Y04500D02*
X03042Y04500D01*
G54D40*
X38680Y00614D02*
X36121Y00614D01*
G54D42*
X29400Y27000D02*
X29900Y26500D01*
X29400Y31500D02*
X29400Y27000D01*
X30900Y31000D02*
X30900Y26500D01*
X30400Y31500D02*
X30900Y31000D01*
G54D40*
X13900Y24625D02*
X13900Y24327D01*
X11775Y24500D02*
X12073Y24500D01*
X12557Y24016D02*
X12073Y24500D01*
X13589Y24016D02*
X12557Y24016D01*
X13589Y24016D02*
X13900Y24327D01*
X13800Y23623D02*
X13800Y23805D01*
X13800Y23000D02*
X13800Y23623D01*
X13800Y23805D02*
X13589Y24016D01*
X32922Y12978D02*
X31400Y14500D01*
X36802Y11434D02*
X36353Y11434D01*
X37157Y10424D02*
X36824Y10757D01*
X37400Y09000D02*
X37834Y09434D01*
X36824Y11412D02*
X36802Y11434D01*
X34809Y12978D02*
X32922Y12978D01*
X37834Y09434D02*
X37834Y10402D01*
X36824Y10757D02*
X36824Y11412D01*
X36353Y11434D02*
X34809Y12978D01*
X37812Y10424D02*
X37157Y10424D01*
X37834Y10402D02*
X37812Y10424D01*
X36900Y08268D02*
X36900Y07500D01*
X36900Y07500D02*
X37400Y07000D01*
X33023Y10877D02*
X35023Y10877D01*
X35023Y10877D02*
X35863Y10037D01*
X35863Y10037D02*
X35863Y08909D01*
X35863Y08909D02*
X36272Y08500D01*
X36272Y08500D02*
X36668Y08500D01*
X36668Y08500D02*
X36900Y08268D01*
X31400Y12500D02*
X33023Y10877D01*
X14248Y15473D02*
X14284Y15509D01*
X14248Y15250D02*
X14248Y15473D01*
X13900Y15250D02*
X14248Y15250D01*
X12775Y16000D02*
X13073Y16000D01*
X12775Y14750D02*
X12775Y15148D01*
X13323Y15696D02*
X12775Y15148D01*
X13323Y15750D02*
X13323Y15696D01*
X13900Y15750D02*
X13323Y15750D01*
X13323Y15750D02*
X13073Y16000D01*
X13446Y13856D02*
X11886Y13856D01*
X13900Y13750D02*
X13552Y13750D01*
X13552Y13750D02*
X13446Y13856D01*
X13900Y14250D02*
X12498Y14250D01*
X12775Y17250D02*
X12477Y17250D01*
X12498Y14250D02*
X12477Y14271D01*
X12775Y18250D02*
X12775Y17250D01*
X12477Y14271D02*
X12477Y17250D01*
X23989Y22214D02*
X32186Y22214D01*
X23826Y22377D02*
X23989Y22214D01*
X22400Y22377D02*
X23826Y22377D01*
X22400Y23000D02*
X22400Y22377D01*
X32186Y22214D02*
X32900Y21500D01*
X28802Y13250D02*
X28802Y13259D01*
X28802Y13259D02*
X28539Y13522D01*
X29150Y13250D02*
X28802Y13250D01*
X28499Y12750D02*
X28214Y13035D01*
X29150Y12750D02*
X28499Y12750D01*
X26727Y20673D02*
X26900Y20673D01*
X25900Y21500D02*
X26727Y20673D01*
X26900Y20375D02*
X26900Y20673D01*
X21400Y23000D02*
X21400Y22377D01*
X21400Y22377D02*
X21564Y22213D01*
X21564Y22213D02*
X23263Y22213D01*
X23263Y22213D02*
X23430Y22046D01*
X23430Y22046D02*
X31354Y22046D01*
X31354Y22046D02*
X31900Y21500D01*
X22850Y13277D02*
X22861Y13277D01*
X16000Y12750D02*
X16348Y12750D01*
X23077Y13277D02*
X23600Y13800D01*
X16875Y13277D02*
X22850Y13277D01*
X24015Y15715D02*
X24283Y15715D01*
X23600Y13800D02*
X23600Y15300D01*
X23600Y15300D02*
X24015Y15715D01*
X16348Y12750D02*
X16875Y13277D01*
X22850Y13277D02*
X23077Y13277D01*
X24283Y15715D02*
X26576Y15715D01*
X18900Y20375D02*
X18900Y20673D01*
X16000Y13750D02*
X16433Y13750D01*
X18727Y20673D02*
X18900Y20673D01*
X17900Y21500D02*
X18727Y20673D01*
X24821Y20837D02*
X22838Y20837D01*
X32973Y16596D02*
X32973Y16760D01*
X34826Y16574D02*
X32995Y16574D01*
X32995Y16574D02*
X32973Y16596D01*
X32973Y16760D02*
X31673Y18060D01*
X36400Y15000D02*
X34826Y16574D01*
X31673Y18060D02*
X27868Y18060D01*
X27064Y18864D02*
X26794Y18864D01*
X26794Y18864D02*
X24821Y20837D01*
X27868Y18060D02*
X27064Y18864D01*
X22838Y20837D02*
X22400Y21275D01*
X35957Y18557D02*
X35957Y17677D01*
X35957Y17677D02*
X36200Y17434D01*
X36824Y13588D02*
X36812Y13576D01*
X36802Y17434D02*
X36824Y17412D01*
X22846Y13562D02*
X17076Y13562D01*
X32797Y14939D02*
X31763Y15973D01*
X36812Y13576D02*
X35497Y13576D01*
X36824Y17412D02*
X36824Y13588D01*
X23973Y15973D02*
X23250Y15250D01*
X35014Y14059D02*
X34243Y14059D01*
X34243Y14059D02*
X33977Y14325D01*
X36400Y19000D02*
X35957Y18557D01*
X16388Y14250D02*
X16000Y14250D01*
X23250Y13966D02*
X22846Y13562D01*
X17076Y13562D02*
X16388Y14250D01*
X35497Y13576D02*
X35014Y14059D01*
X36200Y17434D02*
X36802Y17434D01*
X31763Y15973D02*
X23973Y15973D01*
X23250Y15250D02*
X23250Y13966D01*
X33638Y14939D02*
X32797Y14939D01*
X33977Y14600D02*
X33638Y14939D01*
X33977Y14325D02*
X33977Y14600D01*
X09900Y21500D02*
X11025Y20375D01*
X16000Y15250D02*
X15652Y15250D01*
X11900Y20375D02*
X11900Y20077D01*
X15652Y15250D02*
X13459Y17443D01*
X13459Y17443D02*
X13459Y19766D01*
X13459Y19766D02*
X13148Y20077D01*
X13148Y20077D02*
X11900Y20077D01*
X11025Y20375D02*
X11900Y20375D01*
X32183Y17000D02*
X28466Y17000D01*
X36400Y14341D02*
X34817Y15924D01*
X36400Y14000D02*
X36400Y14341D01*
X16091Y21500D02*
X15900Y21500D01*
X34817Y15924D02*
X33259Y15924D01*
X26658Y18538D02*
X25160Y20036D01*
X33259Y15924D02*
X32183Y17000D01*
X17555Y20036D02*
X16091Y21500D01*
X26928Y18538D02*
X26658Y18538D01*
X28466Y17000D02*
X26928Y18538D01*
X25160Y20036D02*
X17555Y20036D01*
X12229Y24898D02*
X11775Y24898D01*
X12502Y24625D02*
X12229Y24898D01*
X11775Y24898D02*
X11549Y24898D01*
X11549Y24898D02*
X11477Y24826D01*
X12027Y23624D02*
X12800Y23624D01*
X12800Y23624D02*
X12800Y23623D01*
X11775Y25500D02*
X11775Y24898D01*
X11477Y24826D02*
X11477Y24174D01*
X12900Y24625D02*
X12502Y24625D01*
X12800Y23000D02*
X12800Y23623D01*
X11477Y24174D02*
X12027Y23624D01*
X09800Y22841D02*
X09800Y22377D01*
X10747Y15356D02*
X10747Y16025D01*
X38324Y30576D02*
X37900Y31000D01*
X38324Y28173D02*
X38324Y30576D01*
X21650Y18673D02*
X22246Y18673D01*
X08642Y14000D02*
X11354Y14000D01*
X32525Y27500D02*
X32227Y27500D01*
X22246Y18673D02*
X22900Y19327D01*
X10769Y16047D02*
X11050Y16047D01*
X11050Y19850D02*
X10747Y19850D01*
X08550Y26600D02*
X08550Y26449D01*
X30502Y09875D02*
X30001Y09875D01*
X30001Y09875D02*
X28794Y11082D01*
X28794Y11082D02*
X28794Y11478D01*
X28794Y11478D02*
X28816Y11500D01*
X28816Y11500D02*
X30400Y11500D01*
X09800Y24370D02*
X08609Y25561D01*
X10747Y16025D02*
X10769Y16047D01*
X08329Y25561D02*
X08247Y25643D01*
X08247Y25643D02*
X08247Y26275D01*
X08247Y26275D02*
X08269Y26297D01*
X08269Y26297D02*
X08550Y26297D01*
X09800Y22841D02*
X09800Y23000D01*
X11050Y16350D02*
X11050Y16047D01*
X11354Y14000D02*
X11354Y15146D01*
X09800Y23000D02*
X09800Y24370D01*
X11836Y13518D02*
X13542Y13518D01*
X38324Y27500D02*
X38324Y28173D01*
X38324Y28173D02*
X36300Y28173D01*
X15900Y19625D02*
X15900Y19327D01*
X15900Y19327D02*
X15650Y19077D01*
X15650Y19077D02*
X15650Y18522D01*
X15476Y12000D02*
X14450Y13026D01*
X14450Y13026D02*
X13564Y13026D01*
X16063Y17750D02*
X15650Y18163D01*
X25686Y11250D02*
X25686Y11330D01*
X11166Y15334D02*
X10769Y15334D01*
X24476Y26924D02*
X24900Y26500D01*
X36300Y27800D02*
X36300Y28173D01*
X26498Y02575D02*
X26413Y02660D01*
X37400Y06000D02*
X37212Y05812D01*
X36651Y02847D02*
X36736Y02762D01*
X30900Y09875D02*
X30502Y09875D01*
X29900Y05875D02*
X29900Y05577D01*
X24900Y26500D02*
X25336Y26064D01*
X25336Y26064D02*
X31302Y26064D01*
X31302Y26064D02*
X31324Y26086D01*
X11354Y15146D02*
X11166Y15334D01*
X27900Y03000D02*
X27475Y02575D01*
X16900Y26500D02*
X17443Y25957D01*
X17443Y25957D02*
X23124Y25957D01*
X23124Y25957D02*
X23466Y26299D01*
X23466Y26299D02*
X23466Y26902D01*
X23466Y26902D02*
X23488Y26924D01*
X31324Y26086D02*
X31324Y26760D01*
X21650Y14726D02*
X22496Y15572D01*
X23027Y15572D02*
X23049Y15594D01*
X23049Y16152D02*
X22874Y16327D01*
X17691Y14577D02*
X17691Y14438D01*
X14227Y14482D02*
X13617Y14482D01*
X13617Y14482D02*
X13552Y14547D01*
X17691Y15562D02*
X17691Y14577D01*
X17691Y14577D02*
X21650Y14577D01*
X16348Y15562D02*
X17691Y15562D01*
X22246Y18083D02*
X22246Y18673D01*
X22889Y18061D02*
X22268Y18061D01*
X16348Y15049D02*
X16348Y15562D01*
X17691Y16000D02*
X17691Y15562D01*
X16000Y15750D02*
X16348Y15750D01*
X17691Y12000D02*
X17691Y12438D01*
X21650Y14726D02*
X21650Y14577D01*
X13552Y14547D02*
X13552Y14961D01*
X13552Y14961D02*
X13574Y14983D01*
X13574Y14983D02*
X16282Y14983D01*
X16348Y15562D02*
X16348Y15750D01*
X14167Y13518D02*
X14249Y13600D01*
X22589Y16936D02*
X23048Y17395D01*
X23048Y17395D02*
X23048Y17902D01*
X23048Y17902D02*
X22889Y18061D01*
X22270Y16936D02*
X22589Y16936D01*
X22248Y16914D02*
X22270Y16936D01*
X22248Y16327D02*
X22248Y16914D01*
X14249Y13600D02*
X14249Y14460D01*
X13542Y13518D02*
X14167Y13518D01*
X14249Y14460D02*
X14227Y14482D01*
X17691Y12438D02*
X18176Y12923D01*
X10769Y15334D02*
X10747Y15356D01*
X22268Y18061D02*
X22246Y18083D01*
X08609Y25561D02*
X08329Y25561D01*
X21650Y16327D02*
X22248Y16327D01*
X16476Y26924D02*
X16900Y26500D01*
X16282Y14983D02*
X16348Y15049D01*
X17056Y17808D02*
X16998Y17750D01*
X23488Y26924D02*
X24476Y26924D01*
X13564Y13026D02*
X13542Y13048D01*
X13542Y13048D02*
X13542Y13518D01*
X15488Y26924D02*
X16476Y26924D01*
X17691Y14000D02*
X17691Y14438D01*
X08550Y26449D02*
X09915Y25084D01*
X31324Y26760D02*
X31782Y27218D01*
X31782Y27218D02*
X32182Y27218D01*
X32227Y27263D02*
X32227Y27500D01*
X18176Y12923D02*
X21650Y12923D01*
X21650Y14875D02*
X21650Y14726D01*
X11330Y25106D02*
X11330Y25745D01*
X11330Y25745D02*
X11484Y25899D01*
X11484Y25899D02*
X15066Y25899D01*
X15066Y25899D02*
X15466Y26299D01*
X15466Y26299D02*
X15466Y26902D01*
X15466Y26902D02*
X15488Y26924D01*
X32182Y27218D02*
X32227Y27263D01*
X08550Y26449D02*
X08550Y26297D01*
X15476Y12000D02*
X17691Y12000D01*
X21650Y12625D02*
X21650Y12923D01*
X17691Y18000D02*
X17056Y18000D01*
X17691Y16000D02*
X17691Y16438D01*
X16998Y17750D02*
X16998Y17131D01*
X16998Y17131D02*
X17691Y16438D01*
X16998Y17750D02*
X16063Y17750D01*
X21650Y12625D02*
X21650Y12327D01*
X17056Y18000D02*
X17056Y17808D01*
X32182Y27218D02*
X32900Y26500D01*
X21650Y12327D02*
X21744Y12233D01*
X21744Y12233D02*
X24633Y12233D01*
X24633Y12233D02*
X25400Y13000D01*
X25686Y11250D02*
X26702Y11250D01*
X23298Y09875D02*
X23298Y10017D01*
X23298Y10017D02*
X24531Y11250D01*
X24531Y11250D02*
X25686Y11250D01*
X11354Y14000D02*
X11836Y13518D01*
X38400Y27500D02*
X38324Y27500D01*
X11050Y16653D02*
X11324Y16927D01*
X11324Y16927D02*
X11324Y18627D01*
X28628Y03429D02*
X28199Y03000D01*
X28199Y03000D02*
X27900Y03000D01*
X11324Y18627D02*
X11302Y18649D01*
X29628Y03429D02*
X29570Y03371D01*
X33570Y03371D02*
X33129Y03371D01*
X33129Y03371D02*
X33071Y03429D01*
X33071Y03429D02*
X32628Y03429D01*
X32628Y03429D02*
X32570Y03371D01*
X32570Y03371D02*
X32129Y03371D01*
X32129Y03371D02*
X32071Y03429D01*
X32071Y03429D02*
X31628Y03429D01*
X23049Y15594D02*
X23049Y16152D01*
X29570Y03371D02*
X29129Y03371D01*
X29129Y03371D02*
X29071Y03429D01*
X31628Y03429D02*
X31570Y03371D01*
X29071Y03429D02*
X28628Y03429D01*
X11308Y25084D02*
X11330Y25106D01*
X09915Y25084D02*
X11308Y25084D01*
X22874Y16327D02*
X22248Y16327D01*
X22496Y15572D02*
X23027Y15572D01*
X21650Y18375D02*
X21650Y18673D01*
X16400Y04000D02*
X16400Y04623D01*
X15400Y04080D02*
X15943Y04623D01*
X15943Y04623D02*
X16400Y04623D01*
X15400Y04000D02*
X15400Y04080D01*
X08550Y26600D02*
X08550Y26903D01*
X08550Y30600D02*
X07468Y30600D01*
X07468Y30600D02*
X07446Y30578D01*
X07446Y30578D02*
X07446Y29998D01*
X07446Y29998D02*
X08127Y29317D01*
X08127Y27326D02*
X08550Y26903D01*
X22900Y19625D02*
X22900Y19327D01*
X32525Y28250D02*
X32525Y27500D01*
X11302Y18649D02*
X11007Y18649D01*
X31570Y03371D02*
X31129Y03371D01*
X34900Y31000D02*
X35900Y31000D01*
X33900Y31000D02*
X34900Y31000D01*
X30900Y19625D02*
X30900Y19327D01*
X31400Y18500D02*
X31400Y18923D01*
X31400Y18923D02*
X30996Y19327D01*
X30996Y19327D02*
X30900Y19327D01*
X27050Y11250D02*
X26702Y11250D01*
X31129Y03371D02*
X31071Y03429D01*
X21650Y16625D02*
X21650Y16327D01*
X09800Y22377D02*
X09477Y22054D01*
X09477Y22054D02*
X09477Y21120D01*
X08127Y29317D02*
X08127Y27326D01*
X30570Y03371D02*
X30129Y03371D01*
X31302Y08432D02*
X31324Y08410D01*
X31324Y08410D02*
X31324Y06771D01*
X36400Y06000D02*
X35629Y06771D01*
X35629Y06771D02*
X31324Y06771D01*
X36651Y05812D02*
X36588Y05812D01*
X36588Y05812D02*
X36400Y06000D01*
X15476Y12000D02*
X15476Y10749D01*
X36121Y02386D02*
X36736Y02386D01*
X31071Y03429D02*
X30628Y03429D01*
X30628Y03429D02*
X30570Y03371D01*
X30129Y03371D02*
X30071Y03429D01*
X30071Y03429D02*
X29628Y03429D01*
X38680Y02386D02*
X36736Y02386D01*
X15476Y10749D02*
X14900Y10173D01*
X30969Y08432D02*
X31302Y08432D01*
X14900Y09875D02*
X14900Y10173D01*
X11050Y16350D02*
X11050Y16653D01*
X33754Y03555D02*
X33570Y03371D01*
X30502Y08899D02*
X30969Y08432D01*
X11007Y18649D02*
X10747Y18909D01*
X09477Y21120D02*
X10747Y19850D01*
X10747Y18909D02*
X10747Y19850D01*
X36900Y31000D02*
X37900Y31000D01*
X35900Y31000D02*
X36900Y31000D01*
X31324Y06771D02*
X31324Y05675D01*
X31324Y05675D02*
X31226Y05577D01*
X31226Y05577D02*
X29900Y05577D01*
X30502Y09875D02*
X30502Y08899D01*
X15650Y18163D02*
X15650Y18522D01*
X34835Y02386D02*
X34400Y02821D01*
X22230Y03371D02*
X22172Y03429D01*
X22172Y03429D02*
X21730Y03429D01*
X36651Y05812D02*
X36651Y02847D01*
X23730Y03429D02*
X23672Y03371D01*
X23672Y03371D02*
X23230Y03371D01*
X23230Y03371D02*
X23172Y03429D01*
X23172Y03429D02*
X22730Y03429D01*
X22730Y03429D02*
X22672Y03371D01*
X26413Y02660D02*
X26413Y03188D01*
X26172Y03429D02*
X25730Y03429D01*
X34400Y02821D02*
X34400Y03150D01*
X34400Y03150D02*
X33995Y03555D01*
X33995Y03555D02*
X33754Y03555D01*
X21672Y03371D02*
X21230Y03371D01*
X21730Y03429D02*
X21672Y03371D01*
X36736Y02762D02*
X36736Y02386D01*
X37212Y05812D02*
X36651Y05812D01*
X27475Y02575D02*
X26498Y02575D01*
X24230Y03371D02*
X24172Y03429D01*
X22672Y03371D02*
X22230Y03371D01*
X26413Y03188D02*
X26172Y03429D01*
X22900Y09875D02*
X23298Y09875D01*
X24172Y03429D02*
X23730Y03429D01*
X21230Y03371D02*
X21047Y03554D01*
X20250Y03000D02*
X19900Y03000D01*
X21047Y03554D02*
X20804Y03554D01*
X36121Y02386D02*
X34835Y02386D01*
X20804Y03554D02*
X20250Y03000D01*
X25230Y03371D02*
X25172Y03429D01*
X25672Y03371D02*
X25230Y03371D01*
X25730Y03429D02*
X25672Y03371D01*
X24672Y03371D02*
X24230Y03371D01*
X24730Y03429D02*
X24672Y03371D01*
X25172Y03429D02*
X24730Y03429D01*
X30900Y14000D02*
X25400Y14000D01*
X31400Y13500D02*
X30900Y14000D01*
G54D42*
X11983Y28500D02*
X11983Y27877D01*
X18900Y27544D02*
X18900Y26500D01*
X19233Y27877D02*
X18900Y27544D01*
X19233Y28500D02*
X19233Y27877D01*
X24317Y06000D02*
X24317Y05689D01*
X32317Y06000D02*
X33334Y06000D01*
X17291Y02391D02*
X10603Y02391D01*
X17900Y03000D02*
X17291Y02391D01*
X33900Y03000D02*
X33016Y02116D01*
X33016Y02116D02*
X25900Y02116D01*
X25900Y02116D02*
X25900Y03000D01*
X09025Y08500D02*
X08542Y08500D01*
X07650Y13000D02*
X08067Y12583D01*
X08067Y12583D02*
X08067Y10750D01*
X07658Y14000D02*
X07650Y13992D01*
X07650Y13992D02*
X07650Y13000D01*
X26983Y27877D02*
X26900Y27794D01*
X26983Y28500D02*
X26983Y27877D01*
X10900Y26794D02*
X10900Y26500D01*
X11983Y27877D02*
X10900Y26794D01*
X26900Y27794D02*
X26900Y26500D01*
X17317Y06000D02*
X17317Y05377D01*
X25900Y02116D02*
X18784Y02116D01*
X18784Y02116D02*
X17900Y03000D01*
X18016Y04678D02*
X17317Y05377D01*
X18016Y03116D02*
X18016Y04678D01*
X17900Y03000D02*
X18016Y03116D01*
X08067Y10750D02*
X08067Y08975D01*
X08067Y08975D02*
X08542Y08500D01*
X19147Y04888D02*
X23516Y04888D01*
X23516Y04888D02*
X24317Y05689D01*
G54D40*
X15964Y17337D02*
X16002Y17375D01*
X15650Y17337D02*
X15964Y17337D01*
X16400Y17375D02*
X16002Y17375D01*
X28900Y06625D02*
X28900Y06923D01*
X28400Y09750D02*
X28400Y09327D01*
X28400Y07714D02*
X28400Y09327D01*
X28900Y07214D02*
X28400Y07714D01*
X28900Y06923D02*
X28900Y07214D01*
X15721Y12526D02*
X17132Y12526D01*
X15652Y12595D02*
X15721Y12526D01*
X15652Y13250D02*
X15652Y12595D01*
X28802Y12250D02*
X28433Y12250D01*
X28433Y12250D02*
X27050Y12250D01*
X28433Y10717D02*
X29400Y09750D01*
X28433Y12250D02*
X28433Y10717D01*
X15652Y13250D02*
X15652Y14750D01*
X15652Y14750D02*
X13900Y14750D01*
X27050Y12250D02*
X26702Y12250D01*
X28782Y13770D02*
X27420Y13770D01*
X27281Y12982D02*
X27399Y13100D01*
X26723Y12982D02*
X27281Y12982D01*
X26702Y12961D02*
X26723Y12982D01*
X28802Y13750D02*
X28782Y13770D01*
X27399Y13749D02*
X27398Y13750D01*
X26702Y12250D02*
X26702Y12961D01*
X27399Y13100D02*
X27399Y13749D01*
X27050Y13750D02*
X27398Y13750D01*
X29150Y13750D02*
X28802Y13750D01*
X27420Y13770D02*
X27399Y13749D01*
X17132Y12526D02*
X17719Y13113D01*
X30198Y06327D02*
X29900Y06327D01*
X29400Y09750D02*
X30324Y08826D01*
X30324Y08826D02*
X30324Y07347D01*
X30324Y07347D02*
X29900Y06923D01*
X29150Y12250D02*
X28802Y12250D01*
X29900Y06476D02*
X29900Y06625D01*
X29900Y06476D02*
X29900Y06327D01*
X30900Y05875D02*
X30502Y05875D01*
X30502Y05875D02*
X30502Y06023D01*
X30502Y06023D02*
X30198Y06327D01*
X23370Y13113D02*
X23784Y13527D01*
X23784Y13527D02*
X26479Y13527D01*
X26479Y13527D02*
X26702Y13750D01*
X13900Y13250D02*
X14248Y13250D01*
X16000Y14750D02*
X15652Y14750D01*
X15652Y13250D02*
X14248Y13250D01*
X27050Y13750D02*
X26702Y13750D01*
X17719Y13113D02*
X23370Y13113D01*
X29900Y06625D02*
X29900Y06923D01*
X15693Y13250D02*
X15652Y13250D01*
X16000Y13250D02*
X15693Y13250D01*
X24400Y08500D02*
X23900Y08000D01*
X25400Y08500D02*
X24400Y08500D01*
X25900Y09000D02*
X25400Y08500D01*
X23423Y09000D02*
X23298Y09125D01*
X23900Y09000D02*
X23423Y09000D01*
X22900Y09125D02*
X23298Y09125D01*
X16400Y08500D02*
X15900Y08000D01*
X17400Y08500D02*
X16400Y08500D01*
X17900Y09000D02*
X17400Y08500D01*
X32400Y08500D02*
X33400Y08500D01*
X31900Y08000D02*
X32400Y08500D01*
X33400Y08500D02*
X33900Y09000D01*
X31352Y09125D02*
X30900Y09125D01*
X31477Y09000D02*
X31352Y09125D01*
X31900Y09000D02*
X31477Y09000D01*
X15423Y09000D02*
X15298Y09125D01*
X14900Y09125D02*
X15298Y09125D01*
X15900Y09000D02*
X15423Y09000D01*
X32900Y29577D02*
X34000Y28477D01*
X32900Y30000D02*
X32900Y29577D01*
X34000Y28477D02*
X34000Y27800D01*
X36051Y28173D02*
X35540Y28173D01*
X37477Y29599D02*
X36051Y28173D01*
X37477Y30000D02*
X37477Y29599D01*
X37900Y30000D02*
X37477Y30000D01*
X35540Y27800D02*
X35540Y28173D01*
X34510Y28967D02*
X34510Y27800D01*
X33900Y29577D02*
X34510Y28967D01*
X33900Y30000D02*
X33900Y29577D01*
X35900Y30000D02*
X35900Y29577D01*
X35020Y28697D02*
X35020Y27800D01*
X35900Y29577D02*
X35020Y28697D01*
X34770Y29447D02*
X34770Y27800D01*
X34900Y29577D02*
X34770Y29447D01*
X34900Y30000D02*
X34900Y29577D01*
X35280Y28380D02*
X35280Y27800D01*
X36477Y29577D02*
X35280Y28380D01*
X36900Y29577D02*
X36477Y29577D01*
X36900Y30000D02*
X36900Y29577D01*
X22872Y15173D02*
X22650Y15173D01*
X24441Y16742D02*
X22872Y15173D01*
X24441Y17112D02*
X24441Y16742D01*
X22650Y14875D02*
X22650Y15173D01*
X26239Y18375D02*
X26487Y18127D01*
X26487Y18127D02*
X26757Y18127D01*
X22650Y18375D02*
X26239Y18375D01*
X33199Y19488D02*
X32868Y19157D01*
X22650Y12625D02*
X23048Y12625D01*
X34549Y21413D02*
X33976Y20840D01*
X33546Y19488D02*
X33199Y19488D01*
X23383Y12481D02*
X23192Y12481D01*
X23192Y12481D02*
X23048Y12625D01*
X33976Y20840D02*
X33976Y19918D01*
X33976Y19918D02*
X33546Y19488D01*
X22650Y16625D02*
X23399Y17374D01*
X23399Y17374D02*
X27379Y17374D01*
X07750Y26677D02*
X07750Y26250D01*
X07750Y25947D02*
X07750Y25904D01*
X07750Y25904D02*
X08227Y25427D01*
X08227Y25427D02*
X08227Y25000D01*
X07150Y27750D02*
X07150Y27277D01*
X07150Y27277D02*
X07750Y26677D01*
X07750Y26250D02*
X07750Y25947D01*
X08525Y25000D02*
X08227Y25000D01*
X11050Y15650D02*
X11353Y15650D01*
X12025Y14750D02*
X11727Y14750D01*
X11727Y15276D02*
X11353Y15650D01*
X11727Y14750D02*
X11727Y15276D01*
X08900Y17727D02*
X08775Y17852D01*
X08900Y15500D02*
X08900Y17727D01*
X08775Y18250D02*
X08775Y17852D01*
X08900Y15500D02*
X09227Y15500D01*
X06892Y15500D02*
X08900Y15500D01*
X09227Y15500D02*
X09977Y14750D01*
X10275Y14750D02*
X09977Y14750D01*
X10250Y15697D02*
X10250Y15488D01*
X11025Y14750D02*
X11025Y15148D01*
X10250Y15849D02*
X10250Y15697D01*
X10250Y15849D02*
X10250Y16000D01*
X08400Y18554D02*
X08400Y17000D01*
X08498Y18652D02*
X08400Y18554D01*
X09008Y18652D02*
X08498Y18652D01*
X10250Y17410D02*
X09008Y18652D01*
X10250Y16303D02*
X10250Y17410D01*
X10250Y16000D02*
X10250Y16303D01*
X10590Y15148D02*
X11025Y15148D01*
X10250Y15488D02*
X10590Y15148D01*
X10250Y19197D02*
X10250Y19162D01*
X10250Y19500D02*
X10250Y19197D01*
X10250Y19162D02*
X10727Y18685D01*
X10727Y18685D02*
X10727Y18250D01*
X08400Y20750D02*
X08873Y20750D01*
X11025Y18250D02*
X10727Y18250D01*
X08873Y20574D02*
X09947Y19500D01*
X08873Y20750D02*
X08873Y20574D01*
X10250Y19500D02*
X09947Y19500D01*
X11050Y19150D02*
X11353Y19150D01*
X12025Y18250D02*
X11727Y18250D01*
X11727Y18776D02*
X11353Y19150D01*
X11727Y18250D02*
X11727Y18776D01*
X11025Y24500D02*
X10253Y24500D01*
X08550Y25900D02*
X08853Y25900D01*
X10253Y24500D02*
X08853Y25900D01*
X06320Y25398D02*
X06025Y25398D01*
X06813Y25891D02*
X06320Y25398D01*
X06813Y26250D02*
X06813Y25891D01*
X06025Y25000D02*
X06025Y25398D01*
X07227Y18750D02*
X07727Y18250D01*
X06813Y18750D02*
X07227Y18750D01*
X08025Y18250D02*
X07727Y18250D01*
X06813Y22000D02*
X07775Y22000D01*
X06813Y30250D02*
X06813Y29891D01*
X06025Y29000D02*
X06323Y29000D01*
X06813Y29891D02*
X06323Y29401D01*
X06323Y29401D02*
X06323Y29000D01*
X08831Y29597D02*
X08550Y29597D01*
X08853Y29575D02*
X08831Y29597D01*
X08853Y26679D02*
X08853Y29575D01*
X10032Y25500D02*
X08853Y26679D01*
X11025Y25500D02*
X10032Y25500D01*
X08550Y29900D02*
X08550Y29597D01*
X07839Y29935D02*
X08376Y29398D01*
X08376Y29398D02*
X08525Y29398D01*
X07150Y32000D02*
X07743Y32000D01*
X07743Y32000D02*
X08861Y30882D01*
X08861Y30882D02*
X08861Y30299D01*
X07839Y30099D02*
X07839Y29935D01*
X07750Y30250D02*
X07750Y30099D01*
X08861Y30299D02*
X08839Y30277D01*
X08839Y30277D02*
X08017Y30277D01*
X08017Y30277D02*
X07839Y30099D01*
X07750Y30099D02*
X07839Y30099D01*
X08525Y29000D02*
X08525Y29398D01*
X27900Y20500D02*
X28900Y21500D01*
X13900Y20500D02*
X13583Y20500D01*
X13583Y20500D02*
X13039Y21044D01*
X13039Y21044D02*
X12356Y21044D01*
X12356Y21044D02*
X11900Y21500D01*
X30900Y20375D02*
X30502Y20375D01*
X30377Y20500D02*
X30502Y20375D01*
X29900Y20500D02*
X30377Y20500D01*
X27476Y20924D02*
X26900Y21500D01*
X27476Y20088D02*
X27476Y20924D01*
X27487Y20077D02*
X27476Y20088D01*
X29455Y20077D02*
X27487Y20077D01*
X29477Y20099D02*
X29455Y20077D01*
X29477Y20500D02*
X29477Y20099D01*
X29900Y20500D02*
X29477Y20500D01*
X22900Y20375D02*
X22502Y20375D01*
X22377Y20500D02*
X22502Y20375D01*
X21900Y20500D02*
X22377Y20500D01*
X15900Y20375D02*
X15502Y20375D01*
X15502Y20375D02*
X15377Y20500D01*
X15377Y20500D02*
X14900Y20500D01*
X20900Y20500D02*
X19900Y21500D01*
X30400Y12500D02*
X27781Y12500D01*
X32400Y19625D02*
X32400Y19923D01*
X32477Y20000D02*
X32400Y19923D01*
X33400Y20000D02*
X32477Y20000D01*
X32400Y18875D02*
X32798Y18875D01*
X33275Y18875D02*
X33400Y19000D01*
X32798Y18875D02*
X33275Y18875D01*
X28735Y16500D02*
X26860Y18375D01*
X26860Y18375D02*
X26590Y18375D01*
X26590Y18375D02*
X25386Y19579D01*
X25386Y19579D02*
X24182Y19579D01*
X29400Y16500D02*
X28735Y16500D01*
X28197Y17500D02*
X26996Y18701D01*
X26996Y18701D02*
X26726Y18701D01*
X26726Y18701D02*
X24754Y20673D01*
X24754Y20673D02*
X22637Y20673D01*
X22637Y20673D02*
X22324Y20986D01*
X29400Y17500D02*
X28197Y17500D01*
X19400Y23000D02*
X19400Y22377D01*
X21466Y21618D02*
X20707Y22377D01*
X21466Y21098D02*
X21466Y21618D01*
X20707Y22377D02*
X19400Y22377D01*
X21578Y20986D02*
X21466Y21098D01*
X22324Y20986D02*
X21578Y20986D01*
X28824Y19076D02*
X29400Y18500D01*
X26815Y19076D02*
X28824Y19076D01*
X24815Y21076D02*
X26815Y19076D01*
X23488Y21076D02*
X24815Y21076D01*
X23466Y21098D02*
X23488Y21076D01*
X23466Y21681D02*
X23466Y21098D01*
X23102Y22045D02*
X23466Y21681D01*
X21355Y22045D02*
X23102Y22045D01*
X20400Y23000D02*
X21355Y22045D01*
X20082Y11705D02*
X20252Y11875D01*
X21650Y11875D02*
X20650Y11875D01*
X22650Y11875D02*
X21650Y11875D01*
X19109Y12000D02*
X19744Y12000D01*
X20039Y11705D02*
X20082Y11705D01*
X20650Y11875D02*
X20252Y11875D01*
X19744Y12000D02*
X20039Y11705D01*
X20020Y13893D02*
X20252Y14125D01*
X19998Y13893D02*
X20020Y13893D01*
X19851Y13893D02*
X19998Y13893D01*
X19744Y14000D02*
X19851Y13893D01*
X19109Y14000D02*
X19744Y14000D01*
X20650Y14125D02*
X20252Y14125D01*
X22650Y14125D02*
X21650Y14125D01*
X20650Y14125D02*
X21650Y14125D01*
X21650Y15875D02*
X21650Y15801D01*
X21650Y15801D02*
X21650Y15726D01*
X22178Y15801D02*
X22252Y15875D01*
X21650Y15801D02*
X22178Y15801D01*
X22650Y15875D02*
X22252Y15875D01*
X19109Y16000D02*
X19744Y16000D01*
X20650Y15875D02*
X19869Y15875D01*
X19869Y15875D02*
X19744Y16000D01*
X20650Y15875D02*
X21048Y15875D01*
X21400Y15726D02*
X21400Y15485D01*
X21650Y15726D02*
X21400Y15726D01*
X21197Y15726D02*
X21048Y15875D01*
X21400Y15726D02*
X21197Y15726D01*
X21197Y17476D02*
X21048Y17625D01*
X21650Y17625D02*
X21650Y17476D01*
X22492Y17327D02*
X22400Y17235D01*
X21650Y17476D02*
X21197Y17476D01*
X22308Y17327D02*
X21650Y17327D01*
X19109Y18000D02*
X19744Y18000D01*
X20650Y17625D02*
X21048Y17625D01*
X20119Y17625D02*
X20650Y17625D01*
X22650Y17327D02*
X22492Y17327D01*
X19744Y18000D02*
X20119Y17625D01*
X22400Y17235D02*
X22308Y17327D01*
X22650Y17625D02*
X22650Y17327D01*
X21650Y17476D02*
X21650Y17327D01*
X36050Y27061D02*
X35831Y26842D01*
X36050Y27800D02*
X36050Y27061D01*
X34624Y26399D02*
X33733Y26399D01*
X34787Y26236D02*
X34624Y26399D01*
X36050Y26073D02*
X35887Y26236D01*
X35887Y26236D02*
X34787Y26236D01*
X33733Y26399D02*
X33071Y25737D01*
X24400Y23000D02*
X24400Y23623D01*
X36050Y25700D02*
X36050Y26073D01*
X26514Y25737D02*
X24400Y23623D01*
X33071Y25737D02*
X26514Y25737D01*
X35790Y27800D02*
X35790Y27427D01*
X35790Y27427D02*
X35262Y26899D01*
X24140Y22377D02*
X23517Y23000D01*
X35790Y26073D02*
X34719Y26073D01*
X34719Y26073D02*
X34556Y26236D01*
X34556Y26236D02*
X33801Y26236D01*
X33801Y26236D02*
X33000Y25435D01*
X33000Y25435D02*
X27799Y25435D01*
X27799Y25435D02*
X24741Y22377D01*
X24741Y22377D02*
X24140Y22377D01*
X23517Y23000D02*
X23400Y23000D01*
X35790Y25700D02*
X35790Y26073D01*
X36976Y18576D02*
X36976Y19412D01*
X36976Y19412D02*
X36998Y19434D01*
X36998Y19434D02*
X37670Y19434D01*
X37670Y19434D02*
X37834Y19598D01*
X36343Y21434D02*
X35280Y22497D01*
X37834Y19598D02*
X37834Y20260D01*
X37834Y20260D02*
X37594Y20500D01*
X36400Y18000D02*
X36976Y18576D01*
X35280Y22497D02*
X35280Y25700D01*
X36802Y21434D02*
X36343Y21434D01*
X36824Y21412D02*
X36802Y21434D01*
X36824Y20750D02*
X36824Y21412D01*
X37074Y20500D02*
X36824Y20750D01*
X37594Y20500D02*
X37074Y20500D01*
X35540Y22860D02*
X35540Y25327D01*
X36400Y22000D02*
X35540Y22860D01*
X35540Y25700D02*
X35540Y25327D01*
X27408Y06285D02*
X26672Y07021D01*
X26672Y07021D02*
X14764Y07021D01*
X14764Y07021D02*
X14478Y07307D01*
X14478Y07307D02*
X12593Y07307D01*
X12593Y07307D02*
X11900Y08000D01*
X36824Y09424D02*
X36824Y10419D01*
X36824Y10419D02*
X36802Y10441D01*
X36802Y10441D02*
X36193Y10441D01*
X36193Y10441D02*
X34558Y12076D01*
X34558Y12076D02*
X32983Y12076D01*
X32983Y12076D02*
X32971Y12088D01*
X32971Y12088D02*
X32971Y12629D01*
X32971Y12629D02*
X31541Y14059D01*
X36400Y09000D02*
X36824Y09424D01*
X29733Y14815D02*
X27963Y14815D01*
X29842Y14924D02*
X29733Y14815D01*
X27963Y14815D02*
X27398Y14250D01*
X27050Y14250D02*
X27398Y14250D01*
X30977Y14767D02*
X30820Y14924D01*
X30977Y14325D02*
X30977Y14767D01*
X31243Y14059D02*
X30977Y14325D01*
X31541Y14059D02*
X31243Y14059D01*
X30820Y14924D02*
X29842Y14924D01*
X27050Y13250D02*
X26702Y13250D01*
X26702Y13250D02*
X24908Y11456D01*
X24908Y11456D02*
X20731Y11456D01*
X18900Y09625D02*
X18900Y08000D01*
X20731Y11456D02*
X18900Y09625D01*
X27069Y07185D02*
X28128Y06126D01*
X15068Y07185D02*
X27069Y07185D01*
X14680Y07573D02*
X15068Y07185D01*
X13327Y07573D02*
X14680Y07573D01*
X12900Y08000D02*
X13327Y07573D01*
X36802Y20434D02*
X36824Y20412D01*
X36343Y20434D02*
X36802Y20434D01*
X34770Y25700D02*
X34770Y22007D01*
X34770Y22007D02*
X36343Y20434D01*
X36824Y20412D02*
X36824Y19598D01*
X35793Y17607D02*
X36400Y17000D01*
X35978Y19434D02*
X35793Y19249D01*
X35793Y19249D02*
X35793Y17607D01*
X36660Y19434D02*
X35978Y19434D01*
X36824Y19598D02*
X36660Y19434D01*
X35020Y22380D02*
X35020Y25700D01*
X36400Y21000D02*
X35020Y22380D01*
X21324Y09424D02*
X19900Y08000D01*
X26322Y09424D02*
X21324Y09424D01*
X26476Y09270D02*
X26322Y09424D01*
X26476Y07595D02*
X26476Y09270D01*
X26498Y07573D02*
X26476Y07595D01*
X27462Y07573D02*
X26498Y07573D01*
X28382Y06653D02*
X27462Y07573D01*
X27960Y13312D02*
X28399Y13312D01*
X28399Y13312D02*
X28733Y12978D01*
X27050Y12750D02*
X27398Y12750D01*
X35324Y11076D02*
X36400Y10000D01*
X28733Y12978D02*
X31802Y12978D01*
X31802Y12978D02*
X31824Y12956D01*
X31824Y12956D02*
X31824Y12310D01*
X27398Y12750D02*
X27960Y13312D01*
X31824Y12310D02*
X33058Y11076D01*
X33058Y11076D02*
X35324Y11076D01*
X27050Y11750D02*
X27398Y11750D01*
X27398Y11750D02*
X27398Y10123D01*
X26900Y09625D02*
X26900Y09923D01*
X27398Y10123D02*
X27198Y09923D01*
X27198Y09923D02*
X26900Y09923D01*
X26900Y08000D02*
X26900Y09625D01*
X34000Y22313D02*
X34000Y25700D01*
X34827Y21486D02*
X34000Y22313D01*
X34827Y17573D02*
X34827Y21486D01*
X36400Y16000D02*
X34827Y17573D01*
X34510Y22034D02*
X34510Y25700D01*
X36400Y20144D02*
X34510Y22034D01*
X36400Y20000D02*
X36400Y20144D01*
X28644Y07119D02*
X27900Y07863D01*
X27900Y07863D02*
X27900Y08000D01*
X29150Y11750D02*
X29498Y11750D01*
X31470Y10625D02*
X34408Y10625D01*
X30966Y11129D02*
X31470Y10625D01*
X30966Y11754D02*
X30966Y11129D01*
X30764Y11956D02*
X30966Y11754D01*
X29704Y11956D02*
X30764Y11956D01*
X29498Y11750D02*
X29704Y11956D01*
X34443Y09566D02*
X34502Y09625D01*
X34443Y08457D02*
X34443Y09566D01*
X32041Y10462D02*
X32461Y10042D01*
X30286Y10462D02*
X32041Y10462D01*
X29498Y11250D02*
X30286Y10462D01*
X32461Y10042D02*
X32461Y09588D01*
X29150Y11250D02*
X29498Y11250D01*
X32483Y09566D02*
X34443Y09566D01*
X34900Y08000D02*
X34443Y08457D01*
X34900Y09625D02*
X34502Y09625D01*
X32461Y09588D02*
X32483Y09566D01*
X29512Y07388D02*
X28900Y08000D01*
X29651Y07388D02*
X29512Y07388D01*
M02*
