M48
INCH,TZ
T1C0.012
T2C0.020
T3C0.032
T4C0.039
T5C0.040
T6C0.049
T7C0.051
T8C0.055
T9C0.079
T10C0.125
%
G90
G05
T1
X11886Y13856
X14284Y15509
X16433Y13750
X19998Y13893
X20039Y11705
X21400Y15485
X22400Y21275
X22400Y17235
X23383Y12481
X24182Y19579
X24441Y17112
X25686Y11330
X26576Y15715
X26757Y18127
X27379Y17374
X27408Y6285
X27781Y12500
X28128Y6126
X28214Y13035
X28382Y6653
X28539Y13522
X28644Y7119
X29651Y7388
X31045Y7128
X32868Y19157
X34408Y10625
X34549Y21413
X35262Y26899
X35831Y26842
T2
X10603Y2391
X19147Y4888
X33334Y6000
T3
X9900Y26500
X9900Y21500
X10900Y26500
X10900Y21500
X11900Y26500
X11900Y21500
X11900Y8000
X11900Y3000
X12900Y26500
X12900Y21500
X12900Y8000
X12900Y3000
X13900Y26500
X13900Y21500
X13900Y8000
X13900Y3000
X14900Y26500
X14900Y21500
X14900Y8000
X14900Y3000
X15900Y26500
X15900Y21500
X15900Y8000
X15900Y3000
X16900Y26500
X16900Y21500
X16900Y8000
X16900Y3000
X17900Y26500
X17900Y21500
X17900Y8000
X17900Y3000
X18900Y26500
X18900Y21500
X18900Y8000
X18900Y3000
X19900Y26500
X19900Y21500
X19900Y8000
X19900Y3000
X20900Y26500
X20900Y21500
X20900Y8000
X20900Y3000
X21900Y26500
X21900Y21500
X21900Y8000
X21900Y3000
X22900Y26500
X22900Y21500
X22900Y8000
X22900Y3000
X23900Y26500
X23900Y21500
X23900Y8000
X23900Y3000
X24900Y26500
X24900Y21500
X24900Y8000
X24900Y3000
X25900Y26500
X25900Y21500
X25900Y8000
X25900Y3000
X26900Y26500
X26900Y21500
X26900Y8000
X26900Y3000
X27900Y26500
X27900Y21500
X27900Y8000
X27900Y3000
X28900Y26500
X28900Y21500
X28900Y8000
X28900Y3000
X29900Y26500
X29900Y21500
X29900Y8000
X29900Y3000
X30900Y26500
X30900Y21500
X30900Y8000
X30900Y3000
X31900Y26500
X31900Y21500
X31900Y8000
X31900Y3000
X32900Y26500
X32900Y21500
X32900Y8000
X32900Y3000
X33900Y8000
X33900Y3000
X34900Y8000
X34900Y3000
T4
X7650Y13000
X11650Y13000
X11900Y6750
X11900Y5250
X12900Y6750
X13900Y6750
X15900Y5250
X24400Y15000
X24400Y14000
X24400Y13000
X25400Y15000
X25400Y14000
X25400Y13000
X36121Y2386
X36121Y614
X37400Y27500
X37400Y26500
X37400Y25500
X37400Y24500
X38400Y27500
X38400Y26500
X38400Y25500
X38400Y24500
X38400Y23000
X38400Y22000
X38400Y21000
X38400Y20000
X38400Y19000
X38400Y18000
X38400Y17000
X38400Y16000
X38400Y15000
X38400Y14000
X38400Y13000
X38400Y12000
X38400Y11000
X38400Y10000
X38400Y9000
X38400Y8000
X38400Y7000
X38400Y6000
X38680Y2386
X38680Y614
T5
X3650Y4500
X3650Y3500
X5150Y32000
X5150Y27750
X6150Y32000
X6150Y27750
X6400Y20750
X6400Y17000
X6800Y23000
X7150Y32000
X7150Y27750
X7400Y20750
X7400Y17000
X7800Y23000
X8400Y20750
X8400Y17000
X8800Y23000
X9800Y23000
X10400Y4000
X10800Y23000
X11400Y4000
X11800Y23000
X11900Y31500
X11900Y11000
X11900Y9500
X12400Y4000
X12800Y23000
X12900Y31500
X12900Y20500
X12900Y19500
X12900Y9500
X13400Y4000
X13800Y23000
X13900Y31500
X13900Y20500
X13900Y19500
X14400Y4000
X14800Y23000
X14900Y31500
X14900Y20500
X14900Y19500
X14900Y1000
X15400Y4000
X15800Y23000
X15900Y10000
X15900Y9000
X15900Y1000
X16400Y4000
X16900Y10000
X16900Y9000
X16900Y1000
X17400Y23000
X17400Y4000
X17900Y10000
X17900Y9000
X17900Y1000
X18400Y23000
X19400Y23000
X19400Y4000
X19900Y31500
X19900Y20500
X19900Y19500
X20400Y23000
X20400Y4000
X20900Y31500
X20900Y20500
X20900Y19500
X21400Y23000
X21400Y4000
X21900Y31500
X21900Y20500
X21900Y19500
X21900Y1000
X22400Y23000
X22400Y4000
X22900Y31500
X22900Y1000
X23400Y23000
X23400Y4000
X23900Y10000
X23900Y9000
X23900Y1000
X24400Y23000
X24400Y4000
X24900Y10000
X24900Y9000
X24900Y1000
X25400Y4000
X25900Y10000
X25900Y9000
X26400Y23000
X26400Y4000
X27400Y31500
X27400Y23000
X27900Y20500
X27900Y19500
X28400Y31500
X28400Y23000
X28400Y9750
X28400Y4000
X28900Y20500
X28900Y19500
X29400Y31500
X29400Y23000
X29400Y18500
X29400Y17500
X29400Y16500
X29400Y15500
X29400Y9750
X29400Y4000
X29900Y20500
X29900Y19500
X29900Y1000
X30400Y31500
X30400Y23000
X30400Y18500
X30400Y17500
X30400Y16500
X30400Y15500
X30400Y14500
X30400Y13500
X30400Y12500
X30400Y11500
X30400Y4000
X30900Y1000
X31400Y23000
X31400Y18500
X31400Y17500
X31400Y16500
X31400Y15500
X31400Y14500
X31400Y13500
X31400Y12500
X31400Y11500
X31400Y4000
X31900Y10000
X31900Y9000
X31900Y1000
X32400Y23000
X32400Y4000
X32900Y32000
X32900Y31000
X32900Y30000
X32900Y10000
X32900Y9000
X32900Y1000
X33400Y23000
X33400Y20000
X33400Y19000
X33400Y18000
X33400Y17000
X33400Y15500
X33400Y14500
X33400Y13500
X33400Y12500
X33400Y11500
X33400Y4000
X33900Y32000
X33900Y31000
X33900Y30000
X33900Y10000
X33900Y9000
X34400Y20000
X34400Y19000
X34400Y18000
X34400Y17000
X34400Y15500
X34400Y14500
X34400Y13500
X34400Y12500
X34400Y11500
X34400Y4000
X34900Y32000
X34900Y31000
X34900Y30000
X35400Y4000
X35900Y32000
X35900Y31000
X35900Y30000
X36400Y23000
X36400Y22000
X36400Y21000
X36400Y20000
X36400Y19000
X36400Y18000
X36400Y17000
X36400Y16000
X36400Y15000
X36400Y14000
X36400Y13000
X36400Y12000
X36400Y11000
X36400Y10000
X36400Y9000
X36400Y8000
X36400Y7000
X36400Y6000
X36900Y32000
X36900Y31000
X36900Y30000
X37400Y23000
X37400Y22000
X37400Y21000
X37400Y20000
X37400Y19000
X37400Y18000
X37400Y17000
X37400Y16000
X37400Y15000
X37400Y14000
X37400Y13000
X37400Y12000
X37400Y11000
X37400Y10000
X37400Y9000
X37400Y8000
X37400Y7000
X37400Y6000
X37900Y32000
X37900Y31000
X37900Y30000
T6
X1900Y31500
X1900Y29500
X1900Y27500
X1900Y25500
X1900Y23500
X1900Y21500
X1900Y19500
X1900Y17500
T7
X4630Y6992
X4630Y6008
X4630Y1992
X4630Y1008
X4908Y14520
X4908Y13142
X4908Y10858
X4908Y9480
X5892Y14520
X5892Y13142
X5892Y10858
X5892Y9480
X6008Y6992
X6008Y6008
X6008Y1992
X6008Y1008
X8292Y6992
X8292Y6008
X8292Y1992
X8292Y1008
X9670Y6992
X9670Y6008
X9670Y1992
X9670Y1008
T8
X1900Y12500
X1900Y10500
X1900Y7500
X1900Y5500
X1900Y3500
X1900Y1500
T9
X5400Y12000
X7150Y6500
X7150Y1500
T10
X4900Y4000
X5400Y23000
X37400Y4000
T0
M30
