G04 (created by PCBNEW (2013-07-07 BZR 4022)-stable) date 06/10/2013 19:19:05*
%MOIN*%
G04 Gerber Fmt 3.4, Leading zero omitted, Abs format*
%FSLAX34Y34*%
G01*
G70*
G90*
G04 APERTURE LIST*
%ADD10C,0.00590551*%
%ADD11R,0.035X0.055*%
%ADD12R,0.055X0.035*%
%ADD13C,0.06*%
%ADD14R,0.06X0.06*%
%ADD15R,0.0472X0.0472*%
%ADD16R,0.1417X0.063*%
%ADD17R,0.063X0.1417*%
%ADD18R,0.1024X0.063*%
%ADD19C,0.0787*%
%ADD20C,0.07*%
%ADD21R,0.07X0.07*%
%ADD22R,0.036X0.036*%
%ADD23R,0.1181X0.1181*%
%ADD24C,0.1181*%
%ADD25R,0.06X0.0866*%
%ADD26O,0.06X0.0866*%
%ADD27R,0.0787X0.06*%
%ADD28O,0.0787X0.06*%
%ADD29R,0.0984X0.055*%
%ADD30R,0.05X0.02*%
%ADD31R,0.02X0.045*%
%ADD32R,0.017X0.03*%
%ADD33R,0.0866X0.06*%
%ADD34O,0.0866X0.06*%
%ADD35C,0.13*%
%ADD36C,0.149*%
%ADD37R,0.0657X0.061*%
%ADD38C,0.0944882*%
%ADD39R,0.0944882X0.0944882*%
%ADD40O,0.06X0.1*%
%ADD41C,0.125*%
%ADD42R,0.03X0.017*%
%ADD43C,0.025*%
%ADD44C,0.064*%
%ADD45C,0.045*%
%ADD46C,0.008*%
%ADD47C,0.09*%
%ADD48C,0.063*%
%ADD49C,0.045*%
%ADD50C,0.016*%
%ADD51C,0.03*%
%ADD52C,0.01*%
G04 APERTURE END LIST*
G54D10*
G54D11*
X7525Y24500D03*
X8275Y24500D03*
G54D12*
X32400Y20875D03*
X32400Y21625D03*
X33400Y20875D03*
X33400Y21625D03*
X25900Y21875D03*
X25900Y21125D03*
X17900Y21875D03*
X17900Y21125D03*
G54D11*
X10275Y21750D03*
X9525Y21750D03*
G54D12*
X26900Y9625D03*
X26900Y10375D03*
X18900Y9625D03*
X18900Y10375D03*
X35300Y9575D03*
X35300Y10325D03*
X14900Y21625D03*
X14900Y20875D03*
G54D11*
X32525Y28750D03*
X33275Y28750D03*
G54D12*
X12650Y11125D03*
X12650Y11875D03*
X20400Y16375D03*
X20400Y15625D03*
X20400Y14375D03*
X20400Y13625D03*
X20400Y12375D03*
X20400Y11625D03*
G54D11*
X10275Y19250D03*
X9525Y19250D03*
X6275Y24500D03*
X5525Y24500D03*
X6275Y18500D03*
X5525Y18500D03*
G54D13*
X18900Y8000D03*
X17900Y8000D03*
X16900Y8000D03*
X15900Y8000D03*
X14900Y8000D03*
X13900Y8000D03*
X12900Y8000D03*
X11900Y8000D03*
X11900Y3000D03*
X12900Y3000D03*
X13900Y3000D03*
X14900Y3000D03*
X15900Y3000D03*
X16900Y3000D03*
X17900Y3000D03*
X18900Y3000D03*
X26900Y8000D03*
X25900Y8000D03*
X24900Y8000D03*
X23900Y8000D03*
X22900Y8000D03*
X21900Y8000D03*
X20900Y8000D03*
X19900Y8000D03*
X19900Y3000D03*
X20900Y3000D03*
X21900Y3000D03*
X22900Y3000D03*
X23900Y3000D03*
X24900Y3000D03*
X25900Y3000D03*
X26900Y3000D03*
X34900Y8000D03*
X33900Y8000D03*
X32900Y8000D03*
X31900Y8000D03*
X30900Y8000D03*
X29900Y8000D03*
X28900Y8000D03*
X27900Y8000D03*
X27900Y3000D03*
X28900Y3000D03*
X29900Y3000D03*
X30900Y3000D03*
X31900Y3000D03*
X32900Y3000D03*
X33900Y3000D03*
X34900Y3000D03*
X10400Y24500D03*
X11400Y24500D03*
X12400Y24500D03*
X13400Y24500D03*
X14400Y24500D03*
X15400Y24500D03*
X16400Y24500D03*
X17400Y24500D03*
X17400Y29500D03*
X16400Y29500D03*
X15400Y29500D03*
X14400Y29500D03*
X13400Y29500D03*
X12400Y29500D03*
X11400Y29500D03*
X10400Y29500D03*
X18400Y24500D03*
X19400Y24500D03*
X20400Y24500D03*
X21400Y24500D03*
X22400Y24500D03*
X23400Y24500D03*
X24400Y24500D03*
X25400Y24500D03*
X25400Y29500D03*
X24400Y29500D03*
X23400Y29500D03*
X22400Y29500D03*
X21400Y29500D03*
X20400Y29500D03*
X19400Y29500D03*
X18400Y29500D03*
G54D14*
X32400Y34500D03*
G54D13*
X32400Y33500D03*
X32400Y32500D03*
X32400Y31500D03*
G54D14*
X17900Y10000D03*
G54D13*
X17900Y9000D03*
X16900Y10000D03*
X16900Y9000D03*
X15900Y10000D03*
X15900Y9000D03*
G54D14*
X11400Y20750D03*
G54D13*
X11400Y21750D03*
X12400Y20750D03*
X12400Y21750D03*
X13400Y20750D03*
X13400Y21750D03*
G54D14*
X26900Y20750D03*
G54D13*
X26900Y21750D03*
X27900Y20750D03*
X27900Y21750D03*
X28900Y20750D03*
X28900Y21750D03*
G54D14*
X33900Y10000D03*
G54D13*
X33900Y9000D03*
X32900Y10000D03*
X32900Y9000D03*
X31900Y10000D03*
X31900Y9000D03*
G54D14*
X25900Y10000D03*
G54D13*
X25900Y9000D03*
X24900Y10000D03*
X24900Y9000D03*
X23900Y10000D03*
X23900Y9000D03*
G54D14*
X18900Y34500D03*
G54D13*
X18900Y33500D03*
X18900Y32500D03*
G54D14*
X33400Y31500D03*
G54D13*
X33400Y32500D03*
X33400Y33500D03*
G54D14*
X35400Y31500D03*
G54D13*
X35400Y32500D03*
X35400Y33500D03*
G54D14*
X36400Y31500D03*
G54D13*
X36400Y32500D03*
X36400Y33500D03*
G54D14*
X37400Y31500D03*
G54D13*
X37400Y32500D03*
X37400Y33500D03*
G54D14*
X38400Y31500D03*
G54D13*
X38400Y32500D03*
X38400Y33500D03*
G54D14*
X19900Y34500D03*
G54D13*
X19900Y33500D03*
X19900Y32500D03*
G54D14*
X34400Y31500D03*
G54D13*
X34400Y32500D03*
X34400Y33500D03*
G54D14*
X17900Y34500D03*
G54D13*
X17900Y33500D03*
X17900Y32500D03*
G54D14*
X16900Y34500D03*
G54D13*
X16900Y33500D03*
X16900Y32500D03*
G54D14*
X21900Y9250D03*
G54D15*
X4650Y20337D03*
X4650Y21163D03*
X4650Y18663D03*
X4650Y17837D03*
X4650Y24337D03*
X4650Y25163D03*
G54D16*
X34483Y6000D03*
X32317Y6000D03*
G54D17*
X8400Y9167D03*
X8400Y11333D03*
G54D16*
X18567Y27500D03*
X20733Y27500D03*
X10567Y27500D03*
X12733Y27500D03*
X27483Y6000D03*
X25317Y6000D03*
X19317Y6000D03*
X21483Y6000D03*
G54D18*
X19109Y12250D03*
X17691Y12250D03*
X19109Y16250D03*
X17691Y16250D03*
X19109Y14250D03*
X17691Y14250D03*
G54D19*
X9650Y12500D03*
X9650Y16500D03*
G54D20*
X7150Y16500D03*
X6150Y16500D03*
G54D21*
X8150Y16500D03*
G54D20*
X7150Y26000D03*
X6150Y26000D03*
G54D21*
X8150Y26000D03*
G54D20*
X7150Y20000D03*
X6150Y20000D03*
G54D21*
X8150Y20000D03*
G54D22*
X7800Y27900D03*
X8500Y27900D03*
X8150Y27100D03*
G54D15*
X16150Y20837D03*
X16150Y21663D03*
G54D12*
X28900Y9625D03*
X28900Y10375D03*
G54D20*
X7150Y29000D03*
X6150Y29000D03*
G54D21*
X8150Y29000D03*
G54D22*
X8300Y30900D03*
X9000Y30900D03*
X8650Y30100D03*
G54D12*
X7400Y30125D03*
X7400Y30875D03*
G54D11*
X6275Y27250D03*
X5525Y27250D03*
G54D23*
X1900Y5500D03*
G54D24*
X1900Y7500D03*
G54D15*
X4650Y27337D03*
X4650Y28163D03*
G54D14*
X17400Y1250D03*
G54D13*
X16400Y1250D03*
X15400Y1250D03*
X14400Y1250D03*
G54D14*
X24900Y1250D03*
G54D13*
X23900Y1250D03*
X22900Y1250D03*
X21900Y1250D03*
G54D14*
X32900Y1250D03*
G54D13*
X31900Y1250D03*
X30900Y1250D03*
X29900Y1250D03*
G54D14*
X11900Y33000D03*
G54D13*
X12900Y33000D03*
X13900Y33000D03*
X14900Y33000D03*
G54D12*
X20400Y18125D03*
X20400Y17375D03*
G54D25*
X11900Y5250D03*
G54D26*
X12900Y5250D03*
X13900Y5250D03*
G54D18*
X19109Y18250D03*
X17691Y18250D03*
G54D27*
X38498Y24500D03*
G54D28*
X37302Y24500D03*
X38498Y25500D03*
X37302Y25500D03*
X38498Y26500D03*
X37302Y26500D03*
X38498Y27500D03*
X37302Y27500D03*
G54D12*
X21400Y17375D03*
X21400Y18125D03*
X21400Y15625D03*
X21400Y16375D03*
X21400Y11625D03*
X21400Y12375D03*
X21400Y13625D03*
X21400Y14375D03*
X22400Y18125D03*
X22400Y17375D03*
X22400Y16375D03*
X22400Y15625D03*
X22400Y12375D03*
X22400Y11625D03*
X22400Y14375D03*
X22400Y13625D03*
G54D23*
X1900Y15500D03*
G54D24*
X1900Y17500D03*
G54D23*
X1900Y1500D03*
G54D24*
X1900Y3500D03*
G54D29*
X36121Y364D03*
X36121Y2136D03*
X38680Y364D03*
X38680Y2136D03*
G54D22*
X7800Y18650D03*
X8500Y18650D03*
X8150Y17850D03*
X7800Y21900D03*
X8500Y21900D03*
X8150Y21100D03*
G54D12*
X27900Y10375D03*
X27900Y9625D03*
G54D11*
X10275Y17750D03*
X9525Y17750D03*
X10275Y20500D03*
X9525Y20500D03*
G54D14*
X38400Y30000D03*
G54D13*
X38400Y29000D03*
G54D14*
X21900Y33000D03*
G54D13*
X22900Y33000D03*
X23900Y33000D03*
X24900Y33000D03*
G54D14*
X26900Y33000D03*
G54D13*
X27900Y33000D03*
X28900Y33000D03*
X29900Y33000D03*
G54D16*
X25733Y27500D03*
X23567Y27500D03*
G54D13*
X26400Y24500D03*
X27400Y24500D03*
X28400Y24500D03*
X29400Y24500D03*
X30400Y24500D03*
X31400Y24500D03*
X32400Y24500D03*
X33400Y24500D03*
X33400Y29500D03*
X32400Y29500D03*
X31400Y29500D03*
X30400Y29500D03*
X29400Y29500D03*
X28400Y29500D03*
X27400Y29500D03*
X26400Y29500D03*
G54D14*
X18900Y20750D03*
G54D13*
X18900Y21750D03*
X19900Y20750D03*
X19900Y21750D03*
X20900Y20750D03*
X20900Y21750D03*
G54D27*
X24302Y15000D03*
G54D28*
X25498Y15000D03*
X24302Y14000D03*
X25498Y14000D03*
X24302Y13000D03*
X25498Y13000D03*
G54D30*
X15800Y12750D03*
X15800Y13250D03*
X15800Y13750D03*
X15800Y14250D03*
X15800Y14750D03*
X15800Y15250D03*
X15800Y15750D03*
X15800Y16250D03*
X15800Y16750D03*
X15800Y17250D03*
X12000Y17250D03*
X12000Y16750D03*
X12000Y16250D03*
X12000Y15750D03*
X12000Y15250D03*
X12000Y14750D03*
X12000Y14250D03*
X12000Y13750D03*
X12000Y13250D03*
X12000Y12750D03*
G54D31*
X24400Y16150D03*
X24900Y16150D03*
X25400Y16150D03*
X25900Y16150D03*
X26400Y16150D03*
X26900Y16150D03*
X27400Y16150D03*
X27400Y18250D03*
X26900Y18250D03*
X26400Y18250D03*
X25900Y18250D03*
X25400Y18250D03*
X24900Y18250D03*
X24400Y18250D03*
G54D12*
X14150Y18125D03*
X14150Y18875D03*
X23400Y18125D03*
X23400Y17375D03*
X9650Y32125D03*
X9650Y32875D03*
X10650Y32125D03*
X10650Y32875D03*
G54D32*
X8307Y32300D03*
X8307Y31700D03*
X7993Y32300D03*
X7993Y31700D03*
X8622Y32300D03*
X7678Y32300D03*
X7678Y31700D03*
X8622Y31700D03*
X11993Y18200D03*
X11993Y18800D03*
X12307Y18200D03*
X12307Y18800D03*
X11678Y18200D03*
X12622Y18200D03*
X12622Y18800D03*
X11678Y18800D03*
X15743Y18200D03*
X15743Y18800D03*
X16057Y18200D03*
X16057Y18800D03*
X15428Y18200D03*
X16372Y18200D03*
X16372Y18800D03*
X15428Y18800D03*
G54D33*
X34900Y29500D03*
G54D34*
X34900Y28500D03*
X34900Y27500D03*
X34900Y26500D03*
X34900Y25500D03*
X34900Y24500D03*
G54D25*
X7650Y34250D03*
G54D26*
X8650Y34250D03*
X9650Y34250D03*
X10650Y34250D03*
G54D25*
X14150Y9250D03*
G54D26*
X13150Y9250D03*
X12150Y9250D03*
G54D14*
X16400Y5250D03*
G54D13*
X17400Y5250D03*
G54D20*
X10650Y9250D03*
G54D21*
X10650Y10250D03*
G54D20*
X10650Y11250D03*
G54D14*
X30900Y13000D03*
G54D13*
X29900Y13000D03*
X30900Y14000D03*
X29900Y14000D03*
X30900Y15000D03*
X29900Y15000D03*
X30900Y16000D03*
X29900Y16000D03*
X30900Y17000D03*
X29900Y17000D03*
G54D33*
X35900Y29500D03*
G54D34*
X35900Y28500D03*
X35900Y27500D03*
X35900Y26500D03*
X35900Y25500D03*
X35900Y24500D03*
G54D14*
X12900Y1250D03*
G54D13*
X11900Y1250D03*
G54D35*
X5900Y2180D03*
X8900Y820D03*
G54D36*
X7400Y1500D03*
G54D35*
X5900Y7180D03*
X8900Y5820D03*
G54D36*
X7400Y6500D03*
G54D35*
X4720Y10250D03*
X6080Y13250D03*
G54D36*
X5400Y11750D03*
G54D22*
X6550Y32100D03*
X6550Y31400D03*
X5750Y31750D03*
X7000Y33100D03*
X6300Y33100D03*
X6650Y33900D03*
G54D12*
X5400Y30125D03*
X5400Y30875D03*
X5400Y32625D03*
X5400Y33375D03*
G54D15*
X4650Y30587D03*
X4650Y31413D03*
X4650Y33337D03*
X4650Y34163D03*
G54D14*
X1650Y30750D03*
G54D13*
X1650Y31750D03*
G54D14*
X1650Y33000D03*
G54D13*
X1650Y34000D03*
G54D37*
X3650Y21274D03*
X3650Y19713D03*
X29900Y8976D03*
X29900Y10537D03*
G54D12*
X11900Y11875D03*
X11900Y11125D03*
G54D37*
X4400Y17274D03*
X4400Y15713D03*
X3650Y25074D03*
X3650Y23513D03*
X3650Y28274D03*
X3650Y26713D03*
X3650Y31374D03*
X3650Y29813D03*
X3650Y34424D03*
X3650Y32863D03*
G54D33*
X38400Y6000D03*
G54D34*
X38400Y7000D03*
X38400Y8000D03*
X38400Y9000D03*
X38400Y10000D03*
X38400Y11000D03*
X38400Y12000D03*
X38400Y13000D03*
X38400Y14000D03*
X38400Y15000D03*
X38400Y16000D03*
X38400Y17000D03*
X38400Y18000D03*
X38400Y19000D03*
X38400Y20000D03*
X38400Y21000D03*
X38400Y22000D03*
X38400Y23000D03*
G54D31*
X32900Y27750D03*
X32400Y27750D03*
X31900Y27750D03*
X31400Y27750D03*
X30900Y27750D03*
X30400Y27750D03*
X29900Y27750D03*
X29400Y27750D03*
X29400Y25750D03*
X29900Y25750D03*
X30400Y25750D03*
X30900Y25750D03*
X31400Y25750D03*
X31900Y25750D03*
X32400Y25750D03*
X32900Y25750D03*
G54D14*
X33400Y18000D03*
G54D13*
X34400Y18000D03*
X33400Y17000D03*
X34400Y17000D03*
X33400Y16000D03*
X34400Y16000D03*
X33400Y15000D03*
X34400Y15000D03*
X33400Y14000D03*
X34400Y14000D03*
X33400Y13000D03*
X34400Y13000D03*
G54D33*
X34900Y750D03*
G54D34*
X34900Y1750D03*
G54D38*
X1675Y21488D03*
G54D39*
X1675Y20111D03*
G54D38*
X1675Y25238D03*
G54D39*
X1675Y23861D03*
G54D38*
X1675Y28988D03*
G54D39*
X1675Y27611D03*
G54D40*
X26400Y23000D03*
X27400Y23000D03*
X28400Y23000D03*
X29400Y23000D03*
X30400Y23000D03*
X31400Y23000D03*
X32400Y23000D03*
X33400Y23000D03*
X35400Y4000D03*
X34400Y4000D03*
X33400Y4000D03*
X32400Y4000D03*
X28400Y4000D03*
X26400Y4000D03*
X25400Y4000D03*
X29400Y4000D03*
X30400Y4000D03*
X31400Y4000D03*
X24400Y4000D03*
X23400Y4000D03*
X22400Y4000D03*
X19400Y4000D03*
X20400Y4000D03*
X21400Y4000D03*
X17400Y4000D03*
X16400Y4000D03*
X15400Y4000D03*
X13400Y4000D03*
X12400Y4000D03*
X24400Y23000D03*
X23400Y23000D03*
X22400Y23000D03*
X21400Y23000D03*
X20400Y23000D03*
X19400Y23000D03*
X18400Y23000D03*
X17400Y23000D03*
X15800Y23000D03*
X14800Y23000D03*
X13800Y23000D03*
X12800Y23000D03*
X11800Y23000D03*
X10800Y23000D03*
X9800Y23000D03*
X8800Y23000D03*
X14400Y4000D03*
G54D41*
X37400Y4000D03*
X34900Y23000D03*
X5400Y23000D03*
X4900Y4000D03*
G54D13*
X36400Y22000D03*
X37400Y22000D03*
X36400Y21000D03*
X37400Y21000D03*
X36400Y20000D03*
X37400Y20000D03*
X36400Y19000D03*
X37400Y19000D03*
X36400Y23000D03*
X37400Y23000D03*
X37400Y18000D03*
X36400Y18000D03*
X36400Y17000D03*
X37400Y17000D03*
X36400Y16000D03*
X37400Y16000D03*
X36400Y15000D03*
X37400Y15000D03*
X36400Y14000D03*
X37400Y14000D03*
X36400Y13000D03*
X37400Y13000D03*
X36400Y12000D03*
X37400Y12000D03*
X36400Y11000D03*
X37400Y11000D03*
X36400Y10000D03*
X37400Y10000D03*
X36400Y9000D03*
X37400Y9000D03*
X36400Y8000D03*
X37400Y8000D03*
X36400Y7000D03*
X37400Y7000D03*
X36400Y6000D03*
X37400Y6000D03*
G54D40*
X7800Y23000D03*
X6800Y23000D03*
X11400Y4000D03*
X10400Y4000D03*
G54D42*
X27700Y27843D03*
X27100Y27843D03*
X27700Y28157D03*
X27100Y28157D03*
X27700Y27528D03*
X27700Y28472D03*
X27100Y28472D03*
X27100Y27528D03*
X27700Y25843D03*
X27100Y25843D03*
X27700Y26157D03*
X27100Y26157D03*
X27700Y25528D03*
X27700Y26472D03*
X27100Y26472D03*
X27100Y25528D03*
G54D14*
X30900Y20750D03*
G54D13*
X30900Y21750D03*
G54D37*
X15150Y6624D03*
X15150Y5063D03*
G54D23*
X1900Y10500D03*
G54D24*
X1900Y12500D03*
G54D43*
X8581Y31336D03*
X9650Y31350D03*
X8950Y32900D03*
X9050Y32300D03*
X19842Y12391D03*
X19915Y14375D03*
X31475Y20951D03*
X31699Y28824D03*
G54D44*
X2900Y18900D03*
G54D45*
X10200Y6150D03*
X4733Y19295D03*
G54D43*
X8887Y27900D03*
X26900Y16587D03*
X9319Y28433D03*
X11538Y16919D03*
X9935Y18210D03*
X12458Y17702D03*
X12458Y16250D03*
X8500Y21505D03*
X17442Y17335D03*
X10930Y21455D03*
X19750Y750D03*
X13500Y1500D03*
X16366Y11452D03*
X28126Y12674D03*
X16740Y15096D03*
X31573Y8499D03*
X24029Y17775D03*
X27721Y17724D03*
X23886Y18106D03*
X34608Y19717D03*
X33096Y20075D03*
X27737Y19518D03*
X21652Y22184D03*
X15292Y15527D03*
X15337Y15931D03*
X31487Y10645D03*
X32237Y12013D03*
X8328Y23738D03*
X25151Y16534D03*
X26147Y14772D03*
G54D45*
X20750Y28550D03*
G54D43*
X29097Y28095D03*
X13355Y19170D03*
X25400Y10576D03*
X24187Y17227D03*
X25747Y20737D03*
G54D45*
X24580Y27500D03*
X7036Y32369D03*
X13230Y11875D03*
G54D43*
X31018Y26351D03*
X22919Y18262D03*
X38411Y23759D03*
X38910Y18434D03*
X26394Y23796D03*
X21929Y17065D03*
X34070Y20973D03*
X35264Y19218D03*
X28800Y29050D03*
X30966Y30556D03*
X31226Y28342D03*
X30751Y28180D03*
X30129Y28803D03*
X8597Y17796D03*
X34675Y10000D03*
X27445Y10662D03*
X24155Y15731D03*
X14808Y14821D03*
X34192Y24890D03*
X11150Y28200D03*
X11450Y33600D03*
X11950Y28950D03*
X16900Y27350D03*
X17900Y28050D03*
X19650Y27500D03*
X19950Y28200D03*
X27964Y19188D03*
X19727Y11706D03*
X20400Y13244D03*
X21473Y15189D03*
X22992Y15190D03*
X30686Y24929D03*
X32516Y19877D03*
X15250Y8850D03*
X15400Y7600D03*
X31958Y25225D03*
X33837Y25495D03*
X28379Y7385D03*
X34145Y11694D03*
X28761Y6976D03*
X30538Y27177D03*
X32092Y27056D03*
X30069Y6432D03*
X20400Y1000D03*
X20400Y2750D03*
X32894Y27228D03*
X31831Y27273D03*
X30153Y6893D03*
X35582Y11474D03*
G54D46*
X16900Y33500D02*
X17900Y33500D01*
X17900Y33500D02*
X18900Y33500D01*
X19900Y33500D02*
X18900Y33500D01*
X30900Y20750D02*
X31320Y20750D01*
X37400Y23000D02*
X36400Y23000D01*
X30074Y18000D02*
X33400Y18000D01*
X27096Y15021D02*
X30074Y18000D01*
X26033Y15021D02*
X27096Y15021D01*
X26011Y15000D02*
X26033Y15021D01*
X25400Y15000D02*
X26011Y15000D01*
X36400Y22947D02*
X36400Y23000D01*
X34013Y20560D02*
X36400Y22947D01*
X31509Y20560D02*
X34013Y20560D01*
X31320Y20750D02*
X31509Y20560D01*
X33400Y31500D02*
X33400Y31920D01*
X35400Y31500D02*
X35400Y31920D01*
X35441Y31920D02*
X35400Y31920D01*
X35834Y32313D02*
X35441Y31920D01*
X35834Y32659D02*
X35834Y32313D01*
X35574Y32920D02*
X35834Y32659D01*
X34065Y32920D02*
X35574Y32920D01*
X33820Y32674D02*
X34065Y32920D01*
X33820Y32297D02*
X33820Y32674D01*
X33443Y31920D02*
X33820Y32297D01*
X33400Y31920D02*
X33443Y31920D01*
X30972Y33500D02*
X19900Y33500D01*
X31529Y32943D02*
X30972Y33500D01*
X33551Y32943D02*
X31529Y32943D01*
X33820Y32674D02*
X33551Y32943D01*
G54D47*
X1900Y15500D02*
X4374Y15500D01*
X6080Y15320D02*
X6080Y13250D01*
X5900Y15500D02*
X6080Y15320D01*
X4374Y15500D02*
X5900Y15500D01*
X4400Y15525D02*
X4400Y15712D01*
X4374Y15500D02*
X4400Y15525D01*
G54D46*
X8581Y31429D02*
X8581Y31336D01*
X9564Y30890D02*
X9564Y31039D01*
X9564Y31039D02*
X9650Y31124D01*
X9650Y31124D02*
X9650Y31350D01*
X14400Y24500D02*
X13005Y25894D01*
X10734Y25894D02*
X13005Y25894D01*
X9564Y27064D02*
X10734Y25894D01*
X9564Y30890D02*
X9564Y27064D01*
X9650Y31350D02*
X9650Y31829D01*
X9650Y31829D02*
X9650Y32125D01*
X7650Y34250D02*
X7650Y34200D01*
X7650Y34200D02*
X8950Y32900D01*
X9050Y32300D02*
X9225Y32125D01*
X9225Y32125D02*
X9650Y32125D01*
X27150Y10000D02*
X27325Y9825D01*
X28800Y9100D02*
X28812Y9112D01*
X27550Y9100D02*
X28800Y9100D01*
X27375Y9275D02*
X27550Y9100D01*
X27325Y9325D02*
X27375Y9275D01*
X27325Y9825D02*
X27325Y9325D01*
X29900Y8000D02*
X29900Y8025D01*
X29900Y8025D02*
X28812Y9112D01*
X28900Y9200D02*
X28900Y9625D01*
X28812Y9112D02*
X28900Y9200D01*
X15800Y17250D02*
X15429Y17250D01*
X15900Y10000D02*
X16900Y10000D01*
X13400Y20750D02*
X12400Y20750D01*
X12307Y18800D02*
X12307Y18770D01*
X12622Y18800D02*
X12622Y18529D01*
X14040Y18529D02*
X12622Y18529D01*
X14150Y18420D02*
X14040Y18529D01*
X14150Y18125D02*
X14150Y18420D01*
X16057Y18664D02*
X15742Y18664D01*
X15742Y18800D02*
X15742Y18664D01*
X14150Y18125D02*
X14508Y18125D01*
X14738Y17941D02*
X15429Y17250D01*
X14738Y17940D02*
X14738Y17941D01*
X14729Y17940D02*
X14738Y17940D01*
X14583Y18086D02*
X14729Y17940D01*
X14547Y18086D02*
X14583Y18086D01*
X14508Y18125D02*
X14547Y18086D01*
X15327Y18529D02*
X15427Y18529D01*
X14738Y17941D02*
X15327Y18529D01*
X15427Y18664D02*
X15742Y18664D01*
X15427Y18800D02*
X15427Y18664D01*
X15427Y18664D02*
X15427Y18529D01*
X22900Y8000D02*
X21900Y8000D01*
X32525Y28750D02*
X32377Y28750D01*
X14900Y8000D02*
X13900Y8000D01*
X26900Y20750D02*
X27320Y20750D01*
X27900Y20750D02*
X27320Y20750D01*
X33400Y20875D02*
X33004Y20875D01*
X33004Y20875D02*
X32400Y20875D01*
X20400Y12375D02*
X20004Y12375D01*
X12487Y18529D02*
X12622Y18529D01*
X12307Y18709D02*
X12487Y18529D01*
X12307Y18770D02*
X12307Y18709D01*
X28900Y20750D02*
X27900Y20750D01*
X30400Y24500D02*
X31400Y24500D01*
X8307Y31700D02*
X8307Y31564D01*
X8442Y31429D02*
X8581Y31429D01*
X8307Y31564D02*
X8442Y31429D01*
X8581Y31429D02*
X8622Y31429D01*
X23900Y10000D02*
X24900Y10000D01*
X32900Y10000D02*
X33900Y10000D01*
X19988Y12391D02*
X19842Y12391D01*
X20004Y12375D02*
X19988Y12391D01*
X16057Y18800D02*
X16057Y18732D01*
X16057Y18732D02*
X16057Y18664D01*
X16208Y18529D02*
X16372Y18529D01*
X16057Y18681D02*
X16208Y18529D01*
X16057Y18732D02*
X16057Y18681D01*
X16372Y18800D02*
X16372Y18529D01*
X19900Y20750D02*
X20900Y20750D01*
X20400Y16375D02*
X20400Y16670D01*
X11677Y20750D02*
X11677Y18800D01*
X12400Y20750D02*
X11677Y20750D01*
X11677Y20750D02*
X11400Y20750D01*
X11992Y18800D02*
X11992Y18791D01*
X11992Y18791D02*
X11992Y18783D01*
X11686Y18791D02*
X11677Y18800D01*
X11992Y18791D02*
X11686Y18791D01*
X12006Y18770D02*
X12307Y18770D01*
X11992Y18783D02*
X12006Y18770D01*
X20400Y14375D02*
X20004Y14375D01*
X20004Y14375D02*
X19915Y14375D01*
X20373Y16696D02*
X18538Y16696D01*
X20400Y16670D02*
X20373Y16696D01*
X19915Y14443D02*
X19915Y14375D01*
X18469Y15890D02*
X19915Y14443D01*
X18469Y16627D02*
X18469Y15890D01*
X18538Y16696D02*
X18469Y16627D01*
X32525Y28750D02*
X32525Y28416D01*
X32845Y28095D02*
X32900Y28095D01*
X32525Y28416D02*
X32845Y28095D01*
X32900Y27750D02*
X32900Y28095D01*
X18900Y20750D02*
X19180Y20750D01*
X19180Y20750D02*
X19900Y20750D01*
X8622Y31700D02*
X8622Y31429D01*
X15400Y24500D02*
X14400Y24500D01*
X10650Y32125D02*
X10254Y32125D01*
X9650Y32125D02*
X10254Y32125D01*
X23400Y18125D02*
X23400Y18391D01*
X32400Y20875D02*
X32004Y20875D01*
X31928Y20951D02*
X31475Y20951D01*
X32004Y20875D02*
X31928Y20951D01*
X24400Y18250D02*
X24400Y18595D01*
X19900Y10000D02*
X17900Y10000D01*
X21900Y8000D02*
X19900Y10000D01*
X17900Y10000D02*
X16900Y10000D01*
X22400Y24500D02*
X23400Y24500D01*
X26479Y21170D02*
X26479Y20750D01*
X26070Y21579D02*
X26479Y21170D01*
X25564Y21579D02*
X26070Y21579D01*
X25283Y21860D02*
X25564Y21579D01*
X25283Y22919D02*
X25283Y21860D01*
X23703Y24500D02*
X25283Y22919D01*
X23400Y24500D02*
X23703Y24500D01*
X26900Y20750D02*
X26479Y20750D01*
X19180Y19344D02*
X19180Y19344D01*
X19180Y20750D02*
X19180Y19344D01*
X18476Y16757D02*
X18538Y16696D01*
X18476Y18641D02*
X18476Y16757D01*
X19180Y19344D02*
X18476Y18641D01*
X20104Y18420D02*
X20400Y18420D01*
X19180Y19344D02*
X20104Y18420D01*
X20400Y18125D02*
X20400Y18420D01*
X23603Y18595D02*
X23400Y18391D01*
X24400Y18595D02*
X23603Y18595D01*
X20495Y18515D02*
X20400Y18420D01*
X23275Y18515D02*
X20495Y18515D01*
X23400Y18391D02*
X23275Y18515D01*
X31699Y28824D02*
X32377Y28824D01*
X32377Y28750D02*
X32377Y28824D01*
X32377Y29477D02*
X32400Y29500D01*
X32377Y28824D02*
X32377Y29477D01*
X31900Y10000D02*
X32900Y10000D01*
X31320Y9420D02*
X31900Y10000D01*
X31320Y8420D02*
X31320Y9420D01*
X30900Y8000D02*
X31320Y8420D01*
X30900Y8000D02*
X29900Y8000D01*
X24900Y10000D02*
X25900Y10000D01*
X25900Y10000D02*
X27150Y10000D01*
X27150Y10000D02*
X27153Y10000D01*
X31740Y12579D02*
X31320Y13000D01*
X33979Y12579D02*
X31740Y12579D01*
X34400Y13000D02*
X33979Y12579D01*
X30900Y13000D02*
X31320Y13000D01*
G54D48*
X27050Y5068D02*
X34004Y5068D01*
X34225Y5289D02*
X34482Y5546D01*
X34004Y5068D02*
X34225Y5289D01*
X18400Y29500D02*
X18400Y28650D01*
X18567Y27500D02*
X18567Y26789D01*
X18567Y27500D02*
X18567Y28210D01*
X18567Y28482D02*
X18567Y28210D01*
X18400Y28650D02*
X18567Y28482D01*
X19317Y5483D02*
X19731Y5068D01*
X19317Y6000D02*
X19317Y5483D01*
X19731Y5068D02*
X27050Y5068D01*
X27050Y5068D02*
X27095Y5068D01*
X756Y18900D02*
X2900Y18900D01*
X608Y18752D02*
X756Y18900D01*
X608Y8977D02*
X608Y18752D01*
X985Y8683D02*
X608Y8977D01*
X6847Y8683D02*
X985Y8683D01*
X8900Y6630D02*
X6847Y8683D01*
X8900Y5820D02*
X8900Y6630D01*
X18900Y3000D02*
X18900Y900D01*
X8900Y2850D02*
X8900Y5820D01*
X11250Y500D02*
X8900Y2850D01*
X18500Y500D02*
X11250Y500D01*
X18900Y900D02*
X18500Y500D01*
X35188Y5546D02*
X35188Y5541D01*
X35188Y5541D02*
X36190Y4540D01*
X36190Y4540D02*
X36190Y3230D01*
X36190Y3230D02*
X35960Y3000D01*
X35960Y3000D02*
X35609Y3000D01*
X35609Y3000D02*
X34900Y3000D01*
X34482Y5546D02*
X35188Y5546D01*
X26400Y28877D02*
X25732Y28210D01*
X26400Y29500D02*
X26400Y28877D01*
X34482Y6000D02*
X34482Y5644D01*
X34482Y5644D02*
X34482Y5546D01*
X25732Y27677D02*
X25732Y28210D01*
X27482Y6000D02*
X27482Y5289D01*
X10400Y28377D02*
X10567Y28210D01*
X10400Y29500D02*
X10400Y28377D01*
X25732Y27677D02*
X25732Y27500D01*
X25732Y26789D02*
X18567Y26789D01*
X25732Y27500D02*
X25732Y26789D01*
X10567Y27500D02*
X10567Y27855D01*
X10567Y27855D02*
X10567Y28210D01*
X11632Y26789D02*
X18567Y26789D01*
X10567Y27855D02*
X11632Y26789D01*
X27261Y5068D02*
X27095Y5068D01*
X27482Y5289D02*
X27261Y5068D01*
X27095Y3195D02*
X26900Y3000D01*
X27095Y5068D02*
X27095Y3195D01*
X18704Y4734D02*
X19038Y5068D01*
X18704Y3195D02*
X18704Y4734D01*
X18900Y3000D02*
X18704Y3195D01*
X19038Y5068D02*
X19731Y5068D01*
G54D49*
X10650Y6600D02*
X10650Y9250D01*
X10200Y6150D02*
X10650Y6600D01*
X3501Y26861D02*
X3650Y26712D01*
X1675Y27611D02*
X3501Y26861D01*
X3501Y23861D02*
X3650Y23712D01*
X1675Y23861D02*
X3501Y23861D01*
X12650Y9750D02*
X12650Y11125D01*
X12150Y9250D02*
X12650Y9750D01*
X8400Y9167D02*
X9020Y9167D01*
X3251Y20111D02*
X3650Y19712D01*
X1675Y20111D02*
X3251Y20111D01*
X4067Y19295D02*
X4733Y19295D01*
X3650Y19712D02*
X4067Y19295D01*
X9103Y9250D02*
X10650Y9250D01*
X9020Y9167D02*
X9103Y9250D01*
X10650Y9250D02*
X12150Y9250D01*
G54D46*
X8500Y27900D02*
X8800Y27900D01*
X26900Y16587D02*
X26900Y16150D01*
X8800Y27900D02*
X8887Y27900D01*
X9319Y31651D02*
X9319Y28433D01*
X8670Y32300D02*
X9319Y31651D01*
X8622Y32300D02*
X8670Y32300D01*
X12000Y15250D02*
X11669Y15250D01*
X12307Y18200D02*
X12307Y17929D01*
X9239Y18210D02*
X8800Y18650D01*
X9935Y18210D02*
X9239Y18210D01*
X8500Y18650D02*
X8800Y18650D01*
X11538Y15381D02*
X11538Y16919D01*
X11669Y15250D02*
X11538Y15381D01*
X12152Y17929D02*
X12307Y17929D01*
X11538Y17315D02*
X12152Y17929D01*
X11538Y16919D02*
X11538Y17315D01*
X12622Y18200D02*
X12622Y17929D01*
X12000Y16250D02*
X12370Y16250D01*
X12370Y16250D02*
X12458Y16250D01*
X12622Y17865D02*
X12458Y17702D01*
X12622Y17929D02*
X12622Y17865D01*
X8500Y21505D02*
X8500Y21900D01*
X16372Y18200D02*
X16372Y17929D01*
X15800Y13250D02*
X16170Y13250D01*
X17014Y17335D02*
X16990Y17311D01*
X17442Y17335D02*
X17014Y17335D01*
X16372Y17929D02*
X16990Y17311D01*
X16990Y14070D02*
X16170Y13250D01*
X16990Y17311D02*
X16990Y14070D01*
X12000Y13250D02*
X11629Y13250D01*
X11677Y18200D02*
X11662Y18184D01*
X11125Y13754D02*
X11629Y13250D01*
X11125Y17647D02*
X11125Y13754D01*
X11662Y18184D02*
X11125Y17647D01*
X17605Y23705D02*
X18400Y24500D01*
X10690Y23705D02*
X17605Y23705D01*
X10363Y23379D02*
X10690Y23705D01*
X10363Y22465D02*
X10363Y23379D01*
X9968Y22070D02*
X10363Y22465D01*
X9968Y21426D02*
X9968Y22070D01*
X10570Y20824D02*
X9968Y21426D01*
X10570Y19276D02*
X10570Y20824D01*
X11662Y18184D02*
X10570Y19276D01*
X11992Y18200D02*
X11992Y18470D01*
X12000Y14250D02*
X11629Y14250D01*
X10930Y21455D02*
X10930Y21455D01*
X10930Y19142D02*
X10930Y21455D01*
X11603Y18470D02*
X10930Y19142D01*
X11992Y18470D02*
X11603Y18470D01*
X11992Y18074D02*
X11992Y18200D01*
X11286Y17368D02*
X11992Y18074D01*
X11286Y14593D02*
X11286Y17368D01*
X11629Y14250D02*
X11286Y14593D01*
G54D50*
X4142Y31774D02*
X4253Y31662D01*
X3650Y31374D02*
X4142Y31774D01*
X4650Y31412D02*
X4253Y31662D01*
X3137Y31750D02*
X3161Y31774D01*
X1650Y31750D02*
X3137Y31750D01*
X3650Y31374D02*
X3161Y31774D01*
X5133Y31750D02*
X5046Y31662D01*
X5750Y31750D02*
X5133Y31750D01*
X4650Y31412D02*
X5046Y31662D01*
X1900Y34250D02*
X3625Y34400D01*
X1650Y34000D02*
X1900Y34250D01*
X3625Y34400D02*
X3650Y34424D01*
X3625Y34400D02*
X4687Y34250D01*
X4687Y34250D02*
X6650Y33900D01*
X4650Y34212D02*
X4650Y34162D01*
X4687Y34250D02*
X4650Y34212D01*
G54D46*
X8307Y32300D02*
X8307Y32029D01*
X27400Y18250D02*
X27400Y18595D01*
X9000Y31732D02*
X9000Y30900D01*
X8702Y32029D02*
X9000Y31732D01*
X8307Y32029D02*
X8702Y32029D01*
X9000Y30900D02*
X9000Y30599D01*
X27046Y18948D02*
X27400Y18595D01*
X24305Y18948D02*
X27046Y18948D01*
X20969Y22284D02*
X24305Y18948D01*
X20314Y22284D02*
X20969Y22284D01*
X19957Y22641D02*
X20314Y22284D01*
X19957Y24550D02*
X19957Y22641D01*
X19573Y24934D02*
X19957Y24550D01*
X18238Y24934D02*
X19573Y24934D01*
X17900Y24595D02*
X18238Y24934D01*
X17900Y24401D02*
X17900Y24595D01*
X17391Y23892D02*
X17900Y24401D01*
X14411Y23892D02*
X17391Y23892D01*
X13900Y24404D02*
X14411Y23892D01*
X13900Y24598D02*
X13900Y24404D01*
X13114Y25383D02*
X13900Y24598D01*
X11005Y25383D02*
X13114Y25383D01*
X9136Y27252D02*
X11005Y25383D01*
X9136Y28184D02*
X9136Y27252D01*
X9049Y28270D02*
X9136Y28184D01*
X9049Y28687D02*
X9049Y28270D01*
X9119Y28757D02*
X9049Y28687D01*
X9119Y30480D02*
X9119Y28757D01*
X9000Y30599D02*
X9119Y30480D01*
G54D49*
X1675Y25238D02*
X3614Y25238D01*
X3614Y25238D02*
X3650Y25274D01*
X3614Y25238D02*
X4574Y25238D01*
X7150Y25500D02*
X7150Y26000D01*
X6888Y25238D02*
X7150Y25500D01*
X4574Y25238D02*
X6888Y25238D01*
X4574Y25238D02*
X4650Y25162D01*
G54D47*
X1900Y17500D02*
X4174Y17500D01*
X4174Y17500D02*
X4400Y17274D01*
X4174Y17500D02*
X4742Y17500D01*
X7150Y17250D02*
X7150Y16500D01*
X6900Y17500D02*
X7150Y17250D01*
X4742Y17500D02*
X6900Y17500D01*
X4650Y17592D02*
X4650Y17837D01*
X4742Y17500D02*
X4650Y17592D01*
G54D49*
X7150Y21000D02*
X7150Y20000D01*
X6987Y21162D02*
X7150Y21000D01*
X4650Y21162D02*
X6987Y21162D01*
X2625Y21274D02*
X3650Y21274D01*
X2411Y21488D02*
X2625Y21274D01*
X1675Y21488D02*
X2411Y21488D01*
X4539Y21274D02*
X4650Y21162D01*
X3650Y21274D02*
X4539Y21274D01*
X7150Y28250D02*
X7150Y29000D01*
X7062Y28162D02*
X7150Y28250D01*
X4650Y28162D02*
X7062Y28162D01*
X1675Y28988D02*
X3614Y28238D01*
X4440Y28162D02*
X4650Y28162D01*
X3614Y28238D02*
X4440Y28162D01*
X3614Y28238D02*
X3650Y28274D01*
G54D47*
X4720Y10429D02*
X4720Y10250D01*
X2650Y12500D02*
X4720Y10429D01*
X1900Y12500D02*
X2650Y12500D01*
G54D50*
X15150Y5063D02*
X16213Y5063D01*
X16213Y5063D02*
X16400Y5250D01*
X11275Y11875D02*
X11900Y11875D01*
X10650Y11250D02*
X11275Y11875D01*
G54D49*
X5580Y7500D02*
X5740Y7339D01*
X1900Y7500D02*
X5580Y7500D01*
X5740Y7339D02*
X5900Y7179D01*
X5740Y7339D02*
X5900Y7180D01*
X5740Y7339D02*
X5740Y7339D01*
X5900Y2179D02*
X5899Y2179D01*
X2900Y3500D02*
X1900Y3500D01*
X4220Y2179D02*
X2900Y3500D01*
X5899Y2179D02*
X4220Y2179D01*
X5899Y2179D02*
X5900Y2180D01*
G54D46*
X13500Y1500D02*
X13400Y1850D01*
X13400Y1850D02*
X13400Y2895D01*
X12400Y4000D02*
X12400Y3379D01*
X12400Y3379D02*
X12631Y3379D01*
X12631Y3379D02*
X12693Y3441D01*
X12693Y3441D02*
X13062Y3441D01*
X13062Y3441D02*
X13400Y3103D01*
X13400Y3103D02*
X13400Y2895D01*
X19750Y750D02*
X29050Y750D01*
X34900Y750D02*
X29050Y750D01*
X29050Y750D02*
X29032Y750D01*
X35453Y419D02*
X35508Y364D01*
X35453Y750D02*
X35453Y419D01*
X38680Y364D02*
X36120Y364D01*
X36120Y364D02*
X35508Y364D01*
X34900Y750D02*
X35453Y750D01*
G54D51*
X27900Y33000D02*
X27900Y31000D01*
X27900Y31000D02*
X29400Y29500D01*
X26900Y31000D02*
X28400Y29500D01*
X26900Y33000D02*
X26900Y31000D01*
X22400Y29500D02*
X22400Y30000D01*
X23900Y31500D02*
X23900Y33000D01*
X22400Y30000D02*
X23900Y31500D01*
X23400Y29500D02*
X23400Y30000D01*
X24900Y31500D02*
X24900Y33000D01*
X23400Y30000D02*
X24900Y31500D01*
X21400Y29500D02*
X21400Y30000D01*
X22900Y31500D02*
X22900Y33000D01*
X21400Y30000D02*
X22900Y31500D01*
X20400Y29500D02*
X20400Y30000D01*
X21900Y31500D02*
X21900Y33000D01*
X20400Y30000D02*
X21900Y31500D01*
X13900Y33000D02*
X13900Y30000D01*
X13900Y30000D02*
X14400Y29500D01*
X14900Y33000D02*
X14900Y30000D01*
X14900Y30000D02*
X15400Y29500D01*
X12900Y33000D02*
X12900Y30000D01*
X12900Y30000D02*
X13400Y29500D01*
X11900Y33000D02*
X11900Y30000D01*
X11900Y30000D02*
X12400Y29500D01*
X14900Y3000D02*
X14900Y1750D01*
X14900Y1750D02*
X15400Y1250D01*
X13900Y3000D02*
X13900Y1750D01*
X13900Y1750D02*
X14400Y1250D01*
X15900Y3000D02*
X15900Y1750D01*
X15900Y1750D02*
X16400Y1250D01*
X16900Y3000D02*
X16900Y1750D01*
X16900Y1750D02*
X17400Y1250D01*
X22900Y3000D02*
X22900Y1250D01*
X21900Y3000D02*
X21900Y1250D01*
X23900Y3000D02*
X23900Y1250D01*
X24900Y3000D02*
X24900Y1250D01*
X30900Y3000D02*
X30900Y1250D01*
X29900Y3000D02*
X29900Y1250D01*
X31900Y3000D02*
X31900Y1250D01*
X32900Y3000D02*
X32900Y1250D01*
G54D46*
X16170Y17414D02*
X16170Y16250D01*
X16069Y17515D02*
X16170Y17414D01*
X15842Y17515D02*
X16069Y17515D01*
X15427Y17929D02*
X15842Y17515D01*
X15427Y18200D02*
X15427Y17929D01*
X15800Y16250D02*
X16170Y16250D01*
X16345Y11452D02*
X16366Y11452D01*
X15096Y12701D02*
X16345Y11452D01*
X15096Y14879D02*
X15096Y12701D01*
X15024Y14951D02*
X15096Y14879D01*
X15024Y15982D02*
X15024Y14951D01*
X15292Y16250D02*
X15024Y15982D01*
X15800Y16250D02*
X15292Y16250D01*
X15742Y18200D02*
X15742Y17929D01*
X15800Y15250D02*
X16091Y15250D01*
X16091Y15250D02*
X16170Y15250D01*
X15913Y17929D02*
X15742Y17929D01*
X16330Y17513D02*
X15913Y17929D01*
X16330Y15410D02*
X16330Y17513D01*
X16170Y15250D02*
X16330Y15410D01*
X28032Y12579D02*
X28126Y12674D01*
X23781Y12579D02*
X28032Y12579D01*
X23691Y12670D02*
X23781Y12579D01*
X22074Y12670D02*
X23691Y12670D01*
X21900Y12495D02*
X22074Y12670D01*
X21900Y12235D02*
X21900Y12495D01*
X21744Y12079D02*
X21900Y12235D01*
X21057Y12079D02*
X21744Y12079D01*
X20795Y12342D02*
X21057Y12079D01*
X20795Y12605D02*
X20795Y12342D01*
X20715Y12685D02*
X20795Y12605D01*
X18517Y12685D02*
X20715Y12685D01*
X18427Y12595D02*
X18517Y12685D01*
X18427Y11964D02*
X18427Y12595D01*
X18278Y11814D02*
X18427Y11964D01*
X17105Y11814D02*
X18278Y11814D01*
X16330Y12589D02*
X17105Y11814D01*
X16330Y12830D02*
X16330Y12589D01*
X16179Y12981D02*
X16330Y12830D01*
X15548Y12981D02*
X16179Y12981D01*
X15429Y13100D02*
X15548Y12981D01*
X15429Y13402D02*
X15429Y13100D01*
X15527Y13500D02*
X15429Y13402D01*
X16069Y13500D02*
X15527Y13500D01*
X16170Y13600D02*
X16069Y13500D01*
X16170Y13903D02*
X16170Y13600D01*
X16073Y14000D02*
X16170Y13903D01*
X15530Y14000D02*
X16073Y14000D01*
X15429Y14100D02*
X15530Y14000D01*
X15429Y14424D02*
X15429Y14100D01*
X15534Y14529D02*
X15429Y14424D01*
X16099Y14529D02*
X15534Y14529D01*
X16170Y14600D02*
X16099Y14529D01*
X16170Y15249D02*
X16170Y14600D01*
X16170Y15250D02*
X16170Y15249D01*
X15800Y14250D02*
X16170Y14250D01*
X34470Y7570D02*
X34900Y8000D01*
X32707Y7570D02*
X34470Y7570D01*
X32400Y7877D02*
X32707Y7570D01*
X32400Y8109D02*
X32400Y7877D01*
X32010Y8499D02*
X32400Y8109D01*
X31573Y8499D02*
X32010Y8499D01*
X16564Y15096D02*
X16740Y15096D01*
X16564Y14644D02*
X16564Y15096D01*
X16170Y14250D02*
X16564Y14644D01*
X16057Y18012D02*
X16057Y18200D01*
X16564Y17505D02*
X16057Y18012D01*
X16564Y15096D02*
X16564Y17505D01*
X26400Y16150D02*
X26400Y16495D01*
X24259Y17775D02*
X24029Y17775D01*
X25194Y16840D02*
X24259Y17775D01*
X26055Y16840D02*
X25194Y16840D01*
X26400Y16495D02*
X26055Y16840D01*
X26900Y18250D02*
X26900Y17904D01*
X27080Y17724D02*
X27721Y17724D01*
X26900Y17904D02*
X27080Y17724D01*
X11800Y23000D02*
X11800Y22379D01*
X25400Y18250D02*
X25400Y18595D01*
X25215Y18779D02*
X25400Y18595D01*
X23501Y18779D02*
X25215Y18779D01*
X20960Y21320D02*
X23501Y18779D01*
X18487Y21320D02*
X20960Y21320D01*
X18228Y21579D02*
X18487Y21320D01*
X17103Y21579D02*
X18228Y21579D01*
X16303Y22379D02*
X17103Y21579D01*
X11800Y22379D02*
X16303Y22379D01*
X10800Y23000D02*
X10800Y22379D01*
X14900Y21625D02*
X14900Y21920D01*
X14637Y22182D02*
X14900Y21920D01*
X10996Y22182D02*
X14637Y22182D01*
X10800Y22379D02*
X10996Y22182D01*
X24900Y16862D02*
X24900Y16150D01*
X24231Y17530D02*
X24900Y16862D01*
X23928Y17530D02*
X24231Y17530D01*
X23784Y17674D02*
X23928Y17530D01*
X23784Y17877D02*
X23784Y17674D01*
X23886Y17979D02*
X23784Y17877D01*
X23886Y18106D02*
X23886Y17979D01*
X38246Y8420D02*
X38400Y8420D01*
X37833Y8833D02*
X38246Y8420D01*
X37833Y15165D02*
X37833Y8833D01*
X37511Y15486D02*
X37833Y15165D01*
X37318Y15486D02*
X37511Y15486D01*
X36979Y15825D02*
X37318Y15486D01*
X36979Y16420D02*
X36979Y15825D01*
X36400Y17000D02*
X36979Y16420D01*
X38400Y8000D02*
X38400Y8420D01*
X34362Y19471D02*
X34608Y19717D01*
X29963Y19471D02*
X34362Y19471D01*
X29379Y20055D02*
X29963Y19471D01*
X25541Y20055D02*
X29379Y20055D01*
X22900Y22697D02*
X25541Y20055D01*
X22900Y23305D02*
X22900Y22697D01*
X21900Y24305D02*
X22900Y23305D01*
X21900Y24620D02*
X21900Y24305D01*
X21265Y25255D02*
X21900Y24620D01*
X17155Y25255D02*
X21265Y25255D01*
X16400Y24500D02*
X17155Y25255D01*
X15800Y12750D02*
X16170Y12750D01*
X36900Y13500D02*
X37400Y14000D01*
X35859Y13500D02*
X36900Y13500D01*
X34619Y12259D02*
X35859Y13500D01*
X23833Y12259D02*
X34619Y12259D01*
X22903Y11329D02*
X23833Y12259D01*
X19757Y11329D02*
X22903Y11329D01*
X19480Y11606D02*
X19757Y11329D01*
X17087Y11606D02*
X19480Y11606D01*
X16170Y12523D02*
X17087Y11606D01*
X16170Y12750D02*
X16170Y12523D01*
X24400Y24200D02*
X24400Y24500D01*
X26385Y22214D02*
X24400Y24200D01*
X27036Y22214D02*
X26385Y22214D01*
X27400Y21850D02*
X27036Y22214D01*
X27400Y21655D02*
X27400Y21850D01*
X27802Y21253D02*
X27400Y21655D01*
X29172Y21253D02*
X27802Y21253D01*
X30303Y20122D02*
X29172Y21253D01*
X33049Y20122D02*
X30303Y20122D01*
X33096Y20075D02*
X33049Y20122D01*
X15800Y13750D02*
X15429Y13750D01*
X36820Y11579D02*
X37400Y11000D01*
X36820Y12174D02*
X36820Y11579D01*
X36555Y12438D02*
X36820Y12174D01*
X35851Y12438D02*
X36555Y12438D01*
X35352Y11939D02*
X35851Y12438D01*
X32510Y11939D02*
X35352Y11939D01*
X32339Y11768D02*
X32510Y11939D01*
X23595Y11768D02*
X32339Y11768D01*
X22996Y11168D02*
X23595Y11768D01*
X19691Y11168D02*
X22996Y11168D01*
X19462Y11397D02*
X19691Y11168D01*
X17069Y11397D02*
X19462Y11397D01*
X16358Y12108D02*
X17069Y11397D01*
X15921Y12108D02*
X16358Y12108D01*
X15269Y12759D02*
X15921Y12108D01*
X15269Y13589D02*
X15269Y12759D01*
X15429Y13750D02*
X15269Y13589D01*
X24318Y19518D02*
X21652Y22184D01*
X27737Y19518D02*
X24318Y19518D01*
X15292Y14886D02*
X15429Y14750D01*
X15292Y15527D02*
X15292Y14886D01*
X15800Y14750D02*
X15429Y14750D01*
X15800Y15750D02*
X15429Y15750D01*
X15429Y15839D02*
X15429Y15750D01*
X15337Y15931D02*
X15429Y15839D01*
X13142Y13750D02*
X12000Y13750D01*
X16054Y10837D02*
X13142Y13750D01*
X19288Y10837D02*
X16054Y10837D01*
X19437Y10688D02*
X19288Y10837D01*
X23413Y10688D02*
X19437Y10688D01*
X24013Y11287D02*
X23413Y10688D01*
X35389Y11287D02*
X24013Y11287D01*
X35451Y11225D02*
X35389Y11287D01*
X35713Y11225D02*
X35451Y11225D01*
X36400Y11912D02*
X35713Y11225D01*
X36400Y12000D02*
X36400Y11912D01*
X29900Y10537D02*
X29900Y10537D01*
X30650Y10537D02*
X29900Y10537D01*
X32237Y12013D02*
X32324Y12099D01*
X32324Y12099D02*
X35065Y12099D01*
X35065Y12099D02*
X35966Y13000D01*
X36400Y13000D02*
X35966Y13000D01*
X30650Y10537D02*
X31098Y10537D01*
X31487Y10645D02*
X31207Y10645D01*
X31207Y10645D02*
X31098Y10537D01*
X6550Y31400D02*
X6550Y31700D01*
X7528Y32570D02*
X7992Y32570D01*
X7420Y32461D02*
X7528Y32570D01*
X7420Y32240D02*
X7420Y32461D01*
X6879Y31700D02*
X7420Y32240D01*
X6550Y31700D02*
X6879Y31700D01*
X7992Y32395D02*
X7992Y32300D01*
X7992Y32395D02*
X7992Y32530D01*
X7992Y32530D02*
X7992Y32570D01*
X25900Y18250D02*
X25900Y18595D01*
X10848Y32570D02*
X7992Y32570D01*
X11050Y32368D02*
X10848Y32570D01*
X11050Y31868D02*
X11050Y32368D01*
X9724Y30543D02*
X11050Y31868D01*
X9724Y27130D02*
X9724Y30543D01*
X10626Y26228D02*
X9724Y27130D01*
X14292Y26228D02*
X10626Y26228D01*
X15900Y24620D02*
X14292Y26228D01*
X15900Y24405D02*
X15900Y24620D01*
X16235Y24070D02*
X15900Y24405D01*
X16569Y24070D02*
X16235Y24070D01*
X16862Y24363D02*
X16569Y24070D01*
X16862Y24566D02*
X16862Y24363D01*
X17391Y25095D02*
X16862Y24566D01*
X20418Y25095D02*
X17391Y25095D01*
X20900Y24613D02*
X20418Y25095D01*
X20900Y24306D02*
X20900Y24613D01*
X21979Y23226D02*
X20900Y24306D01*
X21979Y22620D02*
X21979Y23226D01*
X24836Y19763D02*
X21979Y22620D01*
X27851Y19763D02*
X24836Y19763D01*
X28210Y19404D02*
X27851Y19763D01*
X28210Y18564D02*
X28210Y19404D01*
X27535Y17889D02*
X28210Y18564D01*
X27257Y17889D02*
X27535Y17889D01*
X27120Y18026D02*
X27257Y17889D01*
X27120Y18524D02*
X27120Y18026D01*
X27049Y18595D02*
X27120Y18524D01*
X25900Y18595D02*
X27049Y18595D01*
X7677Y32300D02*
X7677Y32029D01*
X7820Y24247D02*
X8328Y23738D01*
X7820Y25267D02*
X7820Y24247D01*
X7633Y25454D02*
X7820Y25267D01*
X7633Y26316D02*
X7633Y25454D01*
X7499Y26450D02*
X7633Y26316D01*
X7499Y28173D02*
X7499Y26450D01*
X7654Y28328D02*
X7499Y28173D01*
X7654Y29630D02*
X7654Y28328D01*
X7795Y29770D02*
X7654Y29630D01*
X7795Y30353D02*
X7795Y29770D01*
X7720Y30428D02*
X7795Y30353D01*
X7199Y30428D02*
X7720Y30428D01*
X6932Y30695D02*
X7199Y30428D01*
X6932Y31099D02*
X6932Y30695D01*
X6317Y31099D02*
X6932Y31099D01*
X6184Y31233D02*
X6317Y31099D01*
X6184Y33233D02*
X6184Y31233D01*
X7575Y32029D02*
X7677Y32029D01*
X6932Y31386D02*
X7575Y32029D01*
X6932Y31099D02*
X6932Y31386D01*
X25400Y16150D02*
X25400Y16495D01*
X25190Y16495D02*
X25151Y16534D01*
X25400Y16495D02*
X25190Y16495D01*
X11476Y4696D02*
X11900Y4696D01*
X11400Y4620D02*
X11476Y4696D01*
X11400Y4000D02*
X11400Y4620D01*
X11900Y5250D02*
X11900Y4696D01*
X32969Y17430D02*
X33400Y17000D01*
X29731Y17430D02*
X32969Y17430D01*
X27073Y14772D02*
X29731Y17430D01*
X26147Y14772D02*
X27073Y14772D01*
X33900Y16500D02*
X34400Y17000D01*
X29150Y16500D02*
X33900Y16500D01*
X26650Y14000D02*
X29150Y16500D01*
X25400Y14000D02*
X26650Y14000D01*
G54D49*
X18018Y4968D02*
X18018Y6283D01*
X17959Y3059D02*
X18018Y3118D01*
X18018Y3118D02*
X18018Y4550D01*
X17900Y3000D02*
X17959Y3059D01*
X18018Y4550D02*
X18018Y4968D01*
X18300Y6565D02*
X18365Y6631D01*
X18365Y6631D02*
X18365Y6620D01*
X18018Y6283D02*
X18300Y6565D01*
X20732Y28120D02*
X20732Y28532D01*
X20732Y27810D02*
X20732Y28120D01*
X20732Y28532D02*
X20750Y28550D01*
X11400Y28833D02*
X12733Y27500D01*
X11400Y29500D02*
X11400Y28833D01*
X7036Y32369D02*
X7036Y33063D01*
X7036Y33063D02*
X7000Y33100D01*
X18365Y6620D02*
X18365Y6620D01*
G54D46*
X26900Y10375D02*
X27025Y10375D01*
X27775Y9625D02*
X27900Y9625D01*
X27025Y10375D02*
X27775Y9625D01*
X19900Y34500D02*
X18900Y34500D01*
X37400Y33500D02*
X36400Y33500D01*
X33275Y28750D02*
X33275Y29145D01*
X33400Y29270D02*
X33275Y29145D01*
X33400Y29500D02*
X33400Y29270D01*
X33400Y29500D02*
X34900Y29500D01*
X17690Y16250D02*
X17690Y15814D01*
X9070Y34403D02*
X9070Y34250D01*
X9471Y34805D02*
X9070Y34403D01*
X16174Y34805D02*
X9471Y34805D01*
X16479Y34500D02*
X16174Y34805D01*
X16900Y34500D02*
X16479Y34500D01*
X29400Y27750D02*
X29400Y28095D01*
X32400Y33500D02*
X33400Y33500D01*
X33400Y33500D02*
X34400Y33500D01*
X37400Y6000D02*
X36400Y6000D01*
X18900Y10375D02*
X18504Y10375D01*
X12000Y12750D02*
X12370Y12750D01*
X18900Y10375D02*
X19295Y10375D01*
X21400Y14375D02*
X21795Y14375D01*
X17690Y16250D02*
X17690Y16685D01*
X17690Y17814D02*
X17690Y16685D01*
X35400Y33500D02*
X36400Y33500D01*
X14150Y19170D02*
X13355Y19170D01*
X8650Y34250D02*
X9070Y34250D01*
X38400Y33500D02*
X37400Y33500D01*
X17690Y18032D02*
X17690Y17814D01*
X16150Y21662D02*
X16506Y21662D01*
X21400Y18125D02*
X21400Y17829D01*
X18362Y10517D02*
X18504Y10375D01*
X15901Y10517D02*
X18362Y10517D01*
X13668Y12750D02*
X15901Y10517D01*
X12370Y12750D02*
X13668Y12750D01*
X14150Y18875D02*
X14150Y19170D01*
X17690Y18032D02*
X17690Y18250D01*
X17690Y18250D02*
X17690Y18685D01*
X17690Y18685D02*
X17205Y19170D01*
X17205Y19170D02*
X14150Y19170D01*
X17205Y19170D02*
X17205Y21125D01*
X17044Y21125D02*
X17205Y21125D01*
X16506Y21662D02*
X17044Y21125D01*
X17205Y21125D02*
X17900Y21125D01*
X21559Y17670D02*
X21400Y17829D01*
X23400Y17670D02*
X21559Y17670D01*
X23400Y17375D02*
X23400Y17670D01*
X27400Y16150D02*
X27400Y15804D01*
X30331Y13431D02*
X29900Y13000D01*
X31305Y13431D02*
X30331Y13431D01*
X32874Y15000D02*
X31305Y13431D01*
X33400Y15000D02*
X32874Y15000D01*
X9565Y22145D02*
X9525Y22145D01*
X9800Y22379D02*
X9565Y22145D01*
X9800Y23000D02*
X9800Y22379D01*
X9525Y21750D02*
X9525Y22145D01*
X9465Y22204D02*
X9525Y22145D01*
X8254Y22204D02*
X9465Y22204D01*
X8100Y22050D02*
X8254Y22204D01*
X8100Y21900D02*
X8100Y22050D01*
X7800Y21900D02*
X8100Y21900D01*
X7679Y21479D02*
X7800Y21599D01*
X7679Y19070D02*
X7679Y21479D01*
X7800Y18950D02*
X7679Y19070D01*
X7800Y18650D02*
X7800Y18950D01*
X7800Y21900D02*
X7800Y21599D01*
X17690Y12250D02*
X17690Y12685D01*
X17690Y15814D02*
X17690Y14250D01*
X21400Y16375D02*
X21400Y16079D01*
X9800Y25990D02*
X9800Y23000D01*
X8100Y27690D02*
X9800Y25990D01*
X8100Y27900D02*
X8100Y27690D01*
X23783Y10576D02*
X25400Y10576D01*
X23574Y10368D02*
X23783Y10576D01*
X19301Y10368D02*
X23574Y10368D01*
X19295Y10375D02*
X19301Y10368D01*
X26302Y10576D02*
X26504Y10375D01*
X25400Y10576D02*
X26302Y10576D01*
X7800Y27900D02*
X7950Y27900D01*
X7950Y27900D02*
X8100Y27900D01*
X8600Y30707D02*
X8600Y30900D01*
X8950Y30357D02*
X8600Y30707D01*
X8950Y28900D02*
X8950Y30357D01*
X7950Y27900D02*
X8950Y28900D01*
X8300Y30900D02*
X8600Y30900D01*
X7677Y31700D02*
X7992Y31700D01*
X8070Y31429D02*
X8300Y31200D01*
X7992Y31429D02*
X8070Y31429D01*
X8300Y30900D02*
X8300Y31200D01*
X7992Y31700D02*
X7992Y31429D01*
X26891Y10375D02*
X26504Y10375D01*
X26891Y10375D02*
X26900Y10375D01*
X29900Y13000D02*
X25400Y13000D01*
X25400Y13000D02*
X24984Y13000D01*
X21400Y12375D02*
X21400Y12670D01*
X21207Y12862D02*
X21400Y12670D01*
X17690Y12862D02*
X21207Y12862D01*
X17690Y14250D02*
X17690Y12862D01*
X17690Y12862D02*
X17690Y12685D01*
X24616Y13420D02*
X22814Y13420D01*
X24984Y13051D02*
X24616Y13420D01*
X24984Y13000D02*
X24984Y13051D01*
X22814Y13857D02*
X22814Y13420D01*
X22752Y13920D02*
X22814Y13857D01*
X22219Y13920D02*
X22752Y13920D01*
X21795Y14344D02*
X22219Y13920D01*
X21795Y14375D02*
X21795Y14344D01*
X21728Y12998D02*
X21400Y12670D01*
X22396Y12998D02*
X21728Y12998D01*
X22814Y13416D02*
X22396Y12998D01*
X22814Y13420D02*
X22814Y13416D01*
X27239Y15644D02*
X27400Y15804D01*
X24466Y15644D02*
X27239Y15644D01*
X24308Y15486D02*
X24466Y15644D01*
X23432Y15486D02*
X24308Y15486D01*
X23432Y17047D02*
X23400Y17079D01*
X23432Y15486D02*
X23432Y17047D01*
X22747Y15291D02*
X22747Y14948D01*
X22795Y15339D02*
X22747Y15291D01*
X22795Y15850D02*
X22795Y15339D01*
X22566Y16079D02*
X22795Y15850D01*
X21400Y16079D02*
X22566Y16079D01*
X22768Y14927D02*
X22747Y14948D01*
X23078Y14927D02*
X22768Y14927D01*
X23432Y15281D02*
X23078Y14927D01*
X23432Y15486D02*
X23432Y15281D01*
X21795Y14390D02*
X21795Y14375D01*
X22353Y14948D02*
X21795Y14390D01*
X22747Y14948D02*
X22353Y14948D01*
X23400Y17375D02*
X23400Y17227D01*
X23400Y17227D02*
X23400Y17079D01*
X25839Y20829D02*
X25747Y20737D01*
X25900Y20829D02*
X25839Y20829D01*
X25900Y21125D02*
X25900Y20829D01*
X23400Y17227D02*
X24187Y17227D01*
X29097Y28095D02*
X29400Y28095D01*
X34900Y29500D02*
X35900Y29500D01*
X35484Y10029D02*
X35300Y10029D01*
X35754Y9759D02*
X35484Y10029D01*
X35754Y9020D02*
X35754Y9759D01*
X36275Y8500D02*
X35754Y9020D01*
X36494Y8500D02*
X36275Y8500D01*
X36820Y8174D02*
X36494Y8500D01*
X36820Y7969D02*
X36820Y8174D01*
X37369Y7420D02*
X36820Y7969D01*
X38400Y7420D02*
X37369Y7420D01*
X38400Y7000D02*
X38400Y7420D01*
X35300Y10325D02*
X35300Y10029D01*
X26900Y10375D02*
X26912Y10375D01*
X35300Y10325D02*
X35300Y10620D01*
X35474Y2170D02*
X34900Y2170D01*
X35508Y2135D02*
X35474Y2170D01*
X34900Y1750D02*
X34900Y2170D01*
X36120Y2135D02*
X35508Y2135D01*
X20250Y3000D02*
X19900Y3000D01*
X27900Y3000D02*
X27457Y2557D01*
X27457Y2557D02*
X26721Y2557D01*
X26721Y2557D02*
X26391Y2886D01*
X26391Y2886D02*
X26391Y3132D01*
X26391Y3132D02*
X26101Y3422D01*
X26101Y3422D02*
X25690Y3422D01*
X25690Y3422D02*
X25637Y3370D01*
X25637Y3370D02*
X25235Y3370D01*
X25235Y3370D02*
X25175Y3429D01*
X25175Y3429D02*
X24735Y3429D01*
X24735Y3429D02*
X24675Y3370D01*
X24675Y3370D02*
X24235Y3370D01*
X24235Y3370D02*
X24175Y3429D01*
X24175Y3429D02*
X23735Y3429D01*
X23735Y3429D02*
X23675Y3370D01*
X23675Y3370D02*
X23235Y3370D01*
X23235Y3370D02*
X23175Y3429D01*
X23175Y3429D02*
X22735Y3429D01*
X22735Y3429D02*
X22675Y3370D01*
X22675Y3370D02*
X22235Y3370D01*
X22235Y3370D02*
X22175Y3429D01*
X22175Y3429D02*
X21735Y3429D01*
X21735Y3429D02*
X21675Y3370D01*
X21675Y3370D02*
X21235Y3370D01*
X21235Y3370D02*
X21167Y3438D01*
X21167Y3438D02*
X20688Y3438D01*
X20688Y3438D02*
X20250Y3000D01*
X26912Y10375D02*
X26958Y10421D01*
X26958Y10421D02*
X26958Y10421D01*
X26958Y10529D02*
X26958Y10421D01*
X27396Y10967D02*
X26958Y10529D01*
X34952Y10967D02*
X27396Y10967D01*
X35300Y10620D02*
X34952Y10967D01*
G54D49*
X25317Y6000D02*
X25317Y6620D01*
X32317Y6000D02*
X31303Y6000D01*
X25317Y6000D02*
X21482Y6000D01*
X21482Y6000D02*
X20982Y6620D01*
X19400Y29500D02*
X19400Y29453D01*
X23567Y27500D02*
X24580Y27500D01*
X20732Y27500D02*
X20732Y27810D01*
X22243Y27810D02*
X22553Y27500D01*
X20732Y27810D02*
X22243Y27810D01*
X23567Y27500D02*
X22553Y27500D01*
X20982Y6620D02*
X18365Y6620D01*
X18365Y6620D02*
X18365Y6620D01*
X9020Y11870D02*
X9020Y11332D01*
X9650Y12500D02*
X9020Y11870D01*
X8400Y11332D02*
X9020Y11332D01*
X9994Y10358D02*
X9020Y11332D01*
X9994Y10250D02*
X9994Y10358D01*
X10425Y10250D02*
X9994Y10250D01*
X6819Y32369D02*
X6550Y32100D01*
X7036Y32369D02*
X6819Y32369D01*
X7035Y32370D02*
X7036Y32369D01*
X12650Y11875D02*
X13230Y11875D01*
X28950Y6000D02*
X31303Y6000D01*
X28330Y6620D02*
X28950Y6000D01*
X25317Y6620D02*
X28330Y6620D01*
X11472Y29500D02*
X11400Y29500D01*
X10425Y10250D02*
X10650Y10250D01*
X11700Y10644D02*
X11900Y10644D01*
X11305Y10250D02*
X11700Y10644D01*
X10650Y10250D02*
X11305Y10250D01*
X11900Y11125D02*
X11900Y10644D01*
G54D46*
X22400Y18125D02*
X22795Y18125D01*
X37400Y27500D02*
X37400Y27920D01*
X22795Y18138D02*
X22919Y18262D01*
X22795Y18125D02*
X22795Y18138D01*
X31023Y26356D02*
X31018Y26351D01*
X33015Y26356D02*
X31023Y26356D01*
X34578Y27920D02*
X33015Y26356D01*
X37400Y27920D02*
X34578Y27920D01*
X22400Y12375D02*
X22795Y12375D01*
X37400Y24500D02*
X37815Y24500D01*
X38362Y23759D02*
X38411Y23759D01*
X37815Y24306D02*
X38362Y23759D01*
X37815Y24500D02*
X37815Y24306D01*
X37214Y18434D02*
X38910Y18434D01*
X36876Y18096D02*
X37214Y18434D01*
X36876Y17860D02*
X36876Y18096D01*
X36436Y17420D02*
X36876Y17860D01*
X36201Y17420D02*
X36436Y17420D01*
X35900Y17118D02*
X36201Y17420D01*
X35900Y13887D02*
X35900Y17118D01*
X34432Y12419D02*
X35900Y13887D01*
X22839Y12419D02*
X34432Y12419D01*
X22795Y12375D02*
X22839Y12419D01*
X26571Y23620D02*
X26394Y23796D01*
X28573Y23620D02*
X26571Y23620D01*
X28913Y23280D02*
X28573Y23620D01*
X28913Y22678D02*
X28913Y23280D01*
X30276Y21315D02*
X28913Y22678D01*
X34283Y21315D02*
X30276Y21315D01*
X35677Y22708D02*
X34283Y21315D01*
X35677Y23532D02*
X35677Y22708D01*
X36548Y24403D02*
X35677Y23532D01*
X36548Y25438D02*
X36548Y24403D01*
X37189Y26079D02*
X36548Y25438D01*
X37400Y26079D02*
X37189Y26079D01*
X22400Y16375D02*
X22400Y16670D01*
X22325Y16670D02*
X22400Y16670D01*
X21929Y17065D02*
X22325Y16670D01*
X37400Y26500D02*
X37400Y26079D01*
X22400Y14375D02*
X22795Y14375D01*
X37400Y25500D02*
X37400Y25079D01*
X34958Y18911D02*
X35264Y19218D01*
X30759Y18911D02*
X34958Y18911D01*
X27332Y15484D02*
X30759Y18911D01*
X25286Y15484D02*
X27332Y15484D01*
X24815Y15014D02*
X25286Y15484D01*
X24815Y14634D02*
X24815Y15014D01*
X24738Y14556D02*
X24815Y14634D01*
X22976Y14556D02*
X24738Y14556D01*
X22795Y14375D02*
X22976Y14556D01*
X34168Y20973D02*
X34070Y20973D01*
X35837Y22642D02*
X34168Y20973D01*
X35837Y23031D02*
X35837Y22642D01*
X36708Y23902D02*
X35837Y23031D01*
X36708Y24598D02*
X36708Y23902D01*
X37189Y25079D02*
X36708Y24598D01*
X37400Y25079D02*
X37189Y25079D01*
X29900Y27750D02*
X29900Y28095D01*
X29775Y28342D02*
X29900Y28217D01*
X28700Y28342D02*
X29775Y28342D01*
X28201Y27842D02*
X28700Y28342D01*
X27700Y27842D02*
X28201Y27842D01*
X29900Y28217D02*
X29900Y28095D01*
X34868Y31968D02*
X35400Y32500D01*
X34868Y31176D02*
X34868Y31968D01*
X34165Y30473D02*
X34868Y31176D01*
X31767Y30473D02*
X34165Y30473D01*
X30913Y29618D02*
X31767Y30473D01*
X30913Y29231D02*
X30913Y29618D01*
X29900Y28217D02*
X30913Y29231D01*
X28225Y28475D02*
X27973Y28475D01*
X27970Y28472D02*
X27700Y28472D01*
X27973Y28475D02*
X27970Y28472D01*
X28800Y29050D02*
X28225Y28475D01*
X28225Y28475D02*
X28222Y28472D01*
X32956Y32056D02*
X33400Y32500D01*
X32361Y32056D02*
X32956Y32056D01*
X30966Y30661D02*
X32361Y32056D01*
X30966Y30556D02*
X30966Y30661D01*
X31900Y27750D02*
X31900Y28095D01*
X31473Y28095D02*
X31226Y28342D01*
X31900Y28095D02*
X31473Y28095D01*
X27370Y27663D02*
X27370Y27842D01*
X27235Y27527D02*
X27370Y27663D01*
X27370Y28472D02*
X27370Y28157D01*
X27100Y28472D02*
X27370Y28472D01*
X27235Y28157D02*
X27235Y27842D01*
X27100Y28157D02*
X27235Y28157D01*
X27235Y28157D02*
X27370Y28157D01*
X27100Y27842D02*
X27235Y27842D01*
X27235Y27842D02*
X27370Y27842D01*
X27133Y26472D02*
X27133Y27527D01*
X27100Y27527D02*
X27133Y27527D01*
X27133Y27527D02*
X27235Y27527D01*
X27116Y26157D02*
X27116Y26472D01*
X27100Y26472D02*
X27116Y26472D01*
X27116Y26472D02*
X27133Y26472D01*
X27108Y25842D02*
X27108Y26157D01*
X27100Y26157D02*
X27108Y26157D01*
X27108Y26157D02*
X27116Y26157D01*
X27108Y25842D02*
X27100Y25842D01*
X27100Y25527D02*
X27334Y25527D01*
X27334Y25616D02*
X27334Y25527D01*
X27108Y25842D02*
X27334Y25616D01*
X27334Y25167D02*
X27334Y25527D01*
X27900Y24602D02*
X27334Y25167D01*
X27900Y24387D02*
X27900Y24602D01*
X28492Y23795D02*
X27900Y24387D01*
X29399Y23795D02*
X28492Y23795D01*
X29897Y23296D02*
X29399Y23795D01*
X29897Y22652D02*
X29897Y23296D01*
X30800Y21750D02*
X29897Y22652D01*
X30900Y21750D02*
X30800Y21750D01*
X31900Y25750D02*
X31900Y26095D01*
X27700Y25527D02*
X27970Y25527D01*
X37820Y31920D02*
X38400Y32500D01*
X37820Y30500D02*
X37820Y31920D01*
X36282Y28962D02*
X37820Y30500D01*
X34625Y28962D02*
X36282Y28962D01*
X34257Y28595D02*
X34625Y28962D01*
X34257Y28012D02*
X34257Y28595D01*
X32889Y26643D02*
X34257Y28012D01*
X30964Y26643D02*
X32889Y26643D01*
X30767Y26447D02*
X30964Y26643D01*
X30767Y26095D02*
X30767Y26447D01*
X31900Y26095D02*
X30767Y26095D01*
X28266Y25231D02*
X27970Y25527D01*
X30455Y25231D02*
X28266Y25231D01*
X30650Y25425D02*
X30455Y25231D01*
X30650Y26010D02*
X30650Y25425D01*
X30734Y26095D02*
X30650Y26010D01*
X30767Y26095D02*
X30734Y26095D01*
X28057Y25842D02*
X27700Y25842D01*
X28495Y25404D02*
X28057Y25842D01*
X30400Y25404D02*
X28495Y25404D01*
X30400Y25750D02*
X30400Y25404D01*
X30400Y26335D02*
X30400Y25750D01*
X30868Y26804D02*
X30400Y26335D01*
X32817Y26804D02*
X30868Y26804D01*
X33140Y27127D02*
X32817Y26804D01*
X33140Y28128D02*
X33140Y27127D01*
X32959Y28309D02*
X33140Y28128D01*
X32959Y29671D02*
X32959Y28309D01*
X33207Y29920D02*
X32959Y29671D01*
X35605Y29920D02*
X33207Y29920D01*
X36820Y31134D02*
X35605Y29920D01*
X36820Y31920D02*
X36820Y31134D01*
X37400Y32500D02*
X36820Y31920D01*
X28032Y26095D02*
X27970Y26157D01*
X29400Y26095D02*
X28032Y26095D01*
X27700Y26157D02*
X27970Y26157D01*
X29400Y25750D02*
X29400Y26052D01*
X29400Y26052D02*
X29400Y26095D01*
X30120Y26815D02*
X29400Y26095D01*
X30120Y27987D02*
X30120Y26815D01*
X31029Y28897D02*
X30120Y27987D01*
X31393Y28897D02*
X31029Y28897D01*
X31900Y29403D02*
X31393Y28897D01*
X31900Y29615D02*
X31900Y29403D01*
X32365Y30080D02*
X31900Y29615D01*
X34761Y30080D02*
X32365Y30080D01*
X35979Y31298D02*
X34761Y30080D01*
X35979Y32079D02*
X35979Y31298D01*
X36400Y32500D02*
X35979Y32079D01*
X30837Y28095D02*
X30751Y28180D01*
X30900Y28095D02*
X30837Y28095D01*
X30900Y27750D02*
X30900Y28095D01*
X33979Y32079D02*
X34400Y32500D01*
X33979Y31283D02*
X33979Y32079D01*
X33500Y30803D02*
X33979Y31283D01*
X31570Y30803D02*
X33500Y30803D01*
X30907Y30141D02*
X31570Y30803D01*
X30442Y30141D02*
X30907Y30141D01*
X29960Y29659D02*
X30442Y30141D01*
X29960Y28803D02*
X29960Y29659D01*
X30129Y28803D02*
X29960Y28803D01*
X28233Y28157D02*
X27700Y28157D01*
X28879Y28803D02*
X28233Y28157D01*
X29960Y28803D02*
X28879Y28803D01*
X8650Y30100D02*
X8349Y30100D01*
X7400Y30875D02*
X7795Y30875D01*
X8349Y29670D02*
X8349Y30100D01*
X8150Y29470D02*
X8349Y29670D01*
X8150Y29000D02*
X8150Y29470D01*
X7795Y30654D02*
X8349Y30100D01*
X7795Y30875D02*
X7795Y30654D01*
X5142Y27337D02*
X5229Y27250D01*
X4650Y27337D02*
X5142Y27337D01*
X5525Y27250D02*
X5229Y27250D01*
X9525Y20500D02*
X9229Y20500D01*
X8150Y20500D02*
X9229Y20500D01*
X8150Y21100D02*
X8150Y20500D01*
X8150Y20500D02*
X8150Y20000D01*
X8275Y25404D02*
X8275Y24500D01*
X8150Y25529D02*
X8275Y25404D01*
X8150Y26000D02*
X8150Y25529D01*
X8150Y27100D02*
X8150Y26000D01*
X8564Y19250D02*
X9525Y19250D01*
X8100Y18785D02*
X8564Y19250D01*
X8100Y18414D02*
X8100Y18785D01*
X8035Y18349D02*
X8100Y18414D01*
X7203Y18349D02*
X8035Y18349D01*
X6023Y19529D02*
X7203Y18349D01*
X5813Y19529D02*
X6023Y19529D01*
X5006Y20337D02*
X5813Y19529D01*
X4650Y20337D02*
X5006Y20337D01*
X5066Y18662D02*
X5229Y18500D01*
X4650Y18662D02*
X5066Y18662D01*
X5525Y18500D02*
X5229Y18500D01*
X5066Y24337D02*
X5229Y24500D01*
X4650Y24337D02*
X5066Y24337D01*
X5525Y24500D02*
X5229Y24500D01*
X9525Y17750D02*
X9229Y17750D01*
X8300Y17850D02*
X8220Y17850D01*
X8150Y17850D02*
X8220Y17850D01*
X8300Y17850D02*
X8450Y17850D01*
X8503Y17796D02*
X8450Y17850D01*
X8597Y17796D02*
X8503Y17796D01*
X8644Y17750D02*
X9229Y17750D01*
X8597Y17796D02*
X8644Y17750D01*
X26420Y21750D02*
X26295Y21875D01*
X26900Y21750D02*
X26420Y21750D01*
X25900Y21875D02*
X26295Y21875D01*
X17900Y21875D02*
X18295Y21875D01*
X18900Y21875D02*
X18295Y21875D01*
X18900Y24000D02*
X18900Y21875D01*
X19400Y24500D02*
X18900Y24000D01*
X18900Y21875D02*
X18900Y21750D01*
X11400Y21750D02*
X10275Y21750D01*
X31337Y10062D02*
X29562Y10062D01*
X27900Y10725D02*
X27900Y10375D01*
X27950Y10775D02*
X27900Y10725D01*
X29350Y10775D02*
X27950Y10775D01*
X29450Y10675D02*
X29350Y10775D01*
X29450Y10175D02*
X29450Y10675D01*
X29562Y10062D02*
X29450Y10175D01*
X31875Y10600D02*
X31337Y10062D01*
X31337Y10062D02*
X31325Y10050D01*
X32200Y10600D02*
X31875Y10600D01*
X34575Y10600D02*
X32200Y10600D01*
X34675Y10500D02*
X34575Y10600D01*
X34675Y10000D02*
X34675Y10500D01*
X28900Y10175D02*
X29000Y10075D01*
X29900Y9450D02*
X29900Y8976D01*
X29275Y10075D02*
X29900Y9450D01*
X29000Y10075D02*
X29275Y10075D01*
X27445Y10662D02*
X27445Y10204D01*
X28900Y10175D02*
X28900Y10375D01*
X28800Y10075D02*
X28900Y10175D01*
X27575Y10075D02*
X28800Y10075D01*
X27445Y10204D02*
X27575Y10075D01*
X25900Y15804D02*
X24400Y15804D01*
X24400Y16150D02*
X24400Y15804D01*
X24900Y18250D02*
X24900Y17904D01*
X26400Y18250D02*
X26400Y17904D01*
X25900Y15844D02*
X25900Y15804D01*
X26400Y17904D02*
X24900Y17904D01*
X25900Y16150D02*
X25900Y15844D01*
X25900Y15804D02*
X25900Y15804D01*
X38400Y30000D02*
X38400Y29579D01*
X24228Y15804D02*
X24400Y15804D01*
X24155Y15731D02*
X24228Y15804D01*
X26620Y15875D02*
X26620Y17461D01*
X26549Y15804D02*
X26620Y15875D01*
X25900Y15804D02*
X26549Y15804D01*
X26620Y17684D02*
X26400Y17904D01*
X26620Y17461D02*
X26620Y17684D01*
X38452Y29579D02*
X38400Y29579D01*
X39178Y28854D02*
X38452Y29579D01*
X39178Y20040D02*
X39178Y28854D01*
X38638Y19500D02*
X39178Y20040D01*
X35191Y19500D02*
X38638Y19500D01*
X34762Y19071D02*
X35191Y19500D01*
X30693Y19071D02*
X34762Y19071D01*
X29083Y17461D02*
X30693Y19071D01*
X26620Y17461D02*
X29083Y17461D01*
X15800Y16750D02*
X15429Y16750D01*
X13782Y17250D02*
X14808Y16223D01*
X12000Y17250D02*
X13782Y17250D01*
X15335Y16750D02*
X14808Y16223D01*
X15429Y16750D02*
X15335Y16750D01*
X14808Y16223D02*
X14808Y14821D01*
X4966Y33337D02*
X5004Y33375D01*
X4650Y33337D02*
X4966Y33337D01*
X5400Y33375D02*
X5004Y33375D01*
X4966Y30837D02*
X5004Y30875D01*
X4650Y30587D02*
X4966Y30837D01*
X5400Y30875D02*
X5004Y30875D01*
X15333Y20837D02*
X15295Y20875D01*
X16150Y20837D02*
X15333Y20837D01*
X14900Y20875D02*
X15295Y20875D01*
X26504Y9604D02*
X26504Y9625D01*
X25900Y9000D02*
X26504Y9604D01*
X26900Y9625D02*
X26504Y9625D01*
X35300Y9575D02*
X34904Y9575D01*
X33900Y9000D02*
X33900Y8000D01*
X34329Y9000D02*
X34904Y9575D01*
X33900Y9000D02*
X34329Y9000D01*
X32900Y9000D02*
X32900Y8000D01*
X18504Y9604D02*
X18504Y9625D01*
X17900Y9000D02*
X18504Y9604D01*
X18900Y9625D02*
X18504Y9625D01*
X21900Y9250D02*
X22320Y9250D01*
X36970Y7429D02*
X37400Y7000D01*
X36008Y7429D02*
X36970Y7429D01*
X35985Y7407D02*
X36008Y7429D01*
X29898Y7407D02*
X35985Y7407D01*
X29386Y7919D02*
X29898Y7407D01*
X29386Y8122D02*
X29386Y7919D01*
X29065Y8443D02*
X29386Y8122D01*
X23126Y8443D02*
X29065Y8443D01*
X22320Y9250D02*
X23126Y8443D01*
X24815Y13956D02*
X24815Y14000D01*
X25197Y13574D02*
X24815Y13956D01*
X26451Y13574D02*
X25197Y13574D01*
X27377Y14500D02*
X26451Y13574D01*
X31900Y14500D02*
X27377Y14500D01*
X33400Y16000D02*
X31900Y14500D01*
X24400Y14000D02*
X24815Y14000D01*
X33400Y21625D02*
X33400Y21920D01*
X33400Y22379D02*
X33400Y21920D01*
X33400Y22837D02*
X33400Y22379D01*
X33400Y22837D02*
X33400Y23000D01*
X33400Y23000D02*
X33400Y23620D01*
X34192Y24412D02*
X34192Y24890D01*
X33400Y23620D02*
X34192Y24412D01*
X10950Y30800D02*
X10950Y31350D01*
X11150Y28200D02*
X11100Y28250D01*
X11100Y28250D02*
X11100Y28500D01*
X11100Y28500D02*
X10950Y28650D01*
X10950Y28650D02*
X10950Y30800D01*
X11075Y32875D02*
X10650Y32875D01*
X11250Y32700D02*
X11075Y32875D01*
X11250Y31650D02*
X11250Y32700D01*
X10950Y31350D02*
X11250Y31650D01*
X10650Y34250D02*
X10650Y32875D01*
X32400Y21920D02*
X32400Y22379D01*
X32400Y21625D02*
X32400Y21920D01*
X32400Y23000D02*
X32400Y22379D01*
X11450Y30050D02*
X11450Y33600D01*
X11850Y29650D02*
X11450Y30050D01*
X11850Y29050D02*
X11850Y29650D01*
X11950Y28950D02*
X11850Y29050D01*
X9650Y34250D02*
X9650Y32875D01*
X16900Y27350D02*
X16900Y32500D01*
X17900Y28050D02*
X17900Y32500D01*
X18900Y30000D02*
X18900Y29150D01*
X18900Y32500D02*
X18900Y30000D01*
X19650Y28400D02*
X19650Y27500D01*
X18900Y29150D02*
X19650Y28400D01*
X19900Y28250D02*
X19950Y28200D01*
X19900Y30050D02*
X19900Y32500D01*
X19900Y30050D02*
X19900Y28250D01*
X24292Y19188D02*
X27964Y19188D01*
X20480Y23000D02*
X24292Y19188D01*
X20400Y23000D02*
X20480Y23000D01*
X22400Y11625D02*
X21400Y11625D01*
X21400Y11625D02*
X20400Y11625D01*
X19923Y11706D02*
X20004Y11625D01*
X19727Y11706D02*
X19923Y11706D01*
X20400Y11625D02*
X20004Y11625D01*
X19619Y11814D02*
X19727Y11706D01*
X19109Y11814D02*
X19619Y11814D01*
X19109Y12250D02*
X19109Y11814D01*
X22400Y13625D02*
X21400Y13625D01*
X21400Y13625D02*
X20400Y13625D01*
X20400Y13625D02*
X20400Y13329D01*
X20400Y13329D02*
X20400Y13244D01*
X19815Y13814D02*
X20004Y13625D01*
X19109Y13814D02*
X19815Y13814D01*
X19109Y14250D02*
X19109Y13814D01*
X20400Y13625D02*
X20004Y13625D01*
X19109Y16250D02*
X19741Y16250D01*
X20071Y15920D02*
X19741Y16250D01*
X20400Y15920D02*
X20071Y15920D01*
X20400Y15625D02*
X20400Y15920D01*
X20400Y15625D02*
X20795Y15625D01*
X21400Y15625D02*
X20795Y15625D01*
X22400Y15625D02*
X22004Y15625D01*
X21400Y15466D02*
X21473Y15392D01*
X21400Y15625D02*
X21400Y15466D01*
X21772Y15392D02*
X22004Y15625D01*
X21473Y15392D02*
X21772Y15392D01*
X21473Y15392D02*
X21473Y15189D01*
X21400Y17375D02*
X21795Y17375D01*
X21400Y17375D02*
X21004Y17375D01*
X19109Y18250D02*
X19741Y18250D01*
X21004Y17375D02*
X20400Y17375D01*
X19741Y18141D02*
X19741Y18250D01*
X20212Y17670D02*
X19741Y18141D01*
X20400Y17670D02*
X20212Y17670D01*
X20400Y17375D02*
X20400Y17670D01*
X22400Y17375D02*
X21795Y17375D01*
X22992Y16486D02*
X22400Y17079D01*
X22992Y15190D02*
X22992Y16486D01*
X22400Y17375D02*
X22400Y17079D01*
X35900Y26500D02*
X35900Y26920D01*
X34076Y26920D02*
X35900Y26920D01*
X33352Y26196D02*
X34076Y26920D01*
X32347Y26196D02*
X33352Y26196D01*
X32179Y26028D02*
X32347Y26196D01*
X32179Y25350D02*
X32179Y26028D01*
X32203Y25326D02*
X32179Y25350D01*
X32203Y25124D02*
X32203Y25326D01*
X32009Y24929D02*
X32203Y25124D01*
X30686Y24929D02*
X32009Y24929D01*
X35900Y25500D02*
X35900Y25920D01*
X36064Y25920D02*
X35900Y25920D01*
X36517Y26372D02*
X36064Y25920D01*
X36517Y26411D02*
X36517Y26372D01*
X37026Y26920D02*
X36517Y26411D01*
X37578Y26920D02*
X37026Y26920D01*
X37900Y26599D02*
X37578Y26920D01*
X37900Y26406D02*
X37900Y26599D01*
X38306Y26000D02*
X37900Y26406D01*
X38689Y26000D02*
X38306Y26000D01*
X39018Y25671D02*
X38689Y26000D01*
X39018Y20891D02*
X39018Y25671D01*
X38627Y20500D02*
X39018Y20891D01*
X34980Y20500D02*
X38627Y20500D01*
X34112Y19632D02*
X34980Y20500D01*
X30030Y19632D02*
X34112Y19632D01*
X29366Y20295D02*
X30030Y19632D01*
X25835Y20295D02*
X29366Y20295D01*
X23400Y22731D02*
X25835Y20295D01*
X23400Y23000D02*
X23400Y22731D01*
X31400Y23000D02*
X31400Y23620D01*
X34900Y26500D02*
X34900Y26079D01*
X34670Y26079D02*
X34900Y26079D01*
X34082Y25491D02*
X34670Y26079D01*
X34082Y25394D02*
X34082Y25491D01*
X33768Y25080D02*
X34082Y25394D01*
X33381Y25080D02*
X33768Y25080D01*
X32900Y24599D02*
X33381Y25080D01*
X32900Y24393D02*
X32900Y24599D01*
X32302Y23795D02*
X32900Y24393D01*
X31575Y23795D02*
X32302Y23795D01*
X31400Y23620D02*
X31575Y23795D01*
X30400Y23000D02*
X30400Y22379D01*
X34900Y25500D02*
X34346Y25500D01*
X34346Y25432D02*
X34346Y25500D01*
X33942Y25027D02*
X34346Y25432D01*
X33942Y24431D02*
X33942Y25027D01*
X33145Y23635D02*
X33942Y24431D01*
X32227Y23635D02*
X33145Y23635D01*
X31820Y23228D02*
X32227Y23635D01*
X31820Y22611D02*
X31820Y23228D01*
X31588Y22379D02*
X31820Y22611D01*
X30400Y22379D02*
X31588Y22379D01*
X38400Y22000D02*
X38400Y21579D01*
X32592Y19801D02*
X32516Y19877D01*
X34055Y19801D02*
X32592Y19801D01*
X35833Y21579D02*
X34055Y19801D01*
X38400Y21579D02*
X35833Y21579D01*
X36259Y22579D02*
X38400Y22579D01*
X34009Y20329D02*
X36259Y22579D01*
X30548Y20329D02*
X34009Y20329D01*
X30344Y20533D02*
X30548Y20329D01*
X30344Y20925D02*
X30344Y20533D01*
X28890Y22379D02*
X30344Y20925D01*
X28400Y22379D02*
X28890Y22379D01*
X28400Y23000D02*
X28400Y22379D01*
X38400Y23000D02*
X38400Y22579D01*
G54D50*
X13150Y9250D02*
X13150Y9050D01*
X10925Y4454D02*
X10925Y3310D01*
X10925Y3310D02*
X12526Y1710D01*
X12526Y1710D02*
X12900Y1710D01*
X12900Y1710D02*
X12900Y1250D01*
X11400Y4929D02*
X10925Y4454D01*
X11400Y8200D02*
X11400Y4929D01*
X11850Y8650D02*
X11400Y8200D01*
X12750Y8650D02*
X11850Y8650D01*
X13150Y9050D02*
X12750Y8650D01*
X8650Y14450D02*
X8650Y15239D01*
X13632Y10000D02*
X13632Y12020D01*
X13632Y12020D02*
X13184Y12468D01*
X13184Y12468D02*
X10687Y12468D01*
X10687Y12468D02*
X8650Y14450D01*
X8662Y15251D02*
X8662Y17053D01*
X8650Y15239D02*
X8662Y15251D01*
X1650Y30750D02*
X1600Y30750D01*
X1150Y32500D02*
X1650Y33000D01*
X1150Y31200D02*
X1150Y32500D01*
X1600Y30750D02*
X1150Y31200D01*
X15150Y6624D02*
X15150Y7350D01*
X14850Y10000D02*
X13632Y10000D01*
X15050Y9800D02*
X14850Y10000D01*
X15050Y9050D02*
X15050Y9800D01*
X15250Y8850D02*
X15050Y9050D01*
X15150Y7350D02*
X15400Y7600D01*
X2187Y32712D02*
X3650Y32862D01*
X3650Y32862D02*
X5312Y32712D01*
X5312Y32712D02*
X5400Y32625D01*
X1650Y33000D02*
X1900Y33000D01*
X1900Y33000D02*
X2187Y32712D01*
X5312Y30212D02*
X5400Y30125D01*
X3650Y29812D02*
X5312Y30212D01*
X5400Y30125D02*
X7400Y30125D01*
X10275Y17750D02*
X9939Y17750D01*
X8662Y17053D02*
X9505Y17053D01*
X9505Y17053D02*
X9939Y17488D01*
X9939Y17488D02*
X9939Y17750D01*
X6275Y24500D02*
X7525Y24500D01*
X10275Y17750D02*
X10275Y18185D01*
X10275Y20500D02*
X10275Y19250D01*
X13150Y9250D02*
X13610Y9250D01*
X10275Y19250D02*
X10275Y18814D01*
X1650Y30750D02*
X1789Y30750D01*
X2687Y30212D02*
X3650Y29812D01*
X2150Y30750D02*
X2687Y30212D01*
X1789Y30750D02*
X2150Y30750D01*
X6275Y27250D02*
X5939Y27250D01*
X1042Y27065D02*
X1007Y26050D01*
X1042Y30003D02*
X1042Y27065D01*
X1789Y30750D02*
X1042Y30003D01*
X5939Y26956D02*
X5939Y27250D01*
X5483Y26050D02*
X5939Y26956D01*
X1007Y26050D02*
X5483Y26050D01*
X6275Y24500D02*
X5939Y24500D01*
X8216Y17053D02*
X8662Y17053D01*
X6275Y18500D02*
X6610Y18500D01*
X6610Y18500D02*
X6770Y18500D01*
X6770Y18500D02*
X8216Y17053D01*
X10275Y18185D02*
X10275Y18814D01*
X3714Y24511D02*
X1043Y24511D01*
X4285Y23940D02*
X3714Y24511D01*
X5673Y23940D02*
X4285Y23940D01*
X5939Y24206D02*
X5673Y23940D01*
X5939Y24500D02*
X5939Y24206D01*
X1025Y26275D02*
X1007Y26050D01*
X1042Y24512D02*
X1025Y26275D01*
X1043Y24511D02*
X1042Y24512D01*
X5939Y18793D02*
X5939Y18500D01*
X4963Y19769D02*
X5939Y18793D01*
X4495Y19769D02*
X4963Y19769D01*
X3456Y20808D02*
X4495Y19769D01*
X1448Y20808D02*
X3456Y20808D01*
X1006Y21250D02*
X1448Y20808D01*
X1006Y24475D02*
X1006Y21250D01*
X1043Y24511D02*
X1006Y24475D01*
X6275Y18500D02*
X5939Y18500D01*
X13632Y9272D02*
X13632Y10000D01*
X13610Y9250D02*
X13632Y9272D01*
G54D46*
X30900Y25750D02*
X30900Y25404D01*
X31079Y25225D02*
X31958Y25225D01*
X30900Y25404D02*
X31079Y25225D01*
X33746Y25404D02*
X32400Y25404D01*
X33837Y25495D02*
X33746Y25404D01*
X32400Y25750D02*
X32400Y25404D01*
X12320Y8420D02*
X11900Y8000D01*
X20075Y8420D02*
X12320Y8420D01*
X20320Y8175D02*
X20075Y8420D01*
X20320Y7981D02*
X20320Y8175D01*
X20915Y7385D02*
X20320Y7981D01*
X28379Y7385D02*
X20915Y7385D01*
X12000Y16750D02*
X12370Y16750D01*
X34059Y11608D02*
X34145Y11694D01*
X23880Y11608D02*
X34059Y11608D01*
X23281Y11008D02*
X23880Y11608D01*
X19570Y11008D02*
X23281Y11008D01*
X19421Y11157D02*
X19570Y11008D01*
X16314Y11157D02*
X19421Y11157D01*
X13788Y13684D02*
X16314Y11157D01*
X13788Y15331D02*
X13788Y13684D01*
X12370Y16750D02*
X13788Y15331D01*
X13923Y6976D02*
X13923Y6676D01*
X12900Y8000D02*
X13923Y6976D01*
X17676Y6976D02*
X28761Y6976D01*
X16800Y6100D02*
X17676Y6976D01*
X14500Y6100D02*
X16800Y6100D01*
X13923Y6676D02*
X14500Y6100D01*
X30400Y27750D02*
X30400Y27404D01*
X30400Y27316D02*
X30538Y27177D01*
X30400Y27404D02*
X30400Y27316D01*
X29900Y25750D02*
X29900Y26095D01*
X32001Y26965D02*
X32092Y27056D01*
X30770Y26965D02*
X32001Y26965D01*
X29900Y26095D02*
X30770Y26965D01*
X20763Y7136D02*
X19900Y8000D01*
X28575Y7136D02*
X20763Y7136D01*
X28659Y7221D02*
X28575Y7136D01*
X29281Y7221D02*
X28659Y7221D01*
X30069Y6432D02*
X29281Y7221D01*
X12000Y15750D02*
X12370Y15750D01*
X12370Y15087D02*
X12370Y15750D01*
X12312Y15029D02*
X12370Y15087D01*
X11734Y15029D02*
X12312Y15029D01*
X11629Y14924D02*
X11734Y15029D01*
X11629Y14600D02*
X11629Y14924D01*
X11700Y14529D02*
X11629Y14600D01*
X12265Y14529D02*
X11700Y14529D01*
X12370Y14424D02*
X12265Y14529D01*
X12370Y14100D02*
X12370Y14424D01*
X12299Y14029D02*
X12370Y14100D01*
X11734Y14029D02*
X12299Y14029D01*
X11629Y13924D02*
X11734Y14029D01*
X11629Y13579D02*
X11629Y13924D01*
X11679Y13529D02*
X11629Y13579D01*
X13135Y13529D02*
X11679Y13529D01*
X15988Y10677D02*
X13135Y13529D01*
X19222Y10677D02*
X15988Y10677D01*
X19371Y10528D02*
X19222Y10677D01*
X23480Y10528D02*
X19371Y10528D01*
X24079Y11127D02*
X23480Y10528D01*
X35272Y11127D02*
X24079Y11127D01*
X36400Y10000D02*
X35272Y11127D01*
X20400Y2750D02*
X20400Y1000D01*
X32717Y27404D02*
X32400Y27404D01*
X32894Y27228D02*
X32717Y27404D01*
X32400Y27750D02*
X32400Y27404D01*
X31400Y27750D02*
X31400Y27404D01*
X31699Y27404D02*
X31400Y27404D01*
X31831Y27273D02*
X31699Y27404D01*
X28117Y8000D02*
X27900Y8000D01*
X28585Y7532D02*
X28117Y8000D01*
X29514Y7532D02*
X28585Y7532D01*
X30153Y6893D02*
X29514Y7532D01*
X12000Y14750D02*
X12370Y14750D01*
X16122Y10997D02*
X12370Y14750D01*
X19354Y10997D02*
X16122Y10997D01*
X19503Y10848D02*
X19354Y10997D01*
X23347Y10848D02*
X19503Y10848D01*
X23946Y11447D02*
X23347Y10848D01*
X35556Y11447D02*
X23946Y11447D01*
X35582Y11474D02*
X35556Y11447D01*
G54D10*
G36*
X7850Y2336D02*
X7588Y2444D01*
X7212Y2445D01*
X6865Y2301D01*
X6799Y2235D01*
X6797Y2372D01*
X6670Y2678D01*
X6538Y2748D01*
X6468Y2677D01*
X6468Y2818D01*
X6398Y2950D01*
X6065Y3082D01*
X5725Y3077D01*
X5725Y4163D01*
X5599Y4466D01*
X5367Y4698D01*
X5064Y4824D01*
X4736Y4825D01*
X4433Y4699D01*
X4201Y4467D01*
X4075Y4164D01*
X4074Y3836D01*
X4200Y3533D01*
X4432Y3301D01*
X4735Y3175D01*
X5063Y3174D01*
X5366Y3300D01*
X5598Y3532D01*
X5724Y3835D01*
X5725Y4163D01*
X5725Y3077D01*
X5707Y3077D01*
X5401Y2950D01*
X5331Y2818D01*
X5900Y2250D01*
X6468Y2818D01*
X6468Y2677D01*
X5970Y2180D01*
X5976Y2174D01*
X5905Y2103D01*
X5900Y2109D01*
X5829Y2038D01*
X5829Y2180D01*
X5261Y2748D01*
X5129Y2678D01*
X4997Y2345D01*
X5002Y1987D01*
X5129Y1681D01*
X5261Y1611D01*
X5829Y2180D01*
X5829Y2038D01*
X5331Y1541D01*
X5401Y1409D01*
X5734Y1277D01*
X6092Y1282D01*
X6398Y1409D01*
X6455Y1516D01*
X6454Y1312D01*
X6598Y965D01*
X6763Y800D01*
X4168Y800D01*
X2743Y2021D01*
X2743Y3348D01*
X2737Y3683D01*
X2621Y3962D01*
X2496Y4025D01*
X2425Y3954D01*
X2425Y4096D01*
X2362Y4221D01*
X2051Y4343D01*
X1716Y4337D01*
X1437Y4221D01*
X1374Y4096D01*
X1900Y3570D01*
X2425Y4096D01*
X2425Y3954D01*
X1970Y3500D01*
X2496Y2974D01*
X2621Y3037D01*
X2743Y3348D01*
X2743Y2021D01*
X2690Y2066D01*
X2690Y2130D01*
X2660Y2203D01*
X2603Y2259D01*
X2530Y2290D01*
X2450Y2290D01*
X2429Y2290D01*
X2425Y2294D01*
X2425Y2903D01*
X1900Y3429D01*
X1374Y2903D01*
X1437Y2778D01*
X1748Y2656D01*
X2083Y2662D01*
X2362Y2778D01*
X2425Y2903D01*
X2425Y2294D01*
X2418Y2300D01*
X1200Y2300D01*
X1200Y3026D01*
X1303Y2974D01*
X1829Y3500D01*
X1303Y4025D01*
X1200Y3973D01*
X1200Y4738D01*
X1269Y4709D01*
X1349Y4709D01*
X2530Y4709D01*
X2603Y4739D01*
X2659Y4796D01*
X2690Y4869D01*
X2690Y4949D01*
X2690Y4950D01*
X7850Y4950D01*
X7850Y2336D01*
X7850Y2336D01*
G37*
G54D52*
X7850Y2336D02*
X7588Y2444D01*
X7212Y2445D01*
X6865Y2301D01*
X6799Y2235D01*
X6797Y2372D01*
X6670Y2678D01*
X6538Y2748D01*
X6468Y2677D01*
X6468Y2818D01*
X6398Y2950D01*
X6065Y3082D01*
X5725Y3077D01*
X5725Y4163D01*
X5599Y4466D01*
X5367Y4698D01*
X5064Y4824D01*
X4736Y4825D01*
X4433Y4699D01*
X4201Y4467D01*
X4075Y4164D01*
X4074Y3836D01*
X4200Y3533D01*
X4432Y3301D01*
X4735Y3175D01*
X5063Y3174D01*
X5366Y3300D01*
X5598Y3532D01*
X5724Y3835D01*
X5725Y4163D01*
X5725Y3077D01*
X5707Y3077D01*
X5401Y2950D01*
X5331Y2818D01*
X5900Y2250D01*
X6468Y2818D01*
X6468Y2677D01*
X5970Y2180D01*
X5976Y2174D01*
X5905Y2103D01*
X5900Y2109D01*
X5829Y2038D01*
X5829Y2180D01*
X5261Y2748D01*
X5129Y2678D01*
X4997Y2345D01*
X5002Y1987D01*
X5129Y1681D01*
X5261Y1611D01*
X5829Y2180D01*
X5829Y2038D01*
X5331Y1541D01*
X5401Y1409D01*
X5734Y1277D01*
X6092Y1282D01*
X6398Y1409D01*
X6455Y1516D01*
X6454Y1312D01*
X6598Y965D01*
X6763Y800D01*
X4168Y800D01*
X2743Y2021D01*
X2743Y3348D01*
X2737Y3683D01*
X2621Y3962D01*
X2496Y4025D01*
X2425Y3954D01*
X2425Y4096D01*
X2362Y4221D01*
X2051Y4343D01*
X1716Y4337D01*
X1437Y4221D01*
X1374Y4096D01*
X1900Y3570D01*
X2425Y4096D01*
X2425Y3954D01*
X1970Y3500D01*
X2496Y2974D01*
X2621Y3037D01*
X2743Y3348D01*
X2743Y2021D01*
X2690Y2066D01*
X2690Y2130D01*
X2660Y2203D01*
X2603Y2259D01*
X2530Y2290D01*
X2450Y2290D01*
X2429Y2290D01*
X2425Y2294D01*
X2425Y2903D01*
X1900Y3429D01*
X1374Y2903D01*
X1437Y2778D01*
X1748Y2656D01*
X2083Y2662D01*
X2362Y2778D01*
X2425Y2903D01*
X2425Y2294D01*
X2418Y2300D01*
X1200Y2300D01*
X1200Y3026D01*
X1303Y2974D01*
X1829Y3500D01*
X1303Y4025D01*
X1200Y3973D01*
X1200Y4738D01*
X1269Y4709D01*
X1349Y4709D01*
X2530Y4709D01*
X2603Y4739D01*
X2659Y4796D01*
X2690Y4869D01*
X2690Y4949D01*
X2690Y4950D01*
X7850Y4950D01*
X7850Y2336D01*
G54D10*
G36*
X7850Y5300D02*
X2743Y5300D01*
X2743Y7348D01*
X2737Y7683D01*
X2621Y7962D01*
X2496Y8025D01*
X1970Y7500D01*
X2496Y6974D01*
X2621Y7037D01*
X2743Y7348D01*
X2743Y5300D01*
X2690Y5300D01*
X2690Y6130D01*
X2660Y6203D01*
X2603Y6259D01*
X2530Y6290D01*
X2450Y6290D01*
X2425Y6290D01*
X2425Y6903D01*
X1900Y7429D01*
X1374Y6903D01*
X1437Y6778D01*
X1748Y6656D01*
X2083Y6662D01*
X2362Y6778D01*
X2425Y6903D01*
X2425Y6290D01*
X1269Y6290D01*
X1200Y6261D01*
X1200Y7026D01*
X1303Y6974D01*
X1829Y7500D01*
X1303Y8025D01*
X1200Y7973D01*
X1200Y8168D01*
X1411Y8168D01*
X1374Y8096D01*
X1900Y7570D01*
X2425Y8096D01*
X2388Y8168D01*
X6633Y8168D01*
X7357Y7445D01*
X7212Y7445D01*
X6865Y7301D01*
X6799Y7235D01*
X6797Y7372D01*
X6670Y7678D01*
X6538Y7748D01*
X6468Y7677D01*
X6468Y7818D01*
X6398Y7950D01*
X6065Y8082D01*
X5707Y8077D01*
X5401Y7950D01*
X5331Y7818D01*
X5900Y7250D01*
X6468Y7818D01*
X6468Y7677D01*
X5970Y7180D01*
X5976Y7174D01*
X5905Y7103D01*
X5900Y7109D01*
X5829Y7038D01*
X5829Y7180D01*
X5261Y7748D01*
X5129Y7678D01*
X4997Y7345D01*
X5002Y6987D01*
X5129Y6681D01*
X5261Y6611D01*
X5829Y7180D01*
X5829Y7038D01*
X5331Y6541D01*
X5401Y6409D01*
X5734Y6277D01*
X6092Y6282D01*
X6398Y6409D01*
X6455Y6516D01*
X6454Y6312D01*
X6598Y5965D01*
X6864Y5699D01*
X7211Y5555D01*
X7587Y5554D01*
X7850Y5663D01*
X7850Y5300D01*
X7850Y5300D01*
G37*
G54D52*
X7850Y5300D02*
X2743Y5300D01*
X2743Y7348D01*
X2737Y7683D01*
X2621Y7962D01*
X2496Y8025D01*
X1970Y7500D01*
X2496Y6974D01*
X2621Y7037D01*
X2743Y7348D01*
X2743Y5300D01*
X2690Y5300D01*
X2690Y6130D01*
X2660Y6203D01*
X2603Y6259D01*
X2530Y6290D01*
X2450Y6290D01*
X2425Y6290D01*
X2425Y6903D01*
X1900Y7429D01*
X1374Y6903D01*
X1437Y6778D01*
X1748Y6656D01*
X2083Y6662D01*
X2362Y6778D01*
X2425Y6903D01*
X2425Y6290D01*
X1269Y6290D01*
X1200Y6261D01*
X1200Y7026D01*
X1303Y6974D01*
X1829Y7500D01*
X1303Y8025D01*
X1200Y7973D01*
X1200Y8168D01*
X1411Y8168D01*
X1374Y8096D01*
X1900Y7570D01*
X2425Y8096D01*
X2388Y8168D01*
X6633Y8168D01*
X7357Y7445D01*
X7212Y7445D01*
X6865Y7301D01*
X6799Y7235D01*
X6797Y7372D01*
X6670Y7678D01*
X6538Y7748D01*
X6468Y7677D01*
X6468Y7818D01*
X6398Y7950D01*
X6065Y8082D01*
X5707Y8077D01*
X5401Y7950D01*
X5331Y7818D01*
X5900Y7250D01*
X6468Y7818D01*
X6468Y7677D01*
X5970Y7180D01*
X5976Y7174D01*
X5905Y7103D01*
X5900Y7109D01*
X5829Y7038D01*
X5829Y7180D01*
X5261Y7748D01*
X5129Y7678D01*
X4997Y7345D01*
X5002Y6987D01*
X5129Y6681D01*
X5261Y6611D01*
X5829Y7180D01*
X5829Y7038D01*
X5331Y6541D01*
X5401Y6409D01*
X5734Y6277D01*
X6092Y6282D01*
X6398Y6409D01*
X6455Y6516D01*
X6454Y6312D01*
X6598Y5965D01*
X6864Y5699D01*
X7211Y5555D01*
X7587Y5554D01*
X7850Y5663D01*
X7850Y5300D01*
G54D10*
G36*
X7600Y9300D02*
X5288Y9300D01*
X5288Y9611D01*
X4720Y10179D01*
X4649Y10108D01*
X4649Y10250D01*
X4081Y10818D01*
X3949Y10748D01*
X3817Y10415D01*
X3822Y10057D01*
X3949Y9751D01*
X4081Y9681D01*
X4649Y10250D01*
X4649Y10108D01*
X4151Y9611D01*
X4221Y9479D01*
X4554Y9347D01*
X4912Y9352D01*
X5218Y9479D01*
X5288Y9611D01*
X5288Y9300D01*
X2743Y9300D01*
X2743Y12348D01*
X2737Y12683D01*
X2621Y12962D01*
X2496Y13025D01*
X1970Y12500D01*
X2496Y11974D01*
X2621Y12037D01*
X2743Y12348D01*
X2743Y9300D01*
X1200Y9300D01*
X1200Y9738D01*
X1269Y9709D01*
X1349Y9709D01*
X2530Y9709D01*
X2603Y9739D01*
X2659Y9796D01*
X2690Y9869D01*
X2690Y9949D01*
X2690Y11130D01*
X2660Y11203D01*
X2603Y11259D01*
X2530Y11290D01*
X2450Y11290D01*
X2425Y11290D01*
X2425Y11903D01*
X1900Y12429D01*
X1374Y11903D01*
X1437Y11778D01*
X1748Y11656D01*
X2083Y11662D01*
X2362Y11778D01*
X2425Y11903D01*
X2425Y11290D01*
X1269Y11290D01*
X1200Y11261D01*
X1200Y12026D01*
X1303Y11974D01*
X1829Y12500D01*
X1303Y13025D01*
X1200Y12973D01*
X1200Y13200D01*
X1426Y13200D01*
X1374Y13096D01*
X1900Y12570D01*
X2425Y13096D01*
X2373Y13200D01*
X4133Y13200D01*
X4977Y12597D01*
X4865Y12551D01*
X4599Y12285D01*
X4455Y11938D01*
X4454Y11562D01*
X4598Y11215D01*
X4664Y11149D01*
X4527Y11147D01*
X4221Y11020D01*
X4151Y10888D01*
X4720Y10320D01*
X4725Y10326D01*
X4796Y10255D01*
X4790Y10250D01*
X5358Y9681D01*
X5490Y9751D01*
X5622Y10084D01*
X5617Y10442D01*
X5490Y10748D01*
X5383Y10805D01*
X5587Y10804D01*
X5934Y10948D01*
X6200Y11214D01*
X6344Y11561D01*
X6344Y11620D01*
X7600Y10724D01*
X7600Y9300D01*
X7600Y9300D01*
G37*
G54D52*
X7600Y9300D02*
X5288Y9300D01*
X5288Y9611D01*
X4720Y10179D01*
X4649Y10108D01*
X4649Y10250D01*
X4081Y10818D01*
X3949Y10748D01*
X3817Y10415D01*
X3822Y10057D01*
X3949Y9751D01*
X4081Y9681D01*
X4649Y10250D01*
X4649Y10108D01*
X4151Y9611D01*
X4221Y9479D01*
X4554Y9347D01*
X4912Y9352D01*
X5218Y9479D01*
X5288Y9611D01*
X5288Y9300D01*
X2743Y9300D01*
X2743Y12348D01*
X2737Y12683D01*
X2621Y12962D01*
X2496Y13025D01*
X1970Y12500D01*
X2496Y11974D01*
X2621Y12037D01*
X2743Y12348D01*
X2743Y9300D01*
X1200Y9300D01*
X1200Y9738D01*
X1269Y9709D01*
X1349Y9709D01*
X2530Y9709D01*
X2603Y9739D01*
X2659Y9796D01*
X2690Y9869D01*
X2690Y9949D01*
X2690Y11130D01*
X2660Y11203D01*
X2603Y11259D01*
X2530Y11290D01*
X2450Y11290D01*
X2425Y11290D01*
X2425Y11903D01*
X1900Y12429D01*
X1374Y11903D01*
X1437Y11778D01*
X1748Y11656D01*
X2083Y11662D01*
X2362Y11778D01*
X2425Y11903D01*
X2425Y11290D01*
X1269Y11290D01*
X1200Y11261D01*
X1200Y12026D01*
X1303Y11974D01*
X1829Y12500D01*
X1303Y13025D01*
X1200Y12973D01*
X1200Y13200D01*
X1426Y13200D01*
X1374Y13096D01*
X1900Y12570D01*
X2425Y13096D01*
X2373Y13200D01*
X4133Y13200D01*
X4977Y12597D01*
X4865Y12551D01*
X4599Y12285D01*
X4455Y11938D01*
X4454Y11562D01*
X4598Y11215D01*
X4664Y11149D01*
X4527Y11147D01*
X4221Y11020D01*
X4151Y10888D01*
X4720Y10320D01*
X4725Y10326D01*
X4796Y10255D01*
X4790Y10250D01*
X5358Y9681D01*
X5490Y9751D01*
X5622Y10084D01*
X5617Y10442D01*
X5490Y10748D01*
X5383Y10805D01*
X5587Y10804D01*
X5934Y10948D01*
X6200Y11214D01*
X6344Y11561D01*
X6344Y11620D01*
X7600Y10724D01*
X7600Y9300D01*
G54D10*
G36*
X7600Y11345D02*
X6982Y11772D01*
X6982Y13084D01*
X6977Y13442D01*
X6850Y13748D01*
X6718Y13818D01*
X6648Y13747D01*
X6648Y13888D01*
X6578Y14020D01*
X6245Y14152D01*
X5887Y14147D01*
X5581Y14020D01*
X5511Y13888D01*
X6080Y13320D01*
X6648Y13888D01*
X6648Y13747D01*
X6150Y13250D01*
X6718Y12681D01*
X6850Y12751D01*
X6982Y13084D01*
X6982Y11772D01*
X6147Y12350D01*
X6272Y12352D01*
X6578Y12479D01*
X6648Y12611D01*
X6080Y13179D01*
X6074Y13173D01*
X6003Y13244D01*
X6009Y13250D01*
X5441Y13818D01*
X5309Y13748D01*
X5177Y13415D01*
X5182Y13057D01*
X5205Y13003D01*
X4978Y13160D01*
X4978Y15358D01*
X4978Y15600D01*
X4916Y15663D01*
X4450Y15663D01*
X4450Y15220D01*
X4512Y15158D01*
X4678Y15157D01*
X4778Y15158D01*
X4870Y15196D01*
X4940Y15266D01*
X4978Y15358D01*
X4978Y13160D01*
X4415Y13550D01*
X4350Y13550D01*
X4350Y15220D01*
X4350Y15663D01*
X3884Y15663D01*
X3821Y15600D01*
X3821Y15358D01*
X3859Y15266D01*
X3929Y15196D01*
X4021Y15158D01*
X4121Y15157D01*
X4287Y15158D01*
X4350Y15220D01*
X4350Y13550D01*
X2740Y13550D01*
X2740Y14859D01*
X2740Y15387D01*
X2678Y15450D01*
X1950Y15450D01*
X1950Y14722D01*
X2012Y14659D01*
X2440Y14659D01*
X2540Y14659D01*
X2632Y14697D01*
X2702Y14768D01*
X2740Y14859D01*
X2740Y13550D01*
X1200Y13550D01*
X1200Y14684D01*
X1259Y14659D01*
X1359Y14659D01*
X1787Y14659D01*
X1850Y14722D01*
X1850Y15450D01*
X1842Y15450D01*
X1842Y15550D01*
X1850Y15550D01*
X1850Y15557D01*
X1950Y15557D01*
X1950Y15550D01*
X2678Y15550D01*
X2740Y15612D01*
X2740Y16140D01*
X2715Y16200D01*
X3899Y16200D01*
X3859Y16159D01*
X3821Y16067D01*
X3821Y15825D01*
X3884Y15763D01*
X4350Y15763D01*
X4350Y15770D01*
X4450Y15770D01*
X4450Y15763D01*
X4916Y15763D01*
X4978Y15825D01*
X4978Y16067D01*
X4940Y16159D01*
X4900Y16200D01*
X5678Y16200D01*
X5683Y16188D01*
X5838Y16034D01*
X6040Y15950D01*
X6258Y15949D01*
X6461Y16033D01*
X6601Y16173D01*
X6690Y16040D01*
X6901Y15899D01*
X7150Y15850D01*
X7398Y15899D01*
X7600Y16033D01*
X7600Y11345D01*
X7600Y11345D01*
G37*
G54D52*
X7600Y11345D02*
X6982Y11772D01*
X6982Y13084D01*
X6977Y13442D01*
X6850Y13748D01*
X6718Y13818D01*
X6648Y13747D01*
X6648Y13888D01*
X6578Y14020D01*
X6245Y14152D01*
X5887Y14147D01*
X5581Y14020D01*
X5511Y13888D01*
X6080Y13320D01*
X6648Y13888D01*
X6648Y13747D01*
X6150Y13250D01*
X6718Y12681D01*
X6850Y12751D01*
X6982Y13084D01*
X6982Y11772D01*
X6147Y12350D01*
X6272Y12352D01*
X6578Y12479D01*
X6648Y12611D01*
X6080Y13179D01*
X6074Y13173D01*
X6003Y13244D01*
X6009Y13250D01*
X5441Y13818D01*
X5309Y13748D01*
X5177Y13415D01*
X5182Y13057D01*
X5205Y13003D01*
X4978Y13160D01*
X4978Y15358D01*
X4978Y15600D01*
X4916Y15663D01*
X4450Y15663D01*
X4450Y15220D01*
X4512Y15158D01*
X4678Y15157D01*
X4778Y15158D01*
X4870Y15196D01*
X4940Y15266D01*
X4978Y15358D01*
X4978Y13160D01*
X4415Y13550D01*
X4350Y13550D01*
X4350Y15220D01*
X4350Y15663D01*
X3884Y15663D01*
X3821Y15600D01*
X3821Y15358D01*
X3859Y15266D01*
X3929Y15196D01*
X4021Y15158D01*
X4121Y15157D01*
X4287Y15158D01*
X4350Y15220D01*
X4350Y13550D01*
X2740Y13550D01*
X2740Y14859D01*
X2740Y15387D01*
X2678Y15450D01*
X1950Y15450D01*
X1950Y14722D01*
X2012Y14659D01*
X2440Y14659D01*
X2540Y14659D01*
X2632Y14697D01*
X2702Y14768D01*
X2740Y14859D01*
X2740Y13550D01*
X1200Y13550D01*
X1200Y14684D01*
X1259Y14659D01*
X1359Y14659D01*
X1787Y14659D01*
X1850Y14722D01*
X1850Y15450D01*
X1842Y15450D01*
X1842Y15550D01*
X1850Y15550D01*
X1850Y15557D01*
X1950Y15557D01*
X1950Y15550D01*
X2678Y15550D01*
X2740Y15612D01*
X2740Y16140D01*
X2715Y16200D01*
X3899Y16200D01*
X3859Y16159D01*
X3821Y16067D01*
X3821Y15825D01*
X3884Y15763D01*
X4350Y15763D01*
X4350Y15770D01*
X4450Y15770D01*
X4450Y15763D01*
X4916Y15763D01*
X4978Y15825D01*
X4978Y16067D01*
X4940Y16159D01*
X4900Y16200D01*
X5678Y16200D01*
X5683Y16188D01*
X5838Y16034D01*
X6040Y15950D01*
X6258Y15949D01*
X6461Y16033D01*
X6601Y16173D01*
X6690Y16040D01*
X6901Y15899D01*
X7150Y15850D01*
X7398Y15899D01*
X7600Y16033D01*
X7600Y11345D01*
G54D10*
G36*
X7600Y16850D02*
X7599Y16842D01*
X7572Y16851D01*
X7501Y16780D01*
X7501Y16922D01*
X7467Y17022D01*
X7243Y17104D01*
X7005Y17094D01*
X6832Y17022D01*
X6798Y16922D01*
X7150Y16570D01*
X7501Y16922D01*
X7501Y16780D01*
X7270Y16550D01*
X7029Y16550D01*
X6727Y16851D01*
X6627Y16817D01*
X6620Y16800D01*
X6616Y16811D01*
X6461Y16965D01*
X6259Y17049D01*
X6041Y17050D01*
X5838Y16966D01*
X5684Y16811D01*
X5600Y16609D01*
X5600Y16550D01*
X5136Y16550D01*
X5136Y17551D01*
X5136Y17724D01*
X5073Y17787D01*
X4874Y17787D01*
X4870Y17790D01*
X4778Y17828D01*
X4678Y17829D01*
X4512Y17829D01*
X4470Y17787D01*
X4329Y17787D01*
X4287Y17829D01*
X4121Y17829D01*
X4021Y17828D01*
X3929Y17790D01*
X3859Y17720D01*
X3821Y17628D01*
X3821Y17386D01*
X3884Y17324D01*
X4350Y17324D01*
X4350Y17356D01*
X4364Y17351D01*
X4450Y17350D01*
X4450Y17324D01*
X4916Y17324D01*
X4948Y17356D01*
X5027Y17389D01*
X5098Y17459D01*
X5136Y17551D01*
X5136Y16550D01*
X4978Y16550D01*
X4978Y16919D01*
X4978Y17161D01*
X4916Y17224D01*
X4450Y17224D01*
X4450Y16781D01*
X4512Y16719D01*
X4678Y16718D01*
X4778Y16719D01*
X4870Y16757D01*
X4940Y16827D01*
X4978Y16919D01*
X4978Y16550D01*
X4350Y16550D01*
X4350Y16781D01*
X4350Y17224D01*
X3884Y17224D01*
X3821Y17161D01*
X3821Y16919D01*
X3859Y16827D01*
X3929Y16757D01*
X4021Y16719D01*
X4121Y16718D01*
X4287Y16719D01*
X4350Y16781D01*
X4350Y16550D01*
X2743Y16550D01*
X2743Y17348D01*
X2737Y17683D01*
X2621Y17962D01*
X2496Y18025D01*
X2425Y17954D01*
X2425Y18096D01*
X2362Y18221D01*
X2051Y18343D01*
X1716Y18337D01*
X1437Y18221D01*
X1374Y18096D01*
X1900Y17570D01*
X2425Y18096D01*
X2425Y17954D01*
X1970Y17500D01*
X2496Y16974D01*
X2621Y17037D01*
X2743Y17348D01*
X2743Y16550D01*
X2425Y16550D01*
X2425Y16903D01*
X1900Y17429D01*
X1374Y16903D01*
X1437Y16778D01*
X1748Y16656D01*
X2083Y16662D01*
X2362Y16778D01*
X2425Y16903D01*
X2425Y16550D01*
X1200Y16550D01*
X1200Y17026D01*
X1303Y16974D01*
X1829Y17500D01*
X1303Y18025D01*
X1200Y17973D01*
X1200Y18385D01*
X2784Y18385D01*
X2796Y18380D01*
X3002Y18379D01*
X3172Y18450D01*
X4213Y18450D01*
X4213Y18387D01*
X4244Y18313D01*
X4273Y18285D01*
X4272Y18284D01*
X4201Y18214D01*
X4163Y18122D01*
X4164Y17949D01*
X4226Y17887D01*
X4600Y17887D01*
X4600Y17894D01*
X4700Y17894D01*
X4700Y17887D01*
X5073Y17887D01*
X5136Y17949D01*
X5136Y18122D01*
X5098Y18214D01*
X5027Y18284D01*
X5026Y18285D01*
X5055Y18313D01*
X5061Y18329D01*
X5138Y18278D01*
X5149Y18275D01*
X5149Y18185D01*
X5180Y18111D01*
X5236Y18055D01*
X5310Y18025D01*
X5389Y18024D01*
X5739Y18024D01*
X5813Y18055D01*
X5869Y18111D01*
X5899Y18185D01*
X5899Y18185D01*
X5930Y18111D01*
X5986Y18055D01*
X6060Y18025D01*
X6139Y18024D01*
X6489Y18024D01*
X6563Y18055D01*
X6619Y18111D01*
X6649Y18185D01*
X6649Y18220D01*
X6654Y18220D01*
X7543Y17330D01*
X7600Y17236D01*
X7600Y16850D01*
X7600Y16850D01*
G37*
G54D52*
X7600Y16850D02*
X7599Y16842D01*
X7572Y16851D01*
X7501Y16780D01*
X7501Y16922D01*
X7467Y17022D01*
X7243Y17104D01*
X7005Y17094D01*
X6832Y17022D01*
X6798Y16922D01*
X7150Y16570D01*
X7501Y16922D01*
X7501Y16780D01*
X7270Y16550D01*
X7029Y16550D01*
X6727Y16851D01*
X6627Y16817D01*
X6620Y16800D01*
X6616Y16811D01*
X6461Y16965D01*
X6259Y17049D01*
X6041Y17050D01*
X5838Y16966D01*
X5684Y16811D01*
X5600Y16609D01*
X5600Y16550D01*
X5136Y16550D01*
X5136Y17551D01*
X5136Y17724D01*
X5073Y17787D01*
X4874Y17787D01*
X4870Y17790D01*
X4778Y17828D01*
X4678Y17829D01*
X4512Y17829D01*
X4470Y17787D01*
X4329Y17787D01*
X4287Y17829D01*
X4121Y17829D01*
X4021Y17828D01*
X3929Y17790D01*
X3859Y17720D01*
X3821Y17628D01*
X3821Y17386D01*
X3884Y17324D01*
X4350Y17324D01*
X4350Y17356D01*
X4364Y17351D01*
X4450Y17350D01*
X4450Y17324D01*
X4916Y17324D01*
X4948Y17356D01*
X5027Y17389D01*
X5098Y17459D01*
X5136Y17551D01*
X5136Y16550D01*
X4978Y16550D01*
X4978Y16919D01*
X4978Y17161D01*
X4916Y17224D01*
X4450Y17224D01*
X4450Y16781D01*
X4512Y16719D01*
X4678Y16718D01*
X4778Y16719D01*
X4870Y16757D01*
X4940Y16827D01*
X4978Y16919D01*
X4978Y16550D01*
X4350Y16550D01*
X4350Y16781D01*
X4350Y17224D01*
X3884Y17224D01*
X3821Y17161D01*
X3821Y16919D01*
X3859Y16827D01*
X3929Y16757D01*
X4021Y16719D01*
X4121Y16718D01*
X4287Y16719D01*
X4350Y16781D01*
X4350Y16550D01*
X2743Y16550D01*
X2743Y17348D01*
X2737Y17683D01*
X2621Y17962D01*
X2496Y18025D01*
X2425Y17954D01*
X2425Y18096D01*
X2362Y18221D01*
X2051Y18343D01*
X1716Y18337D01*
X1437Y18221D01*
X1374Y18096D01*
X1900Y17570D01*
X2425Y18096D01*
X2425Y17954D01*
X1970Y17500D01*
X2496Y16974D01*
X2621Y17037D01*
X2743Y17348D01*
X2743Y16550D01*
X2425Y16550D01*
X2425Y16903D01*
X1900Y17429D01*
X1374Y16903D01*
X1437Y16778D01*
X1748Y16656D01*
X2083Y16662D01*
X2362Y16778D01*
X2425Y16903D01*
X2425Y16550D01*
X1200Y16550D01*
X1200Y17026D01*
X1303Y16974D01*
X1829Y17500D01*
X1303Y18025D01*
X1200Y17973D01*
X1200Y18385D01*
X2784Y18385D01*
X2796Y18380D01*
X3002Y18379D01*
X3172Y18450D01*
X4213Y18450D01*
X4213Y18387D01*
X4244Y18313D01*
X4273Y18285D01*
X4272Y18284D01*
X4201Y18214D01*
X4163Y18122D01*
X4164Y17949D01*
X4226Y17887D01*
X4600Y17887D01*
X4600Y17894D01*
X4700Y17894D01*
X4700Y17887D01*
X5073Y17887D01*
X5136Y17949D01*
X5136Y18122D01*
X5098Y18214D01*
X5027Y18284D01*
X5026Y18285D01*
X5055Y18313D01*
X5061Y18329D01*
X5138Y18278D01*
X5149Y18275D01*
X5149Y18185D01*
X5180Y18111D01*
X5236Y18055D01*
X5310Y18025D01*
X5389Y18024D01*
X5739Y18024D01*
X5813Y18055D01*
X5869Y18111D01*
X5899Y18185D01*
X5899Y18185D01*
X5930Y18111D01*
X5986Y18055D01*
X6060Y18025D01*
X6139Y18024D01*
X6489Y18024D01*
X6563Y18055D01*
X6619Y18111D01*
X6649Y18185D01*
X6649Y18220D01*
X6654Y18220D01*
X7543Y17330D01*
X7600Y17236D01*
X7600Y16850D01*
M02*
