G04 (created by PCBNEW (2013-07-07 BZR 4022)-stable) date 06/10/2013 19:19:05*
%MOIN*%
G04 Gerber Fmt 3.4, Leading zero omitted, Abs format*
%FSLAX34Y34*%
G01*
G70*
G90*
G04 APERTURE LIST*
%ADD10C,0.00590551*%
%ADD11C,0.012*%
%ADD12C,0.015*%
%ADD13C,0.01*%
%ADD14C,0.008*%
%ADD15C,0.005*%
%ADD16C,0.006*%
%ADD17C,0.0031*%
%ADD18C,0.0026*%
%ADD19C,0.002*%
%ADD20C,0.004*%
%ADD21C,0.0001*%
%ADD22C,0.0079*%
%ADD23C,0.0047*%
%ADD24C,0.0075*%
%ADD25C,0.0016*%
%ADD26C,0.011811*%
%ADD27R,0.055X0.075*%
%ADD28R,0.075X0.055*%
%ADD29C,0.08*%
%ADD30R,0.08X0.08*%
%ADD31R,0.0672X0.0672*%
%ADD32R,0.1617X0.083*%
%ADD33R,0.083X0.1617*%
%ADD34R,0.1224X0.083*%
%ADD35C,0.0987*%
%ADD36C,0.09*%
%ADD37R,0.09X0.09*%
%ADD38R,0.056X0.056*%
%ADD39R,0.1381X0.1381*%
%ADD40C,0.1381*%
%ADD41R,0.08X0.1066*%
%ADD42O,0.08X0.1066*%
%ADD43R,0.0987X0.08*%
%ADD44O,0.0987X0.08*%
%ADD45R,0.1184X0.075*%
%ADD46R,0.07X0.04*%
%ADD47R,0.04X0.065*%
%ADD48R,0.037X0.05*%
%ADD49R,0.1066X0.08*%
%ADD50O,0.1066X0.08*%
%ADD51C,0.15*%
%ADD52C,0.169*%
%ADD53R,0.0857X0.081*%
%ADD54C,0.114488*%
%ADD55R,0.114488X0.114488*%
%ADD56O,0.08X0.12*%
%ADD57C,0.145*%
%ADD58R,0.05X0.037*%
G04 APERTURE END LIST*
G54D10*
G54D11*
X13150Y9750D02*
X13150Y10700D01*
X14650Y10700D02*
X14650Y9750D01*
X11650Y10700D02*
X14650Y10700D01*
X11650Y9750D02*
X11650Y10700D01*
G54D12*
X15900Y7100D02*
X15900Y5750D01*
X17200Y7100D02*
X15900Y7100D01*
X17900Y7100D02*
X17200Y7100D01*
X17900Y5750D02*
X17900Y7100D01*
X12850Y6550D02*
X11400Y6550D01*
X14400Y6550D02*
X14400Y5750D01*
X12900Y6550D02*
X14400Y6550D01*
X12900Y5750D02*
X12900Y6550D01*
G54D11*
X17900Y24000D02*
X17900Y23250D01*
X25900Y24000D02*
X25900Y23250D01*
X25900Y30000D02*
X25900Y30500D01*
X17900Y30000D02*
X17900Y30500D01*
X19400Y8500D02*
X19400Y9250D01*
X27400Y8500D02*
X27400Y9250D01*
X27400Y2500D02*
X27400Y2000D01*
X19400Y2500D02*
X19400Y2000D01*
X18273Y11021D02*
X18273Y10678D01*
X18273Y10850D02*
X17473Y10850D01*
X17588Y10792D01*
X17664Y10735D01*
X17702Y10678D01*
X16550Y10678D02*
X16511Y10707D01*
X16473Y10764D01*
X16473Y10907D01*
X16511Y10964D01*
X16550Y10992D01*
X16626Y11021D01*
X16702Y11021D01*
X16816Y10992D01*
X17273Y10650D01*
X17273Y11021D01*
X15423Y10650D02*
X15423Y11021D01*
X15728Y10821D01*
X15728Y10907D01*
X15766Y10964D01*
X15804Y10992D01*
X15880Y11021D01*
X16071Y11021D01*
X16147Y10992D01*
X16185Y10964D01*
X16223Y10907D01*
X16223Y10735D01*
X16185Y10678D01*
X16147Y10650D01*
X26223Y11021D02*
X26223Y10678D01*
X26223Y10850D02*
X25423Y10850D01*
X25538Y10792D01*
X25614Y10735D01*
X25652Y10678D01*
X24500Y10678D02*
X24461Y10707D01*
X24423Y10764D01*
X24423Y10907D01*
X24461Y10964D01*
X24500Y10992D01*
X24576Y11021D01*
X24652Y11021D01*
X24766Y10992D01*
X25223Y10650D01*
X25223Y11021D01*
X23423Y10650D02*
X23423Y11021D01*
X23728Y10821D01*
X23728Y10907D01*
X23766Y10964D01*
X23804Y10992D01*
X23880Y11021D01*
X24071Y11021D01*
X24147Y10992D01*
X24185Y10964D01*
X24223Y10907D01*
X24223Y10735D01*
X24185Y10678D01*
X24147Y10650D01*
X32550Y10628D02*
X32511Y10657D01*
X32473Y10714D01*
X32473Y10857D01*
X32511Y10914D01*
X32550Y10942D01*
X32626Y10971D01*
X32702Y10971D01*
X32816Y10942D01*
X33273Y10600D01*
X33273Y10971D01*
X34323Y10971D02*
X34323Y10628D01*
X34323Y10800D02*
X33523Y10800D01*
X33638Y10742D01*
X33714Y10685D01*
X33752Y10628D01*
X31473Y10600D02*
X31473Y10971D01*
X31778Y10771D01*
X31778Y10857D01*
X31816Y10914D01*
X31854Y10942D01*
X31930Y10971D01*
X32121Y10971D01*
X32197Y10942D01*
X32235Y10914D01*
X32273Y10857D01*
X32273Y10685D01*
X32235Y10628D01*
X32197Y10600D01*
X13300Y20076D02*
X13671Y20076D01*
X13471Y19771D01*
X13557Y19771D01*
X13614Y19733D01*
X13642Y19695D01*
X13671Y19619D01*
X13671Y19428D01*
X13642Y19352D01*
X13614Y19314D01*
X13557Y19276D01*
X13385Y19276D01*
X13328Y19314D01*
X13300Y19352D01*
X12128Y20000D02*
X12157Y20038D01*
X12214Y20076D01*
X12357Y20076D01*
X12414Y20038D01*
X12442Y20000D01*
X12471Y19923D01*
X12471Y19847D01*
X12442Y19733D01*
X12100Y19276D01*
X12471Y19276D01*
X11471Y19276D02*
X11128Y19276D01*
X11300Y19276D02*
X11300Y20076D01*
X11242Y19961D01*
X11185Y19885D01*
X11128Y19847D01*
X20700Y20076D02*
X21071Y20076D01*
X20871Y19771D01*
X20957Y19771D01*
X21014Y19733D01*
X21042Y19695D01*
X21071Y19619D01*
X21071Y19428D01*
X21042Y19352D01*
X21014Y19314D01*
X20957Y19276D01*
X20785Y19276D01*
X20728Y19314D01*
X20700Y19352D01*
X19728Y20000D02*
X19757Y20038D01*
X19814Y20076D01*
X19957Y20076D01*
X20014Y20038D01*
X20042Y20000D01*
X20071Y19923D01*
X20071Y19847D01*
X20042Y19733D01*
X19700Y19276D01*
X20071Y19276D01*
X19071Y19276D02*
X18728Y19276D01*
X18900Y19276D02*
X18900Y20076D01*
X18842Y19961D01*
X18785Y19885D01*
X18728Y19847D01*
X28700Y20076D02*
X29071Y20076D01*
X28871Y19771D01*
X28957Y19771D01*
X29014Y19733D01*
X29042Y19695D01*
X29071Y19619D01*
X29071Y19428D01*
X29042Y19352D01*
X29014Y19314D01*
X28957Y19276D01*
X28785Y19276D01*
X28728Y19314D01*
X28700Y19352D01*
X27728Y20000D02*
X27757Y20038D01*
X27814Y20076D01*
X27957Y20076D01*
X28014Y20038D01*
X28042Y20000D01*
X28071Y19923D01*
X28071Y19847D01*
X28042Y19733D01*
X27700Y19276D01*
X28071Y19276D01*
X27071Y19276D02*
X26728Y19276D01*
X26900Y19276D02*
X26900Y20076D01*
X26842Y19961D01*
X26785Y19885D01*
X26728Y19847D01*
X11400Y5000D02*
X11400Y4950D01*
G54D13*
X13085Y6090D02*
X13390Y6090D01*
X13238Y5938D02*
X13238Y6242D01*
X13771Y6338D02*
X13580Y6338D01*
X13561Y6147D01*
X13580Y6166D01*
X13619Y6185D01*
X13714Y6185D01*
X13752Y6166D01*
X13771Y6147D01*
X13790Y6109D01*
X13790Y6014D01*
X13771Y5976D01*
X13752Y5957D01*
X13714Y5938D01*
X13619Y5938D01*
X13580Y5957D01*
X13561Y5976D01*
X13904Y6338D02*
X14038Y5938D01*
X14171Y6338D01*
X11569Y5938D02*
X11569Y6338D01*
X11835Y6338D02*
X11911Y6338D01*
X11950Y6319D01*
X11988Y6280D01*
X12007Y6204D01*
X12007Y6071D01*
X11988Y5995D01*
X11950Y5957D01*
X11911Y5938D01*
X11835Y5938D01*
X11797Y5957D01*
X11759Y5995D01*
X11740Y6071D01*
X11740Y6204D01*
X11759Y6280D01*
X11797Y6319D01*
X11835Y6338D01*
X12407Y5938D02*
X12273Y6128D01*
X12178Y5938D02*
X12178Y6338D01*
X12330Y6338D01*
X12369Y6319D01*
X12388Y6300D01*
X12407Y6261D01*
X12407Y6204D01*
X12388Y6166D01*
X12369Y6147D01*
X12330Y6128D01*
X12178Y6128D01*
X12711Y6147D02*
X12578Y6147D01*
X12578Y5938D02*
X12578Y6338D01*
X12769Y6338D01*
X13442Y10450D02*
X13471Y10478D01*
X13528Y10507D01*
X13671Y10507D01*
X13728Y10478D01*
X13757Y10450D01*
X13785Y10392D01*
X13785Y10335D01*
X13757Y10250D01*
X13414Y9907D01*
X13785Y9907D01*
X14300Y10307D02*
X14300Y9907D01*
X14157Y10535D02*
X14014Y10107D01*
X14385Y10107D01*
X12285Y9907D02*
X11942Y9907D01*
X12114Y9907D02*
X12114Y10507D01*
X12057Y10421D01*
X12000Y10364D01*
X11942Y10335D01*
X12514Y10450D02*
X12542Y10478D01*
X12600Y10507D01*
X12742Y10507D01*
X12800Y10478D01*
X12828Y10450D01*
X12857Y10392D01*
X12857Y10335D01*
X12828Y10250D01*
X12485Y9907D01*
X12857Y9907D01*
G54D11*
X3673Y11028D02*
X2873Y11028D01*
X3254Y11028D02*
X3254Y11371D01*
X3673Y11371D02*
X2873Y11371D01*
X3254Y11857D02*
X3292Y11942D01*
X3330Y11971D01*
X3407Y12000D01*
X3521Y12000D01*
X3597Y11971D01*
X3635Y11942D01*
X3673Y11885D01*
X3673Y11657D01*
X2873Y11657D01*
X2873Y11857D01*
X2911Y11914D01*
X2950Y11942D01*
X3026Y11971D01*
X3102Y11971D01*
X3178Y11942D01*
X3216Y11914D01*
X3254Y11857D01*
X3254Y11657D01*
X3171Y10480D02*
X3628Y10480D01*
X3171Y12730D02*
X3628Y12730D01*
X3400Y12426D02*
X3400Y13035D01*
X3200Y5926D02*
X3200Y6726D01*
X3400Y6154D01*
X3600Y6726D01*
X3600Y5926D01*
X3171Y5480D02*
X3628Y5480D01*
X3171Y7480D02*
X3628Y7480D01*
X3400Y7176D02*
X3400Y7785D01*
X3242Y1926D02*
X3242Y2726D01*
X3471Y2726D01*
X3528Y2688D01*
X3557Y2650D01*
X3585Y2573D01*
X3585Y2459D01*
X3557Y2383D01*
X3528Y2345D01*
X3471Y2307D01*
X3242Y2307D01*
X3171Y1480D02*
X3628Y1480D01*
X3171Y3480D02*
X3628Y3480D01*
X3400Y3176D02*
X3400Y3785D01*
G54D12*
X36650Y24500D02*
X36650Y25750D01*
X36450Y24500D02*
X36650Y24500D01*
X36650Y28450D02*
X36650Y28000D01*
X36400Y28450D02*
X36650Y28450D01*
X34150Y28450D02*
X34350Y28450D01*
X34150Y27950D02*
X34150Y28450D01*
X34150Y24800D02*
X34300Y24800D01*
X34150Y25700D02*
X34150Y24800D01*
X36800Y29275D02*
X36800Y29775D01*
X36550Y29525D02*
X36800Y29275D01*
X36800Y29775D02*
X36550Y29525D01*
X34075Y29250D02*
X34075Y29750D01*
X34325Y29500D02*
X34075Y29250D01*
X34075Y29750D02*
X34325Y29500D01*
X37150Y34500D02*
X37400Y34250D01*
X37400Y34750D02*
X37150Y34500D01*
X38650Y34500D02*
X38400Y34250D01*
X38400Y34750D02*
X38650Y34500D01*
X36650Y34500D02*
X36400Y34250D01*
X36400Y34750D02*
X36650Y34500D01*
X35150Y34500D02*
X35400Y34250D01*
X35400Y34750D02*
X35150Y34500D01*
X34650Y34500D02*
X34400Y34250D01*
X34400Y34750D02*
X34650Y34500D01*
X33350Y34300D02*
X33400Y34250D01*
X33150Y34500D02*
X33350Y34300D01*
X33400Y34750D02*
X33150Y34500D01*
G54D14*
X37661Y34366D02*
X38061Y34633D01*
X37661Y34633D02*
X38061Y34366D01*
X35871Y34500D02*
X36061Y34500D01*
X35661Y34366D02*
X35871Y34500D01*
X35661Y34633D01*
X33661Y34366D02*
X33661Y34633D01*
X34061Y34366D01*
X34061Y34633D01*
X34264Y28688D02*
X34035Y28688D01*
X34150Y28688D02*
X34150Y29088D01*
X34111Y29030D01*
X34073Y28992D01*
X34035Y28973D01*
X36630Y28988D02*
X36669Y28988D01*
X36707Y28969D01*
X36726Y28950D01*
X36745Y28911D01*
X36764Y28835D01*
X36764Y28740D01*
X36745Y28664D01*
X36726Y28626D01*
X36707Y28607D01*
X36669Y28588D01*
X36630Y28588D01*
X36592Y28607D01*
X36573Y28626D01*
X36554Y28664D01*
X36535Y28740D01*
X36535Y28835D01*
X36554Y28911D01*
X36573Y28950D01*
X36592Y28969D01*
X36630Y28988D01*
X39016Y27738D02*
X39264Y27738D01*
X39130Y27585D01*
X39188Y27585D01*
X39226Y27566D01*
X39245Y27547D01*
X39264Y27509D01*
X39264Y27414D01*
X39245Y27376D01*
X39226Y27357D01*
X39188Y27338D01*
X39073Y27338D01*
X39035Y27357D01*
X39016Y27376D01*
X39035Y26700D02*
X39054Y26719D01*
X39092Y26738D01*
X39188Y26738D01*
X39226Y26719D01*
X39245Y26700D01*
X39264Y26661D01*
X39264Y26623D01*
X39245Y26566D01*
X39016Y26338D01*
X39264Y26338D01*
X39264Y25338D02*
X39035Y25338D01*
X39150Y25338D02*
X39150Y25738D01*
X39111Y25680D01*
X39073Y25642D01*
X39035Y25623D01*
X39130Y24738D02*
X39169Y24738D01*
X39207Y24719D01*
X39226Y24700D01*
X39245Y24661D01*
X39264Y24585D01*
X39264Y24490D01*
X39245Y24414D01*
X39226Y24376D01*
X39207Y24357D01*
X39169Y24338D01*
X39130Y24338D01*
X39092Y24357D01*
X39073Y24376D01*
X39054Y24414D01*
X39035Y24490D01*
X39035Y24585D01*
X39054Y24661D01*
X39073Y24700D01*
X39092Y24719D01*
X39130Y24738D01*
G54D11*
X38978Y32214D02*
X39064Y32176D01*
X39207Y32176D01*
X39264Y32214D01*
X39292Y32252D01*
X39321Y32328D01*
X39321Y32404D01*
X39292Y32480D01*
X39264Y32519D01*
X39207Y32557D01*
X39092Y32595D01*
X39035Y32633D01*
X39007Y32671D01*
X38978Y32747D01*
X38978Y32823D01*
X39007Y32900D01*
X39035Y32938D01*
X39092Y32976D01*
X39235Y32976D01*
X39321Y32938D01*
G54D12*
X31400Y34250D02*
X31400Y34750D01*
X31650Y34500D02*
X31400Y34250D01*
X31400Y34750D02*
X31650Y34500D01*
X38900Y33500D02*
X39400Y33500D01*
X39150Y31750D02*
X39150Y31250D01*
X39400Y31500D02*
X38900Y31500D01*
X20900Y33250D02*
X20650Y33500D01*
X20900Y33750D02*
X20900Y33250D01*
X20650Y33500D02*
X20900Y33750D01*
X16050Y34200D02*
X16300Y34450D01*
X16050Y34700D02*
X16050Y34200D01*
X16300Y34450D02*
X16050Y34700D01*
X23400Y14750D02*
X23400Y15250D01*
X23650Y15000D02*
X23400Y14750D01*
X23400Y15250D02*
X23650Y15000D01*
X31900Y12750D02*
X31650Y13000D01*
X31900Y13250D02*
X31900Y12750D01*
X31650Y13000D02*
X31900Y13250D01*
G54D11*
X13478Y25226D02*
X13278Y25607D01*
X13135Y25226D02*
X13135Y26026D01*
X13364Y26026D01*
X13421Y25988D01*
X13449Y25950D01*
X13478Y25873D01*
X13478Y25759D01*
X13449Y25683D01*
X13421Y25645D01*
X13364Y25607D01*
X13135Y25607D01*
X13707Y25454D02*
X13992Y25454D01*
X13649Y25226D02*
X13849Y26026D01*
X14049Y25226D01*
X14249Y25226D02*
X14249Y26026D01*
X14449Y25454D01*
X14649Y26026D01*
X14649Y25226D01*
X14935Y25226D02*
X14935Y26026D01*
X15164Y26026D01*
X15221Y25988D01*
X15249Y25950D01*
X15278Y25873D01*
X15278Y25759D01*
X15249Y25683D01*
X15221Y25645D01*
X15164Y25607D01*
X14935Y25607D01*
X15507Y25264D02*
X15592Y25226D01*
X15735Y25226D01*
X15792Y25264D01*
X15821Y25302D01*
X15849Y25378D01*
X15849Y25454D01*
X15821Y25530D01*
X15792Y25569D01*
X15735Y25607D01*
X15621Y25645D01*
X15564Y25683D01*
X15535Y25721D01*
X15507Y25797D01*
X15507Y25873D01*
X15535Y25950D01*
X15564Y25988D01*
X15621Y26026D01*
X15764Y26026D01*
X15849Y25988D01*
X16107Y25530D02*
X16564Y25530D01*
X17049Y25645D02*
X16849Y25645D01*
X16849Y25226D02*
X16849Y26026D01*
X17135Y26026D01*
X17364Y25226D02*
X17364Y26026D01*
X17507Y26026D01*
X17592Y25988D01*
X17649Y25911D01*
X17678Y25835D01*
X17707Y25683D01*
X17707Y25569D01*
X17678Y25416D01*
X17649Y25340D01*
X17592Y25264D01*
X17507Y25226D01*
X17364Y25226D01*
X18364Y25759D02*
X18507Y25226D01*
X18650Y25759D01*
X19192Y25226D02*
X18850Y25226D01*
X19021Y25226D02*
X19021Y26026D01*
X18964Y25911D01*
X18907Y25835D01*
X18850Y25797D01*
X20250Y25226D02*
X20050Y25607D01*
X19907Y25226D02*
X19907Y26026D01*
X20135Y26026D01*
X20192Y25988D01*
X20221Y25950D01*
X20250Y25873D01*
X20250Y25759D01*
X20221Y25683D01*
X20192Y25645D01*
X20135Y25607D01*
X19907Y25607D01*
X20735Y25264D02*
X20678Y25226D01*
X20564Y25226D01*
X20507Y25264D01*
X20478Y25340D01*
X20478Y25645D01*
X20507Y25721D01*
X20564Y25759D01*
X20678Y25759D01*
X20735Y25721D01*
X20764Y25645D01*
X20764Y25569D01*
X20478Y25492D01*
X20964Y25759D02*
X21107Y25226D01*
X21250Y25759D01*
X21907Y25454D02*
X22192Y25454D01*
X21850Y25226D02*
X22050Y26026D01*
X22250Y25226D01*
G54D13*
X38107Y4000D02*
G75*
G03X38107Y4000I-707J0D01*
G74*
G01*
X6107Y23000D02*
G75*
G03X6107Y23000I-707J0D01*
G74*
G01*
X5607Y4000D02*
G75*
G03X5607Y4000I-707J0D01*
G74*
G01*
G54D15*
X7300Y24200D02*
G75*
G03X7300Y24200I-50J0D01*
G74*
G01*
X7700Y24200D02*
X7300Y24200D01*
X7300Y24200D02*
X7300Y24800D01*
X7300Y24800D02*
X7700Y24800D01*
X8100Y24800D02*
X8500Y24800D01*
X8500Y24800D02*
X8500Y24200D01*
X8500Y24200D02*
X8100Y24200D01*
X32750Y20600D02*
G75*
G03X32750Y20600I-50J0D01*
G74*
G01*
X32700Y21050D02*
X32700Y20650D01*
X32700Y20650D02*
X32100Y20650D01*
X32100Y20650D02*
X32100Y21050D01*
X32100Y21450D02*
X32100Y21850D01*
X32100Y21850D02*
X32700Y21850D01*
X32700Y21850D02*
X32700Y21450D01*
X33750Y20600D02*
G75*
G03X33750Y20600I-50J0D01*
G74*
G01*
X33700Y21050D02*
X33700Y20650D01*
X33700Y20650D02*
X33100Y20650D01*
X33100Y20650D02*
X33100Y21050D01*
X33100Y21450D02*
X33100Y21850D01*
X33100Y21850D02*
X33700Y21850D01*
X33700Y21850D02*
X33700Y21450D01*
X25650Y22150D02*
G75*
G03X25650Y22150I-50J0D01*
G74*
G01*
X25600Y21700D02*
X25600Y22100D01*
X25600Y22100D02*
X26200Y22100D01*
X26200Y22100D02*
X26200Y21700D01*
X26200Y21300D02*
X26200Y20900D01*
X26200Y20900D02*
X25600Y20900D01*
X25600Y20900D02*
X25600Y21300D01*
X17650Y22150D02*
G75*
G03X17650Y22150I-50J0D01*
G74*
G01*
X17600Y21700D02*
X17600Y22100D01*
X17600Y22100D02*
X18200Y22100D01*
X18200Y22100D02*
X18200Y21700D01*
X18200Y21300D02*
X18200Y20900D01*
X18200Y20900D02*
X17600Y20900D01*
X17600Y20900D02*
X17600Y21300D01*
X10600Y22050D02*
G75*
G03X10600Y22050I-50J0D01*
G74*
G01*
X10100Y22050D02*
X10500Y22050D01*
X10500Y22050D02*
X10500Y21450D01*
X10500Y21450D02*
X10100Y21450D01*
X9700Y21450D02*
X9300Y21450D01*
X9300Y21450D02*
X9300Y22050D01*
X9300Y22050D02*
X9700Y22050D01*
X27250Y9350D02*
G75*
G03X27250Y9350I-50J0D01*
G74*
G01*
X27200Y9800D02*
X27200Y9400D01*
X27200Y9400D02*
X26600Y9400D01*
X26600Y9400D02*
X26600Y9800D01*
X26600Y10200D02*
X26600Y10600D01*
X26600Y10600D02*
X27200Y10600D01*
X27200Y10600D02*
X27200Y10200D01*
X19250Y9350D02*
G75*
G03X19250Y9350I-50J0D01*
G74*
G01*
X19200Y9800D02*
X19200Y9400D01*
X19200Y9400D02*
X18600Y9400D01*
X18600Y9400D02*
X18600Y9800D01*
X18600Y10200D02*
X18600Y10600D01*
X18600Y10600D02*
X19200Y10600D01*
X19200Y10600D02*
X19200Y10200D01*
X35650Y9300D02*
G75*
G03X35650Y9300I-50J0D01*
G74*
G01*
X35600Y9750D02*
X35600Y9350D01*
X35600Y9350D02*
X35000Y9350D01*
X35000Y9350D02*
X35000Y9750D01*
X35000Y10150D02*
X35000Y10550D01*
X35000Y10550D02*
X35600Y10550D01*
X35600Y10550D02*
X35600Y10150D01*
X14650Y21900D02*
G75*
G03X14650Y21900I-50J0D01*
G74*
G01*
X14600Y21450D02*
X14600Y21850D01*
X14600Y21850D02*
X15200Y21850D01*
X15200Y21850D02*
X15200Y21450D01*
X15200Y21050D02*
X15200Y20650D01*
X15200Y20650D02*
X14600Y20650D01*
X14600Y20650D02*
X14600Y21050D01*
X32300Y28450D02*
G75*
G03X32300Y28450I-50J0D01*
G74*
G01*
X32700Y28450D02*
X32300Y28450D01*
X32300Y28450D02*
X32300Y29050D01*
X32300Y29050D02*
X32700Y29050D01*
X33100Y29050D02*
X33500Y29050D01*
X33500Y29050D02*
X33500Y28450D01*
X33500Y28450D02*
X33100Y28450D01*
X13000Y10850D02*
G75*
G03X13000Y10850I-50J0D01*
G74*
G01*
X12950Y11300D02*
X12950Y10900D01*
X12950Y10900D02*
X12350Y10900D01*
X12350Y10900D02*
X12350Y11300D01*
X12350Y11700D02*
X12350Y12100D01*
X12350Y12100D02*
X12950Y12100D01*
X12950Y12100D02*
X12950Y11700D01*
X20150Y16650D02*
G75*
G03X20150Y16650I-50J0D01*
G74*
G01*
X20100Y16200D02*
X20100Y16600D01*
X20100Y16600D02*
X20700Y16600D01*
X20700Y16600D02*
X20700Y16200D01*
X20700Y15800D02*
X20700Y15400D01*
X20700Y15400D02*
X20100Y15400D01*
X20100Y15400D02*
X20100Y15800D01*
X20150Y14650D02*
G75*
G03X20150Y14650I-50J0D01*
G74*
G01*
X20100Y14200D02*
X20100Y14600D01*
X20100Y14600D02*
X20700Y14600D01*
X20700Y14600D02*
X20700Y14200D01*
X20700Y13800D02*
X20700Y13400D01*
X20700Y13400D02*
X20100Y13400D01*
X20100Y13400D02*
X20100Y13800D01*
X20150Y12650D02*
G75*
G03X20150Y12650I-50J0D01*
G74*
G01*
X20100Y12200D02*
X20100Y12600D01*
X20100Y12600D02*
X20700Y12600D01*
X20700Y12600D02*
X20700Y12200D01*
X20700Y11800D02*
X20700Y11400D01*
X20700Y11400D02*
X20100Y11400D01*
X20100Y11400D02*
X20100Y11800D01*
X10600Y19550D02*
G75*
G03X10600Y19550I-50J0D01*
G74*
G01*
X10100Y19550D02*
X10500Y19550D01*
X10500Y19550D02*
X10500Y18950D01*
X10500Y18950D02*
X10100Y18950D01*
X9700Y18950D02*
X9300Y18950D01*
X9300Y18950D02*
X9300Y19550D01*
X9300Y19550D02*
X9700Y19550D01*
X6600Y24800D02*
G75*
G03X6600Y24800I-50J0D01*
G74*
G01*
X6100Y24800D02*
X6500Y24800D01*
X6500Y24800D02*
X6500Y24200D01*
X6500Y24200D02*
X6100Y24200D01*
X5700Y24200D02*
X5300Y24200D01*
X5300Y24200D02*
X5300Y24800D01*
X5300Y24800D02*
X5700Y24800D01*
X6600Y18800D02*
G75*
G03X6600Y18800I-50J0D01*
G74*
G01*
X6100Y18800D02*
X6500Y18800D01*
X6500Y18800D02*
X6500Y18200D01*
X6500Y18200D02*
X6100Y18200D01*
X5700Y18200D02*
X5300Y18200D01*
X5300Y18200D02*
X5300Y18800D01*
X5300Y18800D02*
X5700Y18800D01*
G54D12*
X19200Y9200D02*
X18900Y8700D01*
X18900Y8700D02*
X18650Y9200D01*
X18650Y9200D02*
X19150Y9200D01*
X19400Y2500D02*
X11400Y2500D01*
X11400Y2500D02*
X11400Y8500D01*
X11400Y8500D02*
X19400Y8500D01*
X19400Y8500D02*
X19400Y2500D01*
X27200Y9200D02*
X26900Y8700D01*
X26900Y8700D02*
X26650Y9200D01*
X26650Y9200D02*
X27150Y9200D01*
X27400Y2500D02*
X19400Y2500D01*
X19400Y2500D02*
X19400Y8500D01*
X19400Y8500D02*
X27400Y8500D01*
X27400Y8500D02*
X27400Y2500D01*
X35200Y9200D02*
X34900Y8700D01*
X34900Y8700D02*
X34650Y9200D01*
X34650Y9200D02*
X35150Y9200D01*
X35400Y2500D02*
X27400Y2500D01*
X27400Y2500D02*
X27400Y8500D01*
X27400Y8500D02*
X35400Y8500D01*
X35400Y8500D02*
X35400Y2500D01*
X10100Y23300D02*
X10400Y23800D01*
X10400Y23800D02*
X10650Y23300D01*
X10650Y23300D02*
X10150Y23300D01*
X9900Y30000D02*
X17900Y30000D01*
X17900Y30000D02*
X17900Y24000D01*
X17900Y24000D02*
X9900Y24000D01*
X9900Y24000D02*
X9900Y30000D01*
X18100Y23300D02*
X18400Y23800D01*
X18400Y23800D02*
X18650Y23300D01*
X18650Y23300D02*
X18150Y23300D01*
X17900Y30000D02*
X25900Y30000D01*
X25900Y30000D02*
X25900Y24000D01*
X25900Y24000D02*
X17900Y24000D01*
X17900Y24000D02*
X17900Y30000D01*
G54D13*
X31900Y31000D02*
X31900Y35000D01*
X32900Y31000D02*
X32900Y35000D01*
X32900Y35000D02*
X31900Y35000D01*
X31900Y31000D02*
X32900Y31000D01*
G54D14*
X15400Y10500D02*
X18400Y10500D01*
X18400Y8500D02*
X15400Y8500D01*
X15400Y8500D02*
X15400Y10500D01*
X18400Y10500D02*
X18400Y8500D01*
X13900Y20250D02*
X10900Y20250D01*
X10900Y22250D02*
X13900Y22250D01*
X13900Y22250D02*
X13900Y20250D01*
X10900Y20250D02*
X10900Y22250D01*
X29400Y20250D02*
X26400Y20250D01*
X26400Y22250D02*
X29400Y22250D01*
X29400Y22250D02*
X29400Y20250D01*
X26400Y20250D02*
X26400Y22250D01*
X31400Y10500D02*
X34400Y10500D01*
X34400Y8500D02*
X31400Y8500D01*
X31400Y8500D02*
X31400Y10500D01*
X34400Y10500D02*
X34400Y8500D01*
X23400Y10500D02*
X26400Y10500D01*
X26400Y8500D02*
X23400Y8500D01*
X23400Y8500D02*
X23400Y10500D01*
X26400Y10500D02*
X26400Y8500D01*
G54D16*
X18400Y35000D02*
X19400Y35000D01*
X19400Y35000D02*
X19400Y32000D01*
X19400Y32000D02*
X18400Y32000D01*
X18400Y32000D02*
X18400Y35000D01*
X19400Y34000D02*
X18400Y34000D01*
X33900Y31000D02*
X32900Y31000D01*
X32900Y31000D02*
X32900Y34000D01*
X32900Y34000D02*
X33900Y34000D01*
X33900Y34000D02*
X33900Y31000D01*
X32900Y32000D02*
X33900Y32000D01*
X35900Y31000D02*
X34900Y31000D01*
X34900Y31000D02*
X34900Y34000D01*
X34900Y34000D02*
X35900Y34000D01*
X35900Y34000D02*
X35900Y31000D01*
X34900Y32000D02*
X35900Y32000D01*
X36900Y31000D02*
X35900Y31000D01*
X35900Y31000D02*
X35900Y34000D01*
X35900Y34000D02*
X36900Y34000D01*
X36900Y34000D02*
X36900Y31000D01*
X35900Y32000D02*
X36900Y32000D01*
X37900Y31000D02*
X36900Y31000D01*
X36900Y31000D02*
X36900Y34000D01*
X36900Y34000D02*
X37900Y34000D01*
X37900Y34000D02*
X37900Y31000D01*
X36900Y32000D02*
X37900Y32000D01*
X38900Y31000D02*
X37900Y31000D01*
X37900Y31000D02*
X37900Y34000D01*
X37900Y34000D02*
X38900Y34000D01*
X38900Y34000D02*
X38900Y31000D01*
X37900Y32000D02*
X38900Y32000D01*
X19400Y35000D02*
X20400Y35000D01*
X20400Y35000D02*
X20400Y32000D01*
X20400Y32000D02*
X19400Y32000D01*
X19400Y32000D02*
X19400Y35000D01*
X20400Y34000D02*
X19400Y34000D01*
X34900Y31000D02*
X33900Y31000D01*
X33900Y31000D02*
X33900Y34000D01*
X33900Y34000D02*
X34900Y34000D01*
X34900Y34000D02*
X34900Y31000D01*
X33900Y32000D02*
X34900Y32000D01*
X17400Y35000D02*
X18400Y35000D01*
X18400Y35000D02*
X18400Y32000D01*
X18400Y32000D02*
X17400Y32000D01*
X17400Y32000D02*
X17400Y35000D01*
X18400Y34000D02*
X17400Y34000D01*
X16400Y35000D02*
X17400Y35000D01*
X17400Y35000D02*
X17400Y32000D01*
X17400Y32000D02*
X16400Y32000D01*
X16400Y32000D02*
X16400Y35000D01*
X17400Y34000D02*
X16400Y34000D01*
X22400Y9750D02*
X22400Y8750D01*
X21400Y8750D02*
X21400Y9750D01*
X22400Y8750D02*
X21400Y8750D01*
X21400Y9750D02*
X22400Y9750D01*
G54D17*
X4290Y21050D02*
G75*
G03X4290Y21050I-120J0D01*
G74*
G01*
X4895Y20350D02*
X4895Y21150D01*
X4405Y20350D02*
X4405Y21145D01*
X4785Y21150D02*
X4895Y21150D01*
X4515Y21145D02*
X4415Y21145D01*
X4785Y20350D02*
X4895Y20350D01*
X4405Y20350D02*
X4515Y20350D01*
G54D18*
X4768Y20946D02*
X4896Y20946D01*
X4523Y20946D02*
X4582Y20946D01*
X4718Y20946D02*
X4777Y20946D01*
X4572Y20946D02*
X4728Y20946D01*
X4768Y20554D02*
X4896Y20554D01*
X4404Y20554D02*
X4532Y20554D01*
X4718Y20554D02*
X4777Y20554D01*
X4523Y20554D02*
X4582Y20554D01*
X4572Y20554D02*
X4728Y20554D01*
X4611Y20710D02*
X4689Y20710D01*
X4689Y20710D02*
X4689Y20788D01*
X4611Y20788D02*
X4689Y20788D01*
X4611Y20710D02*
X4611Y20788D01*
X4414Y20946D02*
X4532Y20946D01*
G54D19*
X4491Y21059D02*
G75*
G03X4491Y21059I-28J0D01*
G74*
G01*
G54D20*
X4513Y21143D02*
G75*
G03X4787Y21143I137J0D01*
G74*
G01*
X4787Y20357D02*
G75*
G03X4513Y20357I-137J0D01*
G74*
G01*
G54D17*
X5250Y17950D02*
G75*
G03X5250Y17950I-120J0D01*
G74*
G01*
X4405Y18650D02*
X4405Y17850D01*
X4895Y18650D02*
X4895Y17855D01*
X4515Y17850D02*
X4405Y17850D01*
X4785Y17855D02*
X4885Y17855D01*
X4515Y18650D02*
X4405Y18650D01*
X4895Y18650D02*
X4785Y18650D01*
G54D18*
X4532Y18054D02*
X4404Y18054D01*
X4777Y18054D02*
X4718Y18054D01*
X4582Y18054D02*
X4523Y18054D01*
X4728Y18054D02*
X4572Y18054D01*
X4532Y18446D02*
X4404Y18446D01*
X4896Y18446D02*
X4768Y18446D01*
X4582Y18446D02*
X4523Y18446D01*
X4777Y18446D02*
X4718Y18446D01*
X4728Y18446D02*
X4572Y18446D01*
X4689Y18290D02*
X4611Y18290D01*
X4611Y18290D02*
X4611Y18212D01*
X4689Y18212D02*
X4611Y18212D01*
X4689Y18290D02*
X4689Y18212D01*
X4886Y18054D02*
X4768Y18054D01*
G54D19*
X4865Y17941D02*
G75*
G03X4865Y17941I-28J0D01*
G74*
G01*
G54D20*
X4787Y17857D02*
G75*
G03X4513Y17857I-137J0D01*
G74*
G01*
X4513Y18643D02*
G75*
G03X4787Y18643I137J0D01*
G74*
G01*
G54D17*
X4290Y25050D02*
G75*
G03X4290Y25050I-120J0D01*
G74*
G01*
X4895Y24350D02*
X4895Y25150D01*
X4405Y24350D02*
X4405Y25145D01*
X4785Y25150D02*
X4895Y25150D01*
X4515Y25145D02*
X4415Y25145D01*
X4785Y24350D02*
X4895Y24350D01*
X4405Y24350D02*
X4515Y24350D01*
G54D18*
X4768Y24946D02*
X4896Y24946D01*
X4523Y24946D02*
X4582Y24946D01*
X4718Y24946D02*
X4777Y24946D01*
X4572Y24946D02*
X4728Y24946D01*
X4768Y24554D02*
X4896Y24554D01*
X4404Y24554D02*
X4532Y24554D01*
X4718Y24554D02*
X4777Y24554D01*
X4523Y24554D02*
X4582Y24554D01*
X4572Y24554D02*
X4728Y24554D01*
X4611Y24710D02*
X4689Y24710D01*
X4689Y24710D02*
X4689Y24788D01*
X4611Y24788D02*
X4689Y24788D01*
X4611Y24710D02*
X4611Y24788D01*
X4414Y24946D02*
X4532Y24946D01*
G54D19*
X4491Y25059D02*
G75*
G03X4491Y25059I-28J0D01*
G74*
G01*
G54D20*
X4513Y25143D02*
G75*
G03X4787Y25143I137J0D01*
G74*
G01*
X4787Y24357D02*
G75*
G03X4513Y24357I-137J0D01*
G74*
G01*
G54D15*
X32250Y6300D02*
X32250Y5700D01*
X32300Y5550D02*
X32300Y6450D01*
X32350Y6550D02*
X32350Y5450D01*
X32400Y5350D02*
X32400Y6650D01*
X32450Y6700D02*
X32450Y5300D01*
X34600Y6000D02*
G75*
G03X34600Y6000I-1200J0D01*
G74*
G01*
X32100Y7300D02*
X32100Y4700D01*
X32100Y4700D02*
X34400Y4700D01*
X34400Y4700D02*
X34700Y5000D01*
X34700Y5000D02*
X34700Y7000D01*
X34700Y7000D02*
X34400Y7300D01*
X34400Y7300D02*
X32100Y7300D01*
X34250Y6000D02*
X33950Y6000D01*
X34100Y6150D02*
X34100Y5850D01*
X8700Y11400D02*
X8100Y11400D01*
X7950Y11350D02*
X8850Y11350D01*
X8950Y11300D02*
X7850Y11300D01*
X7750Y11250D02*
X9050Y11250D01*
X9100Y11200D02*
X7700Y11200D01*
X9600Y10250D02*
G75*
G03X9600Y10250I-1200J0D01*
G74*
G01*
X9700Y11550D02*
X7100Y11550D01*
X7100Y11550D02*
X7100Y9250D01*
X7100Y9250D02*
X7400Y8950D01*
X7400Y8950D02*
X9400Y8950D01*
X9400Y8950D02*
X9700Y9250D01*
X9700Y9250D02*
X9700Y11550D01*
X8400Y9400D02*
X8400Y9700D01*
X8550Y9550D02*
X8250Y9550D01*
X20800Y27200D02*
X20800Y27800D01*
X20750Y27950D02*
X20750Y27050D01*
X20700Y26950D02*
X20700Y28050D01*
X20650Y28150D02*
X20650Y26850D01*
X20600Y26800D02*
X20600Y28200D01*
X20850Y27500D02*
G75*
G03X20850Y27500I-1200J0D01*
G74*
G01*
X20950Y26200D02*
X20950Y28800D01*
X20950Y28800D02*
X18650Y28800D01*
X18650Y28800D02*
X18350Y28500D01*
X18350Y28500D02*
X18350Y26500D01*
X18350Y26500D02*
X18650Y26200D01*
X18650Y26200D02*
X20950Y26200D01*
X18800Y27500D02*
X19100Y27500D01*
X18950Y27350D02*
X18950Y27650D01*
X12800Y27200D02*
X12800Y27800D01*
X12750Y27950D02*
X12750Y27050D01*
X12700Y26950D02*
X12700Y28050D01*
X12650Y28150D02*
X12650Y26850D01*
X12600Y26800D02*
X12600Y28200D01*
X12850Y27500D02*
G75*
G03X12850Y27500I-1200J0D01*
G74*
G01*
X12950Y26200D02*
X12950Y28800D01*
X12950Y28800D02*
X10650Y28800D01*
X10650Y28800D02*
X10350Y28500D01*
X10350Y28500D02*
X10350Y26500D01*
X10350Y26500D02*
X10650Y26200D01*
X10650Y26200D02*
X12950Y26200D01*
X10800Y27500D02*
X11100Y27500D01*
X10950Y27350D02*
X10950Y27650D01*
X25250Y6300D02*
X25250Y5700D01*
X25300Y5550D02*
X25300Y6450D01*
X25350Y6550D02*
X25350Y5450D01*
X25400Y5350D02*
X25400Y6650D01*
X25450Y6700D02*
X25450Y5300D01*
X27600Y6000D02*
G75*
G03X27600Y6000I-1200J0D01*
G74*
G01*
X25100Y7300D02*
X25100Y4700D01*
X25100Y4700D02*
X27400Y4700D01*
X27400Y4700D02*
X27700Y5000D01*
X27700Y5000D02*
X27700Y7000D01*
X27700Y7000D02*
X27400Y7300D01*
X27400Y7300D02*
X25100Y7300D01*
X27250Y6000D02*
X26950Y6000D01*
X27100Y6150D02*
X27100Y5850D01*
X21550Y5700D02*
X21550Y6300D01*
X21500Y6450D02*
X21500Y5550D01*
X21450Y5450D02*
X21450Y6550D01*
X21400Y6650D02*
X21400Y5350D01*
X21350Y5300D02*
X21350Y6700D01*
X21600Y6000D02*
G75*
G03X21600Y6000I-1200J0D01*
G74*
G01*
X21700Y4700D02*
X21700Y7300D01*
X21700Y7300D02*
X19400Y7300D01*
X19400Y7300D02*
X19100Y7000D01*
X19100Y7000D02*
X19100Y5000D01*
X19100Y5000D02*
X19400Y4700D01*
X19400Y4700D02*
X21700Y4700D01*
X19550Y6000D02*
X19850Y6000D01*
X19700Y5850D02*
X19700Y6150D01*
X19050Y12250D02*
X18750Y12250D01*
X18900Y12400D02*
X18900Y12100D01*
X19000Y11350D02*
X17500Y11350D01*
X19300Y12850D02*
X19300Y11650D01*
X19000Y11350D02*
X19300Y11650D01*
X19000Y13150D02*
X17500Y13150D01*
X19000Y13150D02*
X19300Y12850D01*
X17600Y12200D02*
X17600Y12300D01*
X17650Y12500D02*
X17650Y12000D01*
X17700Y11900D02*
X17700Y12600D01*
X17750Y11800D02*
X17750Y12700D01*
X17800Y12750D02*
X17800Y11750D01*
X17850Y11700D02*
X17850Y12800D01*
X17900Y12850D02*
X17900Y11650D01*
X17950Y12900D02*
X17950Y11600D01*
X19200Y12250D02*
G75*
G03X19200Y12250I-800J0D01*
G74*
G01*
X17500Y13150D02*
X17500Y11350D01*
X19050Y16250D02*
X18750Y16250D01*
X18900Y16400D02*
X18900Y16100D01*
X19000Y15350D02*
X17500Y15350D01*
X19300Y16850D02*
X19300Y15650D01*
X19000Y15350D02*
X19300Y15650D01*
X19000Y17150D02*
X17500Y17150D01*
X19000Y17150D02*
X19300Y16850D01*
X17600Y16200D02*
X17600Y16300D01*
X17650Y16500D02*
X17650Y16000D01*
X17700Y15900D02*
X17700Y16600D01*
X17750Y15800D02*
X17750Y16700D01*
X17800Y16750D02*
X17800Y15750D01*
X17850Y15700D02*
X17850Y16800D01*
X17900Y16850D02*
X17900Y15650D01*
X17950Y16900D02*
X17950Y15600D01*
X19200Y16250D02*
G75*
G03X19200Y16250I-800J0D01*
G74*
G01*
X17500Y17150D02*
X17500Y15350D01*
X19050Y14250D02*
X18750Y14250D01*
X18900Y14400D02*
X18900Y14100D01*
X19000Y13350D02*
X17500Y13350D01*
X19300Y14850D02*
X19300Y13650D01*
X19000Y13350D02*
X19300Y13650D01*
X19000Y15150D02*
X17500Y15150D01*
X19000Y15150D02*
X19300Y14850D01*
X17600Y14200D02*
X17600Y14300D01*
X17650Y14500D02*
X17650Y14000D01*
X17700Y13900D02*
X17700Y14600D01*
X17750Y13800D02*
X17750Y14700D01*
X17800Y14750D02*
X17800Y13750D01*
X17850Y13700D02*
X17850Y14800D01*
X17900Y14850D02*
X17900Y13650D01*
X17950Y14900D02*
X17950Y13600D01*
X19200Y14250D02*
G75*
G03X19200Y14250I-800J0D01*
G74*
G01*
X17500Y15150D02*
X17500Y13350D01*
G54D13*
X10150Y15100D02*
X9150Y15100D01*
X9150Y15000D02*
X10150Y15000D01*
X9150Y13500D02*
X10150Y13500D01*
X9150Y15500D02*
X10150Y15500D01*
X9150Y13500D02*
X9150Y15500D01*
X10150Y15500D02*
X10150Y13500D01*
X9650Y16400D02*
X9650Y15500D01*
X9650Y13500D02*
X9650Y12600D01*
G54D12*
X9150Y15750D02*
X9150Y15500D01*
X9150Y15500D02*
X5150Y15500D01*
X5150Y15500D02*
X5150Y15750D01*
X9150Y17250D02*
X9150Y15750D01*
X9150Y15750D02*
X5150Y15750D01*
X5150Y15750D02*
X5150Y17250D01*
X5150Y17250D02*
X9150Y17250D01*
X9150Y25250D02*
X9150Y25000D01*
X9150Y25000D02*
X5150Y25000D01*
X5150Y25000D02*
X5150Y25250D01*
X9150Y26750D02*
X9150Y25250D01*
X9150Y25250D02*
X5150Y25250D01*
X5150Y25250D02*
X5150Y26750D01*
X5150Y26750D02*
X9150Y26750D01*
X9150Y19250D02*
X9150Y19000D01*
X9150Y19000D02*
X5150Y19000D01*
X5150Y19000D02*
X5150Y19250D01*
X9150Y20750D02*
X9150Y19250D01*
X9150Y19250D02*
X5150Y19250D01*
X5150Y19250D02*
X5150Y20750D01*
X5150Y20750D02*
X9150Y20750D01*
G54D15*
X7550Y27650D02*
X8750Y27650D01*
X8750Y27650D02*
X8750Y27350D01*
X8750Y27350D02*
X7550Y27350D01*
X7550Y27350D02*
X7550Y27650D01*
G54D21*
G36*
X22322Y18532D02*
X22345Y18544D01*
X22396Y18576D01*
X22469Y18624D01*
X22556Y18682D01*
X22643Y18741D01*
X22714Y18789D01*
X22764Y18821D01*
X22785Y18832D01*
X22796Y18828D01*
X22837Y18808D01*
X22897Y18777D01*
X22932Y18759D01*
X22987Y18736D01*
X23014Y18731D01*
X23019Y18738D01*
X23039Y18780D01*
X23070Y18852D01*
X23112Y18947D01*
X23159Y19058D01*
X23210Y19178D01*
X23261Y19300D01*
X23309Y19417D01*
X23352Y19522D01*
X23386Y19607D01*
X23409Y19666D01*
X23417Y19692D01*
X23415Y19697D01*
X23387Y19724D01*
X23339Y19760D01*
X23236Y19844D01*
X23133Y19972D01*
X23071Y20117D01*
X23050Y20278D01*
X23068Y20428D01*
X23127Y20572D01*
X23227Y20701D01*
X23348Y20797D01*
X23490Y20858D01*
X23650Y20877D01*
X23803Y20860D01*
X23949Y20802D01*
X24079Y20704D01*
X24133Y20641D01*
X24208Y20510D01*
X24251Y20370D01*
X24256Y20334D01*
X24249Y20180D01*
X24204Y20033D01*
X24123Y19901D01*
X24010Y19793D01*
X23996Y19782D01*
X23943Y19743D01*
X23908Y19716D01*
X23881Y19694D01*
X24077Y19222D01*
X24108Y19147D01*
X24162Y19018D01*
X24209Y18907D01*
X24247Y18819D01*
X24273Y18760D01*
X24285Y18736D01*
X24286Y18735D01*
X24303Y18732D01*
X24339Y18745D01*
X24405Y18777D01*
X24449Y18799D01*
X24499Y18823D01*
X24521Y18832D01*
X24540Y18822D01*
X24588Y18791D01*
X24658Y18744D01*
X24743Y18686D01*
X24823Y18632D01*
X24897Y18583D01*
X24951Y18549D01*
X24977Y18535D01*
X24981Y18535D01*
X25004Y18548D01*
X25046Y18583D01*
X25111Y18644D01*
X25202Y18734D01*
X25216Y18747D01*
X25290Y18823D01*
X25351Y18887D01*
X25392Y18932D01*
X25406Y18953D01*
X25406Y18953D01*
X25393Y18979D01*
X25359Y19032D01*
X25310Y19107D01*
X25250Y19195D01*
X25094Y19422D01*
X25180Y19636D01*
X25206Y19701D01*
X25240Y19781D01*
X25265Y19838D01*
X25277Y19863D01*
X25301Y19871D01*
X25359Y19885D01*
X25444Y19903D01*
X25546Y19922D01*
X25642Y19939D01*
X25729Y19956D01*
X25793Y19968D01*
X25821Y19974D01*
X25828Y19978D01*
X25833Y19991D01*
X25837Y20021D01*
X25839Y20074D01*
X25840Y20158D01*
X25840Y20278D01*
X25840Y20291D01*
X25839Y20407D01*
X25837Y20498D01*
X25834Y20559D01*
X25830Y20582D01*
X25830Y20583D01*
X25803Y20589D01*
X25741Y20602D01*
X25654Y20619D01*
X25550Y20639D01*
X25543Y20640D01*
X25440Y20660D01*
X25353Y20678D01*
X25292Y20692D01*
X25266Y20700D01*
X25261Y20708D01*
X25240Y20748D01*
X25210Y20812D01*
X25176Y20891D01*
X25142Y20972D01*
X25113Y21045D01*
X25093Y21100D01*
X25087Y21125D01*
X25088Y21125D01*
X25103Y21150D01*
X25139Y21204D01*
X25189Y21279D01*
X25250Y21367D01*
X25254Y21373D01*
X25314Y21461D01*
X25362Y21535D01*
X25394Y21588D01*
X25406Y21612D01*
X25406Y21613D01*
X25386Y21639D01*
X25342Y21689D01*
X25278Y21756D01*
X25201Y21833D01*
X25177Y21857D01*
X25092Y21940D01*
X25032Y21995D01*
X24996Y22024D01*
X24978Y22030D01*
X24977Y22030D01*
X24951Y22014D01*
X24896Y21978D01*
X24821Y21927D01*
X24732Y21866D01*
X24726Y21862D01*
X24638Y21803D01*
X24565Y21753D01*
X24513Y21719D01*
X24491Y21705D01*
X24487Y21705D01*
X24451Y21716D01*
X24389Y21738D01*
X24312Y21767D01*
X24231Y21800D01*
X24158Y21831D01*
X24102Y21856D01*
X24076Y21871D01*
X24076Y21872D01*
X24066Y21903D01*
X24051Y21969D01*
X24033Y22059D01*
X24012Y22166D01*
X24009Y22184D01*
X23989Y22288D01*
X23972Y22374D01*
X23960Y22434D01*
X23954Y22458D01*
X23939Y22462D01*
X23888Y22466D01*
X23810Y22468D01*
X23716Y22469D01*
X23617Y22468D01*
X23520Y22466D01*
X23437Y22463D01*
X23378Y22459D01*
X23354Y22454D01*
X23353Y22453D01*
X23344Y22420D01*
X23329Y22355D01*
X23311Y22264D01*
X23290Y22156D01*
X23286Y22137D01*
X23267Y22033D01*
X23249Y21948D01*
X23237Y21889D01*
X23230Y21866D01*
X23221Y21861D01*
X23178Y21842D01*
X23108Y21813D01*
X23022Y21778D01*
X22821Y21697D01*
X22575Y21866D01*
X22552Y21881D01*
X22464Y21941D01*
X22391Y21990D01*
X22341Y22022D01*
X22320Y22034D01*
X22318Y22033D01*
X22294Y22012D01*
X22245Y21966D01*
X22178Y21901D01*
X22101Y21824D01*
X22044Y21767D01*
X21976Y21698D01*
X21933Y21652D01*
X21910Y21622D01*
X21901Y21604D01*
X21903Y21592D01*
X21919Y21567D01*
X21955Y21513D01*
X22006Y21438D01*
X22066Y21351D01*
X22115Y21279D01*
X22168Y21196D01*
X22203Y21137D01*
X22215Y21108D01*
X22212Y21096D01*
X22195Y21048D01*
X22166Y20975D01*
X22129Y20889D01*
X22043Y20694D01*
X21916Y20669D01*
X21838Y20655D01*
X21730Y20634D01*
X21627Y20614D01*
X21465Y20583D01*
X21459Y19989D01*
X21484Y19978D01*
X21508Y19972D01*
X21568Y19958D01*
X21654Y19941D01*
X21754Y19922D01*
X21840Y19906D01*
X21927Y19890D01*
X21989Y19878D01*
X22017Y19872D01*
X22024Y19863D01*
X22045Y19821D01*
X22076Y19754D01*
X22110Y19674D01*
X22145Y19591D01*
X22175Y19514D01*
X22197Y19456D01*
X22205Y19425D01*
X22193Y19403D01*
X22160Y19352D01*
X22112Y19279D01*
X22054Y19193D01*
X21995Y19107D01*
X21945Y19034D01*
X21911Y18981D01*
X21896Y18957D01*
X21903Y18940D01*
X21938Y18899D01*
X22003Y18831D01*
X22099Y18736D01*
X22115Y18721D01*
X22192Y18647D01*
X22257Y18587D01*
X22302Y18547D01*
X22322Y18532D01*
X22322Y18532D01*
G37*
G54D17*
X15790Y21550D02*
G75*
G03X15790Y21550I-120J0D01*
G74*
G01*
X16395Y20850D02*
X16395Y21650D01*
X15905Y20850D02*
X15905Y21645D01*
X16285Y21650D02*
X16395Y21650D01*
X16015Y21645D02*
X15915Y21645D01*
X16285Y20850D02*
X16395Y20850D01*
X15905Y20850D02*
X16015Y20850D01*
G54D18*
X16268Y21446D02*
X16396Y21446D01*
X16023Y21446D02*
X16082Y21446D01*
X16218Y21446D02*
X16277Y21446D01*
X16072Y21446D02*
X16228Y21446D01*
X16268Y21054D02*
X16396Y21054D01*
X15904Y21054D02*
X16032Y21054D01*
X16218Y21054D02*
X16277Y21054D01*
X16023Y21054D02*
X16082Y21054D01*
X16072Y21054D02*
X16228Y21054D01*
X16111Y21210D02*
X16189Y21210D01*
X16189Y21210D02*
X16189Y21288D01*
X16111Y21288D02*
X16189Y21288D01*
X16111Y21210D02*
X16111Y21288D01*
X15914Y21446D02*
X16032Y21446D01*
G54D19*
X15991Y21559D02*
G75*
G03X15991Y21559I-28J0D01*
G74*
G01*
G54D20*
X16013Y21643D02*
G75*
G03X16287Y21643I137J0D01*
G74*
G01*
X16287Y20857D02*
G75*
G03X16013Y20857I-137J0D01*
G74*
G01*
G54D15*
X29250Y9350D02*
G75*
G03X29250Y9350I-50J0D01*
G74*
G01*
X29200Y9800D02*
X29200Y9400D01*
X29200Y9400D02*
X28600Y9400D01*
X28600Y9400D02*
X28600Y9800D01*
X28600Y10200D02*
X28600Y10600D01*
X28600Y10600D02*
X29200Y10600D01*
X29200Y10600D02*
X29200Y10200D01*
G54D12*
X9150Y28250D02*
X9150Y28000D01*
X9150Y28000D02*
X5150Y28000D01*
X5150Y28000D02*
X5150Y28250D01*
X9150Y29750D02*
X9150Y28250D01*
X9150Y28250D02*
X5150Y28250D01*
X5150Y28250D02*
X5150Y29750D01*
X5150Y29750D02*
X9150Y29750D01*
G54D15*
X8050Y30650D02*
X9250Y30650D01*
X9250Y30650D02*
X9250Y30350D01*
X9250Y30350D02*
X8050Y30350D01*
X8050Y30350D02*
X8050Y30650D01*
X7750Y29850D02*
G75*
G03X7750Y29850I-50J0D01*
G74*
G01*
X7700Y30300D02*
X7700Y29900D01*
X7700Y29900D02*
X7100Y29900D01*
X7100Y29900D02*
X7100Y30300D01*
X7100Y30700D02*
X7100Y31100D01*
X7100Y31100D02*
X7700Y31100D01*
X7700Y31100D02*
X7700Y30700D01*
X6600Y27550D02*
G75*
G03X6600Y27550I-50J0D01*
G74*
G01*
X6100Y27550D02*
X6500Y27550D01*
X6500Y27550D02*
X6500Y26950D01*
X6500Y26950D02*
X6100Y26950D01*
X5700Y26950D02*
X5300Y26950D01*
X5300Y26950D02*
X5300Y27550D01*
X5300Y27550D02*
X5700Y27550D01*
G54D13*
X-1722Y4118D02*
X-1722Y8882D01*
X2687Y8882D02*
X2687Y4118D01*
X2687Y4118D02*
X-2037Y4118D01*
X-2037Y8882D02*
X-2037Y4118D01*
X2687Y8882D02*
X-2037Y8882D01*
G54D17*
X4290Y28050D02*
G75*
G03X4290Y28050I-120J0D01*
G74*
G01*
X4895Y27350D02*
X4895Y28150D01*
X4405Y27350D02*
X4405Y28145D01*
X4785Y28150D02*
X4895Y28150D01*
X4515Y28145D02*
X4415Y28145D01*
X4785Y27350D02*
X4895Y27350D01*
X4405Y27350D02*
X4515Y27350D01*
G54D18*
X4768Y27946D02*
X4896Y27946D01*
X4523Y27946D02*
X4582Y27946D01*
X4718Y27946D02*
X4777Y27946D01*
X4572Y27946D02*
X4728Y27946D01*
X4768Y27554D02*
X4896Y27554D01*
X4404Y27554D02*
X4532Y27554D01*
X4718Y27554D02*
X4777Y27554D01*
X4523Y27554D02*
X4582Y27554D01*
X4572Y27554D02*
X4728Y27554D01*
X4611Y27710D02*
X4689Y27710D01*
X4689Y27710D02*
X4689Y27788D01*
X4611Y27788D02*
X4689Y27788D01*
X4611Y27710D02*
X4611Y27788D01*
X4414Y27946D02*
X4532Y27946D01*
G54D19*
X4491Y28059D02*
G75*
G03X4491Y28059I-28J0D01*
G74*
G01*
G54D20*
X4513Y28143D02*
G75*
G03X4787Y28143I137J0D01*
G74*
G01*
X4787Y27357D02*
G75*
G03X4513Y27357I-137J0D01*
G74*
G01*
G54D14*
X17400Y2500D02*
X17400Y2000D01*
X17400Y2000D02*
X14400Y2000D01*
X14400Y2000D02*
X14400Y2500D01*
X17900Y0D02*
X17900Y2500D01*
X17900Y2500D02*
X13900Y2500D01*
X13900Y2500D02*
X13900Y0D01*
X13900Y0D02*
X17900Y0D01*
X24900Y2500D02*
X24900Y2000D01*
X24900Y2000D02*
X21900Y2000D01*
X21900Y2000D02*
X21900Y2500D01*
X25400Y0D02*
X25400Y2500D01*
X25400Y2500D02*
X21400Y2500D01*
X21400Y2500D02*
X21400Y0D01*
X21400Y0D02*
X25400Y0D01*
X32900Y2500D02*
X32900Y2000D01*
X32900Y2000D02*
X29900Y2000D01*
X29900Y2000D02*
X29900Y2500D01*
X33400Y0D02*
X33400Y2500D01*
X33400Y2500D02*
X29400Y2500D01*
X29400Y2500D02*
X29400Y0D01*
X29400Y0D02*
X33400Y0D01*
X11900Y31750D02*
X11900Y32250D01*
X11900Y32250D02*
X14900Y32250D01*
X14900Y32250D02*
X14900Y31750D01*
X11400Y34250D02*
X11400Y31750D01*
X11400Y31750D02*
X15400Y31750D01*
X15400Y31750D02*
X15400Y34250D01*
X15400Y34250D02*
X11400Y34250D01*
G54D15*
X20150Y18400D02*
G75*
G03X20150Y18400I-50J0D01*
G74*
G01*
X20100Y17950D02*
X20100Y18350D01*
X20100Y18350D02*
X20700Y18350D01*
X20700Y18350D02*
X20700Y17950D01*
X20700Y17550D02*
X20700Y17150D01*
X20700Y17150D02*
X20100Y17150D01*
X20100Y17150D02*
X20100Y17550D01*
G54D11*
X12400Y4750D02*
X12400Y5750D01*
X11400Y5750D02*
X14400Y5750D01*
X14400Y5750D02*
X14400Y4750D01*
X14400Y4750D02*
X11400Y4750D01*
X11400Y4750D02*
X11400Y5750D01*
G54D15*
X19050Y18250D02*
X18750Y18250D01*
X18900Y18400D02*
X18900Y18100D01*
X19000Y17350D02*
X17500Y17350D01*
X19300Y18850D02*
X19300Y17650D01*
X19000Y17350D02*
X19300Y17650D01*
X19000Y19150D02*
X17500Y19150D01*
X19000Y19150D02*
X19300Y18850D01*
X17600Y18200D02*
X17600Y18300D01*
X17650Y18500D02*
X17650Y18000D01*
X17700Y17900D02*
X17700Y18600D01*
X17750Y17800D02*
X17750Y18700D01*
X17800Y18750D02*
X17800Y17750D01*
X17850Y17700D02*
X17850Y18800D01*
X17900Y18850D02*
X17900Y17650D01*
X17950Y18900D02*
X17950Y17600D01*
X19200Y18250D02*
G75*
G03X19200Y18250I-800J0D01*
G74*
G01*
X17500Y19150D02*
X17500Y17350D01*
G54D11*
X36900Y24000D02*
X36900Y28000D01*
X36900Y28000D02*
X38900Y28000D01*
X38900Y28000D02*
X38900Y24000D01*
X37900Y24000D02*
X37900Y25000D01*
X37900Y25000D02*
X38900Y25000D01*
X36900Y24000D02*
X38900Y24000D01*
G54D15*
X21750Y17100D02*
G75*
G03X21750Y17100I-50J0D01*
G74*
G01*
X21700Y17550D02*
X21700Y17150D01*
X21700Y17150D02*
X21100Y17150D01*
X21100Y17150D02*
X21100Y17550D01*
X21100Y17950D02*
X21100Y18350D01*
X21100Y18350D02*
X21700Y18350D01*
X21700Y18350D02*
X21700Y17950D01*
X21750Y15350D02*
G75*
G03X21750Y15350I-50J0D01*
G74*
G01*
X21700Y15800D02*
X21700Y15400D01*
X21700Y15400D02*
X21100Y15400D01*
X21100Y15400D02*
X21100Y15800D01*
X21100Y16200D02*
X21100Y16600D01*
X21100Y16600D02*
X21700Y16600D01*
X21700Y16600D02*
X21700Y16200D01*
X21750Y11350D02*
G75*
G03X21750Y11350I-50J0D01*
G74*
G01*
X21700Y11800D02*
X21700Y11400D01*
X21700Y11400D02*
X21100Y11400D01*
X21100Y11400D02*
X21100Y11800D01*
X21100Y12200D02*
X21100Y12600D01*
X21100Y12600D02*
X21700Y12600D01*
X21700Y12600D02*
X21700Y12200D01*
X21750Y13350D02*
G75*
G03X21750Y13350I-50J0D01*
G74*
G01*
X21700Y13800D02*
X21700Y13400D01*
X21700Y13400D02*
X21100Y13400D01*
X21100Y13400D02*
X21100Y13800D01*
X21100Y14200D02*
X21100Y14600D01*
X21100Y14600D02*
X21700Y14600D01*
X21700Y14600D02*
X21700Y14200D01*
X22150Y18400D02*
G75*
G03X22150Y18400I-50J0D01*
G74*
G01*
X22100Y17950D02*
X22100Y18350D01*
X22100Y18350D02*
X22700Y18350D01*
X22700Y18350D02*
X22700Y17950D01*
X22700Y17550D02*
X22700Y17150D01*
X22700Y17150D02*
X22100Y17150D01*
X22100Y17150D02*
X22100Y17550D01*
X22150Y16650D02*
G75*
G03X22150Y16650I-50J0D01*
G74*
G01*
X22100Y16200D02*
X22100Y16600D01*
X22100Y16600D02*
X22700Y16600D01*
X22700Y16600D02*
X22700Y16200D01*
X22700Y15800D02*
X22700Y15400D01*
X22700Y15400D02*
X22100Y15400D01*
X22100Y15400D02*
X22100Y15800D01*
X22150Y12650D02*
G75*
G03X22150Y12650I-50J0D01*
G74*
G01*
X22100Y12200D02*
X22100Y12600D01*
X22100Y12600D02*
X22700Y12600D01*
X22700Y12600D02*
X22700Y12200D01*
X22700Y11800D02*
X22700Y11400D01*
X22700Y11400D02*
X22100Y11400D01*
X22100Y11400D02*
X22100Y11800D01*
X22150Y14650D02*
G75*
G03X22150Y14650I-50J0D01*
G74*
G01*
X22100Y14200D02*
X22100Y14600D01*
X22100Y14600D02*
X22700Y14600D01*
X22700Y14600D02*
X22700Y14200D01*
X22700Y13800D02*
X22700Y13400D01*
X22700Y13400D02*
X22100Y13400D01*
X22100Y13400D02*
X22100Y13800D01*
G54D13*
X400Y18500D02*
X100Y18500D01*
X100Y18500D02*
X100Y14500D01*
X100Y14500D02*
X400Y14500D01*
X3700Y18500D02*
X3700Y14500D01*
X3700Y14500D02*
X3300Y14500D01*
X3300Y14500D02*
X3300Y18500D01*
X3300Y18500D02*
X3700Y18500D01*
X3400Y18500D02*
X400Y18500D01*
X400Y14500D02*
X3400Y14500D01*
X-1722Y118D02*
X-1722Y4882D01*
X2687Y4882D02*
X2687Y118D01*
X2687Y118D02*
X-2037Y118D01*
X-2037Y4882D02*
X-2037Y118D01*
X2687Y4882D02*
X-2037Y4882D01*
G54D15*
X38031Y1250D02*
G75*
G03X38031Y1250I-630J0D01*
G74*
G01*
X38582Y69D02*
X38582Y2431D01*
X38581Y2431D02*
X36219Y2431D01*
X36219Y2430D02*
X36219Y68D01*
X36219Y69D02*
X38581Y69D01*
X7550Y18400D02*
X8750Y18400D01*
X8750Y18400D02*
X8750Y18100D01*
X8750Y18100D02*
X7550Y18100D01*
X7550Y18100D02*
X7550Y18400D01*
X7550Y21650D02*
X8750Y21650D01*
X8750Y21650D02*
X8750Y21350D01*
X8750Y21350D02*
X7550Y21350D01*
X7550Y21350D02*
X7550Y21650D01*
X27650Y10650D02*
G75*
G03X27650Y10650I-50J0D01*
G74*
G01*
X27600Y10200D02*
X27600Y10600D01*
X27600Y10600D02*
X28200Y10600D01*
X28200Y10600D02*
X28200Y10200D01*
X28200Y9800D02*
X28200Y9400D01*
X28200Y9400D02*
X27600Y9400D01*
X27600Y9400D02*
X27600Y9800D01*
X10600Y18050D02*
G75*
G03X10600Y18050I-50J0D01*
G74*
G01*
X10100Y18050D02*
X10500Y18050D01*
X10500Y18050D02*
X10500Y17450D01*
X10500Y17450D02*
X10100Y17450D01*
X9700Y17450D02*
X9300Y17450D01*
X9300Y17450D02*
X9300Y18050D01*
X9300Y18050D02*
X9700Y18050D01*
X10600Y20800D02*
G75*
G03X10600Y20800I-50J0D01*
G74*
G01*
X10100Y20800D02*
X10500Y20800D01*
X10500Y20800D02*
X10500Y20200D01*
X10500Y20200D02*
X10100Y20200D01*
X9700Y20200D02*
X9300Y20200D01*
X9300Y20200D02*
X9300Y20800D01*
X9300Y20800D02*
X9700Y20800D01*
G54D16*
X37900Y30500D02*
X38900Y30500D01*
X38900Y30500D02*
X38900Y28500D01*
X38900Y28500D02*
X37900Y28500D01*
X37900Y28500D02*
X37900Y30500D01*
G54D14*
X21900Y31750D02*
X21900Y32250D01*
X21900Y32250D02*
X24900Y32250D01*
X24900Y32250D02*
X24900Y31750D01*
X21400Y34250D02*
X21400Y31750D01*
X21400Y31750D02*
X25400Y31750D01*
X25400Y31750D02*
X25400Y34250D01*
X25400Y34250D02*
X21400Y34250D01*
X26900Y31750D02*
X26900Y32250D01*
X26900Y32250D02*
X29900Y32250D01*
X29900Y32250D02*
X29900Y31750D01*
X26400Y34250D02*
X26400Y31750D01*
X26400Y31750D02*
X30400Y31750D01*
X30400Y31750D02*
X30400Y34250D01*
X30400Y34250D02*
X26400Y34250D01*
G54D15*
X23500Y27800D02*
X23500Y27200D01*
X23550Y27050D02*
X23550Y27950D01*
X23600Y28050D02*
X23600Y26950D01*
X23650Y26850D02*
X23650Y28150D01*
X23700Y28200D02*
X23700Y26800D01*
X25850Y27500D02*
G75*
G03X25850Y27500I-1200J0D01*
G74*
G01*
X23350Y28800D02*
X23350Y26200D01*
X23350Y26200D02*
X25650Y26200D01*
X25650Y26200D02*
X25950Y26500D01*
X25950Y26500D02*
X25950Y28500D01*
X25950Y28500D02*
X25650Y28800D01*
X25650Y28800D02*
X23350Y28800D01*
X25500Y27500D02*
X25200Y27500D01*
X25350Y27650D02*
X25350Y27350D01*
G54D12*
X26100Y23300D02*
X26400Y23800D01*
X26400Y23800D02*
X26650Y23300D01*
X26650Y23300D02*
X26150Y23300D01*
X25900Y30000D02*
X33900Y30000D01*
X33900Y30000D02*
X33900Y24000D01*
X33900Y24000D02*
X25900Y24000D01*
X25900Y24000D02*
X25900Y30000D01*
G54D14*
X21400Y20250D02*
X18400Y20250D01*
X18400Y22250D02*
X21400Y22250D01*
X21400Y22250D02*
X21400Y20250D01*
X18400Y20250D02*
X18400Y22250D01*
G54D11*
X25900Y15500D02*
X25900Y12500D01*
X25900Y12500D02*
X23900Y12500D01*
X23900Y12500D02*
X23900Y15500D01*
X24900Y15500D02*
X24900Y14500D01*
X24900Y14500D02*
X23900Y14500D01*
X25900Y15500D02*
X23900Y15500D01*
G54D15*
X12450Y12500D02*
X15350Y12500D01*
X15350Y17500D02*
X12450Y17500D01*
X12450Y12500D02*
X12450Y17500D01*
X15350Y17500D02*
X15350Y12500D01*
X14150Y17500D02*
X14150Y17000D01*
X14150Y17000D02*
X13650Y17000D01*
X13650Y17000D02*
X13650Y17500D01*
G54D14*
X24000Y17950D02*
X27800Y17950D01*
X27800Y17950D02*
X27800Y16450D01*
X27800Y16450D02*
X24000Y16450D01*
X24000Y16450D02*
X24000Y17950D01*
X24000Y17450D02*
X24300Y17450D01*
X24300Y17450D02*
X24300Y17050D01*
X24300Y17050D02*
X24000Y17050D01*
G54D15*
X14500Y17850D02*
G75*
G03X14500Y17850I-50J0D01*
G74*
G01*
X14450Y18300D02*
X14450Y17900D01*
X14450Y17900D02*
X13850Y17900D01*
X13850Y17900D02*
X13850Y18300D01*
X13850Y18700D02*
X13850Y19100D01*
X13850Y19100D02*
X14450Y19100D01*
X14450Y19100D02*
X14450Y18700D01*
X23150Y18400D02*
G75*
G03X23150Y18400I-50J0D01*
G74*
G01*
X23100Y17950D02*
X23100Y18350D01*
X23100Y18350D02*
X23700Y18350D01*
X23700Y18350D02*
X23700Y17950D01*
X23700Y17550D02*
X23700Y17150D01*
X23700Y17150D02*
X23100Y17150D01*
X23100Y17150D02*
X23100Y17550D01*
X10000Y31850D02*
G75*
G03X10000Y31850I-50J0D01*
G74*
G01*
X9950Y32300D02*
X9950Y31900D01*
X9950Y31900D02*
X9350Y31900D01*
X9350Y31900D02*
X9350Y32300D01*
X9350Y32700D02*
X9350Y33100D01*
X9350Y33100D02*
X9950Y33100D01*
X9950Y33100D02*
X9950Y32700D01*
X11000Y31850D02*
G75*
G03X11000Y31850I-50J0D01*
G74*
G01*
X10950Y32300D02*
X10950Y31900D01*
X10950Y31900D02*
X10350Y31900D01*
X10350Y31900D02*
X10350Y32300D01*
X10350Y32700D02*
X10350Y33100D01*
X10350Y33100D02*
X10950Y33100D01*
X10950Y33100D02*
X10950Y32700D01*
X7481Y32197D02*
X8819Y32197D01*
X8819Y31803D02*
X7481Y31803D01*
X7481Y31646D02*
X8819Y31646D01*
X8819Y32354D02*
X7481Y32354D01*
X7481Y31646D02*
X7481Y32354D01*
X8819Y31646D02*
X8819Y32354D01*
X7835Y31803D02*
X7835Y32197D01*
X8150Y31803D02*
X8150Y32197D01*
X8465Y31803D02*
X8465Y32197D01*
X7599Y31646D02*
X7599Y31803D01*
X7599Y32197D02*
X7599Y32354D01*
X7756Y31646D02*
X7756Y31803D01*
X7756Y32197D02*
X7756Y32354D01*
X7914Y32354D02*
X7914Y32197D01*
X7914Y31803D02*
X7914Y31646D01*
X8071Y31646D02*
X8071Y31803D01*
X8071Y32197D02*
X8071Y32354D01*
X8229Y32354D02*
X8229Y32197D01*
X8229Y31803D02*
X8229Y31646D01*
X8386Y31646D02*
X8386Y31803D01*
X8386Y32197D02*
X8386Y32354D01*
X8701Y32197D02*
X8701Y32354D01*
X8544Y32197D02*
X8544Y32354D01*
X8544Y31646D02*
X8544Y31803D01*
X8701Y31646D02*
X8701Y31803D01*
X12819Y18303D02*
X11481Y18303D01*
X11481Y18697D02*
X12819Y18697D01*
X12819Y18854D02*
X11481Y18854D01*
X11481Y18146D02*
X12819Y18146D01*
X12819Y18854D02*
X12819Y18146D01*
X11481Y18854D02*
X11481Y18146D01*
X12465Y18697D02*
X12465Y18303D01*
X12150Y18697D02*
X12150Y18303D01*
X11835Y18697D02*
X11835Y18303D01*
X12701Y18854D02*
X12701Y18697D01*
X12701Y18303D02*
X12701Y18146D01*
X12544Y18854D02*
X12544Y18697D01*
X12544Y18303D02*
X12544Y18146D01*
X12386Y18146D02*
X12386Y18303D01*
X12386Y18697D02*
X12386Y18854D01*
X12229Y18854D02*
X12229Y18697D01*
X12229Y18303D02*
X12229Y18146D01*
X12071Y18146D02*
X12071Y18303D01*
X12071Y18697D02*
X12071Y18854D01*
X11914Y18854D02*
X11914Y18697D01*
X11914Y18303D02*
X11914Y18146D01*
X11599Y18303D02*
X11599Y18146D01*
X11756Y18303D02*
X11756Y18146D01*
X11756Y18854D02*
X11756Y18697D01*
X11599Y18854D02*
X11599Y18697D01*
X16569Y18303D02*
X15231Y18303D01*
X15231Y18697D02*
X16569Y18697D01*
X16569Y18854D02*
X15231Y18854D01*
X15231Y18146D02*
X16569Y18146D01*
X16569Y18854D02*
X16569Y18146D01*
X15231Y18854D02*
X15231Y18146D01*
X16215Y18697D02*
X16215Y18303D01*
X15900Y18697D02*
X15900Y18303D01*
X15585Y18697D02*
X15585Y18303D01*
X16451Y18854D02*
X16451Y18697D01*
X16451Y18303D02*
X16451Y18146D01*
X16294Y18854D02*
X16294Y18697D01*
X16294Y18303D02*
X16294Y18146D01*
X16136Y18146D02*
X16136Y18303D01*
X16136Y18697D02*
X16136Y18854D01*
X15979Y18854D02*
X15979Y18697D01*
X15979Y18303D02*
X15979Y18146D01*
X15821Y18146D02*
X15821Y18303D01*
X15821Y18697D02*
X15821Y18854D01*
X15664Y18854D02*
X15664Y18697D01*
X15664Y18303D02*
X15664Y18146D01*
X15349Y18303D02*
X15349Y18146D01*
X15506Y18303D02*
X15506Y18146D01*
X15506Y18854D02*
X15506Y18697D01*
X15349Y18854D02*
X15349Y18697D01*
G54D11*
X35400Y29000D02*
X34400Y29000D01*
X34400Y30000D02*
X35400Y30000D01*
X35400Y30000D02*
X35400Y24000D01*
X35400Y24000D02*
X34400Y24000D01*
X34400Y24000D02*
X34400Y30000D01*
X8150Y34750D02*
X8150Y33750D01*
X11150Y33750D02*
X7150Y33750D01*
X7150Y34750D02*
X11150Y34750D01*
X7150Y33750D02*
X7150Y34750D01*
X11150Y34750D02*
X11150Y33750D01*
X13650Y9750D02*
X13650Y8750D01*
X14650Y8750D02*
X11650Y8750D01*
X11650Y8750D02*
X11650Y9750D01*
X11650Y9750D02*
X14650Y9750D01*
X14650Y9750D02*
X14650Y8750D01*
G54D16*
X15900Y4750D02*
X15900Y5750D01*
X15900Y5750D02*
X17900Y5750D01*
X17900Y5750D02*
X17900Y4750D01*
X17900Y4750D02*
X15900Y4750D01*
G54D13*
X9900Y8500D02*
X9650Y8500D01*
X9650Y8500D02*
X9650Y12000D01*
X9650Y12000D02*
X9900Y12000D01*
X11400Y8500D02*
X9900Y8500D01*
X9900Y8500D02*
X9900Y12000D01*
X9900Y12000D02*
X11400Y12000D01*
X11400Y12000D02*
X11400Y8500D01*
G54D14*
X32172Y15787D02*
X32172Y18937D01*
X32172Y18937D02*
X28628Y18937D01*
X28628Y18937D02*
X28628Y11063D01*
X28628Y11063D02*
X30400Y11063D01*
X30400Y11063D02*
X32172Y11063D01*
X32172Y11063D02*
X32172Y14213D01*
G54D11*
X29400Y12500D02*
X29400Y17500D01*
X29400Y17500D02*
X31400Y17500D01*
X31400Y17500D02*
X31400Y12500D01*
X31400Y12500D02*
X29400Y12500D01*
X36400Y29000D02*
X35400Y29000D01*
X35400Y30000D02*
X36400Y30000D01*
X36400Y30000D02*
X36400Y24000D01*
X36400Y24000D02*
X35400Y24000D01*
X35400Y24000D02*
X35400Y30000D01*
G54D14*
X12900Y2500D02*
X12900Y2000D01*
X12900Y2000D02*
X11900Y2000D01*
X11900Y2000D02*
X11900Y2500D01*
X13400Y0D02*
X13400Y2500D01*
X13400Y2500D02*
X11400Y2500D01*
X11400Y2500D02*
X11400Y0D01*
X11400Y0D02*
X13400Y0D01*
G54D16*
X13400Y1750D02*
X13400Y750D01*
X11400Y750D02*
X11400Y1750D01*
G54D12*
X10900Y0D02*
X3900Y0D01*
X3900Y0D02*
X3900Y3000D01*
X3900Y3000D02*
X10900Y3000D01*
X10900Y3000D02*
X10900Y0D01*
X10900Y5000D02*
X3900Y5000D01*
X3900Y5000D02*
X3900Y8000D01*
X3900Y8000D02*
X10900Y8000D01*
X10900Y8000D02*
X10900Y5000D01*
X6900Y15250D02*
X6900Y8250D01*
X6900Y8250D02*
X3900Y8250D01*
X3900Y8250D02*
X3900Y15250D01*
X3900Y15250D02*
X6900Y15250D01*
G54D15*
X6300Y32350D02*
X6300Y31150D01*
X6300Y31150D02*
X6000Y31150D01*
X6000Y31150D02*
X6000Y32350D01*
X6000Y32350D02*
X6300Y32350D01*
X7250Y33350D02*
X6050Y33350D01*
X6050Y33350D02*
X6050Y33650D01*
X6050Y33650D02*
X7250Y33650D01*
X7250Y33650D02*
X7250Y33350D01*
X5750Y29850D02*
G75*
G03X5750Y29850I-50J0D01*
G74*
G01*
X5700Y30300D02*
X5700Y29900D01*
X5700Y29900D02*
X5100Y29900D01*
X5100Y29900D02*
X5100Y30300D01*
X5100Y30700D02*
X5100Y31100D01*
X5100Y31100D02*
X5700Y31100D01*
X5700Y31100D02*
X5700Y30700D01*
X5750Y32350D02*
G75*
G03X5750Y32350I-50J0D01*
G74*
G01*
X5700Y32800D02*
X5700Y32400D01*
X5700Y32400D02*
X5100Y32400D01*
X5100Y32400D02*
X5100Y32800D01*
X5100Y33200D02*
X5100Y33600D01*
X5100Y33600D02*
X5700Y33600D01*
X5700Y33600D02*
X5700Y33200D01*
G54D17*
X4290Y31300D02*
G75*
G03X4290Y31300I-120J0D01*
G74*
G01*
X4895Y30600D02*
X4895Y31400D01*
X4405Y30600D02*
X4405Y31395D01*
X4785Y31400D02*
X4895Y31400D01*
X4515Y31395D02*
X4415Y31395D01*
X4785Y30600D02*
X4895Y30600D01*
X4405Y30600D02*
X4515Y30600D01*
G54D18*
X4768Y31196D02*
X4896Y31196D01*
X4523Y31196D02*
X4582Y31196D01*
X4718Y31196D02*
X4777Y31196D01*
X4572Y31196D02*
X4728Y31196D01*
X4768Y30804D02*
X4896Y30804D01*
X4404Y30804D02*
X4532Y30804D01*
X4718Y30804D02*
X4777Y30804D01*
X4523Y30804D02*
X4582Y30804D01*
X4572Y30804D02*
X4728Y30804D01*
X4611Y30960D02*
X4689Y30960D01*
X4689Y30960D02*
X4689Y31038D01*
X4611Y31038D02*
X4689Y31038D01*
X4611Y30960D02*
X4611Y31038D01*
X4414Y31196D02*
X4532Y31196D01*
G54D19*
X4491Y31309D02*
G75*
G03X4491Y31309I-28J0D01*
G74*
G01*
G54D20*
X4513Y31393D02*
G75*
G03X4787Y31393I137J0D01*
G74*
G01*
X4787Y30607D02*
G75*
G03X4513Y30607I-137J0D01*
G74*
G01*
G54D17*
X4290Y34050D02*
G75*
G03X4290Y34050I-120J0D01*
G74*
G01*
X4895Y33350D02*
X4895Y34150D01*
X4405Y33350D02*
X4405Y34145D01*
X4785Y34150D02*
X4895Y34150D01*
X4515Y34145D02*
X4415Y34145D01*
X4785Y33350D02*
X4895Y33350D01*
X4405Y33350D02*
X4515Y33350D01*
G54D18*
X4768Y33946D02*
X4896Y33946D01*
X4523Y33946D02*
X4582Y33946D01*
X4718Y33946D02*
X4777Y33946D01*
X4572Y33946D02*
X4728Y33946D01*
X4768Y33554D02*
X4896Y33554D01*
X4404Y33554D02*
X4532Y33554D01*
X4718Y33554D02*
X4777Y33554D01*
X4523Y33554D02*
X4582Y33554D01*
X4572Y33554D02*
X4728Y33554D01*
X4611Y33710D02*
X4689Y33710D01*
X4689Y33710D02*
X4689Y33788D01*
X4611Y33788D02*
X4689Y33788D01*
X4611Y33710D02*
X4611Y33788D01*
X4414Y33946D02*
X4532Y33946D01*
G54D19*
X4491Y34059D02*
G75*
G03X4491Y34059I-28J0D01*
G74*
G01*
G54D20*
X4513Y34143D02*
G75*
G03X4787Y34143I137J0D01*
G74*
G01*
X4787Y33357D02*
G75*
G03X4513Y33357I-137J0D01*
G74*
G01*
G54D14*
X2900Y30750D02*
X2400Y30750D01*
X2400Y30750D02*
X2400Y31750D01*
X2400Y31750D02*
X2900Y31750D01*
X400Y30250D02*
X2900Y30250D01*
X2900Y30250D02*
X2900Y32250D01*
X2900Y32250D02*
X400Y32250D01*
X400Y32250D02*
X400Y30250D01*
G54D16*
X2150Y30250D02*
X1150Y30250D01*
X1150Y32250D02*
X2150Y32250D01*
G54D14*
X2900Y33000D02*
X2400Y33000D01*
X2400Y33000D02*
X2400Y34000D01*
X2400Y34000D02*
X2900Y34000D01*
X400Y32500D02*
X2900Y32500D01*
X2900Y32500D02*
X2900Y34500D01*
X2900Y34500D02*
X400Y34500D01*
X400Y34500D02*
X400Y32500D01*
G54D16*
X2150Y32500D02*
X1150Y32500D01*
X1150Y34500D02*
X2150Y34500D01*
G54D22*
X3807Y20343D02*
X3493Y20343D01*
X3650Y20382D02*
X3493Y20618D01*
X3493Y20618D02*
X3807Y20618D01*
X3807Y20618D02*
X3650Y20382D01*
X4399Y19555D02*
G75*
G03X4399Y19555I-40J0D01*
G74*
G01*
X4162Y20185D02*
X3138Y20185D01*
X4162Y19594D02*
X3138Y19594D01*
X3138Y21406D02*
X4162Y21406D01*
X4162Y21406D02*
X4162Y19594D01*
X3138Y21406D02*
X3138Y19594D01*
X29743Y9907D02*
X30057Y9907D01*
X29900Y9868D02*
X30057Y9632D01*
X30057Y9632D02*
X29743Y9632D01*
X29743Y9632D02*
X29900Y9868D01*
X29231Y10695D02*
G75*
G03X29231Y10695I-40J0D01*
G74*
G01*
X29388Y10065D02*
X30412Y10065D01*
X29388Y10656D02*
X30412Y10656D01*
X30412Y8844D02*
X29388Y8844D01*
X29388Y8844D02*
X29388Y10656D01*
X30412Y8844D02*
X30412Y10656D01*
G54D15*
X11650Y12150D02*
G75*
G03X11650Y12150I-50J0D01*
G74*
G01*
X11600Y11700D02*
X11600Y12100D01*
X11600Y12100D02*
X12200Y12100D01*
X12200Y12100D02*
X12200Y11700D01*
X12200Y11300D02*
X12200Y10900D01*
X12200Y10900D02*
X11600Y10900D01*
X11600Y10900D02*
X11600Y11300D01*
G54D22*
X4557Y16343D02*
X4243Y16343D01*
X4400Y16382D02*
X4243Y16618D01*
X4243Y16618D02*
X4557Y16618D01*
X4557Y16618D02*
X4400Y16382D01*
X5149Y15555D02*
G75*
G03X5149Y15555I-40J0D01*
G74*
G01*
X4912Y16185D02*
X3888Y16185D01*
X4912Y15594D02*
X3888Y15594D01*
X3888Y17406D02*
X4912Y17406D01*
X4912Y17406D02*
X4912Y15594D01*
X3888Y17406D02*
X3888Y15594D01*
X3807Y24143D02*
X3493Y24143D01*
X3650Y24182D02*
X3493Y24418D01*
X3493Y24418D02*
X3807Y24418D01*
X3807Y24418D02*
X3650Y24182D01*
X4399Y23355D02*
G75*
G03X4399Y23355I-40J0D01*
G74*
G01*
X4162Y23985D02*
X3138Y23985D01*
X4162Y23394D02*
X3138Y23394D01*
X3138Y25206D02*
X4162Y25206D01*
X4162Y25206D02*
X4162Y23394D01*
X3138Y25206D02*
X3138Y23394D01*
X3807Y27343D02*
X3493Y27343D01*
X3650Y27382D02*
X3493Y27618D01*
X3493Y27618D02*
X3807Y27618D01*
X3807Y27618D02*
X3650Y27382D01*
X4399Y26555D02*
G75*
G03X4399Y26555I-40J0D01*
G74*
G01*
X4162Y27185D02*
X3138Y27185D01*
X4162Y26594D02*
X3138Y26594D01*
X3138Y28406D02*
X4162Y28406D01*
X4162Y28406D02*
X4162Y26594D01*
X3138Y28406D02*
X3138Y26594D01*
X3807Y30443D02*
X3493Y30443D01*
X3650Y30482D02*
X3493Y30718D01*
X3493Y30718D02*
X3807Y30718D01*
X3807Y30718D02*
X3650Y30482D01*
X4399Y29655D02*
G75*
G03X4399Y29655I-40J0D01*
G74*
G01*
X4162Y30285D02*
X3138Y30285D01*
X4162Y29694D02*
X3138Y29694D01*
X3138Y31506D02*
X4162Y31506D01*
X4162Y31506D02*
X4162Y29694D01*
X3138Y31506D02*
X3138Y29694D01*
X3807Y33493D02*
X3493Y33493D01*
X3650Y33532D02*
X3493Y33768D01*
X3493Y33768D02*
X3807Y33768D01*
X3807Y33768D02*
X3650Y33532D01*
X4399Y32705D02*
G75*
G03X4399Y32705I-40J0D01*
G74*
G01*
X4162Y33335D02*
X3138Y33335D01*
X4162Y32744D02*
X3138Y32744D01*
X3138Y34556D02*
X4162Y34556D01*
X4162Y34556D02*
X4162Y32744D01*
X3138Y34556D02*
X3138Y32744D01*
G54D11*
X38900Y23500D02*
X38900Y5500D01*
X37900Y5500D02*
X37900Y23500D01*
X37900Y23500D02*
X38900Y23500D01*
X37900Y6500D02*
X38900Y6500D01*
X38900Y5500D02*
X37900Y5500D01*
G54D14*
X33300Y26050D02*
X29000Y26050D01*
X29000Y26050D02*
X29000Y27450D01*
X29000Y27450D02*
X33300Y27450D01*
X33300Y27450D02*
X33300Y26050D01*
X33300Y26550D02*
X33000Y26550D01*
X33000Y26550D02*
X33000Y26950D01*
X33000Y26950D02*
X33300Y26950D01*
X32700Y18000D02*
X32350Y17750D01*
X32350Y17750D02*
X32350Y18250D01*
X32700Y18000D02*
X32350Y18250D01*
X32128Y16799D02*
X32128Y16287D01*
X32128Y12513D02*
X32128Y11064D01*
X35672Y12513D02*
X35672Y11064D01*
G54D11*
X32900Y12500D02*
X32900Y13500D01*
X34900Y13500D02*
X34900Y12500D01*
G54D14*
X32128Y14702D02*
X32128Y11552D01*
X32128Y11063D02*
X35672Y11063D01*
X35672Y12063D02*
X35672Y19937D01*
X35672Y19937D02*
X33900Y19937D01*
X33900Y19937D02*
X32128Y19937D01*
X32128Y19937D02*
X32128Y16787D01*
G54D11*
X34900Y18500D02*
X34900Y13500D01*
X34900Y12500D02*
X32900Y12500D01*
X32900Y13500D02*
X32900Y18500D01*
X32900Y18500D02*
X34900Y18500D01*
X34400Y1250D02*
X35400Y1250D01*
X35400Y1250D02*
X34400Y250D01*
X35400Y250D02*
X34400Y1250D01*
X35400Y2250D02*
X35400Y250D01*
X34400Y250D02*
X34400Y2250D01*
X35400Y250D02*
X34400Y250D01*
X34400Y2250D02*
X35400Y2250D01*
G54D14*
X1950Y19200D02*
X2200Y19200D01*
X2200Y19200D02*
X2200Y22400D01*
X2200Y22400D02*
X1800Y22400D01*
X-150Y19200D02*
X-550Y18950D01*
X-550Y20800D02*
X-550Y22650D01*
X-550Y22650D02*
X-150Y22400D01*
X-550Y20800D02*
X-550Y18950D01*
X1800Y22400D02*
X-150Y22400D01*
X1950Y19200D02*
X-150Y19200D01*
G54D12*
X61Y20800D02*
X-96Y20800D01*
X494Y22177D02*
X494Y19422D01*
X61Y22177D02*
X61Y19422D01*
X2896Y22177D02*
X-96Y22177D01*
X-96Y19422D02*
X2896Y19422D01*
X2896Y19422D02*
X2896Y22177D01*
G54D14*
X1950Y22950D02*
X2200Y22950D01*
X2200Y22950D02*
X2200Y26150D01*
X2200Y26150D02*
X1800Y26150D01*
X-150Y22950D02*
X-550Y22700D01*
X-550Y24550D02*
X-550Y26400D01*
X-550Y26400D02*
X-150Y26150D01*
X-550Y24550D02*
X-550Y22700D01*
X1800Y26150D02*
X-150Y26150D01*
X1950Y22950D02*
X-150Y22950D01*
G54D12*
X61Y24550D02*
X-96Y24550D01*
X494Y25927D02*
X494Y23172D01*
X61Y25927D02*
X61Y23172D01*
X2896Y25927D02*
X-96Y25927D01*
X-96Y23172D02*
X2896Y23172D01*
X2896Y23172D02*
X2896Y25927D01*
G54D14*
X1950Y26700D02*
X2200Y26700D01*
X2200Y26700D02*
X2200Y29900D01*
X2200Y29900D02*
X1800Y29900D01*
X-150Y26700D02*
X-550Y26450D01*
X-550Y28300D02*
X-550Y30150D01*
X-550Y30150D02*
X-150Y29900D01*
X-550Y28300D02*
X-550Y26450D01*
X1800Y29900D02*
X-150Y29900D01*
X1950Y26700D02*
X-150Y26700D01*
G54D12*
X61Y28300D02*
X-96Y28300D01*
X494Y29677D02*
X494Y26922D01*
X61Y29677D02*
X61Y26922D01*
X2896Y29677D02*
X-96Y29677D01*
X-96Y26922D02*
X2896Y26922D01*
X2896Y26922D02*
X2896Y29677D01*
G54D10*
X5900Y4000D02*
G75*
G03X5900Y4000I-1000J0D01*
G74*
G01*
X38400Y4000D02*
G75*
G03X38400Y4000I-1000J0D01*
G74*
G01*
X35900Y23000D02*
G75*
G03X35900Y23000I-1000J0D01*
G74*
G01*
X6400Y23000D02*
G75*
G03X6400Y23000I-1000J0D01*
G74*
G01*
G54D15*
X27597Y28669D02*
X27597Y27331D01*
X27203Y27331D02*
X27203Y28669D01*
X27046Y28669D02*
X27046Y27331D01*
X27754Y27331D02*
X27754Y28669D01*
X27046Y28669D02*
X27754Y28669D01*
X27046Y27331D02*
X27754Y27331D01*
X27203Y28315D02*
X27597Y28315D01*
X27203Y28000D02*
X27597Y28000D01*
X27203Y27685D02*
X27597Y27685D01*
X27046Y28551D02*
X27203Y28551D01*
X27597Y28551D02*
X27754Y28551D01*
X27046Y28394D02*
X27203Y28394D01*
X27597Y28394D02*
X27754Y28394D01*
X27754Y28236D02*
X27597Y28236D01*
X27203Y28236D02*
X27046Y28236D01*
X27046Y28079D02*
X27203Y28079D01*
X27597Y28079D02*
X27754Y28079D01*
X27754Y27921D02*
X27597Y27921D01*
X27203Y27921D02*
X27046Y27921D01*
X27046Y27764D02*
X27203Y27764D01*
X27597Y27764D02*
X27754Y27764D01*
X27597Y27449D02*
X27754Y27449D01*
X27597Y27606D02*
X27754Y27606D01*
X27046Y27606D02*
X27203Y27606D01*
X27046Y27449D02*
X27203Y27449D01*
X27597Y26669D02*
X27597Y25331D01*
X27203Y25331D02*
X27203Y26669D01*
X27046Y26669D02*
X27046Y25331D01*
X27754Y25331D02*
X27754Y26669D01*
X27046Y26669D02*
X27754Y26669D01*
X27046Y25331D02*
X27754Y25331D01*
X27203Y26315D02*
X27597Y26315D01*
X27203Y26000D02*
X27597Y26000D01*
X27203Y25685D02*
X27597Y25685D01*
X27046Y26551D02*
X27203Y26551D01*
X27597Y26551D02*
X27754Y26551D01*
X27046Y26394D02*
X27203Y26394D01*
X27597Y26394D02*
X27754Y26394D01*
X27754Y26236D02*
X27597Y26236D01*
X27203Y26236D02*
X27046Y26236D01*
X27046Y26079D02*
X27203Y26079D01*
X27597Y26079D02*
X27754Y26079D01*
X27754Y25921D02*
X27597Y25921D01*
X27203Y25921D02*
X27046Y25921D01*
X27046Y25764D02*
X27203Y25764D01*
X27597Y25764D02*
X27754Y25764D01*
X27597Y25449D02*
X27754Y25449D01*
X27597Y25606D02*
X27754Y25606D01*
X27046Y25606D02*
X27203Y25606D01*
X27046Y25449D02*
X27203Y25449D01*
G54D16*
X31400Y20250D02*
X30400Y20250D01*
X30400Y20250D02*
X30400Y22250D01*
X30400Y22250D02*
X31400Y22250D01*
X31400Y22250D02*
X31400Y20250D01*
G54D22*
X15307Y5693D02*
X14993Y5693D01*
X15150Y5732D02*
X14993Y5968D01*
X14993Y5968D02*
X15307Y5968D01*
X15307Y5968D02*
X15150Y5732D01*
X15899Y4905D02*
G75*
G03X15899Y4905I-40J0D01*
G74*
G01*
X15662Y5535D02*
X14638Y5535D01*
X15662Y4944D02*
X14638Y4944D01*
X14638Y6756D02*
X15662Y6756D01*
X15662Y6756D02*
X15662Y4944D01*
X14638Y6756D02*
X14638Y4944D01*
G54D13*
X-1722Y9118D02*
X-1722Y13882D01*
X2687Y13882D02*
X2687Y9118D01*
X2687Y9118D02*
X-2037Y9118D01*
X-2037Y13882D02*
X-2037Y9118D01*
X2687Y13882D02*
X-2037Y13882D01*
G54D15*
X7620Y23748D02*
X7536Y23867D01*
X7477Y23748D02*
X7477Y23998D01*
X7572Y23998D01*
X7596Y23986D01*
X7608Y23975D01*
X7620Y23951D01*
X7620Y23915D01*
X7608Y23891D01*
X7596Y23879D01*
X7572Y23867D01*
X7477Y23867D01*
X7715Y23975D02*
X7727Y23986D01*
X7751Y23998D01*
X7810Y23998D01*
X7834Y23986D01*
X7846Y23975D01*
X7858Y23951D01*
X7858Y23927D01*
X7846Y23891D01*
X7703Y23748D01*
X7858Y23748D01*
X8096Y23748D02*
X7953Y23748D01*
X8025Y23748D02*
X8025Y23998D01*
X8001Y23963D01*
X7977Y23939D01*
X7953Y23927D01*
X8310Y23915D02*
X8310Y23748D01*
X8251Y24010D02*
X8191Y23832D01*
X8346Y23832D01*
X33026Y20920D02*
X32907Y20836D01*
X33026Y20777D02*
X32776Y20777D01*
X32776Y20872D01*
X32788Y20896D01*
X32800Y20908D01*
X32823Y20920D01*
X32859Y20920D01*
X32883Y20908D01*
X32895Y20896D01*
X32907Y20872D01*
X32907Y20777D01*
X32800Y21015D02*
X32788Y21027D01*
X32776Y21051D01*
X32776Y21110D01*
X32788Y21134D01*
X32800Y21146D01*
X32823Y21158D01*
X32847Y21158D01*
X32883Y21146D01*
X33026Y21003D01*
X33026Y21158D01*
X33026Y21396D02*
X33026Y21253D01*
X33026Y21325D02*
X32776Y21325D01*
X32811Y21301D01*
X32835Y21277D01*
X32847Y21253D01*
X32800Y21491D02*
X32788Y21503D01*
X32776Y21527D01*
X32776Y21586D01*
X32788Y21610D01*
X32800Y21622D01*
X32823Y21634D01*
X32847Y21634D01*
X32883Y21622D01*
X33026Y21479D01*
X33026Y21634D01*
X34051Y21020D02*
X33932Y20936D01*
X34051Y20877D02*
X33801Y20877D01*
X33801Y20972D01*
X33813Y20996D01*
X33825Y21008D01*
X33848Y21020D01*
X33884Y21020D01*
X33908Y21008D01*
X33920Y20996D01*
X33932Y20972D01*
X33932Y20877D01*
X33825Y21115D02*
X33813Y21127D01*
X33801Y21151D01*
X33801Y21210D01*
X33813Y21234D01*
X33825Y21246D01*
X33848Y21258D01*
X33872Y21258D01*
X33908Y21246D01*
X34051Y21103D01*
X34051Y21258D01*
X34051Y21496D02*
X34051Y21353D01*
X34051Y21425D02*
X33801Y21425D01*
X33836Y21401D01*
X33860Y21377D01*
X33872Y21353D01*
X34051Y21734D02*
X34051Y21591D01*
X34051Y21663D02*
X33801Y21663D01*
X33836Y21639D01*
X33860Y21615D01*
X33872Y21591D01*
X26201Y19970D02*
X26082Y19886D01*
X26201Y19827D02*
X25951Y19827D01*
X25951Y19922D01*
X25963Y19946D01*
X25975Y19958D01*
X25998Y19970D01*
X26034Y19970D01*
X26058Y19958D01*
X26070Y19946D01*
X26082Y19922D01*
X26082Y19827D01*
X25975Y20065D02*
X25963Y20077D01*
X25951Y20101D01*
X25951Y20160D01*
X25963Y20184D01*
X25975Y20196D01*
X25998Y20208D01*
X26022Y20208D01*
X26058Y20196D01*
X26201Y20053D01*
X26201Y20208D01*
X26201Y20446D02*
X26201Y20303D01*
X26201Y20375D02*
X25951Y20375D01*
X25986Y20351D01*
X26010Y20327D01*
X26022Y20303D01*
X25951Y20601D02*
X25951Y20625D01*
X25963Y20648D01*
X25975Y20660D01*
X25998Y20672D01*
X26046Y20684D01*
X26105Y20684D01*
X26153Y20672D01*
X26177Y20660D01*
X26189Y20648D01*
X26201Y20625D01*
X26201Y20601D01*
X26189Y20577D01*
X26177Y20565D01*
X26153Y20553D01*
X26105Y20541D01*
X26046Y20541D01*
X25998Y20553D01*
X25975Y20565D01*
X25963Y20577D01*
X25951Y20601D01*
X17501Y20970D02*
X17382Y20886D01*
X17501Y20827D02*
X17251Y20827D01*
X17251Y20922D01*
X17263Y20946D01*
X17275Y20958D01*
X17298Y20970D01*
X17334Y20970D01*
X17358Y20958D01*
X17370Y20946D01*
X17382Y20922D01*
X17382Y20827D01*
X17275Y21065D02*
X17263Y21077D01*
X17251Y21101D01*
X17251Y21160D01*
X17263Y21184D01*
X17275Y21196D01*
X17298Y21208D01*
X17322Y21208D01*
X17358Y21196D01*
X17501Y21053D01*
X17501Y21208D01*
X17251Y21363D02*
X17251Y21386D01*
X17263Y21410D01*
X17275Y21422D01*
X17298Y21434D01*
X17346Y21446D01*
X17405Y21446D01*
X17453Y21434D01*
X17477Y21422D01*
X17489Y21410D01*
X17501Y21386D01*
X17501Y21363D01*
X17489Y21339D01*
X17477Y21327D01*
X17453Y21315D01*
X17405Y21303D01*
X17346Y21303D01*
X17298Y21315D01*
X17275Y21327D01*
X17263Y21339D01*
X17251Y21363D01*
X17358Y21589D02*
X17346Y21565D01*
X17334Y21553D01*
X17310Y21541D01*
X17298Y21541D01*
X17275Y21553D01*
X17263Y21565D01*
X17251Y21589D01*
X17251Y21636D01*
X17263Y21660D01*
X17275Y21672D01*
X17298Y21684D01*
X17310Y21684D01*
X17334Y21672D01*
X17346Y21660D01*
X17358Y21636D01*
X17358Y21589D01*
X17370Y21565D01*
X17382Y21553D01*
X17405Y21541D01*
X17453Y21541D01*
X17477Y21553D01*
X17489Y21565D01*
X17501Y21589D01*
X17501Y21636D01*
X17489Y21660D01*
X17477Y21672D01*
X17453Y21684D01*
X17405Y21684D01*
X17382Y21672D01*
X17370Y21660D01*
X17358Y21636D01*
X9620Y22148D02*
X9536Y22267D01*
X9477Y22148D02*
X9477Y22398D01*
X9572Y22398D01*
X9596Y22386D01*
X9608Y22375D01*
X9620Y22351D01*
X9620Y22315D01*
X9608Y22291D01*
X9596Y22279D01*
X9572Y22267D01*
X9477Y22267D01*
X9715Y22375D02*
X9727Y22386D01*
X9751Y22398D01*
X9810Y22398D01*
X9834Y22386D01*
X9846Y22375D01*
X9858Y22351D01*
X9858Y22327D01*
X9846Y22291D01*
X9703Y22148D01*
X9858Y22148D01*
X10013Y22398D02*
X10036Y22398D01*
X10060Y22386D01*
X10072Y22375D01*
X10084Y22351D01*
X10096Y22303D01*
X10096Y22244D01*
X10084Y22196D01*
X10072Y22172D01*
X10060Y22160D01*
X10036Y22148D01*
X10013Y22148D01*
X9989Y22160D01*
X9977Y22172D01*
X9965Y22196D01*
X9953Y22244D01*
X9953Y22303D01*
X9965Y22351D01*
X9977Y22375D01*
X9989Y22386D01*
X10013Y22398D01*
X10179Y22398D02*
X10346Y22398D01*
X10239Y22148D01*
X26570Y10673D02*
X26486Y10792D01*
X26427Y10673D02*
X26427Y10923D01*
X26522Y10923D01*
X26546Y10911D01*
X26558Y10900D01*
X26570Y10876D01*
X26570Y10840D01*
X26558Y10816D01*
X26546Y10804D01*
X26522Y10792D01*
X26427Y10792D01*
X26665Y10900D02*
X26677Y10911D01*
X26701Y10923D01*
X26760Y10923D01*
X26784Y10911D01*
X26796Y10900D01*
X26808Y10876D01*
X26808Y10852D01*
X26796Y10816D01*
X26653Y10673D01*
X26808Y10673D01*
X26963Y10923D02*
X26986Y10923D01*
X27010Y10911D01*
X27022Y10900D01*
X27034Y10876D01*
X27046Y10828D01*
X27046Y10769D01*
X27034Y10721D01*
X27022Y10697D01*
X27010Y10685D01*
X26986Y10673D01*
X26963Y10673D01*
X26939Y10685D01*
X26927Y10697D01*
X26915Y10721D01*
X26903Y10769D01*
X26903Y10828D01*
X26915Y10876D01*
X26927Y10900D01*
X26939Y10911D01*
X26963Y10923D01*
X27129Y10923D02*
X27284Y10923D01*
X27201Y10828D01*
X27236Y10828D01*
X27260Y10816D01*
X27272Y10804D01*
X27284Y10780D01*
X27284Y10721D01*
X27272Y10697D01*
X27260Y10685D01*
X27236Y10673D01*
X27165Y10673D01*
X27141Y10685D01*
X27129Y10697D01*
X19551Y9720D02*
X19432Y9636D01*
X19551Y9577D02*
X19301Y9577D01*
X19301Y9672D01*
X19313Y9696D01*
X19325Y9708D01*
X19348Y9720D01*
X19384Y9720D01*
X19408Y9708D01*
X19420Y9696D01*
X19432Y9672D01*
X19432Y9577D01*
X19325Y9815D02*
X19313Y9827D01*
X19301Y9851D01*
X19301Y9910D01*
X19313Y9934D01*
X19325Y9946D01*
X19348Y9958D01*
X19372Y9958D01*
X19408Y9946D01*
X19551Y9803D01*
X19551Y9958D01*
X19301Y10113D02*
X19301Y10136D01*
X19313Y10160D01*
X19325Y10172D01*
X19348Y10184D01*
X19396Y10196D01*
X19455Y10196D01*
X19503Y10184D01*
X19527Y10172D01*
X19539Y10160D01*
X19551Y10136D01*
X19551Y10113D01*
X19539Y10089D01*
X19527Y10077D01*
X19503Y10065D01*
X19455Y10053D01*
X19396Y10053D01*
X19348Y10065D01*
X19325Y10077D01*
X19313Y10089D01*
X19301Y10113D01*
X19325Y10291D02*
X19313Y10303D01*
X19301Y10327D01*
X19301Y10386D01*
X19313Y10410D01*
X19325Y10422D01*
X19348Y10434D01*
X19372Y10434D01*
X19408Y10422D01*
X19551Y10279D01*
X19551Y10434D01*
X36001Y9720D02*
X35882Y9636D01*
X36001Y9577D02*
X35751Y9577D01*
X35751Y9672D01*
X35763Y9696D01*
X35775Y9708D01*
X35798Y9720D01*
X35834Y9720D01*
X35858Y9708D01*
X35870Y9696D01*
X35882Y9672D01*
X35882Y9577D01*
X35775Y9815D02*
X35763Y9827D01*
X35751Y9851D01*
X35751Y9910D01*
X35763Y9934D01*
X35775Y9946D01*
X35798Y9958D01*
X35822Y9958D01*
X35858Y9946D01*
X36001Y9803D01*
X36001Y9958D01*
X35751Y10113D02*
X35751Y10136D01*
X35763Y10160D01*
X35775Y10172D01*
X35798Y10184D01*
X35846Y10196D01*
X35905Y10196D01*
X35953Y10184D01*
X35977Y10172D01*
X35989Y10160D01*
X36001Y10136D01*
X36001Y10113D01*
X35989Y10089D01*
X35977Y10077D01*
X35953Y10065D01*
X35905Y10053D01*
X35846Y10053D01*
X35798Y10065D01*
X35775Y10077D01*
X35763Y10089D01*
X35751Y10113D01*
X36001Y10434D02*
X36001Y10291D01*
X36001Y10363D02*
X35751Y10363D01*
X35786Y10339D01*
X35810Y10315D01*
X35822Y10291D01*
X14501Y21020D02*
X14382Y20936D01*
X14501Y20877D02*
X14251Y20877D01*
X14251Y20972D01*
X14263Y20996D01*
X14275Y21008D01*
X14298Y21020D01*
X14334Y21020D01*
X14358Y21008D01*
X14370Y20996D01*
X14382Y20972D01*
X14382Y20877D01*
X14501Y21258D02*
X14501Y21115D01*
X14501Y21186D02*
X14251Y21186D01*
X14286Y21163D01*
X14310Y21139D01*
X14322Y21115D01*
X14251Y21413D02*
X14251Y21436D01*
X14263Y21460D01*
X14275Y21472D01*
X14298Y21484D01*
X14346Y21496D01*
X14405Y21496D01*
X14453Y21484D01*
X14477Y21472D01*
X14489Y21460D01*
X14501Y21436D01*
X14501Y21413D01*
X14489Y21389D01*
X14477Y21377D01*
X14453Y21365D01*
X14405Y21353D01*
X14346Y21353D01*
X14298Y21365D01*
X14275Y21377D01*
X14263Y21389D01*
X14251Y21413D01*
X14501Y21734D02*
X14501Y21591D01*
X14501Y21663D02*
X14251Y21663D01*
X14286Y21639D01*
X14310Y21615D01*
X14322Y21591D01*
X32795Y28122D02*
X32783Y28110D01*
X32747Y28098D01*
X32723Y28098D01*
X32688Y28110D01*
X32664Y28134D01*
X32652Y28158D01*
X32640Y28205D01*
X32640Y28241D01*
X32652Y28289D01*
X32664Y28313D01*
X32688Y28336D01*
X32723Y28348D01*
X32747Y28348D01*
X32783Y28336D01*
X32795Y28325D01*
X32878Y28348D02*
X33033Y28348D01*
X32950Y28253D01*
X32985Y28253D01*
X33009Y28241D01*
X33021Y28229D01*
X33033Y28205D01*
X33033Y28146D01*
X33021Y28122D01*
X33009Y28110D01*
X32985Y28098D01*
X32914Y28098D01*
X32890Y28110D01*
X32878Y28122D01*
X33188Y28348D02*
X33211Y28348D01*
X33235Y28336D01*
X33247Y28325D01*
X33259Y28301D01*
X33271Y28253D01*
X33271Y28194D01*
X33259Y28146D01*
X33247Y28122D01*
X33235Y28110D01*
X33211Y28098D01*
X33188Y28098D01*
X33164Y28110D01*
X33152Y28122D01*
X33140Y28146D01*
X33128Y28194D01*
X33128Y28253D01*
X33140Y28301D01*
X33152Y28325D01*
X33164Y28336D01*
X33188Y28348D01*
X33497Y28348D02*
X33378Y28348D01*
X33366Y28229D01*
X33378Y28241D01*
X33402Y28253D01*
X33461Y28253D01*
X33485Y28241D01*
X33497Y28229D01*
X33509Y28205D01*
X33509Y28146D01*
X33497Y28122D01*
X33485Y28110D01*
X33461Y28098D01*
X33402Y28098D01*
X33378Y28110D01*
X33366Y28122D01*
X13327Y11170D02*
X13339Y11158D01*
X13351Y11122D01*
X13351Y11098D01*
X13339Y11063D01*
X13315Y11039D01*
X13291Y11027D01*
X13244Y11015D01*
X13208Y11015D01*
X13160Y11027D01*
X13136Y11039D01*
X13113Y11063D01*
X13101Y11098D01*
X13101Y11122D01*
X13113Y11158D01*
X13125Y11170D01*
X13351Y11408D02*
X13351Y11265D01*
X13351Y11336D02*
X13101Y11336D01*
X13136Y11313D01*
X13160Y11289D01*
X13172Y11265D01*
X13101Y11563D02*
X13101Y11586D01*
X13113Y11610D01*
X13125Y11622D01*
X13148Y11634D01*
X13196Y11646D01*
X13255Y11646D01*
X13303Y11634D01*
X13327Y11622D01*
X13339Y11610D01*
X13351Y11586D01*
X13351Y11563D01*
X13339Y11539D01*
X13327Y11527D01*
X13303Y11515D01*
X13255Y11503D01*
X13196Y11503D01*
X13148Y11515D01*
X13125Y11527D01*
X13113Y11539D01*
X13101Y11563D01*
X13125Y11741D02*
X13113Y11753D01*
X13101Y11777D01*
X13101Y11836D01*
X13113Y11860D01*
X13125Y11872D01*
X13148Y11884D01*
X13172Y11884D01*
X13208Y11872D01*
X13351Y11729D01*
X13351Y11884D01*
X19901Y15720D02*
X19782Y15636D01*
X19901Y15577D02*
X19651Y15577D01*
X19651Y15672D01*
X19663Y15696D01*
X19675Y15708D01*
X19698Y15720D01*
X19734Y15720D01*
X19758Y15708D01*
X19770Y15696D01*
X19782Y15672D01*
X19782Y15577D01*
X19651Y15803D02*
X19651Y15958D01*
X19746Y15875D01*
X19746Y15910D01*
X19758Y15934D01*
X19770Y15946D01*
X19794Y15958D01*
X19853Y15958D01*
X19877Y15946D01*
X19889Y15934D01*
X19901Y15910D01*
X19901Y15839D01*
X19889Y15815D01*
X19877Y15803D01*
X19651Y16113D02*
X19651Y16136D01*
X19663Y16160D01*
X19675Y16172D01*
X19698Y16184D01*
X19746Y16196D01*
X19805Y16196D01*
X19853Y16184D01*
X19877Y16172D01*
X19889Y16160D01*
X19901Y16136D01*
X19901Y16113D01*
X19889Y16089D01*
X19877Y16077D01*
X19853Y16065D01*
X19805Y16053D01*
X19746Y16053D01*
X19698Y16065D01*
X19675Y16077D01*
X19663Y16089D01*
X19651Y16113D01*
X19651Y16279D02*
X19651Y16434D01*
X19746Y16351D01*
X19746Y16386D01*
X19758Y16410D01*
X19770Y16422D01*
X19794Y16434D01*
X19853Y16434D01*
X19877Y16422D01*
X19889Y16410D01*
X19901Y16386D01*
X19901Y16315D01*
X19889Y16291D01*
X19877Y16279D01*
X20501Y12620D02*
X20382Y12536D01*
X20501Y12477D02*
X20251Y12477D01*
X20251Y12572D01*
X20263Y12596D01*
X20275Y12608D01*
X20298Y12620D01*
X20334Y12620D01*
X20358Y12608D01*
X20370Y12596D01*
X20382Y12572D01*
X20382Y12477D01*
X20251Y12703D02*
X20251Y12858D01*
X20346Y12775D01*
X20346Y12810D01*
X20358Y12834D01*
X20370Y12846D01*
X20394Y12858D01*
X20453Y12858D01*
X20477Y12846D01*
X20489Y12834D01*
X20501Y12810D01*
X20501Y12739D01*
X20489Y12715D01*
X20477Y12703D01*
X20251Y13013D02*
X20251Y13036D01*
X20263Y13060D01*
X20275Y13072D01*
X20298Y13084D01*
X20346Y13096D01*
X20405Y13096D01*
X20453Y13084D01*
X20477Y13072D01*
X20489Y13060D01*
X20501Y13036D01*
X20501Y13013D01*
X20489Y12989D01*
X20477Y12977D01*
X20453Y12965D01*
X20405Y12953D01*
X20346Y12953D01*
X20298Y12965D01*
X20275Y12977D01*
X20263Y12989D01*
X20251Y13013D01*
X20275Y13191D02*
X20263Y13203D01*
X20251Y13227D01*
X20251Y13286D01*
X20263Y13310D01*
X20275Y13322D01*
X20298Y13334D01*
X20322Y13334D01*
X20358Y13322D01*
X20501Y13179D01*
X20501Y13334D01*
X20551Y10570D02*
X20432Y10486D01*
X20551Y10427D02*
X20301Y10427D01*
X20301Y10522D01*
X20313Y10546D01*
X20325Y10558D01*
X20348Y10570D01*
X20384Y10570D01*
X20408Y10558D01*
X20420Y10546D01*
X20432Y10522D01*
X20432Y10427D01*
X20301Y10653D02*
X20301Y10808D01*
X20396Y10725D01*
X20396Y10760D01*
X20408Y10784D01*
X20420Y10796D01*
X20444Y10808D01*
X20503Y10808D01*
X20527Y10796D01*
X20539Y10784D01*
X20551Y10760D01*
X20551Y10689D01*
X20539Y10665D01*
X20527Y10653D01*
X20301Y10963D02*
X20301Y10986D01*
X20313Y11010D01*
X20325Y11022D01*
X20348Y11034D01*
X20396Y11046D01*
X20455Y11046D01*
X20503Y11034D01*
X20527Y11022D01*
X20539Y11010D01*
X20551Y10986D01*
X20551Y10963D01*
X20539Y10939D01*
X20527Y10927D01*
X20503Y10915D01*
X20455Y10903D01*
X20396Y10903D01*
X20348Y10915D01*
X20325Y10927D01*
X20313Y10939D01*
X20301Y10963D01*
X20551Y11284D02*
X20551Y11141D01*
X20551Y11213D02*
X20301Y11213D01*
X20336Y11189D01*
X20360Y11165D01*
X20372Y11141D01*
X9620Y18648D02*
X9536Y18767D01*
X9477Y18648D02*
X9477Y18898D01*
X9572Y18898D01*
X9596Y18886D01*
X9608Y18875D01*
X9620Y18851D01*
X9620Y18815D01*
X9608Y18791D01*
X9596Y18779D01*
X9572Y18767D01*
X9477Y18767D01*
X9715Y18875D02*
X9727Y18886D01*
X9751Y18898D01*
X9810Y18898D01*
X9834Y18886D01*
X9846Y18875D01*
X9858Y18851D01*
X9858Y18827D01*
X9846Y18791D01*
X9703Y18648D01*
X9858Y18648D01*
X9953Y18875D02*
X9965Y18886D01*
X9989Y18898D01*
X10048Y18898D01*
X10072Y18886D01*
X10084Y18875D01*
X10096Y18851D01*
X10096Y18827D01*
X10084Y18791D01*
X9941Y18648D01*
X10096Y18648D01*
X10334Y18648D02*
X10191Y18648D01*
X10263Y18648D02*
X10263Y18898D01*
X10239Y18863D01*
X10215Y18839D01*
X10191Y18827D01*
X5820Y23848D02*
X5736Y23967D01*
X5677Y23848D02*
X5677Y24098D01*
X5772Y24098D01*
X5796Y24086D01*
X5808Y24075D01*
X5820Y24051D01*
X5820Y24015D01*
X5808Y23991D01*
X5796Y23979D01*
X5772Y23967D01*
X5677Y23967D01*
X5915Y24075D02*
X5927Y24086D01*
X5951Y24098D01*
X6010Y24098D01*
X6034Y24086D01*
X6046Y24075D01*
X6058Y24051D01*
X6058Y24027D01*
X6046Y23991D01*
X5903Y23848D01*
X6058Y23848D01*
X6153Y24075D02*
X6165Y24086D01*
X6189Y24098D01*
X6248Y24098D01*
X6272Y24086D01*
X6284Y24075D01*
X6296Y24051D01*
X6296Y24027D01*
X6284Y23991D01*
X6141Y23848D01*
X6296Y23848D01*
X6451Y24098D02*
X6475Y24098D01*
X6498Y24086D01*
X6510Y24075D01*
X6522Y24051D01*
X6534Y24003D01*
X6534Y23944D01*
X6522Y23896D01*
X6510Y23872D01*
X6498Y23860D01*
X6475Y23848D01*
X6451Y23848D01*
X6427Y23860D01*
X6415Y23872D01*
X6403Y23896D01*
X6391Y23944D01*
X6391Y24003D01*
X6403Y24051D01*
X6415Y24075D01*
X6427Y24086D01*
X6451Y24098D01*
X6720Y18398D02*
X6636Y18517D01*
X6577Y18398D02*
X6577Y18648D01*
X6672Y18648D01*
X6696Y18636D01*
X6708Y18625D01*
X6720Y18601D01*
X6720Y18565D01*
X6708Y18541D01*
X6696Y18529D01*
X6672Y18517D01*
X6577Y18517D01*
X6815Y18625D02*
X6827Y18636D01*
X6851Y18648D01*
X6910Y18648D01*
X6934Y18636D01*
X6946Y18625D01*
X6958Y18601D01*
X6958Y18577D01*
X6946Y18541D01*
X6803Y18398D01*
X6958Y18398D01*
X7196Y18398D02*
X7053Y18398D01*
X7125Y18398D02*
X7125Y18648D01*
X7101Y18613D01*
X7077Y18589D01*
X7053Y18577D01*
X7315Y18398D02*
X7363Y18398D01*
X7386Y18410D01*
X7398Y18422D01*
X7422Y18458D01*
X7434Y18505D01*
X7434Y18601D01*
X7422Y18625D01*
X7410Y18636D01*
X7386Y18648D01*
X7339Y18648D01*
X7315Y18636D01*
X7303Y18625D01*
X7291Y18601D01*
X7291Y18541D01*
X7303Y18517D01*
X7315Y18505D01*
X7339Y18494D01*
X7386Y18494D01*
X7410Y18505D01*
X7422Y18517D01*
X7434Y18541D01*
G54D11*
X14850Y9657D02*
X15250Y9057D01*
X15250Y9657D02*
X14850Y9057D01*
X22900Y9042D02*
X22900Y8757D01*
X22700Y9357D02*
X22900Y9042D01*
X23100Y9357D01*
X30725Y9357D02*
X31125Y9357D01*
X30725Y8757D01*
X31125Y8757D01*
X14085Y20271D02*
X14285Y20271D01*
X14371Y19957D02*
X14085Y19957D01*
X14085Y20557D01*
X14371Y20557D01*
X14600Y20500D02*
X14628Y20528D01*
X14685Y20557D01*
X14828Y20557D01*
X14885Y20528D01*
X14914Y20500D01*
X14942Y20442D01*
X14942Y20385D01*
X14914Y20300D01*
X14571Y19957D01*
X14942Y19957D01*
X17485Y20271D02*
X17685Y20271D01*
X17771Y19957D02*
X17485Y19957D01*
X17485Y20557D01*
X17771Y20557D01*
X18342Y19957D02*
X18000Y19957D01*
X18171Y19957D02*
X18171Y20557D01*
X18114Y20471D01*
X18057Y20414D01*
X18000Y20385D01*
G54D14*
X31711Y32171D02*
X31311Y32171D01*
X31350Y32342D02*
X31330Y32361D01*
X31311Y32400D01*
X31311Y32495D01*
X31330Y32533D01*
X31350Y32552D01*
X31388Y32571D01*
X31426Y32571D01*
X31483Y32552D01*
X31711Y32323D01*
X31711Y32571D01*
X31673Y32971D02*
X31692Y32952D01*
X31711Y32895D01*
X31711Y32857D01*
X31692Y32800D01*
X31654Y32761D01*
X31616Y32742D01*
X31540Y32723D01*
X31483Y32723D01*
X31407Y32742D01*
X31369Y32761D01*
X31330Y32800D01*
X31311Y32857D01*
X31311Y32895D01*
X31330Y32952D01*
X31350Y32971D01*
X31559Y33142D02*
X31559Y33447D01*
X31311Y33714D02*
X31311Y33752D01*
X31330Y33790D01*
X31350Y33809D01*
X31388Y33828D01*
X31464Y33847D01*
X31559Y33847D01*
X31635Y33828D01*
X31673Y33809D01*
X31692Y33790D01*
X31711Y33752D01*
X31711Y33714D01*
X31692Y33676D01*
X31673Y33657D01*
X31635Y33638D01*
X31559Y33619D01*
X31464Y33619D01*
X31388Y33638D01*
X31350Y33657D01*
X31330Y33676D01*
X31311Y33714D01*
G54D16*
X19042Y31295D02*
X19061Y31352D01*
X19061Y31447D01*
X19042Y31485D01*
X19023Y31504D01*
X18985Y31523D01*
X18947Y31523D01*
X18909Y31504D01*
X18890Y31485D01*
X18871Y31447D01*
X18852Y31371D01*
X18833Y31333D01*
X18814Y31314D01*
X18776Y31295D01*
X18738Y31295D01*
X18700Y31314D01*
X18680Y31333D01*
X18661Y31371D01*
X18661Y31466D01*
X18680Y31523D01*
X18661Y31657D02*
X18661Y31904D01*
X18814Y31771D01*
X18814Y31828D01*
X18833Y31866D01*
X18852Y31885D01*
X18890Y31904D01*
X18985Y31904D01*
X19023Y31885D01*
X19042Y31866D01*
X19061Y31828D01*
X19061Y31714D01*
X19042Y31676D01*
X19023Y31657D01*
X20042Y31245D02*
X20061Y31302D01*
X20061Y31397D01*
X20042Y31435D01*
X20023Y31454D01*
X19985Y31473D01*
X19947Y31473D01*
X19909Y31454D01*
X19890Y31435D01*
X19871Y31397D01*
X19852Y31321D01*
X19833Y31283D01*
X19814Y31264D01*
X19776Y31245D01*
X19738Y31245D01*
X19700Y31264D01*
X19680Y31283D01*
X19661Y31321D01*
X19661Y31416D01*
X19680Y31473D01*
X19795Y31816D02*
X20061Y31816D01*
X19642Y31721D02*
X19928Y31626D01*
X19928Y31873D01*
X18042Y31245D02*
X18061Y31302D01*
X18061Y31397D01*
X18042Y31435D01*
X18023Y31454D01*
X17985Y31473D01*
X17947Y31473D01*
X17909Y31454D01*
X17890Y31435D01*
X17871Y31397D01*
X17852Y31321D01*
X17833Y31283D01*
X17814Y31264D01*
X17776Y31245D01*
X17738Y31245D01*
X17700Y31264D01*
X17680Y31283D01*
X17661Y31321D01*
X17661Y31416D01*
X17680Y31473D01*
X17700Y31626D02*
X17680Y31645D01*
X17661Y31683D01*
X17661Y31778D01*
X17680Y31816D01*
X17700Y31835D01*
X17738Y31854D01*
X17776Y31854D01*
X17833Y31835D01*
X18061Y31607D01*
X18061Y31854D01*
X17042Y31295D02*
X17061Y31352D01*
X17061Y31447D01*
X17042Y31485D01*
X17023Y31504D01*
X16985Y31523D01*
X16947Y31523D01*
X16909Y31504D01*
X16890Y31485D01*
X16871Y31447D01*
X16852Y31371D01*
X16833Y31333D01*
X16814Y31314D01*
X16776Y31295D01*
X16738Y31295D01*
X16700Y31314D01*
X16680Y31333D01*
X16661Y31371D01*
X16661Y31466D01*
X16680Y31523D01*
X17061Y31904D02*
X17061Y31676D01*
X17061Y31790D02*
X16661Y31790D01*
X16719Y31752D01*
X16757Y31714D01*
X16776Y31676D01*
X19828Y9078D02*
X19828Y9378D01*
X19942Y9378D01*
X19971Y9364D01*
X19985Y9350D01*
X20000Y9321D01*
X20000Y9278D01*
X19985Y9250D01*
X19971Y9235D01*
X19942Y9221D01*
X19828Y9221D01*
X20114Y9092D02*
X20157Y9078D01*
X20228Y9078D01*
X20257Y9092D01*
X20271Y9107D01*
X20285Y9135D01*
X20285Y9164D01*
X20271Y9192D01*
X20257Y9207D01*
X20228Y9221D01*
X20171Y9235D01*
X20142Y9250D01*
X20128Y9264D01*
X20114Y9292D01*
X20114Y9321D01*
X20128Y9350D01*
X20142Y9364D01*
X20171Y9378D01*
X20242Y9378D01*
X20285Y9364D01*
X20414Y9192D02*
X20642Y9192D01*
X20842Y9378D02*
X20900Y9378D01*
X20928Y9364D01*
X20957Y9335D01*
X20971Y9278D01*
X20971Y9178D01*
X20957Y9121D01*
X20928Y9092D01*
X20900Y9078D01*
X20842Y9078D01*
X20814Y9092D01*
X20785Y9121D01*
X20771Y9178D01*
X20771Y9278D01*
X20785Y9335D01*
X20814Y9364D01*
X20842Y9378D01*
X21100Y9078D02*
X21100Y9378D01*
X21271Y9078D01*
X21271Y9378D01*
G54D15*
X4821Y18942D02*
X4521Y18942D01*
X4521Y19014D01*
X4535Y19057D01*
X4564Y19085D01*
X4592Y19100D01*
X4650Y19114D01*
X4692Y19114D01*
X4750Y19100D01*
X4778Y19085D01*
X4807Y19057D01*
X4821Y19014D01*
X4821Y18942D01*
X4550Y19228D02*
X4535Y19242D01*
X4521Y19271D01*
X4521Y19342D01*
X4535Y19371D01*
X4550Y19385D01*
X4578Y19400D01*
X4607Y19400D01*
X4650Y19385D01*
X4821Y19214D01*
X4821Y19400D01*
X4521Y19585D02*
X4521Y19614D01*
X4535Y19642D01*
X4550Y19657D01*
X4578Y19671D01*
X4635Y19685D01*
X4707Y19685D01*
X4764Y19671D01*
X4792Y19657D01*
X4807Y19642D01*
X4821Y19614D01*
X4821Y19585D01*
X4807Y19557D01*
X4792Y19542D01*
X4764Y19528D01*
X4707Y19514D01*
X4635Y19514D01*
X4578Y19528D01*
X4550Y19542D01*
X4535Y19557D01*
X4521Y19585D01*
X4521Y19785D02*
X4521Y19971D01*
X4635Y19871D01*
X4635Y19914D01*
X4650Y19942D01*
X4664Y19957D01*
X4692Y19971D01*
X4764Y19971D01*
X4792Y19957D01*
X4807Y19942D01*
X4821Y19914D01*
X4821Y19828D01*
X4807Y19800D01*
X4792Y19785D01*
X5042Y17478D02*
X5042Y17778D01*
X5114Y17778D01*
X5157Y17764D01*
X5185Y17735D01*
X5200Y17707D01*
X5214Y17650D01*
X5214Y17607D01*
X5200Y17550D01*
X5185Y17521D01*
X5157Y17492D01*
X5114Y17478D01*
X5042Y17478D01*
X5328Y17750D02*
X5342Y17764D01*
X5371Y17778D01*
X5442Y17778D01*
X5471Y17764D01*
X5485Y17750D01*
X5500Y17721D01*
X5500Y17692D01*
X5485Y17650D01*
X5314Y17478D01*
X5500Y17478D01*
X5685Y17778D02*
X5714Y17778D01*
X5742Y17764D01*
X5757Y17750D01*
X5771Y17721D01*
X5785Y17664D01*
X5785Y17592D01*
X5771Y17535D01*
X5757Y17507D01*
X5742Y17492D01*
X5714Y17478D01*
X5685Y17478D01*
X5657Y17492D01*
X5642Y17507D01*
X5628Y17535D01*
X5614Y17592D01*
X5614Y17664D01*
X5628Y17721D01*
X5642Y17750D01*
X5657Y17764D01*
X5685Y17778D01*
X6071Y17478D02*
X5900Y17478D01*
X5985Y17478D02*
X5985Y17778D01*
X5957Y17735D01*
X5928Y17707D01*
X5900Y17692D01*
X5271Y24092D02*
X4971Y24092D01*
X4971Y24164D01*
X4985Y24207D01*
X5014Y24235D01*
X5042Y24250D01*
X5100Y24264D01*
X5142Y24264D01*
X5200Y24250D01*
X5228Y24235D01*
X5257Y24207D01*
X5271Y24164D01*
X5271Y24092D01*
X5000Y24378D02*
X4985Y24392D01*
X4971Y24421D01*
X4971Y24492D01*
X4985Y24521D01*
X5000Y24535D01*
X5028Y24550D01*
X5057Y24550D01*
X5100Y24535D01*
X5271Y24364D01*
X5271Y24550D01*
X4971Y24735D02*
X4971Y24764D01*
X4985Y24792D01*
X5000Y24807D01*
X5028Y24821D01*
X5085Y24835D01*
X5157Y24835D01*
X5214Y24821D01*
X5242Y24807D01*
X5257Y24792D01*
X5271Y24764D01*
X5271Y24735D01*
X5257Y24707D01*
X5242Y24692D01*
X5214Y24678D01*
X5157Y24664D01*
X5085Y24664D01*
X5028Y24678D01*
X5000Y24692D01*
X4985Y24707D01*
X4971Y24735D01*
X5000Y24950D02*
X4985Y24964D01*
X4971Y24992D01*
X4971Y25064D01*
X4985Y25092D01*
X5000Y25107D01*
X5028Y25121D01*
X5057Y25121D01*
X5100Y25107D01*
X5271Y24935D01*
X5271Y25121D01*
G54D23*
X33179Y7389D02*
X33170Y7379D01*
X33142Y7370D01*
X33123Y7370D01*
X33095Y7379D01*
X33076Y7398D01*
X33066Y7417D01*
X33057Y7454D01*
X33057Y7482D01*
X33066Y7520D01*
X33076Y7539D01*
X33095Y7557D01*
X33123Y7567D01*
X33142Y7567D01*
X33170Y7557D01*
X33179Y7548D01*
X33254Y7548D02*
X33263Y7557D01*
X33282Y7567D01*
X33329Y7567D01*
X33348Y7557D01*
X33357Y7548D01*
X33367Y7529D01*
X33367Y7510D01*
X33357Y7482D01*
X33245Y7370D01*
X33367Y7370D01*
X33489Y7567D02*
X33507Y7567D01*
X33526Y7557D01*
X33536Y7548D01*
X33545Y7529D01*
X33554Y7492D01*
X33554Y7445D01*
X33545Y7407D01*
X33536Y7389D01*
X33526Y7379D01*
X33507Y7370D01*
X33489Y7370D01*
X33470Y7379D01*
X33460Y7389D01*
X33451Y7407D01*
X33442Y7445D01*
X33442Y7492D01*
X33451Y7529D01*
X33460Y7548D01*
X33470Y7557D01*
X33489Y7567D01*
X33723Y7501D02*
X33723Y7370D01*
X33676Y7576D02*
X33629Y7435D01*
X33751Y7435D01*
X7279Y11739D02*
X7270Y11729D01*
X7242Y11720D01*
X7223Y11720D01*
X7195Y11729D01*
X7176Y11748D01*
X7166Y11767D01*
X7157Y11804D01*
X7157Y11832D01*
X7166Y11870D01*
X7176Y11889D01*
X7195Y11907D01*
X7223Y11917D01*
X7242Y11917D01*
X7270Y11907D01*
X7279Y11898D01*
X7467Y11720D02*
X7354Y11720D01*
X7410Y11720D02*
X7410Y11917D01*
X7392Y11889D01*
X7373Y11870D01*
X7354Y11860D01*
X7589Y11917D02*
X7607Y11917D01*
X7626Y11907D01*
X7636Y11898D01*
X7645Y11879D01*
X7654Y11842D01*
X7654Y11795D01*
X7645Y11757D01*
X7636Y11739D01*
X7626Y11729D01*
X7607Y11720D01*
X7589Y11720D01*
X7570Y11729D01*
X7560Y11739D01*
X7551Y11757D01*
X7542Y11795D01*
X7542Y11842D01*
X7551Y11879D01*
X7560Y11898D01*
X7570Y11907D01*
X7589Y11917D01*
X7842Y11720D02*
X7729Y11720D01*
X7786Y11720D02*
X7786Y11917D01*
X7767Y11889D01*
X7748Y11870D01*
X7729Y11860D01*
X21179Y28539D02*
X21170Y28529D01*
X21142Y28520D01*
X21123Y28520D01*
X21095Y28529D01*
X21076Y28548D01*
X21066Y28567D01*
X21057Y28604D01*
X21057Y28632D01*
X21066Y28670D01*
X21076Y28689D01*
X21095Y28707D01*
X21123Y28717D01*
X21142Y28717D01*
X21170Y28707D01*
X21179Y28698D01*
X21254Y28698D02*
X21263Y28707D01*
X21282Y28717D01*
X21329Y28717D01*
X21348Y28707D01*
X21357Y28698D01*
X21367Y28679D01*
X21367Y28660D01*
X21357Y28632D01*
X21245Y28520D01*
X21367Y28520D01*
X21489Y28717D02*
X21507Y28717D01*
X21526Y28707D01*
X21536Y28698D01*
X21545Y28679D01*
X21554Y28642D01*
X21554Y28595D01*
X21545Y28557D01*
X21536Y28539D01*
X21526Y28529D01*
X21507Y28520D01*
X21489Y28520D01*
X21470Y28529D01*
X21460Y28539D01*
X21451Y28557D01*
X21442Y28595D01*
X21442Y28642D01*
X21451Y28679D01*
X21460Y28698D01*
X21470Y28707D01*
X21489Y28717D01*
X21733Y28717D02*
X21639Y28717D01*
X21629Y28623D01*
X21639Y28632D01*
X21657Y28642D01*
X21704Y28642D01*
X21723Y28632D01*
X21733Y28623D01*
X21742Y28604D01*
X21742Y28557D01*
X21733Y28539D01*
X21723Y28529D01*
X21704Y28520D01*
X21657Y28520D01*
X21639Y28529D01*
X21629Y28539D01*
X11429Y25889D02*
X11420Y25879D01*
X11392Y25870D01*
X11373Y25870D01*
X11345Y25879D01*
X11326Y25898D01*
X11316Y25917D01*
X11307Y25954D01*
X11307Y25982D01*
X11316Y26020D01*
X11326Y26039D01*
X11345Y26057D01*
X11373Y26067D01*
X11392Y26067D01*
X11420Y26057D01*
X11429Y26048D01*
X11504Y26048D02*
X11513Y26057D01*
X11532Y26067D01*
X11579Y26067D01*
X11598Y26057D01*
X11607Y26048D01*
X11617Y26029D01*
X11617Y26010D01*
X11607Y25982D01*
X11495Y25870D01*
X11617Y25870D01*
X11739Y26067D02*
X11757Y26067D01*
X11776Y26057D01*
X11786Y26048D01*
X11795Y26029D01*
X11804Y25992D01*
X11804Y25945D01*
X11795Y25907D01*
X11786Y25889D01*
X11776Y25879D01*
X11757Y25870D01*
X11739Y25870D01*
X11720Y25879D01*
X11710Y25889D01*
X11701Y25907D01*
X11692Y25945D01*
X11692Y25992D01*
X11701Y26029D01*
X11710Y26048D01*
X11720Y26057D01*
X11739Y26067D01*
X11870Y26067D02*
X11992Y26067D01*
X11926Y25992D01*
X11954Y25992D01*
X11973Y25982D01*
X11983Y25973D01*
X11992Y25954D01*
X11992Y25907D01*
X11983Y25889D01*
X11973Y25879D01*
X11954Y25870D01*
X11898Y25870D01*
X11879Y25879D01*
X11870Y25889D01*
X26129Y7389D02*
X26120Y7379D01*
X26092Y7370D01*
X26073Y7370D01*
X26045Y7379D01*
X26026Y7398D01*
X26016Y7417D01*
X26007Y7454D01*
X26007Y7482D01*
X26016Y7520D01*
X26026Y7539D01*
X26045Y7557D01*
X26073Y7567D01*
X26092Y7567D01*
X26120Y7557D01*
X26129Y7548D01*
X26204Y7548D02*
X26213Y7557D01*
X26232Y7567D01*
X26279Y7567D01*
X26298Y7557D01*
X26307Y7548D01*
X26317Y7529D01*
X26317Y7510D01*
X26307Y7482D01*
X26195Y7370D01*
X26317Y7370D01*
X26439Y7567D02*
X26457Y7567D01*
X26476Y7557D01*
X26486Y7548D01*
X26495Y7529D01*
X26504Y7492D01*
X26504Y7445D01*
X26495Y7407D01*
X26486Y7389D01*
X26476Y7379D01*
X26457Y7370D01*
X26439Y7370D01*
X26420Y7379D01*
X26410Y7389D01*
X26401Y7407D01*
X26392Y7445D01*
X26392Y7492D01*
X26401Y7529D01*
X26410Y7548D01*
X26420Y7557D01*
X26439Y7567D01*
X26579Y7548D02*
X26589Y7557D01*
X26607Y7567D01*
X26654Y7567D01*
X26673Y7557D01*
X26683Y7548D01*
X26692Y7529D01*
X26692Y7510D01*
X26683Y7482D01*
X26570Y7370D01*
X26692Y7370D01*
X20179Y7414D02*
X20170Y7404D01*
X20142Y7395D01*
X20123Y7395D01*
X20095Y7404D01*
X20076Y7423D01*
X20066Y7442D01*
X20057Y7479D01*
X20057Y7507D01*
X20066Y7545D01*
X20076Y7564D01*
X20095Y7582D01*
X20123Y7592D01*
X20142Y7592D01*
X20170Y7582D01*
X20179Y7573D01*
X20254Y7573D02*
X20263Y7582D01*
X20282Y7592D01*
X20329Y7592D01*
X20348Y7582D01*
X20357Y7573D01*
X20367Y7554D01*
X20367Y7535D01*
X20357Y7507D01*
X20245Y7395D01*
X20367Y7395D01*
X20489Y7592D02*
X20507Y7592D01*
X20526Y7582D01*
X20536Y7573D01*
X20545Y7554D01*
X20554Y7517D01*
X20554Y7470D01*
X20545Y7432D01*
X20536Y7414D01*
X20526Y7404D01*
X20507Y7395D01*
X20489Y7395D01*
X20470Y7404D01*
X20460Y7414D01*
X20451Y7432D01*
X20442Y7470D01*
X20442Y7517D01*
X20451Y7554D01*
X20460Y7573D01*
X20470Y7582D01*
X20489Y7592D01*
X20742Y7395D02*
X20629Y7395D01*
X20686Y7395D02*
X20686Y7592D01*
X20667Y7564D01*
X20648Y7545D01*
X20629Y7535D01*
X16829Y12839D02*
X16820Y12829D01*
X16792Y12820D01*
X16773Y12820D01*
X16745Y12829D01*
X16726Y12848D01*
X16716Y12867D01*
X16707Y12904D01*
X16707Y12932D01*
X16716Y12970D01*
X16726Y12989D01*
X16745Y13007D01*
X16773Y13017D01*
X16792Y13017D01*
X16820Y13007D01*
X16829Y12998D01*
X16895Y13017D02*
X17017Y13017D01*
X16951Y12942D01*
X16979Y12942D01*
X16998Y12932D01*
X17007Y12923D01*
X17017Y12904D01*
X17017Y12857D01*
X17007Y12839D01*
X16998Y12829D01*
X16979Y12820D01*
X16923Y12820D01*
X16904Y12829D01*
X16895Y12839D01*
X17139Y13017D02*
X17157Y13017D01*
X17176Y13007D01*
X17186Y12998D01*
X17195Y12979D01*
X17204Y12942D01*
X17204Y12895D01*
X17195Y12857D01*
X17186Y12839D01*
X17176Y12829D01*
X17157Y12820D01*
X17139Y12820D01*
X17120Y12829D01*
X17110Y12839D01*
X17101Y12857D01*
X17092Y12895D01*
X17092Y12942D01*
X17101Y12979D01*
X17110Y12998D01*
X17120Y13007D01*
X17139Y13017D01*
X17392Y12820D02*
X17279Y12820D01*
X17336Y12820D02*
X17336Y13017D01*
X17317Y12989D01*
X17298Y12970D01*
X17279Y12960D01*
X16779Y16839D02*
X16770Y16829D01*
X16742Y16820D01*
X16723Y16820D01*
X16695Y16829D01*
X16676Y16848D01*
X16666Y16867D01*
X16657Y16904D01*
X16657Y16932D01*
X16666Y16970D01*
X16676Y16989D01*
X16695Y17007D01*
X16723Y17017D01*
X16742Y17017D01*
X16770Y17007D01*
X16779Y16998D01*
X16845Y17017D02*
X16967Y17017D01*
X16901Y16942D01*
X16929Y16942D01*
X16948Y16932D01*
X16957Y16923D01*
X16967Y16904D01*
X16967Y16857D01*
X16957Y16839D01*
X16948Y16829D01*
X16929Y16820D01*
X16873Y16820D01*
X16854Y16829D01*
X16845Y16839D01*
X17089Y17017D02*
X17107Y17017D01*
X17126Y17007D01*
X17136Y16998D01*
X17145Y16979D01*
X17154Y16942D01*
X17154Y16895D01*
X17145Y16857D01*
X17136Y16839D01*
X17126Y16829D01*
X17107Y16820D01*
X17089Y16820D01*
X17070Y16829D01*
X17060Y16839D01*
X17051Y16857D01*
X17042Y16895D01*
X17042Y16942D01*
X17051Y16979D01*
X17060Y16998D01*
X17070Y17007D01*
X17089Y17017D01*
X17220Y17017D02*
X17342Y17017D01*
X17276Y16942D01*
X17304Y16942D01*
X17323Y16932D01*
X17333Y16923D01*
X17342Y16904D01*
X17342Y16857D01*
X17333Y16839D01*
X17323Y16829D01*
X17304Y16820D01*
X17248Y16820D01*
X17229Y16829D01*
X17220Y16839D01*
X16779Y14789D02*
X16770Y14779D01*
X16742Y14770D01*
X16723Y14770D01*
X16695Y14779D01*
X16676Y14798D01*
X16666Y14817D01*
X16657Y14854D01*
X16657Y14882D01*
X16666Y14920D01*
X16676Y14939D01*
X16695Y14957D01*
X16723Y14967D01*
X16742Y14967D01*
X16770Y14957D01*
X16779Y14948D01*
X16845Y14967D02*
X16967Y14967D01*
X16901Y14892D01*
X16929Y14892D01*
X16948Y14882D01*
X16957Y14873D01*
X16967Y14854D01*
X16967Y14807D01*
X16957Y14789D01*
X16948Y14779D01*
X16929Y14770D01*
X16873Y14770D01*
X16854Y14779D01*
X16845Y14789D01*
X17089Y14967D02*
X17107Y14967D01*
X17126Y14957D01*
X17136Y14948D01*
X17145Y14929D01*
X17154Y14892D01*
X17154Y14845D01*
X17145Y14807D01*
X17136Y14789D01*
X17126Y14779D01*
X17107Y14770D01*
X17089Y14770D01*
X17070Y14779D01*
X17060Y14789D01*
X17051Y14807D01*
X17042Y14845D01*
X17042Y14892D01*
X17051Y14929D01*
X17060Y14948D01*
X17070Y14957D01*
X17089Y14967D01*
X17229Y14948D02*
X17239Y14957D01*
X17257Y14967D01*
X17304Y14967D01*
X17323Y14957D01*
X17333Y14948D01*
X17342Y14929D01*
X17342Y14910D01*
X17333Y14882D01*
X17220Y14770D01*
X17342Y14770D01*
G54D11*
X10892Y13485D02*
X10292Y13485D01*
X10292Y13628D01*
X10321Y13714D01*
X10378Y13771D01*
X10435Y13800D01*
X10550Y13828D01*
X10635Y13828D01*
X10750Y13800D01*
X10807Y13771D01*
X10864Y13714D01*
X10892Y13628D01*
X10892Y13485D01*
X10892Y14400D02*
X10892Y14057D01*
X10892Y14228D02*
X10292Y14228D01*
X10378Y14171D01*
X10435Y14114D01*
X10464Y14057D01*
X10292Y14771D02*
X10292Y14828D01*
X10321Y14885D01*
X10350Y14914D01*
X10407Y14942D01*
X10521Y14971D01*
X10664Y14971D01*
X10778Y14942D01*
X10835Y14914D01*
X10864Y14885D01*
X10892Y14828D01*
X10892Y14771D01*
X10864Y14714D01*
X10835Y14685D01*
X10778Y14657D01*
X10664Y14628D01*
X10521Y14628D01*
X10407Y14657D01*
X10350Y14685D01*
X10321Y14714D01*
X10292Y14771D01*
X10350Y15200D02*
X10321Y15228D01*
X10292Y15285D01*
X10292Y15428D01*
X10321Y15485D01*
X10350Y15514D01*
X10407Y15542D01*
X10464Y15542D01*
X10550Y15514D01*
X10892Y15171D01*
X10892Y15542D01*
G54D14*
X7730Y15050D02*
X7692Y15078D01*
X7654Y15135D01*
X7597Y15221D01*
X7559Y15250D01*
X7521Y15250D01*
X7540Y15107D02*
X7502Y15135D01*
X7464Y15192D01*
X7445Y15307D01*
X7445Y15507D01*
X7464Y15621D01*
X7502Y15678D01*
X7540Y15707D01*
X7616Y15707D01*
X7654Y15678D01*
X7692Y15621D01*
X7711Y15507D01*
X7711Y15307D01*
X7692Y15192D01*
X7654Y15135D01*
X7616Y15107D01*
X7540Y15107D01*
X7864Y15650D02*
X7883Y15678D01*
X7921Y15707D01*
X8016Y15707D01*
X8054Y15678D01*
X8073Y15650D01*
X8092Y15592D01*
X8092Y15535D01*
X8073Y15450D01*
X7845Y15107D01*
X8092Y15107D01*
X8340Y15707D02*
X8378Y15707D01*
X8416Y15678D01*
X8435Y15650D01*
X8454Y15592D01*
X8473Y15478D01*
X8473Y15335D01*
X8454Y15221D01*
X8435Y15164D01*
X8416Y15135D01*
X8378Y15107D01*
X8340Y15107D01*
X8302Y15135D01*
X8283Y15164D01*
X8264Y15221D01*
X8245Y15335D01*
X8245Y15478D01*
X8264Y15592D01*
X8283Y15650D01*
X8302Y15678D01*
X8340Y15707D01*
X8854Y15107D02*
X8626Y15107D01*
X8740Y15107D02*
X8740Y15707D01*
X8702Y15621D01*
X8664Y15564D01*
X8626Y15535D01*
X6580Y24850D02*
X6542Y24878D01*
X6504Y24935D01*
X6447Y25021D01*
X6409Y25050D01*
X6371Y25050D01*
X6390Y24907D02*
X6352Y24935D01*
X6314Y24992D01*
X6295Y25107D01*
X6295Y25307D01*
X6314Y25421D01*
X6352Y25478D01*
X6390Y25507D01*
X6466Y25507D01*
X6504Y25478D01*
X6542Y25421D01*
X6561Y25307D01*
X6561Y25107D01*
X6542Y24992D01*
X6504Y24935D01*
X6466Y24907D01*
X6390Y24907D01*
X6714Y25450D02*
X6733Y25478D01*
X6771Y25507D01*
X6866Y25507D01*
X6904Y25478D01*
X6923Y25450D01*
X6942Y25392D01*
X6942Y25335D01*
X6923Y25250D01*
X6695Y24907D01*
X6942Y24907D01*
X7190Y25507D02*
X7228Y25507D01*
X7266Y25478D01*
X7285Y25450D01*
X7304Y25392D01*
X7323Y25278D01*
X7323Y25135D01*
X7304Y25021D01*
X7285Y24964D01*
X7266Y24935D01*
X7228Y24907D01*
X7190Y24907D01*
X7152Y24935D01*
X7133Y24964D01*
X7114Y25021D01*
X7095Y25135D01*
X7095Y25278D01*
X7114Y25392D01*
X7133Y25450D01*
X7152Y25478D01*
X7190Y25507D01*
X7476Y25450D02*
X7495Y25478D01*
X7533Y25507D01*
X7628Y25507D01*
X7666Y25478D01*
X7685Y25450D01*
X7704Y25392D01*
X7704Y25335D01*
X7685Y25250D01*
X7457Y24907D01*
X7704Y24907D01*
X5780Y20900D02*
X5742Y20919D01*
X5704Y20957D01*
X5647Y21014D01*
X5609Y21033D01*
X5571Y21033D01*
X5590Y20938D02*
X5552Y20957D01*
X5514Y20995D01*
X5495Y21071D01*
X5495Y21204D01*
X5514Y21280D01*
X5552Y21319D01*
X5590Y21338D01*
X5666Y21338D01*
X5704Y21319D01*
X5742Y21280D01*
X5761Y21204D01*
X5761Y21071D01*
X5742Y20995D01*
X5704Y20957D01*
X5666Y20938D01*
X5590Y20938D01*
X5914Y21300D02*
X5933Y21319D01*
X5971Y21338D01*
X6066Y21338D01*
X6104Y21319D01*
X6123Y21300D01*
X6142Y21261D01*
X6142Y21223D01*
X6123Y21166D01*
X5895Y20938D01*
X6142Y20938D01*
X6390Y21338D02*
X6428Y21338D01*
X6466Y21319D01*
X6485Y21300D01*
X6504Y21261D01*
X6523Y21185D01*
X6523Y21090D01*
X6504Y21014D01*
X6485Y20976D01*
X6466Y20957D01*
X6428Y20938D01*
X6390Y20938D01*
X6352Y20957D01*
X6333Y20976D01*
X6314Y21014D01*
X6295Y21090D01*
X6295Y21185D01*
X6314Y21261D01*
X6333Y21300D01*
X6352Y21319D01*
X6390Y21338D01*
X6657Y21338D02*
X6904Y21338D01*
X6771Y21185D01*
X6828Y21185D01*
X6866Y21166D01*
X6885Y21147D01*
X6904Y21109D01*
X6904Y21014D01*
X6885Y20976D01*
X6866Y20957D01*
X6828Y20938D01*
X6714Y20938D01*
X6676Y20957D01*
X6657Y20976D01*
G54D24*
X8835Y26900D02*
X8807Y26914D01*
X8778Y26942D01*
X8735Y26985D01*
X8707Y27000D01*
X8678Y27000D01*
X8692Y26928D02*
X8664Y26942D01*
X8635Y26971D01*
X8621Y27028D01*
X8621Y27128D01*
X8635Y27185D01*
X8664Y27214D01*
X8692Y27228D01*
X8750Y27228D01*
X8778Y27214D01*
X8807Y27185D01*
X8821Y27128D01*
X8821Y27028D01*
X8807Y26971D01*
X8778Y26942D01*
X8750Y26928D01*
X8692Y26928D01*
X8935Y27200D02*
X8950Y27214D01*
X8978Y27228D01*
X9050Y27228D01*
X9078Y27214D01*
X9092Y27200D01*
X9107Y27171D01*
X9107Y27142D01*
X9092Y27100D01*
X8921Y26928D01*
X9107Y26928D01*
X9292Y27228D02*
X9321Y27228D01*
X9350Y27214D01*
X9364Y27200D01*
X9378Y27171D01*
X9392Y27114D01*
X9392Y27042D01*
X9378Y26985D01*
X9364Y26957D01*
X9350Y26942D01*
X9321Y26928D01*
X9292Y26928D01*
X9264Y26942D01*
X9250Y26957D01*
X9235Y26985D01*
X9221Y27042D01*
X9221Y27114D01*
X9235Y27171D01*
X9250Y27200D01*
X9264Y27214D01*
X9292Y27228D01*
X9650Y27128D02*
X9650Y26928D01*
X9578Y27242D02*
X9507Y27028D01*
X9692Y27028D01*
G54D11*
X23599Y11222D02*
X23599Y11822D01*
X23856Y11222D02*
X23856Y11536D01*
X23827Y11593D01*
X23770Y11622D01*
X23685Y11622D01*
X23627Y11593D01*
X23599Y11565D01*
X24399Y11222D02*
X24399Y11536D01*
X24370Y11593D01*
X24313Y11622D01*
X24199Y11622D01*
X24142Y11593D01*
X24399Y11250D02*
X24342Y11222D01*
X24199Y11222D01*
X24142Y11250D01*
X24113Y11307D01*
X24113Y11365D01*
X24142Y11422D01*
X24199Y11450D01*
X24342Y11450D01*
X24399Y11479D01*
X24685Y11222D02*
X24685Y11622D01*
X24685Y11507D02*
X24713Y11565D01*
X24742Y11593D01*
X24799Y11622D01*
X24856Y11622D01*
X25313Y11222D02*
X25313Y11822D01*
X25313Y11250D02*
X25256Y11222D01*
X25142Y11222D01*
X25085Y11250D01*
X25056Y11279D01*
X25027Y11336D01*
X25027Y11507D01*
X25056Y11565D01*
X25085Y11593D01*
X25142Y11622D01*
X25256Y11622D01*
X25313Y11593D01*
X25542Y11622D02*
X25656Y11222D01*
X25770Y11507D01*
X25885Y11222D01*
X25999Y11622D01*
X26485Y11222D02*
X26485Y11536D01*
X26456Y11593D01*
X26399Y11622D01*
X26285Y11622D01*
X26227Y11593D01*
X26485Y11250D02*
X26427Y11222D01*
X26285Y11222D01*
X26227Y11250D01*
X26199Y11307D01*
X26199Y11365D01*
X26227Y11422D01*
X26285Y11450D01*
X26427Y11450D01*
X26485Y11479D01*
X26770Y11222D02*
X26770Y11622D01*
X26770Y11507D02*
X26799Y11565D01*
X26827Y11593D01*
X26885Y11622D01*
X26942Y11622D01*
X27370Y11250D02*
X27313Y11222D01*
X27199Y11222D01*
X27142Y11250D01*
X27113Y11307D01*
X27113Y11536D01*
X27142Y11593D01*
X27199Y11622D01*
X27313Y11622D01*
X27370Y11593D01*
X27399Y11536D01*
X27399Y11479D01*
X27113Y11422D01*
X23142Y11907D02*
X23085Y11935D01*
X23057Y11964D01*
X23028Y12021D01*
X23028Y12192D01*
X23057Y12250D01*
X23085Y12278D01*
X23142Y12307D01*
X23228Y12307D01*
X23285Y12278D01*
X23314Y12250D01*
X23342Y12192D01*
X23342Y12021D01*
X23314Y11964D01*
X23285Y11935D01*
X23228Y11907D01*
X23142Y11907D01*
X23600Y12307D02*
X23600Y11707D01*
X23600Y12278D02*
X23657Y12307D01*
X23771Y12307D01*
X23828Y12278D01*
X23857Y12250D01*
X23885Y12192D01*
X23885Y12021D01*
X23857Y11964D01*
X23828Y11935D01*
X23771Y11907D01*
X23657Y11907D01*
X23600Y11935D01*
X24371Y11935D02*
X24314Y11907D01*
X24200Y11907D01*
X24142Y11935D01*
X24114Y11992D01*
X24114Y12221D01*
X24142Y12278D01*
X24200Y12307D01*
X24314Y12307D01*
X24371Y12278D01*
X24400Y12221D01*
X24400Y12164D01*
X24114Y12107D01*
X24657Y12307D02*
X24657Y11907D01*
X24657Y12250D02*
X24685Y12278D01*
X24742Y12307D01*
X24828Y12307D01*
X24885Y12278D01*
X24914Y12221D01*
X24914Y11907D01*
X25628Y11935D02*
X25685Y11907D01*
X25800Y11907D01*
X25857Y11935D01*
X25885Y11992D01*
X25885Y12021D01*
X25857Y12078D01*
X25800Y12107D01*
X25714Y12107D01*
X25657Y12135D01*
X25628Y12192D01*
X25628Y12221D01*
X25657Y12278D01*
X25714Y12307D01*
X25800Y12307D01*
X25857Y12278D01*
X26228Y11907D02*
X26171Y11935D01*
X26142Y11964D01*
X26114Y12021D01*
X26114Y12192D01*
X26142Y12250D01*
X26171Y12278D01*
X26228Y12307D01*
X26314Y12307D01*
X26371Y12278D01*
X26400Y12250D01*
X26428Y12192D01*
X26428Y12021D01*
X26400Y11964D01*
X26371Y11935D01*
X26314Y11907D01*
X26228Y11907D01*
X26942Y12307D02*
X26942Y11907D01*
X26685Y12307D02*
X26685Y11992D01*
X26714Y11935D01*
X26771Y11907D01*
X26857Y11907D01*
X26914Y11935D01*
X26942Y11964D01*
X27228Y11907D02*
X27228Y12307D01*
X27228Y12192D02*
X27257Y12250D01*
X27285Y12278D01*
X27342Y12307D01*
X27400Y12307D01*
X27857Y11935D02*
X27800Y11907D01*
X27685Y11907D01*
X27628Y11935D01*
X27600Y11964D01*
X27571Y12021D01*
X27571Y12192D01*
X27600Y12250D01*
X27628Y12278D01*
X27685Y12307D01*
X27800Y12307D01*
X27857Y12278D01*
X28342Y11935D02*
X28285Y11907D01*
X28171Y11907D01*
X28114Y11935D01*
X28085Y11992D01*
X28085Y12221D01*
X28114Y12278D01*
X28171Y12307D01*
X28285Y12307D01*
X28342Y12278D01*
X28371Y12221D01*
X28371Y12164D01*
X28085Y12107D01*
G54D15*
X16821Y20792D02*
X16521Y20792D01*
X16521Y20864D01*
X16535Y20907D01*
X16564Y20935D01*
X16592Y20950D01*
X16650Y20964D01*
X16692Y20964D01*
X16750Y20950D01*
X16778Y20935D01*
X16807Y20907D01*
X16821Y20864D01*
X16821Y20792D01*
X16821Y21250D02*
X16821Y21078D01*
X16821Y21164D02*
X16521Y21164D01*
X16564Y21135D01*
X16592Y21107D01*
X16607Y21078D01*
X16521Y21435D02*
X16521Y21464D01*
X16535Y21492D01*
X16550Y21507D01*
X16578Y21521D01*
X16635Y21535D01*
X16707Y21535D01*
X16764Y21521D01*
X16792Y21507D01*
X16807Y21492D01*
X16821Y21464D01*
X16821Y21435D01*
X16807Y21407D01*
X16792Y21392D01*
X16764Y21378D01*
X16707Y21364D01*
X16635Y21364D01*
X16578Y21378D01*
X16550Y21392D01*
X16535Y21407D01*
X16521Y21435D01*
X16821Y21821D02*
X16821Y21650D01*
X16821Y21735D02*
X16521Y21735D01*
X16564Y21707D01*
X16592Y21678D01*
X16607Y21650D01*
X28570Y8948D02*
X28486Y9067D01*
X28427Y8948D02*
X28427Y9198D01*
X28522Y9198D01*
X28546Y9186D01*
X28558Y9175D01*
X28570Y9151D01*
X28570Y9115D01*
X28558Y9091D01*
X28546Y9079D01*
X28522Y9067D01*
X28427Y9067D01*
X28653Y9198D02*
X28808Y9198D01*
X28725Y9103D01*
X28760Y9103D01*
X28784Y9091D01*
X28796Y9079D01*
X28808Y9055D01*
X28808Y8996D01*
X28796Y8972D01*
X28784Y8960D01*
X28760Y8948D01*
X28689Y8948D01*
X28665Y8960D01*
X28653Y8972D01*
X28963Y9198D02*
X28986Y9198D01*
X29010Y9186D01*
X29022Y9175D01*
X29034Y9151D01*
X29046Y9103D01*
X29046Y9044D01*
X29034Y8996D01*
X29022Y8972D01*
X29010Y8960D01*
X28986Y8948D01*
X28963Y8948D01*
X28939Y8960D01*
X28927Y8972D01*
X28915Y8996D01*
X28903Y9044D01*
X28903Y9103D01*
X28915Y9151D01*
X28927Y9175D01*
X28939Y9186D01*
X28963Y9198D01*
X29260Y9115D02*
X29260Y8948D01*
X29201Y9210D02*
X29141Y9032D01*
X29296Y9032D01*
G54D14*
X6230Y27850D02*
X6192Y27878D01*
X6154Y27935D01*
X6097Y28021D01*
X6059Y28050D01*
X6021Y28050D01*
X6040Y27907D02*
X6002Y27935D01*
X5964Y27992D01*
X5945Y28107D01*
X5945Y28307D01*
X5964Y28421D01*
X6002Y28478D01*
X6040Y28507D01*
X6116Y28507D01*
X6154Y28478D01*
X6192Y28421D01*
X6211Y28307D01*
X6211Y28107D01*
X6192Y27992D01*
X6154Y27935D01*
X6116Y27907D01*
X6040Y27907D01*
X6364Y28450D02*
X6383Y28478D01*
X6421Y28507D01*
X6516Y28507D01*
X6554Y28478D01*
X6573Y28450D01*
X6592Y28392D01*
X6592Y28335D01*
X6573Y28250D01*
X6345Y27907D01*
X6592Y27907D01*
X6840Y28507D02*
X6878Y28507D01*
X6916Y28478D01*
X6935Y28450D01*
X6954Y28392D01*
X6973Y28278D01*
X6973Y28135D01*
X6954Y28021D01*
X6935Y27964D01*
X6916Y27935D01*
X6878Y27907D01*
X6840Y27907D01*
X6802Y27935D01*
X6783Y27964D01*
X6764Y28021D01*
X6745Y28135D01*
X6745Y28278D01*
X6764Y28392D01*
X6783Y28450D01*
X6802Y28478D01*
X6840Y28507D01*
X7316Y28507D02*
X7240Y28507D01*
X7202Y28478D01*
X7183Y28450D01*
X7145Y28364D01*
X7126Y28250D01*
X7126Y28021D01*
X7145Y27964D01*
X7164Y27935D01*
X7202Y27907D01*
X7278Y27907D01*
X7316Y27935D01*
X7335Y27964D01*
X7354Y28021D01*
X7354Y28164D01*
X7335Y28221D01*
X7316Y28250D01*
X7278Y28278D01*
X7202Y28278D01*
X7164Y28250D01*
X7145Y28221D01*
X7126Y28164D01*
G54D24*
X9585Y30750D02*
X9557Y30764D01*
X9528Y30792D01*
X9485Y30835D01*
X9457Y30850D01*
X9428Y30850D01*
X9442Y30778D02*
X9414Y30792D01*
X9385Y30821D01*
X9371Y30878D01*
X9371Y30978D01*
X9385Y31035D01*
X9414Y31064D01*
X9442Y31078D01*
X9500Y31078D01*
X9528Y31064D01*
X9557Y31035D01*
X9571Y30978D01*
X9571Y30878D01*
X9557Y30821D01*
X9528Y30792D01*
X9500Y30778D01*
X9442Y30778D01*
X9685Y31050D02*
X9700Y31064D01*
X9728Y31078D01*
X9800Y31078D01*
X9828Y31064D01*
X9842Y31050D01*
X9857Y31021D01*
X9857Y30992D01*
X9842Y30950D01*
X9671Y30778D01*
X9857Y30778D01*
X10042Y31078D02*
X10071Y31078D01*
X10100Y31064D01*
X10114Y31050D01*
X10128Y31021D01*
X10142Y30964D01*
X10142Y30892D01*
X10128Y30835D01*
X10114Y30807D01*
X10100Y30792D01*
X10071Y30778D01*
X10042Y30778D01*
X10014Y30792D01*
X10000Y30807D01*
X9985Y30835D01*
X9971Y30892D01*
X9971Y30964D01*
X9985Y31021D01*
X10000Y31050D01*
X10014Y31064D01*
X10042Y31078D01*
X10414Y31078D02*
X10271Y31078D01*
X10257Y30935D01*
X10271Y30950D01*
X10300Y30964D01*
X10371Y30964D01*
X10400Y30950D01*
X10414Y30935D01*
X10428Y30907D01*
X10428Y30835D01*
X10414Y30807D01*
X10400Y30792D01*
X10371Y30778D01*
X10300Y30778D01*
X10271Y30792D01*
X10257Y30807D01*
G54D15*
X7401Y31370D02*
X7282Y31286D01*
X7401Y31227D02*
X7151Y31227D01*
X7151Y31322D01*
X7163Y31346D01*
X7175Y31358D01*
X7198Y31370D01*
X7234Y31370D01*
X7258Y31358D01*
X7270Y31346D01*
X7282Y31322D01*
X7282Y31227D01*
X7175Y31465D02*
X7163Y31477D01*
X7151Y31501D01*
X7151Y31560D01*
X7163Y31584D01*
X7175Y31596D01*
X7198Y31608D01*
X7222Y31608D01*
X7258Y31596D01*
X7401Y31453D01*
X7401Y31608D01*
X7401Y31846D02*
X7401Y31703D01*
X7401Y31775D02*
X7151Y31775D01*
X7186Y31751D01*
X7210Y31727D01*
X7222Y31703D01*
X7258Y31989D02*
X7246Y31965D01*
X7234Y31953D01*
X7210Y31941D01*
X7198Y31941D01*
X7175Y31953D01*
X7163Y31965D01*
X7151Y31989D01*
X7151Y32036D01*
X7163Y32060D01*
X7175Y32072D01*
X7198Y32084D01*
X7210Y32084D01*
X7234Y32072D01*
X7246Y32060D01*
X7258Y32036D01*
X7258Y31989D01*
X7270Y31965D01*
X7282Y31953D01*
X7305Y31941D01*
X7353Y31941D01*
X7377Y31953D01*
X7389Y31965D01*
X7401Y31989D01*
X7401Y32036D01*
X7389Y32060D01*
X7377Y32072D01*
X7353Y32084D01*
X7305Y32084D01*
X7282Y32072D01*
X7270Y32060D01*
X7258Y32036D01*
X6770Y26898D02*
X6686Y27017D01*
X6627Y26898D02*
X6627Y27148D01*
X6722Y27148D01*
X6746Y27136D01*
X6758Y27125D01*
X6770Y27101D01*
X6770Y27065D01*
X6758Y27041D01*
X6746Y27029D01*
X6722Y27017D01*
X6627Y27017D01*
X6865Y27125D02*
X6877Y27136D01*
X6901Y27148D01*
X6960Y27148D01*
X6984Y27136D01*
X6996Y27125D01*
X7008Y27101D01*
X7008Y27077D01*
X6996Y27041D01*
X6853Y26898D01*
X7008Y26898D01*
X7103Y27125D02*
X7115Y27136D01*
X7139Y27148D01*
X7198Y27148D01*
X7222Y27136D01*
X7234Y27125D01*
X7246Y27101D01*
X7246Y27077D01*
X7234Y27041D01*
X7091Y26898D01*
X7246Y26898D01*
X7341Y27125D02*
X7353Y27136D01*
X7377Y27148D01*
X7436Y27148D01*
X7460Y27136D01*
X7472Y27125D01*
X7484Y27101D01*
X7484Y27077D01*
X7472Y27041D01*
X7329Y26898D01*
X7484Y26898D01*
G54D11*
X892Y5485D02*
X292Y5485D01*
X292Y5714D01*
X321Y5771D01*
X350Y5800D01*
X407Y5828D01*
X492Y5828D01*
X550Y5800D01*
X578Y5771D01*
X607Y5714D01*
X607Y5485D01*
X892Y6400D02*
X892Y6057D01*
X892Y6228D02*
X292Y6228D01*
X378Y6171D01*
X435Y6114D01*
X464Y6057D01*
X292Y6771D02*
X292Y6828D01*
X321Y6885D01*
X350Y6914D01*
X407Y6942D01*
X521Y6971D01*
X664Y6971D01*
X778Y6942D01*
X835Y6914D01*
X864Y6885D01*
X892Y6828D01*
X892Y6771D01*
X864Y6714D01*
X835Y6685D01*
X778Y6657D01*
X664Y6628D01*
X521Y6628D01*
X407Y6657D01*
X350Y6685D01*
X321Y6714D01*
X292Y6771D01*
X292Y7171D02*
X292Y7571D01*
X892Y7314D01*
G54D15*
X5271Y27092D02*
X4971Y27092D01*
X4971Y27164D01*
X4985Y27207D01*
X5014Y27235D01*
X5042Y27250D01*
X5100Y27264D01*
X5142Y27264D01*
X5200Y27250D01*
X5228Y27235D01*
X5257Y27207D01*
X5271Y27164D01*
X5271Y27092D01*
X5000Y27378D02*
X4985Y27392D01*
X4971Y27421D01*
X4971Y27492D01*
X4985Y27521D01*
X5000Y27535D01*
X5028Y27550D01*
X5057Y27550D01*
X5100Y27535D01*
X5271Y27364D01*
X5271Y27550D01*
X4971Y27735D02*
X4971Y27764D01*
X4985Y27792D01*
X5000Y27807D01*
X5028Y27821D01*
X5085Y27835D01*
X5157Y27835D01*
X5214Y27821D01*
X5242Y27807D01*
X5257Y27792D01*
X5271Y27764D01*
X5271Y27735D01*
X5257Y27707D01*
X5242Y27692D01*
X5214Y27678D01*
X5157Y27664D01*
X5085Y27664D01*
X5028Y27678D01*
X5000Y27692D01*
X4985Y27707D01*
X4971Y27735D01*
X5071Y28092D02*
X5271Y28092D01*
X4957Y28021D02*
X5171Y27950D01*
X5171Y28135D01*
G54D14*
X15223Y388D02*
X15223Y788D01*
X15376Y788D01*
X15414Y769D01*
X15433Y750D01*
X15452Y711D01*
X15452Y654D01*
X15433Y616D01*
X15414Y597D01*
X15376Y578D01*
X15223Y578D01*
X15604Y750D02*
X15623Y769D01*
X15661Y788D01*
X15757Y788D01*
X15795Y769D01*
X15814Y750D01*
X15833Y711D01*
X15833Y673D01*
X15814Y616D01*
X15585Y388D01*
X15833Y388D01*
X16080Y788D02*
X16119Y788D01*
X16157Y769D01*
X16176Y750D01*
X16195Y711D01*
X16214Y635D01*
X16214Y540D01*
X16195Y464D01*
X16176Y426D01*
X16157Y407D01*
X16119Y388D01*
X16080Y388D01*
X16042Y407D01*
X16023Y426D01*
X16004Y464D01*
X15985Y540D01*
X15985Y635D01*
X16004Y711D01*
X16023Y750D01*
X16042Y769D01*
X16080Y788D01*
X16557Y654D02*
X16557Y388D01*
X16461Y807D02*
X16366Y521D01*
X16614Y521D01*
X18011Y278D02*
X18411Y545D01*
X18011Y545D02*
X18411Y278D01*
X18259Y697D02*
X18259Y1002D01*
X18411Y1192D02*
X18011Y1192D01*
X18297Y1326D01*
X18011Y1459D01*
X18411Y1459D01*
X18011Y1726D02*
X18011Y1802D01*
X18030Y1840D01*
X18069Y1878D01*
X18145Y1897D01*
X18278Y1897D01*
X18354Y1878D01*
X18392Y1840D01*
X18411Y1802D01*
X18411Y1726D01*
X18392Y1688D01*
X18354Y1650D01*
X18278Y1630D01*
X18145Y1630D01*
X18069Y1650D01*
X18030Y1688D01*
X18011Y1726D01*
X18011Y2011D02*
X18011Y2240D01*
X18411Y2126D02*
X18011Y2126D01*
X22723Y388D02*
X22723Y788D01*
X22876Y788D01*
X22914Y769D01*
X22933Y750D01*
X22952Y711D01*
X22952Y654D01*
X22933Y616D01*
X22914Y597D01*
X22876Y578D01*
X22723Y578D01*
X23104Y750D02*
X23123Y769D01*
X23161Y788D01*
X23257Y788D01*
X23295Y769D01*
X23314Y750D01*
X23333Y711D01*
X23333Y673D01*
X23314Y616D01*
X23085Y388D01*
X23333Y388D01*
X23580Y788D02*
X23619Y788D01*
X23657Y769D01*
X23676Y750D01*
X23695Y711D01*
X23714Y635D01*
X23714Y540D01*
X23695Y464D01*
X23676Y426D01*
X23657Y407D01*
X23619Y388D01*
X23580Y388D01*
X23542Y407D01*
X23523Y426D01*
X23504Y464D01*
X23485Y540D01*
X23485Y635D01*
X23504Y711D01*
X23523Y750D01*
X23542Y769D01*
X23580Y788D01*
X24076Y788D02*
X23885Y788D01*
X23866Y597D01*
X23885Y616D01*
X23923Y635D01*
X24019Y635D01*
X24057Y616D01*
X24076Y597D01*
X24095Y559D01*
X24095Y464D01*
X24076Y426D01*
X24057Y407D01*
X24019Y388D01*
X23923Y388D01*
X23885Y407D01*
X23866Y426D01*
X21071Y411D02*
X21261Y411D01*
X20861Y278D02*
X21071Y411D01*
X20861Y545D01*
X21109Y678D02*
X21109Y983D01*
X21261Y1173D02*
X20861Y1173D01*
X21147Y1307D01*
X20861Y1440D01*
X21261Y1440D01*
X20861Y1707D02*
X20861Y1783D01*
X20880Y1821D01*
X20919Y1859D01*
X20995Y1878D01*
X21128Y1878D01*
X21204Y1859D01*
X21242Y1821D01*
X21261Y1783D01*
X21261Y1707D01*
X21242Y1669D01*
X21204Y1630D01*
X21128Y1611D01*
X20995Y1611D01*
X20919Y1630D01*
X20880Y1669D01*
X20861Y1707D01*
X20861Y1992D02*
X20861Y2221D01*
X21261Y2107D02*
X20861Y2107D01*
X30723Y388D02*
X30723Y788D01*
X30876Y788D01*
X30914Y769D01*
X30933Y750D01*
X30952Y711D01*
X30952Y654D01*
X30933Y616D01*
X30914Y597D01*
X30876Y578D01*
X30723Y578D01*
X31104Y750D02*
X31123Y769D01*
X31161Y788D01*
X31257Y788D01*
X31295Y769D01*
X31314Y750D01*
X31333Y711D01*
X31333Y673D01*
X31314Y616D01*
X31085Y388D01*
X31333Y388D01*
X31580Y788D02*
X31619Y788D01*
X31657Y769D01*
X31676Y750D01*
X31695Y711D01*
X31714Y635D01*
X31714Y540D01*
X31695Y464D01*
X31676Y426D01*
X31657Y407D01*
X31619Y388D01*
X31580Y388D01*
X31542Y407D01*
X31523Y426D01*
X31504Y464D01*
X31485Y540D01*
X31485Y635D01*
X31504Y711D01*
X31523Y750D01*
X31542Y769D01*
X31580Y788D01*
X32057Y788D02*
X31980Y788D01*
X31942Y769D01*
X31923Y750D01*
X31885Y692D01*
X31866Y616D01*
X31866Y464D01*
X31885Y426D01*
X31904Y407D01*
X31942Y388D01*
X32019Y388D01*
X32057Y407D01*
X32076Y426D01*
X32095Y464D01*
X32095Y559D01*
X32076Y597D01*
X32057Y616D01*
X32019Y635D01*
X31942Y635D01*
X31904Y616D01*
X31885Y597D01*
X31866Y559D01*
X28861Y278D02*
X28861Y545D01*
X29261Y278D01*
X29261Y545D01*
X29109Y697D02*
X29109Y1002D01*
X29261Y1192D02*
X28861Y1192D01*
X29147Y1326D01*
X28861Y1459D01*
X29261Y1459D01*
X28861Y1726D02*
X28861Y1802D01*
X28880Y1840D01*
X28919Y1878D01*
X28995Y1897D01*
X29128Y1897D01*
X29204Y1878D01*
X29242Y1840D01*
X29261Y1802D01*
X29261Y1726D01*
X29242Y1688D01*
X29204Y1650D01*
X29128Y1630D01*
X28995Y1630D01*
X28919Y1650D01*
X28880Y1688D01*
X28861Y1726D01*
X28861Y2011D02*
X28861Y2240D01*
X29261Y2126D02*
X28861Y2126D01*
X12773Y33588D02*
X12773Y33988D01*
X12926Y33988D01*
X12964Y33969D01*
X12983Y33950D01*
X13002Y33911D01*
X13002Y33854D01*
X12983Y33816D01*
X12964Y33797D01*
X12926Y33778D01*
X12773Y33778D01*
X13154Y33950D02*
X13173Y33969D01*
X13211Y33988D01*
X13307Y33988D01*
X13345Y33969D01*
X13364Y33950D01*
X13383Y33911D01*
X13383Y33873D01*
X13364Y33816D01*
X13135Y33588D01*
X13383Y33588D01*
X13764Y33588D02*
X13535Y33588D01*
X13650Y33588D02*
X13650Y33988D01*
X13611Y33930D01*
X13573Y33892D01*
X13535Y33873D01*
X14011Y33988D02*
X14050Y33988D01*
X14088Y33969D01*
X14107Y33950D01*
X14126Y33911D01*
X14145Y33835D01*
X14145Y33740D01*
X14126Y33664D01*
X14107Y33626D01*
X14088Y33607D01*
X14050Y33588D01*
X14011Y33588D01*
X13973Y33607D01*
X13954Y33626D01*
X13935Y33664D01*
X13916Y33740D01*
X13916Y33835D01*
X13935Y33911D01*
X13954Y33950D01*
X13973Y33969D01*
X14011Y33988D01*
X12285Y31297D02*
X12419Y31297D01*
X12476Y31088D02*
X12285Y31088D01*
X12285Y31488D01*
X12476Y31488D01*
X12628Y31450D02*
X12647Y31469D01*
X12685Y31488D01*
X12780Y31488D01*
X12819Y31469D01*
X12838Y31450D01*
X12857Y31411D01*
X12857Y31373D01*
X12838Y31316D01*
X12609Y31088D01*
X12857Y31088D01*
X13028Y31240D02*
X13333Y31240D01*
X13523Y31088D02*
X13523Y31488D01*
X13657Y31202D01*
X13790Y31488D01*
X13790Y31088D01*
X14057Y31488D02*
X14133Y31488D01*
X14171Y31469D01*
X14209Y31430D01*
X14228Y31354D01*
X14228Y31221D01*
X14209Y31145D01*
X14171Y31107D01*
X14133Y31088D01*
X14057Y31088D01*
X14019Y31107D01*
X13980Y31145D01*
X13961Y31221D01*
X13961Y31354D01*
X13980Y31430D01*
X14019Y31469D01*
X14057Y31488D01*
X14342Y31488D02*
X14571Y31488D01*
X14457Y31088D02*
X14457Y31488D01*
G54D15*
X20001Y17470D02*
X19882Y17386D01*
X20001Y17327D02*
X19751Y17327D01*
X19751Y17422D01*
X19763Y17446D01*
X19775Y17458D01*
X19798Y17470D01*
X19834Y17470D01*
X19858Y17458D01*
X19870Y17446D01*
X19882Y17422D01*
X19882Y17327D01*
X19751Y17696D02*
X19751Y17577D01*
X19870Y17565D01*
X19858Y17577D01*
X19846Y17601D01*
X19846Y17660D01*
X19858Y17684D01*
X19870Y17696D01*
X19894Y17708D01*
X19953Y17708D01*
X19977Y17696D01*
X19989Y17684D01*
X20001Y17660D01*
X20001Y17601D01*
X19989Y17577D01*
X19977Y17565D01*
X19751Y17863D02*
X19751Y17886D01*
X19763Y17910D01*
X19775Y17922D01*
X19798Y17934D01*
X19846Y17946D01*
X19905Y17946D01*
X19953Y17934D01*
X19977Y17922D01*
X19989Y17910D01*
X20001Y17886D01*
X20001Y17863D01*
X19989Y17839D01*
X19977Y17827D01*
X19953Y17815D01*
X19905Y17803D01*
X19846Y17803D01*
X19798Y17815D01*
X19775Y17827D01*
X19763Y17839D01*
X19751Y17863D01*
X20001Y18184D02*
X20001Y18041D01*
X20001Y18113D02*
X19751Y18113D01*
X19786Y18089D01*
X19810Y18065D01*
X19822Y18041D01*
G54D14*
X11685Y7138D02*
X11685Y6852D01*
X11666Y6795D01*
X11628Y6757D01*
X11571Y6738D01*
X11533Y6738D01*
X11876Y6738D02*
X11876Y7138D01*
X12028Y7138D01*
X12066Y7119D01*
X12085Y7100D01*
X12104Y7061D01*
X12104Y7004D01*
X12085Y6966D01*
X12066Y6947D01*
X12028Y6928D01*
X11876Y6928D01*
X12485Y6738D02*
X12257Y6738D01*
X12371Y6738D02*
X12371Y7138D01*
X12333Y7080D01*
X12295Y7042D01*
X12257Y7023D01*
X12733Y7138D02*
X12771Y7138D01*
X12809Y7119D01*
X12828Y7100D01*
X12847Y7061D01*
X12866Y6985D01*
X12866Y6890D01*
X12847Y6814D01*
X12828Y6776D01*
X12809Y6757D01*
X12771Y6738D01*
X12733Y6738D01*
X12695Y6757D01*
X12676Y6776D01*
X12657Y6814D01*
X12638Y6890D01*
X12638Y6985D01*
X12657Y7061D01*
X12676Y7100D01*
X12695Y7119D01*
X12733Y7138D01*
X13247Y6738D02*
X13019Y6738D01*
X13133Y6738D02*
X13133Y7138D01*
X13095Y7080D01*
X13057Y7042D01*
X13019Y7023D01*
X13383Y7138D02*
X13500Y6738D01*
X13616Y7138D01*
X13900Y6738D02*
X13733Y6738D01*
X13733Y7138D01*
X14083Y7138D02*
X14150Y7138D01*
X14183Y7119D01*
X14216Y7080D01*
X14233Y7004D01*
X14233Y6871D01*
X14216Y6795D01*
X14183Y6757D01*
X14150Y6738D01*
X14083Y6738D01*
X14050Y6757D01*
X14016Y6795D01*
X14000Y6871D01*
X14000Y7004D01*
X14016Y7080D01*
X14050Y7119D01*
X14083Y7138D01*
X14566Y7119D02*
X14533Y7138D01*
X14483Y7138D01*
X14433Y7119D01*
X14400Y7080D01*
X14383Y7042D01*
X14366Y6966D01*
X14366Y6909D01*
X14383Y6833D01*
X14400Y6795D01*
X14433Y6757D01*
X14483Y6738D01*
X14516Y6738D01*
X14566Y6757D01*
X14583Y6776D01*
X14583Y6909D01*
X14516Y6909D01*
G54D23*
X16929Y18789D02*
X16920Y18779D01*
X16892Y18770D01*
X16873Y18770D01*
X16845Y18779D01*
X16826Y18798D01*
X16816Y18817D01*
X16807Y18854D01*
X16807Y18882D01*
X16816Y18920D01*
X16826Y18939D01*
X16845Y18957D01*
X16873Y18967D01*
X16892Y18967D01*
X16920Y18957D01*
X16929Y18948D01*
X17107Y18967D02*
X17013Y18967D01*
X17004Y18873D01*
X17013Y18882D01*
X17032Y18892D01*
X17079Y18892D01*
X17098Y18882D01*
X17107Y18873D01*
X17117Y18854D01*
X17117Y18807D01*
X17107Y18789D01*
X17098Y18779D01*
X17079Y18770D01*
X17032Y18770D01*
X17013Y18779D01*
X17004Y18789D01*
X17239Y18967D02*
X17257Y18967D01*
X17276Y18957D01*
X17286Y18948D01*
X17295Y18929D01*
X17304Y18892D01*
X17304Y18845D01*
X17295Y18807D01*
X17286Y18789D01*
X17276Y18779D01*
X17257Y18770D01*
X17239Y18770D01*
X17220Y18779D01*
X17210Y18789D01*
X17201Y18807D01*
X17192Y18845D01*
X17192Y18892D01*
X17201Y18929D01*
X17210Y18948D01*
X17220Y18957D01*
X17239Y18967D01*
X17492Y18770D02*
X17379Y18770D01*
X17436Y18770D02*
X17436Y18967D01*
X17417Y18939D01*
X17398Y18920D01*
X17379Y18910D01*
G54D15*
X21027Y17470D02*
X21039Y17458D01*
X21051Y17422D01*
X21051Y17398D01*
X21039Y17363D01*
X21015Y17339D01*
X20991Y17327D01*
X20944Y17315D01*
X20908Y17315D01*
X20860Y17327D01*
X20836Y17339D01*
X20813Y17363D01*
X20801Y17398D01*
X20801Y17422D01*
X20813Y17458D01*
X20825Y17470D01*
X20801Y17696D02*
X20801Y17577D01*
X20920Y17565D01*
X20908Y17577D01*
X20896Y17601D01*
X20896Y17660D01*
X20908Y17684D01*
X20920Y17696D01*
X20944Y17708D01*
X21003Y17708D01*
X21027Y17696D01*
X21039Y17684D01*
X21051Y17660D01*
X21051Y17601D01*
X21039Y17577D01*
X21027Y17565D01*
X20801Y17863D02*
X20801Y17886D01*
X20813Y17910D01*
X20825Y17922D01*
X20848Y17934D01*
X20896Y17946D01*
X20955Y17946D01*
X21003Y17934D01*
X21027Y17922D01*
X21039Y17910D01*
X21051Y17886D01*
X21051Y17863D01*
X21039Y17839D01*
X21027Y17827D01*
X21003Y17815D01*
X20955Y17803D01*
X20896Y17803D01*
X20848Y17815D01*
X20825Y17827D01*
X20813Y17839D01*
X20801Y17863D01*
X20825Y18041D02*
X20813Y18053D01*
X20801Y18077D01*
X20801Y18136D01*
X20813Y18160D01*
X20825Y18172D01*
X20848Y18184D01*
X20872Y18184D01*
X20908Y18172D01*
X21051Y18029D01*
X21051Y18184D01*
X21027Y15670D02*
X21039Y15658D01*
X21051Y15622D01*
X21051Y15598D01*
X21039Y15563D01*
X21015Y15539D01*
X20991Y15527D01*
X20944Y15515D01*
X20908Y15515D01*
X20860Y15527D01*
X20836Y15539D01*
X20813Y15563D01*
X20801Y15598D01*
X20801Y15622D01*
X20813Y15658D01*
X20825Y15670D01*
X20801Y15896D02*
X20801Y15777D01*
X20920Y15765D01*
X20908Y15777D01*
X20896Y15801D01*
X20896Y15860D01*
X20908Y15884D01*
X20920Y15896D01*
X20944Y15908D01*
X21003Y15908D01*
X21027Y15896D01*
X21039Y15884D01*
X21051Y15860D01*
X21051Y15801D01*
X21039Y15777D01*
X21027Y15765D01*
X20801Y16063D02*
X20801Y16086D01*
X20813Y16110D01*
X20825Y16122D01*
X20848Y16134D01*
X20896Y16146D01*
X20955Y16146D01*
X21003Y16134D01*
X21027Y16122D01*
X21039Y16110D01*
X21051Y16086D01*
X21051Y16063D01*
X21039Y16039D01*
X21027Y16027D01*
X21003Y16015D01*
X20955Y16003D01*
X20896Y16003D01*
X20848Y16015D01*
X20825Y16027D01*
X20813Y16039D01*
X20801Y16063D01*
X20801Y16229D02*
X20801Y16384D01*
X20896Y16301D01*
X20896Y16336D01*
X20908Y16360D01*
X20920Y16372D01*
X20944Y16384D01*
X21003Y16384D01*
X21027Y16372D01*
X21039Y16360D01*
X21051Y16336D01*
X21051Y16265D01*
X21039Y16241D01*
X21027Y16229D01*
X21427Y10570D02*
X21439Y10558D01*
X21451Y10522D01*
X21451Y10498D01*
X21439Y10463D01*
X21415Y10439D01*
X21391Y10427D01*
X21344Y10415D01*
X21308Y10415D01*
X21260Y10427D01*
X21236Y10439D01*
X21213Y10463D01*
X21201Y10498D01*
X21201Y10522D01*
X21213Y10558D01*
X21225Y10570D01*
X21201Y10796D02*
X21201Y10677D01*
X21320Y10665D01*
X21308Y10677D01*
X21296Y10701D01*
X21296Y10760D01*
X21308Y10784D01*
X21320Y10796D01*
X21344Y10808D01*
X21403Y10808D01*
X21427Y10796D01*
X21439Y10784D01*
X21451Y10760D01*
X21451Y10701D01*
X21439Y10677D01*
X21427Y10665D01*
X21201Y10963D02*
X21201Y10986D01*
X21213Y11010D01*
X21225Y11022D01*
X21248Y11034D01*
X21296Y11046D01*
X21355Y11046D01*
X21403Y11034D01*
X21427Y11022D01*
X21439Y11010D01*
X21451Y10986D01*
X21451Y10963D01*
X21439Y10939D01*
X21427Y10927D01*
X21403Y10915D01*
X21355Y10903D01*
X21296Y10903D01*
X21248Y10915D01*
X21225Y10927D01*
X21213Y10939D01*
X21201Y10963D01*
X21284Y11260D02*
X21451Y11260D01*
X21189Y11201D02*
X21367Y11141D01*
X21367Y11296D01*
X21527Y12620D02*
X21539Y12608D01*
X21551Y12572D01*
X21551Y12548D01*
X21539Y12513D01*
X21515Y12489D01*
X21491Y12477D01*
X21444Y12465D01*
X21408Y12465D01*
X21360Y12477D01*
X21336Y12489D01*
X21313Y12513D01*
X21301Y12548D01*
X21301Y12572D01*
X21313Y12608D01*
X21325Y12620D01*
X21301Y12846D02*
X21301Y12727D01*
X21420Y12715D01*
X21408Y12727D01*
X21396Y12751D01*
X21396Y12810D01*
X21408Y12834D01*
X21420Y12846D01*
X21444Y12858D01*
X21503Y12858D01*
X21527Y12846D01*
X21539Y12834D01*
X21551Y12810D01*
X21551Y12751D01*
X21539Y12727D01*
X21527Y12715D01*
X21301Y13013D02*
X21301Y13036D01*
X21313Y13060D01*
X21325Y13072D01*
X21348Y13084D01*
X21396Y13096D01*
X21455Y13096D01*
X21503Y13084D01*
X21527Y13072D01*
X21539Y13060D01*
X21551Y13036D01*
X21551Y13013D01*
X21539Y12989D01*
X21527Y12977D01*
X21503Y12965D01*
X21455Y12953D01*
X21396Y12953D01*
X21348Y12965D01*
X21325Y12977D01*
X21313Y12989D01*
X21301Y13013D01*
X21301Y13322D02*
X21301Y13203D01*
X21420Y13191D01*
X21408Y13203D01*
X21396Y13227D01*
X21396Y13286D01*
X21408Y13310D01*
X21420Y13322D01*
X21444Y13334D01*
X21503Y13334D01*
X21527Y13322D01*
X21539Y13310D01*
X21551Y13286D01*
X21551Y13227D01*
X21539Y13203D01*
X21527Y13191D01*
X22001Y17420D02*
X21882Y17336D01*
X22001Y17277D02*
X21751Y17277D01*
X21751Y17372D01*
X21763Y17396D01*
X21775Y17408D01*
X21798Y17420D01*
X21834Y17420D01*
X21858Y17408D01*
X21870Y17396D01*
X21882Y17372D01*
X21882Y17277D01*
X21751Y17646D02*
X21751Y17527D01*
X21870Y17515D01*
X21858Y17527D01*
X21846Y17551D01*
X21846Y17610D01*
X21858Y17634D01*
X21870Y17646D01*
X21894Y17658D01*
X21953Y17658D01*
X21977Y17646D01*
X21989Y17634D01*
X22001Y17610D01*
X22001Y17551D01*
X21989Y17527D01*
X21977Y17515D01*
X21751Y17813D02*
X21751Y17836D01*
X21763Y17860D01*
X21775Y17872D01*
X21798Y17884D01*
X21846Y17896D01*
X21905Y17896D01*
X21953Y17884D01*
X21977Y17872D01*
X21989Y17860D01*
X22001Y17836D01*
X22001Y17813D01*
X21989Y17789D01*
X21977Y17777D01*
X21953Y17765D01*
X21905Y17753D01*
X21846Y17753D01*
X21798Y17765D01*
X21775Y17777D01*
X21763Y17789D01*
X21751Y17813D01*
X21775Y17991D02*
X21763Y18003D01*
X21751Y18027D01*
X21751Y18086D01*
X21763Y18110D01*
X21775Y18122D01*
X21798Y18134D01*
X21822Y18134D01*
X21858Y18122D01*
X22001Y17979D01*
X22001Y18134D01*
X22051Y15720D02*
X21932Y15636D01*
X22051Y15577D02*
X21801Y15577D01*
X21801Y15672D01*
X21813Y15696D01*
X21825Y15708D01*
X21848Y15720D01*
X21884Y15720D01*
X21908Y15708D01*
X21920Y15696D01*
X21932Y15672D01*
X21932Y15577D01*
X21801Y15946D02*
X21801Y15827D01*
X21920Y15815D01*
X21908Y15827D01*
X21896Y15851D01*
X21896Y15910D01*
X21908Y15934D01*
X21920Y15946D01*
X21944Y15958D01*
X22003Y15958D01*
X22027Y15946D01*
X22039Y15934D01*
X22051Y15910D01*
X22051Y15851D01*
X22039Y15827D01*
X22027Y15815D01*
X21801Y16113D02*
X21801Y16136D01*
X21813Y16160D01*
X21825Y16172D01*
X21848Y16184D01*
X21896Y16196D01*
X21955Y16196D01*
X22003Y16184D01*
X22027Y16172D01*
X22039Y16160D01*
X22051Y16136D01*
X22051Y16113D01*
X22039Y16089D01*
X22027Y16077D01*
X22003Y16065D01*
X21955Y16053D01*
X21896Y16053D01*
X21848Y16065D01*
X21825Y16077D01*
X21813Y16089D01*
X21801Y16113D01*
X21801Y16279D02*
X21801Y16434D01*
X21896Y16351D01*
X21896Y16386D01*
X21908Y16410D01*
X21920Y16422D01*
X21944Y16434D01*
X22003Y16434D01*
X22027Y16422D01*
X22039Y16410D01*
X22051Y16386D01*
X22051Y16315D01*
X22039Y16291D01*
X22027Y16279D01*
X22451Y10520D02*
X22332Y10436D01*
X22451Y10377D02*
X22201Y10377D01*
X22201Y10472D01*
X22213Y10496D01*
X22225Y10508D01*
X22248Y10520D01*
X22284Y10520D01*
X22308Y10508D01*
X22320Y10496D01*
X22332Y10472D01*
X22332Y10377D01*
X22201Y10746D02*
X22201Y10627D01*
X22320Y10615D01*
X22308Y10627D01*
X22296Y10651D01*
X22296Y10710D01*
X22308Y10734D01*
X22320Y10746D01*
X22344Y10758D01*
X22403Y10758D01*
X22427Y10746D01*
X22439Y10734D01*
X22451Y10710D01*
X22451Y10651D01*
X22439Y10627D01*
X22427Y10615D01*
X22201Y10913D02*
X22201Y10936D01*
X22213Y10960D01*
X22225Y10972D01*
X22248Y10984D01*
X22296Y10996D01*
X22355Y10996D01*
X22403Y10984D01*
X22427Y10972D01*
X22439Y10960D01*
X22451Y10936D01*
X22451Y10913D01*
X22439Y10889D01*
X22427Y10877D01*
X22403Y10865D01*
X22355Y10853D01*
X22296Y10853D01*
X22248Y10865D01*
X22225Y10877D01*
X22213Y10889D01*
X22201Y10913D01*
X22284Y11210D02*
X22451Y11210D01*
X22189Y11151D02*
X22367Y11091D01*
X22367Y11246D01*
X22551Y12620D02*
X22432Y12536D01*
X22551Y12477D02*
X22301Y12477D01*
X22301Y12572D01*
X22313Y12596D01*
X22325Y12608D01*
X22348Y12620D01*
X22384Y12620D01*
X22408Y12608D01*
X22420Y12596D01*
X22432Y12572D01*
X22432Y12477D01*
X22301Y12846D02*
X22301Y12727D01*
X22420Y12715D01*
X22408Y12727D01*
X22396Y12751D01*
X22396Y12810D01*
X22408Y12834D01*
X22420Y12846D01*
X22444Y12858D01*
X22503Y12858D01*
X22527Y12846D01*
X22539Y12834D01*
X22551Y12810D01*
X22551Y12751D01*
X22539Y12727D01*
X22527Y12715D01*
X22301Y13013D02*
X22301Y13036D01*
X22313Y13060D01*
X22325Y13072D01*
X22348Y13084D01*
X22396Y13096D01*
X22455Y13096D01*
X22503Y13084D01*
X22527Y13072D01*
X22539Y13060D01*
X22551Y13036D01*
X22551Y13013D01*
X22539Y12989D01*
X22527Y12977D01*
X22503Y12965D01*
X22455Y12953D01*
X22396Y12953D01*
X22348Y12965D01*
X22325Y12977D01*
X22313Y12989D01*
X22301Y13013D01*
X22301Y13322D02*
X22301Y13203D01*
X22420Y13191D01*
X22408Y13203D01*
X22396Y13227D01*
X22396Y13286D01*
X22408Y13310D01*
X22420Y13322D01*
X22444Y13334D01*
X22503Y13334D01*
X22527Y13322D01*
X22539Y13310D01*
X22551Y13286D01*
X22551Y13227D01*
X22539Y13203D01*
X22527Y13191D01*
G54D11*
X892Y15485D02*
X292Y15485D01*
X292Y15714D01*
X321Y15771D01*
X350Y15800D01*
X407Y15828D01*
X492Y15828D01*
X550Y15800D01*
X578Y15771D01*
X607Y15714D01*
X607Y15485D01*
X492Y16342D02*
X892Y16342D01*
X264Y16200D02*
X692Y16057D01*
X692Y16428D01*
X292Y16771D02*
X292Y16828D01*
X321Y16885D01*
X350Y16914D01*
X407Y16942D01*
X521Y16971D01*
X664Y16971D01*
X778Y16942D01*
X835Y16914D01*
X864Y16885D01*
X892Y16828D01*
X892Y16771D01*
X864Y16714D01*
X835Y16685D01*
X778Y16657D01*
X664Y16628D01*
X521Y16628D01*
X407Y16657D01*
X350Y16685D01*
X321Y16714D01*
X292Y16771D01*
X492Y17485D02*
X892Y17485D01*
X264Y17342D02*
X692Y17200D01*
X692Y17571D01*
X3307Y18607D02*
X3307Y19207D01*
X3450Y19207D01*
X3535Y19178D01*
X3592Y19121D01*
X3621Y19064D01*
X3650Y18950D01*
X3650Y18864D01*
X3621Y18750D01*
X3592Y18692D01*
X3535Y18635D01*
X3450Y18607D01*
X3307Y18607D01*
X3992Y18950D02*
X3935Y18978D01*
X3907Y19007D01*
X3878Y19064D01*
X3878Y19092D01*
X3907Y19150D01*
X3935Y19178D01*
X3992Y19207D01*
X4107Y19207D01*
X4164Y19178D01*
X4192Y19150D01*
X4221Y19092D01*
X4221Y19064D01*
X4192Y19007D01*
X4164Y18978D01*
X4107Y18950D01*
X3992Y18950D01*
X3935Y18921D01*
X3907Y18892D01*
X3878Y18835D01*
X3878Y18721D01*
X3907Y18664D01*
X3935Y18635D01*
X3992Y18607D01*
X4107Y18607D01*
X4164Y18635D01*
X4192Y18664D01*
X4221Y18721D01*
X4221Y18835D01*
X4192Y18892D01*
X4164Y18921D01*
X4107Y18950D01*
X892Y1485D02*
X292Y1485D01*
X292Y1714D01*
X321Y1771D01*
X350Y1800D01*
X407Y1828D01*
X492Y1828D01*
X550Y1800D01*
X578Y1771D01*
X607Y1714D01*
X607Y1485D01*
X892Y2400D02*
X892Y2057D01*
X892Y2228D02*
X292Y2228D01*
X378Y2171D01*
X435Y2114D01*
X464Y2057D01*
X292Y2771D02*
X292Y2828D01*
X321Y2885D01*
X350Y2914D01*
X407Y2942D01*
X521Y2971D01*
X664Y2971D01*
X778Y2942D01*
X835Y2914D01*
X864Y2885D01*
X892Y2828D01*
X892Y2771D01*
X864Y2714D01*
X835Y2685D01*
X778Y2657D01*
X664Y2628D01*
X521Y2628D01*
X407Y2657D01*
X350Y2685D01*
X321Y2714D01*
X292Y2771D01*
X550Y3314D02*
X521Y3257D01*
X492Y3228D01*
X435Y3200D01*
X407Y3200D01*
X350Y3228D01*
X321Y3257D01*
X292Y3314D01*
X292Y3428D01*
X321Y3485D01*
X350Y3514D01*
X407Y3542D01*
X435Y3542D01*
X492Y3514D01*
X521Y3485D01*
X550Y3428D01*
X550Y3314D01*
X578Y3257D01*
X607Y3228D01*
X664Y3200D01*
X778Y3200D01*
X835Y3228D01*
X864Y3257D01*
X892Y3314D01*
X892Y3428D01*
X864Y3485D01*
X835Y3514D01*
X778Y3542D01*
X664Y3542D01*
X607Y3514D01*
X578Y3485D01*
X550Y3428D01*
G54D14*
X36585Y1057D02*
X36642Y1038D01*
X36738Y1038D01*
X36776Y1057D01*
X36795Y1076D01*
X36814Y1114D01*
X36814Y1152D01*
X36795Y1190D01*
X36776Y1209D01*
X36738Y1228D01*
X36661Y1247D01*
X36623Y1266D01*
X36604Y1285D01*
X36585Y1323D01*
X36585Y1361D01*
X36604Y1400D01*
X36623Y1419D01*
X36661Y1438D01*
X36757Y1438D01*
X36814Y1419D01*
X36947Y1438D02*
X37042Y1038D01*
X37119Y1323D01*
X37195Y1038D01*
X37290Y1438D01*
X37652Y1038D02*
X37423Y1038D01*
X37538Y1038D02*
X37538Y1438D01*
X37500Y1380D01*
X37461Y1342D01*
X37423Y1323D01*
X37900Y1438D02*
X37938Y1438D01*
X37976Y1419D01*
X37995Y1400D01*
X38014Y1361D01*
X38033Y1285D01*
X38033Y1190D01*
X38014Y1114D01*
X37995Y1076D01*
X37976Y1057D01*
X37938Y1038D01*
X37900Y1038D01*
X37861Y1057D01*
X37842Y1076D01*
X37823Y1114D01*
X37804Y1190D01*
X37804Y1285D01*
X37823Y1361D01*
X37842Y1400D01*
X37861Y1419D01*
X37900Y1438D01*
X38414Y1038D02*
X38185Y1038D01*
X38300Y1038D02*
X38300Y1438D01*
X38261Y1380D01*
X38223Y1342D01*
X38185Y1323D01*
G54D24*
X6935Y17650D02*
X6907Y17664D01*
X6878Y17692D01*
X6835Y17735D01*
X6807Y17750D01*
X6778Y17750D01*
X6792Y17678D02*
X6764Y17692D01*
X6735Y17721D01*
X6721Y17778D01*
X6721Y17878D01*
X6735Y17935D01*
X6764Y17964D01*
X6792Y17978D01*
X6850Y17978D01*
X6878Y17964D01*
X6907Y17935D01*
X6921Y17878D01*
X6921Y17778D01*
X6907Y17721D01*
X6878Y17692D01*
X6850Y17678D01*
X6792Y17678D01*
X7192Y17978D02*
X7050Y17978D01*
X7035Y17835D01*
X7050Y17850D01*
X7078Y17864D01*
X7150Y17864D01*
X7178Y17850D01*
X7192Y17835D01*
X7207Y17807D01*
X7207Y17735D01*
X7192Y17707D01*
X7178Y17692D01*
X7150Y17678D01*
X7078Y17678D01*
X7050Y17692D01*
X7035Y17707D01*
X7392Y17978D02*
X7421Y17978D01*
X7450Y17964D01*
X7464Y17950D01*
X7478Y17921D01*
X7492Y17864D01*
X7492Y17792D01*
X7478Y17735D01*
X7464Y17707D01*
X7450Y17692D01*
X7421Y17678D01*
X7392Y17678D01*
X7364Y17692D01*
X7350Y17707D01*
X7335Y17735D01*
X7321Y17792D01*
X7321Y17864D01*
X7335Y17921D01*
X7350Y17950D01*
X7364Y17964D01*
X7392Y17978D01*
X7778Y17678D02*
X7607Y17678D01*
X7692Y17678D02*
X7692Y17978D01*
X7664Y17935D01*
X7635Y17907D01*
X7607Y17892D01*
X6535Y21750D02*
X6507Y21764D01*
X6478Y21792D01*
X6435Y21835D01*
X6407Y21850D01*
X6378Y21850D01*
X6392Y21778D02*
X6364Y21792D01*
X6335Y21821D01*
X6321Y21878D01*
X6321Y21978D01*
X6335Y22035D01*
X6364Y22064D01*
X6392Y22078D01*
X6450Y22078D01*
X6478Y22064D01*
X6507Y22035D01*
X6521Y21978D01*
X6521Y21878D01*
X6507Y21821D01*
X6478Y21792D01*
X6450Y21778D01*
X6392Y21778D01*
X6792Y22078D02*
X6650Y22078D01*
X6635Y21935D01*
X6650Y21950D01*
X6678Y21964D01*
X6750Y21964D01*
X6778Y21950D01*
X6792Y21935D01*
X6807Y21907D01*
X6807Y21835D01*
X6792Y21807D01*
X6778Y21792D01*
X6750Y21778D01*
X6678Y21778D01*
X6650Y21792D01*
X6635Y21807D01*
X6992Y22078D02*
X7021Y22078D01*
X7050Y22064D01*
X7064Y22050D01*
X7078Y22021D01*
X7092Y21964D01*
X7092Y21892D01*
X7078Y21835D01*
X7064Y21807D01*
X7050Y21792D01*
X7021Y21778D01*
X6992Y21778D01*
X6964Y21792D01*
X6950Y21807D01*
X6935Y21835D01*
X6921Y21892D01*
X6921Y21964D01*
X6935Y22021D01*
X6950Y22050D01*
X6964Y22064D01*
X6992Y22078D01*
X7207Y22050D02*
X7221Y22064D01*
X7250Y22078D01*
X7321Y22078D01*
X7350Y22064D01*
X7364Y22050D01*
X7378Y22021D01*
X7378Y21992D01*
X7364Y21950D01*
X7192Y21778D01*
X7378Y21778D01*
G54D15*
X27645Y8998D02*
X27561Y9117D01*
X27502Y8998D02*
X27502Y9248D01*
X27597Y9248D01*
X27621Y9236D01*
X27633Y9225D01*
X27645Y9201D01*
X27645Y9165D01*
X27633Y9141D01*
X27621Y9129D01*
X27597Y9117D01*
X27502Y9117D01*
X27728Y9248D02*
X27883Y9248D01*
X27800Y9153D01*
X27835Y9153D01*
X27859Y9141D01*
X27871Y9129D01*
X27883Y9105D01*
X27883Y9046D01*
X27871Y9022D01*
X27859Y9010D01*
X27835Y8998D01*
X27764Y8998D01*
X27740Y9010D01*
X27728Y9022D01*
X28038Y9248D02*
X28061Y9248D01*
X28085Y9236D01*
X28097Y9225D01*
X28109Y9201D01*
X28121Y9153D01*
X28121Y9094D01*
X28109Y9046D01*
X28097Y9022D01*
X28085Y9010D01*
X28061Y8998D01*
X28038Y8998D01*
X28014Y9010D01*
X28002Y9022D01*
X27990Y9046D01*
X27978Y9094D01*
X27978Y9153D01*
X27990Y9201D01*
X28002Y9225D01*
X28014Y9236D01*
X28038Y9248D01*
X28347Y9248D02*
X28228Y9248D01*
X28216Y9129D01*
X28228Y9141D01*
X28252Y9153D01*
X28311Y9153D01*
X28335Y9141D01*
X28347Y9129D01*
X28359Y9105D01*
X28359Y9046D01*
X28347Y9022D01*
X28335Y9010D01*
X28311Y8998D01*
X28252Y8998D01*
X28228Y9010D01*
X28216Y9022D01*
X9620Y17148D02*
X9536Y17267D01*
X9477Y17148D02*
X9477Y17398D01*
X9572Y17398D01*
X9596Y17386D01*
X9608Y17375D01*
X9620Y17351D01*
X9620Y17315D01*
X9608Y17291D01*
X9596Y17279D01*
X9572Y17267D01*
X9477Y17267D01*
X9846Y17398D02*
X9727Y17398D01*
X9715Y17279D01*
X9727Y17291D01*
X9751Y17303D01*
X9810Y17303D01*
X9834Y17291D01*
X9846Y17279D01*
X9858Y17255D01*
X9858Y17196D01*
X9846Y17172D01*
X9834Y17160D01*
X9810Y17148D01*
X9751Y17148D01*
X9727Y17160D01*
X9715Y17172D01*
X10096Y17148D02*
X9953Y17148D01*
X10025Y17148D02*
X10025Y17398D01*
X10001Y17363D01*
X9977Y17339D01*
X9953Y17327D01*
X10251Y17398D02*
X10275Y17398D01*
X10298Y17386D01*
X10310Y17375D01*
X10322Y17351D01*
X10334Y17303D01*
X10334Y17244D01*
X10322Y17196D01*
X10310Y17172D01*
X10298Y17160D01*
X10275Y17148D01*
X10251Y17148D01*
X10227Y17160D01*
X10215Y17172D01*
X10203Y17196D01*
X10191Y17244D01*
X10191Y17303D01*
X10203Y17351D01*
X10215Y17375D01*
X10227Y17386D01*
X10251Y17398D01*
X9620Y20898D02*
X9536Y21017D01*
X9477Y20898D02*
X9477Y21148D01*
X9572Y21148D01*
X9596Y21136D01*
X9608Y21125D01*
X9620Y21101D01*
X9620Y21065D01*
X9608Y21041D01*
X9596Y21029D01*
X9572Y21017D01*
X9477Y21017D01*
X9846Y21148D02*
X9727Y21148D01*
X9715Y21029D01*
X9727Y21041D01*
X9751Y21053D01*
X9810Y21053D01*
X9834Y21041D01*
X9846Y21029D01*
X9858Y21005D01*
X9858Y20946D01*
X9846Y20922D01*
X9834Y20910D01*
X9810Y20898D01*
X9751Y20898D01*
X9727Y20910D01*
X9715Y20922D01*
X10096Y20898D02*
X9953Y20898D01*
X10025Y20898D02*
X10025Y21148D01*
X10001Y21113D01*
X9977Y21089D01*
X9953Y21077D01*
X10334Y20898D02*
X10191Y20898D01*
X10263Y20898D02*
X10263Y21148D01*
X10239Y21113D01*
X10215Y21089D01*
X10191Y21077D01*
G54D16*
X37771Y28285D02*
X37871Y28285D01*
X37914Y28128D02*
X37771Y28128D01*
X37771Y28428D01*
X37914Y28428D01*
X38028Y28142D02*
X38071Y28128D01*
X38142Y28128D01*
X38171Y28142D01*
X38185Y28157D01*
X38200Y28185D01*
X38200Y28214D01*
X38185Y28242D01*
X38171Y28257D01*
X38142Y28271D01*
X38085Y28285D01*
X38057Y28300D01*
X38042Y28314D01*
X38028Y28342D01*
X38028Y28371D01*
X38042Y28400D01*
X38057Y28414D01*
X38085Y28428D01*
X38157Y28428D01*
X38200Y28414D01*
X38285Y28428D02*
X38457Y28428D01*
X38371Y28128D02*
X38371Y28428D01*
X38614Y28428D02*
X38671Y28428D01*
X38700Y28414D01*
X38728Y28385D01*
X38742Y28328D01*
X38742Y28228D01*
X38728Y28171D01*
X38700Y28142D01*
X38671Y28128D01*
X38614Y28128D01*
X38585Y28142D01*
X38557Y28171D01*
X38542Y28228D01*
X38542Y28328D01*
X38557Y28385D01*
X38585Y28414D01*
X38614Y28428D01*
X38871Y28128D02*
X38871Y28428D01*
X38985Y28428D01*
X39014Y28414D01*
X39028Y28400D01*
X39042Y28371D01*
X39042Y28328D01*
X39028Y28300D01*
X39014Y28285D01*
X38985Y28271D01*
X38871Y28271D01*
G54D14*
X22723Y33688D02*
X22723Y34088D01*
X22876Y34088D01*
X22914Y34069D01*
X22933Y34050D01*
X22952Y34011D01*
X22952Y33954D01*
X22933Y33916D01*
X22914Y33897D01*
X22876Y33878D01*
X22723Y33878D01*
X23104Y34050D02*
X23123Y34069D01*
X23161Y34088D01*
X23257Y34088D01*
X23295Y34069D01*
X23314Y34050D01*
X23333Y34011D01*
X23333Y33973D01*
X23314Y33916D01*
X23085Y33688D01*
X23333Y33688D01*
X23714Y33688D02*
X23485Y33688D01*
X23600Y33688D02*
X23600Y34088D01*
X23561Y34030D01*
X23523Y33992D01*
X23485Y33973D01*
X23866Y34050D02*
X23885Y34069D01*
X23923Y34088D01*
X24019Y34088D01*
X24057Y34069D01*
X24076Y34050D01*
X24095Y34011D01*
X24095Y33973D01*
X24076Y33916D01*
X23847Y33688D01*
X24095Y33688D01*
X22285Y31297D02*
X22419Y31297D01*
X22476Y31088D02*
X22285Y31088D01*
X22285Y31488D01*
X22476Y31488D01*
X22857Y31088D02*
X22628Y31088D01*
X22742Y31088D02*
X22742Y31488D01*
X22704Y31430D01*
X22666Y31392D01*
X22628Y31373D01*
X23028Y31240D02*
X23333Y31240D01*
X23523Y31088D02*
X23523Y31488D01*
X23657Y31202D01*
X23790Y31488D01*
X23790Y31088D01*
X24057Y31488D02*
X24133Y31488D01*
X24171Y31469D01*
X24209Y31430D01*
X24228Y31354D01*
X24228Y31221D01*
X24209Y31145D01*
X24171Y31107D01*
X24133Y31088D01*
X24057Y31088D01*
X24019Y31107D01*
X23980Y31145D01*
X23961Y31221D01*
X23961Y31354D01*
X23980Y31430D01*
X24019Y31469D01*
X24057Y31488D01*
X24342Y31488D02*
X24571Y31488D01*
X24457Y31088D02*
X24457Y31488D01*
X27723Y33638D02*
X27723Y34038D01*
X27876Y34038D01*
X27914Y34019D01*
X27933Y34000D01*
X27952Y33961D01*
X27952Y33904D01*
X27933Y33866D01*
X27914Y33847D01*
X27876Y33828D01*
X27723Y33828D01*
X28104Y34000D02*
X28123Y34019D01*
X28161Y34038D01*
X28257Y34038D01*
X28295Y34019D01*
X28314Y34000D01*
X28333Y33961D01*
X28333Y33923D01*
X28314Y33866D01*
X28085Y33638D01*
X28333Y33638D01*
X28714Y33638D02*
X28485Y33638D01*
X28600Y33638D02*
X28600Y34038D01*
X28561Y33980D01*
X28523Y33942D01*
X28485Y33923D01*
X28847Y34038D02*
X29114Y34038D01*
X28942Y33638D01*
X27285Y31297D02*
X27419Y31297D01*
X27476Y31088D02*
X27285Y31088D01*
X27285Y31488D01*
X27476Y31488D01*
X27723Y31488D02*
X27761Y31488D01*
X27800Y31469D01*
X27819Y31450D01*
X27838Y31411D01*
X27857Y31335D01*
X27857Y31240D01*
X27838Y31164D01*
X27819Y31126D01*
X27800Y31107D01*
X27761Y31088D01*
X27723Y31088D01*
X27685Y31107D01*
X27666Y31126D01*
X27647Y31164D01*
X27628Y31240D01*
X27628Y31335D01*
X27647Y31411D01*
X27666Y31450D01*
X27685Y31469D01*
X27723Y31488D01*
X28028Y31240D02*
X28333Y31240D01*
X28523Y31088D02*
X28523Y31488D01*
X28657Y31202D01*
X28790Y31488D01*
X28790Y31088D01*
X29057Y31488D02*
X29133Y31488D01*
X29171Y31469D01*
X29209Y31430D01*
X29228Y31354D01*
X29228Y31221D01*
X29209Y31145D01*
X29171Y31107D01*
X29133Y31088D01*
X29057Y31088D01*
X29019Y31107D01*
X28980Y31145D01*
X28961Y31221D01*
X28961Y31354D01*
X28980Y31430D01*
X29019Y31469D01*
X29057Y31488D01*
X29342Y31488D02*
X29571Y31488D01*
X29457Y31088D02*
X29457Y31488D01*
G54D23*
X22629Y26289D02*
X22620Y26279D01*
X22592Y26270D01*
X22573Y26270D01*
X22545Y26279D01*
X22526Y26298D01*
X22516Y26317D01*
X22507Y26354D01*
X22507Y26382D01*
X22516Y26420D01*
X22526Y26439D01*
X22545Y26457D01*
X22573Y26467D01*
X22592Y26467D01*
X22620Y26457D01*
X22629Y26448D01*
X22704Y26448D02*
X22713Y26457D01*
X22732Y26467D01*
X22779Y26467D01*
X22798Y26457D01*
X22807Y26448D01*
X22817Y26429D01*
X22817Y26410D01*
X22807Y26382D01*
X22695Y26270D01*
X22817Y26270D01*
X22939Y26467D02*
X22957Y26467D01*
X22976Y26457D01*
X22986Y26448D01*
X22995Y26429D01*
X23004Y26392D01*
X23004Y26345D01*
X22995Y26307D01*
X22986Y26289D01*
X22976Y26279D01*
X22957Y26270D01*
X22939Y26270D01*
X22920Y26279D01*
X22910Y26289D01*
X22901Y26307D01*
X22892Y26345D01*
X22892Y26392D01*
X22901Y26429D01*
X22910Y26448D01*
X22920Y26457D01*
X22939Y26467D01*
X23173Y26467D02*
X23136Y26467D01*
X23117Y26457D01*
X23107Y26448D01*
X23089Y26420D01*
X23079Y26382D01*
X23079Y26307D01*
X23089Y26289D01*
X23098Y26279D01*
X23117Y26270D01*
X23154Y26270D01*
X23173Y26279D01*
X23183Y26289D01*
X23192Y26307D01*
X23192Y26354D01*
X23183Y26373D01*
X23173Y26382D01*
X23154Y26392D01*
X23117Y26392D01*
X23098Y26382D01*
X23089Y26373D01*
X23079Y26354D01*
G54D11*
X29510Y19846D02*
X29710Y19846D01*
X29796Y19532D02*
X29510Y19532D01*
X29510Y20132D01*
X29796Y20132D01*
X30167Y20132D02*
X30225Y20132D01*
X30282Y20103D01*
X30310Y20075D01*
X30339Y20017D01*
X30367Y19903D01*
X30367Y19760D01*
X30339Y19646D01*
X30310Y19589D01*
X30282Y19560D01*
X30225Y19532D01*
X30167Y19532D01*
X30110Y19560D01*
X30082Y19589D01*
X30053Y19646D01*
X30025Y19760D01*
X30025Y19903D01*
X30053Y20017D01*
X30082Y20075D01*
X30110Y20103D01*
X30167Y20132D01*
G54D14*
X26511Y13873D02*
X26111Y13873D01*
X26111Y14026D01*
X26130Y14064D01*
X26150Y14083D01*
X26188Y14102D01*
X26245Y14102D01*
X26283Y14083D01*
X26302Y14064D01*
X26321Y14026D01*
X26321Y13873D01*
X26511Y14483D02*
X26511Y14254D01*
X26511Y14369D02*
X26111Y14369D01*
X26169Y14330D01*
X26207Y14292D01*
X26226Y14254D01*
X26111Y14730D02*
X26111Y14769D01*
X26130Y14807D01*
X26150Y14826D01*
X26188Y14845D01*
X26264Y14864D01*
X26359Y14864D01*
X26435Y14845D01*
X26473Y14826D01*
X26492Y14807D01*
X26511Y14769D01*
X26511Y14730D01*
X26492Y14692D01*
X26473Y14673D01*
X26435Y14654D01*
X26359Y14635D01*
X26264Y14635D01*
X26188Y14654D01*
X26150Y14673D01*
X26130Y14692D01*
X26111Y14730D01*
X26111Y15207D02*
X26111Y15130D01*
X26130Y15092D01*
X26150Y15073D01*
X26207Y15035D01*
X26283Y15016D01*
X26435Y15016D01*
X26473Y15035D01*
X26492Y15054D01*
X26511Y15092D01*
X26511Y15169D01*
X26492Y15207D01*
X26473Y15226D01*
X26435Y15245D01*
X26340Y15245D01*
X26302Y15226D01*
X26283Y15207D01*
X26264Y15169D01*
X26264Y15092D01*
X26283Y15054D01*
X26302Y15035D01*
X26340Y15016D01*
G54D15*
X14042Y14542D02*
X14528Y14542D01*
X14585Y14571D01*
X14614Y14600D01*
X14642Y14657D01*
X14642Y14771D01*
X14614Y14828D01*
X14585Y14857D01*
X14528Y14885D01*
X14042Y14885D01*
X14100Y15142D02*
X14071Y15171D01*
X14042Y15228D01*
X14042Y15371D01*
X14071Y15428D01*
X14100Y15457D01*
X14157Y15485D01*
X14214Y15485D01*
X14300Y15457D01*
X14642Y15114D01*
X14642Y15485D01*
X13042Y13369D02*
X13042Y13702D01*
X13642Y13488D01*
X13242Y14107D02*
X13642Y14107D01*
X13014Y13988D02*
X13442Y13869D01*
X13442Y14178D01*
X13642Y14369D02*
X13042Y14369D01*
X13328Y14369D02*
X13328Y14654D01*
X13642Y14654D02*
X13042Y14654D01*
X13585Y15178D02*
X13614Y15154D01*
X13642Y15083D01*
X13642Y15035D01*
X13614Y14964D01*
X13557Y14916D01*
X13500Y14892D01*
X13385Y14869D01*
X13300Y14869D01*
X13185Y14892D01*
X13128Y14916D01*
X13071Y14964D01*
X13042Y15035D01*
X13042Y15083D01*
X13071Y15154D01*
X13100Y15178D01*
X13100Y15369D02*
X13071Y15392D01*
X13042Y15440D01*
X13042Y15559D01*
X13071Y15607D01*
X13100Y15630D01*
X13157Y15654D01*
X13214Y15654D01*
X13300Y15630D01*
X13642Y15345D01*
X13642Y15654D01*
X13242Y16083D02*
X13642Y16083D01*
X13014Y15964D02*
X13442Y15845D01*
X13442Y16154D01*
X13242Y16559D02*
X13642Y16559D01*
X13014Y16440D02*
X13442Y16321D01*
X13442Y16630D01*
X25557Y17788D02*
X25557Y17464D01*
X25578Y17426D01*
X25600Y17407D01*
X25642Y17388D01*
X25728Y17388D01*
X25771Y17407D01*
X25792Y17426D01*
X25814Y17464D01*
X25814Y17788D01*
X26264Y17388D02*
X26007Y17388D01*
X26135Y17388D02*
X26135Y17788D01*
X26092Y17730D01*
X26050Y17692D01*
X26007Y17673D01*
X24595Y17088D02*
X24861Y17088D01*
X24690Y16688D01*
X25185Y16954D02*
X25185Y16688D01*
X25090Y17107D02*
X24995Y16821D01*
X25242Y16821D01*
X25395Y16688D02*
X25395Y17088D01*
X25395Y16897D02*
X25623Y16897D01*
X25623Y16688D02*
X25623Y17088D01*
X26042Y16726D02*
X26023Y16707D01*
X25966Y16688D01*
X25928Y16688D01*
X25871Y16707D01*
X25833Y16745D01*
X25814Y16783D01*
X25795Y16859D01*
X25795Y16916D01*
X25814Y16992D01*
X25833Y17030D01*
X25871Y17069D01*
X25928Y17088D01*
X25966Y17088D01*
X26023Y17069D01*
X26042Y17050D01*
X26423Y16688D02*
X26195Y16688D01*
X26309Y16688D02*
X26309Y17088D01*
X26271Y17030D01*
X26233Y16992D01*
X26195Y16973D01*
X26576Y17050D02*
X26595Y17069D01*
X26633Y17088D01*
X26728Y17088D01*
X26766Y17069D01*
X26785Y17050D01*
X26804Y17011D01*
X26804Y16973D01*
X26785Y16916D01*
X26557Y16688D01*
X26804Y16688D01*
X27166Y17088D02*
X26976Y17088D01*
X26957Y16897D01*
X26976Y16916D01*
X27014Y16935D01*
X27109Y16935D01*
X27147Y16916D01*
X27166Y16897D01*
X27185Y16859D01*
X27185Y16764D01*
X27166Y16726D01*
X27147Y16707D01*
X27109Y16688D01*
X27014Y16688D01*
X26976Y16707D01*
X26957Y16726D01*
X13727Y18458D02*
X13739Y18446D01*
X13751Y18410D01*
X13751Y18386D01*
X13739Y18351D01*
X13715Y18327D01*
X13691Y18315D01*
X13644Y18303D01*
X13608Y18303D01*
X13560Y18315D01*
X13536Y18327D01*
X13513Y18351D01*
X13501Y18386D01*
X13501Y18410D01*
X13513Y18446D01*
X13525Y18458D01*
X13525Y18553D02*
X13513Y18565D01*
X13501Y18589D01*
X13501Y18648D01*
X13513Y18672D01*
X13525Y18684D01*
X13548Y18696D01*
X13572Y18696D01*
X13608Y18684D01*
X13751Y18541D01*
X13751Y18696D01*
X23477Y16708D02*
X23489Y16696D01*
X23501Y16660D01*
X23501Y16636D01*
X23489Y16601D01*
X23465Y16577D01*
X23441Y16565D01*
X23394Y16553D01*
X23358Y16553D01*
X23310Y16565D01*
X23286Y16577D01*
X23263Y16601D01*
X23251Y16636D01*
X23251Y16660D01*
X23263Y16696D01*
X23275Y16708D01*
X23501Y16946D02*
X23501Y16803D01*
X23501Y16875D02*
X23251Y16875D01*
X23286Y16851D01*
X23310Y16827D01*
X23322Y16803D01*
X10251Y32458D02*
X10132Y32375D01*
X10251Y32315D02*
X10001Y32315D01*
X10001Y32410D01*
X10013Y32434D01*
X10025Y32446D01*
X10048Y32458D01*
X10084Y32458D01*
X10108Y32446D01*
X10120Y32434D01*
X10132Y32410D01*
X10132Y32315D01*
X10025Y32553D02*
X10013Y32565D01*
X10001Y32589D01*
X10001Y32648D01*
X10013Y32672D01*
X10025Y32684D01*
X10048Y32696D01*
X10072Y32696D01*
X10108Y32684D01*
X10251Y32541D01*
X10251Y32696D01*
X11301Y32458D02*
X11182Y32375D01*
X11301Y32315D02*
X11051Y32315D01*
X11051Y32410D01*
X11063Y32434D01*
X11075Y32446D01*
X11098Y32458D01*
X11134Y32458D01*
X11158Y32446D01*
X11170Y32434D01*
X11182Y32410D01*
X11182Y32315D01*
X11301Y32696D02*
X11301Y32553D01*
X11301Y32625D02*
X11051Y32625D01*
X11086Y32601D01*
X11110Y32577D01*
X11122Y32553D01*
G54D25*
X7354Y31947D02*
X7317Y31921D01*
X7354Y31902D02*
X7275Y31902D01*
X7275Y31932D01*
X7279Y31939D01*
X7283Y31943D01*
X7291Y31947D01*
X7302Y31947D01*
X7309Y31943D01*
X7313Y31939D01*
X7317Y31932D01*
X7317Y31902D01*
X7354Y31981D02*
X7275Y31981D01*
X7275Y32011D01*
X7279Y32018D01*
X7283Y32022D01*
X7291Y32026D01*
X7302Y32026D01*
X7309Y32022D01*
X7313Y32018D01*
X7317Y32011D01*
X7317Y31981D01*
X7354Y32101D02*
X7354Y32056D01*
X7354Y32079D02*
X7275Y32079D01*
X7287Y32071D01*
X7294Y32063D01*
X7298Y32056D01*
X13008Y18447D02*
X12971Y18421D01*
X13008Y18402D02*
X12929Y18402D01*
X12929Y18432D01*
X12933Y18439D01*
X12937Y18443D01*
X12945Y18447D01*
X12956Y18447D01*
X12963Y18443D01*
X12967Y18439D01*
X12971Y18432D01*
X12971Y18402D01*
X13008Y18481D02*
X12929Y18481D01*
X12929Y18511D01*
X12933Y18518D01*
X12937Y18522D01*
X12945Y18526D01*
X12956Y18526D01*
X12963Y18522D01*
X12967Y18518D01*
X12971Y18511D01*
X12971Y18481D01*
X12929Y18552D02*
X12929Y18601D01*
X12960Y18575D01*
X12960Y18586D01*
X12963Y18594D01*
X12967Y18597D01*
X12975Y18601D01*
X12993Y18601D01*
X13001Y18597D01*
X13005Y18594D01*
X13008Y18586D01*
X13008Y18563D01*
X13005Y18556D01*
X13001Y18552D01*
X16758Y18447D02*
X16721Y18421D01*
X16758Y18402D02*
X16679Y18402D01*
X16679Y18432D01*
X16683Y18439D01*
X16687Y18443D01*
X16695Y18447D01*
X16706Y18447D01*
X16713Y18443D01*
X16717Y18439D01*
X16721Y18432D01*
X16721Y18402D01*
X16758Y18481D02*
X16679Y18481D01*
X16679Y18511D01*
X16683Y18518D01*
X16687Y18522D01*
X16695Y18526D01*
X16706Y18526D01*
X16713Y18522D01*
X16717Y18518D01*
X16721Y18511D01*
X16721Y18481D01*
X16687Y18556D02*
X16683Y18560D01*
X16679Y18567D01*
X16679Y18586D01*
X16683Y18594D01*
X16687Y18597D01*
X16695Y18601D01*
X16702Y18601D01*
X16713Y18597D01*
X16758Y18552D01*
X16758Y18601D01*
G54D14*
X34342Y25875D02*
X34361Y25925D01*
X34361Y26008D01*
X34342Y26041D01*
X34323Y26058D01*
X34285Y26075D01*
X34247Y26075D01*
X34209Y26058D01*
X34190Y26041D01*
X34171Y26008D01*
X34152Y25941D01*
X34133Y25908D01*
X34114Y25891D01*
X34076Y25875D01*
X34038Y25875D01*
X34000Y25891D01*
X33980Y25908D01*
X33961Y25941D01*
X33961Y26025D01*
X33980Y26075D01*
X34152Y26225D02*
X34152Y26341D01*
X34361Y26391D02*
X34361Y26225D01*
X33961Y26225D01*
X33961Y26391D01*
X34361Y26741D02*
X34171Y26625D01*
X34361Y26541D02*
X33961Y26541D01*
X33961Y26675D01*
X33980Y26708D01*
X34000Y26725D01*
X34038Y26741D01*
X34095Y26741D01*
X34133Y26725D01*
X34152Y26708D01*
X34171Y26675D01*
X34171Y26541D01*
X34361Y26891D02*
X33961Y26891D01*
X34247Y27041D02*
X34247Y27208D01*
X34361Y27008D02*
X33961Y27125D01*
X34361Y27241D01*
X34361Y27525D02*
X34361Y27358D01*
X33961Y27358D01*
X34361Y27825D02*
X34361Y27625D01*
X34361Y27725D02*
X33961Y27725D01*
X34019Y27691D01*
X34057Y27658D01*
X34076Y27625D01*
X8425Y33238D02*
X8425Y33638D01*
X8574Y33600D02*
X8591Y33619D01*
X8624Y33638D01*
X8708Y33638D01*
X8741Y33619D01*
X8758Y33600D01*
X8774Y33561D01*
X8774Y33523D01*
X8758Y33466D01*
X8558Y33238D01*
X8774Y33238D01*
X9125Y33276D02*
X9108Y33257D01*
X9058Y33238D01*
X9025Y33238D01*
X8975Y33257D01*
X8941Y33295D01*
X8925Y33333D01*
X8908Y33409D01*
X8908Y33466D01*
X8925Y33542D01*
X8941Y33580D01*
X8975Y33619D01*
X9025Y33638D01*
X9058Y33638D01*
X9108Y33619D01*
X9125Y33600D01*
X9275Y33390D02*
X9541Y33390D01*
X9891Y33238D02*
X9691Y33238D01*
X9791Y33238D02*
X9791Y33638D01*
X9758Y33580D01*
X9725Y33542D01*
X9691Y33523D01*
X13735Y11988D02*
X13735Y11702D01*
X13716Y11645D01*
X13678Y11607D01*
X13621Y11588D01*
X13583Y11588D01*
X13926Y11588D02*
X13926Y11988D01*
X14078Y11988D01*
X14116Y11969D01*
X14135Y11950D01*
X14154Y11911D01*
X14154Y11854D01*
X14135Y11816D01*
X14116Y11797D01*
X14078Y11778D01*
X13926Y11778D01*
X14535Y11588D02*
X14307Y11588D01*
X14421Y11588D02*
X14421Y11988D01*
X14383Y11930D01*
X14345Y11892D01*
X14307Y11873D01*
X14783Y11988D02*
X14821Y11988D01*
X14859Y11969D01*
X14878Y11950D01*
X14897Y11911D01*
X14916Y11835D01*
X14916Y11740D01*
X14897Y11664D01*
X14878Y11626D01*
X14859Y11607D01*
X14821Y11588D01*
X14783Y11588D01*
X14745Y11607D01*
X14726Y11626D01*
X14707Y11664D01*
X14688Y11740D01*
X14688Y11835D01*
X14707Y11911D01*
X14726Y11950D01*
X14745Y11969D01*
X14783Y11988D01*
X15069Y11950D02*
X15088Y11969D01*
X15126Y11988D01*
X15221Y11988D01*
X15259Y11969D01*
X15278Y11950D01*
X15297Y11911D01*
X15297Y11873D01*
X15278Y11816D01*
X15050Y11588D01*
X15297Y11588D01*
X13716Y11238D02*
X13833Y10838D01*
X13950Y11238D01*
X14050Y10857D02*
X14100Y10838D01*
X14183Y10838D01*
X14216Y10857D01*
X14233Y10876D01*
X14250Y10914D01*
X14250Y10952D01*
X14233Y10990D01*
X14216Y11009D01*
X14183Y11028D01*
X14116Y11047D01*
X14083Y11066D01*
X14066Y11085D01*
X14050Y11123D01*
X14050Y11161D01*
X14066Y11200D01*
X14083Y11219D01*
X14116Y11238D01*
X14200Y11238D01*
X14250Y11219D01*
X14400Y11047D02*
X14516Y11047D01*
X14566Y10838D02*
X14400Y10838D01*
X14400Y11238D01*
X14566Y11238D01*
X14883Y10838D02*
X14716Y10838D01*
X14716Y11238D01*
G54D16*
X16700Y6928D02*
X16700Y6714D01*
X16685Y6671D01*
X16657Y6642D01*
X16614Y6628D01*
X16585Y6628D01*
X16842Y6628D02*
X16842Y6928D01*
X16957Y6928D01*
X16985Y6914D01*
X17000Y6900D01*
X17014Y6871D01*
X17014Y6828D01*
X17000Y6800D01*
X16985Y6785D01*
X16957Y6771D01*
X16842Y6771D01*
X17300Y6628D02*
X17128Y6628D01*
X17214Y6628D02*
X17214Y6928D01*
X17185Y6885D01*
X17157Y6857D01*
X17128Y6842D01*
G54D13*
X16352Y6447D02*
X16519Y5947D01*
X16685Y6447D01*
X16852Y5947D02*
X16852Y6447D01*
X17090Y5947D02*
X17090Y6447D01*
X17376Y5947D01*
X17376Y6447D01*
G54D14*
X8942Y8195D02*
X9428Y8195D01*
X9485Y8214D01*
X9514Y8233D01*
X9542Y8271D01*
X9542Y8347D01*
X9514Y8385D01*
X9485Y8404D01*
X9428Y8423D01*
X8942Y8423D01*
X8942Y8576D02*
X8942Y8823D01*
X9171Y8690D01*
X9171Y8747D01*
X9200Y8785D01*
X9228Y8804D01*
X9285Y8823D01*
X9428Y8823D01*
X9485Y8804D01*
X9514Y8785D01*
X9542Y8747D01*
X9542Y8633D01*
X9514Y8595D01*
X9485Y8576D01*
X29311Y14323D02*
X28911Y14323D01*
X28911Y14476D01*
X28930Y14514D01*
X28950Y14533D01*
X28988Y14552D01*
X29045Y14552D01*
X29083Y14533D01*
X29102Y14514D01*
X29121Y14476D01*
X29121Y14323D01*
X28950Y14704D02*
X28930Y14723D01*
X28911Y14761D01*
X28911Y14857D01*
X28930Y14895D01*
X28950Y14914D01*
X28988Y14933D01*
X29026Y14933D01*
X29083Y14914D01*
X29311Y14685D01*
X29311Y14933D01*
X29311Y15314D02*
X29311Y15085D01*
X29311Y15200D02*
X28911Y15200D01*
X28969Y15161D01*
X29007Y15123D01*
X29026Y15085D01*
X29045Y15657D02*
X29311Y15657D01*
X28892Y15561D02*
X29178Y15466D01*
X29178Y15714D01*
X28372Y14066D02*
X28372Y14257D01*
X28486Y14028D02*
X28086Y14161D01*
X28486Y14295D01*
X28086Y14428D02*
X28410Y14428D01*
X28448Y14447D01*
X28467Y14466D01*
X28486Y14504D01*
X28486Y14580D01*
X28467Y14619D01*
X28448Y14638D01*
X28410Y14657D01*
X28086Y14657D01*
X28086Y14809D02*
X28486Y15076D01*
X28086Y15076D02*
X28486Y14809D01*
X28334Y15228D02*
X28334Y15533D01*
X28125Y15704D02*
X28105Y15723D01*
X28086Y15761D01*
X28086Y15857D01*
X28105Y15895D01*
X28125Y15914D01*
X28163Y15933D01*
X28201Y15933D01*
X28258Y15914D01*
X28486Y15685D01*
X28486Y15933D01*
X36842Y25875D02*
X36861Y25925D01*
X36861Y26008D01*
X36842Y26041D01*
X36823Y26058D01*
X36785Y26075D01*
X36747Y26075D01*
X36709Y26058D01*
X36690Y26041D01*
X36671Y26008D01*
X36652Y25941D01*
X36633Y25908D01*
X36614Y25891D01*
X36576Y25875D01*
X36538Y25875D01*
X36500Y25891D01*
X36480Y25908D01*
X36461Y25941D01*
X36461Y26025D01*
X36480Y26075D01*
X36652Y26225D02*
X36652Y26341D01*
X36861Y26391D02*
X36861Y26225D01*
X36461Y26225D01*
X36461Y26391D01*
X36861Y26741D02*
X36671Y26625D01*
X36861Y26541D02*
X36461Y26541D01*
X36461Y26675D01*
X36480Y26708D01*
X36500Y26725D01*
X36538Y26741D01*
X36595Y26741D01*
X36633Y26725D01*
X36652Y26708D01*
X36671Y26675D01*
X36671Y26541D01*
X36861Y26891D02*
X36461Y26891D01*
X36747Y27041D02*
X36747Y27208D01*
X36861Y27008D02*
X36461Y27125D01*
X36861Y27241D01*
X36861Y27525D02*
X36861Y27358D01*
X36461Y27358D01*
X36461Y27708D02*
X36461Y27741D01*
X36480Y27775D01*
X36500Y27791D01*
X36538Y27808D01*
X36614Y27825D01*
X36709Y27825D01*
X36785Y27808D01*
X36823Y27791D01*
X36842Y27775D01*
X36861Y27741D01*
X36861Y27708D01*
X36842Y27675D01*
X36823Y27658D01*
X36785Y27641D01*
X36709Y27625D01*
X36614Y27625D01*
X36538Y27641D01*
X36500Y27658D01*
X36480Y27675D01*
X36461Y27708D01*
G54D16*
X11892Y378D02*
X11892Y678D01*
X12007Y678D01*
X12035Y664D01*
X12050Y650D01*
X12064Y621D01*
X12064Y578D01*
X12050Y550D01*
X12035Y535D01*
X12007Y521D01*
X11892Y521D01*
X12350Y378D02*
X12178Y378D01*
X12264Y378D02*
X12264Y678D01*
X12235Y635D01*
X12207Y607D01*
X12178Y592D01*
X12535Y678D02*
X12564Y678D01*
X12592Y664D01*
X12607Y650D01*
X12621Y621D01*
X12635Y564D01*
X12635Y492D01*
X12621Y435D01*
X12607Y407D01*
X12592Y392D01*
X12564Y378D01*
X12535Y378D01*
X12507Y392D01*
X12492Y407D01*
X12478Y435D01*
X12464Y492D01*
X12464Y564D01*
X12478Y621D01*
X12492Y650D01*
X12507Y664D01*
X12535Y678D01*
X12907Y678D02*
X12764Y678D01*
X12750Y535D01*
X12764Y550D01*
X12792Y564D01*
X12864Y564D01*
X12892Y550D01*
X12907Y535D01*
X12921Y507D01*
X12921Y435D01*
X12907Y407D01*
X12892Y392D01*
X12864Y378D01*
X12792Y378D01*
X12764Y392D01*
X12750Y407D01*
X11271Y450D02*
X11271Y278D01*
X11271Y364D02*
X10971Y364D01*
X11014Y335D01*
X11042Y307D01*
X11057Y278D01*
X11000Y564D02*
X10985Y578D01*
X10971Y607D01*
X10971Y678D01*
X10985Y707D01*
X11000Y721D01*
X11028Y735D01*
X11057Y735D01*
X11100Y721D01*
X11271Y550D01*
X11271Y735D01*
X10971Y821D02*
X11271Y921D01*
X10971Y1021D01*
X11157Y1121D02*
X11157Y1350D01*
X11185Y1478D02*
X11185Y1621D01*
X11271Y1450D02*
X10971Y1550D01*
X11271Y1650D01*
X10971Y1750D02*
X11214Y1750D01*
X11242Y1764D01*
X11257Y1778D01*
X11271Y1807D01*
X11271Y1864D01*
X11257Y1892D01*
X11242Y1907D01*
X11214Y1921D01*
X10971Y1921D01*
X10971Y2035D02*
X11271Y2235D01*
X10971Y2235D02*
X11271Y2035D01*
G54D11*
X4378Y728D02*
X4378Y528D01*
X4692Y528D02*
X4092Y528D01*
X4092Y814D01*
X4692Y1357D02*
X4692Y1014D01*
X4692Y1185D02*
X4092Y1185D01*
X4178Y1128D01*
X4235Y1071D01*
X4264Y1014D01*
X4092Y1728D02*
X4092Y1785D01*
X4121Y1842D01*
X4150Y1871D01*
X4207Y1900D01*
X4321Y1928D01*
X4464Y1928D01*
X4578Y1900D01*
X4635Y1871D01*
X4664Y1842D01*
X4692Y1785D01*
X4692Y1728D01*
X4664Y1671D01*
X4635Y1642D01*
X4578Y1614D01*
X4464Y1585D01*
X4321Y1585D01*
X4207Y1614D01*
X4150Y1642D01*
X4121Y1671D01*
X4092Y1728D01*
X4150Y2157D02*
X4121Y2185D01*
X4092Y2242D01*
X4092Y2385D01*
X4121Y2442D01*
X4150Y2471D01*
X4207Y2500D01*
X4264Y2500D01*
X4350Y2471D01*
X4692Y2128D01*
X4692Y2500D01*
X4578Y5728D02*
X4578Y5528D01*
X4892Y5528D02*
X4292Y5528D01*
X4292Y5814D01*
X4892Y6357D02*
X4892Y6014D01*
X4892Y6185D02*
X4292Y6185D01*
X4378Y6128D01*
X4435Y6071D01*
X4464Y6014D01*
X4292Y6728D02*
X4292Y6785D01*
X4321Y6842D01*
X4350Y6871D01*
X4407Y6900D01*
X4521Y6928D01*
X4664Y6928D01*
X4778Y6900D01*
X4835Y6871D01*
X4864Y6842D01*
X4892Y6785D01*
X4892Y6728D01*
X4864Y6671D01*
X4835Y6642D01*
X4778Y6614D01*
X4664Y6585D01*
X4521Y6585D01*
X4407Y6614D01*
X4350Y6642D01*
X4321Y6671D01*
X4292Y6728D01*
X4292Y7128D02*
X4292Y7500D01*
X4521Y7300D01*
X4521Y7385D01*
X4550Y7442D01*
X4578Y7471D01*
X4635Y7500D01*
X4778Y7500D01*
X4835Y7471D01*
X4864Y7442D01*
X4892Y7385D01*
X4892Y7214D01*
X4864Y7157D01*
X4835Y7128D01*
X4628Y9071D02*
X4428Y9071D01*
X4428Y8757D02*
X4428Y9357D01*
X4714Y9357D01*
X5257Y8757D02*
X4914Y8757D01*
X5085Y8757D02*
X5085Y9357D01*
X5028Y9271D01*
X4971Y9214D01*
X4914Y9185D01*
X5628Y9357D02*
X5685Y9357D01*
X5742Y9328D01*
X5771Y9300D01*
X5800Y9242D01*
X5828Y9128D01*
X5828Y8985D01*
X5800Y8871D01*
X5771Y8814D01*
X5742Y8785D01*
X5685Y8757D01*
X5628Y8757D01*
X5571Y8785D01*
X5542Y8814D01*
X5514Y8871D01*
X5485Y8985D01*
X5485Y9128D01*
X5514Y9242D01*
X5542Y9300D01*
X5571Y9328D01*
X5628Y9357D01*
X6400Y8757D02*
X6057Y8757D01*
X6228Y8757D02*
X6228Y9357D01*
X6171Y9271D01*
X6114Y9214D01*
X6057Y9185D01*
G54D24*
X6750Y30185D02*
X6735Y30157D01*
X6707Y30128D01*
X6664Y30085D01*
X6650Y30057D01*
X6650Y30028D01*
X6721Y30042D02*
X6707Y30014D01*
X6678Y29985D01*
X6621Y29971D01*
X6521Y29971D01*
X6464Y29985D01*
X6435Y30014D01*
X6421Y30042D01*
X6421Y30100D01*
X6435Y30128D01*
X6464Y30157D01*
X6521Y30171D01*
X6621Y30171D01*
X6678Y30157D01*
X6707Y30128D01*
X6721Y30100D01*
X6721Y30042D01*
X6721Y30314D02*
X6721Y30371D01*
X6707Y30400D01*
X6692Y30414D01*
X6650Y30442D01*
X6592Y30457D01*
X6478Y30457D01*
X6450Y30442D01*
X6435Y30428D01*
X6421Y30400D01*
X6421Y30342D01*
X6435Y30314D01*
X6450Y30300D01*
X6478Y30285D01*
X6550Y30285D01*
X6578Y30300D01*
X6592Y30314D01*
X6607Y30342D01*
X6607Y30400D01*
X6592Y30428D01*
X6578Y30442D01*
X6550Y30457D01*
X6421Y30642D02*
X6421Y30671D01*
X6435Y30700D01*
X6450Y30714D01*
X6478Y30728D01*
X6535Y30742D01*
X6607Y30742D01*
X6664Y30728D01*
X6692Y30714D01*
X6707Y30700D01*
X6721Y30671D01*
X6721Y30642D01*
X6707Y30614D01*
X6692Y30600D01*
X6664Y30585D01*
X6607Y30571D01*
X6535Y30571D01*
X6478Y30585D01*
X6450Y30600D01*
X6435Y30614D01*
X6421Y30642D01*
X6721Y31028D02*
X6721Y30857D01*
X6721Y30942D02*
X6421Y30942D01*
X6464Y30914D01*
X6492Y30885D01*
X6507Y30857D01*
G54D14*
G54D24*
X7650Y32785D02*
X7635Y32757D01*
X7607Y32728D01*
X7564Y32685D01*
X7550Y32657D01*
X7550Y32628D01*
X7621Y32642D02*
X7607Y32614D01*
X7578Y32585D01*
X7521Y32571D01*
X7421Y32571D01*
X7364Y32585D01*
X7335Y32614D01*
X7321Y32642D01*
X7321Y32700D01*
X7335Y32728D01*
X7364Y32757D01*
X7421Y32771D01*
X7521Y32771D01*
X7578Y32757D01*
X7607Y32728D01*
X7621Y32700D01*
X7621Y32642D01*
X7621Y32914D02*
X7621Y32971D01*
X7607Y33000D01*
X7592Y33014D01*
X7550Y33042D01*
X7492Y33057D01*
X7378Y33057D01*
X7350Y33042D01*
X7335Y33028D01*
X7321Y33000D01*
X7321Y32942D01*
X7335Y32914D01*
X7350Y32900D01*
X7378Y32885D01*
X7450Y32885D01*
X7478Y32900D01*
X7492Y32914D01*
X7507Y32942D01*
X7507Y33000D01*
X7492Y33028D01*
X7478Y33042D01*
X7450Y33057D01*
X7321Y33242D02*
X7321Y33271D01*
X7335Y33300D01*
X7350Y33314D01*
X7378Y33328D01*
X7435Y33342D01*
X7507Y33342D01*
X7564Y33328D01*
X7592Y33314D01*
X7607Y33300D01*
X7621Y33271D01*
X7621Y33242D01*
X7607Y33214D01*
X7592Y33200D01*
X7564Y33185D01*
X7507Y33171D01*
X7435Y33171D01*
X7378Y33185D01*
X7350Y33200D01*
X7335Y33214D01*
X7321Y33242D01*
X7350Y33457D02*
X7335Y33471D01*
X7321Y33500D01*
X7321Y33571D01*
X7335Y33600D01*
X7350Y33614D01*
X7378Y33628D01*
X7407Y33628D01*
X7450Y33614D01*
X7621Y33442D01*
X7621Y33628D01*
G54D14*
G54D15*
X6051Y30170D02*
X5932Y30086D01*
X6051Y30027D02*
X5801Y30027D01*
X5801Y30122D01*
X5813Y30146D01*
X5825Y30158D01*
X5848Y30170D01*
X5884Y30170D01*
X5908Y30158D01*
X5920Y30146D01*
X5932Y30122D01*
X5932Y30027D01*
X6051Y30289D02*
X6051Y30336D01*
X6039Y30360D01*
X6027Y30372D01*
X5991Y30396D01*
X5944Y30408D01*
X5848Y30408D01*
X5825Y30396D01*
X5813Y30384D01*
X5801Y30360D01*
X5801Y30313D01*
X5813Y30289D01*
X5825Y30277D01*
X5848Y30265D01*
X5908Y30265D01*
X5932Y30277D01*
X5944Y30289D01*
X5955Y30313D01*
X5955Y30360D01*
X5944Y30384D01*
X5932Y30396D01*
X5908Y30408D01*
X5801Y30563D02*
X5801Y30586D01*
X5813Y30610D01*
X5825Y30622D01*
X5848Y30634D01*
X5896Y30646D01*
X5955Y30646D01*
X6003Y30634D01*
X6027Y30622D01*
X6039Y30610D01*
X6051Y30586D01*
X6051Y30563D01*
X6039Y30539D01*
X6027Y30527D01*
X6003Y30515D01*
X5955Y30503D01*
X5896Y30503D01*
X5848Y30515D01*
X5825Y30527D01*
X5813Y30539D01*
X5801Y30563D01*
X5801Y30872D02*
X5801Y30753D01*
X5920Y30741D01*
X5908Y30753D01*
X5896Y30777D01*
X5896Y30836D01*
X5908Y30860D01*
X5920Y30872D01*
X5944Y30884D01*
X6003Y30884D01*
X6027Y30872D01*
X6039Y30860D01*
X6051Y30836D01*
X6051Y30777D01*
X6039Y30753D01*
X6027Y30741D01*
X5220Y32048D02*
X5136Y32167D01*
X5077Y32048D02*
X5077Y32298D01*
X5172Y32298D01*
X5196Y32286D01*
X5208Y32275D01*
X5220Y32251D01*
X5220Y32215D01*
X5208Y32191D01*
X5196Y32179D01*
X5172Y32167D01*
X5077Y32167D01*
X5339Y32048D02*
X5386Y32048D01*
X5410Y32060D01*
X5422Y32072D01*
X5446Y32108D01*
X5458Y32155D01*
X5458Y32251D01*
X5446Y32275D01*
X5434Y32286D01*
X5410Y32298D01*
X5363Y32298D01*
X5339Y32286D01*
X5327Y32275D01*
X5315Y32251D01*
X5315Y32191D01*
X5327Y32167D01*
X5339Y32155D01*
X5363Y32144D01*
X5410Y32144D01*
X5434Y32155D01*
X5446Y32167D01*
X5458Y32191D01*
X5613Y32298D02*
X5636Y32298D01*
X5660Y32286D01*
X5672Y32275D01*
X5684Y32251D01*
X5696Y32203D01*
X5696Y32144D01*
X5684Y32096D01*
X5672Y32072D01*
X5660Y32060D01*
X5636Y32048D01*
X5613Y32048D01*
X5589Y32060D01*
X5577Y32072D01*
X5565Y32096D01*
X5553Y32144D01*
X5553Y32203D01*
X5565Y32251D01*
X5577Y32275D01*
X5589Y32286D01*
X5613Y32298D01*
X5910Y32298D02*
X5863Y32298D01*
X5839Y32286D01*
X5827Y32275D01*
X5803Y32239D01*
X5791Y32191D01*
X5791Y32096D01*
X5803Y32072D01*
X5815Y32060D01*
X5839Y32048D01*
X5886Y32048D01*
X5910Y32060D01*
X5922Y32072D01*
X5934Y32096D01*
X5934Y32155D01*
X5922Y32179D01*
X5910Y32191D01*
X5886Y32203D01*
X5839Y32203D01*
X5815Y32191D01*
X5803Y32179D01*
X5791Y32155D01*
X4142Y29778D02*
X4142Y30078D01*
X4214Y30078D01*
X4257Y30064D01*
X4285Y30035D01*
X4300Y30007D01*
X4314Y29950D01*
X4314Y29907D01*
X4300Y29850D01*
X4285Y29821D01*
X4257Y29792D01*
X4214Y29778D01*
X4142Y29778D01*
X4457Y29778D02*
X4514Y29778D01*
X4542Y29792D01*
X4557Y29807D01*
X4585Y29850D01*
X4600Y29907D01*
X4600Y30021D01*
X4585Y30050D01*
X4571Y30064D01*
X4542Y30078D01*
X4485Y30078D01*
X4457Y30064D01*
X4442Y30050D01*
X4428Y30021D01*
X4428Y29950D01*
X4442Y29921D01*
X4457Y29907D01*
X4485Y29892D01*
X4542Y29892D01*
X4571Y29907D01*
X4585Y29921D01*
X4600Y29950D01*
X4785Y30078D02*
X4814Y30078D01*
X4842Y30064D01*
X4857Y30050D01*
X4871Y30021D01*
X4885Y29964D01*
X4885Y29892D01*
X4871Y29835D01*
X4857Y29807D01*
X4842Y29792D01*
X4814Y29778D01*
X4785Y29778D01*
X4757Y29792D01*
X4742Y29807D01*
X4728Y29835D01*
X4714Y29892D01*
X4714Y29964D01*
X4728Y30021D01*
X4742Y30050D01*
X4757Y30064D01*
X4785Y30078D01*
X5171Y29778D02*
X5000Y29778D01*
X5085Y29778D02*
X5085Y30078D01*
X5057Y30035D01*
X5028Y30007D01*
X5000Y29992D01*
X6071Y32492D02*
X5771Y32492D01*
X5771Y32564D01*
X5785Y32607D01*
X5814Y32635D01*
X5842Y32650D01*
X5900Y32664D01*
X5942Y32664D01*
X6000Y32650D01*
X6028Y32635D01*
X6057Y32607D01*
X6071Y32564D01*
X6071Y32492D01*
X6071Y32807D02*
X6071Y32864D01*
X6057Y32892D01*
X6042Y32907D01*
X6000Y32935D01*
X5942Y32950D01*
X5828Y32950D01*
X5800Y32935D01*
X5785Y32921D01*
X5771Y32892D01*
X5771Y32835D01*
X5785Y32807D01*
X5800Y32792D01*
X5828Y32778D01*
X5900Y32778D01*
X5928Y32792D01*
X5942Y32807D01*
X5957Y32835D01*
X5957Y32892D01*
X5942Y32921D01*
X5928Y32935D01*
X5900Y32950D01*
X5771Y33135D02*
X5771Y33164D01*
X5785Y33192D01*
X5800Y33207D01*
X5828Y33221D01*
X5885Y33235D01*
X5957Y33235D01*
X6014Y33221D01*
X6042Y33207D01*
X6057Y33192D01*
X6071Y33164D01*
X6071Y33135D01*
X6057Y33107D01*
X6042Y33092D01*
X6014Y33078D01*
X5957Y33064D01*
X5885Y33064D01*
X5828Y33078D01*
X5800Y33092D01*
X5785Y33107D01*
X5771Y33135D01*
X5800Y33350D02*
X5785Y33364D01*
X5771Y33392D01*
X5771Y33464D01*
X5785Y33492D01*
X5800Y33507D01*
X5828Y33521D01*
X5857Y33521D01*
X5900Y33507D01*
X6071Y33335D01*
X6071Y33521D01*
G54D16*
X971Y30742D02*
X671Y30742D01*
X671Y30857D01*
X685Y30885D01*
X700Y30900D01*
X728Y30914D01*
X771Y30914D01*
X800Y30900D01*
X814Y30885D01*
X828Y30857D01*
X828Y30742D01*
X971Y31057D02*
X971Y31114D01*
X957Y31142D01*
X942Y31157D01*
X900Y31185D01*
X842Y31200D01*
X728Y31200D01*
X700Y31185D01*
X685Y31171D01*
X671Y31142D01*
X671Y31085D01*
X685Y31057D01*
X700Y31042D01*
X728Y31028D01*
X800Y31028D01*
X828Y31042D01*
X842Y31057D01*
X857Y31085D01*
X857Y31142D01*
X842Y31171D01*
X828Y31185D01*
X800Y31200D01*
X671Y31385D02*
X671Y31414D01*
X685Y31442D01*
X700Y31457D01*
X728Y31471D01*
X785Y31485D01*
X857Y31485D01*
X914Y31471D01*
X942Y31457D01*
X957Y31442D01*
X971Y31414D01*
X971Y31385D01*
X957Y31357D01*
X942Y31342D01*
X914Y31328D01*
X857Y31314D01*
X785Y31314D01*
X728Y31328D01*
X700Y31342D01*
X685Y31357D01*
X671Y31385D01*
X971Y31771D02*
X971Y31600D01*
X971Y31685D02*
X671Y31685D01*
X714Y31657D01*
X742Y31628D01*
X757Y31600D01*
G54D11*
X3121Y31817D02*
X3121Y32417D01*
X3264Y32417D01*
X3350Y32388D01*
X3407Y32331D01*
X3435Y32274D01*
X3464Y32160D01*
X3464Y32074D01*
X3435Y31960D01*
X3407Y31902D01*
X3350Y31845D01*
X3264Y31817D01*
X3121Y31817D01*
X4035Y31817D02*
X3692Y31817D01*
X3864Y31817D02*
X3864Y32417D01*
X3807Y32331D01*
X3750Y32274D01*
X3692Y32245D01*
X4264Y32360D02*
X4292Y32388D01*
X4350Y32417D01*
X4492Y32417D01*
X4550Y32388D01*
X4578Y32360D01*
X4607Y32302D01*
X4607Y32245D01*
X4578Y32160D01*
X4235Y31817D01*
X4607Y31817D01*
G54D16*
X971Y32992D02*
X671Y32992D01*
X671Y33107D01*
X685Y33135D01*
X700Y33150D01*
X728Y33164D01*
X771Y33164D01*
X800Y33150D01*
X814Y33135D01*
X828Y33107D01*
X828Y32992D01*
X971Y33307D02*
X971Y33364D01*
X957Y33392D01*
X942Y33407D01*
X900Y33435D01*
X842Y33450D01*
X728Y33450D01*
X700Y33435D01*
X685Y33421D01*
X671Y33392D01*
X671Y33335D01*
X685Y33307D01*
X700Y33292D01*
X728Y33278D01*
X800Y33278D01*
X828Y33292D01*
X842Y33307D01*
X857Y33335D01*
X857Y33392D01*
X842Y33421D01*
X828Y33435D01*
X800Y33450D01*
X671Y33635D02*
X671Y33664D01*
X685Y33692D01*
X700Y33707D01*
X728Y33721D01*
X785Y33735D01*
X857Y33735D01*
X914Y33721D01*
X942Y33707D01*
X957Y33692D01*
X971Y33664D01*
X971Y33635D01*
X957Y33607D01*
X942Y33592D01*
X914Y33578D01*
X857Y33564D01*
X785Y33564D01*
X728Y33578D01*
X700Y33592D01*
X685Y33607D01*
X671Y33635D01*
X700Y33850D02*
X685Y33864D01*
X671Y33892D01*
X671Y33964D01*
X685Y33992D01*
X700Y34007D01*
X728Y34021D01*
X757Y34021D01*
X800Y34007D01*
X971Y33835D01*
X971Y34021D01*
G54D11*
X5057Y34057D02*
X5057Y34657D01*
X5200Y34657D01*
X5285Y34628D01*
X5342Y34571D01*
X5371Y34514D01*
X5400Y34400D01*
X5400Y34314D01*
X5371Y34200D01*
X5342Y34142D01*
X5285Y34085D01*
X5200Y34057D01*
X5057Y34057D01*
X5628Y34600D02*
X5657Y34628D01*
X5714Y34657D01*
X5857Y34657D01*
X5914Y34628D01*
X5942Y34600D01*
X5971Y34542D01*
X5971Y34485D01*
X5942Y34400D01*
X5600Y34057D01*
X5971Y34057D01*
G54D13*
X31011Y9723D02*
X30611Y9723D01*
X30611Y9819D01*
X30630Y9876D01*
X30669Y9914D01*
X30707Y9933D01*
X30783Y9952D01*
X30840Y9952D01*
X30916Y9933D01*
X30954Y9914D01*
X30992Y9876D01*
X31011Y9819D01*
X31011Y9723D01*
X30611Y10085D02*
X30611Y10333D01*
X30764Y10200D01*
X30764Y10257D01*
X30783Y10295D01*
X30802Y10314D01*
X30840Y10333D01*
X30935Y10333D01*
X30973Y10314D01*
X30992Y10295D01*
X31011Y10257D01*
X31011Y10142D01*
X30992Y10104D01*
X30973Y10085D01*
X30611Y10580D02*
X30611Y10619D01*
X30630Y10657D01*
X30650Y10676D01*
X30688Y10695D01*
X30764Y10714D01*
X30859Y10714D01*
X30935Y10695D01*
X30973Y10676D01*
X30992Y10657D01*
X31011Y10619D01*
X31011Y10580D01*
X30992Y10542D01*
X30973Y10523D01*
X30935Y10504D01*
X30859Y10485D01*
X30764Y10485D01*
X30688Y10504D01*
X30650Y10523D01*
X30630Y10542D01*
X30611Y10580D01*
X31011Y11095D02*
X31011Y10866D01*
X31011Y10980D02*
X30611Y10980D01*
X30669Y10942D01*
X30707Y10904D01*
X30726Y10866D01*
G54D15*
X11477Y11270D02*
X11489Y11258D01*
X11501Y11222D01*
X11501Y11198D01*
X11489Y11163D01*
X11465Y11139D01*
X11441Y11127D01*
X11394Y11115D01*
X11358Y11115D01*
X11310Y11127D01*
X11286Y11139D01*
X11263Y11163D01*
X11251Y11198D01*
X11251Y11222D01*
X11263Y11258D01*
X11275Y11270D01*
X11275Y11365D02*
X11263Y11377D01*
X11251Y11401D01*
X11251Y11460D01*
X11263Y11484D01*
X11275Y11496D01*
X11298Y11508D01*
X11322Y11508D01*
X11358Y11496D01*
X11501Y11353D01*
X11501Y11508D01*
X11251Y11663D02*
X11251Y11686D01*
X11263Y11710D01*
X11275Y11722D01*
X11298Y11734D01*
X11346Y11746D01*
X11405Y11746D01*
X11453Y11734D01*
X11477Y11722D01*
X11489Y11710D01*
X11501Y11686D01*
X11501Y11663D01*
X11489Y11639D01*
X11477Y11627D01*
X11453Y11615D01*
X11405Y11603D01*
X11346Y11603D01*
X11298Y11615D01*
X11275Y11627D01*
X11263Y11639D01*
X11251Y11663D01*
X11251Y11829D02*
X11251Y11996D01*
X11501Y11889D01*
G54D11*
X4742Y13035D02*
X4142Y13035D01*
X4142Y13178D01*
X4171Y13264D01*
X4228Y13321D01*
X4285Y13350D01*
X4400Y13378D01*
X4485Y13378D01*
X4600Y13350D01*
X4657Y13321D01*
X4714Y13264D01*
X4742Y13178D01*
X4742Y13035D01*
X4342Y13892D02*
X4742Y13892D01*
X4114Y13750D02*
X4542Y13607D01*
X4542Y13978D01*
X4142Y14321D02*
X4142Y14378D01*
X4171Y14435D01*
X4200Y14464D01*
X4257Y14492D01*
X4371Y14521D01*
X4514Y14521D01*
X4628Y14492D01*
X4685Y14464D01*
X4714Y14435D01*
X4742Y14378D01*
X4742Y14321D01*
X4714Y14264D01*
X4685Y14235D01*
X4628Y14207D01*
X4514Y14178D01*
X4371Y14178D01*
X4257Y14207D01*
X4200Y14235D01*
X4171Y14264D01*
X4142Y14321D01*
X4342Y15035D02*
X4742Y15035D01*
X4114Y14892D02*
X4542Y14750D01*
X4542Y15121D01*
G54D14*
X39311Y13823D02*
X38911Y13823D01*
X38911Y13976D01*
X38930Y14014D01*
X38950Y14033D01*
X38988Y14052D01*
X39045Y14052D01*
X39083Y14033D01*
X39102Y14014D01*
X39121Y13976D01*
X39121Y13823D01*
X38950Y14204D02*
X38930Y14223D01*
X38911Y14261D01*
X38911Y14357D01*
X38930Y14395D01*
X38950Y14414D01*
X38988Y14433D01*
X39026Y14433D01*
X39083Y14414D01*
X39311Y14185D01*
X39311Y14433D01*
X39311Y14814D02*
X39311Y14585D01*
X39311Y14700D02*
X38911Y14700D01*
X38969Y14661D01*
X39007Y14623D01*
X39026Y14585D01*
X38911Y14947D02*
X38911Y15195D01*
X39064Y15061D01*
X39064Y15119D01*
X39083Y15157D01*
X39102Y15176D01*
X39140Y15195D01*
X39235Y15195D01*
X39273Y15176D01*
X39292Y15157D01*
X39311Y15119D01*
X39311Y15004D01*
X39292Y14966D01*
X39273Y14947D01*
X39197Y15933D02*
X39197Y16100D01*
X39311Y15900D02*
X38911Y16016D01*
X39311Y16133D01*
X38911Y16250D02*
X39235Y16250D01*
X39273Y16266D01*
X39292Y16283D01*
X39311Y16316D01*
X39311Y16383D01*
X39292Y16416D01*
X39273Y16433D01*
X39235Y16450D01*
X38911Y16450D01*
X38911Y16583D02*
X39311Y16816D01*
X38911Y16816D02*
X39311Y16583D01*
X39159Y16950D02*
X39159Y17216D01*
X39045Y17533D02*
X39311Y17533D01*
X38892Y17450D02*
X39178Y17366D01*
X39178Y17583D01*
G54D15*
X30378Y26688D02*
X30378Y26364D01*
X30400Y26326D01*
X30421Y26307D01*
X30464Y26288D01*
X30550Y26288D01*
X30592Y26307D01*
X30614Y26326D01*
X30635Y26364D01*
X30635Y26688D01*
X30914Y26516D02*
X30871Y26535D01*
X30850Y26554D01*
X30828Y26592D01*
X30828Y26611D01*
X30850Y26650D01*
X30871Y26669D01*
X30914Y26688D01*
X31000Y26688D01*
X31042Y26669D01*
X31064Y26650D01*
X31085Y26611D01*
X31085Y26592D01*
X31064Y26554D01*
X31042Y26535D01*
X31000Y26516D01*
X30914Y26516D01*
X30871Y26497D01*
X30850Y26478D01*
X30828Y26440D01*
X30828Y26364D01*
X30850Y26326D01*
X30871Y26307D01*
X30914Y26288D01*
X31000Y26288D01*
X31042Y26307D01*
X31064Y26326D01*
X31085Y26364D01*
X31085Y26440D01*
X31064Y26478D01*
X31042Y26497D01*
X31000Y26516D01*
X31364Y26688D02*
X31407Y26688D01*
X31450Y26669D01*
X31471Y26650D01*
X31492Y26611D01*
X31514Y26535D01*
X31514Y26440D01*
X31492Y26364D01*
X31471Y26326D01*
X31450Y26307D01*
X31407Y26288D01*
X31364Y26288D01*
X31321Y26307D01*
X31300Y26326D01*
X31278Y26364D01*
X31257Y26440D01*
X31257Y26535D01*
X31278Y26611D01*
X31300Y26650D01*
X31321Y26669D01*
X31364Y26688D01*
X31942Y26288D02*
X31685Y26288D01*
X31814Y26288D02*
X31814Y26688D01*
X31771Y26630D01*
X31728Y26592D01*
X31685Y26573D01*
X29714Y27154D02*
X29714Y26888D01*
X29607Y27307D02*
X29500Y27021D01*
X29778Y27021D01*
X30035Y27288D02*
X30078Y27288D01*
X30121Y27269D01*
X30142Y27250D01*
X30164Y27211D01*
X30185Y27135D01*
X30185Y27040D01*
X30164Y26964D01*
X30142Y26926D01*
X30121Y26907D01*
X30078Y26888D01*
X30035Y26888D01*
X29992Y26907D01*
X29971Y26926D01*
X29950Y26964D01*
X29928Y27040D01*
X29928Y27135D01*
X29950Y27211D01*
X29971Y27250D01*
X29992Y27269D01*
X30035Y27288D01*
X30592Y27288D02*
X30378Y27288D01*
X30357Y27097D01*
X30378Y27116D01*
X30421Y27135D01*
X30528Y27135D01*
X30571Y27116D01*
X30592Y27097D01*
X30614Y27059D01*
X30614Y26964D01*
X30592Y26926D01*
X30571Y26907D01*
X30528Y26888D01*
X30421Y26888D01*
X30378Y26907D01*
X30357Y26926D01*
X30892Y27288D02*
X30935Y27288D01*
X30978Y27269D01*
X31000Y27250D01*
X31021Y27211D01*
X31042Y27135D01*
X31042Y27040D01*
X31021Y26964D01*
X31000Y26926D01*
X30978Y26907D01*
X30935Y26888D01*
X30892Y26888D01*
X30850Y26907D01*
X30828Y26926D01*
X30807Y26964D01*
X30785Y27040D01*
X30785Y27135D01*
X30807Y27211D01*
X30828Y27250D01*
X30850Y27269D01*
X30892Y27288D01*
X31128Y26850D02*
X31471Y26850D01*
X31835Y26888D02*
X31685Y27078D01*
X31578Y26888D02*
X31578Y27288D01*
X31749Y27288D01*
X31792Y27269D01*
X31814Y27250D01*
X31835Y27211D01*
X31835Y27154D01*
X31814Y27116D01*
X31792Y27097D01*
X31749Y27078D01*
X31578Y27078D01*
X32028Y26888D02*
X32028Y27288D01*
X32178Y27002D01*
X32328Y27288D01*
X32328Y26888D01*
X32800Y26926D02*
X32778Y26907D01*
X32714Y26888D01*
X32671Y26888D01*
X32607Y26907D01*
X32564Y26945D01*
X32542Y26983D01*
X32521Y27059D01*
X32521Y27116D01*
X32542Y27192D01*
X32564Y27230D01*
X32607Y27269D01*
X32671Y27288D01*
X32714Y27288D01*
X32778Y27269D01*
X32800Y27250D01*
G54D14*
X32811Y14573D02*
X32411Y14573D01*
X32411Y14726D01*
X32430Y14764D01*
X32450Y14783D01*
X32488Y14802D01*
X32545Y14802D01*
X32583Y14783D01*
X32602Y14764D01*
X32621Y14726D01*
X32621Y14573D01*
X32450Y14954D02*
X32430Y14973D01*
X32411Y15011D01*
X32411Y15107D01*
X32430Y15145D01*
X32450Y15164D01*
X32488Y15183D01*
X32526Y15183D01*
X32583Y15164D01*
X32811Y14935D01*
X32811Y15183D01*
X32811Y15564D02*
X32811Y15335D01*
X32811Y15450D02*
X32411Y15450D01*
X32469Y15411D01*
X32507Y15373D01*
X32526Y15335D01*
X32411Y15926D02*
X32411Y15735D01*
X32602Y15716D01*
X32583Y15735D01*
X32564Y15773D01*
X32564Y15869D01*
X32583Y15907D01*
X32602Y15926D01*
X32640Y15945D01*
X32735Y15945D01*
X32773Y15926D01*
X32792Y15907D01*
X32811Y15869D01*
X32811Y15773D01*
X32792Y15735D01*
X32773Y15716D01*
X32966Y20202D02*
X33157Y20202D01*
X32928Y20088D02*
X33061Y20488D01*
X33195Y20088D01*
X33328Y20488D02*
X33328Y20164D01*
X33347Y20126D01*
X33366Y20107D01*
X33404Y20088D01*
X33480Y20088D01*
X33519Y20107D01*
X33538Y20126D01*
X33557Y20164D01*
X33557Y20488D01*
X33709Y20488D02*
X33976Y20088D01*
X33976Y20488D02*
X33709Y20088D01*
X34128Y20240D02*
X34433Y20240D01*
X34585Y20488D02*
X34833Y20488D01*
X34700Y20335D01*
X34757Y20335D01*
X34795Y20316D01*
X34814Y20297D01*
X34833Y20259D01*
X34833Y20164D01*
X34814Y20126D01*
X34795Y20107D01*
X34757Y20088D01*
X34642Y20088D01*
X34604Y20107D01*
X34585Y20126D01*
X34261Y791D02*
X34071Y675D01*
X34261Y591D02*
X33861Y591D01*
X33861Y725D01*
X33880Y758D01*
X33900Y775D01*
X33938Y791D01*
X33995Y791D01*
X34033Y775D01*
X34052Y758D01*
X34071Y725D01*
X34071Y591D01*
X34052Y941D02*
X34052Y1058D01*
X34261Y1108D02*
X34261Y941D01*
X33861Y941D01*
X33861Y1108D01*
X34242Y1241D02*
X34261Y1291D01*
X34261Y1375D01*
X34242Y1408D01*
X34223Y1425D01*
X34185Y1441D01*
X34147Y1441D01*
X34109Y1425D01*
X34090Y1408D01*
X34071Y1375D01*
X34052Y1308D01*
X34033Y1275D01*
X34014Y1258D01*
X33976Y1241D01*
X33938Y1241D01*
X33900Y1258D01*
X33880Y1275D01*
X33861Y1308D01*
X33861Y1391D01*
X33880Y1441D01*
X34052Y1591D02*
X34052Y1708D01*
X34261Y1758D02*
X34261Y1591D01*
X33861Y1591D01*
X33861Y1758D01*
X33861Y1858D02*
X33861Y2058D01*
X34261Y1958D02*
X33861Y1958D01*
G54D26*
X889Y19751D02*
X298Y19751D01*
X298Y19976D01*
X326Y20032D01*
X354Y20061D01*
X410Y20089D01*
X495Y20089D01*
X551Y20061D01*
X579Y20032D01*
X607Y19976D01*
X607Y19751D01*
X495Y20595D02*
X889Y20595D01*
X270Y20454D02*
X692Y20314D01*
X692Y20679D01*
X298Y21017D02*
X298Y21073D01*
X326Y21129D01*
X354Y21157D01*
X410Y21185D01*
X523Y21214D01*
X664Y21214D01*
X776Y21185D01*
X832Y21157D01*
X860Y21129D01*
X889Y21073D01*
X889Y21017D01*
X860Y20960D01*
X832Y20932D01*
X776Y20904D01*
X664Y20876D01*
X523Y20876D01*
X410Y20904D01*
X354Y20932D01*
X326Y20960D01*
X298Y21017D01*
X298Y21410D02*
X298Y21776D01*
X523Y21579D01*
X523Y21663D01*
X551Y21720D01*
X579Y21748D01*
X635Y21776D01*
X776Y21776D01*
X832Y21748D01*
X860Y21720D01*
X889Y21663D01*
X889Y21495D01*
X860Y21438D01*
X832Y21410D01*
X3214Y21860D02*
X3214Y22451D01*
X3354Y22451D01*
X3439Y22423D01*
X3495Y22367D01*
X3523Y22310D01*
X3551Y22198D01*
X3551Y22114D01*
X3523Y22001D01*
X3495Y21945D01*
X3439Y21889D01*
X3354Y21860D01*
X3214Y21860D01*
X3832Y21860D02*
X3945Y21860D01*
X4001Y21889D01*
X4029Y21917D01*
X4085Y22001D01*
X4114Y22114D01*
X4114Y22339D01*
X4085Y22395D01*
X4057Y22423D01*
X4001Y22451D01*
X3889Y22451D01*
X3832Y22423D01*
X3804Y22395D01*
X3776Y22339D01*
X3776Y22198D01*
X3804Y22142D01*
X3832Y22114D01*
X3889Y22085D01*
X4001Y22085D01*
X4057Y22114D01*
X4085Y22142D01*
X4114Y22198D01*
X889Y23501D02*
X298Y23501D01*
X298Y23726D01*
X326Y23782D01*
X354Y23811D01*
X410Y23839D01*
X495Y23839D01*
X551Y23811D01*
X579Y23782D01*
X607Y23726D01*
X607Y23501D01*
X495Y24345D02*
X889Y24345D01*
X270Y24204D02*
X692Y24064D01*
X692Y24429D01*
X298Y24767D02*
X298Y24823D01*
X326Y24879D01*
X354Y24907D01*
X410Y24935D01*
X523Y24964D01*
X664Y24964D01*
X776Y24935D01*
X832Y24907D01*
X860Y24879D01*
X889Y24823D01*
X889Y24767D01*
X860Y24710D01*
X832Y24682D01*
X776Y24654D01*
X664Y24626D01*
X523Y24626D01*
X410Y24654D01*
X354Y24682D01*
X326Y24710D01*
X298Y24767D01*
X298Y25498D02*
X298Y25217D01*
X579Y25188D01*
X551Y25217D01*
X523Y25273D01*
X523Y25413D01*
X551Y25470D01*
X579Y25498D01*
X635Y25526D01*
X776Y25526D01*
X832Y25498D01*
X860Y25470D01*
X889Y25413D01*
X889Y25273D01*
X860Y25217D01*
X832Y25188D01*
X3182Y25510D02*
X3182Y26101D01*
X3323Y26101D01*
X3407Y26073D01*
X3464Y26017D01*
X3492Y25960D01*
X3520Y25848D01*
X3520Y25764D01*
X3492Y25651D01*
X3464Y25595D01*
X3407Y25539D01*
X3323Y25510D01*
X3182Y25510D01*
X4082Y25510D02*
X3745Y25510D01*
X3914Y25510D02*
X3914Y26101D01*
X3857Y26017D01*
X3801Y25960D01*
X3745Y25932D01*
X4448Y26101D02*
X4504Y26101D01*
X4560Y26073D01*
X4588Y26045D01*
X4617Y25989D01*
X4645Y25876D01*
X4645Y25735D01*
X4617Y25623D01*
X4588Y25567D01*
X4560Y25539D01*
X4504Y25510D01*
X4448Y25510D01*
X4392Y25539D01*
X4364Y25567D01*
X4335Y25623D01*
X4307Y25735D01*
X4307Y25876D01*
X4335Y25989D01*
X4364Y26045D01*
X4392Y26073D01*
X4448Y26101D01*
X889Y27251D02*
X298Y27251D01*
X298Y27476D01*
X326Y27532D01*
X354Y27561D01*
X410Y27589D01*
X495Y27589D01*
X551Y27561D01*
X579Y27532D01*
X607Y27476D01*
X607Y27251D01*
X354Y27814D02*
X326Y27842D01*
X298Y27898D01*
X298Y28039D01*
X326Y28095D01*
X354Y28123D01*
X410Y28151D01*
X467Y28151D01*
X551Y28123D01*
X889Y27785D01*
X889Y28151D01*
X889Y28714D02*
X889Y28376D01*
X889Y28545D02*
X298Y28545D01*
X382Y28489D01*
X439Y28432D01*
X467Y28376D01*
X551Y29051D02*
X523Y28995D01*
X495Y28967D01*
X439Y28938D01*
X410Y28938D01*
X354Y28967D01*
X326Y28995D01*
X298Y29051D01*
X298Y29163D01*
X326Y29220D01*
X354Y29248D01*
X410Y29276D01*
X439Y29276D01*
X495Y29248D01*
X523Y29220D01*
X551Y29163D01*
X551Y29051D01*
X579Y28995D01*
X607Y28967D01*
X664Y28938D01*
X776Y28938D01*
X832Y28967D01*
X860Y28995D01*
X889Y29051D01*
X889Y29163D01*
X860Y29220D01*
X832Y29248D01*
X776Y29276D01*
X664Y29276D01*
X607Y29248D01*
X579Y29220D01*
X551Y29163D01*
X3182Y28760D02*
X3182Y29351D01*
X3323Y29351D01*
X3407Y29323D01*
X3464Y29267D01*
X3492Y29210D01*
X3520Y29098D01*
X3520Y29014D01*
X3492Y28901D01*
X3464Y28845D01*
X3407Y28789D01*
X3323Y28760D01*
X3182Y28760D01*
X4082Y28760D02*
X3745Y28760D01*
X3914Y28760D02*
X3914Y29351D01*
X3857Y29267D01*
X3801Y29210D01*
X3745Y29182D01*
X4645Y28760D02*
X4307Y28760D01*
X4476Y28760D02*
X4476Y29351D01*
X4420Y29267D01*
X4364Y29210D01*
X4307Y29182D01*
G54D25*
X27272Y28795D02*
X27245Y28832D01*
X27226Y28795D02*
X27226Y28874D01*
X27257Y28874D01*
X27264Y28870D01*
X27268Y28866D01*
X27272Y28858D01*
X27272Y28847D01*
X27268Y28840D01*
X27264Y28836D01*
X27257Y28832D01*
X27226Y28832D01*
X27305Y28795D02*
X27305Y28874D01*
X27336Y28874D01*
X27343Y28870D01*
X27347Y28866D01*
X27351Y28858D01*
X27351Y28847D01*
X27347Y28840D01*
X27343Y28836D01*
X27336Y28832D01*
X27305Y28832D01*
X27396Y28840D02*
X27388Y28843D01*
X27384Y28847D01*
X27381Y28855D01*
X27381Y28858D01*
X27384Y28866D01*
X27388Y28870D01*
X27396Y28874D01*
X27411Y28874D01*
X27418Y28870D01*
X27422Y28866D01*
X27426Y28858D01*
X27426Y28855D01*
X27422Y28847D01*
X27418Y28843D01*
X27411Y28840D01*
X27396Y28840D01*
X27388Y28836D01*
X27384Y28832D01*
X27381Y28825D01*
X27381Y28810D01*
X27384Y28802D01*
X27388Y28798D01*
X27396Y28795D01*
X27411Y28795D01*
X27418Y28798D01*
X27422Y28802D01*
X27426Y28810D01*
X27426Y28825D01*
X27422Y28832D01*
X27418Y28836D01*
X27411Y28840D01*
X27475Y28874D02*
X27482Y28874D01*
X27490Y28870D01*
X27494Y28866D01*
X27497Y28858D01*
X27501Y28843D01*
X27501Y28825D01*
X27497Y28810D01*
X27494Y28802D01*
X27490Y28798D01*
X27482Y28795D01*
X27475Y28795D01*
X27467Y28798D01*
X27463Y28802D01*
X27460Y28810D01*
X27456Y28825D01*
X27456Y28843D01*
X27460Y28858D01*
X27463Y28866D01*
X27467Y28870D01*
X27475Y28874D01*
X27576Y28795D02*
X27531Y28795D01*
X27554Y28795D02*
X27554Y28874D01*
X27546Y28862D01*
X27539Y28855D01*
X27531Y28851D01*
X27272Y26795D02*
X27245Y26832D01*
X27226Y26795D02*
X27226Y26874D01*
X27257Y26874D01*
X27264Y26870D01*
X27268Y26866D01*
X27272Y26858D01*
X27272Y26847D01*
X27268Y26840D01*
X27264Y26836D01*
X27257Y26832D01*
X27226Y26832D01*
X27305Y26795D02*
X27305Y26874D01*
X27336Y26874D01*
X27343Y26870D01*
X27347Y26866D01*
X27351Y26858D01*
X27351Y26847D01*
X27347Y26840D01*
X27343Y26836D01*
X27336Y26832D01*
X27305Y26832D01*
X27396Y26840D02*
X27388Y26843D01*
X27384Y26847D01*
X27381Y26855D01*
X27381Y26858D01*
X27384Y26866D01*
X27388Y26870D01*
X27396Y26874D01*
X27411Y26874D01*
X27418Y26870D01*
X27422Y26866D01*
X27426Y26858D01*
X27426Y26855D01*
X27422Y26847D01*
X27418Y26843D01*
X27411Y26840D01*
X27396Y26840D01*
X27388Y26836D01*
X27384Y26832D01*
X27381Y26825D01*
X27381Y26810D01*
X27384Y26802D01*
X27388Y26798D01*
X27396Y26795D01*
X27411Y26795D01*
X27418Y26798D01*
X27422Y26802D01*
X27426Y26810D01*
X27426Y26825D01*
X27422Y26832D01*
X27418Y26836D01*
X27411Y26840D01*
X27475Y26874D02*
X27482Y26874D01*
X27490Y26870D01*
X27494Y26866D01*
X27497Y26858D01*
X27501Y26843D01*
X27501Y26825D01*
X27497Y26810D01*
X27494Y26802D01*
X27490Y26798D01*
X27482Y26795D01*
X27475Y26795D01*
X27467Y26798D01*
X27463Y26802D01*
X27460Y26810D01*
X27456Y26825D01*
X27456Y26843D01*
X27460Y26858D01*
X27463Y26866D01*
X27467Y26870D01*
X27475Y26874D01*
X27531Y26866D02*
X27535Y26870D01*
X27542Y26874D01*
X27561Y26874D01*
X27569Y26870D01*
X27573Y26866D01*
X27576Y26858D01*
X27576Y26851D01*
X27573Y26840D01*
X27527Y26795D01*
X27576Y26795D01*
G54D16*
X31521Y20714D02*
X31735Y20714D01*
X31778Y20700D01*
X31807Y20671D01*
X31821Y20628D01*
X31821Y20600D01*
X31821Y20857D02*
X31521Y20857D01*
X31521Y20971D01*
X31535Y21000D01*
X31550Y21014D01*
X31578Y21028D01*
X31621Y21028D01*
X31650Y21014D01*
X31664Y21000D01*
X31678Y20971D01*
X31678Y20857D01*
X31650Y21200D02*
X31635Y21171D01*
X31621Y21157D01*
X31592Y21142D01*
X31578Y21142D01*
X31550Y21157D01*
X31535Y21171D01*
X31521Y21200D01*
X31521Y21257D01*
X31535Y21285D01*
X31550Y21300D01*
X31578Y21314D01*
X31592Y21314D01*
X31621Y21300D01*
X31635Y21285D01*
X31650Y21257D01*
X31650Y21200D01*
X31664Y21171D01*
X31678Y21157D01*
X31707Y21142D01*
X31764Y21142D01*
X31792Y21157D01*
X31807Y21171D01*
X31821Y21200D01*
X31821Y21257D01*
X31807Y21285D01*
X31792Y21300D01*
X31764Y21314D01*
X31707Y21314D01*
X31678Y21300D01*
X31664Y21285D01*
X31650Y21257D01*
X31521Y21500D02*
X31521Y21528D01*
X31535Y21557D01*
X31550Y21571D01*
X31578Y21585D01*
X31635Y21600D01*
X31707Y21600D01*
X31764Y21585D01*
X31792Y21571D01*
X31807Y21557D01*
X31821Y21528D01*
X31821Y21500D01*
X31807Y21471D01*
X31792Y21457D01*
X31764Y21442D01*
X31707Y21428D01*
X31635Y21428D01*
X31578Y21442D01*
X31550Y21457D01*
X31535Y21471D01*
X31521Y21500D01*
X31821Y21885D02*
X31821Y21714D01*
X31821Y21800D02*
X31521Y21800D01*
X31564Y21771D01*
X31592Y21742D01*
X31607Y21714D01*
X14623Y7188D02*
X14623Y7588D01*
X14719Y7588D01*
X14776Y7569D01*
X14814Y7530D01*
X14833Y7492D01*
X14852Y7416D01*
X14852Y7359D01*
X14833Y7283D01*
X14814Y7245D01*
X14776Y7207D01*
X14719Y7188D01*
X14623Y7188D01*
X15233Y7188D02*
X15004Y7188D01*
X15119Y7188D02*
X15119Y7588D01*
X15080Y7530D01*
X15042Y7492D01*
X15004Y7473D01*
X15480Y7588D02*
X15519Y7588D01*
X15557Y7569D01*
X15576Y7550D01*
X15595Y7511D01*
X15614Y7435D01*
X15614Y7340D01*
X15595Y7264D01*
X15576Y7226D01*
X15557Y7207D01*
X15519Y7188D01*
X15480Y7188D01*
X15442Y7207D01*
X15423Y7226D01*
X15404Y7264D01*
X15385Y7340D01*
X15385Y7435D01*
X15404Y7511D01*
X15423Y7550D01*
X15442Y7569D01*
X15480Y7588D01*
X15747Y7588D02*
X15995Y7588D01*
X15861Y7435D01*
X15919Y7435D01*
X15957Y7416D01*
X15976Y7397D01*
X15995Y7359D01*
X15995Y7264D01*
X15976Y7226D01*
X15957Y7207D01*
X15919Y7188D01*
X15804Y7188D01*
X15766Y7207D01*
X15747Y7226D01*
G54D11*
X892Y10342D02*
X292Y10342D01*
X578Y10342D02*
X578Y10685D01*
X892Y10685D02*
X292Y10685D01*
X578Y11171D02*
X607Y11257D01*
X635Y11285D01*
X692Y11314D01*
X778Y11314D01*
X835Y11285D01*
X864Y11257D01*
X892Y11200D01*
X892Y10971D01*
X292Y10971D01*
X292Y11171D01*
X321Y11228D01*
X350Y11257D01*
X407Y11285D01*
X464Y11285D01*
X521Y11257D01*
X550Y11228D01*
X578Y11171D01*
X578Y10971D01*
X950Y11428D02*
X950Y11885D01*
X892Y12028D02*
X292Y12028D01*
X892Y12314D02*
X292Y12314D01*
X892Y12657D01*
X292Y12657D01*
%LPC*%
G54D27*
X7525Y24500D03*
X8275Y24500D03*
G54D28*
X32400Y20875D03*
X32400Y21625D03*
X33400Y20875D03*
X33400Y21625D03*
X25900Y21875D03*
X25900Y21125D03*
X17900Y21875D03*
X17900Y21125D03*
G54D27*
X10275Y21750D03*
X9525Y21750D03*
G54D28*
X26900Y9625D03*
X26900Y10375D03*
X18900Y9625D03*
X18900Y10375D03*
X35300Y9575D03*
X35300Y10325D03*
X14900Y21625D03*
X14900Y20875D03*
G54D27*
X32525Y28750D03*
X33275Y28750D03*
G54D28*
X12650Y11125D03*
X12650Y11875D03*
X20400Y16375D03*
X20400Y15625D03*
X20400Y14375D03*
X20400Y13625D03*
X20400Y12375D03*
X20400Y11625D03*
G54D27*
X10275Y19250D03*
X9525Y19250D03*
X6275Y24500D03*
X5525Y24500D03*
X6275Y18500D03*
X5525Y18500D03*
G54D29*
X18900Y8000D03*
X17900Y8000D03*
X16900Y8000D03*
X15900Y8000D03*
X14900Y8000D03*
X13900Y8000D03*
X12900Y8000D03*
X11900Y8000D03*
X11900Y3000D03*
X12900Y3000D03*
X13900Y3000D03*
X14900Y3000D03*
X15900Y3000D03*
X16900Y3000D03*
X17900Y3000D03*
X18900Y3000D03*
X26900Y8000D03*
X25900Y8000D03*
X24900Y8000D03*
X23900Y8000D03*
X22900Y8000D03*
X21900Y8000D03*
X20900Y8000D03*
X19900Y8000D03*
X19900Y3000D03*
X20900Y3000D03*
X21900Y3000D03*
X22900Y3000D03*
X23900Y3000D03*
X24900Y3000D03*
X25900Y3000D03*
X26900Y3000D03*
X34900Y8000D03*
X33900Y8000D03*
X32900Y8000D03*
X31900Y8000D03*
X30900Y8000D03*
X29900Y8000D03*
X28900Y8000D03*
X27900Y8000D03*
X27900Y3000D03*
X28900Y3000D03*
X29900Y3000D03*
X30900Y3000D03*
X31900Y3000D03*
X32900Y3000D03*
X33900Y3000D03*
X34900Y3000D03*
X10400Y24500D03*
X11400Y24500D03*
X12400Y24500D03*
X13400Y24500D03*
X14400Y24500D03*
X15400Y24500D03*
X16400Y24500D03*
X17400Y24500D03*
X17400Y29500D03*
X16400Y29500D03*
X15400Y29500D03*
X14400Y29500D03*
X13400Y29500D03*
X12400Y29500D03*
X11400Y29500D03*
X10400Y29500D03*
X18400Y24500D03*
X19400Y24500D03*
X20400Y24500D03*
X21400Y24500D03*
X22400Y24500D03*
X23400Y24500D03*
X24400Y24500D03*
X25400Y24500D03*
X25400Y29500D03*
X24400Y29500D03*
X23400Y29500D03*
X22400Y29500D03*
X21400Y29500D03*
X20400Y29500D03*
X19400Y29500D03*
X18400Y29500D03*
G54D30*
X32400Y34500D03*
G54D29*
X32400Y33500D03*
X32400Y32500D03*
X32400Y31500D03*
G54D30*
X17900Y10000D03*
G54D29*
X17900Y9000D03*
X16900Y10000D03*
X16900Y9000D03*
X15900Y10000D03*
X15900Y9000D03*
G54D30*
X11400Y20750D03*
G54D29*
X11400Y21750D03*
X12400Y20750D03*
X12400Y21750D03*
X13400Y20750D03*
X13400Y21750D03*
G54D30*
X26900Y20750D03*
G54D29*
X26900Y21750D03*
X27900Y20750D03*
X27900Y21750D03*
X28900Y20750D03*
X28900Y21750D03*
G54D30*
X33900Y10000D03*
G54D29*
X33900Y9000D03*
X32900Y10000D03*
X32900Y9000D03*
X31900Y10000D03*
X31900Y9000D03*
G54D30*
X25900Y10000D03*
G54D29*
X25900Y9000D03*
X24900Y10000D03*
X24900Y9000D03*
X23900Y10000D03*
X23900Y9000D03*
G54D30*
X18900Y34500D03*
G54D29*
X18900Y33500D03*
X18900Y32500D03*
G54D30*
X33400Y31500D03*
G54D29*
X33400Y32500D03*
X33400Y33500D03*
G54D30*
X35400Y31500D03*
G54D29*
X35400Y32500D03*
X35400Y33500D03*
G54D30*
X36400Y31500D03*
G54D29*
X36400Y32500D03*
X36400Y33500D03*
G54D30*
X37400Y31500D03*
G54D29*
X37400Y32500D03*
X37400Y33500D03*
G54D30*
X38400Y31500D03*
G54D29*
X38400Y32500D03*
X38400Y33500D03*
G54D30*
X19900Y34500D03*
G54D29*
X19900Y33500D03*
X19900Y32500D03*
G54D30*
X34400Y31500D03*
G54D29*
X34400Y32500D03*
X34400Y33500D03*
G54D30*
X17900Y34500D03*
G54D29*
X17900Y33500D03*
X17900Y32500D03*
G54D30*
X16900Y34500D03*
G54D29*
X16900Y33500D03*
X16900Y32500D03*
G54D30*
X21900Y9250D03*
G54D31*
X4650Y20337D03*
X4650Y21163D03*
X4650Y18663D03*
X4650Y17837D03*
X4650Y24337D03*
X4650Y25163D03*
G54D32*
X34483Y6000D03*
X32317Y6000D03*
G54D33*
X8400Y9167D03*
X8400Y11333D03*
G54D32*
X18567Y27500D03*
X20733Y27500D03*
X10567Y27500D03*
X12733Y27500D03*
X27483Y6000D03*
X25317Y6000D03*
X19317Y6000D03*
X21483Y6000D03*
G54D34*
X19109Y12250D03*
X17691Y12250D03*
X19109Y16250D03*
X17691Y16250D03*
X19109Y14250D03*
X17691Y14250D03*
G54D35*
X9650Y12500D03*
X9650Y16500D03*
G54D36*
X7150Y16500D03*
X6150Y16500D03*
G54D37*
X8150Y16500D03*
G54D36*
X7150Y26000D03*
X6150Y26000D03*
G54D37*
X8150Y26000D03*
G54D36*
X7150Y20000D03*
X6150Y20000D03*
G54D37*
X8150Y20000D03*
G54D38*
X7800Y27900D03*
X8500Y27900D03*
X8150Y27100D03*
G54D31*
X16150Y20837D03*
X16150Y21663D03*
G54D28*
X28900Y9625D03*
X28900Y10375D03*
G54D36*
X7150Y29000D03*
X6150Y29000D03*
G54D37*
X8150Y29000D03*
G54D38*
X8300Y30900D03*
X9000Y30900D03*
X8650Y30100D03*
G54D28*
X7400Y30125D03*
X7400Y30875D03*
G54D27*
X6275Y27250D03*
X5525Y27250D03*
G54D39*
X1900Y5500D03*
G54D40*
X1900Y7500D03*
G54D31*
X4650Y27337D03*
X4650Y28163D03*
G54D30*
X17400Y1250D03*
G54D29*
X16400Y1250D03*
X15400Y1250D03*
X14400Y1250D03*
G54D30*
X24900Y1250D03*
G54D29*
X23900Y1250D03*
X22900Y1250D03*
X21900Y1250D03*
G54D30*
X32900Y1250D03*
G54D29*
X31900Y1250D03*
X30900Y1250D03*
X29900Y1250D03*
G54D30*
X11900Y33000D03*
G54D29*
X12900Y33000D03*
X13900Y33000D03*
X14900Y33000D03*
G54D28*
X20400Y18125D03*
X20400Y17375D03*
G54D41*
X11900Y5250D03*
G54D42*
X12900Y5250D03*
X13900Y5250D03*
G54D34*
X19109Y18250D03*
X17691Y18250D03*
G54D43*
X38498Y24500D03*
G54D44*
X37302Y24500D03*
X38498Y25500D03*
X37302Y25500D03*
X38498Y26500D03*
X37302Y26500D03*
X38498Y27500D03*
X37302Y27500D03*
G54D28*
X21400Y17375D03*
X21400Y18125D03*
X21400Y15625D03*
X21400Y16375D03*
X21400Y11625D03*
X21400Y12375D03*
X21400Y13625D03*
X21400Y14375D03*
X22400Y18125D03*
X22400Y17375D03*
X22400Y16375D03*
X22400Y15625D03*
X22400Y12375D03*
X22400Y11625D03*
X22400Y14375D03*
X22400Y13625D03*
G54D39*
X1900Y15500D03*
G54D40*
X1900Y17500D03*
G54D39*
X1900Y1500D03*
G54D40*
X1900Y3500D03*
G54D45*
X36121Y364D03*
X36121Y2136D03*
X38680Y364D03*
X38680Y2136D03*
G54D38*
X7800Y18650D03*
X8500Y18650D03*
X8150Y17850D03*
X7800Y21900D03*
X8500Y21900D03*
X8150Y21100D03*
G54D28*
X27900Y10375D03*
X27900Y9625D03*
G54D27*
X10275Y17750D03*
X9525Y17750D03*
X10275Y20500D03*
X9525Y20500D03*
G54D30*
X38400Y30000D03*
G54D29*
X38400Y29000D03*
G54D30*
X21900Y33000D03*
G54D29*
X22900Y33000D03*
X23900Y33000D03*
X24900Y33000D03*
G54D30*
X26900Y33000D03*
G54D29*
X27900Y33000D03*
X28900Y33000D03*
X29900Y33000D03*
G54D32*
X25733Y27500D03*
X23567Y27500D03*
G54D29*
X26400Y24500D03*
X27400Y24500D03*
X28400Y24500D03*
X29400Y24500D03*
X30400Y24500D03*
X31400Y24500D03*
X32400Y24500D03*
X33400Y24500D03*
X33400Y29500D03*
X32400Y29500D03*
X31400Y29500D03*
X30400Y29500D03*
X29400Y29500D03*
X28400Y29500D03*
X27400Y29500D03*
X26400Y29500D03*
G54D30*
X18900Y20750D03*
G54D29*
X18900Y21750D03*
X19900Y20750D03*
X19900Y21750D03*
X20900Y20750D03*
X20900Y21750D03*
G54D43*
X24302Y15000D03*
G54D44*
X25498Y15000D03*
X24302Y14000D03*
X25498Y14000D03*
X24302Y13000D03*
X25498Y13000D03*
G54D46*
X15800Y12750D03*
X15800Y13250D03*
X15800Y13750D03*
X15800Y14250D03*
X15800Y14750D03*
X15800Y15250D03*
X15800Y15750D03*
X15800Y16250D03*
X15800Y16750D03*
X15800Y17250D03*
X12000Y17250D03*
X12000Y16750D03*
X12000Y16250D03*
X12000Y15750D03*
X12000Y15250D03*
X12000Y14750D03*
X12000Y14250D03*
X12000Y13750D03*
X12000Y13250D03*
X12000Y12750D03*
G54D47*
X24400Y16150D03*
X24900Y16150D03*
X25400Y16150D03*
X25900Y16150D03*
X26400Y16150D03*
X26900Y16150D03*
X27400Y16150D03*
X27400Y18250D03*
X26900Y18250D03*
X26400Y18250D03*
X25900Y18250D03*
X25400Y18250D03*
X24900Y18250D03*
X24400Y18250D03*
G54D28*
X14150Y18125D03*
X14150Y18875D03*
X23400Y18125D03*
X23400Y17375D03*
X9650Y32125D03*
X9650Y32875D03*
X10650Y32125D03*
X10650Y32875D03*
G54D48*
X8307Y32300D03*
X8307Y31700D03*
X7993Y32300D03*
X7993Y31700D03*
X8622Y32300D03*
X7678Y32300D03*
X7678Y31700D03*
X8622Y31700D03*
X11993Y18200D03*
X11993Y18800D03*
X12307Y18200D03*
X12307Y18800D03*
X11678Y18200D03*
X12622Y18200D03*
X12622Y18800D03*
X11678Y18800D03*
X15743Y18200D03*
X15743Y18800D03*
X16057Y18200D03*
X16057Y18800D03*
X15428Y18200D03*
X16372Y18200D03*
X16372Y18800D03*
X15428Y18800D03*
G54D49*
X34900Y29500D03*
G54D50*
X34900Y28500D03*
X34900Y27500D03*
X34900Y26500D03*
X34900Y25500D03*
X34900Y24500D03*
G54D41*
X7650Y34250D03*
G54D42*
X8650Y34250D03*
X9650Y34250D03*
X10650Y34250D03*
G54D41*
X14150Y9250D03*
G54D42*
X13150Y9250D03*
X12150Y9250D03*
G54D30*
X16400Y5250D03*
G54D29*
X17400Y5250D03*
G54D36*
X10650Y9250D03*
G54D37*
X10650Y10250D03*
G54D36*
X10650Y11250D03*
G54D30*
X30900Y13000D03*
G54D29*
X29900Y13000D03*
X30900Y14000D03*
X29900Y14000D03*
X30900Y15000D03*
X29900Y15000D03*
X30900Y16000D03*
X29900Y16000D03*
X30900Y17000D03*
X29900Y17000D03*
G54D49*
X35900Y29500D03*
G54D50*
X35900Y28500D03*
X35900Y27500D03*
X35900Y26500D03*
X35900Y25500D03*
X35900Y24500D03*
G54D30*
X12900Y1250D03*
G54D29*
X11900Y1250D03*
G54D51*
X5900Y2180D03*
X8900Y820D03*
G54D52*
X7400Y1500D03*
G54D51*
X5900Y7180D03*
X8900Y5820D03*
G54D52*
X7400Y6500D03*
G54D51*
X4720Y10250D03*
X6080Y13250D03*
G54D52*
X5400Y11750D03*
G54D38*
X6550Y32100D03*
X6550Y31400D03*
X5750Y31750D03*
X7000Y33100D03*
X6300Y33100D03*
X6650Y33900D03*
G54D28*
X5400Y30125D03*
X5400Y30875D03*
X5400Y32625D03*
X5400Y33375D03*
G54D31*
X4650Y30587D03*
X4650Y31413D03*
X4650Y33337D03*
X4650Y34163D03*
G54D30*
X1650Y30750D03*
G54D29*
X1650Y31750D03*
G54D30*
X1650Y33000D03*
G54D29*
X1650Y34000D03*
G54D53*
X3650Y21274D03*
X3650Y19713D03*
X29900Y8976D03*
X29900Y10537D03*
G54D28*
X11900Y11875D03*
X11900Y11125D03*
G54D53*
X4400Y17274D03*
X4400Y15713D03*
X3650Y25074D03*
X3650Y23513D03*
X3650Y28274D03*
X3650Y26713D03*
X3650Y31374D03*
X3650Y29813D03*
X3650Y34424D03*
X3650Y32863D03*
G54D49*
X38400Y6000D03*
G54D50*
X38400Y7000D03*
X38400Y8000D03*
X38400Y9000D03*
X38400Y10000D03*
X38400Y11000D03*
X38400Y12000D03*
X38400Y13000D03*
X38400Y14000D03*
X38400Y15000D03*
X38400Y16000D03*
X38400Y17000D03*
X38400Y18000D03*
X38400Y19000D03*
X38400Y20000D03*
X38400Y21000D03*
X38400Y22000D03*
X38400Y23000D03*
G54D47*
X32900Y27750D03*
X32400Y27750D03*
X31900Y27750D03*
X31400Y27750D03*
X30900Y27750D03*
X30400Y27750D03*
X29900Y27750D03*
X29400Y27750D03*
X29400Y25750D03*
X29900Y25750D03*
X30400Y25750D03*
X30900Y25750D03*
X31400Y25750D03*
X31900Y25750D03*
X32400Y25750D03*
X32900Y25750D03*
G54D30*
X33400Y18000D03*
G54D29*
X34400Y18000D03*
X33400Y17000D03*
X34400Y17000D03*
X33400Y16000D03*
X34400Y16000D03*
X33400Y15000D03*
X34400Y15000D03*
X33400Y14000D03*
X34400Y14000D03*
X33400Y13000D03*
X34400Y13000D03*
G54D49*
X34900Y750D03*
G54D50*
X34900Y1750D03*
G54D54*
X1675Y21488D03*
G54D55*
X1675Y20111D03*
G54D54*
X1675Y25238D03*
G54D55*
X1675Y23861D03*
G54D54*
X1675Y28988D03*
G54D55*
X1675Y27611D03*
G54D56*
X26400Y23000D03*
X27400Y23000D03*
X28400Y23000D03*
X29400Y23000D03*
X30400Y23000D03*
X31400Y23000D03*
X32400Y23000D03*
X33400Y23000D03*
X35400Y4000D03*
X34400Y4000D03*
X33400Y4000D03*
X32400Y4000D03*
X28400Y4000D03*
X26400Y4000D03*
X25400Y4000D03*
X29400Y4000D03*
X30400Y4000D03*
X31400Y4000D03*
X24400Y4000D03*
X23400Y4000D03*
X22400Y4000D03*
X19400Y4000D03*
X20400Y4000D03*
X21400Y4000D03*
X17400Y4000D03*
X16400Y4000D03*
X15400Y4000D03*
X13400Y4000D03*
X12400Y4000D03*
X24400Y23000D03*
X23400Y23000D03*
X22400Y23000D03*
X21400Y23000D03*
X20400Y23000D03*
X19400Y23000D03*
X18400Y23000D03*
X17400Y23000D03*
X15800Y23000D03*
X14800Y23000D03*
X13800Y23000D03*
X12800Y23000D03*
X11800Y23000D03*
X10800Y23000D03*
X9800Y23000D03*
X8800Y23000D03*
X14400Y4000D03*
G54D57*
X37400Y4000D03*
X34900Y23000D03*
X5400Y23000D03*
X4900Y4000D03*
G54D29*
X36400Y22000D03*
X37400Y22000D03*
X36400Y21000D03*
X37400Y21000D03*
X36400Y20000D03*
X37400Y20000D03*
X36400Y19000D03*
X37400Y19000D03*
X36400Y23000D03*
X37400Y23000D03*
X37400Y18000D03*
X36400Y18000D03*
X36400Y17000D03*
X37400Y17000D03*
X36400Y16000D03*
X37400Y16000D03*
X36400Y15000D03*
X37400Y15000D03*
X36400Y14000D03*
X37400Y14000D03*
X36400Y13000D03*
X37400Y13000D03*
X36400Y12000D03*
X37400Y12000D03*
X36400Y11000D03*
X37400Y11000D03*
X36400Y10000D03*
X37400Y10000D03*
X36400Y9000D03*
X37400Y9000D03*
X36400Y8000D03*
X37400Y8000D03*
X36400Y7000D03*
X37400Y7000D03*
X36400Y6000D03*
X37400Y6000D03*
G54D56*
X7800Y23000D03*
X6800Y23000D03*
X11400Y4000D03*
X10400Y4000D03*
G54D58*
X27700Y27843D03*
X27100Y27843D03*
X27700Y28157D03*
X27100Y28157D03*
X27700Y27528D03*
X27700Y28472D03*
X27100Y28472D03*
X27100Y27528D03*
X27700Y25843D03*
X27100Y25843D03*
X27700Y26157D03*
X27100Y26157D03*
X27700Y25528D03*
X27700Y26472D03*
X27100Y26472D03*
X27100Y25528D03*
G54D30*
X30900Y20750D03*
G54D29*
X30900Y21750D03*
G54D53*
X15150Y6624D03*
X15150Y5063D03*
G54D39*
X1900Y10500D03*
G54D40*
X1900Y12500D03*
M02*
