%
T01C0.012000
X2910Y5330
X4330Y5330
X5680Y5330
X6470Y2090
X6800Y5800
X6800Y5330
X8070Y4520
X8640Y2940
X10910Y5330
X12330Y5330
X13680Y5330
X14470Y2090
X14800Y5800
X14800Y5330
X16070Y4520
X16640Y2940
X18910Y5330
X20330Y5330
X21680Y5330
X22470Y2090
X22800Y5800
X22800Y5330
X24070Y4520
X24640Y2940
X26910Y5330
X28330Y5330
X29680Y5330
X30470Y2090
X30800Y5800
X30800Y5330
X32070Y4520
X32640Y2940
T02C0.030000
X1500Y6500
X1500Y1500
X2500Y6500
X2500Y1500
X3500Y6500
X3500Y1500
X4500Y6500
X4500Y1500
X5500Y6500
X5500Y1500
X6500Y6500
X6500Y1500
X7500Y6500
X7500Y1500
X8500Y6500
X8500Y1500
X4429Y3995
X4429Y3404
X5000Y3995
X5000Y3404
X5571Y3995
X5571Y3404
X9500Y6500
X9500Y1500
X10500Y6500
X10500Y1500
X11500Y6500
X11500Y1500
X12500Y6500
X12500Y1500
X13500Y6500
X13500Y1500
X14500Y6500
X14500Y1500
X15500Y6500
X15500Y1500
X16500Y6500
X16500Y1500
X12429Y3995
X12429Y3404
X13000Y3995
X13000Y3404
X13571Y3995
X13571Y3404
X17500Y6500
X17500Y1500
X18500Y6500
X18500Y1500
X19500Y6500
X19500Y1500
X20500Y6500
X20500Y1500
X21500Y6500
X21500Y1500
X22500Y6500
X22500Y1500
X23500Y6500
X23500Y1500
X24500Y6500
X24500Y1500
X20429Y3995
X20429Y3404
X21000Y3995
X21000Y3404
X21571Y3995
X21571Y3404
X25500Y6500
X25500Y1500
X26500Y6500
X26500Y1500
X27500Y6500
X27500Y1500
X28500Y6500
X28500Y1500
X29500Y6500
X29500Y1500
X30500Y6500
X30500Y1500
X31500Y6500
X31500Y1500
X32500Y6500
X32500Y1500
X28429Y3995
X28429Y3404
X29000Y3995
X29000Y3404
X29571Y3995
X29571Y3404
T03C0.040000
X6975Y3800
X14975Y3800
X22975Y3800
X30975Y3800
M30
