G75*
G70*
%OFA0B0*%
%FSLAX25Y25*%
%IPPOS*%
%LPD*%
%AMOC8*
5,1,8,0,0,1.08239X$1,22.5*
%
%ADD14C,0.00600*%
%ADD16C,0.00990*%
%ADD19C,0.00500*%
%ADD20C,0.01000*%
%ADD21C,0.00790*%
%ADD26C,0.00590*%
%ADD28C,0.01200*%
%ADD38C,0.00390*%
X0010000Y0010000D02*
G01*
D14*
D21*
X0080000Y0041150D02*
X0080000Y0036820D01*
X0082170Y0038980D02*
X0077830Y0038980D01*
X0085010Y0038790D02*
X0084910Y0037820D01*
X0084630Y0036890D01*
X0084170Y0036020D01*
X0083550Y0035260D01*
X0082800Y0034640D01*
X0081940Y0034180D01*
X0081000Y0033890D01*
X0080030Y0033790D01*
X0079070Y0033870D01*
X0078130Y0034150D01*
X0077260Y0034600D01*
X0076500Y0035220D01*
X0075870Y0035960D01*
X0075400Y0036820D01*
X0075100Y0037750D01*
X0075000Y0038730D01*
X0075080Y0039690D01*
X0075350Y0040630D01*
X0075790Y0041500D01*
X0076400Y0042270D01*
X0077150Y0042900D01*
X0078000Y0043380D01*
X0078930Y0043680D01*
X0079900Y0043790D01*
X0080860Y0043720D01*
X0081810Y0043460D01*
X0082680Y0043020D01*
X0083450Y0042410D01*
X0084090Y0041670D01*
X0084570Y0040820D01*
X0084880Y0039890D01*
X0085000Y0038920D01*
X0085010Y0038790D01*
X0086100Y0031900D02*
X0073900Y0031900D01*
X0073910Y0031900D02*
X0073910Y0045480D01*
X0073910Y0045470D02*
X0086110Y0045470D01*
X0086100Y0045490D02*
X0086100Y0031910D01*
D19*
X0067500Y0033000D02*
X0067490Y0032910D01*
X0067460Y0032810D01*
X0067410Y0032730D01*
X0067350Y0032650D01*
X0067270Y0032590D01*
X0067190Y0032540D01*
X0067100Y0032520D01*
X0067000Y0032510D01*
X0066910Y0032510D01*
X0066820Y0032540D01*
X0066730Y0032590D01*
X0066660Y0032650D01*
X0066590Y0032720D01*
X0066550Y0032810D01*
X0066520Y0032900D01*
X0066510Y0033000D01*
X0066510Y0033090D01*
X0066540Y0033180D01*
X0066580Y0033270D01*
X0066650Y0033340D01*
X0066720Y0033410D01*
X0066800Y0033450D01*
X0066900Y0033480D01*
X0066990Y0033490D01*
X0067080Y0033490D01*
X0067180Y0033460D01*
X0067260Y0033420D01*
X0067340Y0033360D01*
X0067400Y0033280D01*
X0067450Y0033200D01*
X0067480Y0033110D01*
X0067490Y0033010D01*
X0067500Y0033000D01*
X0067000Y0028500D02*
X0067000Y0032500D01*
X0067000Y0032500D02*
X0073000Y0032500D01*
X0073000Y0032500D02*
X0073000Y0028500D01*
X0073000Y0024500D02*
X0073000Y0020500D01*
X0073000Y0020500D02*
X0067000Y0020500D01*
X0067000Y0020500D02*
X0067000Y0024500D01*
X0047000Y0061000D02*
X0046990Y0060910D01*
X0046960Y0060810D01*
X0046910Y0060730D01*
X0046850Y0060650D01*
X0046770Y0060590D01*
X0046690Y0060540D01*
X0046600Y0060520D01*
X0046500Y0060510D01*
X0046410Y0060510D01*
X0046320Y0060540D01*
X0046230Y0060590D01*
X0046160Y0060650D01*
X0046090Y0060720D01*
X0046050Y0060810D01*
X0046020Y0060900D01*
X0046010Y0061000D01*
X0046010Y0061090D01*
X0046040Y0061180D01*
X0046080Y0061270D01*
X0046150Y0061340D01*
X0046220Y0061410D01*
X0046300Y0061450D01*
X0046400Y0061480D01*
X0046490Y0061490D01*
X0046580Y0061490D01*
X0046680Y0061460D01*
X0046760Y0061420D01*
X0046840Y0061360D01*
X0046900Y0061280D01*
X0046950Y0061200D01*
X0046980Y0061110D01*
X0046990Y0061010D01*
X0047000Y0061000D01*
X0042000Y0061000D02*
X0046000Y0061000D01*
X0046000Y0061000D02*
X0046000Y0055000D01*
X0046000Y0055000D02*
X0042000Y0055000D01*
X0038000Y0055000D02*
X0034000Y0055000D01*
X0034000Y0055000D02*
X0034000Y0061000D01*
X0034000Y0061000D02*
X0038000Y0061000D01*
X0054000Y0055000D02*
X0053990Y0054910D01*
X0053960Y0054810D01*
X0053910Y0054730D01*
X0053850Y0054650D01*
X0053770Y0054590D01*
X0053690Y0054540D01*
X0053600Y0054520D01*
X0053500Y0054510D01*
X0053410Y0054510D01*
X0053320Y0054540D01*
X0053230Y0054590D01*
X0053160Y0054650D01*
X0053090Y0054720D01*
X0053050Y0054810D01*
X0053020Y0054900D01*
X0053010Y0055000D01*
X0053010Y0055090D01*
X0053040Y0055180D01*
X0053080Y0055270D01*
X0053150Y0055340D01*
X0053220Y0055410D01*
X0053300Y0055450D01*
X0053400Y0055480D01*
X0053490Y0055490D01*
X0053580Y0055490D01*
X0053680Y0055460D01*
X0053760Y0055420D01*
X0053840Y0055360D01*
X0053900Y0055280D01*
X0053950Y0055200D01*
X0053980Y0055110D01*
X0053990Y0055010D01*
X0054000Y0055000D01*
X0058000Y0055000D02*
X0054000Y0055000D01*
X0054000Y0055000D02*
X0054000Y0061000D01*
X0054000Y0061000D02*
X0058000Y0061000D01*
X0062000Y0061000D02*
X0066000Y0061000D01*
X0066000Y0061000D02*
X0066000Y0055000D01*
X0066000Y0055000D02*
X0062000Y0055000D01*
X0012500Y0020000D02*
X0012490Y0019910D01*
X0012460Y0019810D01*
X0012410Y0019730D01*
X0012350Y0019650D01*
X0012270Y0019590D01*
X0012190Y0019540D01*
X0012100Y0019520D01*
X0012000Y0019510D01*
X0011910Y0019510D01*
X0011820Y0019540D01*
X0011730Y0019590D01*
X0011660Y0019650D01*
X0011590Y0019720D01*
X0011550Y0019810D01*
X0011520Y0019900D01*
X0011510Y0020000D01*
X0011510Y0020090D01*
X0011540Y0020180D01*
X0011580Y0020270D01*
X0011650Y0020340D01*
X0011720Y0020410D01*
X0011800Y0020450D01*
X0011900Y0020480D01*
X0011990Y0020490D01*
X0012080Y0020490D01*
X0012180Y0020460D01*
X0012260Y0020420D01*
X0012340Y0020360D01*
X0012400Y0020280D01*
X0012450Y0020200D01*
X0012480Y0020110D01*
X0012490Y0020010D01*
X0012500Y0020000D01*
X0016500Y0020000D02*
X0012500Y0020000D01*
X0012500Y0020000D02*
X0012500Y0026000D01*
X0012500Y0026000D02*
X0016500Y0026000D01*
X0020500Y0026000D02*
X0024500Y0026000D01*
X0024500Y0026000D02*
X0024500Y0020000D01*
X0024500Y0020000D02*
X0020500Y0020000D01*
X0013000Y0047000D02*
X0012990Y0046910D01*
X0012960Y0046810D01*
X0012910Y0046730D01*
X0012850Y0046650D01*
X0012770Y0046590D01*
X0012690Y0046540D01*
X0012600Y0046520D01*
X0012500Y0046510D01*
X0012410Y0046510D01*
X0012320Y0046540D01*
X0012230Y0046590D01*
X0012160Y0046650D01*
X0012090Y0046720D01*
X0012050Y0046810D01*
X0012020Y0046900D01*
X0012010Y0047000D01*
X0012010Y0047090D01*
X0012040Y0047180D01*
X0012080Y0047270D01*
X0012150Y0047340D01*
X0012220Y0047410D01*
X0012300Y0047450D01*
X0012400Y0047480D01*
X0012490Y0047490D01*
X0012580Y0047490D01*
X0012680Y0047460D01*
X0012760Y0047420D01*
X0012840Y0047360D01*
X0012900Y0047280D01*
X0012950Y0047200D01*
X0012980Y0047110D01*
X0012990Y0047010D01*
X0013000Y0047000D01*
X0012500Y0042500D02*
X0012500Y0046500D01*
X0012500Y0046500D02*
X0018500Y0046500D01*
X0018500Y0046500D02*
X0018500Y0042500D01*
X0018500Y0038500D02*
X0018500Y0034500D01*
X0018500Y0034500D02*
X0012500Y0034500D01*
X0012500Y0034500D02*
X0012500Y0038500D01*
X0089500Y0026500D02*
X0089490Y0026410D01*
X0089460Y0026310D01*
X0089410Y0026230D01*
X0089350Y0026150D01*
X0089270Y0026090D01*
X0089190Y0026040D01*
X0089100Y0026020D01*
X0089000Y0026010D01*
X0088910Y0026010D01*
X0088820Y0026040D01*
X0088730Y0026090D01*
X0088660Y0026150D01*
X0088590Y0026220D01*
X0088550Y0026310D01*
X0088520Y0026400D01*
X0088510Y0026500D01*
X0088510Y0026590D01*
X0088540Y0026680D01*
X0088580Y0026770D01*
X0088650Y0026840D01*
X0088720Y0026910D01*
X0088800Y0026950D01*
X0088900Y0026980D01*
X0088990Y0026990D01*
X0089080Y0026990D01*
X0089180Y0026960D01*
X0089260Y0026920D01*
X0089340Y0026860D01*
X0089400Y0026780D01*
X0089450Y0026700D01*
X0089480Y0026610D01*
X0089490Y0026510D01*
X0089500Y0026500D01*
X0084500Y0026500D02*
X0088500Y0026500D01*
X0088500Y0026500D02*
X0088500Y0020500D01*
X0088500Y0020500D02*
X0084500Y0020500D01*
X0080500Y0020500D02*
X0076500Y0020500D01*
X0076500Y0020500D02*
X0076500Y0026500D01*
X0076500Y0026500D02*
X0080500Y0026500D01*
X0078500Y0061000D02*
X0078490Y0060910D01*
X0078460Y0060810D01*
X0078410Y0060730D01*
X0078350Y0060650D01*
X0078270Y0060590D01*
X0078190Y0060540D01*
X0078100Y0060520D01*
X0078000Y0060510D01*
X0077910Y0060510D01*
X0077820Y0060540D01*
X0077730Y0060590D01*
X0077660Y0060650D01*
X0077590Y0060720D01*
X0077550Y0060810D01*
X0077520Y0060900D01*
X0077510Y0061000D01*
X0077510Y0061090D01*
X0077540Y0061180D01*
X0077580Y0061270D01*
X0077650Y0061340D01*
X0077720Y0061410D01*
X0077800Y0061450D01*
X0077900Y0061480D01*
X0077990Y0061490D01*
X0078080Y0061490D01*
X0078180Y0061460D01*
X0078260Y0061420D01*
X0078340Y0061360D01*
X0078400Y0061280D01*
X0078450Y0061200D01*
X0078480Y0061110D01*
X0078490Y0061010D01*
X0078500Y0061000D01*
X0078000Y0056500D02*
X0078000Y0060500D01*
X0078000Y0060500D02*
X0084000Y0060500D01*
X0084000Y0060500D02*
X0084000Y0056500D01*
X0084000Y0052500D02*
X0084000Y0048500D01*
X0084000Y0048500D02*
X0078000Y0048500D01*
X0078000Y0048500D02*
X0078000Y0052500D01*
X0026000Y0034000D02*
X0025990Y0033910D01*
X0025960Y0033810D01*
X0025910Y0033730D01*
X0025850Y0033650D01*
X0025770Y0033590D01*
X0025690Y0033540D01*
X0025600Y0033520D01*
X0025500Y0033510D01*
X0025410Y0033510D01*
X0025320Y0033540D01*
X0025230Y0033590D01*
X0025160Y0033650D01*
X0025090Y0033720D01*
X0025050Y0033810D01*
X0025020Y0033900D01*
X0025010Y0034000D01*
X0025010Y0034090D01*
X0025040Y0034180D01*
X0025080Y0034270D01*
X0025150Y0034340D01*
X0025220Y0034410D01*
X0025300Y0034450D01*
X0025400Y0034480D01*
X0025490Y0034490D01*
X0025580Y0034490D01*
X0025680Y0034460D01*
X0025760Y0034420D01*
X0025840Y0034360D01*
X0025900Y0034280D01*
X0025950Y0034200D01*
X0025980Y0034110D01*
X0025990Y0034010D01*
X0026000Y0034000D01*
X0025500Y0038500D02*
X0025500Y0034500D01*
X0025500Y0034500D02*
X0019500Y0034500D01*
X0019500Y0034500D02*
X0019500Y0038500D01*
X0019500Y0042500D02*
X0019500Y0046500D01*
X0019500Y0046500D02*
X0025500Y0046500D01*
X0025500Y0046500D02*
X0025500Y0042500D01*
X0013000Y0047500D02*
X0012990Y0047410D01*
X0012960Y0047310D01*
X0012910Y0047230D01*
X0012850Y0047150D01*
X0012770Y0047090D01*
X0012690Y0047040D01*
X0012600Y0047020D01*
X0012500Y0047010D01*
X0012410Y0047010D01*
X0012320Y0047040D01*
X0012230Y0047090D01*
X0012160Y0047150D01*
X0012090Y0047220D01*
X0012050Y0047310D01*
X0012020Y0047400D01*
X0012010Y0047500D01*
X0012010Y0047590D01*
X0012040Y0047680D01*
X0012080Y0047770D01*
X0012150Y0047840D01*
X0012220Y0047910D01*
X0012300Y0047950D01*
X0012400Y0047980D01*
X0012490Y0047990D01*
X0012580Y0047990D01*
X0012680Y0047960D01*
X0012760Y0047920D01*
X0012840Y0047860D01*
X0012900Y0047780D01*
X0012950Y0047700D01*
X0012980Y0047610D01*
X0012990Y0047510D01*
X0013000Y0047500D01*
X0017000Y0047500D02*
X0013000Y0047500D01*
X0013000Y0047500D02*
X0013000Y0053500D01*
X0013000Y0053500D02*
X0017000Y0053500D01*
X0021000Y0053500D02*
X0025000Y0053500D01*
X0025000Y0053500D02*
X0025000Y0047500D01*
X0025000Y0047500D02*
X0021000Y0047500D01*
X0027500Y0033000D02*
X0027490Y0032910D01*
X0027460Y0032810D01*
X0027410Y0032730D01*
X0027350Y0032650D01*
X0027270Y0032590D01*
X0027190Y0032540D01*
X0027100Y0032520D01*
X0027000Y0032510D01*
X0026910Y0032510D01*
X0026820Y0032540D01*
X0026730Y0032590D01*
X0026660Y0032650D01*
X0026590Y0032720D01*
X0026550Y0032810D01*
X0026520Y0032900D01*
X0026510Y0033000D01*
X0026510Y0033090D01*
X0026540Y0033180D01*
X0026580Y0033270D01*
X0026650Y0033340D01*
X0026720Y0033410D01*
X0026800Y0033450D01*
X0026900Y0033480D01*
X0026990Y0033490D01*
X0027080Y0033490D01*
X0027180Y0033460D01*
X0027260Y0033420D01*
X0027340Y0033360D01*
X0027400Y0033280D01*
X0027450Y0033200D01*
X0027480Y0033110D01*
X0027490Y0033010D01*
X0027500Y0033000D01*
X0027000Y0028500D02*
X0027000Y0032500D01*
X0027000Y0032500D02*
X0033000Y0032500D01*
X0033000Y0032500D02*
X0033000Y0028500D01*
X0033000Y0024500D02*
X0033000Y0020500D01*
X0033000Y0020500D02*
X0027000Y0020500D01*
X0027000Y0020500D02*
X0027000Y0024500D01*
X0070500Y0061000D02*
X0070490Y0060910D01*
X0070460Y0060810D01*
X0070410Y0060730D01*
X0070350Y0060650D01*
X0070270Y0060590D01*
X0070190Y0060540D01*
X0070100Y0060520D01*
X0070000Y0060510D01*
X0069910Y0060510D01*
X0069820Y0060540D01*
X0069730Y0060590D01*
X0069660Y0060650D01*
X0069590Y0060720D01*
X0069550Y0060810D01*
X0069520Y0060900D01*
X0069510Y0061000D01*
X0069510Y0061090D01*
X0069540Y0061180D01*
X0069580Y0061270D01*
X0069650Y0061340D01*
X0069720Y0061410D01*
X0069800Y0061450D01*
X0069900Y0061480D01*
X0069990Y0061490D01*
X0070080Y0061490D01*
X0070180Y0061460D01*
X0070260Y0061420D01*
X0070340Y0061360D01*
X0070400Y0061280D01*
X0070450Y0061200D01*
X0070480Y0061110D01*
X0070490Y0061010D01*
X0070500Y0061000D01*
X0070000Y0056500D02*
X0070000Y0060500D01*
X0070000Y0060500D02*
X0076000Y0060500D01*
X0076000Y0060500D02*
X0076000Y0056500D01*
X0076000Y0052500D02*
X0076000Y0048500D01*
X0076000Y0048500D02*
X0070000Y0048500D01*
X0070000Y0048500D02*
X0070000Y0052500D01*
X0013000Y0054000D02*
X0012990Y0053910D01*
X0012960Y0053810D01*
X0012910Y0053730D01*
X0012850Y0053650D01*
X0012770Y0053590D01*
X0012690Y0053540D01*
X0012600Y0053520D01*
X0012500Y0053510D01*
X0012410Y0053510D01*
X0012320Y0053540D01*
X0012230Y0053590D01*
X0012160Y0053650D01*
X0012090Y0053720D01*
X0012050Y0053810D01*
X0012020Y0053900D01*
X0012010Y0054000D01*
X0012010Y0054090D01*
X0012040Y0054180D01*
X0012080Y0054270D01*
X0012150Y0054340D01*
X0012220Y0054410D01*
X0012300Y0054450D01*
X0012400Y0054480D01*
X0012490Y0054490D01*
X0012580Y0054490D01*
X0012680Y0054460D01*
X0012760Y0054420D01*
X0012840Y0054360D01*
X0012900Y0054280D01*
X0012950Y0054200D01*
X0012980Y0054110D01*
X0012990Y0054010D01*
X0013000Y0054000D01*
X0017000Y0054000D02*
X0013000Y0054000D01*
X0013000Y0054000D02*
X0013000Y0060000D01*
X0013000Y0060000D02*
X0017000Y0060000D01*
X0021000Y0060000D02*
X0025000Y0060000D01*
X0025000Y0060000D02*
X0025000Y0054000D01*
X0025000Y0054000D02*
X0021000Y0054000D01*
X0025500Y0033000D02*
X0025490Y0032910D01*
X0025460Y0032810D01*
X0025410Y0032730D01*
X0025350Y0032650D01*
X0025270Y0032590D01*
X0025190Y0032540D01*
X0025100Y0032520D01*
X0025000Y0032510D01*
X0024910Y0032510D01*
X0024820Y0032540D01*
X0024730Y0032590D01*
X0024660Y0032650D01*
X0024590Y0032720D01*
X0024550Y0032810D01*
X0024520Y0032900D01*
X0024510Y0033000D01*
X0024510Y0033090D01*
X0024540Y0033180D01*
X0024580Y0033270D01*
X0024650Y0033340D01*
X0024720Y0033410D01*
X0024800Y0033450D01*
X0024900Y0033480D01*
X0024990Y0033490D01*
X0025080Y0033490D01*
X0025180Y0033460D01*
X0025260Y0033420D01*
X0025340Y0033360D01*
X0025400Y0033280D01*
X0025450Y0033200D01*
X0025480Y0033110D01*
X0025490Y0033010D01*
X0025500Y0033000D01*
X0020500Y0033000D02*
X0024500Y0033000D01*
X0024500Y0033000D02*
X0024500Y0027000D01*
X0024500Y0027000D02*
X0020500Y0027000D01*
X0016500Y0027000D02*
X0012500Y0027000D01*
X0012500Y0027000D02*
X0012500Y0033000D01*
X0012500Y0033000D02*
X0016500Y0033000D01*
D28*
X0010000Y0070000D02*
X0090000Y0070000D01*
X0090000Y0070000D02*
X0090000Y0060000D01*
X0090000Y0060000D02*
X0010000Y0060000D01*
X0010000Y0060000D02*
X0010000Y0070000D01*
X0020000Y0060000D02*
X0020000Y0070000D01*
X0010000Y0020000D02*
X0090000Y0020000D01*
X0090000Y0020000D02*
X0090000Y0010000D01*
X0090000Y0010000D02*
X0010000Y0010000D01*
X0010000Y0010000D02*
X0010000Y0020000D01*
X0020000Y0010000D02*
X0020000Y0020000D01*
D19*
X0065500Y0046000D02*
X0034500Y0046000D01*
X0034500Y0046000D02*
X0034500Y0028000D01*
X0034500Y0028000D02*
X0065500Y0028000D01*
X0065500Y0028000D02*
X0065500Y0046000D01*
X0038610Y0031000D02*
X0038580Y0030790D01*
X0038520Y0030580D01*
X0038420Y0030390D01*
X0038280Y0030220D01*
X0038120Y0030080D01*
X0037930Y0029980D01*
X0037720Y0029920D01*
X0037500Y0029900D01*
X0037300Y0029910D01*
X0037090Y0029980D01*
X0036900Y0030080D01*
X0036730Y0030210D01*
X0036590Y0030380D01*
X0036480Y0030570D01*
X0036420Y0030770D01*
X0036400Y0030990D01*
X0036410Y0031200D01*
X0036470Y0031400D01*
X0036570Y0031600D01*
X0036710Y0031770D01*
X0036870Y0031910D01*
X0037060Y0032010D01*
X0037270Y0032080D01*
X0037480Y0032100D01*
X0037690Y0032090D01*
X0037900Y0032030D01*
X0038090Y0031930D01*
X0038260Y0031800D01*
X0038400Y0031630D01*
X0038510Y0031450D01*
X0038580Y0031240D01*
X0038600Y0031030D01*
X0038610Y0031000D01*
D26*
X0073800Y0038000D02*
X0073720Y0037220D01*
X0073490Y0036460D01*
X0073120Y0035760D01*
X0072620Y0035150D01*
X0072010Y0034650D01*
X0071310Y0034270D01*
X0070560Y0034040D01*
X0069770Y0033960D01*
X0069000Y0034030D01*
X0068240Y0034250D01*
X0067540Y0034620D01*
X0066920Y0035110D01*
X0066410Y0035720D01*
X0066030Y0036410D01*
X0065790Y0037160D01*
X0065710Y0037950D01*
X0065770Y0038730D01*
X0065990Y0039490D01*
X0066350Y0040190D01*
X0066840Y0040810D01*
X0067440Y0041320D01*
X0068130Y0041710D01*
X0068890Y0041950D01*
X0069670Y0042040D01*
X0070450Y0041980D01*
X0071210Y0041770D01*
X0071920Y0041410D01*
X0072540Y0040930D01*
X0073050Y0040330D01*
X0073440Y0039640D01*
X0073690Y0038890D01*
X0073790Y0038110D01*
X0073800Y0038000D01*
D16*
X0077660Y0036250D02*
X0076350Y0038310D01*
X0075410Y0036250D02*
X0075410Y0040580D01*
X0076910Y0040580D01*
X0077280Y0040380D01*
X0077470Y0040170D01*
X0077660Y0039760D01*
X0077660Y0039140D01*
X0077470Y0038730D01*
X0077280Y0038520D01*
X0076910Y0038310D01*
X0075410Y0038310D01*
X0078790Y0040580D02*
X0080100Y0036250D01*
X0081410Y0040580D01*
X0084790Y0036250D02*
X0082540Y0036250D01*
X0083670Y0036250D02*
X0083670Y0040580D01*
X0083290Y0039960D01*
X0082920Y0039550D01*
X0082540Y0039350D01*
D19*
X0069580Y0025630D02*
X0069460Y0025510D01*
X0069110Y0025390D01*
X0068870Y0025390D01*
X0068510Y0025510D01*
X0068270Y0025750D01*
X0068160Y0025980D01*
X0068040Y0026460D01*
X0068040Y0026820D01*
X0068160Y0027290D01*
X0068270Y0027530D01*
X0068510Y0027770D01*
X0068870Y0027890D01*
X0069110Y0027890D01*
X0069460Y0027770D01*
X0069580Y0027650D01*
X0071960Y0025390D02*
X0070540Y0025390D01*
X0071250Y0025390D02*
X0071250Y0027890D01*
X0071010Y0027530D01*
X0070770Y0027290D01*
X0070540Y0027170D01*
X0039280Y0052090D02*
X0038450Y0053280D01*
X0037860Y0052090D02*
X0037860Y0054590D01*
X0038810Y0054590D01*
X0039050Y0054470D01*
X0039160Y0054350D01*
X0039280Y0054110D01*
X0039280Y0053750D01*
X0039160Y0053520D01*
X0039050Y0053400D01*
X0038810Y0053280D01*
X0037860Y0053280D01*
X0041430Y0054590D02*
X0040950Y0054590D01*
X0040710Y0054470D01*
X0040590Y0054350D01*
X0040360Y0053990D01*
X0040240Y0053520D01*
X0040240Y0052560D01*
X0040360Y0052330D01*
X0040470Y0052210D01*
X0040710Y0052090D01*
X0041190Y0052090D01*
X0041430Y0052210D01*
X0041550Y0052330D01*
X0041660Y0052560D01*
X0041660Y0053160D01*
X0041550Y0053400D01*
X0041430Y0053520D01*
X0041190Y0053640D01*
X0040710Y0053640D01*
X0040470Y0053520D01*
X0040360Y0053400D01*
X0040240Y0053160D01*
X0060080Y0051990D02*
X0059250Y0053180D01*
X0058660Y0051990D02*
X0058660Y0054490D01*
X0059610Y0054490D01*
X0059850Y0054370D01*
X0059960Y0054250D01*
X0060080Y0054010D01*
X0060080Y0053650D01*
X0059960Y0053420D01*
X0059850Y0053300D01*
X0059610Y0053180D01*
X0058660Y0053180D01*
X0062350Y0054490D02*
X0061160Y0054490D01*
X0061040Y0053300D01*
X0061160Y0053420D01*
X0061390Y0053540D01*
X0061990Y0053540D01*
X0062230Y0053420D01*
X0062350Y0053300D01*
X0062460Y0053060D01*
X0062460Y0052460D01*
X0062350Y0052230D01*
X0062230Y0052110D01*
X0061990Y0051990D01*
X0061390Y0051990D01*
X0061160Y0052110D01*
X0061040Y0052230D01*
X0019710Y0022880D02*
X0018520Y0022050D01*
X0019710Y0021460D02*
X0017210Y0021460D01*
X0017210Y0022410D01*
X0017330Y0022650D01*
X0017450Y0022760D01*
X0017690Y0022880D01*
X0018050Y0022880D01*
X0018280Y0022760D01*
X0018400Y0022650D01*
X0018520Y0022410D01*
X0018520Y0021460D01*
X0018050Y0025030D02*
X0019710Y0025030D01*
X0017090Y0024430D02*
X0018880Y0023840D01*
X0018880Y0025380D01*
X0015180Y0039290D02*
X0014350Y0040480D01*
X0013760Y0039290D02*
X0013760Y0041790D01*
X0014710Y0041790D01*
X0014950Y0041670D01*
X0015060Y0041550D01*
X0015180Y0041310D01*
X0015180Y0040950D01*
X0015060Y0040720D01*
X0014950Y0040600D01*
X0014710Y0040480D01*
X0013760Y0040480D01*
X0016020Y0041790D02*
X0017560Y0041790D01*
X0016730Y0040840D01*
X0017090Y0040840D01*
X0017330Y0040720D01*
X0017450Y0040600D01*
X0017560Y0040360D01*
X0017560Y0039760D01*
X0017450Y0039530D01*
X0017330Y0039410D01*
X0017090Y0039290D01*
X0016370Y0039290D01*
X0016140Y0039410D01*
X0016020Y0039530D01*
X0083710Y0023180D02*
X0082520Y0022350D01*
X0083710Y0021760D02*
X0081210Y0021760D01*
X0081210Y0022710D01*
X0081330Y0022950D01*
X0081450Y0023060D01*
X0081690Y0023180D01*
X0082050Y0023180D01*
X0082280Y0023060D01*
X0082400Y0022950D01*
X0082520Y0022710D01*
X0082520Y0021760D01*
X0081450Y0024140D02*
X0081330Y0024260D01*
X0081210Y0024490D01*
X0081210Y0025090D01*
X0081330Y0025330D01*
X0081450Y0025450D01*
X0081690Y0025560D01*
X0081930Y0025560D01*
X0082280Y0025450D01*
X0083710Y0024020D01*
X0083710Y0025560D01*
X0087010Y0054080D02*
X0085820Y0053250D01*
X0087010Y0052660D02*
X0084510Y0052660D01*
X0084510Y0053610D01*
X0084630Y0053850D01*
X0084750Y0053960D01*
X0084990Y0054080D01*
X0085350Y0054080D01*
X0085580Y0053960D01*
X0085700Y0053850D01*
X0085820Y0053610D01*
X0085820Y0052660D01*
X0087010Y0056460D02*
X0087010Y0055040D01*
X0087010Y0055750D02*
X0084510Y0055750D01*
X0084870Y0055510D01*
X0085110Y0055270D01*
X0085230Y0055040D01*
X0022080Y0039530D02*
X0021960Y0039410D01*
X0021610Y0039290D01*
X0021370Y0039290D01*
X0021010Y0039410D01*
X0020770Y0039650D01*
X0020660Y0039880D01*
X0020540Y0040360D01*
X0020540Y0040720D01*
X0020660Y0041190D01*
X0020770Y0041430D01*
X0021010Y0041670D01*
X0021370Y0041790D01*
X0021610Y0041790D01*
X0021960Y0041670D01*
X0022080Y0041550D01*
X0022920Y0041790D02*
X0024580Y0041790D01*
X0023510Y0039290D01*
X0019970Y0050180D02*
X0020090Y0050060D01*
X0020210Y0049710D01*
X0020210Y0049470D01*
X0020090Y0049110D01*
X0019850Y0048870D01*
X0019620Y0048760D01*
X0019140Y0048640D01*
X0018780Y0048640D01*
X0018310Y0048760D01*
X0018070Y0048870D01*
X0017830Y0049110D01*
X0017710Y0049470D01*
X0017710Y0049710D01*
X0017830Y0050060D01*
X0017950Y0050180D01*
X0017710Y0052330D02*
X0017710Y0051850D01*
X0017830Y0051610D01*
X0017950Y0051490D01*
X0018310Y0051260D01*
X0018780Y0051140D01*
X0019740Y0051140D01*
X0019970Y0051260D01*
X0020090Y0051370D01*
X0020210Y0051610D01*
X0020210Y0052090D01*
X0020090Y0052330D01*
X0019970Y0052450D01*
X0019740Y0052560D01*
X0019140Y0052560D01*
X0018900Y0052450D01*
X0018780Y0052330D01*
X0018660Y0052090D01*
X0018660Y0051610D01*
X0018780Y0051370D01*
X0018900Y0051260D01*
X0019140Y0051140D01*
X0029480Y0025530D02*
X0029360Y0025410D01*
X0029010Y0025290D01*
X0028770Y0025290D01*
X0028410Y0025410D01*
X0028170Y0025650D01*
X0028060Y0025880D01*
X0027940Y0026360D01*
X0027940Y0026720D01*
X0028060Y0027190D01*
X0028170Y0027430D01*
X0028410Y0027670D01*
X0028770Y0027790D01*
X0029010Y0027790D01*
X0029360Y0027670D01*
X0029480Y0027550D01*
X0031750Y0027790D02*
X0030560Y0027790D01*
X0030440Y0026600D01*
X0030560Y0026720D01*
X0030790Y0026840D01*
X0031390Y0026840D01*
X0031630Y0026720D01*
X0031750Y0026600D01*
X0031860Y0026360D01*
X0031860Y0025760D01*
X0031750Y0025530D01*
X0031630Y0025410D01*
X0031390Y0025290D01*
X0030790Y0025290D01*
X0030560Y0025410D01*
X0030440Y0025530D01*
X0069070Y0049180D02*
X0069190Y0049060D01*
X0069310Y0048710D01*
X0069310Y0048470D01*
X0069190Y0048110D01*
X0068950Y0047870D01*
X0068720Y0047760D01*
X0068240Y0047640D01*
X0067880Y0047640D01*
X0067410Y0047760D01*
X0067170Y0047870D01*
X0066930Y0048110D01*
X0066810Y0048470D01*
X0066810Y0048710D01*
X0066930Y0049060D01*
X0067050Y0049180D01*
X0067650Y0051330D02*
X0069310Y0051330D01*
X0066690Y0050730D02*
X0068480Y0050140D01*
X0068480Y0051680D01*
X0019870Y0056580D02*
X0019990Y0056460D01*
X0020110Y0056110D01*
X0020110Y0055870D01*
X0019990Y0055510D01*
X0019750Y0055270D01*
X0019520Y0055160D01*
X0019040Y0055040D01*
X0018680Y0055040D01*
X0018210Y0055160D01*
X0017970Y0055270D01*
X0017730Y0055510D01*
X0017610Y0055870D01*
X0017610Y0056110D01*
X0017730Y0056460D01*
X0017850Y0056580D01*
X0017610Y0057420D02*
X0017610Y0058960D01*
X0018560Y0058130D01*
X0018560Y0058490D01*
X0018680Y0058730D01*
X0018800Y0058850D01*
X0019040Y0058960D01*
X0019640Y0058960D01*
X0019870Y0058850D01*
X0019990Y0058730D01*
X0020110Y0058490D01*
X0020110Y0057770D01*
X0019990Y0057540D01*
X0019870Y0057420D01*
X0019370Y0029580D02*
X0019490Y0029460D01*
X0019610Y0029110D01*
X0019610Y0028870D01*
X0019490Y0028510D01*
X0019250Y0028270D01*
X0019020Y0028160D01*
X0018540Y0028040D01*
X0018180Y0028040D01*
X0017710Y0028160D01*
X0017470Y0028270D01*
X0017230Y0028510D01*
X0017110Y0028870D01*
X0017110Y0029110D01*
X0017230Y0029460D01*
X0017350Y0029580D01*
X0017350Y0030540D02*
X0017230Y0030660D01*
X0017110Y0030890D01*
X0017110Y0031490D01*
X0017230Y0031730D01*
X0017350Y0031850D01*
X0017590Y0031960D01*
X0017830Y0031960D01*
X0018180Y0031850D01*
X0019610Y0030420D01*
X0019610Y0031960D01*
D38*
X0036820Y0035500D02*
X0038420Y0035500D01*
X0038600Y0035590D01*
X0038700Y0035690D01*
X0038790Y0035870D01*
X0038790Y0036250D01*
X0038700Y0036440D01*
X0038600Y0036530D01*
X0038420Y0036620D01*
X0036820Y0036620D01*
X0038790Y0038590D02*
X0038790Y0037470D01*
X0038790Y0038030D02*
X0036820Y0038030D01*
X0037100Y0037840D01*
X0037290Y0037650D01*
X0037390Y0037470D01*
D26*
X0066020Y0045640D02*
X0067600Y0045640D01*
X0066810Y0042880D02*
X0066810Y0045640D01*
X0068520Y0042880D02*
X0068520Y0045640D01*
X0069570Y0045640D01*
X0069830Y0045510D01*
X0069960Y0045380D01*
X0070090Y0045120D01*
X0070090Y0044720D01*
X0069960Y0044460D01*
X0069830Y0044330D01*
X0069570Y0044200D01*
X0068520Y0044200D01*
X0072720Y0042880D02*
X0071150Y0042880D01*
X0071930Y0042880D02*
X0071930Y0045640D01*
X0071670Y0045250D01*
X0071410Y0044990D01*
X0071150Y0044850D01*
D20*
X0010500Y0010500D02*
X0010500Y0069500D01*
X0010500Y0069500D02*
X0090500Y0069500D01*
X0090500Y0069500D02*
X0090500Y0010500D01*
X0010500Y0010500D01*
X0090000Y0010000D02*
G01*
D14*
D21*
X0160000Y0041150D02*
X0160000Y0036820D01*
X0162170Y0038980D02*
X0157830Y0038980D01*
X0165010Y0038790D02*
X0164910Y0037820D01*
X0164630Y0036890D01*
X0164170Y0036020D01*
X0163550Y0035260D01*
X0162800Y0034640D01*
X0161940Y0034180D01*
X0161000Y0033890D01*
X0160030Y0033790D01*
X0159070Y0033870D01*
X0158130Y0034150D01*
X0157260Y0034600D01*
X0156500Y0035220D01*
X0155870Y0035960D01*
X0155400Y0036820D01*
X0155100Y0037750D01*
X0155000Y0038730D01*
X0155080Y0039690D01*
X0155350Y0040630D01*
X0155790Y0041500D01*
X0156400Y0042270D01*
X0157150Y0042900D01*
X0158000Y0043380D01*
X0158930Y0043680D01*
X0159900Y0043790D01*
X0160860Y0043720D01*
X0161810Y0043460D01*
X0162680Y0043020D01*
X0163450Y0042410D01*
X0164090Y0041670D01*
X0164570Y0040820D01*
X0164880Y0039890D01*
X0165000Y0038920D01*
X0165010Y0038790D01*
X0166100Y0031900D02*
X0153900Y0031900D01*
X0153910Y0031900D02*
X0153910Y0045480D01*
X0153910Y0045470D02*
X0166110Y0045470D01*
X0166100Y0045490D02*
X0166100Y0031910D01*
D19*
X0147500Y0033000D02*
X0147490Y0032910D01*
X0147460Y0032810D01*
X0147410Y0032730D01*
X0147350Y0032650D01*
X0147270Y0032590D01*
X0147190Y0032540D01*
X0147100Y0032520D01*
X0147000Y0032510D01*
X0146910Y0032510D01*
X0146820Y0032540D01*
X0146730Y0032590D01*
X0146660Y0032650D01*
X0146590Y0032720D01*
X0146550Y0032810D01*
X0146520Y0032900D01*
X0146510Y0033000D01*
X0146510Y0033090D01*
X0146540Y0033180D01*
X0146580Y0033270D01*
X0146650Y0033340D01*
X0146720Y0033410D01*
X0146800Y0033450D01*
X0146900Y0033480D01*
X0146990Y0033490D01*
X0147080Y0033490D01*
X0147180Y0033460D01*
X0147260Y0033420D01*
X0147340Y0033360D01*
X0147400Y0033280D01*
X0147450Y0033200D01*
X0147480Y0033110D01*
X0147490Y0033010D01*
X0147500Y0033000D01*
X0147000Y0028500D02*
X0147000Y0032500D01*
X0147000Y0032500D02*
X0153000Y0032500D01*
X0153000Y0032500D02*
X0153000Y0028500D01*
X0153000Y0024500D02*
X0153000Y0020500D01*
X0153000Y0020500D02*
X0147000Y0020500D01*
X0147000Y0020500D02*
X0147000Y0024500D01*
X0127000Y0061000D02*
X0126990Y0060910D01*
X0126960Y0060810D01*
X0126910Y0060730D01*
X0126850Y0060650D01*
X0126770Y0060590D01*
X0126690Y0060540D01*
X0126600Y0060520D01*
X0126500Y0060510D01*
X0126410Y0060510D01*
X0126320Y0060540D01*
X0126230Y0060590D01*
X0126160Y0060650D01*
X0126090Y0060720D01*
X0126050Y0060810D01*
X0126020Y0060900D01*
X0126010Y0061000D01*
X0126010Y0061090D01*
X0126040Y0061180D01*
X0126080Y0061270D01*
X0126150Y0061340D01*
X0126220Y0061410D01*
X0126300Y0061450D01*
X0126400Y0061480D01*
X0126490Y0061490D01*
X0126580Y0061490D01*
X0126680Y0061460D01*
X0126760Y0061420D01*
X0126840Y0061360D01*
X0126900Y0061280D01*
X0126950Y0061200D01*
X0126980Y0061110D01*
X0126990Y0061010D01*
X0127000Y0061000D01*
X0122000Y0061000D02*
X0126000Y0061000D01*
X0126000Y0061000D02*
X0126000Y0055000D01*
X0126000Y0055000D02*
X0122000Y0055000D01*
X0118000Y0055000D02*
X0114000Y0055000D01*
X0114000Y0055000D02*
X0114000Y0061000D01*
X0114000Y0061000D02*
X0118000Y0061000D01*
X0134000Y0055000D02*
X0133990Y0054910D01*
X0133960Y0054810D01*
X0133910Y0054730D01*
X0133850Y0054650D01*
X0133770Y0054590D01*
X0133690Y0054540D01*
X0133600Y0054520D01*
X0133500Y0054510D01*
X0133410Y0054510D01*
X0133320Y0054540D01*
X0133230Y0054590D01*
X0133160Y0054650D01*
X0133090Y0054720D01*
X0133050Y0054810D01*
X0133020Y0054900D01*
X0133010Y0055000D01*
X0133010Y0055090D01*
X0133040Y0055180D01*
X0133080Y0055270D01*
X0133150Y0055340D01*
X0133220Y0055410D01*
X0133300Y0055450D01*
X0133400Y0055480D01*
X0133490Y0055490D01*
X0133580Y0055490D01*
X0133680Y0055460D01*
X0133760Y0055420D01*
X0133840Y0055360D01*
X0133900Y0055280D01*
X0133950Y0055200D01*
X0133980Y0055110D01*
X0133990Y0055010D01*
X0134000Y0055000D01*
X0138000Y0055000D02*
X0134000Y0055000D01*
X0134000Y0055000D02*
X0134000Y0061000D01*
X0134000Y0061000D02*
X0138000Y0061000D01*
X0142000Y0061000D02*
X0146000Y0061000D01*
X0146000Y0061000D02*
X0146000Y0055000D01*
X0146000Y0055000D02*
X0142000Y0055000D01*
X0092500Y0020000D02*
X0092490Y0019910D01*
X0092460Y0019810D01*
X0092410Y0019730D01*
X0092350Y0019650D01*
X0092270Y0019590D01*
X0092190Y0019540D01*
X0092100Y0019520D01*
X0092000Y0019510D01*
X0091910Y0019510D01*
X0091820Y0019540D01*
X0091730Y0019590D01*
X0091660Y0019650D01*
X0091590Y0019720D01*
X0091550Y0019810D01*
X0091520Y0019900D01*
X0091510Y0020000D01*
X0091510Y0020090D01*
X0091540Y0020180D01*
X0091580Y0020270D01*
X0091650Y0020340D01*
X0091720Y0020410D01*
X0091800Y0020450D01*
X0091900Y0020480D01*
X0091990Y0020490D01*
X0092080Y0020490D01*
X0092180Y0020460D01*
X0092260Y0020420D01*
X0092340Y0020360D01*
X0092400Y0020280D01*
X0092450Y0020200D01*
X0092480Y0020110D01*
X0092490Y0020010D01*
X0092500Y0020000D01*
X0096500Y0020000D02*
X0092500Y0020000D01*
X0092500Y0020000D02*
X0092500Y0026000D01*
X0092500Y0026000D02*
X0096500Y0026000D01*
X0100500Y0026000D02*
X0104500Y0026000D01*
X0104500Y0026000D02*
X0104500Y0020000D01*
X0104500Y0020000D02*
X0100500Y0020000D01*
X0093000Y0047000D02*
X0092990Y0046910D01*
X0092960Y0046810D01*
X0092910Y0046730D01*
X0092850Y0046650D01*
X0092770Y0046590D01*
X0092690Y0046540D01*
X0092600Y0046520D01*
X0092500Y0046510D01*
X0092410Y0046510D01*
X0092320Y0046540D01*
X0092230Y0046590D01*
X0092160Y0046650D01*
X0092090Y0046720D01*
X0092050Y0046810D01*
X0092020Y0046900D01*
X0092010Y0047000D01*
X0092010Y0047090D01*
X0092040Y0047180D01*
X0092080Y0047270D01*
X0092150Y0047340D01*
X0092220Y0047410D01*
X0092300Y0047450D01*
X0092400Y0047480D01*
X0092490Y0047490D01*
X0092580Y0047490D01*
X0092680Y0047460D01*
X0092760Y0047420D01*
X0092840Y0047360D01*
X0092900Y0047280D01*
X0092950Y0047200D01*
X0092980Y0047110D01*
X0092990Y0047010D01*
X0093000Y0047000D01*
X0092500Y0042500D02*
X0092500Y0046500D01*
X0092500Y0046500D02*
X0098500Y0046500D01*
X0098500Y0046500D02*
X0098500Y0042500D01*
X0098500Y0038500D02*
X0098500Y0034500D01*
X0098500Y0034500D02*
X0092500Y0034500D01*
X0092500Y0034500D02*
X0092500Y0038500D01*
X0169500Y0026500D02*
X0169490Y0026410D01*
X0169460Y0026310D01*
X0169410Y0026230D01*
X0169350Y0026150D01*
X0169270Y0026090D01*
X0169190Y0026040D01*
X0169100Y0026020D01*
X0169000Y0026010D01*
X0168910Y0026010D01*
X0168820Y0026040D01*
X0168730Y0026090D01*
X0168660Y0026150D01*
X0168590Y0026220D01*
X0168550Y0026310D01*
X0168520Y0026400D01*
X0168510Y0026500D01*
X0168510Y0026590D01*
X0168540Y0026680D01*
X0168580Y0026770D01*
X0168650Y0026840D01*
X0168720Y0026910D01*
X0168800Y0026950D01*
X0168900Y0026980D01*
X0168990Y0026990D01*
X0169080Y0026990D01*
X0169180Y0026960D01*
X0169260Y0026920D01*
X0169340Y0026860D01*
X0169400Y0026780D01*
X0169450Y0026700D01*
X0169480Y0026610D01*
X0169490Y0026510D01*
X0169500Y0026500D01*
X0164500Y0026500D02*
X0168500Y0026500D01*
X0168500Y0026500D02*
X0168500Y0020500D01*
X0168500Y0020500D02*
X0164500Y0020500D01*
X0160500Y0020500D02*
X0156500Y0020500D01*
X0156500Y0020500D02*
X0156500Y0026500D01*
X0156500Y0026500D02*
X0160500Y0026500D01*
X0158500Y0061000D02*
X0158490Y0060910D01*
X0158460Y0060810D01*
X0158410Y0060730D01*
X0158350Y0060650D01*
X0158270Y0060590D01*
X0158190Y0060540D01*
X0158100Y0060520D01*
X0158000Y0060510D01*
X0157910Y0060510D01*
X0157820Y0060540D01*
X0157730Y0060590D01*
X0157660Y0060650D01*
X0157590Y0060720D01*
X0157550Y0060810D01*
X0157520Y0060900D01*
X0157510Y0061000D01*
X0157510Y0061090D01*
X0157540Y0061180D01*
X0157580Y0061270D01*
X0157650Y0061340D01*
X0157720Y0061410D01*
X0157800Y0061450D01*
X0157900Y0061480D01*
X0157990Y0061490D01*
X0158080Y0061490D01*
X0158180Y0061460D01*
X0158260Y0061420D01*
X0158340Y0061360D01*
X0158400Y0061280D01*
X0158450Y0061200D01*
X0158480Y0061110D01*
X0158490Y0061010D01*
X0158500Y0061000D01*
X0158000Y0056500D02*
X0158000Y0060500D01*
X0158000Y0060500D02*
X0164000Y0060500D01*
X0164000Y0060500D02*
X0164000Y0056500D01*
X0164000Y0052500D02*
X0164000Y0048500D01*
X0164000Y0048500D02*
X0158000Y0048500D01*
X0158000Y0048500D02*
X0158000Y0052500D01*
X0106000Y0034000D02*
X0105990Y0033910D01*
X0105960Y0033810D01*
X0105910Y0033730D01*
X0105850Y0033650D01*
X0105770Y0033590D01*
X0105690Y0033540D01*
X0105600Y0033520D01*
X0105500Y0033510D01*
X0105410Y0033510D01*
X0105320Y0033540D01*
X0105230Y0033590D01*
X0105160Y0033650D01*
X0105090Y0033720D01*
X0105050Y0033810D01*
X0105020Y0033900D01*
X0105010Y0034000D01*
X0105010Y0034090D01*
X0105040Y0034180D01*
X0105080Y0034270D01*
X0105150Y0034340D01*
X0105220Y0034410D01*
X0105300Y0034450D01*
X0105400Y0034480D01*
X0105490Y0034490D01*
X0105580Y0034490D01*
X0105680Y0034460D01*
X0105760Y0034420D01*
X0105840Y0034360D01*
X0105900Y0034280D01*
X0105950Y0034200D01*
X0105980Y0034110D01*
X0105990Y0034010D01*
X0106000Y0034000D01*
X0105500Y0038500D02*
X0105500Y0034500D01*
X0105500Y0034500D02*
X0099500Y0034500D01*
X0099500Y0034500D02*
X0099500Y0038500D01*
X0099500Y0042500D02*
X0099500Y0046500D01*
X0099500Y0046500D02*
X0105500Y0046500D01*
X0105500Y0046500D02*
X0105500Y0042500D01*
X0093000Y0047500D02*
X0092990Y0047410D01*
X0092960Y0047310D01*
X0092910Y0047230D01*
X0092850Y0047150D01*
X0092770Y0047090D01*
X0092690Y0047040D01*
X0092600Y0047020D01*
X0092500Y0047010D01*
X0092410Y0047010D01*
X0092320Y0047040D01*
X0092230Y0047090D01*
X0092160Y0047150D01*
X0092090Y0047220D01*
X0092050Y0047310D01*
X0092020Y0047400D01*
X0092010Y0047500D01*
X0092010Y0047590D01*
X0092040Y0047680D01*
X0092080Y0047770D01*
X0092150Y0047840D01*
X0092220Y0047910D01*
X0092300Y0047950D01*
X0092400Y0047980D01*
X0092490Y0047990D01*
X0092580Y0047990D01*
X0092680Y0047960D01*
X0092760Y0047920D01*
X0092840Y0047860D01*
X0092900Y0047780D01*
X0092950Y0047700D01*
X0092980Y0047610D01*
X0092990Y0047510D01*
X0093000Y0047500D01*
X0097000Y0047500D02*
X0093000Y0047500D01*
X0093000Y0047500D02*
X0093000Y0053500D01*
X0093000Y0053500D02*
X0097000Y0053500D01*
X0101000Y0053500D02*
X0105000Y0053500D01*
X0105000Y0053500D02*
X0105000Y0047500D01*
X0105000Y0047500D02*
X0101000Y0047500D01*
X0107500Y0033000D02*
X0107490Y0032910D01*
X0107460Y0032810D01*
X0107410Y0032730D01*
X0107350Y0032650D01*
X0107270Y0032590D01*
X0107190Y0032540D01*
X0107100Y0032520D01*
X0107000Y0032510D01*
X0106910Y0032510D01*
X0106820Y0032540D01*
X0106730Y0032590D01*
X0106660Y0032650D01*
X0106590Y0032720D01*
X0106550Y0032810D01*
X0106520Y0032900D01*
X0106510Y0033000D01*
X0106510Y0033090D01*
X0106540Y0033180D01*
X0106580Y0033270D01*
X0106650Y0033340D01*
X0106720Y0033410D01*
X0106800Y0033450D01*
X0106900Y0033480D01*
X0106990Y0033490D01*
X0107080Y0033490D01*
X0107180Y0033460D01*
X0107260Y0033420D01*
X0107340Y0033360D01*
X0107400Y0033280D01*
X0107450Y0033200D01*
X0107480Y0033110D01*
X0107490Y0033010D01*
X0107500Y0033000D01*
X0107000Y0028500D02*
X0107000Y0032500D01*
X0107000Y0032500D02*
X0113000Y0032500D01*
X0113000Y0032500D02*
X0113000Y0028500D01*
X0113000Y0024500D02*
X0113000Y0020500D01*
X0113000Y0020500D02*
X0107000Y0020500D01*
X0107000Y0020500D02*
X0107000Y0024500D01*
X0150500Y0061000D02*
X0150490Y0060910D01*
X0150460Y0060810D01*
X0150410Y0060730D01*
X0150350Y0060650D01*
X0150270Y0060590D01*
X0150190Y0060540D01*
X0150100Y0060520D01*
X0150000Y0060510D01*
X0149910Y0060510D01*
X0149820Y0060540D01*
X0149730Y0060590D01*
X0149660Y0060650D01*
X0149590Y0060720D01*
X0149550Y0060810D01*
X0149520Y0060900D01*
X0149510Y0061000D01*
X0149510Y0061090D01*
X0149540Y0061180D01*
X0149580Y0061270D01*
X0149650Y0061340D01*
X0149720Y0061410D01*
X0149800Y0061450D01*
X0149900Y0061480D01*
X0149990Y0061490D01*
X0150080Y0061490D01*
X0150180Y0061460D01*
X0150260Y0061420D01*
X0150340Y0061360D01*
X0150400Y0061280D01*
X0150450Y0061200D01*
X0150480Y0061110D01*
X0150490Y0061010D01*
X0150500Y0061000D01*
X0150000Y0056500D02*
X0150000Y0060500D01*
X0150000Y0060500D02*
X0156000Y0060500D01*
X0156000Y0060500D02*
X0156000Y0056500D01*
X0156000Y0052500D02*
X0156000Y0048500D01*
X0156000Y0048500D02*
X0150000Y0048500D01*
X0150000Y0048500D02*
X0150000Y0052500D01*
X0093000Y0054000D02*
X0092990Y0053910D01*
X0092960Y0053810D01*
X0092910Y0053730D01*
X0092850Y0053650D01*
X0092770Y0053590D01*
X0092690Y0053540D01*
X0092600Y0053520D01*
X0092500Y0053510D01*
X0092410Y0053510D01*
X0092320Y0053540D01*
X0092230Y0053590D01*
X0092160Y0053650D01*
X0092090Y0053720D01*
X0092050Y0053810D01*
X0092020Y0053900D01*
X0092010Y0054000D01*
X0092010Y0054090D01*
X0092040Y0054180D01*
X0092080Y0054270D01*
X0092150Y0054340D01*
X0092220Y0054410D01*
X0092300Y0054450D01*
X0092400Y0054480D01*
X0092490Y0054490D01*
X0092580Y0054490D01*
X0092680Y0054460D01*
X0092760Y0054420D01*
X0092840Y0054360D01*
X0092900Y0054280D01*
X0092950Y0054200D01*
X0092980Y0054110D01*
X0092990Y0054010D01*
X0093000Y0054000D01*
X0097000Y0054000D02*
X0093000Y0054000D01*
X0093000Y0054000D02*
X0093000Y0060000D01*
X0093000Y0060000D02*
X0097000Y0060000D01*
X0101000Y0060000D02*
X0105000Y0060000D01*
X0105000Y0060000D02*
X0105000Y0054000D01*
X0105000Y0054000D02*
X0101000Y0054000D01*
X0105500Y0033000D02*
X0105490Y0032910D01*
X0105460Y0032810D01*
X0105410Y0032730D01*
X0105350Y0032650D01*
X0105270Y0032590D01*
X0105190Y0032540D01*
X0105100Y0032520D01*
X0105000Y0032510D01*
X0104910Y0032510D01*
X0104820Y0032540D01*
X0104730Y0032590D01*
X0104660Y0032650D01*
X0104590Y0032720D01*
X0104550Y0032810D01*
X0104520Y0032900D01*
X0104510Y0033000D01*
X0104510Y0033090D01*
X0104540Y0033180D01*
X0104580Y0033270D01*
X0104650Y0033340D01*
X0104720Y0033410D01*
X0104800Y0033450D01*
X0104900Y0033480D01*
X0104990Y0033490D01*
X0105080Y0033490D01*
X0105180Y0033460D01*
X0105260Y0033420D01*
X0105340Y0033360D01*
X0105400Y0033280D01*
X0105450Y0033200D01*
X0105480Y0033110D01*
X0105490Y0033010D01*
X0105500Y0033000D01*
X0100500Y0033000D02*
X0104500Y0033000D01*
X0104500Y0033000D02*
X0104500Y0027000D01*
X0104500Y0027000D02*
X0100500Y0027000D01*
X0096500Y0027000D02*
X0092500Y0027000D01*
X0092500Y0027000D02*
X0092500Y0033000D01*
X0092500Y0033000D02*
X0096500Y0033000D01*
D28*
X0090000Y0070000D02*
X0170000Y0070000D01*
X0170000Y0070000D02*
X0170000Y0060000D01*
X0170000Y0060000D02*
X0090000Y0060000D01*
X0090000Y0060000D02*
X0090000Y0070000D01*
X0100000Y0060000D02*
X0100000Y0070000D01*
X0090000Y0020000D02*
X0170000Y0020000D01*
X0170000Y0020000D02*
X0170000Y0010000D01*
X0170000Y0010000D02*
X0090000Y0010000D01*
X0090000Y0010000D02*
X0090000Y0020000D01*
X0100000Y0010000D02*
X0100000Y0020000D01*
D19*
X0145500Y0046000D02*
X0114500Y0046000D01*
X0114500Y0046000D02*
X0114500Y0028000D01*
X0114500Y0028000D02*
X0145500Y0028000D01*
X0145500Y0028000D02*
X0145500Y0046000D01*
X0118610Y0031000D02*
X0118580Y0030790D01*
X0118520Y0030580D01*
X0118420Y0030390D01*
X0118280Y0030220D01*
X0118120Y0030080D01*
X0117930Y0029980D01*
X0117720Y0029920D01*
X0117500Y0029900D01*
X0117300Y0029910D01*
X0117090Y0029980D01*
X0116900Y0030080D01*
X0116730Y0030210D01*
X0116590Y0030380D01*
X0116480Y0030570D01*
X0116420Y0030770D01*
X0116400Y0030990D01*
X0116410Y0031200D01*
X0116470Y0031400D01*
X0116570Y0031600D01*
X0116710Y0031770D01*
X0116870Y0031910D01*
X0117060Y0032010D01*
X0117270Y0032080D01*
X0117480Y0032100D01*
X0117690Y0032090D01*
X0117900Y0032030D01*
X0118090Y0031930D01*
X0118260Y0031800D01*
X0118400Y0031630D01*
X0118510Y0031450D01*
X0118580Y0031240D01*
X0118600Y0031030D01*
X0118610Y0031000D01*
D26*
X0153800Y0038000D02*
X0153720Y0037220D01*
X0153490Y0036460D01*
X0153120Y0035760D01*
X0152620Y0035150D01*
X0152010Y0034650D01*
X0151310Y0034270D01*
X0150560Y0034040D01*
X0149770Y0033960D01*
X0149000Y0034030D01*
X0148240Y0034250D01*
X0147540Y0034620D01*
X0146920Y0035110D01*
X0146410Y0035720D01*
X0146030Y0036410D01*
X0145790Y0037160D01*
X0145710Y0037950D01*
X0145770Y0038730D01*
X0145990Y0039490D01*
X0146350Y0040190D01*
X0146840Y0040810D01*
X0147440Y0041320D01*
X0148130Y0041710D01*
X0148890Y0041950D01*
X0149670Y0042040D01*
X0150450Y0041980D01*
X0151210Y0041770D01*
X0151920Y0041410D01*
X0152540Y0040930D01*
X0153050Y0040330D01*
X0153440Y0039640D01*
X0153690Y0038890D01*
X0153790Y0038110D01*
X0153800Y0038000D01*
D16*
X0157660Y0036250D02*
X0156350Y0038310D01*
X0155410Y0036250D02*
X0155410Y0040580D01*
X0156910Y0040580D01*
X0157280Y0040380D01*
X0157470Y0040170D01*
X0157660Y0039760D01*
X0157660Y0039140D01*
X0157470Y0038730D01*
X0157280Y0038520D01*
X0156910Y0038310D01*
X0155410Y0038310D01*
X0158790Y0040580D02*
X0160100Y0036250D01*
X0161410Y0040580D01*
X0164790Y0036250D02*
X0162540Y0036250D01*
X0163670Y0036250D02*
X0163670Y0040580D01*
X0163290Y0039960D01*
X0162920Y0039550D01*
X0162540Y0039350D01*
D19*
X0149580Y0025630D02*
X0149460Y0025510D01*
X0149110Y0025390D01*
X0148870Y0025390D01*
X0148510Y0025510D01*
X0148270Y0025750D01*
X0148160Y0025980D01*
X0148040Y0026460D01*
X0148040Y0026820D01*
X0148160Y0027290D01*
X0148270Y0027530D01*
X0148510Y0027770D01*
X0148870Y0027890D01*
X0149110Y0027890D01*
X0149460Y0027770D01*
X0149580Y0027650D01*
X0151960Y0025390D02*
X0150540Y0025390D01*
X0151250Y0025390D02*
X0151250Y0027890D01*
X0151010Y0027530D01*
X0150770Y0027290D01*
X0150540Y0027170D01*
X0119280Y0052090D02*
X0118450Y0053280D01*
X0117860Y0052090D02*
X0117860Y0054590D01*
X0118810Y0054590D01*
X0119050Y0054470D01*
X0119160Y0054350D01*
X0119280Y0054110D01*
X0119280Y0053750D01*
X0119160Y0053520D01*
X0119050Y0053400D01*
X0118810Y0053280D01*
X0117860Y0053280D01*
X0121430Y0054590D02*
X0120950Y0054590D01*
X0120710Y0054470D01*
X0120590Y0054350D01*
X0120360Y0053990D01*
X0120240Y0053520D01*
X0120240Y0052560D01*
X0120360Y0052330D01*
X0120470Y0052210D01*
X0120710Y0052090D01*
X0121190Y0052090D01*
X0121430Y0052210D01*
X0121550Y0052330D01*
X0121660Y0052560D01*
X0121660Y0053160D01*
X0121550Y0053400D01*
X0121430Y0053520D01*
X0121190Y0053640D01*
X0120710Y0053640D01*
X0120470Y0053520D01*
X0120360Y0053400D01*
X0120240Y0053160D01*
X0140080Y0051990D02*
X0139250Y0053180D01*
X0138660Y0051990D02*
X0138660Y0054490D01*
X0139610Y0054490D01*
X0139850Y0054370D01*
X0139960Y0054250D01*
X0140080Y0054010D01*
X0140080Y0053650D01*
X0139960Y0053420D01*
X0139850Y0053300D01*
X0139610Y0053180D01*
X0138660Y0053180D01*
X0142350Y0054490D02*
X0141160Y0054490D01*
X0141040Y0053300D01*
X0141160Y0053420D01*
X0141390Y0053540D01*
X0141990Y0053540D01*
X0142230Y0053420D01*
X0142350Y0053300D01*
X0142460Y0053060D01*
X0142460Y0052460D01*
X0142350Y0052230D01*
X0142230Y0052110D01*
X0141990Y0051990D01*
X0141390Y0051990D01*
X0141160Y0052110D01*
X0141040Y0052230D01*
X0099710Y0022880D02*
X0098520Y0022050D01*
X0099710Y0021460D02*
X0097210Y0021460D01*
X0097210Y0022410D01*
X0097330Y0022650D01*
X0097450Y0022760D01*
X0097690Y0022880D01*
X0098050Y0022880D01*
X0098280Y0022760D01*
X0098400Y0022650D01*
X0098520Y0022410D01*
X0098520Y0021460D01*
X0098050Y0025030D02*
X0099710Y0025030D01*
X0097090Y0024430D02*
X0098880Y0023840D01*
X0098880Y0025380D01*
X0095180Y0039290D02*
X0094350Y0040480D01*
X0093760Y0039290D02*
X0093760Y0041790D01*
X0094710Y0041790D01*
X0094950Y0041670D01*
X0095060Y0041550D01*
X0095180Y0041310D01*
X0095180Y0040950D01*
X0095060Y0040720D01*
X0094950Y0040600D01*
X0094710Y0040480D01*
X0093760Y0040480D01*
X0096020Y0041790D02*
X0097560Y0041790D01*
X0096730Y0040840D01*
X0097090Y0040840D01*
X0097330Y0040720D01*
X0097450Y0040600D01*
X0097560Y0040360D01*
X0097560Y0039760D01*
X0097450Y0039530D01*
X0097330Y0039410D01*
X0097090Y0039290D01*
X0096370Y0039290D01*
X0096140Y0039410D01*
X0096020Y0039530D01*
X0163710Y0023180D02*
X0162520Y0022350D01*
X0163710Y0021760D02*
X0161210Y0021760D01*
X0161210Y0022710D01*
X0161330Y0022950D01*
X0161450Y0023060D01*
X0161690Y0023180D01*
X0162050Y0023180D01*
X0162280Y0023060D01*
X0162400Y0022950D01*
X0162520Y0022710D01*
X0162520Y0021760D01*
X0161450Y0024140D02*
X0161330Y0024260D01*
X0161210Y0024490D01*
X0161210Y0025090D01*
X0161330Y0025330D01*
X0161450Y0025450D01*
X0161690Y0025560D01*
X0161930Y0025560D01*
X0162280Y0025450D01*
X0163710Y0024020D01*
X0163710Y0025560D01*
X0167010Y0054080D02*
X0165820Y0053250D01*
X0167010Y0052660D02*
X0164510Y0052660D01*
X0164510Y0053610D01*
X0164630Y0053850D01*
X0164750Y0053960D01*
X0164990Y0054080D01*
X0165350Y0054080D01*
X0165580Y0053960D01*
X0165700Y0053850D01*
X0165820Y0053610D01*
X0165820Y0052660D01*
X0167010Y0056460D02*
X0167010Y0055040D01*
X0167010Y0055750D02*
X0164510Y0055750D01*
X0164870Y0055510D01*
X0165110Y0055270D01*
X0165230Y0055040D01*
X0102080Y0039530D02*
X0101960Y0039410D01*
X0101610Y0039290D01*
X0101370Y0039290D01*
X0101010Y0039410D01*
X0100770Y0039650D01*
X0100660Y0039880D01*
X0100540Y0040360D01*
X0100540Y0040720D01*
X0100660Y0041190D01*
X0100770Y0041430D01*
X0101010Y0041670D01*
X0101370Y0041790D01*
X0101610Y0041790D01*
X0101960Y0041670D01*
X0102080Y0041550D01*
X0102920Y0041790D02*
X0104580Y0041790D01*
X0103510Y0039290D01*
X0099970Y0050180D02*
X0100090Y0050060D01*
X0100210Y0049710D01*
X0100210Y0049470D01*
X0100090Y0049110D01*
X0099850Y0048870D01*
X0099620Y0048760D01*
X0099140Y0048640D01*
X0098780Y0048640D01*
X0098310Y0048760D01*
X0098070Y0048870D01*
X0097830Y0049110D01*
X0097710Y0049470D01*
X0097710Y0049710D01*
X0097830Y0050060D01*
X0097950Y0050180D01*
X0097710Y0052330D02*
X0097710Y0051850D01*
X0097830Y0051610D01*
X0097950Y0051490D01*
X0098310Y0051260D01*
X0098780Y0051140D01*
X0099740Y0051140D01*
X0099970Y0051260D01*
X0100090Y0051370D01*
X0100210Y0051610D01*
X0100210Y0052090D01*
X0100090Y0052330D01*
X0099970Y0052450D01*
X0099740Y0052560D01*
X0099140Y0052560D01*
X0098900Y0052450D01*
X0098780Y0052330D01*
X0098660Y0052090D01*
X0098660Y0051610D01*
X0098780Y0051370D01*
X0098900Y0051260D01*
X0099140Y0051140D01*
X0109480Y0025530D02*
X0109360Y0025410D01*
X0109010Y0025290D01*
X0108770Y0025290D01*
X0108410Y0025410D01*
X0108170Y0025650D01*
X0108060Y0025880D01*
X0107940Y0026360D01*
X0107940Y0026720D01*
X0108060Y0027190D01*
X0108170Y0027430D01*
X0108410Y0027670D01*
X0108770Y0027790D01*
X0109010Y0027790D01*
X0109360Y0027670D01*
X0109480Y0027550D01*
X0111750Y0027790D02*
X0110560Y0027790D01*
X0110440Y0026600D01*
X0110560Y0026720D01*
X0110790Y0026840D01*
X0111390Y0026840D01*
X0111630Y0026720D01*
X0111750Y0026600D01*
X0111860Y0026360D01*
X0111860Y0025760D01*
X0111750Y0025530D01*
X0111630Y0025410D01*
X0111390Y0025290D01*
X0110790Y0025290D01*
X0110560Y0025410D01*
X0110440Y0025530D01*
X0149070Y0049180D02*
X0149190Y0049060D01*
X0149310Y0048710D01*
X0149310Y0048470D01*
X0149190Y0048110D01*
X0148950Y0047870D01*
X0148720Y0047760D01*
X0148240Y0047640D01*
X0147880Y0047640D01*
X0147410Y0047760D01*
X0147170Y0047870D01*
X0146930Y0048110D01*
X0146810Y0048470D01*
X0146810Y0048710D01*
X0146930Y0049060D01*
X0147050Y0049180D01*
X0147650Y0051330D02*
X0149310Y0051330D01*
X0146690Y0050730D02*
X0148480Y0050140D01*
X0148480Y0051680D01*
X0099870Y0056580D02*
X0099990Y0056460D01*
X0100110Y0056110D01*
X0100110Y0055870D01*
X0099990Y0055510D01*
X0099750Y0055270D01*
X0099520Y0055160D01*
X0099040Y0055040D01*
X0098680Y0055040D01*
X0098210Y0055160D01*
X0097970Y0055270D01*
X0097730Y0055510D01*
X0097610Y0055870D01*
X0097610Y0056110D01*
X0097730Y0056460D01*
X0097850Y0056580D01*
X0097610Y0057420D02*
X0097610Y0058960D01*
X0098560Y0058130D01*
X0098560Y0058490D01*
X0098680Y0058730D01*
X0098800Y0058850D01*
X0099040Y0058960D01*
X0099640Y0058960D01*
X0099870Y0058850D01*
X0099990Y0058730D01*
X0100110Y0058490D01*
X0100110Y0057770D01*
X0099990Y0057540D01*
X0099870Y0057420D01*
X0099370Y0029580D02*
X0099490Y0029460D01*
X0099610Y0029110D01*
X0099610Y0028870D01*
X0099490Y0028510D01*
X0099250Y0028270D01*
X0099020Y0028160D01*
X0098540Y0028040D01*
X0098180Y0028040D01*
X0097710Y0028160D01*
X0097470Y0028270D01*
X0097230Y0028510D01*
X0097110Y0028870D01*
X0097110Y0029110D01*
X0097230Y0029460D01*
X0097350Y0029580D01*
X0097350Y0030540D02*
X0097230Y0030660D01*
X0097110Y0030890D01*
X0097110Y0031490D01*
X0097230Y0031730D01*
X0097350Y0031850D01*
X0097590Y0031960D01*
X0097830Y0031960D01*
X0098180Y0031850D01*
X0099610Y0030420D01*
X0099610Y0031960D01*
D38*
X0116820Y0035500D02*
X0118420Y0035500D01*
X0118600Y0035590D01*
X0118700Y0035690D01*
X0118790Y0035870D01*
X0118790Y0036250D01*
X0118700Y0036440D01*
X0118600Y0036530D01*
X0118420Y0036620D01*
X0116820Y0036620D01*
X0118790Y0038590D02*
X0118790Y0037470D01*
X0118790Y0038030D02*
X0116820Y0038030D01*
X0117100Y0037840D01*
X0117290Y0037650D01*
X0117390Y0037470D01*
D26*
X0146020Y0045640D02*
X0147600Y0045640D01*
X0146810Y0042880D02*
X0146810Y0045640D01*
X0148520Y0042880D02*
X0148520Y0045640D01*
X0149570Y0045640D01*
X0149830Y0045510D01*
X0149960Y0045380D01*
X0150090Y0045120D01*
X0150090Y0044720D01*
X0149960Y0044460D01*
X0149830Y0044330D01*
X0149570Y0044200D01*
X0148520Y0044200D01*
X0152720Y0042880D02*
X0151150Y0042880D01*
X0151930Y0042880D02*
X0151930Y0045640D01*
X0151670Y0045250D01*
X0151410Y0044990D01*
X0151150Y0044850D01*
D20*
X0089500Y0010500D02*
X0089500Y0069500D01*
X0170500Y0069500D01*
X0170500Y0069500D02*
X0170500Y0010500D01*
X0089500Y0010500D01*
X0170000Y0010000D02*
G01*
D14*
D21*
X0240000Y0041150D02*
X0240000Y0036820D01*
X0242170Y0038980D02*
X0237830Y0038980D01*
X0245010Y0038790D02*
X0244910Y0037820D01*
X0244630Y0036890D01*
X0244170Y0036020D01*
X0243550Y0035260D01*
X0242800Y0034640D01*
X0241940Y0034180D01*
X0241000Y0033890D01*
X0240030Y0033790D01*
X0239070Y0033870D01*
X0238130Y0034150D01*
X0237260Y0034600D01*
X0236500Y0035220D01*
X0235870Y0035960D01*
X0235400Y0036820D01*
X0235100Y0037750D01*
X0235000Y0038730D01*
X0235080Y0039690D01*
X0235350Y0040630D01*
X0235790Y0041500D01*
X0236400Y0042270D01*
X0237150Y0042900D01*
X0238000Y0043380D01*
X0238930Y0043680D01*
X0239900Y0043790D01*
X0240860Y0043720D01*
X0241810Y0043460D01*
X0242680Y0043020D01*
X0243450Y0042410D01*
X0244090Y0041670D01*
X0244570Y0040820D01*
X0244880Y0039890D01*
X0245000Y0038920D01*
X0245010Y0038790D01*
X0246100Y0031900D02*
X0233900Y0031900D01*
X0233910Y0031900D02*
X0233910Y0045480D01*
X0233910Y0045470D02*
X0246110Y0045470D01*
X0246100Y0045490D02*
X0246100Y0031910D01*
D19*
X0227500Y0033000D02*
X0227490Y0032910D01*
X0227460Y0032810D01*
X0227410Y0032730D01*
X0227350Y0032650D01*
X0227270Y0032590D01*
X0227190Y0032540D01*
X0227100Y0032520D01*
X0227000Y0032510D01*
X0226910Y0032510D01*
X0226820Y0032540D01*
X0226730Y0032590D01*
X0226660Y0032650D01*
X0226590Y0032720D01*
X0226550Y0032810D01*
X0226520Y0032900D01*
X0226510Y0033000D01*
X0226510Y0033090D01*
X0226540Y0033180D01*
X0226580Y0033270D01*
X0226650Y0033340D01*
X0226720Y0033410D01*
X0226800Y0033450D01*
X0226900Y0033480D01*
X0226990Y0033490D01*
X0227080Y0033490D01*
X0227180Y0033460D01*
X0227260Y0033420D01*
X0227340Y0033360D01*
X0227400Y0033280D01*
X0227450Y0033200D01*
X0227480Y0033110D01*
X0227490Y0033010D01*
X0227500Y0033000D01*
X0227000Y0028500D02*
X0227000Y0032500D01*
X0227000Y0032500D02*
X0233000Y0032500D01*
X0233000Y0032500D02*
X0233000Y0028500D01*
X0233000Y0024500D02*
X0233000Y0020500D01*
X0233000Y0020500D02*
X0227000Y0020500D01*
X0227000Y0020500D02*
X0227000Y0024500D01*
X0207000Y0061000D02*
X0206990Y0060910D01*
X0206960Y0060810D01*
X0206910Y0060730D01*
X0206850Y0060650D01*
X0206770Y0060590D01*
X0206690Y0060540D01*
X0206600Y0060520D01*
X0206500Y0060510D01*
X0206410Y0060510D01*
X0206320Y0060540D01*
X0206230Y0060590D01*
X0206160Y0060650D01*
X0206090Y0060720D01*
X0206050Y0060810D01*
X0206020Y0060900D01*
X0206010Y0061000D01*
X0206010Y0061090D01*
X0206040Y0061180D01*
X0206080Y0061270D01*
X0206150Y0061340D01*
X0206220Y0061410D01*
X0206300Y0061450D01*
X0206400Y0061480D01*
X0206490Y0061490D01*
X0206580Y0061490D01*
X0206680Y0061460D01*
X0206760Y0061420D01*
X0206840Y0061360D01*
X0206900Y0061280D01*
X0206950Y0061200D01*
X0206980Y0061110D01*
X0206990Y0061010D01*
X0207000Y0061000D01*
X0202000Y0061000D02*
X0206000Y0061000D01*
X0206000Y0061000D02*
X0206000Y0055000D01*
X0206000Y0055000D02*
X0202000Y0055000D01*
X0198000Y0055000D02*
X0194000Y0055000D01*
X0194000Y0055000D02*
X0194000Y0061000D01*
X0194000Y0061000D02*
X0198000Y0061000D01*
X0214000Y0055000D02*
X0213990Y0054910D01*
X0213960Y0054810D01*
X0213910Y0054730D01*
X0213850Y0054650D01*
X0213770Y0054590D01*
X0213690Y0054540D01*
X0213600Y0054520D01*
X0213500Y0054510D01*
X0213410Y0054510D01*
X0213320Y0054540D01*
X0213230Y0054590D01*
X0213160Y0054650D01*
X0213090Y0054720D01*
X0213050Y0054810D01*
X0213020Y0054900D01*
X0213010Y0055000D01*
X0213010Y0055090D01*
X0213040Y0055180D01*
X0213080Y0055270D01*
X0213150Y0055340D01*
X0213220Y0055410D01*
X0213300Y0055450D01*
X0213400Y0055480D01*
X0213490Y0055490D01*
X0213580Y0055490D01*
X0213680Y0055460D01*
X0213760Y0055420D01*
X0213840Y0055360D01*
X0213900Y0055280D01*
X0213950Y0055200D01*
X0213980Y0055110D01*
X0213990Y0055010D01*
X0214000Y0055000D01*
X0218000Y0055000D02*
X0214000Y0055000D01*
X0214000Y0055000D02*
X0214000Y0061000D01*
X0214000Y0061000D02*
X0218000Y0061000D01*
X0222000Y0061000D02*
X0226000Y0061000D01*
X0226000Y0061000D02*
X0226000Y0055000D01*
X0226000Y0055000D02*
X0222000Y0055000D01*
X0172500Y0020000D02*
X0172490Y0019910D01*
X0172460Y0019810D01*
X0172410Y0019730D01*
X0172350Y0019650D01*
X0172270Y0019590D01*
X0172190Y0019540D01*
X0172100Y0019520D01*
X0172000Y0019510D01*
X0171910Y0019510D01*
X0171820Y0019540D01*
X0171730Y0019590D01*
X0171660Y0019650D01*
X0171590Y0019720D01*
X0171550Y0019810D01*
X0171520Y0019900D01*
X0171510Y0020000D01*
X0171510Y0020090D01*
X0171540Y0020180D01*
X0171580Y0020270D01*
X0171650Y0020340D01*
X0171720Y0020410D01*
X0171800Y0020450D01*
X0171900Y0020480D01*
X0171990Y0020490D01*
X0172080Y0020490D01*
X0172180Y0020460D01*
X0172260Y0020420D01*
X0172340Y0020360D01*
X0172400Y0020280D01*
X0172450Y0020200D01*
X0172480Y0020110D01*
X0172490Y0020010D01*
X0172500Y0020000D01*
X0176500Y0020000D02*
X0172500Y0020000D01*
X0172500Y0020000D02*
X0172500Y0026000D01*
X0172500Y0026000D02*
X0176500Y0026000D01*
X0180500Y0026000D02*
X0184500Y0026000D01*
X0184500Y0026000D02*
X0184500Y0020000D01*
X0184500Y0020000D02*
X0180500Y0020000D01*
X0173000Y0047000D02*
X0172990Y0046910D01*
X0172960Y0046810D01*
X0172910Y0046730D01*
X0172850Y0046650D01*
X0172770Y0046590D01*
X0172690Y0046540D01*
X0172600Y0046520D01*
X0172500Y0046510D01*
X0172410Y0046510D01*
X0172320Y0046540D01*
X0172230Y0046590D01*
X0172160Y0046650D01*
X0172090Y0046720D01*
X0172050Y0046810D01*
X0172020Y0046900D01*
X0172010Y0047000D01*
X0172010Y0047090D01*
X0172040Y0047180D01*
X0172080Y0047270D01*
X0172150Y0047340D01*
X0172220Y0047410D01*
X0172300Y0047450D01*
X0172400Y0047480D01*
X0172490Y0047490D01*
X0172580Y0047490D01*
X0172680Y0047460D01*
X0172760Y0047420D01*
X0172840Y0047360D01*
X0172900Y0047280D01*
X0172950Y0047200D01*
X0172980Y0047110D01*
X0172990Y0047010D01*
X0173000Y0047000D01*
X0172500Y0042500D02*
X0172500Y0046500D01*
X0172500Y0046500D02*
X0178500Y0046500D01*
X0178500Y0046500D02*
X0178500Y0042500D01*
X0178500Y0038500D02*
X0178500Y0034500D01*
X0178500Y0034500D02*
X0172500Y0034500D01*
X0172500Y0034500D02*
X0172500Y0038500D01*
X0249500Y0026500D02*
X0249490Y0026410D01*
X0249460Y0026310D01*
X0249410Y0026230D01*
X0249350Y0026150D01*
X0249270Y0026090D01*
X0249190Y0026040D01*
X0249100Y0026020D01*
X0249000Y0026010D01*
X0248910Y0026010D01*
X0248820Y0026040D01*
X0248730Y0026090D01*
X0248660Y0026150D01*
X0248590Y0026220D01*
X0248550Y0026310D01*
X0248520Y0026400D01*
X0248510Y0026500D01*
X0248510Y0026590D01*
X0248540Y0026680D01*
X0248580Y0026770D01*
X0248650Y0026840D01*
X0248720Y0026910D01*
X0248800Y0026950D01*
X0248900Y0026980D01*
X0248990Y0026990D01*
X0249080Y0026990D01*
X0249180Y0026960D01*
X0249260Y0026920D01*
X0249340Y0026860D01*
X0249400Y0026780D01*
X0249450Y0026700D01*
X0249480Y0026610D01*
X0249490Y0026510D01*
X0249500Y0026500D01*
X0244500Y0026500D02*
X0248500Y0026500D01*
X0248500Y0026500D02*
X0248500Y0020500D01*
X0248500Y0020500D02*
X0244500Y0020500D01*
X0240500Y0020500D02*
X0236500Y0020500D01*
X0236500Y0020500D02*
X0236500Y0026500D01*
X0236500Y0026500D02*
X0240500Y0026500D01*
X0238500Y0061000D02*
X0238490Y0060910D01*
X0238460Y0060810D01*
X0238410Y0060730D01*
X0238350Y0060650D01*
X0238270Y0060590D01*
X0238190Y0060540D01*
X0238100Y0060520D01*
X0238000Y0060510D01*
X0237910Y0060510D01*
X0237820Y0060540D01*
X0237730Y0060590D01*
X0237660Y0060650D01*
X0237590Y0060720D01*
X0237550Y0060810D01*
X0237520Y0060900D01*
X0237510Y0061000D01*
X0237510Y0061090D01*
X0237540Y0061180D01*
X0237580Y0061270D01*
X0237650Y0061340D01*
X0237720Y0061410D01*
X0237800Y0061450D01*
X0237900Y0061480D01*
X0237990Y0061490D01*
X0238080Y0061490D01*
X0238180Y0061460D01*
X0238260Y0061420D01*
X0238340Y0061360D01*
X0238400Y0061280D01*
X0238450Y0061200D01*
X0238480Y0061110D01*
X0238490Y0061010D01*
X0238500Y0061000D01*
X0238000Y0056500D02*
X0238000Y0060500D01*
X0238000Y0060500D02*
X0244000Y0060500D01*
X0244000Y0060500D02*
X0244000Y0056500D01*
X0244000Y0052500D02*
X0244000Y0048500D01*
X0244000Y0048500D02*
X0238000Y0048500D01*
X0238000Y0048500D02*
X0238000Y0052500D01*
X0186000Y0034000D02*
X0185990Y0033910D01*
X0185960Y0033810D01*
X0185910Y0033730D01*
X0185850Y0033650D01*
X0185770Y0033590D01*
X0185690Y0033540D01*
X0185600Y0033520D01*
X0185500Y0033510D01*
X0185410Y0033510D01*
X0185320Y0033540D01*
X0185230Y0033590D01*
X0185160Y0033650D01*
X0185090Y0033720D01*
X0185050Y0033810D01*
X0185020Y0033900D01*
X0185010Y0034000D01*
X0185010Y0034090D01*
X0185040Y0034180D01*
X0185080Y0034270D01*
X0185150Y0034340D01*
X0185220Y0034410D01*
X0185300Y0034450D01*
X0185400Y0034480D01*
X0185490Y0034490D01*
X0185580Y0034490D01*
X0185680Y0034460D01*
X0185760Y0034420D01*
X0185840Y0034360D01*
X0185900Y0034280D01*
X0185950Y0034200D01*
X0185980Y0034110D01*
X0185990Y0034010D01*
X0186000Y0034000D01*
X0185500Y0038500D02*
X0185500Y0034500D01*
X0185500Y0034500D02*
X0179500Y0034500D01*
X0179500Y0034500D02*
X0179500Y0038500D01*
X0179500Y0042500D02*
X0179500Y0046500D01*
X0179500Y0046500D02*
X0185500Y0046500D01*
X0185500Y0046500D02*
X0185500Y0042500D01*
X0173000Y0047500D02*
X0172990Y0047410D01*
X0172960Y0047310D01*
X0172910Y0047230D01*
X0172850Y0047150D01*
X0172770Y0047090D01*
X0172690Y0047040D01*
X0172600Y0047020D01*
X0172500Y0047010D01*
X0172410Y0047010D01*
X0172320Y0047040D01*
X0172230Y0047090D01*
X0172160Y0047150D01*
X0172090Y0047220D01*
X0172050Y0047310D01*
X0172020Y0047400D01*
X0172010Y0047500D01*
X0172010Y0047590D01*
X0172040Y0047680D01*
X0172080Y0047770D01*
X0172150Y0047840D01*
X0172220Y0047910D01*
X0172300Y0047950D01*
X0172400Y0047980D01*
X0172490Y0047990D01*
X0172580Y0047990D01*
X0172680Y0047960D01*
X0172760Y0047920D01*
X0172840Y0047860D01*
X0172900Y0047780D01*
X0172950Y0047700D01*
X0172980Y0047610D01*
X0172990Y0047510D01*
X0173000Y0047500D01*
X0177000Y0047500D02*
X0173000Y0047500D01*
X0173000Y0047500D02*
X0173000Y0053500D01*
X0173000Y0053500D02*
X0177000Y0053500D01*
X0181000Y0053500D02*
X0185000Y0053500D01*
X0185000Y0053500D02*
X0185000Y0047500D01*
X0185000Y0047500D02*
X0181000Y0047500D01*
X0187500Y0033000D02*
X0187490Y0032910D01*
X0187460Y0032810D01*
X0187410Y0032730D01*
X0187350Y0032650D01*
X0187270Y0032590D01*
X0187190Y0032540D01*
X0187100Y0032520D01*
X0187000Y0032510D01*
X0186910Y0032510D01*
X0186820Y0032540D01*
X0186730Y0032590D01*
X0186660Y0032650D01*
X0186590Y0032720D01*
X0186550Y0032810D01*
X0186520Y0032900D01*
X0186510Y0033000D01*
X0186510Y0033090D01*
X0186540Y0033180D01*
X0186580Y0033270D01*
X0186650Y0033340D01*
X0186720Y0033410D01*
X0186800Y0033450D01*
X0186900Y0033480D01*
X0186990Y0033490D01*
X0187080Y0033490D01*
X0187180Y0033460D01*
X0187260Y0033420D01*
X0187340Y0033360D01*
X0187400Y0033280D01*
X0187450Y0033200D01*
X0187480Y0033110D01*
X0187490Y0033010D01*
X0187500Y0033000D01*
X0187000Y0028500D02*
X0187000Y0032500D01*
X0187000Y0032500D02*
X0193000Y0032500D01*
X0193000Y0032500D02*
X0193000Y0028500D01*
X0193000Y0024500D02*
X0193000Y0020500D01*
X0193000Y0020500D02*
X0187000Y0020500D01*
X0187000Y0020500D02*
X0187000Y0024500D01*
X0230500Y0061000D02*
X0230490Y0060910D01*
X0230460Y0060810D01*
X0230410Y0060730D01*
X0230350Y0060650D01*
X0230270Y0060590D01*
X0230190Y0060540D01*
X0230100Y0060520D01*
X0230000Y0060510D01*
X0229910Y0060510D01*
X0229820Y0060540D01*
X0229730Y0060590D01*
X0229660Y0060650D01*
X0229590Y0060720D01*
X0229550Y0060810D01*
X0229520Y0060900D01*
X0229510Y0061000D01*
X0229510Y0061090D01*
X0229540Y0061180D01*
X0229580Y0061270D01*
X0229650Y0061340D01*
X0229720Y0061410D01*
X0229800Y0061450D01*
X0229900Y0061480D01*
X0229990Y0061490D01*
X0230080Y0061490D01*
X0230180Y0061460D01*
X0230260Y0061420D01*
X0230340Y0061360D01*
X0230400Y0061280D01*
X0230450Y0061200D01*
X0230480Y0061110D01*
X0230490Y0061010D01*
X0230500Y0061000D01*
X0230000Y0056500D02*
X0230000Y0060500D01*
X0230000Y0060500D02*
X0236000Y0060500D01*
X0236000Y0060500D02*
X0236000Y0056500D01*
X0236000Y0052500D02*
X0236000Y0048500D01*
X0236000Y0048500D02*
X0230000Y0048500D01*
X0230000Y0048500D02*
X0230000Y0052500D01*
X0173000Y0054000D02*
X0172990Y0053910D01*
X0172960Y0053810D01*
X0172910Y0053730D01*
X0172850Y0053650D01*
X0172770Y0053590D01*
X0172690Y0053540D01*
X0172600Y0053520D01*
X0172500Y0053510D01*
X0172410Y0053510D01*
X0172320Y0053540D01*
X0172230Y0053590D01*
X0172160Y0053650D01*
X0172090Y0053720D01*
X0172050Y0053810D01*
X0172020Y0053900D01*
X0172010Y0054000D01*
X0172010Y0054090D01*
X0172040Y0054180D01*
X0172080Y0054270D01*
X0172150Y0054340D01*
X0172220Y0054410D01*
X0172300Y0054450D01*
X0172400Y0054480D01*
X0172490Y0054490D01*
X0172580Y0054490D01*
X0172680Y0054460D01*
X0172760Y0054420D01*
X0172840Y0054360D01*
X0172900Y0054280D01*
X0172950Y0054200D01*
X0172980Y0054110D01*
X0172990Y0054010D01*
X0173000Y0054000D01*
X0177000Y0054000D02*
X0173000Y0054000D01*
X0173000Y0054000D02*
X0173000Y0060000D01*
X0173000Y0060000D02*
X0177000Y0060000D01*
X0181000Y0060000D02*
X0185000Y0060000D01*
X0185000Y0060000D02*
X0185000Y0054000D01*
X0185000Y0054000D02*
X0181000Y0054000D01*
X0185500Y0033000D02*
X0185490Y0032910D01*
X0185460Y0032810D01*
X0185410Y0032730D01*
X0185350Y0032650D01*
X0185270Y0032590D01*
X0185190Y0032540D01*
X0185100Y0032520D01*
X0185000Y0032510D01*
X0184910Y0032510D01*
X0184820Y0032540D01*
X0184730Y0032590D01*
X0184660Y0032650D01*
X0184590Y0032720D01*
X0184550Y0032810D01*
X0184520Y0032900D01*
X0184510Y0033000D01*
X0184510Y0033090D01*
X0184540Y0033180D01*
X0184580Y0033270D01*
X0184650Y0033340D01*
X0184720Y0033410D01*
X0184800Y0033450D01*
X0184900Y0033480D01*
X0184990Y0033490D01*
X0185080Y0033490D01*
X0185180Y0033460D01*
X0185260Y0033420D01*
X0185340Y0033360D01*
X0185400Y0033280D01*
X0185450Y0033200D01*
X0185480Y0033110D01*
X0185490Y0033010D01*
X0185500Y0033000D01*
X0180500Y0033000D02*
X0184500Y0033000D01*
X0184500Y0033000D02*
X0184500Y0027000D01*
X0184500Y0027000D02*
X0180500Y0027000D01*
X0176500Y0027000D02*
X0172500Y0027000D01*
X0172500Y0027000D02*
X0172500Y0033000D01*
X0172500Y0033000D02*
X0176500Y0033000D01*
D28*
X0170000Y0070000D02*
X0250000Y0070000D01*
X0250000Y0070000D02*
X0250000Y0060000D01*
X0250000Y0060000D02*
X0170000Y0060000D01*
X0170000Y0060000D02*
X0170000Y0070000D01*
X0180000Y0060000D02*
X0180000Y0070000D01*
X0170000Y0020000D02*
X0250000Y0020000D01*
X0250000Y0020000D02*
X0250000Y0010000D01*
X0250000Y0010000D02*
X0170000Y0010000D01*
X0170000Y0010000D02*
X0170000Y0020000D01*
X0180000Y0010000D02*
X0180000Y0020000D01*
D19*
X0225500Y0046000D02*
X0194500Y0046000D01*
X0194500Y0046000D02*
X0194500Y0028000D01*
X0194500Y0028000D02*
X0225500Y0028000D01*
X0225500Y0028000D02*
X0225500Y0046000D01*
X0198610Y0031000D02*
X0198580Y0030790D01*
X0198520Y0030580D01*
X0198420Y0030390D01*
X0198280Y0030220D01*
X0198120Y0030080D01*
X0197930Y0029980D01*
X0197720Y0029920D01*
X0197500Y0029900D01*
X0197300Y0029910D01*
X0197090Y0029980D01*
X0196900Y0030080D01*
X0196730Y0030210D01*
X0196590Y0030380D01*
X0196480Y0030570D01*
X0196420Y0030770D01*
X0196400Y0030990D01*
X0196410Y0031200D01*
X0196470Y0031400D01*
X0196570Y0031600D01*
X0196710Y0031770D01*
X0196870Y0031910D01*
X0197060Y0032010D01*
X0197270Y0032080D01*
X0197480Y0032100D01*
X0197690Y0032090D01*
X0197900Y0032030D01*
X0198090Y0031930D01*
X0198260Y0031800D01*
X0198400Y0031630D01*
X0198510Y0031450D01*
X0198580Y0031240D01*
X0198600Y0031030D01*
X0198610Y0031000D01*
D26*
X0233800Y0038000D02*
X0233720Y0037220D01*
X0233490Y0036460D01*
X0233120Y0035760D01*
X0232620Y0035150D01*
X0232010Y0034650D01*
X0231310Y0034270D01*
X0230560Y0034040D01*
X0229770Y0033960D01*
X0229000Y0034030D01*
X0228240Y0034250D01*
X0227540Y0034620D01*
X0226920Y0035110D01*
X0226410Y0035720D01*
X0226030Y0036410D01*
X0225790Y0037160D01*
X0225710Y0037950D01*
X0225770Y0038730D01*
X0225990Y0039490D01*
X0226350Y0040190D01*
X0226840Y0040810D01*
X0227440Y0041320D01*
X0228130Y0041710D01*
X0228890Y0041950D01*
X0229670Y0042040D01*
X0230450Y0041980D01*
X0231210Y0041770D01*
X0231920Y0041410D01*
X0232540Y0040930D01*
X0233050Y0040330D01*
X0233440Y0039640D01*
X0233690Y0038890D01*
X0233790Y0038110D01*
X0233800Y0038000D01*
D16*
X0237660Y0036250D02*
X0236350Y0038310D01*
X0235410Y0036250D02*
X0235410Y0040580D01*
X0236910Y0040580D01*
X0237280Y0040380D01*
X0237470Y0040170D01*
X0237660Y0039760D01*
X0237660Y0039140D01*
X0237470Y0038730D01*
X0237280Y0038520D01*
X0236910Y0038310D01*
X0235410Y0038310D01*
X0238790Y0040580D02*
X0240100Y0036250D01*
X0241410Y0040580D01*
X0244790Y0036250D02*
X0242540Y0036250D01*
X0243670Y0036250D02*
X0243670Y0040580D01*
X0243290Y0039960D01*
X0242920Y0039550D01*
X0242540Y0039350D01*
D19*
X0229580Y0025630D02*
X0229460Y0025510D01*
X0229110Y0025390D01*
X0228870Y0025390D01*
X0228510Y0025510D01*
X0228270Y0025750D01*
X0228160Y0025980D01*
X0228040Y0026460D01*
X0228040Y0026820D01*
X0228160Y0027290D01*
X0228270Y0027530D01*
X0228510Y0027770D01*
X0228870Y0027890D01*
X0229110Y0027890D01*
X0229460Y0027770D01*
X0229580Y0027650D01*
X0231960Y0025390D02*
X0230540Y0025390D01*
X0231250Y0025390D02*
X0231250Y0027890D01*
X0231010Y0027530D01*
X0230770Y0027290D01*
X0230540Y0027170D01*
X0199280Y0052090D02*
X0198450Y0053280D01*
X0197860Y0052090D02*
X0197860Y0054590D01*
X0198810Y0054590D01*
X0199050Y0054470D01*
X0199160Y0054350D01*
X0199280Y0054110D01*
X0199280Y0053750D01*
X0199160Y0053520D01*
X0199050Y0053400D01*
X0198810Y0053280D01*
X0197860Y0053280D01*
X0201430Y0054590D02*
X0200950Y0054590D01*
X0200710Y0054470D01*
X0200590Y0054350D01*
X0200360Y0053990D01*
X0200240Y0053520D01*
X0200240Y0052560D01*
X0200360Y0052330D01*
X0200470Y0052210D01*
X0200710Y0052090D01*
X0201190Y0052090D01*
X0201430Y0052210D01*
X0201550Y0052330D01*
X0201660Y0052560D01*
X0201660Y0053160D01*
X0201550Y0053400D01*
X0201430Y0053520D01*
X0201190Y0053640D01*
X0200710Y0053640D01*
X0200470Y0053520D01*
X0200360Y0053400D01*
X0200240Y0053160D01*
X0220080Y0051990D02*
X0219250Y0053180D01*
X0218660Y0051990D02*
X0218660Y0054490D01*
X0219610Y0054490D01*
X0219850Y0054370D01*
X0219960Y0054250D01*
X0220080Y0054010D01*
X0220080Y0053650D01*
X0219960Y0053420D01*
X0219850Y0053300D01*
X0219610Y0053180D01*
X0218660Y0053180D01*
X0222350Y0054490D02*
X0221160Y0054490D01*
X0221040Y0053300D01*
X0221160Y0053420D01*
X0221390Y0053540D01*
X0221990Y0053540D01*
X0222230Y0053420D01*
X0222350Y0053300D01*
X0222460Y0053060D01*
X0222460Y0052460D01*
X0222350Y0052230D01*
X0222230Y0052110D01*
X0221990Y0051990D01*
X0221390Y0051990D01*
X0221160Y0052110D01*
X0221040Y0052230D01*
X0179710Y0022880D02*
X0178520Y0022050D01*
X0179710Y0021460D02*
X0177210Y0021460D01*
X0177210Y0022410D01*
X0177330Y0022650D01*
X0177450Y0022760D01*
X0177690Y0022880D01*
X0178050Y0022880D01*
X0178280Y0022760D01*
X0178400Y0022650D01*
X0178520Y0022410D01*
X0178520Y0021460D01*
X0178050Y0025030D02*
X0179710Y0025030D01*
X0177090Y0024430D02*
X0178880Y0023840D01*
X0178880Y0025380D01*
X0175180Y0039290D02*
X0174350Y0040480D01*
X0173760Y0039290D02*
X0173760Y0041790D01*
X0174710Y0041790D01*
X0174950Y0041670D01*
X0175060Y0041550D01*
X0175180Y0041310D01*
X0175180Y0040950D01*
X0175060Y0040720D01*
X0174950Y0040600D01*
X0174710Y0040480D01*
X0173760Y0040480D01*
X0176020Y0041790D02*
X0177560Y0041790D01*
X0176730Y0040840D01*
X0177090Y0040840D01*
X0177330Y0040720D01*
X0177450Y0040600D01*
X0177560Y0040360D01*
X0177560Y0039760D01*
X0177450Y0039530D01*
X0177330Y0039410D01*
X0177090Y0039290D01*
X0176370Y0039290D01*
X0176140Y0039410D01*
X0176020Y0039530D01*
X0243710Y0023180D02*
X0242520Y0022350D01*
X0243710Y0021760D02*
X0241210Y0021760D01*
X0241210Y0022710D01*
X0241330Y0022950D01*
X0241450Y0023060D01*
X0241690Y0023180D01*
X0242050Y0023180D01*
X0242280Y0023060D01*
X0242400Y0022950D01*
X0242520Y0022710D01*
X0242520Y0021760D01*
X0241450Y0024140D02*
X0241330Y0024260D01*
X0241210Y0024490D01*
X0241210Y0025090D01*
X0241330Y0025330D01*
X0241450Y0025450D01*
X0241690Y0025560D01*
X0241930Y0025560D01*
X0242280Y0025450D01*
X0243710Y0024020D01*
X0243710Y0025560D01*
X0247010Y0054080D02*
X0245820Y0053250D01*
X0247010Y0052660D02*
X0244510Y0052660D01*
X0244510Y0053610D01*
X0244630Y0053850D01*
X0244750Y0053960D01*
X0244990Y0054080D01*
X0245350Y0054080D01*
X0245580Y0053960D01*
X0245700Y0053850D01*
X0245820Y0053610D01*
X0245820Y0052660D01*
X0247010Y0056460D02*
X0247010Y0055040D01*
X0247010Y0055750D02*
X0244510Y0055750D01*
X0244870Y0055510D01*
X0245110Y0055270D01*
X0245230Y0055040D01*
X0182080Y0039530D02*
X0181960Y0039410D01*
X0181610Y0039290D01*
X0181370Y0039290D01*
X0181010Y0039410D01*
X0180770Y0039650D01*
X0180660Y0039880D01*
X0180540Y0040360D01*
X0180540Y0040720D01*
X0180660Y0041190D01*
X0180770Y0041430D01*
X0181010Y0041670D01*
X0181370Y0041790D01*
X0181610Y0041790D01*
X0181960Y0041670D01*
X0182080Y0041550D01*
X0182920Y0041790D02*
X0184580Y0041790D01*
X0183510Y0039290D01*
X0179970Y0050180D02*
X0180090Y0050060D01*
X0180210Y0049710D01*
X0180210Y0049470D01*
X0180090Y0049110D01*
X0179850Y0048870D01*
X0179620Y0048760D01*
X0179140Y0048640D01*
X0178780Y0048640D01*
X0178310Y0048760D01*
X0178070Y0048870D01*
X0177830Y0049110D01*
X0177710Y0049470D01*
X0177710Y0049710D01*
X0177830Y0050060D01*
X0177950Y0050180D01*
X0177710Y0052330D02*
X0177710Y0051850D01*
X0177830Y0051610D01*
X0177950Y0051490D01*
X0178310Y0051260D01*
X0178780Y0051140D01*
X0179740Y0051140D01*
X0179970Y0051260D01*
X0180090Y0051370D01*
X0180210Y0051610D01*
X0180210Y0052090D01*
X0180090Y0052330D01*
X0179970Y0052450D01*
X0179740Y0052560D01*
X0179140Y0052560D01*
X0178900Y0052450D01*
X0178780Y0052330D01*
X0178660Y0052090D01*
X0178660Y0051610D01*
X0178780Y0051370D01*
X0178900Y0051260D01*
X0179140Y0051140D01*
X0189480Y0025530D02*
X0189360Y0025410D01*
X0189010Y0025290D01*
X0188770Y0025290D01*
X0188410Y0025410D01*
X0188170Y0025650D01*
X0188060Y0025880D01*
X0187940Y0026360D01*
X0187940Y0026720D01*
X0188060Y0027190D01*
X0188170Y0027430D01*
X0188410Y0027670D01*
X0188770Y0027790D01*
X0189010Y0027790D01*
X0189360Y0027670D01*
X0189480Y0027550D01*
X0191750Y0027790D02*
X0190560Y0027790D01*
X0190440Y0026600D01*
X0190560Y0026720D01*
X0190790Y0026840D01*
X0191390Y0026840D01*
X0191630Y0026720D01*
X0191750Y0026600D01*
X0191860Y0026360D01*
X0191860Y0025760D01*
X0191750Y0025530D01*
X0191630Y0025410D01*
X0191390Y0025290D01*
X0190790Y0025290D01*
X0190560Y0025410D01*
X0190440Y0025530D01*
X0229070Y0049180D02*
X0229190Y0049060D01*
X0229310Y0048710D01*
X0229310Y0048470D01*
X0229190Y0048110D01*
X0228950Y0047870D01*
X0228720Y0047760D01*
X0228240Y0047640D01*
X0227880Y0047640D01*
X0227410Y0047760D01*
X0227170Y0047870D01*
X0226930Y0048110D01*
X0226810Y0048470D01*
X0226810Y0048710D01*
X0226930Y0049060D01*
X0227050Y0049180D01*
X0227650Y0051330D02*
X0229310Y0051330D01*
X0226690Y0050730D02*
X0228480Y0050140D01*
X0228480Y0051680D01*
X0179870Y0056580D02*
X0179990Y0056460D01*
X0180110Y0056110D01*
X0180110Y0055870D01*
X0179990Y0055510D01*
X0179750Y0055270D01*
X0179520Y0055160D01*
X0179040Y0055040D01*
X0178680Y0055040D01*
X0178210Y0055160D01*
X0177970Y0055270D01*
X0177730Y0055510D01*
X0177610Y0055870D01*
X0177610Y0056110D01*
X0177730Y0056460D01*
X0177850Y0056580D01*
X0177610Y0057420D02*
X0177610Y0058960D01*
X0178560Y0058130D01*
X0178560Y0058490D01*
X0178680Y0058730D01*
X0178800Y0058850D01*
X0179040Y0058960D01*
X0179640Y0058960D01*
X0179870Y0058850D01*
X0179990Y0058730D01*
X0180110Y0058490D01*
X0180110Y0057770D01*
X0179990Y0057540D01*
X0179870Y0057420D01*
X0179370Y0029580D02*
X0179490Y0029460D01*
X0179610Y0029110D01*
X0179610Y0028870D01*
X0179490Y0028510D01*
X0179250Y0028270D01*
X0179020Y0028160D01*
X0178540Y0028040D01*
X0178180Y0028040D01*
X0177710Y0028160D01*
X0177470Y0028270D01*
X0177230Y0028510D01*
X0177110Y0028870D01*
X0177110Y0029110D01*
X0177230Y0029460D01*
X0177350Y0029580D01*
X0177350Y0030540D02*
X0177230Y0030660D01*
X0177110Y0030890D01*
X0177110Y0031490D01*
X0177230Y0031730D01*
X0177350Y0031850D01*
X0177590Y0031960D01*
X0177830Y0031960D01*
X0178180Y0031850D01*
X0179610Y0030420D01*
X0179610Y0031960D01*
D38*
X0196820Y0035500D02*
X0198420Y0035500D01*
X0198600Y0035590D01*
X0198700Y0035690D01*
X0198790Y0035870D01*
X0198790Y0036250D01*
X0198700Y0036440D01*
X0198600Y0036530D01*
X0198420Y0036620D01*
X0196820Y0036620D01*
X0198790Y0038590D02*
X0198790Y0037470D01*
X0198790Y0038030D02*
X0196820Y0038030D01*
X0197100Y0037840D01*
X0197290Y0037650D01*
X0197390Y0037470D01*
D26*
X0226020Y0045640D02*
X0227600Y0045640D01*
X0226810Y0042880D02*
X0226810Y0045640D01*
X0228520Y0042880D02*
X0228520Y0045640D01*
X0229570Y0045640D01*
X0229830Y0045510D01*
X0229960Y0045380D01*
X0230090Y0045120D01*
X0230090Y0044720D01*
X0229960Y0044460D01*
X0229830Y0044330D01*
X0229570Y0044200D01*
X0228520Y0044200D01*
X0232720Y0042880D02*
X0231150Y0042880D01*
X0231930Y0042880D02*
X0231930Y0045640D01*
X0231670Y0045250D01*
X0231410Y0044990D01*
X0231150Y0044850D01*
D20*
X0169500Y0010500D02*
X0169500Y0069500D01*
X0250500Y0069500D01*
X0250500Y0069500D02*
X0250500Y0010500D01*
X0169500Y0010500D01*
X0250000Y0010000D02*
G01*
D14*
D21*
X0320000Y0041150D02*
X0320000Y0036820D01*
X0322170Y0038980D02*
X0317830Y0038980D01*
X0325010Y0038790D02*
X0324910Y0037820D01*
X0324630Y0036890D01*
X0324170Y0036020D01*
X0323550Y0035260D01*
X0322800Y0034640D01*
X0321940Y0034180D01*
X0321000Y0033890D01*
X0320030Y0033790D01*
X0319070Y0033870D01*
X0318130Y0034150D01*
X0317260Y0034600D01*
X0316500Y0035220D01*
X0315870Y0035960D01*
X0315400Y0036820D01*
X0315100Y0037750D01*
X0315000Y0038730D01*
X0315080Y0039690D01*
X0315350Y0040630D01*
X0315790Y0041500D01*
X0316400Y0042270D01*
X0317150Y0042900D01*
X0318000Y0043380D01*
X0318930Y0043680D01*
X0319900Y0043790D01*
X0320860Y0043720D01*
X0321810Y0043460D01*
X0322680Y0043020D01*
X0323450Y0042410D01*
X0324090Y0041670D01*
X0324570Y0040820D01*
X0324880Y0039890D01*
X0325000Y0038920D01*
X0325010Y0038790D01*
X0326100Y0031900D02*
X0313900Y0031900D01*
X0313910Y0031900D02*
X0313910Y0045480D01*
X0313910Y0045470D02*
X0326110Y0045470D01*
X0326100Y0045490D02*
X0326100Y0031910D01*
D19*
X0307500Y0033000D02*
X0307490Y0032910D01*
X0307460Y0032810D01*
X0307410Y0032730D01*
X0307350Y0032650D01*
X0307270Y0032590D01*
X0307190Y0032540D01*
X0307100Y0032520D01*
X0307000Y0032510D01*
X0306910Y0032510D01*
X0306820Y0032540D01*
X0306730Y0032590D01*
X0306660Y0032650D01*
X0306590Y0032720D01*
X0306550Y0032810D01*
X0306520Y0032900D01*
X0306510Y0033000D01*
X0306510Y0033090D01*
X0306540Y0033180D01*
X0306580Y0033270D01*
X0306650Y0033340D01*
X0306720Y0033410D01*
X0306800Y0033450D01*
X0306900Y0033480D01*
X0306990Y0033490D01*
X0307080Y0033490D01*
X0307180Y0033460D01*
X0307260Y0033420D01*
X0307340Y0033360D01*
X0307400Y0033280D01*
X0307450Y0033200D01*
X0307480Y0033110D01*
X0307490Y0033010D01*
X0307500Y0033000D01*
X0307000Y0028500D02*
X0307000Y0032500D01*
X0307000Y0032500D02*
X0313000Y0032500D01*
X0313000Y0032500D02*
X0313000Y0028500D01*
X0313000Y0024500D02*
X0313000Y0020500D01*
X0313000Y0020500D02*
X0307000Y0020500D01*
X0307000Y0020500D02*
X0307000Y0024500D01*
X0287000Y0061000D02*
X0286990Y0060910D01*
X0286960Y0060810D01*
X0286910Y0060730D01*
X0286850Y0060650D01*
X0286770Y0060590D01*
X0286690Y0060540D01*
X0286600Y0060520D01*
X0286500Y0060510D01*
X0286410Y0060510D01*
X0286320Y0060540D01*
X0286230Y0060590D01*
X0286160Y0060650D01*
X0286090Y0060720D01*
X0286050Y0060810D01*
X0286020Y0060900D01*
X0286010Y0061000D01*
X0286010Y0061090D01*
X0286040Y0061180D01*
X0286080Y0061270D01*
X0286150Y0061340D01*
X0286220Y0061410D01*
X0286300Y0061450D01*
X0286400Y0061480D01*
X0286490Y0061490D01*
X0286580Y0061490D01*
X0286680Y0061460D01*
X0286760Y0061420D01*
X0286840Y0061360D01*
X0286900Y0061280D01*
X0286950Y0061200D01*
X0286980Y0061110D01*
X0286990Y0061010D01*
X0287000Y0061000D01*
X0282000Y0061000D02*
X0286000Y0061000D01*
X0286000Y0061000D02*
X0286000Y0055000D01*
X0286000Y0055000D02*
X0282000Y0055000D01*
X0278000Y0055000D02*
X0274000Y0055000D01*
X0274000Y0055000D02*
X0274000Y0061000D01*
X0274000Y0061000D02*
X0278000Y0061000D01*
X0294000Y0055000D02*
X0293990Y0054910D01*
X0293960Y0054810D01*
X0293910Y0054730D01*
X0293850Y0054650D01*
X0293770Y0054590D01*
X0293690Y0054540D01*
X0293600Y0054520D01*
X0293500Y0054510D01*
X0293410Y0054510D01*
X0293320Y0054540D01*
X0293230Y0054590D01*
X0293160Y0054650D01*
X0293090Y0054720D01*
X0293050Y0054810D01*
X0293020Y0054900D01*
X0293010Y0055000D01*
X0293010Y0055090D01*
X0293040Y0055180D01*
X0293080Y0055270D01*
X0293150Y0055340D01*
X0293220Y0055410D01*
X0293300Y0055450D01*
X0293400Y0055480D01*
X0293490Y0055490D01*
X0293580Y0055490D01*
X0293680Y0055460D01*
X0293760Y0055420D01*
X0293840Y0055360D01*
X0293900Y0055280D01*
X0293950Y0055200D01*
X0293980Y0055110D01*
X0293990Y0055010D01*
X0294000Y0055000D01*
X0298000Y0055000D02*
X0294000Y0055000D01*
X0294000Y0055000D02*
X0294000Y0061000D01*
X0294000Y0061000D02*
X0298000Y0061000D01*
X0302000Y0061000D02*
X0306000Y0061000D01*
X0306000Y0061000D02*
X0306000Y0055000D01*
X0306000Y0055000D02*
X0302000Y0055000D01*
X0252500Y0020000D02*
X0252490Y0019910D01*
X0252460Y0019810D01*
X0252410Y0019730D01*
X0252350Y0019650D01*
X0252270Y0019590D01*
X0252190Y0019540D01*
X0252100Y0019520D01*
X0252000Y0019510D01*
X0251910Y0019510D01*
X0251820Y0019540D01*
X0251730Y0019590D01*
X0251660Y0019650D01*
X0251590Y0019720D01*
X0251550Y0019810D01*
X0251520Y0019900D01*
X0251510Y0020000D01*
X0251510Y0020090D01*
X0251540Y0020180D01*
X0251580Y0020270D01*
X0251650Y0020340D01*
X0251720Y0020410D01*
X0251800Y0020450D01*
X0251900Y0020480D01*
X0251990Y0020490D01*
X0252080Y0020490D01*
X0252180Y0020460D01*
X0252260Y0020420D01*
X0252340Y0020360D01*
X0252400Y0020280D01*
X0252450Y0020200D01*
X0252480Y0020110D01*
X0252490Y0020010D01*
X0252500Y0020000D01*
X0256500Y0020000D02*
X0252500Y0020000D01*
X0252500Y0020000D02*
X0252500Y0026000D01*
X0252500Y0026000D02*
X0256500Y0026000D01*
X0260500Y0026000D02*
X0264500Y0026000D01*
X0264500Y0026000D02*
X0264500Y0020000D01*
X0264500Y0020000D02*
X0260500Y0020000D01*
X0253000Y0047000D02*
X0252990Y0046910D01*
X0252960Y0046810D01*
X0252910Y0046730D01*
X0252850Y0046650D01*
X0252770Y0046590D01*
X0252690Y0046540D01*
X0252600Y0046520D01*
X0252500Y0046510D01*
X0252410Y0046510D01*
X0252320Y0046540D01*
X0252230Y0046590D01*
X0252160Y0046650D01*
X0252090Y0046720D01*
X0252050Y0046810D01*
X0252020Y0046900D01*
X0252010Y0047000D01*
X0252010Y0047090D01*
X0252040Y0047180D01*
X0252080Y0047270D01*
X0252150Y0047340D01*
X0252220Y0047410D01*
X0252300Y0047450D01*
X0252400Y0047480D01*
X0252490Y0047490D01*
X0252580Y0047490D01*
X0252680Y0047460D01*
X0252760Y0047420D01*
X0252840Y0047360D01*
X0252900Y0047280D01*
X0252950Y0047200D01*
X0252980Y0047110D01*
X0252990Y0047010D01*
X0253000Y0047000D01*
X0252500Y0042500D02*
X0252500Y0046500D01*
X0252500Y0046500D02*
X0258500Y0046500D01*
X0258500Y0046500D02*
X0258500Y0042500D01*
X0258500Y0038500D02*
X0258500Y0034500D01*
X0258500Y0034500D02*
X0252500Y0034500D01*
X0252500Y0034500D02*
X0252500Y0038500D01*
X0329500Y0026500D02*
X0329490Y0026410D01*
X0329460Y0026310D01*
X0329410Y0026230D01*
X0329350Y0026150D01*
X0329270Y0026090D01*
X0329190Y0026040D01*
X0329100Y0026020D01*
X0329000Y0026010D01*
X0328910Y0026010D01*
X0328820Y0026040D01*
X0328730Y0026090D01*
X0328660Y0026150D01*
X0328590Y0026220D01*
X0328550Y0026310D01*
X0328520Y0026400D01*
X0328510Y0026500D01*
X0328510Y0026590D01*
X0328540Y0026680D01*
X0328580Y0026770D01*
X0328650Y0026840D01*
X0328720Y0026910D01*
X0328800Y0026950D01*
X0328900Y0026980D01*
X0328990Y0026990D01*
X0329080Y0026990D01*
X0329180Y0026960D01*
X0329260Y0026920D01*
X0329340Y0026860D01*
X0329400Y0026780D01*
X0329450Y0026700D01*
X0329480Y0026610D01*
X0329490Y0026510D01*
X0329500Y0026500D01*
X0324500Y0026500D02*
X0328500Y0026500D01*
X0328500Y0026500D02*
X0328500Y0020500D01*
X0328500Y0020500D02*
X0324500Y0020500D01*
X0320500Y0020500D02*
X0316500Y0020500D01*
X0316500Y0020500D02*
X0316500Y0026500D01*
X0316500Y0026500D02*
X0320500Y0026500D01*
X0318500Y0061000D02*
X0318490Y0060910D01*
X0318460Y0060810D01*
X0318410Y0060730D01*
X0318350Y0060650D01*
X0318270Y0060590D01*
X0318190Y0060540D01*
X0318100Y0060520D01*
X0318000Y0060510D01*
X0317910Y0060510D01*
X0317820Y0060540D01*
X0317730Y0060590D01*
X0317660Y0060650D01*
X0317590Y0060720D01*
X0317550Y0060810D01*
X0317520Y0060900D01*
X0317510Y0061000D01*
X0317510Y0061090D01*
X0317540Y0061180D01*
X0317580Y0061270D01*
X0317650Y0061340D01*
X0317720Y0061410D01*
X0317800Y0061450D01*
X0317900Y0061480D01*
X0317990Y0061490D01*
X0318080Y0061490D01*
X0318180Y0061460D01*
X0318260Y0061420D01*
X0318340Y0061360D01*
X0318400Y0061280D01*
X0318450Y0061200D01*
X0318480Y0061110D01*
X0318490Y0061010D01*
X0318500Y0061000D01*
X0318000Y0056500D02*
X0318000Y0060500D01*
X0318000Y0060500D02*
X0324000Y0060500D01*
X0324000Y0060500D02*
X0324000Y0056500D01*
X0324000Y0052500D02*
X0324000Y0048500D01*
X0324000Y0048500D02*
X0318000Y0048500D01*
X0318000Y0048500D02*
X0318000Y0052500D01*
X0266000Y0034000D02*
X0265990Y0033910D01*
X0265960Y0033810D01*
X0265910Y0033730D01*
X0265850Y0033650D01*
X0265770Y0033590D01*
X0265690Y0033540D01*
X0265600Y0033520D01*
X0265500Y0033510D01*
X0265410Y0033510D01*
X0265320Y0033540D01*
X0265230Y0033590D01*
X0265160Y0033650D01*
X0265090Y0033720D01*
X0265050Y0033810D01*
X0265020Y0033900D01*
X0265010Y0034000D01*
X0265010Y0034090D01*
X0265040Y0034180D01*
X0265080Y0034270D01*
X0265150Y0034340D01*
X0265220Y0034410D01*
X0265300Y0034450D01*
X0265400Y0034480D01*
X0265490Y0034490D01*
X0265580Y0034490D01*
X0265680Y0034460D01*
X0265760Y0034420D01*
X0265840Y0034360D01*
X0265900Y0034280D01*
X0265950Y0034200D01*
X0265980Y0034110D01*
X0265990Y0034010D01*
X0266000Y0034000D01*
X0265500Y0038500D02*
X0265500Y0034500D01*
X0265500Y0034500D02*
X0259500Y0034500D01*
X0259500Y0034500D02*
X0259500Y0038500D01*
X0259500Y0042500D02*
X0259500Y0046500D01*
X0259500Y0046500D02*
X0265500Y0046500D01*
X0265500Y0046500D02*
X0265500Y0042500D01*
X0253000Y0047500D02*
X0252990Y0047410D01*
X0252960Y0047310D01*
X0252910Y0047230D01*
X0252850Y0047150D01*
X0252770Y0047090D01*
X0252690Y0047040D01*
X0252600Y0047020D01*
X0252500Y0047010D01*
X0252410Y0047010D01*
X0252320Y0047040D01*
X0252230Y0047090D01*
X0252160Y0047150D01*
X0252090Y0047220D01*
X0252050Y0047310D01*
X0252020Y0047400D01*
X0252010Y0047500D01*
X0252010Y0047590D01*
X0252040Y0047680D01*
X0252080Y0047770D01*
X0252150Y0047840D01*
X0252220Y0047910D01*
X0252300Y0047950D01*
X0252400Y0047980D01*
X0252490Y0047990D01*
X0252580Y0047990D01*
X0252680Y0047960D01*
X0252760Y0047920D01*
X0252840Y0047860D01*
X0252900Y0047780D01*
X0252950Y0047700D01*
X0252980Y0047610D01*
X0252990Y0047510D01*
X0253000Y0047500D01*
X0257000Y0047500D02*
X0253000Y0047500D01*
X0253000Y0047500D02*
X0253000Y0053500D01*
X0253000Y0053500D02*
X0257000Y0053500D01*
X0261000Y0053500D02*
X0265000Y0053500D01*
X0265000Y0053500D02*
X0265000Y0047500D01*
X0265000Y0047500D02*
X0261000Y0047500D01*
X0267500Y0033000D02*
X0267490Y0032910D01*
X0267460Y0032810D01*
X0267410Y0032730D01*
X0267350Y0032650D01*
X0267270Y0032590D01*
X0267190Y0032540D01*
X0267100Y0032520D01*
X0267000Y0032510D01*
X0266910Y0032510D01*
X0266820Y0032540D01*
X0266730Y0032590D01*
X0266660Y0032650D01*
X0266590Y0032720D01*
X0266550Y0032810D01*
X0266520Y0032900D01*
X0266510Y0033000D01*
X0266510Y0033090D01*
X0266540Y0033180D01*
X0266580Y0033270D01*
X0266650Y0033340D01*
X0266720Y0033410D01*
X0266800Y0033450D01*
X0266900Y0033480D01*
X0266990Y0033490D01*
X0267080Y0033490D01*
X0267180Y0033460D01*
X0267260Y0033420D01*
X0267340Y0033360D01*
X0267400Y0033280D01*
X0267450Y0033200D01*
X0267480Y0033110D01*
X0267490Y0033010D01*
X0267500Y0033000D01*
X0267000Y0028500D02*
X0267000Y0032500D01*
X0267000Y0032500D02*
X0273000Y0032500D01*
X0273000Y0032500D02*
X0273000Y0028500D01*
X0273000Y0024500D02*
X0273000Y0020500D01*
X0273000Y0020500D02*
X0267000Y0020500D01*
X0267000Y0020500D02*
X0267000Y0024500D01*
X0310500Y0061000D02*
X0310490Y0060910D01*
X0310460Y0060810D01*
X0310410Y0060730D01*
X0310350Y0060650D01*
X0310270Y0060590D01*
X0310190Y0060540D01*
X0310100Y0060520D01*
X0310000Y0060510D01*
X0309910Y0060510D01*
X0309820Y0060540D01*
X0309730Y0060590D01*
X0309660Y0060650D01*
X0309590Y0060720D01*
X0309550Y0060810D01*
X0309520Y0060900D01*
X0309510Y0061000D01*
X0309510Y0061090D01*
X0309540Y0061180D01*
X0309580Y0061270D01*
X0309650Y0061340D01*
X0309720Y0061410D01*
X0309800Y0061450D01*
X0309900Y0061480D01*
X0309990Y0061490D01*
X0310080Y0061490D01*
X0310180Y0061460D01*
X0310260Y0061420D01*
X0310340Y0061360D01*
X0310400Y0061280D01*
X0310450Y0061200D01*
X0310480Y0061110D01*
X0310490Y0061010D01*
X0310500Y0061000D01*
X0310000Y0056500D02*
X0310000Y0060500D01*
X0310000Y0060500D02*
X0316000Y0060500D01*
X0316000Y0060500D02*
X0316000Y0056500D01*
X0316000Y0052500D02*
X0316000Y0048500D01*
X0316000Y0048500D02*
X0310000Y0048500D01*
X0310000Y0048500D02*
X0310000Y0052500D01*
X0253000Y0054000D02*
X0252990Y0053910D01*
X0252960Y0053810D01*
X0252910Y0053730D01*
X0252850Y0053650D01*
X0252770Y0053590D01*
X0252690Y0053540D01*
X0252600Y0053520D01*
X0252500Y0053510D01*
X0252410Y0053510D01*
X0252320Y0053540D01*
X0252230Y0053590D01*
X0252160Y0053650D01*
X0252090Y0053720D01*
X0252050Y0053810D01*
X0252020Y0053900D01*
X0252010Y0054000D01*
X0252010Y0054090D01*
X0252040Y0054180D01*
X0252080Y0054270D01*
X0252150Y0054340D01*
X0252220Y0054410D01*
X0252300Y0054450D01*
X0252400Y0054480D01*
X0252490Y0054490D01*
X0252580Y0054490D01*
X0252680Y0054460D01*
X0252760Y0054420D01*
X0252840Y0054360D01*
X0252900Y0054280D01*
X0252950Y0054200D01*
X0252980Y0054110D01*
X0252990Y0054010D01*
X0253000Y0054000D01*
X0257000Y0054000D02*
X0253000Y0054000D01*
X0253000Y0054000D02*
X0253000Y0060000D01*
X0253000Y0060000D02*
X0257000Y0060000D01*
X0261000Y0060000D02*
X0265000Y0060000D01*
X0265000Y0060000D02*
X0265000Y0054000D01*
X0265000Y0054000D02*
X0261000Y0054000D01*
X0265500Y0033000D02*
X0265490Y0032910D01*
X0265460Y0032810D01*
X0265410Y0032730D01*
X0265350Y0032650D01*
X0265270Y0032590D01*
X0265190Y0032540D01*
X0265100Y0032520D01*
X0265000Y0032510D01*
X0264910Y0032510D01*
X0264820Y0032540D01*
X0264730Y0032590D01*
X0264660Y0032650D01*
X0264590Y0032720D01*
X0264550Y0032810D01*
X0264520Y0032900D01*
X0264510Y0033000D01*
X0264510Y0033090D01*
X0264540Y0033180D01*
X0264580Y0033270D01*
X0264650Y0033340D01*
X0264720Y0033410D01*
X0264800Y0033450D01*
X0264900Y0033480D01*
X0264990Y0033490D01*
X0265080Y0033490D01*
X0265180Y0033460D01*
X0265260Y0033420D01*
X0265340Y0033360D01*
X0265400Y0033280D01*
X0265450Y0033200D01*
X0265480Y0033110D01*
X0265490Y0033010D01*
X0265500Y0033000D01*
X0260500Y0033000D02*
X0264500Y0033000D01*
X0264500Y0033000D02*
X0264500Y0027000D01*
X0264500Y0027000D02*
X0260500Y0027000D01*
X0256500Y0027000D02*
X0252500Y0027000D01*
X0252500Y0027000D02*
X0252500Y0033000D01*
X0252500Y0033000D02*
X0256500Y0033000D01*
D28*
X0250000Y0070000D02*
X0330000Y0070000D01*
X0330000Y0070000D02*
X0330000Y0060000D01*
X0330000Y0060000D02*
X0250000Y0060000D01*
X0250000Y0060000D02*
X0250000Y0070000D01*
X0260000Y0060000D02*
X0260000Y0070000D01*
X0250000Y0020000D02*
X0330000Y0020000D01*
X0330000Y0020000D02*
X0330000Y0010000D01*
X0330000Y0010000D02*
X0250000Y0010000D01*
X0250000Y0010000D02*
X0250000Y0020000D01*
X0260000Y0010000D02*
X0260000Y0020000D01*
D19*
X0305500Y0046000D02*
X0274500Y0046000D01*
X0274500Y0046000D02*
X0274500Y0028000D01*
X0274500Y0028000D02*
X0305500Y0028000D01*
X0305500Y0028000D02*
X0305500Y0046000D01*
X0278610Y0031000D02*
X0278580Y0030790D01*
X0278520Y0030580D01*
X0278420Y0030390D01*
X0278280Y0030220D01*
X0278120Y0030080D01*
X0277930Y0029980D01*
X0277720Y0029920D01*
X0277500Y0029900D01*
X0277300Y0029910D01*
X0277090Y0029980D01*
X0276900Y0030080D01*
X0276730Y0030210D01*
X0276590Y0030380D01*
X0276480Y0030570D01*
X0276420Y0030770D01*
X0276400Y0030990D01*
X0276410Y0031200D01*
X0276470Y0031400D01*
X0276570Y0031600D01*
X0276710Y0031770D01*
X0276870Y0031910D01*
X0277060Y0032010D01*
X0277270Y0032080D01*
X0277480Y0032100D01*
X0277690Y0032090D01*
X0277900Y0032030D01*
X0278090Y0031930D01*
X0278260Y0031800D01*
X0278400Y0031630D01*
X0278510Y0031450D01*
X0278580Y0031240D01*
X0278600Y0031030D01*
X0278610Y0031000D01*
D26*
X0313800Y0038000D02*
X0313720Y0037220D01*
X0313490Y0036460D01*
X0313120Y0035760D01*
X0312620Y0035150D01*
X0312010Y0034650D01*
X0311310Y0034270D01*
X0310560Y0034040D01*
X0309770Y0033960D01*
X0309000Y0034030D01*
X0308240Y0034250D01*
X0307540Y0034620D01*
X0306920Y0035110D01*
X0306410Y0035720D01*
X0306030Y0036410D01*
X0305790Y0037160D01*
X0305710Y0037950D01*
X0305770Y0038730D01*
X0305990Y0039490D01*
X0306350Y0040190D01*
X0306840Y0040810D01*
X0307440Y0041320D01*
X0308130Y0041710D01*
X0308890Y0041950D01*
X0309670Y0042040D01*
X0310450Y0041980D01*
X0311210Y0041770D01*
X0311920Y0041410D01*
X0312540Y0040930D01*
X0313050Y0040330D01*
X0313440Y0039640D01*
X0313690Y0038890D01*
X0313790Y0038110D01*
X0313800Y0038000D01*
D16*
X0317660Y0036250D02*
X0316350Y0038310D01*
X0315410Y0036250D02*
X0315410Y0040580D01*
X0316910Y0040580D01*
X0317280Y0040380D01*
X0317470Y0040170D01*
X0317660Y0039760D01*
X0317660Y0039140D01*
X0317470Y0038730D01*
X0317280Y0038520D01*
X0316910Y0038310D01*
X0315410Y0038310D01*
X0318790Y0040580D02*
X0320100Y0036250D01*
X0321410Y0040580D01*
X0324790Y0036250D02*
X0322540Y0036250D01*
X0323670Y0036250D02*
X0323670Y0040580D01*
X0323290Y0039960D01*
X0322920Y0039550D01*
X0322540Y0039350D01*
D19*
X0309580Y0025630D02*
X0309460Y0025510D01*
X0309110Y0025390D01*
X0308870Y0025390D01*
X0308510Y0025510D01*
X0308270Y0025750D01*
X0308160Y0025980D01*
X0308040Y0026460D01*
X0308040Y0026820D01*
X0308160Y0027290D01*
X0308270Y0027530D01*
X0308510Y0027770D01*
X0308870Y0027890D01*
X0309110Y0027890D01*
X0309460Y0027770D01*
X0309580Y0027650D01*
X0311960Y0025390D02*
X0310540Y0025390D01*
X0311250Y0025390D02*
X0311250Y0027890D01*
X0311010Y0027530D01*
X0310770Y0027290D01*
X0310540Y0027170D01*
X0279280Y0052090D02*
X0278450Y0053280D01*
X0277860Y0052090D02*
X0277860Y0054590D01*
X0278810Y0054590D01*
X0279050Y0054470D01*
X0279160Y0054350D01*
X0279280Y0054110D01*
X0279280Y0053750D01*
X0279160Y0053520D01*
X0279050Y0053400D01*
X0278810Y0053280D01*
X0277860Y0053280D01*
X0281430Y0054590D02*
X0280950Y0054590D01*
X0280710Y0054470D01*
X0280590Y0054350D01*
X0280360Y0053990D01*
X0280240Y0053520D01*
X0280240Y0052560D01*
X0280360Y0052330D01*
X0280470Y0052210D01*
X0280710Y0052090D01*
X0281190Y0052090D01*
X0281430Y0052210D01*
X0281550Y0052330D01*
X0281660Y0052560D01*
X0281660Y0053160D01*
X0281550Y0053400D01*
X0281430Y0053520D01*
X0281190Y0053640D01*
X0280710Y0053640D01*
X0280470Y0053520D01*
X0280360Y0053400D01*
X0280240Y0053160D01*
X0300080Y0051990D02*
X0299250Y0053180D01*
X0298660Y0051990D02*
X0298660Y0054490D01*
X0299610Y0054490D01*
X0299850Y0054370D01*
X0299960Y0054250D01*
X0300080Y0054010D01*
X0300080Y0053650D01*
X0299960Y0053420D01*
X0299850Y0053300D01*
X0299610Y0053180D01*
X0298660Y0053180D01*
X0302350Y0054490D02*
X0301160Y0054490D01*
X0301040Y0053300D01*
X0301160Y0053420D01*
X0301390Y0053540D01*
X0301990Y0053540D01*
X0302230Y0053420D01*
X0302350Y0053300D01*
X0302460Y0053060D01*
X0302460Y0052460D01*
X0302350Y0052230D01*
X0302230Y0052110D01*
X0301990Y0051990D01*
X0301390Y0051990D01*
X0301160Y0052110D01*
X0301040Y0052230D01*
X0259710Y0022880D02*
X0258520Y0022050D01*
X0259710Y0021460D02*
X0257210Y0021460D01*
X0257210Y0022410D01*
X0257330Y0022650D01*
X0257450Y0022760D01*
X0257690Y0022880D01*
X0258050Y0022880D01*
X0258280Y0022760D01*
X0258400Y0022650D01*
X0258520Y0022410D01*
X0258520Y0021460D01*
X0258050Y0025030D02*
X0259710Y0025030D01*
X0257090Y0024430D02*
X0258880Y0023840D01*
X0258880Y0025380D01*
X0255180Y0039290D02*
X0254350Y0040480D01*
X0253760Y0039290D02*
X0253760Y0041790D01*
X0254710Y0041790D01*
X0254950Y0041670D01*
X0255060Y0041550D01*
X0255180Y0041310D01*
X0255180Y0040950D01*
X0255060Y0040720D01*
X0254950Y0040600D01*
X0254710Y0040480D01*
X0253760Y0040480D01*
X0256020Y0041790D02*
X0257560Y0041790D01*
X0256730Y0040840D01*
X0257090Y0040840D01*
X0257330Y0040720D01*
X0257450Y0040600D01*
X0257560Y0040360D01*
X0257560Y0039760D01*
X0257450Y0039530D01*
X0257330Y0039410D01*
X0257090Y0039290D01*
X0256370Y0039290D01*
X0256140Y0039410D01*
X0256020Y0039530D01*
X0323710Y0023180D02*
X0322520Y0022350D01*
X0323710Y0021760D02*
X0321210Y0021760D01*
X0321210Y0022710D01*
X0321330Y0022950D01*
X0321450Y0023060D01*
X0321690Y0023180D01*
X0322050Y0023180D01*
X0322280Y0023060D01*
X0322400Y0022950D01*
X0322520Y0022710D01*
X0322520Y0021760D01*
X0321450Y0024140D02*
X0321330Y0024260D01*
X0321210Y0024490D01*
X0321210Y0025090D01*
X0321330Y0025330D01*
X0321450Y0025450D01*
X0321690Y0025560D01*
X0321930Y0025560D01*
X0322280Y0025450D01*
X0323710Y0024020D01*
X0323710Y0025560D01*
X0327010Y0054080D02*
X0325820Y0053250D01*
X0327010Y0052660D02*
X0324510Y0052660D01*
X0324510Y0053610D01*
X0324630Y0053850D01*
X0324750Y0053960D01*
X0324990Y0054080D01*
X0325350Y0054080D01*
X0325580Y0053960D01*
X0325700Y0053850D01*
X0325820Y0053610D01*
X0325820Y0052660D01*
X0327010Y0056460D02*
X0327010Y0055040D01*
X0327010Y0055750D02*
X0324510Y0055750D01*
X0324870Y0055510D01*
X0325110Y0055270D01*
X0325230Y0055040D01*
X0262080Y0039530D02*
X0261960Y0039410D01*
X0261610Y0039290D01*
X0261370Y0039290D01*
X0261010Y0039410D01*
X0260770Y0039650D01*
X0260660Y0039880D01*
X0260540Y0040360D01*
X0260540Y0040720D01*
X0260660Y0041190D01*
X0260770Y0041430D01*
X0261010Y0041670D01*
X0261370Y0041790D01*
X0261610Y0041790D01*
X0261960Y0041670D01*
X0262080Y0041550D01*
X0262920Y0041790D02*
X0264580Y0041790D01*
X0263510Y0039290D01*
X0259970Y0050180D02*
X0260090Y0050060D01*
X0260210Y0049710D01*
X0260210Y0049470D01*
X0260090Y0049110D01*
X0259850Y0048870D01*
X0259620Y0048760D01*
X0259140Y0048640D01*
X0258780Y0048640D01*
X0258310Y0048760D01*
X0258070Y0048870D01*
X0257830Y0049110D01*
X0257710Y0049470D01*
X0257710Y0049710D01*
X0257830Y0050060D01*
X0257950Y0050180D01*
X0257710Y0052330D02*
X0257710Y0051850D01*
X0257830Y0051610D01*
X0257950Y0051490D01*
X0258310Y0051260D01*
X0258780Y0051140D01*
X0259740Y0051140D01*
X0259970Y0051260D01*
X0260090Y0051370D01*
X0260210Y0051610D01*
X0260210Y0052090D01*
X0260090Y0052330D01*
X0259970Y0052450D01*
X0259740Y0052560D01*
X0259140Y0052560D01*
X0258900Y0052450D01*
X0258780Y0052330D01*
X0258660Y0052090D01*
X0258660Y0051610D01*
X0258780Y0051370D01*
X0258900Y0051260D01*
X0259140Y0051140D01*
X0269480Y0025530D02*
X0269360Y0025410D01*
X0269010Y0025290D01*
X0268770Y0025290D01*
X0268410Y0025410D01*
X0268170Y0025650D01*
X0268060Y0025880D01*
X0267940Y0026360D01*
X0267940Y0026720D01*
X0268060Y0027190D01*
X0268170Y0027430D01*
X0268410Y0027670D01*
X0268770Y0027790D01*
X0269010Y0027790D01*
X0269360Y0027670D01*
X0269480Y0027550D01*
X0271750Y0027790D02*
X0270560Y0027790D01*
X0270440Y0026600D01*
X0270560Y0026720D01*
X0270790Y0026840D01*
X0271390Y0026840D01*
X0271630Y0026720D01*
X0271750Y0026600D01*
X0271860Y0026360D01*
X0271860Y0025760D01*
X0271750Y0025530D01*
X0271630Y0025410D01*
X0271390Y0025290D01*
X0270790Y0025290D01*
X0270560Y0025410D01*
X0270440Y0025530D01*
X0309070Y0049180D02*
X0309190Y0049060D01*
X0309310Y0048710D01*
X0309310Y0048470D01*
X0309190Y0048110D01*
X0308950Y0047870D01*
X0308720Y0047760D01*
X0308240Y0047640D01*
X0307880Y0047640D01*
X0307410Y0047760D01*
X0307170Y0047870D01*
X0306930Y0048110D01*
X0306810Y0048470D01*
X0306810Y0048710D01*
X0306930Y0049060D01*
X0307050Y0049180D01*
X0307650Y0051330D02*
X0309310Y0051330D01*
X0306690Y0050730D02*
X0308480Y0050140D01*
X0308480Y0051680D01*
X0259870Y0056580D02*
X0259990Y0056460D01*
X0260110Y0056110D01*
X0260110Y0055870D01*
X0259990Y0055510D01*
X0259750Y0055270D01*
X0259520Y0055160D01*
X0259040Y0055040D01*
X0258680Y0055040D01*
X0258210Y0055160D01*
X0257970Y0055270D01*
X0257730Y0055510D01*
X0257610Y0055870D01*
X0257610Y0056110D01*
X0257730Y0056460D01*
X0257850Y0056580D01*
X0257610Y0057420D02*
X0257610Y0058960D01*
X0258560Y0058130D01*
X0258560Y0058490D01*
X0258680Y0058730D01*
X0258800Y0058850D01*
X0259040Y0058960D01*
X0259640Y0058960D01*
X0259870Y0058850D01*
X0259990Y0058730D01*
X0260110Y0058490D01*
X0260110Y0057770D01*
X0259990Y0057540D01*
X0259870Y0057420D01*
X0259370Y0029580D02*
X0259490Y0029460D01*
X0259610Y0029110D01*
X0259610Y0028870D01*
X0259490Y0028510D01*
X0259250Y0028270D01*
X0259020Y0028160D01*
X0258540Y0028040D01*
X0258180Y0028040D01*
X0257710Y0028160D01*
X0257470Y0028270D01*
X0257230Y0028510D01*
X0257110Y0028870D01*
X0257110Y0029110D01*
X0257230Y0029460D01*
X0257350Y0029580D01*
X0257350Y0030540D02*
X0257230Y0030660D01*
X0257110Y0030890D01*
X0257110Y0031490D01*
X0257230Y0031730D01*
X0257350Y0031850D01*
X0257590Y0031960D01*
X0257830Y0031960D01*
X0258180Y0031850D01*
X0259610Y0030420D01*
X0259610Y0031960D01*
D38*
X0276820Y0035500D02*
X0278420Y0035500D01*
X0278600Y0035590D01*
X0278700Y0035690D01*
X0278790Y0035870D01*
X0278790Y0036250D01*
X0278700Y0036440D01*
X0278600Y0036530D01*
X0278420Y0036620D01*
X0276820Y0036620D01*
X0278790Y0038590D02*
X0278790Y0037470D01*
X0278790Y0038030D02*
X0276820Y0038030D01*
X0277100Y0037840D01*
X0277290Y0037650D01*
X0277390Y0037470D01*
D26*
X0306020Y0045640D02*
X0307600Y0045640D01*
X0306810Y0042880D02*
X0306810Y0045640D01*
X0308520Y0042880D02*
X0308520Y0045640D01*
X0309570Y0045640D01*
X0309830Y0045510D01*
X0309960Y0045380D01*
X0310090Y0045120D01*
X0310090Y0044720D01*
X0309960Y0044460D01*
X0309830Y0044330D01*
X0309570Y0044200D01*
X0308520Y0044200D01*
X0312720Y0042880D02*
X0311150Y0042880D01*
X0311930Y0042880D02*
X0311930Y0045640D01*
X0311670Y0045250D01*
X0311410Y0044990D01*
X0311150Y0044850D01*
D20*
X0249500Y0010500D02*
X0249500Y0069500D01*
X0329500Y0069500D01*
X0329500Y0069500D02*
X0329500Y0010500D01*
X0329500Y0010500D02*
X0249500Y0010500D01*
D20*
X0023000Y0010500D02*
X0010500Y0010500D01*
X0010500Y0023000D01*
X0329500Y0023000D02*
X0329500Y0010500D01*
X0317000Y0010500D01*
X0317000Y0069500D02*
X0329500Y0069500D01*
X0329500Y0057000D01*
X0010500Y0057000D02*
X0010500Y0069500D01*
X0023000Y0069500D01*
M02*
