G75*
G70*
%OFA0B0*%
%FSLAX25Y25*%
%IPPOS*%
%LPD*%
%AMOC8*
5,1,8,0,0,1.08239X$1,22.5*
%
%ADD10C,0.05500*%
%ADD13C,0.00600*%
%ADD18R,0.04000X0.04000*%
%ADD25O,0.04720X0.05910*%
%ADD31C,0.02400*%
%ADD39C,0.04000*%
X0010000Y0010000D02*
G01*
D13*
D10*
X0053430Y0015000D03*
X0103430Y0095000D03*
X0093430Y0095000D03*
X0073430Y0095000D03*
X0063430Y0095000D03*
X0133430Y0015000D03*
X0143430Y0015000D03*
X0153430Y0015000D03*
X0163430Y0015000D03*
X0173430Y0015000D03*
X0183430Y0015000D03*
X0113430Y0095000D03*
X0043430Y0015000D03*
X0033430Y0015000D03*
X0023430Y0015000D03*
X0033430Y0095000D03*
X0043430Y0095000D03*
D25*
X0013430Y0015000D03*
D10*
X0143430Y0095000D03*
X0073430Y0015000D03*
X0083430Y0015000D03*
X0093430Y0015000D03*
X0193430Y0015000D03*
D25*
X0203430Y0095000D03*
D10*
X0193430Y0095000D03*
X0183430Y0095000D03*
X0173430Y0095000D03*
X0163430Y0095000D03*
X0153430Y0095000D03*
X0063430Y0015000D03*
D25*
X0203430Y0015000D03*
X0013430Y0095000D03*
D10*
X0053430Y0095000D03*
X0083430Y0095000D03*
X0103430Y0015000D03*
X0113430Y0015000D03*
X0123430Y0015000D03*
X0133430Y0095000D03*
X0123430Y0095000D03*
X0023430Y0095000D03*
D18*
X0198430Y0045000D03*
D39*
X0193430Y0045000D03*
X0198430Y0050000D03*
X0193430Y0050000D03*
X0198430Y0055000D03*
X0193430Y0055000D03*
X0198430Y0060000D03*
X0193430Y0060000D03*
X0198430Y0065000D03*
X0193430Y0065000D03*
D31*
X0061270Y0079780D03*
X0170940Y0061870D03*
X0146900Y0035470D03*
X0165180Y0079900D03*
X0141170Y0062210D03*
X0170900Y0026870D03*
X0095750Y0054160D03*
X0172840Y0073610D03*
X0130590Y0059920D03*
X0159430Y0088760D03*
X0133670Y0059320D03*
X0157990Y0083640D03*
X0087690Y0040230D03*
X0067400Y0067700D03*
X0115030Y0051400D03*
X0083290Y0065840D03*
D13*
X0083430Y0095000D02*
X0068210Y0079780D01*
X0121250Y0057180D02*
X0166250Y0057180D01*
X0068210Y0079780D02*
X0061270Y0079780D01*
X0083430Y0095000D02*
X0121250Y0057180D01*
X0166250Y0057180D02*
X0170940Y0061870D01*
X0123430Y0015000D02*
X0143900Y0035470D01*
X0143900Y0035470D02*
X0146900Y0035470D01*
X0165180Y0078250D02*
X0193430Y0050000D01*
X0165180Y0079900D02*
X0165180Y0078250D01*
X0193430Y0045000D02*
X0163020Y0075410D01*
X0163020Y0094590D02*
X0163430Y0095000D01*
X0163020Y0075410D02*
X0163020Y0094590D01*
X0154370Y0075410D02*
X0141170Y0062210D01*
X0163020Y0075410D02*
X0154370Y0075410D01*
X0095750Y0054160D02*
X0052590Y0054160D01*
X0052590Y0054160D02*
X0013430Y0015000D01*
X0170900Y0026870D02*
X0158270Y0039500D01*
X0110410Y0039500D02*
X0095750Y0054160D01*
X0158270Y0039500D02*
X0110410Y0039500D01*
X0201930Y0058500D02*
X0198430Y0055000D01*
X0198430Y0065000D02*
X0189820Y0073610D01*
X0189820Y0073610D02*
X0172840Y0073610D01*
X0198430Y0050000D02*
X0200930Y0050000D01*
X0200930Y0050000D02*
X0203430Y0047500D01*
X0203430Y0047500D02*
X0203430Y0015000D01*
X0198430Y0055000D02*
X0198430Y0050000D01*
X0198430Y0065000D02*
X0201930Y0061500D01*
X0201930Y0061500D02*
X0201930Y0058500D01*
X0159430Y0088760D02*
X0130590Y0059920D01*
X0157990Y0083640D02*
X0133670Y0059320D01*
X0087690Y0040230D02*
X0058660Y0040230D01*
X0058660Y0040230D02*
X0033430Y0015000D01*
X0060730Y0067700D02*
X0033430Y0095000D01*
X0067400Y0067700D02*
X0060730Y0067700D01*
X0115030Y0051400D02*
X0101340Y0065840D01*
X0126310Y0040870D02*
X0115030Y0051400D01*
X0082970Y0065520D02*
X0083290Y0065840D01*
X0198430Y0045000D02*
X0194300Y0040870D01*
X0101340Y0065840D02*
X0083290Y0065840D01*
X0194300Y0040870D02*
X0126310Y0040870D01*
X0042910Y0065520D02*
X0082970Y0065520D01*
X0013430Y0095000D02*
X0042910Y0065520D01*
X0010000Y0112500D02*
G01*
D13*
D10*
X0053430Y0117500D03*
X0103430Y0197500D03*
X0093430Y0197500D03*
X0073430Y0197500D03*
X0063430Y0197500D03*
X0133430Y0117500D03*
X0143430Y0117500D03*
X0153430Y0117500D03*
X0163430Y0117500D03*
X0173430Y0117500D03*
X0183430Y0117500D03*
X0113430Y0197500D03*
X0043430Y0117500D03*
X0033430Y0117500D03*
X0023430Y0117500D03*
X0033430Y0197500D03*
X0043430Y0197500D03*
D25*
X0013430Y0117500D03*
D10*
X0143430Y0197500D03*
X0073430Y0117500D03*
X0083430Y0117500D03*
X0093430Y0117500D03*
X0193430Y0117500D03*
D25*
X0203430Y0197500D03*
D10*
X0193430Y0197500D03*
X0183430Y0197500D03*
X0173430Y0197500D03*
X0163430Y0197500D03*
X0153430Y0197500D03*
X0063430Y0117500D03*
D25*
X0203430Y0117500D03*
X0013430Y0197500D03*
D10*
X0053430Y0197500D03*
X0083430Y0197500D03*
X0103430Y0117500D03*
X0113430Y0117500D03*
X0123430Y0117500D03*
X0133430Y0197500D03*
X0123430Y0197500D03*
X0023430Y0197500D03*
D18*
X0198430Y0147500D03*
D39*
X0193430Y0147500D03*
X0198430Y0152500D03*
X0193430Y0152500D03*
X0198430Y0157500D03*
X0193430Y0157500D03*
X0198430Y0162500D03*
X0193430Y0162500D03*
X0198430Y0167500D03*
X0193430Y0167500D03*
D31*
X0061270Y0182280D03*
X0170940Y0164370D03*
X0146900Y0137970D03*
X0165180Y0182400D03*
X0141170Y0164710D03*
X0170900Y0129370D03*
X0095750Y0156660D03*
X0172840Y0176110D03*
X0130590Y0162420D03*
X0159430Y0191260D03*
X0133670Y0161820D03*
X0157990Y0186140D03*
X0087690Y0142730D03*
X0067400Y0170200D03*
X0115030Y0153900D03*
X0083290Y0168340D03*
D13*
X0083430Y0197500D02*
X0068210Y0182280D01*
X0121250Y0159680D02*
X0166250Y0159680D01*
X0068210Y0182280D02*
X0061270Y0182280D01*
X0083430Y0197500D02*
X0121250Y0159680D01*
X0166250Y0159680D02*
X0170940Y0164370D01*
X0123430Y0117500D02*
X0143900Y0137970D01*
X0143900Y0137970D02*
X0146900Y0137970D01*
X0165180Y0180750D02*
X0193430Y0152500D01*
X0165180Y0182400D02*
X0165180Y0180750D01*
X0193430Y0147500D02*
X0163020Y0177910D01*
X0163020Y0197090D02*
X0163430Y0197500D01*
X0163020Y0177910D02*
X0163020Y0197090D01*
X0154370Y0177910D02*
X0141170Y0164710D01*
X0163020Y0177910D02*
X0154370Y0177910D01*
X0095750Y0156660D02*
X0052590Y0156660D01*
X0052590Y0156660D02*
X0013430Y0117500D01*
X0170900Y0129370D02*
X0158270Y0142000D01*
X0110410Y0142000D02*
X0095750Y0156660D01*
X0158270Y0142000D02*
X0110410Y0142000D01*
X0201930Y0161000D02*
X0198430Y0157500D01*
X0198430Y0167500D02*
X0189820Y0176110D01*
X0189820Y0176110D02*
X0172840Y0176110D01*
X0198430Y0152500D02*
X0200930Y0152500D01*
X0200930Y0152500D02*
X0203430Y0150000D01*
X0203430Y0150000D02*
X0203430Y0117500D01*
X0198430Y0157500D02*
X0198430Y0152500D01*
X0198430Y0167500D02*
X0201930Y0164000D01*
X0201930Y0164000D02*
X0201930Y0161000D01*
X0159430Y0191260D02*
X0130590Y0162420D01*
X0157990Y0186140D02*
X0133670Y0161820D01*
X0087690Y0142730D02*
X0058660Y0142730D01*
X0058660Y0142730D02*
X0033430Y0117500D01*
X0060730Y0170200D02*
X0033430Y0197500D01*
X0067400Y0170200D02*
X0060730Y0170200D01*
X0115030Y0153900D02*
X0101340Y0168340D01*
X0126310Y0143370D02*
X0115030Y0153900D01*
X0082970Y0168020D02*
X0083290Y0168340D01*
X0198430Y0147500D02*
X0194300Y0143370D01*
X0101340Y0168340D02*
X0083290Y0168340D01*
X0194300Y0143370D02*
X0126310Y0143370D01*
X0042910Y0168020D02*
X0082970Y0168020D01*
X0013430Y0197500D02*
X0042910Y0168020D01*
M02*
