G75*
G70*
%OFA0B0*%
%FSLAX25Y25*%
%IPPOS*%
%LPD*%
%AMOC8*
5,1,8,0,0,1.08239X$1,22.5*
%
%ADD13C,0.00600*%
%ADD17C,0.00500*%
%ADD29C,0.00390*%
%ADD30C,0.00200*%
%ADD34C,0.00800*%
%ADD41C,0.01000*%
X0010000Y0010000D02*
G01*
D13*
D34*
X0010000Y0100000D02*
X0010000Y0090000D01*
X0206860Y0100000D02*
X0010010Y0100000D01*
X0206860Y0090000D02*
X0206860Y0100000D01*
X0010000Y0090000D02*
X0206860Y0090000D01*
X0206860Y0010000D02*
X0010000Y0010000D01*
X0206860Y0020000D02*
X0206860Y0010000D01*
X0010010Y0020000D02*
X0206860Y0020000D01*
X0010000Y0010000D02*
X0010000Y0020000D01*
D29*
X0070760Y0030420D02*
X0071210Y0030250D01*
X0071360Y0030080D01*
X0071510Y0029750D01*
X0071510Y0029240D01*
X0071360Y0028900D01*
X0071210Y0028740D01*
X0070910Y0028570D01*
X0069710Y0028570D01*
X0069710Y0032110D01*
X0070760Y0032110D01*
X0071060Y0031940D01*
X0071210Y0031770D01*
X0071360Y0031430D01*
X0071360Y0031100D01*
X0071210Y0030760D01*
X0071060Y0030590D01*
X0070760Y0030420D01*
X0069710Y0030420D01*
X0073310Y0028570D02*
X0073010Y0028740D01*
X0072860Y0028900D01*
X0072710Y0029240D01*
X0072710Y0030250D01*
X0072860Y0030590D01*
X0073010Y0030760D01*
X0073310Y0030930D01*
X0073760Y0030930D01*
X0074060Y0030760D01*
X0074210Y0030590D01*
X0074360Y0030250D01*
X0074360Y0029240D01*
X0074210Y0028900D01*
X0074060Y0028740D01*
X0073760Y0028570D01*
X0073310Y0028570D01*
X0075710Y0028570D02*
X0075710Y0032110D01*
X0075710Y0030760D02*
X0076010Y0030930D01*
X0076610Y0030930D01*
X0076910Y0030760D01*
X0077060Y0030590D01*
X0077210Y0030250D01*
X0077210Y0029240D01*
X0077060Y0028900D01*
X0076910Y0028740D01*
X0076610Y0028570D01*
X0076010Y0028570D01*
X0075710Y0028740D01*
X0082760Y0028900D02*
X0082610Y0028740D01*
X0082160Y0028570D01*
X0081860Y0028570D01*
X0081410Y0028740D01*
X0081110Y0029070D01*
X0080960Y0029410D01*
X0080810Y0030080D01*
X0080810Y0030590D01*
X0080960Y0031260D01*
X0081110Y0031600D01*
X0081410Y0031940D01*
X0081860Y0032110D01*
X0082160Y0032110D01*
X0082610Y0031940D01*
X0082760Y0031770D01*
X0084560Y0028570D02*
X0084260Y0028740D01*
X0084110Y0028900D01*
X0083960Y0029240D01*
X0083960Y0030250D01*
X0084110Y0030590D01*
X0084260Y0030760D01*
X0084560Y0030930D01*
X0085010Y0030930D01*
X0085310Y0030760D01*
X0085460Y0030590D01*
X0085610Y0030250D01*
X0085610Y0029240D01*
X0085460Y0028900D01*
X0085310Y0028740D01*
X0085010Y0028570D01*
X0084560Y0028570D01*
X0088310Y0030930D02*
X0088310Y0028570D01*
X0086960Y0030930D02*
X0086960Y0029070D01*
X0087110Y0028740D01*
X0087410Y0028570D01*
X0087860Y0028570D01*
X0088160Y0028740D01*
X0088310Y0028900D01*
X0089660Y0028740D02*
X0089960Y0028570D01*
X0090560Y0028570D01*
X0090860Y0028740D01*
X0091010Y0029070D01*
X0091010Y0029240D01*
X0090860Y0029580D01*
X0090560Y0029750D01*
X0090110Y0029750D01*
X0089810Y0029920D01*
X0089660Y0030250D01*
X0089660Y0030420D01*
X0089810Y0030760D01*
X0090110Y0030930D01*
X0090560Y0030930D01*
X0090860Y0030760D01*
X0092360Y0028570D02*
X0092360Y0030930D01*
X0092360Y0032110D02*
X0092210Y0031940D01*
X0092360Y0031770D01*
X0092510Y0031940D01*
X0092360Y0032110D01*
X0092360Y0031770D01*
X0093860Y0030930D02*
X0093860Y0028570D01*
X0093860Y0030590D02*
X0094010Y0030760D01*
X0094310Y0030930D01*
X0094760Y0030930D01*
X0095060Y0030760D01*
X0095210Y0030420D01*
X0095210Y0028570D01*
X0096560Y0028740D02*
X0096860Y0028570D01*
X0097460Y0028570D01*
X0097760Y0028740D01*
X0097910Y0029070D01*
X0097910Y0029240D01*
X0097760Y0029580D01*
X0097460Y0029750D01*
X0097010Y0029750D01*
X0096710Y0029920D01*
X0096560Y0030250D01*
X0096560Y0030420D01*
X0096710Y0030760D01*
X0097010Y0030930D01*
X0097460Y0030930D01*
X0097760Y0030760D01*
X0101510Y0031770D02*
X0101660Y0031940D01*
X0101960Y0032110D01*
X0102710Y0032110D01*
X0103010Y0031940D01*
X0103160Y0031770D01*
X0103310Y0031430D01*
X0103310Y0031100D01*
X0103160Y0030590D01*
X0101360Y0028570D01*
X0103310Y0028570D01*
X0105260Y0032110D02*
X0105560Y0032110D01*
X0105860Y0031940D01*
X0106010Y0031770D01*
X0106160Y0031430D01*
X0106310Y0030760D01*
X0106310Y0029920D01*
X0106160Y0029240D01*
X0106010Y0028900D01*
X0105860Y0028740D01*
X0105560Y0028570D01*
X0105260Y0028570D01*
X0104960Y0028740D01*
X0104810Y0028900D01*
X0104660Y0029240D01*
X0104510Y0029920D01*
X0104510Y0030760D01*
X0104660Y0031430D01*
X0104810Y0031770D01*
X0104960Y0031940D01*
X0105260Y0032110D01*
X0109310Y0028570D02*
X0107510Y0028570D01*
X0108410Y0028570D02*
X0108410Y0032110D01*
X0108110Y0031600D01*
X0107810Y0031260D01*
X0107510Y0031100D01*
X0110510Y0031770D02*
X0110660Y0031940D01*
X0110960Y0032110D01*
X0111710Y0032110D01*
X0112010Y0031940D01*
X0112160Y0031770D01*
X0112310Y0031430D01*
X0112310Y0031100D01*
X0112160Y0030590D01*
X0110360Y0028570D01*
X0112310Y0028570D01*
X0068730Y0023740D02*
X0069180Y0023570D01*
X0069930Y0023570D01*
X0070230Y0023740D01*
X0070380Y0023900D01*
X0070530Y0024240D01*
X0070530Y0024580D01*
X0070380Y0024920D01*
X0070230Y0025080D01*
X0069930Y0025250D01*
X0069330Y0025420D01*
X0069030Y0025590D01*
X0068880Y0025760D01*
X0068730Y0026100D01*
X0068730Y0026430D01*
X0068880Y0026770D01*
X0069030Y0026940D01*
X0069330Y0027110D01*
X0070080Y0027110D01*
X0070530Y0026940D01*
X0071430Y0027110D02*
X0073230Y0027110D01*
X0072330Y0023570D02*
X0072330Y0027110D01*
X0074280Y0023570D02*
X0074280Y0027110D01*
X0075330Y0024580D01*
X0076380Y0027110D01*
X0076380Y0023570D01*
X0077580Y0027110D02*
X0079530Y0027110D01*
X0078480Y0025760D01*
X0078930Y0025760D01*
X0079230Y0025590D01*
X0079380Y0025420D01*
X0079530Y0025080D01*
X0079530Y0024240D01*
X0079380Y0023900D01*
X0079230Y0023740D01*
X0078930Y0023570D01*
X0078030Y0023570D01*
X0077730Y0023740D01*
X0077580Y0023900D01*
X0080730Y0026770D02*
X0080880Y0026940D01*
X0081180Y0027110D01*
X0081930Y0027110D01*
X0082230Y0026940D01*
X0082380Y0026770D01*
X0082530Y0026430D01*
X0082530Y0026100D01*
X0082380Y0025590D01*
X0080580Y0023570D01*
X0082530Y0023570D01*
X0084930Y0025420D02*
X0083880Y0025420D01*
X0083880Y0023570D02*
X0083880Y0027110D01*
X0085380Y0027110D01*
X0088230Y0023570D02*
X0086430Y0023570D01*
X0087330Y0023570D02*
X0087330Y0027110D01*
X0087030Y0026600D01*
X0086730Y0026260D01*
X0086430Y0026100D01*
X0090180Y0027110D02*
X0090480Y0027110D01*
X0090780Y0026940D01*
X0090930Y0026770D01*
X0091080Y0026430D01*
X0091230Y0025760D01*
X0091230Y0024920D01*
X0091080Y0024240D01*
X0090930Y0023900D01*
X0090780Y0023740D01*
X0090480Y0023570D01*
X0090180Y0023570D01*
X0089880Y0023740D01*
X0089730Y0023900D01*
X0089580Y0024240D01*
X0089430Y0024920D01*
X0089430Y0025760D01*
X0089580Y0026430D01*
X0089730Y0026770D01*
X0089880Y0026940D01*
X0090180Y0027110D01*
X0093180Y0027110D02*
X0093480Y0027110D01*
X0093780Y0026940D01*
X0093930Y0026770D01*
X0094080Y0026430D01*
X0094230Y0025760D01*
X0094230Y0024920D01*
X0094080Y0024240D01*
X0093930Y0023900D01*
X0093780Y0023740D01*
X0093480Y0023570D01*
X0093180Y0023570D01*
X0092880Y0023740D01*
X0092730Y0023900D01*
X0092580Y0024240D01*
X0092430Y0024920D01*
X0092430Y0025760D01*
X0092580Y0026430D01*
X0092730Y0026770D01*
X0092880Y0026940D01*
X0093180Y0027110D01*
X0097980Y0023570D02*
X0097980Y0027110D01*
X0099030Y0024580D01*
X0100080Y0027110D01*
X0100080Y0023570D01*
X0102030Y0023570D02*
X0101730Y0023740D01*
X0101580Y0023900D01*
X0101430Y0024240D01*
X0101430Y0025250D01*
X0101580Y0025590D01*
X0101730Y0025760D01*
X0102030Y0025930D01*
X0102480Y0025930D01*
X0102780Y0025760D01*
X0102930Y0025590D01*
X0103080Y0025250D01*
X0103080Y0024240D01*
X0102930Y0023900D01*
X0102780Y0023740D01*
X0102480Y0023570D01*
X0102030Y0023570D01*
X0105780Y0023570D02*
X0105780Y0027110D01*
X0105780Y0023740D02*
X0105480Y0023570D01*
X0104880Y0023570D01*
X0104580Y0023740D01*
X0104430Y0023900D01*
X0104280Y0024240D01*
X0104280Y0025250D01*
X0104430Y0025590D01*
X0104580Y0025760D01*
X0104880Y0025930D01*
X0105480Y0025930D01*
X0105780Y0025760D01*
X0108630Y0025930D02*
X0108630Y0023570D01*
X0107280Y0025930D02*
X0107280Y0024070D01*
X0107430Y0023740D01*
X0107730Y0023570D01*
X0108180Y0023570D01*
X0108480Y0023740D01*
X0108630Y0023900D01*
X0110580Y0023570D02*
X0110280Y0023740D01*
X0110130Y0024070D01*
X0110130Y0027110D01*
X0112980Y0023740D02*
X0112680Y0023570D01*
X0112080Y0023570D01*
X0111780Y0023740D01*
X0111630Y0024070D01*
X0111630Y0025420D01*
X0111780Y0025760D01*
X0112080Y0025930D01*
X0112680Y0025930D01*
X0112980Y0025760D01*
X0113130Y0025420D01*
X0113130Y0025080D01*
X0111630Y0024750D01*
D30*
X0059730Y0047660D02*
X0059730Y0045690D01*
X0059730Y0045690D02*
X0047130Y0045690D01*
X0047130Y0045690D02*
X0047130Y0047660D01*
X0047130Y0067340D02*
X0047130Y0069310D01*
X0047130Y0069310D02*
X0059730Y0069310D01*
X0059730Y0069310D02*
X0059730Y0067340D01*
X0049510Y0067350D02*
X0057380Y0067350D01*
X0049510Y0067340D02*
X0057380Y0067340D01*
X0049510Y0067340D02*
X0057380Y0067340D01*
X0049510Y0067340D02*
X0057380Y0067340D01*
X0057370Y0047660D02*
X0049500Y0047660D01*
X0057370Y0047660D02*
X0049500Y0047660D01*
X0057370Y0047660D02*
X0049500Y0047660D01*
X0057370Y0047660D02*
X0049500Y0047660D01*
X0059730Y0067340D02*
X0059730Y0047660D01*
X0059730Y0047660D02*
X0047130Y0047660D01*
X0047130Y0047660D02*
X0047130Y0067340D01*
X0047130Y0067340D02*
X0059730Y0067340D01*
D34*
X0180650Y0060690D02*
X0183020Y0060690D01*
X0183020Y0060690D02*
X0183020Y0084310D01*
X0183020Y0084310D02*
X0180650Y0084310D01*
X0168840Y0060690D02*
X0170810Y0060690D01*
X0168840Y0060690D02*
X0168840Y0084310D01*
X0168840Y0084310D02*
X0170810Y0084310D01*
X0171210Y0049310D02*
X0168840Y0049310D01*
X0168840Y0049310D02*
X0168840Y0025690D01*
X0168840Y0025690D02*
X0171210Y0025690D01*
X0183020Y0049310D02*
X0181050Y0049310D01*
X0183020Y0049310D02*
X0183020Y0025690D01*
X0183020Y0025690D02*
X0181050Y0025690D01*
D17*
X0017430Y0081000D02*
X0024430Y0081000D01*
X0024430Y0081000D02*
X0024430Y0069000D01*
X0024430Y0069000D02*
X0017430Y0069000D01*
X0017430Y0069000D02*
X0017430Y0081000D01*
X0014930Y0057000D02*
X0014920Y0056910D01*
X0014890Y0056810D01*
X0014840Y0056730D01*
X0014780Y0056650D01*
X0014700Y0056590D01*
X0014620Y0056540D01*
X0014530Y0056520D01*
X0014430Y0056510D01*
X0014340Y0056510D01*
X0014250Y0056540D01*
X0014160Y0056590D01*
X0014090Y0056650D01*
X0014020Y0056720D01*
X0013980Y0056810D01*
X0013950Y0056900D01*
X0013940Y0057000D01*
X0013940Y0057090D01*
X0013970Y0057180D01*
X0014010Y0057270D01*
X0014080Y0057340D01*
X0014150Y0057410D01*
X0014230Y0057450D01*
X0014330Y0057480D01*
X0014420Y0057490D01*
X0014510Y0057490D01*
X0014610Y0057460D01*
X0014690Y0057420D01*
X0014770Y0057360D01*
X0014830Y0057280D01*
X0014880Y0057200D01*
X0014910Y0057110D01*
X0014920Y0057010D01*
X0014930Y0057000D01*
X0018930Y0057000D02*
X0014930Y0057000D01*
X0014930Y0057000D02*
X0014930Y0063000D01*
X0014930Y0063000D02*
X0018930Y0063000D01*
X0022930Y0063000D02*
X0026930Y0063000D01*
X0026930Y0063000D02*
X0026930Y0057000D01*
X0026930Y0057000D02*
X0022930Y0057000D01*
X0135930Y0079000D02*
X0135920Y0078910D01*
X0135890Y0078810D01*
X0135840Y0078730D01*
X0135780Y0078650D01*
X0135700Y0078590D01*
X0135620Y0078540D01*
X0135530Y0078520D01*
X0135430Y0078510D01*
X0135340Y0078510D01*
X0135250Y0078540D01*
X0135160Y0078590D01*
X0135090Y0078650D01*
X0135020Y0078720D01*
X0134980Y0078810D01*
X0134950Y0078900D01*
X0134940Y0079000D01*
X0134940Y0079090D01*
X0134970Y0079180D01*
X0135010Y0079270D01*
X0135080Y0079340D01*
X0135150Y0079410D01*
X0135230Y0079450D01*
X0135330Y0079480D01*
X0135420Y0079490D01*
X0135510Y0079490D01*
X0135610Y0079460D01*
X0135690Y0079420D01*
X0135770Y0079360D01*
X0135830Y0079280D01*
X0135880Y0079200D01*
X0135910Y0079110D01*
X0135920Y0079010D01*
X0135930Y0079000D01*
X0135430Y0074500D02*
X0135430Y0078500D01*
X0135430Y0078500D02*
X0141430Y0078500D01*
X0141430Y0078500D02*
X0141430Y0074500D01*
X0141430Y0070500D02*
X0141430Y0066500D01*
X0141430Y0066500D02*
X0135430Y0066500D01*
X0135430Y0066500D02*
X0135430Y0070500D01*
X0143330Y0079000D02*
X0143320Y0078910D01*
X0143290Y0078810D01*
X0143240Y0078730D01*
X0143180Y0078650D01*
X0143100Y0078590D01*
X0143020Y0078540D01*
X0142930Y0078520D01*
X0142830Y0078510D01*
X0142740Y0078510D01*
X0142650Y0078540D01*
X0142560Y0078590D01*
X0142490Y0078650D01*
X0142420Y0078720D01*
X0142380Y0078810D01*
X0142350Y0078900D01*
X0142340Y0079000D01*
X0142340Y0079090D01*
X0142370Y0079180D01*
X0142410Y0079270D01*
X0142480Y0079340D01*
X0142550Y0079410D01*
X0142630Y0079450D01*
X0142730Y0079480D01*
X0142820Y0079490D01*
X0142910Y0079490D01*
X0143010Y0079460D01*
X0143090Y0079420D01*
X0143170Y0079360D01*
X0143230Y0079280D01*
X0143280Y0079200D01*
X0143310Y0079110D01*
X0143320Y0079010D01*
X0143330Y0079000D01*
X0142830Y0074500D02*
X0142830Y0078500D01*
X0142830Y0078500D02*
X0148830Y0078500D01*
X0148830Y0078500D02*
X0148830Y0074500D01*
X0148830Y0070500D02*
X0148830Y0066500D01*
X0148830Y0066500D02*
X0142830Y0066500D01*
X0142830Y0066500D02*
X0142830Y0070500D01*
X0127930Y0039500D02*
X0127920Y0039410D01*
X0127890Y0039310D01*
X0127840Y0039230D01*
X0127780Y0039150D01*
X0127700Y0039090D01*
X0127620Y0039040D01*
X0127530Y0039020D01*
X0127430Y0039010D01*
X0127340Y0039010D01*
X0127250Y0039040D01*
X0127160Y0039090D01*
X0127090Y0039150D01*
X0127020Y0039220D01*
X0126980Y0039310D01*
X0126950Y0039400D01*
X0126940Y0039500D01*
X0126940Y0039590D01*
X0126970Y0039680D01*
X0127010Y0039770D01*
X0127080Y0039840D01*
X0127150Y0039910D01*
X0127230Y0039950D01*
X0127330Y0039980D01*
X0127420Y0039990D01*
X0127510Y0039990D01*
X0127610Y0039960D01*
X0127690Y0039920D01*
X0127770Y0039860D01*
X0127830Y0039780D01*
X0127880Y0039700D01*
X0127910Y0039610D01*
X0127920Y0039510D01*
X0127930Y0039500D01*
X0127430Y0035000D02*
X0127430Y0039000D01*
X0127430Y0039000D02*
X0133430Y0039000D01*
X0133430Y0039000D02*
X0133430Y0035000D01*
X0133430Y0031000D02*
X0133430Y0027000D01*
X0133430Y0027000D02*
X0127430Y0027000D01*
X0127430Y0027000D02*
X0127430Y0031000D01*
X0081930Y0041000D02*
X0081920Y0040910D01*
X0081890Y0040810D01*
X0081840Y0040730D01*
X0081780Y0040650D01*
X0081700Y0040590D01*
X0081620Y0040540D01*
X0081530Y0040520D01*
X0081430Y0040510D01*
X0081340Y0040510D01*
X0081250Y0040540D01*
X0081160Y0040590D01*
X0081090Y0040650D01*
X0081020Y0040720D01*
X0080980Y0040810D01*
X0080950Y0040900D01*
X0080940Y0041000D01*
X0080940Y0041090D01*
X0080970Y0041180D01*
X0081010Y0041270D01*
X0081080Y0041340D01*
X0081150Y0041410D01*
X0081230Y0041450D01*
X0081330Y0041480D01*
X0081420Y0041490D01*
X0081510Y0041490D01*
X0081610Y0041460D01*
X0081690Y0041420D01*
X0081770Y0041360D01*
X0081830Y0041280D01*
X0081880Y0041200D01*
X0081910Y0041110D01*
X0081920Y0041010D01*
X0081930Y0041000D01*
X0081430Y0045500D02*
X0081430Y0041500D01*
X0081430Y0041500D02*
X0075430Y0041500D01*
X0075430Y0041500D02*
X0075430Y0045500D01*
X0075430Y0049500D02*
X0075430Y0053500D01*
X0075430Y0053500D02*
X0081430Y0053500D01*
X0081430Y0053500D02*
X0081430Y0049500D01*
X0083830Y0074400D02*
X0083820Y0074310D01*
X0083790Y0074210D01*
X0083740Y0074130D01*
X0083680Y0074050D01*
X0083600Y0073990D01*
X0083520Y0073940D01*
X0083430Y0073920D01*
X0083330Y0073910D01*
X0083240Y0073910D01*
X0083150Y0073940D01*
X0083060Y0073990D01*
X0082990Y0074050D01*
X0082920Y0074120D01*
X0082880Y0074210D01*
X0082850Y0074300D01*
X0082840Y0074400D01*
X0082840Y0074490D01*
X0082870Y0074580D01*
X0082910Y0074670D01*
X0082980Y0074740D01*
X0083050Y0074810D01*
X0083130Y0074850D01*
X0083230Y0074880D01*
X0083320Y0074890D01*
X0083410Y0074890D01*
X0083510Y0074860D01*
X0083590Y0074820D01*
X0083670Y0074760D01*
X0083730Y0074680D01*
X0083780Y0074600D01*
X0083810Y0074510D01*
X0083820Y0074410D01*
X0083830Y0074400D01*
X0078830Y0074400D02*
X0082830Y0074400D01*
X0082830Y0074400D02*
X0082830Y0068400D01*
X0082830Y0068400D02*
X0078830Y0068400D01*
X0074830Y0068400D02*
X0070830Y0068400D01*
X0070830Y0068400D02*
X0070830Y0074400D01*
X0070830Y0074400D02*
X0074830Y0074400D01*
X0088730Y0079100D02*
X0088720Y0079010D01*
X0088690Y0078910D01*
X0088640Y0078830D01*
X0088580Y0078750D01*
X0088500Y0078690D01*
X0088420Y0078640D01*
X0088330Y0078620D01*
X0088230Y0078610D01*
X0088140Y0078610D01*
X0088050Y0078640D01*
X0087960Y0078690D01*
X0087890Y0078750D01*
X0087820Y0078820D01*
X0087780Y0078910D01*
X0087750Y0079000D01*
X0087740Y0079100D01*
X0087740Y0079190D01*
X0087770Y0079280D01*
X0087810Y0079370D01*
X0087880Y0079440D01*
X0087950Y0079510D01*
X0088030Y0079550D01*
X0088130Y0079580D01*
X0088220Y0079590D01*
X0088310Y0079590D01*
X0088410Y0079560D01*
X0088490Y0079520D01*
X0088570Y0079460D01*
X0088630Y0079380D01*
X0088680Y0079300D01*
X0088710Y0079210D01*
X0088720Y0079110D01*
X0088730Y0079100D01*
X0092730Y0079100D02*
X0088730Y0079100D01*
X0088730Y0079100D02*
X0088730Y0085100D01*
X0088730Y0085100D02*
X0092730Y0085100D01*
X0096730Y0085100D02*
X0100730Y0085100D01*
X0100730Y0085100D02*
X0100730Y0079100D01*
X0100730Y0079100D02*
X0096730Y0079100D01*
X0152430Y0039500D02*
X0152420Y0039410D01*
X0152390Y0039310D01*
X0152340Y0039230D01*
X0152280Y0039150D01*
X0152200Y0039090D01*
X0152120Y0039040D01*
X0152030Y0039020D01*
X0151930Y0039010D01*
X0151840Y0039010D01*
X0151750Y0039040D01*
X0151660Y0039090D01*
X0151590Y0039150D01*
X0151520Y0039220D01*
X0151480Y0039310D01*
X0151450Y0039400D01*
X0151440Y0039500D01*
X0151440Y0039590D01*
X0151470Y0039680D01*
X0151510Y0039770D01*
X0151580Y0039840D01*
X0151650Y0039910D01*
X0151730Y0039950D01*
X0151830Y0039980D01*
X0151920Y0039990D01*
X0152010Y0039990D01*
X0152110Y0039960D01*
X0152190Y0039920D01*
X0152270Y0039860D01*
X0152330Y0039780D01*
X0152380Y0039700D01*
X0152410Y0039610D01*
X0152420Y0039510D01*
X0152430Y0039500D01*
X0156430Y0039500D02*
X0152430Y0039500D01*
X0152430Y0039500D02*
X0152430Y0045500D01*
X0152430Y0045500D02*
X0156430Y0045500D01*
X0160430Y0045500D02*
X0164430Y0045500D01*
X0164430Y0045500D02*
X0164430Y0039500D01*
X0164430Y0039500D02*
X0160430Y0039500D01*
X0165430Y0037500D02*
X0165420Y0037410D01*
X0165390Y0037310D01*
X0165340Y0037230D01*
X0165280Y0037150D01*
X0165200Y0037090D01*
X0165120Y0037040D01*
X0165030Y0037020D01*
X0164930Y0037010D01*
X0164840Y0037010D01*
X0164750Y0037040D01*
X0164660Y0037090D01*
X0164590Y0037150D01*
X0164520Y0037220D01*
X0164480Y0037310D01*
X0164450Y0037400D01*
X0164440Y0037500D01*
X0164440Y0037590D01*
X0164470Y0037680D01*
X0164510Y0037770D01*
X0164580Y0037840D01*
X0164650Y0037910D01*
X0164730Y0037950D01*
X0164830Y0037980D01*
X0164920Y0037990D01*
X0165010Y0037990D01*
X0165110Y0037960D01*
X0165190Y0037920D01*
X0165270Y0037860D01*
X0165330Y0037780D01*
X0165380Y0037700D01*
X0165410Y0037610D01*
X0165420Y0037510D01*
X0165430Y0037500D01*
X0160430Y0037500D02*
X0164430Y0037500D01*
X0164430Y0037500D02*
X0164430Y0031500D01*
X0164430Y0031500D02*
X0160430Y0031500D01*
X0156430Y0031500D02*
X0152430Y0031500D01*
X0152430Y0031500D02*
X0152430Y0037500D01*
X0152430Y0037500D02*
X0156430Y0037500D01*
X0060430Y0083000D02*
X0060420Y0082910D01*
X0060390Y0082810D01*
X0060340Y0082730D01*
X0060280Y0082650D01*
X0060200Y0082590D01*
X0060120Y0082540D01*
X0060030Y0082520D01*
X0059930Y0082510D01*
X0059840Y0082510D01*
X0059750Y0082540D01*
X0059660Y0082590D01*
X0059590Y0082650D01*
X0059520Y0082720D01*
X0059480Y0082810D01*
X0059450Y0082900D01*
X0059440Y0083000D01*
X0059440Y0083090D01*
X0059470Y0083180D01*
X0059510Y0083270D01*
X0059580Y0083340D01*
X0059650Y0083410D01*
X0059730Y0083450D01*
X0059830Y0083480D01*
X0059920Y0083490D01*
X0060010Y0083490D01*
X0060110Y0083460D01*
X0060190Y0083420D01*
X0060270Y0083360D01*
X0060330Y0083280D01*
X0060380Y0083200D01*
X0060410Y0083110D01*
X0060420Y0083010D01*
X0060430Y0083000D01*
X0055430Y0083000D02*
X0059430Y0083000D01*
X0059430Y0083000D02*
X0059430Y0077000D01*
X0059430Y0077000D02*
X0055430Y0077000D01*
X0051430Y0077000D02*
X0047430Y0077000D01*
X0047430Y0077000D02*
X0047430Y0083000D01*
X0047430Y0083000D02*
X0051430Y0083000D01*
X0060430Y0035500D02*
X0060420Y0035410D01*
X0060390Y0035310D01*
X0060340Y0035230D01*
X0060280Y0035150D01*
X0060200Y0035090D01*
X0060120Y0035040D01*
X0060030Y0035020D01*
X0059930Y0035010D01*
X0059840Y0035010D01*
X0059750Y0035040D01*
X0059660Y0035090D01*
X0059590Y0035150D01*
X0059520Y0035220D01*
X0059480Y0035310D01*
X0059450Y0035400D01*
X0059440Y0035500D01*
X0059440Y0035590D01*
X0059470Y0035680D01*
X0059510Y0035770D01*
X0059580Y0035840D01*
X0059650Y0035910D01*
X0059730Y0035950D01*
X0059830Y0035980D01*
X0059920Y0035990D01*
X0060010Y0035990D01*
X0060110Y0035960D01*
X0060190Y0035920D01*
X0060270Y0035860D01*
X0060330Y0035780D01*
X0060380Y0035700D01*
X0060410Y0035610D01*
X0060420Y0035510D01*
X0060430Y0035500D01*
X0055430Y0035500D02*
X0059430Y0035500D01*
X0059430Y0035500D02*
X0059430Y0029500D01*
X0059430Y0029500D02*
X0055430Y0029500D01*
X0051430Y0029500D02*
X0047430Y0029500D01*
X0047430Y0029500D02*
X0047430Y0035500D01*
X0047430Y0035500D02*
X0051430Y0035500D01*
X0060930Y0058000D02*
X0060930Y0067000D01*
X0060930Y0067000D02*
X0065930Y0067000D01*
X0065930Y0067000D02*
X0065930Y0058000D01*
X0065930Y0058000D02*
X0060930Y0058000D01*
X0065930Y0056500D02*
X0065930Y0047500D01*
X0065930Y0047500D02*
X0060930Y0047500D01*
X0060930Y0047500D02*
X0060930Y0056500D01*
X0060930Y0056500D02*
X0065930Y0056500D01*
D34*
X0094700Y0070350D02*
X0094660Y0070040D01*
X0094570Y0069740D01*
X0094420Y0069460D01*
X0094220Y0069210D01*
X0093980Y0069010D01*
X0093700Y0068860D01*
X0093400Y0068770D01*
X0093090Y0068740D01*
X0092780Y0068760D01*
X0092480Y0068850D01*
X0092200Y0069000D01*
X0091950Y0069200D01*
X0091750Y0069440D01*
X0091600Y0069720D01*
X0091500Y0070020D01*
X0091470Y0070330D01*
X0091490Y0070640D01*
X0091580Y0070940D01*
X0091720Y0071220D01*
X0091920Y0071470D01*
X0092160Y0071680D01*
X0092440Y0071830D01*
X0092740Y0071930D01*
X0093050Y0071960D01*
X0093360Y0071940D01*
X0093660Y0071860D01*
X0093940Y0071710D01*
X0094190Y0071520D01*
X0094400Y0071280D01*
X0094550Y0071000D01*
X0094650Y0070700D01*
X0094690Y0070390D01*
X0094700Y0070350D01*
X0093470Y0070350D02*
X0093460Y0070280D01*
X0093440Y0070210D01*
X0093400Y0070140D01*
X0093350Y0070080D01*
X0093290Y0070030D01*
X0093230Y0070000D01*
X0093150Y0069970D01*
X0093080Y0069970D01*
X0093010Y0069970D01*
X0092940Y0069990D01*
X0092870Y0070030D01*
X0092810Y0070080D01*
X0092760Y0070130D01*
X0092730Y0070200D01*
X0092700Y0070270D01*
X0092700Y0070350D01*
X0092700Y0070420D01*
X0092720Y0070490D01*
X0092760Y0070560D01*
X0092800Y0070620D01*
X0092860Y0070670D01*
X0092930Y0070700D01*
X0093000Y0070730D01*
X0093080Y0070730D01*
X0093140Y0070730D01*
X0093220Y0070710D01*
X0093280Y0070670D01*
X0093340Y0070630D01*
X0093390Y0070570D01*
X0093430Y0070500D01*
X0093460Y0070430D01*
X0093460Y0070360D01*
X0093470Y0070350D01*
X0094190Y0070350D02*
X0094160Y0070140D01*
X0094100Y0069930D01*
X0094000Y0069740D01*
X0093860Y0069570D01*
X0093700Y0069430D01*
X0093510Y0069330D01*
X0093300Y0069270D01*
X0093080Y0069250D01*
X0092880Y0069260D01*
X0092670Y0069330D01*
X0092480Y0069430D01*
X0092310Y0069560D01*
X0092170Y0069730D01*
X0092060Y0069920D01*
X0092000Y0070120D01*
X0091980Y0070340D01*
X0091990Y0070550D01*
X0092050Y0070750D01*
X0092150Y0070950D01*
X0092290Y0071120D01*
X0092450Y0071260D01*
X0092640Y0071360D01*
X0092850Y0071430D01*
X0093060Y0071450D01*
X0093270Y0071440D01*
X0093480Y0071380D01*
X0093670Y0071280D01*
X0093840Y0071150D01*
X0093980Y0070980D01*
X0094090Y0070800D01*
X0094160Y0070590D01*
X0094180Y0070380D01*
X0094190Y0070350D01*
X0097010Y0068780D02*
X0122210Y0068780D01*
X0122210Y0068780D02*
X0122210Y0041220D01*
X0122210Y0041220D02*
X0094650Y0041220D01*
X0094650Y0041220D02*
X0094650Y0066420D01*
X0097010Y0068780D02*
X0094650Y0066420D01*
D17*
X0165430Y0063000D02*
X0165420Y0062910D01*
X0165390Y0062810D01*
X0165340Y0062730D01*
X0165280Y0062650D01*
X0165200Y0062590D01*
X0165120Y0062540D01*
X0165030Y0062520D01*
X0164930Y0062510D01*
X0164840Y0062510D01*
X0164750Y0062540D01*
X0164660Y0062590D01*
X0164590Y0062650D01*
X0164520Y0062720D01*
X0164480Y0062810D01*
X0164450Y0062900D01*
X0164440Y0063000D01*
X0164440Y0063090D01*
X0164470Y0063180D01*
X0164510Y0063270D01*
X0164580Y0063340D01*
X0164650Y0063410D01*
X0164730Y0063450D01*
X0164830Y0063480D01*
X0164920Y0063490D01*
X0165010Y0063490D01*
X0165110Y0063460D01*
X0165190Y0063420D01*
X0165270Y0063360D01*
X0165330Y0063280D01*
X0165380Y0063200D01*
X0165410Y0063110D01*
X0165420Y0063010D01*
X0165430Y0063000D01*
X0160430Y0063000D02*
X0164430Y0063000D01*
X0164430Y0063000D02*
X0164430Y0057000D01*
X0164430Y0057000D02*
X0160430Y0057000D01*
X0156430Y0057000D02*
X0152430Y0057000D01*
X0152430Y0057000D02*
X0152430Y0063000D01*
X0152430Y0063000D02*
X0156430Y0063000D01*
X0152430Y0049000D02*
X0152420Y0048910D01*
X0152390Y0048810D01*
X0152340Y0048730D01*
X0152280Y0048650D01*
X0152200Y0048590D01*
X0152120Y0048540D01*
X0152030Y0048520D01*
X0151930Y0048510D01*
X0151840Y0048510D01*
X0151750Y0048540D01*
X0151660Y0048590D01*
X0151590Y0048650D01*
X0151520Y0048720D01*
X0151480Y0048810D01*
X0151450Y0048900D01*
X0151440Y0049000D01*
X0151440Y0049090D01*
X0151470Y0049180D01*
X0151510Y0049270D01*
X0151580Y0049340D01*
X0151650Y0049410D01*
X0151730Y0049450D01*
X0151830Y0049480D01*
X0151920Y0049490D01*
X0152010Y0049490D01*
X0152110Y0049460D01*
X0152190Y0049420D01*
X0152270Y0049360D01*
X0152330Y0049280D01*
X0152380Y0049200D01*
X0152410Y0049110D01*
X0152420Y0049010D01*
X0152430Y0049000D01*
X0156430Y0049000D02*
X0152430Y0049000D01*
X0152430Y0049000D02*
X0152430Y0055000D01*
X0152430Y0055000D02*
X0156430Y0055000D01*
X0160430Y0055000D02*
X0164430Y0055000D01*
X0164430Y0055000D02*
X0164430Y0049000D01*
X0164430Y0049000D02*
X0160430Y0049000D01*
D34*
X0198690Y0040040D02*
X0201050Y0037280D01*
X0201050Y0037280D02*
X0196720Y0037280D01*
X0196720Y0037280D02*
X0198690Y0040040D01*
X0188930Y0068300D02*
X0188930Y0041700D01*
X0202930Y0068300D02*
X0202930Y0041700D01*
X0188930Y0068300D02*
X0202930Y0068300D01*
X0202930Y0041700D02*
X0188930Y0041700D01*
X0205380Y0050280D02*
X0205380Y0046730D01*
X0205380Y0059720D02*
X0205380Y0062870D01*
X0205380Y0047130D02*
X0205380Y0027440D01*
X0205380Y0082560D02*
X0205380Y0062870D01*
X0186480Y0027440D02*
X0186480Y0082560D01*
X0205380Y0082560D02*
X0186480Y0082560D01*
X0205380Y0027440D02*
X0186480Y0027440D01*
X0042760Y0043620D02*
X0042570Y0043240D01*
X0042380Y0043050D01*
X0042000Y0042860D01*
X0041810Y0042860D01*
X0041430Y0043050D01*
X0041240Y0043240D01*
X0041050Y0043620D01*
X0041050Y0044390D01*
X0041240Y0044770D01*
X0041430Y0044960D01*
X0041810Y0045150D01*
X0042000Y0045150D01*
X0042380Y0044960D01*
X0042570Y0044770D01*
X0042760Y0044390D01*
X0042760Y0043620D01*
X0042950Y0043240D01*
X0043140Y0043050D01*
X0043530Y0042860D01*
X0044290Y0042860D01*
X0044670Y0043050D01*
X0044860Y0043240D01*
X0045050Y0043620D01*
X0045050Y0044390D01*
X0044860Y0044770D01*
X0044670Y0044960D01*
X0044290Y0045150D01*
X0043530Y0045150D01*
X0043140Y0044960D01*
X0042950Y0044770D01*
X0042760Y0044390D01*
X0045050Y0046860D02*
X0041050Y0046860D01*
X0043910Y0048200D01*
X0041050Y0049530D01*
X0045050Y0049530D01*
X0045050Y0051430D02*
X0041050Y0051430D01*
X0042950Y0051430D02*
X0042950Y0053720D01*
X0045050Y0053720D02*
X0041050Y0053720D01*
X0042380Y0055240D02*
X0042380Y0057340D01*
X0045050Y0055240D01*
X0045050Y0057340D01*
X0162720Y0066860D02*
X0163000Y0067720D01*
X0163290Y0068000D01*
X0163860Y0068290D01*
X0164720Y0068290D01*
X0165290Y0068000D01*
X0165570Y0067720D01*
X0165860Y0067140D01*
X0165860Y0064860D01*
X0159860Y0064860D01*
X0159860Y0066860D01*
X0160140Y0067430D01*
X0160430Y0067720D01*
X0161000Y0068000D01*
X0161570Y0068000D01*
X0162140Y0067720D01*
X0162430Y0067430D01*
X0162720Y0066860D01*
X0162720Y0064860D01*
X0159860Y0072000D02*
X0159860Y0073140D01*
X0160140Y0073720D01*
X0160720Y0074290D01*
X0161860Y0074570D01*
X0163860Y0074570D01*
X0165000Y0074290D01*
X0165570Y0073720D01*
X0165860Y0073140D01*
X0165860Y0072000D01*
X0165570Y0071430D01*
X0165000Y0070860D01*
X0163860Y0070570D01*
X0161860Y0070570D01*
X0160720Y0070860D01*
X0160140Y0071430D01*
X0159860Y0072000D01*
X0159860Y0078290D02*
X0159860Y0079430D01*
X0160140Y0080010D01*
X0160720Y0080580D01*
X0161860Y0080860D01*
X0163860Y0080860D01*
X0165000Y0080580D01*
X0165570Y0080010D01*
X0165860Y0079430D01*
X0165860Y0078290D01*
X0165570Y0077720D01*
X0165000Y0077150D01*
X0163860Y0076860D01*
X0161860Y0076860D01*
X0160720Y0077150D01*
X0160140Y0077720D01*
X0159860Y0078290D01*
X0159860Y0082580D02*
X0159860Y0086010D01*
X0165860Y0084300D02*
X0159860Y0084300D01*
X0156650Y0023070D02*
X0154650Y0025930D01*
X0153220Y0023070D02*
X0153220Y0029070D01*
X0155500Y0029070D01*
X0156080Y0028790D01*
X0156360Y0028500D01*
X0156650Y0027930D01*
X0156650Y0027070D01*
X0156360Y0026500D01*
X0156080Y0026210D01*
X0155500Y0025930D01*
X0153220Y0025930D01*
X0158930Y0023360D02*
X0159790Y0023070D01*
X0161220Y0023070D01*
X0161790Y0023360D01*
X0162080Y0023640D01*
X0162360Y0024210D01*
X0162360Y0024790D01*
X0162080Y0025360D01*
X0161790Y0025640D01*
X0161220Y0025930D01*
X0160080Y0026210D01*
X0159500Y0026500D01*
X0159220Y0026790D01*
X0158930Y0027360D01*
X0158930Y0027930D01*
X0159220Y0028500D01*
X0159500Y0028790D01*
X0160080Y0029070D01*
X0161500Y0029070D01*
X0162360Y0028790D01*
X0164070Y0029070D02*
X0167500Y0029070D01*
X0165790Y0023070D02*
X0165790Y0029070D01*
D17*
X0021820Y0068280D02*
X0021940Y0068630D01*
X0021940Y0069230D01*
X0021820Y0069470D01*
X0021700Y0069590D01*
X0021470Y0069700D01*
X0021230Y0069700D01*
X0020990Y0069590D01*
X0020870Y0069470D01*
X0020750Y0069230D01*
X0020630Y0068750D01*
X0020510Y0068510D01*
X0020390Y0068400D01*
X0020160Y0068280D01*
X0019920Y0068280D01*
X0019680Y0068400D01*
X0019560Y0068510D01*
X0019440Y0068750D01*
X0019440Y0069350D01*
X0019560Y0069700D01*
X0021940Y0070780D02*
X0019440Y0070780D01*
X0019440Y0071730D01*
X0019560Y0071970D01*
X0019680Y0072080D01*
X0019920Y0072200D01*
X0020280Y0072200D01*
X0020510Y0072080D01*
X0020630Y0071970D01*
X0020750Y0071730D01*
X0020750Y0070780D01*
X0019440Y0074350D02*
X0019440Y0073870D01*
X0019560Y0073630D01*
X0019680Y0073510D01*
X0020040Y0073280D01*
X0020510Y0073160D01*
X0021470Y0073160D01*
X0021700Y0073280D01*
X0021820Y0073390D01*
X0021940Y0073630D01*
X0021940Y0074110D01*
X0021820Y0074350D01*
X0021700Y0074470D01*
X0021470Y0074580D01*
X0020870Y0074580D01*
X0020630Y0074470D01*
X0020510Y0074350D01*
X0020390Y0074110D01*
X0020390Y0073630D01*
X0020510Y0073390D01*
X0020630Y0073280D01*
X0020870Y0073160D01*
X0019680Y0075540D02*
X0019560Y0075660D01*
X0019440Y0075890D01*
X0019440Y0076490D01*
X0019560Y0076730D01*
X0019680Y0076850D01*
X0019920Y0076960D01*
X0020160Y0076960D01*
X0020510Y0076850D01*
X0021940Y0075420D01*
X0021940Y0076960D01*
X0019440Y0078510D02*
X0019440Y0078750D01*
X0019560Y0078990D01*
X0019680Y0079110D01*
X0019920Y0079230D01*
X0020390Y0079340D01*
X0020990Y0079340D01*
X0021470Y0079230D01*
X0021700Y0079110D01*
X0021820Y0078990D01*
X0021940Y0078750D01*
X0021940Y0078510D01*
X0021820Y0078270D01*
X0021700Y0078150D01*
X0021470Y0078040D01*
X0020990Y0077920D01*
X0020390Y0077920D01*
X0019920Y0078040D01*
X0019680Y0078150D01*
X0019560Y0078270D01*
X0019440Y0078510D01*
X0019440Y0081610D02*
X0019440Y0080420D01*
X0020630Y0080300D01*
X0020510Y0080420D01*
X0020390Y0080650D01*
X0020390Y0081250D01*
X0020510Y0081490D01*
X0020630Y0081610D01*
X0020870Y0081720D01*
X0021470Y0081720D01*
X0021700Y0081610D01*
X0021820Y0081490D01*
X0021940Y0081250D01*
X0021940Y0080650D01*
X0021820Y0080420D01*
X0021700Y0080300D01*
D34*
X0091200Y0051360D02*
X0091660Y0051200D01*
X0092420Y0051200D01*
X0092720Y0051360D01*
X0092880Y0051510D01*
X0093030Y0051810D01*
X0093030Y0052120D01*
X0092880Y0052420D01*
X0092720Y0052580D01*
X0092420Y0052730D01*
X0091810Y0052880D01*
X0091500Y0053030D01*
X0091350Y0053190D01*
X0091200Y0053490D01*
X0091200Y0053800D01*
X0091350Y0054100D01*
X0091500Y0054250D01*
X0091810Y0054400D01*
X0092570Y0054400D01*
X0093030Y0054250D01*
X0093940Y0054400D02*
X0095770Y0054400D01*
X0094860Y0051200D02*
X0094860Y0054400D01*
X0096840Y0051200D02*
X0096840Y0054400D01*
X0097910Y0052120D01*
X0098980Y0054400D01*
X0098980Y0051200D01*
X0100200Y0054400D02*
X0102180Y0054400D01*
X0101110Y0053190D01*
X0101570Y0053190D01*
X0101870Y0053030D01*
X0102030Y0052880D01*
X0102180Y0052580D01*
X0102180Y0051810D01*
X0102030Y0051510D01*
X0101870Y0051360D01*
X0101570Y0051200D01*
X0100650Y0051200D01*
X0100350Y0051360D01*
X0100200Y0051510D01*
X0103400Y0054100D02*
X0103550Y0054250D01*
X0103860Y0054400D01*
X0104620Y0054400D01*
X0104920Y0054250D01*
X0105080Y0054100D01*
X0105230Y0053800D01*
X0105230Y0053490D01*
X0105080Y0053030D01*
X0103250Y0051200D01*
X0105230Y0051200D01*
X0107670Y0052880D02*
X0106600Y0052880D01*
X0106600Y0051200D02*
X0106600Y0054400D01*
X0108130Y0054400D01*
X0111020Y0051200D02*
X0109190Y0051200D01*
X0110100Y0051200D02*
X0110100Y0054400D01*
X0109800Y0053950D01*
X0109490Y0053640D01*
X0109190Y0053490D01*
X0113000Y0054400D02*
X0113310Y0054400D01*
X0113610Y0054250D01*
X0113760Y0054100D01*
X0113920Y0053800D01*
X0114070Y0053190D01*
X0114070Y0052420D01*
X0113920Y0051810D01*
X0113760Y0051510D01*
X0113610Y0051360D01*
X0113310Y0051200D01*
X0113000Y0051200D01*
X0112700Y0051360D01*
X0112540Y0051510D01*
X0112390Y0051810D01*
X0112240Y0052420D01*
X0112240Y0053190D01*
X0112390Y0053800D01*
X0112540Y0054100D01*
X0112700Y0054250D01*
X0113000Y0054400D01*
X0116050Y0054400D02*
X0116360Y0054400D01*
X0116660Y0054250D01*
X0116810Y0054100D01*
X0116970Y0053800D01*
X0117120Y0053190D01*
X0117120Y0052420D01*
X0116970Y0051810D01*
X0116810Y0051510D01*
X0116660Y0051360D01*
X0116360Y0051200D01*
X0116050Y0051200D01*
X0115750Y0051360D01*
X0115590Y0051510D01*
X0115440Y0051810D01*
X0115290Y0052420D01*
X0115290Y0053190D01*
X0115440Y0053800D01*
X0115590Y0054100D01*
X0115750Y0054250D01*
X0116050Y0054400D01*
X0117730Y0050900D02*
X0120170Y0050900D01*
X0122300Y0053340D02*
X0122300Y0051200D01*
X0121540Y0054560D02*
X0120780Y0052270D01*
X0122760Y0052270D01*
X0124440Y0053030D02*
X0124130Y0053190D01*
X0123980Y0053340D01*
X0123830Y0053640D01*
X0123830Y0053800D01*
X0123980Y0054100D01*
X0124130Y0054250D01*
X0124440Y0054400D01*
X0125050Y0054400D01*
X0125350Y0054250D01*
X0125510Y0054100D01*
X0125660Y0053800D01*
X0125660Y0053640D01*
X0125510Y0053340D01*
X0125350Y0053190D01*
X0125050Y0053030D01*
X0124440Y0053030D01*
X0124130Y0052880D01*
X0123980Y0052730D01*
X0123830Y0052420D01*
X0123830Y0051810D01*
X0123980Y0051510D01*
X0124130Y0051360D01*
X0124440Y0051200D01*
X0125050Y0051200D01*
X0125350Y0051360D01*
X0125510Y0051510D01*
X0125660Y0051810D01*
X0125660Y0052420D01*
X0125510Y0052730D01*
X0125350Y0052880D01*
X0125050Y0053030D01*
D13*
X0186170Y0038410D02*
X0186290Y0038300D01*
X0186400Y0037960D01*
X0186400Y0037730D01*
X0186290Y0037380D01*
X0186060Y0037160D01*
X0185830Y0037040D01*
X0185370Y0036930D01*
X0185030Y0036930D01*
X0184570Y0037040D01*
X0184340Y0037160D01*
X0184120Y0037380D01*
X0184000Y0037730D01*
X0184000Y0037960D01*
X0184120Y0038300D01*
X0184230Y0038410D01*
X0184000Y0039900D02*
X0184000Y0040360D01*
X0184120Y0040580D01*
X0184340Y0040810D01*
X0184800Y0040930D01*
X0185600Y0040930D01*
X0186060Y0040810D01*
X0186290Y0040580D01*
X0186400Y0040360D01*
X0186400Y0039900D01*
X0186290Y0039670D01*
X0186060Y0039440D01*
X0185600Y0039330D01*
X0184800Y0039330D01*
X0184340Y0039440D01*
X0184120Y0039670D01*
X0184000Y0039900D01*
X0186400Y0041950D02*
X0184000Y0041950D01*
X0186400Y0043320D01*
X0184000Y0043320D01*
X0186400Y0044460D02*
X0184000Y0044460D01*
X0186400Y0045830D01*
X0184000Y0045830D01*
X0186630Y0046400D02*
X0186630Y0048230D01*
X0186170Y0050170D02*
X0186290Y0050060D01*
X0186400Y0049720D01*
X0186400Y0049490D01*
X0186290Y0049140D01*
X0186060Y0048920D01*
X0185830Y0048800D01*
X0185370Y0048690D01*
X0185030Y0048690D01*
X0184570Y0048800D01*
X0184340Y0048920D01*
X0184120Y0049140D01*
X0184000Y0049490D01*
X0184000Y0049720D01*
X0184120Y0050060D01*
X0184230Y0050170D01*
X0184000Y0051660D02*
X0184000Y0052120D01*
X0184120Y0052340D01*
X0184340Y0052570D01*
X0184800Y0052690D01*
X0185600Y0052690D01*
X0186060Y0052570D01*
X0186290Y0052340D01*
X0186400Y0052120D01*
X0186400Y0051660D01*
X0186290Y0051430D01*
X0186060Y0051200D01*
X0185600Y0051090D01*
X0184800Y0051090D01*
X0184340Y0051200D01*
X0184120Y0051430D01*
X0184000Y0051660D01*
X0186400Y0055080D02*
X0185260Y0054280D01*
X0186400Y0053710D02*
X0184000Y0053710D01*
X0184000Y0054630D01*
X0184120Y0054850D01*
X0184230Y0054970D01*
X0184460Y0055080D01*
X0184800Y0055080D01*
X0185030Y0054970D01*
X0185140Y0054850D01*
X0185260Y0054630D01*
X0185260Y0053710D01*
X0184000Y0055770D02*
X0184000Y0057140D01*
X0186400Y0056450D02*
X0184000Y0056450D01*
X0185140Y0057940D02*
X0185140Y0058740D01*
X0186400Y0059080D02*
X0186400Y0057940D01*
X0184000Y0057940D01*
X0184000Y0059080D01*
X0184000Y0059880D02*
X0186400Y0061480D01*
X0184000Y0061480D02*
X0186400Y0059880D01*
X0186630Y0061830D02*
X0186630Y0063660D01*
X0186400Y0064230D02*
X0184000Y0064230D01*
X0184000Y0064800D01*
X0184120Y0065150D01*
X0184340Y0065370D01*
X0184570Y0065490D01*
X0185030Y0065600D01*
X0185370Y0065600D01*
X0185830Y0065490D01*
X0186060Y0065370D01*
X0186290Y0065150D01*
X0186400Y0064800D01*
X0186400Y0064230D01*
X0185140Y0066630D02*
X0185140Y0067430D01*
X0186400Y0067770D02*
X0186400Y0066630D01*
X0184000Y0066630D01*
X0184000Y0067770D01*
X0185140Y0069600D02*
X0185260Y0069940D01*
X0185370Y0070060D01*
X0185600Y0070170D01*
X0185940Y0070170D01*
X0186170Y0070060D01*
X0186290Y0069940D01*
X0186400Y0069720D01*
X0186400Y0068800D01*
X0184000Y0068800D01*
X0184000Y0069600D01*
X0184120Y0069830D01*
X0184230Y0069940D01*
X0184460Y0070060D01*
X0184690Y0070060D01*
X0184920Y0069940D01*
X0185030Y0069830D01*
X0185140Y0069600D01*
X0185140Y0068800D01*
X0184000Y0071200D02*
X0185940Y0071200D01*
X0186170Y0071320D01*
X0186290Y0071430D01*
X0186400Y0071660D01*
X0186400Y0072120D01*
X0186290Y0072340D01*
X0186170Y0072460D01*
X0185940Y0072570D01*
X0184000Y0072570D01*
X0184120Y0074970D02*
X0184000Y0074740D01*
X0184000Y0074400D01*
X0184120Y0074050D01*
X0184340Y0073830D01*
X0184570Y0073710D01*
X0185030Y0073600D01*
X0185370Y0073600D01*
X0185830Y0073710D01*
X0186060Y0073830D01*
X0186290Y0074050D01*
X0186400Y0074400D01*
X0186400Y0074630D01*
X0186290Y0074970D01*
X0186170Y0075080D01*
X0185370Y0075080D01*
X0185370Y0074630D01*
D41*
X0010500Y0010500D02*
X0010500Y0100500D01*
X0010500Y0100500D02*
X0206360Y0100500D01*
X0206360Y0010500D01*
X0206360Y0010500D02*
X0010500Y0010500D01*
X0010000Y0112500D02*
G01*
D13*
D34*
X0010000Y0202500D02*
X0010000Y0192500D01*
X0206860Y0202500D02*
X0010010Y0202500D01*
X0206860Y0192500D02*
X0206860Y0202500D01*
X0010000Y0192500D02*
X0206860Y0192500D01*
X0206860Y0112500D02*
X0010000Y0112500D01*
X0206860Y0122500D02*
X0206860Y0112500D01*
X0010010Y0122500D02*
X0206860Y0122500D01*
X0010000Y0112500D02*
X0010000Y0122500D01*
D29*
X0070760Y0132920D02*
X0071210Y0132750D01*
X0071360Y0132580D01*
X0071510Y0132250D01*
X0071510Y0131740D01*
X0071360Y0131400D01*
X0071210Y0131240D01*
X0070910Y0131070D01*
X0069710Y0131070D01*
X0069710Y0134610D01*
X0070760Y0134610D01*
X0071060Y0134440D01*
X0071210Y0134270D01*
X0071360Y0133930D01*
X0071360Y0133600D01*
X0071210Y0133260D01*
X0071060Y0133090D01*
X0070760Y0132920D01*
X0069710Y0132920D01*
X0073310Y0131070D02*
X0073010Y0131240D01*
X0072860Y0131400D01*
X0072710Y0131740D01*
X0072710Y0132750D01*
X0072860Y0133090D01*
X0073010Y0133260D01*
X0073310Y0133430D01*
X0073760Y0133430D01*
X0074060Y0133260D01*
X0074210Y0133090D01*
X0074360Y0132750D01*
X0074360Y0131740D01*
X0074210Y0131400D01*
X0074060Y0131240D01*
X0073760Y0131070D01*
X0073310Y0131070D01*
X0075710Y0131070D02*
X0075710Y0134610D01*
X0075710Y0133260D02*
X0076010Y0133430D01*
X0076610Y0133430D01*
X0076910Y0133260D01*
X0077060Y0133090D01*
X0077210Y0132750D01*
X0077210Y0131740D01*
X0077060Y0131400D01*
X0076910Y0131240D01*
X0076610Y0131070D01*
X0076010Y0131070D01*
X0075710Y0131240D01*
X0082760Y0131400D02*
X0082610Y0131240D01*
X0082160Y0131070D01*
X0081860Y0131070D01*
X0081410Y0131240D01*
X0081110Y0131570D01*
X0080960Y0131910D01*
X0080810Y0132580D01*
X0080810Y0133090D01*
X0080960Y0133760D01*
X0081110Y0134100D01*
X0081410Y0134440D01*
X0081860Y0134610D01*
X0082160Y0134610D01*
X0082610Y0134440D01*
X0082760Y0134270D01*
X0084560Y0131070D02*
X0084260Y0131240D01*
X0084110Y0131400D01*
X0083960Y0131740D01*
X0083960Y0132750D01*
X0084110Y0133090D01*
X0084260Y0133260D01*
X0084560Y0133430D01*
X0085010Y0133430D01*
X0085310Y0133260D01*
X0085460Y0133090D01*
X0085610Y0132750D01*
X0085610Y0131740D01*
X0085460Y0131400D01*
X0085310Y0131240D01*
X0085010Y0131070D01*
X0084560Y0131070D01*
X0088310Y0133430D02*
X0088310Y0131070D01*
X0086960Y0133430D02*
X0086960Y0131570D01*
X0087110Y0131240D01*
X0087410Y0131070D01*
X0087860Y0131070D01*
X0088160Y0131240D01*
X0088310Y0131400D01*
X0089660Y0131240D02*
X0089960Y0131070D01*
X0090560Y0131070D01*
X0090860Y0131240D01*
X0091010Y0131570D01*
X0091010Y0131740D01*
X0090860Y0132080D01*
X0090560Y0132250D01*
X0090110Y0132250D01*
X0089810Y0132420D01*
X0089660Y0132750D01*
X0089660Y0132920D01*
X0089810Y0133260D01*
X0090110Y0133430D01*
X0090560Y0133430D01*
X0090860Y0133260D01*
X0092360Y0131070D02*
X0092360Y0133430D01*
X0092360Y0134610D02*
X0092210Y0134440D01*
X0092360Y0134270D01*
X0092510Y0134440D01*
X0092360Y0134610D01*
X0092360Y0134270D01*
X0093860Y0133430D02*
X0093860Y0131070D01*
X0093860Y0133090D02*
X0094010Y0133260D01*
X0094310Y0133430D01*
X0094760Y0133430D01*
X0095060Y0133260D01*
X0095210Y0132920D01*
X0095210Y0131070D01*
X0096560Y0131240D02*
X0096860Y0131070D01*
X0097460Y0131070D01*
X0097760Y0131240D01*
X0097910Y0131570D01*
X0097910Y0131740D01*
X0097760Y0132080D01*
X0097460Y0132250D01*
X0097010Y0132250D01*
X0096710Y0132420D01*
X0096560Y0132750D01*
X0096560Y0132920D01*
X0096710Y0133260D01*
X0097010Y0133430D01*
X0097460Y0133430D01*
X0097760Y0133260D01*
X0101510Y0134270D02*
X0101660Y0134440D01*
X0101960Y0134610D01*
X0102710Y0134610D01*
X0103010Y0134440D01*
X0103160Y0134270D01*
X0103310Y0133930D01*
X0103310Y0133600D01*
X0103160Y0133090D01*
X0101360Y0131070D01*
X0103310Y0131070D01*
X0105260Y0134610D02*
X0105560Y0134610D01*
X0105860Y0134440D01*
X0106010Y0134270D01*
X0106160Y0133930D01*
X0106310Y0133260D01*
X0106310Y0132420D01*
X0106160Y0131740D01*
X0106010Y0131400D01*
X0105860Y0131240D01*
X0105560Y0131070D01*
X0105260Y0131070D01*
X0104960Y0131240D01*
X0104810Y0131400D01*
X0104660Y0131740D01*
X0104510Y0132420D01*
X0104510Y0133260D01*
X0104660Y0133930D01*
X0104810Y0134270D01*
X0104960Y0134440D01*
X0105260Y0134610D01*
X0109310Y0131070D02*
X0107510Y0131070D01*
X0108410Y0131070D02*
X0108410Y0134610D01*
X0108110Y0134100D01*
X0107810Y0133760D01*
X0107510Y0133600D01*
X0110510Y0134270D02*
X0110660Y0134440D01*
X0110960Y0134610D01*
X0111710Y0134610D01*
X0112010Y0134440D01*
X0112160Y0134270D01*
X0112310Y0133930D01*
X0112310Y0133600D01*
X0112160Y0133090D01*
X0110360Y0131070D01*
X0112310Y0131070D01*
X0068730Y0126240D02*
X0069180Y0126070D01*
X0069930Y0126070D01*
X0070230Y0126240D01*
X0070380Y0126400D01*
X0070530Y0126740D01*
X0070530Y0127080D01*
X0070380Y0127420D01*
X0070230Y0127580D01*
X0069930Y0127750D01*
X0069330Y0127920D01*
X0069030Y0128090D01*
X0068880Y0128260D01*
X0068730Y0128600D01*
X0068730Y0128930D01*
X0068880Y0129270D01*
X0069030Y0129440D01*
X0069330Y0129610D01*
X0070080Y0129610D01*
X0070530Y0129440D01*
X0071430Y0129610D02*
X0073230Y0129610D01*
X0072330Y0126070D02*
X0072330Y0129610D01*
X0074280Y0126070D02*
X0074280Y0129610D01*
X0075330Y0127080D01*
X0076380Y0129610D01*
X0076380Y0126070D01*
X0077580Y0129610D02*
X0079530Y0129610D01*
X0078480Y0128260D01*
X0078930Y0128260D01*
X0079230Y0128090D01*
X0079380Y0127920D01*
X0079530Y0127580D01*
X0079530Y0126740D01*
X0079380Y0126400D01*
X0079230Y0126240D01*
X0078930Y0126070D01*
X0078030Y0126070D01*
X0077730Y0126240D01*
X0077580Y0126400D01*
X0080730Y0129270D02*
X0080880Y0129440D01*
X0081180Y0129610D01*
X0081930Y0129610D01*
X0082230Y0129440D01*
X0082380Y0129270D01*
X0082530Y0128930D01*
X0082530Y0128600D01*
X0082380Y0128090D01*
X0080580Y0126070D01*
X0082530Y0126070D01*
X0084930Y0127920D02*
X0083880Y0127920D01*
X0083880Y0126070D02*
X0083880Y0129610D01*
X0085380Y0129610D01*
X0088230Y0126070D02*
X0086430Y0126070D01*
X0087330Y0126070D02*
X0087330Y0129610D01*
X0087030Y0129100D01*
X0086730Y0128760D01*
X0086430Y0128600D01*
X0090180Y0129610D02*
X0090480Y0129610D01*
X0090780Y0129440D01*
X0090930Y0129270D01*
X0091080Y0128930D01*
X0091230Y0128260D01*
X0091230Y0127420D01*
X0091080Y0126740D01*
X0090930Y0126400D01*
X0090780Y0126240D01*
X0090480Y0126070D01*
X0090180Y0126070D01*
X0089880Y0126240D01*
X0089730Y0126400D01*
X0089580Y0126740D01*
X0089430Y0127420D01*
X0089430Y0128260D01*
X0089580Y0128930D01*
X0089730Y0129270D01*
X0089880Y0129440D01*
X0090180Y0129610D01*
X0093180Y0129610D02*
X0093480Y0129610D01*
X0093780Y0129440D01*
X0093930Y0129270D01*
X0094080Y0128930D01*
X0094230Y0128260D01*
X0094230Y0127420D01*
X0094080Y0126740D01*
X0093930Y0126400D01*
X0093780Y0126240D01*
X0093480Y0126070D01*
X0093180Y0126070D01*
X0092880Y0126240D01*
X0092730Y0126400D01*
X0092580Y0126740D01*
X0092430Y0127420D01*
X0092430Y0128260D01*
X0092580Y0128930D01*
X0092730Y0129270D01*
X0092880Y0129440D01*
X0093180Y0129610D01*
X0097980Y0126070D02*
X0097980Y0129610D01*
X0099030Y0127080D01*
X0100080Y0129610D01*
X0100080Y0126070D01*
X0102030Y0126070D02*
X0101730Y0126240D01*
X0101580Y0126400D01*
X0101430Y0126740D01*
X0101430Y0127750D01*
X0101580Y0128090D01*
X0101730Y0128260D01*
X0102030Y0128430D01*
X0102480Y0128430D01*
X0102780Y0128260D01*
X0102930Y0128090D01*
X0103080Y0127750D01*
X0103080Y0126740D01*
X0102930Y0126400D01*
X0102780Y0126240D01*
X0102480Y0126070D01*
X0102030Y0126070D01*
X0105780Y0126070D02*
X0105780Y0129610D01*
X0105780Y0126240D02*
X0105480Y0126070D01*
X0104880Y0126070D01*
X0104580Y0126240D01*
X0104430Y0126400D01*
X0104280Y0126740D01*
X0104280Y0127750D01*
X0104430Y0128090D01*
X0104580Y0128260D01*
X0104880Y0128430D01*
X0105480Y0128430D01*
X0105780Y0128260D01*
X0108630Y0128430D02*
X0108630Y0126070D01*
X0107280Y0128430D02*
X0107280Y0126570D01*
X0107430Y0126240D01*
X0107730Y0126070D01*
X0108180Y0126070D01*
X0108480Y0126240D01*
X0108630Y0126400D01*
X0110580Y0126070D02*
X0110280Y0126240D01*
X0110130Y0126570D01*
X0110130Y0129610D01*
X0112980Y0126240D02*
X0112680Y0126070D01*
X0112080Y0126070D01*
X0111780Y0126240D01*
X0111630Y0126570D01*
X0111630Y0127920D01*
X0111780Y0128260D01*
X0112080Y0128430D01*
X0112680Y0128430D01*
X0112980Y0128260D01*
X0113130Y0127920D01*
X0113130Y0127580D01*
X0111630Y0127250D01*
D30*
X0059730Y0150160D02*
X0059730Y0148190D01*
X0059730Y0148190D02*
X0047130Y0148190D01*
X0047130Y0148190D02*
X0047130Y0150160D01*
X0047130Y0169840D02*
X0047130Y0171810D01*
X0047130Y0171810D02*
X0059730Y0171810D01*
X0059730Y0171810D02*
X0059730Y0169840D01*
X0049510Y0169850D02*
X0057380Y0169850D01*
X0049510Y0169840D02*
X0057380Y0169840D01*
X0049510Y0169840D02*
X0057380Y0169840D01*
X0049510Y0169840D02*
X0057380Y0169840D01*
X0057370Y0150160D02*
X0049500Y0150160D01*
X0057370Y0150160D02*
X0049500Y0150160D01*
X0057370Y0150160D02*
X0049500Y0150160D01*
X0057370Y0150160D02*
X0049500Y0150160D01*
X0059730Y0169840D02*
X0059730Y0150160D01*
X0059730Y0150160D02*
X0047130Y0150160D01*
X0047130Y0150160D02*
X0047130Y0169840D01*
X0047130Y0169840D02*
X0059730Y0169840D01*
D34*
X0180650Y0163190D02*
X0183020Y0163190D01*
X0183020Y0163190D02*
X0183020Y0186810D01*
X0183020Y0186810D02*
X0180650Y0186810D01*
X0168840Y0163190D02*
X0170810Y0163190D01*
X0168840Y0163190D02*
X0168840Y0186810D01*
X0168840Y0186810D02*
X0170810Y0186810D01*
X0171210Y0151810D02*
X0168840Y0151810D01*
X0168840Y0151810D02*
X0168840Y0128190D01*
X0168840Y0128190D02*
X0171210Y0128190D01*
X0183020Y0151810D02*
X0181050Y0151810D01*
X0183020Y0151810D02*
X0183020Y0128190D01*
X0183020Y0128190D02*
X0181050Y0128190D01*
D17*
X0017430Y0183500D02*
X0024430Y0183500D01*
X0024430Y0183500D02*
X0024430Y0171500D01*
X0024430Y0171500D02*
X0017430Y0171500D01*
X0017430Y0171500D02*
X0017430Y0183500D01*
X0014930Y0159500D02*
X0014920Y0159410D01*
X0014890Y0159310D01*
X0014840Y0159230D01*
X0014780Y0159150D01*
X0014700Y0159090D01*
X0014620Y0159040D01*
X0014530Y0159020D01*
X0014430Y0159010D01*
X0014340Y0159010D01*
X0014250Y0159040D01*
X0014160Y0159090D01*
X0014090Y0159150D01*
X0014020Y0159220D01*
X0013980Y0159310D01*
X0013950Y0159400D01*
X0013940Y0159500D01*
X0013940Y0159590D01*
X0013970Y0159680D01*
X0014010Y0159770D01*
X0014080Y0159840D01*
X0014150Y0159910D01*
X0014230Y0159950D01*
X0014330Y0159980D01*
X0014420Y0159990D01*
X0014510Y0159990D01*
X0014610Y0159960D01*
X0014690Y0159920D01*
X0014770Y0159860D01*
X0014830Y0159780D01*
X0014880Y0159700D01*
X0014910Y0159610D01*
X0014920Y0159510D01*
X0014930Y0159500D01*
X0018930Y0159500D02*
X0014930Y0159500D01*
X0014930Y0159500D02*
X0014930Y0165500D01*
X0014930Y0165500D02*
X0018930Y0165500D01*
X0022930Y0165500D02*
X0026930Y0165500D01*
X0026930Y0165500D02*
X0026930Y0159500D01*
X0026930Y0159500D02*
X0022930Y0159500D01*
X0135930Y0181500D02*
X0135920Y0181410D01*
X0135890Y0181310D01*
X0135840Y0181230D01*
X0135780Y0181150D01*
X0135700Y0181090D01*
X0135620Y0181040D01*
X0135530Y0181020D01*
X0135430Y0181010D01*
X0135340Y0181010D01*
X0135250Y0181040D01*
X0135160Y0181090D01*
X0135090Y0181150D01*
X0135020Y0181220D01*
X0134980Y0181310D01*
X0134950Y0181400D01*
X0134940Y0181500D01*
X0134940Y0181590D01*
X0134970Y0181680D01*
X0135010Y0181770D01*
X0135080Y0181840D01*
X0135150Y0181910D01*
X0135230Y0181950D01*
X0135330Y0181980D01*
X0135420Y0181990D01*
X0135510Y0181990D01*
X0135610Y0181960D01*
X0135690Y0181920D01*
X0135770Y0181860D01*
X0135830Y0181780D01*
X0135880Y0181700D01*
X0135910Y0181610D01*
X0135920Y0181510D01*
X0135930Y0181500D01*
X0135430Y0177000D02*
X0135430Y0181000D01*
X0135430Y0181000D02*
X0141430Y0181000D01*
X0141430Y0181000D02*
X0141430Y0177000D01*
X0141430Y0173000D02*
X0141430Y0169000D01*
X0141430Y0169000D02*
X0135430Y0169000D01*
X0135430Y0169000D02*
X0135430Y0173000D01*
X0143330Y0181500D02*
X0143320Y0181410D01*
X0143290Y0181310D01*
X0143240Y0181230D01*
X0143180Y0181150D01*
X0143100Y0181090D01*
X0143020Y0181040D01*
X0142930Y0181020D01*
X0142830Y0181010D01*
X0142740Y0181010D01*
X0142650Y0181040D01*
X0142560Y0181090D01*
X0142490Y0181150D01*
X0142420Y0181220D01*
X0142380Y0181310D01*
X0142350Y0181400D01*
X0142340Y0181500D01*
X0142340Y0181590D01*
X0142370Y0181680D01*
X0142410Y0181770D01*
X0142480Y0181840D01*
X0142550Y0181910D01*
X0142630Y0181950D01*
X0142730Y0181980D01*
X0142820Y0181990D01*
X0142910Y0181990D01*
X0143010Y0181960D01*
X0143090Y0181920D01*
X0143170Y0181860D01*
X0143230Y0181780D01*
X0143280Y0181700D01*
X0143310Y0181610D01*
X0143320Y0181510D01*
X0143330Y0181500D01*
X0142830Y0177000D02*
X0142830Y0181000D01*
X0142830Y0181000D02*
X0148830Y0181000D01*
X0148830Y0181000D02*
X0148830Y0177000D01*
X0148830Y0173000D02*
X0148830Y0169000D01*
X0148830Y0169000D02*
X0142830Y0169000D01*
X0142830Y0169000D02*
X0142830Y0173000D01*
X0127930Y0142000D02*
X0127920Y0141910D01*
X0127890Y0141810D01*
X0127840Y0141730D01*
X0127780Y0141650D01*
X0127700Y0141590D01*
X0127620Y0141540D01*
X0127530Y0141520D01*
X0127430Y0141510D01*
X0127340Y0141510D01*
X0127250Y0141540D01*
X0127160Y0141590D01*
X0127090Y0141650D01*
X0127020Y0141720D01*
X0126980Y0141810D01*
X0126950Y0141900D01*
X0126940Y0142000D01*
X0126940Y0142090D01*
X0126970Y0142180D01*
X0127010Y0142270D01*
X0127080Y0142340D01*
X0127150Y0142410D01*
X0127230Y0142450D01*
X0127330Y0142480D01*
X0127420Y0142490D01*
X0127510Y0142490D01*
X0127610Y0142460D01*
X0127690Y0142420D01*
X0127770Y0142360D01*
X0127830Y0142280D01*
X0127880Y0142200D01*
X0127910Y0142110D01*
X0127920Y0142010D01*
X0127930Y0142000D01*
X0127430Y0137500D02*
X0127430Y0141500D01*
X0127430Y0141500D02*
X0133430Y0141500D01*
X0133430Y0141500D02*
X0133430Y0137500D01*
X0133430Y0133500D02*
X0133430Y0129500D01*
X0133430Y0129500D02*
X0127430Y0129500D01*
X0127430Y0129500D02*
X0127430Y0133500D01*
X0081930Y0143500D02*
X0081920Y0143410D01*
X0081890Y0143310D01*
X0081840Y0143230D01*
X0081780Y0143150D01*
X0081700Y0143090D01*
X0081620Y0143040D01*
X0081530Y0143020D01*
X0081430Y0143010D01*
X0081340Y0143010D01*
X0081250Y0143040D01*
X0081160Y0143090D01*
X0081090Y0143150D01*
X0081020Y0143220D01*
X0080980Y0143310D01*
X0080950Y0143400D01*
X0080940Y0143500D01*
X0080940Y0143590D01*
X0080970Y0143680D01*
X0081010Y0143770D01*
X0081080Y0143840D01*
X0081150Y0143910D01*
X0081230Y0143950D01*
X0081330Y0143980D01*
X0081420Y0143990D01*
X0081510Y0143990D01*
X0081610Y0143960D01*
X0081690Y0143920D01*
X0081770Y0143860D01*
X0081830Y0143780D01*
X0081880Y0143700D01*
X0081910Y0143610D01*
X0081920Y0143510D01*
X0081930Y0143500D01*
X0081430Y0148000D02*
X0081430Y0144000D01*
X0081430Y0144000D02*
X0075430Y0144000D01*
X0075430Y0144000D02*
X0075430Y0148000D01*
X0075430Y0152000D02*
X0075430Y0156000D01*
X0075430Y0156000D02*
X0081430Y0156000D01*
X0081430Y0156000D02*
X0081430Y0152000D01*
X0083830Y0176900D02*
X0083820Y0176810D01*
X0083790Y0176710D01*
X0083740Y0176630D01*
X0083680Y0176550D01*
X0083600Y0176490D01*
X0083520Y0176440D01*
X0083430Y0176420D01*
X0083330Y0176410D01*
X0083240Y0176410D01*
X0083150Y0176440D01*
X0083060Y0176490D01*
X0082990Y0176550D01*
X0082920Y0176620D01*
X0082880Y0176710D01*
X0082850Y0176800D01*
X0082840Y0176900D01*
X0082840Y0176990D01*
X0082870Y0177080D01*
X0082910Y0177170D01*
X0082980Y0177240D01*
X0083050Y0177310D01*
X0083130Y0177350D01*
X0083230Y0177380D01*
X0083320Y0177390D01*
X0083410Y0177390D01*
X0083510Y0177360D01*
X0083590Y0177320D01*
X0083670Y0177260D01*
X0083730Y0177180D01*
X0083780Y0177100D01*
X0083810Y0177010D01*
X0083820Y0176910D01*
X0083830Y0176900D01*
X0078830Y0176900D02*
X0082830Y0176900D01*
X0082830Y0176900D02*
X0082830Y0170900D01*
X0082830Y0170900D02*
X0078830Y0170900D01*
X0074830Y0170900D02*
X0070830Y0170900D01*
X0070830Y0170900D02*
X0070830Y0176900D01*
X0070830Y0176900D02*
X0074830Y0176900D01*
X0088730Y0181600D02*
X0088720Y0181510D01*
X0088690Y0181410D01*
X0088640Y0181330D01*
X0088580Y0181250D01*
X0088500Y0181190D01*
X0088420Y0181140D01*
X0088330Y0181120D01*
X0088230Y0181110D01*
X0088140Y0181110D01*
X0088050Y0181140D01*
X0087960Y0181190D01*
X0087890Y0181250D01*
X0087820Y0181320D01*
X0087780Y0181410D01*
X0087750Y0181500D01*
X0087740Y0181600D01*
X0087740Y0181690D01*
X0087770Y0181780D01*
X0087810Y0181870D01*
X0087880Y0181940D01*
X0087950Y0182010D01*
X0088030Y0182050D01*
X0088130Y0182080D01*
X0088220Y0182090D01*
X0088310Y0182090D01*
X0088410Y0182060D01*
X0088490Y0182020D01*
X0088570Y0181960D01*
X0088630Y0181880D01*
X0088680Y0181800D01*
X0088710Y0181710D01*
X0088720Y0181610D01*
X0088730Y0181600D01*
X0092730Y0181600D02*
X0088730Y0181600D01*
X0088730Y0181600D02*
X0088730Y0187600D01*
X0088730Y0187600D02*
X0092730Y0187600D01*
X0096730Y0187600D02*
X0100730Y0187600D01*
X0100730Y0187600D02*
X0100730Y0181600D01*
X0100730Y0181600D02*
X0096730Y0181600D01*
X0152430Y0142000D02*
X0152420Y0141910D01*
X0152390Y0141810D01*
X0152340Y0141730D01*
X0152280Y0141650D01*
X0152200Y0141590D01*
X0152120Y0141540D01*
X0152030Y0141520D01*
X0151930Y0141510D01*
X0151840Y0141510D01*
X0151750Y0141540D01*
X0151660Y0141590D01*
X0151590Y0141650D01*
X0151520Y0141720D01*
X0151480Y0141810D01*
X0151450Y0141900D01*
X0151440Y0142000D01*
X0151440Y0142090D01*
X0151470Y0142180D01*
X0151510Y0142270D01*
X0151580Y0142340D01*
X0151650Y0142410D01*
X0151730Y0142450D01*
X0151830Y0142480D01*
X0151920Y0142490D01*
X0152010Y0142490D01*
X0152110Y0142460D01*
X0152190Y0142420D01*
X0152270Y0142360D01*
X0152330Y0142280D01*
X0152380Y0142200D01*
X0152410Y0142110D01*
X0152420Y0142010D01*
X0152430Y0142000D01*
X0156430Y0142000D02*
X0152430Y0142000D01*
X0152430Y0142000D02*
X0152430Y0148000D01*
X0152430Y0148000D02*
X0156430Y0148000D01*
X0160430Y0148000D02*
X0164430Y0148000D01*
X0164430Y0148000D02*
X0164430Y0142000D01*
X0164430Y0142000D02*
X0160430Y0142000D01*
X0165430Y0140000D02*
X0165420Y0139910D01*
X0165390Y0139810D01*
X0165340Y0139730D01*
X0165280Y0139650D01*
X0165200Y0139590D01*
X0165120Y0139540D01*
X0165030Y0139520D01*
X0164930Y0139510D01*
X0164840Y0139510D01*
X0164750Y0139540D01*
X0164660Y0139590D01*
X0164590Y0139650D01*
X0164520Y0139720D01*
X0164480Y0139810D01*
X0164450Y0139900D01*
X0164440Y0140000D01*
X0164440Y0140090D01*
X0164470Y0140180D01*
X0164510Y0140270D01*
X0164580Y0140340D01*
X0164650Y0140410D01*
X0164730Y0140450D01*
X0164830Y0140480D01*
X0164920Y0140490D01*
X0165010Y0140490D01*
X0165110Y0140460D01*
X0165190Y0140420D01*
X0165270Y0140360D01*
X0165330Y0140280D01*
X0165380Y0140200D01*
X0165410Y0140110D01*
X0165420Y0140010D01*
X0165430Y0140000D01*
X0160430Y0140000D02*
X0164430Y0140000D01*
X0164430Y0140000D02*
X0164430Y0134000D01*
X0164430Y0134000D02*
X0160430Y0134000D01*
X0156430Y0134000D02*
X0152430Y0134000D01*
X0152430Y0134000D02*
X0152430Y0140000D01*
X0152430Y0140000D02*
X0156430Y0140000D01*
X0060430Y0185500D02*
X0060420Y0185410D01*
X0060390Y0185310D01*
X0060340Y0185230D01*
X0060280Y0185150D01*
X0060200Y0185090D01*
X0060120Y0185040D01*
X0060030Y0185020D01*
X0059930Y0185010D01*
X0059840Y0185010D01*
X0059750Y0185040D01*
X0059660Y0185090D01*
X0059590Y0185150D01*
X0059520Y0185220D01*
X0059480Y0185310D01*
X0059450Y0185400D01*
X0059440Y0185500D01*
X0059440Y0185590D01*
X0059470Y0185680D01*
X0059510Y0185770D01*
X0059580Y0185840D01*
X0059650Y0185910D01*
X0059730Y0185950D01*
X0059830Y0185980D01*
X0059920Y0185990D01*
X0060010Y0185990D01*
X0060110Y0185960D01*
X0060190Y0185920D01*
X0060270Y0185860D01*
X0060330Y0185780D01*
X0060380Y0185700D01*
X0060410Y0185610D01*
X0060420Y0185510D01*
X0060430Y0185500D01*
X0055430Y0185500D02*
X0059430Y0185500D01*
X0059430Y0185500D02*
X0059430Y0179500D01*
X0059430Y0179500D02*
X0055430Y0179500D01*
X0051430Y0179500D02*
X0047430Y0179500D01*
X0047430Y0179500D02*
X0047430Y0185500D01*
X0047430Y0185500D02*
X0051430Y0185500D01*
X0060430Y0138000D02*
X0060420Y0137910D01*
X0060390Y0137810D01*
X0060340Y0137730D01*
X0060280Y0137650D01*
X0060200Y0137590D01*
X0060120Y0137540D01*
X0060030Y0137520D01*
X0059930Y0137510D01*
X0059840Y0137510D01*
X0059750Y0137540D01*
X0059660Y0137590D01*
X0059590Y0137650D01*
X0059520Y0137720D01*
X0059480Y0137810D01*
X0059450Y0137900D01*
X0059440Y0138000D01*
X0059440Y0138090D01*
X0059470Y0138180D01*
X0059510Y0138270D01*
X0059580Y0138340D01*
X0059650Y0138410D01*
X0059730Y0138450D01*
X0059830Y0138480D01*
X0059920Y0138490D01*
X0060010Y0138490D01*
X0060110Y0138460D01*
X0060190Y0138420D01*
X0060270Y0138360D01*
X0060330Y0138280D01*
X0060380Y0138200D01*
X0060410Y0138110D01*
X0060420Y0138010D01*
X0060430Y0138000D01*
X0055430Y0138000D02*
X0059430Y0138000D01*
X0059430Y0138000D02*
X0059430Y0132000D01*
X0059430Y0132000D02*
X0055430Y0132000D01*
X0051430Y0132000D02*
X0047430Y0132000D01*
X0047430Y0132000D02*
X0047430Y0138000D01*
X0047430Y0138000D02*
X0051430Y0138000D01*
X0060930Y0160500D02*
X0060930Y0169500D01*
X0060930Y0169500D02*
X0065930Y0169500D01*
X0065930Y0169500D02*
X0065930Y0160500D01*
X0065930Y0160500D02*
X0060930Y0160500D01*
X0065930Y0159000D02*
X0065930Y0150000D01*
X0065930Y0150000D02*
X0060930Y0150000D01*
X0060930Y0150000D02*
X0060930Y0159000D01*
X0060930Y0159000D02*
X0065930Y0159000D01*
D34*
X0094700Y0172850D02*
X0094660Y0172540D01*
X0094570Y0172240D01*
X0094420Y0171960D01*
X0094220Y0171710D01*
X0093980Y0171510D01*
X0093700Y0171360D01*
X0093400Y0171270D01*
X0093090Y0171240D01*
X0092780Y0171260D01*
X0092480Y0171350D01*
X0092200Y0171500D01*
X0091950Y0171700D01*
X0091750Y0171940D01*
X0091600Y0172220D01*
X0091500Y0172520D01*
X0091470Y0172830D01*
X0091490Y0173140D01*
X0091580Y0173440D01*
X0091720Y0173720D01*
X0091920Y0173970D01*
X0092160Y0174180D01*
X0092440Y0174330D01*
X0092740Y0174430D01*
X0093050Y0174460D01*
X0093360Y0174440D01*
X0093660Y0174360D01*
X0093940Y0174210D01*
X0094190Y0174020D01*
X0094400Y0173780D01*
X0094550Y0173500D01*
X0094650Y0173200D01*
X0094690Y0172890D01*
X0094700Y0172850D01*
X0093470Y0172850D02*
X0093460Y0172780D01*
X0093440Y0172710D01*
X0093400Y0172640D01*
X0093350Y0172580D01*
X0093290Y0172530D01*
X0093230Y0172500D01*
X0093150Y0172470D01*
X0093080Y0172470D01*
X0093010Y0172470D01*
X0092940Y0172490D01*
X0092870Y0172530D01*
X0092810Y0172580D01*
X0092760Y0172630D01*
X0092730Y0172700D01*
X0092700Y0172770D01*
X0092700Y0172850D01*
X0092700Y0172920D01*
X0092720Y0172990D01*
X0092760Y0173060D01*
X0092800Y0173120D01*
X0092860Y0173170D01*
X0092930Y0173200D01*
X0093000Y0173230D01*
X0093080Y0173230D01*
X0093140Y0173230D01*
X0093220Y0173210D01*
X0093280Y0173170D01*
X0093340Y0173130D01*
X0093390Y0173070D01*
X0093430Y0173000D01*
X0093460Y0172930D01*
X0093460Y0172860D01*
X0093470Y0172850D01*
X0094190Y0172850D02*
X0094160Y0172640D01*
X0094100Y0172430D01*
X0094000Y0172240D01*
X0093860Y0172070D01*
X0093700Y0171930D01*
X0093510Y0171830D01*
X0093300Y0171770D01*
X0093080Y0171750D01*
X0092880Y0171760D01*
X0092670Y0171830D01*
X0092480Y0171930D01*
X0092310Y0172060D01*
X0092170Y0172230D01*
X0092060Y0172420D01*
X0092000Y0172620D01*
X0091980Y0172840D01*
X0091990Y0173050D01*
X0092050Y0173250D01*
X0092150Y0173450D01*
X0092290Y0173620D01*
X0092450Y0173760D01*
X0092640Y0173860D01*
X0092850Y0173930D01*
X0093060Y0173950D01*
X0093270Y0173940D01*
X0093480Y0173880D01*
X0093670Y0173780D01*
X0093840Y0173650D01*
X0093980Y0173480D01*
X0094090Y0173300D01*
X0094160Y0173090D01*
X0094180Y0172880D01*
X0094190Y0172850D01*
X0097010Y0171280D02*
X0122210Y0171280D01*
X0122210Y0171280D02*
X0122210Y0143720D01*
X0122210Y0143720D02*
X0094650Y0143720D01*
X0094650Y0143720D02*
X0094650Y0168920D01*
X0097010Y0171280D02*
X0094650Y0168920D01*
D17*
X0165430Y0165500D02*
X0165420Y0165410D01*
X0165390Y0165310D01*
X0165340Y0165230D01*
X0165280Y0165150D01*
X0165200Y0165090D01*
X0165120Y0165040D01*
X0165030Y0165020D01*
X0164930Y0165010D01*
X0164840Y0165010D01*
X0164750Y0165040D01*
X0164660Y0165090D01*
X0164590Y0165150D01*
X0164520Y0165220D01*
X0164480Y0165310D01*
X0164450Y0165400D01*
X0164440Y0165500D01*
X0164440Y0165590D01*
X0164470Y0165680D01*
X0164510Y0165770D01*
X0164580Y0165840D01*
X0164650Y0165910D01*
X0164730Y0165950D01*
X0164830Y0165980D01*
X0164920Y0165990D01*
X0165010Y0165990D01*
X0165110Y0165960D01*
X0165190Y0165920D01*
X0165270Y0165860D01*
X0165330Y0165780D01*
X0165380Y0165700D01*
X0165410Y0165610D01*
X0165420Y0165510D01*
X0165430Y0165500D01*
X0160430Y0165500D02*
X0164430Y0165500D01*
X0164430Y0165500D02*
X0164430Y0159500D01*
X0164430Y0159500D02*
X0160430Y0159500D01*
X0156430Y0159500D02*
X0152430Y0159500D01*
X0152430Y0159500D02*
X0152430Y0165500D01*
X0152430Y0165500D02*
X0156430Y0165500D01*
X0152430Y0151500D02*
X0152420Y0151410D01*
X0152390Y0151310D01*
X0152340Y0151230D01*
X0152280Y0151150D01*
X0152200Y0151090D01*
X0152120Y0151040D01*
X0152030Y0151020D01*
X0151930Y0151010D01*
X0151840Y0151010D01*
X0151750Y0151040D01*
X0151660Y0151090D01*
X0151590Y0151150D01*
X0151520Y0151220D01*
X0151480Y0151310D01*
X0151450Y0151400D01*
X0151440Y0151500D01*
X0151440Y0151590D01*
X0151470Y0151680D01*
X0151510Y0151770D01*
X0151580Y0151840D01*
X0151650Y0151910D01*
X0151730Y0151950D01*
X0151830Y0151980D01*
X0151920Y0151990D01*
X0152010Y0151990D01*
X0152110Y0151960D01*
X0152190Y0151920D01*
X0152270Y0151860D01*
X0152330Y0151780D01*
X0152380Y0151700D01*
X0152410Y0151610D01*
X0152420Y0151510D01*
X0152430Y0151500D01*
X0156430Y0151500D02*
X0152430Y0151500D01*
X0152430Y0151500D02*
X0152430Y0157500D01*
X0152430Y0157500D02*
X0156430Y0157500D01*
X0160430Y0157500D02*
X0164430Y0157500D01*
X0164430Y0157500D02*
X0164430Y0151500D01*
X0164430Y0151500D02*
X0160430Y0151500D01*
D34*
X0198690Y0142540D02*
X0201050Y0139780D01*
X0201050Y0139780D02*
X0196720Y0139780D01*
X0196720Y0139780D02*
X0198690Y0142540D01*
X0188930Y0170800D02*
X0188930Y0144200D01*
X0202930Y0170800D02*
X0202930Y0144200D01*
X0188930Y0170800D02*
X0202930Y0170800D01*
X0202930Y0144200D02*
X0188930Y0144200D01*
X0205380Y0152780D02*
X0205380Y0149230D01*
X0205380Y0162220D02*
X0205380Y0165370D01*
X0205380Y0149630D02*
X0205380Y0129940D01*
X0205380Y0185060D02*
X0205380Y0165370D01*
X0186480Y0129940D02*
X0186480Y0185060D01*
X0205380Y0185060D02*
X0186480Y0185060D01*
X0205380Y0129940D02*
X0186480Y0129940D01*
X0042760Y0146120D02*
X0042570Y0145740D01*
X0042380Y0145550D01*
X0042000Y0145360D01*
X0041810Y0145360D01*
X0041430Y0145550D01*
X0041240Y0145740D01*
X0041050Y0146120D01*
X0041050Y0146890D01*
X0041240Y0147270D01*
X0041430Y0147460D01*
X0041810Y0147650D01*
X0042000Y0147650D01*
X0042380Y0147460D01*
X0042570Y0147270D01*
X0042760Y0146890D01*
X0042760Y0146120D01*
X0042950Y0145740D01*
X0043140Y0145550D01*
X0043530Y0145360D01*
X0044290Y0145360D01*
X0044670Y0145550D01*
X0044860Y0145740D01*
X0045050Y0146120D01*
X0045050Y0146890D01*
X0044860Y0147270D01*
X0044670Y0147460D01*
X0044290Y0147650D01*
X0043530Y0147650D01*
X0043140Y0147460D01*
X0042950Y0147270D01*
X0042760Y0146890D01*
X0045050Y0149360D02*
X0041050Y0149360D01*
X0043910Y0150700D01*
X0041050Y0152030D01*
X0045050Y0152030D01*
X0045050Y0153930D02*
X0041050Y0153930D01*
X0042950Y0153930D02*
X0042950Y0156220D01*
X0045050Y0156220D02*
X0041050Y0156220D01*
X0042380Y0157740D02*
X0042380Y0159840D01*
X0045050Y0157740D01*
X0045050Y0159840D01*
X0162720Y0169360D02*
X0163000Y0170220D01*
X0163290Y0170500D01*
X0163860Y0170790D01*
X0164720Y0170790D01*
X0165290Y0170500D01*
X0165570Y0170220D01*
X0165860Y0169640D01*
X0165860Y0167360D01*
X0159860Y0167360D01*
X0159860Y0169360D01*
X0160140Y0169930D01*
X0160430Y0170220D01*
X0161000Y0170500D01*
X0161570Y0170500D01*
X0162140Y0170220D01*
X0162430Y0169930D01*
X0162720Y0169360D01*
X0162720Y0167360D01*
X0159860Y0174500D02*
X0159860Y0175640D01*
X0160140Y0176220D01*
X0160720Y0176790D01*
X0161860Y0177070D01*
X0163860Y0177070D01*
X0165000Y0176790D01*
X0165570Y0176220D01*
X0165860Y0175640D01*
X0165860Y0174500D01*
X0165570Y0173930D01*
X0165000Y0173360D01*
X0163860Y0173070D01*
X0161860Y0173070D01*
X0160720Y0173360D01*
X0160140Y0173930D01*
X0159860Y0174500D01*
X0159860Y0180790D02*
X0159860Y0181930D01*
X0160140Y0182510D01*
X0160720Y0183080D01*
X0161860Y0183360D01*
X0163860Y0183360D01*
X0165000Y0183080D01*
X0165570Y0182510D01*
X0165860Y0181930D01*
X0165860Y0180790D01*
X0165570Y0180220D01*
X0165000Y0179650D01*
X0163860Y0179360D01*
X0161860Y0179360D01*
X0160720Y0179650D01*
X0160140Y0180220D01*
X0159860Y0180790D01*
X0159860Y0185080D02*
X0159860Y0188510D01*
X0165860Y0186800D02*
X0159860Y0186800D01*
X0156650Y0125570D02*
X0154650Y0128430D01*
X0153220Y0125570D02*
X0153220Y0131570D01*
X0155500Y0131570D01*
X0156080Y0131290D01*
X0156360Y0131000D01*
X0156650Y0130430D01*
X0156650Y0129570D01*
X0156360Y0129000D01*
X0156080Y0128710D01*
X0155500Y0128430D01*
X0153220Y0128430D01*
X0158930Y0125860D02*
X0159790Y0125570D01*
X0161220Y0125570D01*
X0161790Y0125860D01*
X0162080Y0126140D01*
X0162360Y0126710D01*
X0162360Y0127290D01*
X0162080Y0127860D01*
X0161790Y0128140D01*
X0161220Y0128430D01*
X0160080Y0128710D01*
X0159500Y0129000D01*
X0159220Y0129290D01*
X0158930Y0129860D01*
X0158930Y0130430D01*
X0159220Y0131000D01*
X0159500Y0131290D01*
X0160080Y0131570D01*
X0161500Y0131570D01*
X0162360Y0131290D01*
X0164070Y0131570D02*
X0167500Y0131570D01*
X0165790Y0125570D02*
X0165790Y0131570D01*
D17*
X0021820Y0170780D02*
X0021940Y0171130D01*
X0021940Y0171730D01*
X0021820Y0171970D01*
X0021700Y0172090D01*
X0021470Y0172200D01*
X0021230Y0172200D01*
X0020990Y0172090D01*
X0020870Y0171970D01*
X0020750Y0171730D01*
X0020630Y0171250D01*
X0020510Y0171010D01*
X0020390Y0170900D01*
X0020160Y0170780D01*
X0019920Y0170780D01*
X0019680Y0170900D01*
X0019560Y0171010D01*
X0019440Y0171250D01*
X0019440Y0171850D01*
X0019560Y0172200D01*
X0021940Y0173280D02*
X0019440Y0173280D01*
X0019440Y0174230D01*
X0019560Y0174470D01*
X0019680Y0174580D01*
X0019920Y0174700D01*
X0020280Y0174700D01*
X0020510Y0174580D01*
X0020630Y0174470D01*
X0020750Y0174230D01*
X0020750Y0173280D01*
X0019440Y0176850D02*
X0019440Y0176370D01*
X0019560Y0176130D01*
X0019680Y0176010D01*
X0020040Y0175780D01*
X0020510Y0175660D01*
X0021470Y0175660D01*
X0021700Y0175780D01*
X0021820Y0175890D01*
X0021940Y0176130D01*
X0021940Y0176610D01*
X0021820Y0176850D01*
X0021700Y0176970D01*
X0021470Y0177080D01*
X0020870Y0177080D01*
X0020630Y0176970D01*
X0020510Y0176850D01*
X0020390Y0176610D01*
X0020390Y0176130D01*
X0020510Y0175890D01*
X0020630Y0175780D01*
X0020870Y0175660D01*
X0019680Y0178040D02*
X0019560Y0178160D01*
X0019440Y0178390D01*
X0019440Y0178990D01*
X0019560Y0179230D01*
X0019680Y0179350D01*
X0019920Y0179460D01*
X0020160Y0179460D01*
X0020510Y0179350D01*
X0021940Y0177920D01*
X0021940Y0179460D01*
X0019440Y0181010D02*
X0019440Y0181250D01*
X0019560Y0181490D01*
X0019680Y0181610D01*
X0019920Y0181730D01*
X0020390Y0181840D01*
X0020990Y0181840D01*
X0021470Y0181730D01*
X0021700Y0181610D01*
X0021820Y0181490D01*
X0021940Y0181250D01*
X0021940Y0181010D01*
X0021820Y0180770D01*
X0021700Y0180650D01*
X0021470Y0180540D01*
X0020990Y0180420D01*
X0020390Y0180420D01*
X0019920Y0180540D01*
X0019680Y0180650D01*
X0019560Y0180770D01*
X0019440Y0181010D01*
X0019440Y0184110D02*
X0019440Y0182920D01*
X0020630Y0182800D01*
X0020510Y0182920D01*
X0020390Y0183150D01*
X0020390Y0183750D01*
X0020510Y0183990D01*
X0020630Y0184110D01*
X0020870Y0184220D01*
X0021470Y0184220D01*
X0021700Y0184110D01*
X0021820Y0183990D01*
X0021940Y0183750D01*
X0021940Y0183150D01*
X0021820Y0182920D01*
X0021700Y0182800D01*
D34*
X0091200Y0153860D02*
X0091660Y0153700D01*
X0092420Y0153700D01*
X0092720Y0153860D01*
X0092880Y0154010D01*
X0093030Y0154310D01*
X0093030Y0154620D01*
X0092880Y0154920D01*
X0092720Y0155080D01*
X0092420Y0155230D01*
X0091810Y0155380D01*
X0091500Y0155530D01*
X0091350Y0155690D01*
X0091200Y0155990D01*
X0091200Y0156300D01*
X0091350Y0156600D01*
X0091500Y0156750D01*
X0091810Y0156900D01*
X0092570Y0156900D01*
X0093030Y0156750D01*
X0093940Y0156900D02*
X0095770Y0156900D01*
X0094860Y0153700D02*
X0094860Y0156900D01*
X0096840Y0153700D02*
X0096840Y0156900D01*
X0097910Y0154620D01*
X0098980Y0156900D01*
X0098980Y0153700D01*
X0100200Y0156900D02*
X0102180Y0156900D01*
X0101110Y0155690D01*
X0101570Y0155690D01*
X0101870Y0155530D01*
X0102030Y0155380D01*
X0102180Y0155080D01*
X0102180Y0154310D01*
X0102030Y0154010D01*
X0101870Y0153860D01*
X0101570Y0153700D01*
X0100650Y0153700D01*
X0100350Y0153860D01*
X0100200Y0154010D01*
X0103400Y0156600D02*
X0103550Y0156750D01*
X0103860Y0156900D01*
X0104620Y0156900D01*
X0104920Y0156750D01*
X0105080Y0156600D01*
X0105230Y0156300D01*
X0105230Y0155990D01*
X0105080Y0155530D01*
X0103250Y0153700D01*
X0105230Y0153700D01*
X0107670Y0155380D02*
X0106600Y0155380D01*
X0106600Y0153700D02*
X0106600Y0156900D01*
X0108130Y0156900D01*
X0111020Y0153700D02*
X0109190Y0153700D01*
X0110100Y0153700D02*
X0110100Y0156900D01*
X0109800Y0156450D01*
X0109490Y0156140D01*
X0109190Y0155990D01*
X0113000Y0156900D02*
X0113310Y0156900D01*
X0113610Y0156750D01*
X0113760Y0156600D01*
X0113920Y0156300D01*
X0114070Y0155690D01*
X0114070Y0154920D01*
X0113920Y0154310D01*
X0113760Y0154010D01*
X0113610Y0153860D01*
X0113310Y0153700D01*
X0113000Y0153700D01*
X0112700Y0153860D01*
X0112540Y0154010D01*
X0112390Y0154310D01*
X0112240Y0154920D01*
X0112240Y0155690D01*
X0112390Y0156300D01*
X0112540Y0156600D01*
X0112700Y0156750D01*
X0113000Y0156900D01*
X0116050Y0156900D02*
X0116360Y0156900D01*
X0116660Y0156750D01*
X0116810Y0156600D01*
X0116970Y0156300D01*
X0117120Y0155690D01*
X0117120Y0154920D01*
X0116970Y0154310D01*
X0116810Y0154010D01*
X0116660Y0153860D01*
X0116360Y0153700D01*
X0116050Y0153700D01*
X0115750Y0153860D01*
X0115590Y0154010D01*
X0115440Y0154310D01*
X0115290Y0154920D01*
X0115290Y0155690D01*
X0115440Y0156300D01*
X0115590Y0156600D01*
X0115750Y0156750D01*
X0116050Y0156900D01*
X0117730Y0153400D02*
X0120170Y0153400D01*
X0122300Y0155840D02*
X0122300Y0153700D01*
X0121540Y0157060D02*
X0120780Y0154770D01*
X0122760Y0154770D01*
X0124440Y0155530D02*
X0124130Y0155690D01*
X0123980Y0155840D01*
X0123830Y0156140D01*
X0123830Y0156300D01*
X0123980Y0156600D01*
X0124130Y0156750D01*
X0124440Y0156900D01*
X0125050Y0156900D01*
X0125350Y0156750D01*
X0125510Y0156600D01*
X0125660Y0156300D01*
X0125660Y0156140D01*
X0125510Y0155840D01*
X0125350Y0155690D01*
X0125050Y0155530D01*
X0124440Y0155530D01*
X0124130Y0155380D01*
X0123980Y0155230D01*
X0123830Y0154920D01*
X0123830Y0154310D01*
X0123980Y0154010D01*
X0124130Y0153860D01*
X0124440Y0153700D01*
X0125050Y0153700D01*
X0125350Y0153860D01*
X0125510Y0154010D01*
X0125660Y0154310D01*
X0125660Y0154920D01*
X0125510Y0155230D01*
X0125350Y0155380D01*
X0125050Y0155530D01*
D13*
X0186170Y0140910D02*
X0186290Y0140800D01*
X0186400Y0140460D01*
X0186400Y0140230D01*
X0186290Y0139880D01*
X0186060Y0139660D01*
X0185830Y0139540D01*
X0185370Y0139430D01*
X0185030Y0139430D01*
X0184570Y0139540D01*
X0184340Y0139660D01*
X0184120Y0139880D01*
X0184000Y0140230D01*
X0184000Y0140460D01*
X0184120Y0140800D01*
X0184230Y0140910D01*
X0184000Y0142400D02*
X0184000Y0142860D01*
X0184120Y0143080D01*
X0184340Y0143310D01*
X0184800Y0143430D01*
X0185600Y0143430D01*
X0186060Y0143310D01*
X0186290Y0143080D01*
X0186400Y0142860D01*
X0186400Y0142400D01*
X0186290Y0142170D01*
X0186060Y0141940D01*
X0185600Y0141830D01*
X0184800Y0141830D01*
X0184340Y0141940D01*
X0184120Y0142170D01*
X0184000Y0142400D01*
X0186400Y0144450D02*
X0184000Y0144450D01*
X0186400Y0145820D01*
X0184000Y0145820D01*
X0186400Y0146960D02*
X0184000Y0146960D01*
X0186400Y0148330D01*
X0184000Y0148330D01*
X0186630Y0148900D02*
X0186630Y0150730D01*
X0186170Y0152670D02*
X0186290Y0152560D01*
X0186400Y0152220D01*
X0186400Y0151990D01*
X0186290Y0151640D01*
X0186060Y0151420D01*
X0185830Y0151300D01*
X0185370Y0151190D01*
X0185030Y0151190D01*
X0184570Y0151300D01*
X0184340Y0151420D01*
X0184120Y0151640D01*
X0184000Y0151990D01*
X0184000Y0152220D01*
X0184120Y0152560D01*
X0184230Y0152670D01*
X0184000Y0154160D02*
X0184000Y0154620D01*
X0184120Y0154840D01*
X0184340Y0155070D01*
X0184800Y0155190D01*
X0185600Y0155190D01*
X0186060Y0155070D01*
X0186290Y0154840D01*
X0186400Y0154620D01*
X0186400Y0154160D01*
X0186290Y0153930D01*
X0186060Y0153700D01*
X0185600Y0153590D01*
X0184800Y0153590D01*
X0184340Y0153700D01*
X0184120Y0153930D01*
X0184000Y0154160D01*
X0186400Y0157580D02*
X0185260Y0156780D01*
X0186400Y0156210D02*
X0184000Y0156210D01*
X0184000Y0157130D01*
X0184120Y0157350D01*
X0184230Y0157470D01*
X0184460Y0157580D01*
X0184800Y0157580D01*
X0185030Y0157470D01*
X0185140Y0157350D01*
X0185260Y0157130D01*
X0185260Y0156210D01*
X0184000Y0158270D02*
X0184000Y0159640D01*
X0186400Y0158950D02*
X0184000Y0158950D01*
X0185140Y0160440D02*
X0185140Y0161240D01*
X0186400Y0161580D02*
X0186400Y0160440D01*
X0184000Y0160440D01*
X0184000Y0161580D01*
X0184000Y0162380D02*
X0186400Y0163980D01*
X0184000Y0163980D02*
X0186400Y0162380D01*
X0186630Y0164330D02*
X0186630Y0166160D01*
X0186400Y0166730D02*
X0184000Y0166730D01*
X0184000Y0167300D01*
X0184120Y0167650D01*
X0184340Y0167870D01*
X0184570Y0167990D01*
X0185030Y0168100D01*
X0185370Y0168100D01*
X0185830Y0167990D01*
X0186060Y0167870D01*
X0186290Y0167650D01*
X0186400Y0167300D01*
X0186400Y0166730D01*
X0185140Y0169130D02*
X0185140Y0169930D01*
X0186400Y0170270D02*
X0186400Y0169130D01*
X0184000Y0169130D01*
X0184000Y0170270D01*
X0185140Y0172100D02*
X0185260Y0172440D01*
X0185370Y0172560D01*
X0185600Y0172670D01*
X0185940Y0172670D01*
X0186170Y0172560D01*
X0186290Y0172440D01*
X0186400Y0172220D01*
X0186400Y0171300D01*
X0184000Y0171300D01*
X0184000Y0172100D01*
X0184120Y0172330D01*
X0184230Y0172440D01*
X0184460Y0172560D01*
X0184690Y0172560D01*
X0184920Y0172440D01*
X0185030Y0172330D01*
X0185140Y0172100D01*
X0185140Y0171300D01*
X0184000Y0173700D02*
X0185940Y0173700D01*
X0186170Y0173820D01*
X0186290Y0173930D01*
X0186400Y0174160D01*
X0186400Y0174620D01*
X0186290Y0174840D01*
X0186170Y0174960D01*
X0185940Y0175070D01*
X0184000Y0175070D01*
X0184120Y0177470D02*
X0184000Y0177240D01*
X0184000Y0176900D01*
X0184120Y0176550D01*
X0184340Y0176330D01*
X0184570Y0176210D01*
X0185030Y0176100D01*
X0185370Y0176100D01*
X0185830Y0176210D01*
X0186060Y0176330D01*
X0186290Y0176550D01*
X0186400Y0176900D01*
X0186400Y0177130D01*
X0186290Y0177470D01*
X0186170Y0177580D01*
X0185370Y0177580D01*
X0185370Y0177130D01*
D41*
X0010500Y0112000D02*
X0010500Y0202000D01*
X0010500Y0202000D02*
X0206360Y0202000D01*
X0206360Y0202000D02*
X0206360Y0112000D01*
X0206360Y0112000D02*
X0010500Y0112000D01*
D41*
X0023000Y0010500D02*
X0010500Y0010500D01*
X0010500Y0023000D01*
X0206360Y0023000D02*
X0206360Y0010500D01*
X0193860Y0010500D01*
X0193860Y0202000D02*
X0206360Y0202000D01*
X0206360Y0189500D01*
X0010500Y0189500D02*
X0010500Y0202000D01*
X0023000Y0202000D01*
M02*
