%
T01C0.012000
X6127Y7978
X6740Y6770
X8329Y6584
X8769Y4023
X9575Y5416
X11503Y5140
X13059Y5992
X13367Y5932
X14117Y6221
X14690Y3547
X15799Y8364
X15943Y8876
X16518Y7990
X17090Y2687
X17094Y6187
X17284Y7361
X6127Y18228
X6740Y17020
X8329Y16834
X8769Y14273
X9575Y15666
X11503Y15390
X13059Y16242
X13367Y16182
X14117Y16471
X14690Y13797
X15799Y18614
X15943Y19126
X16518Y18240
X17090Y12937
X17094Y16437
X17284Y17611
T02C0.026000
X19343Y6500
X19343Y6000
X19343Y5500
X19343Y5000
X19343Y4500
X19843Y6500
X19843Y6000
X19843Y5500
X19843Y5000
X19843Y4500
X19343Y16750
X19343Y16250
X19343Y15750
X19343Y15250
X19343Y14750
X19843Y16750
X19843Y16250
X19843Y15750
X19843Y15250
X19843Y14750
T03C0.032000
X1343Y9500
X1343Y1500
X2343Y9500
X2343Y1500
X3343Y9500
X3343Y1500
X4343Y9500
X4343Y1500
X5343Y9500
X5343Y1500
X6343Y9500
X6343Y1500
X7343Y9500
X7343Y1500
X8343Y9500
X8343Y1500
X9343Y9500
X9343Y1500
X10343Y9500
X10343Y1500
X11343Y9500
X11343Y1500
X12343Y9500
X12343Y1500
X13343Y9500
X13343Y1500
X14343Y9500
X14343Y1500
X15343Y9500
X15343Y1500
X16343Y9500
X16343Y1500
X17343Y9500
X17343Y1500
X18343Y9500
X18343Y1500
X19343Y9500
X19343Y1500
X20343Y9500
X20343Y1500
X1343Y19750
X1343Y11750
X2343Y19750
X2343Y11750
X3343Y19750
X3343Y11750
X4343Y19750
X4343Y11750
X5343Y19750
X5343Y11750
X6343Y19750
X6343Y11750
X7343Y19750
X7343Y11750
X8343Y19750
X8343Y11750
X9343Y19750
X9343Y11750
X10343Y19750
X10343Y11750
X11343Y19750
X11343Y11750
X12343Y19750
X12343Y11750
X13343Y19750
X13343Y11750
X14343Y19750
X14343Y11750
X15343Y19750
X15343Y11750
X16343Y19750
X16343Y11750
X17343Y19750
X17343Y11750
X18343Y19750
X18343Y11750
X19343Y19750
X19343Y11750
X20343Y19750
X20343Y11750
M30
