G04 (created by PCBNEW (2013-07-07 BZR 4022)-stable) date 5/12/2014 12:12:32 PM*
%MOIN*%
G04 Gerber Fmt 3.4, Leading zero omitted, Abs format*
%FSLAX34Y34*%
G01*
G70*
G90*
G04 APERTURE LIST*
%ADD10C,0.008*%
%ADD11C,0.065*%
%ADD12R,0.065X0.065*%
%ADD13C,0.215*%
%ADD14C,0.02*%
%ADD15C,0.01*%
%ADD16C,0.03*%
%ADD17C,0.1*%
%ADD18C,0.2*%
G04 APERTURE END LIST*
G54D10*
G54D11*
X46500Y-30500D03*
X47500Y-30500D03*
X48500Y-30500D03*
X49500Y-30500D03*
X50500Y-30500D03*
X51500Y-30500D03*
X52500Y-30500D03*
X53500Y-30500D03*
X53500Y-25500D03*
X52500Y-25500D03*
X51500Y-25500D03*
X50500Y-25500D03*
X49500Y-25500D03*
X48500Y-25500D03*
X47500Y-25500D03*
X46500Y-25500D03*
X38500Y-30500D03*
X39500Y-30500D03*
X40500Y-30500D03*
X41500Y-30500D03*
X42500Y-30500D03*
X43500Y-30500D03*
X44500Y-30500D03*
X45500Y-30500D03*
X45500Y-25500D03*
X44500Y-25500D03*
X43500Y-25500D03*
X42500Y-25500D03*
X41500Y-25500D03*
X40500Y-25500D03*
X39500Y-25500D03*
X38500Y-25500D03*
X30500Y-30500D03*
X31500Y-30500D03*
X32500Y-30500D03*
X33500Y-30500D03*
X34500Y-30500D03*
X35500Y-30500D03*
X36500Y-30500D03*
X37500Y-30500D03*
X37500Y-25500D03*
X36500Y-25500D03*
X35500Y-25500D03*
X34500Y-25500D03*
X33500Y-25500D03*
X32500Y-25500D03*
X31500Y-25500D03*
X30500Y-25500D03*
G54D12*
X47500Y-33000D03*
G54D11*
X47500Y-32000D03*
X48500Y-33000D03*
X48500Y-32000D03*
X49500Y-33000D03*
X49500Y-32000D03*
G54D12*
X39500Y-33000D03*
G54D11*
X39500Y-32000D03*
X40500Y-33000D03*
X40500Y-32000D03*
X41500Y-33000D03*
X41500Y-32000D03*
G54D12*
X31500Y-33000D03*
G54D11*
X31500Y-32000D03*
X32500Y-33000D03*
X32500Y-32000D03*
X33500Y-33000D03*
X33500Y-32000D03*
G54D12*
X48500Y-23750D03*
G54D11*
X49500Y-23750D03*
X50500Y-23750D03*
X51500Y-23750D03*
G54D12*
X40500Y-23750D03*
G54D11*
X41500Y-23750D03*
X42500Y-23750D03*
X43500Y-23750D03*
G54D12*
X32500Y-23750D03*
G54D11*
X33500Y-23750D03*
X34500Y-23750D03*
X35500Y-23750D03*
G54D13*
X30500Y-23500D03*
X56500Y-24750D03*
G54D12*
X53500Y-27000D03*
G54D11*
X53500Y-28000D03*
X52500Y-27000D03*
X52500Y-28000D03*
X51500Y-27000D03*
X51500Y-28000D03*
X50500Y-27000D03*
X50500Y-28000D03*
G54D12*
X45500Y-27000D03*
G54D11*
X45500Y-28000D03*
X44500Y-27000D03*
X44500Y-28000D03*
X43500Y-27000D03*
X43500Y-28000D03*
X42500Y-27000D03*
X42500Y-28000D03*
G54D12*
X36500Y-27000D03*
G54D11*
X36500Y-28000D03*
X35500Y-27000D03*
X35500Y-28000D03*
X34500Y-27000D03*
X34500Y-28000D03*
G54D14*
X44500Y-25500D02*
X45250Y-26250D01*
X45750Y-28000D02*
X45500Y-28000D01*
X46250Y-27500D02*
X45750Y-28000D01*
X46250Y-26500D02*
X46250Y-27500D01*
X46000Y-26250D02*
X46250Y-26500D01*
X45250Y-26250D02*
X46000Y-26250D01*
G54D15*
X39500Y-33000D02*
X35000Y-33000D01*
X35000Y-33000D02*
X34500Y-32500D01*
X47500Y-33000D02*
X43000Y-33000D01*
X43000Y-33000D02*
X42500Y-32500D01*
X34000Y-33000D02*
X33500Y-33000D01*
X49500Y-33000D02*
X48500Y-33000D01*
X50500Y-30500D02*
X50500Y-32000D01*
X50500Y-32000D02*
X49500Y-33000D01*
X51500Y-30500D02*
X50500Y-30500D01*
X35500Y-30500D02*
X34500Y-30500D01*
X45500Y-28000D02*
X43500Y-30000D01*
X43500Y-30000D02*
X43500Y-30500D01*
X43500Y-30500D02*
X42500Y-30500D01*
X48500Y-33000D02*
X47500Y-33000D01*
X41500Y-33000D02*
X40500Y-33000D01*
X40500Y-33000D02*
X39500Y-33000D01*
X42500Y-30500D02*
X42500Y-32500D01*
X42500Y-32500D02*
X42000Y-33000D01*
X42000Y-33000D02*
X41500Y-33000D01*
X34500Y-30500D02*
X34500Y-32500D01*
X34000Y-33000D02*
X32500Y-33000D01*
X34500Y-32500D02*
X34000Y-33000D01*
X32500Y-33000D02*
X31500Y-33000D01*
G54D16*
X34500Y-25500D02*
X34500Y-23750D01*
X35500Y-25500D02*
X35500Y-23750D01*
X33500Y-25500D02*
X33500Y-23750D01*
X32500Y-25500D02*
X32500Y-23750D01*
X42500Y-25500D02*
X42500Y-23750D01*
X43500Y-25500D02*
X43500Y-23750D01*
X41500Y-25500D02*
X41500Y-23750D01*
X40500Y-25500D02*
X40500Y-23750D01*
X50500Y-25500D02*
X50500Y-23750D01*
X51500Y-25500D02*
X51500Y-23750D01*
X49500Y-25500D02*
X49500Y-23750D01*
X48500Y-25500D02*
X48500Y-23750D01*
G54D15*
X43500Y-28000D02*
X43000Y-28500D01*
X38000Y-31000D02*
X37500Y-30500D01*
X38750Y-31000D02*
X38000Y-31000D01*
X39000Y-30750D02*
X38750Y-31000D01*
X39000Y-30000D02*
X39000Y-30750D01*
X40500Y-28500D02*
X39000Y-30000D01*
X43000Y-28500D02*
X40500Y-28500D01*
X45500Y-30000D02*
X45500Y-30500D01*
X50500Y-28000D02*
X47500Y-28000D01*
X47500Y-28000D02*
X45500Y-30000D01*
X53500Y-30500D02*
X53000Y-31000D01*
X52250Y-31000D02*
X52000Y-30750D01*
X53000Y-31000D02*
X52250Y-31000D01*
X52000Y-30000D02*
X52000Y-30750D01*
X51500Y-28000D02*
X51500Y-29500D01*
X51500Y-29500D02*
X52000Y-30000D01*
X38500Y-30000D02*
X38500Y-30500D01*
X42500Y-28000D02*
X40500Y-28000D01*
X40500Y-28000D02*
X38500Y-30000D01*
G54D17*
X30500Y-23500D02*
X30750Y-23250D01*
X30000Y-24000D02*
X30500Y-23500D01*
X30000Y-24500D02*
X30000Y-24000D01*
X31500Y-24500D02*
X30000Y-24500D01*
X31500Y-23250D02*
X31500Y-24500D01*
X30750Y-23250D02*
X31500Y-23250D01*
G54D18*
X56500Y-24750D02*
X55250Y-24750D01*
G54D15*
X33500Y-32000D02*
X33500Y-30500D01*
X32500Y-32000D02*
X32500Y-30500D01*
X49500Y-32000D02*
X49500Y-30500D01*
X48500Y-32000D02*
X48500Y-30500D01*
X41500Y-32000D02*
X41500Y-30500D01*
X40500Y-32000D02*
X40500Y-30500D01*
X39500Y-32000D02*
X39500Y-30500D01*
X31500Y-32000D02*
X31500Y-30500D01*
X47500Y-32000D02*
X47500Y-30500D01*
X44000Y-27500D02*
X39000Y-27500D01*
X39000Y-27500D02*
X36500Y-30000D01*
X44500Y-28000D02*
X44000Y-27500D01*
X36500Y-30000D02*
X36500Y-30500D01*
X52500Y-28000D02*
X52000Y-27500D01*
X52000Y-27500D02*
X47000Y-27500D01*
X44500Y-30000D02*
X44500Y-30500D01*
X47000Y-27500D02*
X44500Y-30000D01*
X53500Y-28000D02*
X53500Y-29000D01*
X53500Y-29000D02*
X52500Y-30000D01*
X52500Y-30000D02*
X52500Y-30500D01*
G54D10*
G36*
X56576Y-24755D02*
X56505Y-24826D01*
X56500Y-24820D01*
X56429Y-24891D01*
X56429Y-24750D01*
X55581Y-23902D01*
X55419Y-24026D01*
X55225Y-24495D01*
X55224Y-25002D01*
X55418Y-25471D01*
X55419Y-25473D01*
X55581Y-25597D01*
X56429Y-24750D01*
X56429Y-24891D01*
X55652Y-25668D01*
X55676Y-25700D01*
X55238Y-25700D01*
X54720Y-25958D01*
X54458Y-26220D01*
X54200Y-26738D01*
X54200Y-33238D01*
X54029Y-33578D01*
X54029Y-25575D01*
X54018Y-25367D01*
X53960Y-25227D01*
X53876Y-25194D01*
X53805Y-25264D01*
X53805Y-25123D01*
X53772Y-25039D01*
X53575Y-24970D01*
X53367Y-24981D01*
X53227Y-25039D01*
X53194Y-25123D01*
X53500Y-25429D01*
X53805Y-25123D01*
X53805Y-25264D01*
X53570Y-25500D01*
X53876Y-25805D01*
X53960Y-25772D01*
X54029Y-25575D01*
X54029Y-33578D01*
X54025Y-33588D01*
X54025Y-27285D01*
X54025Y-26714D01*
X54024Y-26635D01*
X53994Y-26561D01*
X53938Y-26505D01*
X53864Y-26474D01*
X53805Y-26474D01*
X53805Y-25876D01*
X53500Y-25570D01*
X53429Y-25641D01*
X53429Y-25500D01*
X53123Y-25194D01*
X53039Y-25227D01*
X52975Y-25410D01*
X52975Y-25405D01*
X52902Y-25231D01*
X52769Y-25097D01*
X52594Y-25025D01*
X52405Y-25024D01*
X52231Y-25097D01*
X52097Y-25230D01*
X52025Y-25405D01*
X52024Y-25594D01*
X52097Y-25768D01*
X52230Y-25902D01*
X52405Y-25974D01*
X52594Y-25975D01*
X52768Y-25902D01*
X52902Y-25769D01*
X52974Y-25594D01*
X52974Y-25514D01*
X52981Y-25632D01*
X53039Y-25772D01*
X53123Y-25805D01*
X53429Y-25500D01*
X53429Y-25641D01*
X53194Y-25876D01*
X53227Y-25960D01*
X53424Y-26029D01*
X53632Y-26018D01*
X53772Y-25960D01*
X53805Y-25876D01*
X53805Y-26474D01*
X53600Y-26475D01*
X53550Y-26525D01*
X53550Y-26950D01*
X53975Y-26950D01*
X54025Y-26900D01*
X54025Y-26714D01*
X54025Y-27285D01*
X54025Y-27100D01*
X53975Y-27050D01*
X53550Y-27050D01*
X53550Y-27475D01*
X53600Y-27525D01*
X53864Y-27525D01*
X53938Y-27494D01*
X53994Y-27438D01*
X54024Y-27364D01*
X54025Y-27285D01*
X54025Y-33588D01*
X53975Y-33688D01*
X53975Y-30405D01*
X53902Y-30231D01*
X53769Y-30097D01*
X53594Y-30025D01*
X53405Y-30024D01*
X53231Y-30097D01*
X53097Y-30230D01*
X53025Y-30405D01*
X53024Y-30594D01*
X53053Y-30663D01*
X52917Y-30800D01*
X52871Y-30800D01*
X52902Y-30769D01*
X52974Y-30594D01*
X52975Y-30405D01*
X52902Y-30231D01*
X52769Y-30097D01*
X52709Y-30072D01*
X53641Y-29141D01*
X53641Y-29141D01*
X53670Y-29098D01*
X53684Y-29076D01*
X53684Y-29076D01*
X53699Y-29000D01*
X53700Y-29000D01*
X53700Y-28431D01*
X53768Y-28402D01*
X53902Y-28269D01*
X53974Y-28094D01*
X53975Y-27905D01*
X53902Y-27731D01*
X53769Y-27597D01*
X53594Y-27525D01*
X53450Y-27524D01*
X53450Y-27475D01*
X53450Y-27050D01*
X53442Y-27050D01*
X53442Y-26950D01*
X53450Y-26950D01*
X53450Y-26525D01*
X53400Y-26475D01*
X53135Y-26474D01*
X53061Y-26505D01*
X53005Y-26561D01*
X52975Y-26635D01*
X52974Y-26714D01*
X52974Y-26762D01*
X52960Y-26727D01*
X52876Y-26694D01*
X52805Y-26764D01*
X52805Y-26623D01*
X52772Y-26539D01*
X52575Y-26470D01*
X52367Y-26481D01*
X52227Y-26539D01*
X52194Y-26623D01*
X52500Y-26929D01*
X52805Y-26623D01*
X52805Y-26764D01*
X52570Y-27000D01*
X52876Y-27305D01*
X52960Y-27272D01*
X52974Y-27231D01*
X52974Y-27285D01*
X52975Y-27364D01*
X53005Y-27438D01*
X53061Y-27494D01*
X53135Y-27525D01*
X53400Y-27525D01*
X53450Y-27475D01*
X53450Y-27524D01*
X53405Y-27524D01*
X53231Y-27597D01*
X53097Y-27730D01*
X53025Y-27905D01*
X53024Y-28094D01*
X53097Y-28268D01*
X53230Y-28402D01*
X53300Y-28431D01*
X53300Y-28917D01*
X52358Y-29858D01*
X52315Y-29923D01*
X52300Y-30000D01*
X52300Y-30068D01*
X52231Y-30097D01*
X52200Y-30128D01*
X52200Y-30000D01*
X52187Y-29936D01*
X52184Y-29923D01*
X52184Y-29923D01*
X52141Y-29858D01*
X51700Y-29417D01*
X51700Y-28431D01*
X51768Y-28402D01*
X51902Y-28269D01*
X51974Y-28094D01*
X51975Y-27905D01*
X51902Y-27731D01*
X51871Y-27700D01*
X51917Y-27700D01*
X52053Y-27836D01*
X52025Y-27905D01*
X52024Y-28094D01*
X52097Y-28268D01*
X52230Y-28402D01*
X52405Y-28474D01*
X52594Y-28475D01*
X52768Y-28402D01*
X52902Y-28269D01*
X52974Y-28094D01*
X52975Y-27905D01*
X52902Y-27731D01*
X52769Y-27597D01*
X52594Y-27525D01*
X52514Y-27525D01*
X52632Y-27518D01*
X52772Y-27460D01*
X52805Y-27376D01*
X52500Y-27070D01*
X52494Y-27076D01*
X52423Y-27005D01*
X52429Y-27000D01*
X52123Y-26694D01*
X52039Y-26727D01*
X52003Y-26830D01*
X51975Y-26762D01*
X51975Y-25405D01*
X51902Y-25231D01*
X51800Y-25128D01*
X51800Y-24121D01*
X51902Y-24019D01*
X51974Y-23844D01*
X51975Y-23655D01*
X51902Y-23481D01*
X51769Y-23347D01*
X51594Y-23275D01*
X51405Y-23274D01*
X51231Y-23347D01*
X51097Y-23480D01*
X51025Y-23655D01*
X51024Y-23844D01*
X51097Y-24018D01*
X51200Y-24121D01*
X51200Y-25128D01*
X51097Y-25230D01*
X51025Y-25405D01*
X51024Y-25594D01*
X51097Y-25768D01*
X51230Y-25902D01*
X51405Y-25974D01*
X51594Y-25975D01*
X51768Y-25902D01*
X51902Y-25769D01*
X51974Y-25594D01*
X51975Y-25405D01*
X51975Y-26762D01*
X51960Y-26727D01*
X51876Y-26694D01*
X51805Y-26764D01*
X51805Y-26623D01*
X51772Y-26539D01*
X51575Y-26470D01*
X51367Y-26481D01*
X51227Y-26539D01*
X51194Y-26623D01*
X51500Y-26929D01*
X51805Y-26623D01*
X51805Y-26764D01*
X51570Y-27000D01*
X51576Y-27005D01*
X51505Y-27076D01*
X51500Y-27070D01*
X51494Y-27076D01*
X51423Y-27005D01*
X51429Y-27000D01*
X51123Y-26694D01*
X51039Y-26727D01*
X51003Y-26830D01*
X50975Y-26762D01*
X50975Y-25405D01*
X50902Y-25231D01*
X50800Y-25128D01*
X50800Y-24121D01*
X50902Y-24019D01*
X50974Y-23844D01*
X50975Y-23655D01*
X50902Y-23481D01*
X50769Y-23347D01*
X50594Y-23275D01*
X50405Y-23274D01*
X50231Y-23347D01*
X50097Y-23480D01*
X50025Y-23655D01*
X50024Y-23844D01*
X50097Y-24018D01*
X50200Y-24121D01*
X50200Y-25128D01*
X50097Y-25230D01*
X50025Y-25405D01*
X50024Y-25594D01*
X50097Y-25768D01*
X50230Y-25902D01*
X50405Y-25974D01*
X50594Y-25975D01*
X50768Y-25902D01*
X50902Y-25769D01*
X50974Y-25594D01*
X50975Y-25405D01*
X50975Y-26762D01*
X50960Y-26727D01*
X50876Y-26694D01*
X50805Y-26764D01*
X50805Y-26623D01*
X50772Y-26539D01*
X50575Y-26470D01*
X50367Y-26481D01*
X50227Y-26539D01*
X50194Y-26623D01*
X50500Y-26929D01*
X50805Y-26623D01*
X50805Y-26764D01*
X50570Y-27000D01*
X50576Y-27005D01*
X50505Y-27076D01*
X50500Y-27070D01*
X50494Y-27076D01*
X50423Y-27005D01*
X50429Y-27000D01*
X50123Y-26694D01*
X50039Y-26727D01*
X49975Y-26910D01*
X49975Y-25405D01*
X49902Y-25231D01*
X49800Y-25128D01*
X49800Y-24121D01*
X49902Y-24019D01*
X49974Y-23844D01*
X49975Y-23655D01*
X49902Y-23481D01*
X49769Y-23347D01*
X49594Y-23275D01*
X49405Y-23274D01*
X49231Y-23347D01*
X49097Y-23480D01*
X49025Y-23655D01*
X49024Y-23844D01*
X49097Y-24018D01*
X49200Y-24121D01*
X49200Y-25128D01*
X49097Y-25230D01*
X49025Y-25405D01*
X49024Y-25594D01*
X49097Y-25768D01*
X49230Y-25902D01*
X49405Y-25974D01*
X49594Y-25975D01*
X49768Y-25902D01*
X49902Y-25769D01*
X49974Y-25594D01*
X49975Y-25405D01*
X49975Y-26910D01*
X49970Y-26924D01*
X49981Y-27132D01*
X50039Y-27272D01*
X50108Y-27300D01*
X48975Y-27300D01*
X48975Y-25405D01*
X48902Y-25231D01*
X48800Y-25128D01*
X48800Y-24225D01*
X48854Y-24225D01*
X48909Y-24202D01*
X48952Y-24160D01*
X48974Y-24104D01*
X48975Y-24045D01*
X48975Y-23395D01*
X48952Y-23340D01*
X48910Y-23297D01*
X48854Y-23275D01*
X48795Y-23274D01*
X48145Y-23274D01*
X48090Y-23297D01*
X48047Y-23339D01*
X48025Y-23395D01*
X48024Y-23454D01*
X48024Y-24104D01*
X48047Y-24159D01*
X48089Y-24202D01*
X48145Y-24224D01*
X48200Y-24225D01*
X48200Y-25128D01*
X48097Y-25230D01*
X48025Y-25405D01*
X48025Y-25485D01*
X48018Y-25367D01*
X47960Y-25227D01*
X47876Y-25194D01*
X47805Y-25264D01*
X47805Y-25123D01*
X47772Y-25039D01*
X47575Y-24970D01*
X47367Y-24981D01*
X47227Y-25039D01*
X47194Y-25123D01*
X47500Y-25429D01*
X47805Y-25123D01*
X47805Y-25264D01*
X47570Y-25500D01*
X47876Y-25805D01*
X47960Y-25772D01*
X48024Y-25589D01*
X48024Y-25594D01*
X48097Y-25768D01*
X48230Y-25902D01*
X48405Y-25974D01*
X48594Y-25975D01*
X48768Y-25902D01*
X48902Y-25769D01*
X48974Y-25594D01*
X48975Y-25405D01*
X48975Y-27300D01*
X47805Y-27300D01*
X47805Y-25876D01*
X47500Y-25570D01*
X47429Y-25641D01*
X47429Y-25500D01*
X47123Y-25194D01*
X47039Y-25227D01*
X46975Y-25410D01*
X46975Y-25405D01*
X46902Y-25231D01*
X46769Y-25097D01*
X46594Y-25025D01*
X46405Y-25024D01*
X46231Y-25097D01*
X46097Y-25230D01*
X46025Y-25405D01*
X46025Y-25485D01*
X46018Y-25367D01*
X45960Y-25227D01*
X45876Y-25194D01*
X45805Y-25264D01*
X45805Y-25123D01*
X45772Y-25039D01*
X45575Y-24970D01*
X45367Y-24981D01*
X45227Y-25039D01*
X45194Y-25123D01*
X45500Y-25429D01*
X45805Y-25123D01*
X45805Y-25264D01*
X45570Y-25500D01*
X45876Y-25805D01*
X45960Y-25772D01*
X46024Y-25589D01*
X46024Y-25594D01*
X46097Y-25768D01*
X46230Y-25902D01*
X46405Y-25974D01*
X46594Y-25975D01*
X46768Y-25902D01*
X46902Y-25769D01*
X46974Y-25594D01*
X46974Y-25514D01*
X46981Y-25632D01*
X47039Y-25772D01*
X47123Y-25805D01*
X47429Y-25500D01*
X47429Y-25641D01*
X47194Y-25876D01*
X47227Y-25960D01*
X47424Y-26029D01*
X47632Y-26018D01*
X47772Y-25960D01*
X47805Y-25876D01*
X47805Y-27300D01*
X47000Y-27300D01*
X46923Y-27315D01*
X46858Y-27358D01*
X44358Y-29858D01*
X44315Y-29923D01*
X44300Y-30000D01*
X44300Y-30068D01*
X44231Y-30097D01*
X44097Y-30230D01*
X44025Y-30405D01*
X44024Y-30594D01*
X44097Y-30768D01*
X44230Y-30902D01*
X44405Y-30974D01*
X44594Y-30975D01*
X44768Y-30902D01*
X44902Y-30769D01*
X44974Y-30594D01*
X44975Y-30405D01*
X44902Y-30231D01*
X44769Y-30097D01*
X44709Y-30072D01*
X47082Y-27700D01*
X50128Y-27700D01*
X50097Y-27730D01*
X50068Y-27800D01*
X47500Y-27800D01*
X47423Y-27815D01*
X47401Y-27829D01*
X47358Y-27858D01*
X45358Y-29858D01*
X45315Y-29923D01*
X45300Y-30000D01*
X45300Y-30068D01*
X45231Y-30097D01*
X45097Y-30230D01*
X45025Y-30405D01*
X45024Y-30594D01*
X45097Y-30768D01*
X45230Y-30902D01*
X45405Y-30974D01*
X45594Y-30975D01*
X45768Y-30902D01*
X45902Y-30769D01*
X45974Y-30594D01*
X45975Y-30405D01*
X45902Y-30231D01*
X45769Y-30097D01*
X45709Y-30072D01*
X47582Y-28200D01*
X50068Y-28200D01*
X50097Y-28268D01*
X50230Y-28402D01*
X50405Y-28474D01*
X50594Y-28475D01*
X50768Y-28402D01*
X50902Y-28269D01*
X50974Y-28094D01*
X50975Y-27905D01*
X50902Y-27731D01*
X50871Y-27700D01*
X51128Y-27700D01*
X51097Y-27730D01*
X51025Y-27905D01*
X51024Y-28094D01*
X51097Y-28268D01*
X51230Y-28402D01*
X51300Y-28431D01*
X51300Y-29500D01*
X51315Y-29576D01*
X51358Y-29641D01*
X51800Y-30082D01*
X51800Y-30128D01*
X51769Y-30097D01*
X51594Y-30025D01*
X51405Y-30024D01*
X51231Y-30097D01*
X51097Y-30230D01*
X51068Y-30300D01*
X50931Y-30300D01*
X50902Y-30231D01*
X50769Y-30097D01*
X50594Y-30025D01*
X50405Y-30024D01*
X50231Y-30097D01*
X50097Y-30230D01*
X50025Y-30405D01*
X50024Y-30594D01*
X50097Y-30768D01*
X50230Y-30902D01*
X50300Y-30931D01*
X50300Y-31917D01*
X49975Y-32242D01*
X49975Y-31905D01*
X49902Y-31731D01*
X49769Y-31597D01*
X49700Y-31568D01*
X49700Y-30931D01*
X49768Y-30902D01*
X49902Y-30769D01*
X49974Y-30594D01*
X49975Y-30405D01*
X49902Y-30231D01*
X49769Y-30097D01*
X49594Y-30025D01*
X49405Y-30024D01*
X49231Y-30097D01*
X49097Y-30230D01*
X49025Y-30405D01*
X49024Y-30594D01*
X49097Y-30768D01*
X49230Y-30902D01*
X49300Y-30931D01*
X49300Y-31568D01*
X49231Y-31597D01*
X49097Y-31730D01*
X49025Y-31905D01*
X49024Y-32094D01*
X49097Y-32268D01*
X49230Y-32402D01*
X49405Y-32474D01*
X49594Y-32475D01*
X49768Y-32402D01*
X49902Y-32269D01*
X49974Y-32094D01*
X49975Y-31905D01*
X49975Y-32242D01*
X49663Y-32553D01*
X49594Y-32525D01*
X49405Y-32524D01*
X49231Y-32597D01*
X49097Y-32730D01*
X49068Y-32800D01*
X48975Y-32800D01*
X48975Y-31905D01*
X48902Y-31731D01*
X48769Y-31597D01*
X48700Y-31568D01*
X48700Y-30931D01*
X48768Y-30902D01*
X48902Y-30769D01*
X48974Y-30594D01*
X48975Y-30405D01*
X48902Y-30231D01*
X48769Y-30097D01*
X48594Y-30025D01*
X48405Y-30024D01*
X48231Y-30097D01*
X48097Y-30230D01*
X48025Y-30405D01*
X48024Y-30594D01*
X48097Y-30768D01*
X48230Y-30902D01*
X48300Y-30931D01*
X48300Y-31568D01*
X48231Y-31597D01*
X48097Y-31730D01*
X48025Y-31905D01*
X48024Y-32094D01*
X48097Y-32268D01*
X48230Y-32402D01*
X48405Y-32474D01*
X48594Y-32475D01*
X48768Y-32402D01*
X48902Y-32269D01*
X48974Y-32094D01*
X48975Y-31905D01*
X48975Y-32800D01*
X48931Y-32800D01*
X48902Y-32731D01*
X48769Y-32597D01*
X48594Y-32525D01*
X48405Y-32524D01*
X48231Y-32597D01*
X48097Y-32730D01*
X48068Y-32800D01*
X47975Y-32800D01*
X47975Y-31905D01*
X47902Y-31731D01*
X47769Y-31597D01*
X47700Y-31568D01*
X47700Y-30931D01*
X47768Y-30902D01*
X47902Y-30769D01*
X47974Y-30594D01*
X47975Y-30405D01*
X47902Y-30231D01*
X47769Y-30097D01*
X47594Y-30025D01*
X47405Y-30024D01*
X47231Y-30097D01*
X47097Y-30230D01*
X47025Y-30405D01*
X47024Y-30594D01*
X47097Y-30768D01*
X47230Y-30902D01*
X47300Y-30931D01*
X47300Y-31568D01*
X47231Y-31597D01*
X47097Y-31730D01*
X47025Y-31905D01*
X47024Y-32094D01*
X47097Y-32268D01*
X47230Y-32402D01*
X47405Y-32474D01*
X47594Y-32475D01*
X47768Y-32402D01*
X47902Y-32269D01*
X47974Y-32094D01*
X47975Y-31905D01*
X47975Y-32800D01*
X47975Y-32800D01*
X47975Y-32645D01*
X47952Y-32590D01*
X47910Y-32547D01*
X47854Y-32525D01*
X47795Y-32524D01*
X47145Y-32524D01*
X47090Y-32547D01*
X47047Y-32589D01*
X47025Y-32645D01*
X47024Y-32704D01*
X47024Y-32800D01*
X46975Y-32800D01*
X46975Y-30405D01*
X46902Y-30231D01*
X46769Y-30097D01*
X46594Y-30025D01*
X46405Y-30024D01*
X46231Y-30097D01*
X46097Y-30230D01*
X46025Y-30405D01*
X46024Y-30594D01*
X46097Y-30768D01*
X46230Y-30902D01*
X46405Y-30974D01*
X46594Y-30975D01*
X46768Y-30902D01*
X46902Y-30769D01*
X46974Y-30594D01*
X46975Y-30405D01*
X46975Y-32800D01*
X43082Y-32800D01*
X42700Y-32417D01*
X42700Y-30931D01*
X42768Y-30902D01*
X42902Y-30769D01*
X42931Y-30700D01*
X43068Y-30700D01*
X43097Y-30768D01*
X43230Y-30902D01*
X43405Y-30974D01*
X43594Y-30975D01*
X43768Y-30902D01*
X43902Y-30769D01*
X43974Y-30594D01*
X43975Y-30405D01*
X43902Y-30231D01*
X43769Y-30097D01*
X43709Y-30072D01*
X45336Y-28446D01*
X45405Y-28474D01*
X45594Y-28475D01*
X45768Y-28402D01*
X45902Y-28269D01*
X45950Y-28152D01*
X46426Y-27676D01*
X46480Y-27595D01*
X46500Y-27500D01*
X46500Y-26500D01*
X46480Y-26404D01*
X46480Y-26404D01*
X46426Y-26323D01*
X46426Y-26323D01*
X46176Y-26073D01*
X46095Y-26019D01*
X46000Y-26000D01*
X45677Y-26000D01*
X45772Y-25960D01*
X45805Y-25876D01*
X45500Y-25570D01*
X45494Y-25576D01*
X45423Y-25505D01*
X45429Y-25500D01*
X45123Y-25194D01*
X45039Y-25227D01*
X44975Y-25410D01*
X44975Y-25405D01*
X44902Y-25231D01*
X44769Y-25097D01*
X44594Y-25025D01*
X44405Y-25024D01*
X44231Y-25097D01*
X44097Y-25230D01*
X44025Y-25405D01*
X44024Y-25594D01*
X44097Y-25768D01*
X44230Y-25902D01*
X44405Y-25974D01*
X44594Y-25975D01*
X44613Y-25967D01*
X45073Y-26426D01*
X45073Y-26426D01*
X45154Y-26480D01*
X45154Y-26480D01*
X45230Y-26496D01*
X45249Y-26500D01*
X45249Y-26499D01*
X45250Y-26500D01*
X45896Y-26500D01*
X46000Y-26603D01*
X46000Y-27396D01*
X45975Y-27421D01*
X45975Y-27295D01*
X45975Y-26645D01*
X45952Y-26590D01*
X45910Y-26547D01*
X45854Y-26525D01*
X45795Y-26524D01*
X45145Y-26524D01*
X45090Y-26547D01*
X45047Y-26589D01*
X45025Y-26645D01*
X45024Y-26704D01*
X45024Y-27354D01*
X45047Y-27409D01*
X45089Y-27452D01*
X45145Y-27474D01*
X45204Y-27475D01*
X45854Y-27475D01*
X45909Y-27452D01*
X45952Y-27410D01*
X45974Y-27354D01*
X45975Y-27295D01*
X45975Y-27421D01*
X45784Y-27612D01*
X45769Y-27597D01*
X45594Y-27525D01*
X45405Y-27524D01*
X45231Y-27597D01*
X45097Y-27730D01*
X45025Y-27905D01*
X45024Y-28094D01*
X45053Y-28163D01*
X44975Y-28242D01*
X44975Y-27905D01*
X44975Y-26905D01*
X44902Y-26731D01*
X44769Y-26597D01*
X44594Y-26525D01*
X44405Y-26524D01*
X44231Y-26597D01*
X44097Y-26730D01*
X44025Y-26905D01*
X44024Y-27094D01*
X44097Y-27268D01*
X44230Y-27402D01*
X44405Y-27474D01*
X44594Y-27475D01*
X44768Y-27402D01*
X44902Y-27269D01*
X44974Y-27094D01*
X44975Y-26905D01*
X44975Y-27905D01*
X44902Y-27731D01*
X44769Y-27597D01*
X44594Y-27525D01*
X44405Y-27524D01*
X44336Y-27553D01*
X44141Y-27358D01*
X44076Y-27315D01*
X44000Y-27300D01*
X43871Y-27300D01*
X43902Y-27269D01*
X43974Y-27094D01*
X43975Y-26905D01*
X43975Y-25405D01*
X43902Y-25231D01*
X43800Y-25128D01*
X43800Y-24121D01*
X43902Y-24019D01*
X43974Y-23844D01*
X43975Y-23655D01*
X43902Y-23481D01*
X43769Y-23347D01*
X43594Y-23275D01*
X43405Y-23274D01*
X43231Y-23347D01*
X43097Y-23480D01*
X43025Y-23655D01*
X43024Y-23844D01*
X43097Y-24018D01*
X43200Y-24121D01*
X43200Y-25128D01*
X43097Y-25230D01*
X43025Y-25405D01*
X43024Y-25594D01*
X43097Y-25768D01*
X43230Y-25902D01*
X43405Y-25974D01*
X43594Y-25975D01*
X43768Y-25902D01*
X43902Y-25769D01*
X43974Y-25594D01*
X43975Y-25405D01*
X43975Y-26905D01*
X43902Y-26731D01*
X43769Y-26597D01*
X43594Y-26525D01*
X43405Y-26524D01*
X43231Y-26597D01*
X43097Y-26730D01*
X43025Y-26905D01*
X43025Y-26985D01*
X43018Y-26867D01*
X42975Y-26762D01*
X42975Y-25405D01*
X42902Y-25231D01*
X42800Y-25128D01*
X42800Y-24121D01*
X42902Y-24019D01*
X42974Y-23844D01*
X42975Y-23655D01*
X42902Y-23481D01*
X42769Y-23347D01*
X42594Y-23275D01*
X42405Y-23274D01*
X42231Y-23347D01*
X42097Y-23480D01*
X42025Y-23655D01*
X42024Y-23844D01*
X42097Y-24018D01*
X42200Y-24121D01*
X42200Y-25128D01*
X42097Y-25230D01*
X42025Y-25405D01*
X42024Y-25594D01*
X42097Y-25768D01*
X42230Y-25902D01*
X42405Y-25974D01*
X42594Y-25975D01*
X42768Y-25902D01*
X42902Y-25769D01*
X42974Y-25594D01*
X42975Y-25405D01*
X42975Y-26762D01*
X42960Y-26727D01*
X42876Y-26694D01*
X42805Y-26764D01*
X42805Y-26623D01*
X42772Y-26539D01*
X42575Y-26470D01*
X42367Y-26481D01*
X42227Y-26539D01*
X42194Y-26623D01*
X42500Y-26929D01*
X42805Y-26623D01*
X42805Y-26764D01*
X42570Y-27000D01*
X42576Y-27005D01*
X42505Y-27076D01*
X42500Y-27070D01*
X42494Y-27076D01*
X42423Y-27005D01*
X42429Y-27000D01*
X42123Y-26694D01*
X42039Y-26727D01*
X41975Y-26910D01*
X41975Y-25405D01*
X41902Y-25231D01*
X41800Y-25128D01*
X41800Y-24121D01*
X41902Y-24019D01*
X41974Y-23844D01*
X41975Y-23655D01*
X41902Y-23481D01*
X41769Y-23347D01*
X41594Y-23275D01*
X41405Y-23274D01*
X41231Y-23347D01*
X41097Y-23480D01*
X41025Y-23655D01*
X41024Y-23844D01*
X41097Y-24018D01*
X41200Y-24121D01*
X41200Y-25128D01*
X41097Y-25230D01*
X41025Y-25405D01*
X41024Y-25594D01*
X41097Y-25768D01*
X41230Y-25902D01*
X41405Y-25974D01*
X41594Y-25975D01*
X41768Y-25902D01*
X41902Y-25769D01*
X41974Y-25594D01*
X41975Y-25405D01*
X41975Y-26910D01*
X41970Y-26924D01*
X41981Y-27132D01*
X42039Y-27272D01*
X42108Y-27300D01*
X40975Y-27300D01*
X40975Y-25405D01*
X40902Y-25231D01*
X40800Y-25128D01*
X40800Y-24225D01*
X40854Y-24225D01*
X40909Y-24202D01*
X40952Y-24160D01*
X40974Y-24104D01*
X40975Y-24045D01*
X40975Y-23395D01*
X40952Y-23340D01*
X40910Y-23297D01*
X40854Y-23275D01*
X40795Y-23274D01*
X40145Y-23274D01*
X40090Y-23297D01*
X40047Y-23339D01*
X40025Y-23395D01*
X40024Y-23454D01*
X40024Y-24104D01*
X40047Y-24159D01*
X40089Y-24202D01*
X40145Y-24224D01*
X40200Y-24225D01*
X40200Y-25128D01*
X40097Y-25230D01*
X40025Y-25405D01*
X40025Y-25485D01*
X40018Y-25367D01*
X39960Y-25227D01*
X39876Y-25194D01*
X39805Y-25264D01*
X39805Y-25123D01*
X39772Y-25039D01*
X39575Y-24970D01*
X39367Y-24981D01*
X39227Y-25039D01*
X39194Y-25123D01*
X39500Y-25429D01*
X39805Y-25123D01*
X39805Y-25264D01*
X39570Y-25500D01*
X39876Y-25805D01*
X39960Y-25772D01*
X40024Y-25589D01*
X40024Y-25594D01*
X40097Y-25768D01*
X40230Y-25902D01*
X40405Y-25974D01*
X40594Y-25975D01*
X40768Y-25902D01*
X40902Y-25769D01*
X40974Y-25594D01*
X40975Y-25405D01*
X40975Y-27300D01*
X39805Y-27300D01*
X39805Y-25876D01*
X39500Y-25570D01*
X39429Y-25641D01*
X39429Y-25500D01*
X39123Y-25194D01*
X39039Y-25227D01*
X38975Y-25410D01*
X38975Y-25405D01*
X38902Y-25231D01*
X38769Y-25097D01*
X38594Y-25025D01*
X38405Y-25024D01*
X38231Y-25097D01*
X38097Y-25230D01*
X38025Y-25405D01*
X38025Y-25485D01*
X38018Y-25367D01*
X37960Y-25227D01*
X37876Y-25194D01*
X37805Y-25264D01*
X37805Y-25123D01*
X37772Y-25039D01*
X37575Y-24970D01*
X37367Y-24981D01*
X37227Y-25039D01*
X37194Y-25123D01*
X37500Y-25429D01*
X37805Y-25123D01*
X37805Y-25264D01*
X37570Y-25500D01*
X37876Y-25805D01*
X37960Y-25772D01*
X38024Y-25589D01*
X38024Y-25594D01*
X38097Y-25768D01*
X38230Y-25902D01*
X38405Y-25974D01*
X38594Y-25975D01*
X38768Y-25902D01*
X38902Y-25769D01*
X38974Y-25594D01*
X38974Y-25514D01*
X38981Y-25632D01*
X39039Y-25772D01*
X39123Y-25805D01*
X39429Y-25500D01*
X39429Y-25641D01*
X39194Y-25876D01*
X39227Y-25960D01*
X39424Y-26029D01*
X39632Y-26018D01*
X39772Y-25960D01*
X39805Y-25876D01*
X39805Y-27300D01*
X39000Y-27300D01*
X38923Y-27315D01*
X38858Y-27358D01*
X37805Y-28411D01*
X37805Y-25876D01*
X37500Y-25570D01*
X37429Y-25641D01*
X37429Y-25500D01*
X37123Y-25194D01*
X37039Y-25227D01*
X36975Y-25410D01*
X36975Y-25405D01*
X36902Y-25231D01*
X36769Y-25097D01*
X36594Y-25025D01*
X36405Y-25024D01*
X36231Y-25097D01*
X36097Y-25230D01*
X36025Y-25405D01*
X36024Y-25594D01*
X36097Y-25768D01*
X36230Y-25902D01*
X36405Y-25974D01*
X36594Y-25975D01*
X36768Y-25902D01*
X36902Y-25769D01*
X36974Y-25594D01*
X36974Y-25514D01*
X36981Y-25632D01*
X37039Y-25772D01*
X37123Y-25805D01*
X37429Y-25500D01*
X37429Y-25641D01*
X37194Y-25876D01*
X37227Y-25960D01*
X37424Y-26029D01*
X37632Y-26018D01*
X37772Y-25960D01*
X37805Y-25876D01*
X37805Y-28411D01*
X37029Y-29187D01*
X37029Y-28075D01*
X37018Y-27867D01*
X36975Y-27762D01*
X36975Y-27295D01*
X36975Y-26645D01*
X36952Y-26590D01*
X36910Y-26547D01*
X36854Y-26525D01*
X36795Y-26524D01*
X36145Y-26524D01*
X36090Y-26547D01*
X36047Y-26589D01*
X36025Y-26645D01*
X36024Y-26704D01*
X36024Y-27354D01*
X36047Y-27409D01*
X36089Y-27452D01*
X36145Y-27474D01*
X36204Y-27475D01*
X36485Y-27475D01*
X36367Y-27481D01*
X36227Y-27539D01*
X36194Y-27623D01*
X36500Y-27929D01*
X36805Y-27623D01*
X36772Y-27539D01*
X36589Y-27475D01*
X36854Y-27475D01*
X36909Y-27452D01*
X36952Y-27410D01*
X36974Y-27354D01*
X36975Y-27295D01*
X36975Y-27762D01*
X36960Y-27727D01*
X36876Y-27694D01*
X36570Y-28000D01*
X36876Y-28305D01*
X36960Y-28272D01*
X37029Y-28075D01*
X37029Y-29187D01*
X36805Y-29411D01*
X36805Y-28376D01*
X36500Y-28070D01*
X36429Y-28141D01*
X36429Y-28000D01*
X36123Y-27694D01*
X36039Y-27727D01*
X36003Y-27830D01*
X35975Y-27762D01*
X35975Y-26905D01*
X35975Y-25405D01*
X35902Y-25231D01*
X35800Y-25128D01*
X35800Y-24121D01*
X35902Y-24019D01*
X35974Y-23844D01*
X35975Y-23655D01*
X35902Y-23481D01*
X35769Y-23347D01*
X35594Y-23275D01*
X35405Y-23274D01*
X35231Y-23347D01*
X35097Y-23480D01*
X35025Y-23655D01*
X35024Y-23844D01*
X35097Y-24018D01*
X35200Y-24121D01*
X35200Y-25128D01*
X35097Y-25230D01*
X35025Y-25405D01*
X35024Y-25594D01*
X35097Y-25768D01*
X35230Y-25902D01*
X35405Y-25974D01*
X35594Y-25975D01*
X35768Y-25902D01*
X35902Y-25769D01*
X35974Y-25594D01*
X35975Y-25405D01*
X35975Y-26905D01*
X35902Y-26731D01*
X35769Y-26597D01*
X35594Y-26525D01*
X35405Y-26524D01*
X35231Y-26597D01*
X35097Y-26730D01*
X35025Y-26905D01*
X35024Y-27094D01*
X35097Y-27268D01*
X35230Y-27402D01*
X35405Y-27474D01*
X35485Y-27474D01*
X35367Y-27481D01*
X35227Y-27539D01*
X35194Y-27623D01*
X35500Y-27929D01*
X35805Y-27623D01*
X35772Y-27539D01*
X35589Y-27475D01*
X35594Y-27475D01*
X35768Y-27402D01*
X35902Y-27269D01*
X35974Y-27094D01*
X35975Y-26905D01*
X35975Y-27762D01*
X35960Y-27727D01*
X35876Y-27694D01*
X35570Y-28000D01*
X35876Y-28305D01*
X35960Y-28272D01*
X35996Y-28169D01*
X36039Y-28272D01*
X36123Y-28305D01*
X36429Y-28000D01*
X36429Y-28141D01*
X36194Y-28376D01*
X36227Y-28460D01*
X36424Y-28529D01*
X36632Y-28518D01*
X36772Y-28460D01*
X36805Y-28376D01*
X36805Y-29411D01*
X36358Y-29858D01*
X36315Y-29923D01*
X36300Y-30000D01*
X36300Y-30068D01*
X36231Y-30097D01*
X36097Y-30230D01*
X36025Y-30405D01*
X36024Y-30594D01*
X36097Y-30768D01*
X36230Y-30902D01*
X36405Y-30974D01*
X36594Y-30975D01*
X36768Y-30902D01*
X36902Y-30769D01*
X36974Y-30594D01*
X36975Y-30405D01*
X36902Y-30231D01*
X36769Y-30097D01*
X36709Y-30072D01*
X39082Y-27700D01*
X42128Y-27700D01*
X42097Y-27730D01*
X42068Y-27800D01*
X40500Y-27800D01*
X40423Y-27815D01*
X40401Y-27829D01*
X40358Y-27858D01*
X38358Y-29858D01*
X38315Y-29923D01*
X38300Y-30000D01*
X38300Y-30068D01*
X38231Y-30097D01*
X38097Y-30230D01*
X38025Y-30405D01*
X38024Y-30594D01*
X38097Y-30768D01*
X38128Y-30800D01*
X38082Y-30800D01*
X37946Y-30663D01*
X37974Y-30594D01*
X37975Y-30405D01*
X37902Y-30231D01*
X37769Y-30097D01*
X37594Y-30025D01*
X37405Y-30024D01*
X37231Y-30097D01*
X37097Y-30230D01*
X37025Y-30405D01*
X37024Y-30594D01*
X37097Y-30768D01*
X37230Y-30902D01*
X37405Y-30974D01*
X37594Y-30975D01*
X37663Y-30946D01*
X37858Y-31141D01*
X37923Y-31184D01*
X37923Y-31184D01*
X37936Y-31187D01*
X38000Y-31200D01*
X38750Y-31200D01*
X38826Y-31184D01*
X38891Y-31141D01*
X39141Y-30891D01*
X39141Y-30891D01*
X39170Y-30848D01*
X39172Y-30844D01*
X39230Y-30902D01*
X39300Y-30931D01*
X39300Y-31568D01*
X39231Y-31597D01*
X39097Y-31730D01*
X39025Y-31905D01*
X39024Y-32094D01*
X39097Y-32268D01*
X39230Y-32402D01*
X39405Y-32474D01*
X39594Y-32475D01*
X39768Y-32402D01*
X39902Y-32269D01*
X39974Y-32094D01*
X39975Y-31905D01*
X39902Y-31731D01*
X39769Y-31597D01*
X39700Y-31568D01*
X39700Y-30931D01*
X39768Y-30902D01*
X39902Y-30769D01*
X39974Y-30594D01*
X39975Y-30405D01*
X39902Y-30231D01*
X39769Y-30097D01*
X39594Y-30025D01*
X39405Y-30024D01*
X39231Y-30097D01*
X39200Y-30128D01*
X39200Y-30082D01*
X40582Y-28700D01*
X43000Y-28700D01*
X43076Y-28684D01*
X43141Y-28641D01*
X43336Y-28446D01*
X43405Y-28474D01*
X43594Y-28475D01*
X43768Y-28402D01*
X43902Y-28269D01*
X43974Y-28094D01*
X43975Y-27905D01*
X43902Y-27731D01*
X43871Y-27700D01*
X43917Y-27700D01*
X44053Y-27836D01*
X44025Y-27905D01*
X44024Y-28094D01*
X44097Y-28268D01*
X44230Y-28402D01*
X44405Y-28474D01*
X44594Y-28475D01*
X44768Y-28402D01*
X44902Y-28269D01*
X44974Y-28094D01*
X44975Y-27905D01*
X44975Y-28242D01*
X43358Y-29858D01*
X43315Y-29923D01*
X43300Y-30000D01*
X43300Y-30068D01*
X43231Y-30097D01*
X43097Y-30230D01*
X43068Y-30300D01*
X42931Y-30300D01*
X42902Y-30231D01*
X42769Y-30097D01*
X42594Y-30025D01*
X42405Y-30024D01*
X42231Y-30097D01*
X42097Y-30230D01*
X42025Y-30405D01*
X42024Y-30594D01*
X42097Y-30768D01*
X42230Y-30902D01*
X42300Y-30931D01*
X42300Y-32417D01*
X41975Y-32742D01*
X41975Y-31905D01*
X41902Y-31731D01*
X41769Y-31597D01*
X41700Y-31568D01*
X41700Y-30931D01*
X41768Y-30902D01*
X41902Y-30769D01*
X41974Y-30594D01*
X41975Y-30405D01*
X41902Y-30231D01*
X41769Y-30097D01*
X41594Y-30025D01*
X41405Y-30024D01*
X41231Y-30097D01*
X41097Y-30230D01*
X41025Y-30405D01*
X41024Y-30594D01*
X41097Y-30768D01*
X41230Y-30902D01*
X41300Y-30931D01*
X41300Y-31568D01*
X41231Y-31597D01*
X41097Y-31730D01*
X41025Y-31905D01*
X41024Y-32094D01*
X41097Y-32268D01*
X41230Y-32402D01*
X41405Y-32474D01*
X41594Y-32475D01*
X41768Y-32402D01*
X41902Y-32269D01*
X41974Y-32094D01*
X41975Y-31905D01*
X41975Y-32742D01*
X41927Y-32789D01*
X41902Y-32731D01*
X41769Y-32597D01*
X41594Y-32525D01*
X41405Y-32524D01*
X41231Y-32597D01*
X41097Y-32730D01*
X41068Y-32800D01*
X40975Y-32800D01*
X40975Y-31905D01*
X40902Y-31731D01*
X40769Y-31597D01*
X40700Y-31568D01*
X40700Y-30931D01*
X40768Y-30902D01*
X40902Y-30769D01*
X40974Y-30594D01*
X40975Y-30405D01*
X40902Y-30231D01*
X40769Y-30097D01*
X40594Y-30025D01*
X40405Y-30024D01*
X40231Y-30097D01*
X40097Y-30230D01*
X40025Y-30405D01*
X40024Y-30594D01*
X40097Y-30768D01*
X40230Y-30902D01*
X40300Y-30931D01*
X40300Y-31568D01*
X40231Y-31597D01*
X40097Y-31730D01*
X40025Y-31905D01*
X40024Y-32094D01*
X40097Y-32268D01*
X40230Y-32402D01*
X40405Y-32474D01*
X40594Y-32475D01*
X40768Y-32402D01*
X40902Y-32269D01*
X40974Y-32094D01*
X40975Y-31905D01*
X40975Y-32800D01*
X40931Y-32800D01*
X40902Y-32731D01*
X40769Y-32597D01*
X40594Y-32525D01*
X40405Y-32524D01*
X40231Y-32597D01*
X40097Y-32730D01*
X40068Y-32800D01*
X39975Y-32800D01*
X39975Y-32645D01*
X39952Y-32590D01*
X39910Y-32547D01*
X39854Y-32525D01*
X39795Y-32524D01*
X39145Y-32524D01*
X39090Y-32547D01*
X39047Y-32589D01*
X39025Y-32645D01*
X39024Y-32704D01*
X39024Y-32800D01*
X35082Y-32800D01*
X34700Y-32417D01*
X34700Y-30931D01*
X34768Y-30902D01*
X34902Y-30769D01*
X34931Y-30700D01*
X35068Y-30700D01*
X35097Y-30768D01*
X35230Y-30902D01*
X35405Y-30974D01*
X35594Y-30975D01*
X35768Y-30902D01*
X35902Y-30769D01*
X35974Y-30594D01*
X35975Y-30405D01*
X35902Y-30231D01*
X35805Y-30134D01*
X35805Y-28376D01*
X35500Y-28070D01*
X35429Y-28141D01*
X35429Y-28000D01*
X35123Y-27694D01*
X35039Y-27727D01*
X35003Y-27830D01*
X34975Y-27762D01*
X34975Y-26905D01*
X34975Y-25405D01*
X34902Y-25231D01*
X34800Y-25128D01*
X34800Y-24121D01*
X34902Y-24019D01*
X34974Y-23844D01*
X34975Y-23655D01*
X34902Y-23481D01*
X34769Y-23347D01*
X34594Y-23275D01*
X34405Y-23274D01*
X34231Y-23347D01*
X34097Y-23480D01*
X34025Y-23655D01*
X34024Y-23844D01*
X34097Y-24018D01*
X34200Y-24121D01*
X34200Y-25128D01*
X34097Y-25230D01*
X34025Y-25405D01*
X34024Y-25594D01*
X34097Y-25768D01*
X34230Y-25902D01*
X34405Y-25974D01*
X34594Y-25975D01*
X34768Y-25902D01*
X34902Y-25769D01*
X34974Y-25594D01*
X34975Y-25405D01*
X34975Y-26905D01*
X34902Y-26731D01*
X34769Y-26597D01*
X34594Y-26525D01*
X34405Y-26524D01*
X34231Y-26597D01*
X34097Y-26730D01*
X34025Y-26905D01*
X34024Y-27094D01*
X34097Y-27268D01*
X34230Y-27402D01*
X34405Y-27474D01*
X34485Y-27474D01*
X34367Y-27481D01*
X34227Y-27539D01*
X34194Y-27623D01*
X34500Y-27929D01*
X34805Y-27623D01*
X34772Y-27539D01*
X34589Y-27475D01*
X34594Y-27475D01*
X34768Y-27402D01*
X34902Y-27269D01*
X34974Y-27094D01*
X34975Y-26905D01*
X34975Y-27762D01*
X34960Y-27727D01*
X34876Y-27694D01*
X34570Y-28000D01*
X34876Y-28305D01*
X34960Y-28272D01*
X34996Y-28169D01*
X35039Y-28272D01*
X35123Y-28305D01*
X35429Y-28000D01*
X35429Y-28141D01*
X35194Y-28376D01*
X35227Y-28460D01*
X35424Y-28529D01*
X35632Y-28518D01*
X35772Y-28460D01*
X35805Y-28376D01*
X35805Y-30134D01*
X35769Y-30097D01*
X35594Y-30025D01*
X35405Y-30024D01*
X35231Y-30097D01*
X35097Y-30230D01*
X35068Y-30300D01*
X34931Y-30300D01*
X34902Y-30231D01*
X34805Y-30134D01*
X34805Y-28376D01*
X34500Y-28070D01*
X34429Y-28141D01*
X34429Y-28000D01*
X34123Y-27694D01*
X34039Y-27727D01*
X33975Y-27910D01*
X33975Y-25405D01*
X33902Y-25231D01*
X33800Y-25128D01*
X33800Y-24121D01*
X33902Y-24019D01*
X33974Y-23844D01*
X33975Y-23655D01*
X33902Y-23481D01*
X33769Y-23347D01*
X33594Y-23275D01*
X33405Y-23274D01*
X33231Y-23347D01*
X33097Y-23480D01*
X33025Y-23655D01*
X33024Y-23844D01*
X33097Y-24018D01*
X33200Y-24121D01*
X33200Y-25128D01*
X33097Y-25230D01*
X33025Y-25405D01*
X33024Y-25594D01*
X33097Y-25768D01*
X33230Y-25902D01*
X33405Y-25974D01*
X33594Y-25975D01*
X33768Y-25902D01*
X33902Y-25769D01*
X33974Y-25594D01*
X33975Y-25405D01*
X33975Y-27910D01*
X33970Y-27924D01*
X33981Y-28132D01*
X34039Y-28272D01*
X34123Y-28305D01*
X34429Y-28000D01*
X34429Y-28141D01*
X34194Y-28376D01*
X34227Y-28460D01*
X34424Y-28529D01*
X34632Y-28518D01*
X34772Y-28460D01*
X34805Y-28376D01*
X34805Y-30134D01*
X34769Y-30097D01*
X34594Y-30025D01*
X34405Y-30024D01*
X34231Y-30097D01*
X34097Y-30230D01*
X34025Y-30405D01*
X34024Y-30594D01*
X34097Y-30768D01*
X34230Y-30902D01*
X34300Y-30931D01*
X34300Y-32417D01*
X33975Y-32742D01*
X33975Y-31905D01*
X33902Y-31731D01*
X33769Y-31597D01*
X33700Y-31568D01*
X33700Y-30931D01*
X33768Y-30902D01*
X33902Y-30769D01*
X33974Y-30594D01*
X33975Y-30405D01*
X33902Y-30231D01*
X33769Y-30097D01*
X33594Y-30025D01*
X33405Y-30024D01*
X33231Y-30097D01*
X33097Y-30230D01*
X33025Y-30405D01*
X33024Y-30594D01*
X33097Y-30768D01*
X33230Y-30902D01*
X33300Y-30931D01*
X33300Y-31568D01*
X33231Y-31597D01*
X33097Y-31730D01*
X33025Y-31905D01*
X33024Y-32094D01*
X33097Y-32268D01*
X33230Y-32402D01*
X33405Y-32474D01*
X33594Y-32475D01*
X33768Y-32402D01*
X33902Y-32269D01*
X33974Y-32094D01*
X33975Y-31905D01*
X33975Y-32742D01*
X33927Y-32789D01*
X33902Y-32731D01*
X33769Y-32597D01*
X33594Y-32525D01*
X33405Y-32524D01*
X33231Y-32597D01*
X33097Y-32730D01*
X33068Y-32800D01*
X32975Y-32800D01*
X32975Y-31905D01*
X32902Y-31731D01*
X32769Y-31597D01*
X32700Y-31568D01*
X32700Y-30931D01*
X32768Y-30902D01*
X32902Y-30769D01*
X32974Y-30594D01*
X32975Y-30405D01*
X32975Y-25405D01*
X32902Y-25231D01*
X32800Y-25128D01*
X32800Y-24225D01*
X32854Y-24225D01*
X32909Y-24202D01*
X32952Y-24160D01*
X32974Y-24104D01*
X32975Y-24045D01*
X32975Y-23395D01*
X32952Y-23340D01*
X32910Y-23297D01*
X32854Y-23275D01*
X32795Y-23274D01*
X32145Y-23274D01*
X32090Y-23297D01*
X32047Y-23339D01*
X32025Y-23395D01*
X32024Y-23454D01*
X32024Y-24104D01*
X32047Y-24159D01*
X32089Y-24202D01*
X32145Y-24224D01*
X32200Y-24225D01*
X32200Y-25128D01*
X32097Y-25230D01*
X32025Y-25405D01*
X32025Y-25485D01*
X32018Y-25367D01*
X31960Y-25227D01*
X31876Y-25194D01*
X31805Y-25264D01*
X31805Y-25123D01*
X31772Y-25039D01*
X31575Y-24970D01*
X31367Y-24981D01*
X31347Y-24989D01*
X31347Y-24418D01*
X30500Y-23570D01*
X29652Y-24418D01*
X29776Y-24580D01*
X30245Y-24774D01*
X30752Y-24775D01*
X31221Y-24581D01*
X31223Y-24580D01*
X31347Y-24418D01*
X31347Y-24989D01*
X31227Y-25039D01*
X31194Y-25123D01*
X31500Y-25429D01*
X31805Y-25123D01*
X31805Y-25264D01*
X31570Y-25500D01*
X31876Y-25805D01*
X31960Y-25772D01*
X32024Y-25589D01*
X32024Y-25594D01*
X32097Y-25768D01*
X32230Y-25902D01*
X32405Y-25974D01*
X32594Y-25975D01*
X32768Y-25902D01*
X32902Y-25769D01*
X32974Y-25594D01*
X32975Y-25405D01*
X32975Y-30405D01*
X32902Y-30231D01*
X32769Y-30097D01*
X32594Y-30025D01*
X32405Y-30024D01*
X32231Y-30097D01*
X32097Y-30230D01*
X32025Y-30405D01*
X32024Y-30594D01*
X32097Y-30768D01*
X32230Y-30902D01*
X32300Y-30931D01*
X32300Y-31568D01*
X32231Y-31597D01*
X32097Y-31730D01*
X32025Y-31905D01*
X32024Y-32094D01*
X32097Y-32268D01*
X32230Y-32402D01*
X32405Y-32474D01*
X32594Y-32475D01*
X32768Y-32402D01*
X32902Y-32269D01*
X32974Y-32094D01*
X32975Y-31905D01*
X32975Y-32800D01*
X32931Y-32800D01*
X32902Y-32731D01*
X32769Y-32597D01*
X32594Y-32525D01*
X32405Y-32524D01*
X32231Y-32597D01*
X32097Y-32730D01*
X32068Y-32800D01*
X31975Y-32800D01*
X31975Y-31905D01*
X31902Y-31731D01*
X31769Y-31597D01*
X31700Y-31568D01*
X31700Y-30931D01*
X31768Y-30902D01*
X31902Y-30769D01*
X31974Y-30594D01*
X31975Y-30405D01*
X31902Y-30231D01*
X31805Y-30134D01*
X31805Y-25876D01*
X31500Y-25570D01*
X31429Y-25641D01*
X31429Y-25500D01*
X31123Y-25194D01*
X31039Y-25227D01*
X30975Y-25410D01*
X30975Y-25405D01*
X30902Y-25231D01*
X30769Y-25097D01*
X30594Y-25025D01*
X30405Y-25024D01*
X30231Y-25097D01*
X30097Y-25230D01*
X30025Y-25405D01*
X30024Y-25594D01*
X30097Y-25768D01*
X30230Y-25902D01*
X30405Y-25974D01*
X30594Y-25975D01*
X30768Y-25902D01*
X30902Y-25769D01*
X30974Y-25594D01*
X30974Y-25514D01*
X30981Y-25632D01*
X31039Y-25772D01*
X31123Y-25805D01*
X31429Y-25500D01*
X31429Y-25641D01*
X31194Y-25876D01*
X31227Y-25960D01*
X31424Y-26029D01*
X31632Y-26018D01*
X31772Y-25960D01*
X31805Y-25876D01*
X31805Y-30134D01*
X31769Y-30097D01*
X31594Y-30025D01*
X31405Y-30024D01*
X31231Y-30097D01*
X31097Y-30230D01*
X31025Y-30405D01*
X31024Y-30594D01*
X31097Y-30768D01*
X31230Y-30902D01*
X31300Y-30931D01*
X31300Y-31568D01*
X31231Y-31597D01*
X31097Y-31730D01*
X31025Y-31905D01*
X31024Y-32094D01*
X31097Y-32268D01*
X31230Y-32402D01*
X31405Y-32474D01*
X31594Y-32475D01*
X31768Y-32402D01*
X31902Y-32269D01*
X31974Y-32094D01*
X31975Y-31905D01*
X31975Y-32800D01*
X31975Y-32800D01*
X31975Y-32645D01*
X31952Y-32590D01*
X31910Y-32547D01*
X31854Y-32525D01*
X31795Y-32524D01*
X31145Y-32524D01*
X31090Y-32547D01*
X31047Y-32589D01*
X31025Y-32645D01*
X31024Y-32704D01*
X31024Y-33354D01*
X31047Y-33409D01*
X31089Y-33452D01*
X31145Y-33474D01*
X31204Y-33475D01*
X31854Y-33475D01*
X31909Y-33452D01*
X31952Y-33410D01*
X31974Y-33354D01*
X31975Y-33295D01*
X31975Y-33200D01*
X32068Y-33200D01*
X32097Y-33268D01*
X32230Y-33402D01*
X32405Y-33474D01*
X32594Y-33475D01*
X32768Y-33402D01*
X32902Y-33269D01*
X32931Y-33200D01*
X33068Y-33200D01*
X33097Y-33268D01*
X33230Y-33402D01*
X33405Y-33474D01*
X33594Y-33475D01*
X33768Y-33402D01*
X33902Y-33269D01*
X33931Y-33200D01*
X34000Y-33200D01*
X34076Y-33184D01*
X34141Y-33141D01*
X34500Y-32782D01*
X34858Y-33141D01*
X34923Y-33184D01*
X34923Y-33184D01*
X34936Y-33187D01*
X35000Y-33200D01*
X39024Y-33200D01*
X39024Y-33354D01*
X39047Y-33409D01*
X39089Y-33452D01*
X39145Y-33474D01*
X39204Y-33475D01*
X39854Y-33475D01*
X39909Y-33452D01*
X39952Y-33410D01*
X39974Y-33354D01*
X39975Y-33295D01*
X39975Y-33200D01*
X40068Y-33200D01*
X40097Y-33268D01*
X40230Y-33402D01*
X40405Y-33474D01*
X40594Y-33475D01*
X40768Y-33402D01*
X40902Y-33269D01*
X40931Y-33200D01*
X41068Y-33200D01*
X41097Y-33268D01*
X41230Y-33402D01*
X41405Y-33474D01*
X41594Y-33475D01*
X41768Y-33402D01*
X41902Y-33269D01*
X41931Y-33200D01*
X42000Y-33200D01*
X42076Y-33184D01*
X42141Y-33141D01*
X42500Y-32782D01*
X42858Y-33141D01*
X42923Y-33184D01*
X42923Y-33184D01*
X42936Y-33187D01*
X43000Y-33200D01*
X47024Y-33200D01*
X47024Y-33354D01*
X47047Y-33409D01*
X47089Y-33452D01*
X47145Y-33474D01*
X47204Y-33475D01*
X47854Y-33475D01*
X47909Y-33452D01*
X47952Y-33410D01*
X47974Y-33354D01*
X47975Y-33295D01*
X47975Y-33200D01*
X48068Y-33200D01*
X48097Y-33268D01*
X48230Y-33402D01*
X48405Y-33474D01*
X48594Y-33475D01*
X48768Y-33402D01*
X48902Y-33269D01*
X48931Y-33200D01*
X49068Y-33200D01*
X49097Y-33268D01*
X49230Y-33402D01*
X49405Y-33474D01*
X49594Y-33475D01*
X49768Y-33402D01*
X49902Y-33269D01*
X49974Y-33094D01*
X49975Y-32905D01*
X49946Y-32836D01*
X50641Y-32141D01*
X50641Y-32141D01*
X50670Y-32098D01*
X50684Y-32076D01*
X50684Y-32076D01*
X50699Y-32000D01*
X50700Y-32000D01*
X50700Y-30931D01*
X50768Y-30902D01*
X50902Y-30769D01*
X50931Y-30700D01*
X51068Y-30700D01*
X51097Y-30768D01*
X51230Y-30902D01*
X51405Y-30974D01*
X51594Y-30975D01*
X51768Y-30902D01*
X51827Y-30844D01*
X51858Y-30891D01*
X52108Y-31141D01*
X52108Y-31141D01*
X52151Y-31170D01*
X52173Y-31184D01*
X52173Y-31184D01*
X52250Y-31200D01*
X53000Y-31200D01*
X53076Y-31184D01*
X53141Y-31141D01*
X53336Y-30946D01*
X53405Y-30974D01*
X53594Y-30975D01*
X53768Y-30902D01*
X53902Y-30769D01*
X53974Y-30594D01*
X53975Y-30405D01*
X53975Y-33688D01*
X53958Y-33720D01*
X53722Y-33956D01*
X52991Y-34200D01*
X50250Y-34200D01*
X35000Y-34200D01*
X30975Y-34200D01*
X30975Y-30405D01*
X30902Y-30231D01*
X30769Y-30097D01*
X30594Y-30025D01*
X30405Y-30024D01*
X30231Y-30097D01*
X30097Y-30230D01*
X30025Y-30405D01*
X30024Y-30594D01*
X30097Y-30768D01*
X30230Y-30902D01*
X30405Y-30974D01*
X30594Y-30975D01*
X30768Y-30902D01*
X30902Y-30769D01*
X30974Y-30594D01*
X30975Y-30405D01*
X30975Y-34200D01*
X30511Y-34200D01*
X30029Y-33958D01*
X29791Y-33720D01*
X29550Y-33238D01*
X29550Y-24323D01*
X29581Y-24347D01*
X30429Y-23500D01*
X30423Y-23494D01*
X30494Y-23423D01*
X30500Y-23429D01*
X30505Y-23423D01*
X30576Y-23494D01*
X30570Y-23500D01*
X31418Y-24347D01*
X31580Y-24223D01*
X31774Y-23754D01*
X31775Y-23247D01*
X31590Y-22800D01*
X53979Y-22800D01*
X54200Y-23020D01*
X54200Y-23250D01*
X54200Y-23520D01*
X54479Y-23800D01*
X55676Y-23800D01*
X55652Y-23831D01*
X56500Y-24679D01*
X56505Y-24673D01*
X56576Y-24744D01*
X56570Y-24750D01*
X56576Y-24755D01*
X56576Y-24755D01*
G37*
G54D15*
X56576Y-24755D02*
X56505Y-24826D01*
X56500Y-24820D01*
X56429Y-24891D01*
X56429Y-24750D01*
X55581Y-23902D01*
X55419Y-24026D01*
X55225Y-24495D01*
X55224Y-25002D01*
X55418Y-25471D01*
X55419Y-25473D01*
X55581Y-25597D01*
X56429Y-24750D01*
X56429Y-24891D01*
X55652Y-25668D01*
X55676Y-25700D01*
X55238Y-25700D01*
X54720Y-25958D01*
X54458Y-26220D01*
X54200Y-26738D01*
X54200Y-33238D01*
X54029Y-33578D01*
X54029Y-25575D01*
X54018Y-25367D01*
X53960Y-25227D01*
X53876Y-25194D01*
X53805Y-25264D01*
X53805Y-25123D01*
X53772Y-25039D01*
X53575Y-24970D01*
X53367Y-24981D01*
X53227Y-25039D01*
X53194Y-25123D01*
X53500Y-25429D01*
X53805Y-25123D01*
X53805Y-25264D01*
X53570Y-25500D01*
X53876Y-25805D01*
X53960Y-25772D01*
X54029Y-25575D01*
X54029Y-33578D01*
X54025Y-33588D01*
X54025Y-27285D01*
X54025Y-26714D01*
X54024Y-26635D01*
X53994Y-26561D01*
X53938Y-26505D01*
X53864Y-26474D01*
X53805Y-26474D01*
X53805Y-25876D01*
X53500Y-25570D01*
X53429Y-25641D01*
X53429Y-25500D01*
X53123Y-25194D01*
X53039Y-25227D01*
X52975Y-25410D01*
X52975Y-25405D01*
X52902Y-25231D01*
X52769Y-25097D01*
X52594Y-25025D01*
X52405Y-25024D01*
X52231Y-25097D01*
X52097Y-25230D01*
X52025Y-25405D01*
X52024Y-25594D01*
X52097Y-25768D01*
X52230Y-25902D01*
X52405Y-25974D01*
X52594Y-25975D01*
X52768Y-25902D01*
X52902Y-25769D01*
X52974Y-25594D01*
X52974Y-25514D01*
X52981Y-25632D01*
X53039Y-25772D01*
X53123Y-25805D01*
X53429Y-25500D01*
X53429Y-25641D01*
X53194Y-25876D01*
X53227Y-25960D01*
X53424Y-26029D01*
X53632Y-26018D01*
X53772Y-25960D01*
X53805Y-25876D01*
X53805Y-26474D01*
X53600Y-26475D01*
X53550Y-26525D01*
X53550Y-26950D01*
X53975Y-26950D01*
X54025Y-26900D01*
X54025Y-26714D01*
X54025Y-27285D01*
X54025Y-27100D01*
X53975Y-27050D01*
X53550Y-27050D01*
X53550Y-27475D01*
X53600Y-27525D01*
X53864Y-27525D01*
X53938Y-27494D01*
X53994Y-27438D01*
X54024Y-27364D01*
X54025Y-27285D01*
X54025Y-33588D01*
X53975Y-33688D01*
X53975Y-30405D01*
X53902Y-30231D01*
X53769Y-30097D01*
X53594Y-30025D01*
X53405Y-30024D01*
X53231Y-30097D01*
X53097Y-30230D01*
X53025Y-30405D01*
X53024Y-30594D01*
X53053Y-30663D01*
X52917Y-30800D01*
X52871Y-30800D01*
X52902Y-30769D01*
X52974Y-30594D01*
X52975Y-30405D01*
X52902Y-30231D01*
X52769Y-30097D01*
X52709Y-30072D01*
X53641Y-29141D01*
X53641Y-29141D01*
X53670Y-29098D01*
X53684Y-29076D01*
X53684Y-29076D01*
X53699Y-29000D01*
X53700Y-29000D01*
X53700Y-28431D01*
X53768Y-28402D01*
X53902Y-28269D01*
X53974Y-28094D01*
X53975Y-27905D01*
X53902Y-27731D01*
X53769Y-27597D01*
X53594Y-27525D01*
X53450Y-27524D01*
X53450Y-27475D01*
X53450Y-27050D01*
X53442Y-27050D01*
X53442Y-26950D01*
X53450Y-26950D01*
X53450Y-26525D01*
X53400Y-26475D01*
X53135Y-26474D01*
X53061Y-26505D01*
X53005Y-26561D01*
X52975Y-26635D01*
X52974Y-26714D01*
X52974Y-26762D01*
X52960Y-26727D01*
X52876Y-26694D01*
X52805Y-26764D01*
X52805Y-26623D01*
X52772Y-26539D01*
X52575Y-26470D01*
X52367Y-26481D01*
X52227Y-26539D01*
X52194Y-26623D01*
X52500Y-26929D01*
X52805Y-26623D01*
X52805Y-26764D01*
X52570Y-27000D01*
X52876Y-27305D01*
X52960Y-27272D01*
X52974Y-27231D01*
X52974Y-27285D01*
X52975Y-27364D01*
X53005Y-27438D01*
X53061Y-27494D01*
X53135Y-27525D01*
X53400Y-27525D01*
X53450Y-27475D01*
X53450Y-27524D01*
X53405Y-27524D01*
X53231Y-27597D01*
X53097Y-27730D01*
X53025Y-27905D01*
X53024Y-28094D01*
X53097Y-28268D01*
X53230Y-28402D01*
X53300Y-28431D01*
X53300Y-28917D01*
X52358Y-29858D01*
X52315Y-29923D01*
X52300Y-30000D01*
X52300Y-30068D01*
X52231Y-30097D01*
X52200Y-30128D01*
X52200Y-30000D01*
X52187Y-29936D01*
X52184Y-29923D01*
X52184Y-29923D01*
X52141Y-29858D01*
X51700Y-29417D01*
X51700Y-28431D01*
X51768Y-28402D01*
X51902Y-28269D01*
X51974Y-28094D01*
X51975Y-27905D01*
X51902Y-27731D01*
X51871Y-27700D01*
X51917Y-27700D01*
X52053Y-27836D01*
X52025Y-27905D01*
X52024Y-28094D01*
X52097Y-28268D01*
X52230Y-28402D01*
X52405Y-28474D01*
X52594Y-28475D01*
X52768Y-28402D01*
X52902Y-28269D01*
X52974Y-28094D01*
X52975Y-27905D01*
X52902Y-27731D01*
X52769Y-27597D01*
X52594Y-27525D01*
X52514Y-27525D01*
X52632Y-27518D01*
X52772Y-27460D01*
X52805Y-27376D01*
X52500Y-27070D01*
X52494Y-27076D01*
X52423Y-27005D01*
X52429Y-27000D01*
X52123Y-26694D01*
X52039Y-26727D01*
X52003Y-26830D01*
X51975Y-26762D01*
X51975Y-25405D01*
X51902Y-25231D01*
X51800Y-25128D01*
X51800Y-24121D01*
X51902Y-24019D01*
X51974Y-23844D01*
X51975Y-23655D01*
X51902Y-23481D01*
X51769Y-23347D01*
X51594Y-23275D01*
X51405Y-23274D01*
X51231Y-23347D01*
X51097Y-23480D01*
X51025Y-23655D01*
X51024Y-23844D01*
X51097Y-24018D01*
X51200Y-24121D01*
X51200Y-25128D01*
X51097Y-25230D01*
X51025Y-25405D01*
X51024Y-25594D01*
X51097Y-25768D01*
X51230Y-25902D01*
X51405Y-25974D01*
X51594Y-25975D01*
X51768Y-25902D01*
X51902Y-25769D01*
X51974Y-25594D01*
X51975Y-25405D01*
X51975Y-26762D01*
X51960Y-26727D01*
X51876Y-26694D01*
X51805Y-26764D01*
X51805Y-26623D01*
X51772Y-26539D01*
X51575Y-26470D01*
X51367Y-26481D01*
X51227Y-26539D01*
X51194Y-26623D01*
X51500Y-26929D01*
X51805Y-26623D01*
X51805Y-26764D01*
X51570Y-27000D01*
X51576Y-27005D01*
X51505Y-27076D01*
X51500Y-27070D01*
X51494Y-27076D01*
X51423Y-27005D01*
X51429Y-27000D01*
X51123Y-26694D01*
X51039Y-26727D01*
X51003Y-26830D01*
X50975Y-26762D01*
X50975Y-25405D01*
X50902Y-25231D01*
X50800Y-25128D01*
X50800Y-24121D01*
X50902Y-24019D01*
X50974Y-23844D01*
X50975Y-23655D01*
X50902Y-23481D01*
X50769Y-23347D01*
X50594Y-23275D01*
X50405Y-23274D01*
X50231Y-23347D01*
X50097Y-23480D01*
X50025Y-23655D01*
X50024Y-23844D01*
X50097Y-24018D01*
X50200Y-24121D01*
X50200Y-25128D01*
X50097Y-25230D01*
X50025Y-25405D01*
X50024Y-25594D01*
X50097Y-25768D01*
X50230Y-25902D01*
X50405Y-25974D01*
X50594Y-25975D01*
X50768Y-25902D01*
X50902Y-25769D01*
X50974Y-25594D01*
X50975Y-25405D01*
X50975Y-26762D01*
X50960Y-26727D01*
X50876Y-26694D01*
X50805Y-26764D01*
X50805Y-26623D01*
X50772Y-26539D01*
X50575Y-26470D01*
X50367Y-26481D01*
X50227Y-26539D01*
X50194Y-26623D01*
X50500Y-26929D01*
X50805Y-26623D01*
X50805Y-26764D01*
X50570Y-27000D01*
X50576Y-27005D01*
X50505Y-27076D01*
X50500Y-27070D01*
X50494Y-27076D01*
X50423Y-27005D01*
X50429Y-27000D01*
X50123Y-26694D01*
X50039Y-26727D01*
X49975Y-26910D01*
X49975Y-25405D01*
X49902Y-25231D01*
X49800Y-25128D01*
X49800Y-24121D01*
X49902Y-24019D01*
X49974Y-23844D01*
X49975Y-23655D01*
X49902Y-23481D01*
X49769Y-23347D01*
X49594Y-23275D01*
X49405Y-23274D01*
X49231Y-23347D01*
X49097Y-23480D01*
X49025Y-23655D01*
X49024Y-23844D01*
X49097Y-24018D01*
X49200Y-24121D01*
X49200Y-25128D01*
X49097Y-25230D01*
X49025Y-25405D01*
X49024Y-25594D01*
X49097Y-25768D01*
X49230Y-25902D01*
X49405Y-25974D01*
X49594Y-25975D01*
X49768Y-25902D01*
X49902Y-25769D01*
X49974Y-25594D01*
X49975Y-25405D01*
X49975Y-26910D01*
X49970Y-26924D01*
X49981Y-27132D01*
X50039Y-27272D01*
X50108Y-27300D01*
X48975Y-27300D01*
X48975Y-25405D01*
X48902Y-25231D01*
X48800Y-25128D01*
X48800Y-24225D01*
X48854Y-24225D01*
X48909Y-24202D01*
X48952Y-24160D01*
X48974Y-24104D01*
X48975Y-24045D01*
X48975Y-23395D01*
X48952Y-23340D01*
X48910Y-23297D01*
X48854Y-23275D01*
X48795Y-23274D01*
X48145Y-23274D01*
X48090Y-23297D01*
X48047Y-23339D01*
X48025Y-23395D01*
X48024Y-23454D01*
X48024Y-24104D01*
X48047Y-24159D01*
X48089Y-24202D01*
X48145Y-24224D01*
X48200Y-24225D01*
X48200Y-25128D01*
X48097Y-25230D01*
X48025Y-25405D01*
X48025Y-25485D01*
X48018Y-25367D01*
X47960Y-25227D01*
X47876Y-25194D01*
X47805Y-25264D01*
X47805Y-25123D01*
X47772Y-25039D01*
X47575Y-24970D01*
X47367Y-24981D01*
X47227Y-25039D01*
X47194Y-25123D01*
X47500Y-25429D01*
X47805Y-25123D01*
X47805Y-25264D01*
X47570Y-25500D01*
X47876Y-25805D01*
X47960Y-25772D01*
X48024Y-25589D01*
X48024Y-25594D01*
X48097Y-25768D01*
X48230Y-25902D01*
X48405Y-25974D01*
X48594Y-25975D01*
X48768Y-25902D01*
X48902Y-25769D01*
X48974Y-25594D01*
X48975Y-25405D01*
X48975Y-27300D01*
X47805Y-27300D01*
X47805Y-25876D01*
X47500Y-25570D01*
X47429Y-25641D01*
X47429Y-25500D01*
X47123Y-25194D01*
X47039Y-25227D01*
X46975Y-25410D01*
X46975Y-25405D01*
X46902Y-25231D01*
X46769Y-25097D01*
X46594Y-25025D01*
X46405Y-25024D01*
X46231Y-25097D01*
X46097Y-25230D01*
X46025Y-25405D01*
X46025Y-25485D01*
X46018Y-25367D01*
X45960Y-25227D01*
X45876Y-25194D01*
X45805Y-25264D01*
X45805Y-25123D01*
X45772Y-25039D01*
X45575Y-24970D01*
X45367Y-24981D01*
X45227Y-25039D01*
X45194Y-25123D01*
X45500Y-25429D01*
X45805Y-25123D01*
X45805Y-25264D01*
X45570Y-25500D01*
X45876Y-25805D01*
X45960Y-25772D01*
X46024Y-25589D01*
X46024Y-25594D01*
X46097Y-25768D01*
X46230Y-25902D01*
X46405Y-25974D01*
X46594Y-25975D01*
X46768Y-25902D01*
X46902Y-25769D01*
X46974Y-25594D01*
X46974Y-25514D01*
X46981Y-25632D01*
X47039Y-25772D01*
X47123Y-25805D01*
X47429Y-25500D01*
X47429Y-25641D01*
X47194Y-25876D01*
X47227Y-25960D01*
X47424Y-26029D01*
X47632Y-26018D01*
X47772Y-25960D01*
X47805Y-25876D01*
X47805Y-27300D01*
X47000Y-27300D01*
X46923Y-27315D01*
X46858Y-27358D01*
X44358Y-29858D01*
X44315Y-29923D01*
X44300Y-30000D01*
X44300Y-30068D01*
X44231Y-30097D01*
X44097Y-30230D01*
X44025Y-30405D01*
X44024Y-30594D01*
X44097Y-30768D01*
X44230Y-30902D01*
X44405Y-30974D01*
X44594Y-30975D01*
X44768Y-30902D01*
X44902Y-30769D01*
X44974Y-30594D01*
X44975Y-30405D01*
X44902Y-30231D01*
X44769Y-30097D01*
X44709Y-30072D01*
X47082Y-27700D01*
X50128Y-27700D01*
X50097Y-27730D01*
X50068Y-27800D01*
X47500Y-27800D01*
X47423Y-27815D01*
X47401Y-27829D01*
X47358Y-27858D01*
X45358Y-29858D01*
X45315Y-29923D01*
X45300Y-30000D01*
X45300Y-30068D01*
X45231Y-30097D01*
X45097Y-30230D01*
X45025Y-30405D01*
X45024Y-30594D01*
X45097Y-30768D01*
X45230Y-30902D01*
X45405Y-30974D01*
X45594Y-30975D01*
X45768Y-30902D01*
X45902Y-30769D01*
X45974Y-30594D01*
X45975Y-30405D01*
X45902Y-30231D01*
X45769Y-30097D01*
X45709Y-30072D01*
X47582Y-28200D01*
X50068Y-28200D01*
X50097Y-28268D01*
X50230Y-28402D01*
X50405Y-28474D01*
X50594Y-28475D01*
X50768Y-28402D01*
X50902Y-28269D01*
X50974Y-28094D01*
X50975Y-27905D01*
X50902Y-27731D01*
X50871Y-27700D01*
X51128Y-27700D01*
X51097Y-27730D01*
X51025Y-27905D01*
X51024Y-28094D01*
X51097Y-28268D01*
X51230Y-28402D01*
X51300Y-28431D01*
X51300Y-29500D01*
X51315Y-29576D01*
X51358Y-29641D01*
X51800Y-30082D01*
X51800Y-30128D01*
X51769Y-30097D01*
X51594Y-30025D01*
X51405Y-30024D01*
X51231Y-30097D01*
X51097Y-30230D01*
X51068Y-30300D01*
X50931Y-30300D01*
X50902Y-30231D01*
X50769Y-30097D01*
X50594Y-30025D01*
X50405Y-30024D01*
X50231Y-30097D01*
X50097Y-30230D01*
X50025Y-30405D01*
X50024Y-30594D01*
X50097Y-30768D01*
X50230Y-30902D01*
X50300Y-30931D01*
X50300Y-31917D01*
X49975Y-32242D01*
X49975Y-31905D01*
X49902Y-31731D01*
X49769Y-31597D01*
X49700Y-31568D01*
X49700Y-30931D01*
X49768Y-30902D01*
X49902Y-30769D01*
X49974Y-30594D01*
X49975Y-30405D01*
X49902Y-30231D01*
X49769Y-30097D01*
X49594Y-30025D01*
X49405Y-30024D01*
X49231Y-30097D01*
X49097Y-30230D01*
X49025Y-30405D01*
X49024Y-30594D01*
X49097Y-30768D01*
X49230Y-30902D01*
X49300Y-30931D01*
X49300Y-31568D01*
X49231Y-31597D01*
X49097Y-31730D01*
X49025Y-31905D01*
X49024Y-32094D01*
X49097Y-32268D01*
X49230Y-32402D01*
X49405Y-32474D01*
X49594Y-32475D01*
X49768Y-32402D01*
X49902Y-32269D01*
X49974Y-32094D01*
X49975Y-31905D01*
X49975Y-32242D01*
X49663Y-32553D01*
X49594Y-32525D01*
X49405Y-32524D01*
X49231Y-32597D01*
X49097Y-32730D01*
X49068Y-32800D01*
X48975Y-32800D01*
X48975Y-31905D01*
X48902Y-31731D01*
X48769Y-31597D01*
X48700Y-31568D01*
X48700Y-30931D01*
X48768Y-30902D01*
X48902Y-30769D01*
X48974Y-30594D01*
X48975Y-30405D01*
X48902Y-30231D01*
X48769Y-30097D01*
X48594Y-30025D01*
X48405Y-30024D01*
X48231Y-30097D01*
X48097Y-30230D01*
X48025Y-30405D01*
X48024Y-30594D01*
X48097Y-30768D01*
X48230Y-30902D01*
X48300Y-30931D01*
X48300Y-31568D01*
X48231Y-31597D01*
X48097Y-31730D01*
X48025Y-31905D01*
X48024Y-32094D01*
X48097Y-32268D01*
X48230Y-32402D01*
X48405Y-32474D01*
X48594Y-32475D01*
X48768Y-32402D01*
X48902Y-32269D01*
X48974Y-32094D01*
X48975Y-31905D01*
X48975Y-32800D01*
X48931Y-32800D01*
X48902Y-32731D01*
X48769Y-32597D01*
X48594Y-32525D01*
X48405Y-32524D01*
X48231Y-32597D01*
X48097Y-32730D01*
X48068Y-32800D01*
X47975Y-32800D01*
X47975Y-31905D01*
X47902Y-31731D01*
X47769Y-31597D01*
X47700Y-31568D01*
X47700Y-30931D01*
X47768Y-30902D01*
X47902Y-30769D01*
X47974Y-30594D01*
X47975Y-30405D01*
X47902Y-30231D01*
X47769Y-30097D01*
X47594Y-30025D01*
X47405Y-30024D01*
X47231Y-30097D01*
X47097Y-30230D01*
X47025Y-30405D01*
X47024Y-30594D01*
X47097Y-30768D01*
X47230Y-30902D01*
X47300Y-30931D01*
X47300Y-31568D01*
X47231Y-31597D01*
X47097Y-31730D01*
X47025Y-31905D01*
X47024Y-32094D01*
X47097Y-32268D01*
X47230Y-32402D01*
X47405Y-32474D01*
X47594Y-32475D01*
X47768Y-32402D01*
X47902Y-32269D01*
X47974Y-32094D01*
X47975Y-31905D01*
X47975Y-32800D01*
X47975Y-32800D01*
X47975Y-32645D01*
X47952Y-32590D01*
X47910Y-32547D01*
X47854Y-32525D01*
X47795Y-32524D01*
X47145Y-32524D01*
X47090Y-32547D01*
X47047Y-32589D01*
X47025Y-32645D01*
X47024Y-32704D01*
X47024Y-32800D01*
X46975Y-32800D01*
X46975Y-30405D01*
X46902Y-30231D01*
X46769Y-30097D01*
X46594Y-30025D01*
X46405Y-30024D01*
X46231Y-30097D01*
X46097Y-30230D01*
X46025Y-30405D01*
X46024Y-30594D01*
X46097Y-30768D01*
X46230Y-30902D01*
X46405Y-30974D01*
X46594Y-30975D01*
X46768Y-30902D01*
X46902Y-30769D01*
X46974Y-30594D01*
X46975Y-30405D01*
X46975Y-32800D01*
X43082Y-32800D01*
X42700Y-32417D01*
X42700Y-30931D01*
X42768Y-30902D01*
X42902Y-30769D01*
X42931Y-30700D01*
X43068Y-30700D01*
X43097Y-30768D01*
X43230Y-30902D01*
X43405Y-30974D01*
X43594Y-30975D01*
X43768Y-30902D01*
X43902Y-30769D01*
X43974Y-30594D01*
X43975Y-30405D01*
X43902Y-30231D01*
X43769Y-30097D01*
X43709Y-30072D01*
X45336Y-28446D01*
X45405Y-28474D01*
X45594Y-28475D01*
X45768Y-28402D01*
X45902Y-28269D01*
X45950Y-28152D01*
X46426Y-27676D01*
X46480Y-27595D01*
X46500Y-27500D01*
X46500Y-26500D01*
X46480Y-26404D01*
X46480Y-26404D01*
X46426Y-26323D01*
X46426Y-26323D01*
X46176Y-26073D01*
X46095Y-26019D01*
X46000Y-26000D01*
X45677Y-26000D01*
X45772Y-25960D01*
X45805Y-25876D01*
X45500Y-25570D01*
X45494Y-25576D01*
X45423Y-25505D01*
X45429Y-25500D01*
X45123Y-25194D01*
X45039Y-25227D01*
X44975Y-25410D01*
X44975Y-25405D01*
X44902Y-25231D01*
X44769Y-25097D01*
X44594Y-25025D01*
X44405Y-25024D01*
X44231Y-25097D01*
X44097Y-25230D01*
X44025Y-25405D01*
X44024Y-25594D01*
X44097Y-25768D01*
X44230Y-25902D01*
X44405Y-25974D01*
X44594Y-25975D01*
X44613Y-25967D01*
X45073Y-26426D01*
X45073Y-26426D01*
X45154Y-26480D01*
X45154Y-26480D01*
X45230Y-26496D01*
X45249Y-26500D01*
X45249Y-26499D01*
X45250Y-26500D01*
X45896Y-26500D01*
X46000Y-26603D01*
X46000Y-27396D01*
X45975Y-27421D01*
X45975Y-27295D01*
X45975Y-26645D01*
X45952Y-26590D01*
X45910Y-26547D01*
X45854Y-26525D01*
X45795Y-26524D01*
X45145Y-26524D01*
X45090Y-26547D01*
X45047Y-26589D01*
X45025Y-26645D01*
X45024Y-26704D01*
X45024Y-27354D01*
X45047Y-27409D01*
X45089Y-27452D01*
X45145Y-27474D01*
X45204Y-27475D01*
X45854Y-27475D01*
X45909Y-27452D01*
X45952Y-27410D01*
X45974Y-27354D01*
X45975Y-27295D01*
X45975Y-27421D01*
X45784Y-27612D01*
X45769Y-27597D01*
X45594Y-27525D01*
X45405Y-27524D01*
X45231Y-27597D01*
X45097Y-27730D01*
X45025Y-27905D01*
X45024Y-28094D01*
X45053Y-28163D01*
X44975Y-28242D01*
X44975Y-27905D01*
X44975Y-26905D01*
X44902Y-26731D01*
X44769Y-26597D01*
X44594Y-26525D01*
X44405Y-26524D01*
X44231Y-26597D01*
X44097Y-26730D01*
X44025Y-26905D01*
X44024Y-27094D01*
X44097Y-27268D01*
X44230Y-27402D01*
X44405Y-27474D01*
X44594Y-27475D01*
X44768Y-27402D01*
X44902Y-27269D01*
X44974Y-27094D01*
X44975Y-26905D01*
X44975Y-27905D01*
X44902Y-27731D01*
X44769Y-27597D01*
X44594Y-27525D01*
X44405Y-27524D01*
X44336Y-27553D01*
X44141Y-27358D01*
X44076Y-27315D01*
X44000Y-27300D01*
X43871Y-27300D01*
X43902Y-27269D01*
X43974Y-27094D01*
X43975Y-26905D01*
X43975Y-25405D01*
X43902Y-25231D01*
X43800Y-25128D01*
X43800Y-24121D01*
X43902Y-24019D01*
X43974Y-23844D01*
X43975Y-23655D01*
X43902Y-23481D01*
X43769Y-23347D01*
X43594Y-23275D01*
X43405Y-23274D01*
X43231Y-23347D01*
X43097Y-23480D01*
X43025Y-23655D01*
X43024Y-23844D01*
X43097Y-24018D01*
X43200Y-24121D01*
X43200Y-25128D01*
X43097Y-25230D01*
X43025Y-25405D01*
X43024Y-25594D01*
X43097Y-25768D01*
X43230Y-25902D01*
X43405Y-25974D01*
X43594Y-25975D01*
X43768Y-25902D01*
X43902Y-25769D01*
X43974Y-25594D01*
X43975Y-25405D01*
X43975Y-26905D01*
X43902Y-26731D01*
X43769Y-26597D01*
X43594Y-26525D01*
X43405Y-26524D01*
X43231Y-26597D01*
X43097Y-26730D01*
X43025Y-26905D01*
X43025Y-26985D01*
X43018Y-26867D01*
X42975Y-26762D01*
X42975Y-25405D01*
X42902Y-25231D01*
X42800Y-25128D01*
X42800Y-24121D01*
X42902Y-24019D01*
X42974Y-23844D01*
X42975Y-23655D01*
X42902Y-23481D01*
X42769Y-23347D01*
X42594Y-23275D01*
X42405Y-23274D01*
X42231Y-23347D01*
X42097Y-23480D01*
X42025Y-23655D01*
X42024Y-23844D01*
X42097Y-24018D01*
X42200Y-24121D01*
X42200Y-25128D01*
X42097Y-25230D01*
X42025Y-25405D01*
X42024Y-25594D01*
X42097Y-25768D01*
X42230Y-25902D01*
X42405Y-25974D01*
X42594Y-25975D01*
X42768Y-25902D01*
X42902Y-25769D01*
X42974Y-25594D01*
X42975Y-25405D01*
X42975Y-26762D01*
X42960Y-26727D01*
X42876Y-26694D01*
X42805Y-26764D01*
X42805Y-26623D01*
X42772Y-26539D01*
X42575Y-26470D01*
X42367Y-26481D01*
X42227Y-26539D01*
X42194Y-26623D01*
X42500Y-26929D01*
X42805Y-26623D01*
X42805Y-26764D01*
X42570Y-27000D01*
X42576Y-27005D01*
X42505Y-27076D01*
X42500Y-27070D01*
X42494Y-27076D01*
X42423Y-27005D01*
X42429Y-27000D01*
X42123Y-26694D01*
X42039Y-26727D01*
X41975Y-26910D01*
X41975Y-25405D01*
X41902Y-25231D01*
X41800Y-25128D01*
X41800Y-24121D01*
X41902Y-24019D01*
X41974Y-23844D01*
X41975Y-23655D01*
X41902Y-23481D01*
X41769Y-23347D01*
X41594Y-23275D01*
X41405Y-23274D01*
X41231Y-23347D01*
X41097Y-23480D01*
X41025Y-23655D01*
X41024Y-23844D01*
X41097Y-24018D01*
X41200Y-24121D01*
X41200Y-25128D01*
X41097Y-25230D01*
X41025Y-25405D01*
X41024Y-25594D01*
X41097Y-25768D01*
X41230Y-25902D01*
X41405Y-25974D01*
X41594Y-25975D01*
X41768Y-25902D01*
X41902Y-25769D01*
X41974Y-25594D01*
X41975Y-25405D01*
X41975Y-26910D01*
X41970Y-26924D01*
X41981Y-27132D01*
X42039Y-27272D01*
X42108Y-27300D01*
X40975Y-27300D01*
X40975Y-25405D01*
X40902Y-25231D01*
X40800Y-25128D01*
X40800Y-24225D01*
X40854Y-24225D01*
X40909Y-24202D01*
X40952Y-24160D01*
X40974Y-24104D01*
X40975Y-24045D01*
X40975Y-23395D01*
X40952Y-23340D01*
X40910Y-23297D01*
X40854Y-23275D01*
X40795Y-23274D01*
X40145Y-23274D01*
X40090Y-23297D01*
X40047Y-23339D01*
X40025Y-23395D01*
X40024Y-23454D01*
X40024Y-24104D01*
X40047Y-24159D01*
X40089Y-24202D01*
X40145Y-24224D01*
X40200Y-24225D01*
X40200Y-25128D01*
X40097Y-25230D01*
X40025Y-25405D01*
X40025Y-25485D01*
X40018Y-25367D01*
X39960Y-25227D01*
X39876Y-25194D01*
X39805Y-25264D01*
X39805Y-25123D01*
X39772Y-25039D01*
X39575Y-24970D01*
X39367Y-24981D01*
X39227Y-25039D01*
X39194Y-25123D01*
X39500Y-25429D01*
X39805Y-25123D01*
X39805Y-25264D01*
X39570Y-25500D01*
X39876Y-25805D01*
X39960Y-25772D01*
X40024Y-25589D01*
X40024Y-25594D01*
X40097Y-25768D01*
X40230Y-25902D01*
X40405Y-25974D01*
X40594Y-25975D01*
X40768Y-25902D01*
X40902Y-25769D01*
X40974Y-25594D01*
X40975Y-25405D01*
X40975Y-27300D01*
X39805Y-27300D01*
X39805Y-25876D01*
X39500Y-25570D01*
X39429Y-25641D01*
X39429Y-25500D01*
X39123Y-25194D01*
X39039Y-25227D01*
X38975Y-25410D01*
X38975Y-25405D01*
X38902Y-25231D01*
X38769Y-25097D01*
X38594Y-25025D01*
X38405Y-25024D01*
X38231Y-25097D01*
X38097Y-25230D01*
X38025Y-25405D01*
X38025Y-25485D01*
X38018Y-25367D01*
X37960Y-25227D01*
X37876Y-25194D01*
X37805Y-25264D01*
X37805Y-25123D01*
X37772Y-25039D01*
X37575Y-24970D01*
X37367Y-24981D01*
X37227Y-25039D01*
X37194Y-25123D01*
X37500Y-25429D01*
X37805Y-25123D01*
X37805Y-25264D01*
X37570Y-25500D01*
X37876Y-25805D01*
X37960Y-25772D01*
X38024Y-25589D01*
X38024Y-25594D01*
X38097Y-25768D01*
X38230Y-25902D01*
X38405Y-25974D01*
X38594Y-25975D01*
X38768Y-25902D01*
X38902Y-25769D01*
X38974Y-25594D01*
X38974Y-25514D01*
X38981Y-25632D01*
X39039Y-25772D01*
X39123Y-25805D01*
X39429Y-25500D01*
X39429Y-25641D01*
X39194Y-25876D01*
X39227Y-25960D01*
X39424Y-26029D01*
X39632Y-26018D01*
X39772Y-25960D01*
X39805Y-25876D01*
X39805Y-27300D01*
X39000Y-27300D01*
X38923Y-27315D01*
X38858Y-27358D01*
X37805Y-28411D01*
X37805Y-25876D01*
X37500Y-25570D01*
X37429Y-25641D01*
X37429Y-25500D01*
X37123Y-25194D01*
X37039Y-25227D01*
X36975Y-25410D01*
X36975Y-25405D01*
X36902Y-25231D01*
X36769Y-25097D01*
X36594Y-25025D01*
X36405Y-25024D01*
X36231Y-25097D01*
X36097Y-25230D01*
X36025Y-25405D01*
X36024Y-25594D01*
X36097Y-25768D01*
X36230Y-25902D01*
X36405Y-25974D01*
X36594Y-25975D01*
X36768Y-25902D01*
X36902Y-25769D01*
X36974Y-25594D01*
X36974Y-25514D01*
X36981Y-25632D01*
X37039Y-25772D01*
X37123Y-25805D01*
X37429Y-25500D01*
X37429Y-25641D01*
X37194Y-25876D01*
X37227Y-25960D01*
X37424Y-26029D01*
X37632Y-26018D01*
X37772Y-25960D01*
X37805Y-25876D01*
X37805Y-28411D01*
X37029Y-29187D01*
X37029Y-28075D01*
X37018Y-27867D01*
X36975Y-27762D01*
X36975Y-27295D01*
X36975Y-26645D01*
X36952Y-26590D01*
X36910Y-26547D01*
X36854Y-26525D01*
X36795Y-26524D01*
X36145Y-26524D01*
X36090Y-26547D01*
X36047Y-26589D01*
X36025Y-26645D01*
X36024Y-26704D01*
X36024Y-27354D01*
X36047Y-27409D01*
X36089Y-27452D01*
X36145Y-27474D01*
X36204Y-27475D01*
X36485Y-27475D01*
X36367Y-27481D01*
X36227Y-27539D01*
X36194Y-27623D01*
X36500Y-27929D01*
X36805Y-27623D01*
X36772Y-27539D01*
X36589Y-27475D01*
X36854Y-27475D01*
X36909Y-27452D01*
X36952Y-27410D01*
X36974Y-27354D01*
X36975Y-27295D01*
X36975Y-27762D01*
X36960Y-27727D01*
X36876Y-27694D01*
X36570Y-28000D01*
X36876Y-28305D01*
X36960Y-28272D01*
X37029Y-28075D01*
X37029Y-29187D01*
X36805Y-29411D01*
X36805Y-28376D01*
X36500Y-28070D01*
X36429Y-28141D01*
X36429Y-28000D01*
X36123Y-27694D01*
X36039Y-27727D01*
X36003Y-27830D01*
X35975Y-27762D01*
X35975Y-26905D01*
X35975Y-25405D01*
X35902Y-25231D01*
X35800Y-25128D01*
X35800Y-24121D01*
X35902Y-24019D01*
X35974Y-23844D01*
X35975Y-23655D01*
X35902Y-23481D01*
X35769Y-23347D01*
X35594Y-23275D01*
X35405Y-23274D01*
X35231Y-23347D01*
X35097Y-23480D01*
X35025Y-23655D01*
X35024Y-23844D01*
X35097Y-24018D01*
X35200Y-24121D01*
X35200Y-25128D01*
X35097Y-25230D01*
X35025Y-25405D01*
X35024Y-25594D01*
X35097Y-25768D01*
X35230Y-25902D01*
X35405Y-25974D01*
X35594Y-25975D01*
X35768Y-25902D01*
X35902Y-25769D01*
X35974Y-25594D01*
X35975Y-25405D01*
X35975Y-26905D01*
X35902Y-26731D01*
X35769Y-26597D01*
X35594Y-26525D01*
X35405Y-26524D01*
X35231Y-26597D01*
X35097Y-26730D01*
X35025Y-26905D01*
X35024Y-27094D01*
X35097Y-27268D01*
X35230Y-27402D01*
X35405Y-27474D01*
X35485Y-27474D01*
X35367Y-27481D01*
X35227Y-27539D01*
X35194Y-27623D01*
X35500Y-27929D01*
X35805Y-27623D01*
X35772Y-27539D01*
X35589Y-27475D01*
X35594Y-27475D01*
X35768Y-27402D01*
X35902Y-27269D01*
X35974Y-27094D01*
X35975Y-26905D01*
X35975Y-27762D01*
X35960Y-27727D01*
X35876Y-27694D01*
X35570Y-28000D01*
X35876Y-28305D01*
X35960Y-28272D01*
X35996Y-28169D01*
X36039Y-28272D01*
X36123Y-28305D01*
X36429Y-28000D01*
X36429Y-28141D01*
X36194Y-28376D01*
X36227Y-28460D01*
X36424Y-28529D01*
X36632Y-28518D01*
X36772Y-28460D01*
X36805Y-28376D01*
X36805Y-29411D01*
X36358Y-29858D01*
X36315Y-29923D01*
X36300Y-30000D01*
X36300Y-30068D01*
X36231Y-30097D01*
X36097Y-30230D01*
X36025Y-30405D01*
X36024Y-30594D01*
X36097Y-30768D01*
X36230Y-30902D01*
X36405Y-30974D01*
X36594Y-30975D01*
X36768Y-30902D01*
X36902Y-30769D01*
X36974Y-30594D01*
X36975Y-30405D01*
X36902Y-30231D01*
X36769Y-30097D01*
X36709Y-30072D01*
X39082Y-27700D01*
X42128Y-27700D01*
X42097Y-27730D01*
X42068Y-27800D01*
X40500Y-27800D01*
X40423Y-27815D01*
X40401Y-27829D01*
X40358Y-27858D01*
X38358Y-29858D01*
X38315Y-29923D01*
X38300Y-30000D01*
X38300Y-30068D01*
X38231Y-30097D01*
X38097Y-30230D01*
X38025Y-30405D01*
X38024Y-30594D01*
X38097Y-30768D01*
X38128Y-30800D01*
X38082Y-30800D01*
X37946Y-30663D01*
X37974Y-30594D01*
X37975Y-30405D01*
X37902Y-30231D01*
X37769Y-30097D01*
X37594Y-30025D01*
X37405Y-30024D01*
X37231Y-30097D01*
X37097Y-30230D01*
X37025Y-30405D01*
X37024Y-30594D01*
X37097Y-30768D01*
X37230Y-30902D01*
X37405Y-30974D01*
X37594Y-30975D01*
X37663Y-30946D01*
X37858Y-31141D01*
X37923Y-31184D01*
X37923Y-31184D01*
X37936Y-31187D01*
X38000Y-31200D01*
X38750Y-31200D01*
X38826Y-31184D01*
X38891Y-31141D01*
X39141Y-30891D01*
X39141Y-30891D01*
X39170Y-30848D01*
X39172Y-30844D01*
X39230Y-30902D01*
X39300Y-30931D01*
X39300Y-31568D01*
X39231Y-31597D01*
X39097Y-31730D01*
X39025Y-31905D01*
X39024Y-32094D01*
X39097Y-32268D01*
X39230Y-32402D01*
X39405Y-32474D01*
X39594Y-32475D01*
X39768Y-32402D01*
X39902Y-32269D01*
X39974Y-32094D01*
X39975Y-31905D01*
X39902Y-31731D01*
X39769Y-31597D01*
X39700Y-31568D01*
X39700Y-30931D01*
X39768Y-30902D01*
X39902Y-30769D01*
X39974Y-30594D01*
X39975Y-30405D01*
X39902Y-30231D01*
X39769Y-30097D01*
X39594Y-30025D01*
X39405Y-30024D01*
X39231Y-30097D01*
X39200Y-30128D01*
X39200Y-30082D01*
X40582Y-28700D01*
X43000Y-28700D01*
X43076Y-28684D01*
X43141Y-28641D01*
X43336Y-28446D01*
X43405Y-28474D01*
X43594Y-28475D01*
X43768Y-28402D01*
X43902Y-28269D01*
X43974Y-28094D01*
X43975Y-27905D01*
X43902Y-27731D01*
X43871Y-27700D01*
X43917Y-27700D01*
X44053Y-27836D01*
X44025Y-27905D01*
X44024Y-28094D01*
X44097Y-28268D01*
X44230Y-28402D01*
X44405Y-28474D01*
X44594Y-28475D01*
X44768Y-28402D01*
X44902Y-28269D01*
X44974Y-28094D01*
X44975Y-27905D01*
X44975Y-28242D01*
X43358Y-29858D01*
X43315Y-29923D01*
X43300Y-30000D01*
X43300Y-30068D01*
X43231Y-30097D01*
X43097Y-30230D01*
X43068Y-30300D01*
X42931Y-30300D01*
X42902Y-30231D01*
X42769Y-30097D01*
X42594Y-30025D01*
X42405Y-30024D01*
X42231Y-30097D01*
X42097Y-30230D01*
X42025Y-30405D01*
X42024Y-30594D01*
X42097Y-30768D01*
X42230Y-30902D01*
X42300Y-30931D01*
X42300Y-32417D01*
X41975Y-32742D01*
X41975Y-31905D01*
X41902Y-31731D01*
X41769Y-31597D01*
X41700Y-31568D01*
X41700Y-30931D01*
X41768Y-30902D01*
X41902Y-30769D01*
X41974Y-30594D01*
X41975Y-30405D01*
X41902Y-30231D01*
X41769Y-30097D01*
X41594Y-30025D01*
X41405Y-30024D01*
X41231Y-30097D01*
X41097Y-30230D01*
X41025Y-30405D01*
X41024Y-30594D01*
X41097Y-30768D01*
X41230Y-30902D01*
X41300Y-30931D01*
X41300Y-31568D01*
X41231Y-31597D01*
X41097Y-31730D01*
X41025Y-31905D01*
X41024Y-32094D01*
X41097Y-32268D01*
X41230Y-32402D01*
X41405Y-32474D01*
X41594Y-32475D01*
X41768Y-32402D01*
X41902Y-32269D01*
X41974Y-32094D01*
X41975Y-31905D01*
X41975Y-32742D01*
X41927Y-32789D01*
X41902Y-32731D01*
X41769Y-32597D01*
X41594Y-32525D01*
X41405Y-32524D01*
X41231Y-32597D01*
X41097Y-32730D01*
X41068Y-32800D01*
X40975Y-32800D01*
X40975Y-31905D01*
X40902Y-31731D01*
X40769Y-31597D01*
X40700Y-31568D01*
X40700Y-30931D01*
X40768Y-30902D01*
X40902Y-30769D01*
X40974Y-30594D01*
X40975Y-30405D01*
X40902Y-30231D01*
X40769Y-30097D01*
X40594Y-30025D01*
X40405Y-30024D01*
X40231Y-30097D01*
X40097Y-30230D01*
X40025Y-30405D01*
X40024Y-30594D01*
X40097Y-30768D01*
X40230Y-30902D01*
X40300Y-30931D01*
X40300Y-31568D01*
X40231Y-31597D01*
X40097Y-31730D01*
X40025Y-31905D01*
X40024Y-32094D01*
X40097Y-32268D01*
X40230Y-32402D01*
X40405Y-32474D01*
X40594Y-32475D01*
X40768Y-32402D01*
X40902Y-32269D01*
X40974Y-32094D01*
X40975Y-31905D01*
X40975Y-32800D01*
X40931Y-32800D01*
X40902Y-32731D01*
X40769Y-32597D01*
X40594Y-32525D01*
X40405Y-32524D01*
X40231Y-32597D01*
X40097Y-32730D01*
X40068Y-32800D01*
X39975Y-32800D01*
X39975Y-32645D01*
X39952Y-32590D01*
X39910Y-32547D01*
X39854Y-32525D01*
X39795Y-32524D01*
X39145Y-32524D01*
X39090Y-32547D01*
X39047Y-32589D01*
X39025Y-32645D01*
X39024Y-32704D01*
X39024Y-32800D01*
X35082Y-32800D01*
X34700Y-32417D01*
X34700Y-30931D01*
X34768Y-30902D01*
X34902Y-30769D01*
X34931Y-30700D01*
X35068Y-30700D01*
X35097Y-30768D01*
X35230Y-30902D01*
X35405Y-30974D01*
X35594Y-30975D01*
X35768Y-30902D01*
X35902Y-30769D01*
X35974Y-30594D01*
X35975Y-30405D01*
X35902Y-30231D01*
X35805Y-30134D01*
X35805Y-28376D01*
X35500Y-28070D01*
X35429Y-28141D01*
X35429Y-28000D01*
X35123Y-27694D01*
X35039Y-27727D01*
X35003Y-27830D01*
X34975Y-27762D01*
X34975Y-26905D01*
X34975Y-25405D01*
X34902Y-25231D01*
X34800Y-25128D01*
X34800Y-24121D01*
X34902Y-24019D01*
X34974Y-23844D01*
X34975Y-23655D01*
X34902Y-23481D01*
X34769Y-23347D01*
X34594Y-23275D01*
X34405Y-23274D01*
X34231Y-23347D01*
X34097Y-23480D01*
X34025Y-23655D01*
X34024Y-23844D01*
X34097Y-24018D01*
X34200Y-24121D01*
X34200Y-25128D01*
X34097Y-25230D01*
X34025Y-25405D01*
X34024Y-25594D01*
X34097Y-25768D01*
X34230Y-25902D01*
X34405Y-25974D01*
X34594Y-25975D01*
X34768Y-25902D01*
X34902Y-25769D01*
X34974Y-25594D01*
X34975Y-25405D01*
X34975Y-26905D01*
X34902Y-26731D01*
X34769Y-26597D01*
X34594Y-26525D01*
X34405Y-26524D01*
X34231Y-26597D01*
X34097Y-26730D01*
X34025Y-26905D01*
X34024Y-27094D01*
X34097Y-27268D01*
X34230Y-27402D01*
X34405Y-27474D01*
X34485Y-27474D01*
X34367Y-27481D01*
X34227Y-27539D01*
X34194Y-27623D01*
X34500Y-27929D01*
X34805Y-27623D01*
X34772Y-27539D01*
X34589Y-27475D01*
X34594Y-27475D01*
X34768Y-27402D01*
X34902Y-27269D01*
X34974Y-27094D01*
X34975Y-26905D01*
X34975Y-27762D01*
X34960Y-27727D01*
X34876Y-27694D01*
X34570Y-28000D01*
X34876Y-28305D01*
X34960Y-28272D01*
X34996Y-28169D01*
X35039Y-28272D01*
X35123Y-28305D01*
X35429Y-28000D01*
X35429Y-28141D01*
X35194Y-28376D01*
X35227Y-28460D01*
X35424Y-28529D01*
X35632Y-28518D01*
X35772Y-28460D01*
X35805Y-28376D01*
X35805Y-30134D01*
X35769Y-30097D01*
X35594Y-30025D01*
X35405Y-30024D01*
X35231Y-30097D01*
X35097Y-30230D01*
X35068Y-30300D01*
X34931Y-30300D01*
X34902Y-30231D01*
X34805Y-30134D01*
X34805Y-28376D01*
X34500Y-28070D01*
X34429Y-28141D01*
X34429Y-28000D01*
X34123Y-27694D01*
X34039Y-27727D01*
X33975Y-27910D01*
X33975Y-25405D01*
X33902Y-25231D01*
X33800Y-25128D01*
X33800Y-24121D01*
X33902Y-24019D01*
X33974Y-23844D01*
X33975Y-23655D01*
X33902Y-23481D01*
X33769Y-23347D01*
X33594Y-23275D01*
X33405Y-23274D01*
X33231Y-23347D01*
X33097Y-23480D01*
X33025Y-23655D01*
X33024Y-23844D01*
X33097Y-24018D01*
X33200Y-24121D01*
X33200Y-25128D01*
X33097Y-25230D01*
X33025Y-25405D01*
X33024Y-25594D01*
X33097Y-25768D01*
X33230Y-25902D01*
X33405Y-25974D01*
X33594Y-25975D01*
X33768Y-25902D01*
X33902Y-25769D01*
X33974Y-25594D01*
X33975Y-25405D01*
X33975Y-27910D01*
X33970Y-27924D01*
X33981Y-28132D01*
X34039Y-28272D01*
X34123Y-28305D01*
X34429Y-28000D01*
X34429Y-28141D01*
X34194Y-28376D01*
X34227Y-28460D01*
X34424Y-28529D01*
X34632Y-28518D01*
X34772Y-28460D01*
X34805Y-28376D01*
X34805Y-30134D01*
X34769Y-30097D01*
X34594Y-30025D01*
X34405Y-30024D01*
X34231Y-30097D01*
X34097Y-30230D01*
X34025Y-30405D01*
X34024Y-30594D01*
X34097Y-30768D01*
X34230Y-30902D01*
X34300Y-30931D01*
X34300Y-32417D01*
X33975Y-32742D01*
X33975Y-31905D01*
X33902Y-31731D01*
X33769Y-31597D01*
X33700Y-31568D01*
X33700Y-30931D01*
X33768Y-30902D01*
X33902Y-30769D01*
X33974Y-30594D01*
X33975Y-30405D01*
X33902Y-30231D01*
X33769Y-30097D01*
X33594Y-30025D01*
X33405Y-30024D01*
X33231Y-30097D01*
X33097Y-30230D01*
X33025Y-30405D01*
X33024Y-30594D01*
X33097Y-30768D01*
X33230Y-30902D01*
X33300Y-30931D01*
X33300Y-31568D01*
X33231Y-31597D01*
X33097Y-31730D01*
X33025Y-31905D01*
X33024Y-32094D01*
X33097Y-32268D01*
X33230Y-32402D01*
X33405Y-32474D01*
X33594Y-32475D01*
X33768Y-32402D01*
X33902Y-32269D01*
X33974Y-32094D01*
X33975Y-31905D01*
X33975Y-32742D01*
X33927Y-32789D01*
X33902Y-32731D01*
X33769Y-32597D01*
X33594Y-32525D01*
X33405Y-32524D01*
X33231Y-32597D01*
X33097Y-32730D01*
X33068Y-32800D01*
X32975Y-32800D01*
X32975Y-31905D01*
X32902Y-31731D01*
X32769Y-31597D01*
X32700Y-31568D01*
X32700Y-30931D01*
X32768Y-30902D01*
X32902Y-30769D01*
X32974Y-30594D01*
X32975Y-30405D01*
X32975Y-25405D01*
X32902Y-25231D01*
X32800Y-25128D01*
X32800Y-24225D01*
X32854Y-24225D01*
X32909Y-24202D01*
X32952Y-24160D01*
X32974Y-24104D01*
X32975Y-24045D01*
X32975Y-23395D01*
X32952Y-23340D01*
X32910Y-23297D01*
X32854Y-23275D01*
X32795Y-23274D01*
X32145Y-23274D01*
X32090Y-23297D01*
X32047Y-23339D01*
X32025Y-23395D01*
X32024Y-23454D01*
X32024Y-24104D01*
X32047Y-24159D01*
X32089Y-24202D01*
X32145Y-24224D01*
X32200Y-24225D01*
X32200Y-25128D01*
X32097Y-25230D01*
X32025Y-25405D01*
X32025Y-25485D01*
X32018Y-25367D01*
X31960Y-25227D01*
X31876Y-25194D01*
X31805Y-25264D01*
X31805Y-25123D01*
X31772Y-25039D01*
X31575Y-24970D01*
X31367Y-24981D01*
X31347Y-24989D01*
X31347Y-24418D01*
X30500Y-23570D01*
X29652Y-24418D01*
X29776Y-24580D01*
X30245Y-24774D01*
X30752Y-24775D01*
X31221Y-24581D01*
X31223Y-24580D01*
X31347Y-24418D01*
X31347Y-24989D01*
X31227Y-25039D01*
X31194Y-25123D01*
X31500Y-25429D01*
X31805Y-25123D01*
X31805Y-25264D01*
X31570Y-25500D01*
X31876Y-25805D01*
X31960Y-25772D01*
X32024Y-25589D01*
X32024Y-25594D01*
X32097Y-25768D01*
X32230Y-25902D01*
X32405Y-25974D01*
X32594Y-25975D01*
X32768Y-25902D01*
X32902Y-25769D01*
X32974Y-25594D01*
X32975Y-25405D01*
X32975Y-30405D01*
X32902Y-30231D01*
X32769Y-30097D01*
X32594Y-30025D01*
X32405Y-30024D01*
X32231Y-30097D01*
X32097Y-30230D01*
X32025Y-30405D01*
X32024Y-30594D01*
X32097Y-30768D01*
X32230Y-30902D01*
X32300Y-30931D01*
X32300Y-31568D01*
X32231Y-31597D01*
X32097Y-31730D01*
X32025Y-31905D01*
X32024Y-32094D01*
X32097Y-32268D01*
X32230Y-32402D01*
X32405Y-32474D01*
X32594Y-32475D01*
X32768Y-32402D01*
X32902Y-32269D01*
X32974Y-32094D01*
X32975Y-31905D01*
X32975Y-32800D01*
X32931Y-32800D01*
X32902Y-32731D01*
X32769Y-32597D01*
X32594Y-32525D01*
X32405Y-32524D01*
X32231Y-32597D01*
X32097Y-32730D01*
X32068Y-32800D01*
X31975Y-32800D01*
X31975Y-31905D01*
X31902Y-31731D01*
X31769Y-31597D01*
X31700Y-31568D01*
X31700Y-30931D01*
X31768Y-30902D01*
X31902Y-30769D01*
X31974Y-30594D01*
X31975Y-30405D01*
X31902Y-30231D01*
X31805Y-30134D01*
X31805Y-25876D01*
X31500Y-25570D01*
X31429Y-25641D01*
X31429Y-25500D01*
X31123Y-25194D01*
X31039Y-25227D01*
X30975Y-25410D01*
X30975Y-25405D01*
X30902Y-25231D01*
X30769Y-25097D01*
X30594Y-25025D01*
X30405Y-25024D01*
X30231Y-25097D01*
X30097Y-25230D01*
X30025Y-25405D01*
X30024Y-25594D01*
X30097Y-25768D01*
X30230Y-25902D01*
X30405Y-25974D01*
X30594Y-25975D01*
X30768Y-25902D01*
X30902Y-25769D01*
X30974Y-25594D01*
X30974Y-25514D01*
X30981Y-25632D01*
X31039Y-25772D01*
X31123Y-25805D01*
X31429Y-25500D01*
X31429Y-25641D01*
X31194Y-25876D01*
X31227Y-25960D01*
X31424Y-26029D01*
X31632Y-26018D01*
X31772Y-25960D01*
X31805Y-25876D01*
X31805Y-30134D01*
X31769Y-30097D01*
X31594Y-30025D01*
X31405Y-30024D01*
X31231Y-30097D01*
X31097Y-30230D01*
X31025Y-30405D01*
X31024Y-30594D01*
X31097Y-30768D01*
X31230Y-30902D01*
X31300Y-30931D01*
X31300Y-31568D01*
X31231Y-31597D01*
X31097Y-31730D01*
X31025Y-31905D01*
X31024Y-32094D01*
X31097Y-32268D01*
X31230Y-32402D01*
X31405Y-32474D01*
X31594Y-32475D01*
X31768Y-32402D01*
X31902Y-32269D01*
X31974Y-32094D01*
X31975Y-31905D01*
X31975Y-32800D01*
X31975Y-32800D01*
X31975Y-32645D01*
X31952Y-32590D01*
X31910Y-32547D01*
X31854Y-32525D01*
X31795Y-32524D01*
X31145Y-32524D01*
X31090Y-32547D01*
X31047Y-32589D01*
X31025Y-32645D01*
X31024Y-32704D01*
X31024Y-33354D01*
X31047Y-33409D01*
X31089Y-33452D01*
X31145Y-33474D01*
X31204Y-33475D01*
X31854Y-33475D01*
X31909Y-33452D01*
X31952Y-33410D01*
X31974Y-33354D01*
X31975Y-33295D01*
X31975Y-33200D01*
X32068Y-33200D01*
X32097Y-33268D01*
X32230Y-33402D01*
X32405Y-33474D01*
X32594Y-33475D01*
X32768Y-33402D01*
X32902Y-33269D01*
X32931Y-33200D01*
X33068Y-33200D01*
X33097Y-33268D01*
X33230Y-33402D01*
X33405Y-33474D01*
X33594Y-33475D01*
X33768Y-33402D01*
X33902Y-33269D01*
X33931Y-33200D01*
X34000Y-33200D01*
X34076Y-33184D01*
X34141Y-33141D01*
X34500Y-32782D01*
X34858Y-33141D01*
X34923Y-33184D01*
X34923Y-33184D01*
X34936Y-33187D01*
X35000Y-33200D01*
X39024Y-33200D01*
X39024Y-33354D01*
X39047Y-33409D01*
X39089Y-33452D01*
X39145Y-33474D01*
X39204Y-33475D01*
X39854Y-33475D01*
X39909Y-33452D01*
X39952Y-33410D01*
X39974Y-33354D01*
X39975Y-33295D01*
X39975Y-33200D01*
X40068Y-33200D01*
X40097Y-33268D01*
X40230Y-33402D01*
X40405Y-33474D01*
X40594Y-33475D01*
X40768Y-33402D01*
X40902Y-33269D01*
X40931Y-33200D01*
X41068Y-33200D01*
X41097Y-33268D01*
X41230Y-33402D01*
X41405Y-33474D01*
X41594Y-33475D01*
X41768Y-33402D01*
X41902Y-33269D01*
X41931Y-33200D01*
X42000Y-33200D01*
X42076Y-33184D01*
X42141Y-33141D01*
X42500Y-32782D01*
X42858Y-33141D01*
X42923Y-33184D01*
X42923Y-33184D01*
X42936Y-33187D01*
X43000Y-33200D01*
X47024Y-33200D01*
X47024Y-33354D01*
X47047Y-33409D01*
X47089Y-33452D01*
X47145Y-33474D01*
X47204Y-33475D01*
X47854Y-33475D01*
X47909Y-33452D01*
X47952Y-33410D01*
X47974Y-33354D01*
X47975Y-33295D01*
X47975Y-33200D01*
X48068Y-33200D01*
X48097Y-33268D01*
X48230Y-33402D01*
X48405Y-33474D01*
X48594Y-33475D01*
X48768Y-33402D01*
X48902Y-33269D01*
X48931Y-33200D01*
X49068Y-33200D01*
X49097Y-33268D01*
X49230Y-33402D01*
X49405Y-33474D01*
X49594Y-33475D01*
X49768Y-33402D01*
X49902Y-33269D01*
X49974Y-33094D01*
X49975Y-32905D01*
X49946Y-32836D01*
X50641Y-32141D01*
X50641Y-32141D01*
X50670Y-32098D01*
X50684Y-32076D01*
X50684Y-32076D01*
X50699Y-32000D01*
X50700Y-32000D01*
X50700Y-30931D01*
X50768Y-30902D01*
X50902Y-30769D01*
X50931Y-30700D01*
X51068Y-30700D01*
X51097Y-30768D01*
X51230Y-30902D01*
X51405Y-30974D01*
X51594Y-30975D01*
X51768Y-30902D01*
X51827Y-30844D01*
X51858Y-30891D01*
X52108Y-31141D01*
X52108Y-31141D01*
X52151Y-31170D01*
X52173Y-31184D01*
X52173Y-31184D01*
X52250Y-31200D01*
X53000Y-31200D01*
X53076Y-31184D01*
X53141Y-31141D01*
X53336Y-30946D01*
X53405Y-30974D01*
X53594Y-30975D01*
X53768Y-30902D01*
X53902Y-30769D01*
X53974Y-30594D01*
X53975Y-30405D01*
X53975Y-33688D01*
X53958Y-33720D01*
X53722Y-33956D01*
X52991Y-34200D01*
X50250Y-34200D01*
X35000Y-34200D01*
X30975Y-34200D01*
X30975Y-30405D01*
X30902Y-30231D01*
X30769Y-30097D01*
X30594Y-30025D01*
X30405Y-30024D01*
X30231Y-30097D01*
X30097Y-30230D01*
X30025Y-30405D01*
X30024Y-30594D01*
X30097Y-30768D01*
X30230Y-30902D01*
X30405Y-30974D01*
X30594Y-30975D01*
X30768Y-30902D01*
X30902Y-30769D01*
X30974Y-30594D01*
X30975Y-30405D01*
X30975Y-34200D01*
X30511Y-34200D01*
X30029Y-33958D01*
X29791Y-33720D01*
X29550Y-33238D01*
X29550Y-24323D01*
X29581Y-24347D01*
X30429Y-23500D01*
X30423Y-23494D01*
X30494Y-23423D01*
X30500Y-23429D01*
X30505Y-23423D01*
X30576Y-23494D01*
X30570Y-23500D01*
X31418Y-24347D01*
X31580Y-24223D01*
X31774Y-23754D01*
X31775Y-23247D01*
X31590Y-22800D01*
X53979Y-22800D01*
X54200Y-23020D01*
X54200Y-23250D01*
X54200Y-23520D01*
X54479Y-23800D01*
X55676Y-23800D01*
X55652Y-23831D01*
X56500Y-24679D01*
X56505Y-24673D01*
X56576Y-24744D01*
X56570Y-24750D01*
X56576Y-24755D01*
M02*
