G04 (created by PCBNEW (2013-07-07 BZR 4022)-stable) date 5/12/2014 12:12:32 PM*
%MOIN*%
G04 Gerber Fmt 3.4, Leading zero omitted, Abs format*
%FSLAX34Y34*%
G01*
G70*
G90*
G04 APERTURE LIST*
%ADD10C,0.008*%
%ADD11R,0.0311024X0.0366142*%
%ADD12C,0.065*%
%ADD13R,0.065X0.065*%
%ADD14R,0.1417X0.063*%
%ADD15C,0.215*%
%ADD16C,0.02*%
%ADD17C,0.03*%
%ADD18C,0.01*%
%ADD19C,0.1*%
%ADD20C,0.2*%
G04 APERTURE END LIST*
G54D10*
G54D11*
X47677Y-29250D03*
X48322Y-29250D03*
X39677Y-29250D03*
X40322Y-29250D03*
X31677Y-29250D03*
X32322Y-29250D03*
G54D12*
X46500Y-30500D03*
X47500Y-30500D03*
X48500Y-30500D03*
X49500Y-30500D03*
X50500Y-30500D03*
X51500Y-30500D03*
X52500Y-30500D03*
X53500Y-30500D03*
X53500Y-25500D03*
X52500Y-25500D03*
X51500Y-25500D03*
X50500Y-25500D03*
X49500Y-25500D03*
X48500Y-25500D03*
X47500Y-25500D03*
X46500Y-25500D03*
X38500Y-30500D03*
X39500Y-30500D03*
X40500Y-30500D03*
X41500Y-30500D03*
X42500Y-30500D03*
X43500Y-30500D03*
X44500Y-30500D03*
X45500Y-30500D03*
X45500Y-25500D03*
X44500Y-25500D03*
X43500Y-25500D03*
X42500Y-25500D03*
X41500Y-25500D03*
X40500Y-25500D03*
X39500Y-25500D03*
X38500Y-25500D03*
X30500Y-30500D03*
X31500Y-30500D03*
X32500Y-30500D03*
X33500Y-30500D03*
X34500Y-30500D03*
X35500Y-30500D03*
X36500Y-30500D03*
X37500Y-30500D03*
X37500Y-25500D03*
X36500Y-25500D03*
X35500Y-25500D03*
X34500Y-25500D03*
X33500Y-25500D03*
X32500Y-25500D03*
X31500Y-25500D03*
X30500Y-25500D03*
G54D13*
X47500Y-33000D03*
G54D12*
X47500Y-32000D03*
X48500Y-33000D03*
X48500Y-32000D03*
X49500Y-33000D03*
X49500Y-32000D03*
G54D13*
X39500Y-33000D03*
G54D12*
X39500Y-32000D03*
X40500Y-33000D03*
X40500Y-32000D03*
X41500Y-33000D03*
X41500Y-32000D03*
G54D13*
X31500Y-33000D03*
G54D12*
X31500Y-32000D03*
X32500Y-33000D03*
X32500Y-32000D03*
X33500Y-33000D03*
X33500Y-32000D03*
G54D13*
X48500Y-23750D03*
G54D12*
X49500Y-23750D03*
X50500Y-23750D03*
X51500Y-23750D03*
G54D13*
X40500Y-23750D03*
G54D12*
X41500Y-23750D03*
X42500Y-23750D03*
X43500Y-23750D03*
G54D13*
X32500Y-23750D03*
G54D12*
X33500Y-23750D03*
X34500Y-23750D03*
X35500Y-23750D03*
G54D14*
X46917Y-27500D03*
X49083Y-27500D03*
X38417Y-27500D03*
X40583Y-27500D03*
X30917Y-27500D03*
X33083Y-27500D03*
G54D15*
X30500Y-23500D03*
X56500Y-24750D03*
G54D13*
X53500Y-27000D03*
G54D12*
X53500Y-28000D03*
X52500Y-27000D03*
X52500Y-28000D03*
X51500Y-27000D03*
X51500Y-28000D03*
X50500Y-27000D03*
X50500Y-28000D03*
G54D13*
X45500Y-27000D03*
G54D12*
X45500Y-28000D03*
X44500Y-27000D03*
X44500Y-28000D03*
X43500Y-27000D03*
X43500Y-28000D03*
X42500Y-27000D03*
X42500Y-28000D03*
G54D13*
X36500Y-27000D03*
G54D12*
X36500Y-28000D03*
X35500Y-27000D03*
X35500Y-28000D03*
X34500Y-27000D03*
X34500Y-28000D03*
G54D16*
X44500Y-24750D02*
X52250Y-24750D01*
X52500Y-25000D02*
X52500Y-25500D01*
X52250Y-24750D02*
X52500Y-25000D01*
X36500Y-25500D02*
X36500Y-25000D01*
X44500Y-24750D02*
X44500Y-25500D01*
X36750Y-24750D02*
X44500Y-24750D01*
X36500Y-25000D02*
X36750Y-24750D01*
G54D17*
X38417Y-27500D02*
X38417Y-28750D01*
X38417Y-28750D02*
X38500Y-28750D01*
X38417Y-27500D02*
X37500Y-27500D01*
X37500Y-27500D02*
X37000Y-27000D01*
X31750Y-28500D02*
X33500Y-28500D01*
X30917Y-28167D02*
X31250Y-28500D01*
X31250Y-28500D02*
X31750Y-28500D01*
X30917Y-27500D02*
X30917Y-28167D01*
X33500Y-28500D02*
X33750Y-28750D01*
X33750Y-28750D02*
X38500Y-28750D01*
X38500Y-28750D02*
X41250Y-28750D01*
X46250Y-28750D02*
X41250Y-28750D01*
X46917Y-28083D02*
X46917Y-27500D01*
X46917Y-28083D02*
X46250Y-28750D01*
X46917Y-27500D02*
X46917Y-26667D01*
X46917Y-26667D02*
X46500Y-26250D01*
X46500Y-26250D02*
X46500Y-25500D01*
X38417Y-27500D02*
X38417Y-26333D01*
X38500Y-26250D02*
X38500Y-25500D01*
X38417Y-26333D02*
X38500Y-26250D01*
X30917Y-27500D02*
X30917Y-26667D01*
X30500Y-26250D02*
X30500Y-25500D01*
X30917Y-26667D02*
X30500Y-26250D01*
X37000Y-27000D02*
X36500Y-27000D01*
X34500Y-27000D02*
X35500Y-27000D01*
X35500Y-27000D02*
X36500Y-27000D01*
G54D18*
X37500Y-29500D02*
X33500Y-29500D01*
X32850Y-28850D02*
X31200Y-28850D01*
X33500Y-29500D02*
X32850Y-28850D01*
X46500Y-30500D02*
X46500Y-31000D01*
X39250Y-31250D02*
X38500Y-30500D01*
X46250Y-31250D02*
X39250Y-31250D01*
X46500Y-31000D02*
X46250Y-31250D01*
X30500Y-30500D02*
X30500Y-29250D01*
X30900Y-28850D02*
X31200Y-28850D01*
X30500Y-29250D02*
X30900Y-28850D01*
X37500Y-29500D02*
X38500Y-30500D01*
G54D19*
X30500Y-23500D02*
X30750Y-23250D01*
X30000Y-24000D02*
X30500Y-23500D01*
X30000Y-24500D02*
X30000Y-24000D01*
X31500Y-24500D02*
X30000Y-24500D01*
X31500Y-23250D02*
X31500Y-24500D01*
X30750Y-23250D02*
X31500Y-23250D01*
G54D20*
X56500Y-24750D02*
X55250Y-24750D01*
G54D17*
X33083Y-27500D02*
X33083Y-26833D01*
X31500Y-26000D02*
X31500Y-25500D01*
X32000Y-26500D02*
X31500Y-26000D01*
X32750Y-26500D02*
X32000Y-26500D01*
X33083Y-26833D02*
X32750Y-26500D01*
X40250Y-26500D02*
X40000Y-26500D01*
X40583Y-26833D02*
X40250Y-26500D01*
X40583Y-27500D02*
X40583Y-26833D01*
X39500Y-26000D02*
X39500Y-25500D01*
X40000Y-26500D02*
X39500Y-26000D01*
X49083Y-27500D02*
X49083Y-26833D01*
X47500Y-26000D02*
X47500Y-25500D01*
X48000Y-26500D02*
X47500Y-26000D01*
X48750Y-26500D02*
X48000Y-26500D01*
X49083Y-26833D02*
X48750Y-26500D01*
G54D18*
X39677Y-29250D02*
X39677Y-29822D01*
X39500Y-30000D02*
X39500Y-30500D01*
X39677Y-29822D02*
X39500Y-30000D01*
X31677Y-29250D02*
X31677Y-29822D01*
X31500Y-30000D02*
X31500Y-30500D01*
X31677Y-29822D02*
X31500Y-30000D01*
X47677Y-29250D02*
X47677Y-29822D01*
X47500Y-30000D02*
X47500Y-30500D01*
X47677Y-29822D02*
X47500Y-30000D01*
G54D10*
G36*
X56576Y-24755D02*
X56505Y-24826D01*
X56500Y-24820D01*
X56429Y-24891D01*
X56429Y-24750D01*
X55581Y-23902D01*
X55419Y-24026D01*
X55225Y-24495D01*
X55224Y-25002D01*
X55418Y-25471D01*
X55419Y-25473D01*
X55581Y-25597D01*
X56429Y-24750D01*
X56429Y-24891D01*
X55652Y-25668D01*
X55676Y-25700D01*
X55238Y-25700D01*
X54720Y-25958D01*
X54458Y-26220D01*
X54200Y-26738D01*
X54200Y-33238D01*
X54029Y-33578D01*
X54029Y-25575D01*
X54018Y-25367D01*
X53960Y-25227D01*
X53876Y-25194D01*
X53805Y-25264D01*
X53805Y-25123D01*
X53772Y-25039D01*
X53575Y-24970D01*
X53367Y-24981D01*
X53227Y-25039D01*
X53194Y-25123D01*
X53500Y-25429D01*
X53805Y-25123D01*
X53805Y-25264D01*
X53570Y-25500D01*
X53876Y-25805D01*
X53960Y-25772D01*
X54029Y-25575D01*
X54029Y-33578D01*
X54025Y-33588D01*
X54025Y-27285D01*
X54025Y-26714D01*
X54024Y-26635D01*
X53994Y-26561D01*
X53938Y-26505D01*
X53864Y-26474D01*
X53805Y-26474D01*
X53805Y-25876D01*
X53500Y-25570D01*
X53429Y-25641D01*
X53429Y-25500D01*
X53123Y-25194D01*
X53039Y-25227D01*
X52975Y-25410D01*
X52975Y-25405D01*
X52902Y-25231D01*
X52769Y-25097D01*
X52750Y-25089D01*
X52750Y-25000D01*
X52730Y-24904D01*
X52730Y-24904D01*
X52676Y-24823D01*
X52676Y-24823D01*
X52426Y-24573D01*
X52345Y-24519D01*
X52250Y-24500D01*
X51975Y-24500D01*
X51975Y-23655D01*
X51902Y-23481D01*
X51769Y-23347D01*
X51594Y-23275D01*
X51405Y-23274D01*
X51231Y-23347D01*
X51097Y-23480D01*
X51025Y-23655D01*
X51024Y-23844D01*
X51097Y-24018D01*
X51230Y-24152D01*
X51405Y-24224D01*
X51594Y-24225D01*
X51768Y-24152D01*
X51902Y-24019D01*
X51974Y-23844D01*
X51975Y-23655D01*
X51975Y-24500D01*
X50975Y-24500D01*
X50975Y-23655D01*
X50902Y-23481D01*
X50769Y-23347D01*
X50594Y-23275D01*
X50405Y-23274D01*
X50231Y-23347D01*
X50097Y-23480D01*
X50025Y-23655D01*
X50024Y-23844D01*
X50097Y-24018D01*
X50230Y-24152D01*
X50405Y-24224D01*
X50594Y-24225D01*
X50768Y-24152D01*
X50902Y-24019D01*
X50974Y-23844D01*
X50975Y-23655D01*
X50975Y-24500D01*
X49975Y-24500D01*
X49975Y-23655D01*
X49902Y-23481D01*
X49769Y-23347D01*
X49594Y-23275D01*
X49405Y-23274D01*
X49231Y-23347D01*
X49097Y-23480D01*
X49025Y-23655D01*
X49024Y-23844D01*
X49097Y-24018D01*
X49230Y-24152D01*
X49405Y-24224D01*
X49594Y-24225D01*
X49768Y-24152D01*
X49902Y-24019D01*
X49974Y-23844D01*
X49975Y-23655D01*
X49975Y-24500D01*
X48975Y-24500D01*
X48975Y-24045D01*
X48975Y-23395D01*
X48952Y-23340D01*
X48910Y-23297D01*
X48854Y-23275D01*
X48795Y-23274D01*
X48145Y-23274D01*
X48090Y-23297D01*
X48047Y-23339D01*
X48025Y-23395D01*
X48024Y-23454D01*
X48024Y-24104D01*
X48047Y-24159D01*
X48089Y-24202D01*
X48145Y-24224D01*
X48204Y-24225D01*
X48854Y-24225D01*
X48909Y-24202D01*
X48952Y-24160D01*
X48974Y-24104D01*
X48975Y-24045D01*
X48975Y-24500D01*
X44500Y-24500D01*
X43975Y-24500D01*
X43975Y-23655D01*
X43902Y-23481D01*
X43769Y-23347D01*
X43594Y-23275D01*
X43405Y-23274D01*
X43231Y-23347D01*
X43097Y-23480D01*
X43025Y-23655D01*
X43024Y-23844D01*
X43097Y-24018D01*
X43230Y-24152D01*
X43405Y-24224D01*
X43594Y-24225D01*
X43768Y-24152D01*
X43902Y-24019D01*
X43974Y-23844D01*
X43975Y-23655D01*
X43975Y-24500D01*
X42975Y-24500D01*
X42975Y-23655D01*
X42902Y-23481D01*
X42769Y-23347D01*
X42594Y-23275D01*
X42405Y-23274D01*
X42231Y-23347D01*
X42097Y-23480D01*
X42025Y-23655D01*
X42024Y-23844D01*
X42097Y-24018D01*
X42230Y-24152D01*
X42405Y-24224D01*
X42594Y-24225D01*
X42768Y-24152D01*
X42902Y-24019D01*
X42974Y-23844D01*
X42975Y-23655D01*
X42975Y-24500D01*
X41975Y-24500D01*
X41975Y-23655D01*
X41902Y-23481D01*
X41769Y-23347D01*
X41594Y-23275D01*
X41405Y-23274D01*
X41231Y-23347D01*
X41097Y-23480D01*
X41025Y-23655D01*
X41024Y-23844D01*
X41097Y-24018D01*
X41230Y-24152D01*
X41405Y-24224D01*
X41594Y-24225D01*
X41768Y-24152D01*
X41902Y-24019D01*
X41974Y-23844D01*
X41975Y-23655D01*
X41975Y-24500D01*
X40975Y-24500D01*
X40975Y-24045D01*
X40975Y-23395D01*
X40952Y-23340D01*
X40910Y-23297D01*
X40854Y-23275D01*
X40795Y-23274D01*
X40145Y-23274D01*
X40090Y-23297D01*
X40047Y-23339D01*
X40025Y-23395D01*
X40024Y-23454D01*
X40024Y-24104D01*
X40047Y-24159D01*
X40089Y-24202D01*
X40145Y-24224D01*
X40204Y-24225D01*
X40854Y-24225D01*
X40909Y-24202D01*
X40952Y-24160D01*
X40974Y-24104D01*
X40975Y-24045D01*
X40975Y-24500D01*
X36750Y-24500D01*
X36654Y-24519D01*
X36573Y-24573D01*
X36573Y-24573D01*
X36323Y-24823D01*
X36269Y-24904D01*
X36250Y-25000D01*
X36250Y-25089D01*
X36231Y-25097D01*
X36097Y-25230D01*
X36025Y-25405D01*
X36024Y-25594D01*
X36097Y-25768D01*
X36230Y-25902D01*
X36405Y-25974D01*
X36594Y-25975D01*
X36768Y-25902D01*
X36902Y-25769D01*
X36974Y-25594D01*
X36974Y-25514D01*
X36981Y-25632D01*
X37039Y-25772D01*
X37123Y-25805D01*
X37429Y-25500D01*
X37123Y-25194D01*
X37039Y-25227D01*
X36975Y-25410D01*
X36975Y-25405D01*
X36902Y-25231D01*
X36769Y-25097D01*
X36759Y-25093D01*
X36853Y-25000D01*
X37322Y-25000D01*
X37227Y-25039D01*
X37194Y-25123D01*
X37500Y-25429D01*
X37805Y-25123D01*
X37772Y-25039D01*
X37660Y-25000D01*
X39322Y-25000D01*
X39227Y-25039D01*
X39194Y-25123D01*
X39500Y-25429D01*
X39805Y-25123D01*
X39772Y-25039D01*
X39660Y-25000D01*
X44250Y-25000D01*
X44250Y-25089D01*
X44231Y-25097D01*
X44097Y-25230D01*
X44025Y-25405D01*
X44024Y-25594D01*
X44097Y-25768D01*
X44230Y-25902D01*
X44405Y-25974D01*
X44594Y-25975D01*
X44768Y-25902D01*
X44902Y-25769D01*
X44974Y-25594D01*
X44974Y-25514D01*
X44981Y-25632D01*
X45039Y-25772D01*
X45123Y-25805D01*
X45429Y-25500D01*
X45123Y-25194D01*
X45039Y-25227D01*
X44975Y-25410D01*
X44975Y-25405D01*
X44902Y-25231D01*
X44769Y-25097D01*
X44750Y-25089D01*
X44750Y-25000D01*
X45322Y-25000D01*
X45227Y-25039D01*
X45194Y-25123D01*
X45500Y-25429D01*
X45805Y-25123D01*
X45772Y-25039D01*
X45660Y-25000D01*
X47322Y-25000D01*
X47227Y-25039D01*
X47194Y-25123D01*
X47500Y-25429D01*
X47805Y-25123D01*
X47772Y-25039D01*
X47660Y-25000D01*
X52146Y-25000D01*
X52239Y-25093D01*
X52231Y-25097D01*
X52097Y-25230D01*
X52025Y-25405D01*
X52024Y-25594D01*
X52097Y-25768D01*
X52230Y-25902D01*
X52405Y-25974D01*
X52594Y-25975D01*
X52768Y-25902D01*
X52902Y-25769D01*
X52974Y-25594D01*
X52974Y-25514D01*
X52981Y-25632D01*
X53039Y-25772D01*
X53123Y-25805D01*
X53429Y-25500D01*
X53429Y-25641D01*
X53194Y-25876D01*
X53227Y-25960D01*
X53424Y-26029D01*
X53632Y-26018D01*
X53772Y-25960D01*
X53805Y-25876D01*
X53805Y-26474D01*
X53600Y-26475D01*
X53550Y-26525D01*
X53550Y-26950D01*
X53975Y-26950D01*
X54025Y-26900D01*
X54025Y-26714D01*
X54025Y-27285D01*
X54025Y-27100D01*
X53975Y-27050D01*
X53550Y-27050D01*
X53550Y-27475D01*
X53600Y-27525D01*
X53864Y-27525D01*
X53938Y-27494D01*
X53994Y-27438D01*
X54024Y-27364D01*
X54025Y-27285D01*
X54025Y-33588D01*
X53975Y-33688D01*
X53975Y-30405D01*
X53975Y-27905D01*
X53902Y-27731D01*
X53769Y-27597D01*
X53594Y-27525D01*
X53450Y-27524D01*
X53450Y-27475D01*
X53450Y-27050D01*
X53442Y-27050D01*
X53442Y-26950D01*
X53450Y-26950D01*
X53450Y-26525D01*
X53400Y-26475D01*
X53135Y-26474D01*
X53061Y-26505D01*
X53005Y-26561D01*
X52975Y-26635D01*
X52974Y-26714D01*
X52974Y-26762D01*
X52960Y-26727D01*
X52876Y-26694D01*
X52805Y-26764D01*
X52805Y-26623D01*
X52772Y-26539D01*
X52575Y-26470D01*
X52367Y-26481D01*
X52227Y-26539D01*
X52194Y-26623D01*
X52500Y-26929D01*
X52805Y-26623D01*
X52805Y-26764D01*
X52570Y-27000D01*
X52876Y-27305D01*
X52960Y-27272D01*
X52974Y-27231D01*
X52974Y-27285D01*
X52975Y-27364D01*
X53005Y-27438D01*
X53061Y-27494D01*
X53135Y-27525D01*
X53400Y-27525D01*
X53450Y-27475D01*
X53450Y-27524D01*
X53405Y-27524D01*
X53231Y-27597D01*
X53097Y-27730D01*
X53025Y-27905D01*
X53024Y-28094D01*
X53097Y-28268D01*
X53230Y-28402D01*
X53405Y-28474D01*
X53594Y-28475D01*
X53768Y-28402D01*
X53902Y-28269D01*
X53974Y-28094D01*
X53975Y-27905D01*
X53975Y-30405D01*
X53902Y-30231D01*
X53769Y-30097D01*
X53594Y-30025D01*
X53405Y-30024D01*
X53231Y-30097D01*
X53097Y-30230D01*
X53025Y-30405D01*
X53024Y-30594D01*
X53097Y-30768D01*
X53230Y-30902D01*
X53405Y-30974D01*
X53594Y-30975D01*
X53768Y-30902D01*
X53902Y-30769D01*
X53974Y-30594D01*
X53975Y-30405D01*
X53975Y-33688D01*
X53958Y-33720D01*
X53722Y-33956D01*
X52991Y-34200D01*
X52975Y-34200D01*
X52975Y-30405D01*
X52975Y-27905D01*
X52902Y-27731D01*
X52769Y-27597D01*
X52594Y-27525D01*
X52514Y-27525D01*
X52632Y-27518D01*
X52772Y-27460D01*
X52805Y-27376D01*
X52500Y-27070D01*
X52429Y-27141D01*
X52429Y-27000D01*
X52123Y-26694D01*
X52039Y-26727D01*
X52003Y-26830D01*
X51975Y-26762D01*
X51975Y-25405D01*
X51902Y-25231D01*
X51769Y-25097D01*
X51594Y-25025D01*
X51405Y-25024D01*
X51231Y-25097D01*
X51097Y-25230D01*
X51025Y-25405D01*
X51024Y-25594D01*
X51097Y-25768D01*
X51230Y-25902D01*
X51405Y-25974D01*
X51594Y-25975D01*
X51768Y-25902D01*
X51902Y-25769D01*
X51974Y-25594D01*
X51975Y-25405D01*
X51975Y-26762D01*
X51960Y-26727D01*
X51876Y-26694D01*
X51805Y-26764D01*
X51805Y-26623D01*
X51772Y-26539D01*
X51575Y-26470D01*
X51367Y-26481D01*
X51227Y-26539D01*
X51194Y-26623D01*
X51500Y-26929D01*
X51805Y-26623D01*
X51805Y-26764D01*
X51570Y-27000D01*
X51876Y-27305D01*
X51960Y-27272D01*
X51996Y-27169D01*
X52039Y-27272D01*
X52123Y-27305D01*
X52429Y-27000D01*
X52429Y-27141D01*
X52194Y-27376D01*
X52227Y-27460D01*
X52410Y-27524D01*
X52405Y-27524D01*
X52231Y-27597D01*
X52097Y-27730D01*
X52025Y-27905D01*
X52024Y-28094D01*
X52097Y-28268D01*
X52230Y-28402D01*
X52405Y-28474D01*
X52594Y-28475D01*
X52768Y-28402D01*
X52902Y-28269D01*
X52974Y-28094D01*
X52975Y-27905D01*
X52975Y-30405D01*
X52902Y-30231D01*
X52769Y-30097D01*
X52594Y-30025D01*
X52405Y-30024D01*
X52231Y-30097D01*
X52097Y-30230D01*
X52025Y-30405D01*
X52024Y-30594D01*
X52097Y-30768D01*
X52230Y-30902D01*
X52405Y-30974D01*
X52594Y-30975D01*
X52768Y-30902D01*
X52902Y-30769D01*
X52974Y-30594D01*
X52975Y-30405D01*
X52975Y-34200D01*
X51975Y-34200D01*
X51975Y-30405D01*
X51975Y-27905D01*
X51902Y-27731D01*
X51769Y-27597D01*
X51594Y-27525D01*
X51514Y-27525D01*
X51632Y-27518D01*
X51772Y-27460D01*
X51805Y-27376D01*
X51500Y-27070D01*
X51429Y-27141D01*
X51429Y-27000D01*
X51123Y-26694D01*
X51039Y-26727D01*
X51003Y-26830D01*
X50975Y-26762D01*
X50975Y-25405D01*
X50902Y-25231D01*
X50769Y-25097D01*
X50594Y-25025D01*
X50405Y-25024D01*
X50231Y-25097D01*
X50097Y-25230D01*
X50025Y-25405D01*
X50024Y-25594D01*
X50097Y-25768D01*
X50230Y-25902D01*
X50405Y-25974D01*
X50594Y-25975D01*
X50768Y-25902D01*
X50902Y-25769D01*
X50974Y-25594D01*
X50975Y-25405D01*
X50975Y-26762D01*
X50960Y-26727D01*
X50876Y-26694D01*
X50805Y-26764D01*
X50805Y-26623D01*
X50772Y-26539D01*
X50575Y-26470D01*
X50367Y-26481D01*
X50227Y-26539D01*
X50194Y-26623D01*
X50500Y-26929D01*
X50805Y-26623D01*
X50805Y-26764D01*
X50570Y-27000D01*
X50876Y-27305D01*
X50960Y-27272D01*
X50996Y-27169D01*
X51039Y-27272D01*
X51123Y-27305D01*
X51429Y-27000D01*
X51429Y-27141D01*
X51194Y-27376D01*
X51227Y-27460D01*
X51410Y-27524D01*
X51405Y-27524D01*
X51231Y-27597D01*
X51097Y-27730D01*
X51025Y-27905D01*
X51024Y-28094D01*
X51097Y-28268D01*
X51230Y-28402D01*
X51405Y-28474D01*
X51594Y-28475D01*
X51768Y-28402D01*
X51902Y-28269D01*
X51974Y-28094D01*
X51975Y-27905D01*
X51975Y-30405D01*
X51902Y-30231D01*
X51769Y-30097D01*
X51594Y-30025D01*
X51405Y-30024D01*
X51231Y-30097D01*
X51097Y-30230D01*
X51025Y-30405D01*
X51024Y-30594D01*
X51097Y-30768D01*
X51230Y-30902D01*
X51405Y-30974D01*
X51594Y-30975D01*
X51768Y-30902D01*
X51902Y-30769D01*
X51974Y-30594D01*
X51975Y-30405D01*
X51975Y-34200D01*
X50975Y-34200D01*
X50975Y-30405D01*
X50975Y-27905D01*
X50902Y-27731D01*
X50769Y-27597D01*
X50594Y-27525D01*
X50514Y-27525D01*
X50632Y-27518D01*
X50772Y-27460D01*
X50805Y-27376D01*
X50500Y-27070D01*
X50429Y-27141D01*
X50429Y-27000D01*
X50123Y-26694D01*
X50039Y-26727D01*
X49975Y-26910D01*
X49975Y-25405D01*
X49902Y-25231D01*
X49769Y-25097D01*
X49594Y-25025D01*
X49405Y-25024D01*
X49231Y-25097D01*
X49097Y-25230D01*
X49025Y-25405D01*
X49024Y-25594D01*
X49097Y-25768D01*
X49230Y-25902D01*
X49405Y-25974D01*
X49594Y-25975D01*
X49768Y-25902D01*
X49902Y-25769D01*
X49974Y-25594D01*
X49975Y-25405D01*
X49975Y-26910D01*
X49970Y-26924D01*
X49980Y-27119D01*
X49960Y-27071D01*
X49904Y-27015D01*
X49831Y-26984D01*
X49183Y-26985D01*
X49133Y-27035D01*
X49133Y-27450D01*
X49941Y-27450D01*
X49991Y-27400D01*
X49991Y-27224D01*
X49991Y-27156D01*
X50039Y-27272D01*
X50123Y-27305D01*
X50429Y-27000D01*
X50429Y-27141D01*
X50194Y-27376D01*
X50227Y-27460D01*
X50410Y-27524D01*
X50405Y-27524D01*
X50231Y-27597D01*
X50097Y-27730D01*
X50025Y-27905D01*
X50024Y-28094D01*
X50097Y-28268D01*
X50230Y-28402D01*
X50405Y-28474D01*
X50594Y-28475D01*
X50768Y-28402D01*
X50902Y-28269D01*
X50974Y-28094D01*
X50975Y-27905D01*
X50975Y-30405D01*
X50902Y-30231D01*
X50769Y-30097D01*
X50594Y-30025D01*
X50405Y-30024D01*
X50231Y-30097D01*
X50097Y-30230D01*
X50025Y-30405D01*
X50024Y-30594D01*
X50097Y-30768D01*
X50230Y-30902D01*
X50405Y-30974D01*
X50594Y-30975D01*
X50768Y-30902D01*
X50902Y-30769D01*
X50974Y-30594D01*
X50975Y-30405D01*
X50975Y-34200D01*
X50250Y-34200D01*
X49991Y-34200D01*
X49991Y-27775D01*
X49991Y-27600D01*
X49941Y-27550D01*
X49133Y-27550D01*
X49133Y-27965D01*
X49183Y-28015D01*
X49831Y-28015D01*
X49904Y-27984D01*
X49960Y-27928D01*
X49991Y-27854D01*
X49991Y-27775D01*
X49991Y-34200D01*
X49975Y-34200D01*
X49975Y-32905D01*
X49975Y-31905D01*
X49975Y-30405D01*
X49902Y-30231D01*
X49769Y-30097D01*
X49594Y-30025D01*
X49405Y-30024D01*
X49231Y-30097D01*
X49097Y-30230D01*
X49033Y-30386D01*
X49033Y-27965D01*
X49033Y-27550D01*
X49033Y-27450D01*
X49033Y-27035D01*
X48983Y-26985D01*
X48975Y-26984D01*
X48975Y-25405D01*
X48902Y-25231D01*
X48769Y-25097D01*
X48594Y-25025D01*
X48405Y-25024D01*
X48231Y-25097D01*
X48097Y-25230D01*
X48025Y-25405D01*
X48025Y-25485D01*
X48018Y-25367D01*
X47960Y-25227D01*
X47876Y-25194D01*
X47570Y-25500D01*
X47876Y-25805D01*
X47960Y-25772D01*
X48024Y-25589D01*
X48024Y-25594D01*
X48097Y-25768D01*
X48230Y-25902D01*
X48405Y-25974D01*
X48594Y-25975D01*
X48768Y-25902D01*
X48902Y-25769D01*
X48974Y-25594D01*
X48975Y-25405D01*
X48975Y-26984D01*
X48334Y-26984D01*
X48261Y-27015D01*
X48205Y-27071D01*
X48174Y-27145D01*
X48174Y-27224D01*
X48174Y-27400D01*
X48224Y-27450D01*
X49033Y-27450D01*
X49033Y-27550D01*
X48224Y-27550D01*
X48174Y-27600D01*
X48174Y-27775D01*
X48174Y-27854D01*
X48205Y-27928D01*
X48261Y-27984D01*
X48334Y-28015D01*
X48983Y-28015D01*
X49033Y-27965D01*
X49033Y-30386D01*
X49025Y-30405D01*
X49024Y-30594D01*
X49097Y-30768D01*
X49230Y-30902D01*
X49405Y-30974D01*
X49594Y-30975D01*
X49768Y-30902D01*
X49902Y-30769D01*
X49974Y-30594D01*
X49975Y-30405D01*
X49975Y-31905D01*
X49902Y-31731D01*
X49769Y-31597D01*
X49594Y-31525D01*
X49405Y-31524D01*
X49231Y-31597D01*
X49097Y-31730D01*
X49025Y-31905D01*
X49024Y-32094D01*
X49097Y-32268D01*
X49230Y-32402D01*
X49405Y-32474D01*
X49594Y-32475D01*
X49768Y-32402D01*
X49902Y-32269D01*
X49974Y-32094D01*
X49975Y-31905D01*
X49975Y-32905D01*
X49902Y-32731D01*
X49769Y-32597D01*
X49594Y-32525D01*
X49405Y-32524D01*
X49231Y-32597D01*
X49097Y-32730D01*
X49025Y-32905D01*
X49024Y-33094D01*
X49097Y-33268D01*
X49230Y-33402D01*
X49405Y-33474D01*
X49594Y-33475D01*
X49768Y-33402D01*
X49902Y-33269D01*
X49974Y-33094D01*
X49975Y-32905D01*
X49975Y-34200D01*
X48975Y-34200D01*
X48975Y-32905D01*
X48975Y-31905D01*
X48975Y-30405D01*
X48902Y-30231D01*
X48769Y-30097D01*
X48678Y-30059D01*
X48678Y-29393D01*
X48678Y-29106D01*
X48678Y-29026D01*
X48647Y-28953D01*
X48591Y-28897D01*
X48517Y-28866D01*
X48422Y-28866D01*
X48372Y-28916D01*
X48372Y-29200D01*
X48628Y-29200D01*
X48678Y-29150D01*
X48678Y-29106D01*
X48678Y-29393D01*
X48678Y-29350D01*
X48628Y-29300D01*
X48372Y-29300D01*
X48372Y-29583D01*
X48422Y-29633D01*
X48517Y-29633D01*
X48591Y-29602D01*
X48647Y-29546D01*
X48678Y-29473D01*
X48678Y-29393D01*
X48678Y-30059D01*
X48594Y-30025D01*
X48405Y-30024D01*
X48272Y-30079D01*
X48272Y-29583D01*
X48272Y-29300D01*
X48264Y-29300D01*
X48264Y-29200D01*
X48272Y-29200D01*
X48272Y-28916D01*
X48222Y-28866D01*
X48127Y-28866D01*
X48054Y-28897D01*
X47997Y-28953D01*
X47972Y-29013D01*
X47959Y-28982D01*
X47917Y-28939D01*
X47862Y-28916D01*
X47805Y-28916D01*
X47805Y-25876D01*
X47500Y-25570D01*
X47194Y-25876D01*
X47227Y-25960D01*
X47424Y-26029D01*
X47632Y-26018D01*
X47772Y-25960D01*
X47805Y-25876D01*
X47805Y-28916D01*
X47802Y-28916D01*
X47775Y-28916D01*
X47775Y-27785D01*
X47775Y-27155D01*
X47752Y-27100D01*
X47710Y-27057D01*
X47655Y-27035D01*
X47595Y-27034D01*
X47217Y-27034D01*
X47217Y-26667D01*
X47216Y-26666D01*
X47194Y-26552D01*
X47129Y-26454D01*
X47129Y-26454D01*
X46800Y-26125D01*
X46800Y-25871D01*
X46902Y-25769D01*
X46974Y-25594D01*
X46974Y-25514D01*
X46981Y-25632D01*
X47039Y-25772D01*
X47123Y-25805D01*
X47429Y-25500D01*
X47123Y-25194D01*
X47039Y-25227D01*
X46975Y-25410D01*
X46975Y-25405D01*
X46902Y-25231D01*
X46769Y-25097D01*
X46594Y-25025D01*
X46405Y-25024D01*
X46231Y-25097D01*
X46097Y-25230D01*
X46025Y-25405D01*
X46025Y-25485D01*
X46018Y-25367D01*
X45960Y-25227D01*
X45876Y-25194D01*
X45570Y-25500D01*
X45876Y-25805D01*
X45960Y-25772D01*
X46024Y-25589D01*
X46024Y-25594D01*
X46097Y-25768D01*
X46200Y-25871D01*
X46200Y-26250D01*
X46222Y-26364D01*
X46287Y-26462D01*
X46617Y-26791D01*
X46617Y-27034D01*
X46178Y-27034D01*
X46123Y-27057D01*
X46081Y-27099D01*
X46058Y-27155D01*
X46058Y-27214D01*
X46058Y-27844D01*
X46081Y-27899D01*
X46123Y-27942D01*
X46178Y-27964D01*
X46238Y-27965D01*
X46610Y-27965D01*
X46125Y-28450D01*
X45654Y-28450D01*
X45768Y-28402D01*
X45902Y-28269D01*
X45974Y-28094D01*
X45975Y-27905D01*
X45975Y-27905D01*
X45975Y-27295D01*
X45975Y-26645D01*
X45952Y-26590D01*
X45910Y-26547D01*
X45854Y-26525D01*
X45805Y-26524D01*
X45805Y-25876D01*
X45500Y-25570D01*
X45194Y-25876D01*
X45227Y-25960D01*
X45424Y-26029D01*
X45632Y-26018D01*
X45772Y-25960D01*
X45805Y-25876D01*
X45805Y-26524D01*
X45795Y-26524D01*
X45145Y-26524D01*
X45090Y-26547D01*
X45047Y-26589D01*
X45025Y-26645D01*
X45024Y-26704D01*
X45024Y-27354D01*
X45047Y-27409D01*
X45089Y-27452D01*
X45145Y-27474D01*
X45204Y-27475D01*
X45854Y-27475D01*
X45909Y-27452D01*
X45952Y-27410D01*
X45974Y-27354D01*
X45975Y-27295D01*
X45975Y-27905D01*
X45902Y-27731D01*
X45769Y-27597D01*
X45594Y-27525D01*
X45405Y-27524D01*
X45231Y-27597D01*
X45097Y-27730D01*
X45025Y-27905D01*
X45024Y-28094D01*
X45097Y-28268D01*
X45230Y-28402D01*
X45345Y-28450D01*
X44654Y-28450D01*
X44768Y-28402D01*
X44902Y-28269D01*
X44974Y-28094D01*
X44975Y-27905D01*
X44975Y-26905D01*
X44902Y-26731D01*
X44769Y-26597D01*
X44594Y-26525D01*
X44405Y-26524D01*
X44231Y-26597D01*
X44097Y-26730D01*
X44025Y-26905D01*
X44024Y-27094D01*
X44097Y-27268D01*
X44230Y-27402D01*
X44405Y-27474D01*
X44594Y-27475D01*
X44768Y-27402D01*
X44902Y-27269D01*
X44974Y-27094D01*
X44975Y-26905D01*
X44975Y-27905D01*
X44902Y-27731D01*
X44769Y-27597D01*
X44594Y-27525D01*
X44405Y-27524D01*
X44231Y-27597D01*
X44097Y-27730D01*
X44025Y-27905D01*
X44024Y-28094D01*
X44097Y-28268D01*
X44230Y-28402D01*
X44345Y-28450D01*
X43654Y-28450D01*
X43768Y-28402D01*
X43902Y-28269D01*
X43974Y-28094D01*
X43975Y-27905D01*
X43975Y-26905D01*
X43975Y-25405D01*
X43902Y-25231D01*
X43769Y-25097D01*
X43594Y-25025D01*
X43405Y-25024D01*
X43231Y-25097D01*
X43097Y-25230D01*
X43025Y-25405D01*
X43024Y-25594D01*
X43097Y-25768D01*
X43230Y-25902D01*
X43405Y-25974D01*
X43594Y-25975D01*
X43768Y-25902D01*
X43902Y-25769D01*
X43974Y-25594D01*
X43975Y-25405D01*
X43975Y-26905D01*
X43902Y-26731D01*
X43769Y-26597D01*
X43594Y-26525D01*
X43405Y-26524D01*
X43231Y-26597D01*
X43097Y-26730D01*
X43025Y-26905D01*
X43025Y-26985D01*
X43018Y-26867D01*
X42975Y-26762D01*
X42975Y-25405D01*
X42902Y-25231D01*
X42769Y-25097D01*
X42594Y-25025D01*
X42405Y-25024D01*
X42231Y-25097D01*
X42097Y-25230D01*
X42025Y-25405D01*
X42024Y-25594D01*
X42097Y-25768D01*
X42230Y-25902D01*
X42405Y-25974D01*
X42594Y-25975D01*
X42768Y-25902D01*
X42902Y-25769D01*
X42974Y-25594D01*
X42975Y-25405D01*
X42975Y-26762D01*
X42960Y-26727D01*
X42876Y-26694D01*
X42805Y-26764D01*
X42805Y-26623D01*
X42772Y-26539D01*
X42575Y-26470D01*
X42367Y-26481D01*
X42227Y-26539D01*
X42194Y-26623D01*
X42500Y-26929D01*
X42805Y-26623D01*
X42805Y-26764D01*
X42570Y-27000D01*
X42876Y-27305D01*
X42960Y-27272D01*
X43024Y-27089D01*
X43024Y-27094D01*
X43097Y-27268D01*
X43230Y-27402D01*
X43405Y-27474D01*
X43594Y-27475D01*
X43768Y-27402D01*
X43902Y-27269D01*
X43974Y-27094D01*
X43975Y-26905D01*
X43975Y-27905D01*
X43902Y-27731D01*
X43769Y-27597D01*
X43594Y-27525D01*
X43405Y-27524D01*
X43231Y-27597D01*
X43097Y-27730D01*
X43025Y-27905D01*
X43024Y-28094D01*
X43097Y-28268D01*
X43230Y-28402D01*
X43345Y-28450D01*
X42654Y-28450D01*
X42768Y-28402D01*
X42902Y-28269D01*
X42974Y-28094D01*
X42975Y-27905D01*
X42902Y-27731D01*
X42769Y-27597D01*
X42594Y-27525D01*
X42514Y-27525D01*
X42632Y-27518D01*
X42772Y-27460D01*
X42805Y-27376D01*
X42500Y-27070D01*
X42429Y-27141D01*
X42429Y-27000D01*
X42123Y-26694D01*
X42039Y-26727D01*
X41975Y-26910D01*
X41975Y-25405D01*
X41902Y-25231D01*
X41769Y-25097D01*
X41594Y-25025D01*
X41405Y-25024D01*
X41231Y-25097D01*
X41097Y-25230D01*
X41025Y-25405D01*
X41024Y-25594D01*
X41097Y-25768D01*
X41230Y-25902D01*
X41405Y-25974D01*
X41594Y-25975D01*
X41768Y-25902D01*
X41902Y-25769D01*
X41974Y-25594D01*
X41975Y-25405D01*
X41975Y-26910D01*
X41970Y-26924D01*
X41981Y-27132D01*
X42039Y-27272D01*
X42123Y-27305D01*
X42429Y-27000D01*
X42429Y-27141D01*
X42194Y-27376D01*
X42227Y-27460D01*
X42410Y-27524D01*
X42405Y-27524D01*
X42231Y-27597D01*
X42097Y-27730D01*
X42025Y-27905D01*
X42024Y-28094D01*
X42097Y-28268D01*
X42230Y-28402D01*
X42345Y-28450D01*
X41491Y-28450D01*
X41491Y-27775D01*
X41491Y-27224D01*
X41491Y-27145D01*
X41460Y-27071D01*
X41404Y-27015D01*
X41331Y-26984D01*
X40975Y-26984D01*
X40975Y-25405D01*
X40902Y-25231D01*
X40769Y-25097D01*
X40594Y-25025D01*
X40405Y-25024D01*
X40231Y-25097D01*
X40097Y-25230D01*
X40025Y-25405D01*
X40025Y-25485D01*
X40018Y-25367D01*
X39960Y-25227D01*
X39876Y-25194D01*
X39570Y-25500D01*
X39876Y-25805D01*
X39960Y-25772D01*
X40024Y-25589D01*
X40024Y-25594D01*
X40097Y-25768D01*
X40230Y-25902D01*
X40405Y-25974D01*
X40594Y-25975D01*
X40768Y-25902D01*
X40902Y-25769D01*
X40974Y-25594D01*
X40975Y-25405D01*
X40975Y-26984D01*
X40683Y-26985D01*
X40633Y-27035D01*
X40633Y-27450D01*
X41441Y-27450D01*
X41491Y-27400D01*
X41491Y-27224D01*
X41491Y-27775D01*
X41491Y-27600D01*
X41441Y-27550D01*
X40633Y-27550D01*
X40633Y-27965D01*
X40683Y-28015D01*
X41331Y-28015D01*
X41404Y-27984D01*
X41460Y-27928D01*
X41491Y-27854D01*
X41491Y-27775D01*
X41491Y-28450D01*
X41250Y-28450D01*
X40533Y-28450D01*
X40533Y-27965D01*
X40533Y-27550D01*
X40533Y-27450D01*
X40533Y-27035D01*
X40483Y-26985D01*
X39834Y-26984D01*
X39805Y-26996D01*
X39805Y-25876D01*
X39500Y-25570D01*
X39194Y-25876D01*
X39227Y-25960D01*
X39424Y-26029D01*
X39632Y-26018D01*
X39772Y-25960D01*
X39805Y-25876D01*
X39805Y-26996D01*
X39761Y-27015D01*
X39705Y-27071D01*
X39674Y-27145D01*
X39674Y-27224D01*
X39674Y-27400D01*
X39724Y-27450D01*
X40533Y-27450D01*
X40533Y-27550D01*
X39724Y-27550D01*
X39674Y-27600D01*
X39674Y-27775D01*
X39674Y-27854D01*
X39705Y-27928D01*
X39761Y-27984D01*
X39834Y-28015D01*
X40483Y-28015D01*
X40533Y-27965D01*
X40533Y-28450D01*
X38717Y-28450D01*
X38717Y-27965D01*
X39155Y-27965D01*
X39210Y-27942D01*
X39252Y-27900D01*
X39275Y-27844D01*
X39275Y-27785D01*
X39275Y-27155D01*
X39252Y-27100D01*
X39210Y-27057D01*
X39155Y-27035D01*
X39095Y-27034D01*
X38717Y-27034D01*
X38717Y-26454D01*
X38717Y-26454D01*
X38777Y-26364D01*
X38799Y-26250D01*
X38800Y-26250D01*
X38800Y-25871D01*
X38902Y-25769D01*
X38974Y-25594D01*
X38974Y-25514D01*
X38981Y-25632D01*
X39039Y-25772D01*
X39123Y-25805D01*
X39429Y-25500D01*
X39123Y-25194D01*
X39039Y-25227D01*
X38975Y-25410D01*
X38975Y-25405D01*
X38902Y-25231D01*
X38769Y-25097D01*
X38594Y-25025D01*
X38405Y-25024D01*
X38231Y-25097D01*
X38097Y-25230D01*
X38025Y-25405D01*
X38025Y-25485D01*
X38018Y-25367D01*
X37960Y-25227D01*
X37876Y-25194D01*
X37570Y-25500D01*
X37876Y-25805D01*
X37960Y-25772D01*
X38024Y-25589D01*
X38024Y-25594D01*
X38097Y-25768D01*
X38200Y-25871D01*
X38200Y-26128D01*
X38139Y-26218D01*
X38117Y-26333D01*
X38117Y-27034D01*
X37805Y-27034D01*
X37805Y-25876D01*
X37500Y-25570D01*
X37194Y-25876D01*
X37227Y-25960D01*
X37424Y-26029D01*
X37632Y-26018D01*
X37772Y-25960D01*
X37805Y-25876D01*
X37805Y-27034D01*
X37678Y-27034D01*
X37623Y-27057D01*
X37581Y-27099D01*
X37564Y-27140D01*
X37212Y-26787D01*
X37114Y-26722D01*
X37000Y-26700D01*
X36975Y-26700D01*
X36975Y-26645D01*
X36952Y-26590D01*
X36910Y-26547D01*
X36854Y-26525D01*
X36795Y-26524D01*
X36145Y-26524D01*
X36090Y-26547D01*
X36047Y-26589D01*
X36025Y-26645D01*
X36024Y-26700D01*
X35975Y-26700D01*
X35975Y-25405D01*
X35975Y-23655D01*
X35902Y-23481D01*
X35769Y-23347D01*
X35594Y-23275D01*
X35405Y-23274D01*
X35231Y-23347D01*
X35097Y-23480D01*
X35025Y-23655D01*
X35024Y-23844D01*
X35097Y-24018D01*
X35230Y-24152D01*
X35405Y-24224D01*
X35594Y-24225D01*
X35768Y-24152D01*
X35902Y-24019D01*
X35974Y-23844D01*
X35975Y-23655D01*
X35975Y-25405D01*
X35902Y-25231D01*
X35769Y-25097D01*
X35594Y-25025D01*
X35405Y-25024D01*
X35231Y-25097D01*
X35097Y-25230D01*
X35025Y-25405D01*
X35024Y-25594D01*
X35097Y-25768D01*
X35230Y-25902D01*
X35405Y-25974D01*
X35594Y-25975D01*
X35768Y-25902D01*
X35902Y-25769D01*
X35974Y-25594D01*
X35975Y-25405D01*
X35975Y-26700D01*
X35871Y-26700D01*
X35769Y-26597D01*
X35594Y-26525D01*
X35405Y-26524D01*
X35231Y-26597D01*
X35128Y-26700D01*
X34975Y-26700D01*
X34975Y-25405D01*
X34975Y-23655D01*
X34902Y-23481D01*
X34769Y-23347D01*
X34594Y-23275D01*
X34405Y-23274D01*
X34231Y-23347D01*
X34097Y-23480D01*
X34025Y-23655D01*
X34024Y-23844D01*
X34097Y-24018D01*
X34230Y-24152D01*
X34405Y-24224D01*
X34594Y-24225D01*
X34768Y-24152D01*
X34902Y-24019D01*
X34974Y-23844D01*
X34975Y-23655D01*
X34975Y-25405D01*
X34902Y-25231D01*
X34769Y-25097D01*
X34594Y-25025D01*
X34405Y-25024D01*
X34231Y-25097D01*
X34097Y-25230D01*
X34025Y-25405D01*
X34024Y-25594D01*
X34097Y-25768D01*
X34230Y-25902D01*
X34405Y-25974D01*
X34594Y-25975D01*
X34768Y-25902D01*
X34902Y-25769D01*
X34974Y-25594D01*
X34975Y-25405D01*
X34975Y-26700D01*
X34871Y-26700D01*
X34769Y-26597D01*
X34594Y-26525D01*
X34405Y-26524D01*
X34231Y-26597D01*
X34097Y-26730D01*
X34025Y-26905D01*
X34024Y-27094D01*
X34097Y-27268D01*
X34230Y-27402D01*
X34405Y-27474D01*
X34485Y-27474D01*
X34367Y-27481D01*
X34227Y-27539D01*
X34194Y-27623D01*
X34500Y-27929D01*
X34805Y-27623D01*
X34772Y-27539D01*
X34589Y-27475D01*
X34594Y-27475D01*
X34768Y-27402D01*
X34871Y-27300D01*
X35128Y-27300D01*
X35230Y-27402D01*
X35405Y-27474D01*
X35485Y-27474D01*
X35367Y-27481D01*
X35227Y-27539D01*
X35194Y-27623D01*
X35500Y-27929D01*
X35805Y-27623D01*
X35772Y-27539D01*
X35589Y-27475D01*
X35594Y-27475D01*
X35768Y-27402D01*
X35871Y-27300D01*
X36024Y-27300D01*
X36024Y-27354D01*
X36047Y-27409D01*
X36089Y-27452D01*
X36145Y-27474D01*
X36204Y-27475D01*
X36485Y-27475D01*
X36367Y-27481D01*
X36227Y-27539D01*
X36194Y-27623D01*
X36500Y-27929D01*
X36805Y-27623D01*
X36772Y-27539D01*
X36589Y-27475D01*
X36854Y-27475D01*
X36909Y-27452D01*
X36952Y-27410D01*
X36961Y-27386D01*
X37287Y-27712D01*
X37287Y-27712D01*
X37385Y-27777D01*
X37500Y-27800D01*
X37558Y-27800D01*
X37558Y-27844D01*
X37581Y-27899D01*
X37623Y-27942D01*
X37678Y-27964D01*
X37738Y-27965D01*
X38117Y-27965D01*
X38117Y-28450D01*
X37029Y-28450D01*
X37029Y-28075D01*
X37018Y-27867D01*
X36960Y-27727D01*
X36876Y-27694D01*
X36570Y-28000D01*
X36876Y-28305D01*
X36960Y-28272D01*
X37029Y-28075D01*
X37029Y-28450D01*
X36776Y-28450D01*
X36805Y-28376D01*
X36500Y-28070D01*
X36429Y-28141D01*
X36429Y-28000D01*
X36123Y-27694D01*
X36039Y-27727D01*
X36003Y-27830D01*
X35960Y-27727D01*
X35876Y-27694D01*
X35570Y-28000D01*
X35876Y-28305D01*
X35960Y-28272D01*
X35996Y-28169D01*
X36039Y-28272D01*
X36123Y-28305D01*
X36429Y-28000D01*
X36429Y-28141D01*
X36194Y-28376D01*
X36223Y-28450D01*
X35776Y-28450D01*
X35805Y-28376D01*
X35500Y-28070D01*
X35429Y-28141D01*
X35429Y-28000D01*
X35123Y-27694D01*
X35039Y-27727D01*
X35003Y-27830D01*
X34960Y-27727D01*
X34876Y-27694D01*
X34570Y-28000D01*
X34876Y-28305D01*
X34960Y-28272D01*
X34996Y-28169D01*
X35039Y-28272D01*
X35123Y-28305D01*
X35429Y-28000D01*
X35429Y-28141D01*
X35194Y-28376D01*
X35223Y-28450D01*
X34776Y-28450D01*
X34805Y-28376D01*
X34500Y-28070D01*
X34429Y-28141D01*
X34429Y-28000D01*
X34123Y-27694D01*
X34039Y-27727D01*
X33991Y-27863D01*
X33991Y-27775D01*
X33991Y-27224D01*
X33991Y-27145D01*
X33975Y-27105D01*
X33975Y-25405D01*
X33975Y-23655D01*
X33902Y-23481D01*
X33769Y-23347D01*
X33594Y-23275D01*
X33405Y-23274D01*
X33231Y-23347D01*
X33097Y-23480D01*
X33025Y-23655D01*
X33024Y-23844D01*
X33097Y-24018D01*
X33230Y-24152D01*
X33405Y-24224D01*
X33594Y-24225D01*
X33768Y-24152D01*
X33902Y-24019D01*
X33974Y-23844D01*
X33975Y-23655D01*
X33975Y-25405D01*
X33902Y-25231D01*
X33769Y-25097D01*
X33594Y-25025D01*
X33405Y-25024D01*
X33231Y-25097D01*
X33097Y-25230D01*
X33025Y-25405D01*
X33024Y-25594D01*
X33097Y-25768D01*
X33230Y-25902D01*
X33405Y-25974D01*
X33594Y-25975D01*
X33768Y-25902D01*
X33902Y-25769D01*
X33974Y-25594D01*
X33975Y-25405D01*
X33975Y-27105D01*
X33960Y-27071D01*
X33904Y-27015D01*
X33831Y-26984D01*
X33183Y-26985D01*
X33133Y-27035D01*
X33133Y-27450D01*
X33941Y-27450D01*
X33991Y-27400D01*
X33991Y-27224D01*
X33991Y-27775D01*
X33991Y-27600D01*
X33941Y-27550D01*
X33133Y-27550D01*
X33133Y-27965D01*
X33183Y-28015D01*
X33831Y-28015D01*
X33904Y-27984D01*
X33960Y-27928D01*
X33991Y-27854D01*
X33991Y-27775D01*
X33991Y-27863D01*
X33970Y-27924D01*
X33981Y-28132D01*
X34039Y-28272D01*
X34123Y-28305D01*
X34429Y-28000D01*
X34429Y-28141D01*
X34194Y-28376D01*
X34223Y-28450D01*
X33874Y-28450D01*
X33712Y-28287D01*
X33614Y-28222D01*
X33500Y-28200D01*
X33033Y-28200D01*
X33033Y-27965D01*
X33033Y-27550D01*
X33033Y-27450D01*
X33033Y-27035D01*
X32983Y-26985D01*
X32975Y-26984D01*
X32975Y-25405D01*
X32975Y-25405D01*
X32975Y-24045D01*
X32975Y-23395D01*
X32952Y-23340D01*
X32910Y-23297D01*
X32854Y-23275D01*
X32795Y-23274D01*
X32145Y-23274D01*
X32090Y-23297D01*
X32047Y-23339D01*
X32025Y-23395D01*
X32024Y-23454D01*
X32024Y-24104D01*
X32047Y-24159D01*
X32089Y-24202D01*
X32145Y-24224D01*
X32204Y-24225D01*
X32854Y-24225D01*
X32909Y-24202D01*
X32952Y-24160D01*
X32974Y-24104D01*
X32975Y-24045D01*
X32975Y-25405D01*
X32902Y-25231D01*
X32769Y-25097D01*
X32594Y-25025D01*
X32405Y-25024D01*
X32231Y-25097D01*
X32097Y-25230D01*
X32025Y-25405D01*
X32025Y-25485D01*
X32018Y-25367D01*
X31960Y-25227D01*
X31876Y-25194D01*
X31805Y-25264D01*
X31805Y-25123D01*
X31772Y-25039D01*
X31575Y-24970D01*
X31367Y-24981D01*
X31347Y-24989D01*
X31347Y-24418D01*
X30500Y-23570D01*
X29652Y-24418D01*
X29776Y-24580D01*
X30245Y-24774D01*
X30752Y-24775D01*
X31221Y-24581D01*
X31223Y-24580D01*
X31347Y-24418D01*
X31347Y-24989D01*
X31227Y-25039D01*
X31194Y-25123D01*
X31500Y-25429D01*
X31805Y-25123D01*
X31805Y-25264D01*
X31570Y-25500D01*
X31876Y-25805D01*
X31960Y-25772D01*
X32024Y-25589D01*
X32024Y-25594D01*
X32097Y-25768D01*
X32230Y-25902D01*
X32405Y-25974D01*
X32594Y-25975D01*
X32768Y-25902D01*
X32902Y-25769D01*
X32974Y-25594D01*
X32975Y-25405D01*
X32975Y-26984D01*
X32334Y-26984D01*
X32261Y-27015D01*
X32205Y-27071D01*
X32174Y-27145D01*
X32174Y-27224D01*
X32174Y-27400D01*
X32224Y-27450D01*
X33033Y-27450D01*
X33033Y-27550D01*
X32224Y-27550D01*
X32174Y-27600D01*
X32174Y-27775D01*
X32174Y-27854D01*
X32205Y-27928D01*
X32261Y-27984D01*
X32334Y-28015D01*
X32983Y-28015D01*
X33033Y-27965D01*
X33033Y-28200D01*
X31805Y-28200D01*
X31805Y-25876D01*
X31500Y-25570D01*
X31194Y-25876D01*
X31227Y-25960D01*
X31424Y-26029D01*
X31632Y-26018D01*
X31772Y-25960D01*
X31805Y-25876D01*
X31805Y-28200D01*
X31750Y-28200D01*
X31374Y-28200D01*
X31217Y-28042D01*
X31217Y-27965D01*
X31655Y-27965D01*
X31710Y-27942D01*
X31752Y-27900D01*
X31775Y-27844D01*
X31775Y-27785D01*
X31775Y-27155D01*
X31752Y-27100D01*
X31710Y-27057D01*
X31655Y-27035D01*
X31595Y-27034D01*
X31217Y-27034D01*
X31217Y-26667D01*
X31216Y-26666D01*
X31194Y-26552D01*
X31129Y-26454D01*
X31129Y-26454D01*
X30800Y-26125D01*
X30800Y-25871D01*
X30902Y-25769D01*
X30974Y-25594D01*
X30974Y-25514D01*
X30981Y-25632D01*
X31039Y-25772D01*
X31123Y-25805D01*
X31429Y-25500D01*
X31123Y-25194D01*
X31039Y-25227D01*
X30975Y-25410D01*
X30975Y-25405D01*
X30902Y-25231D01*
X30769Y-25097D01*
X30594Y-25025D01*
X30405Y-25024D01*
X30231Y-25097D01*
X30097Y-25230D01*
X30025Y-25405D01*
X30024Y-25594D01*
X30097Y-25768D01*
X30200Y-25871D01*
X30200Y-26250D01*
X30222Y-26364D01*
X30287Y-26462D01*
X30617Y-26791D01*
X30617Y-27034D01*
X30178Y-27034D01*
X30123Y-27057D01*
X30081Y-27099D01*
X30058Y-27155D01*
X30058Y-27214D01*
X30058Y-27844D01*
X30081Y-27899D01*
X30123Y-27942D01*
X30178Y-27964D01*
X30238Y-27965D01*
X30617Y-27965D01*
X30617Y-28167D01*
X30639Y-28281D01*
X30704Y-28379D01*
X30975Y-28650D01*
X30900Y-28650D01*
X30823Y-28665D01*
X30801Y-28679D01*
X30758Y-28708D01*
X30358Y-29108D01*
X30315Y-29173D01*
X30300Y-29250D01*
X30300Y-30068D01*
X30231Y-30097D01*
X30097Y-30230D01*
X30025Y-30405D01*
X30024Y-30594D01*
X30097Y-30768D01*
X30230Y-30902D01*
X30405Y-30974D01*
X30594Y-30975D01*
X30768Y-30902D01*
X30902Y-30769D01*
X30974Y-30594D01*
X30975Y-30405D01*
X30902Y-30231D01*
X30769Y-30097D01*
X30700Y-30068D01*
X30700Y-29332D01*
X30982Y-29050D01*
X31200Y-29050D01*
X31371Y-29050D01*
X31371Y-29096D01*
X31371Y-29462D01*
X31394Y-29517D01*
X31436Y-29560D01*
X31477Y-29577D01*
X31477Y-29739D01*
X31358Y-29858D01*
X31315Y-29923D01*
X31300Y-30000D01*
X31300Y-30068D01*
X31231Y-30097D01*
X31097Y-30230D01*
X31025Y-30405D01*
X31024Y-30594D01*
X31097Y-30768D01*
X31230Y-30902D01*
X31405Y-30974D01*
X31594Y-30975D01*
X31768Y-30902D01*
X31902Y-30769D01*
X31974Y-30594D01*
X31975Y-30405D01*
X31902Y-30231D01*
X31769Y-30097D01*
X31709Y-30072D01*
X31818Y-29964D01*
X31861Y-29899D01*
X31861Y-29899D01*
X31877Y-29822D01*
X31877Y-29576D01*
X31917Y-29560D01*
X31959Y-29518D01*
X31972Y-29486D01*
X31997Y-29546D01*
X32054Y-29602D01*
X32127Y-29633D01*
X32222Y-29633D01*
X32272Y-29583D01*
X32272Y-29300D01*
X32264Y-29300D01*
X32264Y-29200D01*
X32272Y-29200D01*
X32272Y-29192D01*
X32372Y-29192D01*
X32372Y-29200D01*
X32628Y-29200D01*
X32678Y-29150D01*
X32678Y-29106D01*
X32678Y-29050D01*
X32767Y-29050D01*
X33358Y-29641D01*
X33358Y-29641D01*
X33401Y-29670D01*
X33423Y-29684D01*
X33423Y-29684D01*
X33500Y-29700D01*
X37417Y-29700D01*
X38053Y-30336D01*
X38025Y-30405D01*
X38024Y-30594D01*
X38097Y-30768D01*
X38230Y-30902D01*
X38405Y-30974D01*
X38594Y-30975D01*
X38663Y-30946D01*
X39108Y-31391D01*
X39108Y-31391D01*
X39151Y-31420D01*
X39173Y-31434D01*
X39173Y-31434D01*
X39249Y-31449D01*
X39250Y-31450D01*
X46250Y-31450D01*
X46326Y-31434D01*
X46391Y-31391D01*
X46641Y-31141D01*
X46641Y-31141D01*
X46670Y-31098D01*
X46684Y-31076D01*
X46684Y-31076D01*
X46699Y-31000D01*
X46700Y-31000D01*
X46700Y-30931D01*
X46768Y-30902D01*
X46902Y-30769D01*
X46974Y-30594D01*
X46975Y-30405D01*
X46902Y-30231D01*
X46769Y-30097D01*
X46594Y-30025D01*
X46405Y-30024D01*
X46231Y-30097D01*
X46097Y-30230D01*
X46025Y-30405D01*
X46024Y-30594D01*
X46097Y-30768D01*
X46230Y-30902D01*
X46290Y-30927D01*
X46167Y-31050D01*
X45975Y-31050D01*
X45975Y-30405D01*
X45902Y-30231D01*
X45769Y-30097D01*
X45594Y-30025D01*
X45405Y-30024D01*
X45231Y-30097D01*
X45097Y-30230D01*
X45025Y-30405D01*
X45024Y-30594D01*
X45097Y-30768D01*
X45230Y-30902D01*
X45405Y-30974D01*
X45594Y-30975D01*
X45768Y-30902D01*
X45902Y-30769D01*
X45974Y-30594D01*
X45975Y-30405D01*
X45975Y-31050D01*
X44975Y-31050D01*
X44975Y-30405D01*
X44902Y-30231D01*
X44769Y-30097D01*
X44594Y-30025D01*
X44405Y-30024D01*
X44231Y-30097D01*
X44097Y-30230D01*
X44025Y-30405D01*
X44024Y-30594D01*
X44097Y-30768D01*
X44230Y-30902D01*
X44405Y-30974D01*
X44594Y-30975D01*
X44768Y-30902D01*
X44902Y-30769D01*
X44974Y-30594D01*
X44975Y-30405D01*
X44975Y-31050D01*
X43975Y-31050D01*
X43975Y-30405D01*
X43902Y-30231D01*
X43769Y-30097D01*
X43594Y-30025D01*
X43405Y-30024D01*
X43231Y-30097D01*
X43097Y-30230D01*
X43025Y-30405D01*
X43024Y-30594D01*
X43097Y-30768D01*
X43230Y-30902D01*
X43405Y-30974D01*
X43594Y-30975D01*
X43768Y-30902D01*
X43902Y-30769D01*
X43974Y-30594D01*
X43975Y-30405D01*
X43975Y-31050D01*
X42975Y-31050D01*
X42975Y-30405D01*
X42902Y-30231D01*
X42769Y-30097D01*
X42594Y-30025D01*
X42405Y-30024D01*
X42231Y-30097D01*
X42097Y-30230D01*
X42025Y-30405D01*
X42024Y-30594D01*
X42097Y-30768D01*
X42230Y-30902D01*
X42405Y-30974D01*
X42594Y-30975D01*
X42768Y-30902D01*
X42902Y-30769D01*
X42974Y-30594D01*
X42975Y-30405D01*
X42975Y-31050D01*
X41975Y-31050D01*
X41975Y-30405D01*
X41902Y-30231D01*
X41769Y-30097D01*
X41594Y-30025D01*
X41405Y-30024D01*
X41231Y-30097D01*
X41097Y-30230D01*
X41025Y-30405D01*
X41024Y-30594D01*
X41097Y-30768D01*
X41230Y-30902D01*
X41405Y-30974D01*
X41594Y-30975D01*
X41768Y-30902D01*
X41902Y-30769D01*
X41974Y-30594D01*
X41975Y-30405D01*
X41975Y-31050D01*
X40975Y-31050D01*
X40975Y-30405D01*
X40902Y-30231D01*
X40769Y-30097D01*
X40678Y-30059D01*
X40678Y-29393D01*
X40678Y-29350D01*
X40628Y-29300D01*
X40372Y-29300D01*
X40372Y-29583D01*
X40422Y-29633D01*
X40517Y-29633D01*
X40591Y-29602D01*
X40647Y-29546D01*
X40678Y-29473D01*
X40678Y-29393D01*
X40678Y-30059D01*
X40594Y-30025D01*
X40405Y-30024D01*
X40231Y-30097D01*
X40097Y-30230D01*
X40025Y-30405D01*
X40024Y-30594D01*
X40097Y-30768D01*
X40230Y-30902D01*
X40405Y-30974D01*
X40594Y-30975D01*
X40768Y-30902D01*
X40902Y-30769D01*
X40974Y-30594D01*
X40975Y-30405D01*
X40975Y-31050D01*
X39332Y-31050D01*
X38946Y-30663D01*
X38974Y-30594D01*
X38975Y-30405D01*
X38902Y-30231D01*
X38769Y-30097D01*
X38594Y-30025D01*
X38405Y-30024D01*
X38336Y-30053D01*
X37641Y-29358D01*
X37576Y-29315D01*
X37500Y-29300D01*
X33582Y-29300D01*
X33082Y-28800D01*
X33375Y-28800D01*
X33537Y-28962D01*
X33537Y-28962D01*
X33635Y-29027D01*
X33750Y-29050D01*
X38417Y-29050D01*
X38500Y-29050D01*
X39371Y-29050D01*
X39371Y-29096D01*
X39371Y-29462D01*
X39394Y-29517D01*
X39436Y-29560D01*
X39477Y-29577D01*
X39477Y-29739D01*
X39358Y-29858D01*
X39315Y-29923D01*
X39300Y-30000D01*
X39300Y-30068D01*
X39231Y-30097D01*
X39097Y-30230D01*
X39025Y-30405D01*
X39024Y-30594D01*
X39097Y-30768D01*
X39230Y-30902D01*
X39405Y-30974D01*
X39594Y-30975D01*
X39768Y-30902D01*
X39902Y-30769D01*
X39974Y-30594D01*
X39975Y-30405D01*
X39902Y-30231D01*
X39769Y-30097D01*
X39709Y-30072D01*
X39818Y-29964D01*
X39861Y-29899D01*
X39861Y-29899D01*
X39877Y-29822D01*
X39877Y-29576D01*
X39917Y-29560D01*
X39959Y-29518D01*
X39972Y-29486D01*
X39997Y-29546D01*
X40054Y-29602D01*
X40127Y-29633D01*
X40222Y-29633D01*
X40272Y-29583D01*
X40272Y-29300D01*
X40264Y-29300D01*
X40264Y-29200D01*
X40272Y-29200D01*
X40272Y-29192D01*
X40372Y-29192D01*
X40372Y-29200D01*
X40628Y-29200D01*
X40678Y-29150D01*
X40678Y-29106D01*
X40678Y-29050D01*
X41250Y-29050D01*
X46250Y-29050D01*
X46250Y-29049D01*
X46364Y-29027D01*
X46364Y-29027D01*
X46462Y-28962D01*
X47129Y-28295D01*
X47129Y-28295D01*
X47194Y-28197D01*
X47216Y-28083D01*
X47217Y-28083D01*
X47217Y-27965D01*
X47655Y-27965D01*
X47710Y-27942D01*
X47752Y-27900D01*
X47775Y-27844D01*
X47775Y-27785D01*
X47775Y-28916D01*
X47491Y-28916D01*
X47436Y-28939D01*
X47394Y-28981D01*
X47371Y-29036D01*
X47371Y-29096D01*
X47371Y-29462D01*
X47394Y-29517D01*
X47436Y-29560D01*
X47477Y-29577D01*
X47477Y-29739D01*
X47358Y-29858D01*
X47315Y-29923D01*
X47300Y-30000D01*
X47300Y-30068D01*
X47231Y-30097D01*
X47097Y-30230D01*
X47025Y-30405D01*
X47024Y-30594D01*
X47097Y-30768D01*
X47230Y-30902D01*
X47405Y-30974D01*
X47594Y-30975D01*
X47768Y-30902D01*
X47902Y-30769D01*
X47974Y-30594D01*
X47975Y-30405D01*
X47902Y-30231D01*
X47769Y-30097D01*
X47709Y-30072D01*
X47818Y-29964D01*
X47861Y-29899D01*
X47861Y-29899D01*
X47877Y-29822D01*
X47877Y-29576D01*
X47917Y-29560D01*
X47959Y-29518D01*
X47972Y-29486D01*
X47997Y-29546D01*
X48054Y-29602D01*
X48127Y-29633D01*
X48222Y-29633D01*
X48272Y-29583D01*
X48272Y-30079D01*
X48231Y-30097D01*
X48097Y-30230D01*
X48025Y-30405D01*
X48024Y-30594D01*
X48097Y-30768D01*
X48230Y-30902D01*
X48405Y-30974D01*
X48594Y-30975D01*
X48768Y-30902D01*
X48902Y-30769D01*
X48974Y-30594D01*
X48975Y-30405D01*
X48975Y-31905D01*
X48902Y-31731D01*
X48769Y-31597D01*
X48594Y-31525D01*
X48405Y-31524D01*
X48231Y-31597D01*
X48097Y-31730D01*
X48025Y-31905D01*
X48024Y-32094D01*
X48097Y-32268D01*
X48230Y-32402D01*
X48405Y-32474D01*
X48594Y-32475D01*
X48768Y-32402D01*
X48902Y-32269D01*
X48974Y-32094D01*
X48975Y-31905D01*
X48975Y-32905D01*
X48902Y-32731D01*
X48769Y-32597D01*
X48594Y-32525D01*
X48405Y-32524D01*
X48231Y-32597D01*
X48097Y-32730D01*
X48025Y-32905D01*
X48024Y-33094D01*
X48097Y-33268D01*
X48230Y-33402D01*
X48405Y-33474D01*
X48594Y-33475D01*
X48768Y-33402D01*
X48902Y-33269D01*
X48974Y-33094D01*
X48975Y-32905D01*
X48975Y-34200D01*
X47975Y-34200D01*
X47975Y-31905D01*
X47902Y-31731D01*
X47769Y-31597D01*
X47594Y-31525D01*
X47405Y-31524D01*
X47231Y-31597D01*
X47097Y-31730D01*
X47025Y-31905D01*
X47024Y-32094D01*
X47097Y-32268D01*
X47230Y-32402D01*
X47405Y-32474D01*
X47594Y-32475D01*
X47768Y-32402D01*
X47902Y-32269D01*
X47974Y-32094D01*
X47975Y-31905D01*
X47975Y-34200D01*
X47975Y-34200D01*
X47975Y-33295D01*
X47975Y-32645D01*
X47952Y-32590D01*
X47910Y-32547D01*
X47854Y-32525D01*
X47795Y-32524D01*
X47145Y-32524D01*
X47090Y-32547D01*
X47047Y-32589D01*
X47025Y-32645D01*
X47024Y-32704D01*
X47024Y-33354D01*
X47047Y-33409D01*
X47089Y-33452D01*
X47145Y-33474D01*
X47204Y-33475D01*
X47854Y-33475D01*
X47909Y-33452D01*
X47952Y-33410D01*
X47974Y-33354D01*
X47975Y-33295D01*
X47975Y-34200D01*
X41975Y-34200D01*
X41975Y-32905D01*
X41975Y-31905D01*
X41902Y-31731D01*
X41769Y-31597D01*
X41594Y-31525D01*
X41405Y-31524D01*
X41231Y-31597D01*
X41097Y-31730D01*
X41025Y-31905D01*
X41024Y-32094D01*
X41097Y-32268D01*
X41230Y-32402D01*
X41405Y-32474D01*
X41594Y-32475D01*
X41768Y-32402D01*
X41902Y-32269D01*
X41974Y-32094D01*
X41975Y-31905D01*
X41975Y-32905D01*
X41902Y-32731D01*
X41769Y-32597D01*
X41594Y-32525D01*
X41405Y-32524D01*
X41231Y-32597D01*
X41097Y-32730D01*
X41025Y-32905D01*
X41024Y-33094D01*
X41097Y-33268D01*
X41230Y-33402D01*
X41405Y-33474D01*
X41594Y-33475D01*
X41768Y-33402D01*
X41902Y-33269D01*
X41974Y-33094D01*
X41975Y-32905D01*
X41975Y-34200D01*
X40975Y-34200D01*
X40975Y-32905D01*
X40975Y-31905D01*
X40902Y-31731D01*
X40769Y-31597D01*
X40594Y-31525D01*
X40405Y-31524D01*
X40231Y-31597D01*
X40097Y-31730D01*
X40025Y-31905D01*
X40024Y-32094D01*
X40097Y-32268D01*
X40230Y-32402D01*
X40405Y-32474D01*
X40594Y-32475D01*
X40768Y-32402D01*
X40902Y-32269D01*
X40974Y-32094D01*
X40975Y-31905D01*
X40975Y-32905D01*
X40902Y-32731D01*
X40769Y-32597D01*
X40594Y-32525D01*
X40405Y-32524D01*
X40231Y-32597D01*
X40097Y-32730D01*
X40025Y-32905D01*
X40024Y-33094D01*
X40097Y-33268D01*
X40230Y-33402D01*
X40405Y-33474D01*
X40594Y-33475D01*
X40768Y-33402D01*
X40902Y-33269D01*
X40974Y-33094D01*
X40975Y-32905D01*
X40975Y-34200D01*
X39975Y-34200D01*
X39975Y-31905D01*
X39902Y-31731D01*
X39769Y-31597D01*
X39594Y-31525D01*
X39405Y-31524D01*
X39231Y-31597D01*
X39097Y-31730D01*
X39025Y-31905D01*
X39024Y-32094D01*
X39097Y-32268D01*
X39230Y-32402D01*
X39405Y-32474D01*
X39594Y-32475D01*
X39768Y-32402D01*
X39902Y-32269D01*
X39974Y-32094D01*
X39975Y-31905D01*
X39975Y-34200D01*
X39975Y-34200D01*
X39975Y-33295D01*
X39975Y-32645D01*
X39952Y-32590D01*
X39910Y-32547D01*
X39854Y-32525D01*
X39795Y-32524D01*
X39145Y-32524D01*
X39090Y-32547D01*
X39047Y-32589D01*
X39025Y-32645D01*
X39024Y-32704D01*
X39024Y-33354D01*
X39047Y-33409D01*
X39089Y-33452D01*
X39145Y-33474D01*
X39204Y-33475D01*
X39854Y-33475D01*
X39909Y-33452D01*
X39952Y-33410D01*
X39974Y-33354D01*
X39975Y-33295D01*
X39975Y-34200D01*
X37975Y-34200D01*
X37975Y-30405D01*
X37902Y-30231D01*
X37769Y-30097D01*
X37594Y-30025D01*
X37405Y-30024D01*
X37231Y-30097D01*
X37097Y-30230D01*
X37025Y-30405D01*
X37024Y-30594D01*
X37097Y-30768D01*
X37230Y-30902D01*
X37405Y-30974D01*
X37594Y-30975D01*
X37768Y-30902D01*
X37902Y-30769D01*
X37974Y-30594D01*
X37975Y-30405D01*
X37975Y-34200D01*
X36975Y-34200D01*
X36975Y-30405D01*
X36902Y-30231D01*
X36769Y-30097D01*
X36594Y-30025D01*
X36405Y-30024D01*
X36231Y-30097D01*
X36097Y-30230D01*
X36025Y-30405D01*
X36024Y-30594D01*
X36097Y-30768D01*
X36230Y-30902D01*
X36405Y-30974D01*
X36594Y-30975D01*
X36768Y-30902D01*
X36902Y-30769D01*
X36974Y-30594D01*
X36975Y-30405D01*
X36975Y-34200D01*
X35975Y-34200D01*
X35975Y-30405D01*
X35902Y-30231D01*
X35769Y-30097D01*
X35594Y-30025D01*
X35405Y-30024D01*
X35231Y-30097D01*
X35097Y-30230D01*
X35025Y-30405D01*
X35024Y-30594D01*
X35097Y-30768D01*
X35230Y-30902D01*
X35405Y-30974D01*
X35594Y-30975D01*
X35768Y-30902D01*
X35902Y-30769D01*
X35974Y-30594D01*
X35975Y-30405D01*
X35975Y-34200D01*
X35000Y-34200D01*
X34975Y-34200D01*
X34975Y-30405D01*
X34902Y-30231D01*
X34769Y-30097D01*
X34594Y-30025D01*
X34405Y-30024D01*
X34231Y-30097D01*
X34097Y-30230D01*
X34025Y-30405D01*
X34024Y-30594D01*
X34097Y-30768D01*
X34230Y-30902D01*
X34405Y-30974D01*
X34594Y-30975D01*
X34768Y-30902D01*
X34902Y-30769D01*
X34974Y-30594D01*
X34975Y-30405D01*
X34975Y-34200D01*
X33975Y-34200D01*
X33975Y-32905D01*
X33975Y-31905D01*
X33975Y-30405D01*
X33902Y-30231D01*
X33769Y-30097D01*
X33594Y-30025D01*
X33405Y-30024D01*
X33231Y-30097D01*
X33097Y-30230D01*
X33025Y-30405D01*
X33024Y-30594D01*
X33097Y-30768D01*
X33230Y-30902D01*
X33405Y-30974D01*
X33594Y-30975D01*
X33768Y-30902D01*
X33902Y-30769D01*
X33974Y-30594D01*
X33975Y-30405D01*
X33975Y-31905D01*
X33902Y-31731D01*
X33769Y-31597D01*
X33594Y-31525D01*
X33405Y-31524D01*
X33231Y-31597D01*
X33097Y-31730D01*
X33025Y-31905D01*
X33024Y-32094D01*
X33097Y-32268D01*
X33230Y-32402D01*
X33405Y-32474D01*
X33594Y-32475D01*
X33768Y-32402D01*
X33902Y-32269D01*
X33974Y-32094D01*
X33975Y-31905D01*
X33975Y-32905D01*
X33902Y-32731D01*
X33769Y-32597D01*
X33594Y-32525D01*
X33405Y-32524D01*
X33231Y-32597D01*
X33097Y-32730D01*
X33025Y-32905D01*
X33024Y-33094D01*
X33097Y-33268D01*
X33230Y-33402D01*
X33405Y-33474D01*
X33594Y-33475D01*
X33768Y-33402D01*
X33902Y-33269D01*
X33974Y-33094D01*
X33975Y-32905D01*
X33975Y-34200D01*
X32975Y-34200D01*
X32975Y-32905D01*
X32975Y-31905D01*
X32975Y-30405D01*
X32902Y-30231D01*
X32769Y-30097D01*
X32678Y-30059D01*
X32678Y-29393D01*
X32678Y-29350D01*
X32628Y-29300D01*
X32372Y-29300D01*
X32372Y-29583D01*
X32422Y-29633D01*
X32517Y-29633D01*
X32591Y-29602D01*
X32647Y-29546D01*
X32678Y-29473D01*
X32678Y-29393D01*
X32678Y-30059D01*
X32594Y-30025D01*
X32405Y-30024D01*
X32231Y-30097D01*
X32097Y-30230D01*
X32025Y-30405D01*
X32024Y-30594D01*
X32097Y-30768D01*
X32230Y-30902D01*
X32405Y-30974D01*
X32594Y-30975D01*
X32768Y-30902D01*
X32902Y-30769D01*
X32974Y-30594D01*
X32975Y-30405D01*
X32975Y-31905D01*
X32902Y-31731D01*
X32769Y-31597D01*
X32594Y-31525D01*
X32405Y-31524D01*
X32231Y-31597D01*
X32097Y-31730D01*
X32025Y-31905D01*
X32024Y-32094D01*
X32097Y-32268D01*
X32230Y-32402D01*
X32405Y-32474D01*
X32594Y-32475D01*
X32768Y-32402D01*
X32902Y-32269D01*
X32974Y-32094D01*
X32975Y-31905D01*
X32975Y-32905D01*
X32902Y-32731D01*
X32769Y-32597D01*
X32594Y-32525D01*
X32405Y-32524D01*
X32231Y-32597D01*
X32097Y-32730D01*
X32025Y-32905D01*
X32024Y-33094D01*
X32097Y-33268D01*
X32230Y-33402D01*
X32405Y-33474D01*
X32594Y-33475D01*
X32768Y-33402D01*
X32902Y-33269D01*
X32974Y-33094D01*
X32975Y-32905D01*
X32975Y-34200D01*
X31975Y-34200D01*
X31975Y-31905D01*
X31902Y-31731D01*
X31769Y-31597D01*
X31594Y-31525D01*
X31405Y-31524D01*
X31231Y-31597D01*
X31097Y-31730D01*
X31025Y-31905D01*
X31024Y-32094D01*
X31097Y-32268D01*
X31230Y-32402D01*
X31405Y-32474D01*
X31594Y-32475D01*
X31768Y-32402D01*
X31902Y-32269D01*
X31974Y-32094D01*
X31975Y-31905D01*
X31975Y-34200D01*
X31975Y-34200D01*
X31975Y-33295D01*
X31975Y-32645D01*
X31952Y-32590D01*
X31910Y-32547D01*
X31854Y-32525D01*
X31795Y-32524D01*
X31145Y-32524D01*
X31090Y-32547D01*
X31047Y-32589D01*
X31025Y-32645D01*
X31024Y-32704D01*
X31024Y-33354D01*
X31047Y-33409D01*
X31089Y-33452D01*
X31145Y-33474D01*
X31204Y-33475D01*
X31854Y-33475D01*
X31909Y-33452D01*
X31952Y-33410D01*
X31974Y-33354D01*
X31975Y-33295D01*
X31975Y-34200D01*
X30511Y-34200D01*
X30029Y-33958D01*
X29791Y-33720D01*
X29550Y-33238D01*
X29550Y-24323D01*
X29581Y-24347D01*
X30429Y-23500D01*
X30423Y-23494D01*
X30494Y-23423D01*
X30500Y-23429D01*
X30505Y-23423D01*
X30576Y-23494D01*
X30570Y-23500D01*
X31418Y-24347D01*
X31580Y-24223D01*
X31774Y-23754D01*
X31775Y-23247D01*
X31590Y-22800D01*
X53979Y-22800D01*
X54200Y-23020D01*
X54200Y-23250D01*
X54200Y-23520D01*
X54479Y-23800D01*
X55676Y-23800D01*
X55652Y-23831D01*
X56500Y-24679D01*
X56505Y-24673D01*
X56576Y-24744D01*
X56570Y-24750D01*
X56576Y-24755D01*
X56576Y-24755D01*
G37*
G54D18*
X56576Y-24755D02*
X56505Y-24826D01*
X56500Y-24820D01*
X56429Y-24891D01*
X56429Y-24750D01*
X55581Y-23902D01*
X55419Y-24026D01*
X55225Y-24495D01*
X55224Y-25002D01*
X55418Y-25471D01*
X55419Y-25473D01*
X55581Y-25597D01*
X56429Y-24750D01*
X56429Y-24891D01*
X55652Y-25668D01*
X55676Y-25700D01*
X55238Y-25700D01*
X54720Y-25958D01*
X54458Y-26220D01*
X54200Y-26738D01*
X54200Y-33238D01*
X54029Y-33578D01*
X54029Y-25575D01*
X54018Y-25367D01*
X53960Y-25227D01*
X53876Y-25194D01*
X53805Y-25264D01*
X53805Y-25123D01*
X53772Y-25039D01*
X53575Y-24970D01*
X53367Y-24981D01*
X53227Y-25039D01*
X53194Y-25123D01*
X53500Y-25429D01*
X53805Y-25123D01*
X53805Y-25264D01*
X53570Y-25500D01*
X53876Y-25805D01*
X53960Y-25772D01*
X54029Y-25575D01*
X54029Y-33578D01*
X54025Y-33588D01*
X54025Y-27285D01*
X54025Y-26714D01*
X54024Y-26635D01*
X53994Y-26561D01*
X53938Y-26505D01*
X53864Y-26474D01*
X53805Y-26474D01*
X53805Y-25876D01*
X53500Y-25570D01*
X53429Y-25641D01*
X53429Y-25500D01*
X53123Y-25194D01*
X53039Y-25227D01*
X52975Y-25410D01*
X52975Y-25405D01*
X52902Y-25231D01*
X52769Y-25097D01*
X52750Y-25089D01*
X52750Y-25000D01*
X52730Y-24904D01*
X52730Y-24904D01*
X52676Y-24823D01*
X52676Y-24823D01*
X52426Y-24573D01*
X52345Y-24519D01*
X52250Y-24500D01*
X51975Y-24500D01*
X51975Y-23655D01*
X51902Y-23481D01*
X51769Y-23347D01*
X51594Y-23275D01*
X51405Y-23274D01*
X51231Y-23347D01*
X51097Y-23480D01*
X51025Y-23655D01*
X51024Y-23844D01*
X51097Y-24018D01*
X51230Y-24152D01*
X51405Y-24224D01*
X51594Y-24225D01*
X51768Y-24152D01*
X51902Y-24019D01*
X51974Y-23844D01*
X51975Y-23655D01*
X51975Y-24500D01*
X50975Y-24500D01*
X50975Y-23655D01*
X50902Y-23481D01*
X50769Y-23347D01*
X50594Y-23275D01*
X50405Y-23274D01*
X50231Y-23347D01*
X50097Y-23480D01*
X50025Y-23655D01*
X50024Y-23844D01*
X50097Y-24018D01*
X50230Y-24152D01*
X50405Y-24224D01*
X50594Y-24225D01*
X50768Y-24152D01*
X50902Y-24019D01*
X50974Y-23844D01*
X50975Y-23655D01*
X50975Y-24500D01*
X49975Y-24500D01*
X49975Y-23655D01*
X49902Y-23481D01*
X49769Y-23347D01*
X49594Y-23275D01*
X49405Y-23274D01*
X49231Y-23347D01*
X49097Y-23480D01*
X49025Y-23655D01*
X49024Y-23844D01*
X49097Y-24018D01*
X49230Y-24152D01*
X49405Y-24224D01*
X49594Y-24225D01*
X49768Y-24152D01*
X49902Y-24019D01*
X49974Y-23844D01*
X49975Y-23655D01*
X49975Y-24500D01*
X48975Y-24500D01*
X48975Y-24045D01*
X48975Y-23395D01*
X48952Y-23340D01*
X48910Y-23297D01*
X48854Y-23275D01*
X48795Y-23274D01*
X48145Y-23274D01*
X48090Y-23297D01*
X48047Y-23339D01*
X48025Y-23395D01*
X48024Y-23454D01*
X48024Y-24104D01*
X48047Y-24159D01*
X48089Y-24202D01*
X48145Y-24224D01*
X48204Y-24225D01*
X48854Y-24225D01*
X48909Y-24202D01*
X48952Y-24160D01*
X48974Y-24104D01*
X48975Y-24045D01*
X48975Y-24500D01*
X44500Y-24500D01*
X43975Y-24500D01*
X43975Y-23655D01*
X43902Y-23481D01*
X43769Y-23347D01*
X43594Y-23275D01*
X43405Y-23274D01*
X43231Y-23347D01*
X43097Y-23480D01*
X43025Y-23655D01*
X43024Y-23844D01*
X43097Y-24018D01*
X43230Y-24152D01*
X43405Y-24224D01*
X43594Y-24225D01*
X43768Y-24152D01*
X43902Y-24019D01*
X43974Y-23844D01*
X43975Y-23655D01*
X43975Y-24500D01*
X42975Y-24500D01*
X42975Y-23655D01*
X42902Y-23481D01*
X42769Y-23347D01*
X42594Y-23275D01*
X42405Y-23274D01*
X42231Y-23347D01*
X42097Y-23480D01*
X42025Y-23655D01*
X42024Y-23844D01*
X42097Y-24018D01*
X42230Y-24152D01*
X42405Y-24224D01*
X42594Y-24225D01*
X42768Y-24152D01*
X42902Y-24019D01*
X42974Y-23844D01*
X42975Y-23655D01*
X42975Y-24500D01*
X41975Y-24500D01*
X41975Y-23655D01*
X41902Y-23481D01*
X41769Y-23347D01*
X41594Y-23275D01*
X41405Y-23274D01*
X41231Y-23347D01*
X41097Y-23480D01*
X41025Y-23655D01*
X41024Y-23844D01*
X41097Y-24018D01*
X41230Y-24152D01*
X41405Y-24224D01*
X41594Y-24225D01*
X41768Y-24152D01*
X41902Y-24019D01*
X41974Y-23844D01*
X41975Y-23655D01*
X41975Y-24500D01*
X40975Y-24500D01*
X40975Y-24045D01*
X40975Y-23395D01*
X40952Y-23340D01*
X40910Y-23297D01*
X40854Y-23275D01*
X40795Y-23274D01*
X40145Y-23274D01*
X40090Y-23297D01*
X40047Y-23339D01*
X40025Y-23395D01*
X40024Y-23454D01*
X40024Y-24104D01*
X40047Y-24159D01*
X40089Y-24202D01*
X40145Y-24224D01*
X40204Y-24225D01*
X40854Y-24225D01*
X40909Y-24202D01*
X40952Y-24160D01*
X40974Y-24104D01*
X40975Y-24045D01*
X40975Y-24500D01*
X36750Y-24500D01*
X36654Y-24519D01*
X36573Y-24573D01*
X36573Y-24573D01*
X36323Y-24823D01*
X36269Y-24904D01*
X36250Y-25000D01*
X36250Y-25089D01*
X36231Y-25097D01*
X36097Y-25230D01*
X36025Y-25405D01*
X36024Y-25594D01*
X36097Y-25768D01*
X36230Y-25902D01*
X36405Y-25974D01*
X36594Y-25975D01*
X36768Y-25902D01*
X36902Y-25769D01*
X36974Y-25594D01*
X36974Y-25514D01*
X36981Y-25632D01*
X37039Y-25772D01*
X37123Y-25805D01*
X37429Y-25500D01*
X37123Y-25194D01*
X37039Y-25227D01*
X36975Y-25410D01*
X36975Y-25405D01*
X36902Y-25231D01*
X36769Y-25097D01*
X36759Y-25093D01*
X36853Y-25000D01*
X37322Y-25000D01*
X37227Y-25039D01*
X37194Y-25123D01*
X37500Y-25429D01*
X37805Y-25123D01*
X37772Y-25039D01*
X37660Y-25000D01*
X39322Y-25000D01*
X39227Y-25039D01*
X39194Y-25123D01*
X39500Y-25429D01*
X39805Y-25123D01*
X39772Y-25039D01*
X39660Y-25000D01*
X44250Y-25000D01*
X44250Y-25089D01*
X44231Y-25097D01*
X44097Y-25230D01*
X44025Y-25405D01*
X44024Y-25594D01*
X44097Y-25768D01*
X44230Y-25902D01*
X44405Y-25974D01*
X44594Y-25975D01*
X44768Y-25902D01*
X44902Y-25769D01*
X44974Y-25594D01*
X44974Y-25514D01*
X44981Y-25632D01*
X45039Y-25772D01*
X45123Y-25805D01*
X45429Y-25500D01*
X45123Y-25194D01*
X45039Y-25227D01*
X44975Y-25410D01*
X44975Y-25405D01*
X44902Y-25231D01*
X44769Y-25097D01*
X44750Y-25089D01*
X44750Y-25000D01*
X45322Y-25000D01*
X45227Y-25039D01*
X45194Y-25123D01*
X45500Y-25429D01*
X45805Y-25123D01*
X45772Y-25039D01*
X45660Y-25000D01*
X47322Y-25000D01*
X47227Y-25039D01*
X47194Y-25123D01*
X47500Y-25429D01*
X47805Y-25123D01*
X47772Y-25039D01*
X47660Y-25000D01*
X52146Y-25000D01*
X52239Y-25093D01*
X52231Y-25097D01*
X52097Y-25230D01*
X52025Y-25405D01*
X52024Y-25594D01*
X52097Y-25768D01*
X52230Y-25902D01*
X52405Y-25974D01*
X52594Y-25975D01*
X52768Y-25902D01*
X52902Y-25769D01*
X52974Y-25594D01*
X52974Y-25514D01*
X52981Y-25632D01*
X53039Y-25772D01*
X53123Y-25805D01*
X53429Y-25500D01*
X53429Y-25641D01*
X53194Y-25876D01*
X53227Y-25960D01*
X53424Y-26029D01*
X53632Y-26018D01*
X53772Y-25960D01*
X53805Y-25876D01*
X53805Y-26474D01*
X53600Y-26475D01*
X53550Y-26525D01*
X53550Y-26950D01*
X53975Y-26950D01*
X54025Y-26900D01*
X54025Y-26714D01*
X54025Y-27285D01*
X54025Y-27100D01*
X53975Y-27050D01*
X53550Y-27050D01*
X53550Y-27475D01*
X53600Y-27525D01*
X53864Y-27525D01*
X53938Y-27494D01*
X53994Y-27438D01*
X54024Y-27364D01*
X54025Y-27285D01*
X54025Y-33588D01*
X53975Y-33688D01*
X53975Y-30405D01*
X53975Y-27905D01*
X53902Y-27731D01*
X53769Y-27597D01*
X53594Y-27525D01*
X53450Y-27524D01*
X53450Y-27475D01*
X53450Y-27050D01*
X53442Y-27050D01*
X53442Y-26950D01*
X53450Y-26950D01*
X53450Y-26525D01*
X53400Y-26475D01*
X53135Y-26474D01*
X53061Y-26505D01*
X53005Y-26561D01*
X52975Y-26635D01*
X52974Y-26714D01*
X52974Y-26762D01*
X52960Y-26727D01*
X52876Y-26694D01*
X52805Y-26764D01*
X52805Y-26623D01*
X52772Y-26539D01*
X52575Y-26470D01*
X52367Y-26481D01*
X52227Y-26539D01*
X52194Y-26623D01*
X52500Y-26929D01*
X52805Y-26623D01*
X52805Y-26764D01*
X52570Y-27000D01*
X52876Y-27305D01*
X52960Y-27272D01*
X52974Y-27231D01*
X52974Y-27285D01*
X52975Y-27364D01*
X53005Y-27438D01*
X53061Y-27494D01*
X53135Y-27525D01*
X53400Y-27525D01*
X53450Y-27475D01*
X53450Y-27524D01*
X53405Y-27524D01*
X53231Y-27597D01*
X53097Y-27730D01*
X53025Y-27905D01*
X53024Y-28094D01*
X53097Y-28268D01*
X53230Y-28402D01*
X53405Y-28474D01*
X53594Y-28475D01*
X53768Y-28402D01*
X53902Y-28269D01*
X53974Y-28094D01*
X53975Y-27905D01*
X53975Y-30405D01*
X53902Y-30231D01*
X53769Y-30097D01*
X53594Y-30025D01*
X53405Y-30024D01*
X53231Y-30097D01*
X53097Y-30230D01*
X53025Y-30405D01*
X53024Y-30594D01*
X53097Y-30768D01*
X53230Y-30902D01*
X53405Y-30974D01*
X53594Y-30975D01*
X53768Y-30902D01*
X53902Y-30769D01*
X53974Y-30594D01*
X53975Y-30405D01*
X53975Y-33688D01*
X53958Y-33720D01*
X53722Y-33956D01*
X52991Y-34200D01*
X52975Y-34200D01*
X52975Y-30405D01*
X52975Y-27905D01*
X52902Y-27731D01*
X52769Y-27597D01*
X52594Y-27525D01*
X52514Y-27525D01*
X52632Y-27518D01*
X52772Y-27460D01*
X52805Y-27376D01*
X52500Y-27070D01*
X52429Y-27141D01*
X52429Y-27000D01*
X52123Y-26694D01*
X52039Y-26727D01*
X52003Y-26830D01*
X51975Y-26762D01*
X51975Y-25405D01*
X51902Y-25231D01*
X51769Y-25097D01*
X51594Y-25025D01*
X51405Y-25024D01*
X51231Y-25097D01*
X51097Y-25230D01*
X51025Y-25405D01*
X51024Y-25594D01*
X51097Y-25768D01*
X51230Y-25902D01*
X51405Y-25974D01*
X51594Y-25975D01*
X51768Y-25902D01*
X51902Y-25769D01*
X51974Y-25594D01*
X51975Y-25405D01*
X51975Y-26762D01*
X51960Y-26727D01*
X51876Y-26694D01*
X51805Y-26764D01*
X51805Y-26623D01*
X51772Y-26539D01*
X51575Y-26470D01*
X51367Y-26481D01*
X51227Y-26539D01*
X51194Y-26623D01*
X51500Y-26929D01*
X51805Y-26623D01*
X51805Y-26764D01*
X51570Y-27000D01*
X51876Y-27305D01*
X51960Y-27272D01*
X51996Y-27169D01*
X52039Y-27272D01*
X52123Y-27305D01*
X52429Y-27000D01*
X52429Y-27141D01*
X52194Y-27376D01*
X52227Y-27460D01*
X52410Y-27524D01*
X52405Y-27524D01*
X52231Y-27597D01*
X52097Y-27730D01*
X52025Y-27905D01*
X52024Y-28094D01*
X52097Y-28268D01*
X52230Y-28402D01*
X52405Y-28474D01*
X52594Y-28475D01*
X52768Y-28402D01*
X52902Y-28269D01*
X52974Y-28094D01*
X52975Y-27905D01*
X52975Y-30405D01*
X52902Y-30231D01*
X52769Y-30097D01*
X52594Y-30025D01*
X52405Y-30024D01*
X52231Y-30097D01*
X52097Y-30230D01*
X52025Y-30405D01*
X52024Y-30594D01*
X52097Y-30768D01*
X52230Y-30902D01*
X52405Y-30974D01*
X52594Y-30975D01*
X52768Y-30902D01*
X52902Y-30769D01*
X52974Y-30594D01*
X52975Y-30405D01*
X52975Y-34200D01*
X51975Y-34200D01*
X51975Y-30405D01*
X51975Y-27905D01*
X51902Y-27731D01*
X51769Y-27597D01*
X51594Y-27525D01*
X51514Y-27525D01*
X51632Y-27518D01*
X51772Y-27460D01*
X51805Y-27376D01*
X51500Y-27070D01*
X51429Y-27141D01*
X51429Y-27000D01*
X51123Y-26694D01*
X51039Y-26727D01*
X51003Y-26830D01*
X50975Y-26762D01*
X50975Y-25405D01*
X50902Y-25231D01*
X50769Y-25097D01*
X50594Y-25025D01*
X50405Y-25024D01*
X50231Y-25097D01*
X50097Y-25230D01*
X50025Y-25405D01*
X50024Y-25594D01*
X50097Y-25768D01*
X50230Y-25902D01*
X50405Y-25974D01*
X50594Y-25975D01*
X50768Y-25902D01*
X50902Y-25769D01*
X50974Y-25594D01*
X50975Y-25405D01*
X50975Y-26762D01*
X50960Y-26727D01*
X50876Y-26694D01*
X50805Y-26764D01*
X50805Y-26623D01*
X50772Y-26539D01*
X50575Y-26470D01*
X50367Y-26481D01*
X50227Y-26539D01*
X50194Y-26623D01*
X50500Y-26929D01*
X50805Y-26623D01*
X50805Y-26764D01*
X50570Y-27000D01*
X50876Y-27305D01*
X50960Y-27272D01*
X50996Y-27169D01*
X51039Y-27272D01*
X51123Y-27305D01*
X51429Y-27000D01*
X51429Y-27141D01*
X51194Y-27376D01*
X51227Y-27460D01*
X51410Y-27524D01*
X51405Y-27524D01*
X51231Y-27597D01*
X51097Y-27730D01*
X51025Y-27905D01*
X51024Y-28094D01*
X51097Y-28268D01*
X51230Y-28402D01*
X51405Y-28474D01*
X51594Y-28475D01*
X51768Y-28402D01*
X51902Y-28269D01*
X51974Y-28094D01*
X51975Y-27905D01*
X51975Y-30405D01*
X51902Y-30231D01*
X51769Y-30097D01*
X51594Y-30025D01*
X51405Y-30024D01*
X51231Y-30097D01*
X51097Y-30230D01*
X51025Y-30405D01*
X51024Y-30594D01*
X51097Y-30768D01*
X51230Y-30902D01*
X51405Y-30974D01*
X51594Y-30975D01*
X51768Y-30902D01*
X51902Y-30769D01*
X51974Y-30594D01*
X51975Y-30405D01*
X51975Y-34200D01*
X50975Y-34200D01*
X50975Y-30405D01*
X50975Y-27905D01*
X50902Y-27731D01*
X50769Y-27597D01*
X50594Y-27525D01*
X50514Y-27525D01*
X50632Y-27518D01*
X50772Y-27460D01*
X50805Y-27376D01*
X50500Y-27070D01*
X50429Y-27141D01*
X50429Y-27000D01*
X50123Y-26694D01*
X50039Y-26727D01*
X49975Y-26910D01*
X49975Y-25405D01*
X49902Y-25231D01*
X49769Y-25097D01*
X49594Y-25025D01*
X49405Y-25024D01*
X49231Y-25097D01*
X49097Y-25230D01*
X49025Y-25405D01*
X49024Y-25594D01*
X49097Y-25768D01*
X49230Y-25902D01*
X49405Y-25974D01*
X49594Y-25975D01*
X49768Y-25902D01*
X49902Y-25769D01*
X49974Y-25594D01*
X49975Y-25405D01*
X49975Y-26910D01*
X49970Y-26924D01*
X49980Y-27119D01*
X49960Y-27071D01*
X49904Y-27015D01*
X49831Y-26984D01*
X49183Y-26985D01*
X49133Y-27035D01*
X49133Y-27450D01*
X49941Y-27450D01*
X49991Y-27400D01*
X49991Y-27224D01*
X49991Y-27156D01*
X50039Y-27272D01*
X50123Y-27305D01*
X50429Y-27000D01*
X50429Y-27141D01*
X50194Y-27376D01*
X50227Y-27460D01*
X50410Y-27524D01*
X50405Y-27524D01*
X50231Y-27597D01*
X50097Y-27730D01*
X50025Y-27905D01*
X50024Y-28094D01*
X50097Y-28268D01*
X50230Y-28402D01*
X50405Y-28474D01*
X50594Y-28475D01*
X50768Y-28402D01*
X50902Y-28269D01*
X50974Y-28094D01*
X50975Y-27905D01*
X50975Y-30405D01*
X50902Y-30231D01*
X50769Y-30097D01*
X50594Y-30025D01*
X50405Y-30024D01*
X50231Y-30097D01*
X50097Y-30230D01*
X50025Y-30405D01*
X50024Y-30594D01*
X50097Y-30768D01*
X50230Y-30902D01*
X50405Y-30974D01*
X50594Y-30975D01*
X50768Y-30902D01*
X50902Y-30769D01*
X50974Y-30594D01*
X50975Y-30405D01*
X50975Y-34200D01*
X50250Y-34200D01*
X49991Y-34200D01*
X49991Y-27775D01*
X49991Y-27600D01*
X49941Y-27550D01*
X49133Y-27550D01*
X49133Y-27965D01*
X49183Y-28015D01*
X49831Y-28015D01*
X49904Y-27984D01*
X49960Y-27928D01*
X49991Y-27854D01*
X49991Y-27775D01*
X49991Y-34200D01*
X49975Y-34200D01*
X49975Y-32905D01*
X49975Y-31905D01*
X49975Y-30405D01*
X49902Y-30231D01*
X49769Y-30097D01*
X49594Y-30025D01*
X49405Y-30024D01*
X49231Y-30097D01*
X49097Y-30230D01*
X49033Y-30386D01*
X49033Y-27965D01*
X49033Y-27550D01*
X49033Y-27450D01*
X49033Y-27035D01*
X48983Y-26985D01*
X48975Y-26984D01*
X48975Y-25405D01*
X48902Y-25231D01*
X48769Y-25097D01*
X48594Y-25025D01*
X48405Y-25024D01*
X48231Y-25097D01*
X48097Y-25230D01*
X48025Y-25405D01*
X48025Y-25485D01*
X48018Y-25367D01*
X47960Y-25227D01*
X47876Y-25194D01*
X47570Y-25500D01*
X47876Y-25805D01*
X47960Y-25772D01*
X48024Y-25589D01*
X48024Y-25594D01*
X48097Y-25768D01*
X48230Y-25902D01*
X48405Y-25974D01*
X48594Y-25975D01*
X48768Y-25902D01*
X48902Y-25769D01*
X48974Y-25594D01*
X48975Y-25405D01*
X48975Y-26984D01*
X48334Y-26984D01*
X48261Y-27015D01*
X48205Y-27071D01*
X48174Y-27145D01*
X48174Y-27224D01*
X48174Y-27400D01*
X48224Y-27450D01*
X49033Y-27450D01*
X49033Y-27550D01*
X48224Y-27550D01*
X48174Y-27600D01*
X48174Y-27775D01*
X48174Y-27854D01*
X48205Y-27928D01*
X48261Y-27984D01*
X48334Y-28015D01*
X48983Y-28015D01*
X49033Y-27965D01*
X49033Y-30386D01*
X49025Y-30405D01*
X49024Y-30594D01*
X49097Y-30768D01*
X49230Y-30902D01*
X49405Y-30974D01*
X49594Y-30975D01*
X49768Y-30902D01*
X49902Y-30769D01*
X49974Y-30594D01*
X49975Y-30405D01*
X49975Y-31905D01*
X49902Y-31731D01*
X49769Y-31597D01*
X49594Y-31525D01*
X49405Y-31524D01*
X49231Y-31597D01*
X49097Y-31730D01*
X49025Y-31905D01*
X49024Y-32094D01*
X49097Y-32268D01*
X49230Y-32402D01*
X49405Y-32474D01*
X49594Y-32475D01*
X49768Y-32402D01*
X49902Y-32269D01*
X49974Y-32094D01*
X49975Y-31905D01*
X49975Y-32905D01*
X49902Y-32731D01*
X49769Y-32597D01*
X49594Y-32525D01*
X49405Y-32524D01*
X49231Y-32597D01*
X49097Y-32730D01*
X49025Y-32905D01*
X49024Y-33094D01*
X49097Y-33268D01*
X49230Y-33402D01*
X49405Y-33474D01*
X49594Y-33475D01*
X49768Y-33402D01*
X49902Y-33269D01*
X49974Y-33094D01*
X49975Y-32905D01*
X49975Y-34200D01*
X48975Y-34200D01*
X48975Y-32905D01*
X48975Y-31905D01*
X48975Y-30405D01*
X48902Y-30231D01*
X48769Y-30097D01*
X48678Y-30059D01*
X48678Y-29393D01*
X48678Y-29106D01*
X48678Y-29026D01*
X48647Y-28953D01*
X48591Y-28897D01*
X48517Y-28866D01*
X48422Y-28866D01*
X48372Y-28916D01*
X48372Y-29200D01*
X48628Y-29200D01*
X48678Y-29150D01*
X48678Y-29106D01*
X48678Y-29393D01*
X48678Y-29350D01*
X48628Y-29300D01*
X48372Y-29300D01*
X48372Y-29583D01*
X48422Y-29633D01*
X48517Y-29633D01*
X48591Y-29602D01*
X48647Y-29546D01*
X48678Y-29473D01*
X48678Y-29393D01*
X48678Y-30059D01*
X48594Y-30025D01*
X48405Y-30024D01*
X48272Y-30079D01*
X48272Y-29583D01*
X48272Y-29300D01*
X48264Y-29300D01*
X48264Y-29200D01*
X48272Y-29200D01*
X48272Y-28916D01*
X48222Y-28866D01*
X48127Y-28866D01*
X48054Y-28897D01*
X47997Y-28953D01*
X47972Y-29013D01*
X47959Y-28982D01*
X47917Y-28939D01*
X47862Y-28916D01*
X47805Y-28916D01*
X47805Y-25876D01*
X47500Y-25570D01*
X47194Y-25876D01*
X47227Y-25960D01*
X47424Y-26029D01*
X47632Y-26018D01*
X47772Y-25960D01*
X47805Y-25876D01*
X47805Y-28916D01*
X47802Y-28916D01*
X47775Y-28916D01*
X47775Y-27785D01*
X47775Y-27155D01*
X47752Y-27100D01*
X47710Y-27057D01*
X47655Y-27035D01*
X47595Y-27034D01*
X47217Y-27034D01*
X47217Y-26667D01*
X47216Y-26666D01*
X47194Y-26552D01*
X47129Y-26454D01*
X47129Y-26454D01*
X46800Y-26125D01*
X46800Y-25871D01*
X46902Y-25769D01*
X46974Y-25594D01*
X46974Y-25514D01*
X46981Y-25632D01*
X47039Y-25772D01*
X47123Y-25805D01*
X47429Y-25500D01*
X47123Y-25194D01*
X47039Y-25227D01*
X46975Y-25410D01*
X46975Y-25405D01*
X46902Y-25231D01*
X46769Y-25097D01*
X46594Y-25025D01*
X46405Y-25024D01*
X46231Y-25097D01*
X46097Y-25230D01*
X46025Y-25405D01*
X46025Y-25485D01*
X46018Y-25367D01*
X45960Y-25227D01*
X45876Y-25194D01*
X45570Y-25500D01*
X45876Y-25805D01*
X45960Y-25772D01*
X46024Y-25589D01*
X46024Y-25594D01*
X46097Y-25768D01*
X46200Y-25871D01*
X46200Y-26250D01*
X46222Y-26364D01*
X46287Y-26462D01*
X46617Y-26791D01*
X46617Y-27034D01*
X46178Y-27034D01*
X46123Y-27057D01*
X46081Y-27099D01*
X46058Y-27155D01*
X46058Y-27214D01*
X46058Y-27844D01*
X46081Y-27899D01*
X46123Y-27942D01*
X46178Y-27964D01*
X46238Y-27965D01*
X46610Y-27965D01*
X46125Y-28450D01*
X45654Y-28450D01*
X45768Y-28402D01*
X45902Y-28269D01*
X45974Y-28094D01*
X45975Y-27905D01*
X45975Y-27905D01*
X45975Y-27295D01*
X45975Y-26645D01*
X45952Y-26590D01*
X45910Y-26547D01*
X45854Y-26525D01*
X45805Y-26524D01*
X45805Y-25876D01*
X45500Y-25570D01*
X45194Y-25876D01*
X45227Y-25960D01*
X45424Y-26029D01*
X45632Y-26018D01*
X45772Y-25960D01*
X45805Y-25876D01*
X45805Y-26524D01*
X45795Y-26524D01*
X45145Y-26524D01*
X45090Y-26547D01*
X45047Y-26589D01*
X45025Y-26645D01*
X45024Y-26704D01*
X45024Y-27354D01*
X45047Y-27409D01*
X45089Y-27452D01*
X45145Y-27474D01*
X45204Y-27475D01*
X45854Y-27475D01*
X45909Y-27452D01*
X45952Y-27410D01*
X45974Y-27354D01*
X45975Y-27295D01*
X45975Y-27905D01*
X45902Y-27731D01*
X45769Y-27597D01*
X45594Y-27525D01*
X45405Y-27524D01*
X45231Y-27597D01*
X45097Y-27730D01*
X45025Y-27905D01*
X45024Y-28094D01*
X45097Y-28268D01*
X45230Y-28402D01*
X45345Y-28450D01*
X44654Y-28450D01*
X44768Y-28402D01*
X44902Y-28269D01*
X44974Y-28094D01*
X44975Y-27905D01*
X44975Y-26905D01*
X44902Y-26731D01*
X44769Y-26597D01*
X44594Y-26525D01*
X44405Y-26524D01*
X44231Y-26597D01*
X44097Y-26730D01*
X44025Y-26905D01*
X44024Y-27094D01*
X44097Y-27268D01*
X44230Y-27402D01*
X44405Y-27474D01*
X44594Y-27475D01*
X44768Y-27402D01*
X44902Y-27269D01*
X44974Y-27094D01*
X44975Y-26905D01*
X44975Y-27905D01*
X44902Y-27731D01*
X44769Y-27597D01*
X44594Y-27525D01*
X44405Y-27524D01*
X44231Y-27597D01*
X44097Y-27730D01*
X44025Y-27905D01*
X44024Y-28094D01*
X44097Y-28268D01*
X44230Y-28402D01*
X44345Y-28450D01*
X43654Y-28450D01*
X43768Y-28402D01*
X43902Y-28269D01*
X43974Y-28094D01*
X43975Y-27905D01*
X43975Y-26905D01*
X43975Y-25405D01*
X43902Y-25231D01*
X43769Y-25097D01*
X43594Y-25025D01*
X43405Y-25024D01*
X43231Y-25097D01*
X43097Y-25230D01*
X43025Y-25405D01*
X43024Y-25594D01*
X43097Y-25768D01*
X43230Y-25902D01*
X43405Y-25974D01*
X43594Y-25975D01*
X43768Y-25902D01*
X43902Y-25769D01*
X43974Y-25594D01*
X43975Y-25405D01*
X43975Y-26905D01*
X43902Y-26731D01*
X43769Y-26597D01*
X43594Y-26525D01*
X43405Y-26524D01*
X43231Y-26597D01*
X43097Y-26730D01*
X43025Y-26905D01*
X43025Y-26985D01*
X43018Y-26867D01*
X42975Y-26762D01*
X42975Y-25405D01*
X42902Y-25231D01*
X42769Y-25097D01*
X42594Y-25025D01*
X42405Y-25024D01*
X42231Y-25097D01*
X42097Y-25230D01*
X42025Y-25405D01*
X42024Y-25594D01*
X42097Y-25768D01*
X42230Y-25902D01*
X42405Y-25974D01*
X42594Y-25975D01*
X42768Y-25902D01*
X42902Y-25769D01*
X42974Y-25594D01*
X42975Y-25405D01*
X42975Y-26762D01*
X42960Y-26727D01*
X42876Y-26694D01*
X42805Y-26764D01*
X42805Y-26623D01*
X42772Y-26539D01*
X42575Y-26470D01*
X42367Y-26481D01*
X42227Y-26539D01*
X42194Y-26623D01*
X42500Y-26929D01*
X42805Y-26623D01*
X42805Y-26764D01*
X42570Y-27000D01*
X42876Y-27305D01*
X42960Y-27272D01*
X43024Y-27089D01*
X43024Y-27094D01*
X43097Y-27268D01*
X43230Y-27402D01*
X43405Y-27474D01*
X43594Y-27475D01*
X43768Y-27402D01*
X43902Y-27269D01*
X43974Y-27094D01*
X43975Y-26905D01*
X43975Y-27905D01*
X43902Y-27731D01*
X43769Y-27597D01*
X43594Y-27525D01*
X43405Y-27524D01*
X43231Y-27597D01*
X43097Y-27730D01*
X43025Y-27905D01*
X43024Y-28094D01*
X43097Y-28268D01*
X43230Y-28402D01*
X43345Y-28450D01*
X42654Y-28450D01*
X42768Y-28402D01*
X42902Y-28269D01*
X42974Y-28094D01*
X42975Y-27905D01*
X42902Y-27731D01*
X42769Y-27597D01*
X42594Y-27525D01*
X42514Y-27525D01*
X42632Y-27518D01*
X42772Y-27460D01*
X42805Y-27376D01*
X42500Y-27070D01*
X42429Y-27141D01*
X42429Y-27000D01*
X42123Y-26694D01*
X42039Y-26727D01*
X41975Y-26910D01*
X41975Y-25405D01*
X41902Y-25231D01*
X41769Y-25097D01*
X41594Y-25025D01*
X41405Y-25024D01*
X41231Y-25097D01*
X41097Y-25230D01*
X41025Y-25405D01*
X41024Y-25594D01*
X41097Y-25768D01*
X41230Y-25902D01*
X41405Y-25974D01*
X41594Y-25975D01*
X41768Y-25902D01*
X41902Y-25769D01*
X41974Y-25594D01*
X41975Y-25405D01*
X41975Y-26910D01*
X41970Y-26924D01*
X41981Y-27132D01*
X42039Y-27272D01*
X42123Y-27305D01*
X42429Y-27000D01*
X42429Y-27141D01*
X42194Y-27376D01*
X42227Y-27460D01*
X42410Y-27524D01*
X42405Y-27524D01*
X42231Y-27597D01*
X42097Y-27730D01*
X42025Y-27905D01*
X42024Y-28094D01*
X42097Y-28268D01*
X42230Y-28402D01*
X42345Y-28450D01*
X41491Y-28450D01*
X41491Y-27775D01*
X41491Y-27224D01*
X41491Y-27145D01*
X41460Y-27071D01*
X41404Y-27015D01*
X41331Y-26984D01*
X40975Y-26984D01*
X40975Y-25405D01*
X40902Y-25231D01*
X40769Y-25097D01*
X40594Y-25025D01*
X40405Y-25024D01*
X40231Y-25097D01*
X40097Y-25230D01*
X40025Y-25405D01*
X40025Y-25485D01*
X40018Y-25367D01*
X39960Y-25227D01*
X39876Y-25194D01*
X39570Y-25500D01*
X39876Y-25805D01*
X39960Y-25772D01*
X40024Y-25589D01*
X40024Y-25594D01*
X40097Y-25768D01*
X40230Y-25902D01*
X40405Y-25974D01*
X40594Y-25975D01*
X40768Y-25902D01*
X40902Y-25769D01*
X40974Y-25594D01*
X40975Y-25405D01*
X40975Y-26984D01*
X40683Y-26985D01*
X40633Y-27035D01*
X40633Y-27450D01*
X41441Y-27450D01*
X41491Y-27400D01*
X41491Y-27224D01*
X41491Y-27775D01*
X41491Y-27600D01*
X41441Y-27550D01*
X40633Y-27550D01*
X40633Y-27965D01*
X40683Y-28015D01*
X41331Y-28015D01*
X41404Y-27984D01*
X41460Y-27928D01*
X41491Y-27854D01*
X41491Y-27775D01*
X41491Y-28450D01*
X41250Y-28450D01*
X40533Y-28450D01*
X40533Y-27965D01*
X40533Y-27550D01*
X40533Y-27450D01*
X40533Y-27035D01*
X40483Y-26985D01*
X39834Y-26984D01*
X39805Y-26996D01*
X39805Y-25876D01*
X39500Y-25570D01*
X39194Y-25876D01*
X39227Y-25960D01*
X39424Y-26029D01*
X39632Y-26018D01*
X39772Y-25960D01*
X39805Y-25876D01*
X39805Y-26996D01*
X39761Y-27015D01*
X39705Y-27071D01*
X39674Y-27145D01*
X39674Y-27224D01*
X39674Y-27400D01*
X39724Y-27450D01*
X40533Y-27450D01*
X40533Y-27550D01*
X39724Y-27550D01*
X39674Y-27600D01*
X39674Y-27775D01*
X39674Y-27854D01*
X39705Y-27928D01*
X39761Y-27984D01*
X39834Y-28015D01*
X40483Y-28015D01*
X40533Y-27965D01*
X40533Y-28450D01*
X38717Y-28450D01*
X38717Y-27965D01*
X39155Y-27965D01*
X39210Y-27942D01*
X39252Y-27900D01*
X39275Y-27844D01*
X39275Y-27785D01*
X39275Y-27155D01*
X39252Y-27100D01*
X39210Y-27057D01*
X39155Y-27035D01*
X39095Y-27034D01*
X38717Y-27034D01*
X38717Y-26454D01*
X38717Y-26454D01*
X38777Y-26364D01*
X38799Y-26250D01*
X38800Y-26250D01*
X38800Y-25871D01*
X38902Y-25769D01*
X38974Y-25594D01*
X38974Y-25514D01*
X38981Y-25632D01*
X39039Y-25772D01*
X39123Y-25805D01*
X39429Y-25500D01*
X39123Y-25194D01*
X39039Y-25227D01*
X38975Y-25410D01*
X38975Y-25405D01*
X38902Y-25231D01*
X38769Y-25097D01*
X38594Y-25025D01*
X38405Y-25024D01*
X38231Y-25097D01*
X38097Y-25230D01*
X38025Y-25405D01*
X38025Y-25485D01*
X38018Y-25367D01*
X37960Y-25227D01*
X37876Y-25194D01*
X37570Y-25500D01*
X37876Y-25805D01*
X37960Y-25772D01*
X38024Y-25589D01*
X38024Y-25594D01*
X38097Y-25768D01*
X38200Y-25871D01*
X38200Y-26128D01*
X38139Y-26218D01*
X38117Y-26333D01*
X38117Y-27034D01*
X37805Y-27034D01*
X37805Y-25876D01*
X37500Y-25570D01*
X37194Y-25876D01*
X37227Y-25960D01*
X37424Y-26029D01*
X37632Y-26018D01*
X37772Y-25960D01*
X37805Y-25876D01*
X37805Y-27034D01*
X37678Y-27034D01*
X37623Y-27057D01*
X37581Y-27099D01*
X37564Y-27140D01*
X37212Y-26787D01*
X37114Y-26722D01*
X37000Y-26700D01*
X36975Y-26700D01*
X36975Y-26645D01*
X36952Y-26590D01*
X36910Y-26547D01*
X36854Y-26525D01*
X36795Y-26524D01*
X36145Y-26524D01*
X36090Y-26547D01*
X36047Y-26589D01*
X36025Y-26645D01*
X36024Y-26700D01*
X35975Y-26700D01*
X35975Y-25405D01*
X35975Y-23655D01*
X35902Y-23481D01*
X35769Y-23347D01*
X35594Y-23275D01*
X35405Y-23274D01*
X35231Y-23347D01*
X35097Y-23480D01*
X35025Y-23655D01*
X35024Y-23844D01*
X35097Y-24018D01*
X35230Y-24152D01*
X35405Y-24224D01*
X35594Y-24225D01*
X35768Y-24152D01*
X35902Y-24019D01*
X35974Y-23844D01*
X35975Y-23655D01*
X35975Y-25405D01*
X35902Y-25231D01*
X35769Y-25097D01*
X35594Y-25025D01*
X35405Y-25024D01*
X35231Y-25097D01*
X35097Y-25230D01*
X35025Y-25405D01*
X35024Y-25594D01*
X35097Y-25768D01*
X35230Y-25902D01*
X35405Y-25974D01*
X35594Y-25975D01*
X35768Y-25902D01*
X35902Y-25769D01*
X35974Y-25594D01*
X35975Y-25405D01*
X35975Y-26700D01*
X35871Y-26700D01*
X35769Y-26597D01*
X35594Y-26525D01*
X35405Y-26524D01*
X35231Y-26597D01*
X35128Y-26700D01*
X34975Y-26700D01*
X34975Y-25405D01*
X34975Y-23655D01*
X34902Y-23481D01*
X34769Y-23347D01*
X34594Y-23275D01*
X34405Y-23274D01*
X34231Y-23347D01*
X34097Y-23480D01*
X34025Y-23655D01*
X34024Y-23844D01*
X34097Y-24018D01*
X34230Y-24152D01*
X34405Y-24224D01*
X34594Y-24225D01*
X34768Y-24152D01*
X34902Y-24019D01*
X34974Y-23844D01*
X34975Y-23655D01*
X34975Y-25405D01*
X34902Y-25231D01*
X34769Y-25097D01*
X34594Y-25025D01*
X34405Y-25024D01*
X34231Y-25097D01*
X34097Y-25230D01*
X34025Y-25405D01*
X34024Y-25594D01*
X34097Y-25768D01*
X34230Y-25902D01*
X34405Y-25974D01*
X34594Y-25975D01*
X34768Y-25902D01*
X34902Y-25769D01*
X34974Y-25594D01*
X34975Y-25405D01*
X34975Y-26700D01*
X34871Y-26700D01*
X34769Y-26597D01*
X34594Y-26525D01*
X34405Y-26524D01*
X34231Y-26597D01*
X34097Y-26730D01*
X34025Y-26905D01*
X34024Y-27094D01*
X34097Y-27268D01*
X34230Y-27402D01*
X34405Y-27474D01*
X34485Y-27474D01*
X34367Y-27481D01*
X34227Y-27539D01*
X34194Y-27623D01*
X34500Y-27929D01*
X34805Y-27623D01*
X34772Y-27539D01*
X34589Y-27475D01*
X34594Y-27475D01*
X34768Y-27402D01*
X34871Y-27300D01*
X35128Y-27300D01*
X35230Y-27402D01*
X35405Y-27474D01*
X35485Y-27474D01*
X35367Y-27481D01*
X35227Y-27539D01*
X35194Y-27623D01*
X35500Y-27929D01*
X35805Y-27623D01*
X35772Y-27539D01*
X35589Y-27475D01*
X35594Y-27475D01*
X35768Y-27402D01*
X35871Y-27300D01*
X36024Y-27300D01*
X36024Y-27354D01*
X36047Y-27409D01*
X36089Y-27452D01*
X36145Y-27474D01*
X36204Y-27475D01*
X36485Y-27475D01*
X36367Y-27481D01*
X36227Y-27539D01*
X36194Y-27623D01*
X36500Y-27929D01*
X36805Y-27623D01*
X36772Y-27539D01*
X36589Y-27475D01*
X36854Y-27475D01*
X36909Y-27452D01*
X36952Y-27410D01*
X36961Y-27386D01*
X37287Y-27712D01*
X37287Y-27712D01*
X37385Y-27777D01*
X37500Y-27800D01*
X37558Y-27800D01*
X37558Y-27844D01*
X37581Y-27899D01*
X37623Y-27942D01*
X37678Y-27964D01*
X37738Y-27965D01*
X38117Y-27965D01*
X38117Y-28450D01*
X37029Y-28450D01*
X37029Y-28075D01*
X37018Y-27867D01*
X36960Y-27727D01*
X36876Y-27694D01*
X36570Y-28000D01*
X36876Y-28305D01*
X36960Y-28272D01*
X37029Y-28075D01*
X37029Y-28450D01*
X36776Y-28450D01*
X36805Y-28376D01*
X36500Y-28070D01*
X36429Y-28141D01*
X36429Y-28000D01*
X36123Y-27694D01*
X36039Y-27727D01*
X36003Y-27830D01*
X35960Y-27727D01*
X35876Y-27694D01*
X35570Y-28000D01*
X35876Y-28305D01*
X35960Y-28272D01*
X35996Y-28169D01*
X36039Y-28272D01*
X36123Y-28305D01*
X36429Y-28000D01*
X36429Y-28141D01*
X36194Y-28376D01*
X36223Y-28450D01*
X35776Y-28450D01*
X35805Y-28376D01*
X35500Y-28070D01*
X35429Y-28141D01*
X35429Y-28000D01*
X35123Y-27694D01*
X35039Y-27727D01*
X35003Y-27830D01*
X34960Y-27727D01*
X34876Y-27694D01*
X34570Y-28000D01*
X34876Y-28305D01*
X34960Y-28272D01*
X34996Y-28169D01*
X35039Y-28272D01*
X35123Y-28305D01*
X35429Y-28000D01*
X35429Y-28141D01*
X35194Y-28376D01*
X35223Y-28450D01*
X34776Y-28450D01*
X34805Y-28376D01*
X34500Y-28070D01*
X34429Y-28141D01*
X34429Y-28000D01*
X34123Y-27694D01*
X34039Y-27727D01*
X33991Y-27863D01*
X33991Y-27775D01*
X33991Y-27224D01*
X33991Y-27145D01*
X33975Y-27105D01*
X33975Y-25405D01*
X33975Y-23655D01*
X33902Y-23481D01*
X33769Y-23347D01*
X33594Y-23275D01*
X33405Y-23274D01*
X33231Y-23347D01*
X33097Y-23480D01*
X33025Y-23655D01*
X33024Y-23844D01*
X33097Y-24018D01*
X33230Y-24152D01*
X33405Y-24224D01*
X33594Y-24225D01*
X33768Y-24152D01*
X33902Y-24019D01*
X33974Y-23844D01*
X33975Y-23655D01*
X33975Y-25405D01*
X33902Y-25231D01*
X33769Y-25097D01*
X33594Y-25025D01*
X33405Y-25024D01*
X33231Y-25097D01*
X33097Y-25230D01*
X33025Y-25405D01*
X33024Y-25594D01*
X33097Y-25768D01*
X33230Y-25902D01*
X33405Y-25974D01*
X33594Y-25975D01*
X33768Y-25902D01*
X33902Y-25769D01*
X33974Y-25594D01*
X33975Y-25405D01*
X33975Y-27105D01*
X33960Y-27071D01*
X33904Y-27015D01*
X33831Y-26984D01*
X33183Y-26985D01*
X33133Y-27035D01*
X33133Y-27450D01*
X33941Y-27450D01*
X33991Y-27400D01*
X33991Y-27224D01*
X33991Y-27775D01*
X33991Y-27600D01*
X33941Y-27550D01*
X33133Y-27550D01*
X33133Y-27965D01*
X33183Y-28015D01*
X33831Y-28015D01*
X33904Y-27984D01*
X33960Y-27928D01*
X33991Y-27854D01*
X33991Y-27775D01*
X33991Y-27863D01*
X33970Y-27924D01*
X33981Y-28132D01*
X34039Y-28272D01*
X34123Y-28305D01*
X34429Y-28000D01*
X34429Y-28141D01*
X34194Y-28376D01*
X34223Y-28450D01*
X33874Y-28450D01*
X33712Y-28287D01*
X33614Y-28222D01*
X33500Y-28200D01*
X33033Y-28200D01*
X33033Y-27965D01*
X33033Y-27550D01*
X33033Y-27450D01*
X33033Y-27035D01*
X32983Y-26985D01*
X32975Y-26984D01*
X32975Y-25405D01*
X32975Y-25405D01*
X32975Y-24045D01*
X32975Y-23395D01*
X32952Y-23340D01*
X32910Y-23297D01*
X32854Y-23275D01*
X32795Y-23274D01*
X32145Y-23274D01*
X32090Y-23297D01*
X32047Y-23339D01*
X32025Y-23395D01*
X32024Y-23454D01*
X32024Y-24104D01*
X32047Y-24159D01*
X32089Y-24202D01*
X32145Y-24224D01*
X32204Y-24225D01*
X32854Y-24225D01*
X32909Y-24202D01*
X32952Y-24160D01*
X32974Y-24104D01*
X32975Y-24045D01*
X32975Y-25405D01*
X32902Y-25231D01*
X32769Y-25097D01*
X32594Y-25025D01*
X32405Y-25024D01*
X32231Y-25097D01*
X32097Y-25230D01*
X32025Y-25405D01*
X32025Y-25485D01*
X32018Y-25367D01*
X31960Y-25227D01*
X31876Y-25194D01*
X31805Y-25264D01*
X31805Y-25123D01*
X31772Y-25039D01*
X31575Y-24970D01*
X31367Y-24981D01*
X31347Y-24989D01*
X31347Y-24418D01*
X30500Y-23570D01*
X29652Y-24418D01*
X29776Y-24580D01*
X30245Y-24774D01*
X30752Y-24775D01*
X31221Y-24581D01*
X31223Y-24580D01*
X31347Y-24418D01*
X31347Y-24989D01*
X31227Y-25039D01*
X31194Y-25123D01*
X31500Y-25429D01*
X31805Y-25123D01*
X31805Y-25264D01*
X31570Y-25500D01*
X31876Y-25805D01*
X31960Y-25772D01*
X32024Y-25589D01*
X32024Y-25594D01*
X32097Y-25768D01*
X32230Y-25902D01*
X32405Y-25974D01*
X32594Y-25975D01*
X32768Y-25902D01*
X32902Y-25769D01*
X32974Y-25594D01*
X32975Y-25405D01*
X32975Y-26984D01*
X32334Y-26984D01*
X32261Y-27015D01*
X32205Y-27071D01*
X32174Y-27145D01*
X32174Y-27224D01*
X32174Y-27400D01*
X32224Y-27450D01*
X33033Y-27450D01*
X33033Y-27550D01*
X32224Y-27550D01*
X32174Y-27600D01*
X32174Y-27775D01*
X32174Y-27854D01*
X32205Y-27928D01*
X32261Y-27984D01*
X32334Y-28015D01*
X32983Y-28015D01*
X33033Y-27965D01*
X33033Y-28200D01*
X31805Y-28200D01*
X31805Y-25876D01*
X31500Y-25570D01*
X31194Y-25876D01*
X31227Y-25960D01*
X31424Y-26029D01*
X31632Y-26018D01*
X31772Y-25960D01*
X31805Y-25876D01*
X31805Y-28200D01*
X31750Y-28200D01*
X31374Y-28200D01*
X31217Y-28042D01*
X31217Y-27965D01*
X31655Y-27965D01*
X31710Y-27942D01*
X31752Y-27900D01*
X31775Y-27844D01*
X31775Y-27785D01*
X31775Y-27155D01*
X31752Y-27100D01*
X31710Y-27057D01*
X31655Y-27035D01*
X31595Y-27034D01*
X31217Y-27034D01*
X31217Y-26667D01*
X31216Y-26666D01*
X31194Y-26552D01*
X31129Y-26454D01*
X31129Y-26454D01*
X30800Y-26125D01*
X30800Y-25871D01*
X30902Y-25769D01*
X30974Y-25594D01*
X30974Y-25514D01*
X30981Y-25632D01*
X31039Y-25772D01*
X31123Y-25805D01*
X31429Y-25500D01*
X31123Y-25194D01*
X31039Y-25227D01*
X30975Y-25410D01*
X30975Y-25405D01*
X30902Y-25231D01*
X30769Y-25097D01*
X30594Y-25025D01*
X30405Y-25024D01*
X30231Y-25097D01*
X30097Y-25230D01*
X30025Y-25405D01*
X30024Y-25594D01*
X30097Y-25768D01*
X30200Y-25871D01*
X30200Y-26250D01*
X30222Y-26364D01*
X30287Y-26462D01*
X30617Y-26791D01*
X30617Y-27034D01*
X30178Y-27034D01*
X30123Y-27057D01*
X30081Y-27099D01*
X30058Y-27155D01*
X30058Y-27214D01*
X30058Y-27844D01*
X30081Y-27899D01*
X30123Y-27942D01*
X30178Y-27964D01*
X30238Y-27965D01*
X30617Y-27965D01*
X30617Y-28167D01*
X30639Y-28281D01*
X30704Y-28379D01*
X30975Y-28650D01*
X30900Y-28650D01*
X30823Y-28665D01*
X30801Y-28679D01*
X30758Y-28708D01*
X30358Y-29108D01*
X30315Y-29173D01*
X30300Y-29250D01*
X30300Y-30068D01*
X30231Y-30097D01*
X30097Y-30230D01*
X30025Y-30405D01*
X30024Y-30594D01*
X30097Y-30768D01*
X30230Y-30902D01*
X30405Y-30974D01*
X30594Y-30975D01*
X30768Y-30902D01*
X30902Y-30769D01*
X30974Y-30594D01*
X30975Y-30405D01*
X30902Y-30231D01*
X30769Y-30097D01*
X30700Y-30068D01*
X30700Y-29332D01*
X30982Y-29050D01*
X31200Y-29050D01*
X31371Y-29050D01*
X31371Y-29096D01*
X31371Y-29462D01*
X31394Y-29517D01*
X31436Y-29560D01*
X31477Y-29577D01*
X31477Y-29739D01*
X31358Y-29858D01*
X31315Y-29923D01*
X31300Y-30000D01*
X31300Y-30068D01*
X31231Y-30097D01*
X31097Y-30230D01*
X31025Y-30405D01*
X31024Y-30594D01*
X31097Y-30768D01*
X31230Y-30902D01*
X31405Y-30974D01*
X31594Y-30975D01*
X31768Y-30902D01*
X31902Y-30769D01*
X31974Y-30594D01*
X31975Y-30405D01*
X31902Y-30231D01*
X31769Y-30097D01*
X31709Y-30072D01*
X31818Y-29964D01*
X31861Y-29899D01*
X31861Y-29899D01*
X31877Y-29822D01*
X31877Y-29576D01*
X31917Y-29560D01*
X31959Y-29518D01*
X31972Y-29486D01*
X31997Y-29546D01*
X32054Y-29602D01*
X32127Y-29633D01*
X32222Y-29633D01*
X32272Y-29583D01*
X32272Y-29300D01*
X32264Y-29300D01*
X32264Y-29200D01*
X32272Y-29200D01*
X32272Y-29192D01*
X32372Y-29192D01*
X32372Y-29200D01*
X32628Y-29200D01*
X32678Y-29150D01*
X32678Y-29106D01*
X32678Y-29050D01*
X32767Y-29050D01*
X33358Y-29641D01*
X33358Y-29641D01*
X33401Y-29670D01*
X33423Y-29684D01*
X33423Y-29684D01*
X33500Y-29700D01*
X37417Y-29700D01*
X38053Y-30336D01*
X38025Y-30405D01*
X38024Y-30594D01*
X38097Y-30768D01*
X38230Y-30902D01*
X38405Y-30974D01*
X38594Y-30975D01*
X38663Y-30946D01*
X39108Y-31391D01*
X39108Y-31391D01*
X39151Y-31420D01*
X39173Y-31434D01*
X39173Y-31434D01*
X39249Y-31449D01*
X39250Y-31450D01*
X46250Y-31450D01*
X46326Y-31434D01*
X46391Y-31391D01*
X46641Y-31141D01*
X46641Y-31141D01*
X46670Y-31098D01*
X46684Y-31076D01*
X46684Y-31076D01*
X46699Y-31000D01*
X46700Y-31000D01*
X46700Y-30931D01*
X46768Y-30902D01*
X46902Y-30769D01*
X46974Y-30594D01*
X46975Y-30405D01*
X46902Y-30231D01*
X46769Y-30097D01*
X46594Y-30025D01*
X46405Y-30024D01*
X46231Y-30097D01*
X46097Y-30230D01*
X46025Y-30405D01*
X46024Y-30594D01*
X46097Y-30768D01*
X46230Y-30902D01*
X46290Y-30927D01*
X46167Y-31050D01*
X45975Y-31050D01*
X45975Y-30405D01*
X45902Y-30231D01*
X45769Y-30097D01*
X45594Y-30025D01*
X45405Y-30024D01*
X45231Y-30097D01*
X45097Y-30230D01*
X45025Y-30405D01*
X45024Y-30594D01*
X45097Y-30768D01*
X45230Y-30902D01*
X45405Y-30974D01*
X45594Y-30975D01*
X45768Y-30902D01*
X45902Y-30769D01*
X45974Y-30594D01*
X45975Y-30405D01*
X45975Y-31050D01*
X44975Y-31050D01*
X44975Y-30405D01*
X44902Y-30231D01*
X44769Y-30097D01*
X44594Y-30025D01*
X44405Y-30024D01*
X44231Y-30097D01*
X44097Y-30230D01*
X44025Y-30405D01*
X44024Y-30594D01*
X44097Y-30768D01*
X44230Y-30902D01*
X44405Y-30974D01*
X44594Y-30975D01*
X44768Y-30902D01*
X44902Y-30769D01*
X44974Y-30594D01*
X44975Y-30405D01*
X44975Y-31050D01*
X43975Y-31050D01*
X43975Y-30405D01*
X43902Y-30231D01*
X43769Y-30097D01*
X43594Y-30025D01*
X43405Y-30024D01*
X43231Y-30097D01*
X43097Y-30230D01*
X43025Y-30405D01*
X43024Y-30594D01*
X43097Y-30768D01*
X43230Y-30902D01*
X43405Y-30974D01*
X43594Y-30975D01*
X43768Y-30902D01*
X43902Y-30769D01*
X43974Y-30594D01*
X43975Y-30405D01*
X43975Y-31050D01*
X42975Y-31050D01*
X42975Y-30405D01*
X42902Y-30231D01*
X42769Y-30097D01*
X42594Y-30025D01*
X42405Y-30024D01*
X42231Y-30097D01*
X42097Y-30230D01*
X42025Y-30405D01*
X42024Y-30594D01*
X42097Y-30768D01*
X42230Y-30902D01*
X42405Y-30974D01*
X42594Y-30975D01*
X42768Y-30902D01*
X42902Y-30769D01*
X42974Y-30594D01*
X42975Y-30405D01*
X42975Y-31050D01*
X41975Y-31050D01*
X41975Y-30405D01*
X41902Y-30231D01*
X41769Y-30097D01*
X41594Y-30025D01*
X41405Y-30024D01*
X41231Y-30097D01*
X41097Y-30230D01*
X41025Y-30405D01*
X41024Y-30594D01*
X41097Y-30768D01*
X41230Y-30902D01*
X41405Y-30974D01*
X41594Y-30975D01*
X41768Y-30902D01*
X41902Y-30769D01*
X41974Y-30594D01*
X41975Y-30405D01*
X41975Y-31050D01*
X40975Y-31050D01*
X40975Y-30405D01*
X40902Y-30231D01*
X40769Y-30097D01*
X40678Y-30059D01*
X40678Y-29393D01*
X40678Y-29350D01*
X40628Y-29300D01*
X40372Y-29300D01*
X40372Y-29583D01*
X40422Y-29633D01*
X40517Y-29633D01*
X40591Y-29602D01*
X40647Y-29546D01*
X40678Y-29473D01*
X40678Y-29393D01*
X40678Y-30059D01*
X40594Y-30025D01*
X40405Y-30024D01*
X40231Y-30097D01*
X40097Y-30230D01*
X40025Y-30405D01*
X40024Y-30594D01*
X40097Y-30768D01*
X40230Y-30902D01*
X40405Y-30974D01*
X40594Y-30975D01*
X40768Y-30902D01*
X40902Y-30769D01*
X40974Y-30594D01*
X40975Y-30405D01*
X40975Y-31050D01*
X39332Y-31050D01*
X38946Y-30663D01*
X38974Y-30594D01*
X38975Y-30405D01*
X38902Y-30231D01*
X38769Y-30097D01*
X38594Y-30025D01*
X38405Y-30024D01*
X38336Y-30053D01*
X37641Y-29358D01*
X37576Y-29315D01*
X37500Y-29300D01*
X33582Y-29300D01*
X33082Y-28800D01*
X33375Y-28800D01*
X33537Y-28962D01*
X33537Y-28962D01*
X33635Y-29027D01*
X33750Y-29050D01*
X38417Y-29050D01*
X38500Y-29050D01*
X39371Y-29050D01*
X39371Y-29096D01*
X39371Y-29462D01*
X39394Y-29517D01*
X39436Y-29560D01*
X39477Y-29577D01*
X39477Y-29739D01*
X39358Y-29858D01*
X39315Y-29923D01*
X39300Y-30000D01*
X39300Y-30068D01*
X39231Y-30097D01*
X39097Y-30230D01*
X39025Y-30405D01*
X39024Y-30594D01*
X39097Y-30768D01*
X39230Y-30902D01*
X39405Y-30974D01*
X39594Y-30975D01*
X39768Y-30902D01*
X39902Y-30769D01*
X39974Y-30594D01*
X39975Y-30405D01*
X39902Y-30231D01*
X39769Y-30097D01*
X39709Y-30072D01*
X39818Y-29964D01*
X39861Y-29899D01*
X39861Y-29899D01*
X39877Y-29822D01*
X39877Y-29576D01*
X39917Y-29560D01*
X39959Y-29518D01*
X39972Y-29486D01*
X39997Y-29546D01*
X40054Y-29602D01*
X40127Y-29633D01*
X40222Y-29633D01*
X40272Y-29583D01*
X40272Y-29300D01*
X40264Y-29300D01*
X40264Y-29200D01*
X40272Y-29200D01*
X40272Y-29192D01*
X40372Y-29192D01*
X40372Y-29200D01*
X40628Y-29200D01*
X40678Y-29150D01*
X40678Y-29106D01*
X40678Y-29050D01*
X41250Y-29050D01*
X46250Y-29050D01*
X46250Y-29049D01*
X46364Y-29027D01*
X46364Y-29027D01*
X46462Y-28962D01*
X47129Y-28295D01*
X47129Y-28295D01*
X47194Y-28197D01*
X47216Y-28083D01*
X47217Y-28083D01*
X47217Y-27965D01*
X47655Y-27965D01*
X47710Y-27942D01*
X47752Y-27900D01*
X47775Y-27844D01*
X47775Y-27785D01*
X47775Y-28916D01*
X47491Y-28916D01*
X47436Y-28939D01*
X47394Y-28981D01*
X47371Y-29036D01*
X47371Y-29096D01*
X47371Y-29462D01*
X47394Y-29517D01*
X47436Y-29560D01*
X47477Y-29577D01*
X47477Y-29739D01*
X47358Y-29858D01*
X47315Y-29923D01*
X47300Y-30000D01*
X47300Y-30068D01*
X47231Y-30097D01*
X47097Y-30230D01*
X47025Y-30405D01*
X47024Y-30594D01*
X47097Y-30768D01*
X47230Y-30902D01*
X47405Y-30974D01*
X47594Y-30975D01*
X47768Y-30902D01*
X47902Y-30769D01*
X47974Y-30594D01*
X47975Y-30405D01*
X47902Y-30231D01*
X47769Y-30097D01*
X47709Y-30072D01*
X47818Y-29964D01*
X47861Y-29899D01*
X47861Y-29899D01*
X47877Y-29822D01*
X47877Y-29576D01*
X47917Y-29560D01*
X47959Y-29518D01*
X47972Y-29486D01*
X47997Y-29546D01*
X48054Y-29602D01*
X48127Y-29633D01*
X48222Y-29633D01*
X48272Y-29583D01*
X48272Y-30079D01*
X48231Y-30097D01*
X48097Y-30230D01*
X48025Y-30405D01*
X48024Y-30594D01*
X48097Y-30768D01*
X48230Y-30902D01*
X48405Y-30974D01*
X48594Y-30975D01*
X48768Y-30902D01*
X48902Y-30769D01*
X48974Y-30594D01*
X48975Y-30405D01*
X48975Y-31905D01*
X48902Y-31731D01*
X48769Y-31597D01*
X48594Y-31525D01*
X48405Y-31524D01*
X48231Y-31597D01*
X48097Y-31730D01*
X48025Y-31905D01*
X48024Y-32094D01*
X48097Y-32268D01*
X48230Y-32402D01*
X48405Y-32474D01*
X48594Y-32475D01*
X48768Y-32402D01*
X48902Y-32269D01*
X48974Y-32094D01*
X48975Y-31905D01*
X48975Y-32905D01*
X48902Y-32731D01*
X48769Y-32597D01*
X48594Y-32525D01*
X48405Y-32524D01*
X48231Y-32597D01*
X48097Y-32730D01*
X48025Y-32905D01*
X48024Y-33094D01*
X48097Y-33268D01*
X48230Y-33402D01*
X48405Y-33474D01*
X48594Y-33475D01*
X48768Y-33402D01*
X48902Y-33269D01*
X48974Y-33094D01*
X48975Y-32905D01*
X48975Y-34200D01*
X47975Y-34200D01*
X47975Y-31905D01*
X47902Y-31731D01*
X47769Y-31597D01*
X47594Y-31525D01*
X47405Y-31524D01*
X47231Y-31597D01*
X47097Y-31730D01*
X47025Y-31905D01*
X47024Y-32094D01*
X47097Y-32268D01*
X47230Y-32402D01*
X47405Y-32474D01*
X47594Y-32475D01*
X47768Y-32402D01*
X47902Y-32269D01*
X47974Y-32094D01*
X47975Y-31905D01*
X47975Y-34200D01*
X47975Y-34200D01*
X47975Y-33295D01*
X47975Y-32645D01*
X47952Y-32590D01*
X47910Y-32547D01*
X47854Y-32525D01*
X47795Y-32524D01*
X47145Y-32524D01*
X47090Y-32547D01*
X47047Y-32589D01*
X47025Y-32645D01*
X47024Y-32704D01*
X47024Y-33354D01*
X47047Y-33409D01*
X47089Y-33452D01*
X47145Y-33474D01*
X47204Y-33475D01*
X47854Y-33475D01*
X47909Y-33452D01*
X47952Y-33410D01*
X47974Y-33354D01*
X47975Y-33295D01*
X47975Y-34200D01*
X41975Y-34200D01*
X41975Y-32905D01*
X41975Y-31905D01*
X41902Y-31731D01*
X41769Y-31597D01*
X41594Y-31525D01*
X41405Y-31524D01*
X41231Y-31597D01*
X41097Y-31730D01*
X41025Y-31905D01*
X41024Y-32094D01*
X41097Y-32268D01*
X41230Y-32402D01*
X41405Y-32474D01*
X41594Y-32475D01*
X41768Y-32402D01*
X41902Y-32269D01*
X41974Y-32094D01*
X41975Y-31905D01*
X41975Y-32905D01*
X41902Y-32731D01*
X41769Y-32597D01*
X41594Y-32525D01*
X41405Y-32524D01*
X41231Y-32597D01*
X41097Y-32730D01*
X41025Y-32905D01*
X41024Y-33094D01*
X41097Y-33268D01*
X41230Y-33402D01*
X41405Y-33474D01*
X41594Y-33475D01*
X41768Y-33402D01*
X41902Y-33269D01*
X41974Y-33094D01*
X41975Y-32905D01*
X41975Y-34200D01*
X40975Y-34200D01*
X40975Y-32905D01*
X40975Y-31905D01*
X40902Y-31731D01*
X40769Y-31597D01*
X40594Y-31525D01*
X40405Y-31524D01*
X40231Y-31597D01*
X40097Y-31730D01*
X40025Y-31905D01*
X40024Y-32094D01*
X40097Y-32268D01*
X40230Y-32402D01*
X40405Y-32474D01*
X40594Y-32475D01*
X40768Y-32402D01*
X40902Y-32269D01*
X40974Y-32094D01*
X40975Y-31905D01*
X40975Y-32905D01*
X40902Y-32731D01*
X40769Y-32597D01*
X40594Y-32525D01*
X40405Y-32524D01*
X40231Y-32597D01*
X40097Y-32730D01*
X40025Y-32905D01*
X40024Y-33094D01*
X40097Y-33268D01*
X40230Y-33402D01*
X40405Y-33474D01*
X40594Y-33475D01*
X40768Y-33402D01*
X40902Y-33269D01*
X40974Y-33094D01*
X40975Y-32905D01*
X40975Y-34200D01*
X39975Y-34200D01*
X39975Y-31905D01*
X39902Y-31731D01*
X39769Y-31597D01*
X39594Y-31525D01*
X39405Y-31524D01*
X39231Y-31597D01*
X39097Y-31730D01*
X39025Y-31905D01*
X39024Y-32094D01*
X39097Y-32268D01*
X39230Y-32402D01*
X39405Y-32474D01*
X39594Y-32475D01*
X39768Y-32402D01*
X39902Y-32269D01*
X39974Y-32094D01*
X39975Y-31905D01*
X39975Y-34200D01*
X39975Y-34200D01*
X39975Y-33295D01*
X39975Y-32645D01*
X39952Y-32590D01*
X39910Y-32547D01*
X39854Y-32525D01*
X39795Y-32524D01*
X39145Y-32524D01*
X39090Y-32547D01*
X39047Y-32589D01*
X39025Y-32645D01*
X39024Y-32704D01*
X39024Y-33354D01*
X39047Y-33409D01*
X39089Y-33452D01*
X39145Y-33474D01*
X39204Y-33475D01*
X39854Y-33475D01*
X39909Y-33452D01*
X39952Y-33410D01*
X39974Y-33354D01*
X39975Y-33295D01*
X39975Y-34200D01*
X37975Y-34200D01*
X37975Y-30405D01*
X37902Y-30231D01*
X37769Y-30097D01*
X37594Y-30025D01*
X37405Y-30024D01*
X37231Y-30097D01*
X37097Y-30230D01*
X37025Y-30405D01*
X37024Y-30594D01*
X37097Y-30768D01*
X37230Y-30902D01*
X37405Y-30974D01*
X37594Y-30975D01*
X37768Y-30902D01*
X37902Y-30769D01*
X37974Y-30594D01*
X37975Y-30405D01*
X37975Y-34200D01*
X36975Y-34200D01*
X36975Y-30405D01*
X36902Y-30231D01*
X36769Y-30097D01*
X36594Y-30025D01*
X36405Y-30024D01*
X36231Y-30097D01*
X36097Y-30230D01*
X36025Y-30405D01*
X36024Y-30594D01*
X36097Y-30768D01*
X36230Y-30902D01*
X36405Y-30974D01*
X36594Y-30975D01*
X36768Y-30902D01*
X36902Y-30769D01*
X36974Y-30594D01*
X36975Y-30405D01*
X36975Y-34200D01*
X35975Y-34200D01*
X35975Y-30405D01*
X35902Y-30231D01*
X35769Y-30097D01*
X35594Y-30025D01*
X35405Y-30024D01*
X35231Y-30097D01*
X35097Y-30230D01*
X35025Y-30405D01*
X35024Y-30594D01*
X35097Y-30768D01*
X35230Y-30902D01*
X35405Y-30974D01*
X35594Y-30975D01*
X35768Y-30902D01*
X35902Y-30769D01*
X35974Y-30594D01*
X35975Y-30405D01*
X35975Y-34200D01*
X35000Y-34200D01*
X34975Y-34200D01*
X34975Y-30405D01*
X34902Y-30231D01*
X34769Y-30097D01*
X34594Y-30025D01*
X34405Y-30024D01*
X34231Y-30097D01*
X34097Y-30230D01*
X34025Y-30405D01*
X34024Y-30594D01*
X34097Y-30768D01*
X34230Y-30902D01*
X34405Y-30974D01*
X34594Y-30975D01*
X34768Y-30902D01*
X34902Y-30769D01*
X34974Y-30594D01*
X34975Y-30405D01*
X34975Y-34200D01*
X33975Y-34200D01*
X33975Y-32905D01*
X33975Y-31905D01*
X33975Y-30405D01*
X33902Y-30231D01*
X33769Y-30097D01*
X33594Y-30025D01*
X33405Y-30024D01*
X33231Y-30097D01*
X33097Y-30230D01*
X33025Y-30405D01*
X33024Y-30594D01*
X33097Y-30768D01*
X33230Y-30902D01*
X33405Y-30974D01*
X33594Y-30975D01*
X33768Y-30902D01*
X33902Y-30769D01*
X33974Y-30594D01*
X33975Y-30405D01*
X33975Y-31905D01*
X33902Y-31731D01*
X33769Y-31597D01*
X33594Y-31525D01*
X33405Y-31524D01*
X33231Y-31597D01*
X33097Y-31730D01*
X33025Y-31905D01*
X33024Y-32094D01*
X33097Y-32268D01*
X33230Y-32402D01*
X33405Y-32474D01*
X33594Y-32475D01*
X33768Y-32402D01*
X33902Y-32269D01*
X33974Y-32094D01*
X33975Y-31905D01*
X33975Y-32905D01*
X33902Y-32731D01*
X33769Y-32597D01*
X33594Y-32525D01*
X33405Y-32524D01*
X33231Y-32597D01*
X33097Y-32730D01*
X33025Y-32905D01*
X33024Y-33094D01*
X33097Y-33268D01*
X33230Y-33402D01*
X33405Y-33474D01*
X33594Y-33475D01*
X33768Y-33402D01*
X33902Y-33269D01*
X33974Y-33094D01*
X33975Y-32905D01*
X33975Y-34200D01*
X32975Y-34200D01*
X32975Y-32905D01*
X32975Y-31905D01*
X32975Y-30405D01*
X32902Y-30231D01*
X32769Y-30097D01*
X32678Y-30059D01*
X32678Y-29393D01*
X32678Y-29350D01*
X32628Y-29300D01*
X32372Y-29300D01*
X32372Y-29583D01*
X32422Y-29633D01*
X32517Y-29633D01*
X32591Y-29602D01*
X32647Y-29546D01*
X32678Y-29473D01*
X32678Y-29393D01*
X32678Y-30059D01*
X32594Y-30025D01*
X32405Y-30024D01*
X32231Y-30097D01*
X32097Y-30230D01*
X32025Y-30405D01*
X32024Y-30594D01*
X32097Y-30768D01*
X32230Y-30902D01*
X32405Y-30974D01*
X32594Y-30975D01*
X32768Y-30902D01*
X32902Y-30769D01*
X32974Y-30594D01*
X32975Y-30405D01*
X32975Y-31905D01*
X32902Y-31731D01*
X32769Y-31597D01*
X32594Y-31525D01*
X32405Y-31524D01*
X32231Y-31597D01*
X32097Y-31730D01*
X32025Y-31905D01*
X32024Y-32094D01*
X32097Y-32268D01*
X32230Y-32402D01*
X32405Y-32474D01*
X32594Y-32475D01*
X32768Y-32402D01*
X32902Y-32269D01*
X32974Y-32094D01*
X32975Y-31905D01*
X32975Y-32905D01*
X32902Y-32731D01*
X32769Y-32597D01*
X32594Y-32525D01*
X32405Y-32524D01*
X32231Y-32597D01*
X32097Y-32730D01*
X32025Y-32905D01*
X32024Y-33094D01*
X32097Y-33268D01*
X32230Y-33402D01*
X32405Y-33474D01*
X32594Y-33475D01*
X32768Y-33402D01*
X32902Y-33269D01*
X32974Y-33094D01*
X32975Y-32905D01*
X32975Y-34200D01*
X31975Y-34200D01*
X31975Y-31905D01*
X31902Y-31731D01*
X31769Y-31597D01*
X31594Y-31525D01*
X31405Y-31524D01*
X31231Y-31597D01*
X31097Y-31730D01*
X31025Y-31905D01*
X31024Y-32094D01*
X31097Y-32268D01*
X31230Y-32402D01*
X31405Y-32474D01*
X31594Y-32475D01*
X31768Y-32402D01*
X31902Y-32269D01*
X31974Y-32094D01*
X31975Y-31905D01*
X31975Y-34200D01*
X31975Y-34200D01*
X31975Y-33295D01*
X31975Y-32645D01*
X31952Y-32590D01*
X31910Y-32547D01*
X31854Y-32525D01*
X31795Y-32524D01*
X31145Y-32524D01*
X31090Y-32547D01*
X31047Y-32589D01*
X31025Y-32645D01*
X31024Y-32704D01*
X31024Y-33354D01*
X31047Y-33409D01*
X31089Y-33452D01*
X31145Y-33474D01*
X31204Y-33475D01*
X31854Y-33475D01*
X31909Y-33452D01*
X31952Y-33410D01*
X31974Y-33354D01*
X31975Y-33295D01*
X31975Y-34200D01*
X30511Y-34200D01*
X30029Y-33958D01*
X29791Y-33720D01*
X29550Y-33238D01*
X29550Y-24323D01*
X29581Y-24347D01*
X30429Y-23500D01*
X30423Y-23494D01*
X30494Y-23423D01*
X30500Y-23429D01*
X30505Y-23423D01*
X30576Y-23494D01*
X30570Y-23500D01*
X31418Y-24347D01*
X31580Y-24223D01*
X31774Y-23754D01*
X31775Y-23247D01*
X31590Y-22800D01*
X53979Y-22800D01*
X54200Y-23020D01*
X54200Y-23250D01*
X54200Y-23520D01*
X54479Y-23800D01*
X55676Y-23800D01*
X55652Y-23831D01*
X56500Y-24679D01*
X56505Y-24673D01*
X56576Y-24744D01*
X56570Y-24750D01*
X56576Y-24755D01*
M02*
