M48
;DRILL file {Pcbnew (2013-07-07 BZR 4022)-stable} date 5/12/2014 12:12:36 PM
;FORMAT={3:3/ absolute / metric / keep zeros}
FMAT,2
METRIC,TZ
T1C1.016
T2C3.175
%
G90
G05
M71
T1
X077470Y-064770
X077470Y-077470
X080010Y-064770
X080010Y-077470
X080010Y-081280
X080010Y-083820
X082550Y-060325
X082550Y-064770
X082550Y-077470
X082550Y-081280
X082550Y-083820
X085090Y-060325
X085090Y-064770
X085090Y-077470
X085090Y-081280
X085090Y-083820
X087630Y-060325
X087630Y-064770
X087630Y-068580
X087630Y-071120
X087630Y-077470
X090170Y-060325
X090170Y-064770
X090170Y-068580
X090170Y-071120
X090170Y-077470
X092710Y-064770
X092710Y-068580
X092710Y-071120
X092710Y-077470
X095250Y-064770
X095250Y-077470
X097790Y-064770
X097790Y-077470
X100330Y-064770
X100330Y-077470
X100330Y-081280
X100330Y-083820
X102870Y-060325
X102870Y-064770
X102870Y-077470
X102870Y-081280
X102870Y-083820
X105410Y-060325
X105410Y-064770
X105410Y-077470
X105410Y-081280
X105410Y-083820
X107950Y-060325
X107950Y-064770
X107950Y-068580
X107950Y-071120
X107950Y-077470
X110490Y-060325
X110490Y-064770
X110490Y-068580
X110490Y-071120
X110490Y-077470
X113030Y-064770
X113030Y-068580
X113030Y-071120
X113030Y-077470
X115570Y-064770
X115570Y-068580
X115570Y-071120
X115570Y-077470
X118110Y-064770
X118110Y-077470
X120650Y-064770
X120650Y-077470
X120650Y-081280
X120650Y-083820
X123190Y-060325
X123190Y-064770
X123190Y-077470
X123190Y-081280
X123190Y-083820
X125730Y-060325
X125730Y-064770
X125730Y-077470
X125730Y-081280
X125730Y-083820
X128270Y-060325
X128270Y-064770
X128270Y-068580
X128270Y-071120
X128270Y-077470
X130810Y-060325
X130810Y-064770
X130810Y-068580
X130810Y-071120
X130810Y-077470
X133350Y-064770
X133350Y-068580
X133350Y-071120
X133350Y-077470
X135890Y-064770
X135890Y-068580
X135890Y-071120
X135890Y-077470
T2
X077470Y-059690
X143510Y-062865
T0
M30
