G04 (created by PCBNEW (2013-07-07 BZR 4022)-stable) date 5/12/2014 12:12:32 PM*
%MOIN*%
G04 Gerber Fmt 3.4, Leading zero omitted, Abs format*
%FSLAX34Y34*%
G01*
G70*
G90*
G04 APERTURE LIST*
%ADD10C,0.008*%
%ADD11C,0.012*%
%ADD12C,0.015*%
%ADD13C,0.085*%
%ADD14R,0.085X0.085*%
%ADD15C,0.235*%
G04 APERTURE END LIST*
G54D10*
G54D11*
X57750Y-24750D02*
G75*
G03X57750Y-24750I-1250J0D01*
G74*
G01*
X31750Y-23500D02*
G75*
G03X31750Y-23500I-1250J0D01*
G74*
G01*
X54000Y-26500D02*
X50000Y-26500D01*
X50000Y-26500D02*
X50000Y-28500D01*
X50000Y-28500D02*
X54000Y-28500D01*
X54000Y-26500D02*
X54000Y-28500D01*
X46000Y-26500D02*
X42000Y-26500D01*
X42000Y-26500D02*
X42000Y-28500D01*
X42000Y-28500D02*
X46000Y-28500D01*
X46000Y-26500D02*
X46000Y-28500D01*
X37000Y-26500D02*
X34000Y-26500D01*
X34000Y-26500D02*
X34000Y-28500D01*
X34000Y-28500D02*
X37000Y-28500D01*
X37000Y-26500D02*
X37000Y-28500D01*
G54D12*
X54016Y-29533D02*
X54016Y-28833D01*
X53749Y-28833D01*
X53683Y-28866D01*
X53649Y-28900D01*
X53616Y-28966D01*
X53616Y-29066D01*
X53649Y-29133D01*
X53683Y-29166D01*
X53749Y-29200D01*
X54016Y-29200D01*
X53383Y-28833D02*
X52916Y-28833D01*
X53216Y-29533D01*
X46016Y-29533D02*
X46016Y-28833D01*
X45749Y-28833D01*
X45683Y-28866D01*
X45649Y-28900D01*
X45616Y-28966D01*
X45616Y-29066D01*
X45649Y-29133D01*
X45683Y-29166D01*
X45749Y-29200D01*
X46016Y-29200D01*
X45216Y-29133D02*
X45283Y-29100D01*
X45316Y-29066D01*
X45349Y-29000D01*
X45349Y-28966D01*
X45316Y-28900D01*
X45283Y-28866D01*
X45216Y-28833D01*
X45083Y-28833D01*
X45016Y-28866D01*
X44983Y-28900D01*
X44949Y-28966D01*
X44949Y-29000D01*
X44983Y-29066D01*
X45016Y-29100D01*
X45083Y-29133D01*
X45216Y-29133D01*
X45283Y-29166D01*
X45316Y-29200D01*
X45349Y-29266D01*
X45349Y-29400D01*
X45316Y-29466D01*
X45283Y-29500D01*
X45216Y-29533D01*
X45083Y-29533D01*
X45016Y-29500D01*
X44983Y-29466D01*
X44949Y-29400D01*
X44949Y-29266D01*
X44983Y-29200D01*
X45016Y-29166D01*
X45083Y-29133D01*
X37016Y-29533D02*
X37016Y-28833D01*
X36749Y-28833D01*
X36683Y-28866D01*
X36649Y-28900D01*
X36616Y-28966D01*
X36616Y-29066D01*
X36649Y-29133D01*
X36683Y-29166D01*
X36749Y-29200D01*
X37016Y-29200D01*
X36283Y-29533D02*
X36149Y-29533D01*
X36083Y-29500D01*
X36049Y-29466D01*
X35983Y-29366D01*
X35949Y-29233D01*
X35949Y-28966D01*
X35983Y-28900D01*
X36016Y-28866D01*
X36083Y-28833D01*
X36216Y-28833D01*
X36283Y-28866D01*
X36316Y-28900D01*
X36349Y-28966D01*
X36349Y-29133D01*
X36316Y-29200D01*
X36283Y-29233D01*
X36216Y-29266D01*
X36083Y-29266D01*
X36016Y-29233D01*
X35983Y-29200D01*
X35949Y-29133D01*
%LPC*%
G54D13*
X46500Y-30500D03*
X47500Y-30500D03*
X48500Y-30500D03*
X49500Y-30500D03*
X50500Y-30500D03*
X51500Y-30500D03*
X52500Y-30500D03*
X53500Y-30500D03*
X53500Y-25500D03*
X52500Y-25500D03*
X51500Y-25500D03*
X50500Y-25500D03*
X49500Y-25500D03*
X48500Y-25500D03*
X47500Y-25500D03*
X46500Y-25500D03*
X38500Y-30500D03*
X39500Y-30500D03*
X40500Y-30500D03*
X41500Y-30500D03*
X42500Y-30500D03*
X43500Y-30500D03*
X44500Y-30500D03*
X45500Y-30500D03*
X45500Y-25500D03*
X44500Y-25500D03*
X43500Y-25500D03*
X42500Y-25500D03*
X41500Y-25500D03*
X40500Y-25500D03*
X39500Y-25500D03*
X38500Y-25500D03*
X30500Y-30500D03*
X31500Y-30500D03*
X32500Y-30500D03*
X33500Y-30500D03*
X34500Y-30500D03*
X35500Y-30500D03*
X36500Y-30500D03*
X37500Y-30500D03*
X37500Y-25500D03*
X36500Y-25500D03*
X35500Y-25500D03*
X34500Y-25500D03*
X33500Y-25500D03*
X32500Y-25500D03*
X31500Y-25500D03*
X30500Y-25500D03*
G54D14*
X47500Y-33000D03*
G54D13*
X47500Y-32000D03*
X48500Y-33000D03*
X48500Y-32000D03*
X49500Y-33000D03*
X49500Y-32000D03*
G54D14*
X39500Y-33000D03*
G54D13*
X39500Y-32000D03*
X40500Y-33000D03*
X40500Y-32000D03*
X41500Y-33000D03*
X41500Y-32000D03*
G54D14*
X31500Y-33000D03*
G54D13*
X31500Y-32000D03*
X32500Y-33000D03*
X32500Y-32000D03*
X33500Y-33000D03*
X33500Y-32000D03*
G54D14*
X48500Y-23750D03*
G54D13*
X49500Y-23750D03*
X50500Y-23750D03*
X51500Y-23750D03*
G54D14*
X40500Y-23750D03*
G54D13*
X41500Y-23750D03*
X42500Y-23750D03*
X43500Y-23750D03*
G54D14*
X32500Y-23750D03*
G54D13*
X33500Y-23750D03*
X34500Y-23750D03*
X35500Y-23750D03*
G54D15*
X30500Y-23500D03*
X56500Y-24750D03*
G54D14*
X53500Y-27000D03*
G54D13*
X53500Y-28000D03*
X52500Y-27000D03*
X52500Y-28000D03*
X51500Y-27000D03*
X51500Y-28000D03*
X50500Y-27000D03*
X50500Y-28000D03*
G54D14*
X45500Y-27000D03*
G54D13*
X45500Y-28000D03*
X44500Y-27000D03*
X44500Y-28000D03*
X43500Y-27000D03*
X43500Y-28000D03*
X42500Y-27000D03*
X42500Y-28000D03*
G54D14*
X36500Y-27000D03*
G54D13*
X36500Y-28000D03*
X35500Y-27000D03*
X35500Y-28000D03*
X34500Y-27000D03*
X34500Y-28000D03*
M02*
