G75*
G70*
%OFA0B0*%
%FSLAX25Y25*%
%IPPOS*%
%LPD*%
%AMOC8*
5,1,8,0,0,1.08239X$1,22.5*
%
%ADD12R,0.06000X0.06000*%
%ADD23C,0.00600*%
%ADD25C,0.06000*%
%ADD26R,0.06720X0.06720*%
%ADD29C,0.19720*%
%ADD31R,0.07500X0.07500*%
%ADD35R,0.11840X0.07500*%
%ADD37R,0.08000X0.08000*%
%ADD38C,0.09000*%
%ADD41R,0.10000X0.16400*%
%ADD42C,0.07500*%
%ADD44R,0.03050X0.07500*%
%ADD47R,0.03970X0.03970*%
%ADD49C,0.09870*%
%ADD50R,0.03570X0.04360*%
%ADD52R,0.08300X0.07910*%
%ADD58R,0.09000X0.09000*%
%ADD63R,0.07500X0.05500*%
%ADD64R,0.03650X0.07790*%
%ADD66C,0.10660*%
%ADD69R,0.07500X0.03050*%
%ADD72R,0.06720X0.19720*%
%ADD74R,0.10000X0.06000*%
%ADD75C,0.08000*%
%ADD78R,0.07710X0.07910*%
%ADD91R,0.05500X0.07500*%
X0010000Y0010000D02*
G01*
D23*
D38*
X0037500Y0152500D03*
X0037500Y0162500D03*
D58*
X0037500Y0142500D03*
D38*
X0037500Y0110000D03*
X0037500Y0120000D03*
D58*
X0037500Y0100000D03*
D41*
X0115500Y0070000D03*
D74*
X0089500Y0070000D03*
X0089500Y0061000D03*
X0089500Y0079000D03*
D63*
X0052500Y0083750D03*
X0052500Y0076250D03*
X0365000Y0138750D03*
X0365000Y0146250D03*
X0367500Y0042250D03*
X0367500Y0034750D03*
X0368500Y0074750D03*
X0368500Y0067250D03*
X0205000Y0141250D03*
X0205000Y0148750D03*
X0125000Y0138750D03*
X0125000Y0146250D03*
X0207500Y0068750D03*
X0207500Y0061250D03*
X0052500Y0066250D03*
X0052500Y0058750D03*
X0065000Y0058750D03*
X0065000Y0066250D03*
X0285000Y0141250D03*
X0285000Y0148750D03*
X0092500Y0021250D03*
X0092500Y0028750D03*
X0092500Y0043750D03*
X0092500Y0036250D03*
X0207500Y0041250D03*
X0207500Y0048750D03*
D37*
X0055000Y0120000D03*
D75*
X0065000Y0120000D03*
D37*
X0085000Y0120000D03*
D75*
X0075000Y0120000D03*
D37*
X0105000Y0120000D03*
D75*
X0095000Y0120000D03*
D37*
X0135000Y0120000D03*
D75*
X0145000Y0120000D03*
D37*
X0165000Y0120000D03*
D75*
X0155000Y0120000D03*
D37*
X0185000Y0120000D03*
D75*
X0175000Y0120000D03*
D37*
X0215000Y0120000D03*
D75*
X0225000Y0120000D03*
D37*
X0245000Y0120000D03*
D75*
X0235000Y0120000D03*
D37*
X0265000Y0120000D03*
D75*
X0255000Y0120000D03*
D37*
X0295000Y0120000D03*
D75*
X0305000Y0120000D03*
D37*
X0345000Y0120000D03*
D75*
X0335000Y0120000D03*
D37*
X0325000Y0120000D03*
D75*
X0315000Y0120000D03*
D37*
X0135000Y0020000D03*
D75*
X0145000Y0020000D03*
X0155000Y0020000D03*
X0165000Y0020000D03*
X0175000Y0020000D03*
X0185000Y0020000D03*
D38*
X0105000Y0042500D03*
D58*
X0105000Y0032500D03*
D38*
X0105000Y0022500D03*
D69*
X0237500Y0063340D03*
D44*
X0244160Y0035000D03*
D69*
X0272500Y0041660D03*
D44*
X0265840Y0070000D03*
D69*
X0237500Y0061370D03*
D44*
X0246130Y0035000D03*
D69*
X0272500Y0043630D03*
D44*
X0263870Y0070000D03*
D69*
X0237500Y0059400D03*
D44*
X0248100Y0035000D03*
D69*
X0272500Y0045600D03*
D44*
X0261900Y0070000D03*
D69*
X0237500Y0057430D03*
D44*
X0250070Y0035000D03*
D69*
X0272500Y0047570D03*
D44*
X0259930Y0070000D03*
D69*
X0237500Y0055460D03*
D44*
X0252040Y0035000D03*
D69*
X0272500Y0049540D03*
D44*
X0257960Y0070000D03*
D69*
X0237500Y0053490D03*
D44*
X0254010Y0035000D03*
D69*
X0272500Y0051510D03*
D44*
X0255990Y0070000D03*
D69*
X0237500Y0051520D03*
D44*
X0255980Y0035000D03*
D69*
X0272500Y0053480D03*
D44*
X0254020Y0070000D03*
D69*
X0237500Y0049550D03*
D44*
X0257950Y0035000D03*
D69*
X0272500Y0055450D03*
D44*
X0252050Y0070000D03*
D69*
X0237500Y0047580D03*
D44*
X0259920Y0035000D03*
D69*
X0272500Y0057420D03*
D44*
X0250080Y0070000D03*
D69*
X0237500Y0045610D03*
D44*
X0261890Y0035000D03*
D69*
X0272500Y0059390D03*
D44*
X0248110Y0070000D03*
D69*
X0237500Y0043640D03*
D44*
X0263860Y0035000D03*
D69*
X0272500Y0061360D03*
D44*
X0246140Y0070000D03*
D69*
X0237500Y0041670D03*
D44*
X0265830Y0035000D03*
D69*
X0272500Y0063330D03*
D44*
X0244170Y0070000D03*
D35*
X0355290Y0061360D03*
X0355290Y0043640D03*
X0329700Y0061360D03*
X0329700Y0043640D03*
D63*
X0289500Y0066250D03*
X0289500Y0058750D03*
D91*
X0276250Y0035000D03*
X0283750Y0035000D03*
D63*
X0217500Y0068750D03*
X0217500Y0061250D03*
X0296500Y0066250D03*
X0296500Y0058750D03*
X0217500Y0041250D03*
X0217500Y0048750D03*
D91*
X0237250Y0075000D03*
X0229750Y0075000D03*
D63*
X0207500Y0016250D03*
X0207500Y0023750D03*
D91*
X0289650Y0075200D03*
X0297150Y0075200D03*
D63*
X0217500Y0016250D03*
X0217500Y0023750D03*
X0227500Y0023750D03*
X0227500Y0016250D03*
D12*
X0322500Y0020000D03*
D25*
X0322500Y0025000D03*
X0327500Y0020000D03*
X0327500Y0025000D03*
X0332500Y0020000D03*
X0332500Y0025000D03*
X0337500Y0020000D03*
X0337500Y0025000D03*
X0342500Y0020000D03*
X0342500Y0025000D03*
D37*
X0317500Y0082500D03*
D75*
X0317500Y0072500D03*
D63*
X0368500Y0062250D03*
X0368500Y0054750D03*
X0365500Y0029750D03*
X0365500Y0022250D03*
D58*
X0065000Y0042500D03*
D38*
X0065000Y0022500D03*
D66*
X0192500Y0067150D03*
D72*
X0192500Y0039390D03*
X0192500Y0075610D03*
D66*
X0192500Y0047850D03*
D49*
X0095000Y0190000D03*
X0115000Y0190000D03*
X0075000Y0190000D03*
X0055000Y0190000D03*
X0175000Y0190000D03*
X0195000Y0190000D03*
X0155000Y0190000D03*
X0135000Y0190000D03*
X0335000Y0190000D03*
X0355000Y0190000D03*
X0315000Y0190000D03*
X0295000Y0190000D03*
X0255000Y0190000D03*
X0275000Y0190000D03*
X0235000Y0190000D03*
X0215000Y0190000D03*
X0025000Y0055000D03*
X0025000Y0075000D03*
D63*
X0077500Y0076250D03*
X0077500Y0083750D03*
D26*
X0065000Y0075870D03*
X0065000Y0084130D03*
D37*
X0130000Y0062500D03*
D75*
X0130000Y0072500D03*
X0130000Y0082500D03*
D37*
X0020000Y0167500D03*
D75*
X0020000Y0157500D03*
X0020000Y0147500D03*
X0020000Y0137500D03*
D37*
X0020000Y0125000D03*
D75*
X0020000Y0115000D03*
X0020000Y0105000D03*
X0020000Y0095000D03*
D37*
X0387500Y0107000D03*
D75*
X0387500Y0097000D03*
X0387500Y0087000D03*
D37*
X0387500Y0138500D03*
D75*
X0387500Y0128500D03*
X0387500Y0118500D03*
D37*
X0387500Y0170000D03*
D75*
X0387500Y0160000D03*
X0387500Y0150000D03*
D37*
X0387500Y0076000D03*
D75*
X0387500Y0066000D03*
D37*
X0387500Y0055000D03*
D75*
X0387500Y0045000D03*
D37*
X0145000Y0040000D03*
D75*
X0135000Y0040000D03*
D37*
X0170000Y0040000D03*
D75*
X0160000Y0040000D03*
D29*
X0385000Y0025000D03*
X0385000Y0190000D03*
X0025000Y0190000D03*
X0025000Y0025000D03*
D75*
X0365000Y0100000D03*
X0355000Y0100000D03*
X0345000Y0100000D03*
X0335000Y0100000D03*
X0325000Y0100000D03*
X0315000Y0100000D03*
X0305000Y0100000D03*
X0295000Y0100000D03*
X0295000Y0160000D03*
X0305000Y0160000D03*
X0315000Y0160000D03*
X0325000Y0160000D03*
X0335000Y0160000D03*
X0345000Y0160000D03*
X0355000Y0160000D03*
X0365000Y0160000D03*
X0295000Y0110000D03*
X0305000Y0110000D03*
X0315000Y0110000D03*
X0325000Y0110000D03*
X0335000Y0110000D03*
X0345000Y0110000D03*
X0355000Y0110000D03*
X0365000Y0110000D03*
X0285000Y0100000D03*
X0275000Y0100000D03*
X0265000Y0100000D03*
X0255000Y0100000D03*
X0245000Y0100000D03*
X0235000Y0100000D03*
X0225000Y0100000D03*
X0215000Y0100000D03*
X0215000Y0160000D03*
X0225000Y0160000D03*
X0235000Y0160000D03*
X0245000Y0160000D03*
X0255000Y0160000D03*
X0265000Y0160000D03*
X0275000Y0160000D03*
X0285000Y0160000D03*
X0215000Y0110000D03*
X0225000Y0110000D03*
X0235000Y0110000D03*
X0245000Y0110000D03*
X0255000Y0110000D03*
X0265000Y0110000D03*
X0275000Y0110000D03*
X0285000Y0110000D03*
X0205000Y0100000D03*
X0195000Y0100000D03*
X0185000Y0100000D03*
X0175000Y0100000D03*
X0165000Y0100000D03*
X0155000Y0100000D03*
X0145000Y0100000D03*
X0135000Y0100000D03*
X0135000Y0160000D03*
X0145000Y0160000D03*
X0155000Y0160000D03*
X0165000Y0160000D03*
X0175000Y0160000D03*
X0185000Y0160000D03*
X0195000Y0160000D03*
X0205000Y0160000D03*
X0135000Y0110000D03*
X0145000Y0110000D03*
X0155000Y0110000D03*
X0165000Y0110000D03*
X0175000Y0110000D03*
X0185000Y0110000D03*
X0195000Y0110000D03*
X0205000Y0110000D03*
X0125000Y0100000D03*
X0115000Y0100000D03*
X0105000Y0100000D03*
X0095000Y0100000D03*
X0085000Y0100000D03*
X0075000Y0100000D03*
X0065000Y0100000D03*
X0055000Y0100000D03*
X0055000Y0160000D03*
X0065000Y0160000D03*
X0075000Y0160000D03*
X0085000Y0160000D03*
X0095000Y0160000D03*
X0105000Y0160000D03*
X0115000Y0160000D03*
X0125000Y0160000D03*
X0055000Y0110000D03*
X0065000Y0110000D03*
X0075000Y0110000D03*
X0085000Y0110000D03*
X0095000Y0110000D03*
X0105000Y0110000D03*
X0115000Y0110000D03*
X0125000Y0110000D03*
D50*
X0080730Y0045000D03*
X0084270Y0045000D03*
X0080730Y0035000D03*
X0084270Y0035000D03*
D63*
X0242500Y0023750D03*
X0242500Y0016250D03*
D31*
X0065000Y0135000D03*
D42*
X0065000Y0145000D03*
D31*
X0145000Y0135000D03*
D42*
X0145000Y0145000D03*
D31*
X0225000Y0135000D03*
D42*
X0225000Y0145000D03*
D31*
X0305000Y0135000D03*
D42*
X0305000Y0145000D03*
X0010000Y0206500D02*
G01*
D23*
D52*
X0078500Y0234500D03*
D26*
X0084210Y0248280D03*
X0072790Y0248280D03*
D63*
X0073000Y0227250D03*
X0073000Y0219750D03*
D91*
X0043750Y0261500D03*
X0036250Y0261500D03*
X0056250Y0261500D03*
X0063750Y0261500D03*
X0046250Y0219000D03*
X0053750Y0219000D03*
D63*
X0015000Y0244250D03*
X0015000Y0236750D03*
X0085500Y0227250D03*
X0085500Y0219750D03*
X0081000Y0263750D03*
X0081000Y0256250D03*
X0024500Y0236750D03*
X0024500Y0244250D03*
D91*
X0014250Y0258500D03*
X0021750Y0258500D03*
D63*
X0024500Y0229750D03*
X0024500Y0222250D03*
X0073000Y0263750D03*
X0073000Y0256250D03*
D91*
X0014250Y0252000D03*
X0021750Y0252000D03*
D63*
X0015000Y0222250D03*
X0015000Y0229750D03*
D31*
X0015000Y0271500D03*
D42*
X0025000Y0271500D03*
X0035000Y0271500D03*
X0045000Y0271500D03*
X0055000Y0271500D03*
X0065000Y0271500D03*
X0075000Y0271500D03*
X0085000Y0271500D03*
D31*
X0015000Y0211500D03*
D42*
X0025000Y0211500D03*
X0035000Y0211500D03*
X0045000Y0211500D03*
X0055000Y0211500D03*
X0065000Y0211500D03*
X0075000Y0211500D03*
X0085000Y0211500D03*
D78*
X0055710Y0236040D03*
X0050000Y0236040D03*
X0044290Y0236040D03*
X0044290Y0241950D03*
D64*
X0048720Y0227980D03*
X0051280Y0227980D03*
X0053840Y0227980D03*
X0056400Y0227980D03*
X0041080Y0250000D03*
X0041040Y0227980D03*
X0043600Y0227980D03*
X0046160Y0227980D03*
X0058960Y0250020D03*
X0056400Y0250020D03*
X0053840Y0250020D03*
X0051280Y0250020D03*
X0048720Y0250020D03*
X0046160Y0250020D03*
X0058960Y0227980D03*
X0043600Y0250000D03*
X0038480Y0227980D03*
X0061520Y0227980D03*
X0061520Y0250020D03*
X0038480Y0250020D03*
X0035930Y0227980D03*
X0064070Y0227980D03*
X0064070Y0250020D03*
X0035930Y0250020D03*
D78*
X0050000Y0241950D03*
X0055710Y0241950D03*
D47*
X0030000Y0260010D03*
X0030000Y0262970D03*
X0091500Y0206500D02*
G01*
D23*
D52*
X0160000Y0234500D03*
D26*
X0165710Y0248280D03*
X0154290Y0248280D03*
D63*
X0154500Y0227250D03*
X0154500Y0219750D03*
D91*
X0125250Y0261500D03*
X0117750Y0261500D03*
X0137750Y0261500D03*
X0145250Y0261500D03*
X0127750Y0219000D03*
X0135250Y0219000D03*
D63*
X0096500Y0244250D03*
X0096500Y0236750D03*
X0167000Y0227250D03*
X0167000Y0219750D03*
X0162500Y0263750D03*
X0162500Y0256250D03*
X0106000Y0236750D03*
X0106000Y0244250D03*
D91*
X0095750Y0258500D03*
X0103250Y0258500D03*
D63*
X0106000Y0229750D03*
X0106000Y0222250D03*
X0154500Y0263750D03*
X0154500Y0256250D03*
D91*
X0095750Y0252000D03*
X0103250Y0252000D03*
D63*
X0096500Y0222250D03*
X0096500Y0229750D03*
D31*
X0096500Y0271500D03*
D42*
X0106500Y0271500D03*
X0116500Y0271500D03*
X0126500Y0271500D03*
X0136500Y0271500D03*
X0146500Y0271500D03*
X0156500Y0271500D03*
X0166500Y0271500D03*
D31*
X0096500Y0211500D03*
D42*
X0106500Y0211500D03*
X0116500Y0211500D03*
X0126500Y0211500D03*
X0136500Y0211500D03*
X0146500Y0211500D03*
X0156500Y0211500D03*
X0166500Y0211500D03*
D78*
X0137210Y0236040D03*
X0131500Y0236040D03*
X0125790Y0236040D03*
X0125790Y0241950D03*
D64*
X0130220Y0227980D03*
X0132780Y0227980D03*
X0135340Y0227980D03*
X0137900Y0227980D03*
X0122580Y0250000D03*
X0122540Y0227980D03*
X0125100Y0227980D03*
X0127660Y0227980D03*
X0140460Y0250020D03*
X0137900Y0250020D03*
X0135340Y0250020D03*
X0132780Y0250020D03*
X0130220Y0250020D03*
X0127660Y0250020D03*
X0140460Y0227980D03*
X0125100Y0250000D03*
X0119980Y0227980D03*
X0143020Y0227980D03*
X0143020Y0250020D03*
X0119980Y0250020D03*
X0117430Y0227980D03*
X0145570Y0227980D03*
X0145570Y0250020D03*
X0117430Y0250020D03*
D78*
X0131500Y0241950D03*
X0137210Y0241950D03*
D47*
X0111500Y0260010D03*
X0111500Y0262970D03*
X0173000Y0206500D02*
G01*
D23*
D52*
X0241500Y0234500D03*
D26*
X0247210Y0248280D03*
X0235790Y0248280D03*
D63*
X0236000Y0227250D03*
X0236000Y0219750D03*
D91*
X0206750Y0261500D03*
X0199250Y0261500D03*
X0219250Y0261500D03*
X0226750Y0261500D03*
X0209250Y0219000D03*
X0216750Y0219000D03*
D63*
X0178000Y0244250D03*
X0178000Y0236750D03*
X0248500Y0227250D03*
X0248500Y0219750D03*
X0244000Y0263750D03*
X0244000Y0256250D03*
X0187500Y0236750D03*
X0187500Y0244250D03*
D91*
X0177250Y0258500D03*
X0184750Y0258500D03*
D63*
X0187500Y0229750D03*
X0187500Y0222250D03*
X0236000Y0263750D03*
X0236000Y0256250D03*
D91*
X0177250Y0252000D03*
X0184750Y0252000D03*
D63*
X0178000Y0222250D03*
X0178000Y0229750D03*
D31*
X0178000Y0271500D03*
D42*
X0188000Y0271500D03*
X0198000Y0271500D03*
X0208000Y0271500D03*
X0218000Y0271500D03*
X0228000Y0271500D03*
X0238000Y0271500D03*
X0248000Y0271500D03*
D31*
X0178000Y0211500D03*
D42*
X0188000Y0211500D03*
X0198000Y0211500D03*
X0208000Y0211500D03*
X0218000Y0211500D03*
X0228000Y0211500D03*
X0238000Y0211500D03*
X0248000Y0211500D03*
D78*
X0218710Y0236040D03*
X0213000Y0236040D03*
X0207290Y0236040D03*
X0207290Y0241950D03*
D64*
X0211720Y0227980D03*
X0214280Y0227980D03*
X0216840Y0227980D03*
X0219400Y0227980D03*
X0204080Y0250000D03*
X0204040Y0227980D03*
X0206600Y0227980D03*
X0209160Y0227980D03*
X0221960Y0250020D03*
X0219400Y0250020D03*
X0216840Y0250020D03*
X0214280Y0250020D03*
X0211720Y0250020D03*
X0209160Y0250020D03*
X0221960Y0227980D03*
X0206600Y0250000D03*
X0201480Y0227980D03*
X0224520Y0227980D03*
X0224520Y0250020D03*
X0201480Y0250020D03*
X0198930Y0227980D03*
X0227070Y0227980D03*
X0227070Y0250020D03*
X0198930Y0250020D03*
D78*
X0213000Y0241950D03*
X0218710Y0241950D03*
D47*
X0193000Y0260010D03*
X0193000Y0262970D03*
X0254500Y0206500D02*
G01*
D23*
D52*
X0323000Y0234500D03*
D26*
X0328710Y0248280D03*
X0317290Y0248280D03*
D63*
X0317500Y0227250D03*
X0317500Y0219750D03*
D91*
X0288250Y0261500D03*
X0280750Y0261500D03*
X0300750Y0261500D03*
X0308250Y0261500D03*
X0290750Y0219000D03*
X0298250Y0219000D03*
D63*
X0259500Y0244250D03*
X0259500Y0236750D03*
X0330000Y0227250D03*
X0330000Y0219750D03*
X0325500Y0263750D03*
X0325500Y0256250D03*
X0269000Y0236750D03*
X0269000Y0244250D03*
D91*
X0258750Y0258500D03*
X0266250Y0258500D03*
D63*
X0269000Y0229750D03*
X0269000Y0222250D03*
X0317500Y0263750D03*
X0317500Y0256250D03*
D91*
X0258750Y0252000D03*
X0266250Y0252000D03*
D63*
X0259500Y0222250D03*
X0259500Y0229750D03*
D31*
X0259500Y0271500D03*
D42*
X0269500Y0271500D03*
X0279500Y0271500D03*
X0289500Y0271500D03*
X0299500Y0271500D03*
X0309500Y0271500D03*
X0319500Y0271500D03*
X0329500Y0271500D03*
D31*
X0259500Y0211500D03*
D42*
X0269500Y0211500D03*
X0279500Y0211500D03*
X0289500Y0211500D03*
X0299500Y0211500D03*
X0309500Y0211500D03*
X0319500Y0211500D03*
X0329500Y0211500D03*
D78*
X0300210Y0236040D03*
X0294500Y0236040D03*
X0288790Y0236040D03*
X0288790Y0241950D03*
D64*
X0293220Y0227980D03*
X0295780Y0227980D03*
X0298340Y0227980D03*
X0300900Y0227980D03*
X0285580Y0250000D03*
X0285540Y0227980D03*
X0288100Y0227980D03*
X0290660Y0227980D03*
X0303460Y0250020D03*
X0300900Y0250020D03*
X0298340Y0250020D03*
X0295780Y0250020D03*
X0293220Y0250020D03*
X0290660Y0250020D03*
X0303460Y0227980D03*
X0288100Y0250000D03*
X0282980Y0227980D03*
X0306020Y0227980D03*
X0306020Y0250020D03*
X0282980Y0250020D03*
X0280430Y0227980D03*
X0308570Y0227980D03*
X0308570Y0250020D03*
X0280430Y0250020D03*
D78*
X0294500Y0241950D03*
X0300210Y0241950D03*
D47*
X0274500Y0260010D03*
X0274500Y0262970D03*
M02*
