G75*
G70*
%OFA0B0*%
%FSLAX25Y25*%
%IPPOS*%
%LPD*%
%AMOC8*
5,1,8,0,0,1.08239X$1,22.5*
%
%ADD12R,0.06000X0.06000*%
%ADD23C,0.00600*%
%ADD25C,0.06000*%
%ADD27R,0.04360X0.08890*%
%ADD29C,0.19720*%
%ADD31R,0.07500X0.07500*%
%ADD35R,0.11840X0.07500*%
%ADD37R,0.08000X0.08000*%
%ADD38C,0.09000*%
%ADD42C,0.07500*%
%ADD43R,0.07910X0.05940*%
%ADD49C,0.09870*%
%ADD53R,0.06330X0.07910*%
%ADD58R,0.09000X0.09000*%
%ADD60R,0.05150X0.07910*%
%ADD66C,0.10660*%
%ADD75C,0.08000*%
%ADD76R,0.05940X0.08100*%
%ADD78R,0.07710X0.07910*%
%ADD89R,0.07910X0.07910*%
X0010000Y0010000D02*
G01*
D23*
D38*
X0037500Y0152500D03*
X0037500Y0162500D03*
D58*
X0037500Y0142500D03*
D38*
X0037500Y0110000D03*
X0037500Y0120000D03*
D58*
X0037500Y0100000D03*
D37*
X0055000Y0120000D03*
D75*
X0065000Y0120000D03*
D37*
X0085000Y0120000D03*
D75*
X0075000Y0120000D03*
D37*
X0105000Y0120000D03*
D75*
X0095000Y0120000D03*
D37*
X0135000Y0120000D03*
D75*
X0145000Y0120000D03*
D37*
X0165000Y0120000D03*
D75*
X0155000Y0120000D03*
D37*
X0185000Y0120000D03*
D75*
X0175000Y0120000D03*
D37*
X0215000Y0120000D03*
D75*
X0225000Y0120000D03*
D37*
X0245000Y0120000D03*
D75*
X0235000Y0120000D03*
D37*
X0265000Y0120000D03*
D75*
X0255000Y0120000D03*
D37*
X0295000Y0120000D03*
D75*
X0305000Y0120000D03*
D37*
X0345000Y0120000D03*
D75*
X0335000Y0120000D03*
D37*
X0325000Y0120000D03*
D75*
X0315000Y0120000D03*
D37*
X0135000Y0020000D03*
D75*
X0145000Y0020000D03*
X0155000Y0020000D03*
X0165000Y0020000D03*
X0175000Y0020000D03*
X0185000Y0020000D03*
D38*
X0105000Y0042500D03*
D58*
X0105000Y0032500D03*
D38*
X0105000Y0022500D03*
D35*
X0355290Y0061360D03*
X0355290Y0043640D03*
X0329700Y0061360D03*
X0329700Y0043640D03*
D12*
X0322500Y0020000D03*
D25*
X0322500Y0025000D03*
X0327500Y0020000D03*
X0327500Y0025000D03*
X0332500Y0020000D03*
X0332500Y0025000D03*
X0337500Y0020000D03*
X0337500Y0025000D03*
X0342500Y0020000D03*
X0342500Y0025000D03*
D37*
X0317500Y0082500D03*
D75*
X0317500Y0072500D03*
D58*
X0065000Y0042500D03*
D38*
X0065000Y0022500D03*
D66*
X0192500Y0067150D03*
X0192500Y0047850D03*
D49*
X0095000Y0190000D03*
X0115000Y0190000D03*
X0075000Y0190000D03*
X0055000Y0190000D03*
X0175000Y0190000D03*
X0195000Y0190000D03*
X0155000Y0190000D03*
X0135000Y0190000D03*
X0335000Y0190000D03*
X0355000Y0190000D03*
X0315000Y0190000D03*
X0295000Y0190000D03*
X0255000Y0190000D03*
X0275000Y0190000D03*
X0235000Y0190000D03*
X0215000Y0190000D03*
X0025000Y0055000D03*
X0025000Y0075000D03*
D27*
X0292720Y0014450D03*
X0262410Y0014450D03*
X0266740Y0014450D03*
X0271070Y0014450D03*
X0275400Y0014450D03*
X0279730Y0014450D03*
X0284060Y0014450D03*
X0288390Y0014450D03*
D43*
X0297050Y0050670D03*
D76*
X0252960Y0056780D03*
D60*
X0298430Y0044770D03*
X0251380Y0047330D03*
D89*
X0252760Y0014650D03*
D53*
X0297830Y0014850D03*
D37*
X0130000Y0062500D03*
D75*
X0130000Y0072500D03*
X0130000Y0082500D03*
D37*
X0020000Y0167500D03*
D75*
X0020000Y0157500D03*
X0020000Y0147500D03*
X0020000Y0137500D03*
D37*
X0020000Y0125000D03*
D75*
X0020000Y0115000D03*
X0020000Y0105000D03*
X0020000Y0095000D03*
D37*
X0387500Y0107000D03*
D75*
X0387500Y0097000D03*
X0387500Y0087000D03*
D37*
X0387500Y0138500D03*
D75*
X0387500Y0128500D03*
X0387500Y0118500D03*
D37*
X0387500Y0170000D03*
D75*
X0387500Y0160000D03*
X0387500Y0150000D03*
D37*
X0387500Y0076000D03*
D75*
X0387500Y0066000D03*
D37*
X0387500Y0055000D03*
D75*
X0387500Y0045000D03*
D37*
X0145000Y0040000D03*
D75*
X0135000Y0040000D03*
D37*
X0170000Y0040000D03*
D75*
X0160000Y0040000D03*
D29*
X0385000Y0025000D03*
X0385000Y0190000D03*
X0025000Y0190000D03*
X0025000Y0025000D03*
D75*
X0365000Y0100000D03*
X0355000Y0100000D03*
X0345000Y0100000D03*
X0335000Y0100000D03*
X0325000Y0100000D03*
X0315000Y0100000D03*
X0305000Y0100000D03*
X0295000Y0100000D03*
X0295000Y0160000D03*
X0305000Y0160000D03*
X0315000Y0160000D03*
X0325000Y0160000D03*
X0335000Y0160000D03*
X0345000Y0160000D03*
X0355000Y0160000D03*
X0365000Y0160000D03*
X0295000Y0110000D03*
X0305000Y0110000D03*
X0315000Y0110000D03*
X0325000Y0110000D03*
X0335000Y0110000D03*
X0345000Y0110000D03*
X0355000Y0110000D03*
X0365000Y0110000D03*
X0285000Y0100000D03*
X0275000Y0100000D03*
X0265000Y0100000D03*
X0255000Y0100000D03*
X0245000Y0100000D03*
X0235000Y0100000D03*
X0225000Y0100000D03*
X0215000Y0100000D03*
X0215000Y0160000D03*
X0225000Y0160000D03*
X0235000Y0160000D03*
X0245000Y0160000D03*
X0255000Y0160000D03*
X0265000Y0160000D03*
X0275000Y0160000D03*
X0285000Y0160000D03*
X0215000Y0110000D03*
X0225000Y0110000D03*
X0235000Y0110000D03*
X0245000Y0110000D03*
X0255000Y0110000D03*
X0265000Y0110000D03*
X0275000Y0110000D03*
X0285000Y0110000D03*
X0205000Y0100000D03*
X0195000Y0100000D03*
X0185000Y0100000D03*
X0175000Y0100000D03*
X0165000Y0100000D03*
X0155000Y0100000D03*
X0145000Y0100000D03*
X0135000Y0100000D03*
X0135000Y0160000D03*
X0145000Y0160000D03*
X0155000Y0160000D03*
X0165000Y0160000D03*
X0175000Y0160000D03*
X0185000Y0160000D03*
X0195000Y0160000D03*
X0205000Y0160000D03*
X0135000Y0110000D03*
X0145000Y0110000D03*
X0155000Y0110000D03*
X0165000Y0110000D03*
X0175000Y0110000D03*
X0185000Y0110000D03*
X0195000Y0110000D03*
X0205000Y0110000D03*
X0125000Y0100000D03*
X0115000Y0100000D03*
X0105000Y0100000D03*
X0095000Y0100000D03*
X0085000Y0100000D03*
X0075000Y0100000D03*
X0065000Y0100000D03*
X0055000Y0100000D03*
X0055000Y0160000D03*
X0065000Y0160000D03*
X0075000Y0160000D03*
X0085000Y0160000D03*
X0095000Y0160000D03*
X0105000Y0160000D03*
X0115000Y0160000D03*
X0125000Y0160000D03*
X0055000Y0110000D03*
X0065000Y0110000D03*
X0075000Y0110000D03*
X0085000Y0110000D03*
X0095000Y0110000D03*
X0105000Y0110000D03*
X0115000Y0110000D03*
X0125000Y0110000D03*
D31*
X0065000Y0135000D03*
D42*
X0065000Y0145000D03*
D31*
X0145000Y0135000D03*
D42*
X0145000Y0145000D03*
D31*
X0225000Y0135000D03*
D42*
X0225000Y0145000D03*
D31*
X0305000Y0135000D03*
D42*
X0305000Y0145000D03*
X0010000Y0206500D02*
G01*
D23*
D31*
X0015000Y0271500D03*
D42*
X0025000Y0271500D03*
X0035000Y0271500D03*
X0045000Y0271500D03*
X0055000Y0271500D03*
X0065000Y0271500D03*
X0075000Y0271500D03*
X0085000Y0271500D03*
D31*
X0015000Y0211500D03*
D42*
X0025000Y0211500D03*
X0035000Y0211500D03*
X0045000Y0211500D03*
X0055000Y0211500D03*
X0065000Y0211500D03*
X0075000Y0211500D03*
X0085000Y0211500D03*
D78*
X0055710Y0236040D03*
X0050000Y0236040D03*
X0044290Y0236040D03*
X0044290Y0241950D03*
X0050000Y0241950D03*
X0055710Y0241950D03*
X0091500Y0206500D02*
G01*
D23*
D31*
X0096500Y0271500D03*
D42*
X0106500Y0271500D03*
X0116500Y0271500D03*
X0126500Y0271500D03*
X0136500Y0271500D03*
X0146500Y0271500D03*
X0156500Y0271500D03*
X0166500Y0271500D03*
D31*
X0096500Y0211500D03*
D42*
X0106500Y0211500D03*
X0116500Y0211500D03*
X0126500Y0211500D03*
X0136500Y0211500D03*
X0146500Y0211500D03*
X0156500Y0211500D03*
X0166500Y0211500D03*
D78*
X0137210Y0236040D03*
X0131500Y0236040D03*
X0125790Y0236040D03*
X0125790Y0241950D03*
X0131500Y0241950D03*
X0137210Y0241950D03*
X0173000Y0206500D02*
G01*
D23*
D31*
X0178000Y0271500D03*
D42*
X0188000Y0271500D03*
X0198000Y0271500D03*
X0208000Y0271500D03*
X0218000Y0271500D03*
X0228000Y0271500D03*
X0238000Y0271500D03*
X0248000Y0271500D03*
D31*
X0178000Y0211500D03*
D42*
X0188000Y0211500D03*
X0198000Y0211500D03*
X0208000Y0211500D03*
X0218000Y0211500D03*
X0228000Y0211500D03*
X0238000Y0211500D03*
X0248000Y0211500D03*
D78*
X0218710Y0236040D03*
X0213000Y0236040D03*
X0207290Y0236040D03*
X0207290Y0241950D03*
X0213000Y0241950D03*
X0218710Y0241950D03*
X0254500Y0206500D02*
G01*
D23*
D31*
X0259500Y0271500D03*
D42*
X0269500Y0271500D03*
X0279500Y0271500D03*
X0289500Y0271500D03*
X0299500Y0271500D03*
X0309500Y0271500D03*
X0319500Y0271500D03*
X0329500Y0271500D03*
D31*
X0259500Y0211500D03*
D42*
X0269500Y0211500D03*
X0279500Y0211500D03*
X0289500Y0211500D03*
X0299500Y0211500D03*
X0309500Y0211500D03*
X0319500Y0211500D03*
X0329500Y0211500D03*
D78*
X0300210Y0236040D03*
X0294500Y0236040D03*
X0288790Y0236040D03*
X0288790Y0241950D03*
X0294500Y0241950D03*
X0300210Y0241950D03*
M02*
