%
T01C0.012000
X1400Y26400
X2700Y25600
X3100Y25000
X3590Y26630
X4170Y21910
X4330Y25590
X5670Y25600
X6470Y26620
X6740Y25600
X6750Y22200
X6760Y25000
X7860Y22710
X8500Y23200
X9550Y26400
X10850Y25600
X11250Y25000
X11740Y26630
X12320Y21910
X12480Y25590
X13820Y25600
X14620Y26620
X14890Y25600
X14900Y22200
X14910Y25000
X16010Y22710
X16650Y23200
X17700Y26400
X19000Y25600
X19400Y25000
X19890Y26630
X20470Y21910
X20630Y25590
X21970Y25600
X22770Y26620
X23040Y25600
X23050Y22200
X23060Y25000
X24160Y22710
X24800Y23200
X25850Y26400
X27150Y25600
X27550Y25000
X28040Y26630
X28620Y21910
X28780Y25590
X30120Y25600
X30920Y26620
X31190Y25600
X31200Y22200
X31210Y25000
X32310Y22710
X32950Y23200
T02C0.026500
X32250Y2500
X32250Y2000
X32750Y2500
X32750Y2000
X33250Y2500
X33250Y2000
X33750Y2500
X33750Y2000
X34250Y2500
X34250Y2000
X10219Y5829
X13814Y8901
X14313Y8834
X21060Y8719
X21976Y8421
X22930Y4380
X23500Y1310
X24283Y6047
X24295Y5608
X24998Y6461
X25035Y7535
X25533Y4060
X25608Y2801
X25650Y14100
X25780Y1990
X25900Y9020
X25995Y5355
X26186Y4036
X26553Y5151
X26944Y3202
X27960Y8950
X27970Y2110
X28840Y2140
X29190Y3550
X30380Y3220
X30900Y2730
X31663Y4108
X34002Y6433
X35894Y8246
X4429Y24195
X4429Y23604
X5000Y24195
X5000Y23604
X5571Y24195
X5571Y23604
X12579Y24195
X12579Y23604
X13150Y24195
X13150Y23604
X13721Y24195
X13721Y23604
X20729Y24195
X20729Y23604
X21300Y24195
X21300Y23604
X21871Y24195
X21871Y23604
X28879Y24195
X28879Y23604
X29450Y24195
X29450Y23604
X30021Y24195
X30021Y23604
T03C0.032000
X5500Y16000
X5500Y11000
X5500Y10000
X6500Y16000
X6500Y14500
X6500Y13500
X6500Y11000
X6500Y10000
X7500Y16000
X7500Y11000
X7500Y10000
X8500Y16000
X8500Y11000
X8500Y10000
X9500Y16000
X9500Y11000
X9500Y10000
X10500Y16000
X10500Y11000
X10500Y10000
X11500Y16000
X11500Y11000
X11500Y10000
X12500Y16000
X12500Y11000
X12500Y10000
X13500Y16000
X13500Y11000
X13500Y10000
X14500Y16000
X14500Y14500
X14500Y13500
X14500Y11000
X14500Y10000
X15500Y16000
X15500Y11000
X15500Y10000
X16500Y16000
X16500Y11000
X16500Y10000
X17500Y16000
X17500Y11000
X17500Y10000
X18500Y16000
X18500Y11000
X18500Y10000
X19500Y16000
X19500Y11000
X19500Y10000
X20500Y16000
X20500Y11000
X20500Y10000
X21500Y16000
X21500Y11000
X21500Y10000
X22500Y16000
X22500Y14500
X22500Y13500
X22500Y11000
X22500Y10000
X23500Y16000
X23500Y11000
X23500Y10000
X24500Y16000
X24500Y11000
X24500Y10000
X25500Y16000
X25500Y11000
X25500Y10000
X26500Y16000
X26500Y11000
X26500Y10000
X27500Y16000
X27500Y11000
X27500Y10000
X28500Y16000
X28500Y11000
X28500Y10000
X29500Y16000
X29500Y11000
X29500Y10000
X30500Y16000
X30500Y14500
X30500Y13500
X30500Y11000
X30500Y10000
X31500Y16000
X31500Y11000
X31500Y10000
X32500Y16000
X32500Y11000
X32500Y10000
X33500Y16000
X33500Y11000
X33500Y10000
X34500Y16000
X34500Y11000
X34500Y10000
X35500Y16000
X35500Y11000
X35500Y10000
X36500Y16000
X36500Y11000
X36500Y10000
X1500Y27150
X1500Y21150
X2500Y27150
X2500Y21150
X3500Y27150
X3500Y21150
X4500Y27150
X4500Y21150
X5500Y27150
X5500Y21150
X6500Y27150
X6500Y21150
X7500Y27150
X7500Y21150
X8500Y27150
X8500Y21150
X9650Y27150
X9650Y21150
X10650Y27150
X10650Y21150
X11650Y27150
X11650Y21150
X12650Y27150
X12650Y21150
X13650Y27150
X13650Y21150
X14650Y27150
X14650Y21150
X15650Y27150
X15650Y21150
X16650Y27150
X16650Y21150
X17800Y27150
X17800Y21150
X18800Y27150
X18800Y21150
X19800Y27150
X19800Y21150
X20800Y27150
X20800Y21150
X21800Y27150
X21800Y21150
X22800Y27150
X22800Y21150
X23800Y27150
X23800Y21150
X24800Y27150
X24800Y21150
X25950Y27150
X25950Y21150
X26950Y27150
X26950Y21150
X27950Y27150
X27950Y21150
X28950Y27150
X28950Y21150
X29950Y27150
X29950Y21150
X30950Y27150
X30950Y21150
X31950Y27150
X31950Y21150
X32950Y27150
X32950Y21150
T04C0.041000
X2000Y16750
X2000Y15750
X2000Y14750
X2000Y13750
X2000Y12500
X2000Y11500
X2000Y10500
X2000Y9500
X3750Y16250
X3750Y15250
X3750Y14250
X3750Y12000
X3750Y11000
X3750Y10000
X5500Y12000
X6500Y12000
X6500Y4250
X6500Y2250
X7500Y12000
X8500Y12000
X9500Y12000
X10500Y12000
X13000Y8250
X13000Y7250
X13000Y6250
X13500Y12000
X13500Y4000
X13500Y2000
X14500Y12000
X14500Y4000
X14500Y2000
X15500Y12000
X15500Y2000
X16000Y4000
X16500Y12000
X16500Y2000
X17000Y4000
X17500Y12000
X17500Y2000
X18500Y12000
X18500Y2000
X19250Y6715
X19250Y4785
X21500Y12000
X22500Y12000
X23500Y12000
X24500Y12000
X25500Y12000
X26500Y12000
X29500Y12000
X30500Y12000
X31500Y12000
X31750Y8250
X31750Y7250
X32500Y12000
X33500Y12000
X34500Y12000
X38750Y17000
X38750Y16000
X38750Y15000
X38750Y13850
X38750Y12850
X38750Y11850
X38750Y10700
X38750Y9700
X38750Y8700
X38750Y7600
X38750Y6600
X38750Y5500
X38750Y4500
X32970Y6136
X32970Y4364
X35529Y6136
X35529Y4364
T05C0.045000
X10500Y4250
X10500Y3250
X10500Y2250
X2500Y7500
X2500Y5500
X5500Y19000
X7500Y19000
X9500Y19000
X11500Y19000
X13500Y19000
X15500Y19000
X17500Y19000
X19500Y19000
X21500Y19000
X23500Y19000
X25500Y19000
X27500Y19000
X29500Y19000
X31500Y19000
X33500Y19000
X35500Y19000
T06C0.122000
X2500Y19000
X2500Y2500
X38500Y19000
X38500Y2500
M30
