G75*
G70*
%OFA0B0*%
%FSLAX25Y25*%
%IPPOS*%
%LPD*%
%AMOC8*
5,1,8,0,0,1.08239X$1,22.5*
%
%ADD23C,0.00600*%
%ADD33C,0.01000*%
%ADD55C,0.01200*%
%ADD67C,0.01500*%
X0010000Y0010000D02*
G01*
D23*
D55*
X0115780Y0083640D02*
X0114920Y0083260D01*
X0113490Y0083260D01*
X0112920Y0083640D01*
X0112630Y0084020D01*
X0112350Y0084790D01*
X0112350Y0085550D01*
X0112630Y0086310D01*
X0112920Y0086690D01*
X0113490Y0087070D01*
X0114630Y0087450D01*
X0115210Y0087830D01*
X0115490Y0088210D01*
X0115780Y0088980D01*
X0115780Y0089740D01*
X0115490Y0090500D01*
X0115210Y0090880D01*
X0114630Y0091260D01*
X0113210Y0091260D01*
X0112350Y0090880D01*
X0107210Y0083260D02*
X0107210Y0087450D01*
X0107500Y0088210D01*
X0108070Y0088600D01*
X0109210Y0088600D01*
X0109780Y0088210D01*
X0107210Y0083640D02*
X0107780Y0083260D01*
X0109210Y0083260D01*
X0109780Y0083640D01*
X0110070Y0084400D01*
X0110070Y0085170D01*
X0109780Y0085930D01*
X0109210Y0086310D01*
X0107780Y0086310D01*
X0107210Y0086690D01*
X0104350Y0088600D02*
X0104350Y0083260D01*
X0104350Y0087830D02*
X0104070Y0088210D01*
X0103490Y0088600D01*
X0102640Y0088600D01*
X0102070Y0088210D01*
X0101780Y0087450D01*
X0101780Y0083260D01*
X0096350Y0088600D02*
X0096350Y0082120D01*
X0096640Y0081360D01*
X0096920Y0080980D01*
X0097490Y0080600D01*
X0098350Y0080600D01*
X0098920Y0080980D01*
X0096350Y0083640D02*
X0096920Y0083260D01*
X0098060Y0083260D01*
X0098640Y0083640D01*
X0098920Y0084020D01*
X0099210Y0084790D01*
X0099210Y0087070D01*
X0098920Y0087830D01*
X0098640Y0088210D01*
X0098060Y0088600D01*
X0096920Y0088600D01*
X0096350Y0088210D01*
X0092630Y0083260D02*
X0093210Y0083640D01*
X0093490Y0084020D01*
X0093780Y0084790D01*
X0093780Y0087070D01*
X0093490Y0087830D01*
X0093210Y0088210D01*
X0092630Y0088600D01*
X0091780Y0088600D01*
X0091210Y0088210D01*
X0090920Y0087830D01*
X0090630Y0087070D01*
X0090630Y0084790D01*
X0090920Y0084020D01*
X0091210Y0083640D01*
X0091780Y0083260D01*
X0092630Y0083260D01*
X0088060Y0086310D02*
X0083490Y0086310D01*
X0080630Y0083260D02*
X0080630Y0091260D01*
X0080630Y0088210D02*
X0080060Y0088600D01*
X0078920Y0088600D01*
X0078350Y0088210D01*
X0078060Y0087830D01*
X0077770Y0087070D01*
X0077770Y0084790D01*
X0078060Y0084020D01*
X0078350Y0083640D01*
X0078920Y0083260D01*
X0080060Y0083260D01*
X0080630Y0083640D01*
X0072630Y0083640D02*
X0073200Y0083260D01*
X0074340Y0083260D01*
X0074920Y0083640D01*
X0075200Y0084020D01*
X0075490Y0084790D01*
X0075490Y0087070D01*
X0075200Y0087830D01*
X0074920Y0088210D01*
X0074340Y0088600D01*
X0073200Y0088600D01*
X0072630Y0088210D01*
X0066060Y0088600D02*
X0064630Y0083260D01*
X0063210Y0088600D01*
X0059780Y0091260D02*
X0059210Y0091260D01*
X0058640Y0090880D01*
X0058350Y0090500D01*
X0058060Y0089740D01*
X0057780Y0088210D01*
X0057780Y0086310D01*
X0058060Y0084790D01*
X0058350Y0084020D01*
X0058640Y0083640D01*
X0059210Y0083260D01*
X0059780Y0083260D01*
X0060350Y0083640D01*
X0060640Y0084020D01*
X0060920Y0084790D01*
X0061210Y0086310D01*
X0061210Y0088210D01*
X0060920Y0089740D01*
X0060640Y0090500D01*
X0060350Y0090880D01*
X0059780Y0091260D01*
X0055210Y0084020D02*
X0054930Y0083640D01*
X0055210Y0083260D01*
X0055500Y0083640D01*
X0055210Y0084020D01*
X0055210Y0083260D01*
X0049210Y0083260D02*
X0052640Y0083260D01*
X0050920Y0083260D02*
X0050920Y0091260D01*
X0051490Y0090120D01*
X0052070Y0089360D01*
X0052640Y0088980D01*
D67*
X0298630Y0056970D02*
X0251380Y0056970D01*
X0251380Y0011890D02*
X0259450Y0011890D01*
X0298630Y0011890D02*
X0295670Y0011890D01*
X0251370Y0056980D02*
X0251370Y0011900D01*
X0298630Y0020360D02*
X0251380Y0020360D01*
X0275000Y0020360D02*
X0275000Y0024100D01*
X0298620Y0056980D02*
X0298620Y0011900D01*
D55*
X0294570Y0030070D02*
X0294570Y0025210D01*
X0294290Y0024640D01*
X0294000Y0024360D01*
X0293430Y0024070D01*
X0292290Y0024070D01*
X0291710Y0024360D01*
X0291430Y0024640D01*
X0291140Y0025210D01*
X0291140Y0030070D01*
X0288000Y0024070D02*
X0286850Y0024070D01*
X0286280Y0024360D01*
X0286000Y0024640D01*
X0285420Y0025500D01*
X0285140Y0026640D01*
X0285140Y0028930D01*
X0285420Y0029500D01*
X0285710Y0029790D01*
X0286280Y0030070D01*
X0287420Y0030070D01*
X0288000Y0029790D01*
X0288280Y0029500D01*
X0288570Y0028930D01*
X0288570Y0027500D01*
X0288280Y0026930D01*
X0288000Y0026640D01*
X0287420Y0026360D01*
X0286280Y0026360D01*
X0285710Y0026640D01*
X0285420Y0026930D01*
X0285140Y0027500D01*
D33*
X0010500Y0010500D02*
X0010500Y0205500D01*
X0010500Y0205500D02*
X0399500Y0205500D01*
X0399500Y0010500D01*
X0399500Y0010500D02*
X0010500Y0010500D01*
X0010000Y0206500D02*
G01*
D23*
D33*
X0010500Y0206000D02*
X0010500Y0276000D01*
X0010500Y0276000D02*
X0090500Y0276000D01*
X0090500Y0276000D02*
X0090500Y0206000D01*
X0010500Y0206000D01*
X0091500Y0206500D02*
G01*
D23*
D33*
X0091000Y0206000D02*
X0091000Y0276000D01*
X0172000Y0276000D01*
X0172000Y0276000D02*
X0172000Y0206000D01*
X0091000Y0206000D01*
X0173000Y0206500D02*
G01*
D23*
D33*
X0172500Y0206000D02*
X0172500Y0276000D01*
X0253500Y0276000D01*
X0253500Y0276000D02*
X0253500Y0206000D01*
X0172500Y0206000D01*
X0254500Y0206500D02*
G01*
D23*
D33*
X0254000Y0206000D02*
X0254000Y0276000D01*
X0335000Y0276000D01*
X0335000Y0276000D02*
X0335000Y0206000D01*
X0254000Y0206000D01*
D33*
X0023000Y0010500D02*
X0010500Y0010500D01*
X0010500Y0023000D01*
X0399500Y0023000D02*
X0399500Y0010500D01*
X0387000Y0010500D01*
X0387000Y0276000D02*
X0399500Y0276000D01*
X0399500Y0263500D01*
X0010500Y0263500D02*
X0010500Y0276000D01*
X0023000Y0276000D01*
M02*
