G04 (created by PCBNEW (2013-07-07 BZR 4022)-stable) date 03/01/2015 14:14:57*
%MOIN*%
G04 Gerber Fmt 3.4, Leading zero omitted, Abs format*
%FSLAX34Y34*%
G01*
G70*
G90*
G04 APERTURE LIST*
%ADD10C,0.00590551*%
%ADD11C,0.00393701*%
%ADD12R,0.065X0.045*%
%ADD13R,0.056X0.056*%
%ADD14R,0.045X0.065*%
%ADD15R,0.0633X0.0751181*%
%ADD16R,0.0790551X0.0790551*%
%ADD17C,0.0790551*%
%ADD18R,0.1027X0.1027*%
%ADD19R,0.0948X0.0948*%
%ADD20C,0.0613*%
%ADD21R,0.0712X0.0751*%
%ADD22R,0.0751X0.0712*%
%ADD23R,0.0594X0.0515*%
%ADD24R,0.039685X0.031811*%
%ADD25R,0.0515X0.0594*%
G04 APERTURE END LIST*
G54D10*
G54D11*
X0Y7000D02*
X0Y0D01*
X20000Y7000D02*
X0Y7000D01*
X20000Y0D02*
X20000Y7000D01*
X0Y0D02*
X20000Y0D01*
G54D12*
X7000Y4800D03*
X7000Y4200D03*
X7000Y5200D03*
X7000Y5800D03*
G54D10*
G36*
X8588Y4343D02*
X9119Y3813D01*
X8903Y3597D01*
X8373Y4128D01*
X8588Y4343D01*
X8588Y4343D01*
G37*
G36*
X10847Y5346D02*
X11378Y5876D01*
X11593Y5661D01*
X11063Y5130D01*
X10847Y5346D01*
X10847Y5346D01*
G37*
G36*
X12911Y2656D02*
X12380Y3186D01*
X12596Y3402D01*
X13126Y2871D01*
X12911Y2656D01*
X12911Y2656D01*
G37*
G36*
X9906Y1338D02*
X10436Y1869D01*
X10652Y1653D01*
X10121Y1123D01*
X9906Y1338D01*
X9906Y1338D01*
G37*
G36*
X8728Y4483D02*
X9258Y3952D01*
X9042Y3737D01*
X8512Y4267D01*
X8728Y4483D01*
X8728Y4483D01*
G37*
G36*
X10987Y5207D02*
X11517Y5737D01*
X11733Y5521D01*
X11202Y4991D01*
X10987Y5207D01*
X10987Y5207D01*
G37*
G36*
X12771Y2516D02*
X12241Y3047D01*
X12457Y3262D01*
X12987Y2732D01*
X12771Y2516D01*
X12771Y2516D01*
G37*
G36*
X9766Y1478D02*
X10297Y2008D01*
X10512Y1792D01*
X9982Y1262D01*
X9766Y1478D01*
X9766Y1478D01*
G37*
G36*
X8867Y4622D02*
X9397Y4092D01*
X9181Y3876D01*
X8651Y4406D01*
X8867Y4622D01*
X8867Y4622D01*
G37*
G36*
X11126Y5068D02*
X11656Y5598D01*
X11872Y5382D01*
X11342Y4852D01*
X11126Y5068D01*
X11126Y5068D01*
G37*
G36*
X12632Y2377D02*
X12102Y2907D01*
X12318Y3123D01*
X12848Y2593D01*
X12632Y2377D01*
X12632Y2377D01*
G37*
G36*
X9627Y1617D02*
X10157Y2147D01*
X10373Y1931D01*
X9843Y1401D01*
X9627Y1617D01*
X9627Y1617D01*
G37*
G36*
X9006Y4761D02*
X9536Y4231D01*
X9321Y4015D01*
X8790Y4546D01*
X9006Y4761D01*
X9006Y4761D01*
G37*
G36*
X11265Y4928D02*
X11796Y5459D01*
X12011Y5243D01*
X11481Y4713D01*
X11265Y4928D01*
X11265Y4928D01*
G37*
G36*
X12493Y2238D02*
X11963Y2768D01*
X12178Y2984D01*
X12709Y2453D01*
X12493Y2238D01*
X12493Y2238D01*
G37*
G36*
X9488Y1756D02*
X10018Y2286D01*
X10234Y2071D01*
X9703Y1540D01*
X9488Y1756D01*
X9488Y1756D01*
G37*
G36*
X9145Y4901D02*
X9676Y4370D01*
X9460Y4155D01*
X8930Y4685D01*
X9145Y4901D01*
X9145Y4901D01*
G37*
G36*
X11405Y4789D02*
X11935Y5319D01*
X12151Y5104D01*
X11620Y4573D01*
X11405Y4789D01*
X11405Y4789D01*
G37*
G36*
X12354Y2098D02*
X11823Y2629D01*
X12039Y2844D01*
X12569Y2314D01*
X12354Y2098D01*
X12354Y2098D01*
G37*
G36*
X9348Y1895D02*
X9879Y2426D01*
X10094Y2210D01*
X9564Y1680D01*
X9348Y1895D01*
X9348Y1895D01*
G37*
G36*
X9285Y5040D02*
X9815Y4510D01*
X9599Y4294D01*
X9069Y4824D01*
X9285Y5040D01*
X9285Y5040D01*
G37*
G36*
X11544Y4650D02*
X12074Y5180D01*
X12290Y4964D01*
X11760Y4434D01*
X11544Y4650D01*
X11544Y4650D01*
G37*
G36*
X12214Y1959D02*
X11684Y2489D01*
X11900Y2705D01*
X12430Y2175D01*
X12214Y1959D01*
X12214Y1959D01*
G37*
G36*
X9209Y2035D02*
X9739Y2565D01*
X9955Y2349D01*
X9425Y1819D01*
X9209Y2035D01*
X9209Y2035D01*
G37*
G36*
X9424Y5179D02*
X9954Y4649D01*
X9739Y4433D01*
X9208Y4964D01*
X9424Y5179D01*
X9424Y5179D01*
G37*
G36*
X11683Y4510D02*
X12214Y5041D01*
X12429Y4825D01*
X11899Y4295D01*
X11683Y4510D01*
X11683Y4510D01*
G37*
G36*
X12075Y1820D02*
X11545Y2350D01*
X11760Y2566D01*
X12291Y2035D01*
X12075Y1820D01*
X12075Y1820D01*
G37*
G36*
X9070Y2174D02*
X9600Y2704D01*
X9816Y2489D01*
X9285Y1958D01*
X9070Y2174D01*
X9070Y2174D01*
G37*
G36*
X9563Y5319D02*
X10094Y4788D01*
X9878Y4573D01*
X9348Y5103D01*
X9563Y5319D01*
X9563Y5319D01*
G37*
G36*
X11823Y4371D02*
X12353Y4901D01*
X12569Y4686D01*
X12038Y4155D01*
X11823Y4371D01*
X11823Y4371D01*
G37*
G36*
X11936Y1680D02*
X11405Y2211D01*
X11621Y2426D01*
X12151Y1896D01*
X11936Y1680D01*
X11936Y1680D01*
G37*
G36*
X8930Y2313D02*
X9461Y2844D01*
X9676Y2628D01*
X9146Y2098D01*
X8930Y2313D01*
X8930Y2313D01*
G37*
G36*
X9703Y5458D02*
X10233Y4928D01*
X10017Y4712D01*
X9487Y5242D01*
X9703Y5458D01*
X9703Y5458D01*
G37*
G36*
X11962Y4232D02*
X12492Y4762D01*
X12708Y4546D01*
X12178Y4016D01*
X11962Y4232D01*
X11962Y4232D01*
G37*
G36*
X11796Y1541D02*
X11266Y2071D01*
X11482Y2287D01*
X12012Y1757D01*
X11796Y1541D01*
X11796Y1541D01*
G37*
G36*
X8791Y2453D02*
X9321Y2983D01*
X9537Y2767D01*
X9007Y2237D01*
X8791Y2453D01*
X8791Y2453D01*
G37*
G36*
X9842Y5597D02*
X10372Y5067D01*
X10157Y4851D01*
X9626Y5381D01*
X9842Y5597D01*
X9842Y5597D01*
G37*
G36*
X12101Y4092D02*
X12631Y4623D01*
X12847Y4407D01*
X12317Y3877D01*
X12101Y4092D01*
X12101Y4092D01*
G37*
G36*
X11657Y1402D02*
X11127Y1932D01*
X11342Y2148D01*
X11873Y1618D01*
X11657Y1402D01*
X11657Y1402D01*
G37*
G36*
X8652Y2592D02*
X9182Y3122D01*
X9398Y2907D01*
X8868Y2376D01*
X8652Y2592D01*
X8652Y2592D01*
G37*
G36*
X9981Y5736D02*
X10512Y5206D01*
X10296Y4990D01*
X9766Y5521D01*
X9981Y5736D01*
X9981Y5736D01*
G37*
G36*
X12240Y3953D02*
X12771Y4483D01*
X12986Y4268D01*
X12456Y3737D01*
X12240Y3953D01*
X12240Y3953D01*
G37*
G36*
X11518Y1263D02*
X10987Y1793D01*
X11203Y2009D01*
X11733Y1478D01*
X11518Y1263D01*
X11518Y1263D01*
G37*
G36*
X8513Y2731D02*
X9043Y3262D01*
X9259Y3046D01*
X8728Y2516D01*
X8513Y2731D01*
X8513Y2731D01*
G37*
G36*
X10121Y5876D02*
X10651Y5345D01*
X10435Y5130D01*
X9905Y5660D01*
X10121Y5876D01*
X10121Y5876D01*
G37*
G36*
X12380Y3814D02*
X12910Y4344D01*
X13126Y4128D01*
X12595Y3598D01*
X12380Y3814D01*
X12380Y3814D01*
G37*
G36*
X11378Y1123D02*
X10848Y1654D01*
X11064Y1869D01*
X11594Y1339D01*
X11378Y1123D01*
X11378Y1123D01*
G37*
G36*
X8373Y2871D02*
X8904Y3401D01*
X9119Y3185D01*
X8589Y2655D01*
X8373Y2871D01*
X8373Y2871D01*
G37*
G54D13*
X4350Y2850D03*
X4350Y2150D03*
X5150Y2500D03*
G54D14*
X7050Y2000D03*
X6450Y2000D03*
G54D15*
X5685Y4527D03*
X6314Y5472D03*
X5685Y5472D03*
X6314Y4527D03*
G54D12*
X15050Y5200D03*
X15050Y4600D03*
G54D14*
X13950Y4000D03*
X14550Y4000D03*
X12450Y1250D03*
X13050Y1250D03*
X7050Y2750D03*
X6450Y2750D03*
G54D12*
X8000Y3550D03*
X8000Y2950D03*
G54D14*
X15950Y4000D03*
X16550Y4000D03*
G54D12*
X3500Y2200D03*
X3500Y2800D03*
G54D14*
X2300Y1500D03*
X1700Y1500D03*
X15950Y2500D03*
X16550Y2500D03*
X16550Y3250D03*
X15950Y3250D03*
G54D16*
X19500Y2000D03*
G54D17*
X19500Y3000D03*
X19500Y4000D03*
X19500Y5000D03*
G54D16*
X500Y500D03*
G54D17*
X1500Y500D03*
X2500Y500D03*
X3500Y500D03*
X4500Y500D03*
X5500Y500D03*
X6500Y500D03*
X7500Y500D03*
X8500Y500D03*
X9500Y500D03*
X10500Y500D03*
X11500Y500D03*
X12500Y500D03*
X13499Y500D03*
X14500Y500D03*
X15500Y500D03*
X16500Y500D03*
X17500Y500D03*
X18500Y500D03*
X19500Y500D03*
G54D16*
X500Y6500D03*
G54D17*
X1500Y6500D03*
X2500Y6500D03*
X3500Y6500D03*
X4500Y6500D03*
X5500Y6500D03*
X6500Y6500D03*
X7500Y6500D03*
X8500Y6500D03*
X9500Y6500D03*
X10500Y6500D03*
X11500Y6500D03*
X12500Y6500D03*
X13499Y6500D03*
X14500Y6500D03*
X15500Y6500D03*
X16500Y6500D03*
X17500Y6500D03*
X18500Y6500D03*
X19500Y6500D03*
G54D18*
X500Y5173D03*
G54D19*
X500Y1827D03*
G54D20*
X1681Y2614D03*
X1681Y4386D03*
G54D21*
X17379Y4800D03*
X18521Y4800D03*
G54D22*
X2500Y5571D03*
X2500Y4429D03*
G54D14*
X1200Y5500D03*
X1800Y5500D03*
G54D23*
X16633Y4950D03*
X15767Y5325D03*
X15767Y4575D03*
G54D24*
X3025Y3500D03*
X3025Y3696D03*
X2474Y3696D03*
X3025Y3303D03*
X2474Y3500D03*
X2474Y3303D03*
G54D25*
X3850Y5483D03*
X3475Y4617D03*
X4225Y4617D03*
G54D14*
X3550Y3900D03*
X4150Y3900D03*
M02*
