G04 (created by PCBNEW (2013-07-07 BZR 4022)-stable) date 21/01/2015 21:28:15*
%MOIN*%
G04 Gerber Fmt 3.4, Leading zero omitted, Abs format*
%FSLAX34Y34*%
G01*
G70*
G90*
G04 APERTURE LIST*
%ADD10C,0.00590551*%
%ADD11C,0.00393701*%
%ADD12C,0.0039*%
%ADD13C,0.008*%
%ADD14C,0.005*%
%ADD15C,0.00295276*%
%ADD16C,0.0001*%
%ADD17C,0.0047*%
G04 APERTURE END LIST*
G54D10*
G54D11*
X112Y1334D02*
X243Y940D01*
X375Y1334D01*
X674Y940D02*
X674Y1334D01*
X674Y959D02*
X637Y940D01*
X562Y940D01*
X525Y959D01*
X506Y978D01*
X487Y1015D01*
X487Y1128D01*
X506Y1165D01*
X525Y1184D01*
X562Y1203D01*
X637Y1203D01*
X674Y1184D01*
X1031Y940D02*
X1031Y1334D01*
X1031Y959D02*
X993Y940D01*
X918Y940D01*
X881Y959D01*
X862Y978D01*
X843Y1015D01*
X843Y1128D01*
X862Y1165D01*
X881Y1184D01*
X918Y1203D01*
X993Y1203D01*
X1031Y1184D01*
X1334Y1150D02*
X1315Y1112D01*
X1315Y1056D01*
X1334Y1000D01*
X1371Y962D01*
X1409Y943D01*
X1484Y925D01*
X1540Y925D01*
X1615Y943D01*
X1653Y962D01*
X1690Y1000D01*
X1709Y1056D01*
X1709Y1093D01*
X1690Y1150D01*
X1671Y1168D01*
X1540Y1168D01*
X1540Y1093D01*
X1709Y1337D02*
X1315Y1337D01*
X1709Y1562D01*
X1315Y1562D01*
X1709Y1749D02*
X1315Y1749D01*
X1315Y1843D01*
X1334Y1899D01*
X1371Y1937D01*
X1409Y1956D01*
X1484Y1974D01*
X1540Y1974D01*
X1615Y1956D01*
X1653Y1937D01*
X1690Y1899D01*
X1709Y1843D01*
X1709Y1749D01*
X2181Y1484D02*
X2425Y1484D01*
X2293Y1334D01*
X2350Y1334D01*
X2387Y1315D01*
X2406Y1296D01*
X2425Y1259D01*
X2425Y1165D01*
X2406Y1128D01*
X2387Y1109D01*
X2350Y1090D01*
X2237Y1090D01*
X2200Y1109D01*
X2181Y1128D01*
X2574Y1446D02*
X2593Y1465D01*
X2631Y1484D01*
X2724Y1484D01*
X2762Y1465D01*
X2781Y1446D01*
X2799Y1409D01*
X2799Y1371D01*
X2781Y1315D01*
X2556Y1090D01*
X2799Y1090D01*
X3425Y1090D02*
X3200Y1090D01*
X3312Y1090D02*
X3312Y1484D01*
X3275Y1428D01*
X3237Y1390D01*
X3200Y1371D01*
X3781Y1484D02*
X3593Y1484D01*
X3574Y1296D01*
X3593Y1315D01*
X3631Y1334D01*
X3724Y1334D01*
X3762Y1315D01*
X3781Y1296D01*
X3799Y1259D01*
X3799Y1165D01*
X3781Y1128D01*
X3762Y1109D01*
X3724Y1090D01*
X3631Y1090D01*
X3593Y1109D01*
X3574Y1128D01*
X4425Y1090D02*
X4200Y1090D01*
X4312Y1090D02*
X4312Y1484D01*
X4275Y1428D01*
X4237Y1390D01*
X4200Y1371D01*
X4762Y1484D02*
X4687Y1484D01*
X4649Y1465D01*
X4631Y1446D01*
X4593Y1390D01*
X4574Y1315D01*
X4574Y1165D01*
X4593Y1128D01*
X4612Y1109D01*
X4649Y1090D01*
X4724Y1090D01*
X4762Y1109D01*
X4781Y1128D01*
X4799Y1165D01*
X4799Y1259D01*
X4781Y1296D01*
X4762Y1315D01*
X4724Y1334D01*
X4649Y1334D01*
X4612Y1315D01*
X4593Y1296D01*
X4574Y1259D01*
X5425Y1090D02*
X5200Y1090D01*
X5312Y1090D02*
X5312Y1484D01*
X5275Y1428D01*
X5237Y1390D01*
X5200Y1371D01*
X5556Y1484D02*
X5818Y1484D01*
X5649Y1090D01*
X6425Y1090D02*
X6200Y1090D01*
X6312Y1090D02*
X6312Y1484D01*
X6275Y1428D01*
X6237Y1390D01*
X6200Y1371D01*
X6649Y1315D02*
X6612Y1334D01*
X6593Y1353D01*
X6574Y1390D01*
X6574Y1409D01*
X6593Y1446D01*
X6612Y1465D01*
X6649Y1484D01*
X6724Y1484D01*
X6762Y1465D01*
X6781Y1446D01*
X6799Y1409D01*
X6799Y1390D01*
X6781Y1353D01*
X6762Y1334D01*
X6724Y1315D01*
X6649Y1315D01*
X6612Y1296D01*
X6593Y1278D01*
X6574Y1240D01*
X6574Y1165D01*
X6593Y1128D01*
X6612Y1109D01*
X6649Y1090D01*
X6724Y1090D01*
X6762Y1109D01*
X6781Y1128D01*
X6799Y1165D01*
X6799Y1240D01*
X6781Y1278D01*
X6762Y1296D01*
X6724Y1315D01*
X7425Y1090D02*
X7200Y1090D01*
X7312Y1090D02*
X7312Y1484D01*
X7275Y1428D01*
X7237Y1390D01*
X7200Y1371D01*
X7612Y1090D02*
X7687Y1090D01*
X7724Y1109D01*
X7743Y1128D01*
X7781Y1184D01*
X7799Y1259D01*
X7799Y1409D01*
X7781Y1446D01*
X7762Y1465D01*
X7724Y1484D01*
X7649Y1484D01*
X7612Y1465D01*
X7593Y1446D01*
X7574Y1409D01*
X7574Y1315D01*
X7593Y1278D01*
X7612Y1259D01*
X7649Y1240D01*
X7724Y1240D01*
X7762Y1259D01*
X7781Y1278D01*
X7799Y1315D01*
X8200Y1446D02*
X8218Y1465D01*
X8256Y1484D01*
X8350Y1484D01*
X8387Y1465D01*
X8406Y1446D01*
X8425Y1409D01*
X8425Y1371D01*
X8406Y1315D01*
X8181Y1090D01*
X8425Y1090D01*
X8668Y1484D02*
X8706Y1484D01*
X8743Y1465D01*
X8762Y1446D01*
X8781Y1409D01*
X8799Y1334D01*
X8799Y1240D01*
X8781Y1165D01*
X8762Y1128D01*
X8743Y1109D01*
X8706Y1090D01*
X8668Y1090D01*
X8631Y1109D01*
X8612Y1128D01*
X8593Y1165D01*
X8574Y1240D01*
X8574Y1334D01*
X8593Y1409D01*
X8612Y1446D01*
X8631Y1465D01*
X8668Y1484D01*
X9200Y1446D02*
X9218Y1465D01*
X9256Y1484D01*
X9350Y1484D01*
X9387Y1465D01*
X9406Y1446D01*
X9425Y1409D01*
X9425Y1371D01*
X9406Y1315D01*
X9181Y1090D01*
X9425Y1090D01*
X9799Y1090D02*
X9574Y1090D01*
X9687Y1090D02*
X9687Y1484D01*
X9649Y1428D01*
X9612Y1390D01*
X9574Y1371D01*
X10200Y1446D02*
X10218Y1465D01*
X10256Y1484D01*
X10350Y1484D01*
X10387Y1465D01*
X10406Y1446D01*
X10425Y1409D01*
X10425Y1371D01*
X10406Y1315D01*
X10181Y1090D01*
X10425Y1090D01*
X10574Y1446D02*
X10593Y1465D01*
X10631Y1484D01*
X10724Y1484D01*
X10762Y1465D01*
X10781Y1446D01*
X10799Y1409D01*
X10799Y1371D01*
X10781Y1315D01*
X10556Y1090D01*
X10799Y1090D01*
X11200Y1446D02*
X11218Y1465D01*
X11256Y1484D01*
X11350Y1484D01*
X11387Y1465D01*
X11406Y1446D01*
X11425Y1409D01*
X11425Y1371D01*
X11406Y1315D01*
X11181Y1090D01*
X11425Y1090D01*
X11556Y1484D02*
X11799Y1484D01*
X11668Y1334D01*
X11724Y1334D01*
X11762Y1315D01*
X11781Y1296D01*
X11799Y1259D01*
X11799Y1165D01*
X11781Y1128D01*
X11762Y1109D01*
X11724Y1090D01*
X11612Y1090D01*
X11574Y1109D01*
X11556Y1128D01*
X12200Y1446D02*
X12218Y1465D01*
X12256Y1484D01*
X12350Y1484D01*
X12387Y1465D01*
X12406Y1446D01*
X12425Y1409D01*
X12425Y1371D01*
X12406Y1315D01*
X12181Y1090D01*
X12425Y1090D01*
X12762Y1353D02*
X12762Y1090D01*
X12668Y1503D02*
X12574Y1221D01*
X12818Y1221D01*
X13200Y1446D02*
X13218Y1465D01*
X13256Y1484D01*
X13350Y1484D01*
X13387Y1465D01*
X13406Y1446D01*
X13425Y1409D01*
X13425Y1371D01*
X13406Y1315D01*
X13181Y1090D01*
X13425Y1090D01*
X13781Y1484D02*
X13593Y1484D01*
X13574Y1296D01*
X13593Y1315D01*
X13631Y1334D01*
X13724Y1334D01*
X13762Y1315D01*
X13781Y1296D01*
X13799Y1259D01*
X13799Y1165D01*
X13781Y1128D01*
X13762Y1109D01*
X13724Y1090D01*
X13631Y1090D01*
X13593Y1109D01*
X13574Y1128D01*
X14200Y1446D02*
X14218Y1465D01*
X14256Y1484D01*
X14350Y1484D01*
X14387Y1465D01*
X14406Y1446D01*
X14425Y1409D01*
X14425Y1371D01*
X14406Y1315D01*
X14181Y1090D01*
X14425Y1090D01*
X14762Y1484D02*
X14687Y1484D01*
X14649Y1465D01*
X14631Y1446D01*
X14593Y1390D01*
X14574Y1315D01*
X14574Y1165D01*
X14593Y1128D01*
X14612Y1109D01*
X14649Y1090D01*
X14724Y1090D01*
X14762Y1109D01*
X14781Y1128D01*
X14799Y1165D01*
X14799Y1259D01*
X14781Y1296D01*
X14762Y1315D01*
X14724Y1334D01*
X14649Y1334D01*
X14612Y1315D01*
X14593Y1296D01*
X14574Y1259D01*
X15200Y1446D02*
X15218Y1465D01*
X15256Y1484D01*
X15350Y1484D01*
X15387Y1465D01*
X15406Y1446D01*
X15425Y1409D01*
X15425Y1371D01*
X15406Y1315D01*
X15181Y1090D01*
X15425Y1090D01*
X15556Y1484D02*
X15818Y1484D01*
X15649Y1090D01*
X16200Y1446D02*
X16218Y1465D01*
X16256Y1484D01*
X16350Y1484D01*
X16387Y1465D01*
X16406Y1446D01*
X16425Y1409D01*
X16425Y1371D01*
X16406Y1315D01*
X16181Y1090D01*
X16425Y1090D01*
X16649Y1315D02*
X16612Y1334D01*
X16593Y1353D01*
X16574Y1390D01*
X16574Y1409D01*
X16593Y1446D01*
X16612Y1465D01*
X16649Y1484D01*
X16724Y1484D01*
X16762Y1465D01*
X16781Y1446D01*
X16799Y1409D01*
X16799Y1390D01*
X16781Y1353D01*
X16762Y1334D01*
X16724Y1315D01*
X16649Y1315D01*
X16612Y1296D01*
X16593Y1278D01*
X16574Y1240D01*
X16574Y1165D01*
X16593Y1128D01*
X16612Y1109D01*
X16649Y1090D01*
X16724Y1090D01*
X16762Y1109D01*
X16781Y1128D01*
X16799Y1165D01*
X16799Y1240D01*
X16781Y1278D01*
X16762Y1296D01*
X16724Y1315D01*
X17200Y1446D02*
X17218Y1465D01*
X17256Y1484D01*
X17350Y1484D01*
X17387Y1465D01*
X17406Y1446D01*
X17425Y1409D01*
X17425Y1371D01*
X17406Y1315D01*
X17181Y1090D01*
X17425Y1090D01*
X17612Y1090D02*
X17687Y1090D01*
X17724Y1109D01*
X17743Y1128D01*
X17781Y1184D01*
X17799Y1259D01*
X17799Y1409D01*
X17781Y1446D01*
X17762Y1465D01*
X17724Y1484D01*
X17649Y1484D01*
X17612Y1465D01*
X17593Y1446D01*
X17574Y1409D01*
X17574Y1315D01*
X17593Y1278D01*
X17612Y1259D01*
X17649Y1240D01*
X17724Y1240D01*
X17762Y1259D01*
X17781Y1278D01*
X17799Y1315D01*
X18181Y1484D02*
X18425Y1484D01*
X18293Y1334D01*
X18350Y1334D01*
X18387Y1315D01*
X18406Y1296D01*
X18425Y1259D01*
X18425Y1165D01*
X18406Y1128D01*
X18387Y1109D01*
X18350Y1090D01*
X18237Y1090D01*
X18200Y1109D01*
X18181Y1128D01*
X18668Y1484D02*
X18706Y1484D01*
X18743Y1465D01*
X18762Y1446D01*
X18781Y1409D01*
X18799Y1334D01*
X18799Y1240D01*
X18781Y1165D01*
X18762Y1128D01*
X18743Y1109D01*
X18706Y1090D01*
X18668Y1090D01*
X18631Y1109D01*
X18612Y1128D01*
X18593Y1165D01*
X18574Y1240D01*
X18574Y1334D01*
X18593Y1409D01*
X18612Y1446D01*
X18631Y1465D01*
X18668Y1484D01*
X19181Y1434D02*
X19425Y1434D01*
X19293Y1284D01*
X19350Y1284D01*
X19387Y1265D01*
X19406Y1246D01*
X19425Y1209D01*
X19425Y1115D01*
X19406Y1078D01*
X19387Y1059D01*
X19350Y1040D01*
X19237Y1040D01*
X19200Y1059D01*
X19181Y1078D01*
X19799Y1040D02*
X19574Y1040D01*
X19687Y1040D02*
X19687Y1434D01*
X19649Y1378D01*
X19612Y1340D01*
X19574Y1321D01*
X17762Y2234D02*
X17893Y1840D01*
X18025Y2234D01*
X18324Y1840D02*
X18324Y2234D01*
X18324Y1859D02*
X18287Y1840D01*
X18212Y1840D01*
X18175Y1859D01*
X18156Y1878D01*
X18137Y1915D01*
X18137Y2028D01*
X18156Y2065D01*
X18175Y2084D01*
X18212Y2103D01*
X18287Y2103D01*
X18324Y2084D01*
X18681Y1840D02*
X18681Y2234D01*
X18681Y1859D02*
X18643Y1840D01*
X18568Y1840D01*
X18531Y1859D01*
X18512Y1878D01*
X18493Y1915D01*
X18493Y2028D01*
X18512Y2065D01*
X18531Y2084D01*
X18568Y2103D01*
X18643Y2103D01*
X18681Y2084D01*
X18143Y2859D02*
X18181Y2840D01*
X18256Y2840D01*
X18293Y2859D01*
X18312Y2896D01*
X18312Y2915D01*
X18293Y2953D01*
X18256Y2971D01*
X18200Y2971D01*
X18162Y2990D01*
X18143Y3028D01*
X18143Y3046D01*
X18162Y3084D01*
X18200Y3103D01*
X18256Y3103D01*
X18293Y3084D01*
X18481Y2840D02*
X18481Y3103D01*
X18481Y3234D02*
X18462Y3215D01*
X18481Y3196D01*
X18500Y3215D01*
X18481Y3234D01*
X18481Y3196D01*
X18724Y2840D02*
X18687Y2859D01*
X18668Y2878D01*
X18649Y2915D01*
X18649Y3028D01*
X18668Y3065D01*
X18687Y3084D01*
X18724Y3103D01*
X18781Y3103D01*
X18818Y3084D01*
X18837Y3065D01*
X18856Y3028D01*
X18856Y2915D01*
X18837Y2878D01*
X18818Y2859D01*
X18781Y2840D01*
X18724Y2840D01*
X18640Y3484D02*
X18659Y3521D01*
X18659Y3596D01*
X18640Y3634D01*
X18603Y3653D01*
X18584Y3653D01*
X18546Y3634D01*
X18528Y3596D01*
X18528Y3540D01*
X18509Y3503D01*
X18471Y3484D01*
X18453Y3484D01*
X18415Y3503D01*
X18396Y3540D01*
X18396Y3596D01*
X18415Y3634D01*
X18640Y3990D02*
X18659Y3953D01*
X18659Y3878D01*
X18640Y3840D01*
X18621Y3821D01*
X18584Y3803D01*
X18471Y3803D01*
X18434Y3821D01*
X18415Y3840D01*
X18396Y3878D01*
X18396Y3953D01*
X18415Y3990D01*
X18659Y4215D02*
X18640Y4178D01*
X18603Y4159D01*
X18265Y4159D01*
X18659Y4365D02*
X18265Y4365D01*
X18509Y4403D02*
X18659Y4515D01*
X18396Y4515D02*
X18546Y4365D01*
X17950Y5215D02*
X17912Y5234D01*
X17856Y5234D01*
X17800Y5215D01*
X17762Y5178D01*
X17743Y5140D01*
X17725Y5065D01*
X17725Y5009D01*
X17743Y4934D01*
X17762Y4896D01*
X17800Y4859D01*
X17856Y4840D01*
X17893Y4840D01*
X17950Y4859D01*
X17968Y4878D01*
X17968Y5009D01*
X17893Y5009D01*
X18137Y4840D02*
X18137Y5234D01*
X18362Y4840D01*
X18362Y5234D01*
X18549Y4840D02*
X18549Y5234D01*
X18643Y5234D01*
X18699Y5215D01*
X18737Y5178D01*
X18756Y5140D01*
X18774Y5065D01*
X18774Y5009D01*
X18756Y4934D01*
X18737Y4896D01*
X18699Y4859D01*
X18643Y4840D01*
X18549Y4840D01*
X19096Y5984D02*
X19228Y5590D01*
X19359Y5984D01*
X19490Y5590D02*
X19490Y5853D01*
X19490Y5984D02*
X19471Y5965D01*
X19490Y5946D01*
X19509Y5965D01*
X19490Y5984D01*
X19490Y5946D01*
X19678Y5853D02*
X19678Y5590D01*
X19678Y5815D02*
X19696Y5834D01*
X19734Y5853D01*
X19790Y5853D01*
X19828Y5834D01*
X19846Y5796D01*
X19846Y5590D01*
X18481Y5984D02*
X18518Y5984D01*
X18556Y5965D01*
X18574Y5946D01*
X18593Y5909D01*
X18612Y5834D01*
X18612Y5740D01*
X18593Y5665D01*
X18574Y5628D01*
X18556Y5609D01*
X18518Y5590D01*
X18481Y5590D01*
X18443Y5609D01*
X18425Y5628D01*
X18406Y5665D01*
X18387Y5740D01*
X18387Y5834D01*
X18406Y5909D01*
X18425Y5946D01*
X18443Y5965D01*
X18481Y5984D01*
X17612Y5590D02*
X17387Y5590D01*
X17500Y5590D02*
X17500Y5984D01*
X17462Y5928D01*
X17425Y5890D01*
X17387Y5871D01*
X16387Y5946D02*
X16406Y5965D01*
X16443Y5984D01*
X16537Y5984D01*
X16574Y5965D01*
X16593Y5946D01*
X16612Y5909D01*
X16612Y5871D01*
X16593Y5815D01*
X16368Y5590D01*
X16612Y5590D01*
X15368Y5984D02*
X15612Y5984D01*
X15481Y5834D01*
X15537Y5834D01*
X15574Y5815D01*
X15593Y5796D01*
X15612Y5759D01*
X15612Y5665D01*
X15593Y5628D01*
X15574Y5609D01*
X15537Y5590D01*
X15425Y5590D01*
X15387Y5609D01*
X15368Y5628D01*
X14574Y5853D02*
X14574Y5590D01*
X14481Y6003D02*
X14387Y5721D01*
X14631Y5721D01*
X13593Y5984D02*
X13406Y5984D01*
X13387Y5796D01*
X13406Y5815D01*
X13443Y5834D01*
X13537Y5834D01*
X13574Y5815D01*
X13593Y5796D01*
X13612Y5759D01*
X13612Y5665D01*
X13593Y5628D01*
X13574Y5609D01*
X13537Y5590D01*
X13443Y5590D01*
X13406Y5609D01*
X13387Y5628D01*
X12574Y5984D02*
X12500Y5984D01*
X12462Y5965D01*
X12443Y5946D01*
X12406Y5890D01*
X12387Y5815D01*
X12387Y5665D01*
X12406Y5628D01*
X12425Y5609D01*
X12462Y5590D01*
X12537Y5590D01*
X12574Y5609D01*
X12593Y5628D01*
X12612Y5665D01*
X12612Y5759D01*
X12593Y5796D01*
X12574Y5815D01*
X12537Y5834D01*
X12462Y5834D01*
X12425Y5815D01*
X12406Y5796D01*
X12387Y5759D01*
X11368Y5984D02*
X11631Y5984D01*
X11462Y5590D01*
X10462Y5815D02*
X10425Y5834D01*
X10406Y5853D01*
X10387Y5890D01*
X10387Y5909D01*
X10406Y5946D01*
X10425Y5965D01*
X10462Y5984D01*
X10537Y5984D01*
X10574Y5965D01*
X10593Y5946D01*
X10612Y5909D01*
X10612Y5890D01*
X10593Y5853D01*
X10574Y5834D01*
X10537Y5815D01*
X10462Y5815D01*
X10425Y5796D01*
X10406Y5778D01*
X10387Y5740D01*
X10387Y5665D01*
X10406Y5628D01*
X10425Y5609D01*
X10462Y5590D01*
X10537Y5590D01*
X10574Y5609D01*
X10593Y5628D01*
X10612Y5665D01*
X10612Y5740D01*
X10593Y5778D01*
X10574Y5796D01*
X10537Y5815D01*
X9425Y5590D02*
X9500Y5590D01*
X9537Y5609D01*
X9556Y5628D01*
X9593Y5684D01*
X9612Y5759D01*
X9612Y5909D01*
X9593Y5946D01*
X9574Y5965D01*
X9537Y5984D01*
X9462Y5984D01*
X9425Y5965D01*
X9406Y5946D01*
X9387Y5909D01*
X9387Y5815D01*
X9406Y5778D01*
X9425Y5759D01*
X9462Y5740D01*
X9537Y5740D01*
X9574Y5759D01*
X9593Y5778D01*
X9612Y5815D01*
X8425Y5590D02*
X8200Y5590D01*
X8312Y5590D02*
X8312Y5984D01*
X8275Y5928D01*
X8237Y5890D01*
X8200Y5871D01*
X8668Y5984D02*
X8706Y5984D01*
X8743Y5965D01*
X8762Y5946D01*
X8781Y5909D01*
X8799Y5834D01*
X8799Y5740D01*
X8781Y5665D01*
X8762Y5628D01*
X8743Y5609D01*
X8706Y5590D01*
X8668Y5590D01*
X8631Y5609D01*
X8612Y5628D01*
X8593Y5665D01*
X8574Y5740D01*
X8574Y5834D01*
X8593Y5909D01*
X8612Y5946D01*
X8631Y5965D01*
X8668Y5984D01*
X7425Y5590D02*
X7200Y5590D01*
X7312Y5590D02*
X7312Y5984D01*
X7275Y5928D01*
X7237Y5890D01*
X7200Y5871D01*
X7799Y5590D02*
X7574Y5590D01*
X7687Y5590D02*
X7687Y5984D01*
X7649Y5928D01*
X7612Y5890D01*
X7574Y5871D01*
X6659Y5284D02*
X6471Y5153D01*
X6659Y5059D02*
X6265Y5059D01*
X6265Y5209D01*
X6284Y5246D01*
X6303Y5265D01*
X6340Y5284D01*
X6396Y5284D01*
X6434Y5265D01*
X6453Y5246D01*
X6471Y5209D01*
X6471Y5059D01*
X6640Y5434D02*
X6659Y5490D01*
X6659Y5584D01*
X6640Y5621D01*
X6621Y5640D01*
X6584Y5659D01*
X6546Y5659D01*
X6509Y5640D01*
X6490Y5621D01*
X6471Y5584D01*
X6453Y5509D01*
X6434Y5471D01*
X6415Y5453D01*
X6378Y5434D01*
X6340Y5434D01*
X6303Y5453D01*
X6284Y5471D01*
X6265Y5509D01*
X6265Y5603D01*
X6284Y5659D01*
X6265Y5771D02*
X6265Y5996D01*
X6659Y5884D02*
X6265Y5884D01*
X5425Y5590D02*
X5200Y5590D01*
X5312Y5590D02*
X5312Y5984D01*
X5275Y5928D01*
X5237Y5890D01*
X5200Y5871D01*
X5574Y5946D02*
X5593Y5965D01*
X5631Y5984D01*
X5724Y5984D01*
X5762Y5965D01*
X5781Y5946D01*
X5799Y5909D01*
X5799Y5871D01*
X5781Y5815D01*
X5556Y5590D01*
X5799Y5590D01*
X4425Y5590D02*
X4200Y5590D01*
X4312Y5590D02*
X4312Y5984D01*
X4275Y5928D01*
X4237Y5890D01*
X4200Y5871D01*
X4556Y5984D02*
X4799Y5984D01*
X4668Y5834D01*
X4724Y5834D01*
X4762Y5815D01*
X4781Y5796D01*
X4799Y5759D01*
X4799Y5665D01*
X4781Y5628D01*
X4762Y5609D01*
X4724Y5590D01*
X4612Y5590D01*
X4574Y5609D01*
X4556Y5628D01*
X3425Y5590D02*
X3200Y5590D01*
X3312Y5590D02*
X3312Y5984D01*
X3275Y5928D01*
X3237Y5890D01*
X3200Y5871D01*
X3762Y5853D02*
X3762Y5590D01*
X3668Y6003D02*
X3574Y5721D01*
X3818Y5721D01*
X2265Y4900D02*
X2659Y5031D01*
X2265Y5162D01*
X2659Y5293D02*
X2265Y5293D01*
X2415Y5293D02*
X2396Y5331D01*
X2396Y5406D01*
X2415Y5443D01*
X2434Y5462D01*
X2471Y5481D01*
X2584Y5481D01*
X2621Y5462D01*
X2640Y5443D01*
X2659Y5406D01*
X2659Y5331D01*
X2640Y5293D01*
X2659Y5818D02*
X2453Y5818D01*
X2415Y5799D01*
X2396Y5762D01*
X2396Y5687D01*
X2415Y5649D01*
X2640Y5818D02*
X2659Y5781D01*
X2659Y5687D01*
X2640Y5649D01*
X2603Y5631D01*
X2565Y5631D01*
X2528Y5649D01*
X2509Y5687D01*
X2509Y5781D01*
X2490Y5818D01*
X2396Y5949D02*
X2396Y6099D01*
X2265Y6006D02*
X2603Y6006D01*
X2640Y6024D01*
X2659Y6062D01*
X2659Y6099D01*
X1659Y5290D02*
X1453Y5290D01*
X1415Y5271D01*
X1396Y5234D01*
X1396Y5159D01*
X1415Y5121D01*
X1640Y5290D02*
X1659Y5253D01*
X1659Y5159D01*
X1640Y5121D01*
X1603Y5103D01*
X1565Y5103D01*
X1528Y5121D01*
X1509Y5159D01*
X1509Y5253D01*
X1490Y5290D01*
X1396Y5440D02*
X1659Y5534D01*
X1396Y5628D01*
X1509Y5778D02*
X1509Y6078D01*
X290Y5790D02*
X290Y5996D01*
X271Y6034D01*
X234Y6053D01*
X159Y6053D01*
X121Y6034D01*
X290Y5809D02*
X253Y5790D01*
X159Y5790D01*
X121Y5809D01*
X103Y5846D01*
X103Y5884D01*
X121Y5921D01*
X159Y5940D01*
X253Y5940D01*
X290Y5959D01*
X440Y6053D02*
X534Y5790D01*
X628Y6053D01*
X778Y5940D02*
X1078Y5940D01*
X928Y5790D02*
X928Y6090D01*
X0Y7000D02*
X0Y0D01*
X20000Y7000D02*
X0Y7000D01*
X20000Y0D02*
X20000Y7000D01*
X0Y0D02*
X20000Y0D01*
G54D12*
X2482Y3292D02*
X2527Y3275D01*
X2542Y3258D01*
X2557Y3224D01*
X2557Y3174D01*
X2542Y3140D01*
X2527Y3123D01*
X2497Y3106D01*
X2377Y3106D01*
X2377Y3460D01*
X2482Y3460D01*
X2512Y3443D01*
X2527Y3427D01*
X2542Y3393D01*
X2542Y3359D01*
X2527Y3325D01*
X2512Y3309D01*
X2482Y3292D01*
X2377Y3292D01*
X2737Y3106D02*
X2707Y3123D01*
X2692Y3140D01*
X2677Y3174D01*
X2677Y3275D01*
X2692Y3309D01*
X2707Y3325D01*
X2737Y3342D01*
X2782Y3342D01*
X2812Y3325D01*
X2827Y3309D01*
X2842Y3275D01*
X2842Y3174D01*
X2827Y3140D01*
X2812Y3123D01*
X2782Y3106D01*
X2737Y3106D01*
X2977Y3106D02*
X2977Y3460D01*
X2977Y3325D02*
X3007Y3342D01*
X3067Y3342D01*
X3097Y3325D01*
X3112Y3309D01*
X3127Y3275D01*
X3127Y3174D01*
X3112Y3140D01*
X3097Y3123D01*
X3067Y3106D01*
X3007Y3106D01*
X2977Y3123D01*
X3682Y3140D02*
X3667Y3123D01*
X3622Y3106D01*
X3592Y3106D01*
X3547Y3123D01*
X3517Y3157D01*
X3502Y3191D01*
X3487Y3258D01*
X3487Y3309D01*
X3502Y3376D01*
X3517Y3410D01*
X3547Y3443D01*
X3592Y3460D01*
X3622Y3460D01*
X3667Y3443D01*
X3682Y3427D01*
X3862Y3106D02*
X3832Y3123D01*
X3817Y3140D01*
X3802Y3174D01*
X3802Y3275D01*
X3817Y3309D01*
X3832Y3325D01*
X3862Y3342D01*
X3907Y3342D01*
X3937Y3325D01*
X3952Y3309D01*
X3967Y3275D01*
X3967Y3174D01*
X3952Y3140D01*
X3937Y3123D01*
X3907Y3106D01*
X3862Y3106D01*
X4237Y3342D02*
X4237Y3106D01*
X4102Y3342D02*
X4102Y3157D01*
X4117Y3123D01*
X4147Y3106D01*
X4192Y3106D01*
X4222Y3123D01*
X4237Y3140D01*
X4372Y3123D02*
X4402Y3106D01*
X4462Y3106D01*
X4492Y3123D01*
X4507Y3157D01*
X4507Y3174D01*
X4492Y3207D01*
X4462Y3224D01*
X4417Y3224D01*
X4387Y3241D01*
X4372Y3275D01*
X4372Y3292D01*
X4387Y3325D01*
X4417Y3342D01*
X4462Y3342D01*
X4492Y3325D01*
X4642Y3106D02*
X4642Y3342D01*
X4642Y3460D02*
X4627Y3443D01*
X4642Y3427D01*
X4657Y3443D01*
X4642Y3460D01*
X4642Y3427D01*
X4792Y3342D02*
X4792Y3106D01*
X4792Y3309D02*
X4807Y3325D01*
X4837Y3342D01*
X4882Y3342D01*
X4912Y3325D01*
X4927Y3292D01*
X4927Y3106D01*
X5062Y3123D02*
X5092Y3106D01*
X5152Y3106D01*
X5182Y3123D01*
X5197Y3157D01*
X5197Y3174D01*
X5182Y3207D01*
X5152Y3224D01*
X5107Y3224D01*
X5077Y3241D01*
X5062Y3275D01*
X5062Y3292D01*
X5077Y3325D01*
X5107Y3342D01*
X5152Y3342D01*
X5182Y3325D01*
X5557Y3427D02*
X5572Y3443D01*
X5602Y3460D01*
X5677Y3460D01*
X5707Y3443D01*
X5722Y3427D01*
X5737Y3393D01*
X5737Y3359D01*
X5722Y3309D01*
X5542Y3106D01*
X5737Y3106D01*
X5932Y3460D02*
X5962Y3460D01*
X5992Y3443D01*
X6007Y3427D01*
X6022Y3393D01*
X6037Y3325D01*
X6037Y3241D01*
X6022Y3174D01*
X6007Y3140D01*
X5992Y3123D01*
X5962Y3106D01*
X5932Y3106D01*
X5902Y3123D01*
X5887Y3140D01*
X5872Y3174D01*
X5857Y3241D01*
X5857Y3325D01*
X5872Y3393D01*
X5887Y3427D01*
X5902Y3443D01*
X5932Y3460D01*
X6337Y3106D02*
X6157Y3106D01*
X6247Y3106D02*
X6247Y3460D01*
X6217Y3410D01*
X6187Y3376D01*
X6157Y3359D01*
X6622Y3460D02*
X6472Y3460D01*
X6457Y3292D01*
X6472Y3309D01*
X6502Y3325D01*
X6577Y3325D01*
X6607Y3309D01*
X6622Y3292D01*
X6637Y3258D01*
X6637Y3174D01*
X6622Y3140D01*
X6607Y3123D01*
X6577Y3106D01*
X6502Y3106D01*
X6472Y3123D01*
X6457Y3140D01*
X3217Y3873D02*
X3262Y3856D01*
X3337Y3856D01*
X3367Y3873D01*
X3382Y3890D01*
X3397Y3924D01*
X3397Y3957D01*
X3382Y3991D01*
X3367Y4008D01*
X3337Y4025D01*
X3277Y4042D01*
X3247Y4059D01*
X3232Y4075D01*
X3217Y4109D01*
X3217Y4143D01*
X3232Y4177D01*
X3247Y4193D01*
X3277Y4210D01*
X3352Y4210D01*
X3397Y4193D01*
X3487Y4210D02*
X3667Y4210D01*
X3577Y3856D02*
X3577Y4210D01*
X3772Y3856D02*
X3772Y4210D01*
X3877Y3957D01*
X3982Y4210D01*
X3982Y3856D01*
X4102Y4210D02*
X4297Y4210D01*
X4192Y4075D01*
X4237Y4075D01*
X4267Y4059D01*
X4282Y4042D01*
X4297Y4008D01*
X4297Y3924D01*
X4282Y3890D01*
X4267Y3873D01*
X4237Y3856D01*
X4147Y3856D01*
X4117Y3873D01*
X4102Y3890D01*
X4417Y4177D02*
X4432Y4193D01*
X4462Y4210D01*
X4537Y4210D01*
X4567Y4193D01*
X4582Y4177D01*
X4597Y4143D01*
X4597Y4109D01*
X4582Y4059D01*
X4402Y3856D01*
X4597Y3856D01*
X4972Y3856D02*
X4972Y4210D01*
X5077Y3957D01*
X5182Y4210D01*
X5182Y3856D01*
X5332Y3856D02*
X5332Y4092D01*
X5332Y4210D02*
X5317Y4193D01*
X5332Y4177D01*
X5347Y4193D01*
X5332Y4210D01*
X5332Y4177D01*
X5482Y4092D02*
X5482Y3856D01*
X5482Y4059D02*
X5497Y4075D01*
X5527Y4092D01*
X5572Y4092D01*
X5602Y4075D01*
X5617Y4042D01*
X5617Y3856D01*
X5767Y3856D02*
X5767Y4092D01*
X5767Y4210D02*
X5752Y4193D01*
X5767Y4177D01*
X5782Y4193D01*
X5767Y4210D01*
X5767Y4177D01*
G54D10*
X17826Y2948D02*
X17826Y4051D01*
X17826Y4051D02*
X16173Y4051D01*
X16173Y4051D02*
X16173Y2948D01*
X17826Y2948D02*
X16173Y2948D01*
X13173Y4051D02*
X13173Y2948D01*
X13173Y2948D02*
X14826Y2948D01*
X14826Y2948D02*
X14826Y4051D01*
X13173Y4051D02*
X14826Y4051D01*
X19000Y5500D02*
X19000Y1500D01*
X19000Y1500D02*
X20000Y1500D01*
X20000Y1500D02*
X20000Y5500D01*
X20000Y5500D02*
X19000Y5500D01*
G54D13*
X-71Y4780D02*
X-71Y2220D01*
X992Y2024D02*
X1701Y2024D01*
X1701Y2024D02*
X1701Y2299D01*
X1701Y4071D02*
X1701Y2949D01*
X1012Y4976D02*
X1701Y4976D01*
X1701Y4976D02*
X1701Y4740D01*
X-346Y2024D02*
X-12Y2024D01*
X-346Y2024D02*
X-346Y4976D01*
X-346Y4976D02*
X-12Y4976D01*
G54D14*
X10118Y3303D02*
X10118Y3697D01*
X9882Y3697D02*
X9882Y3303D01*
X10000Y3461D02*
X10000Y3539D01*
X9961Y3579D02*
X9961Y3421D01*
X9961Y3421D02*
X10039Y3500D01*
X10039Y3500D02*
X9961Y3579D01*
X9685Y3697D02*
X10315Y3697D01*
X10315Y3697D02*
X10315Y3303D01*
X10315Y3303D02*
X9685Y3303D01*
X9685Y3303D02*
X9685Y3697D01*
G54D15*
X8800Y2668D02*
X8800Y2487D01*
X8835Y2668D02*
X8855Y2668D01*
X8816Y2656D02*
X8835Y2668D01*
X8808Y2648D02*
X8816Y2656D01*
X8800Y2621D02*
X8808Y2648D01*
X8973Y2487D02*
X8993Y2499D01*
X8934Y2487D02*
X8973Y2487D01*
X8918Y2499D02*
X8934Y2487D01*
X8910Y2526D02*
X8918Y2499D01*
X8910Y2633D02*
X8910Y2526D01*
X8922Y2656D02*
X8910Y2633D01*
X8938Y2668D02*
X8922Y2656D01*
X8977Y2668D02*
X8938Y2668D01*
X8993Y2652D02*
X8977Y2668D01*
X9001Y2625D02*
X8993Y2652D01*
X9001Y2577D02*
X9001Y2625D01*
X9001Y2577D02*
X8910Y2577D01*
X8705Y2633D02*
X8705Y2487D01*
X8694Y2656D02*
X8705Y2633D01*
X8678Y2668D02*
X8694Y2656D01*
X8638Y2668D02*
X8678Y2668D01*
X8619Y2656D02*
X8638Y2668D01*
X8642Y2593D02*
X8623Y2581D01*
X8690Y2593D02*
X8642Y2593D01*
X8705Y2605D02*
X8690Y2593D01*
X8686Y2487D02*
X8705Y2503D01*
X8638Y2487D02*
X8686Y2487D01*
X8619Y2503D02*
X8638Y2487D01*
X8611Y2526D02*
X8619Y2503D01*
X8611Y2554D02*
X8611Y2526D01*
X8623Y2581D02*
X8611Y2554D01*
X8394Y2668D02*
X8434Y2487D01*
X8434Y2487D02*
X8469Y2621D01*
X8469Y2621D02*
X8509Y2487D01*
X8509Y2487D02*
X8548Y2668D01*
X8320Y2499D02*
X8304Y2487D01*
X8304Y2487D02*
X8261Y2487D01*
X8261Y2487D02*
X8245Y2499D01*
X8245Y2499D02*
X8237Y2511D01*
X8237Y2511D02*
X8225Y2538D01*
X8225Y2538D02*
X8225Y2617D01*
X8225Y2617D02*
X8237Y2644D01*
X8237Y2644D02*
X8245Y2656D01*
X8245Y2656D02*
X8268Y2672D01*
X8268Y2672D02*
X8296Y2672D01*
X8296Y2672D02*
X8320Y2656D01*
X8320Y2762D02*
X8320Y2487D01*
X8115Y2621D02*
X8123Y2648D01*
X8123Y2648D02*
X8131Y2656D01*
X8131Y2656D02*
X8150Y2668D01*
X8150Y2668D02*
X8170Y2668D01*
X8115Y2668D02*
X8115Y2487D01*
X7938Y2581D02*
X7926Y2554D01*
X7926Y2554D02*
X7926Y2526D01*
X7926Y2526D02*
X7934Y2503D01*
X7934Y2503D02*
X7953Y2487D01*
X7953Y2487D02*
X8001Y2487D01*
X8001Y2487D02*
X8020Y2503D01*
X8020Y2605D02*
X8005Y2593D01*
X8005Y2593D02*
X7957Y2593D01*
X7957Y2593D02*
X7938Y2581D01*
X7934Y2656D02*
X7953Y2668D01*
X7953Y2668D02*
X7993Y2668D01*
X7993Y2668D02*
X8009Y2656D01*
X8009Y2656D02*
X8020Y2633D01*
X8020Y2633D02*
X8020Y2487D01*
X7757Y2640D02*
X7764Y2656D01*
X7764Y2656D02*
X7784Y2668D01*
X7784Y2668D02*
X7816Y2668D01*
X7816Y2668D02*
X7831Y2656D01*
X7831Y2656D02*
X7839Y2633D01*
X7839Y2633D02*
X7839Y2487D01*
X7757Y2762D02*
X7757Y2487D01*
X7343Y2577D02*
X7253Y2577D01*
X7430Y2644D02*
X7438Y2656D01*
X7438Y2656D02*
X7453Y2668D01*
X7453Y2668D02*
X7489Y2668D01*
X7489Y2668D02*
X7505Y2656D01*
X7505Y2656D02*
X7512Y2633D01*
X7512Y2633D02*
X7512Y2487D01*
X7430Y2668D02*
X7430Y2487D01*
X7343Y2577D02*
X7343Y2625D01*
X7343Y2625D02*
X7335Y2652D01*
X7335Y2652D02*
X7320Y2668D01*
X7320Y2668D02*
X7280Y2668D01*
X7280Y2668D02*
X7264Y2656D01*
X7264Y2656D02*
X7253Y2633D01*
X7253Y2633D02*
X7253Y2526D01*
X7253Y2526D02*
X7261Y2499D01*
X7261Y2499D02*
X7276Y2487D01*
X7276Y2487D02*
X7316Y2487D01*
X7316Y2487D02*
X7335Y2499D01*
X7083Y2656D02*
X7099Y2668D01*
X7099Y2668D02*
X7138Y2668D01*
X7138Y2668D02*
X7154Y2656D01*
X7154Y2656D02*
X7166Y2644D01*
X7166Y2644D02*
X7174Y2621D01*
X7174Y2621D02*
X7174Y2534D01*
X7174Y2534D02*
X7166Y2511D01*
X7166Y2511D02*
X7158Y2499D01*
X7158Y2499D02*
X7142Y2487D01*
X7142Y2487D02*
X7103Y2487D01*
X7103Y2487D02*
X7083Y2499D01*
X7083Y2392D02*
X7083Y2668D01*
X6961Y2668D02*
X6930Y2668D01*
X6930Y2668D02*
X6914Y2656D01*
X6914Y2656D02*
X6906Y2644D01*
X6906Y2644D02*
X6894Y2617D01*
X6930Y2487D02*
X6961Y2487D01*
X6961Y2487D02*
X6981Y2499D01*
X6981Y2499D02*
X6989Y2511D01*
X6989Y2511D02*
X6997Y2538D01*
X6997Y2538D02*
X6997Y2617D01*
X6997Y2617D02*
X6989Y2640D01*
X6989Y2640D02*
X6981Y2652D01*
X6981Y2652D02*
X6961Y2668D01*
X6894Y2617D02*
X6894Y2538D01*
X6894Y2538D02*
X6902Y2514D01*
X6902Y2514D02*
X6910Y2503D01*
X6910Y2503D02*
X6930Y2487D01*
G54D16*
G36*
X7354Y2816D02*
X7364Y2822D01*
X7387Y2836D01*
X7420Y2858D01*
X7459Y2884D01*
X7498Y2910D01*
X7530Y2931D01*
X7552Y2946D01*
X7562Y2951D01*
X7567Y2949D01*
X7585Y2940D01*
X7612Y2926D01*
X7628Y2918D01*
X7652Y2908D01*
X7665Y2905D01*
X7667Y2909D01*
X7676Y2928D01*
X7690Y2960D01*
X7708Y3003D01*
X7730Y3053D01*
X7752Y3106D01*
X7775Y3161D01*
X7797Y3214D01*
X7816Y3261D01*
X7832Y3299D01*
X7842Y3326D01*
X7846Y3337D01*
X7845Y3340D01*
X7832Y3352D01*
X7811Y3368D01*
X7764Y3406D01*
X7718Y3463D01*
X7690Y3528D01*
X7681Y3601D01*
X7689Y3668D01*
X7715Y3732D01*
X7760Y3790D01*
X7815Y3833D01*
X7879Y3860D01*
X7950Y3869D01*
X8018Y3861D01*
X8084Y3835D01*
X8142Y3791D01*
X8167Y3763D01*
X8201Y3704D01*
X8220Y3642D01*
X8222Y3626D01*
X8219Y3557D01*
X8199Y3490D01*
X8162Y3431D01*
X8111Y3382D01*
X8105Y3378D01*
X8082Y3360D01*
X8066Y3348D01*
X8054Y3338D01*
X8142Y3126D01*
X8156Y3093D01*
X8180Y3035D01*
X8201Y2985D01*
X8218Y2945D01*
X8230Y2919D01*
X8235Y2908D01*
X8235Y2907D01*
X8243Y2906D01*
X8259Y2912D01*
X8289Y2926D01*
X8308Y2936D01*
X8331Y2947D01*
X8341Y2951D01*
X8350Y2946D01*
X8371Y2932D01*
X8403Y2911D01*
X8441Y2886D01*
X8477Y2861D01*
X8510Y2839D01*
X8534Y2824D01*
X8546Y2817D01*
X8548Y2817D01*
X8558Y2823D01*
X8577Y2839D01*
X8606Y2866D01*
X8647Y2907D01*
X8653Y2913D01*
X8687Y2947D01*
X8714Y2976D01*
X8732Y2996D01*
X8739Y3005D01*
X8739Y3005D01*
X8733Y3017D01*
X8718Y3041D01*
X8696Y3075D01*
X8669Y3114D01*
X8599Y3216D01*
X8637Y3312D01*
X8649Y3342D01*
X8664Y3377D01*
X8675Y3403D01*
X8681Y3414D01*
X8691Y3418D01*
X8718Y3424D01*
X8756Y3432D01*
X8801Y3440D01*
X8845Y3448D01*
X8884Y3456D01*
X8912Y3461D01*
X8925Y3464D01*
X8928Y3466D01*
X8931Y3472D01*
X8932Y3485D01*
X8933Y3509D01*
X8934Y3546D01*
X8934Y3601D01*
X8934Y3607D01*
X8933Y3658D01*
X8932Y3700D01*
X8931Y3726D01*
X8929Y3737D01*
X8929Y3737D01*
X8917Y3740D01*
X8889Y3746D01*
X8850Y3753D01*
X8803Y3762D01*
X8800Y3763D01*
X8754Y3772D01*
X8715Y3780D01*
X8687Y3786D01*
X8676Y3790D01*
X8673Y3793D01*
X8664Y3811D01*
X8651Y3840D01*
X8635Y3875D01*
X8620Y3912D01*
X8607Y3945D01*
X8598Y3969D01*
X8595Y3980D01*
X8596Y3981D01*
X8603Y3992D01*
X8619Y4016D01*
X8641Y4049D01*
X8668Y4089D01*
X8670Y4092D01*
X8697Y4131D01*
X8719Y4165D01*
X8733Y4188D01*
X8739Y4199D01*
X8739Y4200D01*
X8730Y4212D01*
X8710Y4234D01*
X8681Y4264D01*
X8647Y4299D01*
X8636Y4309D01*
X8597Y4347D01*
X8571Y4371D01*
X8554Y4384D01*
X8546Y4387D01*
X8546Y4387D01*
X8534Y4380D01*
X8509Y4364D01*
X8476Y4341D01*
X8436Y4314D01*
X8433Y4312D01*
X8394Y4285D01*
X8361Y4263D01*
X8338Y4247D01*
X8327Y4241D01*
X8326Y4241D01*
X8310Y4246D01*
X8282Y4256D01*
X8247Y4269D01*
X8211Y4284D01*
X8178Y4298D01*
X8153Y4309D01*
X8141Y4316D01*
X8141Y4316D01*
X8137Y4330D01*
X8130Y4360D01*
X8122Y4400D01*
X8112Y4448D01*
X8111Y4456D01*
X8102Y4503D01*
X8095Y4542D01*
X8089Y4569D01*
X8086Y4580D01*
X8080Y4581D01*
X8057Y4583D01*
X8022Y4584D01*
X7979Y4584D01*
X7935Y4584D01*
X7892Y4583D01*
X7855Y4582D01*
X7828Y4580D01*
X7817Y4578D01*
X7817Y4577D01*
X7813Y4562D01*
X7806Y4533D01*
X7798Y4492D01*
X7789Y4444D01*
X7787Y4435D01*
X7778Y4389D01*
X7770Y4350D01*
X7765Y4324D01*
X7762Y4313D01*
X7757Y4311D01*
X7738Y4303D01*
X7707Y4290D01*
X7668Y4274D01*
X7578Y4238D01*
X7467Y4313D01*
X7457Y4320D01*
X7417Y4347D01*
X7385Y4369D01*
X7362Y4384D01*
X7353Y4389D01*
X7352Y4389D01*
X7341Y4379D01*
X7319Y4358D01*
X7289Y4329D01*
X7254Y4295D01*
X7229Y4269D01*
X7198Y4238D01*
X7179Y4217D01*
X7168Y4204D01*
X7165Y4196D01*
X7166Y4190D01*
X7173Y4179D01*
X7189Y4155D01*
X7212Y4121D01*
X7239Y4082D01*
X7261Y4049D01*
X7285Y4012D01*
X7300Y3986D01*
X7306Y3973D01*
X7304Y3968D01*
X7297Y3946D01*
X7283Y3913D01*
X7267Y3874D01*
X7228Y3787D01*
X7171Y3776D01*
X7136Y3769D01*
X7088Y3760D01*
X7041Y3751D01*
X6969Y3737D01*
X6966Y3471D01*
X6977Y3466D01*
X6988Y3463D01*
X7015Y3457D01*
X7053Y3449D01*
X7099Y3441D01*
X7137Y3434D01*
X7176Y3426D01*
X7204Y3421D01*
X7216Y3418D01*
X7220Y3414D01*
X7229Y3395D01*
X7243Y3365D01*
X7259Y3329D01*
X7274Y3292D01*
X7288Y3257D01*
X7297Y3231D01*
X7301Y3218D01*
X7296Y3207D01*
X7281Y3184D01*
X7260Y3152D01*
X7233Y3113D01*
X7207Y3075D01*
X7184Y3042D01*
X7169Y3018D01*
X7162Y3007D01*
X7166Y3000D01*
X7181Y2981D01*
X7210Y2951D01*
X7254Y2908D01*
X7261Y2901D01*
X7295Y2868D01*
X7324Y2841D01*
X7345Y2823D01*
X7354Y2816D01*
X7354Y2816D01*
G37*
G54D13*
X15528Y3000D02*
X15557Y3085D01*
X15585Y3114D01*
X15642Y3142D01*
X15728Y3142D01*
X15785Y3114D01*
X15814Y3085D01*
X15842Y3028D01*
X15842Y2800D01*
X15242Y2800D01*
X15242Y3000D01*
X15271Y3057D01*
X15300Y3085D01*
X15357Y3114D01*
X15414Y3114D01*
X15471Y3085D01*
X15500Y3057D01*
X15528Y3000D01*
X15528Y2800D01*
X15242Y3400D02*
X15728Y3400D01*
X15785Y3428D01*
X15814Y3457D01*
X15842Y3514D01*
X15842Y3628D01*
X15814Y3685D01*
X15785Y3714D01*
X15728Y3742D01*
X15242Y3742D01*
X15242Y3942D02*
X15242Y4285D01*
X15842Y4114D02*
X15242Y4114D01*
X12742Y3171D02*
X12457Y2971D01*
X12742Y2828D02*
X12142Y2828D01*
X12142Y3057D01*
X12171Y3114D01*
X12200Y3142D01*
X12257Y3171D01*
X12342Y3171D01*
X12400Y3142D01*
X12428Y3114D01*
X12457Y3057D01*
X12457Y2828D01*
X12714Y3400D02*
X12742Y3485D01*
X12742Y3628D01*
X12714Y3685D01*
X12685Y3714D01*
X12628Y3742D01*
X12571Y3742D01*
X12514Y3714D01*
X12485Y3685D01*
X12457Y3628D01*
X12428Y3514D01*
X12400Y3457D01*
X12371Y3428D01*
X12314Y3400D01*
X12257Y3400D01*
X12200Y3428D01*
X12171Y3457D01*
X12142Y3514D01*
X12142Y3657D01*
X12171Y3742D01*
X12142Y3914D02*
X12142Y4257D01*
X12742Y4085D02*
X12142Y4085D01*
G54D10*
X20659Y3209D02*
X20265Y3209D01*
X20265Y3359D01*
X20284Y3396D01*
X20303Y3415D01*
X20340Y3434D01*
X20396Y3434D01*
X20434Y3415D01*
X20453Y3396D01*
X20471Y3359D01*
X20471Y3209D01*
X20396Y3771D02*
X20659Y3771D01*
X20246Y3678D02*
X20528Y3584D01*
X20528Y3828D01*
X20890Y4215D02*
X20909Y4271D01*
X20909Y4365D01*
X20890Y4403D01*
X20871Y4421D01*
X20834Y4440D01*
X20796Y4440D01*
X20759Y4421D01*
X20740Y4403D01*
X20721Y4365D01*
X20703Y4290D01*
X20684Y4253D01*
X20665Y4234D01*
X20628Y4215D01*
X20590Y4215D01*
X20553Y4234D01*
X20534Y4253D01*
X20515Y4290D01*
X20515Y4384D01*
X20534Y4440D01*
X20515Y4571D02*
X20909Y4665D01*
X20628Y4740D01*
X20909Y4815D01*
X20515Y4909D01*
X20909Y5059D02*
X20515Y5059D01*
X20515Y5153D01*
X20534Y5209D01*
X20571Y5246D01*
X20609Y5265D01*
X20684Y5284D01*
X20740Y5284D01*
X20815Y5265D01*
X20853Y5246D01*
X20890Y5209D01*
X20909Y5153D01*
X20909Y5059D01*
G54D14*
X-1795Y5088D02*
X-1795Y5488D01*
X-1642Y5488D01*
X-1604Y5469D01*
X-1585Y5450D01*
X-1566Y5411D01*
X-1566Y5354D01*
X-1585Y5316D01*
X-1604Y5297D01*
X-1642Y5278D01*
X-1795Y5278D01*
X-1185Y5088D02*
X-1414Y5088D01*
X-1299Y5088D02*
X-1299Y5488D01*
X-1338Y5430D01*
X-1376Y5392D01*
X-1414Y5373D01*
X-1738Y2166D02*
X-1414Y2166D01*
X-1376Y2185D01*
X-1357Y2204D01*
X-1338Y2242D01*
X-1338Y2319D01*
X-1357Y2357D01*
X-1376Y2376D01*
X-1414Y2395D01*
X-1738Y2395D01*
X-1357Y2566D02*
X-1338Y2623D01*
X-1338Y2719D01*
X-1357Y2757D01*
X-1376Y2776D01*
X-1414Y2795D01*
X-1452Y2795D01*
X-1490Y2776D01*
X-1509Y2757D01*
X-1528Y2719D01*
X-1547Y2642D01*
X-1566Y2604D01*
X-1585Y2585D01*
X-1623Y2566D01*
X-1661Y2566D01*
X-1700Y2585D01*
X-1719Y2604D01*
X-1738Y2642D01*
X-1738Y2738D01*
X-1719Y2795D01*
X-1547Y3100D02*
X-1528Y3157D01*
X-1509Y3176D01*
X-1471Y3195D01*
X-1414Y3195D01*
X-1376Y3176D01*
X-1357Y3157D01*
X-1338Y3119D01*
X-1338Y2966D01*
X-1738Y2966D01*
X-1738Y3100D01*
X-1719Y3138D01*
X-1700Y3157D01*
X-1661Y3176D01*
X-1623Y3176D01*
X-1585Y3157D01*
X-1566Y3138D01*
X-1547Y3100D01*
X-1547Y2966D01*
X-1376Y3595D02*
X-1357Y3576D01*
X-1338Y3519D01*
X-1338Y3480D01*
X-1357Y3423D01*
X-1395Y3385D01*
X-1433Y3366D01*
X-1509Y3347D01*
X-1566Y3347D01*
X-1642Y3366D01*
X-1680Y3385D01*
X-1719Y3423D01*
X-1738Y3480D01*
X-1738Y3519D01*
X-1719Y3576D01*
X-1700Y3595D01*
X-1738Y3842D02*
X-1738Y3919D01*
X-1719Y3957D01*
X-1680Y3995D01*
X-1604Y4014D01*
X-1471Y4014D01*
X-1395Y3995D01*
X-1357Y3957D01*
X-1338Y3919D01*
X-1338Y3842D01*
X-1357Y3804D01*
X-1395Y3766D01*
X-1471Y3747D01*
X-1604Y3747D01*
X-1680Y3766D01*
X-1719Y3804D01*
X-1738Y3842D01*
X-1338Y4185D02*
X-1738Y4185D01*
X-1338Y4414D01*
X-1738Y4414D01*
X-1338Y4604D02*
X-1738Y4604D01*
X-1338Y4833D01*
X-1738Y4833D01*
G54D17*
X10848Y3404D02*
X10735Y3404D01*
X10735Y3640D01*
X10926Y3528D02*
X11005Y3528D01*
X11039Y3404D02*
X10926Y3404D01*
X10926Y3640D01*
X11039Y3640D01*
X11140Y3404D02*
X11140Y3640D01*
X11196Y3640D01*
X11230Y3629D01*
X11252Y3606D01*
X11264Y3584D01*
X11275Y3539D01*
X11275Y3505D01*
X11264Y3460D01*
X11252Y3438D01*
X11230Y3415D01*
X11196Y3404D01*
X11140Y3404D01*
M02*
