M48
INCH,TZ
T1C0.012
T2C0.026
T3C0.039
T4C0.059
%
G90
G05
T1
X1991Y3500
X2066Y3801
X2636Y3988
X3370Y1770
X3444Y3199
X3624Y3479
X6030Y2000
X6142Y2854
X6838Y6112
X7334Y4489
X7595Y2996
X8780Y2000
X9412Y5283
X10840Y1950
X11080Y2360
X11370Y2460
X11455Y4066
X12967Y4442
X12980Y1380
X14994Y4243
X15273Y3185
X15618Y3528
X16856Y3815
T2
X1681Y4386
X1681Y2614
T3
X500Y6500
X500Y500
X1500Y6500
X1500Y500
X2500Y6500
X2500Y500
X3500Y6500
X3500Y500
X4500Y6500
X4500Y500
X5500Y6500
X5500Y500
X6500Y6500
X6500Y500
X7500Y6500
X7500Y500
X8500Y6500
X8500Y500
X9500Y6500
X9500Y500
X10500Y6500
X10500Y500
X11500Y6500
X11500Y500
X12500Y6500
X12500Y500
X13500Y6500
X13500Y500
X14500Y6500
X14500Y500
X15500Y6500
X15500Y500
X16500Y6500
X16500Y500
X17500Y6500
X17500Y500
X18500Y6500
X18500Y500
X19500Y6500
X19500Y5000
X19500Y4000
X19500Y3000
X19500Y2000
X19500Y500
T4
X500Y5173
X500Y1827
T0
M30
