G04 (created by PCBNEW (2013-07-07 BZR 4022)-stable) date 03/01/2015 14:14:57*
%MOIN*%
G04 Gerber Fmt 3.4, Leading zero omitted, Abs format*
%FSLAX34Y34*%
G01*
G70*
G90*
G04 APERTURE LIST*
%ADD10C,0.00590551*%
%ADD11C,0.00393701*%
%ADD12C,0.005*%
%ADD13C,0.008*%
%ADD14C,0.0047*%
%ADD15C,0.0039*%
%ADD16C,0.0031*%
%ADD17C,0.0025*%
%ADD18C,0.0045*%
%ADD19C,0.0051*%
G04 APERTURE END LIST*
G54D10*
G54D11*
X0Y7000D02*
X0Y0D01*
X20000Y7000D02*
X0Y7000D01*
X20000Y0D02*
X20000Y7000D01*
X0Y0D02*
X20000Y0D01*
G54D12*
X6750Y4950D02*
X6750Y4050D01*
X6750Y4050D02*
X7250Y4050D01*
X7250Y4050D02*
X7250Y4950D01*
X7250Y4950D02*
X6750Y4950D01*
X7250Y5050D02*
X7250Y5950D01*
X7250Y5950D02*
X6750Y5950D01*
X6750Y5950D02*
X6750Y5050D01*
X6750Y5050D02*
X7250Y5050D01*
G54D13*
X8741Y3500D02*
G75*
G03X8741Y3500I-162J0D01*
G74*
G01*
X8618Y3500D02*
G75*
G03X8618Y3500I-39J0D01*
G74*
G01*
X8690Y3500D02*
G75*
G03X8690Y3500I-111J0D01*
G74*
G01*
X8968Y3333D02*
X10750Y1551D01*
X10750Y1551D02*
X12698Y3500D01*
X12698Y3500D02*
X10750Y5448D01*
X10750Y5448D02*
X8968Y3666D01*
X8968Y3333D02*
X8968Y3666D01*
G54D14*
X4600Y3100D02*
X4600Y1900D01*
X4600Y1900D02*
X4900Y1900D01*
X4900Y1900D02*
X4900Y3100D01*
X4900Y3100D02*
X4600Y3100D01*
G54D12*
X6947Y2275D02*
X7225Y2275D01*
X7225Y2275D02*
X7225Y1725D01*
X7225Y1725D02*
X6947Y1725D01*
X6275Y2275D02*
X6553Y2275D01*
X6275Y2275D02*
X6275Y1725D01*
X6275Y1725D02*
X6553Y1725D01*
G54D15*
X6492Y4370D02*
X6492Y5630D01*
X6492Y5630D02*
X5508Y5630D01*
X5508Y5630D02*
X5508Y4370D01*
X5508Y4370D02*
X6492Y4370D01*
G54D14*
X15306Y4703D02*
X15306Y4428D01*
X15306Y5097D02*
X15306Y5372D01*
X14794Y4703D02*
X14794Y4428D01*
X14794Y5372D02*
X14794Y5097D01*
X14800Y4428D02*
X15300Y4428D01*
X15300Y5372D02*
X14800Y5372D01*
X14447Y4256D02*
X14722Y4256D01*
X14053Y4256D02*
X13778Y4256D01*
X14447Y3744D02*
X14722Y3744D01*
X13778Y3744D02*
X14053Y3744D01*
X14722Y3750D02*
X14722Y4250D01*
X13778Y4250D02*
X13778Y3750D01*
X12947Y1506D02*
X13222Y1506D01*
X12553Y1506D02*
X12278Y1506D01*
X12947Y994D02*
X13222Y994D01*
X12278Y994D02*
X12553Y994D01*
X13222Y1000D02*
X13222Y1500D01*
X12278Y1500D02*
X12278Y1000D01*
X6553Y2494D02*
X6278Y2494D01*
X6947Y2494D02*
X7222Y2494D01*
X6553Y3006D02*
X6278Y3006D01*
X7222Y3006D02*
X6947Y3006D01*
X6278Y3000D02*
X6278Y2500D01*
X7222Y2500D02*
X7222Y3000D01*
X8256Y3053D02*
X8256Y2778D01*
X8256Y3447D02*
X8256Y3722D01*
X7744Y3053D02*
X7744Y2778D01*
X7744Y3722D02*
X7744Y3447D01*
X7750Y2778D02*
X8250Y2778D01*
X8250Y3722D02*
X7750Y3722D01*
G54D12*
X16053Y3725D02*
X15775Y3725D01*
X15775Y3725D02*
X15775Y4275D01*
X15775Y4275D02*
X16053Y4275D01*
X16725Y3725D02*
X16447Y3725D01*
X16725Y3725D02*
X16725Y4275D01*
X16725Y4275D02*
X16447Y4275D01*
X3775Y2303D02*
X3775Y2025D01*
X3775Y2025D02*
X3225Y2025D01*
X3225Y2025D02*
X3225Y2303D01*
X3775Y2975D02*
X3775Y2697D01*
X3775Y2975D02*
X3225Y2975D01*
X3225Y2975D02*
X3225Y2697D01*
X2197Y1775D02*
X2475Y1775D01*
X2475Y1775D02*
X2475Y1225D01*
X2475Y1225D02*
X2197Y1225D01*
X1525Y1775D02*
X1803Y1775D01*
X1525Y1775D02*
X1525Y1225D01*
X1525Y1225D02*
X1803Y1225D01*
X16053Y2225D02*
X15775Y2225D01*
X15775Y2225D02*
X15775Y2775D01*
X15775Y2775D02*
X16053Y2775D01*
X16725Y2225D02*
X16447Y2225D01*
X16725Y2225D02*
X16725Y2775D01*
X16725Y2775D02*
X16447Y2775D01*
X16447Y3525D02*
X16725Y3525D01*
X16725Y3525D02*
X16725Y2975D01*
X16725Y2975D02*
X16447Y2975D01*
X15775Y3525D02*
X16053Y3525D01*
X15775Y3525D02*
X15775Y2975D01*
X15775Y2975D02*
X16053Y2975D01*
G54D10*
X20000Y0D02*
X0Y0D01*
X0Y0D02*
X0Y1000D01*
X0Y1000D02*
X20000Y1000D01*
X20000Y1000D02*
X20000Y0D01*
X20000Y6000D02*
X0Y6000D01*
X0Y6000D02*
X0Y7000D01*
X0Y7000D02*
X20000Y7000D01*
X20000Y7000D02*
X20000Y6000D01*
G54D12*
X17556Y5194D02*
X17556Y4406D01*
X17359Y5194D02*
X18541Y5194D01*
X18541Y5194D02*
X18541Y4406D01*
X18541Y4406D02*
X17359Y4406D01*
X17359Y4406D02*
X17359Y5194D01*
X2894Y5394D02*
X2106Y5394D01*
X2894Y5591D02*
X2894Y4409D01*
X2894Y4409D02*
X2106Y4409D01*
X2106Y4409D02*
X2106Y5591D01*
X2106Y5591D02*
X2894Y5591D01*
X1050Y5250D02*
X1950Y5250D01*
X1950Y5250D02*
X1950Y5750D01*
X1950Y5750D02*
X1050Y5750D01*
X1050Y5750D02*
X1050Y5250D01*
G54D16*
X16124Y4487D02*
G75*
G03X16124Y4487I-62J0D01*
G74*
G01*
X16400Y5450D02*
X16000Y5450D01*
X16400Y4425D02*
X16000Y4425D01*
X16000Y5450D02*
X16000Y4425D01*
X16400Y4425D02*
X16400Y5450D01*
G54D11*
X2533Y3204D02*
X2966Y3204D01*
X2966Y3204D02*
X2966Y3795D01*
X2966Y3795D02*
X2533Y3795D01*
X2533Y3795D02*
X2533Y3204D01*
G54D17*
X3061Y3932D02*
G75*
G03X3061Y3932I-55J0D01*
G74*
G01*
G54D16*
X4375Y4912D02*
G75*
G03X4375Y4912I-62J0D01*
G74*
G01*
X3350Y5250D02*
X3350Y4850D01*
X4375Y5250D02*
X4375Y4850D01*
X3350Y4850D02*
X4375Y4850D01*
X4375Y5250D02*
X3350Y5250D01*
G54D14*
X4047Y4156D02*
X4322Y4156D01*
X3653Y4156D02*
X3378Y4156D01*
X4047Y3644D02*
X4322Y3644D01*
X3378Y3644D02*
X3653Y3644D01*
X4322Y3650D02*
X4322Y4150D01*
X3378Y4150D02*
X3378Y3650D01*
G54D18*
X7511Y4530D02*
X7521Y4538D01*
X7530Y4564D01*
X7530Y4581D01*
X7521Y4607D01*
X7502Y4624D01*
X7483Y4632D01*
X7445Y4641D01*
X7416Y4641D01*
X7378Y4632D01*
X7359Y4624D01*
X7340Y4607D01*
X7330Y4581D01*
X7330Y4564D01*
X7340Y4538D01*
X7350Y4530D01*
X7530Y4358D02*
X7530Y4461D01*
X7530Y4410D02*
X7330Y4410D01*
X7359Y4427D01*
X7378Y4444D01*
X7388Y4461D01*
X7511Y5530D02*
X7521Y5538D01*
X7530Y5564D01*
X7530Y5581D01*
X7521Y5607D01*
X7502Y5624D01*
X7483Y5632D01*
X7445Y5641D01*
X7416Y5641D01*
X7378Y5632D01*
X7359Y5624D01*
X7340Y5607D01*
X7330Y5581D01*
X7330Y5564D01*
X7340Y5538D01*
X7350Y5530D01*
X7350Y5461D02*
X7340Y5452D01*
X7330Y5435D01*
X7330Y5392D01*
X7340Y5375D01*
X7350Y5367D01*
X7369Y5358D01*
X7388Y5358D01*
X7416Y5367D01*
X7530Y5470D01*
X7530Y5358D01*
G54D13*
X10880Y3285D02*
X10697Y3102D01*
X10664Y3091D01*
X10643Y3091D01*
X10610Y3102D01*
X10567Y3145D01*
X10557Y3177D01*
X10557Y3199D01*
X10567Y3231D01*
X10751Y3414D01*
X10632Y3490D02*
X10632Y3511D01*
X10621Y3544D01*
X10567Y3597D01*
X10535Y3608D01*
X10513Y3608D01*
X10481Y3597D01*
X10460Y3576D01*
X10438Y3533D01*
X10438Y3274D01*
X10298Y3414D01*
X11802Y2785D02*
X11759Y2807D01*
X11705Y2861D01*
X11694Y2893D01*
X11694Y2914D01*
X11705Y2947D01*
X11727Y2968D01*
X11759Y2979D01*
X11781Y2979D01*
X11813Y2968D01*
X11867Y2936D01*
X11899Y2925D01*
X11921Y2925D01*
X11953Y2936D01*
X11975Y2958D01*
X11985Y2990D01*
X11985Y3011D01*
X11975Y3044D01*
X11921Y3098D01*
X11878Y3119D01*
X11824Y3195D02*
X11694Y3324D01*
X11533Y3033D02*
X11759Y3259D01*
X11393Y3173D02*
X11619Y3399D01*
X11382Y3313D01*
X11468Y3550D01*
X11242Y3324D01*
X11382Y3636D02*
X11242Y3776D01*
X11231Y3615D01*
X11199Y3647D01*
X11167Y3658D01*
X11145Y3658D01*
X11113Y3647D01*
X11059Y3593D01*
X11048Y3561D01*
X11048Y3539D01*
X11059Y3507D01*
X11123Y3442D01*
X11156Y3432D01*
X11177Y3432D01*
X11134Y3841D02*
X11134Y3863D01*
X11123Y3895D01*
X11070Y3949D01*
X11037Y3960D01*
X11016Y3960D01*
X10983Y3949D01*
X10962Y3927D01*
X10940Y3884D01*
X10940Y3626D01*
X10800Y3766D01*
X10746Y4057D02*
X10822Y3981D01*
X10703Y3863D02*
X10929Y4089D01*
X10822Y4197D01*
X10391Y4175D02*
X10520Y4046D01*
X10455Y4110D02*
X10682Y4337D01*
X10671Y4283D01*
X10671Y4240D01*
X10682Y4207D01*
X10315Y4251D02*
X10348Y4520D01*
X10466Y4401D02*
X10197Y4369D01*
X10132Y4434D02*
X10164Y4703D01*
X10283Y4585D02*
X10014Y4552D01*
G54D19*
X5400Y1778D02*
X5385Y1807D01*
X5357Y1835D01*
X5314Y1878D01*
X5300Y1907D01*
X5300Y1935D01*
X5371Y1921D02*
X5357Y1950D01*
X5328Y1978D01*
X5271Y1992D01*
X5171Y1992D01*
X5114Y1978D01*
X5085Y1950D01*
X5071Y1921D01*
X5071Y1864D01*
X5085Y1835D01*
X5114Y1807D01*
X5171Y1792D01*
X5271Y1792D01*
X5328Y1807D01*
X5357Y1835D01*
X5371Y1864D01*
X5371Y1921D01*
X5371Y1507D02*
X5371Y1678D01*
X5371Y1592D02*
X5071Y1592D01*
X5114Y1621D01*
X5142Y1650D01*
X5157Y1678D01*
X4714Y3049D02*
X4728Y3007D01*
X4742Y2992D01*
X4771Y2978D01*
X4814Y2978D01*
X4842Y2992D01*
X4857Y3007D01*
X4871Y3035D01*
X4871Y3149D01*
X4571Y3149D01*
X4571Y3049D01*
X4585Y3021D01*
X4600Y3007D01*
X4628Y2992D01*
X4657Y2992D01*
X4685Y3007D01*
X4700Y3021D01*
X4714Y3049D01*
X4714Y3149D01*
X4857Y2864D02*
X4871Y2821D01*
X4871Y2749D01*
X4857Y2721D01*
X4842Y2707D01*
X4814Y2692D01*
X4785Y2692D01*
X4757Y2707D01*
X4742Y2721D01*
X4728Y2749D01*
X4714Y2807D01*
X4700Y2835D01*
X4685Y2849D01*
X4657Y2864D01*
X4628Y2864D01*
X4600Y2849D01*
X4585Y2835D01*
X4571Y2807D01*
X4571Y2735D01*
X4585Y2692D01*
X4857Y2578D02*
X4871Y2535D01*
X4871Y2464D01*
X4857Y2435D01*
X4842Y2421D01*
X4814Y2407D01*
X4785Y2407D01*
X4757Y2421D01*
X4742Y2435D01*
X4728Y2464D01*
X4714Y2521D01*
X4700Y2550D01*
X4685Y2564D01*
X4657Y2578D01*
X4628Y2578D01*
X4600Y2564D01*
X4585Y2550D01*
X4571Y2521D01*
X4571Y2450D01*
X4585Y2407D01*
X4700Y2235D02*
X4685Y2264D01*
X4671Y2278D01*
X4642Y2292D01*
X4628Y2292D01*
X4600Y2278D01*
X4585Y2264D01*
X4571Y2235D01*
X4571Y2178D01*
X4585Y2150D01*
X4600Y2135D01*
X4628Y2121D01*
X4642Y2121D01*
X4671Y2135D01*
X4685Y2150D01*
X4700Y2178D01*
X4700Y2235D01*
X4714Y2264D01*
X4728Y2278D01*
X4757Y2292D01*
X4814Y2292D01*
X4842Y2278D01*
X4857Y2264D01*
X4871Y2235D01*
X4871Y2178D01*
X4857Y2150D01*
X4842Y2135D01*
X4814Y2121D01*
X4757Y2121D01*
X4728Y2135D01*
X4714Y2150D01*
X4700Y2178D01*
X4671Y1864D02*
X4871Y1864D01*
X4557Y1935D02*
X4771Y2007D01*
X4771Y1821D01*
G54D18*
X7579Y2030D02*
X7485Y2090D01*
X7579Y2132D02*
X7382Y2132D01*
X7382Y2064D01*
X7392Y2047D01*
X7401Y2038D01*
X7420Y2030D01*
X7448Y2030D01*
X7467Y2038D01*
X7476Y2047D01*
X7485Y2064D01*
X7485Y2132D01*
X7382Y1875D02*
X7382Y1910D01*
X7392Y1927D01*
X7401Y1935D01*
X7429Y1952D01*
X7467Y1961D01*
X7542Y1961D01*
X7560Y1952D01*
X7570Y1944D01*
X7579Y1927D01*
X7579Y1892D01*
X7570Y1875D01*
X7560Y1867D01*
X7542Y1858D01*
X7495Y1858D01*
X7476Y1867D01*
X7467Y1875D01*
X7457Y1892D01*
X7457Y1927D01*
X7467Y1944D01*
X7476Y1952D01*
X7495Y1961D01*
X6080Y2021D02*
X6080Y2124D01*
X6080Y2072D02*
X5880Y2072D01*
X5909Y2090D01*
X5928Y2107D01*
X5938Y2124D01*
X6080Y1944D02*
X5880Y1944D01*
X6004Y1927D02*
X6080Y1875D01*
X5947Y1875D02*
X6023Y1944D01*
G54D15*
X5062Y5691D02*
X5377Y5533D01*
X5062Y5533D02*
X5377Y5691D01*
X5377Y5320D02*
X5377Y5455D01*
X5377Y5387D02*
X5062Y5387D01*
X5107Y5410D01*
X5137Y5432D01*
X5152Y5455D01*
X6502Y5039D02*
X6532Y5050D01*
X6547Y5061D01*
X6562Y5084D01*
X6562Y5095D01*
X6547Y5118D01*
X6532Y5129D01*
X6502Y5140D01*
X6442Y5140D01*
X6412Y5129D01*
X6397Y5118D01*
X6382Y5095D01*
X6382Y5084D01*
X6397Y5061D01*
X6412Y5050D01*
X6442Y5039D01*
X6502Y5039D01*
X6532Y5028D01*
X6547Y5016D01*
X6562Y4994D01*
X6562Y4949D01*
X6547Y4926D01*
X6532Y4915D01*
X6502Y4904D01*
X6442Y4904D01*
X6412Y4915D01*
X6397Y4926D01*
X6382Y4949D01*
X6382Y4994D01*
X6397Y5016D01*
X6412Y5028D01*
X6442Y5039D01*
X6247Y4904D02*
X6247Y5140D01*
X6142Y4971D01*
X6037Y5140D01*
X6037Y4904D01*
X5887Y4904D02*
X5887Y5140D01*
X5887Y5028D02*
X5707Y5028D01*
X5707Y4904D02*
X5707Y5140D01*
X5587Y5061D02*
X5422Y5061D01*
X5587Y4904D01*
X5422Y4904D01*
G54D18*
X14530Y4938D02*
X14538Y4928D01*
X14564Y4919D01*
X14581Y4919D01*
X14607Y4928D01*
X14624Y4947D01*
X14632Y4966D01*
X14641Y5004D01*
X14641Y5033D01*
X14632Y5071D01*
X14624Y5090D01*
X14607Y5109D01*
X14581Y5119D01*
X14564Y5119D01*
X14538Y5109D01*
X14530Y5100D01*
X14470Y5119D02*
X14358Y5119D01*
X14418Y5042D01*
X14392Y5042D01*
X14375Y5033D01*
X14367Y5023D01*
X14358Y5004D01*
X14358Y4957D01*
X14367Y4938D01*
X14375Y4928D01*
X14392Y4919D01*
X14444Y4919D01*
X14461Y4928D01*
X14470Y4938D01*
X15242Y5469D02*
X15345Y5469D01*
X15294Y5469D02*
X15294Y5669D01*
X15311Y5640D01*
X15328Y5621D01*
X15345Y5611D01*
X15131Y5669D02*
X15114Y5669D01*
X15097Y5659D01*
X15088Y5650D01*
X15080Y5630D01*
X15071Y5592D01*
X15071Y5545D01*
X15080Y5507D01*
X15088Y5488D01*
X15097Y5478D01*
X15114Y5469D01*
X15131Y5469D01*
X15148Y5478D01*
X15157Y5488D01*
X15165Y5507D01*
X15174Y5545D01*
X15174Y5592D01*
X15165Y5630D01*
X15157Y5650D01*
X15148Y5659D01*
X15131Y5669D01*
X14917Y5602D02*
X14917Y5469D01*
X14994Y5602D02*
X14994Y5497D01*
X14985Y5478D01*
X14968Y5469D01*
X14942Y5469D01*
X14925Y5478D01*
X14917Y5488D01*
X14771Y5573D02*
X14831Y5573D01*
X14831Y5469D02*
X14831Y5669D01*
X14745Y5669D01*
X14311Y3530D02*
X14321Y3538D01*
X14330Y3564D01*
X14330Y3581D01*
X14321Y3607D01*
X14302Y3624D01*
X14283Y3632D01*
X14245Y3641D01*
X14216Y3641D01*
X14178Y3632D01*
X14159Y3624D01*
X14140Y3607D01*
X14130Y3581D01*
X14130Y3564D01*
X14140Y3538D01*
X14150Y3530D01*
X14130Y3367D02*
X14130Y3452D01*
X14226Y3461D01*
X14216Y3452D01*
X14207Y3435D01*
X14207Y3392D01*
X14216Y3375D01*
X14226Y3367D01*
X14245Y3358D01*
X14292Y3358D01*
X14311Y3367D01*
X14321Y3375D01*
X14330Y3392D01*
X14330Y3435D01*
X14321Y3452D01*
X14311Y3461D01*
X13680Y4278D02*
X13680Y4381D01*
X13680Y4330D02*
X13480Y4330D01*
X13509Y4347D01*
X13528Y4364D01*
X13538Y4381D01*
X13480Y4167D02*
X13480Y4150D01*
X13490Y4132D01*
X13500Y4124D01*
X13519Y4115D01*
X13557Y4107D01*
X13604Y4107D01*
X13642Y4115D01*
X13661Y4124D01*
X13671Y4132D01*
X13680Y4150D01*
X13680Y4167D01*
X13671Y4184D01*
X13661Y4192D01*
X13642Y4201D01*
X13604Y4210D01*
X13557Y4210D01*
X13519Y4201D01*
X13500Y4192D01*
X13490Y4184D01*
X13480Y4167D01*
X13480Y3995D02*
X13480Y3978D01*
X13490Y3961D01*
X13500Y3952D01*
X13519Y3944D01*
X13557Y3935D01*
X13604Y3935D01*
X13642Y3944D01*
X13661Y3952D01*
X13671Y3961D01*
X13680Y3978D01*
X13680Y3995D01*
X13671Y4012D01*
X13661Y4021D01*
X13642Y4030D01*
X13604Y4038D01*
X13557Y4038D01*
X13519Y4030D01*
X13500Y4021D01*
X13490Y4012D01*
X13480Y3995D01*
X13547Y3858D02*
X13680Y3858D01*
X13566Y3858D02*
X13557Y3849D01*
X13547Y3832D01*
X13547Y3807D01*
X13557Y3789D01*
X13576Y3781D01*
X13680Y3781D01*
X13576Y3635D02*
X13576Y3695D01*
X13680Y3695D02*
X13480Y3695D01*
X13480Y3610D01*
X13561Y1280D02*
X13571Y1288D01*
X13580Y1314D01*
X13580Y1331D01*
X13571Y1357D01*
X13552Y1374D01*
X13533Y1382D01*
X13495Y1391D01*
X13466Y1391D01*
X13428Y1382D01*
X13409Y1374D01*
X13390Y1357D01*
X13380Y1331D01*
X13380Y1314D01*
X13390Y1288D01*
X13400Y1280D01*
X13380Y1125D02*
X13380Y1160D01*
X13390Y1177D01*
X13400Y1185D01*
X13428Y1202D01*
X13466Y1211D01*
X13542Y1211D01*
X13561Y1202D01*
X13571Y1194D01*
X13580Y1177D01*
X13580Y1142D01*
X13571Y1125D01*
X13561Y1117D01*
X13542Y1108D01*
X13495Y1108D01*
X13476Y1117D01*
X13466Y1125D01*
X13457Y1142D01*
X13457Y1177D01*
X13466Y1194D01*
X13476Y1202D01*
X13495Y1211D01*
X12180Y1528D02*
X12180Y1631D01*
X12180Y1580D02*
X11980Y1580D01*
X12009Y1597D01*
X12028Y1614D01*
X12038Y1631D01*
X11980Y1417D02*
X11980Y1400D01*
X11990Y1382D01*
X12000Y1374D01*
X12019Y1365D01*
X12057Y1357D01*
X12104Y1357D01*
X12142Y1365D01*
X12161Y1374D01*
X12171Y1382D01*
X12180Y1400D01*
X12180Y1417D01*
X12171Y1434D01*
X12161Y1442D01*
X12142Y1451D01*
X12104Y1460D01*
X12057Y1460D01*
X12019Y1451D01*
X12000Y1442D01*
X11990Y1434D01*
X11980Y1417D01*
X11980Y1245D02*
X11980Y1228D01*
X11990Y1211D01*
X12000Y1202D01*
X12019Y1194D01*
X12057Y1185D01*
X12104Y1185D01*
X12142Y1194D01*
X12161Y1202D01*
X12171Y1211D01*
X12180Y1228D01*
X12180Y1245D01*
X12171Y1262D01*
X12161Y1271D01*
X12142Y1280D01*
X12104Y1288D01*
X12057Y1288D01*
X12019Y1280D01*
X12000Y1271D01*
X11990Y1262D01*
X11980Y1245D01*
X12047Y1108D02*
X12180Y1108D01*
X12066Y1108D02*
X12057Y1099D01*
X12047Y1082D01*
X12047Y1057D01*
X12057Y1039D01*
X12076Y1031D01*
X12180Y1031D01*
X12076Y885D02*
X12076Y945D01*
X12180Y945D02*
X11980Y945D01*
X11980Y860D01*
X7561Y2780D02*
X7571Y2788D01*
X7580Y2814D01*
X7580Y2831D01*
X7571Y2857D01*
X7552Y2874D01*
X7533Y2882D01*
X7495Y2891D01*
X7466Y2891D01*
X7428Y2882D01*
X7409Y2874D01*
X7390Y2857D01*
X7380Y2831D01*
X7380Y2814D01*
X7390Y2788D01*
X7400Y2780D01*
X7380Y2720D02*
X7380Y2600D01*
X7580Y2677D01*
X6080Y3028D02*
X6080Y3131D01*
X6080Y3080D02*
X5880Y3080D01*
X5909Y3097D01*
X5928Y3114D01*
X5938Y3131D01*
X5880Y2917D02*
X5880Y2900D01*
X5890Y2882D01*
X5900Y2874D01*
X5919Y2865D01*
X5957Y2857D01*
X6004Y2857D01*
X6042Y2865D01*
X6061Y2874D01*
X6071Y2882D01*
X6080Y2900D01*
X6080Y2917D01*
X6071Y2934D01*
X6061Y2942D01*
X6042Y2951D01*
X6004Y2960D01*
X5957Y2960D01*
X5919Y2951D01*
X5900Y2942D01*
X5890Y2934D01*
X5880Y2917D01*
X5880Y2745D02*
X5880Y2728D01*
X5890Y2711D01*
X5900Y2702D01*
X5919Y2694D01*
X5957Y2685D01*
X6004Y2685D01*
X6042Y2694D01*
X6061Y2702D01*
X6071Y2711D01*
X6080Y2728D01*
X6080Y2745D01*
X6071Y2762D01*
X6061Y2771D01*
X6042Y2780D01*
X6004Y2788D01*
X5957Y2788D01*
X5919Y2780D01*
X5900Y2771D01*
X5890Y2762D01*
X5880Y2745D01*
X5947Y2608D02*
X6080Y2608D01*
X5966Y2608D02*
X5957Y2599D01*
X5947Y2582D01*
X5947Y2557D01*
X5957Y2539D01*
X5976Y2531D01*
X6080Y2531D01*
X5976Y2385D02*
X5976Y2445D01*
X6080Y2445D02*
X5880Y2445D01*
X5880Y2360D01*
X8030Y3938D02*
X8038Y3928D01*
X8064Y3919D01*
X8081Y3919D01*
X8107Y3928D01*
X8124Y3947D01*
X8132Y3966D01*
X8141Y4004D01*
X8141Y4033D01*
X8132Y4071D01*
X8124Y4090D01*
X8107Y4109D01*
X8081Y4119D01*
X8064Y4119D01*
X8038Y4109D01*
X8030Y4100D01*
X7927Y4033D02*
X7944Y4042D01*
X7952Y4052D01*
X7961Y4071D01*
X7961Y4080D01*
X7952Y4100D01*
X7944Y4109D01*
X7927Y4119D01*
X7892Y4119D01*
X7875Y4109D01*
X7867Y4100D01*
X7858Y4080D01*
X7858Y4071D01*
X7867Y4052D01*
X7875Y4042D01*
X7892Y4033D01*
X7927Y4033D01*
X7944Y4023D01*
X7952Y4014D01*
X7961Y3995D01*
X7961Y3957D01*
X7952Y3938D01*
X7944Y3928D01*
X7927Y3919D01*
X7892Y3919D01*
X7875Y3928D01*
X7867Y3938D01*
X7858Y3957D01*
X7858Y3995D01*
X7867Y4014D01*
X7875Y4023D01*
X7892Y4033D01*
X8278Y2419D02*
X8381Y2419D01*
X8330Y2419D02*
X8330Y2619D01*
X8347Y2590D01*
X8364Y2571D01*
X8381Y2561D01*
X8167Y2619D02*
X8150Y2619D01*
X8132Y2609D01*
X8124Y2600D01*
X8115Y2580D01*
X8107Y2542D01*
X8107Y2495D01*
X8115Y2457D01*
X8124Y2438D01*
X8132Y2428D01*
X8150Y2419D01*
X8167Y2419D01*
X8184Y2428D01*
X8192Y2438D01*
X8201Y2457D01*
X8210Y2495D01*
X8210Y2542D01*
X8201Y2580D01*
X8192Y2600D01*
X8184Y2609D01*
X8167Y2619D01*
X7995Y2619D02*
X7978Y2619D01*
X7961Y2609D01*
X7952Y2600D01*
X7944Y2580D01*
X7935Y2542D01*
X7935Y2495D01*
X7944Y2457D01*
X7952Y2438D01*
X7961Y2428D01*
X7978Y2419D01*
X7995Y2419D01*
X8012Y2428D01*
X8021Y2438D01*
X8030Y2457D01*
X8038Y2495D01*
X8038Y2542D01*
X8030Y2580D01*
X8021Y2600D01*
X8012Y2609D01*
X7995Y2619D01*
X7858Y2552D02*
X7858Y2419D01*
X7858Y2533D02*
X7849Y2542D01*
X7832Y2552D01*
X7807Y2552D01*
X7789Y2542D01*
X7781Y2523D01*
X7781Y2419D01*
X7635Y2523D02*
X7695Y2523D01*
X7695Y2419D02*
X7695Y2619D01*
X7610Y2619D01*
X17079Y4030D02*
X16985Y4090D01*
X17079Y4132D02*
X16882Y4132D01*
X16882Y4064D01*
X16892Y4047D01*
X16901Y4038D01*
X16920Y4030D01*
X16948Y4030D01*
X16967Y4038D01*
X16976Y4047D01*
X16985Y4064D01*
X16985Y4132D01*
X16948Y3875D02*
X17079Y3875D01*
X16873Y3918D02*
X17014Y3961D01*
X17014Y3850D01*
X15580Y4021D02*
X15580Y4124D01*
X15580Y4072D02*
X15380Y4072D01*
X15409Y4090D01*
X15428Y4107D01*
X15438Y4124D01*
X15580Y3944D02*
X15380Y3944D01*
X15504Y3927D02*
X15580Y3875D01*
X15447Y3875D02*
X15523Y3944D01*
X3530Y3170D02*
X3590Y3264D01*
X3632Y3170D02*
X3632Y3367D01*
X3564Y3367D01*
X3547Y3357D01*
X3538Y3348D01*
X3530Y3329D01*
X3530Y3301D01*
X3538Y3282D01*
X3547Y3273D01*
X3564Y3264D01*
X3632Y3264D01*
X3470Y3367D02*
X3358Y3367D01*
X3418Y3292D01*
X3392Y3292D01*
X3375Y3282D01*
X3367Y3273D01*
X3358Y3254D01*
X3358Y3207D01*
X3367Y3189D01*
X3375Y3179D01*
X3392Y3170D01*
X3444Y3170D01*
X3461Y3179D01*
X3470Y3189D01*
X3650Y1750D02*
X3752Y1750D01*
X3701Y1750D02*
X3701Y1950D01*
X3718Y1921D01*
X3735Y1902D01*
X3752Y1892D01*
X3572Y1769D02*
X3564Y1759D01*
X3572Y1750D01*
X3581Y1759D01*
X3572Y1769D01*
X3572Y1750D01*
X3401Y1950D02*
X3487Y1950D01*
X3495Y1854D01*
X3487Y1864D01*
X3470Y1873D01*
X3427Y1873D01*
X3410Y1864D01*
X3401Y1854D01*
X3392Y1835D01*
X3392Y1788D01*
X3401Y1769D01*
X3410Y1759D01*
X3427Y1750D01*
X3470Y1750D01*
X3487Y1759D01*
X3495Y1769D01*
X3315Y1750D02*
X3315Y1950D01*
X3298Y1826D02*
X3247Y1750D01*
X3247Y1883D02*
X3315Y1807D01*
X1329Y1530D02*
X1235Y1590D01*
X1329Y1632D02*
X1132Y1632D01*
X1132Y1564D01*
X1142Y1547D01*
X1151Y1538D01*
X1170Y1530D01*
X1198Y1530D01*
X1217Y1538D01*
X1226Y1547D01*
X1235Y1564D01*
X1235Y1632D01*
X1151Y1461D02*
X1142Y1452D01*
X1132Y1435D01*
X1132Y1392D01*
X1142Y1375D01*
X1151Y1367D01*
X1170Y1358D01*
X1189Y1358D01*
X1217Y1367D01*
X1329Y1470D01*
X1329Y1358D01*
X2749Y1607D02*
X2749Y1710D01*
X2749Y1658D02*
X2549Y1658D01*
X2578Y1675D01*
X2597Y1692D01*
X2607Y1710D01*
X2549Y1495D02*
X2549Y1478D01*
X2559Y1461D01*
X2569Y1452D01*
X2588Y1444D01*
X2626Y1435D01*
X2673Y1435D01*
X2711Y1444D01*
X2730Y1452D01*
X2740Y1461D01*
X2749Y1478D01*
X2749Y1495D01*
X2740Y1512D01*
X2730Y1521D01*
X2711Y1530D01*
X2673Y1538D01*
X2626Y1538D01*
X2588Y1530D01*
X2569Y1521D01*
X2559Y1512D01*
X2549Y1495D01*
X2749Y1358D02*
X2549Y1358D01*
X2673Y1341D02*
X2749Y1289D01*
X2616Y1289D02*
X2692Y1358D01*
X17079Y2530D02*
X16985Y2590D01*
X17079Y2632D02*
X16882Y2632D01*
X16882Y2564D01*
X16892Y2547D01*
X16901Y2538D01*
X16920Y2530D01*
X16948Y2530D01*
X16967Y2538D01*
X16976Y2547D01*
X16985Y2564D01*
X16985Y2632D01*
X17079Y2358D02*
X17079Y2461D01*
X17079Y2410D02*
X16882Y2410D01*
X16910Y2427D01*
X16929Y2444D01*
X16939Y2461D01*
X15661Y2607D02*
X15661Y2710D01*
X15661Y2658D02*
X15461Y2658D01*
X15490Y2675D01*
X15509Y2692D01*
X15519Y2710D01*
X15461Y2495D02*
X15461Y2478D01*
X15471Y2461D01*
X15481Y2452D01*
X15500Y2444D01*
X15538Y2435D01*
X15585Y2435D01*
X15623Y2444D01*
X15642Y2452D01*
X15652Y2461D01*
X15661Y2478D01*
X15661Y2495D01*
X15652Y2512D01*
X15642Y2521D01*
X15623Y2530D01*
X15585Y2538D01*
X15538Y2538D01*
X15500Y2530D01*
X15481Y2521D01*
X15471Y2512D01*
X15461Y2495D01*
X15661Y2358D02*
X15461Y2358D01*
X15585Y2341D02*
X15661Y2289D01*
X15528Y2289D02*
X15604Y2358D01*
X17079Y3280D02*
X16985Y3340D01*
X17079Y3382D02*
X16882Y3382D01*
X16882Y3314D01*
X16892Y3297D01*
X16901Y3288D01*
X16920Y3280D01*
X16948Y3280D01*
X16967Y3288D01*
X16976Y3297D01*
X16985Y3314D01*
X16985Y3382D01*
X16882Y3117D02*
X16882Y3202D01*
X16976Y3211D01*
X16967Y3202D01*
X16957Y3185D01*
X16957Y3142D01*
X16967Y3125D01*
X16976Y3117D01*
X16995Y3108D01*
X17042Y3108D01*
X17060Y3117D01*
X17070Y3125D01*
X17079Y3142D01*
X17079Y3185D01*
X17070Y3202D01*
X17060Y3211D01*
X15380Y3378D02*
X15380Y3464D01*
X15476Y3472D01*
X15466Y3464D01*
X15457Y3447D01*
X15457Y3404D01*
X15466Y3387D01*
X15476Y3378D01*
X15495Y3370D01*
X15542Y3370D01*
X15561Y3378D01*
X15571Y3387D01*
X15580Y3404D01*
X15580Y3447D01*
X15571Y3464D01*
X15561Y3472D01*
X15580Y3198D02*
X15580Y3301D01*
X15580Y3250D02*
X15380Y3250D01*
X15409Y3267D01*
X15428Y3284D01*
X15438Y3301D01*
X15380Y3087D02*
X15380Y3069D01*
X15390Y3052D01*
X15400Y3044D01*
X15419Y3035D01*
X15457Y3027D01*
X15504Y3027D01*
X15542Y3035D01*
X15561Y3044D01*
X15571Y3052D01*
X15580Y3069D01*
X15580Y3087D01*
X15571Y3104D01*
X15561Y3112D01*
X15542Y3121D01*
X15504Y3129D01*
X15457Y3129D01*
X15419Y3121D01*
X15400Y3112D01*
X15390Y3104D01*
X15380Y3087D01*
G54D10*
X8040Y-659D02*
X8040Y-265D01*
X7890Y-265D01*
X7853Y-284D01*
X7834Y-303D01*
X7815Y-340D01*
X7815Y-396D01*
X7834Y-434D01*
X7853Y-453D01*
X7890Y-471D01*
X8040Y-471D01*
X7684Y-265D02*
X7440Y-265D01*
X7571Y-415D01*
X7515Y-415D01*
X7478Y-434D01*
X7459Y-453D01*
X7440Y-490D01*
X7440Y-584D01*
X7459Y-621D01*
X7478Y-640D01*
X7515Y-659D01*
X7628Y-659D01*
X7665Y-640D01*
X7684Y-621D01*
X11021Y-621D02*
X11040Y-640D01*
X11096Y-659D01*
X11134Y-659D01*
X11190Y-640D01*
X11227Y-603D01*
X11246Y-565D01*
X11265Y-490D01*
X11265Y-434D01*
X11246Y-359D01*
X11227Y-321D01*
X11190Y-284D01*
X11134Y-265D01*
X11096Y-265D01*
X11040Y-284D01*
X11021Y-303D01*
X10778Y-265D02*
X10703Y-265D01*
X10665Y-284D01*
X10628Y-321D01*
X10609Y-396D01*
X10609Y-528D01*
X10628Y-603D01*
X10665Y-640D01*
X10703Y-659D01*
X10778Y-659D01*
X10815Y-640D01*
X10853Y-603D01*
X10871Y-528D01*
X10871Y-396D01*
X10853Y-321D01*
X10815Y-284D01*
X10778Y-265D01*
X10440Y-659D02*
X10440Y-265D01*
X10215Y-659D01*
X10215Y-265D01*
X10028Y-659D02*
X10028Y-265D01*
X9803Y-659D01*
X9803Y-265D01*
X9709Y-696D02*
X9409Y-696D01*
X9334Y-303D02*
X9315Y-284D01*
X9278Y-265D01*
X9184Y-265D01*
X9146Y-284D01*
X9128Y-303D01*
X9109Y-340D01*
X9109Y-378D01*
X9128Y-434D01*
X9353Y-659D01*
X9109Y-659D01*
X8865Y-265D02*
X8828Y-265D01*
X8790Y-284D01*
X8772Y-303D01*
X8753Y-340D01*
X8734Y-415D01*
X8734Y-509D01*
X8753Y-584D01*
X8772Y-621D01*
X8790Y-640D01*
X8828Y-659D01*
X8865Y-659D01*
X8903Y-640D01*
X8922Y-621D01*
X8940Y-584D01*
X8959Y-509D01*
X8959Y-415D01*
X8940Y-340D01*
X8922Y-303D01*
X8903Y-284D01*
X8865Y-265D01*
X8040Y7340D02*
X8040Y7734D01*
X7890Y7734D01*
X7853Y7715D01*
X7834Y7696D01*
X7815Y7659D01*
X7815Y7603D01*
X7834Y7565D01*
X7853Y7546D01*
X7890Y7528D01*
X8040Y7528D01*
X7665Y7696D02*
X7646Y7715D01*
X7609Y7734D01*
X7515Y7734D01*
X7478Y7715D01*
X7459Y7696D01*
X7440Y7659D01*
X7440Y7621D01*
X7459Y7565D01*
X7684Y7340D01*
X7440Y7340D01*
X11271Y7378D02*
X11290Y7359D01*
X11346Y7340D01*
X11384Y7340D01*
X11440Y7359D01*
X11477Y7396D01*
X11496Y7434D01*
X11515Y7509D01*
X11515Y7565D01*
X11496Y7640D01*
X11477Y7678D01*
X11440Y7715D01*
X11384Y7734D01*
X11346Y7734D01*
X11290Y7715D01*
X11271Y7696D01*
X11028Y7734D02*
X10953Y7734D01*
X10915Y7715D01*
X10878Y7678D01*
X10859Y7603D01*
X10859Y7471D01*
X10878Y7396D01*
X10915Y7359D01*
X10953Y7340D01*
X11028Y7340D01*
X11065Y7359D01*
X11103Y7396D01*
X11121Y7471D01*
X11121Y7603D01*
X11103Y7678D01*
X11065Y7715D01*
X11028Y7734D01*
X10690Y7340D02*
X10690Y7734D01*
X10465Y7340D01*
X10465Y7734D01*
X10278Y7340D02*
X10278Y7734D01*
X10053Y7340D01*
X10053Y7734D01*
X9959Y7303D02*
X9659Y7303D01*
X9584Y7696D02*
X9565Y7715D01*
X9528Y7734D01*
X9434Y7734D01*
X9396Y7715D01*
X9378Y7696D01*
X9359Y7659D01*
X9359Y7621D01*
X9378Y7565D01*
X9603Y7340D01*
X9359Y7340D01*
X9115Y7734D02*
X9078Y7734D01*
X9040Y7715D01*
X9022Y7696D01*
X9003Y7659D01*
X8984Y7584D01*
X8984Y7490D01*
X9003Y7415D01*
X9022Y7378D01*
X9040Y7359D01*
X9078Y7340D01*
X9115Y7340D01*
X9153Y7359D01*
X9172Y7378D01*
X9190Y7415D01*
X9209Y7490D01*
X9209Y7584D01*
X9190Y7659D01*
X9172Y7696D01*
X9153Y7715D01*
X9115Y7734D01*
G54D15*
X18115Y5436D02*
X18115Y5593D01*
X18078Y5593D01*
X18056Y5585D01*
X18041Y5571D01*
X18033Y5556D01*
X18026Y5526D01*
X18026Y5503D01*
X18033Y5473D01*
X18041Y5458D01*
X18056Y5443D01*
X18078Y5436D01*
X18115Y5436D01*
X17973Y5593D02*
X17876Y5593D01*
X17928Y5533D01*
X17906Y5533D01*
X17891Y5526D01*
X17884Y5518D01*
X17876Y5503D01*
X17876Y5466D01*
X17884Y5451D01*
X17891Y5443D01*
X17906Y5436D01*
X17951Y5436D01*
X17966Y5443D01*
X17973Y5451D01*
X2063Y4865D02*
X1906Y4865D01*
X1906Y4828D01*
X1914Y4806D01*
X1928Y4791D01*
X1943Y4783D01*
X1973Y4776D01*
X1996Y4776D01*
X2026Y4783D01*
X2041Y4791D01*
X2056Y4806D01*
X2063Y4828D01*
X2063Y4865D01*
X1921Y4716D02*
X1914Y4708D01*
X1906Y4693D01*
X1906Y4656D01*
X1914Y4641D01*
X1921Y4634D01*
X1936Y4626D01*
X1951Y4626D01*
X1973Y4634D01*
X2063Y4723D01*
X2063Y4626D01*
G54D18*
X1580Y5030D02*
X1580Y5115D01*
X1380Y5115D01*
X1580Y4875D02*
X1580Y4978D01*
X1580Y4927D02*
X1380Y4927D01*
X1409Y4944D01*
X1428Y4961D01*
X1438Y4978D01*
G54D14*
X16978Y5928D02*
X16978Y5685D01*
X16964Y5657D01*
X16950Y5642D01*
X16921Y5628D01*
X16864Y5628D01*
X16835Y5642D01*
X16821Y5657D01*
X16807Y5685D01*
X16807Y5928D01*
X16507Y5628D02*
X16678Y5628D01*
X16592Y5628D02*
X16592Y5928D01*
X16621Y5885D01*
X16650Y5857D01*
X16678Y5842D01*
G54D15*
X2571Y2978D02*
X2814Y2978D01*
X2842Y2964D01*
X2857Y2950D01*
X2871Y2921D01*
X2871Y2864D01*
X2857Y2835D01*
X2842Y2821D01*
X2814Y2807D01*
X2571Y2807D01*
X2671Y2535D02*
X2871Y2535D01*
X2557Y2607D02*
X2771Y2678D01*
X2771Y2492D01*
G54D14*
X4571Y4978D02*
X4814Y4978D01*
X4842Y4964D01*
X4857Y4950D01*
X4871Y4921D01*
X4871Y4864D01*
X4857Y4835D01*
X4842Y4821D01*
X4814Y4807D01*
X4571Y4807D01*
X4571Y4692D02*
X4571Y4507D01*
X4685Y4607D01*
X4685Y4564D01*
X4700Y4535D01*
X4714Y4521D01*
X4742Y4507D01*
X4814Y4507D01*
X4842Y4521D01*
X4857Y4535D01*
X4871Y4564D01*
X4871Y4650D01*
X4857Y4678D01*
X4842Y4692D01*
G54D18*
X4561Y3780D02*
X4571Y3788D01*
X4580Y3814D01*
X4580Y3831D01*
X4571Y3857D01*
X4552Y3874D01*
X4533Y3882D01*
X4495Y3891D01*
X4466Y3891D01*
X4428Y3882D01*
X4409Y3874D01*
X4390Y3857D01*
X4380Y3831D01*
X4380Y3814D01*
X4390Y3788D01*
X4400Y3780D01*
X4447Y3625D02*
X4580Y3625D01*
X4371Y3668D02*
X4514Y3711D01*
X4514Y3600D01*
X4830Y3942D02*
X4830Y4045D01*
X4830Y3994D02*
X4630Y3994D01*
X4659Y4011D01*
X4678Y4028D01*
X4688Y4045D01*
X4630Y3831D02*
X4630Y3814D01*
X4640Y3797D01*
X4650Y3788D01*
X4669Y3780D01*
X4707Y3771D01*
X4754Y3771D01*
X4792Y3780D01*
X4811Y3788D01*
X4821Y3797D01*
X4830Y3814D01*
X4830Y3831D01*
X4821Y3848D01*
X4811Y3857D01*
X4792Y3865D01*
X4754Y3874D01*
X4707Y3874D01*
X4669Y3865D01*
X4650Y3857D01*
X4640Y3848D01*
X4630Y3831D01*
X4697Y3617D02*
X4830Y3617D01*
X4697Y3694D02*
X4802Y3694D01*
X4821Y3685D01*
X4830Y3668D01*
X4830Y3642D01*
X4821Y3625D01*
X4811Y3617D01*
X4726Y3471D02*
X4726Y3531D01*
X4830Y3531D02*
X4630Y3531D01*
X4630Y3445D01*
M02*
