G04 (created by PCBNEW (2013-07-07 BZR 4022)-stable) date 03/01/2015 14:14:57*
%MOIN*%
G04 Gerber Fmt 3.4, Leading zero omitted, Abs format*
%FSLAX34Y34*%
G01*
G70*
G90*
G04 APERTURE LIST*
%ADD10C,0.00590551*%
%ADD11C,0.00393701*%
%ADD12R,0.045X0.025*%
%ADD13R,0.036X0.036*%
%ADD14R,0.025X0.045*%
%ADD15R,0.0433X0.0551181*%
%ADD16R,0.0590551X0.0590551*%
%ADD17C,0.0590551*%
%ADD18R,0.0827X0.0827*%
%ADD19R,0.0748X0.0748*%
%ADD20C,0.0413*%
%ADD21R,0.0512X0.0551*%
%ADD22R,0.0551X0.0512*%
%ADD23R,0.0394X0.0315*%
%ADD24R,0.019685X0.011811*%
%ADD25R,0.0315X0.0394*%
%ADD26C,0.024*%
%ADD27C,0.006*%
G04 APERTURE END LIST*
G54D10*
G54D11*
X0Y7000D02*
X0Y0D01*
X20000Y7000D02*
X0Y7000D01*
X20000Y0D02*
X20000Y7000D01*
X0Y0D02*
X20000Y0D01*
G54D12*
X7000Y4800D03*
X7000Y4200D03*
X7000Y5200D03*
X7000Y5800D03*
G54D10*
G36*
X8588Y4202D02*
X8977Y3813D01*
X8903Y3739D01*
X8514Y4128D01*
X8588Y4202D01*
X8588Y4202D01*
G37*
G36*
X10989Y5346D02*
X11378Y5735D01*
X11452Y5661D01*
X11063Y5272D01*
X10989Y5346D01*
X10989Y5346D01*
G37*
G36*
X12911Y2797D02*
X12522Y3186D01*
X12596Y3260D01*
X12985Y2871D01*
X12911Y2797D01*
X12911Y2797D01*
G37*
G36*
X10047Y1338D02*
X10436Y1727D01*
X10510Y1653D01*
X10121Y1264D01*
X10047Y1338D01*
X10047Y1338D01*
G37*
G36*
X8728Y4341D02*
X9116Y3952D01*
X9042Y3878D01*
X8653Y4267D01*
X8728Y4341D01*
X8728Y4341D01*
G37*
G36*
X11128Y5207D02*
X11517Y5596D01*
X11591Y5521D01*
X11202Y5133D01*
X11128Y5207D01*
X11128Y5207D01*
G37*
G36*
X12771Y2658D02*
X12383Y3047D01*
X12457Y3121D01*
X12846Y2732D01*
X12771Y2658D01*
X12771Y2658D01*
G37*
G36*
X9908Y1478D02*
X10297Y1866D01*
X10371Y1792D01*
X9982Y1403D01*
X9908Y1478D01*
X9908Y1478D01*
G37*
G36*
X8867Y4481D02*
X9256Y4092D01*
X9181Y4017D01*
X8793Y4406D01*
X8867Y4481D01*
X8867Y4481D01*
G37*
G36*
X11267Y5068D02*
X11656Y5456D01*
X11731Y5382D01*
X11342Y4993D01*
X11267Y5068D01*
X11267Y5068D01*
G37*
G36*
X12632Y2518D02*
X12243Y2907D01*
X12318Y2982D01*
X12706Y2593D01*
X12632Y2518D01*
X12632Y2518D01*
G37*
G36*
X9768Y1617D02*
X10157Y2006D01*
X10232Y1931D01*
X9843Y1543D01*
X9768Y1617D01*
X9768Y1617D01*
G37*
G36*
X9006Y4620D02*
X9395Y4231D01*
X9321Y4157D01*
X8932Y4546D01*
X9006Y4620D01*
X9006Y4620D01*
G37*
G36*
X11407Y4928D02*
X11796Y5317D01*
X11870Y5243D01*
X11481Y4854D01*
X11407Y4928D01*
X11407Y4928D01*
G37*
G36*
X12493Y2379D02*
X12104Y2768D01*
X12178Y2842D01*
X12567Y2453D01*
X12493Y2379D01*
X12493Y2379D01*
G37*
G36*
X9629Y1756D02*
X10018Y2145D01*
X10092Y2071D01*
X9703Y1682D01*
X9629Y1756D01*
X9629Y1756D01*
G37*
G36*
X9145Y4759D02*
X9534Y4370D01*
X9460Y4296D01*
X9071Y4685D01*
X9145Y4759D01*
X9145Y4759D01*
G37*
G36*
X11546Y4789D02*
X11935Y5178D01*
X12009Y5104D01*
X11620Y4715D01*
X11546Y4789D01*
X11546Y4789D01*
G37*
G36*
X12354Y2240D02*
X11965Y2629D01*
X12039Y2703D01*
X12428Y2314D01*
X12354Y2240D01*
X12354Y2240D01*
G37*
G36*
X9490Y1895D02*
X9879Y2284D01*
X9953Y2210D01*
X9564Y1821D01*
X9490Y1895D01*
X9490Y1895D01*
G37*
G36*
X9285Y4899D02*
X9674Y4510D01*
X9599Y4435D01*
X9210Y4824D01*
X9285Y4899D01*
X9285Y4899D01*
G37*
G36*
X11685Y4650D02*
X12074Y5039D01*
X12149Y4964D01*
X11760Y4575D01*
X11685Y4650D01*
X11685Y4650D01*
G37*
G36*
X12214Y2100D02*
X11825Y2489D01*
X11900Y2564D01*
X12289Y2175D01*
X12214Y2100D01*
X12214Y2100D01*
G37*
G36*
X9350Y2035D02*
X9739Y2424D01*
X9814Y2349D01*
X9425Y1960D01*
X9350Y2035D01*
X9350Y2035D01*
G37*
G36*
X9424Y5038D02*
X9813Y4649D01*
X9739Y4575D01*
X9350Y4964D01*
X9424Y5038D01*
X9424Y5038D01*
G37*
G36*
X11825Y4510D02*
X12214Y4899D01*
X12288Y4825D01*
X11899Y4436D01*
X11825Y4510D01*
X11825Y4510D01*
G37*
G36*
X12075Y1961D02*
X11686Y2350D01*
X11760Y2424D01*
X12149Y2035D01*
X12075Y1961D01*
X12075Y1961D01*
G37*
G36*
X9211Y2174D02*
X9600Y2563D01*
X9674Y2489D01*
X9285Y2100D01*
X9211Y2174D01*
X9211Y2174D01*
G37*
G36*
X9563Y5177D02*
X9952Y4788D01*
X9878Y4714D01*
X9489Y5103D01*
X9563Y5177D01*
X9563Y5177D01*
G37*
G36*
X11964Y4371D02*
X12353Y4760D01*
X12427Y4686D01*
X12038Y4297D01*
X11964Y4371D01*
X11964Y4371D01*
G37*
G36*
X11936Y1822D02*
X11547Y2211D01*
X11621Y2285D01*
X12010Y1896D01*
X11936Y1822D01*
X11936Y1822D01*
G37*
G36*
X9072Y2313D02*
X9461Y2702D01*
X9535Y2628D01*
X9146Y2239D01*
X9072Y2313D01*
X9072Y2313D01*
G37*
G36*
X9703Y5316D02*
X10092Y4928D01*
X10017Y4853D01*
X9628Y5242D01*
X9703Y5316D01*
X9703Y5316D01*
G37*
G36*
X12103Y4232D02*
X12492Y4621D01*
X12566Y4546D01*
X12178Y4157D01*
X12103Y4232D01*
X12103Y4232D01*
G37*
G36*
X11796Y1683D02*
X11407Y2071D01*
X11482Y2146D01*
X11871Y1757D01*
X11796Y1683D01*
X11796Y1683D01*
G37*
G36*
X8933Y2453D02*
X9321Y2842D01*
X9396Y2767D01*
X9007Y2378D01*
X8933Y2453D01*
X8933Y2453D01*
G37*
G36*
X9842Y5456D02*
X10231Y5067D01*
X10157Y4993D01*
X9768Y5381D01*
X9842Y5456D01*
X9842Y5456D01*
G37*
G36*
X12243Y4092D02*
X12631Y4481D01*
X12706Y4407D01*
X12317Y4018D01*
X12243Y4092D01*
X12243Y4092D01*
G37*
G36*
X11657Y1543D02*
X11268Y1932D01*
X11342Y2006D01*
X11731Y1618D01*
X11657Y1543D01*
X11657Y1543D01*
G37*
G36*
X8793Y2592D02*
X9182Y2981D01*
X9256Y2907D01*
X8868Y2518D01*
X8793Y2592D01*
X8793Y2592D01*
G37*
G36*
X9981Y5595D02*
X10370Y5206D01*
X10296Y5132D01*
X9907Y5521D01*
X9981Y5595D01*
X9981Y5595D01*
G37*
G36*
X12382Y3953D02*
X12771Y4342D01*
X12845Y4268D01*
X12456Y3879D01*
X12382Y3953D01*
X12382Y3953D01*
G37*
G36*
X11518Y1404D02*
X11129Y1793D01*
X11203Y1867D01*
X11592Y1478D01*
X11518Y1404D01*
X11518Y1404D01*
G37*
G36*
X8654Y2731D02*
X9043Y3120D01*
X9117Y3046D01*
X8728Y2657D01*
X8654Y2731D01*
X8654Y2731D01*
G37*
G36*
X10121Y5734D02*
X10509Y5345D01*
X10435Y5271D01*
X10046Y5660D01*
X10121Y5734D01*
X10121Y5734D01*
G37*
G36*
X12521Y3814D02*
X12910Y4203D01*
X12984Y4128D01*
X12595Y3740D01*
X12521Y3814D01*
X12521Y3814D01*
G37*
G36*
X11378Y1265D02*
X10990Y1654D01*
X11064Y1728D01*
X11453Y1339D01*
X11378Y1265D01*
X11378Y1265D01*
G37*
G36*
X8515Y2871D02*
X8904Y3259D01*
X8978Y3185D01*
X8589Y2796D01*
X8515Y2871D01*
X8515Y2871D01*
G37*
G54D13*
X4350Y2850D03*
X4350Y2150D03*
X5150Y2500D03*
G54D14*
X7050Y2000D03*
X6450Y2000D03*
G54D15*
X5685Y4527D03*
X6314Y5472D03*
X5685Y5472D03*
X6314Y4527D03*
G54D12*
X15050Y5200D03*
X15050Y4600D03*
G54D14*
X13950Y4000D03*
X14550Y4000D03*
X12450Y1250D03*
X13050Y1250D03*
X7050Y2750D03*
X6450Y2750D03*
G54D12*
X8000Y3550D03*
X8000Y2950D03*
G54D14*
X15950Y4000D03*
X16550Y4000D03*
G54D12*
X3500Y2200D03*
X3500Y2800D03*
G54D14*
X2300Y1500D03*
X1700Y1500D03*
X15950Y2500D03*
X16550Y2500D03*
X16550Y3250D03*
X15950Y3250D03*
G54D16*
X19500Y2000D03*
G54D17*
X19500Y3000D03*
X19500Y4000D03*
X19500Y5000D03*
G54D16*
X500Y500D03*
G54D17*
X1500Y500D03*
X2500Y500D03*
X3500Y500D03*
X4500Y500D03*
X5500Y500D03*
X6500Y500D03*
X7500Y500D03*
X8500Y500D03*
X9500Y500D03*
X10500Y500D03*
X11500Y500D03*
X12500Y500D03*
X13499Y500D03*
X14500Y500D03*
X15500Y500D03*
X16500Y500D03*
X17500Y500D03*
X18500Y500D03*
X19500Y500D03*
G54D16*
X500Y6500D03*
G54D17*
X1500Y6500D03*
X2500Y6500D03*
X3500Y6500D03*
X4500Y6500D03*
X5500Y6500D03*
X6500Y6500D03*
X7500Y6500D03*
X8500Y6500D03*
X9500Y6500D03*
X10500Y6500D03*
X11500Y6500D03*
X12500Y6500D03*
X13499Y6500D03*
X14500Y6500D03*
X15500Y6500D03*
X16500Y6500D03*
X17500Y6500D03*
X18500Y6500D03*
X19500Y6500D03*
G54D18*
X500Y5173D03*
G54D19*
X500Y1827D03*
G54D20*
X1681Y2614D03*
X1681Y4386D03*
G54D21*
X17379Y4800D03*
X18521Y4800D03*
G54D22*
X2500Y5571D03*
X2500Y4429D03*
G54D14*
X1200Y5500D03*
X1800Y5500D03*
G54D23*
X16633Y4950D03*
X15767Y5325D03*
X15767Y4575D03*
G54D24*
X3025Y3500D03*
X3025Y3696D03*
X2474Y3696D03*
X3025Y3303D03*
X2474Y3500D03*
X2474Y3303D03*
G54D25*
X3850Y5483D03*
X3475Y4617D03*
X4225Y4617D03*
G54D14*
X3550Y3900D03*
X4150Y3900D03*
G54D26*
X9411Y5283D03*
X6090Y2150D03*
X8780Y2000D03*
X11080Y2360D03*
X5300Y2900D03*
X11370Y2460D03*
X5520Y3130D03*
X11454Y4065D03*
X2635Y3987D03*
X15272Y3184D03*
X7595Y2996D03*
X14994Y4243D03*
X6141Y2854D03*
X13386Y1379D03*
X6838Y6111D03*
X10998Y1381D03*
X12966Y4441D03*
X15618Y3527D03*
X1991Y3500D03*
X2065Y3801D03*
X16856Y3814D03*
X3370Y1770D03*
G54D27*
X8000Y3550D02*
X7770Y3550D01*
X3765Y3900D02*
X3550Y3900D01*
X3765Y3900D02*
X3765Y3792D01*
X3765Y3792D02*
X4107Y3450D01*
X4810Y3450D02*
X4107Y3450D01*
X4900Y3360D02*
X4810Y3450D01*
X7580Y3360D02*
X4900Y3360D01*
X7770Y3550D02*
X7580Y3360D01*
X8070Y3635D02*
X8926Y3635D01*
X3475Y4617D02*
X3475Y4329D01*
X885Y6500D02*
X1500Y5885D01*
X1500Y5885D02*
X1500Y5292D01*
X1500Y5292D02*
X1928Y4864D01*
X1928Y4864D02*
X2979Y4864D01*
X2979Y4864D02*
X3227Y4617D01*
X3475Y4329D02*
X3550Y4254D01*
X3550Y4254D02*
X3550Y3900D01*
X3475Y4617D02*
X3227Y4617D01*
X500Y6500D02*
X885Y6500D01*
X8000Y3550D02*
X8000Y3455D01*
X8000Y3455D02*
X8000Y3450D01*
X8926Y3635D02*
X10118Y4827D01*
X8000Y3455D02*
X8070Y3635D01*
X9860Y5085D02*
X10118Y4827D01*
X9721Y4946D02*
X9462Y5204D01*
X9411Y5283D02*
X9462Y5231D01*
X9462Y5231D02*
X9462Y5204D01*
X4225Y4290D02*
X4225Y4617D01*
X4150Y4215D02*
X4225Y4290D01*
X4150Y3900D02*
X4150Y4215D01*
X1800Y6200D02*
X1800Y5500D01*
X1500Y6500D02*
X1800Y6200D01*
X3592Y5002D02*
X3977Y4617D01*
X1982Y5002D02*
X3592Y5002D01*
X1800Y5184D02*
X1982Y5002D01*
X1800Y5500D02*
X1800Y5184D01*
X4225Y4617D02*
X3977Y4617D01*
X6090Y2150D02*
X6234Y2005D01*
X6234Y2005D02*
X6234Y2000D01*
X8780Y2000D02*
X8832Y2000D01*
X8832Y2000D02*
X9303Y2471D01*
X2300Y1500D02*
X3640Y1500D01*
X6039Y1805D02*
X6234Y2000D01*
X3945Y1805D02*
X6039Y1805D01*
X3945Y1805D02*
X3640Y1500D01*
X6450Y2000D02*
X6234Y2000D01*
X13819Y5595D02*
X12732Y4508D01*
X17595Y5595D02*
X13819Y5595D01*
X18500Y6500D02*
X17595Y5595D01*
X12474Y4250D02*
X12732Y4508D01*
X16729Y5729D02*
X17500Y6500D01*
X13675Y5729D02*
X16729Y5729D01*
X12335Y4389D02*
X13675Y5729D01*
X9388Y6114D02*
X10139Y5363D01*
X8885Y6114D02*
X9388Y6114D01*
X8500Y6500D02*
X8885Y6114D01*
X9481Y5743D02*
X9999Y5224D01*
X8256Y5743D02*
X9481Y5743D01*
X7500Y6500D02*
X8256Y5743D01*
X8407Y4666D02*
X7946Y4666D01*
X8407Y4666D02*
X8886Y4666D01*
X9163Y4388D02*
X8886Y4666D01*
X5150Y6150D02*
X5500Y6500D01*
X5150Y4160D02*
X5150Y6150D01*
X5389Y3920D02*
X5150Y4160D01*
X7200Y3920D02*
X5389Y3920D01*
X7946Y4666D02*
X7200Y3920D01*
X8747Y4488D02*
X8766Y4507D01*
X7938Y4488D02*
X8747Y4488D01*
X7250Y3800D02*
X7938Y4488D01*
X5330Y3800D02*
X7250Y3800D01*
X4950Y4180D02*
X5330Y3800D01*
X4950Y6050D02*
X4950Y4180D01*
X4500Y6500D02*
X4950Y6050D01*
X9024Y4249D02*
X8766Y4507D01*
X8885Y4110D02*
X8627Y4368D01*
X8610Y4352D02*
X8627Y4368D01*
X8002Y4352D02*
X8610Y4352D01*
X7300Y3650D02*
X8002Y4352D01*
X5270Y3650D02*
X7300Y3650D01*
X4800Y4120D02*
X5270Y3650D01*
X4800Y5030D02*
X4800Y4120D01*
X4646Y5183D02*
X4800Y5030D01*
X4646Y5353D02*
X4646Y5183D01*
X3500Y6500D02*
X4646Y5353D01*
X8871Y1759D02*
X9443Y2331D01*
X7813Y1759D02*
X8871Y1759D01*
X7604Y1550D02*
X7813Y1759D01*
X4550Y1550D02*
X7604Y1550D01*
X3500Y500D02*
X4550Y1550D01*
X5430Y1430D02*
X4500Y500D01*
X7653Y1430D02*
X5430Y1430D01*
X7855Y1631D02*
X7653Y1430D01*
X9021Y1631D02*
X7855Y1631D01*
X9582Y2192D02*
X9021Y1631D01*
X9120Y1451D02*
X9721Y2053D01*
X8015Y1451D02*
X9120Y1451D01*
X7854Y1290D02*
X8015Y1451D01*
X6290Y1290D02*
X7854Y1290D01*
X5500Y500D02*
X6290Y1290D01*
X9218Y1271D02*
X9861Y1913D01*
X8186Y1271D02*
X9218Y1271D01*
X8066Y1151D02*
X8186Y1271D01*
X7151Y1151D02*
X8066Y1151D01*
X6500Y500D02*
X7151Y1151D01*
X9377Y1151D02*
X10000Y1774D01*
X8321Y1151D02*
X9377Y1151D01*
X7669Y500D02*
X8321Y1151D01*
X7500Y500D02*
X7669Y500D01*
X13529Y5862D02*
X12196Y4528D01*
X15862Y5862D02*
X13529Y5862D01*
X16500Y6500D02*
X15862Y5862D01*
X9389Y885D02*
X10139Y1635D01*
X8885Y885D02*
X9389Y885D01*
X8500Y500D02*
X8885Y885D01*
X10020Y1020D02*
X10020Y1237D01*
X9500Y500D02*
X10020Y1020D01*
X10279Y1496D02*
X10020Y1237D01*
X11695Y1579D02*
X11500Y1775D01*
X11695Y1284D02*
X11695Y1579D01*
X10911Y500D02*
X11695Y1284D01*
X10500Y500D02*
X10911Y500D01*
X3025Y3303D02*
X3716Y3303D01*
X11374Y2180D02*
X11639Y1914D01*
X11260Y2180D02*
X11374Y2180D01*
X11080Y2360D02*
X11260Y2180D01*
X4950Y2900D02*
X5300Y2900D01*
X4690Y3160D02*
X4950Y2900D01*
X3860Y3160D02*
X4690Y3160D01*
X3716Y3303D02*
X3860Y3160D01*
X3500Y2800D02*
X3184Y2800D01*
X3025Y2800D02*
X3184Y2800D01*
X3025Y3303D02*
X3025Y2800D01*
X11843Y1602D02*
X11897Y1656D01*
X11843Y843D02*
X11843Y1602D01*
X11500Y500D02*
X11843Y843D01*
X11639Y1914D02*
X11897Y1656D01*
X3025Y3696D02*
X3223Y3696D01*
X11776Y2053D02*
X11778Y2053D01*
X11370Y2460D02*
X11776Y2053D01*
X5510Y3120D02*
X5520Y3130D01*
X4930Y3120D02*
X5510Y3120D01*
X4750Y3300D02*
X4930Y3120D01*
X4030Y3300D02*
X4750Y3300D01*
X3800Y3530D02*
X4030Y3300D01*
X3390Y3530D02*
X3800Y3530D01*
X3223Y3696D02*
X3390Y3530D01*
X12037Y1795D02*
X12037Y1795D01*
X12037Y962D02*
X12037Y1795D01*
X12500Y500D02*
X12037Y962D01*
X11778Y2053D02*
X12037Y1795D01*
X12176Y1935D02*
X12176Y1935D01*
X12176Y1042D02*
X12176Y1935D01*
X12283Y934D02*
X12176Y1042D01*
X12624Y934D02*
X12283Y934D01*
X13059Y500D02*
X12624Y934D01*
X13500Y500D02*
X13059Y500D01*
X11918Y2193D02*
X12176Y1935D01*
X14500Y562D02*
X14500Y500D01*
X13460Y1601D02*
X14500Y562D01*
X12788Y1601D02*
X13460Y1601D01*
X12057Y2332D02*
X12788Y1601D01*
X12578Y2090D02*
X12196Y2471D01*
X13143Y2090D02*
X12578Y2090D01*
X14058Y1175D02*
X13143Y2090D01*
X14385Y1175D02*
X14058Y1175D01*
X15060Y500D02*
X14385Y1175D01*
X15500Y500D02*
X15060Y500D01*
X12336Y2611D02*
X12594Y2352D01*
X12880Y2352D02*
X12594Y2352D01*
X13022Y2211D02*
X12880Y2352D01*
X13192Y2211D02*
X13022Y2211D01*
X14058Y1345D02*
X13192Y2211D01*
X14385Y1345D02*
X14058Y1345D01*
X14725Y1005D02*
X14385Y1345D01*
X15994Y1005D02*
X14725Y1005D01*
X16500Y500D02*
X15994Y1005D01*
X12475Y2750D02*
X12733Y2492D01*
X12741Y2492D02*
X12733Y2492D01*
X12754Y2479D02*
X12741Y2492D01*
X12924Y2479D02*
X12754Y2479D01*
X13072Y2331D02*
X12924Y2479D01*
X13242Y2331D02*
X13072Y2331D01*
X13667Y1905D02*
X13242Y2331D01*
X13710Y1905D02*
X13667Y1905D01*
X14140Y1475D02*
X13710Y1905D01*
X14509Y1475D02*
X14140Y1475D01*
X14739Y1245D02*
X14509Y1475D01*
X16754Y1245D02*
X14739Y1245D01*
X17500Y500D02*
X16754Y1245D01*
X13104Y5994D02*
X11917Y4807D01*
X14994Y5994D02*
X13104Y5994D01*
X15500Y6500D02*
X14994Y5994D01*
X12614Y2889D02*
X12872Y2631D01*
X12942Y2631D02*
X12872Y2631D01*
X12973Y2599D02*
X12942Y2631D01*
X13058Y2599D02*
X12973Y2599D01*
X13206Y2451D02*
X13058Y2599D01*
X13291Y2451D02*
X13206Y2451D01*
X13717Y2025D02*
X13291Y2451D01*
X13760Y2025D02*
X13717Y2025D01*
X14189Y1595D02*
X13760Y2025D01*
X14559Y1595D02*
X14189Y1595D01*
X14789Y1365D02*
X14559Y1595D01*
X17634Y1365D02*
X14789Y1365D01*
X18500Y500D02*
X17634Y1365D01*
X12753Y3029D02*
X13012Y2770D01*
X13184Y2770D02*
X13012Y2770D01*
X14012Y1943D02*
X13184Y2770D01*
X18056Y1943D02*
X14012Y1943D01*
X19500Y500D02*
X18056Y1943D01*
X8780Y2230D02*
X7280Y2230D01*
X7280Y2230D02*
X7050Y2000D01*
X9164Y2610D02*
X9160Y2610D01*
X9160Y2610D02*
X8780Y2230D01*
X7050Y2000D02*
X7050Y1910D01*
X3020Y1020D02*
X2500Y500D01*
X3610Y1020D02*
X3020Y1020D01*
X4270Y1680D02*
X3610Y1020D01*
X6819Y1680D02*
X4270Y1680D01*
X7050Y1910D02*
X6819Y1680D01*
X11454Y4065D02*
X12056Y4668D01*
X12946Y6114D02*
X11778Y4946D01*
X14114Y6114D02*
X12946Y6114D01*
X14500Y6500D02*
X14114Y6114D01*
X13052Y6500D02*
X11638Y5086D01*
X13500Y6500D02*
X13052Y6500D01*
X12500Y6225D02*
X11499Y5225D01*
X12500Y6500D02*
X12500Y6225D01*
X11547Y5694D02*
X11618Y5622D01*
X11547Y6452D02*
X11547Y5694D01*
X11500Y6500D02*
X11547Y6452D01*
X11360Y5364D02*
X11618Y5622D01*
X11220Y5779D02*
X11220Y5503D01*
X10500Y6500D02*
X11220Y5779D01*
X10020Y5979D02*
X10020Y5761D01*
X9500Y6500D02*
X10020Y5979D01*
X10278Y5503D02*
X10020Y5761D01*
X8639Y2363D02*
X9025Y2749D01*
X5871Y2363D02*
X8639Y2363D01*
X5657Y2150D02*
X5871Y2363D01*
X4350Y2150D02*
X5657Y2150D01*
X8746Y3970D02*
X8487Y4229D01*
X8079Y4229D02*
X8487Y4229D01*
X7350Y3500D02*
X8079Y4229D01*
X5180Y3500D02*
X7350Y3500D01*
X4650Y4030D02*
X5180Y3500D01*
X4650Y4673D02*
X4650Y4030D01*
X4141Y5182D02*
X4650Y4673D01*
X2229Y5182D02*
X4141Y5182D01*
X2134Y5277D02*
X2229Y5182D01*
X2134Y6134D02*
X2134Y5277D01*
X2500Y6500D02*
X2134Y6134D01*
X2474Y3500D02*
X2662Y3500D01*
X2500Y4429D02*
X2500Y4082D01*
X2615Y3967D02*
X2635Y3987D01*
X2662Y3919D02*
X2615Y3967D01*
X2662Y3500D02*
X2662Y3919D01*
X2615Y3967D02*
X2500Y4082D01*
X6866Y6500D02*
X6500Y6500D01*
X7493Y5873D02*
X6866Y6500D01*
X7606Y5873D02*
X7493Y5873D01*
X8185Y5294D02*
X7606Y5873D01*
X8913Y5294D02*
X8185Y5294D01*
X9143Y5064D02*
X8913Y5294D01*
X9323Y5064D02*
X9143Y5064D01*
X9323Y5064D02*
X9323Y5064D01*
X9452Y4935D02*
X9323Y5064D01*
X9452Y4935D02*
X9581Y4806D01*
X15522Y2934D02*
X15272Y3184D01*
X16007Y2934D02*
X15522Y2934D01*
X16334Y2607D02*
X16007Y2934D01*
X16334Y2500D02*
X16334Y2607D01*
X16550Y2500D02*
X16334Y2500D01*
X6314Y4527D02*
X6314Y4354D01*
X5332Y5472D02*
X5685Y5472D01*
X5310Y5450D02*
X5332Y5472D01*
X5310Y4230D02*
X5310Y5450D01*
X5430Y4110D02*
X5310Y4230D01*
X6070Y4110D02*
X5430Y4110D01*
X6314Y4354D02*
X6070Y4110D01*
X5685Y5472D02*
X5685Y5885D01*
X5685Y5885D02*
X5750Y5950D01*
X5750Y5950D02*
X6676Y5950D01*
X6676Y5950D02*
X6838Y6111D01*
X8000Y2950D02*
X7641Y2950D01*
X7641Y2950D02*
X7595Y2996D01*
X6450Y2750D02*
X6234Y2750D01*
X6141Y2854D02*
X6234Y2760D01*
X6234Y2760D02*
X6234Y2750D01*
X1500Y984D02*
X1500Y500D01*
X1700Y1184D02*
X1500Y984D01*
X1700Y1500D02*
X1700Y1184D01*
X1700Y2595D02*
X1700Y1500D01*
X1680Y2614D02*
X1700Y2595D01*
X3025Y3500D02*
X2837Y3500D01*
X2837Y3367D02*
X2837Y3500D01*
X2610Y3140D02*
X2837Y3367D01*
X1680Y3140D02*
X2610Y3140D01*
X1680Y2614D02*
X1680Y3140D01*
X15454Y4600D02*
X15479Y4575D01*
X15050Y4600D02*
X15454Y4600D01*
X15767Y4575D02*
X15479Y4575D01*
X15050Y4600D02*
X15050Y4384D01*
X8568Y2689D02*
X8627Y2630D01*
X8295Y2689D02*
X8568Y2689D01*
X8000Y2984D02*
X8295Y2689D01*
X8000Y2950D02*
X8000Y2984D01*
X1015Y5184D02*
X1003Y5172D01*
X1200Y5184D02*
X1015Y5184D01*
X500Y5172D02*
X1003Y5172D01*
X1200Y5500D02*
X1200Y5184D01*
X1680Y3140D02*
X1680Y4385D01*
X1200Y4866D02*
X1200Y5184D01*
X1680Y4385D02*
X1200Y4866D01*
X13265Y1258D02*
X13265Y1250D01*
X13386Y1379D02*
X13265Y1258D01*
X13050Y1250D02*
X13265Y1250D01*
X6934Y6015D02*
X7000Y6015D01*
X6838Y6111D02*
X6934Y6015D01*
X7000Y5800D02*
X7000Y6015D01*
X11221Y1158D02*
X10998Y1381D01*
X11400Y1158D02*
X11221Y1158D01*
X11548Y1307D02*
X11400Y1158D01*
X11548Y1448D02*
X11548Y1307D01*
X11360Y1636D02*
X11548Y1448D01*
X8756Y2759D02*
X8627Y2630D01*
X8756Y2759D02*
X8886Y2889D01*
X10910Y1381D02*
X10998Y1381D01*
X9144Y3147D02*
X10910Y1381D01*
X8886Y2889D02*
X9144Y3147D01*
X6684Y4464D02*
X6621Y4527D01*
X6684Y4200D02*
X6684Y4464D01*
X6314Y4527D02*
X6621Y4527D01*
X7000Y4200D02*
X6684Y4200D01*
X14550Y4000D02*
X14765Y4000D01*
X14994Y4329D02*
X15050Y4384D01*
X14994Y4243D02*
X14994Y4329D01*
X14879Y4000D02*
X14765Y4000D01*
X14879Y4128D02*
X14879Y4000D01*
X14994Y4243D02*
X14879Y4128D01*
X15590Y3250D02*
X15950Y3250D01*
X14879Y3960D02*
X15590Y3250D01*
X14879Y4000D02*
X14879Y3960D01*
X12944Y4441D02*
X12966Y4441D01*
X12613Y4110D02*
X12944Y4441D01*
X16550Y3250D02*
X16334Y3250D01*
X15658Y3567D02*
X15618Y3527D01*
X16124Y3567D02*
X15658Y3567D01*
X16334Y3357D02*
X16124Y3567D01*
X16334Y3250D02*
X16334Y3357D01*
X2188Y3303D02*
X1991Y3500D01*
X2474Y3303D02*
X2188Y3303D01*
X3645Y2415D02*
X4079Y2850D01*
X3500Y2415D02*
X3645Y2415D01*
X3500Y2200D02*
X3500Y2415D01*
X4350Y2850D02*
X4079Y2850D01*
X7000Y4800D02*
X6800Y4800D01*
X6157Y5000D02*
X5685Y4527D01*
X6600Y5000D02*
X6157Y5000D01*
X6800Y4800D02*
X6600Y5000D01*
X8126Y4800D02*
X9031Y4800D01*
X8126Y4800D02*
X7315Y4800D01*
X7000Y4800D02*
X7315Y4800D01*
X9031Y4800D02*
X9303Y4528D01*
X7000Y5200D02*
X6587Y5200D01*
X6587Y5200D02*
X6314Y5472D01*
X9184Y4925D02*
X7589Y4925D01*
X9442Y4667D02*
X9184Y4925D01*
X7315Y5200D02*
X7000Y5200D01*
X7315Y5200D02*
X7431Y5083D01*
X9184Y4925D02*
X9184Y4925D01*
X7589Y4925D02*
X7431Y5083D01*
X16920Y4912D02*
X17032Y4800D01*
X16920Y4950D02*
X16920Y4912D01*
X17379Y4800D02*
X17032Y4800D01*
X16632Y4950D02*
X16920Y4950D01*
X2500Y5570D02*
X2845Y5570D01*
X2865Y5570D02*
X3000Y5705D01*
X2845Y5570D02*
X2865Y5570D01*
X3222Y5482D02*
X3850Y5482D01*
X3000Y5705D02*
X3222Y5482D01*
X17725Y5146D02*
X17725Y4800D01*
X18912Y6333D02*
X17725Y5146D01*
X18912Y6636D02*
X18912Y6333D01*
X18663Y6885D02*
X18912Y6636D01*
X3332Y6885D02*
X18663Y6885D01*
X3000Y6553D02*
X3332Y6885D01*
X3000Y5705D02*
X3000Y6553D01*
X17379Y4800D02*
X17725Y4800D01*
X2169Y3696D02*
X2065Y3801D01*
X2474Y3696D02*
X2169Y3696D01*
X16550Y4000D02*
X16765Y4000D01*
X16765Y3906D02*
X16856Y3814D01*
X16765Y4000D02*
X16765Y3906D01*
X12495Y3713D02*
X11723Y3713D01*
X12753Y3971D02*
X12495Y3713D01*
X12823Y4042D02*
X12753Y3971D01*
X12823Y4042D02*
X13011Y4229D01*
X13950Y4000D02*
X13734Y4000D01*
X13734Y4000D02*
X13241Y4000D01*
X13241Y4000D02*
X13011Y4229D01*
X11723Y3713D02*
X10566Y2556D01*
X5150Y2500D02*
X4200Y2500D01*
X4200Y2500D02*
X4032Y2332D01*
X4032Y2332D02*
X4032Y2192D01*
X3790Y1950D02*
X4032Y2192D01*
X3550Y1950D02*
X3790Y1950D01*
X3370Y1770D02*
X3550Y1950D01*
X7050Y2750D02*
X7050Y3050D01*
X8555Y3220D02*
X8746Y3028D01*
X7220Y3220D02*
X8555Y3220D01*
X7050Y3050D02*
X7220Y3220D01*
X15479Y5314D02*
X15365Y5200D01*
X15479Y5325D02*
X15479Y5314D01*
X15767Y5325D02*
X15479Y5325D01*
X15950Y2500D02*
X16165Y2500D01*
X15207Y5200D02*
X15365Y5200D01*
X15207Y5200D02*
X15050Y5200D01*
X14165Y4215D02*
X14165Y4000D01*
X14934Y4984D02*
X14165Y4215D01*
X15050Y4984D02*
X14934Y4984D01*
X15050Y5200D02*
X15050Y4984D01*
X13950Y4000D02*
X14165Y4000D01*
X15950Y4000D02*
X16165Y4000D01*
X15767Y5325D02*
X15767Y5077D01*
X16165Y4679D02*
X15767Y5077D01*
X16165Y4000D02*
X16165Y4679D01*
X10975Y2146D02*
X10975Y2146D01*
X11221Y1496D02*
X10963Y1755D01*
X10975Y2146D02*
X10566Y2556D01*
X10963Y1755D02*
X10975Y1767D01*
X10975Y1767D02*
X10975Y2146D01*
X9014Y3276D02*
X9005Y3286D01*
X8875Y3157D02*
X9005Y3286D01*
X8746Y3028D02*
X8875Y3157D01*
X10566Y2556D02*
X9845Y3276D01*
X9845Y3276D02*
X9014Y3276D01*
X18900Y2213D02*
X19114Y2000D01*
X16769Y2213D02*
X18900Y2213D01*
X16722Y2166D02*
X16769Y2213D01*
X16391Y2166D02*
X16722Y2166D01*
X16165Y2392D02*
X16391Y2166D01*
X16165Y2500D02*
X16165Y2392D01*
X16165Y3892D02*
X16165Y4000D01*
X16385Y3671D02*
X16165Y3892D01*
X16611Y3671D02*
X16385Y3671D01*
X16769Y3513D02*
X16611Y3671D01*
X16769Y2213D02*
X16769Y3513D01*
X19500Y2000D02*
X19307Y2000D01*
X19307Y2000D02*
X19114Y2000D01*
X12665Y1131D02*
X12665Y1250D01*
X12862Y934D02*
X12665Y1131D01*
X13617Y934D02*
X12862Y934D01*
X13974Y578D02*
X13617Y934D01*
X13974Y476D02*
X13974Y578D01*
X14356Y94D02*
X13974Y476D01*
X19644Y94D02*
X14356Y94D01*
X19905Y355D02*
X19644Y94D01*
X19905Y1401D02*
X19905Y355D01*
X19307Y2000D02*
X19905Y1401D01*
X12450Y1250D02*
X12665Y1250D01*
X7050Y2750D02*
X6834Y2750D01*
X5150Y2500D02*
X5420Y2500D01*
X5985Y3065D02*
X5420Y2500D01*
X6627Y3065D02*
X5985Y3065D01*
X6834Y2857D02*
X6627Y3065D01*
X6834Y2750D02*
X6834Y2857D01*
X18520Y5520D02*
X19500Y6500D01*
X18520Y4800D02*
X18520Y5520D01*
M02*
