G04 (created by PCBNEW (2013-07-07 BZR 4022)-stable) date 5/29/2014 4:36:17 PM*
%MOIN*%
G04 Gerber Fmt 3.4, Leading zero omitted, Abs format*
%FSLAX34Y34*%
G01*
G70*
G90*
G04 APERTURE LIST*
%ADD10C,0.00590551*%
%ADD11R,0.1417X0.063*%
%ADD12R,0.036X0.036*%
%ADD13R,0.0366142X0.0311024*%
%ADD14R,0.0311024X0.0366142*%
%ADD15R,0.0314961X0.0314961*%
%ADD16R,0.0787402X0.023622*%
%ADD17R,0.0629921X0.023622*%
%ADD18R,0.0610236X0.0866142*%
%ADD19R,0.0866142X0.0610236*%
G04 APERTURE END LIST*
G54D10*
G54D11*
X26583Y12500D03*
X24417Y12500D03*
X10667Y20000D03*
X12833Y20000D03*
X34583Y12500D03*
X32417Y12500D03*
X33417Y41500D03*
X35583Y41500D03*
X25417Y41500D03*
X27583Y41500D03*
X17417Y41500D03*
X19583Y41500D03*
X42583Y12500D03*
X40417Y12500D03*
G54D12*
X19450Y12600D03*
X20150Y12600D03*
X19800Y11800D03*
X17850Y12600D03*
X18550Y12600D03*
X18200Y11800D03*
X26400Y23850D03*
X26400Y23150D03*
X25600Y23500D03*
X24900Y20350D03*
X24900Y19650D03*
X24100Y20000D03*
X26400Y21850D03*
X26400Y21150D03*
X25600Y21500D03*
X33350Y34150D03*
X33350Y34850D03*
X34150Y34500D03*
X31600Y34150D03*
X31600Y34850D03*
X32400Y34500D03*
G54D13*
X13500Y33677D03*
X13500Y34322D03*
X25500Y34177D03*
X25500Y34822D03*
G54D14*
X40677Y16750D03*
X41322Y16750D03*
G54D13*
X27500Y34822D03*
X27500Y34177D03*
G54D14*
X16322Y12200D03*
X15677Y12200D03*
X16322Y14000D03*
X15677Y14000D03*
X16322Y15800D03*
X15677Y15800D03*
X17877Y14400D03*
X18522Y14400D03*
X19477Y14400D03*
X20122Y14400D03*
X17427Y22500D03*
X18072Y22500D03*
X38572Y26000D03*
X37927Y26000D03*
X38572Y27000D03*
X37927Y27000D03*
X38572Y28000D03*
X37927Y28000D03*
X38572Y29000D03*
X37927Y29000D03*
X38572Y30000D03*
X37927Y30000D03*
X38572Y31000D03*
X37927Y31000D03*
G54D13*
X38000Y34572D03*
X38000Y33927D03*
X37000Y34572D03*
X37000Y33927D03*
X36000Y34572D03*
X36000Y33927D03*
X35000Y34572D03*
X35000Y33927D03*
G54D14*
X31677Y32750D03*
X32322Y32750D03*
X18677Y22500D03*
X19322Y22500D03*
X18677Y24000D03*
X19322Y24000D03*
X20122Y13800D03*
X19477Y13800D03*
X18522Y13800D03*
X17877Y13800D03*
X15677Y13400D03*
X16322Y13400D03*
X15677Y15200D03*
X16322Y15200D03*
X15677Y11600D03*
X16322Y11600D03*
G54D13*
X12750Y34322D03*
X12750Y33677D03*
X11500Y8177D03*
X11500Y8822D03*
X20250Y9072D03*
X20250Y8427D03*
G54D14*
X18677Y21750D03*
X19322Y21750D03*
G54D13*
X39000Y24122D03*
X39000Y23477D03*
X36400Y23477D03*
X36400Y24122D03*
X39000Y22722D03*
X39000Y22077D03*
X39000Y21322D03*
X39000Y20677D03*
X39600Y21322D03*
X39600Y20677D03*
X10750Y13677D03*
X10750Y14322D03*
G54D14*
X17427Y21750D03*
X18072Y21750D03*
G54D13*
X11000Y32677D03*
X11000Y33322D03*
X10750Y10927D03*
X10750Y11572D03*
X10750Y8177D03*
X10750Y8822D03*
X37000Y23477D03*
X37000Y24122D03*
X39600Y23477D03*
X39600Y24122D03*
X39600Y22722D03*
X39600Y22077D03*
G54D14*
X18677Y23250D03*
X19322Y23250D03*
X34822Y39750D03*
X34177Y39750D03*
X18822Y39750D03*
X18177Y39750D03*
X26822Y39750D03*
X26177Y39750D03*
X41177Y14250D03*
X41822Y14250D03*
X33177Y14250D03*
X33822Y14250D03*
X25177Y14250D03*
X25822Y14250D03*
X27427Y22500D03*
X28072Y22500D03*
X27427Y23250D03*
X28072Y23250D03*
G54D15*
X20545Y22500D03*
X19954Y22500D03*
X20545Y24000D03*
X19954Y24000D03*
X20545Y21750D03*
X19954Y21750D03*
X11500Y10045D03*
X11500Y9454D03*
X19500Y9045D03*
X19500Y8454D03*
X10250Y33295D03*
X10250Y32704D03*
X10750Y10045D03*
X10750Y9454D03*
X10750Y15545D03*
X10750Y14954D03*
X10750Y12795D03*
X10750Y12204D03*
X20545Y23250D03*
X19954Y23250D03*
G54D13*
X31250Y25177D03*
X31250Y25822D03*
X38400Y21322D03*
X38400Y20677D03*
X38400Y22722D03*
X38400Y22077D03*
X35800Y23477D03*
X35800Y24122D03*
X38400Y24122D03*
X38400Y23477D03*
G54D14*
X25822Y30500D03*
X25177Y30500D03*
X28072Y21750D03*
X27427Y21750D03*
G54D13*
X35200Y23477D03*
X35200Y24122D03*
X37800Y22722D03*
X37800Y22077D03*
X37800Y24122D03*
X37800Y23477D03*
X37800Y21322D03*
X37800Y20677D03*
G54D16*
X21669Y29750D03*
X21669Y29250D03*
X21669Y28750D03*
X21669Y28250D03*
X21669Y27750D03*
X21669Y27250D03*
X21669Y26750D03*
X21669Y26250D03*
X21669Y25750D03*
X21669Y25250D03*
X25250Y25250D03*
X25250Y25750D03*
X25250Y26250D03*
X25250Y26750D03*
X25250Y27250D03*
X25250Y27750D03*
X25250Y28250D03*
X25250Y28750D03*
X25250Y29250D03*
X25250Y29750D03*
X35830Y25250D03*
X35830Y25750D03*
X35830Y26250D03*
X35830Y26750D03*
X35830Y27250D03*
X35830Y27750D03*
X35830Y28250D03*
X35830Y28750D03*
X35830Y29250D03*
X35830Y29750D03*
X35830Y30250D03*
X35830Y30750D03*
X32250Y30750D03*
X32250Y30250D03*
X32250Y29750D03*
X32250Y29250D03*
X32250Y28750D03*
X32250Y28250D03*
X32250Y27750D03*
X32250Y27250D03*
X32250Y26750D03*
X32250Y26250D03*
X32250Y25750D03*
X32250Y25250D03*
G54D17*
X31062Y21750D03*
X31062Y22250D03*
X31062Y22750D03*
X31062Y23250D03*
X28937Y23250D03*
X28937Y22750D03*
X28937Y22250D03*
X28937Y21750D03*
G54D18*
X9750Y8192D03*
X9750Y9807D03*
G54D19*
X8011Y36574D03*
X9625Y36574D03*
G54D18*
X9750Y10942D03*
X9750Y12557D03*
X9750Y13692D03*
X9750Y15307D03*
X16250Y8192D03*
X16250Y9807D03*
X14750Y8192D03*
X14750Y9807D03*
G54D14*
X15677Y11000D03*
X16322Y11000D03*
X15677Y12800D03*
X16322Y12800D03*
X15677Y14600D03*
X16322Y14600D03*
G54D13*
X12750Y35572D03*
X12750Y34927D03*
G54D14*
X19477Y13200D03*
X20122Y13200D03*
X17877Y13200D03*
X18522Y13200D03*
G54D12*
X24900Y21850D03*
X24900Y21150D03*
X24100Y21500D03*
M02*
