M48
;DRILL file {Pcbnew (2013-07-07 BZR 4022)-stable} date 2/10/2014 10:42:38 AM
;FORMAT={2:4/ absolute / inch / keep zeros}
FMAT,2
INCH,TZ
T1C0.012
T2C0.032
T3C0.040
T4C0.047
T5C0.050
T6C0.055
T7C0.125
T8C0.149
%
G90
G05
M72
T1
X009171Y022671
X009911Y023063
X010900Y023000
X011400Y021500
X012235Y012309
X012473Y025405
X012572Y024578
X012590Y023724
X012590Y021654
X012688Y013225
X012803Y025399
X012996Y024682
X013624Y019725
X013728Y021520
X013900Y019988
X013987Y020346
X014031Y020828
X015071Y025467
X015331Y026252
X015345Y022655
X015776Y020294
X015946Y020769
X016326Y024157
X020139Y027704
X020504Y009083
X021405Y022920
X022048Y027485
X022204Y020179
X022414Y023627
X022414Y021946
X023025Y015750
X023383Y022674
X023387Y023610
X023400Y024720
X023400Y015375
X023446Y027846
X023601Y024433
X023625Y022929
X023724Y023603
X023998Y021461
X024025Y017500
X024025Y013250
X024099Y023603
X024650Y015375
X025502Y023675
X025775Y017750
X025821Y019029
X026400Y017750
X026400Y016500
X026838Y028106
X027229Y023243
X028150Y015375
X028650Y015000
X029943Y028286
X030650Y015375
X031150Y015375
X032858Y026610
X033114Y010290
X034545Y031305
X034653Y007474
X036121Y009077
X036644Y007540
T2
X011400Y037000
X011400Y032000
X012400Y037000
X012400Y032000
X013400Y037000
X013400Y032000
X013900Y008000
X013900Y003000
X014400Y037000
X014400Y032000
X014900Y008000
X014900Y003000
X015400Y037000
X015400Y032000
X015900Y008000
X015900Y003000
X016400Y037000
X016400Y032000
X016900Y008000
X016900Y003000
X017400Y037000
X017400Y032000
X017900Y008000
X017900Y003000
X018400Y037000
X018400Y032000
X018900Y008000
X018900Y003000
X019400Y037000
X019400Y032000
X019900Y008000
X019900Y003000
X020400Y037000
X020400Y032000
X020900Y008000
X020900Y003000
X021400Y037000
X021400Y032000
X021900Y008000
X021900Y003000
X022400Y037000
X022400Y032000
X022900Y008000
X022900Y003000
X023400Y037000
X023400Y032000
X023900Y008000
X023900Y003000
X024400Y037000
X024400Y032000
X024900Y008000
X024900Y003000
X025400Y037000
X025400Y032000
X025900Y008000
X025900Y003000
X026400Y037000
X026400Y032000
X026900Y008000
X026900Y003000
X027400Y037000
X027400Y032000
X027900Y008000
X027900Y003000
X028400Y037000
X028400Y032000
X028900Y008000
X028900Y003000
X029400Y037000
X029400Y032000
X029900Y008000
X029900Y003000
X030400Y037000
X030400Y032000
X030900Y008000
X030900Y003000
X031400Y037000
X031400Y032000
X031900Y008000
X031900Y003000
X032400Y037000
X032400Y032000
X032900Y008000
X032900Y003000
X033400Y037000
X033400Y032000
X033900Y008000
X033900Y003000
X034400Y037000
X034400Y032000
X034900Y008000
X034900Y003000
X035900Y008000
X035900Y003000
X036900Y008000
X036900Y003000
T3
X005150Y001250
X005650Y008500
X005650Y006500
X005650Y004500
X006150Y001250
X006400Y027000
X006650Y008500
X006650Y006500
X006650Y004500
X007400Y027000
X007650Y008500
X007650Y006500
X007650Y004500
X008400Y030000
X008400Y029000
X008400Y027000
X008400Y011000
X008400Y010000
X008650Y001250
X009400Y030000
X009400Y029000
X009400Y011000
X009400Y010000
X009650Y001250
X010400Y030000
X010400Y029000
X010400Y011000
X010400Y010000
X010400Y008250
X010400Y006000
X011400Y030000
X011400Y029000
X011400Y011000
X011400Y010000
X011400Y008250
X011400Y006000
X012400Y030000
X012400Y029000
X012400Y011000
X012400Y010000
X012400Y008250
X012400Y006000
X012400Y001250
X013400Y038750
X013400Y030000
X013400Y029000
X013400Y011000
X013400Y010000
X013400Y001250
X014400Y038750
X014400Y030000
X014400Y029000
X014400Y019500
X014400Y015000
X014400Y014000
X014400Y013000
X014400Y011000
X014400Y010000
X014900Y035500
X014900Y034500
X014900Y033500
X015400Y038750
X015400Y030000
X015400Y029000
X015400Y019500
X015400Y015000
X015400Y014000
X015400Y013000
X015400Y011000
X015400Y010000
X015900Y035500
X015900Y034500
X015900Y033500
X015900Y001250
X016400Y038750
X016400Y030000
X016400Y029000
X016400Y019500
X016400Y011000
X016400Y010000
X016400Y006500
X016400Y005500
X016400Y004500
X016900Y001250
X017400Y030000
X017400Y029000
X017400Y019500
X017400Y015000
X017400Y014000
X017400Y012250
X017400Y011000
X017400Y010000
X017400Y006500
X017400Y005500
X017400Y004500
X017900Y001250
X018400Y030000
X018400Y029000
X018400Y015000
X018400Y014000
X018400Y012250
X018400Y011000
X018400Y010000
X018900Y001250
X019400Y030000
X019400Y029000
X019400Y026500
X019400Y025500
X019400Y024500
X019400Y023500
X019400Y022500
X019400Y021500
X019400Y017000
X019400Y015000
X019400Y014000
X019400Y012250
X019400Y011000
X019400Y010000
X020400Y030000
X020400Y029000
X020400Y026500
X020400Y025500
X020400Y024500
X020400Y023500
X020400Y022500
X020400Y021500
X020400Y017000
X020400Y015000
X020400Y014000
X020400Y012250
X020400Y011000
X020400Y010000
X021400Y038750
X021400Y030000
X021400Y029000
X021400Y019000
X021400Y017000
X021400Y015000
X021400Y014000
X021400Y012250
X021400Y011000
X021400Y010000
X022400Y038750
X022400Y030000
X022400Y029000
X022400Y019000
X022400Y017000
X022400Y015000
X022400Y014000
X022400Y012250
X022400Y011000
X022400Y010000
X022900Y035500
X022900Y034500
X022900Y033500
X023400Y038750
X023400Y030000
X023400Y029000
X023400Y011000
X023400Y010000
X023900Y035500
X023900Y034500
X023900Y033500
X023900Y001250
X024400Y038750
X024400Y030000
X024400Y029000
X024400Y011000
X024400Y010000
X024400Y006500
X024400Y005500
X024400Y004500
X024900Y001250
X025400Y030000
X025400Y029000
X025400Y012500
X025400Y011000
X025400Y010000
X025400Y006500
X025400Y005500
X025400Y004500
X025900Y001250
X026400Y030000
X026400Y029000
X026400Y012500
X026400Y011000
X026400Y010000
X026900Y001250
X027150Y015000
X027150Y014000
X027400Y030000
X027400Y029000
X027400Y027000
X027400Y026000
X027400Y025000
X027400Y024000
X027400Y012500
X027400Y011000
X027400Y010000
X028400Y030000
X028400Y029000
X028400Y027000
X028400Y026000
X028400Y025000
X028400Y024000
X028400Y012500
X028400Y011000
X028400Y010000
X029400Y038750
X029400Y030000
X029400Y029000
X029400Y027000
X029400Y026000
X029400Y025000
X029400Y024000
X029400Y012500
X029400Y011000
X029400Y010000
X030400Y038750
X030400Y030000
X030400Y029000
X030400Y012500
X030400Y011000
X030400Y010000
X030900Y035500
X030900Y034500
X030900Y033500
X031400Y038750
X031400Y024000
X031400Y023000
X031400Y022000
X031400Y021000
X031400Y020000
X031400Y019000
X031900Y035500
X031900Y034500
X031900Y033500
X031900Y030500
X031900Y001250
X032400Y038750
X032400Y024000
X032400Y023000
X032400Y022000
X032400Y021000
X032400Y020000
X032400Y019000
X032400Y017000
X032400Y016000
X032400Y015000
X032400Y014000
X032400Y006500
X032400Y005500
X032400Y004500
X032900Y030500
X032900Y001250
X033400Y026500
X033400Y025500
X033400Y024000
X033400Y023000
X033400Y022000
X033400Y021000
X033400Y020000
X033400Y019000
X033400Y017000
X033400Y016000
X033400Y015000
X033400Y014000
X033400Y006500
X033400Y005500
X033400Y004500
X033900Y030500
X033900Y029500
X033900Y001250
X034900Y030500
X034900Y029500
X034900Y001250
X035514Y038779
X035514Y036220
X035514Y034779
X035514Y032220
X037286Y038779
X037286Y036220
X037286Y034779
X037286Y032220
T4
X001176Y011689
X001176Y010311
X001176Y008689
X001176Y007311
X001176Y005689
X001176Y004311
X001176Y002689
X001176Y001311
T5
X005400Y038180
X005400Y033430
X005400Y016680
X008400Y036820
X008400Y032070
X008400Y015320
T6
X001400Y037500
X001400Y035500
X001400Y033500
X001400Y031500
X001400Y028000
X001400Y026000
X001400Y016000
X001400Y014000
T7
X006400Y029500
X006400Y010500
X032400Y028250
X032400Y011750
T8
X006900Y037500
X006900Y032750
X006900Y016000
T0
M30
