G04 (created by PCBNEW (2013-07-07 BZR 4022)-stable) date 5/7/2014 5:01:29 PM*
%MOIN*%
G04 Gerber Fmt 3.4, Leading zero omitted, Abs format*
%FSLAX34Y34*%
G01*
G70*
G90*
G04 APERTURE LIST*
%ADD10C,0.00590551*%
%ADD11C,0.01*%
%ADD12C,0.012*%
%ADD13C,0.015*%
%ADD14C,0.011811*%
%ADD15C,0.02*%
%ADD16C,0.004*%
%ADD17C,0.008*%
G04 APERTURE END LIST*
G54D10*
X-16600Y49000D02*
X85400Y49000D01*
X85400Y-28000D01*
X-16600Y-28000D01*
X-16600Y49000D01*
X-15900Y48300D02*
X84700Y48300D01*
X84700Y-27300D01*
X-15900Y-27300D01*
X-15900Y48300D01*
X3800Y49000D02*
X3800Y48300D01*
X-6257Y48447D02*
X-6542Y48447D01*
X-6400Y48447D02*
X-6400Y48947D01*
X-6447Y48876D01*
X-6495Y48828D01*
X-6542Y48804D01*
X3800Y-28000D02*
X3800Y-27300D01*
X-6257Y-27852D02*
X-6542Y-27852D01*
X-6400Y-27852D02*
X-6400Y-27352D01*
X-6447Y-27423D01*
X-6495Y-27471D01*
X-6542Y-27495D01*
X24200Y49000D02*
X24200Y48300D01*
X13857Y48900D02*
X13880Y48923D01*
X13928Y48947D01*
X14047Y48947D01*
X14095Y48923D01*
X14119Y48900D01*
X14142Y48852D01*
X14142Y48804D01*
X14119Y48733D01*
X13833Y48447D01*
X14142Y48447D01*
X24200Y-28000D02*
X24200Y-27300D01*
X13857Y-27400D02*
X13880Y-27376D01*
X13928Y-27352D01*
X14047Y-27352D01*
X14095Y-27376D01*
X14119Y-27400D01*
X14142Y-27447D01*
X14142Y-27495D01*
X14119Y-27566D01*
X13833Y-27852D01*
X14142Y-27852D01*
X44600Y49000D02*
X44600Y48300D01*
X34233Y48947D02*
X34542Y48947D01*
X34376Y48757D01*
X34447Y48757D01*
X34495Y48733D01*
X34519Y48709D01*
X34542Y48661D01*
X34542Y48542D01*
X34519Y48495D01*
X34495Y48471D01*
X34447Y48447D01*
X34304Y48447D01*
X34257Y48471D01*
X34233Y48495D01*
X44600Y-28000D02*
X44600Y-27300D01*
X34233Y-27352D02*
X34542Y-27352D01*
X34376Y-27542D01*
X34447Y-27542D01*
X34495Y-27566D01*
X34519Y-27590D01*
X34542Y-27638D01*
X34542Y-27757D01*
X34519Y-27804D01*
X34495Y-27828D01*
X34447Y-27852D01*
X34304Y-27852D01*
X34257Y-27828D01*
X34233Y-27804D01*
X65000Y49000D02*
X65000Y48300D01*
X54895Y48780D02*
X54895Y48447D01*
X54776Y48971D02*
X54657Y48614D01*
X54966Y48614D01*
X65000Y-28000D02*
X65000Y-27300D01*
X54895Y-27519D02*
X54895Y-27852D01*
X54776Y-27328D02*
X54657Y-27685D01*
X54966Y-27685D01*
X75319Y48947D02*
X75080Y48947D01*
X75057Y48709D01*
X75080Y48733D01*
X75128Y48757D01*
X75247Y48757D01*
X75295Y48733D01*
X75319Y48709D01*
X75342Y48661D01*
X75342Y48542D01*
X75319Y48495D01*
X75295Y48471D01*
X75247Y48447D01*
X75128Y48447D01*
X75080Y48471D01*
X75057Y48495D01*
X75319Y-27352D02*
X75080Y-27352D01*
X75057Y-27590D01*
X75080Y-27566D01*
X75128Y-27542D01*
X75247Y-27542D01*
X75295Y-27566D01*
X75319Y-27590D01*
X75342Y-27638D01*
X75342Y-27757D01*
X75319Y-27804D01*
X75295Y-27828D01*
X75247Y-27852D01*
X75128Y-27852D01*
X75080Y-27828D01*
X75057Y-27804D01*
X-16600Y23340D02*
X-15900Y23340D01*
X-16369Y36110D02*
X-16130Y36110D01*
X-16416Y35967D02*
X-16249Y36467D01*
X-16083Y35967D01*
X85400Y23340D02*
X84700Y23340D01*
X84930Y36110D02*
X85169Y36110D01*
X84883Y35967D02*
X85050Y36467D01*
X85216Y35967D01*
X-16600Y-2320D02*
X-15900Y-2320D01*
X-16214Y10569D02*
X-16142Y10545D01*
X-16119Y10521D01*
X-16095Y10474D01*
X-16095Y10402D01*
X-16119Y10355D01*
X-16142Y10331D01*
X-16190Y10307D01*
X-16380Y10307D01*
X-16380Y10807D01*
X-16214Y10807D01*
X-16166Y10783D01*
X-16142Y10760D01*
X-16119Y10712D01*
X-16119Y10664D01*
X-16142Y10617D01*
X-16166Y10593D01*
X-16214Y10569D01*
X-16380Y10569D01*
X85400Y-2320D02*
X84700Y-2320D01*
X85085Y10569D02*
X85157Y10545D01*
X85180Y10521D01*
X85204Y10474D01*
X85204Y10402D01*
X85180Y10355D01*
X85157Y10331D01*
X85109Y10307D01*
X84919Y10307D01*
X84919Y10807D01*
X85085Y10807D01*
X85133Y10783D01*
X85157Y10760D01*
X85180Y10712D01*
X85180Y10664D01*
X85157Y10617D01*
X85133Y10593D01*
X85085Y10569D01*
X84919Y10569D01*
X-16095Y-15304D02*
X-16119Y-15328D01*
X-16190Y-15352D01*
X-16238Y-15352D01*
X-16309Y-15328D01*
X-16357Y-15280D01*
X-16380Y-15233D01*
X-16404Y-15138D01*
X-16404Y-15066D01*
X-16380Y-14971D01*
X-16357Y-14923D01*
X-16309Y-14876D01*
X-16238Y-14852D01*
X-16190Y-14852D01*
X-16119Y-14876D01*
X-16095Y-14900D01*
X85204Y-15304D02*
X85180Y-15328D01*
X85109Y-15352D01*
X85061Y-15352D01*
X84990Y-15328D01*
X84942Y-15280D01*
X84919Y-15233D01*
X84895Y-15138D01*
X84895Y-15066D01*
X84919Y-14971D01*
X84942Y-14923D01*
X84990Y-14876D01*
X85061Y-14852D01*
X85109Y-14852D01*
X85180Y-14876D01*
X85204Y-14900D01*
X51850Y-25742D02*
X51925Y-25142D01*
X52067Y-25142D01*
X52150Y-25171D01*
X52200Y-25228D01*
X52221Y-25285D01*
X52235Y-25400D01*
X52225Y-25485D01*
X52182Y-25600D01*
X52146Y-25657D01*
X52082Y-25714D01*
X51992Y-25742D01*
X51850Y-25742D01*
X52707Y-25742D02*
X52746Y-25428D01*
X52725Y-25371D01*
X52671Y-25342D01*
X52557Y-25342D01*
X52496Y-25371D01*
X52710Y-25714D02*
X52650Y-25742D01*
X52507Y-25742D01*
X52453Y-25714D01*
X52432Y-25657D01*
X52439Y-25600D01*
X52475Y-25542D01*
X52535Y-25514D01*
X52678Y-25514D01*
X52739Y-25485D01*
X52957Y-25342D02*
X53185Y-25342D01*
X53067Y-25142D02*
X53003Y-25657D01*
X53025Y-25714D01*
X53078Y-25742D01*
X53135Y-25742D01*
X53567Y-25714D02*
X53507Y-25742D01*
X53392Y-25742D01*
X53339Y-25714D01*
X53317Y-25657D01*
X53346Y-25428D01*
X53382Y-25371D01*
X53442Y-25342D01*
X53557Y-25342D01*
X53610Y-25371D01*
X53632Y-25428D01*
X53625Y-25485D01*
X53332Y-25542D01*
X53857Y-25685D02*
X53882Y-25714D01*
X53850Y-25742D01*
X53825Y-25714D01*
X53857Y-25685D01*
X53850Y-25742D01*
X53896Y-25371D02*
X53921Y-25400D01*
X53889Y-25428D01*
X53864Y-25400D01*
X53896Y-25371D01*
X53889Y-25428D01*
X54610Y-25142D02*
X55010Y-25142D01*
X54678Y-25742D01*
X55621Y-25742D02*
X55671Y-25342D01*
X55664Y-25400D02*
X55696Y-25371D01*
X55757Y-25342D01*
X55842Y-25342D01*
X55896Y-25371D01*
X55917Y-25428D01*
X55878Y-25742D01*
X55917Y-25428D02*
X55953Y-25371D01*
X56014Y-25342D01*
X56100Y-25342D01*
X56153Y-25371D01*
X56175Y-25428D01*
X56135Y-25742D01*
X56678Y-25742D02*
X56717Y-25428D01*
X56696Y-25371D01*
X56642Y-25342D01*
X56528Y-25342D01*
X56467Y-25371D01*
X56682Y-25714D02*
X56621Y-25742D01*
X56478Y-25742D01*
X56425Y-25714D01*
X56403Y-25657D01*
X56410Y-25600D01*
X56446Y-25542D01*
X56507Y-25514D01*
X56650Y-25514D01*
X56710Y-25485D01*
X56957Y-25342D02*
X57050Y-25742D01*
X57242Y-25342D02*
X57050Y-25742D01*
X56975Y-25885D01*
X56942Y-25914D01*
X56882Y-25942D01*
X57917Y-25200D02*
X57950Y-25171D01*
X58010Y-25142D01*
X58153Y-25142D01*
X58207Y-25171D01*
X58232Y-25200D01*
X58253Y-25257D01*
X58246Y-25314D01*
X58207Y-25400D01*
X57821Y-25742D01*
X58192Y-25742D01*
X58639Y-25142D02*
X58696Y-25142D01*
X58750Y-25171D01*
X58775Y-25200D01*
X58796Y-25257D01*
X58810Y-25371D01*
X58792Y-25514D01*
X58750Y-25628D01*
X58714Y-25685D01*
X58682Y-25714D01*
X58621Y-25742D01*
X58564Y-25742D01*
X58510Y-25714D01*
X58485Y-25685D01*
X58464Y-25628D01*
X58450Y-25514D01*
X58467Y-25371D01*
X58510Y-25257D01*
X58546Y-25200D01*
X58578Y-25171D01*
X58639Y-25142D01*
X59335Y-25742D02*
X58992Y-25742D01*
X59164Y-25742D02*
X59239Y-25142D01*
X59171Y-25228D01*
X59107Y-25285D01*
X59046Y-25314D01*
X59900Y-25342D02*
X59850Y-25742D01*
X59785Y-25114D02*
X59589Y-25542D01*
X59960Y-25542D01*
X43442Y-26942D02*
X43442Y-26342D01*
X43785Y-26942D02*
X43528Y-26600D01*
X43785Y-26342D02*
X43442Y-26685D01*
X44042Y-26942D02*
X44042Y-26542D01*
X44042Y-26342D02*
X44014Y-26371D01*
X44042Y-26400D01*
X44071Y-26371D01*
X44042Y-26342D01*
X44042Y-26400D01*
X44671Y-26885D02*
X44642Y-26914D01*
X44557Y-26942D01*
X44500Y-26942D01*
X44414Y-26914D01*
X44357Y-26857D01*
X44328Y-26800D01*
X44300Y-26685D01*
X44300Y-26600D01*
X44328Y-26485D01*
X44357Y-26428D01*
X44414Y-26371D01*
X44500Y-26342D01*
X44557Y-26342D01*
X44642Y-26371D01*
X44671Y-26400D01*
X45185Y-26942D02*
X45185Y-26628D01*
X45157Y-26571D01*
X45100Y-26542D01*
X44985Y-26542D01*
X44928Y-26571D01*
X45185Y-26914D02*
X45128Y-26942D01*
X44985Y-26942D01*
X44928Y-26914D01*
X44900Y-26857D01*
X44900Y-26800D01*
X44928Y-26742D01*
X44985Y-26714D01*
X45128Y-26714D01*
X45185Y-26685D01*
X45728Y-26942D02*
X45728Y-26342D01*
X45728Y-26914D02*
X45671Y-26942D01*
X45557Y-26942D01*
X45500Y-26914D01*
X45471Y-26885D01*
X45442Y-26828D01*
X45442Y-26657D01*
X45471Y-26600D01*
X45500Y-26571D01*
X45557Y-26542D01*
X45671Y-26542D01*
X45728Y-26571D01*
X46471Y-26628D02*
X46671Y-26628D01*
X46757Y-26942D02*
X46471Y-26942D01*
X46471Y-26342D01*
X46757Y-26342D01*
X47014Y-26885D02*
X47042Y-26914D01*
X47014Y-26942D01*
X46985Y-26914D01*
X47014Y-26885D01*
X47014Y-26942D01*
X47299Y-26942D02*
X47299Y-26342D01*
X47442Y-26342D01*
X47528Y-26371D01*
X47585Y-26428D01*
X47614Y-26485D01*
X47642Y-26600D01*
X47642Y-26685D01*
X47614Y-26800D01*
X47585Y-26857D01*
X47528Y-26914D01*
X47442Y-26942D01*
X47299Y-26942D01*
X47899Y-26885D02*
X47928Y-26914D01*
X47899Y-26942D01*
X47871Y-26914D01*
X47899Y-26885D01*
X47899Y-26942D01*
X48157Y-26771D02*
X48442Y-26771D01*
X48099Y-26942D02*
X48299Y-26342D01*
X48499Y-26942D01*
X48699Y-26885D02*
X48728Y-26914D01*
X48699Y-26942D01*
X48671Y-26914D01*
X48699Y-26885D01*
X48699Y-26942D01*
X76992Y-25742D02*
X76828Y-25457D01*
X76650Y-25742D02*
X76725Y-25142D01*
X76953Y-25142D01*
X77007Y-25171D01*
X77032Y-25200D01*
X77053Y-25257D01*
X77042Y-25342D01*
X77007Y-25400D01*
X76975Y-25428D01*
X76914Y-25457D01*
X76685Y-25457D01*
X77482Y-25714D02*
X77421Y-25742D01*
X77307Y-25742D01*
X77253Y-25714D01*
X77232Y-25657D01*
X77260Y-25428D01*
X77296Y-25371D01*
X77357Y-25342D01*
X77471Y-25342D01*
X77525Y-25371D01*
X77546Y-25428D01*
X77539Y-25485D01*
X77246Y-25542D01*
X77757Y-25342D02*
X77850Y-25742D01*
X78042Y-25342D01*
X78228Y-25685D02*
X78253Y-25714D01*
X78221Y-25742D01*
X78196Y-25714D01*
X78228Y-25685D01*
X78221Y-25742D01*
X78267Y-25371D02*
X78292Y-25400D01*
X78260Y-25428D01*
X78235Y-25400D01*
X78267Y-25371D01*
X78260Y-25428D01*
X79003Y-25200D02*
X79035Y-25171D01*
X79096Y-25142D01*
X79239Y-25142D01*
X79292Y-25171D01*
X79317Y-25200D01*
X79339Y-25257D01*
X79332Y-25314D01*
X79292Y-25400D01*
X78907Y-25742D01*
X79278Y-25742D01*
X79542Y-25685D02*
X79567Y-25714D01*
X79535Y-25742D01*
X79510Y-25714D01*
X79542Y-25685D01*
X79535Y-25742D01*
X80135Y-25742D02*
X79792Y-25742D01*
X79964Y-25742D02*
X80039Y-25142D01*
X79971Y-25228D01*
X79907Y-25285D01*
X79846Y-25314D01*
X43414Y-25714D02*
X43500Y-25742D01*
X43642Y-25742D01*
X43700Y-25714D01*
X43728Y-25685D01*
X43757Y-25628D01*
X43757Y-25571D01*
X43728Y-25514D01*
X43700Y-25485D01*
X43642Y-25457D01*
X43528Y-25428D01*
X43471Y-25400D01*
X43442Y-25371D01*
X43414Y-25314D01*
X43414Y-25257D01*
X43442Y-25200D01*
X43471Y-25171D01*
X43528Y-25142D01*
X43671Y-25142D01*
X43757Y-25171D01*
X44014Y-25742D02*
X44014Y-25342D01*
X44014Y-25142D02*
X43985Y-25171D01*
X44014Y-25200D01*
X44042Y-25171D01*
X44014Y-25142D01*
X44014Y-25200D01*
X44242Y-25342D02*
X44557Y-25342D01*
X44242Y-25742D01*
X44557Y-25742D01*
X45014Y-25714D02*
X44957Y-25742D01*
X44842Y-25742D01*
X44785Y-25714D01*
X44757Y-25657D01*
X44757Y-25428D01*
X44785Y-25371D01*
X44842Y-25342D01*
X44957Y-25342D01*
X45014Y-25371D01*
X45042Y-25428D01*
X45042Y-25485D01*
X44757Y-25542D01*
X45300Y-25685D02*
X45328Y-25714D01*
X45300Y-25742D01*
X45271Y-25714D01*
X45300Y-25685D01*
X45300Y-25742D01*
X45300Y-25371D02*
X45328Y-25400D01*
X45300Y-25428D01*
X45271Y-25400D01*
X45300Y-25371D01*
X45300Y-25428D01*
X46014Y-25571D02*
X46300Y-25571D01*
X45957Y-25742D02*
X46157Y-25142D01*
X46357Y-25742D01*
X76642Y-26942D02*
X76642Y-26342D01*
X77185Y-26942D02*
X77185Y-26342D01*
X77185Y-26914D02*
X77128Y-26942D01*
X77014Y-26942D01*
X76957Y-26914D01*
X76928Y-26885D01*
X76900Y-26828D01*
X76900Y-26657D01*
X76928Y-26600D01*
X76957Y-26571D01*
X77014Y-26542D01*
X77128Y-26542D01*
X77185Y-26571D01*
X77471Y-26885D02*
X77500Y-26914D01*
X77471Y-26942D01*
X77442Y-26914D01*
X77471Y-26885D01*
X77471Y-26942D01*
X77471Y-26571D02*
X77500Y-26600D01*
X77471Y-26628D01*
X77442Y-26600D01*
X77471Y-26571D01*
X77471Y-26628D01*
X78528Y-26942D02*
X78185Y-26942D01*
X78357Y-26942D02*
X78357Y-26342D01*
X78299Y-26428D01*
X78242Y-26485D01*
X78185Y-26514D01*
X79214Y-26314D02*
X78700Y-27085D01*
X79728Y-26942D02*
X79385Y-26942D01*
X79557Y-26942D02*
X79557Y-26342D01*
X79499Y-26428D01*
X79442Y-26485D01*
X79385Y-26514D01*
X43439Y-23942D02*
X43782Y-23942D01*
X43535Y-24542D02*
X43610Y-23942D01*
X43907Y-24542D02*
X43957Y-24142D01*
X43982Y-23942D02*
X43950Y-23971D01*
X43975Y-24000D01*
X44007Y-23971D01*
X43982Y-23942D01*
X43975Y-24000D01*
X44157Y-24142D02*
X44385Y-24142D01*
X44267Y-23942D02*
X44203Y-24457D01*
X44225Y-24514D01*
X44278Y-24542D01*
X44335Y-24542D01*
X44621Y-24542D02*
X44567Y-24514D01*
X44546Y-24457D01*
X44610Y-23942D01*
X45082Y-24514D02*
X45021Y-24542D01*
X44907Y-24542D01*
X44853Y-24514D01*
X44832Y-24457D01*
X44860Y-24228D01*
X44896Y-24171D01*
X44957Y-24142D01*
X45071Y-24142D01*
X45125Y-24171D01*
X45146Y-24228D01*
X45139Y-24285D01*
X44846Y-24342D01*
X45371Y-24485D02*
X45396Y-24514D01*
X45364Y-24542D01*
X45339Y-24514D01*
X45371Y-24485D01*
X45364Y-24542D01*
X45410Y-24171D02*
X45435Y-24200D01*
X45403Y-24228D01*
X45378Y-24200D01*
X45410Y-24171D01*
X45403Y-24228D01*
X46457Y-24485D02*
X46425Y-24514D01*
X46335Y-24542D01*
X46278Y-24542D01*
X46196Y-24514D01*
X46146Y-24457D01*
X46125Y-24400D01*
X46110Y-24285D01*
X46121Y-24200D01*
X46164Y-24085D01*
X46200Y-24028D01*
X46264Y-23971D01*
X46353Y-23942D01*
X46410Y-23942D01*
X46492Y-23971D01*
X46517Y-24000D01*
X47050Y-24542D02*
X46885Y-24257D01*
X46707Y-24542D02*
X46782Y-23942D01*
X47010Y-23942D01*
X47064Y-23971D01*
X47089Y-24000D01*
X47110Y-24057D01*
X47100Y-24142D01*
X47064Y-24200D01*
X47032Y-24228D01*
X46971Y-24257D01*
X46742Y-24257D01*
X47300Y-24371D02*
X47585Y-24371D01*
X47221Y-24542D02*
X47496Y-23942D01*
X47621Y-24542D01*
X47821Y-24542D02*
X47896Y-23942D01*
X48042Y-24371D01*
X48296Y-23942D01*
X48221Y-24542D01*
X48507Y-24542D02*
X48582Y-23942D01*
X48810Y-23942D01*
X48864Y-23971D01*
X48889Y-24000D01*
X48910Y-24057D01*
X48900Y-24142D01*
X48864Y-24200D01*
X48832Y-24228D01*
X48771Y-24257D01*
X48542Y-24257D01*
X49082Y-24514D02*
X49164Y-24542D01*
X49307Y-24542D01*
X49367Y-24514D01*
X49400Y-24485D01*
X49435Y-24428D01*
X49442Y-24371D01*
X49421Y-24314D01*
X49396Y-24285D01*
X49342Y-24257D01*
X49232Y-24228D01*
X49178Y-24200D01*
X49153Y-24171D01*
X49132Y-24114D01*
X49139Y-24057D01*
X49175Y-24000D01*
X49207Y-23971D01*
X49267Y-23942D01*
X49410Y-23942D01*
X49492Y-23971D01*
X50278Y-24771D02*
X50253Y-24742D01*
X50207Y-24657D01*
X50185Y-24600D01*
X50167Y-24514D01*
X50157Y-24371D01*
X50171Y-24257D01*
X50217Y-24114D01*
X50257Y-24028D01*
X50292Y-23971D01*
X50360Y-23885D01*
X50392Y-23857D01*
X50885Y-24485D02*
X50853Y-24514D01*
X50764Y-24542D01*
X50707Y-24542D01*
X50625Y-24514D01*
X50575Y-24457D01*
X50553Y-24400D01*
X50539Y-24285D01*
X50550Y-24200D01*
X50592Y-24085D01*
X50628Y-24028D01*
X50692Y-23971D01*
X50782Y-23942D01*
X50839Y-23942D01*
X50921Y-23971D01*
X50946Y-24000D01*
X51392Y-24542D02*
X51432Y-24228D01*
X51410Y-24171D01*
X51357Y-24142D01*
X51242Y-24142D01*
X51182Y-24171D01*
X51396Y-24514D02*
X51335Y-24542D01*
X51192Y-24542D01*
X51139Y-24514D01*
X51117Y-24457D01*
X51125Y-24400D01*
X51160Y-24342D01*
X51221Y-24314D01*
X51364Y-24314D01*
X51425Y-24285D01*
X51728Y-24142D02*
X51653Y-24742D01*
X51725Y-24171D02*
X51785Y-24142D01*
X51900Y-24142D01*
X51953Y-24171D01*
X51978Y-24200D01*
X52000Y-24257D01*
X51978Y-24428D01*
X51942Y-24485D01*
X51910Y-24514D01*
X51850Y-24542D01*
X51735Y-24542D01*
X51682Y-24514D01*
X52453Y-24514D02*
X52392Y-24542D01*
X52278Y-24542D01*
X52225Y-24514D01*
X52203Y-24457D01*
X52232Y-24228D01*
X52267Y-24171D01*
X52328Y-24142D01*
X52442Y-24142D01*
X52496Y-24171D01*
X52517Y-24228D01*
X52510Y-24285D01*
X52217Y-24342D01*
X52764Y-24314D02*
X53221Y-24314D01*
X53821Y-24542D02*
X53657Y-24257D01*
X53478Y-24542D02*
X53553Y-23942D01*
X53782Y-23942D01*
X53835Y-23971D01*
X53860Y-24000D01*
X53882Y-24057D01*
X53871Y-24142D01*
X53835Y-24200D01*
X53803Y-24228D01*
X53742Y-24257D01*
X53514Y-24257D01*
X54071Y-24371D02*
X54357Y-24371D01*
X53992Y-24542D02*
X54267Y-23942D01*
X54392Y-24542D01*
X54592Y-24542D02*
X54667Y-23942D01*
X54814Y-24371D01*
X55067Y-23942D01*
X54992Y-24542D01*
X55278Y-24542D02*
X55353Y-23942D01*
X55582Y-23942D01*
X55635Y-23971D01*
X55660Y-24000D01*
X55682Y-24057D01*
X55671Y-24142D01*
X55635Y-24200D01*
X55603Y-24228D01*
X55542Y-24257D01*
X55314Y-24257D01*
X55853Y-24514D02*
X55935Y-24542D01*
X56078Y-24542D01*
X56139Y-24514D01*
X56171Y-24485D01*
X56207Y-24428D01*
X56214Y-24371D01*
X56192Y-24314D01*
X56167Y-24285D01*
X56114Y-24257D01*
X56003Y-24228D01*
X55950Y-24200D01*
X55925Y-24171D01*
X55903Y-24114D01*
X55910Y-24057D01*
X55946Y-24000D01*
X55978Y-23971D01*
X56039Y-23942D01*
X56182Y-23942D01*
X56264Y-23971D01*
X56871Y-24142D02*
X57100Y-24142D01*
X56907Y-24542D02*
X56971Y-24028D01*
X57007Y-23971D01*
X57067Y-23942D01*
X57125Y-23942D01*
X57335Y-24542D02*
X57282Y-24514D01*
X57257Y-24485D01*
X57235Y-24428D01*
X57257Y-24257D01*
X57292Y-24200D01*
X57325Y-24171D01*
X57385Y-24142D01*
X57471Y-24142D01*
X57525Y-24171D01*
X57550Y-24200D01*
X57571Y-24257D01*
X57550Y-24428D01*
X57514Y-24485D01*
X57482Y-24514D01*
X57421Y-24542D01*
X57335Y-24542D01*
X57792Y-24542D02*
X57842Y-24142D01*
X57828Y-24257D02*
X57864Y-24200D01*
X57896Y-24171D01*
X57957Y-24142D01*
X58014Y-24142D01*
X58860Y-24228D02*
X58942Y-24257D01*
X58967Y-24285D01*
X58989Y-24342D01*
X58978Y-24428D01*
X58942Y-24485D01*
X58910Y-24514D01*
X58850Y-24542D01*
X58621Y-24542D01*
X58696Y-23942D01*
X58896Y-23942D01*
X58950Y-23971D01*
X58975Y-24000D01*
X58996Y-24057D01*
X58989Y-24114D01*
X58953Y-24171D01*
X58921Y-24200D01*
X58860Y-24228D01*
X58660Y-24228D01*
X59453Y-24514D02*
X59392Y-24542D01*
X59278Y-24542D01*
X59225Y-24514D01*
X59203Y-24457D01*
X59232Y-24228D01*
X59267Y-24171D01*
X59328Y-24142D01*
X59442Y-24142D01*
X59496Y-24171D01*
X59517Y-24228D01*
X59510Y-24285D01*
X59217Y-24342D01*
X59992Y-24542D02*
X60032Y-24228D01*
X60010Y-24171D01*
X59957Y-24142D01*
X59842Y-24142D01*
X59782Y-24171D01*
X59996Y-24514D02*
X59935Y-24542D01*
X59792Y-24542D01*
X59739Y-24514D01*
X59717Y-24457D01*
X59725Y-24400D01*
X59760Y-24342D01*
X59821Y-24314D01*
X59964Y-24314D01*
X60025Y-24285D01*
X60585Y-24142D02*
X60525Y-24628D01*
X60489Y-24685D01*
X60457Y-24714D01*
X60396Y-24742D01*
X60310Y-24742D01*
X60257Y-24714D01*
X60539Y-24514D02*
X60478Y-24542D01*
X60364Y-24542D01*
X60310Y-24514D01*
X60285Y-24485D01*
X60264Y-24428D01*
X60285Y-24257D01*
X60321Y-24200D01*
X60353Y-24171D01*
X60414Y-24142D01*
X60528Y-24142D01*
X60582Y-24171D01*
X60907Y-24542D02*
X60853Y-24514D01*
X60832Y-24457D01*
X60896Y-23942D01*
X61367Y-24514D02*
X61307Y-24542D01*
X61192Y-24542D01*
X61139Y-24514D01*
X61117Y-24457D01*
X61146Y-24228D01*
X61182Y-24171D01*
X61242Y-24142D01*
X61357Y-24142D01*
X61410Y-24171D01*
X61432Y-24228D01*
X61425Y-24285D01*
X61132Y-24342D01*
X61889Y-24228D02*
X61971Y-24257D01*
X61996Y-24285D01*
X62017Y-24342D01*
X62007Y-24428D01*
X61971Y-24485D01*
X61939Y-24514D01*
X61878Y-24542D01*
X61650Y-24542D01*
X61725Y-23942D01*
X61925Y-23942D01*
X61978Y-23971D01*
X62003Y-24000D01*
X62025Y-24057D01*
X62017Y-24114D01*
X61982Y-24171D01*
X61950Y-24200D01*
X61889Y-24228D01*
X61689Y-24228D01*
X62335Y-24542D02*
X62282Y-24514D01*
X62257Y-24485D01*
X62235Y-24428D01*
X62257Y-24257D01*
X62292Y-24200D01*
X62325Y-24171D01*
X62385Y-24142D01*
X62471Y-24142D01*
X62525Y-24171D01*
X62550Y-24200D01*
X62571Y-24257D01*
X62550Y-24428D01*
X62514Y-24485D01*
X62482Y-24514D01*
X62421Y-24542D01*
X62335Y-24542D01*
X62842Y-24142D02*
X62792Y-24542D01*
X62835Y-24200D02*
X62867Y-24171D01*
X62928Y-24142D01*
X63014Y-24142D01*
X63067Y-24171D01*
X63089Y-24228D01*
X63050Y-24542D01*
X63567Y-24514D02*
X63507Y-24542D01*
X63392Y-24542D01*
X63339Y-24514D01*
X63317Y-24457D01*
X63346Y-24228D01*
X63382Y-24171D01*
X63442Y-24142D01*
X63557Y-24142D01*
X63610Y-24171D01*
X63632Y-24228D01*
X63625Y-24285D01*
X63332Y-24342D01*
X63764Y-24771D02*
X63796Y-24742D01*
X63864Y-24657D01*
X63900Y-24600D01*
X63939Y-24514D01*
X63985Y-24371D01*
X64000Y-24257D01*
X63989Y-24114D01*
X63971Y-24028D01*
X63950Y-23971D01*
X63903Y-23885D01*
X63878Y-23857D01*
X43642Y-21828D02*
X43442Y-21828D01*
X43442Y-22142D02*
X43442Y-21542D01*
X43728Y-21542D01*
X43957Y-22142D02*
X43957Y-21742D01*
X43957Y-21542D02*
X43928Y-21571D01*
X43957Y-21600D01*
X43985Y-21571D01*
X43957Y-21542D01*
X43957Y-21600D01*
X44328Y-22142D02*
X44271Y-22114D01*
X44242Y-22057D01*
X44242Y-21542D01*
X44785Y-22114D02*
X44728Y-22142D01*
X44614Y-22142D01*
X44557Y-22114D01*
X44528Y-22057D01*
X44528Y-21828D01*
X44557Y-21771D01*
X44614Y-21742D01*
X44728Y-21742D01*
X44785Y-21771D01*
X44814Y-21828D01*
X44814Y-21885D01*
X44528Y-21942D01*
X45071Y-22085D02*
X45100Y-22114D01*
X45071Y-22142D01*
X45042Y-22114D01*
X45071Y-22085D01*
X45071Y-22142D01*
X45071Y-21771D02*
X45100Y-21800D01*
X45071Y-21828D01*
X45042Y-21800D01*
X45071Y-21771D01*
X45071Y-21828D01*
X46157Y-22085D02*
X46128Y-22114D01*
X46042Y-22142D01*
X45985Y-22142D01*
X45900Y-22114D01*
X45842Y-22057D01*
X45814Y-22000D01*
X45785Y-21885D01*
X45785Y-21800D01*
X45814Y-21685D01*
X45842Y-21628D01*
X45900Y-21571D01*
X45985Y-21542D01*
X46042Y-21542D01*
X46128Y-21571D01*
X46157Y-21600D01*
X46757Y-22142D02*
X46557Y-21857D01*
X46414Y-22142D02*
X46414Y-21542D01*
X46642Y-21542D01*
X46700Y-21571D01*
X46728Y-21600D01*
X46757Y-21657D01*
X46757Y-21742D01*
X46728Y-21800D01*
X46700Y-21828D01*
X46642Y-21857D01*
X46414Y-21857D01*
X46985Y-21971D02*
X47271Y-21971D01*
X46928Y-22142D02*
X47128Y-21542D01*
X47328Y-22142D01*
X47528Y-22142D02*
X47528Y-21542D01*
X47728Y-21971D01*
X47928Y-21542D01*
X47928Y-22142D01*
X48214Y-22142D02*
X48214Y-21542D01*
X48442Y-21542D01*
X48500Y-21571D01*
X48528Y-21600D01*
X48557Y-21657D01*
X48557Y-21742D01*
X48528Y-21800D01*
X48500Y-21828D01*
X48442Y-21857D01*
X48214Y-21857D01*
X48785Y-22114D02*
X48871Y-22142D01*
X49014Y-22142D01*
X49071Y-22114D01*
X49100Y-22085D01*
X49128Y-22028D01*
X49128Y-21971D01*
X49100Y-21914D01*
X49071Y-21885D01*
X49014Y-21857D01*
X48900Y-21828D01*
X48842Y-21800D01*
X48814Y-21771D01*
X48785Y-21714D01*
X48785Y-21657D01*
X48814Y-21600D01*
X48842Y-21571D01*
X48900Y-21542D01*
X49042Y-21542D01*
X49128Y-21571D01*
X49385Y-22085D02*
X49414Y-22114D01*
X49385Y-22142D01*
X49357Y-22114D01*
X49385Y-22085D01*
X49385Y-22142D01*
X49671Y-22142D02*
X49671Y-21742D01*
X49671Y-21857D02*
X49700Y-21800D01*
X49728Y-21771D01*
X49785Y-21742D01*
X49842Y-21742D01*
X50128Y-22142D02*
X50071Y-22114D01*
X50042Y-22085D01*
X50014Y-22028D01*
X50014Y-21857D01*
X50042Y-21800D01*
X50071Y-21771D01*
X50128Y-21742D01*
X50214Y-21742D01*
X50271Y-21771D01*
X50300Y-21800D01*
X50328Y-21857D01*
X50328Y-22028D01*
X50300Y-22085D01*
X50271Y-22114D01*
X50214Y-22142D01*
X50128Y-22142D01*
X50842Y-21742D02*
X50842Y-22142D01*
X50585Y-21742D02*
X50585Y-22057D01*
X50614Y-22114D01*
X50671Y-22142D01*
X50757Y-22142D01*
X50814Y-22114D01*
X50842Y-22085D01*
X51042Y-21742D02*
X51271Y-21742D01*
X51128Y-21542D02*
X51128Y-22057D01*
X51157Y-22114D01*
X51214Y-22142D01*
X51271Y-22142D01*
X51700Y-22114D02*
X51642Y-22142D01*
X51528Y-22142D01*
X51471Y-22114D01*
X51442Y-22057D01*
X51442Y-21828D01*
X51471Y-21771D01*
X51528Y-21742D01*
X51642Y-21742D01*
X51700Y-21771D01*
X51728Y-21828D01*
X51728Y-21885D01*
X51442Y-21942D01*
X52242Y-22142D02*
X52242Y-21542D01*
X52242Y-22114D02*
X52185Y-22142D01*
X52071Y-22142D01*
X52014Y-22114D01*
X51985Y-22085D01*
X51957Y-22028D01*
X51957Y-21857D01*
X51985Y-21800D01*
X52014Y-21771D01*
X52071Y-21742D01*
X52185Y-21742D01*
X52242Y-21771D01*
X52528Y-22085D02*
X52557Y-22114D01*
X52528Y-22142D01*
X52500Y-22114D01*
X52528Y-22085D01*
X52528Y-22142D01*
X52814Y-22142D02*
X52814Y-21542D01*
X52871Y-21914D02*
X53042Y-22142D01*
X53042Y-21742D02*
X52814Y-21971D01*
X53300Y-22142D02*
X53300Y-21742D01*
X53300Y-21542D02*
X53271Y-21571D01*
X53300Y-21600D01*
X53328Y-21571D01*
X53300Y-21542D01*
X53300Y-21600D01*
X53842Y-22114D02*
X53785Y-22142D01*
X53671Y-22142D01*
X53614Y-22114D01*
X53585Y-22085D01*
X53557Y-22028D01*
X53557Y-21857D01*
X53585Y-21800D01*
X53614Y-21771D01*
X53671Y-21742D01*
X53785Y-21742D01*
X53842Y-21771D01*
X54357Y-22142D02*
X54357Y-21828D01*
X54328Y-21771D01*
X54271Y-21742D01*
X54157Y-21742D01*
X54100Y-21771D01*
X54357Y-22114D02*
X54300Y-22142D01*
X54157Y-22142D01*
X54100Y-22114D01*
X54071Y-22057D01*
X54071Y-22000D01*
X54100Y-21942D01*
X54157Y-21914D01*
X54300Y-21914D01*
X54357Y-21885D01*
X54900Y-22142D02*
X54900Y-21542D01*
X54900Y-22114D02*
X54842Y-22142D01*
X54728Y-22142D01*
X54671Y-22114D01*
X54642Y-22085D01*
X54614Y-22028D01*
X54614Y-21857D01*
X54642Y-21800D01*
X54671Y-21771D01*
X54728Y-21742D01*
X54842Y-21742D01*
X54900Y-21771D01*
X55042Y-22200D02*
X55500Y-22200D01*
X55642Y-21742D02*
X55642Y-22342D01*
X55642Y-21771D02*
X55700Y-21742D01*
X55814Y-21742D01*
X55871Y-21771D01*
X55900Y-21800D01*
X55928Y-21857D01*
X55928Y-22028D01*
X55900Y-22085D01*
X55871Y-22114D01*
X55814Y-22142D01*
X55700Y-22142D01*
X55642Y-22114D01*
X56442Y-22114D02*
X56385Y-22142D01*
X56271Y-22142D01*
X56214Y-22114D01*
X56185Y-22085D01*
X56157Y-22028D01*
X56157Y-21857D01*
X56185Y-21800D01*
X56214Y-21771D01*
X56271Y-21742D01*
X56385Y-21742D01*
X56442Y-21771D01*
X56700Y-22142D02*
X56700Y-21542D01*
X56700Y-21771D02*
X56757Y-21742D01*
X56871Y-21742D01*
X56928Y-21771D01*
X56957Y-21800D01*
X56985Y-21857D01*
X56985Y-22028D01*
X56957Y-22085D01*
X56928Y-22114D01*
X56871Y-22142D01*
X56757Y-22142D01*
X56700Y-22114D01*
X43414Y-23314D02*
X43500Y-23342D01*
X43642Y-23342D01*
X43700Y-23314D01*
X43728Y-23285D01*
X43757Y-23228D01*
X43757Y-23171D01*
X43728Y-23114D01*
X43700Y-23085D01*
X43642Y-23057D01*
X43528Y-23028D01*
X43471Y-23000D01*
X43442Y-22971D01*
X43414Y-22914D01*
X43414Y-22857D01*
X43442Y-22800D01*
X43471Y-22771D01*
X43528Y-22742D01*
X43671Y-22742D01*
X43757Y-22771D01*
X44014Y-23342D02*
X44014Y-22742D01*
X44271Y-23342D02*
X44271Y-23028D01*
X44242Y-22971D01*
X44185Y-22942D01*
X44100Y-22942D01*
X44042Y-22971D01*
X44014Y-23000D01*
X44785Y-23314D02*
X44728Y-23342D01*
X44614Y-23342D01*
X44557Y-23314D01*
X44528Y-23257D01*
X44528Y-23028D01*
X44557Y-22971D01*
X44614Y-22942D01*
X44728Y-22942D01*
X44785Y-22971D01*
X44814Y-23028D01*
X44814Y-23085D01*
X44528Y-23142D01*
X45300Y-23314D02*
X45242Y-23342D01*
X45128Y-23342D01*
X45071Y-23314D01*
X45042Y-23257D01*
X45042Y-23028D01*
X45071Y-22971D01*
X45128Y-22942D01*
X45242Y-22942D01*
X45300Y-22971D01*
X45328Y-23028D01*
X45328Y-23085D01*
X45042Y-23142D01*
X45500Y-22942D02*
X45728Y-22942D01*
X45585Y-22742D02*
X45585Y-23257D01*
X45614Y-23314D01*
X45671Y-23342D01*
X45728Y-23342D01*
X45928Y-23285D02*
X45957Y-23314D01*
X45928Y-23342D01*
X45900Y-23314D01*
X45928Y-23285D01*
X45928Y-23342D01*
X45928Y-22971D02*
X45957Y-23000D01*
X45928Y-23028D01*
X45900Y-23000D01*
X45928Y-22971D01*
X45928Y-23028D01*
X43442Y-19742D02*
X43442Y-19142D01*
X43585Y-19142D01*
X43671Y-19171D01*
X43728Y-19228D01*
X43757Y-19285D01*
X43785Y-19400D01*
X43785Y-19485D01*
X43757Y-19600D01*
X43728Y-19657D01*
X43671Y-19714D01*
X43585Y-19742D01*
X43442Y-19742D01*
X44271Y-19714D02*
X44214Y-19742D01*
X44100Y-19742D01*
X44042Y-19714D01*
X44014Y-19657D01*
X44014Y-19428D01*
X44042Y-19371D01*
X44100Y-19342D01*
X44214Y-19342D01*
X44271Y-19371D01*
X44300Y-19428D01*
X44300Y-19485D01*
X44014Y-19542D01*
X44557Y-19742D02*
X44557Y-19342D01*
X44557Y-19457D02*
X44585Y-19400D01*
X44614Y-19371D01*
X44671Y-19342D01*
X44728Y-19342D01*
X44928Y-19742D02*
X44928Y-19342D01*
X44928Y-19142D02*
X44900Y-19171D01*
X44928Y-19200D01*
X44957Y-19171D01*
X44928Y-19142D01*
X44928Y-19200D01*
X45157Y-19342D02*
X45300Y-19742D01*
X45442Y-19342D01*
X45900Y-19714D02*
X45842Y-19742D01*
X45728Y-19742D01*
X45671Y-19714D01*
X45642Y-19657D01*
X45642Y-19428D01*
X45671Y-19371D01*
X45728Y-19342D01*
X45842Y-19342D01*
X45900Y-19371D01*
X45928Y-19428D01*
X45928Y-19485D01*
X45642Y-19542D01*
X46442Y-19742D02*
X46442Y-19142D01*
X46442Y-19714D02*
X46385Y-19742D01*
X46271Y-19742D01*
X46214Y-19714D01*
X46185Y-19685D01*
X46157Y-19628D01*
X46157Y-19457D01*
X46185Y-19400D01*
X46214Y-19371D01*
X46271Y-19342D01*
X46385Y-19342D01*
X46442Y-19371D01*
X47100Y-19342D02*
X47328Y-19342D01*
X47185Y-19742D02*
X47185Y-19228D01*
X47214Y-19171D01*
X47271Y-19142D01*
X47328Y-19142D01*
X47528Y-19742D02*
X47528Y-19342D01*
X47528Y-19457D02*
X47557Y-19400D01*
X47585Y-19371D01*
X47642Y-19342D01*
X47700Y-19342D01*
X47985Y-19742D02*
X47928Y-19714D01*
X47900Y-19685D01*
X47871Y-19628D01*
X47871Y-19457D01*
X47900Y-19400D01*
X47928Y-19371D01*
X47985Y-19342D01*
X48071Y-19342D01*
X48128Y-19371D01*
X48157Y-19400D01*
X48185Y-19457D01*
X48185Y-19628D01*
X48157Y-19685D01*
X48128Y-19714D01*
X48071Y-19742D01*
X47985Y-19742D01*
X48442Y-19742D02*
X48442Y-19342D01*
X48442Y-19400D02*
X48471Y-19371D01*
X48528Y-19342D01*
X48614Y-19342D01*
X48671Y-19371D01*
X48700Y-19428D01*
X48700Y-19742D01*
X48700Y-19428D02*
X48728Y-19371D01*
X48785Y-19342D01*
X48871Y-19342D01*
X48928Y-19371D01*
X48957Y-19428D01*
X48957Y-19742D01*
X50042Y-19742D02*
X49842Y-19457D01*
X49700Y-19742D02*
X49700Y-19142D01*
X49928Y-19142D01*
X49985Y-19171D01*
X50014Y-19200D01*
X50042Y-19257D01*
X50042Y-19342D01*
X50014Y-19400D01*
X49985Y-19428D01*
X49928Y-19457D01*
X49700Y-19457D01*
X50271Y-19571D02*
X50557Y-19571D01*
X50214Y-19742D02*
X50414Y-19142D01*
X50614Y-19742D01*
X50814Y-19742D02*
X50814Y-19142D01*
X51014Y-19571D01*
X51214Y-19142D01*
X51214Y-19742D01*
X51500Y-19742D02*
X51500Y-19142D01*
X51728Y-19142D01*
X51785Y-19171D01*
X51814Y-19200D01*
X51842Y-19257D01*
X51842Y-19342D01*
X51814Y-19400D01*
X51785Y-19428D01*
X51728Y-19457D01*
X51500Y-19457D01*
X52071Y-19714D02*
X52157Y-19742D01*
X52300Y-19742D01*
X52357Y-19714D01*
X52385Y-19685D01*
X52414Y-19628D01*
X52414Y-19571D01*
X52385Y-19514D01*
X52357Y-19485D01*
X52300Y-19457D01*
X52185Y-19428D01*
X52128Y-19400D01*
X52100Y-19371D01*
X52071Y-19314D01*
X52071Y-19257D01*
X52100Y-19200D01*
X52128Y-19171D01*
X52185Y-19142D01*
X52328Y-19142D01*
X52414Y-19171D01*
X53442Y-19742D02*
X53100Y-19742D01*
X53271Y-19742D02*
X53271Y-19142D01*
X53214Y-19228D01*
X53157Y-19285D01*
X53100Y-19314D01*
X53700Y-19685D02*
X53728Y-19714D01*
X53700Y-19742D01*
X53671Y-19714D01*
X53700Y-19685D01*
X53700Y-19742D01*
X54242Y-19342D02*
X54242Y-19742D01*
X54100Y-19114D02*
X53957Y-19542D01*
X54328Y-19542D01*
X55014Y-19742D02*
X55014Y-19342D01*
X55014Y-19457D02*
X55042Y-19400D01*
X55071Y-19371D01*
X55128Y-19342D01*
X55185Y-19342D01*
X55614Y-19714D02*
X55557Y-19742D01*
X55442Y-19742D01*
X55385Y-19714D01*
X55357Y-19657D01*
X55357Y-19428D01*
X55385Y-19371D01*
X55442Y-19342D01*
X55557Y-19342D01*
X55614Y-19371D01*
X55642Y-19428D01*
X55642Y-19485D01*
X55357Y-19542D01*
X55900Y-19342D02*
X55900Y-19942D01*
X55900Y-19371D02*
X55957Y-19342D01*
X56071Y-19342D01*
X56128Y-19371D01*
X56157Y-19400D01*
X56185Y-19457D01*
X56185Y-19628D01*
X56157Y-19685D01*
X56128Y-19714D01*
X56071Y-19742D01*
X55957Y-19742D01*
X55900Y-19714D01*
X56442Y-19742D02*
X56442Y-19342D01*
X56442Y-19457D02*
X56471Y-19400D01*
X56500Y-19371D01*
X56557Y-19342D01*
X56614Y-19342D01*
X57071Y-19742D02*
X57071Y-19428D01*
X57042Y-19371D01*
X56985Y-19342D01*
X56871Y-19342D01*
X56814Y-19371D01*
X57071Y-19714D02*
X57014Y-19742D01*
X56871Y-19742D01*
X56814Y-19714D01*
X56785Y-19657D01*
X56785Y-19600D01*
X56814Y-19542D01*
X56871Y-19514D01*
X57014Y-19514D01*
X57071Y-19485D01*
X57357Y-19342D02*
X57357Y-19942D01*
X57357Y-19371D02*
X57414Y-19342D01*
X57528Y-19342D01*
X57585Y-19371D01*
X57614Y-19400D01*
X57642Y-19457D01*
X57642Y-19628D01*
X57614Y-19685D01*
X57585Y-19714D01*
X57528Y-19742D01*
X57414Y-19742D01*
X57357Y-19714D01*
X57900Y-19685D02*
X57928Y-19714D01*
X57900Y-19742D01*
X57871Y-19714D01*
X57900Y-19685D01*
X57900Y-19742D01*
X58271Y-19742D02*
X58214Y-19714D01*
X58185Y-19685D01*
X58157Y-19628D01*
X58157Y-19457D01*
X58185Y-19400D01*
X58214Y-19371D01*
X58271Y-19342D01*
X58357Y-19342D01*
X58414Y-19371D01*
X58442Y-19400D01*
X58471Y-19457D01*
X58471Y-19628D01*
X58442Y-19685D01*
X58414Y-19714D01*
X58357Y-19742D01*
X58271Y-19742D01*
X58728Y-19742D02*
X58728Y-19342D01*
X58728Y-19457D02*
X58757Y-19400D01*
X58785Y-19371D01*
X58842Y-19342D01*
X58900Y-19342D01*
X59357Y-19342D02*
X59357Y-19828D01*
X59328Y-19885D01*
X59300Y-19914D01*
X59242Y-19942D01*
X59157Y-19942D01*
X59100Y-19914D01*
X59357Y-19714D02*
X59300Y-19742D01*
X59185Y-19742D01*
X59128Y-19714D01*
X59100Y-19685D01*
X59071Y-19628D01*
X59071Y-19457D01*
X59100Y-19400D01*
X59128Y-19371D01*
X59185Y-19342D01*
X59300Y-19342D01*
X59357Y-19371D01*
X60071Y-19114D02*
X59557Y-19885D01*
X60214Y-19342D02*
X60328Y-19742D01*
X60442Y-19457D01*
X60557Y-19742D01*
X60671Y-19342D01*
X60900Y-19742D02*
X60900Y-19342D01*
X60900Y-19142D02*
X60871Y-19171D01*
X60900Y-19200D01*
X60928Y-19171D01*
X60900Y-19142D01*
X60900Y-19200D01*
X61185Y-19742D02*
X61185Y-19142D01*
X61242Y-19514D02*
X61414Y-19742D01*
X61414Y-19342D02*
X61185Y-19571D01*
X61671Y-19742D02*
X61671Y-19342D01*
X61671Y-19142D02*
X61642Y-19171D01*
X61671Y-19200D01*
X61700Y-19171D01*
X61671Y-19142D01*
X61671Y-19200D01*
X62385Y-19114D02*
X61871Y-19885D01*
X62928Y-19742D02*
X62728Y-19457D01*
X62585Y-19742D02*
X62585Y-19142D01*
X62814Y-19142D01*
X62871Y-19171D01*
X62900Y-19200D01*
X62928Y-19257D01*
X62928Y-19342D01*
X62900Y-19400D01*
X62871Y-19428D01*
X62814Y-19457D01*
X62585Y-19457D01*
X63157Y-19571D02*
X63442Y-19571D01*
X63100Y-19742D02*
X63300Y-19142D01*
X63500Y-19742D01*
X63700Y-19742D02*
X63700Y-19142D01*
X63900Y-19571D01*
X64100Y-19142D01*
X64100Y-19742D01*
X64385Y-19742D02*
X64385Y-19142D01*
X64614Y-19142D01*
X64671Y-19171D01*
X64700Y-19200D01*
X64728Y-19257D01*
X64728Y-19342D01*
X64700Y-19400D01*
X64671Y-19428D01*
X64614Y-19457D01*
X64385Y-19457D01*
X64957Y-19714D02*
X65042Y-19742D01*
X65185Y-19742D01*
X65242Y-19714D01*
X65271Y-19685D01*
X65300Y-19628D01*
X65300Y-19571D01*
X65271Y-19514D01*
X65242Y-19485D01*
X65185Y-19457D01*
X65071Y-19428D01*
X65014Y-19400D01*
X64985Y-19371D01*
X64957Y-19314D01*
X64957Y-19257D01*
X64985Y-19200D01*
X65014Y-19171D01*
X65071Y-19142D01*
X65214Y-19142D01*
X65300Y-19171D01*
X65871Y-19742D02*
X65528Y-19742D01*
X65700Y-19742D02*
X65700Y-19142D01*
X65642Y-19228D01*
X65585Y-19285D01*
X65528Y-19314D01*
X66128Y-19685D02*
X66157Y-19714D01*
X66128Y-19742D01*
X66100Y-19714D01*
X66128Y-19685D01*
X66128Y-19742D01*
X66671Y-19342D02*
X66671Y-19742D01*
X66528Y-19114D02*
X66385Y-19542D01*
X66757Y-19542D01*
X43442Y-18542D02*
X43442Y-17942D01*
X43585Y-17942D01*
X43671Y-17971D01*
X43728Y-18028D01*
X43757Y-18085D01*
X43785Y-18200D01*
X43785Y-18285D01*
X43757Y-18400D01*
X43728Y-18457D01*
X43671Y-18514D01*
X43585Y-18542D01*
X43442Y-18542D01*
X44271Y-18514D02*
X44214Y-18542D01*
X44100Y-18542D01*
X44042Y-18514D01*
X44014Y-18457D01*
X44014Y-18228D01*
X44042Y-18171D01*
X44100Y-18142D01*
X44214Y-18142D01*
X44271Y-18171D01*
X44300Y-18228D01*
X44300Y-18285D01*
X44014Y-18342D01*
X44557Y-18542D02*
X44557Y-18142D01*
X44557Y-18257D02*
X44585Y-18200D01*
X44614Y-18171D01*
X44671Y-18142D01*
X44728Y-18142D01*
X44928Y-18542D02*
X44928Y-18142D01*
X44928Y-17942D02*
X44900Y-17971D01*
X44928Y-18000D01*
X44957Y-17971D01*
X44928Y-17942D01*
X44928Y-18000D01*
X45157Y-18142D02*
X45300Y-18542D01*
X45442Y-18142D01*
X45900Y-18514D02*
X45842Y-18542D01*
X45728Y-18542D01*
X45671Y-18514D01*
X45642Y-18457D01*
X45642Y-18228D01*
X45671Y-18171D01*
X45728Y-18142D01*
X45842Y-18142D01*
X45900Y-18171D01*
X45928Y-18228D01*
X45928Y-18285D01*
X45642Y-18342D01*
X46442Y-18542D02*
X46442Y-17942D01*
X46442Y-18514D02*
X46385Y-18542D01*
X46271Y-18542D01*
X46214Y-18514D01*
X46185Y-18485D01*
X46157Y-18428D01*
X46157Y-18257D01*
X46185Y-18200D01*
X46214Y-18171D01*
X46271Y-18142D01*
X46385Y-18142D01*
X46442Y-18171D01*
X47100Y-18142D02*
X47328Y-18142D01*
X47185Y-18542D02*
X47185Y-18028D01*
X47214Y-17971D01*
X47271Y-17942D01*
X47328Y-17942D01*
X47528Y-18542D02*
X47528Y-18142D01*
X47528Y-18257D02*
X47557Y-18200D01*
X47585Y-18171D01*
X47642Y-18142D01*
X47700Y-18142D01*
X47985Y-18542D02*
X47928Y-18514D01*
X47900Y-18485D01*
X47871Y-18428D01*
X47871Y-18257D01*
X47900Y-18200D01*
X47928Y-18171D01*
X47985Y-18142D01*
X48071Y-18142D01*
X48128Y-18171D01*
X48157Y-18200D01*
X48185Y-18257D01*
X48185Y-18428D01*
X48157Y-18485D01*
X48128Y-18514D01*
X48071Y-18542D01*
X47985Y-18542D01*
X48442Y-18542D02*
X48442Y-18142D01*
X48442Y-18200D02*
X48471Y-18171D01*
X48528Y-18142D01*
X48614Y-18142D01*
X48671Y-18171D01*
X48700Y-18228D01*
X48700Y-18542D01*
X48700Y-18228D02*
X48728Y-18171D01*
X48785Y-18142D01*
X48871Y-18142D01*
X48928Y-18171D01*
X48957Y-18228D01*
X48957Y-18542D01*
X50042Y-18542D02*
X49842Y-18257D01*
X49700Y-18542D02*
X49700Y-17942D01*
X49928Y-17942D01*
X49985Y-17971D01*
X50014Y-18000D01*
X50042Y-18057D01*
X50042Y-18142D01*
X50014Y-18200D01*
X49985Y-18228D01*
X49928Y-18257D01*
X49700Y-18257D01*
X50271Y-18371D02*
X50557Y-18371D01*
X50214Y-18542D02*
X50414Y-17942D01*
X50614Y-18542D01*
X50814Y-18542D02*
X50814Y-17942D01*
X51014Y-18371D01*
X51214Y-17942D01*
X51214Y-18542D01*
X51500Y-18542D02*
X51500Y-17942D01*
X51728Y-17942D01*
X51785Y-17971D01*
X51814Y-18000D01*
X51842Y-18057D01*
X51842Y-18142D01*
X51814Y-18200D01*
X51785Y-18228D01*
X51728Y-18257D01*
X51500Y-18257D01*
X52071Y-18514D02*
X52157Y-18542D01*
X52300Y-18542D01*
X52357Y-18514D01*
X52385Y-18485D01*
X52414Y-18428D01*
X52414Y-18371D01*
X52385Y-18314D01*
X52357Y-18285D01*
X52300Y-18257D01*
X52185Y-18228D01*
X52128Y-18200D01*
X52100Y-18171D01*
X52071Y-18114D01*
X52071Y-18057D01*
X52100Y-18000D01*
X52128Y-17971D01*
X52185Y-17942D01*
X52328Y-17942D01*
X52414Y-17971D01*
X52671Y-18314D02*
X53128Y-18314D01*
X53614Y-18228D02*
X53414Y-18228D01*
X53414Y-18542D02*
X53414Y-17942D01*
X53700Y-17942D01*
X53928Y-18542D02*
X53928Y-17942D01*
X54071Y-17942D01*
X54157Y-17971D01*
X54214Y-18028D01*
X54242Y-18085D01*
X54271Y-18200D01*
X54271Y-18285D01*
X54242Y-18400D01*
X54214Y-18457D01*
X54157Y-18514D01*
X54071Y-18542D01*
X53928Y-18542D01*
X54985Y-18542D02*
X54985Y-17942D01*
X54985Y-18171D02*
X55042Y-18142D01*
X55157Y-18142D01*
X55214Y-18171D01*
X55242Y-18200D01*
X55271Y-18257D01*
X55271Y-18428D01*
X55242Y-18485D01*
X55214Y-18514D01*
X55157Y-18542D01*
X55042Y-18542D01*
X54985Y-18514D01*
X55471Y-18142D02*
X55614Y-18542D01*
X55757Y-18142D02*
X55614Y-18542D01*
X55557Y-18685D01*
X55528Y-18714D01*
X55471Y-18742D01*
X56642Y-18228D02*
X56728Y-18257D01*
X56757Y-18285D01*
X56785Y-18342D01*
X56785Y-18428D01*
X56757Y-18485D01*
X56728Y-18514D01*
X56671Y-18542D01*
X56442Y-18542D01*
X56442Y-17942D01*
X56642Y-17942D01*
X56700Y-17971D01*
X56728Y-18000D01*
X56757Y-18057D01*
X56757Y-18114D01*
X56728Y-18171D01*
X56700Y-18200D01*
X56642Y-18228D01*
X56442Y-18228D01*
X57128Y-18542D02*
X57071Y-18514D01*
X57042Y-18485D01*
X57014Y-18428D01*
X57014Y-18257D01*
X57042Y-18200D01*
X57071Y-18171D01*
X57128Y-18142D01*
X57214Y-18142D01*
X57271Y-18171D01*
X57300Y-18200D01*
X57328Y-18257D01*
X57328Y-18428D01*
X57300Y-18485D01*
X57271Y-18514D01*
X57214Y-18542D01*
X57128Y-18542D01*
X57585Y-18542D02*
X57585Y-17942D01*
X57585Y-18171D02*
X57642Y-18142D01*
X57757Y-18142D01*
X57814Y-18171D01*
X57842Y-18200D01*
X57871Y-18257D01*
X57871Y-18428D01*
X57842Y-18485D01*
X57814Y-18514D01*
X57757Y-18542D01*
X57642Y-18542D01*
X57585Y-18514D01*
X58928Y-18485D02*
X58900Y-18514D01*
X58814Y-18542D01*
X58757Y-18542D01*
X58671Y-18514D01*
X58614Y-18457D01*
X58585Y-18400D01*
X58557Y-18285D01*
X58557Y-18200D01*
X58585Y-18085D01*
X58614Y-18028D01*
X58671Y-17971D01*
X58757Y-17942D01*
X58814Y-17942D01*
X58900Y-17971D01*
X58928Y-18000D01*
X59271Y-18542D02*
X59214Y-18514D01*
X59185Y-18485D01*
X59157Y-18428D01*
X59157Y-18257D01*
X59185Y-18200D01*
X59214Y-18171D01*
X59271Y-18142D01*
X59357Y-18142D01*
X59414Y-18171D01*
X59442Y-18200D01*
X59471Y-18257D01*
X59471Y-18428D01*
X59442Y-18485D01*
X59414Y-18514D01*
X59357Y-18542D01*
X59271Y-18542D01*
X59985Y-18142D02*
X59985Y-18542D01*
X59728Y-18142D02*
X59728Y-18457D01*
X59757Y-18514D01*
X59814Y-18542D01*
X59900Y-18542D01*
X59957Y-18514D01*
X59985Y-18485D01*
X60242Y-18514D02*
X60300Y-18542D01*
X60414Y-18542D01*
X60471Y-18514D01*
X60500Y-18457D01*
X60500Y-18428D01*
X60471Y-18371D01*
X60414Y-18342D01*
X60328Y-18342D01*
X60271Y-18314D01*
X60242Y-18257D01*
X60242Y-18228D01*
X60271Y-18171D01*
X60328Y-18142D01*
X60414Y-18142D01*
X60471Y-18171D01*
X60757Y-18542D02*
X60757Y-18142D01*
X60757Y-17942D02*
X60728Y-17971D01*
X60757Y-18000D01*
X60785Y-17971D01*
X60757Y-17942D01*
X60757Y-18000D01*
X61042Y-18142D02*
X61042Y-18542D01*
X61042Y-18200D02*
X61071Y-18171D01*
X61128Y-18142D01*
X61214Y-18142D01*
X61271Y-18171D01*
X61300Y-18228D01*
X61300Y-18542D01*
X61557Y-18514D02*
X61614Y-18542D01*
X61728Y-18542D01*
X61785Y-18514D01*
X61814Y-18457D01*
X61814Y-18428D01*
X61785Y-18371D01*
X61728Y-18342D01*
X61642Y-18342D01*
X61585Y-18314D01*
X61557Y-18257D01*
X61557Y-18228D01*
X61585Y-18171D01*
X61642Y-18142D01*
X61728Y-18142D01*
X61785Y-18171D01*
X43785Y-17285D02*
X43757Y-17314D01*
X43671Y-17342D01*
X43614Y-17342D01*
X43528Y-17314D01*
X43471Y-17257D01*
X43442Y-17200D01*
X43414Y-17085D01*
X43414Y-17000D01*
X43442Y-16885D01*
X43471Y-16828D01*
X43528Y-16771D01*
X43614Y-16742D01*
X43671Y-16742D01*
X43757Y-16771D01*
X43785Y-16800D01*
X44128Y-17342D02*
X44071Y-17314D01*
X44042Y-17285D01*
X44014Y-17228D01*
X44014Y-17057D01*
X44042Y-17000D01*
X44071Y-16971D01*
X44128Y-16942D01*
X44214Y-16942D01*
X44271Y-16971D01*
X44300Y-17000D01*
X44328Y-17057D01*
X44328Y-17228D01*
X44300Y-17285D01*
X44271Y-17314D01*
X44214Y-17342D01*
X44128Y-17342D01*
X44585Y-16942D02*
X44585Y-17542D01*
X44585Y-16971D02*
X44642Y-16942D01*
X44757Y-16942D01*
X44814Y-16971D01*
X44842Y-17000D01*
X44871Y-17057D01*
X44871Y-17228D01*
X44842Y-17285D01*
X44814Y-17314D01*
X44757Y-17342D01*
X44642Y-17342D01*
X44585Y-17314D01*
X45071Y-16942D02*
X45214Y-17342D01*
X45357Y-16942D02*
X45214Y-17342D01*
X45157Y-17485D01*
X45128Y-17514D01*
X45071Y-17542D01*
X45585Y-17342D02*
X45585Y-16942D01*
X45585Y-17057D02*
X45614Y-17000D01*
X45642Y-16971D01*
X45700Y-16942D01*
X45757Y-16942D01*
X45957Y-17342D02*
X45957Y-16942D01*
X45957Y-16742D02*
X45928Y-16771D01*
X45957Y-16800D01*
X45985Y-16771D01*
X45957Y-16742D01*
X45957Y-16800D01*
X46500Y-16942D02*
X46500Y-17428D01*
X46471Y-17485D01*
X46442Y-17514D01*
X46385Y-17542D01*
X46300Y-17542D01*
X46242Y-17514D01*
X46500Y-17314D02*
X46442Y-17342D01*
X46328Y-17342D01*
X46271Y-17314D01*
X46242Y-17285D01*
X46214Y-17228D01*
X46214Y-17057D01*
X46242Y-17000D01*
X46271Y-16971D01*
X46328Y-16942D01*
X46442Y-16942D01*
X46500Y-16971D01*
X46785Y-17342D02*
X46785Y-16742D01*
X47042Y-17342D02*
X47042Y-17028D01*
X47014Y-16971D01*
X46957Y-16942D01*
X46871Y-16942D01*
X46814Y-16971D01*
X46785Y-17000D01*
X47242Y-16942D02*
X47471Y-16942D01*
X47328Y-16742D02*
X47328Y-17257D01*
X47357Y-17314D01*
X47414Y-17342D01*
X47471Y-17342D01*
X48100Y-16800D02*
X48128Y-16771D01*
X48185Y-16742D01*
X48328Y-16742D01*
X48385Y-16771D01*
X48414Y-16800D01*
X48442Y-16857D01*
X48442Y-16914D01*
X48414Y-17000D01*
X48071Y-17342D01*
X48442Y-17342D01*
X48814Y-16742D02*
X48871Y-16742D01*
X48928Y-16771D01*
X48957Y-16800D01*
X48985Y-16857D01*
X49014Y-16971D01*
X49014Y-17114D01*
X48985Y-17228D01*
X48957Y-17285D01*
X48928Y-17314D01*
X48871Y-17342D01*
X48814Y-17342D01*
X48757Y-17314D01*
X48728Y-17285D01*
X48700Y-17228D01*
X48671Y-17114D01*
X48671Y-16971D01*
X48700Y-16857D01*
X48728Y-16800D01*
X48757Y-16771D01*
X48814Y-16742D01*
X49585Y-17342D02*
X49242Y-17342D01*
X49414Y-17342D02*
X49414Y-16742D01*
X49357Y-16828D01*
X49300Y-16885D01*
X49242Y-16914D01*
X50100Y-16942D02*
X50100Y-17342D01*
X49957Y-16714D02*
X49814Y-17142D01*
X50185Y-17142D01*
X51185Y-16771D02*
X51128Y-16742D01*
X51042Y-16742D01*
X50957Y-16771D01*
X50900Y-16828D01*
X50871Y-16885D01*
X50842Y-17000D01*
X50842Y-17085D01*
X50871Y-17200D01*
X50900Y-17257D01*
X50957Y-17314D01*
X51042Y-17342D01*
X51100Y-17342D01*
X51185Y-17314D01*
X51214Y-17285D01*
X51214Y-17085D01*
X51100Y-17085D01*
X51471Y-17342D02*
X51471Y-16742D01*
X51700Y-16742D01*
X51757Y-16771D01*
X51785Y-16800D01*
X51814Y-16857D01*
X51814Y-16942D01*
X51785Y-17000D01*
X51757Y-17028D01*
X51700Y-17057D01*
X51471Y-17057D01*
X52357Y-17342D02*
X52071Y-17342D01*
X52071Y-16742D01*
X52957Y-16942D02*
X53100Y-17342D01*
X53242Y-16942D01*
X53414Y-16742D02*
X53785Y-16742D01*
X53585Y-16971D01*
X53671Y-16971D01*
X53728Y-17000D01*
X53757Y-17028D01*
X53785Y-17085D01*
X53785Y-17228D01*
X53757Y-17285D01*
X53728Y-17314D01*
X53671Y-17342D01*
X53500Y-17342D01*
X53442Y-17314D01*
X53414Y-17285D01*
X43785Y-16085D02*
X43757Y-16114D01*
X43671Y-16142D01*
X43614Y-16142D01*
X43528Y-16114D01*
X43471Y-16057D01*
X43442Y-16000D01*
X43414Y-15885D01*
X43414Y-15800D01*
X43442Y-15685D01*
X43471Y-15628D01*
X43528Y-15571D01*
X43614Y-15542D01*
X43671Y-15542D01*
X43757Y-15571D01*
X43785Y-15600D01*
X44385Y-16142D02*
X44185Y-15857D01*
X44042Y-16142D02*
X44042Y-15542D01*
X44271Y-15542D01*
X44328Y-15571D01*
X44357Y-15600D01*
X44385Y-15657D01*
X44385Y-15742D01*
X44357Y-15800D01*
X44328Y-15828D01*
X44271Y-15857D01*
X44042Y-15857D01*
X44614Y-15971D02*
X44900Y-15971D01*
X44557Y-16142D02*
X44757Y-15542D01*
X44957Y-16142D01*
X45157Y-16142D02*
X45157Y-15542D01*
X45357Y-15971D01*
X45557Y-15542D01*
X45557Y-16142D01*
X45842Y-16142D02*
X45842Y-15542D01*
X46071Y-15542D01*
X46128Y-15571D01*
X46157Y-15600D01*
X46185Y-15657D01*
X46185Y-15742D01*
X46157Y-15800D01*
X46128Y-15828D01*
X46071Y-15857D01*
X45842Y-15857D01*
X46414Y-16114D02*
X46500Y-16142D01*
X46642Y-16142D01*
X46700Y-16114D01*
X46728Y-16085D01*
X46757Y-16028D01*
X46757Y-15971D01*
X46728Y-15914D01*
X46700Y-15885D01*
X46642Y-15857D01*
X46528Y-15828D01*
X46471Y-15800D01*
X46442Y-15771D01*
X46414Y-15714D01*
X46414Y-15657D01*
X46442Y-15600D01*
X46471Y-15571D01*
X46528Y-15542D01*
X46671Y-15542D01*
X46757Y-15571D01*
X47471Y-16142D02*
X47471Y-15542D01*
X47471Y-15771D02*
X47528Y-15742D01*
X47642Y-15742D01*
X47700Y-15771D01*
X47728Y-15800D01*
X47757Y-15857D01*
X47757Y-16028D01*
X47728Y-16085D01*
X47700Y-16114D01*
X47642Y-16142D01*
X47528Y-16142D01*
X47471Y-16114D01*
X47957Y-15742D02*
X48100Y-16142D01*
X48242Y-15742D02*
X48100Y-16142D01*
X48042Y-16285D01*
X48014Y-16314D01*
X47957Y-16342D01*
X49271Y-16085D02*
X49242Y-16114D01*
X49157Y-16142D01*
X49100Y-16142D01*
X49014Y-16114D01*
X48957Y-16057D01*
X48928Y-16000D01*
X48900Y-15885D01*
X48900Y-15800D01*
X48928Y-15685D01*
X48957Y-15628D01*
X49014Y-15571D01*
X49100Y-15542D01*
X49157Y-15542D01*
X49242Y-15571D01*
X49271Y-15600D01*
X49528Y-16142D02*
X49528Y-15542D01*
X49785Y-16142D02*
X49785Y-15828D01*
X49757Y-15771D01*
X49700Y-15742D01*
X49614Y-15742D01*
X49557Y-15771D01*
X49528Y-15800D01*
X50328Y-16142D02*
X50328Y-15828D01*
X50300Y-15771D01*
X50242Y-15742D01*
X50128Y-15742D01*
X50071Y-15771D01*
X50328Y-16114D02*
X50271Y-16142D01*
X50128Y-16142D01*
X50071Y-16114D01*
X50042Y-16057D01*
X50042Y-16000D01*
X50071Y-15942D01*
X50128Y-15914D01*
X50271Y-15914D01*
X50328Y-15885D01*
X50614Y-16142D02*
X50614Y-15742D01*
X50614Y-15857D02*
X50642Y-15800D01*
X50671Y-15771D01*
X50728Y-15742D01*
X50785Y-15742D01*
X51071Y-16142D02*
X51014Y-16114D01*
X50985Y-16057D01*
X50985Y-15542D01*
X51528Y-16114D02*
X51471Y-16142D01*
X51357Y-16142D01*
X51300Y-16114D01*
X51271Y-16057D01*
X51271Y-15828D01*
X51300Y-15771D01*
X51357Y-15742D01*
X51471Y-15742D01*
X51528Y-15771D01*
X51557Y-15828D01*
X51557Y-15885D01*
X51271Y-15942D01*
X51785Y-16114D02*
X51842Y-16142D01*
X51957Y-16142D01*
X52014Y-16114D01*
X52042Y-16057D01*
X52042Y-16028D01*
X52014Y-15971D01*
X51957Y-15942D01*
X51871Y-15942D01*
X51814Y-15914D01*
X51785Y-15857D01*
X51785Y-15828D01*
X51814Y-15771D01*
X51871Y-15742D01*
X51957Y-15742D01*
X52014Y-15771D01*
X52728Y-16114D02*
X52814Y-16142D01*
X52957Y-16142D01*
X53014Y-16114D01*
X53042Y-16085D01*
X53071Y-16028D01*
X53071Y-15971D01*
X53042Y-15914D01*
X53014Y-15885D01*
X52957Y-15857D01*
X52842Y-15828D01*
X52785Y-15800D01*
X52757Y-15771D01*
X52728Y-15714D01*
X52728Y-15657D01*
X52757Y-15600D01*
X52785Y-15571D01*
X52842Y-15542D01*
X52985Y-15542D01*
X53071Y-15571D01*
X53242Y-15742D02*
X53471Y-15742D01*
X53328Y-15542D02*
X53328Y-16057D01*
X53357Y-16114D01*
X53414Y-16142D01*
X53471Y-16142D01*
X53900Y-16114D02*
X53842Y-16142D01*
X53728Y-16142D01*
X53671Y-16114D01*
X53642Y-16057D01*
X53642Y-15828D01*
X53671Y-15771D01*
X53728Y-15742D01*
X53842Y-15742D01*
X53900Y-15771D01*
X53928Y-15828D01*
X53928Y-15885D01*
X53642Y-15942D01*
X54185Y-16142D02*
X54185Y-15742D01*
X54185Y-15542D02*
X54157Y-15571D01*
X54185Y-15600D01*
X54214Y-15571D01*
X54185Y-15542D01*
X54185Y-15600D01*
X54471Y-15742D02*
X54471Y-16142D01*
X54471Y-15800D02*
X54500Y-15771D01*
X54557Y-15742D01*
X54642Y-15742D01*
X54700Y-15771D01*
X54728Y-15828D01*
X54728Y-16142D01*
X55014Y-16142D02*
X55014Y-15542D01*
X55071Y-15914D02*
X55242Y-16142D01*
X55242Y-15742D02*
X55014Y-15971D01*
X55757Y-15742D02*
X55757Y-16142D01*
X55500Y-15742D02*
X55500Y-16057D01*
X55528Y-16114D01*
X55585Y-16142D01*
X55671Y-16142D01*
X55728Y-16114D01*
X55757Y-16085D01*
X56271Y-16114D02*
X56214Y-16142D01*
X56100Y-16142D01*
X56042Y-16114D01*
X56014Y-16057D01*
X56014Y-15828D01*
X56042Y-15771D01*
X56100Y-15742D01*
X56214Y-15742D01*
X56271Y-15771D01*
X56300Y-15828D01*
X56300Y-15885D01*
X56014Y-15942D01*
X56557Y-16142D02*
X56557Y-15542D01*
X56814Y-16142D02*
X56814Y-15828D01*
X56785Y-15771D01*
X56728Y-15742D01*
X56642Y-15742D01*
X56585Y-15771D01*
X56557Y-15800D01*
X57185Y-16142D02*
X57128Y-16114D01*
X57100Y-16057D01*
X57100Y-15542D01*
X57642Y-16114D02*
X57585Y-16142D01*
X57471Y-16142D01*
X57414Y-16114D01*
X57385Y-16057D01*
X57385Y-15828D01*
X57414Y-15771D01*
X57471Y-15742D01*
X57585Y-15742D01*
X57642Y-15771D01*
X57671Y-15828D01*
X57671Y-15885D01*
X57385Y-15942D01*
X57928Y-16142D02*
X57928Y-15742D01*
X57928Y-15857D02*
X57957Y-15800D01*
X57985Y-15771D01*
X58042Y-15742D01*
X58100Y-15742D01*
X59014Y-16142D02*
X59014Y-15828D01*
X58985Y-15771D01*
X58928Y-15742D01*
X58814Y-15742D01*
X58757Y-15771D01*
X59014Y-16114D02*
X58957Y-16142D01*
X58814Y-16142D01*
X58757Y-16114D01*
X58728Y-16057D01*
X58728Y-16000D01*
X58757Y-15942D01*
X58814Y-15914D01*
X58957Y-15914D01*
X59014Y-15885D01*
X59300Y-15742D02*
X59300Y-16142D01*
X59300Y-15800D02*
X59328Y-15771D01*
X59385Y-15742D01*
X59471Y-15742D01*
X59528Y-15771D01*
X59557Y-15828D01*
X59557Y-16142D01*
X60100Y-16142D02*
X60100Y-15542D01*
X60100Y-16114D02*
X60042Y-16142D01*
X59928Y-16142D01*
X59871Y-16114D01*
X59842Y-16085D01*
X59814Y-16028D01*
X59814Y-15857D01*
X59842Y-15800D01*
X59871Y-15771D01*
X59928Y-15742D01*
X60042Y-15742D01*
X60100Y-15771D01*
X60842Y-16142D02*
X60842Y-15542D01*
X61042Y-15971D01*
X61242Y-15542D01*
X61242Y-16142D01*
X61785Y-15742D02*
X61785Y-16142D01*
X61528Y-15742D02*
X61528Y-16057D01*
X61557Y-16114D01*
X61614Y-16142D01*
X61700Y-16142D01*
X61757Y-16114D01*
X61785Y-16085D01*
X62071Y-16142D02*
X62071Y-15742D01*
X62071Y-15857D02*
X62100Y-15800D01*
X62128Y-15771D01*
X62185Y-15742D01*
X62242Y-15742D01*
X62442Y-16142D02*
X62442Y-15742D01*
X62442Y-15857D02*
X62471Y-15800D01*
X62500Y-15771D01*
X62557Y-15742D01*
X62614Y-15742D01*
X63071Y-16142D02*
X63071Y-15828D01*
X63042Y-15771D01*
X62985Y-15742D01*
X62871Y-15742D01*
X62814Y-15771D01*
X63071Y-16114D02*
X63014Y-16142D01*
X62871Y-16142D01*
X62814Y-16114D01*
X62785Y-16057D01*
X62785Y-16000D01*
X62814Y-15942D01*
X62871Y-15914D01*
X63014Y-15914D01*
X63071Y-15885D01*
X63300Y-15742D02*
X63442Y-16142D01*
X63585Y-15742D02*
X63442Y-16142D01*
X63385Y-16285D01*
X63357Y-16314D01*
X63300Y-16342D01*
X64557Y-16142D02*
X64271Y-16142D01*
X64271Y-15542D01*
X64757Y-16142D02*
X64757Y-15742D01*
X64757Y-15542D02*
X64728Y-15571D01*
X64757Y-15600D01*
X64785Y-15571D01*
X64757Y-15542D01*
X64757Y-15600D01*
X65042Y-15742D02*
X65042Y-16142D01*
X65042Y-15800D02*
X65071Y-15771D01*
X65128Y-15742D01*
X65214Y-15742D01*
X65271Y-15771D01*
X65300Y-15828D01*
X65300Y-16142D01*
X65842Y-16142D02*
X65842Y-15542D01*
X65842Y-16114D02*
X65785Y-16142D01*
X65671Y-16142D01*
X65614Y-16114D01*
X65585Y-16085D01*
X65557Y-16028D01*
X65557Y-15857D01*
X65585Y-15800D01*
X65614Y-15771D01*
X65671Y-15742D01*
X65785Y-15742D01*
X65842Y-15771D01*
X66357Y-16114D02*
X66300Y-16142D01*
X66185Y-16142D01*
X66128Y-16114D01*
X66100Y-16057D01*
X66100Y-15828D01*
X66128Y-15771D01*
X66185Y-15742D01*
X66300Y-15742D01*
X66357Y-15771D01*
X66385Y-15828D01*
X66385Y-15885D01*
X66100Y-15942D01*
X66642Y-16142D02*
X66642Y-15542D01*
X66642Y-15771D02*
X66700Y-15742D01*
X66814Y-15742D01*
X66871Y-15771D01*
X66900Y-15800D01*
X66928Y-15857D01*
X66928Y-16028D01*
X66900Y-16085D01*
X66871Y-16114D01*
X66814Y-16142D01*
X66700Y-16142D01*
X66642Y-16114D01*
X67271Y-16142D02*
X67214Y-16114D01*
X67185Y-16057D01*
X67185Y-15542D01*
X67585Y-16142D02*
X67528Y-16114D01*
X67500Y-16085D01*
X67471Y-16028D01*
X67471Y-15857D01*
X67500Y-15800D01*
X67528Y-15771D01*
X67585Y-15742D01*
X67671Y-15742D01*
X67728Y-15771D01*
X67757Y-15800D01*
X67785Y-15857D01*
X67785Y-16028D01*
X67757Y-16085D01*
X67728Y-16114D01*
X67671Y-16142D01*
X67585Y-16142D01*
X68042Y-16142D02*
X68042Y-15742D01*
X68042Y-15800D02*
X68071Y-15771D01*
X68128Y-15742D01*
X68214Y-15742D01*
X68271Y-15771D01*
X68300Y-15828D01*
X68300Y-16142D01*
X68300Y-15828D02*
X68328Y-15771D01*
X68385Y-15742D01*
X68471Y-15742D01*
X68528Y-15771D01*
X68557Y-15828D01*
X68557Y-16142D01*
X42700Y-15300D02*
X42700Y-27300D01*
X42700Y-21300D02*
X84700Y-21300D01*
X42700Y-15300D02*
X84700Y-15300D01*
X42700Y-23700D02*
X84700Y-23700D01*
X75900Y-24900D02*
X75900Y-27300D01*
X42700Y-26100D02*
X84700Y-26100D01*
X42700Y-24900D02*
X84700Y-24900D01*
X49300Y-24900D02*
X49300Y-26100D01*
G54D11*
X318Y29766D02*
X318Y30266D01*
X80Y29766D02*
X80Y30266D01*
X-205Y29766D01*
X-205Y30266D01*
X889Y29478D02*
X794Y29478D01*
X747Y29454D01*
X699Y29407D01*
X675Y29312D01*
X675Y29145D01*
X699Y29050D01*
X747Y29002D01*
X794Y28978D01*
X889Y28978D01*
X937Y29002D01*
X985Y29050D01*
X1008Y29145D01*
X1008Y29312D01*
X985Y29407D01*
X937Y29454D01*
X889Y29478D01*
X461Y29478D02*
X461Y29073D01*
X437Y29026D01*
X413Y29002D01*
X366Y28978D01*
X270Y28978D01*
X223Y29002D01*
X199Y29026D01*
X175Y29073D01*
X175Y29478D01*
X8Y29478D02*
X-276Y29478D01*
X-133Y28978D02*
X-133Y29478D01*
G54D12*
X1644Y29181D02*
X1250Y29181D01*
X1644Y28590D02*
X1644Y29181D01*
X1644Y29968D02*
X659Y29968D01*
X1644Y30559D02*
X1644Y29968D01*
G54D13*
X462Y11759D02*
X659Y11759D01*
X462Y10381D02*
X659Y10381D01*
X659Y13137D02*
X659Y9003D01*
X69Y15401D02*
X462Y15401D01*
X69Y26622D02*
X462Y26622D01*
X69Y32527D02*
X462Y32527D01*
X69Y36464D02*
X462Y36464D01*
G54D11*
X146Y11201D02*
X170Y11154D01*
X170Y11082D01*
X146Y11011D01*
X98Y10963D01*
X51Y10939D01*
X-44Y10916D01*
X-115Y10916D01*
X-210Y10939D01*
X-258Y10963D01*
X-306Y11011D01*
X-329Y11082D01*
X-329Y11130D01*
X-306Y11201D01*
X-282Y11225D01*
X-115Y11225D01*
X-115Y11130D01*
X170Y12353D02*
X170Y12115D01*
X-68Y12091D01*
X-44Y12115D01*
X-20Y12163D01*
X-20Y12282D01*
X-44Y12329D01*
X-68Y12353D01*
X-115Y12377D01*
X-234Y12377D01*
X-282Y12353D01*
X-306Y12329D01*
X-329Y12282D01*
X-329Y12163D01*
X-306Y12115D01*
X-282Y12091D01*
X170Y12520D02*
X-329Y12686D01*
X170Y12853D01*
X170Y9216D02*
X-329Y9383D01*
X170Y9550D01*
X-139Y9716D02*
X-139Y10097D01*
X-329Y9907D02*
X51Y9907D01*
G54D13*
X462Y9003D02*
X3415Y9003D01*
X462Y6248D02*
X3415Y6248D01*
X462Y3492D02*
X3415Y3492D01*
X3415Y736D02*
X462Y736D01*
X3415Y13137D02*
X3415Y736D01*
X462Y13137D02*
X3415Y13137D01*
X462Y13433D02*
X462Y17370D01*
X4006Y13433D02*
X462Y13433D01*
X4006Y17370D02*
X4006Y13433D01*
X462Y17370D02*
X4006Y17370D01*
X462Y24653D02*
X462Y28590D01*
X4006Y24653D02*
X462Y24653D01*
X4006Y28590D02*
X4006Y24653D01*
X462Y28590D02*
X4006Y28590D01*
X462Y34496D02*
X4006Y34496D01*
X462Y30559D02*
X462Y38433D01*
X4006Y30559D02*
X462Y30559D01*
X4006Y38433D02*
X4006Y30559D01*
X462Y38433D02*
X4006Y38433D01*
X462Y34496D02*
X-600Y34496D01*
X462Y28590D02*
X-600Y28590D01*
X462Y30559D02*
X-600Y30559D01*
X462Y38433D02*
X-600Y38433D01*
X462Y17370D02*
X-600Y17370D01*
X462Y24653D02*
X-600Y24653D01*
X462Y13433D02*
X-600Y13433D01*
X462Y13137D02*
X-600Y13137D01*
X462Y9003D02*
X-600Y9003D01*
X462Y6248D02*
X-600Y6248D01*
X462Y3492D02*
X-600Y3492D01*
X462Y736D02*
X-600Y736D01*
G54D14*
X1123Y25272D02*
X1095Y25356D01*
X1067Y25384D01*
X1011Y25412D01*
X926Y25412D01*
X870Y25384D01*
X842Y25356D01*
X814Y25300D01*
X814Y25075D01*
X1405Y25075D01*
X1405Y25272D01*
X1376Y25328D01*
X1348Y25356D01*
X1292Y25384D01*
X1236Y25384D01*
X1180Y25356D01*
X1151Y25328D01*
X1123Y25272D01*
X1123Y25075D01*
X1123Y25665D02*
X1123Y25862D01*
X814Y25947D02*
X814Y25665D01*
X1405Y25665D01*
X1405Y25947D01*
X814Y26200D02*
X1405Y26200D01*
X1405Y26340D01*
X1376Y26425D01*
X1320Y26481D01*
X1264Y26509D01*
X1151Y26537D01*
X1067Y26537D01*
X955Y26509D01*
X898Y26481D01*
X842Y26425D01*
X814Y26340D01*
X814Y26200D01*
X814Y26790D02*
X1405Y26790D01*
X1123Y26790D02*
X1123Y27128D01*
X814Y27128D02*
X1405Y27128D01*
X1405Y27325D02*
X1405Y27662D01*
X814Y27493D02*
X1405Y27493D01*
X814Y28196D02*
X1095Y28000D01*
X814Y27859D02*
X1405Y27859D01*
X1405Y28084D01*
X1376Y28140D01*
X1348Y28168D01*
X1292Y28196D01*
X1208Y28196D01*
X1151Y28168D01*
X1123Y28140D01*
X1095Y28084D01*
X1095Y27859D01*
G54D11*
X146Y27225D02*
X170Y27177D01*
X170Y27106D01*
X146Y27034D01*
X98Y26987D01*
X51Y26963D01*
X-44Y26939D01*
X-115Y26939D01*
X-210Y26963D01*
X-258Y26987D01*
X-306Y27034D01*
X-329Y27106D01*
X-329Y27153D01*
X-306Y27225D01*
X-282Y27249D01*
X-115Y27249D01*
X-115Y27153D01*
X-329Y27463D02*
X170Y27463D01*
X-329Y27749D01*
X170Y27749D01*
X-329Y27987D02*
X170Y27987D01*
X170Y28106D01*
X146Y28177D01*
X98Y28225D01*
X51Y28249D01*
X-44Y28272D01*
X-115Y28272D01*
X-210Y28249D01*
X-258Y28225D01*
X-306Y28177D01*
X-329Y28106D01*
X-329Y27987D01*
X-68Y25197D02*
X-91Y25268D01*
X-115Y25292D01*
X-163Y25316D01*
X-234Y25316D01*
X-282Y25292D01*
X-306Y25268D01*
X-329Y25221D01*
X-329Y25030D01*
X170Y25030D01*
X170Y25197D01*
X146Y25244D01*
X122Y25268D01*
X74Y25292D01*
X27Y25292D01*
X-20Y25268D01*
X-44Y25244D01*
X-68Y25197D01*
X-68Y25030D01*
X-68Y25530D02*
X-68Y25697D01*
X-329Y25768D02*
X-329Y25530D01*
X170Y25530D01*
X170Y25768D01*
X-329Y25983D02*
X170Y25983D01*
X170Y26102D01*
X146Y26173D01*
X98Y26221D01*
X51Y26244D01*
X-44Y26268D01*
X-115Y26268D01*
X-210Y26244D01*
X-258Y26221D01*
X-306Y26173D01*
X-329Y26102D01*
X-329Y25983D01*
X-68Y31102D02*
X-91Y31174D01*
X-115Y31198D01*
X-163Y31221D01*
X-234Y31221D01*
X-282Y31198D01*
X-306Y31174D01*
X-329Y31126D01*
X-329Y30936D01*
X170Y30936D01*
X170Y31102D01*
X146Y31150D01*
X122Y31174D01*
X74Y31198D01*
X27Y31198D01*
X-20Y31174D01*
X-44Y31150D01*
X-68Y31102D01*
X-68Y30936D01*
X-68Y31436D02*
X-68Y31602D01*
X-329Y31674D02*
X-329Y31436D01*
X170Y31436D01*
X170Y31674D01*
X-329Y31888D02*
X170Y31888D01*
X170Y32007D01*
X146Y32079D01*
X98Y32126D01*
X51Y32150D01*
X-44Y32174D01*
X-115Y32174D01*
X-210Y32150D01*
X-258Y32126D01*
X-306Y32079D01*
X-329Y32007D01*
X-329Y31888D01*
X146Y33130D02*
X170Y33083D01*
X170Y33011D01*
X146Y32940D01*
X98Y32892D01*
X51Y32868D01*
X-44Y32845D01*
X-115Y32845D01*
X-210Y32868D01*
X-258Y32892D01*
X-306Y32940D01*
X-329Y33011D01*
X-329Y33059D01*
X-306Y33130D01*
X-282Y33154D01*
X-115Y33154D01*
X-115Y33059D01*
X-329Y33368D02*
X170Y33368D01*
X-329Y33654D01*
X170Y33654D01*
X-329Y33892D02*
X170Y33892D01*
X170Y34011D01*
X146Y34083D01*
X98Y34130D01*
X51Y34154D01*
X-44Y34178D01*
X-115Y34178D01*
X-210Y34154D01*
X-258Y34130D01*
X-306Y34083D01*
X-329Y34011D01*
X-329Y33892D01*
G54D14*
X1123Y31079D02*
X1095Y31163D01*
X1067Y31191D01*
X1011Y31219D01*
X926Y31219D01*
X870Y31191D01*
X842Y31163D01*
X814Y31107D01*
X814Y30882D01*
X1405Y30882D01*
X1405Y31079D01*
X1376Y31135D01*
X1348Y31163D01*
X1292Y31191D01*
X1236Y31191D01*
X1180Y31163D01*
X1151Y31135D01*
X1123Y31079D01*
X1123Y30882D01*
X1123Y31473D02*
X1123Y31669D01*
X814Y31754D02*
X814Y31473D01*
X1405Y31473D01*
X1405Y31754D01*
X814Y32007D02*
X1405Y32007D01*
X1405Y32147D01*
X1376Y32232D01*
X1320Y32288D01*
X1264Y32316D01*
X1151Y32344D01*
X1067Y32344D01*
X955Y32316D01*
X898Y32288D01*
X842Y32232D01*
X814Y32147D01*
X814Y32007D01*
X814Y32597D02*
X1405Y32597D01*
X1405Y32822D01*
X1376Y32879D01*
X1348Y32907D01*
X1292Y32935D01*
X1208Y32935D01*
X1151Y32907D01*
X1123Y32879D01*
X1095Y32822D01*
X1095Y32597D01*
X1405Y33132D02*
X814Y33272D01*
X1236Y33385D01*
X814Y33497D01*
X1405Y33638D01*
X814Y34200D02*
X1095Y34003D01*
X814Y33863D02*
X1405Y33863D01*
X1405Y34088D01*
X1376Y34144D01*
X1348Y34172D01*
X1292Y34200D01*
X1208Y34200D01*
X1151Y34172D01*
X1123Y34144D01*
X1095Y34088D01*
X1095Y33863D01*
X814Y34847D02*
X1405Y34847D01*
X983Y35044D01*
X1405Y35241D01*
X814Y35241D01*
X1405Y35634D02*
X1405Y35747D01*
X1376Y35803D01*
X1320Y35859D01*
X1208Y35888D01*
X1011Y35888D01*
X898Y35859D01*
X842Y35803D01*
X814Y35747D01*
X814Y35634D01*
X842Y35578D01*
X898Y35522D01*
X1011Y35494D01*
X1208Y35494D01*
X1320Y35522D01*
X1376Y35578D01*
X1405Y35634D01*
X1405Y36056D02*
X1405Y36394D01*
X814Y36225D02*
X1405Y36225D01*
X1405Y36703D02*
X1405Y36816D01*
X1376Y36872D01*
X1320Y36928D01*
X1208Y36956D01*
X1011Y36956D01*
X898Y36928D01*
X842Y36872D01*
X814Y36816D01*
X814Y36703D01*
X842Y36647D01*
X898Y36591D01*
X1011Y36562D01*
X1208Y36562D01*
X1320Y36591D01*
X1376Y36647D01*
X1405Y36703D01*
X814Y37547D02*
X1095Y37350D01*
X814Y37209D02*
X1405Y37209D01*
X1405Y37434D01*
X1376Y37491D01*
X1348Y37519D01*
X1292Y37547D01*
X1208Y37547D01*
X1151Y37519D01*
X1123Y37491D01*
X1095Y37434D01*
X1095Y37209D01*
X842Y37772D02*
X814Y37856D01*
X814Y37997D01*
X842Y38053D01*
X870Y38081D01*
X926Y38109D01*
X983Y38109D01*
X1039Y38081D01*
X1067Y38053D01*
X1095Y37997D01*
X1123Y37884D01*
X1151Y37828D01*
X1180Y37800D01*
X1236Y37772D01*
X1292Y37772D01*
X1348Y37800D01*
X1376Y37828D01*
X1405Y37884D01*
X1405Y38025D01*
X1376Y38109D01*
G54D11*
X146Y37067D02*
X170Y37020D01*
X170Y36948D01*
X146Y36877D01*
X98Y36829D01*
X51Y36805D01*
X-44Y36782D01*
X-115Y36782D01*
X-210Y36805D01*
X-258Y36829D01*
X-306Y36877D01*
X-329Y36948D01*
X-329Y36996D01*
X-306Y37067D01*
X-282Y37091D01*
X-115Y37091D01*
X-115Y36996D01*
X-329Y37305D02*
X170Y37305D01*
X-329Y37591D01*
X170Y37591D01*
X-329Y37829D02*
X170Y37829D01*
X170Y37948D01*
X146Y38020D01*
X98Y38067D01*
X51Y38091D01*
X-44Y38115D01*
X-115Y38115D01*
X-210Y38091D01*
X-258Y38067D01*
X-306Y38020D01*
X-329Y37948D01*
X-329Y37829D01*
X-329Y34861D02*
X170Y34861D01*
X-187Y35027D01*
X170Y35194D01*
X-329Y35194D01*
X170Y35527D02*
X170Y35623D01*
X146Y35670D01*
X98Y35718D01*
X3Y35742D01*
X-163Y35742D01*
X-258Y35718D01*
X-306Y35670D01*
X-329Y35623D01*
X-329Y35527D01*
X-306Y35480D01*
X-258Y35432D01*
X-163Y35408D01*
X3Y35408D01*
X98Y35432D01*
X146Y35480D01*
X170Y35527D01*
X170Y35885D02*
X170Y36170D01*
X-329Y36027D02*
X170Y36027D01*
X994Y9666D02*
X994Y9904D01*
X851Y9618D02*
X1351Y9785D01*
X851Y9951D01*
X1351Y10118D02*
X946Y10118D01*
X898Y10142D01*
X874Y10166D01*
X851Y10213D01*
X851Y10308D01*
X874Y10356D01*
X898Y10380D01*
X946Y10404D01*
X1351Y10404D01*
X1351Y10594D02*
X851Y10928D01*
X1351Y10928D02*
X851Y10594D01*
X851Y11118D02*
X1351Y11118D01*
X1351Y11308D01*
X1327Y11356D01*
X1303Y11380D01*
X1255Y11404D01*
X1184Y11404D01*
X1136Y11380D01*
X1113Y11356D01*
X1089Y11308D01*
X1089Y11118D01*
X1351Y11570D02*
X851Y11689D01*
X1208Y11785D01*
X851Y11880D01*
X1351Y11999D01*
X851Y12475D02*
X1089Y12308D01*
X851Y12189D02*
X1351Y12189D01*
X1351Y12380D01*
X1327Y12428D01*
X1303Y12451D01*
X1255Y12475D01*
X1184Y12475D01*
X1136Y12451D01*
X1113Y12428D01*
X1089Y12380D01*
X1089Y12189D01*
X-329Y13750D02*
X170Y13750D01*
X170Y13941D01*
X146Y13988D01*
X122Y14012D01*
X74Y14036D01*
X3Y14036D01*
X-44Y14012D01*
X-68Y13988D01*
X-91Y13941D01*
X-91Y13750D01*
X170Y14203D02*
X-329Y14322D01*
X27Y14417D01*
X-329Y14512D01*
X170Y14631D01*
X-329Y15107D02*
X-91Y14941D01*
X-329Y14822D02*
X170Y14822D01*
X170Y15012D01*
X146Y15060D01*
X122Y15083D01*
X74Y15107D01*
X3Y15107D01*
X-44Y15083D01*
X-68Y15060D01*
X-91Y15012D01*
X-91Y14822D01*
X146Y16004D02*
X170Y15957D01*
X170Y15885D01*
X146Y15814D01*
X98Y15766D01*
X51Y15742D01*
X-44Y15719D01*
X-115Y15719D01*
X-210Y15742D01*
X-258Y15766D01*
X-306Y15814D01*
X-329Y15885D01*
X-329Y15933D01*
X-306Y16004D01*
X-282Y16028D01*
X-115Y16028D01*
X-115Y15933D01*
X-329Y16242D02*
X170Y16242D01*
X-329Y16528D01*
X170Y16528D01*
X-329Y16766D02*
X170Y16766D01*
X170Y16885D01*
X146Y16957D01*
X98Y17004D01*
X51Y17028D01*
X-44Y17052D01*
X-115Y17052D01*
X-210Y17028D01*
X-258Y17004D01*
X-306Y16957D01*
X-329Y16885D01*
X-329Y16766D01*
G54D12*
X-324Y1425D02*
X462Y1425D01*
X69Y1818D02*
X69Y1031D01*
X69Y3196D02*
X69Y2409D01*
X-324Y4181D02*
X462Y4181D01*
X69Y4574D02*
X69Y3787D01*
X69Y5952D02*
X69Y5165D01*
X-324Y6937D02*
X462Y6937D01*
X69Y7330D02*
X69Y6543D01*
X69Y8708D02*
X69Y7921D01*
X25400Y37000D02*
X25400Y39500D01*
X21400Y37000D02*
X25400Y37000D01*
X21400Y39500D02*
X21400Y37000D01*
X17400Y37000D02*
X17400Y39500D01*
X13400Y37000D02*
X17400Y37000D01*
X13400Y39500D02*
X13400Y37000D01*
X33400Y37000D02*
X33400Y39500D01*
X29400Y37000D02*
X33400Y37000D01*
X29400Y39500D02*
X29400Y37000D01*
G54D15*
X11804Y38583D02*
X12804Y37916D01*
X11804Y37916D02*
X12804Y38583D01*
X20328Y38250D02*
X20804Y38250D01*
X19804Y38583D02*
X20328Y38250D01*
X19804Y37916D01*
G54D12*
X35400Y3000D02*
X35400Y500D01*
X31400Y3000D02*
X35400Y3000D01*
X31400Y500D02*
X31400Y3000D01*
X27400Y3000D02*
X27400Y500D01*
X23400Y3000D02*
X27400Y3000D01*
X23400Y500D02*
X23400Y3000D01*
X19400Y3000D02*
X19400Y500D01*
X15400Y3000D02*
X19400Y3000D01*
X15400Y500D02*
X15400Y3000D01*
G54D15*
X27804Y38583D02*
X27804Y37916D01*
X28804Y38583D01*
X28804Y37916D01*
X20280Y2440D02*
X20280Y2107D01*
X20804Y1964D02*
X20804Y2440D01*
X19804Y2440D01*
X19804Y1964D01*
X19804Y1345D02*
X19804Y1250D01*
X19852Y1154D01*
X19900Y1107D01*
X19995Y1059D01*
X20185Y1011D01*
X20423Y1011D01*
X20614Y1059D01*
X20709Y1107D01*
X20757Y1154D01*
X20804Y1250D01*
X20804Y1345D01*
X20757Y1440D01*
X20709Y1488D01*
X20614Y1535D01*
X20423Y1583D01*
X20185Y1583D01*
X19995Y1535D01*
X19900Y1488D01*
X19852Y1440D01*
X19804Y1345D01*
X28530Y2440D02*
X28530Y2107D01*
X29054Y1964D02*
X29054Y2440D01*
X28054Y2440D01*
X28054Y1964D01*
X29054Y1011D02*
X29054Y1583D01*
X29054Y1297D02*
X28054Y1297D01*
X28197Y1392D01*
X28292Y1488D01*
X28340Y1583D01*
X36280Y2440D02*
X36280Y2107D01*
X36804Y1964D02*
X36804Y2440D01*
X35804Y2440D01*
X35804Y1964D01*
X35900Y1583D02*
X35852Y1535D01*
X35804Y1440D01*
X35804Y1202D01*
X35852Y1107D01*
X35900Y1059D01*
X35995Y1011D01*
X36090Y1011D01*
X36233Y1059D01*
X36804Y1630D01*
X36804Y1011D01*
G54D12*
X13400Y3000D02*
X13400Y500D01*
X11400Y3000D02*
X13400Y3000D01*
X11400Y500D02*
X11400Y3000D01*
X8400Y3000D02*
X8400Y500D01*
X6400Y3000D02*
X8400Y3000D01*
X6400Y500D02*
X6400Y3000D01*
G54D11*
X12983Y2559D02*
X13150Y2559D01*
X13150Y2297D02*
X13150Y2797D01*
X12911Y2797D01*
X12721Y2559D02*
X12554Y2559D01*
X12483Y2297D02*
X12721Y2297D01*
X12721Y2797D01*
X12483Y2797D01*
X12340Y2797D02*
X12054Y2797D01*
X12197Y2297D02*
X12197Y2797D01*
X11650Y2797D02*
X11888Y2797D01*
X11911Y2559D01*
X11888Y2583D01*
X11840Y2607D01*
X11721Y2607D01*
X11673Y2583D01*
X11650Y2559D01*
X11626Y2511D01*
X11626Y2392D01*
X11650Y2345D01*
X11673Y2321D01*
X11721Y2297D01*
X11840Y2297D01*
X11888Y2321D01*
X11911Y2345D01*
X7983Y2559D02*
X8150Y2559D01*
X8150Y2297D02*
X8150Y2797D01*
X7911Y2797D01*
X7721Y2559D02*
X7554Y2559D01*
X7483Y2297D02*
X7721Y2297D01*
X7721Y2797D01*
X7483Y2797D01*
X7340Y2797D02*
X7054Y2797D01*
X7197Y2297D02*
X7197Y2797D01*
X6673Y2797D02*
X6769Y2797D01*
X6816Y2773D01*
X6840Y2750D01*
X6888Y2678D01*
X6911Y2583D01*
X6911Y2392D01*
X6888Y2345D01*
X6864Y2321D01*
X6816Y2297D01*
X6721Y2297D01*
X6673Y2321D01*
X6650Y2345D01*
X6626Y2392D01*
X6626Y2511D01*
X6650Y2559D01*
X6673Y2583D01*
X6721Y2607D01*
X6816Y2607D01*
X6864Y2583D01*
X6888Y2559D01*
X6911Y2511D01*
G54D12*
X12900Y1250D02*
X12900Y750D01*
X12650Y1000D02*
X13150Y1000D01*
X11650Y1000D02*
X12150Y1000D01*
X7900Y1250D02*
X7900Y750D01*
X7650Y1000D02*
X8150Y1000D01*
X6650Y1000D02*
X7150Y1000D01*
X-600Y17500D02*
X3400Y17500D01*
X1247Y1561D02*
X1247Y1828D01*
X828Y1942D02*
X828Y1561D01*
X1628Y1561D01*
X1628Y1942D01*
X1628Y2437D02*
X1628Y2514D01*
X1590Y2590D01*
X1551Y2628D01*
X1475Y2666D01*
X1323Y2704D01*
X1132Y2704D01*
X980Y2666D01*
X904Y2628D01*
X866Y2590D01*
X828Y2514D01*
X828Y2437D01*
X866Y2361D01*
X904Y2323D01*
X980Y2285D01*
X1132Y2247D01*
X1323Y2247D01*
X1475Y2285D01*
X1551Y2323D01*
X1590Y2361D01*
X1628Y2437D01*
X1247Y4317D02*
X1247Y4584D01*
X828Y4698D02*
X828Y4317D01*
X1628Y4317D01*
X1628Y4698D01*
X828Y5460D02*
X828Y5003D01*
X828Y5231D02*
X1628Y5231D01*
X1513Y5155D01*
X1437Y5079D01*
X1399Y5003D01*
X1247Y7073D02*
X1247Y7340D01*
X828Y7454D02*
X828Y7073D01*
X1628Y7073D01*
X1628Y7454D01*
X1551Y7759D02*
X1590Y7797D01*
X1628Y7873D01*
X1628Y8064D01*
X1590Y8140D01*
X1551Y8178D01*
X1475Y8216D01*
X1399Y8216D01*
X1285Y8178D01*
X828Y7721D01*
X828Y8216D01*
G54D14*
X1123Y13840D02*
X1123Y14037D01*
X814Y14122D02*
X814Y13840D01*
X1405Y13840D01*
X1405Y14122D01*
X1405Y14318D02*
X814Y14712D01*
X1405Y14712D02*
X814Y14318D01*
X1405Y14853D02*
X1405Y15190D01*
X814Y15021D02*
X1405Y15021D01*
X814Y15387D02*
X1405Y15387D01*
X1405Y15612D01*
X1376Y15668D01*
X1348Y15696D01*
X1292Y15724D01*
X1208Y15724D01*
X1151Y15696D01*
X1123Y15668D01*
X1095Y15612D01*
X1095Y15387D01*
X1405Y15921D02*
X814Y16062D01*
X1236Y16174D01*
X814Y16287D01*
X1405Y16428D01*
X814Y16990D02*
X1095Y16793D01*
X814Y16652D02*
X1405Y16652D01*
X1405Y16877D01*
X1376Y16934D01*
X1348Y16962D01*
X1292Y16990D01*
X1208Y16990D01*
X1151Y16962D01*
X1123Y16934D01*
X1095Y16877D01*
X1095Y16652D01*
G54D13*
X38400Y500D02*
X-600Y500D01*
X38400Y39500D02*
X38400Y500D01*
X-600Y39500D02*
X38400Y39500D01*
X-600Y24500D02*
X-600Y39500D01*
X12150Y24500D02*
X-600Y24500D01*
X12150Y17500D02*
X12150Y24500D01*
X-600Y17500D02*
X12150Y17500D01*
X-600Y500D02*
X-600Y17500D01*
G54D12*
X17900Y11750D02*
X17900Y12750D01*
X16900Y12750D02*
X16900Y11750D01*
X16900Y11750D02*
X22900Y11750D01*
X22900Y11750D02*
X22900Y12750D01*
X22900Y12750D02*
X16900Y12750D01*
G54D16*
X11400Y11500D02*
X11400Y9500D01*
X11400Y9500D02*
X34400Y9500D01*
X34400Y9500D02*
X34400Y11500D01*
X34400Y11500D02*
X11400Y11500D01*
X11400Y30500D02*
X11400Y28500D01*
X11400Y28500D02*
X34400Y28500D01*
X34400Y28500D02*
X34400Y30500D01*
X34400Y30500D02*
X11400Y30500D01*
G54D13*
X37150Y11750D02*
G75*
G03X37150Y11750I-1250J0D01*
G74*
G01*
X37150Y28250D02*
G75*
G03X37150Y28250I-1250J0D01*
G74*
G01*
X11150Y29500D02*
G75*
G03X11150Y29500I-1250J0D01*
G74*
G01*
X11150Y10500D02*
G75*
G03X11150Y10500I-1250J0D01*
G74*
G01*
G54D11*
X34400Y9500D02*
X11400Y9500D01*
X34400Y11500D02*
X34400Y9500D01*
X11400Y11500D02*
X34400Y11500D01*
X11400Y9500D02*
X11400Y11500D01*
X12400Y10500D02*
X12400Y9500D01*
X11400Y10500D02*
X12400Y10500D01*
X11400Y29500D02*
X12400Y29500D01*
X12400Y29500D02*
X12400Y28500D01*
X11400Y28500D02*
X11400Y30500D01*
X11400Y30500D02*
X34400Y30500D01*
X34400Y30500D02*
X34400Y28500D01*
X34400Y28500D02*
X11400Y28500D01*
G54D13*
X6900Y24650D02*
X6900Y24500D01*
X6900Y24500D02*
X12150Y24500D01*
X12150Y24500D02*
X12150Y17500D01*
X12150Y17500D02*
X4150Y17500D01*
X4150Y17500D02*
X4150Y17350D01*
X33150Y30750D02*
X6900Y30750D01*
X6900Y30750D02*
X6900Y24650D01*
X4150Y17350D02*
X4150Y12250D01*
X4150Y11750D02*
X4150Y12250D01*
X33150Y9250D02*
X6650Y9250D01*
X38150Y14250D02*
X38150Y25750D01*
X33150Y9250D02*
G75*
G03X38150Y14250I0J5000D01*
G74*
G01*
X38150Y25750D02*
G75*
G03X33150Y30750I-5000J0D01*
G74*
G01*
X4150Y11750D02*
G75*
G03X6650Y9250I2500J0D01*
G74*
G01*
G54D17*
X20576Y13088D02*
X20576Y13488D01*
X20423Y13488D01*
X20385Y13469D01*
X20366Y13450D01*
X20347Y13411D01*
X20347Y13354D01*
X20366Y13316D01*
X20385Y13297D01*
X20423Y13278D01*
X20576Y13278D01*
X19966Y13088D02*
X20195Y13088D01*
X20080Y13088D02*
X20080Y13488D01*
X20119Y13430D01*
X20157Y13392D01*
X20195Y13373D01*
X19719Y13488D02*
X19680Y13488D01*
X19642Y13469D01*
X19623Y13450D01*
X19604Y13411D01*
X19585Y13335D01*
X19585Y13240D01*
X19604Y13164D01*
X19623Y13126D01*
X19642Y13107D01*
X19680Y13088D01*
X19719Y13088D01*
X19757Y13107D01*
X19776Y13126D01*
X19795Y13164D01*
X19814Y13240D01*
X19814Y13335D01*
X19795Y13411D01*
X19776Y13450D01*
X19757Y13469D01*
X19719Y13488D01*
X19204Y13088D02*
X19433Y13088D01*
X19319Y13088D02*
X19319Y13488D01*
X19357Y13430D01*
X19395Y13392D01*
X19433Y13373D01*
G54D12*
X12092Y11757D02*
X12092Y12357D01*
X11864Y12357D01*
X11807Y12328D01*
X11778Y12300D01*
X11750Y12242D01*
X11750Y12157D01*
X11778Y12100D01*
X11807Y12071D01*
X11864Y12042D01*
X12092Y12042D01*
X11464Y11757D02*
X11350Y11757D01*
X11292Y11785D01*
X11264Y11814D01*
X11207Y11900D01*
X11178Y12014D01*
X11178Y12242D01*
X11207Y12300D01*
X11235Y12328D01*
X11292Y12357D01*
X11407Y12357D01*
X11464Y12328D01*
X11492Y12300D01*
X11521Y12242D01*
X11521Y12100D01*
X11492Y12042D01*
X11464Y12014D01*
X11407Y11985D01*
X11292Y11985D01*
X11235Y12014D01*
X11207Y12042D01*
X11178Y12100D01*
X12342Y27507D02*
X12342Y28107D01*
X12114Y28107D01*
X12057Y28078D01*
X12028Y28050D01*
X12000Y27992D01*
X12000Y27907D01*
X12028Y27850D01*
X12057Y27821D01*
X12114Y27792D01*
X12342Y27792D01*
X11657Y27850D02*
X11714Y27878D01*
X11742Y27907D01*
X11771Y27964D01*
X11771Y27992D01*
X11742Y28050D01*
X11714Y28078D01*
X11657Y28107D01*
X11542Y28107D01*
X11485Y28078D01*
X11457Y28050D01*
X11428Y27992D01*
X11428Y27964D01*
X11457Y27907D01*
X11485Y27878D01*
X11542Y27850D01*
X11657Y27850D01*
X11714Y27821D01*
X11742Y27792D01*
X11771Y27735D01*
X11771Y27621D01*
X11742Y27564D01*
X11714Y27535D01*
X11657Y27507D01*
X11542Y27507D01*
X11485Y27535D01*
X11457Y27564D01*
X11428Y27621D01*
X11428Y27735D01*
X11457Y27792D01*
X11485Y27821D01*
X11542Y27850D01*
X22449Y20783D02*
X22349Y20750D01*
X22316Y20716D01*
X22283Y20650D01*
X22283Y20550D01*
X22316Y20483D01*
X22349Y20450D01*
X22416Y20416D01*
X22683Y20416D01*
X22683Y21116D01*
X22449Y21116D01*
X22383Y21083D01*
X22349Y21050D01*
X22316Y20983D01*
X22316Y20916D01*
X22349Y20850D01*
X22383Y20816D01*
X22449Y20783D01*
X22683Y20783D01*
X21749Y20783D02*
X21649Y20750D01*
X21616Y20716D01*
X21583Y20650D01*
X21583Y20550D01*
X21616Y20483D01*
X21649Y20450D01*
X21716Y20416D01*
X21983Y20416D01*
X21983Y21116D01*
X21749Y21116D01*
X21683Y21083D01*
X21649Y21050D01*
X21616Y20983D01*
X21616Y20916D01*
X21649Y20850D01*
X21683Y20816D01*
X21749Y20783D01*
X21983Y20783D01*
X20916Y20416D02*
X21316Y20416D01*
X21116Y20416D02*
X21116Y21116D01*
X21183Y21016D01*
X21249Y20950D01*
X21316Y20916D01*
X20483Y21116D02*
X20416Y21116D01*
X20349Y21083D01*
X20316Y21050D01*
X20283Y20983D01*
X20249Y20850D01*
X20249Y20683D01*
X20283Y20550D01*
X20316Y20483D01*
X20349Y20450D01*
X20416Y20416D01*
X20483Y20416D01*
X20549Y20450D01*
X20583Y20483D01*
X20616Y20550D01*
X20649Y20683D01*
X20649Y20850D01*
X20616Y20983D01*
X20583Y21050D01*
X20549Y21083D01*
X20483Y21116D01*
X19583Y20416D02*
X19983Y20416D01*
X19783Y20416D02*
X19783Y21116D01*
X19850Y21016D01*
X19916Y20950D01*
X19983Y20916D01*
M02*
