G04 (created by PCBNEW (2013-07-07 BZR 4022)-stable) date 2/10/2014 10:10:31 AM*
%MOIN*%
G04 Gerber Fmt 3.4, Leading zero omitted, Abs format*
%FSLAX34Y34*%
G01*
G70*
G90*
G04 APERTURE LIST*
%ADD10C,0.00590551*%
%ADD11C,0.012*%
%ADD12C,0.02*%
%ADD13C,0.015*%
%ADD14C,0.2*%
%ADD15R,0.085X0.085*%
%ADD16C,0.085*%
%ADD17C,0.08*%
%ADD18R,0.08X0.08*%
%ADD19C,0.09*%
%ADD20R,0.09X0.09*%
%ADD21R,0.1381X0.1381*%
%ADD22C,0.1381*%
%ADD23R,0.085X0.08*%
%ADD24R,0.075X0.1184*%
%ADD25C,0.15*%
%ADD26C,0.169*%
%ADD27C,0.114488*%
%ADD28R,0.114488X0.114488*%
G04 APERTURE END LIST*
G54D10*
G54D11*
X24900Y37500D02*
X24900Y40000D01*
X20900Y37500D02*
X24900Y37500D01*
X20900Y40000D02*
X20900Y37500D01*
X16900Y37500D02*
X16900Y40000D01*
X12900Y37500D02*
X16900Y37500D01*
X12900Y40000D02*
X12900Y37500D01*
X32900Y37500D02*
X32900Y40000D01*
X28900Y37500D02*
X32900Y37500D01*
X28900Y40000D02*
X28900Y37500D01*
G54D12*
X11304Y39083D02*
X12304Y38416D01*
X11304Y38416D02*
X12304Y39083D01*
X19828Y38750D02*
X20304Y38750D01*
X19304Y39083D02*
X19828Y38750D01*
X19304Y38416D01*
G54D11*
X19400Y2500D02*
X19400Y0D01*
X15400Y2500D02*
X19400Y2500D01*
X15400Y0D02*
X15400Y2500D01*
X27400Y2500D02*
X27400Y0D01*
X23400Y2500D02*
X27400Y2500D01*
X23400Y0D02*
X23400Y2500D01*
X35400Y2500D02*
X35400Y0D01*
X31400Y2500D02*
X35400Y2500D01*
X31400Y0D02*
X31400Y2500D01*
G54D12*
X27304Y39083D02*
X27304Y38416D01*
X28304Y39083D01*
X28304Y38416D01*
X36280Y1940D02*
X36280Y1607D01*
X36804Y1464D02*
X36804Y1940D01*
X35804Y1940D01*
X35804Y1464D01*
X35804Y845D02*
X35804Y750D01*
X35852Y654D01*
X35900Y607D01*
X35995Y559D01*
X36185Y511D01*
X36423Y511D01*
X36614Y559D01*
X36709Y607D01*
X36757Y654D01*
X36804Y750D01*
X36804Y845D01*
X36757Y940D01*
X36709Y988D01*
X36614Y1035D01*
X36423Y1083D01*
X36185Y1083D01*
X35995Y1035D01*
X35900Y988D01*
X35852Y940D01*
X35804Y845D01*
X28280Y1940D02*
X28280Y1607D01*
X28804Y1464D02*
X28804Y1940D01*
X27804Y1940D01*
X27804Y1464D01*
X28804Y511D02*
X28804Y1083D01*
X28804Y797D02*
X27804Y797D01*
X27947Y892D01*
X28042Y988D01*
X28090Y1083D01*
X20280Y1940D02*
X20280Y1607D01*
X20804Y1464D02*
X20804Y1940D01*
X19804Y1940D01*
X19804Y1464D01*
X19900Y1083D02*
X19852Y1035D01*
X19804Y940D01*
X19804Y702D01*
X19852Y607D01*
X19900Y559D01*
X19995Y511D01*
X20090Y511D01*
X20233Y559D01*
X20804Y1130D01*
X20804Y511D01*
G54D11*
X13900Y2500D02*
X13900Y0D01*
X11900Y2500D02*
X13900Y2500D01*
X11900Y0D02*
X11900Y2500D01*
X10150Y2500D02*
X10150Y0D01*
X8150Y2500D02*
X10150Y2500D01*
X8150Y0D02*
X8150Y2500D01*
X6650Y2500D02*
X6650Y0D01*
X4650Y2500D02*
X6650Y2500D01*
X4650Y0D02*
X4650Y2500D01*
X13209Y1797D02*
X13495Y1797D01*
X13352Y1797D02*
X13352Y2297D01*
X13399Y2226D01*
X13447Y2178D01*
X13495Y2154D01*
X13019Y2250D02*
X12995Y2273D01*
X12947Y2297D01*
X12828Y2297D01*
X12780Y2273D01*
X12757Y2250D01*
X12733Y2202D01*
X12733Y2154D01*
X12757Y2083D01*
X13042Y1797D01*
X12733Y1797D01*
X12590Y2297D02*
X12423Y1797D01*
X12257Y2297D01*
X9733Y2059D02*
X9900Y2059D01*
X9900Y1797D02*
X9900Y2297D01*
X9661Y2297D01*
X9471Y2059D02*
X9304Y2059D01*
X9233Y1797D02*
X9471Y1797D01*
X9471Y2297D01*
X9233Y2297D01*
X9090Y2297D02*
X8804Y2297D01*
X8947Y1797D02*
X8947Y2297D01*
X8400Y2297D02*
X8638Y2297D01*
X8661Y2059D01*
X8638Y2083D01*
X8590Y2107D01*
X8471Y2107D01*
X8423Y2083D01*
X8400Y2059D01*
X8376Y2011D01*
X8376Y1892D01*
X8400Y1845D01*
X8423Y1821D01*
X8471Y1797D01*
X8590Y1797D01*
X8638Y1821D01*
X8661Y1845D01*
X6233Y2059D02*
X6400Y2059D01*
X6400Y1797D02*
X6400Y2297D01*
X6161Y2297D01*
X5971Y2059D02*
X5804Y2059D01*
X5733Y1797D02*
X5971Y1797D01*
X5971Y2297D01*
X5733Y2297D01*
X5590Y2297D02*
X5304Y2297D01*
X5447Y1797D02*
X5447Y2297D01*
X4923Y2297D02*
X5019Y2297D01*
X5066Y2273D01*
X5090Y2250D01*
X5138Y2178D01*
X5161Y2083D01*
X5161Y1892D01*
X5138Y1845D01*
X5114Y1821D01*
X5066Y1797D01*
X4971Y1797D01*
X4923Y1821D01*
X4900Y1845D01*
X4876Y1892D01*
X4876Y2011D01*
X4900Y2059D01*
X4923Y2083D01*
X4971Y2107D01*
X5066Y2107D01*
X5114Y2083D01*
X5138Y2059D01*
X5161Y2011D01*
X13400Y750D02*
X13400Y250D01*
X13150Y500D02*
X13650Y500D01*
X12150Y500D02*
X12650Y500D01*
X9650Y750D02*
X9650Y250D01*
X9400Y500D02*
X9900Y500D01*
X8400Y500D02*
X8900Y500D01*
X6150Y750D02*
X6150Y250D01*
X5900Y500D02*
X6400Y500D01*
X4900Y500D02*
X5400Y500D01*
X3400Y17500D02*
X3400Y12500D01*
X-600Y17500D02*
X3400Y17500D01*
X-600Y9500D02*
X3400Y9500D01*
X-600Y6500D02*
X3400Y6500D01*
X-600Y3500D02*
X3400Y3500D01*
X3400Y500D02*
X-600Y500D01*
X3400Y12500D02*
X3400Y500D01*
X-600Y12500D02*
X3400Y12500D01*
X-250Y4250D02*
X550Y4250D01*
X150Y4650D02*
X150Y3850D01*
X150Y6150D02*
X150Y5350D01*
X150Y3150D02*
X150Y2350D01*
X150Y1650D02*
X150Y850D01*
X-250Y1250D02*
X550Y1250D01*
X-250Y7250D02*
X550Y7250D01*
X150Y7650D02*
X150Y6850D01*
X150Y9150D02*
X150Y8350D01*
X150Y12150D02*
X150Y11350D01*
X150Y10650D02*
X150Y9850D01*
X-250Y10250D02*
X550Y10250D01*
X2804Y2552D02*
X2804Y2285D01*
X3223Y2171D02*
X3223Y2552D01*
X2423Y2552D01*
X2423Y2171D01*
X2423Y1676D02*
X2423Y1600D01*
X2461Y1523D01*
X2500Y1485D01*
X2576Y1447D01*
X2728Y1409D01*
X2919Y1409D01*
X3071Y1447D01*
X3147Y1485D01*
X3185Y1523D01*
X3223Y1600D01*
X3223Y1676D01*
X3185Y1752D01*
X3147Y1790D01*
X3071Y1828D01*
X2919Y1866D01*
X2728Y1866D01*
X2576Y1828D01*
X2500Y1790D01*
X2461Y1752D01*
X2423Y1676D01*
X2804Y5552D02*
X2804Y5285D01*
X3223Y5171D02*
X3223Y5552D01*
X2423Y5552D01*
X2423Y5171D01*
X3223Y4409D02*
X3223Y4866D01*
X3223Y4638D02*
X2423Y4638D01*
X2538Y4714D01*
X2614Y4790D01*
X2652Y4866D01*
X2804Y8552D02*
X2804Y8285D01*
X3223Y8171D02*
X3223Y8552D01*
X2423Y8552D01*
X2423Y8171D01*
X2500Y7866D02*
X2461Y7828D01*
X2423Y7752D01*
X2423Y7561D01*
X2461Y7485D01*
X2500Y7447D01*
X2576Y7409D01*
X2652Y7409D01*
X2766Y7447D01*
X3223Y7904D01*
X3223Y7409D01*
X2423Y11152D02*
X2423Y11533D01*
X2804Y11571D01*
X2766Y11533D01*
X2728Y11457D01*
X2728Y11266D01*
X2766Y11190D01*
X2804Y11152D01*
X2880Y11114D01*
X3071Y11114D01*
X3147Y11152D01*
X3185Y11190D01*
X3223Y11266D01*
X3223Y11457D01*
X3185Y11533D01*
X3147Y11571D01*
X2423Y10885D02*
X3223Y10619D01*
X2423Y10352D01*
X3223Y16066D02*
X2423Y16066D01*
X2423Y15761D01*
X2461Y15685D01*
X2500Y15647D01*
X2576Y15609D01*
X2690Y15609D01*
X2766Y15647D01*
X2804Y15685D01*
X2842Y15761D01*
X2842Y16066D01*
X2423Y15342D02*
X3223Y15152D01*
X2652Y15000D01*
X3223Y14847D01*
X2423Y14657D01*
X3223Y13895D02*
X2842Y14161D01*
X3223Y14352D02*
X2423Y14352D01*
X2423Y14047D01*
X2461Y13971D01*
X2500Y13933D01*
X2576Y13895D01*
X2690Y13895D01*
X2766Y13933D01*
X2804Y13971D01*
X2842Y14047D01*
X2842Y14352D01*
X3223Y37490D02*
X2423Y37490D01*
X2995Y37223D01*
X2423Y36957D01*
X3223Y36957D01*
X2423Y36423D02*
X2423Y36271D01*
X2461Y36195D01*
X2538Y36119D01*
X2690Y36080D01*
X2957Y36080D01*
X3109Y36119D01*
X3185Y36195D01*
X3223Y36271D01*
X3223Y36423D01*
X3185Y36500D01*
X3109Y36576D01*
X2957Y36614D01*
X2690Y36614D01*
X2538Y36576D01*
X2461Y36500D01*
X2423Y36423D01*
X2423Y35852D02*
X2423Y35395D01*
X3223Y35623D02*
X2423Y35623D01*
X4463Y37566D02*
X3663Y37566D01*
X3663Y37261D01*
X3701Y37185D01*
X3740Y37147D01*
X3816Y37109D01*
X3930Y37109D01*
X4006Y37147D01*
X4044Y37185D01*
X4082Y37261D01*
X4082Y37566D01*
X3663Y36842D02*
X4463Y36652D01*
X3892Y36500D01*
X4463Y36347D01*
X3663Y36157D01*
X4463Y35395D02*
X4082Y35661D01*
X4463Y35852D02*
X3663Y35852D01*
X3663Y35547D01*
X3701Y35471D01*
X3740Y35433D01*
X3816Y35395D01*
X3930Y35395D01*
X4006Y35433D01*
X4044Y35471D01*
X4082Y35547D01*
X4082Y35852D01*
X2804Y33204D02*
X2842Y33090D01*
X2880Y33052D01*
X2957Y33014D01*
X3071Y33014D01*
X3147Y33052D01*
X3185Y33090D01*
X3223Y33166D01*
X3223Y33471D01*
X2423Y33471D01*
X2423Y33204D01*
X2461Y33128D01*
X2500Y33090D01*
X2576Y33052D01*
X2652Y33052D01*
X2728Y33090D01*
X2766Y33128D01*
X2804Y33204D01*
X2804Y33471D01*
X2804Y32671D02*
X2804Y32404D01*
X3223Y32290D02*
X3223Y32671D01*
X2423Y32671D01*
X2423Y32290D01*
X3223Y31947D02*
X2423Y31947D01*
X2423Y31757D01*
X2461Y31642D01*
X2538Y31566D01*
X2614Y31528D01*
X2766Y31490D01*
X2880Y31490D01*
X3033Y31528D01*
X3109Y31566D01*
X3185Y31642D01*
X3223Y31757D01*
X3223Y31947D01*
X4463Y33566D02*
X3663Y33566D01*
X3663Y33261D01*
X3701Y33185D01*
X3740Y33147D01*
X3816Y33109D01*
X3930Y33109D01*
X4006Y33147D01*
X4044Y33185D01*
X4082Y33261D01*
X4082Y33566D01*
X3663Y32842D02*
X4463Y32652D01*
X3892Y32500D01*
X4463Y32347D01*
X3663Y32157D01*
X4463Y31395D02*
X4082Y31661D01*
X4463Y31852D02*
X3663Y31852D01*
X3663Y31547D01*
X3701Y31471D01*
X3740Y31433D01*
X3816Y31395D01*
X3930Y31395D01*
X4006Y31433D01*
X4044Y31471D01*
X4082Y31547D01*
X4082Y31852D01*
X150Y14400D02*
X150Y13600D01*
X150Y16400D02*
X150Y15600D01*
X-250Y16000D02*
X550Y16000D01*
X150Y31900D02*
X150Y31100D01*
X150Y37900D02*
X150Y37100D01*
X-250Y37500D02*
X550Y37500D01*
X150Y35900D02*
X150Y35100D01*
X150Y33900D02*
X150Y33100D01*
X-250Y33500D02*
X550Y33500D01*
X3400Y38500D02*
X-600Y38500D01*
X3400Y34500D02*
X3400Y38500D01*
X3400Y30500D02*
X-600Y30500D01*
X3400Y34500D02*
X3400Y30500D01*
X-600Y34500D02*
X3400Y34500D01*
X3400Y25000D02*
X-600Y25000D01*
X3400Y29000D02*
X3400Y25000D01*
X-600Y29000D02*
X3400Y29000D01*
X150Y28400D02*
X150Y27600D01*
X150Y26400D02*
X150Y25600D01*
X-250Y26000D02*
X550Y26000D01*
X2804Y27704D02*
X2842Y27590D01*
X2880Y27552D01*
X2957Y27514D01*
X3071Y27514D01*
X3147Y27552D01*
X3185Y27590D01*
X3223Y27666D01*
X3223Y27971D01*
X2423Y27971D01*
X2423Y27704D01*
X2461Y27628D01*
X2500Y27590D01*
X2576Y27552D01*
X2652Y27552D01*
X2728Y27590D01*
X2766Y27628D01*
X2804Y27704D01*
X2804Y27971D01*
X2804Y27171D02*
X2804Y26904D01*
X3223Y26790D02*
X3223Y27171D01*
X2423Y27171D01*
X2423Y26790D01*
X3223Y26447D02*
X2423Y26447D01*
X2423Y26257D01*
X2461Y26142D01*
X2538Y26066D01*
X2614Y26028D01*
X2766Y25990D01*
X2880Y25990D01*
X3033Y26028D01*
X3109Y26066D01*
X3185Y26142D01*
X3223Y26257D01*
X3223Y26447D01*
G54D13*
X3400Y24650D02*
X3400Y24500D01*
X3400Y24500D02*
X8650Y24500D01*
X8650Y24500D02*
X8650Y17500D01*
X8650Y17500D02*
X650Y17500D01*
X650Y17500D02*
X650Y17350D01*
X29650Y30750D02*
X3400Y30750D01*
X3400Y30750D02*
X3400Y24650D01*
X650Y17350D02*
X650Y12250D01*
X650Y11750D02*
X650Y12250D01*
X29650Y9250D02*
X3150Y9250D01*
X34650Y14250D02*
X34650Y25750D01*
X29650Y9250D02*
G75*
G03X34650Y14250I0J5000D01*
G74*
G01*
X34650Y25750D02*
G75*
G03X29650Y30750I-5000J0D01*
G74*
G01*
X650Y11750D02*
G75*
G03X3150Y9250I2500J0D01*
G74*
G01*
%LPC*%
G54D14*
X32400Y11750D03*
X6400Y10500D03*
X6400Y29500D03*
X32400Y28250D03*
G54D15*
X8400Y10000D03*
G54D16*
X8400Y11000D03*
X9400Y10000D03*
X9400Y11000D03*
X10400Y10000D03*
X10400Y11000D03*
X11400Y10000D03*
X11400Y11000D03*
X12400Y10000D03*
X12400Y11000D03*
X13400Y10000D03*
X13400Y11000D03*
X14400Y10000D03*
X14400Y11000D03*
X15400Y10000D03*
X15400Y11000D03*
X16400Y10000D03*
X16400Y11000D03*
X17400Y10000D03*
X17400Y11000D03*
X18400Y10000D03*
X18400Y11000D03*
X19400Y10000D03*
X19400Y11000D03*
X20400Y10000D03*
X20400Y11000D03*
X21400Y10000D03*
X21400Y11000D03*
X22400Y10000D03*
X22400Y11000D03*
X23400Y10000D03*
X23400Y11000D03*
X24400Y10000D03*
X24400Y11000D03*
X25400Y10000D03*
X25400Y11000D03*
X26400Y10000D03*
X26400Y11000D03*
X27400Y10000D03*
X27400Y11000D03*
X28400Y10000D03*
X28400Y11000D03*
X29400Y10000D03*
X29400Y11000D03*
X30400Y10000D03*
X30400Y11000D03*
G54D15*
X8400Y29000D03*
G54D16*
X8400Y30000D03*
X9400Y29000D03*
X9400Y30000D03*
X10400Y29000D03*
X10400Y30000D03*
X11400Y29000D03*
X11400Y30000D03*
X12400Y29000D03*
X12400Y30000D03*
X13400Y29000D03*
X13400Y30000D03*
X14400Y29000D03*
X14400Y30000D03*
X15400Y29000D03*
X15400Y30000D03*
X16400Y29000D03*
X16400Y30000D03*
X17400Y29000D03*
X17400Y30000D03*
X18400Y29000D03*
X18400Y30000D03*
X19400Y29000D03*
X19400Y30000D03*
X20400Y29000D03*
X20400Y30000D03*
X21400Y29000D03*
X21400Y30000D03*
X22400Y29000D03*
X22400Y30000D03*
X23400Y29000D03*
X23400Y30000D03*
X24400Y29000D03*
X24400Y30000D03*
X25400Y29000D03*
X25400Y30000D03*
X26400Y29000D03*
X26400Y30000D03*
X27400Y29000D03*
X27400Y30000D03*
X28400Y29000D03*
X28400Y30000D03*
X29400Y29000D03*
X29400Y30000D03*
X30400Y29000D03*
X30400Y30000D03*
G54D17*
X11400Y32000D03*
X12400Y32000D03*
X13400Y32000D03*
X14400Y32000D03*
X15400Y32000D03*
X16400Y32000D03*
X17400Y32000D03*
X18400Y32000D03*
X18400Y37000D03*
X17400Y37000D03*
X16400Y37000D03*
X15400Y37000D03*
X14400Y37000D03*
X13400Y37000D03*
X12400Y37000D03*
X11400Y37000D03*
X19400Y32000D03*
X20400Y32000D03*
X21400Y32000D03*
X22400Y32000D03*
X23400Y32000D03*
X24400Y32000D03*
X25400Y32000D03*
X26400Y32000D03*
X26400Y37000D03*
X25400Y37000D03*
X24400Y37000D03*
X23400Y37000D03*
X22400Y37000D03*
X21400Y37000D03*
X20400Y37000D03*
X19400Y37000D03*
X27400Y32000D03*
X28400Y32000D03*
X29400Y32000D03*
X30400Y32000D03*
X31400Y32000D03*
X32400Y32000D03*
X33400Y32000D03*
X34400Y32000D03*
X34400Y37000D03*
X33400Y37000D03*
X32400Y37000D03*
X31400Y37000D03*
X30400Y37000D03*
X29400Y37000D03*
X28400Y37000D03*
X27400Y37000D03*
X20900Y8000D03*
X19900Y8000D03*
X18900Y8000D03*
X17900Y8000D03*
X16900Y8000D03*
X15900Y8000D03*
X14900Y8000D03*
X13900Y8000D03*
X13900Y3000D03*
X14900Y3000D03*
X15900Y3000D03*
X16900Y3000D03*
X17900Y3000D03*
X18900Y3000D03*
X19900Y3000D03*
X20900Y3000D03*
X28900Y8000D03*
X27900Y8000D03*
X26900Y8000D03*
X25900Y8000D03*
X24900Y8000D03*
X23900Y8000D03*
X22900Y8000D03*
X21900Y8000D03*
X21900Y3000D03*
X22900Y3000D03*
X23900Y3000D03*
X24900Y3000D03*
X25900Y3000D03*
X26900Y3000D03*
X27900Y3000D03*
X28900Y3000D03*
G54D15*
X14400Y19500D03*
G54D16*
X15400Y19500D03*
X16400Y19500D03*
X17400Y19500D03*
G54D15*
X14900Y35500D03*
G54D16*
X15900Y35500D03*
X14900Y34500D03*
X15900Y34500D03*
X14900Y33500D03*
X15900Y33500D03*
G54D15*
X17400Y4500D03*
G54D16*
X16400Y4500D03*
X17400Y5500D03*
X16400Y5500D03*
X17400Y6500D03*
X16400Y6500D03*
G54D15*
X33400Y4500D03*
G54D16*
X32400Y4500D03*
X33400Y5500D03*
X32400Y5500D03*
X33400Y6500D03*
X32400Y6500D03*
G54D15*
X30900Y35500D03*
G54D16*
X31900Y35500D03*
X30900Y34500D03*
X31900Y34500D03*
X30900Y33500D03*
X31900Y33500D03*
G54D15*
X22900Y35500D03*
G54D16*
X23900Y35500D03*
X22900Y34500D03*
X23900Y34500D03*
X22900Y33500D03*
X23900Y33500D03*
G54D18*
X29400Y25000D03*
G54D16*
X28400Y25000D03*
X27400Y25000D03*
G54D18*
X29400Y24000D03*
G54D16*
X28400Y24000D03*
X27400Y24000D03*
G54D18*
X29400Y26000D03*
G54D16*
X28400Y26000D03*
X27400Y26000D03*
G54D18*
X29400Y27000D03*
G54D16*
X28400Y27000D03*
X27400Y27000D03*
G54D19*
X7400Y27000D03*
X6400Y27000D03*
G54D20*
X8400Y27000D03*
G54D19*
X6650Y6500D03*
X5650Y6500D03*
G54D20*
X7650Y6500D03*
G54D19*
X6650Y4500D03*
X5650Y4500D03*
G54D20*
X7650Y4500D03*
G54D19*
X6650Y8500D03*
X5650Y8500D03*
G54D20*
X7650Y8500D03*
G54D21*
X1400Y35500D03*
G54D22*
X1400Y37500D03*
G54D23*
X13400Y38750D03*
G54D16*
X14400Y38750D03*
X15400Y38750D03*
X16400Y38750D03*
G54D23*
X21400Y38750D03*
G54D16*
X22400Y38750D03*
X23400Y38750D03*
X24400Y38750D03*
G54D23*
X29400Y38750D03*
G54D16*
X30400Y38750D03*
X31400Y38750D03*
X32400Y38750D03*
G54D23*
X18900Y1250D03*
G54D16*
X17900Y1250D03*
X16900Y1250D03*
X15900Y1250D03*
G54D15*
X33400Y14000D03*
G54D16*
X32400Y14000D03*
X33400Y15000D03*
X32400Y15000D03*
X33400Y16000D03*
X32400Y16000D03*
X33400Y17000D03*
X32400Y17000D03*
G54D21*
X1400Y26000D03*
G54D22*
X1400Y28000D03*
G54D21*
X1400Y14000D03*
G54D22*
X1400Y16000D03*
G54D24*
X35514Y34779D03*
X37286Y34779D03*
X35514Y32220D03*
X37286Y32220D03*
G54D23*
X26900Y1250D03*
G54D16*
X25900Y1250D03*
X24900Y1250D03*
X23900Y1250D03*
G54D23*
X34900Y1250D03*
G54D16*
X33900Y1250D03*
X32900Y1250D03*
X31900Y1250D03*
G54D17*
X36900Y8000D03*
X35900Y8000D03*
X34900Y8000D03*
X33900Y8000D03*
X32900Y8000D03*
X31900Y8000D03*
X30900Y8000D03*
X29900Y8000D03*
X29900Y3000D03*
X30900Y3000D03*
X31900Y3000D03*
X32900Y3000D03*
X33900Y3000D03*
X34900Y3000D03*
X35900Y3000D03*
X36900Y3000D03*
G54D15*
X25400Y4500D03*
G54D16*
X24400Y4500D03*
X25400Y5500D03*
X24400Y5500D03*
X25400Y6500D03*
X24400Y6500D03*
G54D15*
X17400Y15000D03*
G54D16*
X18400Y15000D03*
X19400Y15000D03*
X20400Y15000D03*
X21400Y15000D03*
X22400Y15000D03*
G54D15*
X19400Y17000D03*
G54D16*
X20400Y17000D03*
X21400Y17000D03*
X22400Y17000D03*
G54D15*
X12400Y6000D03*
G54D16*
X11400Y6000D03*
X10400Y6000D03*
G54D19*
X10400Y8250D03*
G54D20*
X11400Y8250D03*
G54D19*
X12400Y8250D03*
G54D15*
X17400Y14000D03*
G54D16*
X18400Y14000D03*
X19400Y14000D03*
X20400Y14000D03*
X21400Y14000D03*
X22400Y14000D03*
G54D15*
X13400Y1250D03*
G54D16*
X12400Y1250D03*
G54D25*
X5400Y16680D03*
X8400Y15320D03*
G54D26*
X6900Y16000D03*
G54D25*
X5400Y38180D03*
X8400Y36820D03*
G54D26*
X6900Y37500D03*
G54D25*
X5400Y33430D03*
X8400Y32070D03*
G54D26*
X6900Y32750D03*
G54D15*
X9650Y1250D03*
G54D16*
X8650Y1250D03*
G54D15*
X6150Y1250D03*
G54D16*
X5150Y1250D03*
G54D18*
X20400Y21500D03*
G54D17*
X19400Y21500D03*
X20400Y22500D03*
X19400Y22500D03*
X20400Y23500D03*
X19400Y23500D03*
X20400Y24500D03*
X19400Y24500D03*
X20400Y25500D03*
X19400Y25500D03*
X20400Y26500D03*
X19400Y26500D03*
G54D15*
X33900Y29500D03*
G54D16*
X34900Y29500D03*
G54D27*
X1175Y2688D03*
G54D28*
X1175Y1311D03*
G54D27*
X1175Y5688D03*
G54D28*
X1175Y4311D03*
G54D27*
X1175Y8688D03*
G54D28*
X1175Y7311D03*
G54D18*
X21400Y19000D03*
G54D17*
X22400Y19000D03*
G54D21*
X1400Y31500D03*
G54D22*
X1400Y33500D03*
G54D15*
X27150Y15000D03*
G54D16*
X27150Y14000D03*
G54D15*
X33400Y26500D03*
G54D16*
X33400Y25500D03*
G54D15*
X33400Y19000D03*
G54D16*
X33400Y20000D03*
X33400Y21000D03*
X33400Y22000D03*
X33400Y23000D03*
X33400Y24000D03*
G54D15*
X32400Y19000D03*
G54D16*
X31400Y19000D03*
X32400Y20000D03*
X31400Y20000D03*
X32400Y21000D03*
X31400Y21000D03*
X32400Y22000D03*
X31400Y22000D03*
X32400Y23000D03*
X31400Y23000D03*
X32400Y24000D03*
X31400Y24000D03*
G54D24*
X35514Y38779D03*
X37286Y38779D03*
X35514Y36220D03*
X37286Y36220D03*
G54D15*
X33900Y30500D03*
G54D16*
X34900Y30500D03*
G54D15*
X14400Y15000D03*
G54D16*
X15400Y15000D03*
X14400Y14000D03*
X15400Y14000D03*
X14400Y13000D03*
X15400Y13000D03*
G54D15*
X17400Y12250D03*
G54D16*
X18400Y12250D03*
X19400Y12250D03*
X20400Y12250D03*
X21400Y12250D03*
X22400Y12250D03*
G54D15*
X25400Y12500D03*
G54D16*
X26400Y12500D03*
X27400Y12500D03*
X28400Y12500D03*
X29400Y12500D03*
X30400Y12500D03*
G54D15*
X31900Y30500D03*
G54D16*
X32900Y30500D03*
G54D27*
X1175Y11688D03*
G54D28*
X1175Y10311D03*
M02*
