G04 (created by PCBNEW (2013-07-07 BZR 4022)-stable) date 5/29/2014 4:36:17 PM*
%MOIN*%
G04 Gerber Fmt 3.4, Leading zero omitted, Abs format*
%FSLAX34Y34*%
G01*
G70*
G90*
G04 APERTURE LIST*
%ADD10C,0.00590551*%
%ADD11C,0.01*%
%ADD12C,0.012*%
%ADD13C,0.015*%
%ADD14C,0.011811*%
%ADD15C,0.02*%
%ADD16C,0.004*%
%ADD17C,0.008*%
%ADD18R,0.085X0.085*%
%ADD19O,0.085X0.085*%
%ADD20C,0.124331*%
%ADD21C,0.085*%
%ADD22C,0.09*%
%ADD23R,0.09X0.09*%
%ADD24R,0.085X0.08*%
%ADD25R,0.075X0.1184*%
%ADD26C,0.13811*%
%ADD27R,0.13811X0.13811*%
%ADD28C,0.114488*%
%ADD29R,0.114488X0.114488*%
%ADD30C,0.236535*%
G04 APERTURE END LIST*
G54D10*
G54D11*
X5918Y36766D02*
X5918Y37266D01*
X5680Y36766D02*
X5680Y37266D01*
X5394Y36766D01*
X5394Y37266D01*
X6489Y36478D02*
X6394Y36478D01*
X6347Y36454D01*
X6299Y36407D01*
X6275Y36312D01*
X6275Y36145D01*
X6299Y36050D01*
X6347Y36002D01*
X6394Y35978D01*
X6489Y35978D01*
X6537Y36002D01*
X6585Y36050D01*
X6608Y36145D01*
X6608Y36312D01*
X6585Y36407D01*
X6537Y36454D01*
X6489Y36478D01*
X6061Y36478D02*
X6061Y36073D01*
X6037Y36026D01*
X6013Y36002D01*
X5966Y35978D01*
X5870Y35978D01*
X5823Y36002D01*
X5799Y36026D01*
X5775Y36073D01*
X5775Y36478D01*
X5608Y36478D02*
X5323Y36478D01*
X5466Y35978D02*
X5466Y36478D01*
G54D12*
X7244Y36181D02*
X6850Y36181D01*
X7244Y35590D02*
X7244Y36181D01*
X7244Y36968D02*
X6259Y36968D01*
X7244Y37559D02*
X7244Y36968D01*
G54D13*
X6062Y18759D02*
X6259Y18759D01*
X6062Y17381D02*
X6259Y17381D01*
X6259Y20137D02*
X6259Y16003D01*
X5669Y22401D02*
X6062Y22401D01*
X5669Y33622D02*
X6062Y33622D01*
X5669Y39527D02*
X6062Y39527D01*
X5669Y43464D02*
X6062Y43464D01*
G54D11*
X5746Y18201D02*
X5770Y18154D01*
X5770Y18082D01*
X5746Y18011D01*
X5698Y17963D01*
X5651Y17939D01*
X5555Y17916D01*
X5484Y17916D01*
X5389Y17939D01*
X5341Y17963D01*
X5293Y18011D01*
X5270Y18082D01*
X5270Y18130D01*
X5293Y18201D01*
X5317Y18225D01*
X5484Y18225D01*
X5484Y18130D01*
X5770Y19353D02*
X5770Y19115D01*
X5531Y19091D01*
X5555Y19115D01*
X5579Y19163D01*
X5579Y19282D01*
X5555Y19329D01*
X5531Y19353D01*
X5484Y19377D01*
X5365Y19377D01*
X5317Y19353D01*
X5293Y19329D01*
X5270Y19282D01*
X5270Y19163D01*
X5293Y19115D01*
X5317Y19091D01*
X5770Y19520D02*
X5270Y19686D01*
X5770Y19853D01*
X5770Y16216D02*
X5270Y16383D01*
X5770Y16550D01*
X5460Y16716D02*
X5460Y17097D01*
X5270Y16907D02*
X5651Y16907D01*
G54D13*
X6062Y16003D02*
X9015Y16003D01*
X6062Y13248D02*
X9015Y13248D01*
X6062Y10492D02*
X9015Y10492D01*
X9015Y7736D02*
X6062Y7736D01*
X9015Y20137D02*
X9015Y7736D01*
X6062Y20137D02*
X9015Y20137D01*
X6062Y20433D02*
X6062Y24370D01*
X9606Y20433D02*
X6062Y20433D01*
X9606Y24370D02*
X9606Y20433D01*
X6062Y24370D02*
X9606Y24370D01*
X6062Y31653D02*
X6062Y35590D01*
X9606Y31653D02*
X6062Y31653D01*
X9606Y35590D02*
X9606Y31653D01*
X6062Y35590D02*
X9606Y35590D01*
X6062Y41496D02*
X9606Y41496D01*
X6062Y37559D02*
X6062Y45433D01*
X9606Y37559D02*
X6062Y37559D01*
X9606Y45433D02*
X9606Y37559D01*
X6062Y45433D02*
X9606Y45433D01*
X6062Y41496D02*
X5000Y41496D01*
X6062Y35590D02*
X5000Y35590D01*
X6062Y37559D02*
X5000Y37559D01*
X6062Y45433D02*
X5000Y45433D01*
X6062Y24370D02*
X5000Y24370D01*
X6062Y31653D02*
X5000Y31653D01*
X6062Y20433D02*
X5000Y20433D01*
X6062Y20137D02*
X5000Y20137D01*
X6062Y16003D02*
X5000Y16003D01*
X6062Y13248D02*
X5000Y13248D01*
X6062Y10492D02*
X5000Y10492D01*
X6062Y7736D02*
X5000Y7736D01*
G54D14*
X6723Y32272D02*
X6695Y32356D01*
X6667Y32384D01*
X6611Y32412D01*
X6526Y32412D01*
X6470Y32384D01*
X6442Y32356D01*
X6414Y32300D01*
X6414Y32075D01*
X7005Y32075D01*
X7005Y32272D01*
X6976Y32328D01*
X6948Y32356D01*
X6892Y32384D01*
X6836Y32384D01*
X6780Y32356D01*
X6751Y32328D01*
X6723Y32272D01*
X6723Y32075D01*
X6723Y32665D02*
X6723Y32862D01*
X6414Y32947D02*
X6414Y32665D01*
X7005Y32665D01*
X7005Y32947D01*
X6414Y33200D02*
X7005Y33200D01*
X7005Y33340D01*
X6976Y33425D01*
X6920Y33481D01*
X6864Y33509D01*
X6751Y33537D01*
X6667Y33537D01*
X6555Y33509D01*
X6498Y33481D01*
X6442Y33425D01*
X6414Y33340D01*
X6414Y33200D01*
X6414Y33790D02*
X7005Y33790D01*
X6723Y33790D02*
X6723Y34128D01*
X6414Y34128D02*
X7005Y34128D01*
X7005Y34325D02*
X7005Y34662D01*
X6414Y34493D02*
X7005Y34493D01*
X6414Y35196D02*
X6695Y35000D01*
X6414Y34859D02*
X7005Y34859D01*
X7005Y35084D01*
X6976Y35140D01*
X6948Y35168D01*
X6892Y35196D01*
X6808Y35196D01*
X6751Y35168D01*
X6723Y35140D01*
X6695Y35084D01*
X6695Y34859D01*
G54D11*
X5746Y34225D02*
X5770Y34177D01*
X5770Y34106D01*
X5746Y34034D01*
X5698Y33987D01*
X5651Y33963D01*
X5555Y33939D01*
X5484Y33939D01*
X5389Y33963D01*
X5341Y33987D01*
X5293Y34034D01*
X5270Y34106D01*
X5270Y34153D01*
X5293Y34225D01*
X5317Y34249D01*
X5484Y34249D01*
X5484Y34153D01*
X5270Y34463D02*
X5770Y34463D01*
X5270Y34749D01*
X5770Y34749D01*
X5270Y34987D02*
X5770Y34987D01*
X5770Y35106D01*
X5746Y35177D01*
X5698Y35225D01*
X5651Y35249D01*
X5555Y35272D01*
X5484Y35272D01*
X5389Y35249D01*
X5341Y35225D01*
X5293Y35177D01*
X5270Y35106D01*
X5270Y34987D01*
X5531Y32197D02*
X5508Y32268D01*
X5484Y32292D01*
X5436Y32316D01*
X5365Y32316D01*
X5317Y32292D01*
X5293Y32268D01*
X5270Y32221D01*
X5270Y32030D01*
X5770Y32030D01*
X5770Y32197D01*
X5746Y32244D01*
X5722Y32268D01*
X5674Y32292D01*
X5627Y32292D01*
X5579Y32268D01*
X5555Y32244D01*
X5531Y32197D01*
X5531Y32030D01*
X5531Y32530D02*
X5531Y32697D01*
X5270Y32768D02*
X5270Y32530D01*
X5770Y32530D01*
X5770Y32768D01*
X5270Y32983D02*
X5770Y32983D01*
X5770Y33102D01*
X5746Y33173D01*
X5698Y33221D01*
X5651Y33244D01*
X5555Y33268D01*
X5484Y33268D01*
X5389Y33244D01*
X5341Y33221D01*
X5293Y33173D01*
X5270Y33102D01*
X5270Y32983D01*
X5531Y38102D02*
X5508Y38174D01*
X5484Y38198D01*
X5436Y38221D01*
X5365Y38221D01*
X5317Y38198D01*
X5293Y38174D01*
X5270Y38126D01*
X5270Y37936D01*
X5770Y37936D01*
X5770Y38102D01*
X5746Y38150D01*
X5722Y38174D01*
X5674Y38198D01*
X5627Y38198D01*
X5579Y38174D01*
X5555Y38150D01*
X5531Y38102D01*
X5531Y37936D01*
X5531Y38436D02*
X5531Y38602D01*
X5270Y38674D02*
X5270Y38436D01*
X5770Y38436D01*
X5770Y38674D01*
X5270Y38888D02*
X5770Y38888D01*
X5770Y39007D01*
X5746Y39079D01*
X5698Y39126D01*
X5651Y39150D01*
X5555Y39174D01*
X5484Y39174D01*
X5389Y39150D01*
X5341Y39126D01*
X5293Y39079D01*
X5270Y39007D01*
X5270Y38888D01*
X5746Y40130D02*
X5770Y40083D01*
X5770Y40011D01*
X5746Y39940D01*
X5698Y39892D01*
X5651Y39868D01*
X5555Y39845D01*
X5484Y39845D01*
X5389Y39868D01*
X5341Y39892D01*
X5293Y39940D01*
X5270Y40011D01*
X5270Y40059D01*
X5293Y40130D01*
X5317Y40154D01*
X5484Y40154D01*
X5484Y40059D01*
X5270Y40368D02*
X5770Y40368D01*
X5270Y40654D01*
X5770Y40654D01*
X5270Y40892D02*
X5770Y40892D01*
X5770Y41011D01*
X5746Y41083D01*
X5698Y41130D01*
X5651Y41154D01*
X5555Y41178D01*
X5484Y41178D01*
X5389Y41154D01*
X5341Y41130D01*
X5293Y41083D01*
X5270Y41011D01*
X5270Y40892D01*
G54D14*
X6723Y38079D02*
X6695Y38163D01*
X6667Y38191D01*
X6611Y38219D01*
X6526Y38219D01*
X6470Y38191D01*
X6442Y38163D01*
X6414Y38107D01*
X6414Y37882D01*
X7005Y37882D01*
X7005Y38079D01*
X6976Y38135D01*
X6948Y38163D01*
X6892Y38191D01*
X6836Y38191D01*
X6780Y38163D01*
X6751Y38135D01*
X6723Y38079D01*
X6723Y37882D01*
X6723Y38473D02*
X6723Y38669D01*
X6414Y38754D02*
X6414Y38473D01*
X7005Y38473D01*
X7005Y38754D01*
X6414Y39007D02*
X7005Y39007D01*
X7005Y39147D01*
X6976Y39232D01*
X6920Y39288D01*
X6864Y39316D01*
X6751Y39344D01*
X6667Y39344D01*
X6555Y39316D01*
X6498Y39288D01*
X6442Y39232D01*
X6414Y39147D01*
X6414Y39007D01*
X6414Y39597D02*
X7005Y39597D01*
X7005Y39822D01*
X6976Y39879D01*
X6948Y39907D01*
X6892Y39935D01*
X6808Y39935D01*
X6751Y39907D01*
X6723Y39879D01*
X6695Y39822D01*
X6695Y39597D01*
X7005Y40132D02*
X6414Y40272D01*
X6836Y40385D01*
X6414Y40497D01*
X7005Y40638D01*
X6414Y41200D02*
X6695Y41003D01*
X6414Y40863D02*
X7005Y40863D01*
X7005Y41088D01*
X6976Y41144D01*
X6948Y41172D01*
X6892Y41200D01*
X6808Y41200D01*
X6751Y41172D01*
X6723Y41144D01*
X6695Y41088D01*
X6695Y40863D01*
X6414Y41847D02*
X7005Y41847D01*
X6583Y42044D01*
X7005Y42241D01*
X6414Y42241D01*
X7005Y42634D02*
X7005Y42747D01*
X6976Y42803D01*
X6920Y42859D01*
X6808Y42888D01*
X6611Y42888D01*
X6498Y42859D01*
X6442Y42803D01*
X6414Y42747D01*
X6414Y42634D01*
X6442Y42578D01*
X6498Y42522D01*
X6611Y42494D01*
X6808Y42494D01*
X6920Y42522D01*
X6976Y42578D01*
X7005Y42634D01*
X7005Y43056D02*
X7005Y43394D01*
X6414Y43225D02*
X7005Y43225D01*
X7005Y43703D02*
X7005Y43816D01*
X6976Y43872D01*
X6920Y43928D01*
X6808Y43956D01*
X6611Y43956D01*
X6498Y43928D01*
X6442Y43872D01*
X6414Y43816D01*
X6414Y43703D01*
X6442Y43647D01*
X6498Y43591D01*
X6611Y43562D01*
X6808Y43562D01*
X6920Y43591D01*
X6976Y43647D01*
X7005Y43703D01*
X6414Y44547D02*
X6695Y44350D01*
X6414Y44209D02*
X7005Y44209D01*
X7005Y44434D01*
X6976Y44491D01*
X6948Y44519D01*
X6892Y44547D01*
X6808Y44547D01*
X6751Y44519D01*
X6723Y44491D01*
X6695Y44434D01*
X6695Y44209D01*
X6442Y44772D02*
X6414Y44856D01*
X6414Y44997D01*
X6442Y45053D01*
X6470Y45081D01*
X6526Y45109D01*
X6583Y45109D01*
X6639Y45081D01*
X6667Y45053D01*
X6695Y44997D01*
X6723Y44884D01*
X6751Y44828D01*
X6780Y44800D01*
X6836Y44772D01*
X6892Y44772D01*
X6948Y44800D01*
X6976Y44828D01*
X7005Y44884D01*
X7005Y45025D01*
X6976Y45109D01*
G54D11*
X5746Y44067D02*
X5770Y44020D01*
X5770Y43948D01*
X5746Y43877D01*
X5698Y43829D01*
X5651Y43805D01*
X5555Y43782D01*
X5484Y43782D01*
X5389Y43805D01*
X5341Y43829D01*
X5293Y43877D01*
X5270Y43948D01*
X5270Y43996D01*
X5293Y44067D01*
X5317Y44091D01*
X5484Y44091D01*
X5484Y43996D01*
X5270Y44305D02*
X5770Y44305D01*
X5270Y44591D01*
X5770Y44591D01*
X5270Y44829D02*
X5770Y44829D01*
X5770Y44948D01*
X5746Y45020D01*
X5698Y45067D01*
X5651Y45091D01*
X5555Y45115D01*
X5484Y45115D01*
X5389Y45091D01*
X5341Y45067D01*
X5293Y45020D01*
X5270Y44948D01*
X5270Y44829D01*
X5270Y41861D02*
X5770Y41861D01*
X5412Y42027D01*
X5770Y42194D01*
X5270Y42194D01*
X5770Y42527D02*
X5770Y42623D01*
X5746Y42670D01*
X5698Y42718D01*
X5603Y42742D01*
X5436Y42742D01*
X5341Y42718D01*
X5293Y42670D01*
X5270Y42623D01*
X5270Y42527D01*
X5293Y42480D01*
X5341Y42432D01*
X5436Y42408D01*
X5603Y42408D01*
X5698Y42432D01*
X5746Y42480D01*
X5770Y42527D01*
X5770Y42885D02*
X5770Y43170D01*
X5270Y43027D02*
X5770Y43027D01*
X6594Y16666D02*
X6594Y16904D01*
X6451Y16618D02*
X6951Y16785D01*
X6451Y16951D01*
X6951Y17118D02*
X6546Y17118D01*
X6498Y17142D01*
X6474Y17166D01*
X6451Y17213D01*
X6451Y17308D01*
X6474Y17356D01*
X6498Y17380D01*
X6546Y17404D01*
X6951Y17404D01*
X6951Y17594D02*
X6451Y17928D01*
X6951Y17928D02*
X6451Y17594D01*
X6451Y18118D02*
X6951Y18118D01*
X6951Y18308D01*
X6927Y18356D01*
X6903Y18380D01*
X6855Y18404D01*
X6784Y18404D01*
X6736Y18380D01*
X6713Y18356D01*
X6689Y18308D01*
X6689Y18118D01*
X6951Y18570D02*
X6451Y18689D01*
X6808Y18785D01*
X6451Y18880D01*
X6951Y18999D01*
X6451Y19475D02*
X6689Y19308D01*
X6451Y19189D02*
X6951Y19189D01*
X6951Y19380D01*
X6927Y19428D01*
X6903Y19451D01*
X6855Y19475D01*
X6784Y19475D01*
X6736Y19451D01*
X6713Y19428D01*
X6689Y19380D01*
X6689Y19189D01*
X5270Y20750D02*
X5770Y20750D01*
X5770Y20941D01*
X5746Y20988D01*
X5722Y21012D01*
X5674Y21036D01*
X5603Y21036D01*
X5555Y21012D01*
X5531Y20988D01*
X5508Y20941D01*
X5508Y20750D01*
X5770Y21203D02*
X5270Y21322D01*
X5627Y21417D01*
X5270Y21512D01*
X5770Y21631D01*
X5270Y22107D02*
X5508Y21941D01*
X5270Y21822D02*
X5770Y21822D01*
X5770Y22012D01*
X5746Y22060D01*
X5722Y22083D01*
X5674Y22107D01*
X5603Y22107D01*
X5555Y22083D01*
X5531Y22060D01*
X5508Y22012D01*
X5508Y21822D01*
X5746Y23004D02*
X5770Y22957D01*
X5770Y22885D01*
X5746Y22814D01*
X5698Y22766D01*
X5651Y22742D01*
X5555Y22719D01*
X5484Y22719D01*
X5389Y22742D01*
X5341Y22766D01*
X5293Y22814D01*
X5270Y22885D01*
X5270Y22933D01*
X5293Y23004D01*
X5317Y23028D01*
X5484Y23028D01*
X5484Y22933D01*
X5270Y23242D02*
X5770Y23242D01*
X5270Y23528D01*
X5770Y23528D01*
X5270Y23766D02*
X5770Y23766D01*
X5770Y23885D01*
X5746Y23957D01*
X5698Y24004D01*
X5651Y24028D01*
X5555Y24052D01*
X5484Y24052D01*
X5389Y24028D01*
X5341Y24004D01*
X5293Y23957D01*
X5270Y23885D01*
X5270Y23766D01*
G54D12*
X5275Y8425D02*
X6062Y8425D01*
X5669Y8818D02*
X5669Y8031D01*
X5669Y10196D02*
X5669Y9409D01*
X5275Y11181D02*
X6062Y11181D01*
X5669Y11574D02*
X5669Y10787D01*
X5669Y12952D02*
X5669Y12165D01*
X5275Y13937D02*
X6062Y13937D01*
X5669Y14330D02*
X5669Y13543D01*
X5669Y15708D02*
X5669Y14921D01*
X31000Y44000D02*
X31000Y46500D01*
X27000Y44000D02*
X31000Y44000D01*
X27000Y46500D02*
X27000Y44000D01*
X23000Y44000D02*
X23000Y46500D01*
X19000Y44000D02*
X23000Y44000D01*
X19000Y46500D02*
X19000Y44000D01*
X39000Y44000D02*
X39000Y46500D01*
X35000Y44000D02*
X39000Y44000D01*
X35000Y46500D02*
X35000Y44000D01*
G54D15*
X17404Y45583D02*
X18404Y44916D01*
X17404Y44916D02*
X18404Y45583D01*
X25928Y45250D02*
X26404Y45250D01*
X25404Y45583D02*
X25928Y45250D01*
X25404Y44916D01*
G54D12*
X41000Y10000D02*
X41000Y7500D01*
X37000Y10000D02*
X41000Y10000D01*
X37000Y7500D02*
X37000Y10000D01*
X33000Y10000D02*
X33000Y7500D01*
X29000Y10000D02*
X33000Y10000D01*
X29000Y7500D02*
X29000Y10000D01*
X25000Y10000D02*
X25000Y7500D01*
X21000Y10000D02*
X25000Y10000D01*
X21000Y7500D02*
X21000Y10000D01*
G54D15*
X33404Y45583D02*
X33404Y44916D01*
X34404Y45583D01*
X34404Y44916D01*
X25880Y9440D02*
X25880Y9107D01*
X26404Y8964D02*
X26404Y9440D01*
X25404Y9440D01*
X25404Y8964D01*
X25404Y8345D02*
X25404Y8250D01*
X25452Y8154D01*
X25500Y8107D01*
X25595Y8059D01*
X25785Y8011D01*
X26023Y8011D01*
X26214Y8059D01*
X26309Y8107D01*
X26357Y8154D01*
X26404Y8250D01*
X26404Y8345D01*
X26357Y8440D01*
X26309Y8488D01*
X26214Y8535D01*
X26023Y8583D01*
X25785Y8583D01*
X25595Y8535D01*
X25500Y8488D01*
X25452Y8440D01*
X25404Y8345D01*
X34130Y9440D02*
X34130Y9107D01*
X34654Y8964D02*
X34654Y9440D01*
X33654Y9440D01*
X33654Y8964D01*
X34654Y8011D02*
X34654Y8583D01*
X34654Y8297D02*
X33654Y8297D01*
X33797Y8392D01*
X33892Y8488D01*
X33940Y8583D01*
X41880Y9440D02*
X41880Y9107D01*
X42404Y8964D02*
X42404Y9440D01*
X41404Y9440D01*
X41404Y8964D01*
X41500Y8583D02*
X41452Y8535D01*
X41404Y8440D01*
X41404Y8202D01*
X41452Y8107D01*
X41500Y8059D01*
X41595Y8011D01*
X41690Y8011D01*
X41833Y8059D01*
X42404Y8630D01*
X42404Y8011D01*
G54D12*
X19000Y10000D02*
X19000Y7500D01*
X17000Y10000D02*
X19000Y10000D01*
X17000Y7500D02*
X17000Y10000D01*
X14000Y10000D02*
X14000Y7500D01*
X12000Y10000D02*
X14000Y10000D01*
X12000Y7500D02*
X12000Y10000D01*
G54D11*
X18583Y9559D02*
X18750Y9559D01*
X18750Y9297D02*
X18750Y9797D01*
X18511Y9797D01*
X18321Y9559D02*
X18154Y9559D01*
X18083Y9297D02*
X18321Y9297D01*
X18321Y9797D01*
X18083Y9797D01*
X17940Y9797D02*
X17654Y9797D01*
X17797Y9297D02*
X17797Y9797D01*
X17250Y9797D02*
X17488Y9797D01*
X17511Y9559D01*
X17488Y9583D01*
X17440Y9607D01*
X17321Y9607D01*
X17273Y9583D01*
X17250Y9559D01*
X17226Y9511D01*
X17226Y9392D01*
X17250Y9345D01*
X17273Y9321D01*
X17321Y9297D01*
X17440Y9297D01*
X17488Y9321D01*
X17511Y9345D01*
X13583Y9559D02*
X13750Y9559D01*
X13750Y9297D02*
X13750Y9797D01*
X13511Y9797D01*
X13321Y9559D02*
X13154Y9559D01*
X13083Y9297D02*
X13321Y9297D01*
X13321Y9797D01*
X13083Y9797D01*
X12940Y9797D02*
X12654Y9797D01*
X12797Y9297D02*
X12797Y9797D01*
X12273Y9797D02*
X12369Y9797D01*
X12416Y9773D01*
X12440Y9750D01*
X12488Y9678D01*
X12511Y9583D01*
X12511Y9392D01*
X12488Y9345D01*
X12464Y9321D01*
X12416Y9297D01*
X12321Y9297D01*
X12273Y9321D01*
X12250Y9345D01*
X12226Y9392D01*
X12226Y9511D01*
X12250Y9559D01*
X12273Y9583D01*
X12321Y9607D01*
X12416Y9607D01*
X12464Y9583D01*
X12488Y9559D01*
X12511Y9511D01*
G54D12*
X18500Y8250D02*
X18500Y7750D01*
X18250Y8000D02*
X18750Y8000D01*
X17250Y8000D02*
X17750Y8000D01*
X13500Y8250D02*
X13500Y7750D01*
X13250Y8000D02*
X13750Y8000D01*
X12250Y8000D02*
X12750Y8000D01*
X5000Y24500D02*
X9000Y24500D01*
X6847Y8561D02*
X6847Y8828D01*
X6428Y8942D02*
X6428Y8561D01*
X7228Y8561D01*
X7228Y8942D01*
X7228Y9437D02*
X7228Y9514D01*
X7190Y9590D01*
X7151Y9628D01*
X7075Y9666D01*
X6923Y9704D01*
X6732Y9704D01*
X6580Y9666D01*
X6504Y9628D01*
X6466Y9590D01*
X6428Y9514D01*
X6428Y9437D01*
X6466Y9361D01*
X6504Y9323D01*
X6580Y9285D01*
X6732Y9247D01*
X6923Y9247D01*
X7075Y9285D01*
X7151Y9323D01*
X7190Y9361D01*
X7228Y9437D01*
X6847Y11317D02*
X6847Y11584D01*
X6428Y11698D02*
X6428Y11317D01*
X7228Y11317D01*
X7228Y11698D01*
X6428Y12460D02*
X6428Y12003D01*
X6428Y12231D02*
X7228Y12231D01*
X7113Y12155D01*
X7037Y12079D01*
X6999Y12003D01*
X6847Y14073D02*
X6847Y14340D01*
X6428Y14454D02*
X6428Y14073D01*
X7228Y14073D01*
X7228Y14454D01*
X7151Y14759D02*
X7190Y14797D01*
X7228Y14873D01*
X7228Y15064D01*
X7190Y15140D01*
X7151Y15178D01*
X7075Y15216D01*
X6999Y15216D01*
X6885Y15178D01*
X6428Y14721D01*
X6428Y15216D01*
G54D14*
X6723Y20840D02*
X6723Y21037D01*
X6414Y21122D02*
X6414Y20840D01*
X7005Y20840D01*
X7005Y21122D01*
X7005Y21318D02*
X6414Y21712D01*
X7005Y21712D02*
X6414Y21318D01*
X7005Y21853D02*
X7005Y22190D01*
X6414Y22021D02*
X7005Y22021D01*
X6414Y22387D02*
X7005Y22387D01*
X7005Y22612D01*
X6976Y22668D01*
X6948Y22696D01*
X6892Y22724D01*
X6808Y22724D01*
X6751Y22696D01*
X6723Y22668D01*
X6695Y22612D01*
X6695Y22387D01*
X7005Y22921D02*
X6414Y23062D01*
X6836Y23174D01*
X6414Y23287D01*
X7005Y23428D01*
X6414Y23990D02*
X6695Y23793D01*
X6414Y23652D02*
X7005Y23652D01*
X7005Y23877D01*
X6976Y23934D01*
X6948Y23962D01*
X6892Y23990D01*
X6808Y23990D01*
X6751Y23962D01*
X6723Y23934D01*
X6695Y23877D01*
X6695Y23652D01*
G54D12*
X27000Y18750D02*
X27000Y19750D01*
X26000Y19750D02*
X26000Y18750D01*
X26000Y18750D02*
X32000Y18750D01*
X32000Y18750D02*
X32000Y19750D01*
X32000Y19750D02*
X26000Y19750D01*
G54D16*
X17000Y18500D02*
X17000Y16500D01*
X17000Y16500D02*
X40000Y16500D01*
X40000Y16500D02*
X40000Y18500D01*
X40000Y18500D02*
X17000Y18500D01*
X17000Y37500D02*
X17000Y35500D01*
X17000Y35500D02*
X40000Y35500D01*
X40000Y35500D02*
X40000Y37500D01*
X40000Y37500D02*
X17000Y37500D01*
G54D13*
X42750Y18750D02*
G75*
G03X42750Y18750I-1250J0D01*
G74*
G01*
X42750Y35250D02*
G75*
G03X42750Y35250I-1250J0D01*
G74*
G01*
X16750Y36500D02*
G75*
G03X16750Y36500I-1250J0D01*
G74*
G01*
X16750Y17500D02*
G75*
G03X16750Y17500I-1250J0D01*
G74*
G01*
G54D11*
X40000Y16500D02*
X17000Y16500D01*
X40000Y18500D02*
X40000Y16500D01*
X17000Y18500D02*
X40000Y18500D01*
X17000Y16500D02*
X17000Y18500D01*
X18000Y17500D02*
X18000Y16500D01*
X17000Y17500D02*
X18000Y17500D01*
X17000Y36500D02*
X18000Y36500D01*
X18000Y36500D02*
X18000Y35500D01*
X17000Y35500D02*
X17000Y37500D01*
X17000Y37500D02*
X40000Y37500D01*
X40000Y37500D02*
X40000Y35500D01*
X40000Y35500D02*
X17000Y35500D01*
G54D13*
X12500Y31650D02*
X12500Y31500D01*
X12500Y31500D02*
X17750Y31500D01*
X17750Y31500D02*
X17750Y24500D01*
X17750Y24500D02*
X9750Y24500D01*
X9750Y24500D02*
X9750Y24350D01*
X38750Y37750D02*
X12500Y37750D01*
X12500Y37750D02*
X12500Y31650D01*
X9750Y24350D02*
X9750Y19250D01*
X9750Y18750D02*
X9750Y19250D01*
X38750Y16250D02*
X12250Y16250D01*
X43750Y21250D02*
X43750Y32750D01*
X38750Y16250D02*
G75*
G03X43750Y21250I0J5000D01*
G74*
G01*
X43750Y32750D02*
G75*
G03X38750Y37750I-5000J0D01*
G74*
G01*
X9750Y18750D02*
G75*
G03X12250Y16250I2500J0D01*
G74*
G01*
G54D17*
X29676Y20088D02*
X29676Y20488D01*
X29523Y20488D01*
X29485Y20469D01*
X29466Y20450D01*
X29447Y20411D01*
X29447Y20354D01*
X29466Y20316D01*
X29485Y20297D01*
X29523Y20278D01*
X29676Y20278D01*
X29066Y20088D02*
X29295Y20088D01*
X29180Y20088D02*
X29180Y20488D01*
X29219Y20430D01*
X29257Y20392D01*
X29295Y20373D01*
X28819Y20488D02*
X28780Y20488D01*
X28742Y20469D01*
X28723Y20450D01*
X28704Y20411D01*
X28685Y20335D01*
X28685Y20240D01*
X28704Y20164D01*
X28723Y20126D01*
X28742Y20107D01*
X28780Y20088D01*
X28819Y20088D01*
X28857Y20107D01*
X28876Y20126D01*
X28895Y20164D01*
X28914Y20240D01*
X28914Y20335D01*
X28895Y20411D01*
X28876Y20450D01*
X28857Y20469D01*
X28819Y20488D01*
X28304Y20088D02*
X28533Y20088D01*
X28419Y20088D02*
X28419Y20488D01*
X28457Y20430D01*
X28495Y20392D01*
X28533Y20373D01*
G54D12*
X17692Y18757D02*
X17692Y19357D01*
X17464Y19357D01*
X17407Y19328D01*
X17378Y19300D01*
X17350Y19242D01*
X17350Y19157D01*
X17378Y19100D01*
X17407Y19071D01*
X17464Y19042D01*
X17692Y19042D01*
X17064Y18757D02*
X16950Y18757D01*
X16892Y18785D01*
X16864Y18814D01*
X16807Y18900D01*
X16778Y19014D01*
X16778Y19242D01*
X16807Y19300D01*
X16835Y19328D01*
X16892Y19357D01*
X17007Y19357D01*
X17064Y19328D01*
X17092Y19300D01*
X17121Y19242D01*
X17121Y19100D01*
X17092Y19042D01*
X17064Y19014D01*
X17007Y18985D01*
X16892Y18985D01*
X16835Y19014D01*
X16807Y19042D01*
X16778Y19100D01*
X17942Y34507D02*
X17942Y35107D01*
X17714Y35107D01*
X17657Y35078D01*
X17628Y35050D01*
X17600Y34992D01*
X17600Y34907D01*
X17628Y34850D01*
X17657Y34821D01*
X17714Y34792D01*
X17942Y34792D01*
X17257Y34850D02*
X17314Y34878D01*
X17342Y34907D01*
X17371Y34964D01*
X17371Y34992D01*
X17342Y35050D01*
X17314Y35078D01*
X17257Y35107D01*
X17142Y35107D01*
X17085Y35078D01*
X17057Y35050D01*
X17028Y34992D01*
X17028Y34964D01*
X17057Y34907D01*
X17085Y34878D01*
X17142Y34850D01*
X17257Y34850D01*
X17314Y34821D01*
X17342Y34792D01*
X17371Y34735D01*
X17371Y34621D01*
X17342Y34564D01*
X17314Y34535D01*
X17257Y34507D01*
X17142Y34507D01*
X17085Y34535D01*
X17057Y34564D01*
X17028Y34621D01*
X17028Y34735D01*
X17057Y34792D01*
X17085Y34821D01*
X17142Y34850D01*
%LPC*%
G54D18*
X11000Y18000D03*
G54D19*
X10000Y18000D03*
G54D20*
X11492Y43830D03*
X11492Y45169D03*
X15507Y43830D03*
X15507Y45169D03*
G54D18*
X18500Y19750D03*
G54D21*
X19500Y19750D03*
G54D18*
X20500Y19750D03*
G54D21*
X21500Y19750D03*
G54D18*
X35500Y21000D03*
G54D21*
X36500Y21000D03*
G54D22*
X11500Y36000D03*
X11500Y37000D03*
G54D23*
X11500Y35000D03*
G54D22*
X13250Y13500D03*
X12250Y13500D03*
G54D23*
X14250Y13500D03*
G54D22*
X13250Y11500D03*
X12250Y11500D03*
G54D23*
X14250Y11500D03*
G54D22*
X13250Y15500D03*
X12250Y15500D03*
G54D23*
X14250Y15500D03*
G54D24*
X19500Y45250D03*
G54D21*
X20500Y45250D03*
X21500Y45250D03*
X22500Y45250D03*
G54D24*
X27500Y45250D03*
G54D21*
X28500Y45250D03*
X29500Y45250D03*
X30500Y45250D03*
G54D24*
X35500Y45250D03*
G54D21*
X36500Y45250D03*
X37500Y45250D03*
X38500Y45250D03*
G54D24*
X40500Y8750D03*
G54D21*
X39500Y8750D03*
X38500Y8750D03*
X37500Y8750D03*
G54D25*
X41614Y40779D03*
X43386Y40779D03*
X41614Y38220D03*
X43386Y38220D03*
G54D24*
X32500Y8750D03*
G54D21*
X31500Y8750D03*
X30500Y8750D03*
X29500Y8750D03*
G54D24*
X24500Y8750D03*
G54D21*
X23500Y8750D03*
X22500Y8750D03*
X21500Y8750D03*
G54D18*
X18500Y8750D03*
G54D21*
X17500Y8750D03*
G54D18*
X13500Y8750D03*
G54D21*
X12500Y8750D03*
G54D18*
X42500Y33500D03*
G54D21*
X42500Y32500D03*
G54D18*
X42500Y26000D03*
G54D21*
X42500Y27000D03*
X42500Y28000D03*
X42500Y29000D03*
X42500Y30000D03*
X42500Y31000D03*
G54D18*
X41500Y26000D03*
G54D21*
X40500Y26000D03*
X41500Y27000D03*
X40500Y27000D03*
X41500Y28000D03*
X40500Y28000D03*
X41500Y29000D03*
X40500Y29000D03*
X41500Y30000D03*
X40500Y30000D03*
X41500Y31000D03*
X40500Y31000D03*
G54D25*
X41614Y44779D03*
X43386Y44779D03*
X41614Y42220D03*
X43386Y42220D03*
G54D18*
X26500Y19250D03*
G54D21*
X27500Y19250D03*
X28500Y19250D03*
X29500Y19250D03*
X30500Y19250D03*
X31500Y19250D03*
G54D18*
X34500Y19500D03*
G54D21*
X35500Y19500D03*
X36500Y19500D03*
X37500Y19500D03*
X38500Y19500D03*
X39500Y19500D03*
G54D18*
X17500Y17000D03*
G54D21*
X17500Y18000D03*
X18500Y17000D03*
X18500Y18000D03*
X19500Y17000D03*
X19500Y18000D03*
X20500Y17000D03*
X20500Y18000D03*
X21500Y17000D03*
X21500Y18000D03*
X22500Y17000D03*
X22500Y18000D03*
X23500Y17000D03*
X23500Y18000D03*
X24500Y17000D03*
X24500Y18000D03*
X25500Y17000D03*
X25500Y18000D03*
X26500Y17000D03*
X26500Y18000D03*
X27500Y17000D03*
X27500Y18000D03*
X28500Y17000D03*
X28500Y18000D03*
X29500Y17000D03*
X29500Y18000D03*
X30500Y17000D03*
X30500Y18000D03*
X31500Y17000D03*
X31500Y18000D03*
X32500Y17000D03*
X32500Y18000D03*
X33500Y17000D03*
X33500Y18000D03*
X34500Y17000D03*
X34500Y18000D03*
X35500Y17000D03*
X35500Y18000D03*
X36500Y17000D03*
X36500Y18000D03*
X37500Y17000D03*
X37500Y18000D03*
X38500Y17000D03*
X38500Y18000D03*
X39500Y17000D03*
X39500Y18000D03*
G54D18*
X17500Y36000D03*
G54D21*
X17500Y37000D03*
X18500Y36000D03*
X18500Y37000D03*
X19500Y36000D03*
X19500Y37000D03*
X20500Y36000D03*
X20500Y37000D03*
X21500Y36000D03*
X21500Y37000D03*
X22500Y36000D03*
X22500Y37000D03*
X23500Y36000D03*
X23500Y37000D03*
X24500Y36000D03*
X24500Y37000D03*
X25500Y36000D03*
X25500Y37000D03*
X26500Y36000D03*
X26500Y37000D03*
X27500Y36000D03*
X27500Y37000D03*
X28500Y36000D03*
X28500Y37000D03*
X29500Y36000D03*
X29500Y37000D03*
X30500Y36000D03*
X30500Y37000D03*
X31500Y36000D03*
X31500Y37000D03*
X32500Y36000D03*
X32500Y37000D03*
X33500Y36000D03*
X33500Y37000D03*
X34500Y36000D03*
X34500Y37000D03*
X35500Y36000D03*
X35500Y37000D03*
X36500Y36000D03*
X36500Y37000D03*
X37500Y36000D03*
X37500Y37000D03*
X38500Y36000D03*
X38500Y37000D03*
X39500Y36000D03*
X39500Y37000D03*
X26500Y15500D03*
X25500Y15500D03*
X24500Y15500D03*
X23500Y15500D03*
X22500Y15500D03*
X21500Y15500D03*
X20500Y15500D03*
X19500Y15500D03*
X19500Y10500D03*
X20500Y10500D03*
X21500Y10500D03*
X22500Y10500D03*
X23500Y10500D03*
X24500Y10500D03*
X25500Y10500D03*
X26500Y10500D03*
X34500Y15500D03*
X33500Y15500D03*
X32500Y15500D03*
X31500Y15500D03*
X30500Y15500D03*
X29500Y15500D03*
X28500Y15500D03*
X27500Y15500D03*
X27500Y10500D03*
X28500Y10500D03*
X29500Y10500D03*
X30500Y10500D03*
X31500Y10500D03*
X32500Y10500D03*
X33500Y10500D03*
X34500Y10500D03*
X42500Y15500D03*
X41500Y15500D03*
X40500Y15500D03*
X39500Y15500D03*
X38500Y15500D03*
X37500Y15500D03*
X36500Y15500D03*
X35500Y15500D03*
X35500Y10500D03*
X36500Y10500D03*
X37500Y10500D03*
X38500Y10500D03*
X39500Y10500D03*
X40500Y10500D03*
X41500Y10500D03*
X42500Y10500D03*
X33500Y38500D03*
X34500Y38500D03*
X35500Y38500D03*
X36500Y38500D03*
X37500Y38500D03*
X38500Y38500D03*
X39500Y38500D03*
X40500Y38500D03*
X40500Y43500D03*
X39500Y43500D03*
X38500Y43500D03*
X37500Y43500D03*
X36500Y43500D03*
X35500Y43500D03*
X34500Y43500D03*
X33500Y43500D03*
X25500Y38500D03*
X26500Y38500D03*
X27500Y38500D03*
X28500Y38500D03*
X29500Y38500D03*
X30500Y38500D03*
X31500Y38500D03*
X32500Y38500D03*
X32500Y43500D03*
X31500Y43500D03*
X30500Y43500D03*
X29500Y43500D03*
X28500Y43500D03*
X27500Y43500D03*
X26500Y43500D03*
X25500Y43500D03*
X17500Y38500D03*
X18500Y38500D03*
X19500Y38500D03*
X20500Y38500D03*
X21500Y38500D03*
X22500Y38500D03*
X23500Y38500D03*
X24500Y38500D03*
X24500Y43500D03*
X23500Y43500D03*
X22500Y43500D03*
X21500Y43500D03*
X20500Y43500D03*
X19500Y43500D03*
X18500Y43500D03*
X17500Y43500D03*
G54D26*
X7834Y34606D03*
G54D27*
X7834Y32637D03*
G54D26*
X7834Y23385D03*
G54D27*
X7834Y21417D03*
G54D26*
X7834Y44448D03*
G54D27*
X7834Y42480D03*
G54D26*
X7834Y40511D03*
G54D27*
X7834Y38543D03*
G54D28*
X7834Y15314D03*
G54D29*
X7834Y13937D03*
G54D28*
X7834Y9803D03*
G54D29*
X7834Y8425D03*
G54D28*
X7834Y12559D03*
G54D29*
X7834Y11181D03*
G54D28*
X7834Y18070D03*
G54D29*
X7834Y16692D03*
G54D28*
X7834Y19448D03*
G54D30*
X41500Y18750D03*
X15500Y17500D03*
X15500Y36500D03*
X41500Y35250D03*
G54D18*
X38500Y33000D03*
G54D21*
X38500Y32000D03*
X37500Y33000D03*
X37500Y32000D03*
X36500Y33000D03*
X36500Y32000D03*
X35500Y33000D03*
X35500Y32000D03*
G54D18*
X30500Y33000D03*
G54D21*
X30500Y32000D03*
X29500Y33000D03*
X29500Y32000D03*
X28500Y33000D03*
X28500Y32000D03*
X27500Y33000D03*
X27500Y32000D03*
G54D18*
X41500Y21000D03*
G54D21*
X40500Y21000D03*
X41500Y22000D03*
X40500Y22000D03*
X41500Y23000D03*
X40500Y23000D03*
X41500Y24000D03*
X40500Y24000D03*
G54D18*
X31000Y12000D03*
G54D21*
X30000Y12000D03*
X31000Y13000D03*
X30000Y13000D03*
X31000Y14000D03*
X30000Y14000D03*
G54D18*
X39000Y12000D03*
G54D21*
X38000Y12000D03*
X39000Y13000D03*
X38000Y13000D03*
X39000Y14000D03*
X38000Y14000D03*
G54D18*
X23000Y12000D03*
G54D21*
X22000Y12000D03*
X23000Y13000D03*
X22000Y13000D03*
X23000Y14000D03*
X22000Y14000D03*
G54D18*
X37000Y42000D03*
G54D21*
X38000Y42000D03*
X37000Y41000D03*
X38000Y41000D03*
X37000Y40000D03*
X38000Y40000D03*
G54D18*
X29000Y42000D03*
G54D21*
X30000Y42000D03*
X29000Y41000D03*
X30000Y41000D03*
X29000Y40000D03*
X30000Y40000D03*
G54D18*
X21000Y42000D03*
G54D21*
X22000Y42000D03*
X21000Y41000D03*
X22000Y41000D03*
X21000Y40000D03*
X22000Y40000D03*
G54D18*
X21500Y33000D03*
G54D21*
X21500Y32000D03*
X20500Y33000D03*
X20500Y32000D03*
X19500Y33000D03*
X19500Y32000D03*
G54D18*
X33500Y21500D03*
G54D21*
X32500Y21500D03*
X33500Y22500D03*
X32500Y22500D03*
G54D20*
X11492Y22330D03*
X11492Y23669D03*
X15507Y22330D03*
X15507Y23669D03*
X11492Y39830D03*
X11492Y41169D03*
X15507Y39830D03*
X15507Y41169D03*
M02*
