G04 (created by PCBNEW (2013-07-07 BZR 4022)-stable) date 2/10/2014 10:43:56 AM*
%MOIN*%
G04 Gerber Fmt 3.4, Leading zero omitted, Abs format*
%FSLAX34Y34*%
G01*
G70*
G90*
G04 APERTURE LIST*
%ADD10C,0.005*%
%ADD11C,0.015*%
%ADD12C,0.00787402*%
%ADD13C,0.011811*%
G04 APERTURE END LIST*
G54D10*
G54D11*
X38400Y0D02*
X-600Y0D01*
X38400Y9500D02*
X38400Y0D01*
X34900Y13000D02*
X38400Y9500D01*
X34900Y27000D02*
X34900Y13000D01*
X38400Y30500D02*
X34900Y27000D01*
X38400Y40000D02*
X38400Y30500D01*
X-600Y40000D02*
X38400Y40000D01*
X-600Y24500D02*
X-600Y40000D01*
X8650Y24500D02*
X-600Y24500D01*
X8650Y17500D02*
X8650Y24500D01*
X-600Y17500D02*
X8650Y17500D01*
X-600Y0D02*
X-600Y17500D01*
G54D12*
X9111Y22730D02*
X9231Y22610D01*
X9231Y22730D02*
X9111Y22610D01*
X9850Y23123D02*
X9970Y23003D01*
X9970Y23123D02*
X9850Y23003D01*
X10840Y23060D02*
X10960Y22940D01*
X10960Y23060D02*
X10840Y22940D01*
X11340Y21560D02*
X11460Y21440D01*
X11460Y21560D02*
X11340Y21440D01*
X12174Y12368D02*
X12294Y12248D01*
X12294Y12368D02*
X12174Y12248D01*
X12412Y25465D02*
X12532Y25345D01*
X12532Y25465D02*
X12412Y25345D01*
X12512Y24637D02*
X12632Y24517D01*
X12632Y24637D02*
X12512Y24517D01*
X12529Y23783D02*
X12649Y23663D01*
X12649Y23783D02*
X12529Y23663D01*
X12529Y21714D02*
X12649Y21594D01*
X12649Y21714D02*
X12529Y21594D01*
X12628Y13284D02*
X12748Y13164D01*
X12748Y13284D02*
X12628Y13164D01*
X12742Y25458D02*
X12862Y25338D01*
X12862Y25458D02*
X12742Y25338D01*
X12936Y24741D02*
X13056Y24621D01*
X13056Y24741D02*
X12936Y24621D01*
X13564Y19784D02*
X13684Y19664D01*
X13684Y19784D02*
X13564Y19664D01*
X13667Y21580D02*
X13787Y21460D01*
X13787Y21580D02*
X13667Y21460D01*
X13839Y20047D02*
X13959Y19927D01*
X13959Y20047D02*
X13839Y19927D01*
X13926Y20406D02*
X14046Y20286D01*
X14046Y20406D02*
X13926Y20286D01*
X13971Y20887D02*
X14091Y20767D01*
X14091Y20887D02*
X13971Y20767D01*
X15011Y25526D02*
X15131Y25406D01*
X15131Y25526D02*
X15011Y25406D01*
X15271Y26312D02*
X15391Y26192D01*
X15391Y26312D02*
X15271Y26192D01*
X15284Y22715D02*
X15404Y22595D01*
X15404Y22715D02*
X15284Y22595D01*
X15715Y20354D02*
X15835Y20234D01*
X15835Y20354D02*
X15715Y20234D01*
X15885Y20828D02*
X16005Y20708D01*
X16005Y20828D02*
X15885Y20708D01*
X16265Y24216D02*
X16385Y24096D01*
X16385Y24216D02*
X16265Y24096D01*
X20079Y27763D02*
X20199Y27643D01*
X20199Y27763D02*
X20079Y27643D01*
X20444Y9143D02*
X20564Y9023D01*
X20564Y9143D02*
X20444Y9023D01*
X21344Y22980D02*
X21464Y22860D01*
X21464Y22980D02*
X21344Y22860D01*
X21987Y27545D02*
X22107Y27425D01*
X22107Y27545D02*
X21987Y27425D01*
X22144Y20239D02*
X22264Y20119D01*
X22264Y20239D02*
X22144Y20119D01*
X22353Y23686D02*
X22473Y23566D01*
X22473Y23686D02*
X22353Y23566D01*
X22354Y22005D02*
X22474Y21885D01*
X22474Y22005D02*
X22354Y21885D01*
X22965Y15810D02*
X23085Y15690D01*
X23085Y15810D02*
X22965Y15690D01*
X23322Y22734D02*
X23442Y22614D01*
X23442Y22734D02*
X23322Y22614D01*
X23327Y23669D02*
X23447Y23549D01*
X23447Y23669D02*
X23327Y23549D01*
X23340Y24779D02*
X23460Y24659D01*
X23460Y24779D02*
X23340Y24659D01*
X23340Y15435D02*
X23460Y15315D01*
X23460Y15435D02*
X23340Y15315D01*
X23385Y27905D02*
X23505Y27785D01*
X23505Y27905D02*
X23385Y27785D01*
X23541Y24492D02*
X23661Y24372D01*
X23661Y24492D02*
X23541Y24372D01*
X23565Y22989D02*
X23685Y22869D01*
X23685Y22989D02*
X23565Y22869D01*
X23663Y23663D02*
X23783Y23543D01*
X23783Y23663D02*
X23663Y23543D01*
X23938Y21520D02*
X24058Y21400D01*
X24058Y21520D02*
X23938Y21400D01*
X23965Y17560D02*
X24085Y17440D01*
X24085Y17560D02*
X23965Y17440D01*
X23965Y13310D02*
X24085Y13190D01*
X24085Y13310D02*
X23965Y13190D01*
X24038Y23663D02*
X24158Y23543D01*
X24158Y23663D02*
X24038Y23543D01*
X24590Y15435D02*
X24710Y15315D01*
X24710Y15435D02*
X24590Y15315D01*
X25441Y23735D02*
X25561Y23615D01*
X25561Y23735D02*
X25441Y23615D01*
X25714Y17810D02*
X25834Y17690D01*
X25834Y17810D02*
X25714Y17690D01*
X25760Y19089D02*
X25880Y18969D01*
X25880Y19089D02*
X25760Y18969D01*
X26340Y17810D02*
X26460Y17690D01*
X26460Y17810D02*
X26340Y17690D01*
X26340Y16560D02*
X26460Y16440D01*
X26460Y16560D02*
X26340Y16440D01*
X26778Y28166D02*
X26898Y28046D01*
X26898Y28166D02*
X26778Y28046D01*
X27168Y23302D02*
X27288Y23182D01*
X27288Y23302D02*
X27168Y23182D01*
X28090Y15435D02*
X28210Y15315D01*
X28210Y15435D02*
X28090Y15315D01*
X28590Y15060D02*
X28710Y14940D01*
X28710Y15060D02*
X28590Y14940D01*
X29882Y28346D02*
X30002Y28226D01*
X30002Y28346D02*
X29882Y28226D01*
X30590Y15435D02*
X30710Y15315D01*
X30710Y15435D02*
X30590Y15315D01*
X31090Y15435D02*
X31210Y15315D01*
X31210Y15435D02*
X31090Y15315D01*
X32797Y26670D02*
X32917Y26550D01*
X32917Y26670D02*
X32797Y26550D01*
X33054Y10350D02*
X33174Y10230D01*
X33174Y10350D02*
X33054Y10230D01*
X34484Y31364D02*
X34604Y31244D01*
X34604Y31364D02*
X34484Y31244D01*
X34593Y7533D02*
X34713Y7413D01*
X34713Y7533D02*
X34593Y7413D01*
X36061Y9137D02*
X36181Y9017D01*
X36181Y9137D02*
X36061Y9017D01*
X36584Y7599D02*
X36704Y7479D01*
X36704Y7599D02*
X36584Y7479D01*
X11560Y37000D02*
G75*
G03X11560Y37000I-160J0D01*
G74*
G01*
X11560Y32000D02*
G75*
G03X11560Y32000I-160J0D01*
G74*
G01*
X12560Y37000D02*
G75*
G03X12560Y37000I-160J0D01*
G74*
G01*
X12560Y32000D02*
G75*
G03X12560Y32000I-160J0D01*
G74*
G01*
X13560Y37000D02*
G75*
G03X13560Y37000I-160J0D01*
G74*
G01*
X13560Y32000D02*
G75*
G03X13560Y32000I-160J0D01*
G74*
G01*
X14060Y8000D02*
G75*
G03X14060Y8000I-160J0D01*
G74*
G01*
X14060Y3000D02*
G75*
G03X14060Y3000I-160J0D01*
G74*
G01*
X14560Y37000D02*
G75*
G03X14560Y37000I-160J0D01*
G74*
G01*
X14560Y32000D02*
G75*
G03X14560Y32000I-160J0D01*
G74*
G01*
X15060Y8000D02*
G75*
G03X15060Y8000I-160J0D01*
G74*
G01*
X15060Y3000D02*
G75*
G03X15060Y3000I-160J0D01*
G74*
G01*
X15560Y37000D02*
G75*
G03X15560Y37000I-160J0D01*
G74*
G01*
X15560Y32000D02*
G75*
G03X15560Y32000I-160J0D01*
G74*
G01*
X16060Y8000D02*
G75*
G03X16060Y8000I-160J0D01*
G74*
G01*
X16060Y3000D02*
G75*
G03X16060Y3000I-160J0D01*
G74*
G01*
X16560Y37000D02*
G75*
G03X16560Y37000I-160J0D01*
G74*
G01*
X16560Y32000D02*
G75*
G03X16560Y32000I-160J0D01*
G74*
G01*
X17060Y8000D02*
G75*
G03X17060Y8000I-160J0D01*
G74*
G01*
X17060Y3000D02*
G75*
G03X17060Y3000I-160J0D01*
G74*
G01*
X17560Y37000D02*
G75*
G03X17560Y37000I-160J0D01*
G74*
G01*
X17560Y32000D02*
G75*
G03X17560Y32000I-160J0D01*
G74*
G01*
X18060Y8000D02*
G75*
G03X18060Y8000I-160J0D01*
G74*
G01*
X18060Y3000D02*
G75*
G03X18060Y3000I-160J0D01*
G74*
G01*
X18560Y37000D02*
G75*
G03X18560Y37000I-160J0D01*
G74*
G01*
X18560Y32000D02*
G75*
G03X18560Y32000I-160J0D01*
G74*
G01*
X19060Y8000D02*
G75*
G03X19060Y8000I-160J0D01*
G74*
G01*
X19060Y3000D02*
G75*
G03X19060Y3000I-160J0D01*
G74*
G01*
X19560Y37000D02*
G75*
G03X19560Y37000I-160J0D01*
G74*
G01*
X19560Y32000D02*
G75*
G03X19560Y32000I-160J0D01*
G74*
G01*
X20060Y8000D02*
G75*
G03X20060Y8000I-160J0D01*
G74*
G01*
X20060Y3000D02*
G75*
G03X20060Y3000I-160J0D01*
G74*
G01*
X20560Y37000D02*
G75*
G03X20560Y37000I-160J0D01*
G74*
G01*
X20560Y32000D02*
G75*
G03X20560Y32000I-160J0D01*
G74*
G01*
X21060Y8000D02*
G75*
G03X21060Y8000I-160J0D01*
G74*
G01*
X21060Y3000D02*
G75*
G03X21060Y3000I-160J0D01*
G74*
G01*
X21560Y37000D02*
G75*
G03X21560Y37000I-160J0D01*
G74*
G01*
X21560Y32000D02*
G75*
G03X21560Y32000I-160J0D01*
G74*
G01*
X22060Y8000D02*
G75*
G03X22060Y8000I-160J0D01*
G74*
G01*
X22060Y3000D02*
G75*
G03X22060Y3000I-160J0D01*
G74*
G01*
X22560Y37000D02*
G75*
G03X22560Y37000I-160J0D01*
G74*
G01*
X22560Y32000D02*
G75*
G03X22560Y32000I-160J0D01*
G74*
G01*
X23060Y8000D02*
G75*
G03X23060Y8000I-160J0D01*
G74*
G01*
X23060Y3000D02*
G75*
G03X23060Y3000I-160J0D01*
G74*
G01*
X23560Y37000D02*
G75*
G03X23560Y37000I-160J0D01*
G74*
G01*
X23560Y32000D02*
G75*
G03X23560Y32000I-160J0D01*
G74*
G01*
X24060Y8000D02*
G75*
G03X24060Y8000I-160J0D01*
G74*
G01*
X24060Y3000D02*
G75*
G03X24060Y3000I-160J0D01*
G74*
G01*
X24560Y37000D02*
G75*
G03X24560Y37000I-160J0D01*
G74*
G01*
X24560Y32000D02*
G75*
G03X24560Y32000I-160J0D01*
G74*
G01*
X25060Y8000D02*
G75*
G03X25060Y8000I-160J0D01*
G74*
G01*
X25060Y3000D02*
G75*
G03X25060Y3000I-160J0D01*
G74*
G01*
X25560Y37000D02*
G75*
G03X25560Y37000I-160J0D01*
G74*
G01*
X25560Y32000D02*
G75*
G03X25560Y32000I-160J0D01*
G74*
G01*
X26060Y8000D02*
G75*
G03X26060Y8000I-160J0D01*
G74*
G01*
X26060Y3000D02*
G75*
G03X26060Y3000I-160J0D01*
G74*
G01*
X26560Y37000D02*
G75*
G03X26560Y37000I-160J0D01*
G74*
G01*
X26560Y32000D02*
G75*
G03X26560Y32000I-160J0D01*
G74*
G01*
X27060Y8000D02*
G75*
G03X27060Y8000I-160J0D01*
G74*
G01*
X27060Y3000D02*
G75*
G03X27060Y3000I-160J0D01*
G74*
G01*
X27560Y37000D02*
G75*
G03X27560Y37000I-160J0D01*
G74*
G01*
X27560Y32000D02*
G75*
G03X27560Y32000I-160J0D01*
G74*
G01*
X28060Y8000D02*
G75*
G03X28060Y8000I-160J0D01*
G74*
G01*
X28060Y3000D02*
G75*
G03X28060Y3000I-160J0D01*
G74*
G01*
X28560Y37000D02*
G75*
G03X28560Y37000I-160J0D01*
G74*
G01*
X28560Y32000D02*
G75*
G03X28560Y32000I-160J0D01*
G74*
G01*
X29060Y8000D02*
G75*
G03X29060Y8000I-160J0D01*
G74*
G01*
X29060Y3000D02*
G75*
G03X29060Y3000I-160J0D01*
G74*
G01*
X29560Y37000D02*
G75*
G03X29560Y37000I-160J0D01*
G74*
G01*
X29560Y32000D02*
G75*
G03X29560Y32000I-160J0D01*
G74*
G01*
X30060Y8000D02*
G75*
G03X30060Y8000I-160J0D01*
G74*
G01*
X30060Y3000D02*
G75*
G03X30060Y3000I-160J0D01*
G74*
G01*
X30560Y37000D02*
G75*
G03X30560Y37000I-160J0D01*
G74*
G01*
X30560Y32000D02*
G75*
G03X30560Y32000I-160J0D01*
G74*
G01*
X31060Y8000D02*
G75*
G03X31060Y8000I-160J0D01*
G74*
G01*
X31060Y3000D02*
G75*
G03X31060Y3000I-160J0D01*
G74*
G01*
X31560Y37000D02*
G75*
G03X31560Y37000I-160J0D01*
G74*
G01*
X31560Y32000D02*
G75*
G03X31560Y32000I-160J0D01*
G74*
G01*
X32060Y8000D02*
G75*
G03X32060Y8000I-160J0D01*
G74*
G01*
X32060Y3000D02*
G75*
G03X32060Y3000I-160J0D01*
G74*
G01*
X32560Y37000D02*
G75*
G03X32560Y37000I-160J0D01*
G74*
G01*
X32560Y32000D02*
G75*
G03X32560Y32000I-160J0D01*
G74*
G01*
X33060Y8000D02*
G75*
G03X33060Y8000I-160J0D01*
G74*
G01*
X33060Y3000D02*
G75*
G03X33060Y3000I-160J0D01*
G74*
G01*
X33560Y37000D02*
G75*
G03X33560Y37000I-160J0D01*
G74*
G01*
X33560Y32000D02*
G75*
G03X33560Y32000I-160J0D01*
G74*
G01*
X34060Y8000D02*
G75*
G03X34060Y8000I-160J0D01*
G74*
G01*
X34060Y3000D02*
G75*
G03X34060Y3000I-160J0D01*
G74*
G01*
X34560Y37000D02*
G75*
G03X34560Y37000I-160J0D01*
G74*
G01*
X34560Y32000D02*
G75*
G03X34560Y32000I-160J0D01*
G74*
G01*
X35060Y8000D02*
G75*
G03X35060Y8000I-160J0D01*
G74*
G01*
X35060Y3000D02*
G75*
G03X35060Y3000I-160J0D01*
G74*
G01*
X36060Y8000D02*
G75*
G03X36060Y8000I-160J0D01*
G74*
G01*
X36060Y3000D02*
G75*
G03X36060Y3000I-160J0D01*
G74*
G01*
X37060Y8000D02*
G75*
G03X37060Y8000I-160J0D01*
G74*
G01*
X37060Y3000D02*
G75*
G03X37060Y3000I-160J0D01*
G74*
G01*
X5150Y1450D02*
X5150Y1050D01*
X4950Y1250D02*
X5350Y1250D01*
X5650Y8700D02*
X5650Y8300D01*
X5450Y8500D02*
X5850Y8500D01*
X5650Y6700D02*
X5650Y6300D01*
X5450Y6500D02*
X5850Y6500D01*
X5650Y4700D02*
X5650Y4300D01*
X5450Y4500D02*
X5850Y4500D01*
X6150Y1450D02*
X6150Y1050D01*
X5950Y1250D02*
X6350Y1250D01*
X6400Y27200D02*
X6400Y26800D01*
X6200Y27000D02*
X6600Y27000D01*
X6650Y8700D02*
X6650Y8300D01*
X6450Y8500D02*
X6850Y8500D01*
X6650Y6700D02*
X6650Y6300D01*
X6450Y6500D02*
X6850Y6500D01*
X6650Y4700D02*
X6650Y4300D01*
X6450Y4500D02*
X6850Y4500D01*
X7400Y27200D02*
X7400Y26800D01*
X7200Y27000D02*
X7600Y27000D01*
X7650Y8700D02*
X7650Y8300D01*
X7450Y8500D02*
X7850Y8500D01*
X7650Y6700D02*
X7650Y6300D01*
X7450Y6500D02*
X7850Y6500D01*
X7650Y4700D02*
X7650Y4300D01*
X7450Y4500D02*
X7850Y4500D01*
X8400Y30200D02*
X8400Y29800D01*
X8200Y30000D02*
X8600Y30000D01*
X8400Y29200D02*
X8400Y28800D01*
X8200Y29000D02*
X8600Y29000D01*
X8400Y27200D02*
X8400Y26800D01*
X8200Y27000D02*
X8600Y27000D01*
X8400Y11200D02*
X8400Y10800D01*
X8200Y11000D02*
X8600Y11000D01*
X8400Y10200D02*
X8400Y9800D01*
X8200Y10000D02*
X8600Y10000D01*
X8650Y1450D02*
X8650Y1050D01*
X8450Y1250D02*
X8850Y1250D01*
X9400Y30200D02*
X9400Y29800D01*
X9200Y30000D02*
X9600Y30000D01*
X9400Y29200D02*
X9400Y28800D01*
X9200Y29000D02*
X9600Y29000D01*
X9400Y11200D02*
X9400Y10800D01*
X9200Y11000D02*
X9600Y11000D01*
X9400Y10200D02*
X9400Y9800D01*
X9200Y10000D02*
X9600Y10000D01*
X9650Y1450D02*
X9650Y1050D01*
X9450Y1250D02*
X9850Y1250D01*
X10400Y30200D02*
X10400Y29800D01*
X10200Y30000D02*
X10600Y30000D01*
X10400Y29200D02*
X10400Y28800D01*
X10200Y29000D02*
X10600Y29000D01*
X10400Y11200D02*
X10400Y10800D01*
X10200Y11000D02*
X10600Y11000D01*
X10400Y10200D02*
X10400Y9800D01*
X10200Y10000D02*
X10600Y10000D01*
X10400Y8450D02*
X10400Y8050D01*
X10200Y8250D02*
X10600Y8250D01*
X10400Y6200D02*
X10400Y5800D01*
X10200Y6000D02*
X10600Y6000D01*
X11400Y30200D02*
X11400Y29800D01*
X11200Y30000D02*
X11600Y30000D01*
X11400Y29200D02*
X11400Y28800D01*
X11200Y29000D02*
X11600Y29000D01*
X11400Y11200D02*
X11400Y10800D01*
X11200Y11000D02*
X11600Y11000D01*
X11400Y10200D02*
X11400Y9800D01*
X11200Y10000D02*
X11600Y10000D01*
X11400Y8450D02*
X11400Y8050D01*
X11200Y8250D02*
X11600Y8250D01*
X11400Y6200D02*
X11400Y5800D01*
X11200Y6000D02*
X11600Y6000D01*
X12400Y30200D02*
X12400Y29800D01*
X12200Y30000D02*
X12600Y30000D01*
X12400Y29200D02*
X12400Y28800D01*
X12200Y29000D02*
X12600Y29000D01*
X12400Y11200D02*
X12400Y10800D01*
X12200Y11000D02*
X12600Y11000D01*
X12400Y10200D02*
X12400Y9800D01*
X12200Y10000D02*
X12600Y10000D01*
X12400Y8450D02*
X12400Y8050D01*
X12200Y8250D02*
X12600Y8250D01*
X12400Y6200D02*
X12400Y5800D01*
X12200Y6000D02*
X12600Y6000D01*
X12400Y1450D02*
X12400Y1050D01*
X12200Y1250D02*
X12600Y1250D01*
X13400Y38950D02*
X13400Y38550D01*
X13200Y38750D02*
X13600Y38750D01*
X13400Y30200D02*
X13400Y29800D01*
X13200Y30000D02*
X13600Y30000D01*
X13400Y29200D02*
X13400Y28800D01*
X13200Y29000D02*
X13600Y29000D01*
X13400Y11200D02*
X13400Y10800D01*
X13200Y11000D02*
X13600Y11000D01*
X13400Y10200D02*
X13400Y9800D01*
X13200Y10000D02*
X13600Y10000D01*
X13400Y1450D02*
X13400Y1050D01*
X13200Y1250D02*
X13600Y1250D01*
X14400Y38950D02*
X14400Y38550D01*
X14200Y38750D02*
X14600Y38750D01*
X14400Y30200D02*
X14400Y29800D01*
X14200Y30000D02*
X14600Y30000D01*
X14400Y29200D02*
X14400Y28800D01*
X14200Y29000D02*
X14600Y29000D01*
X14400Y19700D02*
X14400Y19300D01*
X14200Y19500D02*
X14600Y19500D01*
X14400Y15200D02*
X14400Y14800D01*
X14200Y15000D02*
X14600Y15000D01*
X14400Y14200D02*
X14400Y13800D01*
X14200Y14000D02*
X14600Y14000D01*
X14400Y13200D02*
X14400Y12800D01*
X14200Y13000D02*
X14600Y13000D01*
X14400Y11200D02*
X14400Y10800D01*
X14200Y11000D02*
X14600Y11000D01*
X14400Y10200D02*
X14400Y9800D01*
X14200Y10000D02*
X14600Y10000D01*
X14900Y35700D02*
X14900Y35300D01*
X14700Y35500D02*
X15100Y35500D01*
X14900Y34700D02*
X14900Y34300D01*
X14700Y34500D02*
X15100Y34500D01*
X14900Y33700D02*
X14900Y33300D01*
X14700Y33500D02*
X15100Y33500D01*
X15400Y38950D02*
X15400Y38550D01*
X15200Y38750D02*
X15600Y38750D01*
X15400Y30200D02*
X15400Y29800D01*
X15200Y30000D02*
X15600Y30000D01*
X15400Y29200D02*
X15400Y28800D01*
X15200Y29000D02*
X15600Y29000D01*
X15400Y19700D02*
X15400Y19300D01*
X15200Y19500D02*
X15600Y19500D01*
X15400Y15200D02*
X15400Y14800D01*
X15200Y15000D02*
X15600Y15000D01*
X15400Y14200D02*
X15400Y13800D01*
X15200Y14000D02*
X15600Y14000D01*
X15400Y13200D02*
X15400Y12800D01*
X15200Y13000D02*
X15600Y13000D01*
X15400Y11200D02*
X15400Y10800D01*
X15200Y11000D02*
X15600Y11000D01*
X15400Y10200D02*
X15400Y9800D01*
X15200Y10000D02*
X15600Y10000D01*
X15900Y35700D02*
X15900Y35300D01*
X15700Y35500D02*
X16100Y35500D01*
X15900Y34700D02*
X15900Y34300D01*
X15700Y34500D02*
X16100Y34500D01*
X15900Y33700D02*
X15900Y33300D01*
X15700Y33500D02*
X16100Y33500D01*
X15900Y1450D02*
X15900Y1050D01*
X15700Y1250D02*
X16100Y1250D01*
X16400Y38950D02*
X16400Y38550D01*
X16200Y38750D02*
X16600Y38750D01*
X16400Y30200D02*
X16400Y29800D01*
X16200Y30000D02*
X16600Y30000D01*
X16400Y29200D02*
X16400Y28800D01*
X16200Y29000D02*
X16600Y29000D01*
X16400Y19700D02*
X16400Y19300D01*
X16200Y19500D02*
X16600Y19500D01*
X16400Y11200D02*
X16400Y10800D01*
X16200Y11000D02*
X16600Y11000D01*
X16400Y10200D02*
X16400Y9800D01*
X16200Y10000D02*
X16600Y10000D01*
X16400Y6700D02*
X16400Y6300D01*
X16200Y6500D02*
X16600Y6500D01*
X16400Y5700D02*
X16400Y5300D01*
X16200Y5500D02*
X16600Y5500D01*
X16400Y4700D02*
X16400Y4300D01*
X16200Y4500D02*
X16600Y4500D01*
X16900Y1450D02*
X16900Y1050D01*
X16700Y1250D02*
X17100Y1250D01*
X17400Y30200D02*
X17400Y29800D01*
X17200Y30000D02*
X17600Y30000D01*
X17400Y29200D02*
X17400Y28800D01*
X17200Y29000D02*
X17600Y29000D01*
X17400Y19700D02*
X17400Y19300D01*
X17200Y19500D02*
X17600Y19500D01*
X17400Y15200D02*
X17400Y14800D01*
X17200Y15000D02*
X17600Y15000D01*
X17400Y14200D02*
X17400Y13800D01*
X17200Y14000D02*
X17600Y14000D01*
X17400Y12450D02*
X17400Y12050D01*
X17200Y12250D02*
X17600Y12250D01*
X17400Y11200D02*
X17400Y10800D01*
X17200Y11000D02*
X17600Y11000D01*
X17400Y10200D02*
X17400Y9800D01*
X17200Y10000D02*
X17600Y10000D01*
X17400Y6700D02*
X17400Y6300D01*
X17200Y6500D02*
X17600Y6500D01*
X17400Y5700D02*
X17400Y5300D01*
X17200Y5500D02*
X17600Y5500D01*
X17400Y4700D02*
X17400Y4300D01*
X17200Y4500D02*
X17600Y4500D01*
X17900Y1450D02*
X17900Y1050D01*
X17700Y1250D02*
X18100Y1250D01*
X18400Y30200D02*
X18400Y29800D01*
X18200Y30000D02*
X18600Y30000D01*
X18400Y29200D02*
X18400Y28800D01*
X18200Y29000D02*
X18600Y29000D01*
X18400Y15200D02*
X18400Y14800D01*
X18200Y15000D02*
X18600Y15000D01*
X18400Y14200D02*
X18400Y13800D01*
X18200Y14000D02*
X18600Y14000D01*
X18400Y12450D02*
X18400Y12050D01*
X18200Y12250D02*
X18600Y12250D01*
X18400Y11200D02*
X18400Y10800D01*
X18200Y11000D02*
X18600Y11000D01*
X18400Y10200D02*
X18400Y9800D01*
X18200Y10000D02*
X18600Y10000D01*
X18900Y1450D02*
X18900Y1050D01*
X18700Y1250D02*
X19100Y1250D01*
X19400Y30200D02*
X19400Y29800D01*
X19200Y30000D02*
X19600Y30000D01*
X19400Y29200D02*
X19400Y28800D01*
X19200Y29000D02*
X19600Y29000D01*
X19400Y26700D02*
X19400Y26300D01*
X19200Y26500D02*
X19600Y26500D01*
X19400Y25700D02*
X19400Y25300D01*
X19200Y25500D02*
X19600Y25500D01*
X19400Y24700D02*
X19400Y24300D01*
X19200Y24500D02*
X19600Y24500D01*
X19400Y23700D02*
X19400Y23300D01*
X19200Y23500D02*
X19600Y23500D01*
X19400Y22700D02*
X19400Y22300D01*
X19200Y22500D02*
X19600Y22500D01*
X19400Y21700D02*
X19400Y21300D01*
X19200Y21500D02*
X19600Y21500D01*
X19400Y17200D02*
X19400Y16800D01*
X19200Y17000D02*
X19600Y17000D01*
X19400Y15200D02*
X19400Y14800D01*
X19200Y15000D02*
X19600Y15000D01*
X19400Y14200D02*
X19400Y13800D01*
X19200Y14000D02*
X19600Y14000D01*
X19400Y12450D02*
X19400Y12050D01*
X19200Y12250D02*
X19600Y12250D01*
X19400Y11200D02*
X19400Y10800D01*
X19200Y11000D02*
X19600Y11000D01*
X19400Y10200D02*
X19400Y9800D01*
X19200Y10000D02*
X19600Y10000D01*
X20400Y30200D02*
X20400Y29800D01*
X20200Y30000D02*
X20600Y30000D01*
X20400Y29200D02*
X20400Y28800D01*
X20200Y29000D02*
X20600Y29000D01*
X20400Y26700D02*
X20400Y26300D01*
X20200Y26500D02*
X20600Y26500D01*
X20400Y25700D02*
X20400Y25300D01*
X20200Y25500D02*
X20600Y25500D01*
X20400Y24700D02*
X20400Y24300D01*
X20200Y24500D02*
X20600Y24500D01*
X20400Y23700D02*
X20400Y23300D01*
X20200Y23500D02*
X20600Y23500D01*
X20400Y22700D02*
X20400Y22300D01*
X20200Y22500D02*
X20600Y22500D01*
X20400Y21700D02*
X20400Y21300D01*
X20200Y21500D02*
X20600Y21500D01*
X20400Y17200D02*
X20400Y16800D01*
X20200Y17000D02*
X20600Y17000D01*
X20400Y15200D02*
X20400Y14800D01*
X20200Y15000D02*
X20600Y15000D01*
X20400Y14200D02*
X20400Y13800D01*
X20200Y14000D02*
X20600Y14000D01*
X20400Y12450D02*
X20400Y12050D01*
X20200Y12250D02*
X20600Y12250D01*
X20400Y11200D02*
X20400Y10800D01*
X20200Y11000D02*
X20600Y11000D01*
X20400Y10200D02*
X20400Y9800D01*
X20200Y10000D02*
X20600Y10000D01*
X21400Y38950D02*
X21400Y38550D01*
X21200Y38750D02*
X21600Y38750D01*
X21400Y30200D02*
X21400Y29800D01*
X21200Y30000D02*
X21600Y30000D01*
X21400Y29200D02*
X21400Y28800D01*
X21200Y29000D02*
X21600Y29000D01*
X21400Y19200D02*
X21400Y18800D01*
X21200Y19000D02*
X21600Y19000D01*
X21400Y17200D02*
X21400Y16800D01*
X21200Y17000D02*
X21600Y17000D01*
X21400Y15200D02*
X21400Y14800D01*
X21200Y15000D02*
X21600Y15000D01*
X21400Y14200D02*
X21400Y13800D01*
X21200Y14000D02*
X21600Y14000D01*
X21400Y12450D02*
X21400Y12050D01*
X21200Y12250D02*
X21600Y12250D01*
X21400Y11200D02*
X21400Y10800D01*
X21200Y11000D02*
X21600Y11000D01*
X21400Y10200D02*
X21400Y9800D01*
X21200Y10000D02*
X21600Y10000D01*
X22400Y38950D02*
X22400Y38550D01*
X22200Y38750D02*
X22600Y38750D01*
X22400Y30200D02*
X22400Y29800D01*
X22200Y30000D02*
X22600Y30000D01*
X22400Y29200D02*
X22400Y28800D01*
X22200Y29000D02*
X22600Y29000D01*
X22400Y19200D02*
X22400Y18800D01*
X22200Y19000D02*
X22600Y19000D01*
X22400Y17200D02*
X22400Y16800D01*
X22200Y17000D02*
X22600Y17000D01*
X22400Y15200D02*
X22400Y14800D01*
X22200Y15000D02*
X22600Y15000D01*
X22400Y14200D02*
X22400Y13800D01*
X22200Y14000D02*
X22600Y14000D01*
X22400Y12450D02*
X22400Y12050D01*
X22200Y12250D02*
X22600Y12250D01*
X22400Y11200D02*
X22400Y10800D01*
X22200Y11000D02*
X22600Y11000D01*
X22400Y10200D02*
X22400Y9800D01*
X22200Y10000D02*
X22600Y10000D01*
X22900Y35700D02*
X22900Y35300D01*
X22700Y35500D02*
X23100Y35500D01*
X22900Y34700D02*
X22900Y34300D01*
X22700Y34500D02*
X23100Y34500D01*
X22900Y33700D02*
X22900Y33300D01*
X22700Y33500D02*
X23100Y33500D01*
X23400Y38950D02*
X23400Y38550D01*
X23200Y38750D02*
X23600Y38750D01*
X23400Y30200D02*
X23400Y29800D01*
X23200Y30000D02*
X23600Y30000D01*
X23400Y29200D02*
X23400Y28800D01*
X23200Y29000D02*
X23600Y29000D01*
X23400Y11200D02*
X23400Y10800D01*
X23200Y11000D02*
X23600Y11000D01*
X23400Y10200D02*
X23400Y9800D01*
X23200Y10000D02*
X23600Y10000D01*
X23900Y35700D02*
X23900Y35300D01*
X23700Y35500D02*
X24100Y35500D01*
X23900Y34700D02*
X23900Y34300D01*
X23700Y34500D02*
X24100Y34500D01*
X23900Y33700D02*
X23900Y33300D01*
X23700Y33500D02*
X24100Y33500D01*
X23900Y1450D02*
X23900Y1050D01*
X23700Y1250D02*
X24100Y1250D01*
X24400Y38950D02*
X24400Y38550D01*
X24200Y38750D02*
X24600Y38750D01*
X24400Y30200D02*
X24400Y29800D01*
X24200Y30000D02*
X24600Y30000D01*
X24400Y29200D02*
X24400Y28800D01*
X24200Y29000D02*
X24600Y29000D01*
X24400Y11200D02*
X24400Y10800D01*
X24200Y11000D02*
X24600Y11000D01*
X24400Y10200D02*
X24400Y9800D01*
X24200Y10000D02*
X24600Y10000D01*
X24400Y6700D02*
X24400Y6300D01*
X24200Y6500D02*
X24600Y6500D01*
X24400Y5700D02*
X24400Y5300D01*
X24200Y5500D02*
X24600Y5500D01*
X24400Y4700D02*
X24400Y4300D01*
X24200Y4500D02*
X24600Y4500D01*
X24900Y1450D02*
X24900Y1050D01*
X24700Y1250D02*
X25100Y1250D01*
X25400Y30200D02*
X25400Y29800D01*
X25200Y30000D02*
X25600Y30000D01*
X25400Y29200D02*
X25400Y28800D01*
X25200Y29000D02*
X25600Y29000D01*
X25400Y12700D02*
X25400Y12300D01*
X25200Y12500D02*
X25600Y12500D01*
X25400Y11200D02*
X25400Y10800D01*
X25200Y11000D02*
X25600Y11000D01*
X25400Y10200D02*
X25400Y9800D01*
X25200Y10000D02*
X25600Y10000D01*
X25400Y6700D02*
X25400Y6300D01*
X25200Y6500D02*
X25600Y6500D01*
X25400Y5700D02*
X25400Y5300D01*
X25200Y5500D02*
X25600Y5500D01*
X25400Y4700D02*
X25400Y4300D01*
X25200Y4500D02*
X25600Y4500D01*
X25900Y1450D02*
X25900Y1050D01*
X25700Y1250D02*
X26100Y1250D01*
X26400Y30200D02*
X26400Y29800D01*
X26200Y30000D02*
X26600Y30000D01*
X26400Y29200D02*
X26400Y28800D01*
X26200Y29000D02*
X26600Y29000D01*
X26400Y12700D02*
X26400Y12300D01*
X26200Y12500D02*
X26600Y12500D01*
X26400Y11200D02*
X26400Y10800D01*
X26200Y11000D02*
X26600Y11000D01*
X26400Y10200D02*
X26400Y9800D01*
X26200Y10000D02*
X26600Y10000D01*
X26900Y1450D02*
X26900Y1050D01*
X26700Y1250D02*
X27100Y1250D01*
X27150Y15200D02*
X27150Y14800D01*
X26950Y15000D02*
X27350Y15000D01*
X27150Y14200D02*
X27150Y13800D01*
X26950Y14000D02*
X27350Y14000D01*
X27400Y30200D02*
X27400Y29800D01*
X27200Y30000D02*
X27600Y30000D01*
X27400Y29200D02*
X27400Y28800D01*
X27200Y29000D02*
X27600Y29000D01*
X27400Y27200D02*
X27400Y26800D01*
X27200Y27000D02*
X27600Y27000D01*
X27400Y26200D02*
X27400Y25800D01*
X27200Y26000D02*
X27600Y26000D01*
X27400Y25200D02*
X27400Y24800D01*
X27200Y25000D02*
X27600Y25000D01*
X27400Y24200D02*
X27400Y23800D01*
X27200Y24000D02*
X27600Y24000D01*
X27400Y12700D02*
X27400Y12300D01*
X27200Y12500D02*
X27600Y12500D01*
X27400Y11200D02*
X27400Y10800D01*
X27200Y11000D02*
X27600Y11000D01*
X27400Y10200D02*
X27400Y9800D01*
X27200Y10000D02*
X27600Y10000D01*
X28400Y30200D02*
X28400Y29800D01*
X28200Y30000D02*
X28600Y30000D01*
X28400Y29200D02*
X28400Y28800D01*
X28200Y29000D02*
X28600Y29000D01*
X28400Y27200D02*
X28400Y26800D01*
X28200Y27000D02*
X28600Y27000D01*
X28400Y26200D02*
X28400Y25800D01*
X28200Y26000D02*
X28600Y26000D01*
X28400Y25200D02*
X28400Y24800D01*
X28200Y25000D02*
X28600Y25000D01*
X28400Y24200D02*
X28400Y23800D01*
X28200Y24000D02*
X28600Y24000D01*
X28400Y12700D02*
X28400Y12300D01*
X28200Y12500D02*
X28600Y12500D01*
X28400Y11200D02*
X28400Y10800D01*
X28200Y11000D02*
X28600Y11000D01*
X28400Y10200D02*
X28400Y9800D01*
X28200Y10000D02*
X28600Y10000D01*
X29400Y38950D02*
X29400Y38550D01*
X29200Y38750D02*
X29600Y38750D01*
X29400Y30200D02*
X29400Y29800D01*
X29200Y30000D02*
X29600Y30000D01*
X29400Y29200D02*
X29400Y28800D01*
X29200Y29000D02*
X29600Y29000D01*
X29400Y27200D02*
X29400Y26800D01*
X29200Y27000D02*
X29600Y27000D01*
X29400Y26200D02*
X29400Y25800D01*
X29200Y26000D02*
X29600Y26000D01*
X29400Y25200D02*
X29400Y24800D01*
X29200Y25000D02*
X29600Y25000D01*
X29400Y24200D02*
X29400Y23800D01*
X29200Y24000D02*
X29600Y24000D01*
X29400Y12700D02*
X29400Y12300D01*
X29200Y12500D02*
X29600Y12500D01*
X29400Y11200D02*
X29400Y10800D01*
X29200Y11000D02*
X29600Y11000D01*
X29400Y10200D02*
X29400Y9800D01*
X29200Y10000D02*
X29600Y10000D01*
X30400Y38950D02*
X30400Y38550D01*
X30200Y38750D02*
X30600Y38750D01*
X30400Y30200D02*
X30400Y29800D01*
X30200Y30000D02*
X30600Y30000D01*
X30400Y29200D02*
X30400Y28800D01*
X30200Y29000D02*
X30600Y29000D01*
X30400Y12700D02*
X30400Y12300D01*
X30200Y12500D02*
X30600Y12500D01*
X30400Y11200D02*
X30400Y10800D01*
X30200Y11000D02*
X30600Y11000D01*
X30400Y10200D02*
X30400Y9800D01*
X30200Y10000D02*
X30600Y10000D01*
X30900Y35700D02*
X30900Y35300D01*
X30700Y35500D02*
X31100Y35500D01*
X30900Y34700D02*
X30900Y34300D01*
X30700Y34500D02*
X31100Y34500D01*
X30900Y33700D02*
X30900Y33300D01*
X30700Y33500D02*
X31100Y33500D01*
X31400Y38950D02*
X31400Y38550D01*
X31200Y38750D02*
X31600Y38750D01*
X31400Y24200D02*
X31400Y23800D01*
X31200Y24000D02*
X31600Y24000D01*
X31400Y23200D02*
X31400Y22800D01*
X31200Y23000D02*
X31600Y23000D01*
X31400Y22200D02*
X31400Y21800D01*
X31200Y22000D02*
X31600Y22000D01*
X31400Y21200D02*
X31400Y20800D01*
X31200Y21000D02*
X31600Y21000D01*
X31400Y20200D02*
X31400Y19800D01*
X31200Y20000D02*
X31600Y20000D01*
X31400Y19200D02*
X31400Y18800D01*
X31200Y19000D02*
X31600Y19000D01*
X31900Y35700D02*
X31900Y35300D01*
X31700Y35500D02*
X32100Y35500D01*
X31900Y34700D02*
X31900Y34300D01*
X31700Y34500D02*
X32100Y34500D01*
X31900Y33700D02*
X31900Y33300D01*
X31700Y33500D02*
X32100Y33500D01*
X31900Y30700D02*
X31900Y30300D01*
X31700Y30500D02*
X32100Y30500D01*
X31900Y1450D02*
X31900Y1050D01*
X31700Y1250D02*
X32100Y1250D01*
X32400Y38950D02*
X32400Y38550D01*
X32200Y38750D02*
X32600Y38750D01*
X32400Y24200D02*
X32400Y23800D01*
X32200Y24000D02*
X32600Y24000D01*
X32400Y23200D02*
X32400Y22800D01*
X32200Y23000D02*
X32600Y23000D01*
X32400Y22200D02*
X32400Y21800D01*
X32200Y22000D02*
X32600Y22000D01*
X32400Y21200D02*
X32400Y20800D01*
X32200Y21000D02*
X32600Y21000D01*
X32400Y20200D02*
X32400Y19800D01*
X32200Y20000D02*
X32600Y20000D01*
X32400Y19200D02*
X32400Y18800D01*
X32200Y19000D02*
X32600Y19000D01*
X32400Y17200D02*
X32400Y16800D01*
X32200Y17000D02*
X32600Y17000D01*
X32400Y16200D02*
X32400Y15800D01*
X32200Y16000D02*
X32600Y16000D01*
X32400Y15200D02*
X32400Y14800D01*
X32200Y15000D02*
X32600Y15000D01*
X32400Y14200D02*
X32400Y13800D01*
X32200Y14000D02*
X32600Y14000D01*
X32400Y6700D02*
X32400Y6300D01*
X32200Y6500D02*
X32600Y6500D01*
X32400Y5700D02*
X32400Y5300D01*
X32200Y5500D02*
X32600Y5500D01*
X32400Y4700D02*
X32400Y4300D01*
X32200Y4500D02*
X32600Y4500D01*
X32900Y30700D02*
X32900Y30300D01*
X32700Y30500D02*
X33100Y30500D01*
X32900Y1450D02*
X32900Y1050D01*
X32700Y1250D02*
X33100Y1250D01*
X33400Y26700D02*
X33400Y26300D01*
X33200Y26500D02*
X33600Y26500D01*
X33400Y25700D02*
X33400Y25300D01*
X33200Y25500D02*
X33600Y25500D01*
X33400Y24200D02*
X33400Y23800D01*
X33200Y24000D02*
X33600Y24000D01*
X33400Y23200D02*
X33400Y22800D01*
X33200Y23000D02*
X33600Y23000D01*
X33400Y22200D02*
X33400Y21800D01*
X33200Y22000D02*
X33600Y22000D01*
X33400Y21200D02*
X33400Y20800D01*
X33200Y21000D02*
X33600Y21000D01*
X33400Y20200D02*
X33400Y19800D01*
X33200Y20000D02*
X33600Y20000D01*
X33400Y19200D02*
X33400Y18800D01*
X33200Y19000D02*
X33600Y19000D01*
X33400Y17200D02*
X33400Y16800D01*
X33200Y17000D02*
X33600Y17000D01*
X33400Y16200D02*
X33400Y15800D01*
X33200Y16000D02*
X33600Y16000D01*
X33400Y15200D02*
X33400Y14800D01*
X33200Y15000D02*
X33600Y15000D01*
X33400Y14200D02*
X33400Y13800D01*
X33200Y14000D02*
X33600Y14000D01*
X33400Y6700D02*
X33400Y6300D01*
X33200Y6500D02*
X33600Y6500D01*
X33400Y5700D02*
X33400Y5300D01*
X33200Y5500D02*
X33600Y5500D01*
X33400Y4700D02*
X33400Y4300D01*
X33200Y4500D02*
X33600Y4500D01*
X33900Y30700D02*
X33900Y30300D01*
X33700Y30500D02*
X34100Y30500D01*
X33900Y29700D02*
X33900Y29300D01*
X33700Y29500D02*
X34100Y29500D01*
X33900Y1450D02*
X33900Y1050D01*
X33700Y1250D02*
X34100Y1250D01*
X34900Y30700D02*
X34900Y30300D01*
X34700Y30500D02*
X35100Y30500D01*
X34900Y29700D02*
X34900Y29300D01*
X34700Y29500D02*
X35100Y29500D01*
X34900Y1450D02*
X34900Y1050D01*
X34700Y1250D02*
X35100Y1250D01*
X35514Y38979D02*
X35514Y38579D01*
X35314Y38779D02*
X35714Y38779D01*
X35514Y36420D02*
X35514Y36020D01*
X35314Y36220D02*
X35714Y36220D01*
X35514Y34979D02*
X35514Y34579D01*
X35314Y34779D02*
X35714Y34779D01*
X35514Y32420D02*
X35514Y32020D01*
X35314Y32220D02*
X35714Y32220D01*
X37286Y38979D02*
X37286Y38579D01*
X37086Y38779D02*
X37486Y38779D01*
X37286Y36420D02*
X37286Y36020D01*
X37086Y36220D02*
X37486Y36220D01*
X37286Y34979D02*
X37286Y34579D01*
X37086Y34779D02*
X37486Y34779D01*
X37286Y32420D02*
X37286Y32020D01*
X37086Y32220D02*
X37486Y32220D01*
X1342Y11521D02*
X1342Y11856D01*
X1008Y11856D01*
X1008Y11521D01*
X1342Y11521D01*
X1342Y10143D02*
X1342Y10478D01*
X1008Y10478D01*
X1008Y10143D01*
X1342Y10143D01*
X1342Y8521D02*
X1342Y8856D01*
X1008Y8856D01*
X1008Y8521D01*
X1342Y8521D01*
X1342Y7143D02*
X1342Y7478D01*
X1008Y7478D01*
X1008Y7143D01*
X1342Y7143D01*
X1342Y5521D02*
X1342Y5856D01*
X1008Y5856D01*
X1008Y5521D01*
X1342Y5521D01*
X1342Y4143D02*
X1342Y4478D01*
X1008Y4478D01*
X1008Y4143D01*
X1342Y4143D01*
X1342Y2521D02*
X1342Y2856D01*
X1008Y2856D01*
X1008Y2521D01*
X1342Y2521D01*
X1342Y1143D02*
X1342Y1478D01*
X1008Y1478D01*
X1008Y1143D01*
X1342Y1143D01*
X5400Y37930D02*
X5650Y38180D01*
X5400Y38430D01*
X5150Y38180D01*
X5400Y37930D01*
X5400Y33180D02*
X5650Y33430D01*
X5400Y33680D01*
X5150Y33430D01*
X5400Y33180D01*
X5400Y16430D02*
X5650Y16680D01*
X5400Y16930D01*
X5150Y16680D01*
X5400Y16430D01*
X8400Y36570D02*
X8650Y36820D01*
X8400Y37070D01*
X8150Y36820D01*
X8400Y36570D01*
X8400Y31820D02*
X8650Y32070D01*
X8400Y32320D01*
X8150Y32070D01*
X8400Y31820D01*
X8400Y15070D02*
X8650Y15320D01*
X8400Y15570D01*
X8150Y15320D01*
X8400Y15070D01*
X1124Y37775D02*
X1675Y37224D01*
X1675Y37775D02*
X1124Y37224D01*
X1675Y37500D02*
G75*
G03X1675Y37500I-275J0D01*
G74*
G01*
X1124Y35775D02*
X1675Y35224D01*
X1675Y35775D02*
X1124Y35224D01*
X1675Y35500D02*
G75*
G03X1675Y35500I-275J0D01*
G74*
G01*
X1124Y33775D02*
X1675Y33224D01*
X1675Y33775D02*
X1124Y33224D01*
X1675Y33500D02*
G75*
G03X1675Y33500I-275J0D01*
G74*
G01*
X1124Y31775D02*
X1675Y31224D01*
X1675Y31775D02*
X1124Y31224D01*
X1675Y31500D02*
G75*
G03X1675Y31500I-275J0D01*
G74*
G01*
X1124Y28275D02*
X1675Y27724D01*
X1675Y28275D02*
X1124Y27724D01*
X1675Y28000D02*
G75*
G03X1675Y28000I-275J0D01*
G74*
G01*
X1124Y26275D02*
X1675Y25724D01*
X1675Y26275D02*
X1124Y25724D01*
X1675Y26000D02*
G75*
G03X1675Y26000I-275J0D01*
G74*
G01*
X1124Y16275D02*
X1675Y15724D01*
X1675Y16275D02*
X1124Y15724D01*
X1675Y16000D02*
G75*
G03X1675Y16000I-275J0D01*
G74*
G01*
X1124Y14275D02*
X1675Y13724D01*
X1675Y14275D02*
X1124Y13724D01*
X1675Y14000D02*
G75*
G03X1675Y14000I-275J0D01*
G74*
G01*
X5775Y30125D02*
X7025Y28875D01*
X7025Y30125D02*
X5775Y28875D01*
X6400Y30125D02*
X6400Y28875D01*
X5775Y29500D02*
X7025Y29500D01*
X5775Y11125D02*
X7025Y9875D01*
X7025Y11125D02*
X5775Y9875D01*
X6400Y11125D02*
X6400Y9875D01*
X5775Y10500D02*
X7025Y10500D01*
X31775Y28875D02*
X33025Y27625D01*
X33025Y28875D02*
X31775Y27625D01*
X32400Y28875D02*
X32400Y27625D01*
X31775Y28250D02*
X33025Y28250D01*
X31775Y12375D02*
X33025Y11125D01*
X33025Y12375D02*
X31775Y11125D01*
X32400Y12375D02*
X32400Y11125D01*
X31775Y11750D02*
X33025Y11750D01*
X6155Y38245D02*
X7645Y36755D01*
X7645Y38245D02*
X6155Y36755D01*
X7426Y36973D02*
X7426Y38026D01*
X6373Y38026D01*
X6373Y36973D01*
X7426Y36973D01*
X6155Y33495D02*
X7645Y32005D01*
X7645Y33495D02*
X6155Y32005D01*
X7426Y32223D02*
X7426Y33276D01*
X6373Y33276D01*
X6373Y32223D01*
X7426Y32223D01*
X6155Y16745D02*
X7645Y15255D01*
X7645Y16745D02*
X6155Y15255D01*
X7426Y15473D02*
X7426Y16526D01*
X6373Y16526D01*
X6373Y15473D01*
X7426Y15473D01*
G54D13*
X393Y-1852D02*
X393Y-671D01*
X674Y-671D01*
X843Y-727D01*
X956Y-839D01*
X1012Y-952D01*
X1068Y-1177D01*
X1068Y-1346D01*
X1012Y-1571D01*
X956Y-1683D01*
X843Y-1796D01*
X674Y-1852D01*
X393Y-1852D01*
X1574Y-1852D02*
X1574Y-1064D01*
X1574Y-1289D02*
X1630Y-1177D01*
X1687Y-1121D01*
X1799Y-1064D01*
X1912Y-1064D01*
X2305Y-1852D02*
X2305Y-1064D01*
X2305Y-671D02*
X2249Y-727D01*
X2305Y-783D01*
X2362Y-727D01*
X2305Y-671D01*
X2305Y-783D01*
X3037Y-1852D02*
X2924Y-1796D01*
X2868Y-1683D01*
X2868Y-671D01*
X3655Y-1852D02*
X3543Y-1796D01*
X3486Y-1683D01*
X3486Y-671D01*
X5005Y-1852D02*
X5005Y-671D01*
X5399Y-1514D01*
X5792Y-671D01*
X5792Y-1852D01*
X6861Y-1852D02*
X6861Y-1233D01*
X6805Y-1121D01*
X6692Y-1064D01*
X6467Y-1064D01*
X6355Y-1121D01*
X6861Y-1796D02*
X6749Y-1852D01*
X6467Y-1852D01*
X6355Y-1796D01*
X6299Y-1683D01*
X6299Y-1571D01*
X6355Y-1458D01*
X6467Y-1402D01*
X6749Y-1402D01*
X6861Y-1346D01*
X7423Y-1064D02*
X7423Y-2245D01*
X7423Y-1121D02*
X7536Y-1064D01*
X7761Y-1064D01*
X7873Y-1121D01*
X7930Y-1177D01*
X7986Y-1289D01*
X7986Y-1627D01*
X7930Y-1739D01*
X7873Y-1796D01*
X7761Y-1852D01*
X7536Y-1852D01*
X7423Y-1796D01*
X8492Y-1739D02*
X8548Y-1796D01*
X8492Y-1852D01*
X8436Y-1796D01*
X8492Y-1739D01*
X8492Y-1852D01*
X8492Y-1121D02*
X8548Y-1177D01*
X8492Y-1233D01*
X8436Y-1177D01*
X8492Y-1121D01*
X8492Y-1233D01*
X-795Y-3794D02*
X-675Y-3914D01*
X-675Y-3794D02*
X-795Y-3914D01*
X618Y-3151D02*
X731Y-3151D01*
X843Y-3207D01*
X899Y-3263D01*
X956Y-3376D01*
X1012Y-3601D01*
X1012Y-3882D01*
X956Y-4107D01*
X899Y-4220D01*
X843Y-4276D01*
X731Y-4332D01*
X618Y-4332D01*
X506Y-4276D01*
X449Y-4220D01*
X393Y-4107D01*
X337Y-3882D01*
X337Y-3601D01*
X393Y-3376D01*
X449Y-3263D01*
X506Y-3207D01*
X618Y-3151D01*
X1518Y-4220D02*
X1574Y-4276D01*
X1518Y-4332D01*
X1462Y-4276D01*
X1518Y-4220D01*
X1518Y-4332D01*
X1968Y-3151D02*
X2699Y-3151D01*
X2305Y-3601D01*
X2474Y-3601D01*
X2587Y-3657D01*
X2643Y-3713D01*
X2699Y-3826D01*
X2699Y-4107D01*
X2643Y-4220D01*
X2587Y-4276D01*
X2474Y-4332D01*
X2137Y-4332D01*
X2024Y-4276D01*
X1968Y-4220D01*
X3430Y-3151D02*
X3543Y-3151D01*
X3655Y-3207D01*
X3711Y-3263D01*
X3768Y-3376D01*
X3824Y-3601D01*
X3824Y-3882D01*
X3768Y-4107D01*
X3711Y-4220D01*
X3655Y-4276D01*
X3543Y-4332D01*
X3430Y-4332D01*
X3318Y-4276D01*
X3262Y-4220D01*
X3205Y-4107D01*
X3149Y-3882D01*
X3149Y-3601D01*
X3205Y-3376D01*
X3262Y-3263D01*
X3318Y-3207D01*
X3430Y-3151D01*
X4330Y-4332D02*
X4330Y-3545D01*
X4330Y-3657D02*
X4386Y-3601D01*
X4499Y-3545D01*
X4668Y-3545D01*
X4780Y-3601D01*
X4836Y-3713D01*
X4836Y-4332D01*
X4836Y-3713D02*
X4893Y-3601D01*
X5005Y-3545D01*
X5174Y-3545D01*
X5286Y-3601D01*
X5342Y-3713D01*
X5342Y-4332D01*
X5905Y-4332D02*
X5905Y-3545D01*
X5905Y-3657D02*
X5961Y-3601D01*
X6074Y-3545D01*
X6242Y-3545D01*
X6355Y-3601D01*
X6411Y-3713D01*
X6411Y-4332D01*
X6411Y-3713D02*
X6467Y-3601D01*
X6580Y-3545D01*
X6749Y-3545D01*
X6861Y-3601D01*
X6917Y-3713D01*
X6917Y-4332D01*
X9223Y-3095D02*
X8211Y-4613D01*
X10742Y-3151D02*
X10854Y-3151D01*
X10967Y-3207D01*
X11023Y-3263D01*
X11079Y-3376D01*
X11136Y-3601D01*
X11136Y-3882D01*
X11079Y-4107D01*
X11023Y-4220D01*
X10967Y-4276D01*
X10854Y-4332D01*
X10742Y-4332D01*
X10629Y-4276D01*
X10573Y-4220D01*
X10517Y-4107D01*
X10461Y-3882D01*
X10461Y-3601D01*
X10517Y-3376D01*
X10573Y-3263D01*
X10629Y-3207D01*
X10742Y-3151D01*
X11642Y-4220D02*
X11698Y-4276D01*
X11642Y-4332D01*
X11585Y-4276D01*
X11642Y-4220D01*
X11642Y-4332D01*
X12429Y-3151D02*
X12542Y-3151D01*
X12654Y-3207D01*
X12710Y-3263D01*
X12767Y-3376D01*
X12823Y-3601D01*
X12823Y-3882D01*
X12767Y-4107D01*
X12710Y-4220D01*
X12654Y-4276D01*
X12542Y-4332D01*
X12429Y-4332D01*
X12317Y-4276D01*
X12260Y-4220D01*
X12204Y-4107D01*
X12148Y-3882D01*
X12148Y-3601D01*
X12204Y-3376D01*
X12260Y-3263D01*
X12317Y-3207D01*
X12429Y-3151D01*
X13948Y-4332D02*
X13273Y-4332D01*
X13610Y-4332D02*
X13610Y-3151D01*
X13498Y-3320D01*
X13385Y-3432D01*
X13273Y-3488D01*
X14398Y-3263D02*
X14454Y-3207D01*
X14566Y-3151D01*
X14848Y-3151D01*
X14960Y-3207D01*
X15016Y-3263D01*
X15073Y-3376D01*
X15073Y-3488D01*
X15016Y-3657D01*
X14341Y-4332D01*
X15073Y-4332D01*
X15522Y-3151D02*
X15522Y-3376D01*
X15972Y-3151D02*
X15972Y-3376D01*
X17716Y-4782D02*
X17660Y-4726D01*
X17547Y-4557D01*
X17491Y-4445D01*
X17435Y-4276D01*
X17378Y-3995D01*
X17378Y-3770D01*
X17435Y-3488D01*
X17491Y-3320D01*
X17547Y-3207D01*
X17660Y-3039D01*
X17716Y-2982D01*
X18672Y-3151D02*
X18447Y-3151D01*
X18335Y-3207D01*
X18278Y-3263D01*
X18166Y-3432D01*
X18110Y-3657D01*
X18110Y-4107D01*
X18166Y-4220D01*
X18222Y-4276D01*
X18335Y-4332D01*
X18560Y-4332D01*
X18672Y-4276D01*
X18728Y-4220D01*
X18785Y-4107D01*
X18785Y-3826D01*
X18728Y-3713D01*
X18672Y-3657D01*
X18560Y-3601D01*
X18335Y-3601D01*
X18222Y-3657D01*
X18166Y-3713D01*
X18110Y-3826D01*
X19235Y-3263D02*
X19291Y-3207D01*
X19403Y-3151D01*
X19684Y-3151D01*
X19797Y-3207D01*
X19853Y-3263D01*
X19909Y-3376D01*
X19909Y-3488D01*
X19853Y-3657D01*
X19178Y-4332D01*
X19909Y-4332D01*
X21316Y-4332D02*
X21316Y-3151D01*
X21822Y-4332D02*
X21822Y-3713D01*
X21765Y-3601D01*
X21653Y-3545D01*
X21484Y-3545D01*
X21372Y-3601D01*
X21316Y-3657D01*
X22553Y-4332D02*
X22440Y-4276D01*
X22384Y-4220D01*
X22328Y-4107D01*
X22328Y-3770D01*
X22384Y-3657D01*
X22440Y-3601D01*
X22553Y-3545D01*
X22722Y-3545D01*
X22834Y-3601D01*
X22890Y-3657D01*
X22947Y-3770D01*
X22947Y-4107D01*
X22890Y-4220D01*
X22834Y-4276D01*
X22722Y-4332D01*
X22553Y-4332D01*
X23621Y-4332D02*
X23509Y-4276D01*
X23453Y-4163D01*
X23453Y-3151D01*
X24521Y-4276D02*
X24409Y-4332D01*
X24184Y-4332D01*
X24071Y-4276D01*
X24015Y-4163D01*
X24015Y-3713D01*
X24071Y-3601D01*
X24184Y-3545D01*
X24409Y-3545D01*
X24521Y-3601D01*
X24578Y-3713D01*
X24578Y-3826D01*
X24015Y-3938D01*
X25028Y-4276D02*
X25140Y-4332D01*
X25365Y-4332D01*
X25477Y-4276D01*
X25534Y-4163D01*
X25534Y-4107D01*
X25477Y-3995D01*
X25365Y-3938D01*
X25196Y-3938D01*
X25084Y-3882D01*
X25028Y-3770D01*
X25028Y-3713D01*
X25084Y-3601D01*
X25196Y-3545D01*
X25365Y-3545D01*
X25477Y-3601D01*
X25927Y-4782D02*
X25984Y-4726D01*
X26096Y-4557D01*
X26152Y-4445D01*
X26209Y-4276D01*
X26265Y-3995D01*
X26265Y-3770D01*
X26209Y-3488D01*
X26152Y-3320D01*
X26096Y-3207D01*
X25984Y-3039D01*
X25927Y-2982D01*
G54D12*
X-675Y-5413D02*
G75*
G03X-675Y-5413I-160J0D01*
G74*
G01*
G54D13*
X618Y-4710D02*
X731Y-4710D01*
X843Y-4766D01*
X899Y-4823D01*
X956Y-4935D01*
X1012Y-5160D01*
X1012Y-5441D01*
X956Y-5666D01*
X899Y-5779D01*
X843Y-5835D01*
X731Y-5891D01*
X618Y-5891D01*
X506Y-5835D01*
X449Y-5779D01*
X393Y-5666D01*
X337Y-5441D01*
X337Y-5160D01*
X393Y-4935D01*
X449Y-4823D01*
X506Y-4766D01*
X618Y-4710D01*
X1518Y-5779D02*
X1574Y-5835D01*
X1518Y-5891D01*
X1462Y-5835D01*
X1518Y-5779D01*
X1518Y-5891D01*
X2249Y-5216D02*
X2137Y-5160D01*
X2080Y-5104D01*
X2024Y-4991D01*
X2024Y-4935D01*
X2080Y-4823D01*
X2137Y-4766D01*
X2249Y-4710D01*
X2474Y-4710D01*
X2587Y-4766D01*
X2643Y-4823D01*
X2699Y-4935D01*
X2699Y-4991D01*
X2643Y-5104D01*
X2587Y-5160D01*
X2474Y-5216D01*
X2249Y-5216D01*
X2137Y-5272D01*
X2080Y-5329D01*
X2024Y-5441D01*
X2024Y-5666D01*
X2080Y-5779D01*
X2137Y-5835D01*
X2249Y-5891D01*
X2474Y-5891D01*
X2587Y-5835D01*
X2643Y-5779D01*
X2699Y-5666D01*
X2699Y-5441D01*
X2643Y-5329D01*
X2587Y-5272D01*
X2474Y-5216D01*
X3824Y-5891D02*
X3149Y-5891D01*
X3486Y-5891D02*
X3486Y-4710D01*
X3374Y-4879D01*
X3262Y-4991D01*
X3149Y-5048D01*
X4330Y-5891D02*
X4330Y-5104D01*
X4330Y-5216D02*
X4386Y-5160D01*
X4499Y-5104D01*
X4668Y-5104D01*
X4780Y-5160D01*
X4836Y-5272D01*
X4836Y-5891D01*
X4836Y-5272D02*
X4893Y-5160D01*
X5005Y-5104D01*
X5174Y-5104D01*
X5286Y-5160D01*
X5342Y-5272D01*
X5342Y-5891D01*
X5905Y-5891D02*
X5905Y-5104D01*
X5905Y-5216D02*
X5961Y-5160D01*
X6074Y-5104D01*
X6242Y-5104D01*
X6355Y-5160D01*
X6411Y-5272D01*
X6411Y-5891D01*
X6411Y-5272D02*
X6467Y-5160D01*
X6580Y-5104D01*
X6749Y-5104D01*
X6861Y-5160D01*
X6917Y-5272D01*
X6917Y-5891D01*
X9223Y-4654D02*
X8211Y-6172D01*
X10742Y-4710D02*
X10854Y-4710D01*
X10967Y-4766D01*
X11023Y-4823D01*
X11079Y-4935D01*
X11136Y-5160D01*
X11136Y-5441D01*
X11079Y-5666D01*
X11023Y-5779D01*
X10967Y-5835D01*
X10854Y-5891D01*
X10742Y-5891D01*
X10629Y-5835D01*
X10573Y-5779D01*
X10517Y-5666D01*
X10461Y-5441D01*
X10461Y-5160D01*
X10517Y-4935D01*
X10573Y-4823D01*
X10629Y-4766D01*
X10742Y-4710D01*
X11642Y-5779D02*
X11698Y-5835D01*
X11642Y-5891D01*
X11585Y-5835D01*
X11642Y-5779D01*
X11642Y-5891D01*
X12429Y-4710D02*
X12542Y-4710D01*
X12654Y-4766D01*
X12710Y-4823D01*
X12767Y-4935D01*
X12823Y-5160D01*
X12823Y-5441D01*
X12767Y-5666D01*
X12710Y-5779D01*
X12654Y-5835D01*
X12542Y-5891D01*
X12429Y-5891D01*
X12317Y-5835D01*
X12260Y-5779D01*
X12204Y-5666D01*
X12148Y-5441D01*
X12148Y-5160D01*
X12204Y-4935D01*
X12260Y-4823D01*
X12317Y-4766D01*
X12429Y-4710D01*
X13217Y-4710D02*
X13948Y-4710D01*
X13554Y-5160D01*
X13723Y-5160D01*
X13835Y-5216D01*
X13891Y-5272D01*
X13948Y-5385D01*
X13948Y-5666D01*
X13891Y-5779D01*
X13835Y-5835D01*
X13723Y-5891D01*
X13385Y-5891D01*
X13273Y-5835D01*
X13217Y-5779D01*
X14398Y-4823D02*
X14454Y-4766D01*
X14566Y-4710D01*
X14848Y-4710D01*
X14960Y-4766D01*
X15016Y-4823D01*
X15073Y-4935D01*
X15073Y-5048D01*
X15016Y-5216D01*
X14341Y-5891D01*
X15073Y-5891D01*
X15522Y-4710D02*
X15522Y-4935D01*
X15972Y-4710D02*
X15972Y-4935D01*
X17716Y-6341D02*
X17660Y-6285D01*
X17547Y-6116D01*
X17491Y-6004D01*
X17435Y-5835D01*
X17378Y-5554D01*
X17378Y-5329D01*
X17435Y-5048D01*
X17491Y-4879D01*
X17547Y-4766D01*
X17660Y-4598D01*
X17716Y-4541D01*
X18222Y-5891D02*
X18447Y-5891D01*
X18560Y-5835D01*
X18616Y-5779D01*
X18728Y-5610D01*
X18785Y-5385D01*
X18785Y-4935D01*
X18728Y-4823D01*
X18672Y-4766D01*
X18560Y-4710D01*
X18335Y-4710D01*
X18222Y-4766D01*
X18166Y-4823D01*
X18110Y-4935D01*
X18110Y-5216D01*
X18166Y-5329D01*
X18222Y-5385D01*
X18335Y-5441D01*
X18560Y-5441D01*
X18672Y-5385D01*
X18728Y-5329D01*
X18785Y-5216D01*
X19797Y-4710D02*
X19572Y-4710D01*
X19459Y-4766D01*
X19403Y-4823D01*
X19291Y-4991D01*
X19235Y-5216D01*
X19235Y-5666D01*
X19291Y-5779D01*
X19347Y-5835D01*
X19459Y-5891D01*
X19684Y-5891D01*
X19797Y-5835D01*
X19853Y-5779D01*
X19909Y-5666D01*
X19909Y-5385D01*
X19853Y-5272D01*
X19797Y-5216D01*
X19684Y-5160D01*
X19459Y-5160D01*
X19347Y-5216D01*
X19291Y-5272D01*
X19235Y-5385D01*
X21316Y-5891D02*
X21316Y-4710D01*
X21822Y-5891D02*
X21822Y-5272D01*
X21765Y-5160D01*
X21653Y-5104D01*
X21484Y-5104D01*
X21372Y-5160D01*
X21316Y-5216D01*
X22553Y-5891D02*
X22440Y-5835D01*
X22384Y-5779D01*
X22328Y-5666D01*
X22328Y-5329D01*
X22384Y-5216D01*
X22440Y-5160D01*
X22553Y-5104D01*
X22722Y-5104D01*
X22834Y-5160D01*
X22890Y-5216D01*
X22947Y-5329D01*
X22947Y-5666D01*
X22890Y-5779D01*
X22834Y-5835D01*
X22722Y-5891D01*
X22553Y-5891D01*
X23621Y-5891D02*
X23509Y-5835D01*
X23453Y-5722D01*
X23453Y-4710D01*
X24521Y-5835D02*
X24409Y-5891D01*
X24184Y-5891D01*
X24071Y-5835D01*
X24015Y-5722D01*
X24015Y-5272D01*
X24071Y-5160D01*
X24184Y-5104D01*
X24409Y-5104D01*
X24521Y-5160D01*
X24578Y-5272D01*
X24578Y-5385D01*
X24015Y-5497D01*
X25028Y-5835D02*
X25140Y-5891D01*
X25365Y-5891D01*
X25477Y-5835D01*
X25534Y-5722D01*
X25534Y-5666D01*
X25477Y-5554D01*
X25365Y-5497D01*
X25196Y-5497D01*
X25084Y-5441D01*
X25028Y-5329D01*
X25028Y-5272D01*
X25084Y-5160D01*
X25196Y-5104D01*
X25365Y-5104D01*
X25477Y-5160D01*
X25927Y-6341D02*
X25984Y-6285D01*
X26096Y-6116D01*
X26152Y-6004D01*
X26209Y-5835D01*
X26265Y-5554D01*
X26265Y-5329D01*
X26209Y-5048D01*
X26152Y-4879D01*
X26096Y-4766D01*
X25984Y-4598D01*
X25927Y-4541D01*
X-875Y-6772D02*
X-875Y-7172D01*
X-1075Y-6972D02*
X-675Y-6972D01*
X1012Y-7450D02*
X337Y-7450D01*
X674Y-7450D02*
X674Y-6269D01*
X562Y-6438D01*
X449Y-6550D01*
X337Y-6607D01*
X1518Y-7338D02*
X1574Y-7394D01*
X1518Y-7450D01*
X1462Y-7394D01*
X1518Y-7338D01*
X1518Y-7450D01*
X2305Y-6269D02*
X2418Y-6269D01*
X2530Y-6325D01*
X2587Y-6382D01*
X2643Y-6494D01*
X2699Y-6719D01*
X2699Y-7000D01*
X2643Y-7225D01*
X2587Y-7338D01*
X2530Y-7394D01*
X2418Y-7450D01*
X2305Y-7450D01*
X2193Y-7394D01*
X2137Y-7338D01*
X2080Y-7225D01*
X2024Y-7000D01*
X2024Y-6719D01*
X2080Y-6494D01*
X2137Y-6382D01*
X2193Y-6325D01*
X2305Y-6269D01*
X3149Y-6382D02*
X3205Y-6325D01*
X3318Y-6269D01*
X3599Y-6269D01*
X3711Y-6325D01*
X3768Y-6382D01*
X3824Y-6494D01*
X3824Y-6607D01*
X3768Y-6775D01*
X3093Y-7450D01*
X3824Y-7450D01*
X4330Y-7450D02*
X4330Y-6663D01*
X4330Y-6775D02*
X4386Y-6719D01*
X4499Y-6663D01*
X4668Y-6663D01*
X4780Y-6719D01*
X4836Y-6832D01*
X4836Y-7450D01*
X4836Y-6832D02*
X4893Y-6719D01*
X5005Y-6663D01*
X5174Y-6663D01*
X5286Y-6719D01*
X5342Y-6832D01*
X5342Y-7450D01*
X5905Y-7450D02*
X5905Y-6663D01*
X5905Y-6775D02*
X5961Y-6719D01*
X6074Y-6663D01*
X6242Y-6663D01*
X6355Y-6719D01*
X6411Y-6832D01*
X6411Y-7450D01*
X6411Y-6832D02*
X6467Y-6719D01*
X6580Y-6663D01*
X6749Y-6663D01*
X6861Y-6719D01*
X6917Y-6832D01*
X6917Y-7450D01*
X9223Y-6213D02*
X8211Y-7731D01*
X10742Y-6269D02*
X10854Y-6269D01*
X10967Y-6325D01*
X11023Y-6382D01*
X11079Y-6494D01*
X11136Y-6719D01*
X11136Y-7000D01*
X11079Y-7225D01*
X11023Y-7338D01*
X10967Y-7394D01*
X10854Y-7450D01*
X10742Y-7450D01*
X10629Y-7394D01*
X10573Y-7338D01*
X10517Y-7225D01*
X10461Y-7000D01*
X10461Y-6719D01*
X10517Y-6494D01*
X10573Y-6382D01*
X10629Y-6325D01*
X10742Y-6269D01*
X11642Y-7338D02*
X11698Y-7394D01*
X11642Y-7450D01*
X11585Y-7394D01*
X11642Y-7338D01*
X11642Y-7450D01*
X12429Y-6269D02*
X12542Y-6269D01*
X12654Y-6325D01*
X12710Y-6382D01*
X12767Y-6494D01*
X12823Y-6719D01*
X12823Y-7000D01*
X12767Y-7225D01*
X12710Y-7338D01*
X12654Y-7394D01*
X12542Y-7450D01*
X12429Y-7450D01*
X12317Y-7394D01*
X12260Y-7338D01*
X12204Y-7225D01*
X12148Y-7000D01*
X12148Y-6719D01*
X12204Y-6494D01*
X12260Y-6382D01*
X12317Y-6325D01*
X12429Y-6269D01*
X13835Y-6663D02*
X13835Y-7450D01*
X13554Y-6213D02*
X13273Y-7057D01*
X14004Y-7057D01*
X14679Y-6269D02*
X14791Y-6269D01*
X14904Y-6325D01*
X14960Y-6382D01*
X15016Y-6494D01*
X15073Y-6719D01*
X15073Y-7000D01*
X15016Y-7225D01*
X14960Y-7338D01*
X14904Y-7394D01*
X14791Y-7450D01*
X14679Y-7450D01*
X14566Y-7394D01*
X14510Y-7338D01*
X14454Y-7225D01*
X14398Y-7000D01*
X14398Y-6719D01*
X14454Y-6494D01*
X14510Y-6382D01*
X14566Y-6325D01*
X14679Y-6269D01*
X15522Y-6269D02*
X15522Y-6494D01*
X15972Y-6269D02*
X15972Y-6494D01*
X17716Y-7900D02*
X17660Y-7844D01*
X17547Y-7675D01*
X17491Y-7563D01*
X17435Y-7394D01*
X17378Y-7113D01*
X17378Y-6888D01*
X17435Y-6607D01*
X17491Y-6438D01*
X17547Y-6325D01*
X17660Y-6157D01*
X17716Y-6100D01*
X18110Y-6382D02*
X18166Y-6325D01*
X18278Y-6269D01*
X18560Y-6269D01*
X18672Y-6325D01*
X18728Y-6382D01*
X18785Y-6494D01*
X18785Y-6607D01*
X18728Y-6775D01*
X18053Y-7450D01*
X18785Y-7450D01*
X19459Y-6775D02*
X19347Y-6719D01*
X19291Y-6663D01*
X19235Y-6550D01*
X19235Y-6494D01*
X19291Y-6382D01*
X19347Y-6325D01*
X19459Y-6269D01*
X19684Y-6269D01*
X19797Y-6325D01*
X19853Y-6382D01*
X19909Y-6494D01*
X19909Y-6550D01*
X19853Y-6663D01*
X19797Y-6719D01*
X19684Y-6775D01*
X19459Y-6775D01*
X19347Y-6832D01*
X19291Y-6888D01*
X19235Y-7000D01*
X19235Y-7225D01*
X19291Y-7338D01*
X19347Y-7394D01*
X19459Y-7450D01*
X19684Y-7450D01*
X19797Y-7394D01*
X19853Y-7338D01*
X19909Y-7225D01*
X19909Y-7000D01*
X19853Y-6888D01*
X19797Y-6832D01*
X19684Y-6775D01*
X20922Y-6663D02*
X20922Y-7450D01*
X20641Y-6213D02*
X20359Y-7057D01*
X21091Y-7057D01*
X22440Y-7450D02*
X22440Y-6269D01*
X22947Y-7450D02*
X22947Y-6832D01*
X22890Y-6719D01*
X22778Y-6663D01*
X22609Y-6663D01*
X22497Y-6719D01*
X22440Y-6775D01*
X23678Y-7450D02*
X23565Y-7394D01*
X23509Y-7338D01*
X23453Y-7225D01*
X23453Y-6888D01*
X23509Y-6775D01*
X23565Y-6719D01*
X23678Y-6663D01*
X23846Y-6663D01*
X23959Y-6719D01*
X24015Y-6775D01*
X24071Y-6888D01*
X24071Y-7225D01*
X24015Y-7338D01*
X23959Y-7394D01*
X23846Y-7450D01*
X23678Y-7450D01*
X24746Y-7450D02*
X24634Y-7394D01*
X24578Y-7281D01*
X24578Y-6269D01*
X25646Y-7394D02*
X25534Y-7450D01*
X25309Y-7450D01*
X25196Y-7394D01*
X25140Y-7281D01*
X25140Y-6832D01*
X25196Y-6719D01*
X25309Y-6663D01*
X25534Y-6663D01*
X25646Y-6719D01*
X25702Y-6832D01*
X25702Y-6944D01*
X25140Y-7057D01*
X26152Y-7394D02*
X26265Y-7450D01*
X26490Y-7450D01*
X26602Y-7394D01*
X26659Y-7281D01*
X26659Y-7225D01*
X26602Y-7113D01*
X26490Y-7057D01*
X26321Y-7057D01*
X26209Y-7000D01*
X26152Y-6888D01*
X26152Y-6832D01*
X26209Y-6719D01*
X26321Y-6663D01*
X26490Y-6663D01*
X26602Y-6719D01*
X27052Y-7900D02*
X27109Y-7844D01*
X27221Y-7675D01*
X27277Y-7563D01*
X27333Y-7394D01*
X27390Y-7113D01*
X27390Y-6888D01*
X27333Y-6607D01*
X27277Y-6438D01*
X27221Y-6325D01*
X27109Y-6157D01*
X27052Y-6100D01*
G54D12*
X-744Y-8698D02*
X-744Y-8364D01*
X-1078Y-8364D01*
X-1078Y-8698D01*
X-744Y-8698D01*
G54D13*
X1012Y-9009D02*
X337Y-9009D01*
X674Y-9009D02*
X674Y-7828D01*
X562Y-7997D01*
X449Y-8109D01*
X337Y-8166D01*
X1518Y-8897D02*
X1574Y-8953D01*
X1518Y-9009D01*
X1462Y-8953D01*
X1518Y-8897D01*
X1518Y-9009D01*
X2024Y-7941D02*
X2080Y-7884D01*
X2193Y-7828D01*
X2474Y-7828D01*
X2587Y-7884D01*
X2643Y-7941D01*
X2699Y-8053D01*
X2699Y-8166D01*
X2643Y-8334D01*
X1968Y-9009D01*
X2699Y-9009D01*
X3430Y-7828D02*
X3543Y-7828D01*
X3655Y-7884D01*
X3711Y-7941D01*
X3768Y-8053D01*
X3824Y-8278D01*
X3824Y-8559D01*
X3768Y-8784D01*
X3711Y-8897D01*
X3655Y-8953D01*
X3543Y-9009D01*
X3430Y-9009D01*
X3318Y-8953D01*
X3262Y-8897D01*
X3205Y-8784D01*
X3149Y-8559D01*
X3149Y-8278D01*
X3205Y-8053D01*
X3262Y-7941D01*
X3318Y-7884D01*
X3430Y-7828D01*
X4330Y-9009D02*
X4330Y-8222D01*
X4330Y-8334D02*
X4386Y-8278D01*
X4499Y-8222D01*
X4668Y-8222D01*
X4780Y-8278D01*
X4836Y-8391D01*
X4836Y-9009D01*
X4836Y-8391D02*
X4893Y-8278D01*
X5005Y-8222D01*
X5174Y-8222D01*
X5286Y-8278D01*
X5342Y-8391D01*
X5342Y-9009D01*
X5905Y-9009D02*
X5905Y-8222D01*
X5905Y-8334D02*
X5961Y-8278D01*
X6074Y-8222D01*
X6242Y-8222D01*
X6355Y-8278D01*
X6411Y-8391D01*
X6411Y-9009D01*
X6411Y-8391D02*
X6467Y-8278D01*
X6580Y-8222D01*
X6749Y-8222D01*
X6861Y-8278D01*
X6917Y-8391D01*
X6917Y-9009D01*
X9223Y-7772D02*
X8211Y-9290D01*
X10742Y-7828D02*
X10854Y-7828D01*
X10967Y-7884D01*
X11023Y-7941D01*
X11079Y-8053D01*
X11136Y-8278D01*
X11136Y-8559D01*
X11079Y-8784D01*
X11023Y-8897D01*
X10967Y-8953D01*
X10854Y-9009D01*
X10742Y-9009D01*
X10629Y-8953D01*
X10573Y-8897D01*
X10517Y-8784D01*
X10461Y-8559D01*
X10461Y-8278D01*
X10517Y-8053D01*
X10573Y-7941D01*
X10629Y-7884D01*
X10742Y-7828D01*
X11642Y-8897D02*
X11698Y-8953D01*
X11642Y-9009D01*
X11585Y-8953D01*
X11642Y-8897D01*
X11642Y-9009D01*
X12429Y-7828D02*
X12542Y-7828D01*
X12654Y-7884D01*
X12710Y-7941D01*
X12767Y-8053D01*
X12823Y-8278D01*
X12823Y-8559D01*
X12767Y-8784D01*
X12710Y-8897D01*
X12654Y-8953D01*
X12542Y-9009D01*
X12429Y-9009D01*
X12317Y-8953D01*
X12260Y-8897D01*
X12204Y-8784D01*
X12148Y-8559D01*
X12148Y-8278D01*
X12204Y-8053D01*
X12260Y-7941D01*
X12317Y-7884D01*
X12429Y-7828D01*
X13835Y-8222D02*
X13835Y-9009D01*
X13554Y-7772D02*
X13273Y-8616D01*
X14004Y-8616D01*
X14341Y-7828D02*
X15129Y-7828D01*
X14623Y-9009D01*
X15522Y-7828D02*
X15522Y-8053D01*
X15972Y-7828D02*
X15972Y-8053D01*
X17716Y-9459D02*
X17660Y-9403D01*
X17547Y-9234D01*
X17491Y-9122D01*
X17435Y-8953D01*
X17378Y-8672D01*
X17378Y-8447D01*
X17435Y-8166D01*
X17491Y-7997D01*
X17547Y-7884D01*
X17660Y-7716D01*
X17716Y-7659D01*
X18335Y-8334D02*
X18222Y-8278D01*
X18166Y-8222D01*
X18110Y-8109D01*
X18110Y-8053D01*
X18166Y-7941D01*
X18222Y-7884D01*
X18335Y-7828D01*
X18560Y-7828D01*
X18672Y-7884D01*
X18728Y-7941D01*
X18785Y-8053D01*
X18785Y-8109D01*
X18728Y-8222D01*
X18672Y-8278D01*
X18560Y-8334D01*
X18335Y-8334D01*
X18222Y-8391D01*
X18166Y-8447D01*
X18110Y-8559D01*
X18110Y-8784D01*
X18166Y-8897D01*
X18222Y-8953D01*
X18335Y-9009D01*
X18560Y-9009D01*
X18672Y-8953D01*
X18728Y-8897D01*
X18785Y-8784D01*
X18785Y-8559D01*
X18728Y-8447D01*
X18672Y-8391D01*
X18560Y-8334D01*
X20191Y-9009D02*
X20191Y-7828D01*
X20697Y-9009D02*
X20697Y-8391D01*
X20641Y-8278D01*
X20528Y-8222D01*
X20359Y-8222D01*
X20247Y-8278D01*
X20191Y-8334D01*
X21428Y-9009D02*
X21316Y-8953D01*
X21259Y-8897D01*
X21203Y-8784D01*
X21203Y-8447D01*
X21259Y-8334D01*
X21316Y-8278D01*
X21428Y-8222D01*
X21597Y-8222D01*
X21709Y-8278D01*
X21765Y-8334D01*
X21822Y-8447D01*
X21822Y-8784D01*
X21765Y-8897D01*
X21709Y-8953D01*
X21597Y-9009D01*
X21428Y-9009D01*
X22497Y-9009D02*
X22384Y-8953D01*
X22328Y-8841D01*
X22328Y-7828D01*
X23396Y-8953D02*
X23284Y-9009D01*
X23059Y-9009D01*
X22947Y-8953D01*
X22890Y-8841D01*
X22890Y-8391D01*
X22947Y-8278D01*
X23059Y-8222D01*
X23284Y-8222D01*
X23396Y-8278D01*
X23453Y-8391D01*
X23453Y-8503D01*
X22890Y-8616D01*
X23903Y-8953D02*
X24015Y-9009D01*
X24240Y-9009D01*
X24353Y-8953D01*
X24409Y-8841D01*
X24409Y-8784D01*
X24353Y-8672D01*
X24240Y-8616D01*
X24071Y-8616D01*
X23959Y-8559D01*
X23903Y-8447D01*
X23903Y-8391D01*
X23959Y-8278D01*
X24071Y-8222D01*
X24240Y-8222D01*
X24353Y-8278D01*
X24803Y-9459D02*
X24859Y-9403D01*
X24971Y-9234D01*
X25028Y-9122D01*
X25084Y-8953D01*
X25140Y-8672D01*
X25140Y-8447D01*
X25084Y-8166D01*
X25028Y-7997D01*
X24971Y-7884D01*
X24859Y-7716D01*
X24803Y-7659D01*
G54D12*
X-925Y-10340D02*
X-675Y-10090D01*
X-925Y-9840D01*
X-1175Y-10090D01*
X-925Y-10340D01*
G54D13*
X1012Y-10568D02*
X337Y-10568D01*
X674Y-10568D02*
X674Y-9387D01*
X562Y-9556D01*
X449Y-9668D01*
X337Y-9725D01*
X1518Y-10456D02*
X1574Y-10512D01*
X1518Y-10568D01*
X1462Y-10512D01*
X1518Y-10456D01*
X1518Y-10568D01*
X2024Y-9500D02*
X2080Y-9443D01*
X2193Y-9387D01*
X2474Y-9387D01*
X2587Y-9443D01*
X2643Y-9500D01*
X2699Y-9612D01*
X2699Y-9725D01*
X2643Y-9893D01*
X1968Y-10568D01*
X2699Y-10568D01*
X3093Y-9387D02*
X3880Y-9387D01*
X3374Y-10568D01*
X4330Y-10568D02*
X4330Y-9781D01*
X4330Y-9893D02*
X4386Y-9837D01*
X4499Y-9781D01*
X4668Y-9781D01*
X4780Y-9837D01*
X4836Y-9950D01*
X4836Y-10568D01*
X4836Y-9950D02*
X4893Y-9837D01*
X5005Y-9781D01*
X5174Y-9781D01*
X5286Y-9837D01*
X5342Y-9950D01*
X5342Y-10568D01*
X5905Y-10568D02*
X5905Y-9781D01*
X5905Y-9893D02*
X5961Y-9837D01*
X6074Y-9781D01*
X6242Y-9781D01*
X6355Y-9837D01*
X6411Y-9950D01*
X6411Y-10568D01*
X6411Y-9950D02*
X6467Y-9837D01*
X6580Y-9781D01*
X6749Y-9781D01*
X6861Y-9837D01*
X6917Y-9950D01*
X6917Y-10568D01*
X9223Y-9331D02*
X8211Y-10850D01*
X10742Y-9387D02*
X10854Y-9387D01*
X10967Y-9443D01*
X11023Y-9500D01*
X11079Y-9612D01*
X11136Y-9837D01*
X11136Y-10118D01*
X11079Y-10343D01*
X11023Y-10456D01*
X10967Y-10512D01*
X10854Y-10568D01*
X10742Y-10568D01*
X10629Y-10512D01*
X10573Y-10456D01*
X10517Y-10343D01*
X10461Y-10118D01*
X10461Y-9837D01*
X10517Y-9612D01*
X10573Y-9500D01*
X10629Y-9443D01*
X10742Y-9387D01*
X11642Y-10456D02*
X11698Y-10512D01*
X11642Y-10568D01*
X11585Y-10512D01*
X11642Y-10456D01*
X11642Y-10568D01*
X12429Y-9387D02*
X12542Y-9387D01*
X12654Y-9443D01*
X12710Y-9500D01*
X12767Y-9612D01*
X12823Y-9837D01*
X12823Y-10118D01*
X12767Y-10343D01*
X12710Y-10456D01*
X12654Y-10512D01*
X12542Y-10568D01*
X12429Y-10568D01*
X12317Y-10512D01*
X12260Y-10456D01*
X12204Y-10343D01*
X12148Y-10118D01*
X12148Y-9837D01*
X12204Y-9612D01*
X12260Y-9500D01*
X12317Y-9443D01*
X12429Y-9387D01*
X13891Y-9387D02*
X13329Y-9387D01*
X13273Y-9950D01*
X13329Y-9893D01*
X13441Y-9837D01*
X13723Y-9837D01*
X13835Y-9893D01*
X13891Y-9950D01*
X13948Y-10062D01*
X13948Y-10343D01*
X13891Y-10456D01*
X13835Y-10512D01*
X13723Y-10568D01*
X13441Y-10568D01*
X13329Y-10512D01*
X13273Y-10456D01*
X14679Y-9387D02*
X14791Y-9387D01*
X14904Y-9443D01*
X14960Y-9500D01*
X15016Y-9612D01*
X15073Y-9837D01*
X15073Y-10118D01*
X15016Y-10343D01*
X14960Y-10456D01*
X14904Y-10512D01*
X14791Y-10568D01*
X14679Y-10568D01*
X14566Y-10512D01*
X14510Y-10456D01*
X14454Y-10343D01*
X14398Y-10118D01*
X14398Y-9837D01*
X14454Y-9612D01*
X14510Y-9500D01*
X14566Y-9443D01*
X14679Y-9387D01*
X15522Y-9387D02*
X15522Y-9612D01*
X15972Y-9387D02*
X15972Y-9612D01*
X17716Y-11018D02*
X17660Y-10962D01*
X17547Y-10793D01*
X17491Y-10681D01*
X17435Y-10512D01*
X17378Y-10231D01*
X17378Y-10006D01*
X17435Y-9725D01*
X17491Y-9556D01*
X17547Y-9443D01*
X17660Y-9275D01*
X17716Y-9218D01*
X18672Y-9387D02*
X18447Y-9387D01*
X18335Y-9443D01*
X18278Y-9500D01*
X18166Y-9668D01*
X18110Y-9893D01*
X18110Y-10343D01*
X18166Y-10456D01*
X18222Y-10512D01*
X18335Y-10568D01*
X18560Y-10568D01*
X18672Y-10512D01*
X18728Y-10456D01*
X18785Y-10343D01*
X18785Y-10062D01*
X18728Y-9950D01*
X18672Y-9893D01*
X18560Y-9837D01*
X18335Y-9837D01*
X18222Y-9893D01*
X18166Y-9950D01*
X18110Y-10062D01*
X20191Y-10568D02*
X20191Y-9387D01*
X20697Y-10568D02*
X20697Y-9950D01*
X20641Y-9837D01*
X20528Y-9781D01*
X20359Y-9781D01*
X20247Y-9837D01*
X20191Y-9893D01*
X21428Y-10568D02*
X21316Y-10512D01*
X21259Y-10456D01*
X21203Y-10343D01*
X21203Y-10006D01*
X21259Y-9893D01*
X21316Y-9837D01*
X21428Y-9781D01*
X21597Y-9781D01*
X21709Y-9837D01*
X21765Y-9893D01*
X21822Y-10006D01*
X21822Y-10343D01*
X21765Y-10456D01*
X21709Y-10512D01*
X21597Y-10568D01*
X21428Y-10568D01*
X22497Y-10568D02*
X22384Y-10512D01*
X22328Y-10400D01*
X22328Y-9387D01*
X23396Y-10512D02*
X23284Y-10568D01*
X23059Y-10568D01*
X22947Y-10512D01*
X22890Y-10400D01*
X22890Y-9950D01*
X22947Y-9837D01*
X23059Y-9781D01*
X23284Y-9781D01*
X23396Y-9837D01*
X23453Y-9950D01*
X23453Y-10062D01*
X22890Y-10175D01*
X23903Y-10512D02*
X24015Y-10568D01*
X24240Y-10568D01*
X24353Y-10512D01*
X24409Y-10400D01*
X24409Y-10343D01*
X24353Y-10231D01*
X24240Y-10175D01*
X24071Y-10175D01*
X23959Y-10118D01*
X23903Y-10006D01*
X23903Y-9950D01*
X23959Y-9837D01*
X24071Y-9781D01*
X24240Y-9781D01*
X24353Y-9837D01*
X24803Y-11018D02*
X24859Y-10962D01*
X24971Y-10793D01*
X25028Y-10681D01*
X25084Y-10512D01*
X25140Y-10231D01*
X25140Y-10006D01*
X25084Y-9725D01*
X25028Y-9556D01*
X24971Y-9443D01*
X24859Y-9275D01*
X24803Y-9218D01*
X-1226Y-11374D02*
X-675Y-11925D01*
X-675Y-11374D02*
X-1226Y-11925D01*
G54D12*
X-675Y-11649D02*
G75*
G03X-675Y-11649I-275J0D01*
G74*
G01*
G54D13*
X1012Y-12127D02*
X337Y-12127D01*
X674Y-12127D02*
X674Y-10946D01*
X562Y-11115D01*
X449Y-11227D01*
X337Y-11284D01*
X1518Y-12015D02*
X1574Y-12071D01*
X1518Y-12127D01*
X1462Y-12071D01*
X1518Y-12015D01*
X1518Y-12127D01*
X2587Y-11340D02*
X2587Y-12127D01*
X2305Y-10890D02*
X2024Y-11734D01*
X2755Y-11734D01*
X3430Y-10946D02*
X3543Y-10946D01*
X3655Y-11003D01*
X3711Y-11059D01*
X3768Y-11171D01*
X3824Y-11396D01*
X3824Y-11677D01*
X3768Y-11902D01*
X3711Y-12015D01*
X3655Y-12071D01*
X3543Y-12127D01*
X3430Y-12127D01*
X3318Y-12071D01*
X3262Y-12015D01*
X3205Y-11902D01*
X3149Y-11677D01*
X3149Y-11396D01*
X3205Y-11171D01*
X3262Y-11059D01*
X3318Y-11003D01*
X3430Y-10946D01*
X4330Y-12127D02*
X4330Y-11340D01*
X4330Y-11452D02*
X4386Y-11396D01*
X4499Y-11340D01*
X4668Y-11340D01*
X4780Y-11396D01*
X4836Y-11509D01*
X4836Y-12127D01*
X4836Y-11509D02*
X4893Y-11396D01*
X5005Y-11340D01*
X5174Y-11340D01*
X5286Y-11396D01*
X5342Y-11509D01*
X5342Y-12127D01*
X5905Y-12127D02*
X5905Y-11340D01*
X5905Y-11452D02*
X5961Y-11396D01*
X6074Y-11340D01*
X6242Y-11340D01*
X6355Y-11396D01*
X6411Y-11509D01*
X6411Y-12127D01*
X6411Y-11509D02*
X6467Y-11396D01*
X6580Y-11340D01*
X6749Y-11340D01*
X6861Y-11396D01*
X6917Y-11509D01*
X6917Y-12127D01*
X9223Y-10890D02*
X8211Y-12409D01*
X10742Y-10946D02*
X10854Y-10946D01*
X10967Y-11003D01*
X11023Y-11059D01*
X11079Y-11171D01*
X11136Y-11396D01*
X11136Y-11677D01*
X11079Y-11902D01*
X11023Y-12015D01*
X10967Y-12071D01*
X10854Y-12127D01*
X10742Y-12127D01*
X10629Y-12071D01*
X10573Y-12015D01*
X10517Y-11902D01*
X10461Y-11677D01*
X10461Y-11396D01*
X10517Y-11171D01*
X10573Y-11059D01*
X10629Y-11003D01*
X10742Y-10946D01*
X11642Y-12015D02*
X11698Y-12071D01*
X11642Y-12127D01*
X11585Y-12071D01*
X11642Y-12015D01*
X11642Y-12127D01*
X12429Y-10946D02*
X12542Y-10946D01*
X12654Y-11003D01*
X12710Y-11059D01*
X12767Y-11171D01*
X12823Y-11396D01*
X12823Y-11677D01*
X12767Y-11902D01*
X12710Y-12015D01*
X12654Y-12071D01*
X12542Y-12127D01*
X12429Y-12127D01*
X12317Y-12071D01*
X12260Y-12015D01*
X12204Y-11902D01*
X12148Y-11677D01*
X12148Y-11396D01*
X12204Y-11171D01*
X12260Y-11059D01*
X12317Y-11003D01*
X12429Y-10946D01*
X13891Y-10946D02*
X13329Y-10946D01*
X13273Y-11509D01*
X13329Y-11452D01*
X13441Y-11396D01*
X13723Y-11396D01*
X13835Y-11452D01*
X13891Y-11509D01*
X13948Y-11621D01*
X13948Y-11902D01*
X13891Y-12015D01*
X13835Y-12071D01*
X13723Y-12127D01*
X13441Y-12127D01*
X13329Y-12071D01*
X13273Y-12015D01*
X15016Y-10946D02*
X14454Y-10946D01*
X14398Y-11509D01*
X14454Y-11452D01*
X14566Y-11396D01*
X14848Y-11396D01*
X14960Y-11452D01*
X15016Y-11509D01*
X15073Y-11621D01*
X15073Y-11902D01*
X15016Y-12015D01*
X14960Y-12071D01*
X14848Y-12127D01*
X14566Y-12127D01*
X14454Y-12071D01*
X14398Y-12015D01*
X15522Y-10946D02*
X15522Y-11171D01*
X15972Y-10946D02*
X15972Y-11171D01*
X17716Y-12577D02*
X17660Y-12521D01*
X17547Y-12352D01*
X17491Y-12240D01*
X17435Y-12071D01*
X17378Y-11790D01*
X17378Y-11565D01*
X17435Y-11284D01*
X17491Y-11115D01*
X17547Y-11003D01*
X17660Y-10834D01*
X17716Y-10778D01*
X18335Y-11452D02*
X18222Y-11396D01*
X18166Y-11340D01*
X18110Y-11227D01*
X18110Y-11171D01*
X18166Y-11059D01*
X18222Y-11003D01*
X18335Y-10946D01*
X18560Y-10946D01*
X18672Y-11003D01*
X18728Y-11059D01*
X18785Y-11171D01*
X18785Y-11227D01*
X18728Y-11340D01*
X18672Y-11396D01*
X18560Y-11452D01*
X18335Y-11452D01*
X18222Y-11509D01*
X18166Y-11565D01*
X18110Y-11677D01*
X18110Y-11902D01*
X18166Y-12015D01*
X18222Y-12071D01*
X18335Y-12127D01*
X18560Y-12127D01*
X18672Y-12071D01*
X18728Y-12015D01*
X18785Y-11902D01*
X18785Y-11677D01*
X18728Y-11565D01*
X18672Y-11509D01*
X18560Y-11452D01*
X20191Y-12127D02*
X20191Y-10946D01*
X20697Y-12127D02*
X20697Y-11509D01*
X20641Y-11396D01*
X20528Y-11340D01*
X20359Y-11340D01*
X20247Y-11396D01*
X20191Y-11452D01*
X21428Y-12127D02*
X21316Y-12071D01*
X21259Y-12015D01*
X21203Y-11902D01*
X21203Y-11565D01*
X21259Y-11452D01*
X21316Y-11396D01*
X21428Y-11340D01*
X21597Y-11340D01*
X21709Y-11396D01*
X21765Y-11452D01*
X21822Y-11565D01*
X21822Y-11902D01*
X21765Y-12015D01*
X21709Y-12071D01*
X21597Y-12127D01*
X21428Y-12127D01*
X22497Y-12127D02*
X22384Y-12071D01*
X22328Y-11959D01*
X22328Y-10946D01*
X23396Y-12071D02*
X23284Y-12127D01*
X23059Y-12127D01*
X22947Y-12071D01*
X22890Y-11959D01*
X22890Y-11509D01*
X22947Y-11396D01*
X23059Y-11340D01*
X23284Y-11340D01*
X23396Y-11396D01*
X23453Y-11509D01*
X23453Y-11621D01*
X22890Y-11734D01*
X23903Y-12071D02*
X24015Y-12127D01*
X24240Y-12127D01*
X24353Y-12071D01*
X24409Y-11959D01*
X24409Y-11902D01*
X24353Y-11790D01*
X24240Y-11734D01*
X24071Y-11734D01*
X23959Y-11677D01*
X23903Y-11565D01*
X23903Y-11509D01*
X23959Y-11396D01*
X24071Y-11340D01*
X24240Y-11340D01*
X24353Y-11396D01*
X24803Y-12577D02*
X24859Y-12521D01*
X24971Y-12352D01*
X25028Y-12240D01*
X25084Y-12071D01*
X25140Y-11790D01*
X25140Y-11565D01*
X25084Y-11284D01*
X25028Y-11115D01*
X24971Y-11003D01*
X24859Y-10834D01*
X24803Y-10778D01*
X-1925Y-12583D02*
X-675Y-13833D01*
X-675Y-12583D02*
X-1925Y-13833D01*
X-1300Y-12583D02*
X-1300Y-13833D01*
X-1925Y-13208D02*
X-675Y-13208D01*
X281Y-12505D02*
X1012Y-12505D01*
X618Y-12955D01*
X787Y-12955D01*
X899Y-13012D01*
X956Y-13068D01*
X1012Y-13180D01*
X1012Y-13461D01*
X956Y-13574D01*
X899Y-13630D01*
X787Y-13686D01*
X449Y-13686D01*
X337Y-13630D01*
X281Y-13574D01*
X1518Y-13574D02*
X1574Y-13630D01*
X1518Y-13686D01*
X1462Y-13630D01*
X1518Y-13574D01*
X1518Y-13686D01*
X2699Y-13686D02*
X2024Y-13686D01*
X2362Y-13686D02*
X2362Y-12505D01*
X2249Y-12674D01*
X2137Y-12787D01*
X2024Y-12843D01*
X3093Y-12505D02*
X3880Y-12505D01*
X3374Y-13686D01*
X4330Y-13686D02*
X4330Y-12899D01*
X4330Y-13012D02*
X4386Y-12955D01*
X4499Y-12899D01*
X4668Y-12899D01*
X4780Y-12955D01*
X4836Y-13068D01*
X4836Y-13686D01*
X4836Y-13068D02*
X4893Y-12955D01*
X5005Y-12899D01*
X5174Y-12899D01*
X5286Y-12955D01*
X5342Y-13068D01*
X5342Y-13686D01*
X5905Y-13686D02*
X5905Y-12899D01*
X5905Y-13012D02*
X5961Y-12955D01*
X6074Y-12899D01*
X6242Y-12899D01*
X6355Y-12955D01*
X6411Y-13068D01*
X6411Y-13686D01*
X6411Y-13068D02*
X6467Y-12955D01*
X6580Y-12899D01*
X6749Y-12899D01*
X6861Y-12955D01*
X6917Y-13068D01*
X6917Y-13686D01*
X9223Y-12449D02*
X8211Y-13968D01*
X10742Y-12505D02*
X10854Y-12505D01*
X10967Y-12562D01*
X11023Y-12618D01*
X11079Y-12730D01*
X11136Y-12955D01*
X11136Y-13236D01*
X11079Y-13461D01*
X11023Y-13574D01*
X10967Y-13630D01*
X10854Y-13686D01*
X10742Y-13686D01*
X10629Y-13630D01*
X10573Y-13574D01*
X10517Y-13461D01*
X10461Y-13236D01*
X10461Y-12955D01*
X10517Y-12730D01*
X10573Y-12618D01*
X10629Y-12562D01*
X10742Y-12505D01*
X11642Y-13574D02*
X11698Y-13630D01*
X11642Y-13686D01*
X11585Y-13630D01*
X11642Y-13574D01*
X11642Y-13686D01*
X12823Y-13686D02*
X12148Y-13686D01*
X12485Y-13686D02*
X12485Y-12505D01*
X12373Y-12674D01*
X12260Y-12787D01*
X12148Y-12843D01*
X13273Y-12618D02*
X13329Y-12562D01*
X13441Y-12505D01*
X13723Y-12505D01*
X13835Y-12562D01*
X13891Y-12618D01*
X13948Y-12730D01*
X13948Y-12843D01*
X13891Y-13012D01*
X13217Y-13686D01*
X13948Y-13686D01*
X15016Y-12505D02*
X14454Y-12505D01*
X14398Y-13068D01*
X14454Y-13012D01*
X14566Y-12955D01*
X14848Y-12955D01*
X14960Y-13012D01*
X15016Y-13068D01*
X15073Y-13180D01*
X15073Y-13461D01*
X15016Y-13574D01*
X14960Y-13630D01*
X14848Y-13686D01*
X14566Y-13686D01*
X14454Y-13630D01*
X14398Y-13574D01*
X15522Y-12505D02*
X15522Y-12730D01*
X15972Y-12505D02*
X15972Y-12730D01*
X17716Y-14136D02*
X17660Y-14080D01*
X17547Y-13911D01*
X17491Y-13799D01*
X17435Y-13630D01*
X17378Y-13349D01*
X17378Y-13124D01*
X17435Y-12843D01*
X17491Y-12674D01*
X17547Y-12562D01*
X17660Y-12393D01*
X17716Y-12337D01*
X18672Y-12899D02*
X18672Y-13686D01*
X18391Y-12449D02*
X18110Y-13293D01*
X18841Y-13293D01*
X20191Y-13686D02*
X20191Y-12505D01*
X20697Y-13686D02*
X20697Y-13068D01*
X20641Y-12955D01*
X20528Y-12899D01*
X20359Y-12899D01*
X20247Y-12955D01*
X20191Y-13012D01*
X21428Y-13686D02*
X21316Y-13630D01*
X21259Y-13574D01*
X21203Y-13461D01*
X21203Y-13124D01*
X21259Y-13012D01*
X21316Y-12955D01*
X21428Y-12899D01*
X21597Y-12899D01*
X21709Y-12955D01*
X21765Y-13012D01*
X21822Y-13124D01*
X21822Y-13461D01*
X21765Y-13574D01*
X21709Y-13630D01*
X21597Y-13686D01*
X21428Y-13686D01*
X22497Y-13686D02*
X22384Y-13630D01*
X22328Y-13518D01*
X22328Y-12505D01*
X23396Y-13630D02*
X23284Y-13686D01*
X23059Y-13686D01*
X22947Y-13630D01*
X22890Y-13518D01*
X22890Y-13068D01*
X22947Y-12955D01*
X23059Y-12899D01*
X23284Y-12899D01*
X23396Y-12955D01*
X23453Y-13068D01*
X23453Y-13180D01*
X22890Y-13293D01*
X23903Y-13630D02*
X24015Y-13686D01*
X24240Y-13686D01*
X24353Y-13630D01*
X24409Y-13518D01*
X24409Y-13461D01*
X24353Y-13349D01*
X24240Y-13293D01*
X24071Y-13293D01*
X23959Y-13236D01*
X23903Y-13124D01*
X23903Y-13068D01*
X23959Y-12955D01*
X24071Y-12899D01*
X24240Y-12899D01*
X24353Y-12955D01*
X24803Y-14136D02*
X24859Y-14080D01*
X24971Y-13911D01*
X25028Y-13799D01*
X25084Y-13630D01*
X25140Y-13349D01*
X25140Y-13124D01*
X25084Y-12843D01*
X25028Y-12674D01*
X24971Y-12562D01*
X24859Y-12393D01*
X24803Y-12337D01*
X-2165Y-14225D02*
X-675Y-15715D01*
X-675Y-14225D02*
X-2165Y-15715D01*
G54D12*
X-893Y-15497D02*
X-893Y-14443D01*
X-1946Y-14443D01*
X-1946Y-15497D01*
X-893Y-15497D01*
G54D13*
X281Y-14267D02*
X1012Y-14267D01*
X618Y-14717D01*
X787Y-14717D01*
X899Y-14773D01*
X956Y-14830D01*
X1012Y-14942D01*
X1012Y-15223D01*
X956Y-15336D01*
X899Y-15392D01*
X787Y-15448D01*
X449Y-15448D01*
X337Y-15392D01*
X281Y-15336D01*
X1518Y-15336D02*
X1574Y-15392D01*
X1518Y-15448D01*
X1462Y-15392D01*
X1518Y-15336D01*
X1518Y-15448D01*
X1968Y-14267D02*
X2755Y-14267D01*
X2249Y-15448D01*
X3374Y-14773D02*
X3262Y-14717D01*
X3205Y-14661D01*
X3149Y-14548D01*
X3149Y-14492D01*
X3205Y-14380D01*
X3262Y-14323D01*
X3374Y-14267D01*
X3599Y-14267D01*
X3711Y-14323D01*
X3768Y-14380D01*
X3824Y-14492D01*
X3824Y-14548D01*
X3768Y-14661D01*
X3711Y-14717D01*
X3599Y-14773D01*
X3374Y-14773D01*
X3262Y-14830D01*
X3205Y-14886D01*
X3149Y-14998D01*
X3149Y-15223D01*
X3205Y-15336D01*
X3262Y-15392D01*
X3374Y-15448D01*
X3599Y-15448D01*
X3711Y-15392D01*
X3768Y-15336D01*
X3824Y-15223D01*
X3824Y-14998D01*
X3768Y-14886D01*
X3711Y-14830D01*
X3599Y-14773D01*
X4330Y-15448D02*
X4330Y-14661D01*
X4330Y-14773D02*
X4386Y-14717D01*
X4499Y-14661D01*
X4668Y-14661D01*
X4780Y-14717D01*
X4836Y-14830D01*
X4836Y-15448D01*
X4836Y-14830D02*
X4893Y-14717D01*
X5005Y-14661D01*
X5174Y-14661D01*
X5286Y-14717D01*
X5342Y-14830D01*
X5342Y-15448D01*
X5905Y-15448D02*
X5905Y-14661D01*
X5905Y-14773D02*
X5961Y-14717D01*
X6074Y-14661D01*
X6242Y-14661D01*
X6355Y-14717D01*
X6411Y-14830D01*
X6411Y-15448D01*
X6411Y-14830D02*
X6467Y-14717D01*
X6580Y-14661D01*
X6749Y-14661D01*
X6861Y-14717D01*
X6917Y-14830D01*
X6917Y-15448D01*
X9223Y-14211D02*
X8211Y-15729D01*
X10742Y-14267D02*
X10854Y-14267D01*
X10967Y-14323D01*
X11023Y-14380D01*
X11079Y-14492D01*
X11136Y-14717D01*
X11136Y-14998D01*
X11079Y-15223D01*
X11023Y-15336D01*
X10967Y-15392D01*
X10854Y-15448D01*
X10742Y-15448D01*
X10629Y-15392D01*
X10573Y-15336D01*
X10517Y-15223D01*
X10461Y-14998D01*
X10461Y-14717D01*
X10517Y-14492D01*
X10573Y-14380D01*
X10629Y-14323D01*
X10742Y-14267D01*
X11642Y-15336D02*
X11698Y-15392D01*
X11642Y-15448D01*
X11585Y-15392D01*
X11642Y-15336D01*
X11642Y-15448D01*
X12823Y-15448D02*
X12148Y-15448D01*
X12485Y-15448D02*
X12485Y-14267D01*
X12373Y-14436D01*
X12260Y-14548D01*
X12148Y-14605D01*
X13835Y-14661D02*
X13835Y-15448D01*
X13554Y-14211D02*
X13273Y-15055D01*
X14004Y-15055D01*
X14510Y-15448D02*
X14735Y-15448D01*
X14848Y-15392D01*
X14904Y-15336D01*
X15016Y-15167D01*
X15073Y-14942D01*
X15073Y-14492D01*
X15016Y-14380D01*
X14960Y-14323D01*
X14848Y-14267D01*
X14623Y-14267D01*
X14510Y-14323D01*
X14454Y-14380D01*
X14398Y-14492D01*
X14398Y-14773D01*
X14454Y-14886D01*
X14510Y-14942D01*
X14623Y-14998D01*
X14848Y-14998D01*
X14960Y-14942D01*
X15016Y-14886D01*
X15073Y-14773D01*
X15522Y-14267D02*
X15522Y-14492D01*
X15972Y-14267D02*
X15972Y-14492D01*
X17716Y-15898D02*
X17660Y-15842D01*
X17547Y-15673D01*
X17491Y-15561D01*
X17435Y-15392D01*
X17378Y-15111D01*
X17378Y-14886D01*
X17435Y-14605D01*
X17491Y-14436D01*
X17547Y-14323D01*
X17660Y-14155D01*
X17716Y-14098D01*
X18053Y-14267D02*
X18785Y-14267D01*
X18391Y-14717D01*
X18560Y-14717D01*
X18672Y-14773D01*
X18728Y-14830D01*
X18785Y-14942D01*
X18785Y-15223D01*
X18728Y-15336D01*
X18672Y-15392D01*
X18560Y-15448D01*
X18222Y-15448D01*
X18110Y-15392D01*
X18053Y-15336D01*
X20191Y-15448D02*
X20191Y-14267D01*
X20697Y-15448D02*
X20697Y-14830D01*
X20641Y-14717D01*
X20528Y-14661D01*
X20359Y-14661D01*
X20247Y-14717D01*
X20191Y-14773D01*
X21428Y-15448D02*
X21316Y-15392D01*
X21259Y-15336D01*
X21203Y-15223D01*
X21203Y-14886D01*
X21259Y-14773D01*
X21316Y-14717D01*
X21428Y-14661D01*
X21597Y-14661D01*
X21709Y-14717D01*
X21765Y-14773D01*
X21822Y-14886D01*
X21822Y-15223D01*
X21765Y-15336D01*
X21709Y-15392D01*
X21597Y-15448D01*
X21428Y-15448D01*
X22497Y-15448D02*
X22384Y-15392D01*
X22328Y-15280D01*
X22328Y-14267D01*
X23396Y-15392D02*
X23284Y-15448D01*
X23059Y-15448D01*
X22947Y-15392D01*
X22890Y-15280D01*
X22890Y-14830D01*
X22947Y-14717D01*
X23059Y-14661D01*
X23284Y-14661D01*
X23396Y-14717D01*
X23453Y-14830D01*
X23453Y-14942D01*
X22890Y-15055D01*
X23903Y-15392D02*
X24015Y-15448D01*
X24240Y-15448D01*
X24353Y-15392D01*
X24409Y-15280D01*
X24409Y-15223D01*
X24353Y-15111D01*
X24240Y-15055D01*
X24071Y-15055D01*
X23959Y-14998D01*
X23903Y-14886D01*
X23903Y-14830D01*
X23959Y-14717D01*
X24071Y-14661D01*
X24240Y-14661D01*
X24353Y-14717D01*
X24803Y-15898D02*
X24859Y-15842D01*
X24971Y-15673D01*
X25028Y-15561D01*
X25084Y-15392D01*
X25140Y-15111D01*
X25140Y-14886D01*
X25084Y-14605D01*
X25028Y-14436D01*
X24971Y-14323D01*
X24859Y-14155D01*
X24803Y-14098D01*
M02*
