M48
;DRILL file {Pcbnew (2013-07-07 BZR 4022)-stable} date 5/29/2014 4:42:36 PM
;FORMAT={3:3/ absolute / metric / suppress leading zeros}
FMAT,2
METRIC,TZ
T1C0.305
T2C1.016
T3C1.200
T4C1.300
T5C1.600
T6C3.175
%
G90
G05
M71
T1
X29210Y82550
X35560Y50800
X40640Y52070
X41910Y41275
X42545Y40640
X43180Y37465
X45720Y53975
X45720Y52705
X46609Y56261
X46990Y52705
X48260Y40640
X48260Y36381
X48667Y64444
X49530Y52705
X51435Y53848
X51556Y67945
X51936Y70485
X52070Y65405
X53340Y75565
X53340Y57150
X56515Y81280
X57785Y81915
X57785Y60325
X58420Y55245
X59055Y70485
X59690Y79375
X59723Y64757
X60992Y75565
X61011Y68830
X62612Y72900
X64135Y48260
X65405Y48260
X67310Y82550
X68317Y70802
X68626Y57425
X69016Y74307
X69179Y76045
X69215Y60325
X69850Y53975
X70277Y73644
X70407Y58103
X70465Y75304
X71755Y61595
X73521Y61475
X73660Y78740
X73660Y75565
X73660Y74295
X75437Y68223
X76200Y89535
X76200Y59055
X76200Y52705
X77470Y66040
X78710Y76852
X80010Y52070
X80010Y50800
X80278Y76835
X80325Y73955
X80365Y75565
X84022Y85655
X84455Y64770
X85090Y85090
X87376Y60706
X87376Y58674
X91440Y79375
X93980Y58674
X96012Y58674
X96012Y55118
X96012Y51562
X97536Y58674
X97536Y55118
X97536Y51562
X100584Y58674
X100584Y55118
T2
X25400Y45720
X27940Y45720
X29210Y93980
X29210Y91440
X29210Y88900
X31115Y39370
X31115Y34290
X31115Y29210
X31750Y22225
X33655Y39370
X33655Y34290
X33655Y29210
X34290Y22225
X36195Y39370
X36195Y34290
X36195Y29210
X44450Y110490
X44450Y97790
X44450Y93980
X44450Y91440
X44450Y45720
X44450Y43180
X44450Y22225
X46990Y110490
X46990Y97790
X46990Y93980
X46990Y91440
X46990Y50165
X46990Y45720
X46990Y43180
X46990Y22225
X49530Y114935
X49530Y110490
X49530Y97790
X49530Y93980
X49530Y91440
X49530Y83820
X49530Y81280
X49530Y50165
X49530Y45720
X49530Y43180
X49530Y39370
X49530Y26670
X52070Y114935
X52070Y110490
X52070Y97790
X52070Y93980
X52070Y91440
X52070Y83820
X52070Y81280
X52070Y50165
X52070Y45720
X52070Y43180
X52070Y39370
X52070Y26670
X53340Y106680
X53340Y104140
X53340Y101600
X54610Y114935
X54610Y110490
X54610Y97790
X54610Y93980
X54610Y91440
X54610Y83820
X54610Y81280
X54610Y50165
X54610Y45720
X54610Y43180
X54610Y39370
X54610Y26670
X54610Y22225
X55880Y106680
X55880Y104140
X55880Y101600
X55880Y35560
X55880Y33020
X55880Y30480
X57150Y114935
X57150Y110490
X57150Y97790
X57150Y93980
X57150Y91440
X57150Y45720
X57150Y43180
X57150Y39370
X57150Y26670
X57150Y22225
X58420Y35560
X58420Y33020
X58420Y30480
X59690Y110490
X59690Y97790
X59690Y93980
X59690Y91440
X59690Y45720
X59690Y43180
X59690Y39370
X59690Y26670
X59690Y22225
X62230Y110490
X62230Y97790
X62230Y93980
X62230Y91440
X62230Y45720
X62230Y43180
X62230Y39370
X62230Y26670
X62230Y22225
X64770Y110490
X64770Y97790
X64770Y93980
X64770Y91440
X64770Y45720
X64770Y43180
X64770Y39370
X64770Y26670
X67310Y110490
X67310Y97790
X67310Y93980
X67310Y91440
X67310Y48895
X67310Y45720
X67310Y43180
X67310Y39370
X67310Y26670
X69850Y114935
X69850Y110490
X69850Y97790
X69850Y93980
X69850Y91440
X69850Y83820
X69850Y81280
X69850Y48895
X69850Y45720
X69850Y43180
X69850Y39370
X69850Y26670
X72390Y114935
X72390Y110490
X72390Y97790
X72390Y93980
X72390Y91440
X72390Y83820
X72390Y81280
X72390Y48895
X72390Y45720
X72390Y43180
X72390Y39370
X72390Y26670
X73660Y106680
X73660Y104140
X73660Y101600
X74930Y114935
X74930Y110490
X74930Y97790
X74930Y93980
X74930Y91440
X74930Y83820
X74930Y81280
X74930Y48895
X74930Y45720
X74930Y43180
X74930Y39370
X74930Y26670
X74930Y22225
X76200Y106680
X76200Y104140
X76200Y101600
X76200Y35560
X76200Y33020
X76200Y30480
X77470Y114935
X77470Y110490
X77470Y97790
X77470Y93980
X77470Y91440
X77470Y83820
X77470Y81280
X77470Y48895
X77470Y45720
X77470Y43180
X77470Y39370
X77470Y26670
X77470Y22225
X78740Y35560
X78740Y33020
X78740Y30480
X80010Y110490
X80010Y97790
X80010Y93980
X80010Y91440
X80010Y48895
X80010Y45720
X80010Y43180
X80010Y39370
X80010Y26670
X80010Y22225
X82550Y110490
X82550Y97790
X82550Y93980
X82550Y91440
X82550Y57150
X82550Y54610
X82550Y45720
X82550Y43180
X82550Y39370
X82550Y26670
X82550Y22225
X85090Y110490
X85090Y97790
X85090Y93980
X85090Y91440
X85090Y57150
X85090Y54610
X85090Y45720
X85090Y43180
X85090Y39370
X85090Y26670
X87630Y110490
X87630Y97790
X87630Y93980
X87630Y91440
X87630Y49530
X87630Y45720
X87630Y43180
X87630Y39370
X87630Y26670
X90170Y114935
X90170Y110490
X90170Y97790
X90170Y93980
X90170Y91440
X90170Y83820
X90170Y81280
X90170Y53340
X90170Y49530
X90170Y45720
X90170Y43180
X90170Y39370
X90170Y26670
X92710Y114935
X92710Y110490
X92710Y97790
X92710Y93980
X92710Y91440
X92710Y83820
X92710Y81280
X92710Y53340
X92710Y49530
X92710Y45720
X92710Y43180
X92710Y39370
X92710Y26670
X93980Y106680
X93980Y104140
X93980Y101600
X95250Y114935
X95250Y110490
X95250Y97790
X95250Y93980
X95250Y91440
X95250Y83820
X95250Y81280
X95250Y49530
X95250Y45720
X95250Y43180
X95250Y39370
X95250Y26670
X95250Y22225
X96520Y106680
X96520Y104140
X96520Y101600
X96520Y35560
X96520Y33020
X96520Y30480
X97790Y114935
X97790Y110490
X97790Y97790
X97790Y93980
X97790Y91440
X97790Y83820
X97790Y81280
X97790Y49530
X97790Y45720
X97790Y43180
X97790Y39370
X97790Y26670
X97790Y22225
X99060Y35560
X99060Y33020
X99060Y30480
X100330Y110490
X100330Y97790
X100330Y93980
X100330Y91440
X100330Y49530
X100330Y45720
X100330Y43180
X100330Y39370
X100330Y26670
X100330Y22225
X102870Y110490
X102870Y97790
X102870Y78740
X102870Y76200
X102870Y73660
X102870Y71120
X102870Y68580
X102870Y66040
X102870Y60960
X102870Y58420
X102870Y55880
X102870Y53340
X102870Y39370
X102870Y26670
X102870Y22225
X105410Y78740
X105410Y76200
X105410Y73660
X105410Y71120
X105410Y68580
X105410Y66040
X105410Y60960
X105410Y58420
X105410Y55880
X105410Y53340
X105410Y39370
X105410Y26670
X105700Y113739
X105700Y107239
X105700Y103579
X105700Y97079
X107950Y85090
X107950Y82550
X107950Y78740
X107950Y76200
X107950Y73660
X107950Y71120
X107950Y68580
X107950Y66040
X107950Y39370
X107950Y26670
X110200Y113739
X110200Y107239
X110200Y103579
X110200Y97079
T3
X19900Y49400
X19900Y45900
X19900Y42400
X19900Y38900
X19900Y35400
X19900Y31900
X19900Y28400
X19900Y24900
X19900Y21400
T4
X19900Y112900
X19900Y107900
X19900Y102900
X19900Y97900
X19900Y87900
X19900Y82900
X19900Y59400
X19900Y54400
T5
X29190Y114730
X29190Y111330
X29190Y104570
X29190Y101170
X29190Y60120
X29190Y56720
X39390Y114730
X39390Y111330
X39390Y104570
X39390Y101170
X39390Y60120
X39390Y56720
T6
X39370Y92710
X39370Y44450
X105410Y89535
X105410Y47625
T0
M30
