M48
;DRILL file {Pcbnew (2013-07-07 BZR 4022)-stable} date 5/7/2014 5:01:10 PM
;FORMAT={3:3/ absolute / metric / keep zeros}
FMAT,2
METRIC,TZ
T1C0.305
T2C0.813
T3C1.016
T4C1.200
T5C1.300
T6C1.600
T7C3.175
%
G90
G05
M71
T1
X028126Y012488
X028241Y022088
X029072Y023196
X031115Y038481
X031496Y036195
X034036Y018601
X034443Y046664
X036576Y036195
X037332Y050165
X037712Y052705
X037846Y047625
X039116Y039370
X039258Y051670
X041703Y062241
X042732Y053119
X042926Y060960
X044493Y038413
X044831Y055245
X046736Y033655
X051433Y051435
X051604Y053975
X051828Y047625
X051828Y032775
X052355Y057689
X052451Y044450
X052460Y056175
X053086Y066040
X053598Y057642
X053958Y059916
X054356Y037465
X055162Y058485
X056393Y040323
X057792Y040262
X058166Y058420
X058355Y043590
X058801Y060325
X058801Y055880
X058977Y044627
X059035Y050540
X061976Y072390
X062611Y060325
X062938Y053355
X064516Y071085
X064516Y058420
X065074Y056175
X065151Y060325
X066421Y067310
X067056Y043867
X070866Y067310
X072263Y042672
X072263Y041148
X075184Y044450
X077216Y061595
X079756Y040894
X081788Y040894
X081788Y037338
X081788Y033782
X083312Y040894
X083312Y037338
X083312Y033782
X086360Y040894
X086360Y037338
T2
X021336Y033020
X030226Y092710
X030226Y080010
X031496Y034925
X032766Y092710
X032766Y080010
X035306Y092710
X035306Y080010
X035306Y021590
X035306Y008890
X037846Y092710
X037846Y080010
X037846Y021590
X037846Y008890
X040386Y092710
X040386Y080010
X040386Y021590
X040386Y008890
X042926Y092710
X042926Y080010
X042926Y021590
X042926Y008890
X045466Y092710
X045466Y080010
X045466Y021590
X045466Y008890
X048006Y092710
X048006Y080010
X048006Y021590
X048006Y008890
X050546Y092710
X050546Y080010
X050546Y021590
X050546Y008890
X053086Y092710
X053086Y080010
X053086Y021590
X053086Y008890
X055626Y092710
X055626Y080010
X055626Y021590
X055626Y008890
X058166Y092710
X058166Y080010
X058166Y021590
X058166Y008890
X060706Y092710
X060706Y080010
X060706Y021590
X060706Y008890
X063246Y092710
X063246Y080010
X063246Y021590
X063246Y008890
X065786Y092710
X065786Y080010
X065786Y021590
X065786Y008890
X068326Y092710
X068326Y080010
X068326Y021590
X068326Y008890
X070866Y092710
X070866Y080010
X070866Y021590
X070866Y008890
X073406Y092710
X073406Y080010
X073406Y021590
X073406Y008890
X075946Y092710
X075946Y080010
X075946Y021590
X075946Y008890
X078486Y092710
X078486Y080010
X078486Y021590
X078486Y008890
X081026Y092710
X081026Y080010
X081026Y021590
X081026Y008890
X083566Y092710
X083566Y080010
X083566Y021590
X083566Y008890
X086106Y092710
X086106Y080010
X086106Y021590
X086106Y008890
X088646Y092710
X088646Y080010
X088646Y021590
X088646Y008890
X091186Y021590
X091186Y008890
X093726Y021590
X093726Y008890
T3
X011176Y027940
X013716Y027940
X014986Y076200
X014986Y073660
X014986Y071120
X015584Y064759
X016891Y021590
X016891Y016510
X016891Y011430
X017526Y004445
X019431Y021590
X019431Y016510
X019431Y011430
X020066Y004445
X021971Y021590
X021971Y016510
X021971Y011430
X030226Y076200
X030226Y073660
X030226Y027940
X030226Y025400
X030226Y004445
X032766Y076200
X032766Y073660
X032766Y032385
X032766Y027940
X032766Y025400
X032766Y004445
X035306Y097155
X035306Y076200
X035306Y073660
X035306Y066040
X035306Y063500
X035306Y032385
X035306Y027940
X035306Y025400
X037846Y097155
X037846Y076200
X037846Y073660
X037846Y066040
X037846Y063500
X037846Y032385
X037846Y027940
X037846Y025400
X039116Y088900
X039116Y086360
X039116Y083820
X040386Y097155
X040386Y076200
X040386Y073660
X040386Y066040
X040386Y063500
X040386Y032385
X040386Y027940
X040386Y025400
X040386Y004445
X041656Y088900
X041656Y086360
X041656Y083820
X041656Y017780
X041656Y015240
X041656Y012700
X042926Y097155
X042926Y076200
X042926Y073660
X042926Y027940
X042926Y025400
X042926Y004445
X044196Y031115
X044196Y017780
X044196Y015240
X044196Y012700
X045466Y076200
X045466Y073660
X045466Y027940
X045466Y025400
X045466Y004445
X046736Y031115
X048006Y076200
X048006Y073660
X048006Y027940
X048006Y025400
X048006Y004445
X049276Y031115
X050546Y076200
X050546Y073660
X050546Y027940
X050546Y025400
X051816Y031115
X053086Y076200
X053086Y073660
X053086Y027940
X053086Y025400
X054356Y031115
X055626Y097155
X055626Y076200
X055626Y073660
X055626Y066040
X055626Y063500
X055626Y027940
X055626Y025400
X056896Y031115
X058166Y097155
X058166Y076200
X058166Y073660
X058166Y066040
X058166Y063500
X058166Y027940
X058166Y025400
X059436Y088900
X059436Y086360
X059436Y083820
X060706Y097155
X060706Y076200
X060706Y073660
X060706Y066040
X060706Y063500
X060706Y034290
X060706Y031750
X060706Y027940
X060706Y025400
X060706Y004445
X061976Y088900
X061976Y086360
X061976Y083820
X061976Y017780
X061976Y015240
X061976Y012700
X063246Y097155
X063246Y076200
X063246Y073660
X063246Y066040
X063246Y063500
X063246Y034290
X063246Y031750
X063246Y027940
X063246Y025400
X063246Y004445
X064516Y017780
X064516Y015240
X064516Y012700
X065786Y076200
X065786Y073660
X065786Y027940
X065786Y025400
X065786Y004445
X068326Y076200
X068326Y073660
X068326Y027940
X068326Y025400
X068326Y004445
X070866Y076200
X070866Y073660
X070866Y027940
X070866Y025400
X073406Y076200
X073406Y073660
X073406Y031750
X073406Y027940
X073406Y025400
X075946Y097155
X075946Y076200
X075946Y073660
X075946Y066040
X075946Y063500
X075946Y035560
X075946Y031750
X075946Y027940
X075946Y025400
X078486Y097155
X078486Y076200
X078486Y073660
X078486Y066040
X078486Y063500
X078486Y035560
X078486Y031750
X078486Y027940
X078486Y025400
X079756Y088900
X079756Y086360
X079756Y083820
X081026Y097155
X081026Y076200
X081026Y073660
X081026Y066040
X081026Y063500
X081026Y031750
X081026Y027940
X081026Y025400
X081026Y004445
X082296Y088900
X082296Y086360
X082296Y083820
X082296Y017780
X082296Y015240
X082296Y012700
X083566Y097155
X083566Y076200
X083566Y073660
X083566Y066040
X083566Y063500
X083566Y031750
X083566Y027940
X083566Y025400
X083566Y004445
X084836Y017780
X084836Y015240
X084836Y012700
X086106Y076200
X086106Y073660
X086106Y031750
X086106Y027940
X086106Y025400
X086106Y004445
X088646Y060960
X088646Y058420
X088646Y055880
X088646Y053340
X088646Y050800
X088646Y048260
X088646Y043180
X088646Y040640
X088646Y038100
X088646Y035560
X088646Y004445
X091186Y060960
X091186Y058420
X091186Y055880
X091186Y053340
X091186Y050800
X091186Y048260
X091186Y043180
X091186Y040640
X091186Y038100
X091186Y035560
X091476Y095959
X091476Y089459
X091476Y085799
X091476Y079299
X093726Y067310
X093726Y064770
X093726Y060960
X093726Y058420
X093726Y055880
X093726Y053340
X093726Y050800
X093726Y048260
X095976Y095959
X095976Y089459
X095976Y085799
X095976Y079299
T4
X005676Y031620
X005676Y028120
X005676Y024620
X005676Y021120
X005676Y017620
X005676Y014120
X005676Y010620
X005676Y007120
X005676Y003620
T5
X005676Y095120
X005676Y090120
X005676Y085120
X005676Y080120
X005676Y070120
X005676Y065120
X005676Y041620
X005676Y036620
T6
X014966Y096950
X014966Y093550
X014966Y086790
X014966Y083390
X014966Y042340
X014966Y038940
X025166Y096950
X025166Y093550
X025166Y086790
X025166Y083390
X025166Y042340
X025166Y038940
T7
X025146Y074930
X025146Y026670
X091186Y071755
X091186Y029845
T0
M30
