G04 (created by PCBNEW (2013-07-07 BZR 4022)-stable) date 5/7/2014 5:01:08 PM*
%MOIN*%
G04 Gerber Fmt 3.4, Leading zero omitted, Abs format*
%FSLAX34Y34*%
G01*
G70*
G90*
G04 APERTURE LIST*
%ADD10C,0.00590551*%
%ADD11C,0.01*%
%ADD12C,0.012*%
%ADD13C,0.015*%
%ADD14C,0.011811*%
%ADD15C,0.02*%
%ADD16C,0.004*%
%ADD17C,0.008*%
%ADD18R,0.085X0.085*%
%ADD19C,0.085*%
%ADD20C,0.09*%
%ADD21R,0.09X0.09*%
%ADD22R,0.085X0.08*%
%ADD23R,0.075X0.1184*%
%ADD24C,0.08*%
%ADD25C,0.13811*%
%ADD26R,0.13811X0.13811*%
%ADD27C,0.114488*%
%ADD28R,0.114488X0.114488*%
%ADD29C,0.236535*%
%ADD30O,0.085X0.085*%
%ADD31C,0.124331*%
G04 APERTURE END LIST*
G54D10*
G54D11*
X318Y29766D02*
X318Y30266D01*
X80Y29766D02*
X80Y30266D01*
X-205Y29766D01*
X-205Y30266D01*
X889Y29478D02*
X794Y29478D01*
X747Y29454D01*
X699Y29407D01*
X675Y29312D01*
X675Y29145D01*
X699Y29050D01*
X747Y29002D01*
X794Y28978D01*
X889Y28978D01*
X937Y29002D01*
X985Y29050D01*
X1008Y29145D01*
X1008Y29312D01*
X985Y29407D01*
X937Y29454D01*
X889Y29478D01*
X461Y29478D02*
X461Y29073D01*
X437Y29026D01*
X413Y29002D01*
X366Y28978D01*
X270Y28978D01*
X223Y29002D01*
X199Y29026D01*
X175Y29073D01*
X175Y29478D01*
X8Y29478D02*
X-276Y29478D01*
X-133Y28978D02*
X-133Y29478D01*
G54D12*
X1644Y29181D02*
X1250Y29181D01*
X1644Y28590D02*
X1644Y29181D01*
X1644Y29968D02*
X659Y29968D01*
X1644Y30559D02*
X1644Y29968D01*
G54D13*
X462Y11759D02*
X659Y11759D01*
X462Y10381D02*
X659Y10381D01*
X659Y13137D02*
X659Y9003D01*
X69Y15401D02*
X462Y15401D01*
X69Y26622D02*
X462Y26622D01*
X69Y32527D02*
X462Y32527D01*
X69Y36464D02*
X462Y36464D01*
G54D11*
X146Y11201D02*
X170Y11154D01*
X170Y11082D01*
X146Y11011D01*
X98Y10963D01*
X51Y10939D01*
X-44Y10916D01*
X-115Y10916D01*
X-210Y10939D01*
X-258Y10963D01*
X-306Y11011D01*
X-329Y11082D01*
X-329Y11130D01*
X-306Y11201D01*
X-282Y11225D01*
X-115Y11225D01*
X-115Y11130D01*
X170Y12353D02*
X170Y12115D01*
X-68Y12091D01*
X-44Y12115D01*
X-20Y12163D01*
X-20Y12282D01*
X-44Y12329D01*
X-68Y12353D01*
X-115Y12377D01*
X-234Y12377D01*
X-282Y12353D01*
X-306Y12329D01*
X-329Y12282D01*
X-329Y12163D01*
X-306Y12115D01*
X-282Y12091D01*
X170Y12520D02*
X-329Y12686D01*
X170Y12853D01*
X170Y9216D02*
X-329Y9383D01*
X170Y9550D01*
X-139Y9716D02*
X-139Y10097D01*
X-329Y9907D02*
X51Y9907D01*
G54D13*
X462Y9003D02*
X3415Y9003D01*
X462Y6248D02*
X3415Y6248D01*
X462Y3492D02*
X3415Y3492D01*
X3415Y736D02*
X462Y736D01*
X3415Y13137D02*
X3415Y736D01*
X462Y13137D02*
X3415Y13137D01*
X462Y13433D02*
X462Y17370D01*
X4006Y13433D02*
X462Y13433D01*
X4006Y17370D02*
X4006Y13433D01*
X462Y17370D02*
X4006Y17370D01*
X462Y24653D02*
X462Y28590D01*
X4006Y24653D02*
X462Y24653D01*
X4006Y28590D02*
X4006Y24653D01*
X462Y28590D02*
X4006Y28590D01*
X462Y34496D02*
X4006Y34496D01*
X462Y30559D02*
X462Y38433D01*
X4006Y30559D02*
X462Y30559D01*
X4006Y38433D02*
X4006Y30559D01*
X462Y38433D02*
X4006Y38433D01*
X462Y34496D02*
X-600Y34496D01*
X462Y28590D02*
X-600Y28590D01*
X462Y30559D02*
X-600Y30559D01*
X462Y38433D02*
X-600Y38433D01*
X462Y17370D02*
X-600Y17370D01*
X462Y24653D02*
X-600Y24653D01*
X462Y13433D02*
X-600Y13433D01*
X462Y13137D02*
X-600Y13137D01*
X462Y9003D02*
X-600Y9003D01*
X462Y6248D02*
X-600Y6248D01*
X462Y3492D02*
X-600Y3492D01*
X462Y736D02*
X-600Y736D01*
G54D14*
X1123Y25272D02*
X1095Y25356D01*
X1067Y25384D01*
X1011Y25412D01*
X926Y25412D01*
X870Y25384D01*
X842Y25356D01*
X814Y25300D01*
X814Y25075D01*
X1405Y25075D01*
X1405Y25272D01*
X1376Y25328D01*
X1348Y25356D01*
X1292Y25384D01*
X1236Y25384D01*
X1180Y25356D01*
X1151Y25328D01*
X1123Y25272D01*
X1123Y25075D01*
X1123Y25665D02*
X1123Y25862D01*
X814Y25947D02*
X814Y25665D01*
X1405Y25665D01*
X1405Y25947D01*
X814Y26200D02*
X1405Y26200D01*
X1405Y26340D01*
X1376Y26425D01*
X1320Y26481D01*
X1264Y26509D01*
X1151Y26537D01*
X1067Y26537D01*
X955Y26509D01*
X898Y26481D01*
X842Y26425D01*
X814Y26340D01*
X814Y26200D01*
X814Y26790D02*
X1405Y26790D01*
X1123Y26790D02*
X1123Y27128D01*
X814Y27128D02*
X1405Y27128D01*
X1405Y27325D02*
X1405Y27662D01*
X814Y27493D02*
X1405Y27493D01*
X814Y28196D02*
X1095Y28000D01*
X814Y27859D02*
X1405Y27859D01*
X1405Y28084D01*
X1376Y28140D01*
X1348Y28168D01*
X1292Y28196D01*
X1208Y28196D01*
X1151Y28168D01*
X1123Y28140D01*
X1095Y28084D01*
X1095Y27859D01*
G54D11*
X146Y27225D02*
X170Y27177D01*
X170Y27106D01*
X146Y27034D01*
X98Y26987D01*
X51Y26963D01*
X-44Y26939D01*
X-115Y26939D01*
X-210Y26963D01*
X-258Y26987D01*
X-306Y27034D01*
X-329Y27106D01*
X-329Y27153D01*
X-306Y27225D01*
X-282Y27249D01*
X-115Y27249D01*
X-115Y27153D01*
X-329Y27463D02*
X170Y27463D01*
X-329Y27749D01*
X170Y27749D01*
X-329Y27987D02*
X170Y27987D01*
X170Y28106D01*
X146Y28177D01*
X98Y28225D01*
X51Y28249D01*
X-44Y28272D01*
X-115Y28272D01*
X-210Y28249D01*
X-258Y28225D01*
X-306Y28177D01*
X-329Y28106D01*
X-329Y27987D01*
X-68Y25197D02*
X-91Y25268D01*
X-115Y25292D01*
X-163Y25316D01*
X-234Y25316D01*
X-282Y25292D01*
X-306Y25268D01*
X-329Y25221D01*
X-329Y25030D01*
X170Y25030D01*
X170Y25197D01*
X146Y25244D01*
X122Y25268D01*
X74Y25292D01*
X27Y25292D01*
X-20Y25268D01*
X-44Y25244D01*
X-68Y25197D01*
X-68Y25030D01*
X-68Y25530D02*
X-68Y25697D01*
X-329Y25768D02*
X-329Y25530D01*
X170Y25530D01*
X170Y25768D01*
X-329Y25983D02*
X170Y25983D01*
X170Y26102D01*
X146Y26173D01*
X98Y26221D01*
X51Y26244D01*
X-44Y26268D01*
X-115Y26268D01*
X-210Y26244D01*
X-258Y26221D01*
X-306Y26173D01*
X-329Y26102D01*
X-329Y25983D01*
X-68Y31102D02*
X-91Y31174D01*
X-115Y31198D01*
X-163Y31221D01*
X-234Y31221D01*
X-282Y31198D01*
X-306Y31174D01*
X-329Y31126D01*
X-329Y30936D01*
X170Y30936D01*
X170Y31102D01*
X146Y31150D01*
X122Y31174D01*
X74Y31198D01*
X27Y31198D01*
X-20Y31174D01*
X-44Y31150D01*
X-68Y31102D01*
X-68Y30936D01*
X-68Y31436D02*
X-68Y31602D01*
X-329Y31674D02*
X-329Y31436D01*
X170Y31436D01*
X170Y31674D01*
X-329Y31888D02*
X170Y31888D01*
X170Y32007D01*
X146Y32079D01*
X98Y32126D01*
X51Y32150D01*
X-44Y32174D01*
X-115Y32174D01*
X-210Y32150D01*
X-258Y32126D01*
X-306Y32079D01*
X-329Y32007D01*
X-329Y31888D01*
X146Y33130D02*
X170Y33083D01*
X170Y33011D01*
X146Y32940D01*
X98Y32892D01*
X51Y32868D01*
X-44Y32845D01*
X-115Y32845D01*
X-210Y32868D01*
X-258Y32892D01*
X-306Y32940D01*
X-329Y33011D01*
X-329Y33059D01*
X-306Y33130D01*
X-282Y33154D01*
X-115Y33154D01*
X-115Y33059D01*
X-329Y33368D02*
X170Y33368D01*
X-329Y33654D01*
X170Y33654D01*
X-329Y33892D02*
X170Y33892D01*
X170Y34011D01*
X146Y34083D01*
X98Y34130D01*
X51Y34154D01*
X-44Y34178D01*
X-115Y34178D01*
X-210Y34154D01*
X-258Y34130D01*
X-306Y34083D01*
X-329Y34011D01*
X-329Y33892D01*
G54D14*
X1123Y31079D02*
X1095Y31163D01*
X1067Y31191D01*
X1011Y31219D01*
X926Y31219D01*
X870Y31191D01*
X842Y31163D01*
X814Y31107D01*
X814Y30882D01*
X1405Y30882D01*
X1405Y31079D01*
X1376Y31135D01*
X1348Y31163D01*
X1292Y31191D01*
X1236Y31191D01*
X1180Y31163D01*
X1151Y31135D01*
X1123Y31079D01*
X1123Y30882D01*
X1123Y31473D02*
X1123Y31669D01*
X814Y31754D02*
X814Y31473D01*
X1405Y31473D01*
X1405Y31754D01*
X814Y32007D02*
X1405Y32007D01*
X1405Y32147D01*
X1376Y32232D01*
X1320Y32288D01*
X1264Y32316D01*
X1151Y32344D01*
X1067Y32344D01*
X955Y32316D01*
X898Y32288D01*
X842Y32232D01*
X814Y32147D01*
X814Y32007D01*
X814Y32597D02*
X1405Y32597D01*
X1405Y32822D01*
X1376Y32879D01*
X1348Y32907D01*
X1292Y32935D01*
X1208Y32935D01*
X1151Y32907D01*
X1123Y32879D01*
X1095Y32822D01*
X1095Y32597D01*
X1405Y33132D02*
X814Y33272D01*
X1236Y33385D01*
X814Y33497D01*
X1405Y33638D01*
X814Y34200D02*
X1095Y34003D01*
X814Y33863D02*
X1405Y33863D01*
X1405Y34088D01*
X1376Y34144D01*
X1348Y34172D01*
X1292Y34200D01*
X1208Y34200D01*
X1151Y34172D01*
X1123Y34144D01*
X1095Y34088D01*
X1095Y33863D01*
X814Y34847D02*
X1405Y34847D01*
X983Y35044D01*
X1405Y35241D01*
X814Y35241D01*
X1405Y35634D02*
X1405Y35747D01*
X1376Y35803D01*
X1320Y35859D01*
X1208Y35888D01*
X1011Y35888D01*
X898Y35859D01*
X842Y35803D01*
X814Y35747D01*
X814Y35634D01*
X842Y35578D01*
X898Y35522D01*
X1011Y35494D01*
X1208Y35494D01*
X1320Y35522D01*
X1376Y35578D01*
X1405Y35634D01*
X1405Y36056D02*
X1405Y36394D01*
X814Y36225D02*
X1405Y36225D01*
X1405Y36703D02*
X1405Y36816D01*
X1376Y36872D01*
X1320Y36928D01*
X1208Y36956D01*
X1011Y36956D01*
X898Y36928D01*
X842Y36872D01*
X814Y36816D01*
X814Y36703D01*
X842Y36647D01*
X898Y36591D01*
X1011Y36562D01*
X1208Y36562D01*
X1320Y36591D01*
X1376Y36647D01*
X1405Y36703D01*
X814Y37547D02*
X1095Y37350D01*
X814Y37209D02*
X1405Y37209D01*
X1405Y37434D01*
X1376Y37491D01*
X1348Y37519D01*
X1292Y37547D01*
X1208Y37547D01*
X1151Y37519D01*
X1123Y37491D01*
X1095Y37434D01*
X1095Y37209D01*
X842Y37772D02*
X814Y37856D01*
X814Y37997D01*
X842Y38053D01*
X870Y38081D01*
X926Y38109D01*
X983Y38109D01*
X1039Y38081D01*
X1067Y38053D01*
X1095Y37997D01*
X1123Y37884D01*
X1151Y37828D01*
X1180Y37800D01*
X1236Y37772D01*
X1292Y37772D01*
X1348Y37800D01*
X1376Y37828D01*
X1405Y37884D01*
X1405Y38025D01*
X1376Y38109D01*
G54D11*
X146Y37067D02*
X170Y37020D01*
X170Y36948D01*
X146Y36877D01*
X98Y36829D01*
X51Y36805D01*
X-44Y36782D01*
X-115Y36782D01*
X-210Y36805D01*
X-258Y36829D01*
X-306Y36877D01*
X-329Y36948D01*
X-329Y36996D01*
X-306Y37067D01*
X-282Y37091D01*
X-115Y37091D01*
X-115Y36996D01*
X-329Y37305D02*
X170Y37305D01*
X-329Y37591D01*
X170Y37591D01*
X-329Y37829D02*
X170Y37829D01*
X170Y37948D01*
X146Y38020D01*
X98Y38067D01*
X51Y38091D01*
X-44Y38115D01*
X-115Y38115D01*
X-210Y38091D01*
X-258Y38067D01*
X-306Y38020D01*
X-329Y37948D01*
X-329Y37829D01*
X-329Y34861D02*
X170Y34861D01*
X-187Y35027D01*
X170Y35194D01*
X-329Y35194D01*
X170Y35527D02*
X170Y35623D01*
X146Y35670D01*
X98Y35718D01*
X3Y35742D01*
X-163Y35742D01*
X-258Y35718D01*
X-306Y35670D01*
X-329Y35623D01*
X-329Y35527D01*
X-306Y35480D01*
X-258Y35432D01*
X-163Y35408D01*
X3Y35408D01*
X98Y35432D01*
X146Y35480D01*
X170Y35527D01*
X170Y35885D02*
X170Y36170D01*
X-329Y36027D02*
X170Y36027D01*
X994Y9666D02*
X994Y9904D01*
X851Y9618D02*
X1351Y9785D01*
X851Y9951D01*
X1351Y10118D02*
X946Y10118D01*
X898Y10142D01*
X874Y10166D01*
X851Y10213D01*
X851Y10308D01*
X874Y10356D01*
X898Y10380D01*
X946Y10404D01*
X1351Y10404D01*
X1351Y10594D02*
X851Y10928D01*
X1351Y10928D02*
X851Y10594D01*
X851Y11118D02*
X1351Y11118D01*
X1351Y11308D01*
X1327Y11356D01*
X1303Y11380D01*
X1255Y11404D01*
X1184Y11404D01*
X1136Y11380D01*
X1113Y11356D01*
X1089Y11308D01*
X1089Y11118D01*
X1351Y11570D02*
X851Y11689D01*
X1208Y11785D01*
X851Y11880D01*
X1351Y11999D01*
X851Y12475D02*
X1089Y12308D01*
X851Y12189D02*
X1351Y12189D01*
X1351Y12380D01*
X1327Y12428D01*
X1303Y12451D01*
X1255Y12475D01*
X1184Y12475D01*
X1136Y12451D01*
X1113Y12428D01*
X1089Y12380D01*
X1089Y12189D01*
X-329Y13750D02*
X170Y13750D01*
X170Y13941D01*
X146Y13988D01*
X122Y14012D01*
X74Y14036D01*
X3Y14036D01*
X-44Y14012D01*
X-68Y13988D01*
X-91Y13941D01*
X-91Y13750D01*
X170Y14203D02*
X-329Y14322D01*
X27Y14417D01*
X-329Y14512D01*
X170Y14631D01*
X-329Y15107D02*
X-91Y14941D01*
X-329Y14822D02*
X170Y14822D01*
X170Y15012D01*
X146Y15060D01*
X122Y15083D01*
X74Y15107D01*
X3Y15107D01*
X-44Y15083D01*
X-68Y15060D01*
X-91Y15012D01*
X-91Y14822D01*
X146Y16004D02*
X170Y15957D01*
X170Y15885D01*
X146Y15814D01*
X98Y15766D01*
X51Y15742D01*
X-44Y15719D01*
X-115Y15719D01*
X-210Y15742D01*
X-258Y15766D01*
X-306Y15814D01*
X-329Y15885D01*
X-329Y15933D01*
X-306Y16004D01*
X-282Y16028D01*
X-115Y16028D01*
X-115Y15933D01*
X-329Y16242D02*
X170Y16242D01*
X-329Y16528D01*
X170Y16528D01*
X-329Y16766D02*
X170Y16766D01*
X170Y16885D01*
X146Y16957D01*
X98Y17004D01*
X51Y17028D01*
X-44Y17052D01*
X-115Y17052D01*
X-210Y17028D01*
X-258Y17004D01*
X-306Y16957D01*
X-329Y16885D01*
X-329Y16766D01*
G54D12*
X-324Y1425D02*
X462Y1425D01*
X69Y1818D02*
X69Y1031D01*
X69Y3196D02*
X69Y2409D01*
X-324Y4181D02*
X462Y4181D01*
X69Y4574D02*
X69Y3787D01*
X69Y5952D02*
X69Y5165D01*
X-324Y6937D02*
X462Y6937D01*
X69Y7330D02*
X69Y6543D01*
X69Y8708D02*
X69Y7921D01*
X25400Y37000D02*
X25400Y39500D01*
X21400Y37000D02*
X25400Y37000D01*
X21400Y39500D02*
X21400Y37000D01*
X17400Y37000D02*
X17400Y39500D01*
X13400Y37000D02*
X17400Y37000D01*
X13400Y39500D02*
X13400Y37000D01*
X33400Y37000D02*
X33400Y39500D01*
X29400Y37000D02*
X33400Y37000D01*
X29400Y39500D02*
X29400Y37000D01*
G54D15*
X11804Y38583D02*
X12804Y37916D01*
X11804Y37916D02*
X12804Y38583D01*
X20328Y38250D02*
X20804Y38250D01*
X19804Y38583D02*
X20328Y38250D01*
X19804Y37916D01*
G54D12*
X35400Y3000D02*
X35400Y500D01*
X31400Y3000D02*
X35400Y3000D01*
X31400Y500D02*
X31400Y3000D01*
X27400Y3000D02*
X27400Y500D01*
X23400Y3000D02*
X27400Y3000D01*
X23400Y500D02*
X23400Y3000D01*
X19400Y3000D02*
X19400Y500D01*
X15400Y3000D02*
X19400Y3000D01*
X15400Y500D02*
X15400Y3000D01*
G54D15*
X27804Y38583D02*
X27804Y37916D01*
X28804Y38583D01*
X28804Y37916D01*
X20280Y2440D02*
X20280Y2107D01*
X20804Y1964D02*
X20804Y2440D01*
X19804Y2440D01*
X19804Y1964D01*
X19804Y1345D02*
X19804Y1250D01*
X19852Y1154D01*
X19900Y1107D01*
X19995Y1059D01*
X20185Y1011D01*
X20423Y1011D01*
X20614Y1059D01*
X20709Y1107D01*
X20757Y1154D01*
X20804Y1250D01*
X20804Y1345D01*
X20757Y1440D01*
X20709Y1488D01*
X20614Y1535D01*
X20423Y1583D01*
X20185Y1583D01*
X19995Y1535D01*
X19900Y1488D01*
X19852Y1440D01*
X19804Y1345D01*
X28530Y2440D02*
X28530Y2107D01*
X29054Y1964D02*
X29054Y2440D01*
X28054Y2440D01*
X28054Y1964D01*
X29054Y1011D02*
X29054Y1583D01*
X29054Y1297D02*
X28054Y1297D01*
X28197Y1392D01*
X28292Y1488D01*
X28340Y1583D01*
X36280Y2440D02*
X36280Y2107D01*
X36804Y1964D02*
X36804Y2440D01*
X35804Y2440D01*
X35804Y1964D01*
X35900Y1583D02*
X35852Y1535D01*
X35804Y1440D01*
X35804Y1202D01*
X35852Y1107D01*
X35900Y1059D01*
X35995Y1011D01*
X36090Y1011D01*
X36233Y1059D01*
X36804Y1630D01*
X36804Y1011D01*
G54D12*
X13400Y3000D02*
X13400Y500D01*
X11400Y3000D02*
X13400Y3000D01*
X11400Y500D02*
X11400Y3000D01*
X8400Y3000D02*
X8400Y500D01*
X6400Y3000D02*
X8400Y3000D01*
X6400Y500D02*
X6400Y3000D01*
G54D11*
X12983Y2559D02*
X13150Y2559D01*
X13150Y2297D02*
X13150Y2797D01*
X12911Y2797D01*
X12721Y2559D02*
X12554Y2559D01*
X12483Y2297D02*
X12721Y2297D01*
X12721Y2797D01*
X12483Y2797D01*
X12340Y2797D02*
X12054Y2797D01*
X12197Y2297D02*
X12197Y2797D01*
X11650Y2797D02*
X11888Y2797D01*
X11911Y2559D01*
X11888Y2583D01*
X11840Y2607D01*
X11721Y2607D01*
X11673Y2583D01*
X11650Y2559D01*
X11626Y2511D01*
X11626Y2392D01*
X11650Y2345D01*
X11673Y2321D01*
X11721Y2297D01*
X11840Y2297D01*
X11888Y2321D01*
X11911Y2345D01*
X7983Y2559D02*
X8150Y2559D01*
X8150Y2297D02*
X8150Y2797D01*
X7911Y2797D01*
X7721Y2559D02*
X7554Y2559D01*
X7483Y2297D02*
X7721Y2297D01*
X7721Y2797D01*
X7483Y2797D01*
X7340Y2797D02*
X7054Y2797D01*
X7197Y2297D02*
X7197Y2797D01*
X6673Y2797D02*
X6769Y2797D01*
X6816Y2773D01*
X6840Y2750D01*
X6888Y2678D01*
X6911Y2583D01*
X6911Y2392D01*
X6888Y2345D01*
X6864Y2321D01*
X6816Y2297D01*
X6721Y2297D01*
X6673Y2321D01*
X6650Y2345D01*
X6626Y2392D01*
X6626Y2511D01*
X6650Y2559D01*
X6673Y2583D01*
X6721Y2607D01*
X6816Y2607D01*
X6864Y2583D01*
X6888Y2559D01*
X6911Y2511D01*
G54D12*
X12900Y1250D02*
X12900Y750D01*
X12650Y1000D02*
X13150Y1000D01*
X11650Y1000D02*
X12150Y1000D01*
X7900Y1250D02*
X7900Y750D01*
X7650Y1000D02*
X8150Y1000D01*
X6650Y1000D02*
X7150Y1000D01*
X-600Y17500D02*
X3400Y17500D01*
X1247Y1561D02*
X1247Y1828D01*
X828Y1942D02*
X828Y1561D01*
X1628Y1561D01*
X1628Y1942D01*
X1628Y2437D02*
X1628Y2514D01*
X1590Y2590D01*
X1551Y2628D01*
X1475Y2666D01*
X1323Y2704D01*
X1132Y2704D01*
X980Y2666D01*
X904Y2628D01*
X866Y2590D01*
X828Y2514D01*
X828Y2437D01*
X866Y2361D01*
X904Y2323D01*
X980Y2285D01*
X1132Y2247D01*
X1323Y2247D01*
X1475Y2285D01*
X1551Y2323D01*
X1590Y2361D01*
X1628Y2437D01*
X1247Y4317D02*
X1247Y4584D01*
X828Y4698D02*
X828Y4317D01*
X1628Y4317D01*
X1628Y4698D01*
X828Y5460D02*
X828Y5003D01*
X828Y5231D02*
X1628Y5231D01*
X1513Y5155D01*
X1437Y5079D01*
X1399Y5003D01*
X1247Y7073D02*
X1247Y7340D01*
X828Y7454D02*
X828Y7073D01*
X1628Y7073D01*
X1628Y7454D01*
X1551Y7759D02*
X1590Y7797D01*
X1628Y7873D01*
X1628Y8064D01*
X1590Y8140D01*
X1551Y8178D01*
X1475Y8216D01*
X1399Y8216D01*
X1285Y8178D01*
X828Y7721D01*
X828Y8216D01*
G54D14*
X1123Y13840D02*
X1123Y14037D01*
X814Y14122D02*
X814Y13840D01*
X1405Y13840D01*
X1405Y14122D01*
X1405Y14318D02*
X814Y14712D01*
X1405Y14712D02*
X814Y14318D01*
X1405Y14853D02*
X1405Y15190D01*
X814Y15021D02*
X1405Y15021D01*
X814Y15387D02*
X1405Y15387D01*
X1405Y15612D01*
X1376Y15668D01*
X1348Y15696D01*
X1292Y15724D01*
X1208Y15724D01*
X1151Y15696D01*
X1123Y15668D01*
X1095Y15612D01*
X1095Y15387D01*
X1405Y15921D02*
X814Y16062D01*
X1236Y16174D01*
X814Y16287D01*
X1405Y16428D01*
X814Y16990D02*
X1095Y16793D01*
X814Y16652D02*
X1405Y16652D01*
X1405Y16877D01*
X1376Y16934D01*
X1348Y16962D01*
X1292Y16990D01*
X1208Y16990D01*
X1151Y16962D01*
X1123Y16934D01*
X1095Y16877D01*
X1095Y16652D01*
G54D12*
X17900Y11750D02*
X17900Y12750D01*
X16900Y12750D02*
X16900Y11750D01*
X16900Y11750D02*
X22900Y11750D01*
X22900Y11750D02*
X22900Y12750D01*
X22900Y12750D02*
X16900Y12750D01*
G54D16*
X11400Y11500D02*
X11400Y9500D01*
X11400Y9500D02*
X34400Y9500D01*
X34400Y9500D02*
X34400Y11500D01*
X34400Y11500D02*
X11400Y11500D01*
X11400Y30500D02*
X11400Y28500D01*
X11400Y28500D02*
X34400Y28500D01*
X34400Y28500D02*
X34400Y30500D01*
X34400Y30500D02*
X11400Y30500D01*
G54D13*
X37150Y11750D02*
G75*
G03X37150Y11750I-1250J0D01*
G74*
G01*
X37150Y28250D02*
G75*
G03X37150Y28250I-1250J0D01*
G74*
G01*
X11150Y29500D02*
G75*
G03X11150Y29500I-1250J0D01*
G74*
G01*
X11150Y10500D02*
G75*
G03X11150Y10500I-1250J0D01*
G74*
G01*
G54D11*
X34400Y9500D02*
X11400Y9500D01*
X34400Y11500D02*
X34400Y9500D01*
X11400Y11500D02*
X34400Y11500D01*
X11400Y9500D02*
X11400Y11500D01*
X12400Y10500D02*
X12400Y9500D01*
X11400Y10500D02*
X12400Y10500D01*
X11400Y29500D02*
X12400Y29500D01*
X12400Y29500D02*
X12400Y28500D01*
X11400Y28500D02*
X11400Y30500D01*
X11400Y30500D02*
X34400Y30500D01*
X34400Y30500D02*
X34400Y28500D01*
X34400Y28500D02*
X11400Y28500D01*
G54D13*
X6900Y24650D02*
X6900Y24500D01*
X6900Y24500D02*
X12150Y24500D01*
X12150Y24500D02*
X12150Y17500D01*
X12150Y17500D02*
X4150Y17500D01*
X4150Y17500D02*
X4150Y17350D01*
X33150Y30750D02*
X6900Y30750D01*
X6900Y30750D02*
X6900Y24650D01*
X4150Y17350D02*
X4150Y12250D01*
X4150Y11750D02*
X4150Y12250D01*
X33150Y9250D02*
X6650Y9250D01*
X38150Y14250D02*
X38150Y25750D01*
X33150Y9250D02*
G75*
G03X38150Y14250I0J5000D01*
G74*
G01*
X38150Y25750D02*
G75*
G03X33150Y30750I-5000J0D01*
G74*
G01*
X4150Y11750D02*
G75*
G03X6650Y9250I2500J0D01*
G74*
G01*
G54D17*
X20576Y13088D02*
X20576Y13488D01*
X20423Y13488D01*
X20385Y13469D01*
X20366Y13450D01*
X20347Y13411D01*
X20347Y13354D01*
X20366Y13316D01*
X20385Y13297D01*
X20423Y13278D01*
X20576Y13278D01*
X19966Y13088D02*
X20195Y13088D01*
X20080Y13088D02*
X20080Y13488D01*
X20119Y13430D01*
X20157Y13392D01*
X20195Y13373D01*
X19719Y13488D02*
X19680Y13488D01*
X19642Y13469D01*
X19623Y13450D01*
X19604Y13411D01*
X19585Y13335D01*
X19585Y13240D01*
X19604Y13164D01*
X19623Y13126D01*
X19642Y13107D01*
X19680Y13088D01*
X19719Y13088D01*
X19757Y13107D01*
X19776Y13126D01*
X19795Y13164D01*
X19814Y13240D01*
X19814Y13335D01*
X19795Y13411D01*
X19776Y13450D01*
X19757Y13469D01*
X19719Y13488D01*
X19204Y13088D02*
X19433Y13088D01*
X19319Y13088D02*
X19319Y13488D01*
X19357Y13430D01*
X19395Y13392D01*
X19433Y13373D01*
G54D12*
X12092Y11757D02*
X12092Y12357D01*
X11864Y12357D01*
X11807Y12328D01*
X11778Y12300D01*
X11750Y12242D01*
X11750Y12157D01*
X11778Y12100D01*
X11807Y12071D01*
X11864Y12042D01*
X12092Y12042D01*
X11464Y11757D02*
X11350Y11757D01*
X11292Y11785D01*
X11264Y11814D01*
X11207Y11900D01*
X11178Y12014D01*
X11178Y12242D01*
X11207Y12300D01*
X11235Y12328D01*
X11292Y12357D01*
X11407Y12357D01*
X11464Y12328D01*
X11492Y12300D01*
X11521Y12242D01*
X11521Y12100D01*
X11492Y12042D01*
X11464Y12014D01*
X11407Y11985D01*
X11292Y11985D01*
X11235Y12014D01*
X11207Y12042D01*
X11178Y12100D01*
X12342Y27507D02*
X12342Y28107D01*
X12114Y28107D01*
X12057Y28078D01*
X12028Y28050D01*
X12000Y27992D01*
X12000Y27907D01*
X12028Y27850D01*
X12057Y27821D01*
X12114Y27792D01*
X12342Y27792D01*
X11657Y27850D02*
X11714Y27878D01*
X11742Y27907D01*
X11771Y27964D01*
X11771Y27992D01*
X11742Y28050D01*
X11714Y28078D01*
X11657Y28107D01*
X11542Y28107D01*
X11485Y28078D01*
X11457Y28050D01*
X11428Y27992D01*
X11428Y27964D01*
X11457Y27907D01*
X11485Y27878D01*
X11542Y27850D01*
X11657Y27850D01*
X11714Y27821D01*
X11742Y27792D01*
X11771Y27735D01*
X11771Y27621D01*
X11742Y27564D01*
X11714Y27535D01*
X11657Y27507D01*
X11542Y27507D01*
X11485Y27535D01*
X11457Y27564D01*
X11428Y27621D01*
X11428Y27735D01*
X11457Y27792D01*
X11485Y27821D01*
X11542Y27850D01*
%LPC*%
G54D18*
X12900Y12750D03*
G54D19*
X13900Y12750D03*
G54D18*
X14900Y12750D03*
G54D19*
X15900Y12750D03*
G54D18*
X29900Y14000D03*
G54D19*
X30900Y14000D03*
G54D20*
X5900Y29000D03*
X5900Y30000D03*
G54D21*
X5900Y28000D03*
G54D20*
X7650Y6500D03*
X6650Y6500D03*
G54D21*
X8650Y6500D03*
G54D20*
X7650Y4500D03*
X6650Y4500D03*
G54D21*
X8650Y4500D03*
G54D20*
X7650Y8500D03*
X6650Y8500D03*
G54D21*
X8650Y8500D03*
G54D22*
X13900Y38250D03*
G54D19*
X14900Y38250D03*
X15900Y38250D03*
X16900Y38250D03*
G54D22*
X21900Y38250D03*
G54D19*
X22900Y38250D03*
X23900Y38250D03*
X24900Y38250D03*
G54D22*
X29900Y38250D03*
G54D19*
X30900Y38250D03*
X31900Y38250D03*
X32900Y38250D03*
G54D22*
X34900Y1750D03*
G54D19*
X33900Y1750D03*
X32900Y1750D03*
X31900Y1750D03*
G54D23*
X36014Y33779D03*
X37786Y33779D03*
X36014Y31220D03*
X37786Y31220D03*
G54D22*
X26900Y1750D03*
G54D19*
X25900Y1750D03*
X24900Y1750D03*
X23900Y1750D03*
G54D22*
X18900Y1750D03*
G54D19*
X17900Y1750D03*
X16900Y1750D03*
X15900Y1750D03*
G54D18*
X12900Y1750D03*
G54D19*
X11900Y1750D03*
G54D18*
X7900Y1750D03*
G54D19*
X6900Y1750D03*
G54D18*
X36900Y26500D03*
G54D19*
X36900Y25500D03*
G54D18*
X36900Y19000D03*
G54D19*
X36900Y20000D03*
X36900Y21000D03*
X36900Y22000D03*
X36900Y23000D03*
X36900Y24000D03*
G54D18*
X35900Y19000D03*
G54D19*
X34900Y19000D03*
X35900Y20000D03*
X34900Y20000D03*
X35900Y21000D03*
X34900Y21000D03*
X35900Y22000D03*
X34900Y22000D03*
X35900Y23000D03*
X34900Y23000D03*
X35900Y24000D03*
X34900Y24000D03*
G54D23*
X36014Y37779D03*
X37786Y37779D03*
X36014Y35220D03*
X37786Y35220D03*
G54D18*
X17400Y12250D03*
G54D19*
X18400Y12250D03*
X19400Y12250D03*
X20400Y12250D03*
X21400Y12250D03*
X22400Y12250D03*
G54D18*
X28900Y12500D03*
G54D19*
X29900Y12500D03*
X30900Y12500D03*
X31900Y12500D03*
X32900Y12500D03*
X33900Y12500D03*
G54D18*
X11900Y10000D03*
G54D19*
X11900Y11000D03*
X12900Y10000D03*
X12900Y11000D03*
X13900Y10000D03*
X13900Y11000D03*
X14900Y10000D03*
X14900Y11000D03*
X15900Y10000D03*
X15900Y11000D03*
X16900Y10000D03*
X16900Y11000D03*
X17900Y10000D03*
X17900Y11000D03*
X18900Y10000D03*
X18900Y11000D03*
X19900Y10000D03*
X19900Y11000D03*
X20900Y10000D03*
X20900Y11000D03*
X21900Y10000D03*
X21900Y11000D03*
X22900Y10000D03*
X22900Y11000D03*
X23900Y10000D03*
X23900Y11000D03*
X24900Y10000D03*
X24900Y11000D03*
X25900Y10000D03*
X25900Y11000D03*
X26900Y10000D03*
X26900Y11000D03*
X27900Y10000D03*
X27900Y11000D03*
X28900Y10000D03*
X28900Y11000D03*
X29900Y10000D03*
X29900Y11000D03*
X30900Y10000D03*
X30900Y11000D03*
X31900Y10000D03*
X31900Y11000D03*
X32900Y10000D03*
X32900Y11000D03*
X33900Y10000D03*
X33900Y11000D03*
G54D18*
X11900Y29000D03*
G54D19*
X11900Y30000D03*
X12900Y29000D03*
X12900Y30000D03*
X13900Y29000D03*
X13900Y30000D03*
X14900Y29000D03*
X14900Y30000D03*
X15900Y29000D03*
X15900Y30000D03*
X16900Y29000D03*
X16900Y30000D03*
X17900Y29000D03*
X17900Y30000D03*
X18900Y29000D03*
X18900Y30000D03*
X19900Y29000D03*
X19900Y30000D03*
X20900Y29000D03*
X20900Y30000D03*
X21900Y29000D03*
X21900Y30000D03*
X22900Y29000D03*
X22900Y30000D03*
X23900Y29000D03*
X23900Y30000D03*
X24900Y29000D03*
X24900Y30000D03*
X25900Y29000D03*
X25900Y30000D03*
X26900Y29000D03*
X26900Y30000D03*
X27900Y29000D03*
X27900Y30000D03*
X28900Y29000D03*
X28900Y30000D03*
X29900Y29000D03*
X29900Y30000D03*
X30900Y29000D03*
X30900Y30000D03*
X31900Y29000D03*
X31900Y30000D03*
X32900Y29000D03*
X32900Y30000D03*
X33900Y29000D03*
X33900Y30000D03*
G54D24*
X20900Y8500D03*
X19900Y8500D03*
X18900Y8500D03*
X17900Y8500D03*
X16900Y8500D03*
X15900Y8500D03*
X14900Y8500D03*
X13900Y8500D03*
X13900Y3500D03*
X14900Y3500D03*
X15900Y3500D03*
X16900Y3500D03*
X17900Y3500D03*
X18900Y3500D03*
X19900Y3500D03*
X20900Y3500D03*
X28900Y8500D03*
X27900Y8500D03*
X26900Y8500D03*
X25900Y8500D03*
X24900Y8500D03*
X23900Y8500D03*
X22900Y8500D03*
X21900Y8500D03*
X21900Y3500D03*
X22900Y3500D03*
X23900Y3500D03*
X24900Y3500D03*
X25900Y3500D03*
X26900Y3500D03*
X27900Y3500D03*
X28900Y3500D03*
X36900Y8500D03*
X35900Y8500D03*
X34900Y8500D03*
X33900Y8500D03*
X32900Y8500D03*
X31900Y8500D03*
X30900Y8500D03*
X29900Y8500D03*
X29900Y3500D03*
X30900Y3500D03*
X31900Y3500D03*
X32900Y3500D03*
X33900Y3500D03*
X34900Y3500D03*
X35900Y3500D03*
X36900Y3500D03*
X27900Y31500D03*
X28900Y31500D03*
X29900Y31500D03*
X30900Y31500D03*
X31900Y31500D03*
X32900Y31500D03*
X33900Y31500D03*
X34900Y31500D03*
X34900Y36500D03*
X33900Y36500D03*
X32900Y36500D03*
X31900Y36500D03*
X30900Y36500D03*
X29900Y36500D03*
X28900Y36500D03*
X27900Y36500D03*
X19900Y31500D03*
X20900Y31500D03*
X21900Y31500D03*
X22900Y31500D03*
X23900Y31500D03*
X24900Y31500D03*
X25900Y31500D03*
X26900Y31500D03*
X26900Y36500D03*
X25900Y36500D03*
X24900Y36500D03*
X23900Y36500D03*
X22900Y36500D03*
X21900Y36500D03*
X20900Y36500D03*
X19900Y36500D03*
X11900Y31500D03*
X12900Y31500D03*
X13900Y31500D03*
X14900Y31500D03*
X15900Y31500D03*
X16900Y31500D03*
X17900Y31500D03*
X18900Y31500D03*
X18900Y36500D03*
X17900Y36500D03*
X16900Y36500D03*
X15900Y36500D03*
X14900Y36500D03*
X13900Y36500D03*
X12900Y36500D03*
X11900Y36500D03*
G54D25*
X2234Y27606D03*
G54D26*
X2234Y25637D03*
G54D25*
X2234Y16385D03*
G54D26*
X2234Y14417D03*
G54D25*
X2234Y37448D03*
G54D26*
X2234Y35480D03*
G54D25*
X2234Y33511D03*
G54D26*
X2234Y31543D03*
G54D27*
X2234Y8314D03*
G54D28*
X2234Y6937D03*
G54D27*
X2234Y2803D03*
G54D28*
X2234Y1425D03*
G54D27*
X2234Y5559D03*
G54D28*
X2234Y4181D03*
G54D27*
X2234Y11070D03*
G54D28*
X2234Y9692D03*
G54D27*
X2234Y12448D03*
G54D29*
X35900Y11750D03*
X9900Y10500D03*
X9900Y29500D03*
X35900Y28250D03*
G54D18*
X5400Y11000D03*
G54D30*
X4400Y11000D03*
G54D18*
X32900Y26000D03*
G54D19*
X32900Y25000D03*
X31900Y26000D03*
X31900Y25000D03*
X30900Y26000D03*
X30900Y25000D03*
X29900Y26000D03*
X29900Y25000D03*
G54D18*
X24900Y26000D03*
G54D19*
X24900Y25000D03*
X23900Y26000D03*
X23900Y25000D03*
X22900Y26000D03*
X22900Y25000D03*
X21900Y26000D03*
X21900Y25000D03*
G54D18*
X35900Y14000D03*
G54D19*
X34900Y14000D03*
X35900Y15000D03*
X34900Y15000D03*
X35900Y16000D03*
X34900Y16000D03*
X35900Y17000D03*
X34900Y17000D03*
G54D18*
X25400Y5000D03*
G54D19*
X24400Y5000D03*
X25400Y6000D03*
X24400Y6000D03*
X25400Y7000D03*
X24400Y7000D03*
G54D18*
X33400Y5000D03*
G54D19*
X32400Y5000D03*
X33400Y6000D03*
X32400Y6000D03*
X33400Y7000D03*
X32400Y7000D03*
G54D18*
X17400Y5000D03*
G54D19*
X16400Y5000D03*
X17400Y6000D03*
X16400Y6000D03*
X17400Y7000D03*
X16400Y7000D03*
G54D18*
X31400Y35000D03*
G54D19*
X32400Y35000D03*
X31400Y34000D03*
X32400Y34000D03*
X31400Y33000D03*
X32400Y33000D03*
G54D18*
X23400Y35000D03*
G54D19*
X24400Y35000D03*
X23400Y34000D03*
X24400Y34000D03*
X23400Y33000D03*
X24400Y33000D03*
G54D18*
X15400Y35000D03*
G54D19*
X16400Y35000D03*
X15400Y34000D03*
X16400Y34000D03*
X15400Y33000D03*
X16400Y33000D03*
G54D18*
X15900Y26000D03*
G54D19*
X15900Y25000D03*
X14900Y26000D03*
X14900Y25000D03*
X13900Y26000D03*
X13900Y25000D03*
G54D18*
X23900Y13500D03*
G54D19*
X24900Y13500D03*
X23900Y12500D03*
X24900Y12500D03*
G54D31*
X5892Y36830D03*
X5892Y38169D03*
X9907Y36830D03*
X9907Y38169D03*
X5892Y15330D03*
X5892Y16669D03*
X9907Y15330D03*
X9907Y16669D03*
X5892Y32830D03*
X5892Y34169D03*
X9907Y32830D03*
X9907Y34169D03*
M02*
