G04 (created by PCBNEW (2013-07-07 BZR 4022)-stable) date 6/5/2014 4:29:09 PM*
%MOIN*%
G04 Gerber Fmt 3.4, Leading zero omitted, Abs format*
%FSLAX34Y34*%
G01*
G70*
G90*
G04 APERTURE LIST*
%ADD10C,0.00590551*%
%ADD11C,0.012*%
%ADD12C,0.01*%
%ADD13C,0.015*%
%ADD14C,0.011811*%
%ADD15C,0.02*%
%ADD16C,0.004*%
%ADD17C,0.008*%
G04 APERTURE END LIST*
G54D10*
X-11000Y56000D02*
X91000Y56000D01*
X91000Y-21000D01*
X-11000Y-21000D01*
X-11000Y56000D01*
X-10300Y55300D02*
X90300Y55300D01*
X90300Y-20300D01*
X-10300Y-20300D01*
X-10300Y55300D01*
X9400Y56000D02*
X9400Y55300D01*
X-657Y55447D02*
X-942Y55447D01*
X-800Y55447D02*
X-800Y55947D01*
X-847Y55876D01*
X-895Y55828D01*
X-942Y55804D01*
X9400Y-21000D02*
X9400Y-20300D01*
X-657Y-20852D02*
X-942Y-20852D01*
X-800Y-20852D02*
X-800Y-20352D01*
X-847Y-20423D01*
X-895Y-20471D01*
X-942Y-20495D01*
X29800Y56000D02*
X29800Y55300D01*
X19457Y55900D02*
X19480Y55923D01*
X19528Y55947D01*
X19647Y55947D01*
X19695Y55923D01*
X19719Y55900D01*
X19742Y55852D01*
X19742Y55804D01*
X19719Y55733D01*
X19433Y55447D01*
X19742Y55447D01*
X29800Y-21000D02*
X29800Y-20300D01*
X19457Y-20400D02*
X19480Y-20376D01*
X19528Y-20352D01*
X19647Y-20352D01*
X19695Y-20376D01*
X19719Y-20400D01*
X19742Y-20447D01*
X19742Y-20495D01*
X19719Y-20566D01*
X19433Y-20852D01*
X19742Y-20852D01*
X50200Y56000D02*
X50200Y55300D01*
X39833Y55947D02*
X40142Y55947D01*
X39976Y55757D01*
X40047Y55757D01*
X40095Y55733D01*
X40119Y55709D01*
X40142Y55661D01*
X40142Y55542D01*
X40119Y55495D01*
X40095Y55471D01*
X40047Y55447D01*
X39904Y55447D01*
X39857Y55471D01*
X39833Y55495D01*
X50200Y-21000D02*
X50200Y-20300D01*
X39833Y-20352D02*
X40142Y-20352D01*
X39976Y-20542D01*
X40047Y-20542D01*
X40095Y-20566D01*
X40119Y-20590D01*
X40142Y-20638D01*
X40142Y-20757D01*
X40119Y-20804D01*
X40095Y-20828D01*
X40047Y-20852D01*
X39904Y-20852D01*
X39857Y-20828D01*
X39833Y-20804D01*
X70600Y56000D02*
X70600Y55300D01*
X60495Y55780D02*
X60495Y55447D01*
X60376Y55971D02*
X60257Y55614D01*
X60566Y55614D01*
X70600Y-21000D02*
X70600Y-20300D01*
X60495Y-20519D02*
X60495Y-20852D01*
X60376Y-20328D02*
X60257Y-20685D01*
X60566Y-20685D01*
X80919Y55947D02*
X80680Y55947D01*
X80657Y55709D01*
X80680Y55733D01*
X80728Y55757D01*
X80847Y55757D01*
X80895Y55733D01*
X80919Y55709D01*
X80942Y55661D01*
X80942Y55542D01*
X80919Y55495D01*
X80895Y55471D01*
X80847Y55447D01*
X80728Y55447D01*
X80680Y55471D01*
X80657Y55495D01*
X80919Y-20352D02*
X80680Y-20352D01*
X80657Y-20590D01*
X80680Y-20566D01*
X80728Y-20542D01*
X80847Y-20542D01*
X80895Y-20566D01*
X80919Y-20590D01*
X80942Y-20638D01*
X80942Y-20757D01*
X80919Y-20804D01*
X80895Y-20828D01*
X80847Y-20852D01*
X80728Y-20852D01*
X80680Y-20828D01*
X80657Y-20804D01*
X-11000Y30340D02*
X-10300Y30340D01*
X-10769Y43110D02*
X-10530Y43110D01*
X-10816Y42967D02*
X-10649Y43467D01*
X-10483Y42967D01*
X91000Y30340D02*
X90300Y30340D01*
X90530Y43110D02*
X90769Y43110D01*
X90483Y42967D02*
X90650Y43467D01*
X90816Y42967D01*
X-11000Y4680D02*
X-10300Y4680D01*
X-10614Y17569D02*
X-10542Y17545D01*
X-10519Y17521D01*
X-10495Y17474D01*
X-10495Y17402D01*
X-10519Y17355D01*
X-10542Y17331D01*
X-10590Y17307D01*
X-10780Y17307D01*
X-10780Y17807D01*
X-10614Y17807D01*
X-10566Y17783D01*
X-10542Y17760D01*
X-10519Y17712D01*
X-10519Y17664D01*
X-10542Y17617D01*
X-10566Y17593D01*
X-10614Y17569D01*
X-10780Y17569D01*
X91000Y4680D02*
X90300Y4680D01*
X90685Y17569D02*
X90757Y17545D01*
X90780Y17521D01*
X90804Y17474D01*
X90804Y17402D01*
X90780Y17355D01*
X90757Y17331D01*
X90709Y17307D01*
X90519Y17307D01*
X90519Y17807D01*
X90685Y17807D01*
X90733Y17783D01*
X90757Y17760D01*
X90780Y17712D01*
X90780Y17664D01*
X90757Y17617D01*
X90733Y17593D01*
X90685Y17569D01*
X90519Y17569D01*
X-10495Y-8304D02*
X-10519Y-8328D01*
X-10590Y-8352D01*
X-10638Y-8352D01*
X-10709Y-8328D01*
X-10757Y-8280D01*
X-10780Y-8233D01*
X-10804Y-8138D01*
X-10804Y-8066D01*
X-10780Y-7971D01*
X-10757Y-7923D01*
X-10709Y-7876D01*
X-10638Y-7852D01*
X-10590Y-7852D01*
X-10519Y-7876D01*
X-10495Y-7900D01*
X90804Y-8304D02*
X90780Y-8328D01*
X90709Y-8352D01*
X90661Y-8352D01*
X90590Y-8328D01*
X90542Y-8280D01*
X90519Y-8233D01*
X90495Y-8138D01*
X90495Y-8066D01*
X90519Y-7971D01*
X90542Y-7923D01*
X90590Y-7876D01*
X90661Y-7852D01*
X90709Y-7852D01*
X90780Y-7876D01*
X90804Y-7900D01*
X57450Y-18742D02*
X57525Y-18142D01*
X57667Y-18142D01*
X57750Y-18171D01*
X57800Y-18228D01*
X57821Y-18285D01*
X57835Y-18400D01*
X57825Y-18485D01*
X57782Y-18600D01*
X57746Y-18657D01*
X57682Y-18714D01*
X57592Y-18742D01*
X57450Y-18742D01*
X58307Y-18742D02*
X58346Y-18428D01*
X58325Y-18371D01*
X58271Y-18342D01*
X58157Y-18342D01*
X58096Y-18371D01*
X58310Y-18714D02*
X58250Y-18742D01*
X58107Y-18742D01*
X58053Y-18714D01*
X58032Y-18657D01*
X58039Y-18600D01*
X58075Y-18542D01*
X58135Y-18514D01*
X58278Y-18514D01*
X58339Y-18485D01*
X58557Y-18342D02*
X58785Y-18342D01*
X58667Y-18142D02*
X58603Y-18657D01*
X58625Y-18714D01*
X58678Y-18742D01*
X58735Y-18742D01*
X59167Y-18714D02*
X59107Y-18742D01*
X58992Y-18742D01*
X58939Y-18714D01*
X58917Y-18657D01*
X58946Y-18428D01*
X58982Y-18371D01*
X59042Y-18342D01*
X59157Y-18342D01*
X59210Y-18371D01*
X59232Y-18428D01*
X59225Y-18485D01*
X58932Y-18542D01*
X59457Y-18685D02*
X59482Y-18714D01*
X59450Y-18742D01*
X59425Y-18714D01*
X59457Y-18685D01*
X59450Y-18742D01*
X59496Y-18371D02*
X59521Y-18400D01*
X59489Y-18428D01*
X59464Y-18400D01*
X59496Y-18371D01*
X59489Y-18428D01*
X60553Y-18142D02*
X60267Y-18142D01*
X60203Y-18428D01*
X60235Y-18400D01*
X60296Y-18371D01*
X60439Y-18371D01*
X60492Y-18400D01*
X60517Y-18428D01*
X60539Y-18485D01*
X60521Y-18628D01*
X60485Y-18685D01*
X60453Y-18714D01*
X60392Y-18742D01*
X60250Y-18742D01*
X60196Y-18714D01*
X60171Y-18685D01*
X61271Y-18342D02*
X61207Y-18857D01*
X61171Y-18914D01*
X61110Y-18942D01*
X61082Y-18942D01*
X61296Y-18142D02*
X61264Y-18171D01*
X61289Y-18200D01*
X61321Y-18171D01*
X61296Y-18142D01*
X61289Y-18200D01*
X61814Y-18342D02*
X61764Y-18742D01*
X61557Y-18342D02*
X61517Y-18657D01*
X61539Y-18714D01*
X61592Y-18742D01*
X61678Y-18742D01*
X61739Y-18714D01*
X61771Y-18685D01*
X62100Y-18342D02*
X62050Y-18742D01*
X62092Y-18400D02*
X62125Y-18371D01*
X62185Y-18342D01*
X62271Y-18342D01*
X62325Y-18371D01*
X62346Y-18428D01*
X62307Y-18742D01*
X63089Y-18200D02*
X63121Y-18171D01*
X63182Y-18142D01*
X63325Y-18142D01*
X63378Y-18171D01*
X63403Y-18200D01*
X63425Y-18257D01*
X63417Y-18314D01*
X63378Y-18400D01*
X62992Y-18742D01*
X63364Y-18742D01*
X63810Y-18142D02*
X63867Y-18142D01*
X63921Y-18171D01*
X63946Y-18200D01*
X63967Y-18257D01*
X63982Y-18371D01*
X63964Y-18514D01*
X63921Y-18628D01*
X63885Y-18685D01*
X63853Y-18714D01*
X63792Y-18742D01*
X63735Y-18742D01*
X63682Y-18714D01*
X63657Y-18685D01*
X63635Y-18628D01*
X63621Y-18514D01*
X63639Y-18371D01*
X63682Y-18257D01*
X63717Y-18200D01*
X63750Y-18171D01*
X63810Y-18142D01*
X64507Y-18742D02*
X64164Y-18742D01*
X64335Y-18742D02*
X64410Y-18142D01*
X64342Y-18228D01*
X64278Y-18285D01*
X64217Y-18314D01*
X65071Y-18342D02*
X65021Y-18742D01*
X64957Y-18114D02*
X64760Y-18542D01*
X65132Y-18542D01*
X49042Y-19942D02*
X49042Y-19342D01*
X49385Y-19942D02*
X49128Y-19600D01*
X49385Y-19342D02*
X49042Y-19685D01*
X49642Y-19942D02*
X49642Y-19542D01*
X49642Y-19342D02*
X49614Y-19371D01*
X49642Y-19400D01*
X49671Y-19371D01*
X49642Y-19342D01*
X49642Y-19400D01*
X50271Y-19885D02*
X50242Y-19914D01*
X50157Y-19942D01*
X50100Y-19942D01*
X50014Y-19914D01*
X49957Y-19857D01*
X49928Y-19800D01*
X49900Y-19685D01*
X49900Y-19600D01*
X49928Y-19485D01*
X49957Y-19428D01*
X50014Y-19371D01*
X50100Y-19342D01*
X50157Y-19342D01*
X50242Y-19371D01*
X50271Y-19400D01*
X50785Y-19942D02*
X50785Y-19628D01*
X50757Y-19571D01*
X50700Y-19542D01*
X50585Y-19542D01*
X50528Y-19571D01*
X50785Y-19914D02*
X50728Y-19942D01*
X50585Y-19942D01*
X50528Y-19914D01*
X50500Y-19857D01*
X50500Y-19800D01*
X50528Y-19742D01*
X50585Y-19714D01*
X50728Y-19714D01*
X50785Y-19685D01*
X51328Y-19942D02*
X51328Y-19342D01*
X51328Y-19914D02*
X51271Y-19942D01*
X51157Y-19942D01*
X51100Y-19914D01*
X51071Y-19885D01*
X51042Y-19828D01*
X51042Y-19657D01*
X51071Y-19600D01*
X51100Y-19571D01*
X51157Y-19542D01*
X51271Y-19542D01*
X51328Y-19571D01*
X52071Y-19628D02*
X52271Y-19628D01*
X52357Y-19942D02*
X52071Y-19942D01*
X52071Y-19342D01*
X52357Y-19342D01*
X52614Y-19885D02*
X52642Y-19914D01*
X52614Y-19942D01*
X52585Y-19914D01*
X52614Y-19885D01*
X52614Y-19942D01*
X52899Y-19942D02*
X52899Y-19342D01*
X53042Y-19342D01*
X53128Y-19371D01*
X53185Y-19428D01*
X53214Y-19485D01*
X53242Y-19600D01*
X53242Y-19685D01*
X53214Y-19800D01*
X53185Y-19857D01*
X53128Y-19914D01*
X53042Y-19942D01*
X52899Y-19942D01*
X53499Y-19885D02*
X53528Y-19914D01*
X53499Y-19942D01*
X53471Y-19914D01*
X53499Y-19885D01*
X53499Y-19942D01*
X53757Y-19771D02*
X54042Y-19771D01*
X53699Y-19942D02*
X53899Y-19342D01*
X54099Y-19942D01*
X54299Y-19885D02*
X54328Y-19914D01*
X54299Y-19942D01*
X54271Y-19914D01*
X54299Y-19885D01*
X54299Y-19942D01*
X82592Y-18742D02*
X82428Y-18457D01*
X82250Y-18742D02*
X82325Y-18142D01*
X82553Y-18142D01*
X82607Y-18171D01*
X82632Y-18200D01*
X82653Y-18257D01*
X82642Y-18342D01*
X82607Y-18400D01*
X82575Y-18428D01*
X82514Y-18457D01*
X82285Y-18457D01*
X83082Y-18714D02*
X83021Y-18742D01*
X82907Y-18742D01*
X82853Y-18714D01*
X82832Y-18657D01*
X82860Y-18428D01*
X82896Y-18371D01*
X82957Y-18342D01*
X83071Y-18342D01*
X83125Y-18371D01*
X83146Y-18428D01*
X83139Y-18485D01*
X82846Y-18542D01*
X83357Y-18342D02*
X83450Y-18742D01*
X83642Y-18342D01*
X83828Y-18685D02*
X83853Y-18714D01*
X83821Y-18742D01*
X83796Y-18714D01*
X83828Y-18685D01*
X83821Y-18742D01*
X83867Y-18371D02*
X83892Y-18400D01*
X83860Y-18428D01*
X83835Y-18400D01*
X83867Y-18371D01*
X83860Y-18428D01*
X84603Y-18200D02*
X84635Y-18171D01*
X84696Y-18142D01*
X84839Y-18142D01*
X84892Y-18171D01*
X84917Y-18200D01*
X84939Y-18257D01*
X84932Y-18314D01*
X84892Y-18400D01*
X84507Y-18742D01*
X84878Y-18742D01*
X85142Y-18685D02*
X85167Y-18714D01*
X85135Y-18742D01*
X85110Y-18714D01*
X85142Y-18685D01*
X85135Y-18742D01*
X85460Y-18200D02*
X85492Y-18171D01*
X85553Y-18142D01*
X85696Y-18142D01*
X85750Y-18171D01*
X85775Y-18200D01*
X85796Y-18257D01*
X85789Y-18314D01*
X85750Y-18400D01*
X85364Y-18742D01*
X85735Y-18742D01*
X49014Y-18714D02*
X49100Y-18742D01*
X49242Y-18742D01*
X49300Y-18714D01*
X49328Y-18685D01*
X49357Y-18628D01*
X49357Y-18571D01*
X49328Y-18514D01*
X49300Y-18485D01*
X49242Y-18457D01*
X49128Y-18428D01*
X49071Y-18400D01*
X49042Y-18371D01*
X49014Y-18314D01*
X49014Y-18257D01*
X49042Y-18200D01*
X49071Y-18171D01*
X49128Y-18142D01*
X49271Y-18142D01*
X49357Y-18171D01*
X49614Y-18742D02*
X49614Y-18342D01*
X49614Y-18142D02*
X49585Y-18171D01*
X49614Y-18200D01*
X49642Y-18171D01*
X49614Y-18142D01*
X49614Y-18200D01*
X49842Y-18342D02*
X50157Y-18342D01*
X49842Y-18742D01*
X50157Y-18742D01*
X50614Y-18714D02*
X50557Y-18742D01*
X50442Y-18742D01*
X50385Y-18714D01*
X50357Y-18657D01*
X50357Y-18428D01*
X50385Y-18371D01*
X50442Y-18342D01*
X50557Y-18342D01*
X50614Y-18371D01*
X50642Y-18428D01*
X50642Y-18485D01*
X50357Y-18542D01*
X50900Y-18685D02*
X50928Y-18714D01*
X50900Y-18742D01*
X50871Y-18714D01*
X50900Y-18685D01*
X50900Y-18742D01*
X50900Y-18371D02*
X50928Y-18400D01*
X50900Y-18428D01*
X50871Y-18400D01*
X50900Y-18371D01*
X50900Y-18428D01*
X51614Y-18571D02*
X51900Y-18571D01*
X51557Y-18742D02*
X51757Y-18142D01*
X51957Y-18742D01*
X82242Y-19942D02*
X82242Y-19342D01*
X82785Y-19942D02*
X82785Y-19342D01*
X82785Y-19914D02*
X82728Y-19942D01*
X82614Y-19942D01*
X82557Y-19914D01*
X82528Y-19885D01*
X82500Y-19828D01*
X82500Y-19657D01*
X82528Y-19600D01*
X82557Y-19571D01*
X82614Y-19542D01*
X82728Y-19542D01*
X82785Y-19571D01*
X83071Y-19885D02*
X83100Y-19914D01*
X83071Y-19942D01*
X83042Y-19914D01*
X83071Y-19885D01*
X83071Y-19942D01*
X83071Y-19571D02*
X83100Y-19600D01*
X83071Y-19628D01*
X83042Y-19600D01*
X83071Y-19571D01*
X83071Y-19628D01*
X84128Y-19942D02*
X83785Y-19942D01*
X83957Y-19942D02*
X83957Y-19342D01*
X83899Y-19428D01*
X83842Y-19485D01*
X83785Y-19514D01*
X84814Y-19314D02*
X84300Y-20085D01*
X85328Y-19942D02*
X84985Y-19942D01*
X85157Y-19942D02*
X85157Y-19342D01*
X85099Y-19428D01*
X85042Y-19485D01*
X84985Y-19514D01*
X49039Y-16942D02*
X49382Y-16942D01*
X49135Y-17542D02*
X49210Y-16942D01*
X49507Y-17542D02*
X49557Y-17142D01*
X49582Y-16942D02*
X49550Y-16971D01*
X49575Y-17000D01*
X49607Y-16971D01*
X49582Y-16942D01*
X49575Y-17000D01*
X49757Y-17142D02*
X49985Y-17142D01*
X49867Y-16942D02*
X49803Y-17457D01*
X49825Y-17514D01*
X49878Y-17542D01*
X49935Y-17542D01*
X50221Y-17542D02*
X50167Y-17514D01*
X50146Y-17457D01*
X50210Y-16942D01*
X50682Y-17514D02*
X50621Y-17542D01*
X50507Y-17542D01*
X50453Y-17514D01*
X50432Y-17457D01*
X50460Y-17228D01*
X50496Y-17171D01*
X50557Y-17142D01*
X50671Y-17142D01*
X50725Y-17171D01*
X50746Y-17228D01*
X50739Y-17285D01*
X50446Y-17342D01*
X50971Y-17485D02*
X50996Y-17514D01*
X50964Y-17542D01*
X50939Y-17514D01*
X50971Y-17485D01*
X50964Y-17542D01*
X51010Y-17171D02*
X51035Y-17200D01*
X51003Y-17228D01*
X50978Y-17200D01*
X51010Y-17171D01*
X51003Y-17228D01*
X52057Y-17485D02*
X52025Y-17514D01*
X51935Y-17542D01*
X51878Y-17542D01*
X51796Y-17514D01*
X51746Y-17457D01*
X51725Y-17400D01*
X51710Y-17285D01*
X51721Y-17200D01*
X51764Y-17085D01*
X51800Y-17028D01*
X51864Y-16971D01*
X51953Y-16942D01*
X52010Y-16942D01*
X52092Y-16971D01*
X52117Y-17000D01*
X52650Y-17542D02*
X52485Y-17257D01*
X52307Y-17542D02*
X52382Y-16942D01*
X52610Y-16942D01*
X52664Y-16971D01*
X52689Y-17000D01*
X52710Y-17057D01*
X52700Y-17142D01*
X52664Y-17200D01*
X52632Y-17228D01*
X52571Y-17257D01*
X52342Y-17257D01*
X52900Y-17371D02*
X53185Y-17371D01*
X52821Y-17542D02*
X53096Y-16942D01*
X53221Y-17542D01*
X53421Y-17542D02*
X53496Y-16942D01*
X53642Y-17371D01*
X53896Y-16942D01*
X53821Y-17542D01*
X54107Y-17542D02*
X54182Y-16942D01*
X54410Y-16942D01*
X54464Y-16971D01*
X54489Y-17000D01*
X54510Y-17057D01*
X54500Y-17142D01*
X54464Y-17200D01*
X54432Y-17228D01*
X54371Y-17257D01*
X54142Y-17257D01*
X54682Y-17514D02*
X54764Y-17542D01*
X54907Y-17542D01*
X54967Y-17514D01*
X55000Y-17485D01*
X55035Y-17428D01*
X55042Y-17371D01*
X55021Y-17314D01*
X54996Y-17285D01*
X54942Y-17257D01*
X54832Y-17228D01*
X54778Y-17200D01*
X54753Y-17171D01*
X54732Y-17114D01*
X54739Y-17057D01*
X54775Y-17000D01*
X54807Y-16971D01*
X54867Y-16942D01*
X55010Y-16942D01*
X55092Y-16971D01*
X55878Y-17771D02*
X55853Y-17742D01*
X55807Y-17657D01*
X55785Y-17600D01*
X55767Y-17514D01*
X55757Y-17371D01*
X55771Y-17257D01*
X55817Y-17114D01*
X55857Y-17028D01*
X55892Y-16971D01*
X55960Y-16885D01*
X55992Y-16857D01*
X56485Y-17485D02*
X56453Y-17514D01*
X56364Y-17542D01*
X56307Y-17542D01*
X56225Y-17514D01*
X56175Y-17457D01*
X56153Y-17400D01*
X56139Y-17285D01*
X56150Y-17200D01*
X56192Y-17085D01*
X56228Y-17028D01*
X56292Y-16971D01*
X56382Y-16942D01*
X56439Y-16942D01*
X56521Y-16971D01*
X56546Y-17000D01*
X56992Y-17542D02*
X57032Y-17228D01*
X57010Y-17171D01*
X56957Y-17142D01*
X56842Y-17142D01*
X56782Y-17171D01*
X56996Y-17514D02*
X56935Y-17542D01*
X56792Y-17542D01*
X56739Y-17514D01*
X56717Y-17457D01*
X56725Y-17400D01*
X56760Y-17342D01*
X56821Y-17314D01*
X56964Y-17314D01*
X57025Y-17285D01*
X57328Y-17142D02*
X57253Y-17742D01*
X57325Y-17171D02*
X57385Y-17142D01*
X57500Y-17142D01*
X57553Y-17171D01*
X57578Y-17200D01*
X57600Y-17257D01*
X57578Y-17428D01*
X57542Y-17485D01*
X57510Y-17514D01*
X57450Y-17542D01*
X57335Y-17542D01*
X57282Y-17514D01*
X58053Y-17514D02*
X57992Y-17542D01*
X57878Y-17542D01*
X57825Y-17514D01*
X57803Y-17457D01*
X57832Y-17228D01*
X57867Y-17171D01*
X57928Y-17142D01*
X58042Y-17142D01*
X58096Y-17171D01*
X58117Y-17228D01*
X58110Y-17285D01*
X57817Y-17342D01*
X58364Y-17314D02*
X58821Y-17314D01*
X59421Y-17542D02*
X59257Y-17257D01*
X59078Y-17542D02*
X59153Y-16942D01*
X59382Y-16942D01*
X59435Y-16971D01*
X59460Y-17000D01*
X59482Y-17057D01*
X59471Y-17142D01*
X59435Y-17200D01*
X59403Y-17228D01*
X59342Y-17257D01*
X59114Y-17257D01*
X59671Y-17371D02*
X59957Y-17371D01*
X59592Y-17542D02*
X59867Y-16942D01*
X59992Y-17542D01*
X60192Y-17542D02*
X60267Y-16942D01*
X60414Y-17371D01*
X60667Y-16942D01*
X60592Y-17542D01*
X60878Y-17542D02*
X60953Y-16942D01*
X61182Y-16942D01*
X61235Y-16971D01*
X61260Y-17000D01*
X61282Y-17057D01*
X61271Y-17142D01*
X61235Y-17200D01*
X61203Y-17228D01*
X61142Y-17257D01*
X60914Y-17257D01*
X61453Y-17514D02*
X61535Y-17542D01*
X61678Y-17542D01*
X61739Y-17514D01*
X61771Y-17485D01*
X61807Y-17428D01*
X61814Y-17371D01*
X61792Y-17314D01*
X61767Y-17285D01*
X61714Y-17257D01*
X61603Y-17228D01*
X61550Y-17200D01*
X61525Y-17171D01*
X61503Y-17114D01*
X61510Y-17057D01*
X61546Y-17000D01*
X61578Y-16971D01*
X61639Y-16942D01*
X61782Y-16942D01*
X61864Y-16971D01*
X62471Y-17142D02*
X62700Y-17142D01*
X62507Y-17542D02*
X62571Y-17028D01*
X62607Y-16971D01*
X62667Y-16942D01*
X62725Y-16942D01*
X62935Y-17542D02*
X62882Y-17514D01*
X62857Y-17485D01*
X62835Y-17428D01*
X62857Y-17257D01*
X62892Y-17200D01*
X62925Y-17171D01*
X62985Y-17142D01*
X63071Y-17142D01*
X63125Y-17171D01*
X63150Y-17200D01*
X63171Y-17257D01*
X63150Y-17428D01*
X63114Y-17485D01*
X63082Y-17514D01*
X63021Y-17542D01*
X62935Y-17542D01*
X63392Y-17542D02*
X63442Y-17142D01*
X63428Y-17257D02*
X63464Y-17200D01*
X63496Y-17171D01*
X63557Y-17142D01*
X63614Y-17142D01*
X64460Y-17228D02*
X64542Y-17257D01*
X64567Y-17285D01*
X64589Y-17342D01*
X64578Y-17428D01*
X64542Y-17485D01*
X64510Y-17514D01*
X64450Y-17542D01*
X64221Y-17542D01*
X64296Y-16942D01*
X64496Y-16942D01*
X64550Y-16971D01*
X64575Y-17000D01*
X64596Y-17057D01*
X64589Y-17114D01*
X64553Y-17171D01*
X64521Y-17200D01*
X64460Y-17228D01*
X64260Y-17228D01*
X65053Y-17514D02*
X64992Y-17542D01*
X64878Y-17542D01*
X64825Y-17514D01*
X64803Y-17457D01*
X64832Y-17228D01*
X64867Y-17171D01*
X64928Y-17142D01*
X65042Y-17142D01*
X65096Y-17171D01*
X65117Y-17228D01*
X65110Y-17285D01*
X64817Y-17342D01*
X65592Y-17542D02*
X65632Y-17228D01*
X65610Y-17171D01*
X65557Y-17142D01*
X65442Y-17142D01*
X65382Y-17171D01*
X65596Y-17514D02*
X65535Y-17542D01*
X65392Y-17542D01*
X65339Y-17514D01*
X65317Y-17457D01*
X65325Y-17400D01*
X65360Y-17342D01*
X65421Y-17314D01*
X65564Y-17314D01*
X65625Y-17285D01*
X66185Y-17142D02*
X66125Y-17628D01*
X66089Y-17685D01*
X66057Y-17714D01*
X65996Y-17742D01*
X65910Y-17742D01*
X65857Y-17714D01*
X66139Y-17514D02*
X66078Y-17542D01*
X65964Y-17542D01*
X65910Y-17514D01*
X65885Y-17485D01*
X65864Y-17428D01*
X65885Y-17257D01*
X65921Y-17200D01*
X65953Y-17171D01*
X66014Y-17142D01*
X66128Y-17142D01*
X66182Y-17171D01*
X66507Y-17542D02*
X66453Y-17514D01*
X66432Y-17457D01*
X66496Y-16942D01*
X66967Y-17514D02*
X66907Y-17542D01*
X66792Y-17542D01*
X66739Y-17514D01*
X66717Y-17457D01*
X66746Y-17228D01*
X66782Y-17171D01*
X66842Y-17142D01*
X66957Y-17142D01*
X67010Y-17171D01*
X67032Y-17228D01*
X67025Y-17285D01*
X66732Y-17342D01*
X67489Y-17228D02*
X67571Y-17257D01*
X67596Y-17285D01*
X67617Y-17342D01*
X67607Y-17428D01*
X67571Y-17485D01*
X67539Y-17514D01*
X67478Y-17542D01*
X67250Y-17542D01*
X67325Y-16942D01*
X67525Y-16942D01*
X67578Y-16971D01*
X67603Y-17000D01*
X67625Y-17057D01*
X67617Y-17114D01*
X67582Y-17171D01*
X67550Y-17200D01*
X67489Y-17228D01*
X67289Y-17228D01*
X67935Y-17542D02*
X67882Y-17514D01*
X67857Y-17485D01*
X67835Y-17428D01*
X67857Y-17257D01*
X67892Y-17200D01*
X67925Y-17171D01*
X67985Y-17142D01*
X68071Y-17142D01*
X68125Y-17171D01*
X68150Y-17200D01*
X68171Y-17257D01*
X68150Y-17428D01*
X68114Y-17485D01*
X68082Y-17514D01*
X68021Y-17542D01*
X67935Y-17542D01*
X68442Y-17142D02*
X68392Y-17542D01*
X68435Y-17200D02*
X68467Y-17171D01*
X68528Y-17142D01*
X68614Y-17142D01*
X68667Y-17171D01*
X68689Y-17228D01*
X68650Y-17542D01*
X69167Y-17514D02*
X69107Y-17542D01*
X68992Y-17542D01*
X68939Y-17514D01*
X68917Y-17457D01*
X68946Y-17228D01*
X68982Y-17171D01*
X69042Y-17142D01*
X69157Y-17142D01*
X69210Y-17171D01*
X69232Y-17228D01*
X69225Y-17285D01*
X68932Y-17342D01*
X69364Y-17771D02*
X69396Y-17742D01*
X69464Y-17657D01*
X69500Y-17600D01*
X69539Y-17514D01*
X69585Y-17371D01*
X69600Y-17257D01*
X69589Y-17114D01*
X69571Y-17028D01*
X69550Y-16971D01*
X69503Y-16885D01*
X69478Y-16857D01*
X49242Y-14828D02*
X49042Y-14828D01*
X49042Y-15142D02*
X49042Y-14542D01*
X49328Y-14542D01*
X49557Y-15142D02*
X49557Y-14742D01*
X49557Y-14542D02*
X49528Y-14571D01*
X49557Y-14600D01*
X49585Y-14571D01*
X49557Y-14542D01*
X49557Y-14600D01*
X49928Y-15142D02*
X49871Y-15114D01*
X49842Y-15057D01*
X49842Y-14542D01*
X50385Y-15114D02*
X50328Y-15142D01*
X50214Y-15142D01*
X50157Y-15114D01*
X50128Y-15057D01*
X50128Y-14828D01*
X50157Y-14771D01*
X50214Y-14742D01*
X50328Y-14742D01*
X50385Y-14771D01*
X50414Y-14828D01*
X50414Y-14885D01*
X50128Y-14942D01*
X50671Y-15085D02*
X50700Y-15114D01*
X50671Y-15142D01*
X50642Y-15114D01*
X50671Y-15085D01*
X50671Y-15142D01*
X50671Y-14771D02*
X50700Y-14800D01*
X50671Y-14828D01*
X50642Y-14800D01*
X50671Y-14771D01*
X50671Y-14828D01*
X51757Y-15085D02*
X51728Y-15114D01*
X51642Y-15142D01*
X51585Y-15142D01*
X51500Y-15114D01*
X51442Y-15057D01*
X51414Y-15000D01*
X51385Y-14885D01*
X51385Y-14800D01*
X51414Y-14685D01*
X51442Y-14628D01*
X51500Y-14571D01*
X51585Y-14542D01*
X51642Y-14542D01*
X51728Y-14571D01*
X51757Y-14600D01*
X52357Y-15142D02*
X52157Y-14857D01*
X52014Y-15142D02*
X52014Y-14542D01*
X52242Y-14542D01*
X52300Y-14571D01*
X52328Y-14600D01*
X52357Y-14657D01*
X52357Y-14742D01*
X52328Y-14800D01*
X52300Y-14828D01*
X52242Y-14857D01*
X52014Y-14857D01*
X52585Y-14971D02*
X52871Y-14971D01*
X52528Y-15142D02*
X52728Y-14542D01*
X52928Y-15142D01*
X53128Y-15142D02*
X53128Y-14542D01*
X53328Y-14971D01*
X53528Y-14542D01*
X53528Y-15142D01*
X53814Y-15142D02*
X53814Y-14542D01*
X54042Y-14542D01*
X54100Y-14571D01*
X54128Y-14600D01*
X54157Y-14657D01*
X54157Y-14742D01*
X54128Y-14800D01*
X54100Y-14828D01*
X54042Y-14857D01*
X53814Y-14857D01*
X54385Y-15114D02*
X54471Y-15142D01*
X54614Y-15142D01*
X54671Y-15114D01*
X54700Y-15085D01*
X54728Y-15028D01*
X54728Y-14971D01*
X54700Y-14914D01*
X54671Y-14885D01*
X54614Y-14857D01*
X54500Y-14828D01*
X54442Y-14800D01*
X54414Y-14771D01*
X54385Y-14714D01*
X54385Y-14657D01*
X54414Y-14600D01*
X54442Y-14571D01*
X54500Y-14542D01*
X54642Y-14542D01*
X54728Y-14571D01*
X54985Y-15085D02*
X55014Y-15114D01*
X54985Y-15142D01*
X54957Y-15114D01*
X54985Y-15085D01*
X54985Y-15142D01*
X55271Y-15142D02*
X55271Y-14742D01*
X55271Y-14857D02*
X55300Y-14800D01*
X55328Y-14771D01*
X55385Y-14742D01*
X55442Y-14742D01*
X55728Y-15142D02*
X55671Y-15114D01*
X55642Y-15085D01*
X55614Y-15028D01*
X55614Y-14857D01*
X55642Y-14800D01*
X55671Y-14771D01*
X55728Y-14742D01*
X55814Y-14742D01*
X55871Y-14771D01*
X55900Y-14800D01*
X55928Y-14857D01*
X55928Y-15028D01*
X55900Y-15085D01*
X55871Y-15114D01*
X55814Y-15142D01*
X55728Y-15142D01*
X56442Y-14742D02*
X56442Y-15142D01*
X56185Y-14742D02*
X56185Y-15057D01*
X56214Y-15114D01*
X56271Y-15142D01*
X56357Y-15142D01*
X56414Y-15114D01*
X56442Y-15085D01*
X56642Y-14742D02*
X56871Y-14742D01*
X56728Y-14542D02*
X56728Y-15057D01*
X56757Y-15114D01*
X56814Y-15142D01*
X56871Y-15142D01*
X57300Y-15114D02*
X57242Y-15142D01*
X57128Y-15142D01*
X57071Y-15114D01*
X57042Y-15057D01*
X57042Y-14828D01*
X57071Y-14771D01*
X57128Y-14742D01*
X57242Y-14742D01*
X57300Y-14771D01*
X57328Y-14828D01*
X57328Y-14885D01*
X57042Y-14942D01*
X57842Y-15142D02*
X57842Y-14542D01*
X57842Y-15114D02*
X57785Y-15142D01*
X57671Y-15142D01*
X57614Y-15114D01*
X57585Y-15085D01*
X57557Y-15028D01*
X57557Y-14857D01*
X57585Y-14800D01*
X57614Y-14771D01*
X57671Y-14742D01*
X57785Y-14742D01*
X57842Y-14771D01*
X58128Y-15085D02*
X58157Y-15114D01*
X58128Y-15142D01*
X58100Y-15114D01*
X58128Y-15085D01*
X58128Y-15142D01*
X58414Y-15142D02*
X58414Y-14542D01*
X58471Y-14914D02*
X58642Y-15142D01*
X58642Y-14742D02*
X58414Y-14971D01*
X58900Y-15142D02*
X58900Y-14742D01*
X58900Y-14542D02*
X58871Y-14571D01*
X58900Y-14600D01*
X58928Y-14571D01*
X58900Y-14542D01*
X58900Y-14600D01*
X59442Y-15114D02*
X59385Y-15142D01*
X59271Y-15142D01*
X59214Y-15114D01*
X59185Y-15085D01*
X59157Y-15028D01*
X59157Y-14857D01*
X59185Y-14800D01*
X59214Y-14771D01*
X59271Y-14742D01*
X59385Y-14742D01*
X59442Y-14771D01*
X59957Y-15142D02*
X59957Y-14828D01*
X59928Y-14771D01*
X59871Y-14742D01*
X59757Y-14742D01*
X59700Y-14771D01*
X59957Y-15114D02*
X59900Y-15142D01*
X59757Y-15142D01*
X59700Y-15114D01*
X59671Y-15057D01*
X59671Y-15000D01*
X59700Y-14942D01*
X59757Y-14914D01*
X59900Y-14914D01*
X59957Y-14885D01*
X60500Y-15142D02*
X60500Y-14542D01*
X60500Y-15114D02*
X60442Y-15142D01*
X60328Y-15142D01*
X60271Y-15114D01*
X60242Y-15085D01*
X60214Y-15028D01*
X60214Y-14857D01*
X60242Y-14800D01*
X60271Y-14771D01*
X60328Y-14742D01*
X60442Y-14742D01*
X60500Y-14771D01*
X60642Y-15200D02*
X61100Y-15200D01*
X61242Y-14742D02*
X61242Y-15342D01*
X61242Y-14771D02*
X61300Y-14742D01*
X61414Y-14742D01*
X61471Y-14771D01*
X61500Y-14800D01*
X61528Y-14857D01*
X61528Y-15028D01*
X61500Y-15085D01*
X61471Y-15114D01*
X61414Y-15142D01*
X61300Y-15142D01*
X61242Y-15114D01*
X62042Y-15114D02*
X61985Y-15142D01*
X61871Y-15142D01*
X61814Y-15114D01*
X61785Y-15085D01*
X61757Y-15028D01*
X61757Y-14857D01*
X61785Y-14800D01*
X61814Y-14771D01*
X61871Y-14742D01*
X61985Y-14742D01*
X62042Y-14771D01*
X62300Y-15142D02*
X62300Y-14542D01*
X62300Y-14771D02*
X62357Y-14742D01*
X62471Y-14742D01*
X62528Y-14771D01*
X62557Y-14800D01*
X62585Y-14857D01*
X62585Y-15028D01*
X62557Y-15085D01*
X62528Y-15114D01*
X62471Y-15142D01*
X62357Y-15142D01*
X62300Y-15114D01*
X49014Y-16314D02*
X49100Y-16342D01*
X49242Y-16342D01*
X49300Y-16314D01*
X49328Y-16285D01*
X49357Y-16228D01*
X49357Y-16171D01*
X49328Y-16114D01*
X49300Y-16085D01*
X49242Y-16057D01*
X49128Y-16028D01*
X49071Y-16000D01*
X49042Y-15971D01*
X49014Y-15914D01*
X49014Y-15857D01*
X49042Y-15800D01*
X49071Y-15771D01*
X49128Y-15742D01*
X49271Y-15742D01*
X49357Y-15771D01*
X49614Y-16342D02*
X49614Y-15742D01*
X49871Y-16342D02*
X49871Y-16028D01*
X49842Y-15971D01*
X49785Y-15942D01*
X49700Y-15942D01*
X49642Y-15971D01*
X49614Y-16000D01*
X50385Y-16314D02*
X50328Y-16342D01*
X50214Y-16342D01*
X50157Y-16314D01*
X50128Y-16257D01*
X50128Y-16028D01*
X50157Y-15971D01*
X50214Y-15942D01*
X50328Y-15942D01*
X50385Y-15971D01*
X50414Y-16028D01*
X50414Y-16085D01*
X50128Y-16142D01*
X50900Y-16314D02*
X50842Y-16342D01*
X50728Y-16342D01*
X50671Y-16314D01*
X50642Y-16257D01*
X50642Y-16028D01*
X50671Y-15971D01*
X50728Y-15942D01*
X50842Y-15942D01*
X50900Y-15971D01*
X50928Y-16028D01*
X50928Y-16085D01*
X50642Y-16142D01*
X51100Y-15942D02*
X51328Y-15942D01*
X51185Y-15742D02*
X51185Y-16257D01*
X51214Y-16314D01*
X51271Y-16342D01*
X51328Y-16342D01*
X51528Y-16285D02*
X51557Y-16314D01*
X51528Y-16342D01*
X51500Y-16314D01*
X51528Y-16285D01*
X51528Y-16342D01*
X51528Y-15971D02*
X51557Y-16000D01*
X51528Y-16028D01*
X51500Y-16000D01*
X51528Y-15971D01*
X51528Y-16028D01*
X49042Y-12742D02*
X49042Y-12142D01*
X49185Y-12142D01*
X49271Y-12171D01*
X49328Y-12228D01*
X49357Y-12285D01*
X49385Y-12400D01*
X49385Y-12485D01*
X49357Y-12600D01*
X49328Y-12657D01*
X49271Y-12714D01*
X49185Y-12742D01*
X49042Y-12742D01*
X49871Y-12714D02*
X49814Y-12742D01*
X49700Y-12742D01*
X49642Y-12714D01*
X49614Y-12657D01*
X49614Y-12428D01*
X49642Y-12371D01*
X49700Y-12342D01*
X49814Y-12342D01*
X49871Y-12371D01*
X49900Y-12428D01*
X49900Y-12485D01*
X49614Y-12542D01*
X50157Y-12742D02*
X50157Y-12342D01*
X50157Y-12457D02*
X50185Y-12400D01*
X50214Y-12371D01*
X50271Y-12342D01*
X50328Y-12342D01*
X50528Y-12742D02*
X50528Y-12342D01*
X50528Y-12142D02*
X50500Y-12171D01*
X50528Y-12200D01*
X50557Y-12171D01*
X50528Y-12142D01*
X50528Y-12200D01*
X50757Y-12342D02*
X50900Y-12742D01*
X51042Y-12342D01*
X51500Y-12714D02*
X51442Y-12742D01*
X51328Y-12742D01*
X51271Y-12714D01*
X51242Y-12657D01*
X51242Y-12428D01*
X51271Y-12371D01*
X51328Y-12342D01*
X51442Y-12342D01*
X51500Y-12371D01*
X51528Y-12428D01*
X51528Y-12485D01*
X51242Y-12542D01*
X52042Y-12742D02*
X52042Y-12142D01*
X52042Y-12714D02*
X51985Y-12742D01*
X51871Y-12742D01*
X51814Y-12714D01*
X51785Y-12685D01*
X51757Y-12628D01*
X51757Y-12457D01*
X51785Y-12400D01*
X51814Y-12371D01*
X51871Y-12342D01*
X51985Y-12342D01*
X52042Y-12371D01*
X52700Y-12342D02*
X52928Y-12342D01*
X52785Y-12742D02*
X52785Y-12228D01*
X52814Y-12171D01*
X52871Y-12142D01*
X52928Y-12142D01*
X53128Y-12742D02*
X53128Y-12342D01*
X53128Y-12457D02*
X53157Y-12400D01*
X53185Y-12371D01*
X53242Y-12342D01*
X53300Y-12342D01*
X53585Y-12742D02*
X53528Y-12714D01*
X53500Y-12685D01*
X53471Y-12628D01*
X53471Y-12457D01*
X53500Y-12400D01*
X53528Y-12371D01*
X53585Y-12342D01*
X53671Y-12342D01*
X53728Y-12371D01*
X53757Y-12400D01*
X53785Y-12457D01*
X53785Y-12628D01*
X53757Y-12685D01*
X53728Y-12714D01*
X53671Y-12742D01*
X53585Y-12742D01*
X54042Y-12742D02*
X54042Y-12342D01*
X54042Y-12400D02*
X54071Y-12371D01*
X54128Y-12342D01*
X54214Y-12342D01*
X54271Y-12371D01*
X54300Y-12428D01*
X54300Y-12742D01*
X54300Y-12428D02*
X54328Y-12371D01*
X54385Y-12342D01*
X54471Y-12342D01*
X54528Y-12371D01*
X54557Y-12428D01*
X54557Y-12742D01*
X55642Y-12742D02*
X55442Y-12457D01*
X55300Y-12742D02*
X55300Y-12142D01*
X55528Y-12142D01*
X55585Y-12171D01*
X55614Y-12200D01*
X55642Y-12257D01*
X55642Y-12342D01*
X55614Y-12400D01*
X55585Y-12428D01*
X55528Y-12457D01*
X55300Y-12457D01*
X55871Y-12571D02*
X56157Y-12571D01*
X55814Y-12742D02*
X56014Y-12142D01*
X56214Y-12742D01*
X56414Y-12742D02*
X56414Y-12142D01*
X56614Y-12571D01*
X56814Y-12142D01*
X56814Y-12742D01*
X57100Y-12742D02*
X57100Y-12142D01*
X57328Y-12142D01*
X57385Y-12171D01*
X57414Y-12200D01*
X57442Y-12257D01*
X57442Y-12342D01*
X57414Y-12400D01*
X57385Y-12428D01*
X57328Y-12457D01*
X57100Y-12457D01*
X57671Y-12714D02*
X57757Y-12742D01*
X57900Y-12742D01*
X57957Y-12714D01*
X57985Y-12685D01*
X58014Y-12628D01*
X58014Y-12571D01*
X57985Y-12514D01*
X57957Y-12485D01*
X57900Y-12457D01*
X57785Y-12428D01*
X57728Y-12400D01*
X57700Y-12371D01*
X57671Y-12314D01*
X57671Y-12257D01*
X57700Y-12200D01*
X57728Y-12171D01*
X57785Y-12142D01*
X57928Y-12142D01*
X58014Y-12171D01*
X59042Y-12742D02*
X58700Y-12742D01*
X58871Y-12742D02*
X58871Y-12142D01*
X58814Y-12228D01*
X58757Y-12285D01*
X58700Y-12314D01*
X59300Y-12685D02*
X59328Y-12714D01*
X59300Y-12742D01*
X59271Y-12714D01*
X59300Y-12685D01*
X59300Y-12742D01*
X59842Y-12342D02*
X59842Y-12742D01*
X59700Y-12114D02*
X59557Y-12542D01*
X59928Y-12542D01*
X60614Y-12742D02*
X60614Y-12342D01*
X60614Y-12457D02*
X60642Y-12400D01*
X60671Y-12371D01*
X60728Y-12342D01*
X60785Y-12342D01*
X61214Y-12714D02*
X61157Y-12742D01*
X61042Y-12742D01*
X60985Y-12714D01*
X60957Y-12657D01*
X60957Y-12428D01*
X60985Y-12371D01*
X61042Y-12342D01*
X61157Y-12342D01*
X61214Y-12371D01*
X61242Y-12428D01*
X61242Y-12485D01*
X60957Y-12542D01*
X61500Y-12342D02*
X61500Y-12942D01*
X61500Y-12371D02*
X61557Y-12342D01*
X61671Y-12342D01*
X61728Y-12371D01*
X61757Y-12400D01*
X61785Y-12457D01*
X61785Y-12628D01*
X61757Y-12685D01*
X61728Y-12714D01*
X61671Y-12742D01*
X61557Y-12742D01*
X61500Y-12714D01*
X62042Y-12742D02*
X62042Y-12342D01*
X62042Y-12457D02*
X62071Y-12400D01*
X62100Y-12371D01*
X62157Y-12342D01*
X62214Y-12342D01*
X62671Y-12742D02*
X62671Y-12428D01*
X62642Y-12371D01*
X62585Y-12342D01*
X62471Y-12342D01*
X62414Y-12371D01*
X62671Y-12714D02*
X62614Y-12742D01*
X62471Y-12742D01*
X62414Y-12714D01*
X62385Y-12657D01*
X62385Y-12600D01*
X62414Y-12542D01*
X62471Y-12514D01*
X62614Y-12514D01*
X62671Y-12485D01*
X62957Y-12342D02*
X62957Y-12942D01*
X62957Y-12371D02*
X63014Y-12342D01*
X63128Y-12342D01*
X63185Y-12371D01*
X63214Y-12400D01*
X63242Y-12457D01*
X63242Y-12628D01*
X63214Y-12685D01*
X63185Y-12714D01*
X63128Y-12742D01*
X63014Y-12742D01*
X62957Y-12714D01*
X63500Y-12685D02*
X63528Y-12714D01*
X63500Y-12742D01*
X63471Y-12714D01*
X63500Y-12685D01*
X63500Y-12742D01*
X63871Y-12742D02*
X63814Y-12714D01*
X63785Y-12685D01*
X63757Y-12628D01*
X63757Y-12457D01*
X63785Y-12400D01*
X63814Y-12371D01*
X63871Y-12342D01*
X63957Y-12342D01*
X64014Y-12371D01*
X64042Y-12400D01*
X64071Y-12457D01*
X64071Y-12628D01*
X64042Y-12685D01*
X64014Y-12714D01*
X63957Y-12742D01*
X63871Y-12742D01*
X64328Y-12742D02*
X64328Y-12342D01*
X64328Y-12457D02*
X64357Y-12400D01*
X64385Y-12371D01*
X64442Y-12342D01*
X64500Y-12342D01*
X64957Y-12342D02*
X64957Y-12828D01*
X64928Y-12885D01*
X64900Y-12914D01*
X64842Y-12942D01*
X64757Y-12942D01*
X64700Y-12914D01*
X64957Y-12714D02*
X64900Y-12742D01*
X64785Y-12742D01*
X64728Y-12714D01*
X64700Y-12685D01*
X64671Y-12628D01*
X64671Y-12457D01*
X64700Y-12400D01*
X64728Y-12371D01*
X64785Y-12342D01*
X64900Y-12342D01*
X64957Y-12371D01*
X65671Y-12114D02*
X65157Y-12885D01*
X65814Y-12342D02*
X65928Y-12742D01*
X66042Y-12457D01*
X66157Y-12742D01*
X66271Y-12342D01*
X66500Y-12742D02*
X66500Y-12342D01*
X66500Y-12142D02*
X66471Y-12171D01*
X66500Y-12200D01*
X66528Y-12171D01*
X66500Y-12142D01*
X66500Y-12200D01*
X66785Y-12742D02*
X66785Y-12142D01*
X66842Y-12514D02*
X67014Y-12742D01*
X67014Y-12342D02*
X66785Y-12571D01*
X67271Y-12742D02*
X67271Y-12342D01*
X67271Y-12142D02*
X67242Y-12171D01*
X67271Y-12200D01*
X67300Y-12171D01*
X67271Y-12142D01*
X67271Y-12200D01*
X67985Y-12114D02*
X67471Y-12885D01*
X68528Y-12742D02*
X68328Y-12457D01*
X68185Y-12742D02*
X68185Y-12142D01*
X68414Y-12142D01*
X68471Y-12171D01*
X68500Y-12200D01*
X68528Y-12257D01*
X68528Y-12342D01*
X68500Y-12400D01*
X68471Y-12428D01*
X68414Y-12457D01*
X68185Y-12457D01*
X68757Y-12571D02*
X69042Y-12571D01*
X68700Y-12742D02*
X68900Y-12142D01*
X69100Y-12742D01*
X69300Y-12742D02*
X69300Y-12142D01*
X69500Y-12571D01*
X69700Y-12142D01*
X69700Y-12742D01*
X69985Y-12742D02*
X69985Y-12142D01*
X70214Y-12142D01*
X70271Y-12171D01*
X70300Y-12200D01*
X70328Y-12257D01*
X70328Y-12342D01*
X70300Y-12400D01*
X70271Y-12428D01*
X70214Y-12457D01*
X69985Y-12457D01*
X70557Y-12714D02*
X70642Y-12742D01*
X70785Y-12742D01*
X70842Y-12714D01*
X70871Y-12685D01*
X70900Y-12628D01*
X70900Y-12571D01*
X70871Y-12514D01*
X70842Y-12485D01*
X70785Y-12457D01*
X70671Y-12428D01*
X70614Y-12400D01*
X70585Y-12371D01*
X70557Y-12314D01*
X70557Y-12257D01*
X70585Y-12200D01*
X70614Y-12171D01*
X70671Y-12142D01*
X70814Y-12142D01*
X70900Y-12171D01*
X71471Y-12742D02*
X71128Y-12742D01*
X71300Y-12742D02*
X71300Y-12142D01*
X71242Y-12228D01*
X71185Y-12285D01*
X71128Y-12314D01*
X71728Y-12685D02*
X71757Y-12714D01*
X71728Y-12742D01*
X71700Y-12714D01*
X71728Y-12685D01*
X71728Y-12742D01*
X72271Y-12342D02*
X72271Y-12742D01*
X72128Y-12114D02*
X71985Y-12542D01*
X72357Y-12542D01*
X49042Y-11542D02*
X49042Y-10942D01*
X49185Y-10942D01*
X49271Y-10971D01*
X49328Y-11028D01*
X49357Y-11085D01*
X49385Y-11200D01*
X49385Y-11285D01*
X49357Y-11400D01*
X49328Y-11457D01*
X49271Y-11514D01*
X49185Y-11542D01*
X49042Y-11542D01*
X49871Y-11514D02*
X49814Y-11542D01*
X49700Y-11542D01*
X49642Y-11514D01*
X49614Y-11457D01*
X49614Y-11228D01*
X49642Y-11171D01*
X49700Y-11142D01*
X49814Y-11142D01*
X49871Y-11171D01*
X49900Y-11228D01*
X49900Y-11285D01*
X49614Y-11342D01*
X50157Y-11542D02*
X50157Y-11142D01*
X50157Y-11257D02*
X50185Y-11200D01*
X50214Y-11171D01*
X50271Y-11142D01*
X50328Y-11142D01*
X50528Y-11542D02*
X50528Y-11142D01*
X50528Y-10942D02*
X50500Y-10971D01*
X50528Y-11000D01*
X50557Y-10971D01*
X50528Y-10942D01*
X50528Y-11000D01*
X50757Y-11142D02*
X50900Y-11542D01*
X51042Y-11142D01*
X51500Y-11514D02*
X51442Y-11542D01*
X51328Y-11542D01*
X51271Y-11514D01*
X51242Y-11457D01*
X51242Y-11228D01*
X51271Y-11171D01*
X51328Y-11142D01*
X51442Y-11142D01*
X51500Y-11171D01*
X51528Y-11228D01*
X51528Y-11285D01*
X51242Y-11342D01*
X52042Y-11542D02*
X52042Y-10942D01*
X52042Y-11514D02*
X51985Y-11542D01*
X51871Y-11542D01*
X51814Y-11514D01*
X51785Y-11485D01*
X51757Y-11428D01*
X51757Y-11257D01*
X51785Y-11200D01*
X51814Y-11171D01*
X51871Y-11142D01*
X51985Y-11142D01*
X52042Y-11171D01*
X52700Y-11142D02*
X52928Y-11142D01*
X52785Y-11542D02*
X52785Y-11028D01*
X52814Y-10971D01*
X52871Y-10942D01*
X52928Y-10942D01*
X53128Y-11542D02*
X53128Y-11142D01*
X53128Y-11257D02*
X53157Y-11200D01*
X53185Y-11171D01*
X53242Y-11142D01*
X53300Y-11142D01*
X53585Y-11542D02*
X53528Y-11514D01*
X53500Y-11485D01*
X53471Y-11428D01*
X53471Y-11257D01*
X53500Y-11200D01*
X53528Y-11171D01*
X53585Y-11142D01*
X53671Y-11142D01*
X53728Y-11171D01*
X53757Y-11200D01*
X53785Y-11257D01*
X53785Y-11428D01*
X53757Y-11485D01*
X53728Y-11514D01*
X53671Y-11542D01*
X53585Y-11542D01*
X54042Y-11542D02*
X54042Y-11142D01*
X54042Y-11200D02*
X54071Y-11171D01*
X54128Y-11142D01*
X54214Y-11142D01*
X54271Y-11171D01*
X54300Y-11228D01*
X54300Y-11542D01*
X54300Y-11228D02*
X54328Y-11171D01*
X54385Y-11142D01*
X54471Y-11142D01*
X54528Y-11171D01*
X54557Y-11228D01*
X54557Y-11542D01*
X55642Y-11542D02*
X55442Y-11257D01*
X55300Y-11542D02*
X55300Y-10942D01*
X55528Y-10942D01*
X55585Y-10971D01*
X55614Y-11000D01*
X55642Y-11057D01*
X55642Y-11142D01*
X55614Y-11200D01*
X55585Y-11228D01*
X55528Y-11257D01*
X55300Y-11257D01*
X55871Y-11371D02*
X56157Y-11371D01*
X55814Y-11542D02*
X56014Y-10942D01*
X56214Y-11542D01*
X56414Y-11542D02*
X56414Y-10942D01*
X56614Y-11371D01*
X56814Y-10942D01*
X56814Y-11542D01*
X57100Y-11542D02*
X57100Y-10942D01*
X57328Y-10942D01*
X57385Y-10971D01*
X57414Y-11000D01*
X57442Y-11057D01*
X57442Y-11142D01*
X57414Y-11200D01*
X57385Y-11228D01*
X57328Y-11257D01*
X57100Y-11257D01*
X57671Y-11514D02*
X57757Y-11542D01*
X57900Y-11542D01*
X57957Y-11514D01*
X57985Y-11485D01*
X58014Y-11428D01*
X58014Y-11371D01*
X57985Y-11314D01*
X57957Y-11285D01*
X57900Y-11257D01*
X57785Y-11228D01*
X57728Y-11200D01*
X57700Y-11171D01*
X57671Y-11114D01*
X57671Y-11057D01*
X57700Y-11000D01*
X57728Y-10971D01*
X57785Y-10942D01*
X57928Y-10942D01*
X58014Y-10971D01*
X58271Y-11314D02*
X58728Y-11314D01*
X59214Y-11228D02*
X59014Y-11228D01*
X59014Y-11542D02*
X59014Y-10942D01*
X59300Y-10942D01*
X59528Y-11542D02*
X59528Y-10942D01*
X59671Y-10942D01*
X59757Y-10971D01*
X59814Y-11028D01*
X59842Y-11085D01*
X59871Y-11200D01*
X59871Y-11285D01*
X59842Y-11400D01*
X59814Y-11457D01*
X59757Y-11514D01*
X59671Y-11542D01*
X59528Y-11542D01*
X60585Y-11542D02*
X60585Y-10942D01*
X60585Y-11171D02*
X60642Y-11142D01*
X60757Y-11142D01*
X60814Y-11171D01*
X60842Y-11200D01*
X60871Y-11257D01*
X60871Y-11428D01*
X60842Y-11485D01*
X60814Y-11514D01*
X60757Y-11542D01*
X60642Y-11542D01*
X60585Y-11514D01*
X61071Y-11142D02*
X61214Y-11542D01*
X61357Y-11142D02*
X61214Y-11542D01*
X61157Y-11685D01*
X61128Y-11714D01*
X61071Y-11742D01*
X62242Y-11228D02*
X62328Y-11257D01*
X62357Y-11285D01*
X62385Y-11342D01*
X62385Y-11428D01*
X62357Y-11485D01*
X62328Y-11514D01*
X62271Y-11542D01*
X62042Y-11542D01*
X62042Y-10942D01*
X62242Y-10942D01*
X62300Y-10971D01*
X62328Y-11000D01*
X62357Y-11057D01*
X62357Y-11114D01*
X62328Y-11171D01*
X62300Y-11200D01*
X62242Y-11228D01*
X62042Y-11228D01*
X62728Y-11542D02*
X62671Y-11514D01*
X62642Y-11485D01*
X62614Y-11428D01*
X62614Y-11257D01*
X62642Y-11200D01*
X62671Y-11171D01*
X62728Y-11142D01*
X62814Y-11142D01*
X62871Y-11171D01*
X62900Y-11200D01*
X62928Y-11257D01*
X62928Y-11428D01*
X62900Y-11485D01*
X62871Y-11514D01*
X62814Y-11542D01*
X62728Y-11542D01*
X63185Y-11542D02*
X63185Y-10942D01*
X63185Y-11171D02*
X63242Y-11142D01*
X63357Y-11142D01*
X63414Y-11171D01*
X63442Y-11200D01*
X63471Y-11257D01*
X63471Y-11428D01*
X63442Y-11485D01*
X63414Y-11514D01*
X63357Y-11542D01*
X63242Y-11542D01*
X63185Y-11514D01*
X64528Y-11485D02*
X64500Y-11514D01*
X64414Y-11542D01*
X64357Y-11542D01*
X64271Y-11514D01*
X64214Y-11457D01*
X64185Y-11400D01*
X64157Y-11285D01*
X64157Y-11200D01*
X64185Y-11085D01*
X64214Y-11028D01*
X64271Y-10971D01*
X64357Y-10942D01*
X64414Y-10942D01*
X64500Y-10971D01*
X64528Y-11000D01*
X64871Y-11542D02*
X64814Y-11514D01*
X64785Y-11485D01*
X64757Y-11428D01*
X64757Y-11257D01*
X64785Y-11200D01*
X64814Y-11171D01*
X64871Y-11142D01*
X64957Y-11142D01*
X65014Y-11171D01*
X65042Y-11200D01*
X65071Y-11257D01*
X65071Y-11428D01*
X65042Y-11485D01*
X65014Y-11514D01*
X64957Y-11542D01*
X64871Y-11542D01*
X65585Y-11142D02*
X65585Y-11542D01*
X65328Y-11142D02*
X65328Y-11457D01*
X65357Y-11514D01*
X65414Y-11542D01*
X65500Y-11542D01*
X65557Y-11514D01*
X65585Y-11485D01*
X65842Y-11514D02*
X65900Y-11542D01*
X66014Y-11542D01*
X66071Y-11514D01*
X66100Y-11457D01*
X66100Y-11428D01*
X66071Y-11371D01*
X66014Y-11342D01*
X65928Y-11342D01*
X65871Y-11314D01*
X65842Y-11257D01*
X65842Y-11228D01*
X65871Y-11171D01*
X65928Y-11142D01*
X66014Y-11142D01*
X66071Y-11171D01*
X66357Y-11542D02*
X66357Y-11142D01*
X66357Y-10942D02*
X66328Y-10971D01*
X66357Y-11000D01*
X66385Y-10971D01*
X66357Y-10942D01*
X66357Y-11000D01*
X66642Y-11142D02*
X66642Y-11542D01*
X66642Y-11200D02*
X66671Y-11171D01*
X66728Y-11142D01*
X66814Y-11142D01*
X66871Y-11171D01*
X66900Y-11228D01*
X66900Y-11542D01*
X67157Y-11514D02*
X67214Y-11542D01*
X67328Y-11542D01*
X67385Y-11514D01*
X67414Y-11457D01*
X67414Y-11428D01*
X67385Y-11371D01*
X67328Y-11342D01*
X67242Y-11342D01*
X67185Y-11314D01*
X67157Y-11257D01*
X67157Y-11228D01*
X67185Y-11171D01*
X67242Y-11142D01*
X67328Y-11142D01*
X67385Y-11171D01*
X49385Y-10285D02*
X49357Y-10314D01*
X49271Y-10342D01*
X49214Y-10342D01*
X49128Y-10314D01*
X49071Y-10257D01*
X49042Y-10200D01*
X49014Y-10085D01*
X49014Y-10000D01*
X49042Y-9885D01*
X49071Y-9828D01*
X49128Y-9771D01*
X49214Y-9742D01*
X49271Y-9742D01*
X49357Y-9771D01*
X49385Y-9800D01*
X49728Y-10342D02*
X49671Y-10314D01*
X49642Y-10285D01*
X49614Y-10228D01*
X49614Y-10057D01*
X49642Y-10000D01*
X49671Y-9971D01*
X49728Y-9942D01*
X49814Y-9942D01*
X49871Y-9971D01*
X49900Y-10000D01*
X49928Y-10057D01*
X49928Y-10228D01*
X49900Y-10285D01*
X49871Y-10314D01*
X49814Y-10342D01*
X49728Y-10342D01*
X50185Y-9942D02*
X50185Y-10542D01*
X50185Y-9971D02*
X50242Y-9942D01*
X50357Y-9942D01*
X50414Y-9971D01*
X50442Y-10000D01*
X50471Y-10057D01*
X50471Y-10228D01*
X50442Y-10285D01*
X50414Y-10314D01*
X50357Y-10342D01*
X50242Y-10342D01*
X50185Y-10314D01*
X50671Y-9942D02*
X50814Y-10342D01*
X50957Y-9942D02*
X50814Y-10342D01*
X50757Y-10485D01*
X50728Y-10514D01*
X50671Y-10542D01*
X51185Y-10342D02*
X51185Y-9942D01*
X51185Y-10057D02*
X51214Y-10000D01*
X51242Y-9971D01*
X51300Y-9942D01*
X51357Y-9942D01*
X51557Y-10342D02*
X51557Y-9942D01*
X51557Y-9742D02*
X51528Y-9771D01*
X51557Y-9800D01*
X51585Y-9771D01*
X51557Y-9742D01*
X51557Y-9800D01*
X52100Y-9942D02*
X52100Y-10428D01*
X52071Y-10485D01*
X52042Y-10514D01*
X51985Y-10542D01*
X51900Y-10542D01*
X51842Y-10514D01*
X52100Y-10314D02*
X52042Y-10342D01*
X51928Y-10342D01*
X51871Y-10314D01*
X51842Y-10285D01*
X51814Y-10228D01*
X51814Y-10057D01*
X51842Y-10000D01*
X51871Y-9971D01*
X51928Y-9942D01*
X52042Y-9942D01*
X52100Y-9971D01*
X52385Y-10342D02*
X52385Y-9742D01*
X52642Y-10342D02*
X52642Y-10028D01*
X52614Y-9971D01*
X52557Y-9942D01*
X52471Y-9942D01*
X52414Y-9971D01*
X52385Y-10000D01*
X52842Y-9942D02*
X53071Y-9942D01*
X52928Y-9742D02*
X52928Y-10257D01*
X52957Y-10314D01*
X53014Y-10342D01*
X53071Y-10342D01*
X53700Y-9800D02*
X53728Y-9771D01*
X53785Y-9742D01*
X53928Y-9742D01*
X53985Y-9771D01*
X54014Y-9800D01*
X54042Y-9857D01*
X54042Y-9914D01*
X54014Y-10000D01*
X53671Y-10342D01*
X54042Y-10342D01*
X54414Y-9742D02*
X54471Y-9742D01*
X54528Y-9771D01*
X54557Y-9800D01*
X54585Y-9857D01*
X54614Y-9971D01*
X54614Y-10114D01*
X54585Y-10228D01*
X54557Y-10285D01*
X54528Y-10314D01*
X54471Y-10342D01*
X54414Y-10342D01*
X54357Y-10314D01*
X54328Y-10285D01*
X54300Y-10228D01*
X54271Y-10114D01*
X54271Y-9971D01*
X54300Y-9857D01*
X54328Y-9800D01*
X54357Y-9771D01*
X54414Y-9742D01*
X55185Y-10342D02*
X54842Y-10342D01*
X55014Y-10342D02*
X55014Y-9742D01*
X54957Y-9828D01*
X54900Y-9885D01*
X54842Y-9914D01*
X55700Y-9942D02*
X55700Y-10342D01*
X55557Y-9714D02*
X55414Y-10142D01*
X55785Y-10142D01*
X56785Y-9771D02*
X56728Y-9742D01*
X56642Y-9742D01*
X56557Y-9771D01*
X56500Y-9828D01*
X56471Y-9885D01*
X56442Y-10000D01*
X56442Y-10085D01*
X56471Y-10200D01*
X56500Y-10257D01*
X56557Y-10314D01*
X56642Y-10342D01*
X56700Y-10342D01*
X56785Y-10314D01*
X56814Y-10285D01*
X56814Y-10085D01*
X56700Y-10085D01*
X57071Y-10342D02*
X57071Y-9742D01*
X57300Y-9742D01*
X57357Y-9771D01*
X57385Y-9800D01*
X57414Y-9857D01*
X57414Y-9942D01*
X57385Y-10000D01*
X57357Y-10028D01*
X57300Y-10057D01*
X57071Y-10057D01*
X57957Y-10342D02*
X57671Y-10342D01*
X57671Y-9742D01*
X58557Y-9942D02*
X58700Y-10342D01*
X58842Y-9942D01*
X59014Y-9742D02*
X59385Y-9742D01*
X59185Y-9971D01*
X59271Y-9971D01*
X59328Y-10000D01*
X59357Y-10028D01*
X59385Y-10085D01*
X59385Y-10228D01*
X59357Y-10285D01*
X59328Y-10314D01*
X59271Y-10342D01*
X59100Y-10342D01*
X59042Y-10314D01*
X59014Y-10285D01*
X49385Y-9085D02*
X49357Y-9114D01*
X49271Y-9142D01*
X49214Y-9142D01*
X49128Y-9114D01*
X49071Y-9057D01*
X49042Y-9000D01*
X49014Y-8885D01*
X49014Y-8800D01*
X49042Y-8685D01*
X49071Y-8628D01*
X49128Y-8571D01*
X49214Y-8542D01*
X49271Y-8542D01*
X49357Y-8571D01*
X49385Y-8600D01*
X49985Y-9142D02*
X49785Y-8857D01*
X49642Y-9142D02*
X49642Y-8542D01*
X49871Y-8542D01*
X49928Y-8571D01*
X49957Y-8600D01*
X49985Y-8657D01*
X49985Y-8742D01*
X49957Y-8800D01*
X49928Y-8828D01*
X49871Y-8857D01*
X49642Y-8857D01*
X50214Y-8971D02*
X50500Y-8971D01*
X50157Y-9142D02*
X50357Y-8542D01*
X50557Y-9142D01*
X50757Y-9142D02*
X50757Y-8542D01*
X50957Y-8971D01*
X51157Y-8542D01*
X51157Y-9142D01*
X51442Y-9142D02*
X51442Y-8542D01*
X51671Y-8542D01*
X51728Y-8571D01*
X51757Y-8600D01*
X51785Y-8657D01*
X51785Y-8742D01*
X51757Y-8800D01*
X51728Y-8828D01*
X51671Y-8857D01*
X51442Y-8857D01*
X52014Y-9114D02*
X52100Y-9142D01*
X52242Y-9142D01*
X52300Y-9114D01*
X52328Y-9085D01*
X52357Y-9028D01*
X52357Y-8971D01*
X52328Y-8914D01*
X52300Y-8885D01*
X52242Y-8857D01*
X52128Y-8828D01*
X52071Y-8800D01*
X52042Y-8771D01*
X52014Y-8714D01*
X52014Y-8657D01*
X52042Y-8600D01*
X52071Y-8571D01*
X52128Y-8542D01*
X52271Y-8542D01*
X52357Y-8571D01*
X53071Y-9142D02*
X53071Y-8542D01*
X53071Y-8771D02*
X53128Y-8742D01*
X53242Y-8742D01*
X53300Y-8771D01*
X53328Y-8800D01*
X53357Y-8857D01*
X53357Y-9028D01*
X53328Y-9085D01*
X53300Y-9114D01*
X53242Y-9142D01*
X53128Y-9142D01*
X53071Y-9114D01*
X53557Y-8742D02*
X53700Y-9142D01*
X53842Y-8742D02*
X53700Y-9142D01*
X53642Y-9285D01*
X53614Y-9314D01*
X53557Y-9342D01*
X54871Y-9085D02*
X54842Y-9114D01*
X54757Y-9142D01*
X54700Y-9142D01*
X54614Y-9114D01*
X54557Y-9057D01*
X54528Y-9000D01*
X54500Y-8885D01*
X54500Y-8800D01*
X54528Y-8685D01*
X54557Y-8628D01*
X54614Y-8571D01*
X54700Y-8542D01*
X54757Y-8542D01*
X54842Y-8571D01*
X54871Y-8600D01*
X55128Y-9142D02*
X55128Y-8542D01*
X55385Y-9142D02*
X55385Y-8828D01*
X55357Y-8771D01*
X55300Y-8742D01*
X55214Y-8742D01*
X55157Y-8771D01*
X55128Y-8800D01*
X55928Y-9142D02*
X55928Y-8828D01*
X55900Y-8771D01*
X55842Y-8742D01*
X55728Y-8742D01*
X55671Y-8771D01*
X55928Y-9114D02*
X55871Y-9142D01*
X55728Y-9142D01*
X55671Y-9114D01*
X55642Y-9057D01*
X55642Y-9000D01*
X55671Y-8942D01*
X55728Y-8914D01*
X55871Y-8914D01*
X55928Y-8885D01*
X56214Y-9142D02*
X56214Y-8742D01*
X56214Y-8857D02*
X56242Y-8800D01*
X56271Y-8771D01*
X56328Y-8742D01*
X56385Y-8742D01*
X56671Y-9142D02*
X56614Y-9114D01*
X56585Y-9057D01*
X56585Y-8542D01*
X57128Y-9114D02*
X57071Y-9142D01*
X56957Y-9142D01*
X56900Y-9114D01*
X56871Y-9057D01*
X56871Y-8828D01*
X56900Y-8771D01*
X56957Y-8742D01*
X57071Y-8742D01*
X57128Y-8771D01*
X57157Y-8828D01*
X57157Y-8885D01*
X56871Y-8942D01*
X57385Y-9114D02*
X57442Y-9142D01*
X57557Y-9142D01*
X57614Y-9114D01*
X57642Y-9057D01*
X57642Y-9028D01*
X57614Y-8971D01*
X57557Y-8942D01*
X57471Y-8942D01*
X57414Y-8914D01*
X57385Y-8857D01*
X57385Y-8828D01*
X57414Y-8771D01*
X57471Y-8742D01*
X57557Y-8742D01*
X57614Y-8771D01*
X58328Y-9114D02*
X58414Y-9142D01*
X58557Y-9142D01*
X58614Y-9114D01*
X58642Y-9085D01*
X58671Y-9028D01*
X58671Y-8971D01*
X58642Y-8914D01*
X58614Y-8885D01*
X58557Y-8857D01*
X58442Y-8828D01*
X58385Y-8800D01*
X58357Y-8771D01*
X58328Y-8714D01*
X58328Y-8657D01*
X58357Y-8600D01*
X58385Y-8571D01*
X58442Y-8542D01*
X58585Y-8542D01*
X58671Y-8571D01*
X58842Y-8742D02*
X59071Y-8742D01*
X58928Y-8542D02*
X58928Y-9057D01*
X58957Y-9114D01*
X59014Y-9142D01*
X59071Y-9142D01*
X59500Y-9114D02*
X59442Y-9142D01*
X59328Y-9142D01*
X59271Y-9114D01*
X59242Y-9057D01*
X59242Y-8828D01*
X59271Y-8771D01*
X59328Y-8742D01*
X59442Y-8742D01*
X59500Y-8771D01*
X59528Y-8828D01*
X59528Y-8885D01*
X59242Y-8942D01*
X59785Y-9142D02*
X59785Y-8742D01*
X59785Y-8542D02*
X59757Y-8571D01*
X59785Y-8600D01*
X59814Y-8571D01*
X59785Y-8542D01*
X59785Y-8600D01*
X60071Y-8742D02*
X60071Y-9142D01*
X60071Y-8800D02*
X60100Y-8771D01*
X60157Y-8742D01*
X60242Y-8742D01*
X60300Y-8771D01*
X60328Y-8828D01*
X60328Y-9142D01*
X60614Y-9142D02*
X60614Y-8542D01*
X60671Y-8914D02*
X60842Y-9142D01*
X60842Y-8742D02*
X60614Y-8971D01*
X61357Y-8742D02*
X61357Y-9142D01*
X61100Y-8742D02*
X61100Y-9057D01*
X61128Y-9114D01*
X61185Y-9142D01*
X61271Y-9142D01*
X61328Y-9114D01*
X61357Y-9085D01*
X61871Y-9114D02*
X61814Y-9142D01*
X61700Y-9142D01*
X61642Y-9114D01*
X61614Y-9057D01*
X61614Y-8828D01*
X61642Y-8771D01*
X61700Y-8742D01*
X61814Y-8742D01*
X61871Y-8771D01*
X61900Y-8828D01*
X61900Y-8885D01*
X61614Y-8942D01*
X62157Y-9142D02*
X62157Y-8542D01*
X62414Y-9142D02*
X62414Y-8828D01*
X62385Y-8771D01*
X62328Y-8742D01*
X62242Y-8742D01*
X62185Y-8771D01*
X62157Y-8800D01*
X62785Y-9142D02*
X62728Y-9114D01*
X62700Y-9057D01*
X62700Y-8542D01*
X63242Y-9114D02*
X63185Y-9142D01*
X63071Y-9142D01*
X63014Y-9114D01*
X62985Y-9057D01*
X62985Y-8828D01*
X63014Y-8771D01*
X63071Y-8742D01*
X63185Y-8742D01*
X63242Y-8771D01*
X63271Y-8828D01*
X63271Y-8885D01*
X62985Y-8942D01*
X63528Y-9142D02*
X63528Y-8742D01*
X63528Y-8857D02*
X63557Y-8800D01*
X63585Y-8771D01*
X63642Y-8742D01*
X63700Y-8742D01*
X64614Y-9142D02*
X64614Y-8828D01*
X64585Y-8771D01*
X64528Y-8742D01*
X64414Y-8742D01*
X64357Y-8771D01*
X64614Y-9114D02*
X64557Y-9142D01*
X64414Y-9142D01*
X64357Y-9114D01*
X64328Y-9057D01*
X64328Y-9000D01*
X64357Y-8942D01*
X64414Y-8914D01*
X64557Y-8914D01*
X64614Y-8885D01*
X64900Y-8742D02*
X64900Y-9142D01*
X64900Y-8800D02*
X64928Y-8771D01*
X64985Y-8742D01*
X65071Y-8742D01*
X65128Y-8771D01*
X65157Y-8828D01*
X65157Y-9142D01*
X65700Y-9142D02*
X65700Y-8542D01*
X65700Y-9114D02*
X65642Y-9142D01*
X65528Y-9142D01*
X65471Y-9114D01*
X65442Y-9085D01*
X65414Y-9028D01*
X65414Y-8857D01*
X65442Y-8800D01*
X65471Y-8771D01*
X65528Y-8742D01*
X65642Y-8742D01*
X65700Y-8771D01*
X66442Y-9142D02*
X66442Y-8542D01*
X66642Y-8971D01*
X66842Y-8542D01*
X66842Y-9142D01*
X67385Y-8742D02*
X67385Y-9142D01*
X67128Y-8742D02*
X67128Y-9057D01*
X67157Y-9114D01*
X67214Y-9142D01*
X67300Y-9142D01*
X67357Y-9114D01*
X67385Y-9085D01*
X67671Y-9142D02*
X67671Y-8742D01*
X67671Y-8857D02*
X67700Y-8800D01*
X67728Y-8771D01*
X67785Y-8742D01*
X67842Y-8742D01*
X68042Y-9142D02*
X68042Y-8742D01*
X68042Y-8857D02*
X68071Y-8800D01*
X68100Y-8771D01*
X68157Y-8742D01*
X68214Y-8742D01*
X68671Y-9142D02*
X68671Y-8828D01*
X68642Y-8771D01*
X68585Y-8742D01*
X68471Y-8742D01*
X68414Y-8771D01*
X68671Y-9114D02*
X68614Y-9142D01*
X68471Y-9142D01*
X68414Y-9114D01*
X68385Y-9057D01*
X68385Y-9000D01*
X68414Y-8942D01*
X68471Y-8914D01*
X68614Y-8914D01*
X68671Y-8885D01*
X68900Y-8742D02*
X69042Y-9142D01*
X69185Y-8742D02*
X69042Y-9142D01*
X68985Y-9285D01*
X68957Y-9314D01*
X68900Y-9342D01*
X70157Y-9142D02*
X69871Y-9142D01*
X69871Y-8542D01*
X70357Y-9142D02*
X70357Y-8742D01*
X70357Y-8542D02*
X70328Y-8571D01*
X70357Y-8600D01*
X70385Y-8571D01*
X70357Y-8542D01*
X70357Y-8600D01*
X70642Y-8742D02*
X70642Y-9142D01*
X70642Y-8800D02*
X70671Y-8771D01*
X70728Y-8742D01*
X70814Y-8742D01*
X70871Y-8771D01*
X70900Y-8828D01*
X70900Y-9142D01*
X71442Y-9142D02*
X71442Y-8542D01*
X71442Y-9114D02*
X71385Y-9142D01*
X71271Y-9142D01*
X71214Y-9114D01*
X71185Y-9085D01*
X71157Y-9028D01*
X71157Y-8857D01*
X71185Y-8800D01*
X71214Y-8771D01*
X71271Y-8742D01*
X71385Y-8742D01*
X71442Y-8771D01*
X71957Y-9114D02*
X71900Y-9142D01*
X71785Y-9142D01*
X71728Y-9114D01*
X71700Y-9057D01*
X71700Y-8828D01*
X71728Y-8771D01*
X71785Y-8742D01*
X71900Y-8742D01*
X71957Y-8771D01*
X71985Y-8828D01*
X71985Y-8885D01*
X71700Y-8942D01*
X72242Y-9142D02*
X72242Y-8542D01*
X72242Y-8771D02*
X72300Y-8742D01*
X72414Y-8742D01*
X72471Y-8771D01*
X72500Y-8800D01*
X72528Y-8857D01*
X72528Y-9028D01*
X72500Y-9085D01*
X72471Y-9114D01*
X72414Y-9142D01*
X72300Y-9142D01*
X72242Y-9114D01*
X72871Y-9142D02*
X72814Y-9114D01*
X72785Y-9057D01*
X72785Y-8542D01*
X73185Y-9142D02*
X73128Y-9114D01*
X73100Y-9085D01*
X73071Y-9028D01*
X73071Y-8857D01*
X73100Y-8800D01*
X73128Y-8771D01*
X73185Y-8742D01*
X73271Y-8742D01*
X73328Y-8771D01*
X73357Y-8800D01*
X73385Y-8857D01*
X73385Y-9028D01*
X73357Y-9085D01*
X73328Y-9114D01*
X73271Y-9142D01*
X73185Y-9142D01*
X73642Y-9142D02*
X73642Y-8742D01*
X73642Y-8800D02*
X73671Y-8771D01*
X73728Y-8742D01*
X73814Y-8742D01*
X73871Y-8771D01*
X73900Y-8828D01*
X73900Y-9142D01*
X73900Y-8828D02*
X73928Y-8771D01*
X73985Y-8742D01*
X74071Y-8742D01*
X74128Y-8771D01*
X74157Y-8828D01*
X74157Y-9142D01*
X48300Y-8300D02*
X48300Y-20300D01*
X48300Y-14300D02*
X90300Y-14300D01*
X48300Y-8300D02*
X90300Y-8300D01*
X48300Y-16700D02*
X90300Y-16700D01*
X81500Y-17900D02*
X81500Y-20300D01*
X48300Y-19100D02*
X90300Y-19100D01*
X48300Y-17900D02*
X90300Y-17900D01*
X54900Y-17900D02*
X54900Y-19100D01*
G54D11*
X18716Y30883D02*
X18750Y30916D01*
X18783Y31016D01*
X18783Y31083D01*
X18750Y31183D01*
X18683Y31250D01*
X18616Y31283D01*
X18483Y31316D01*
X18383Y31316D01*
X18250Y31283D01*
X18183Y31250D01*
X18116Y31183D01*
X18083Y31083D01*
X18083Y31016D01*
X18116Y30916D01*
X18150Y30883D01*
X18783Y30183D02*
X18450Y30416D01*
X18783Y30583D02*
X18083Y30583D01*
X18083Y30316D01*
X18116Y30250D01*
X18150Y30216D01*
X18216Y30183D01*
X18316Y30183D01*
X18383Y30216D01*
X18416Y30250D01*
X18450Y30316D01*
X18450Y30583D01*
X18583Y29916D02*
X18583Y29583D01*
X18783Y29983D02*
X18083Y29750D01*
X18783Y29516D01*
X18783Y29283D02*
X18083Y29283D01*
X18583Y29050D01*
X18083Y28816D01*
X18783Y28816D01*
X18783Y28483D02*
X18083Y28483D01*
X18083Y28216D01*
X18116Y28150D01*
X18150Y28116D01*
X18216Y28083D01*
X18316Y28083D01*
X18383Y28116D01*
X18416Y28150D01*
X18450Y28216D01*
X18450Y28483D01*
X18750Y27816D02*
X18783Y27716D01*
X18783Y27550D01*
X18750Y27483D01*
X18716Y27450D01*
X18650Y27416D01*
X18583Y27416D01*
X18516Y27450D01*
X18483Y27483D01*
X18450Y27550D01*
X18416Y27683D01*
X18383Y27750D01*
X18350Y27783D01*
X18283Y27816D01*
X18216Y27816D01*
X18150Y27783D01*
X18116Y27750D01*
X18083Y27683D01*
X18083Y27516D01*
X18116Y27416D01*
X18316Y26650D02*
X18783Y26483D01*
X18316Y26316D01*
X18150Y26083D02*
X18116Y26050D01*
X18083Y25983D01*
X18083Y25816D01*
X18116Y25750D01*
X18150Y25716D01*
X18216Y25683D01*
X18283Y25683D01*
X18383Y25716D01*
X18783Y26116D01*
X18783Y25683D01*
X18716Y25383D02*
X18750Y25350D01*
X18783Y25383D01*
X18750Y25416D01*
X18716Y25383D01*
X18783Y25383D01*
X18150Y25083D02*
X18116Y25050D01*
X18083Y24983D01*
X18083Y24816D01*
X18116Y24750D01*
X18150Y24716D01*
X18216Y24683D01*
X18283Y24683D01*
X18383Y24716D01*
X18783Y25116D01*
X18783Y24683D01*
G54D12*
X19321Y30726D02*
X19297Y30773D01*
X19297Y30869D01*
X19321Y30916D01*
X19369Y30964D01*
X19416Y30988D01*
X19511Y30988D01*
X19559Y30964D01*
X19607Y30916D01*
X19630Y30869D01*
X19630Y30773D01*
X19607Y30726D01*
X19130Y30821D02*
X19154Y30940D01*
X19226Y31059D01*
X19345Y31130D01*
X19464Y31154D01*
X19583Y31130D01*
X19702Y31059D01*
X19773Y30940D01*
X19797Y30821D01*
X19773Y30702D01*
X19702Y30583D01*
X19583Y30511D01*
X19464Y30488D01*
X19345Y30511D01*
X19226Y30583D01*
X19154Y30702D01*
X19130Y30821D01*
X19250Y29916D02*
X19226Y29892D01*
X19202Y29845D01*
X19202Y29726D01*
X19226Y29678D01*
X19250Y29654D01*
X19297Y29630D01*
X19345Y29630D01*
X19416Y29654D01*
X19702Y29940D01*
X19702Y29630D01*
X19202Y29321D02*
X19202Y29273D01*
X19226Y29226D01*
X19250Y29202D01*
X19297Y29178D01*
X19392Y29154D01*
X19511Y29154D01*
X19607Y29178D01*
X19654Y29202D01*
X19678Y29226D01*
X19702Y29273D01*
X19702Y29321D01*
X19678Y29369D01*
X19654Y29392D01*
X19607Y29416D01*
X19511Y29440D01*
X19392Y29440D01*
X19297Y29416D01*
X19250Y29392D01*
X19226Y29369D01*
X19202Y29321D01*
X19702Y28678D02*
X19702Y28964D01*
X19702Y28821D02*
X19202Y28821D01*
X19273Y28869D01*
X19321Y28916D01*
X19345Y28964D01*
X19369Y28249D02*
X19702Y28249D01*
X19178Y28369D02*
X19535Y28488D01*
X19535Y28178D01*
X20026Y30869D02*
X20002Y30916D01*
X20002Y30988D01*
X20026Y31059D01*
X20073Y31107D01*
X20121Y31130D01*
X20216Y31154D01*
X20288Y31154D01*
X20383Y31130D01*
X20430Y31107D01*
X20478Y31059D01*
X20502Y30988D01*
X20502Y30940D01*
X20478Y30869D01*
X20454Y30845D01*
X20288Y30845D01*
X20288Y30940D01*
X20502Y30630D02*
X20002Y30630D01*
X20002Y30440D01*
X20026Y30392D01*
X20050Y30369D01*
X20097Y30345D01*
X20169Y30345D01*
X20216Y30369D01*
X20240Y30392D01*
X20264Y30440D01*
X20264Y30630D01*
X20502Y29892D02*
X20502Y30130D01*
X20002Y30130D01*
X20169Y29392D02*
X20502Y29273D01*
X20169Y29154D01*
X20002Y29011D02*
X20002Y28702D01*
X20192Y28869D01*
X20192Y28797D01*
X20216Y28750D01*
X20240Y28726D01*
X20288Y28702D01*
X20407Y28702D01*
X20454Y28726D01*
X20478Y28750D01*
X20502Y28797D01*
X20502Y28940D01*
X20478Y28988D01*
X20454Y29011D01*
X5918Y36766D02*
X5918Y37266D01*
X5680Y36766D02*
X5680Y37266D01*
X5394Y36766D01*
X5394Y37266D01*
X6489Y36478D02*
X6394Y36478D01*
X6347Y36454D01*
X6299Y36407D01*
X6275Y36312D01*
X6275Y36145D01*
X6299Y36050D01*
X6347Y36002D01*
X6394Y35978D01*
X6489Y35978D01*
X6537Y36002D01*
X6585Y36050D01*
X6608Y36145D01*
X6608Y36312D01*
X6585Y36407D01*
X6537Y36454D01*
X6489Y36478D01*
X6061Y36478D02*
X6061Y36073D01*
X6037Y36026D01*
X6013Y36002D01*
X5966Y35978D01*
X5870Y35978D01*
X5823Y36002D01*
X5799Y36026D01*
X5775Y36073D01*
X5775Y36478D01*
X5608Y36478D02*
X5323Y36478D01*
X5466Y35978D02*
X5466Y36478D01*
G54D11*
X7244Y36181D02*
X6850Y36181D01*
X7244Y35590D02*
X7244Y36181D01*
X7244Y36968D02*
X6259Y36968D01*
X7244Y37559D02*
X7244Y36968D01*
G54D13*
X6062Y18759D02*
X6259Y18759D01*
X6062Y17381D02*
X6259Y17381D01*
X6259Y20137D02*
X6259Y16003D01*
X5669Y22401D02*
X6062Y22401D01*
X5669Y33622D02*
X6062Y33622D01*
X5669Y39527D02*
X6062Y39527D01*
X5669Y43464D02*
X6062Y43464D01*
G54D12*
X5746Y18201D02*
X5770Y18154D01*
X5770Y18082D01*
X5746Y18011D01*
X5698Y17963D01*
X5651Y17939D01*
X5555Y17916D01*
X5484Y17916D01*
X5389Y17939D01*
X5341Y17963D01*
X5293Y18011D01*
X5270Y18082D01*
X5270Y18130D01*
X5293Y18201D01*
X5317Y18225D01*
X5484Y18225D01*
X5484Y18130D01*
X5770Y19353D02*
X5770Y19115D01*
X5531Y19091D01*
X5555Y19115D01*
X5579Y19163D01*
X5579Y19282D01*
X5555Y19329D01*
X5531Y19353D01*
X5484Y19377D01*
X5365Y19377D01*
X5317Y19353D01*
X5293Y19329D01*
X5270Y19282D01*
X5270Y19163D01*
X5293Y19115D01*
X5317Y19091D01*
X5770Y19520D02*
X5270Y19686D01*
X5770Y19853D01*
X5770Y16216D02*
X5270Y16383D01*
X5770Y16550D01*
X5460Y16716D02*
X5460Y17097D01*
X5270Y16907D02*
X5651Y16907D01*
G54D13*
X6062Y16003D02*
X9015Y16003D01*
X6062Y13248D02*
X9015Y13248D01*
X6062Y10492D02*
X9015Y10492D01*
X9015Y7736D02*
X6062Y7736D01*
X9015Y20137D02*
X9015Y7736D01*
X6062Y20137D02*
X9015Y20137D01*
X6062Y20433D02*
X6062Y24370D01*
X9606Y20433D02*
X6062Y20433D01*
X9606Y24370D02*
X9606Y20433D01*
X6062Y24370D02*
X9606Y24370D01*
X6062Y31653D02*
X6062Y35590D01*
X9606Y31653D02*
X6062Y31653D01*
X9606Y35590D02*
X9606Y31653D01*
X6062Y35590D02*
X9606Y35590D01*
X6062Y41496D02*
X9606Y41496D01*
X6062Y37559D02*
X6062Y45433D01*
X9606Y37559D02*
X6062Y37559D01*
X9606Y45433D02*
X9606Y37559D01*
X6062Y45433D02*
X9606Y45433D01*
X6062Y41496D02*
X5000Y41496D01*
X6062Y35590D02*
X5000Y35590D01*
X6062Y37559D02*
X5000Y37559D01*
X6062Y45433D02*
X5000Y45433D01*
X6062Y24370D02*
X5000Y24370D01*
X6062Y31653D02*
X5000Y31653D01*
X6062Y20433D02*
X5000Y20433D01*
X6062Y20137D02*
X5000Y20137D01*
X6062Y16003D02*
X5000Y16003D01*
X6062Y13248D02*
X5000Y13248D01*
X6062Y10492D02*
X5000Y10492D01*
X6062Y7736D02*
X5000Y7736D01*
G54D14*
X6723Y32272D02*
X6695Y32356D01*
X6667Y32384D01*
X6611Y32412D01*
X6526Y32412D01*
X6470Y32384D01*
X6442Y32356D01*
X6414Y32300D01*
X6414Y32075D01*
X7005Y32075D01*
X7005Y32272D01*
X6976Y32328D01*
X6948Y32356D01*
X6892Y32384D01*
X6836Y32384D01*
X6780Y32356D01*
X6751Y32328D01*
X6723Y32272D01*
X6723Y32075D01*
X6723Y32665D02*
X6723Y32862D01*
X6414Y32947D02*
X6414Y32665D01*
X7005Y32665D01*
X7005Y32947D01*
X6414Y33200D02*
X7005Y33200D01*
X7005Y33340D01*
X6976Y33425D01*
X6920Y33481D01*
X6864Y33509D01*
X6751Y33537D01*
X6667Y33537D01*
X6555Y33509D01*
X6498Y33481D01*
X6442Y33425D01*
X6414Y33340D01*
X6414Y33200D01*
X6414Y33790D02*
X7005Y33790D01*
X6723Y33790D02*
X6723Y34128D01*
X6414Y34128D02*
X7005Y34128D01*
X7005Y34325D02*
X7005Y34662D01*
X6414Y34493D02*
X7005Y34493D01*
X6414Y35196D02*
X6695Y35000D01*
X6414Y34859D02*
X7005Y34859D01*
X7005Y35084D01*
X6976Y35140D01*
X6948Y35168D01*
X6892Y35196D01*
X6808Y35196D01*
X6751Y35168D01*
X6723Y35140D01*
X6695Y35084D01*
X6695Y34859D01*
G54D12*
X5746Y34225D02*
X5770Y34177D01*
X5770Y34106D01*
X5746Y34034D01*
X5698Y33987D01*
X5651Y33963D01*
X5555Y33939D01*
X5484Y33939D01*
X5389Y33963D01*
X5341Y33987D01*
X5293Y34034D01*
X5270Y34106D01*
X5270Y34153D01*
X5293Y34225D01*
X5317Y34249D01*
X5484Y34249D01*
X5484Y34153D01*
X5270Y34463D02*
X5770Y34463D01*
X5270Y34749D01*
X5770Y34749D01*
X5270Y34987D02*
X5770Y34987D01*
X5770Y35106D01*
X5746Y35177D01*
X5698Y35225D01*
X5651Y35249D01*
X5555Y35272D01*
X5484Y35272D01*
X5389Y35249D01*
X5341Y35225D01*
X5293Y35177D01*
X5270Y35106D01*
X5270Y34987D01*
X5531Y32197D02*
X5508Y32268D01*
X5484Y32292D01*
X5436Y32316D01*
X5365Y32316D01*
X5317Y32292D01*
X5293Y32268D01*
X5270Y32221D01*
X5270Y32030D01*
X5770Y32030D01*
X5770Y32197D01*
X5746Y32244D01*
X5722Y32268D01*
X5674Y32292D01*
X5627Y32292D01*
X5579Y32268D01*
X5555Y32244D01*
X5531Y32197D01*
X5531Y32030D01*
X5531Y32530D02*
X5531Y32697D01*
X5270Y32768D02*
X5270Y32530D01*
X5770Y32530D01*
X5770Y32768D01*
X5270Y32983D02*
X5770Y32983D01*
X5770Y33102D01*
X5746Y33173D01*
X5698Y33221D01*
X5651Y33244D01*
X5555Y33268D01*
X5484Y33268D01*
X5389Y33244D01*
X5341Y33221D01*
X5293Y33173D01*
X5270Y33102D01*
X5270Y32983D01*
X5531Y38102D02*
X5508Y38174D01*
X5484Y38198D01*
X5436Y38221D01*
X5365Y38221D01*
X5317Y38198D01*
X5293Y38174D01*
X5270Y38126D01*
X5270Y37936D01*
X5770Y37936D01*
X5770Y38102D01*
X5746Y38150D01*
X5722Y38174D01*
X5674Y38198D01*
X5627Y38198D01*
X5579Y38174D01*
X5555Y38150D01*
X5531Y38102D01*
X5531Y37936D01*
X5531Y38436D02*
X5531Y38602D01*
X5270Y38674D02*
X5270Y38436D01*
X5770Y38436D01*
X5770Y38674D01*
X5270Y38888D02*
X5770Y38888D01*
X5770Y39007D01*
X5746Y39079D01*
X5698Y39126D01*
X5651Y39150D01*
X5555Y39174D01*
X5484Y39174D01*
X5389Y39150D01*
X5341Y39126D01*
X5293Y39079D01*
X5270Y39007D01*
X5270Y38888D01*
X5746Y40130D02*
X5770Y40083D01*
X5770Y40011D01*
X5746Y39940D01*
X5698Y39892D01*
X5651Y39868D01*
X5555Y39845D01*
X5484Y39845D01*
X5389Y39868D01*
X5341Y39892D01*
X5293Y39940D01*
X5270Y40011D01*
X5270Y40059D01*
X5293Y40130D01*
X5317Y40154D01*
X5484Y40154D01*
X5484Y40059D01*
X5270Y40368D02*
X5770Y40368D01*
X5270Y40654D01*
X5770Y40654D01*
X5270Y40892D02*
X5770Y40892D01*
X5770Y41011D01*
X5746Y41083D01*
X5698Y41130D01*
X5651Y41154D01*
X5555Y41178D01*
X5484Y41178D01*
X5389Y41154D01*
X5341Y41130D01*
X5293Y41083D01*
X5270Y41011D01*
X5270Y40892D01*
G54D14*
X6723Y38079D02*
X6695Y38163D01*
X6667Y38191D01*
X6611Y38219D01*
X6526Y38219D01*
X6470Y38191D01*
X6442Y38163D01*
X6414Y38107D01*
X6414Y37882D01*
X7005Y37882D01*
X7005Y38079D01*
X6976Y38135D01*
X6948Y38163D01*
X6892Y38191D01*
X6836Y38191D01*
X6780Y38163D01*
X6751Y38135D01*
X6723Y38079D01*
X6723Y37882D01*
X6723Y38473D02*
X6723Y38669D01*
X6414Y38754D02*
X6414Y38473D01*
X7005Y38473D01*
X7005Y38754D01*
X6414Y39007D02*
X7005Y39007D01*
X7005Y39147D01*
X6976Y39232D01*
X6920Y39288D01*
X6864Y39316D01*
X6751Y39344D01*
X6667Y39344D01*
X6555Y39316D01*
X6498Y39288D01*
X6442Y39232D01*
X6414Y39147D01*
X6414Y39007D01*
X6414Y39597D02*
X7005Y39597D01*
X7005Y39822D01*
X6976Y39879D01*
X6948Y39907D01*
X6892Y39935D01*
X6808Y39935D01*
X6751Y39907D01*
X6723Y39879D01*
X6695Y39822D01*
X6695Y39597D01*
X7005Y40132D02*
X6414Y40272D01*
X6836Y40385D01*
X6414Y40497D01*
X7005Y40638D01*
X6414Y41200D02*
X6695Y41003D01*
X6414Y40863D02*
X7005Y40863D01*
X7005Y41088D01*
X6976Y41144D01*
X6948Y41172D01*
X6892Y41200D01*
X6808Y41200D01*
X6751Y41172D01*
X6723Y41144D01*
X6695Y41088D01*
X6695Y40863D01*
X6414Y41847D02*
X7005Y41847D01*
X6583Y42044D01*
X7005Y42241D01*
X6414Y42241D01*
X7005Y42634D02*
X7005Y42747D01*
X6976Y42803D01*
X6920Y42859D01*
X6808Y42888D01*
X6611Y42888D01*
X6498Y42859D01*
X6442Y42803D01*
X6414Y42747D01*
X6414Y42634D01*
X6442Y42578D01*
X6498Y42522D01*
X6611Y42494D01*
X6808Y42494D01*
X6920Y42522D01*
X6976Y42578D01*
X7005Y42634D01*
X7005Y43056D02*
X7005Y43394D01*
X6414Y43225D02*
X7005Y43225D01*
X7005Y43703D02*
X7005Y43816D01*
X6976Y43872D01*
X6920Y43928D01*
X6808Y43956D01*
X6611Y43956D01*
X6498Y43928D01*
X6442Y43872D01*
X6414Y43816D01*
X6414Y43703D01*
X6442Y43647D01*
X6498Y43591D01*
X6611Y43562D01*
X6808Y43562D01*
X6920Y43591D01*
X6976Y43647D01*
X7005Y43703D01*
X6414Y44547D02*
X6695Y44350D01*
X6414Y44209D02*
X7005Y44209D01*
X7005Y44434D01*
X6976Y44491D01*
X6948Y44519D01*
X6892Y44547D01*
X6808Y44547D01*
X6751Y44519D01*
X6723Y44491D01*
X6695Y44434D01*
X6695Y44209D01*
X6442Y44772D02*
X6414Y44856D01*
X6414Y44997D01*
X6442Y45053D01*
X6470Y45081D01*
X6526Y45109D01*
X6583Y45109D01*
X6639Y45081D01*
X6667Y45053D01*
X6695Y44997D01*
X6723Y44884D01*
X6751Y44828D01*
X6780Y44800D01*
X6836Y44772D01*
X6892Y44772D01*
X6948Y44800D01*
X6976Y44828D01*
X7005Y44884D01*
X7005Y45025D01*
X6976Y45109D01*
G54D12*
X5746Y44067D02*
X5770Y44020D01*
X5770Y43948D01*
X5746Y43877D01*
X5698Y43829D01*
X5651Y43805D01*
X5555Y43782D01*
X5484Y43782D01*
X5389Y43805D01*
X5341Y43829D01*
X5293Y43877D01*
X5270Y43948D01*
X5270Y43996D01*
X5293Y44067D01*
X5317Y44091D01*
X5484Y44091D01*
X5484Y43996D01*
X5270Y44305D02*
X5770Y44305D01*
X5270Y44591D01*
X5770Y44591D01*
X5270Y44829D02*
X5770Y44829D01*
X5770Y44948D01*
X5746Y45020D01*
X5698Y45067D01*
X5651Y45091D01*
X5555Y45115D01*
X5484Y45115D01*
X5389Y45091D01*
X5341Y45067D01*
X5293Y45020D01*
X5270Y44948D01*
X5270Y44829D01*
X5270Y41861D02*
X5770Y41861D01*
X5412Y42027D01*
X5770Y42194D01*
X5270Y42194D01*
X5770Y42527D02*
X5770Y42623D01*
X5746Y42670D01*
X5698Y42718D01*
X5603Y42742D01*
X5436Y42742D01*
X5341Y42718D01*
X5293Y42670D01*
X5270Y42623D01*
X5270Y42527D01*
X5293Y42480D01*
X5341Y42432D01*
X5436Y42408D01*
X5603Y42408D01*
X5698Y42432D01*
X5746Y42480D01*
X5770Y42527D01*
X5770Y42885D02*
X5770Y43170D01*
X5270Y43027D02*
X5770Y43027D01*
X6594Y16666D02*
X6594Y16904D01*
X6451Y16618D02*
X6951Y16785D01*
X6451Y16951D01*
X6951Y17118D02*
X6546Y17118D01*
X6498Y17142D01*
X6474Y17166D01*
X6451Y17213D01*
X6451Y17308D01*
X6474Y17356D01*
X6498Y17380D01*
X6546Y17404D01*
X6951Y17404D01*
X6951Y17594D02*
X6451Y17928D01*
X6951Y17928D02*
X6451Y17594D01*
X6451Y18118D02*
X6951Y18118D01*
X6951Y18308D01*
X6927Y18356D01*
X6903Y18380D01*
X6855Y18404D01*
X6784Y18404D01*
X6736Y18380D01*
X6713Y18356D01*
X6689Y18308D01*
X6689Y18118D01*
X6951Y18570D02*
X6451Y18689D01*
X6808Y18785D01*
X6451Y18880D01*
X6951Y18999D01*
X6451Y19475D02*
X6689Y19308D01*
X6451Y19189D02*
X6951Y19189D01*
X6951Y19380D01*
X6927Y19428D01*
X6903Y19451D01*
X6855Y19475D01*
X6784Y19475D01*
X6736Y19451D01*
X6713Y19428D01*
X6689Y19380D01*
X6689Y19189D01*
X5270Y20750D02*
X5770Y20750D01*
X5770Y20941D01*
X5746Y20988D01*
X5722Y21012D01*
X5674Y21036D01*
X5603Y21036D01*
X5555Y21012D01*
X5531Y20988D01*
X5508Y20941D01*
X5508Y20750D01*
X5770Y21203D02*
X5270Y21322D01*
X5627Y21417D01*
X5270Y21512D01*
X5770Y21631D01*
X5270Y22107D02*
X5508Y21941D01*
X5270Y21822D02*
X5770Y21822D01*
X5770Y22012D01*
X5746Y22060D01*
X5722Y22083D01*
X5674Y22107D01*
X5603Y22107D01*
X5555Y22083D01*
X5531Y22060D01*
X5508Y22012D01*
X5508Y21822D01*
X5746Y23004D02*
X5770Y22957D01*
X5770Y22885D01*
X5746Y22814D01*
X5698Y22766D01*
X5651Y22742D01*
X5555Y22719D01*
X5484Y22719D01*
X5389Y22742D01*
X5341Y22766D01*
X5293Y22814D01*
X5270Y22885D01*
X5270Y22933D01*
X5293Y23004D01*
X5317Y23028D01*
X5484Y23028D01*
X5484Y22933D01*
X5270Y23242D02*
X5770Y23242D01*
X5270Y23528D01*
X5770Y23528D01*
X5270Y23766D02*
X5770Y23766D01*
X5770Y23885D01*
X5746Y23957D01*
X5698Y24004D01*
X5651Y24028D01*
X5555Y24052D01*
X5484Y24052D01*
X5389Y24028D01*
X5341Y24004D01*
X5293Y23957D01*
X5270Y23885D01*
X5270Y23766D01*
G54D11*
X5275Y8425D02*
X6062Y8425D01*
X5669Y8818D02*
X5669Y8031D01*
X5669Y10196D02*
X5669Y9409D01*
X5275Y11181D02*
X6062Y11181D01*
X5669Y11574D02*
X5669Y10787D01*
X5669Y12952D02*
X5669Y12165D01*
X5275Y13937D02*
X6062Y13937D01*
X5669Y14330D02*
X5669Y13543D01*
X5669Y15708D02*
X5669Y14921D01*
X31000Y44000D02*
X31000Y46500D01*
X27000Y44000D02*
X31000Y44000D01*
X27000Y46500D02*
X27000Y44000D01*
X23000Y44000D02*
X23000Y46500D01*
X19000Y44000D02*
X23000Y44000D01*
X19000Y46500D02*
X19000Y44000D01*
X39000Y44000D02*
X39000Y46500D01*
X35000Y44000D02*
X39000Y44000D01*
X35000Y46500D02*
X35000Y44000D01*
G54D15*
X17404Y45583D02*
X18404Y44916D01*
X17404Y44916D02*
X18404Y45583D01*
X25928Y45250D02*
X26404Y45250D01*
X25404Y45583D02*
X25928Y45250D01*
X25404Y44916D01*
G54D11*
X41000Y10000D02*
X41000Y7500D01*
X37000Y10000D02*
X41000Y10000D01*
X37000Y7500D02*
X37000Y10000D01*
X33000Y10000D02*
X33000Y7500D01*
X29000Y10000D02*
X33000Y10000D01*
X29000Y7500D02*
X29000Y10000D01*
X25000Y10000D02*
X25000Y7500D01*
X21000Y10000D02*
X25000Y10000D01*
X21000Y7500D02*
X21000Y10000D01*
G54D15*
X33404Y45583D02*
X33404Y44916D01*
X34404Y45583D01*
X34404Y44916D01*
X25880Y9440D02*
X25880Y9107D01*
X26404Y8964D02*
X26404Y9440D01*
X25404Y9440D01*
X25404Y8964D01*
X25404Y8345D02*
X25404Y8250D01*
X25452Y8154D01*
X25500Y8107D01*
X25595Y8059D01*
X25785Y8011D01*
X26023Y8011D01*
X26214Y8059D01*
X26309Y8107D01*
X26357Y8154D01*
X26404Y8250D01*
X26404Y8345D01*
X26357Y8440D01*
X26309Y8488D01*
X26214Y8535D01*
X26023Y8583D01*
X25785Y8583D01*
X25595Y8535D01*
X25500Y8488D01*
X25452Y8440D01*
X25404Y8345D01*
X34130Y9440D02*
X34130Y9107D01*
X34654Y8964D02*
X34654Y9440D01*
X33654Y9440D01*
X33654Y8964D01*
X34654Y8011D02*
X34654Y8583D01*
X34654Y8297D02*
X33654Y8297D01*
X33797Y8392D01*
X33892Y8488D01*
X33940Y8583D01*
X41880Y9440D02*
X41880Y9107D01*
X42404Y8964D02*
X42404Y9440D01*
X41404Y9440D01*
X41404Y8964D01*
X41500Y8583D02*
X41452Y8535D01*
X41404Y8440D01*
X41404Y8202D01*
X41452Y8107D01*
X41500Y8059D01*
X41595Y8011D01*
X41690Y8011D01*
X41833Y8059D01*
X42404Y8630D01*
X42404Y8011D01*
G54D11*
X19000Y10000D02*
X19000Y7500D01*
X17000Y10000D02*
X19000Y10000D01*
X17000Y7500D02*
X17000Y10000D01*
X14000Y10000D02*
X14000Y7500D01*
X12000Y10000D02*
X14000Y10000D01*
X12000Y7500D02*
X12000Y10000D01*
G54D12*
X18583Y9559D02*
X18750Y9559D01*
X18750Y9297D02*
X18750Y9797D01*
X18511Y9797D01*
X18321Y9559D02*
X18154Y9559D01*
X18083Y9297D02*
X18321Y9297D01*
X18321Y9797D01*
X18083Y9797D01*
X17940Y9797D02*
X17654Y9797D01*
X17797Y9297D02*
X17797Y9797D01*
X17250Y9797D02*
X17488Y9797D01*
X17511Y9559D01*
X17488Y9583D01*
X17440Y9607D01*
X17321Y9607D01*
X17273Y9583D01*
X17250Y9559D01*
X17226Y9511D01*
X17226Y9392D01*
X17250Y9345D01*
X17273Y9321D01*
X17321Y9297D01*
X17440Y9297D01*
X17488Y9321D01*
X17511Y9345D01*
X13583Y9559D02*
X13750Y9559D01*
X13750Y9297D02*
X13750Y9797D01*
X13511Y9797D01*
X13321Y9559D02*
X13154Y9559D01*
X13083Y9297D02*
X13321Y9297D01*
X13321Y9797D01*
X13083Y9797D01*
X12940Y9797D02*
X12654Y9797D01*
X12797Y9297D02*
X12797Y9797D01*
X12273Y9797D02*
X12369Y9797D01*
X12416Y9773D01*
X12440Y9750D01*
X12488Y9678D01*
X12511Y9583D01*
X12511Y9392D01*
X12488Y9345D01*
X12464Y9321D01*
X12416Y9297D01*
X12321Y9297D01*
X12273Y9321D01*
X12250Y9345D01*
X12226Y9392D01*
X12226Y9511D01*
X12250Y9559D01*
X12273Y9583D01*
X12321Y9607D01*
X12416Y9607D01*
X12464Y9583D01*
X12488Y9559D01*
X12511Y9511D01*
G54D11*
X18500Y8250D02*
X18500Y7750D01*
X18250Y8000D02*
X18750Y8000D01*
X17250Y8000D02*
X17750Y8000D01*
X13500Y8250D02*
X13500Y7750D01*
X13250Y8000D02*
X13750Y8000D01*
X12250Y8000D02*
X12750Y8000D01*
X5000Y24500D02*
X9000Y24500D01*
X6847Y8561D02*
X6847Y8828D01*
X6428Y8942D02*
X6428Y8561D01*
X7228Y8561D01*
X7228Y8942D01*
X7228Y9437D02*
X7228Y9514D01*
X7190Y9590D01*
X7151Y9628D01*
X7075Y9666D01*
X6923Y9704D01*
X6732Y9704D01*
X6580Y9666D01*
X6504Y9628D01*
X6466Y9590D01*
X6428Y9514D01*
X6428Y9437D01*
X6466Y9361D01*
X6504Y9323D01*
X6580Y9285D01*
X6732Y9247D01*
X6923Y9247D01*
X7075Y9285D01*
X7151Y9323D01*
X7190Y9361D01*
X7228Y9437D01*
X6847Y11317D02*
X6847Y11584D01*
X6428Y11698D02*
X6428Y11317D01*
X7228Y11317D01*
X7228Y11698D01*
X6428Y12460D02*
X6428Y12003D01*
X6428Y12231D02*
X7228Y12231D01*
X7113Y12155D01*
X7037Y12079D01*
X6999Y12003D01*
X6847Y14073D02*
X6847Y14340D01*
X6428Y14454D02*
X6428Y14073D01*
X7228Y14073D01*
X7228Y14454D01*
X7151Y14759D02*
X7190Y14797D01*
X7228Y14873D01*
X7228Y15064D01*
X7190Y15140D01*
X7151Y15178D01*
X7075Y15216D01*
X6999Y15216D01*
X6885Y15178D01*
X6428Y14721D01*
X6428Y15216D01*
G54D14*
X6723Y20840D02*
X6723Y21037D01*
X6414Y21122D02*
X6414Y20840D01*
X7005Y20840D01*
X7005Y21122D01*
X7005Y21318D02*
X6414Y21712D01*
X7005Y21712D02*
X6414Y21318D01*
X7005Y21853D02*
X7005Y22190D01*
X6414Y22021D02*
X7005Y22021D01*
X6414Y22387D02*
X7005Y22387D01*
X7005Y22612D01*
X6976Y22668D01*
X6948Y22696D01*
X6892Y22724D01*
X6808Y22724D01*
X6751Y22696D01*
X6723Y22668D01*
X6695Y22612D01*
X6695Y22387D01*
X7005Y22921D02*
X6414Y23062D01*
X6836Y23174D01*
X6414Y23287D01*
X7005Y23428D01*
X6414Y23990D02*
X6695Y23793D01*
X6414Y23652D02*
X7005Y23652D01*
X7005Y23877D01*
X6976Y23934D01*
X6948Y23962D01*
X6892Y23990D01*
X6808Y23990D01*
X6751Y23962D01*
X6723Y23934D01*
X6695Y23877D01*
X6695Y23652D01*
G54D13*
X44000Y7500D02*
X5000Y7500D01*
X44000Y46500D02*
X44000Y7500D01*
X5000Y46500D02*
X44000Y46500D01*
X5000Y31500D02*
X5000Y46500D01*
X17750Y31500D02*
X5000Y31500D01*
X17750Y24500D02*
X17750Y31500D01*
X5000Y24500D02*
X17750Y24500D01*
X5000Y7500D02*
X5000Y24500D01*
G54D11*
X27000Y18750D02*
X27000Y19750D01*
X26000Y19750D02*
X26000Y18750D01*
X26000Y18750D02*
X32000Y18750D01*
X32000Y18750D02*
X32000Y19750D01*
X32000Y19750D02*
X26000Y19750D01*
G54D16*
X17000Y18500D02*
X17000Y16500D01*
X17000Y16500D02*
X40000Y16500D01*
X40000Y16500D02*
X40000Y18500D01*
X40000Y18500D02*
X17000Y18500D01*
X17000Y37500D02*
X17000Y35500D01*
X17000Y35500D02*
X40000Y35500D01*
X40000Y35500D02*
X40000Y37500D01*
X40000Y37500D02*
X17000Y37500D01*
G54D13*
X42750Y18750D02*
G75*
G03X42750Y18750I-1250J0D01*
G74*
G01*
X42750Y35250D02*
G75*
G03X42750Y35250I-1250J0D01*
G74*
G01*
X16750Y36500D02*
G75*
G03X16750Y36500I-1250J0D01*
G74*
G01*
X16750Y17500D02*
G75*
G03X16750Y17500I-1250J0D01*
G74*
G01*
G54D12*
X40000Y16500D02*
X17000Y16500D01*
X40000Y18500D02*
X40000Y16500D01*
X17000Y18500D02*
X40000Y18500D01*
X17000Y16500D02*
X17000Y18500D01*
X18000Y17500D02*
X18000Y16500D01*
X17000Y17500D02*
X18000Y17500D01*
X17000Y36500D02*
X18000Y36500D01*
X18000Y36500D02*
X18000Y35500D01*
X17000Y35500D02*
X17000Y37500D01*
X17000Y37500D02*
X40000Y37500D01*
X40000Y37500D02*
X40000Y35500D01*
X40000Y35500D02*
X17000Y35500D01*
G54D13*
X12500Y31650D02*
X12500Y31500D01*
X12500Y31500D02*
X17750Y31500D01*
X17750Y31500D02*
X17750Y24500D01*
X17750Y24500D02*
X9750Y24500D01*
X9750Y24500D02*
X9750Y24350D01*
X38750Y37750D02*
X12500Y37750D01*
X12500Y37750D02*
X12500Y31650D01*
X9750Y24350D02*
X9750Y19250D01*
X9750Y18750D02*
X9750Y19250D01*
X38750Y16250D02*
X12250Y16250D01*
X43750Y21250D02*
X43750Y32750D01*
X38750Y16250D02*
G75*
G03X43750Y21250I0J5000D01*
G74*
G01*
X43750Y32750D02*
G75*
G03X38750Y37750I-5000J0D01*
G74*
G01*
X9750Y18750D02*
G75*
G03X12250Y16250I2500J0D01*
G74*
G01*
G54D17*
X29676Y20088D02*
X29676Y20488D01*
X29523Y20488D01*
X29485Y20469D01*
X29466Y20450D01*
X29447Y20411D01*
X29447Y20354D01*
X29466Y20316D01*
X29485Y20297D01*
X29523Y20278D01*
X29676Y20278D01*
X29066Y20088D02*
X29295Y20088D01*
X29180Y20088D02*
X29180Y20488D01*
X29219Y20430D01*
X29257Y20392D01*
X29295Y20373D01*
X28819Y20488D02*
X28780Y20488D01*
X28742Y20469D01*
X28723Y20450D01*
X28704Y20411D01*
X28685Y20335D01*
X28685Y20240D01*
X28704Y20164D01*
X28723Y20126D01*
X28742Y20107D01*
X28780Y20088D01*
X28819Y20088D01*
X28857Y20107D01*
X28876Y20126D01*
X28895Y20164D01*
X28914Y20240D01*
X28914Y20335D01*
X28895Y20411D01*
X28876Y20450D01*
X28857Y20469D01*
X28819Y20488D01*
X28304Y20088D02*
X28533Y20088D01*
X28419Y20088D02*
X28419Y20488D01*
X28457Y20430D01*
X28495Y20392D01*
X28533Y20373D01*
G54D11*
X17692Y18757D02*
X17692Y19357D01*
X17464Y19357D01*
X17407Y19328D01*
X17378Y19300D01*
X17350Y19242D01*
X17350Y19157D01*
X17378Y19100D01*
X17407Y19071D01*
X17464Y19042D01*
X17692Y19042D01*
X17064Y18757D02*
X16950Y18757D01*
X16892Y18785D01*
X16864Y18814D01*
X16807Y18900D01*
X16778Y19014D01*
X16778Y19242D01*
X16807Y19300D01*
X16835Y19328D01*
X16892Y19357D01*
X17007Y19357D01*
X17064Y19328D01*
X17092Y19300D01*
X17121Y19242D01*
X17121Y19100D01*
X17092Y19042D01*
X17064Y19014D01*
X17007Y18985D01*
X16892Y18985D01*
X16835Y19014D01*
X16807Y19042D01*
X16778Y19100D01*
X17942Y34507D02*
X17942Y35107D01*
X17714Y35107D01*
X17657Y35078D01*
X17628Y35050D01*
X17600Y34992D01*
X17600Y34907D01*
X17628Y34850D01*
X17657Y34821D01*
X17714Y34792D01*
X17942Y34792D01*
X17257Y34850D02*
X17314Y34878D01*
X17342Y34907D01*
X17371Y34964D01*
X17371Y34992D01*
X17342Y35050D01*
X17314Y35078D01*
X17257Y35107D01*
X17142Y35107D01*
X17085Y35078D01*
X17057Y35050D01*
X17028Y34992D01*
X17028Y34964D01*
X17057Y34907D01*
X17085Y34878D01*
X17142Y34850D01*
X17257Y34850D01*
X17314Y34821D01*
X17342Y34792D01*
X17371Y34735D01*
X17371Y34621D01*
X17342Y34564D01*
X17314Y34535D01*
X17257Y34507D01*
X17142Y34507D01*
X17085Y34535D01*
X17057Y34564D01*
X17028Y34621D01*
X17028Y34735D01*
X17057Y34792D01*
X17085Y34821D01*
X17142Y34850D01*
X28049Y27783D02*
X27949Y27750D01*
X27916Y27716D01*
X27883Y27650D01*
X27883Y27550D01*
X27916Y27483D01*
X27949Y27450D01*
X28016Y27416D01*
X28283Y27416D01*
X28283Y28116D01*
X28049Y28116D01*
X27983Y28083D01*
X27949Y28050D01*
X27916Y27983D01*
X27916Y27916D01*
X27949Y27850D01*
X27983Y27816D01*
X28049Y27783D01*
X28283Y27783D01*
X27349Y27783D02*
X27249Y27750D01*
X27216Y27716D01*
X27183Y27650D01*
X27183Y27550D01*
X27216Y27483D01*
X27249Y27450D01*
X27316Y27416D01*
X27583Y27416D01*
X27583Y28116D01*
X27349Y28116D01*
X27283Y28083D01*
X27249Y28050D01*
X27216Y27983D01*
X27216Y27916D01*
X27249Y27850D01*
X27283Y27816D01*
X27349Y27783D01*
X27583Y27783D01*
X26516Y27416D02*
X26916Y27416D01*
X26716Y27416D02*
X26716Y28116D01*
X26783Y28016D01*
X26849Y27950D01*
X26916Y27916D01*
X26083Y28116D02*
X26016Y28116D01*
X25949Y28083D01*
X25916Y28050D01*
X25883Y27983D01*
X25849Y27850D01*
X25849Y27683D01*
X25883Y27550D01*
X25916Y27483D01*
X25949Y27450D01*
X26016Y27416D01*
X26083Y27416D01*
X26149Y27450D01*
X26183Y27483D01*
X26216Y27550D01*
X26249Y27683D01*
X26249Y27850D01*
X26216Y27983D01*
X26183Y28050D01*
X26149Y28083D01*
X26083Y28116D01*
X25183Y27416D02*
X25583Y27416D01*
X25383Y27416D02*
X25383Y28116D01*
X25450Y28016D01*
X25516Y27950D01*
X25583Y27916D01*
M02*
