G04 (created by PCBNEW (2013-07-07 BZR 4022)-stable) date 5/7/2014 5:01:07 PM*
%MOIN*%
G04 Gerber Fmt 3.4, Leading zero omitted, Abs format*
%FSLAX34Y34*%
G01*
G70*
G90*
G04 APERTURE LIST*
%ADD10C,0.00590551*%
%ADD11R,0.1417X0.063*%
%ADD12R,0.036X0.036*%
%ADD13R,0.0366142X0.0311024*%
%ADD14R,0.0311024X0.0366142*%
%ADD15R,0.0314961X0.0314961*%
%ADD16R,0.0787402X0.023622*%
%ADD17R,0.0629921X0.023622*%
%ADD18R,0.0610236X0.0866142*%
%ADD19R,0.0866142X0.0610236*%
G04 APERTURE END LIST*
G54D10*
G54D11*
X20983Y5500D03*
X18817Y5500D03*
X5067Y13000D03*
X7233Y13000D03*
X28983Y5500D03*
X26817Y5500D03*
X27817Y34500D03*
X29983Y34500D03*
X19817Y34500D03*
X21983Y34500D03*
X11817Y34500D03*
X13983Y34500D03*
X36983Y5500D03*
X34817Y5500D03*
G54D12*
X13850Y5600D03*
X14550Y5600D03*
X14200Y4800D03*
X12250Y5600D03*
X12950Y5600D03*
X12600Y4800D03*
X20800Y16850D03*
X20800Y16150D03*
X20000Y16500D03*
X19300Y14850D03*
X19300Y14150D03*
X18500Y14500D03*
X20800Y14850D03*
X20800Y14150D03*
X20000Y14500D03*
X27750Y27150D03*
X27750Y27850D03*
X28550Y27500D03*
X26000Y27150D03*
X26000Y27850D03*
X26800Y27500D03*
G54D13*
X7900Y26677D03*
X7900Y27322D03*
X19900Y27177D03*
X19900Y27822D03*
G54D14*
X35077Y9750D03*
X35722Y9750D03*
G54D13*
X21900Y27822D03*
X21900Y27177D03*
G54D14*
X10722Y5200D03*
X10077Y5200D03*
X10722Y7000D03*
X10077Y7000D03*
X10722Y8800D03*
X10077Y8800D03*
X12277Y7400D03*
X12922Y7400D03*
X13877Y7400D03*
X14522Y7400D03*
X11827Y15500D03*
X12472Y15500D03*
X32972Y19000D03*
X32327Y19000D03*
X32972Y20000D03*
X32327Y20000D03*
X32972Y21000D03*
X32327Y21000D03*
X32972Y22000D03*
X32327Y22000D03*
X32972Y23000D03*
X32327Y23000D03*
X32972Y24000D03*
X32327Y24000D03*
G54D13*
X32400Y27572D03*
X32400Y26927D03*
X31400Y27572D03*
X31400Y26927D03*
X30400Y27572D03*
X30400Y26927D03*
X29400Y27572D03*
X29400Y26927D03*
G54D14*
X26077Y25750D03*
X26722Y25750D03*
X13077Y15500D03*
X13722Y15500D03*
X13077Y17000D03*
X13722Y17000D03*
X14522Y6800D03*
X13877Y6800D03*
X12922Y6800D03*
X12277Y6800D03*
X10077Y6400D03*
X10722Y6400D03*
X10077Y8200D03*
X10722Y8200D03*
X10077Y4600D03*
X10722Y4600D03*
G54D13*
X7150Y27322D03*
X7150Y26677D03*
X5900Y1177D03*
X5900Y1822D03*
X14650Y2072D03*
X14650Y1427D03*
G54D14*
X13077Y14750D03*
X13722Y14750D03*
G54D13*
X33400Y17122D03*
X33400Y16477D03*
X30800Y16477D03*
X30800Y17122D03*
X33400Y15722D03*
X33400Y15077D03*
X33400Y14322D03*
X33400Y13677D03*
X34000Y14322D03*
X34000Y13677D03*
X5150Y6677D03*
X5150Y7322D03*
G54D14*
X11827Y14750D03*
X12472Y14750D03*
G54D13*
X5400Y25677D03*
X5400Y26322D03*
X5150Y3927D03*
X5150Y4572D03*
X5150Y1177D03*
X5150Y1822D03*
X31400Y16477D03*
X31400Y17122D03*
X34000Y16477D03*
X34000Y17122D03*
X34000Y15722D03*
X34000Y15077D03*
G54D14*
X13077Y16250D03*
X13722Y16250D03*
X29222Y32750D03*
X28577Y32750D03*
X13222Y32750D03*
X12577Y32750D03*
X21222Y32750D03*
X20577Y32750D03*
X35577Y7250D03*
X36222Y7250D03*
X27577Y7250D03*
X28222Y7250D03*
X19577Y7250D03*
X20222Y7250D03*
X21827Y15500D03*
X22472Y15500D03*
X21827Y16250D03*
X22472Y16250D03*
G54D15*
X14945Y15500D03*
X14354Y15500D03*
X14945Y17000D03*
X14354Y17000D03*
X14945Y14750D03*
X14354Y14750D03*
X5900Y3045D03*
X5900Y2454D03*
X13900Y2045D03*
X13900Y1454D03*
X4650Y26295D03*
X4650Y25704D03*
X5150Y3045D03*
X5150Y2454D03*
X5150Y8545D03*
X5150Y7954D03*
X5150Y5795D03*
X5150Y5204D03*
X14945Y16250D03*
X14354Y16250D03*
G54D13*
X25650Y18177D03*
X25650Y18822D03*
X32800Y14322D03*
X32800Y13677D03*
X32800Y15722D03*
X32800Y15077D03*
X30200Y16477D03*
X30200Y17122D03*
X32800Y17122D03*
X32800Y16477D03*
G54D14*
X20222Y23500D03*
X19577Y23500D03*
X22472Y14750D03*
X21827Y14750D03*
G54D13*
X29600Y16477D03*
X29600Y17122D03*
X32200Y15722D03*
X32200Y15077D03*
X32200Y17122D03*
X32200Y16477D03*
X32200Y14322D03*
X32200Y13677D03*
G54D16*
X16069Y22750D03*
X16069Y22250D03*
X16069Y21750D03*
X16069Y21250D03*
X16069Y20750D03*
X16069Y20250D03*
X16069Y19750D03*
X16069Y19250D03*
X16069Y18750D03*
X16069Y18250D03*
X19650Y18250D03*
X19650Y18750D03*
X19650Y19250D03*
X19650Y19750D03*
X19650Y20250D03*
X19650Y20750D03*
X19650Y21250D03*
X19650Y21750D03*
X19650Y22250D03*
X19650Y22750D03*
X30230Y18250D03*
X30230Y18750D03*
X30230Y19250D03*
X30230Y19750D03*
X30230Y20250D03*
X30230Y20750D03*
X30230Y21250D03*
X30230Y21750D03*
X30230Y22250D03*
X30230Y22750D03*
X30230Y23250D03*
X30230Y23750D03*
X26650Y23750D03*
X26650Y23250D03*
X26650Y22750D03*
X26650Y22250D03*
X26650Y21750D03*
X26650Y21250D03*
X26650Y20750D03*
X26650Y20250D03*
X26650Y19750D03*
X26650Y19250D03*
X26650Y18750D03*
X26650Y18250D03*
G54D17*
X25462Y14750D03*
X25462Y15250D03*
X25462Y15750D03*
X25462Y16250D03*
X23337Y16250D03*
X23337Y15750D03*
X23337Y15250D03*
X23337Y14750D03*
G54D18*
X4150Y1192D03*
X4150Y2807D03*
G54D19*
X2411Y29574D03*
X4025Y29574D03*
G54D18*
X4150Y3942D03*
X4150Y5557D03*
X4150Y6692D03*
X4150Y8307D03*
X10650Y1192D03*
X10650Y2807D03*
X9150Y1192D03*
X9150Y2807D03*
G54D14*
X10077Y4000D03*
X10722Y4000D03*
X10077Y5800D03*
X10722Y5800D03*
X10077Y7600D03*
X10722Y7600D03*
G54D13*
X7150Y28572D03*
X7150Y27927D03*
G54D14*
X13877Y6200D03*
X14522Y6200D03*
X12277Y6200D03*
X12922Y6200D03*
M02*
