G04 (created by PCBNEW (2013-07-07 BZR 4022)-stable) date 5/29/2014 4:36:18 PM*
%MOIN*%
G04 Gerber Fmt 3.4, Leading zero omitted, Abs format*
%FSLAX34Y34*%
G01*
G70*
G90*
G04 APERTURE LIST*
%ADD10C,0.00590551*%
%ADD11C,0.03*%
%ADD12R,0.085X0.085*%
%ADD13O,0.085X0.085*%
%ADD14C,0.124331*%
%ADD15C,0.08*%
%ADD16C,0.085*%
%ADD17R,0.1617X0.083*%
%ADD18C,0.09*%
%ADD19R,0.09X0.09*%
%ADD20R,0.085X0.08*%
%ADD21R,0.075X0.1184*%
%ADD22R,0.056X0.056*%
%ADD23C,0.13811*%
%ADD24R,0.13811X0.13811*%
%ADD25C,0.114488*%
%ADD26R,0.114488X0.114488*%
%ADD27C,0.236535*%
%ADD28R,0.0566142X0.0511024*%
%ADD29R,0.0511024X0.0566142*%
%ADD30R,0.0514961X0.0514961*%
%ADD31R,0.0987402X0.043622*%
%ADD32R,0.0829921X0.043622*%
%ADD33R,0.0810236X0.106614*%
%ADD34R,0.106614X0.0810236*%
G04 APERTURE END LIST*
G54D10*
G54D11*
X10550Y44500D02*
G75*
G03X10550Y44500I-300J0D01*
G74*
G01*
X36300Y8750D02*
G75*
G03X36300Y8750I-300J0D01*
G74*
G01*
X18050Y15500D02*
G75*
G03X18050Y15500I-300J0D01*
G74*
G01*
X40300Y45250D02*
G75*
G03X40300Y45250I-300J0D01*
G74*
G01*
G54D12*
X11000Y18000D03*
G54D13*
X10000Y18000D03*
G54D14*
X11492Y43830D03*
X11492Y45169D03*
X15507Y43830D03*
X15507Y45169D03*
G54D15*
X10250Y44500D03*
X36000Y8750D03*
G54D12*
X18500Y19750D03*
G54D16*
X19500Y19750D03*
G54D12*
X20500Y19750D03*
G54D16*
X21500Y19750D03*
G54D12*
X35500Y21000D03*
G54D16*
X36500Y21000D03*
G54D17*
X26583Y12500D03*
X24417Y12500D03*
X10667Y20000D03*
X12833Y20000D03*
X34583Y12500D03*
X32417Y12500D03*
X33417Y41500D03*
X35583Y41500D03*
X25417Y41500D03*
X27583Y41500D03*
X17417Y41500D03*
X19583Y41500D03*
G54D18*
X11500Y36000D03*
X11500Y37000D03*
G54D19*
X11500Y35000D03*
G54D18*
X13250Y13500D03*
X12250Y13500D03*
G54D19*
X14250Y13500D03*
G54D18*
X13250Y11500D03*
X12250Y11500D03*
G54D19*
X14250Y11500D03*
G54D18*
X13250Y15500D03*
X12250Y15500D03*
G54D19*
X14250Y15500D03*
G54D20*
X19500Y45250D03*
G54D16*
X20500Y45250D03*
X21500Y45250D03*
X22500Y45250D03*
G54D20*
X27500Y45250D03*
G54D16*
X28500Y45250D03*
X29500Y45250D03*
X30500Y45250D03*
G54D20*
X35500Y45250D03*
G54D16*
X36500Y45250D03*
X37500Y45250D03*
X38500Y45250D03*
G54D20*
X40500Y8750D03*
G54D16*
X39500Y8750D03*
X38500Y8750D03*
X37500Y8750D03*
G54D21*
X41614Y40779D03*
X43386Y40779D03*
X41614Y38220D03*
X43386Y38220D03*
G54D20*
X32500Y8750D03*
G54D16*
X31500Y8750D03*
X30500Y8750D03*
X29500Y8750D03*
G54D20*
X24500Y8750D03*
G54D16*
X23500Y8750D03*
X22500Y8750D03*
X21500Y8750D03*
G54D17*
X42583Y12500D03*
X40417Y12500D03*
G54D22*
X19450Y12600D03*
X20150Y12600D03*
X19800Y11800D03*
X17850Y12600D03*
X18550Y12600D03*
X18200Y11800D03*
G54D12*
X18500Y8750D03*
G54D16*
X17500Y8750D03*
G54D12*
X13500Y8750D03*
G54D16*
X12500Y8750D03*
G54D12*
X42500Y33500D03*
G54D16*
X42500Y32500D03*
G54D12*
X42500Y26000D03*
G54D16*
X42500Y27000D03*
X42500Y28000D03*
X42500Y29000D03*
X42500Y30000D03*
X42500Y31000D03*
G54D12*
X41500Y26000D03*
G54D16*
X40500Y26000D03*
X41500Y27000D03*
X40500Y27000D03*
X41500Y28000D03*
X40500Y28000D03*
X41500Y29000D03*
X40500Y29000D03*
X41500Y30000D03*
X40500Y30000D03*
X41500Y31000D03*
X40500Y31000D03*
G54D22*
X26400Y23850D03*
X26400Y23150D03*
X25600Y23500D03*
G54D21*
X41614Y44779D03*
X43386Y44779D03*
X41614Y42220D03*
X43386Y42220D03*
G54D22*
X24900Y20350D03*
X24900Y19650D03*
X24100Y20000D03*
X26400Y21850D03*
X26400Y21150D03*
X25600Y21500D03*
G54D12*
X26500Y19250D03*
G54D16*
X27500Y19250D03*
X28500Y19250D03*
X29500Y19250D03*
X30500Y19250D03*
X31500Y19250D03*
G54D12*
X34500Y19500D03*
G54D16*
X35500Y19500D03*
X36500Y19500D03*
X37500Y19500D03*
X38500Y19500D03*
X39500Y19500D03*
G54D22*
X33350Y34150D03*
X33350Y34850D03*
X34150Y34500D03*
X31600Y34150D03*
X31600Y34850D03*
X32400Y34500D03*
G54D12*
X17500Y17000D03*
G54D16*
X17500Y18000D03*
X18500Y17000D03*
X18500Y18000D03*
X19500Y17000D03*
X19500Y18000D03*
X20500Y17000D03*
X20500Y18000D03*
X21500Y17000D03*
X21500Y18000D03*
X22500Y17000D03*
X22500Y18000D03*
X23500Y17000D03*
X23500Y18000D03*
X24500Y17000D03*
X24500Y18000D03*
X25500Y17000D03*
X25500Y18000D03*
X26500Y17000D03*
X26500Y18000D03*
X27500Y17000D03*
X27500Y18000D03*
X28500Y17000D03*
X28500Y18000D03*
X29500Y17000D03*
X29500Y18000D03*
X30500Y17000D03*
X30500Y18000D03*
X31500Y17000D03*
X31500Y18000D03*
X32500Y17000D03*
X32500Y18000D03*
X33500Y17000D03*
X33500Y18000D03*
X34500Y17000D03*
X34500Y18000D03*
X35500Y17000D03*
X35500Y18000D03*
X36500Y17000D03*
X36500Y18000D03*
X37500Y17000D03*
X37500Y18000D03*
X38500Y17000D03*
X38500Y18000D03*
X39500Y17000D03*
X39500Y18000D03*
G54D12*
X17500Y36000D03*
G54D16*
X17500Y37000D03*
X18500Y36000D03*
X18500Y37000D03*
X19500Y36000D03*
X19500Y37000D03*
X20500Y36000D03*
X20500Y37000D03*
X21500Y36000D03*
X21500Y37000D03*
X22500Y36000D03*
X22500Y37000D03*
X23500Y36000D03*
X23500Y37000D03*
X24500Y36000D03*
X24500Y37000D03*
X25500Y36000D03*
X25500Y37000D03*
X26500Y36000D03*
X26500Y37000D03*
X27500Y36000D03*
X27500Y37000D03*
X28500Y36000D03*
X28500Y37000D03*
X29500Y36000D03*
X29500Y37000D03*
X30500Y36000D03*
X30500Y37000D03*
X31500Y36000D03*
X31500Y37000D03*
X32500Y36000D03*
X32500Y37000D03*
X33500Y36000D03*
X33500Y37000D03*
X34500Y36000D03*
X34500Y37000D03*
X35500Y36000D03*
X35500Y37000D03*
X36500Y36000D03*
X36500Y37000D03*
X37500Y36000D03*
X37500Y37000D03*
X38500Y36000D03*
X38500Y37000D03*
X39500Y36000D03*
X39500Y37000D03*
X26500Y15500D03*
X25500Y15500D03*
X24500Y15500D03*
X23500Y15500D03*
X22500Y15500D03*
X21500Y15500D03*
X20500Y15500D03*
X19500Y15500D03*
X19500Y10500D03*
X20500Y10500D03*
X21500Y10500D03*
X22500Y10500D03*
X23500Y10500D03*
X24500Y10500D03*
X25500Y10500D03*
X26500Y10500D03*
X34500Y15500D03*
X33500Y15500D03*
X32500Y15500D03*
X31500Y15500D03*
X30500Y15500D03*
X29500Y15500D03*
X28500Y15500D03*
X27500Y15500D03*
X27500Y10500D03*
X28500Y10500D03*
X29500Y10500D03*
X30500Y10500D03*
X31500Y10500D03*
X32500Y10500D03*
X33500Y10500D03*
X34500Y10500D03*
X42500Y15500D03*
X41500Y15500D03*
X40500Y15500D03*
X39500Y15500D03*
X38500Y15500D03*
X37500Y15500D03*
X36500Y15500D03*
X35500Y15500D03*
X35500Y10500D03*
X36500Y10500D03*
X37500Y10500D03*
X38500Y10500D03*
X39500Y10500D03*
X40500Y10500D03*
X41500Y10500D03*
X42500Y10500D03*
X33500Y38500D03*
X34500Y38500D03*
X35500Y38500D03*
X36500Y38500D03*
X37500Y38500D03*
X38500Y38500D03*
X39500Y38500D03*
X40500Y38500D03*
X40500Y43500D03*
X39500Y43500D03*
X38500Y43500D03*
X37500Y43500D03*
X36500Y43500D03*
X35500Y43500D03*
X34500Y43500D03*
X33500Y43500D03*
X25500Y38500D03*
X26500Y38500D03*
X27500Y38500D03*
X28500Y38500D03*
X29500Y38500D03*
X30500Y38500D03*
X31500Y38500D03*
X32500Y38500D03*
X32500Y43500D03*
X31500Y43500D03*
X30500Y43500D03*
X29500Y43500D03*
X28500Y43500D03*
X27500Y43500D03*
X26500Y43500D03*
X25500Y43500D03*
X17500Y38500D03*
X18500Y38500D03*
X19500Y38500D03*
X20500Y38500D03*
X21500Y38500D03*
X22500Y38500D03*
X23500Y38500D03*
X24500Y38500D03*
X24500Y43500D03*
X23500Y43500D03*
X22500Y43500D03*
X21500Y43500D03*
X20500Y43500D03*
X19500Y43500D03*
X18500Y43500D03*
X17500Y43500D03*
G54D23*
X7834Y34606D03*
G54D24*
X7834Y32637D03*
G54D23*
X7834Y23385D03*
G54D24*
X7834Y21417D03*
G54D23*
X7834Y44448D03*
G54D24*
X7834Y42480D03*
G54D23*
X7834Y40511D03*
G54D24*
X7834Y38543D03*
G54D25*
X7834Y15314D03*
G54D26*
X7834Y13937D03*
G54D25*
X7834Y9803D03*
G54D26*
X7834Y8425D03*
G54D25*
X7834Y12559D03*
G54D26*
X7834Y11181D03*
G54D25*
X7834Y18070D03*
G54D26*
X7834Y16692D03*
G54D25*
X7834Y19448D03*
G54D27*
X41500Y18750D03*
X15500Y17500D03*
X15500Y36500D03*
X41500Y35250D03*
G54D28*
X13500Y33677D03*
X13500Y34322D03*
X25500Y34177D03*
X25500Y34822D03*
G54D29*
X40677Y16750D03*
X41322Y16750D03*
G54D28*
X27500Y34822D03*
X27500Y34177D03*
G54D29*
X16322Y12200D03*
X15677Y12200D03*
X16322Y14000D03*
X15677Y14000D03*
X16322Y15800D03*
X15677Y15800D03*
X17877Y14400D03*
X18522Y14400D03*
X19477Y14400D03*
X20122Y14400D03*
X17427Y22500D03*
X18072Y22500D03*
X38572Y26000D03*
X37927Y26000D03*
X38572Y27000D03*
X37927Y27000D03*
X38572Y28000D03*
X37927Y28000D03*
X38572Y29000D03*
X37927Y29000D03*
X38572Y30000D03*
X37927Y30000D03*
X38572Y31000D03*
X37927Y31000D03*
G54D28*
X38000Y34572D03*
X38000Y33927D03*
X37000Y34572D03*
X37000Y33927D03*
X36000Y34572D03*
X36000Y33927D03*
X35000Y34572D03*
X35000Y33927D03*
G54D29*
X31677Y32750D03*
X32322Y32750D03*
X18677Y22500D03*
X19322Y22500D03*
X18677Y24000D03*
X19322Y24000D03*
X20122Y13800D03*
X19477Y13800D03*
X18522Y13800D03*
X17877Y13800D03*
X15677Y13400D03*
X16322Y13400D03*
X15677Y15200D03*
X16322Y15200D03*
X15677Y11600D03*
X16322Y11600D03*
G54D28*
X12750Y34322D03*
X12750Y33677D03*
X11500Y8177D03*
X11500Y8822D03*
X20250Y9072D03*
X20250Y8427D03*
G54D29*
X18677Y21750D03*
X19322Y21750D03*
G54D28*
X39000Y24122D03*
X39000Y23477D03*
X36400Y23477D03*
X36400Y24122D03*
X39000Y22722D03*
X39000Y22077D03*
X39000Y21322D03*
X39000Y20677D03*
X39600Y21322D03*
X39600Y20677D03*
X10750Y13677D03*
X10750Y14322D03*
G54D29*
X17427Y21750D03*
X18072Y21750D03*
G54D28*
X11000Y32677D03*
X11000Y33322D03*
X10750Y10927D03*
X10750Y11572D03*
X10750Y8177D03*
X10750Y8822D03*
X37000Y23477D03*
X37000Y24122D03*
X39600Y23477D03*
X39600Y24122D03*
X39600Y22722D03*
X39600Y22077D03*
G54D29*
X18677Y23250D03*
X19322Y23250D03*
X34822Y39750D03*
X34177Y39750D03*
X18822Y39750D03*
X18177Y39750D03*
X26822Y39750D03*
X26177Y39750D03*
X41177Y14250D03*
X41822Y14250D03*
X33177Y14250D03*
X33822Y14250D03*
X25177Y14250D03*
X25822Y14250D03*
X27427Y22500D03*
X28072Y22500D03*
X27427Y23250D03*
X28072Y23250D03*
G54D30*
X20545Y22500D03*
X19954Y22500D03*
X20545Y24000D03*
X19954Y24000D03*
X20545Y21750D03*
X19954Y21750D03*
X11500Y10045D03*
X11500Y9454D03*
X19500Y9045D03*
X19500Y8454D03*
X10250Y33295D03*
X10250Y32704D03*
X10750Y10045D03*
X10750Y9454D03*
X10750Y15545D03*
X10750Y14954D03*
X10750Y12795D03*
X10750Y12204D03*
X20545Y23250D03*
X19954Y23250D03*
G54D28*
X31250Y25177D03*
X31250Y25822D03*
X38400Y21322D03*
X38400Y20677D03*
X38400Y22722D03*
X38400Y22077D03*
X35800Y23477D03*
X35800Y24122D03*
X38400Y24122D03*
X38400Y23477D03*
G54D29*
X25822Y30500D03*
X25177Y30500D03*
X28072Y21750D03*
X27427Y21750D03*
G54D28*
X35200Y23477D03*
X35200Y24122D03*
X37800Y22722D03*
X37800Y22077D03*
X37800Y24122D03*
X37800Y23477D03*
X37800Y21322D03*
X37800Y20677D03*
G54D31*
X21669Y29750D03*
X21669Y29250D03*
X21669Y28750D03*
X21669Y28250D03*
X21669Y27750D03*
X21669Y27250D03*
X21669Y26750D03*
X21669Y26250D03*
X21669Y25750D03*
X21669Y25250D03*
X25250Y25250D03*
X25250Y25750D03*
X25250Y26250D03*
X25250Y26750D03*
X25250Y27250D03*
X25250Y27750D03*
X25250Y28250D03*
X25250Y28750D03*
X25250Y29250D03*
X25250Y29750D03*
X35830Y25250D03*
X35830Y25750D03*
X35830Y26250D03*
X35830Y26750D03*
X35830Y27250D03*
X35830Y27750D03*
X35830Y28250D03*
X35830Y28750D03*
X35830Y29250D03*
X35830Y29750D03*
X35830Y30250D03*
X35830Y30750D03*
X32250Y30750D03*
X32250Y30250D03*
X32250Y29750D03*
X32250Y29250D03*
X32250Y28750D03*
X32250Y28250D03*
X32250Y27750D03*
X32250Y27250D03*
X32250Y26750D03*
X32250Y26250D03*
X32250Y25750D03*
X32250Y25250D03*
G54D32*
X31062Y21750D03*
X31062Y22250D03*
X31062Y22750D03*
X31062Y23250D03*
X28937Y23250D03*
X28937Y22750D03*
X28937Y22250D03*
X28937Y21750D03*
G54D12*
X38500Y33000D03*
G54D16*
X38500Y32000D03*
X37500Y33000D03*
X37500Y32000D03*
X36500Y33000D03*
X36500Y32000D03*
X35500Y33000D03*
X35500Y32000D03*
G54D12*
X30500Y33000D03*
G54D16*
X30500Y32000D03*
X29500Y33000D03*
X29500Y32000D03*
X28500Y33000D03*
X28500Y32000D03*
X27500Y33000D03*
X27500Y32000D03*
G54D12*
X41500Y21000D03*
G54D16*
X40500Y21000D03*
X41500Y22000D03*
X40500Y22000D03*
X41500Y23000D03*
X40500Y23000D03*
X41500Y24000D03*
X40500Y24000D03*
G54D12*
X31000Y12000D03*
G54D16*
X30000Y12000D03*
X31000Y13000D03*
X30000Y13000D03*
X31000Y14000D03*
X30000Y14000D03*
G54D12*
X39000Y12000D03*
G54D16*
X38000Y12000D03*
X39000Y13000D03*
X38000Y13000D03*
X39000Y14000D03*
X38000Y14000D03*
G54D12*
X23000Y12000D03*
G54D16*
X22000Y12000D03*
X23000Y13000D03*
X22000Y13000D03*
X23000Y14000D03*
X22000Y14000D03*
G54D12*
X37000Y42000D03*
G54D16*
X38000Y42000D03*
X37000Y41000D03*
X38000Y41000D03*
X37000Y40000D03*
X38000Y40000D03*
G54D12*
X29000Y42000D03*
G54D16*
X30000Y42000D03*
X29000Y41000D03*
X30000Y41000D03*
X29000Y40000D03*
X30000Y40000D03*
G54D12*
X21000Y42000D03*
G54D16*
X22000Y42000D03*
X21000Y41000D03*
X22000Y41000D03*
X21000Y40000D03*
X22000Y40000D03*
G54D12*
X21500Y33000D03*
G54D16*
X21500Y32000D03*
X20500Y33000D03*
X20500Y32000D03*
X19500Y33000D03*
X19500Y32000D03*
G54D12*
X33500Y21500D03*
G54D16*
X32500Y21500D03*
X33500Y22500D03*
X32500Y22500D03*
G54D14*
X11492Y22330D03*
X11492Y23669D03*
X15507Y22330D03*
X15507Y23669D03*
X11492Y39830D03*
X11492Y41169D03*
X15507Y39830D03*
X15507Y41169D03*
G54D33*
X9750Y8192D03*
X9750Y9807D03*
G54D34*
X8011Y36574D03*
X9625Y36574D03*
G54D33*
X9750Y10942D03*
X9750Y12557D03*
X9750Y13692D03*
X9750Y15307D03*
X16250Y8192D03*
X16250Y9807D03*
X14750Y8192D03*
X14750Y9807D03*
G54D29*
X15677Y11000D03*
X16322Y11000D03*
X15677Y12800D03*
X16322Y12800D03*
X15677Y14600D03*
X16322Y14600D03*
G54D28*
X12750Y35572D03*
X12750Y34927D03*
G54D29*
X19477Y13200D03*
X20122Y13200D03*
X17877Y13200D03*
X18522Y13200D03*
G54D15*
X17750Y15500D03*
X40000Y45250D03*
G54D22*
X24900Y21850D03*
X24900Y21150D03*
X24100Y21500D03*
M02*
