G04 (created by PCBNEW-RS274X (2012-01-19 BZR 3256)-stable) date 16/02/2013 15:24:50*
G01*
G70*
G90*
%MOIN*%
G04 Gerber Fmt 3.4, Leading zero omitted, Abs format*
%FSLAX34Y34*%
G04 APERTURE LIST*
%ADD10C,0.006000*%
%ADD11C,0.012000*%
%ADD12C,0.006500*%
%ADD13C,0.005000*%
%ADD14C,0.000100*%
%ADD15C,0.008000*%
%ADD16C,0.003000*%
%ADD17C,0.010000*%
G04 APERTURE END LIST*
G54D10*
G54D11*
X12087Y11176D02*
X11887Y11557D01*
X11744Y11176D02*
X11744Y11976D01*
X11972Y11976D01*
X12030Y11938D01*
X12058Y11900D01*
X12087Y11824D01*
X12087Y11710D01*
X12058Y11633D01*
X12030Y11595D01*
X11972Y11557D01*
X11744Y11557D01*
X12315Y11405D02*
X12601Y11405D01*
X12258Y11176D02*
X12458Y11976D01*
X12658Y11176D01*
X12858Y11176D02*
X12858Y11976D01*
X13058Y11405D01*
X13258Y11976D01*
X13258Y11176D01*
X13544Y11176D02*
X13544Y11976D01*
X13772Y11976D01*
X13830Y11938D01*
X13858Y11900D01*
X13887Y11824D01*
X13887Y11710D01*
X13858Y11633D01*
X13830Y11595D01*
X13772Y11557D01*
X13544Y11557D01*
X14115Y11214D02*
X14201Y11176D01*
X14344Y11176D01*
X14401Y11214D01*
X14430Y11252D01*
X14458Y11329D01*
X14458Y11405D01*
X14430Y11481D01*
X14401Y11519D01*
X14344Y11557D01*
X14230Y11595D01*
X14172Y11633D01*
X14144Y11671D01*
X14115Y11748D01*
X14115Y11824D01*
X14144Y11900D01*
X14172Y11938D01*
X14230Y11976D01*
X14372Y11976D01*
X14458Y11938D01*
X15172Y11176D02*
X15172Y11976D01*
X15458Y11710D02*
X15458Y11176D01*
X15458Y11633D02*
X15486Y11671D01*
X15544Y11710D01*
X15629Y11710D01*
X15686Y11671D01*
X15715Y11595D01*
X15715Y11176D01*
X15915Y11710D02*
X16144Y11710D01*
X16001Y11976D02*
X16001Y11290D01*
X16029Y11214D01*
X16087Y11176D01*
X16144Y11176D01*
X16572Y11214D02*
X16515Y11176D01*
X16401Y11176D01*
X16344Y11214D01*
X16315Y11290D01*
X16315Y11595D01*
X16344Y11671D01*
X16401Y11710D01*
X16515Y11710D01*
X16572Y11671D01*
X16601Y11595D01*
X16601Y11519D01*
X16315Y11443D01*
X16858Y11176D02*
X16858Y11710D01*
X16858Y11557D02*
X16886Y11633D01*
X16915Y11671D01*
X16972Y11710D01*
X17029Y11710D01*
X17143Y11710D02*
X17372Y11710D01*
X17229Y11176D02*
X17229Y11862D01*
X17257Y11938D01*
X17315Y11976D01*
X17372Y11976D01*
X17829Y11176D02*
X17829Y11595D01*
X17800Y11671D01*
X17743Y11710D01*
X17629Y11710D01*
X17572Y11671D01*
X17829Y11214D02*
X17772Y11176D01*
X17629Y11176D01*
X17572Y11214D01*
X17543Y11290D01*
X17543Y11367D01*
X17572Y11443D01*
X17629Y11481D01*
X17772Y11481D01*
X17829Y11519D01*
X18372Y11214D02*
X18315Y11176D01*
X18201Y11176D01*
X18143Y11214D01*
X18115Y11252D01*
X18086Y11329D01*
X18086Y11557D01*
X18115Y11633D01*
X18143Y11671D01*
X18201Y11710D01*
X18315Y11710D01*
X18372Y11671D01*
X18857Y11214D02*
X18800Y11176D01*
X18686Y11176D01*
X18629Y11214D01*
X18600Y11290D01*
X18600Y11595D01*
X18629Y11671D01*
X18686Y11710D01*
X18800Y11710D01*
X18857Y11671D01*
X18886Y11595D01*
X18886Y11519D01*
X18600Y11443D01*
X19800Y11595D02*
X19886Y11557D01*
X19914Y11519D01*
X19943Y11443D01*
X19943Y11329D01*
X19914Y11252D01*
X19886Y11214D01*
X19828Y11176D01*
X19600Y11176D01*
X19600Y11976D01*
X19800Y11976D01*
X19857Y11938D01*
X19886Y11900D01*
X19914Y11824D01*
X19914Y11748D01*
X19886Y11671D01*
X19857Y11633D01*
X19800Y11595D01*
X19600Y11595D01*
X20286Y11176D02*
X20228Y11214D01*
X20200Y11252D01*
X20171Y11329D01*
X20171Y11557D01*
X20200Y11633D01*
X20228Y11671D01*
X20286Y11710D01*
X20371Y11710D01*
X20428Y11671D01*
X20457Y11633D01*
X20486Y11557D01*
X20486Y11329D01*
X20457Y11252D01*
X20428Y11214D01*
X20371Y11176D01*
X20286Y11176D01*
X21000Y11176D02*
X21000Y11595D01*
X20971Y11671D01*
X20914Y11710D01*
X20800Y11710D01*
X20743Y11671D01*
X21000Y11214D02*
X20943Y11176D01*
X20800Y11176D01*
X20743Y11214D01*
X20714Y11290D01*
X20714Y11367D01*
X20743Y11443D01*
X20800Y11481D01*
X20943Y11481D01*
X21000Y11519D01*
X21286Y11176D02*
X21286Y11710D01*
X21286Y11557D02*
X21314Y11633D01*
X21343Y11671D01*
X21400Y11710D01*
X21457Y11710D01*
X21914Y11176D02*
X21914Y11976D01*
X21914Y11214D02*
X21857Y11176D01*
X21743Y11176D01*
X21685Y11214D01*
X21657Y11252D01*
X21628Y11329D01*
X21628Y11557D01*
X21657Y11633D01*
X21685Y11671D01*
X21743Y11710D01*
X21857Y11710D01*
X21914Y11671D01*
X22600Y11710D02*
X22743Y11176D01*
X22885Y11710D01*
X23228Y11976D02*
X23285Y11976D01*
X23342Y11938D01*
X23371Y11900D01*
X23400Y11824D01*
X23428Y11671D01*
X23428Y11481D01*
X23400Y11329D01*
X23371Y11252D01*
X23342Y11214D01*
X23285Y11176D01*
X23228Y11176D01*
X23171Y11214D01*
X23142Y11252D01*
X23114Y11329D01*
X23085Y11481D01*
X23085Y11671D01*
X23114Y11824D01*
X23142Y11900D01*
X23171Y11938D01*
X23228Y11976D01*
X23685Y11252D02*
X23713Y11214D01*
X23685Y11176D01*
X23656Y11214D01*
X23685Y11252D01*
X23685Y11176D01*
X24285Y11176D02*
X23942Y11176D01*
X24114Y11176D02*
X24114Y11976D01*
X24057Y11862D01*
X23999Y11786D01*
X23942Y11748D01*
X14158Y10355D02*
X14244Y10317D01*
X14272Y10279D01*
X14301Y10203D01*
X14301Y10089D01*
X14272Y10012D01*
X14244Y09974D01*
X14186Y09936D01*
X13958Y09936D01*
X13958Y10736D01*
X14158Y10736D01*
X14215Y10698D01*
X14244Y10660D01*
X14272Y10584D01*
X14272Y10508D01*
X14244Y10431D01*
X14215Y10393D01*
X14158Y10355D01*
X13958Y10355D01*
X14644Y09936D02*
X14586Y09974D01*
X14558Y10012D01*
X14529Y10089D01*
X14529Y10317D01*
X14558Y10393D01*
X14586Y10431D01*
X14644Y10470D01*
X14729Y10470D01*
X14786Y10431D01*
X14815Y10393D01*
X14844Y10317D01*
X14844Y10089D01*
X14815Y10012D01*
X14786Y09974D01*
X14729Y09936D01*
X14644Y09936D01*
X15101Y09936D02*
X15101Y10736D01*
X15101Y10431D02*
X15158Y10470D01*
X15272Y10470D01*
X15329Y10431D01*
X15358Y10393D01*
X15387Y10317D01*
X15387Y10089D01*
X15358Y10012D01*
X15329Y09974D01*
X15272Y09936D01*
X15158Y09936D01*
X15101Y09974D01*
X16444Y10012D02*
X16415Y09974D01*
X16329Y09936D01*
X16272Y09936D01*
X16187Y09974D01*
X16129Y10050D01*
X16101Y10127D01*
X16072Y10279D01*
X16072Y10393D01*
X16101Y10546D01*
X16129Y10622D01*
X16187Y10698D01*
X16272Y10736D01*
X16329Y10736D01*
X16415Y10698D01*
X16444Y10660D01*
X16787Y09936D02*
X16729Y09974D01*
X16701Y10012D01*
X16672Y10089D01*
X16672Y10317D01*
X16701Y10393D01*
X16729Y10431D01*
X16787Y10470D01*
X16872Y10470D01*
X16929Y10431D01*
X16958Y10393D01*
X16987Y10317D01*
X16987Y10089D01*
X16958Y10012D01*
X16929Y09974D01*
X16872Y09936D01*
X16787Y09936D01*
X17501Y10470D02*
X17501Y09936D01*
X17244Y10470D02*
X17244Y10050D01*
X17272Y09974D01*
X17330Y09936D01*
X17415Y09936D01*
X17472Y09974D01*
X17501Y10012D01*
X17758Y09974D02*
X17815Y09936D01*
X17930Y09936D01*
X17987Y09974D01*
X18015Y10050D01*
X18015Y10089D01*
X17987Y10165D01*
X17930Y10203D01*
X17844Y10203D01*
X17787Y10241D01*
X17758Y10317D01*
X17758Y10355D01*
X17787Y10431D01*
X17844Y10470D01*
X17930Y10470D01*
X17987Y10431D01*
X18273Y09936D02*
X18273Y10470D01*
X18273Y10736D02*
X18244Y10698D01*
X18273Y10660D01*
X18301Y10698D01*
X18273Y10736D01*
X18273Y10660D01*
X18559Y10470D02*
X18559Y09936D01*
X18559Y10393D02*
X18587Y10431D01*
X18645Y10470D01*
X18730Y10470D01*
X18787Y10431D01*
X18816Y10355D01*
X18816Y09936D01*
X19073Y09974D02*
X19130Y09936D01*
X19245Y09936D01*
X19302Y09974D01*
X19330Y10050D01*
X19330Y10089D01*
X19302Y10165D01*
X19245Y10203D01*
X19159Y10203D01*
X19102Y10241D01*
X19073Y10317D01*
X19073Y10355D01*
X19102Y10431D01*
X19159Y10470D01*
X19245Y10470D01*
X19302Y10431D01*
X20016Y10660D02*
X20045Y10698D01*
X20102Y10736D01*
X20245Y10736D01*
X20302Y10698D01*
X20331Y10660D01*
X20359Y10584D01*
X20359Y10508D01*
X20331Y10393D01*
X19988Y09936D01*
X20359Y09936D01*
X20730Y10736D02*
X20787Y10736D01*
X20844Y10698D01*
X20873Y10660D01*
X20902Y10584D01*
X20930Y10431D01*
X20930Y10241D01*
X20902Y10089D01*
X20873Y10012D01*
X20844Y09974D01*
X20787Y09936D01*
X20730Y09936D01*
X20673Y09974D01*
X20644Y10012D01*
X20616Y10089D01*
X20587Y10241D01*
X20587Y10431D01*
X20616Y10584D01*
X20644Y10660D01*
X20673Y10698D01*
X20730Y10736D01*
X21501Y09936D02*
X21158Y09936D01*
X21330Y09936D02*
X21330Y10736D01*
X21273Y10622D01*
X21215Y10546D01*
X21158Y10508D01*
X21701Y10736D02*
X22072Y10736D01*
X21872Y10431D01*
X21958Y10431D01*
X22015Y10393D01*
X22044Y10355D01*
X22072Y10279D01*
X22072Y10089D01*
X22044Y10012D01*
X22015Y09974D01*
X21958Y09936D01*
X21786Y09936D01*
X21729Y09974D01*
X21701Y10012D01*
X06750Y03500D02*
X07000Y03250D01*
X07000Y03250D02*
X07250Y03500D01*
X07250Y03500D02*
X06750Y03500D01*
X06500Y00000D02*
X06500Y03000D01*
X14500Y03000D02*
X14500Y00000D01*
X06500Y03000D02*
X14500Y03000D01*
X14500Y00000D02*
X06500Y00000D01*
X15750Y03500D02*
X16000Y03250D01*
X16000Y03250D02*
X16250Y03500D01*
X16250Y03500D02*
X15750Y03500D01*
X15500Y00000D02*
X15500Y03000D01*
X23500Y03000D02*
X23500Y00000D01*
X15500Y03000D02*
X23500Y03000D01*
X23500Y00000D02*
X15500Y00000D01*
X24750Y03500D02*
X25000Y03250D01*
X25000Y03250D02*
X25250Y03500D01*
X25250Y03500D02*
X24750Y03500D01*
X24500Y00000D02*
X24500Y03000D01*
X32500Y03000D02*
X32500Y00000D01*
X24500Y03000D02*
X32500Y03000D01*
X32500Y00000D02*
X24500Y00000D01*
X13750Y22500D02*
X14000Y22250D01*
X14000Y22250D02*
X14250Y22500D01*
X14250Y22500D02*
X13750Y22500D01*
X13500Y19000D02*
X13500Y22000D01*
X21500Y22000D02*
X21500Y19000D01*
X13500Y22000D02*
X21500Y22000D01*
X21500Y19000D02*
X13500Y19000D01*
X22750Y22500D02*
X23000Y22250D01*
X23000Y22250D02*
X23250Y22500D01*
X23250Y22500D02*
X22750Y22500D01*
X22500Y19000D02*
X22500Y22000D01*
X30500Y22000D02*
X30500Y19000D01*
X22500Y22000D02*
X30500Y22000D01*
X30500Y19000D02*
X22500Y19000D01*
X03150Y22500D02*
X03400Y22250D01*
X03400Y22250D02*
X03650Y22500D01*
X03650Y22500D02*
X03150Y22500D01*
X02900Y22000D02*
X02900Y19000D01*
X12900Y22000D02*
X12900Y19000D01*
X10900Y22000D02*
X12900Y22000D01*
X10900Y19000D02*
X12900Y19000D01*
X02900Y22000D02*
X10900Y22000D01*
X10900Y19000D02*
X02900Y19000D01*
G54D12*
X24000Y16700D02*
X21000Y16700D01*
X21000Y15300D02*
X24000Y15300D01*
X24000Y16700D02*
X24000Y15300D01*
G54D10*
X21000Y15300D02*
X21000Y16700D01*
G54D13*
X21341Y15500D02*
X21338Y15473D01*
X21330Y15447D01*
X21317Y15422D01*
X21300Y15401D01*
X21278Y15384D01*
X21254Y15371D01*
X21228Y15362D01*
X21200Y15360D01*
X21174Y15362D01*
X21148Y15370D01*
X21123Y15383D01*
X21102Y15400D01*
X21084Y15421D01*
X21071Y15445D01*
X21063Y15471D01*
X21060Y15499D01*
X21062Y15525D01*
X21069Y15551D01*
X21082Y15576D01*
X21099Y15597D01*
X21120Y15615D01*
X21144Y15629D01*
X21170Y15637D01*
X21198Y15640D01*
X21224Y15638D01*
X21250Y15631D01*
X21275Y15619D01*
X21297Y15602D01*
X21315Y15581D01*
X21328Y15557D01*
X21337Y15531D01*
X21340Y15503D01*
X21341Y15500D01*
X21000Y16250D02*
X21300Y16250D01*
X21300Y16250D02*
X21300Y15750D01*
X21300Y15750D02*
X21000Y15750D01*
X25850Y15350D02*
X25849Y15341D01*
X25846Y15331D01*
X25841Y15323D01*
X25835Y15315D01*
X25827Y15309D01*
X25819Y15304D01*
X25810Y15302D01*
X25800Y15301D01*
X25791Y15301D01*
X25782Y15304D01*
X25773Y15309D01*
X25766Y15315D01*
X25759Y15322D01*
X25755Y15331D01*
X25752Y15340D01*
X25751Y15350D01*
X25751Y15359D01*
X25754Y15368D01*
X25758Y15377D01*
X25765Y15384D01*
X25772Y15391D01*
X25780Y15395D01*
X25790Y15398D01*
X25799Y15399D01*
X25808Y15399D01*
X25818Y15396D01*
X25826Y15392D01*
X25834Y15386D01*
X25840Y15378D01*
X25845Y15370D01*
X25848Y15361D01*
X25849Y15351D01*
X25850Y15350D01*
X25800Y15800D02*
X25800Y15400D01*
X25800Y15400D02*
X25200Y15400D01*
X25200Y15400D02*
X25200Y15800D01*
X25200Y16200D02*
X25200Y16600D01*
X25200Y16600D02*
X25800Y16600D01*
X25800Y16600D02*
X25800Y16200D01*
X19750Y16650D02*
X19749Y16641D01*
X19746Y16631D01*
X19741Y16623D01*
X19735Y16615D01*
X19727Y16609D01*
X19719Y16604D01*
X19710Y16602D01*
X19700Y16601D01*
X19691Y16601D01*
X19682Y16604D01*
X19673Y16609D01*
X19666Y16615D01*
X19659Y16622D01*
X19655Y16631D01*
X19652Y16640D01*
X19651Y16650D01*
X19651Y16659D01*
X19654Y16668D01*
X19658Y16677D01*
X19665Y16684D01*
X19672Y16691D01*
X19680Y16695D01*
X19690Y16698D01*
X19699Y16699D01*
X19708Y16699D01*
X19718Y16696D01*
X19726Y16692D01*
X19734Y16686D01*
X19740Y16678D01*
X19745Y16670D01*
X19748Y16661D01*
X19749Y16651D01*
X19750Y16650D01*
X19700Y16200D02*
X19700Y16600D01*
X19700Y16600D02*
X20300Y16600D01*
X20300Y16600D02*
X20300Y16200D01*
X20300Y15800D02*
X20300Y15400D01*
X20300Y15400D02*
X19700Y15400D01*
X19700Y15400D02*
X19700Y15800D01*
X09850Y13600D02*
X09849Y13591D01*
X09846Y13581D01*
X09841Y13573D01*
X09835Y13565D01*
X09827Y13559D01*
X09819Y13554D01*
X09810Y13552D01*
X09800Y13551D01*
X09791Y13551D01*
X09782Y13554D01*
X09773Y13559D01*
X09766Y13565D01*
X09759Y13572D01*
X09755Y13581D01*
X09752Y13590D01*
X09751Y13600D01*
X09751Y13609D01*
X09754Y13618D01*
X09758Y13627D01*
X09765Y13634D01*
X09772Y13641D01*
X09780Y13645D01*
X09790Y13648D01*
X09799Y13649D01*
X09808Y13649D01*
X09818Y13646D01*
X09826Y13642D01*
X09834Y13636D01*
X09840Y13628D01*
X09845Y13620D01*
X09848Y13611D01*
X09849Y13601D01*
X09850Y13600D01*
X09800Y14050D02*
X09800Y13650D01*
X09800Y13650D02*
X09200Y13650D01*
X09200Y13650D02*
X09200Y14050D01*
X09200Y14450D02*
X09200Y14850D01*
X09200Y14850D02*
X09800Y14850D01*
X09800Y14850D02*
X09800Y14450D01*
X11850Y13600D02*
X11849Y13591D01*
X11846Y13581D01*
X11841Y13573D01*
X11835Y13565D01*
X11827Y13559D01*
X11819Y13554D01*
X11810Y13552D01*
X11800Y13551D01*
X11791Y13551D01*
X11782Y13554D01*
X11773Y13559D01*
X11766Y13565D01*
X11759Y13572D01*
X11755Y13581D01*
X11752Y13590D01*
X11751Y13600D01*
X11751Y13609D01*
X11754Y13618D01*
X11758Y13627D01*
X11765Y13634D01*
X11772Y13641D01*
X11780Y13645D01*
X11790Y13648D01*
X11799Y13649D01*
X11808Y13649D01*
X11818Y13646D01*
X11826Y13642D01*
X11834Y13636D01*
X11840Y13628D01*
X11845Y13620D01*
X11848Y13611D01*
X11849Y13601D01*
X11850Y13600D01*
X11800Y14050D02*
X11800Y13650D01*
X11800Y13650D02*
X11200Y13650D01*
X11200Y13650D02*
X11200Y14050D01*
X11200Y14450D02*
X11200Y14850D01*
X11200Y14850D02*
X11800Y14850D01*
X11800Y14850D02*
X11800Y14450D01*
X13850Y13600D02*
X13849Y13591D01*
X13846Y13581D01*
X13841Y13573D01*
X13835Y13565D01*
X13827Y13559D01*
X13819Y13554D01*
X13810Y13552D01*
X13800Y13551D01*
X13791Y13551D01*
X13782Y13554D01*
X13773Y13559D01*
X13766Y13565D01*
X13759Y13572D01*
X13755Y13581D01*
X13752Y13590D01*
X13751Y13600D01*
X13751Y13609D01*
X13754Y13618D01*
X13758Y13627D01*
X13765Y13634D01*
X13772Y13641D01*
X13780Y13645D01*
X13790Y13648D01*
X13799Y13649D01*
X13808Y13649D01*
X13818Y13646D01*
X13826Y13642D01*
X13834Y13636D01*
X13840Y13628D01*
X13845Y13620D01*
X13848Y13611D01*
X13849Y13601D01*
X13850Y13600D01*
X13800Y14050D02*
X13800Y13650D01*
X13800Y13650D02*
X13200Y13650D01*
X13200Y13650D02*
X13200Y14050D01*
X13200Y14450D02*
X13200Y14850D01*
X13200Y14850D02*
X13800Y14850D01*
X13800Y14850D02*
X13800Y14450D01*
G54D14*
G36*
X02672Y10032D02*
X02695Y10044D01*
X02746Y10076D01*
X02819Y10124D01*
X02906Y10182D01*
X02993Y10241D01*
X03064Y10289D01*
X03114Y10321D01*
X03135Y10332D01*
X03146Y10328D01*
X03187Y10308D01*
X03247Y10277D01*
X03282Y10259D01*
X03337Y10236D01*
X03364Y10231D01*
X03369Y10238D01*
X03389Y10280D01*
X03420Y10352D01*
X03462Y10447D01*
X03509Y10558D01*
X03560Y10678D01*
X03611Y10800D01*
X03659Y10917D01*
X03702Y11022D01*
X03736Y11107D01*
X03759Y11166D01*
X03767Y11192D01*
X03765Y11197D01*
X03737Y11224D01*
X03689Y11260D01*
X03586Y11344D01*
X03483Y11472D01*
X03421Y11617D01*
X03400Y11778D01*
X03418Y11928D01*
X03477Y12072D01*
X03577Y12201D01*
X03698Y12297D01*
X03840Y12358D01*
X04000Y12377D01*
X04153Y12360D01*
X04299Y12302D01*
X04429Y12204D01*
X04483Y12141D01*
X04558Y12010D01*
X04601Y11870D01*
X04606Y11834D01*
X04599Y11680D01*
X04554Y11533D01*
X04473Y11401D01*
X04360Y11293D01*
X04346Y11282D01*
X04293Y11243D01*
X04258Y11216D01*
X04231Y11194D01*
X04427Y10722D01*
X04458Y10647D01*
X04512Y10518D01*
X04559Y10407D01*
X04597Y10319D01*
X04623Y10260D01*
X04635Y10236D01*
X04636Y10235D01*
X04653Y10232D01*
X04689Y10245D01*
X04755Y10277D01*
X04799Y10299D01*
X04849Y10323D01*
X04871Y10332D01*
X04890Y10322D01*
X04938Y10291D01*
X05008Y10244D01*
X05093Y10186D01*
X05173Y10132D01*
X05247Y10083D01*
X05301Y10049D01*
X05327Y10035D01*
X05331Y10035D01*
X05354Y10048D01*
X05396Y10083D01*
X05461Y10144D01*
X05552Y10234D01*
X05566Y10247D01*
X05640Y10323D01*
X05701Y10387D01*
X05742Y10432D01*
X05756Y10453D01*
X05756Y10453D01*
X05743Y10479D01*
X05709Y10532D01*
X05660Y10607D01*
X05600Y10695D01*
X05444Y10922D01*
X05530Y11136D01*
X05556Y11201D01*
X05590Y11281D01*
X05615Y11338D01*
X05627Y11363D01*
X05651Y11371D01*
X05709Y11385D01*
X05794Y11403D01*
X05896Y11422D01*
X05992Y11439D01*
X06079Y11456D01*
X06143Y11468D01*
X06171Y11474D01*
X06178Y11478D01*
X06183Y11491D01*
X06187Y11521D01*
X06189Y11574D01*
X06190Y11658D01*
X06190Y11778D01*
X06190Y11791D01*
X06189Y11907D01*
X06187Y11998D01*
X06184Y12059D01*
X06180Y12082D01*
X06180Y12083D01*
X06153Y12089D01*
X06091Y12102D01*
X06004Y12119D01*
X05900Y12139D01*
X05893Y12140D01*
X05790Y12160D01*
X05703Y12178D01*
X05642Y12192D01*
X05616Y12200D01*
X05611Y12208D01*
X05590Y12248D01*
X05560Y12312D01*
X05526Y12391D01*
X05492Y12472D01*
X05463Y12545D01*
X05443Y12600D01*
X05437Y12625D01*
X05438Y12625D01*
X05453Y12650D01*
X05489Y12704D01*
X05539Y12779D01*
X05600Y12867D01*
X05604Y12873D01*
X05664Y12961D01*
X05712Y13035D01*
X05744Y13088D01*
X05756Y13112D01*
X05756Y13113D01*
X05736Y13139D01*
X05692Y13189D01*
X05628Y13256D01*
X05551Y13333D01*
X05527Y13357D01*
X05442Y13440D01*
X05382Y13495D01*
X05346Y13524D01*
X05328Y13530D01*
X05327Y13530D01*
X05301Y13514D01*
X05246Y13478D01*
X05171Y13427D01*
X05082Y13366D01*
X05076Y13362D01*
X04988Y13303D01*
X04915Y13253D01*
X04863Y13219D01*
X04841Y13205D01*
X04837Y13205D01*
X04801Y13216D01*
X04739Y13238D01*
X04662Y13267D01*
X04581Y13300D01*
X04508Y13331D01*
X04452Y13356D01*
X04426Y13371D01*
X04426Y13372D01*
X04416Y13403D01*
X04401Y13469D01*
X04383Y13559D01*
X04362Y13666D01*
X04359Y13684D01*
X04339Y13788D01*
X04322Y13874D01*
X04310Y13934D01*
X04304Y13958D01*
X04289Y13962D01*
X04238Y13966D01*
X04160Y13968D01*
X04066Y13969D01*
X03967Y13968D01*
X03870Y13966D01*
X03787Y13963D01*
X03728Y13959D01*
X03704Y13954D01*
X03703Y13953D01*
X03694Y13920D01*
X03679Y13855D01*
X03661Y13764D01*
X03640Y13656D01*
X03636Y13637D01*
X03617Y13533D01*
X03599Y13448D01*
X03587Y13389D01*
X03580Y13366D01*
X03571Y13361D01*
X03528Y13342D01*
X03458Y13313D01*
X03372Y13278D01*
X03171Y13197D01*
X02925Y13366D01*
X02902Y13381D01*
X02814Y13441D01*
X02741Y13490D01*
X02691Y13522D01*
X02670Y13534D01*
X02668Y13533D01*
X02644Y13512D01*
X02595Y13466D01*
X02528Y13401D01*
X02451Y13324D01*
X02394Y13267D01*
X02326Y13198D01*
X02283Y13152D01*
X02260Y13122D01*
X02251Y13104D01*
X02253Y13092D01*
X02269Y13067D01*
X02305Y13013D01*
X02356Y12938D01*
X02416Y12851D01*
X02465Y12779D01*
X02518Y12696D01*
X02553Y12637D01*
X02565Y12608D01*
X02562Y12596D01*
X02545Y12548D01*
X02516Y12475D01*
X02479Y12389D01*
X02393Y12194D01*
X02266Y12169D01*
X02188Y12155D01*
X02080Y12134D01*
X01977Y12114D01*
X01815Y12083D01*
X01809Y11489D01*
X01834Y11478D01*
X01858Y11472D01*
X01918Y11458D01*
X02004Y11441D01*
X02104Y11422D01*
X02190Y11406D01*
X02277Y11390D01*
X02339Y11378D01*
X02367Y11372D01*
X02374Y11363D01*
X02395Y11321D01*
X02426Y11254D01*
X02460Y11174D01*
X02495Y11091D01*
X02525Y11014D01*
X02547Y10956D01*
X02555Y10925D01*
X02543Y10903D01*
X02510Y10852D01*
X02462Y10779D01*
X02404Y10693D01*
X02345Y10607D01*
X02295Y10534D01*
X02261Y10481D01*
X02246Y10457D01*
X02253Y10440D01*
X02288Y10399D01*
X02353Y10331D01*
X02449Y10236D01*
X02465Y10221D01*
X02542Y10147D01*
X02607Y10087D01*
X02652Y10047D01*
X02672Y10032D01*
X02672Y10032D01*
G37*
G54D13*
X09300Y16450D02*
X09000Y16650D01*
X10000Y16450D02*
X08975Y16450D01*
X08975Y16450D02*
X08975Y17050D01*
X08975Y17050D02*
X10000Y17050D01*
X10000Y17050D02*
X10000Y16450D01*
X11300Y16450D02*
X11000Y16650D01*
X12000Y16450D02*
X10975Y16450D01*
X10975Y16450D02*
X10975Y17050D01*
X10975Y17050D02*
X12000Y17050D01*
X12000Y17050D02*
X12000Y16450D01*
X13300Y16450D02*
X13000Y16650D01*
X14000Y16450D02*
X12975Y16450D01*
X12975Y16450D02*
X12975Y17050D01*
X12975Y17050D02*
X14000Y17050D01*
X14000Y17050D02*
X14000Y16450D01*
G54D11*
X31500Y03000D02*
X31500Y21000D01*
X35500Y21000D02*
X35500Y03000D01*
X34500Y03000D02*
X32500Y03000D01*
X34500Y21000D02*
X32500Y21000D01*
X02878Y01500D02*
X02851Y01233D01*
X02774Y00975D01*
X02647Y00738D01*
X02477Y00530D01*
X02270Y00358D01*
X02033Y00230D01*
X01777Y00151D01*
X01509Y00123D01*
X01242Y00147D01*
X00984Y00223D01*
X00746Y00347D01*
X00536Y00516D01*
X00363Y00722D01*
X00234Y00958D01*
X00153Y01214D01*
X00123Y01481D01*
X00145Y01748D01*
X00219Y02007D01*
X00342Y02246D01*
X00509Y02457D01*
X00714Y02631D01*
X00949Y02762D01*
X01205Y02845D01*
X01472Y02877D01*
X01739Y02857D01*
X01998Y02784D01*
X02238Y02663D01*
X02450Y02497D01*
X02626Y02294D01*
X02758Y02060D01*
X02843Y01805D01*
X02877Y01538D01*
X02878Y01500D01*
X03378Y20500D02*
X03351Y20233D01*
X03274Y19975D01*
X03147Y19738D01*
X02977Y19530D01*
X02770Y19358D01*
X02533Y19230D01*
X02277Y19151D01*
X02009Y19123D01*
X01742Y19147D01*
X01484Y19223D01*
X01246Y19347D01*
X01036Y19516D01*
X00863Y19722D01*
X00734Y19958D01*
X00653Y20214D01*
X00623Y20481D01*
X00645Y20748D01*
X00719Y21007D01*
X00842Y21246D01*
X01009Y21457D01*
X01214Y21631D01*
X01449Y21762D01*
X01705Y21845D01*
X01972Y21877D01*
X02239Y21857D01*
X02498Y21784D01*
X02738Y21663D01*
X02950Y21497D01*
X03126Y21294D01*
X03258Y21060D01*
X03343Y20805D01*
X03377Y20538D01*
X03378Y20500D01*
X35378Y01500D02*
X35351Y01233D01*
X35274Y00975D01*
X35147Y00738D01*
X34977Y00530D01*
X34770Y00358D01*
X34533Y00230D01*
X34277Y00151D01*
X34009Y00123D01*
X33742Y00147D01*
X33484Y00223D01*
X33246Y00347D01*
X33036Y00516D01*
X32863Y00722D01*
X32734Y00958D01*
X32653Y01214D01*
X32623Y01481D01*
X32645Y01748D01*
X32719Y02007D01*
X32842Y02246D01*
X33009Y02457D01*
X33214Y02631D01*
X33449Y02762D01*
X33705Y02845D01*
X33972Y02877D01*
X34239Y02857D01*
X34498Y02784D01*
X34738Y02663D01*
X34950Y02497D01*
X35126Y02294D01*
X35258Y02060D01*
X35343Y01805D01*
X35377Y01538D01*
X35378Y01500D01*
G54D15*
X10205Y03588D02*
X10205Y03988D01*
X10358Y03988D01*
X10396Y03969D01*
X10415Y03950D01*
X10434Y03912D01*
X10434Y03855D01*
X10415Y03817D01*
X10396Y03798D01*
X10358Y03779D01*
X10205Y03779D01*
X10624Y03588D02*
X10700Y03588D01*
X10739Y03607D01*
X10758Y03626D01*
X10796Y03683D01*
X10815Y03760D01*
X10815Y03912D01*
X10796Y03950D01*
X10777Y03969D01*
X10739Y03988D01*
X10662Y03988D01*
X10624Y03969D01*
X10605Y03950D01*
X10586Y03912D01*
X10586Y03817D01*
X10605Y03779D01*
X10624Y03760D01*
X10662Y03740D01*
X10739Y03740D01*
X10777Y03760D01*
X10796Y03779D01*
X10815Y03817D01*
X19014Y03588D02*
X19014Y03988D01*
X19167Y03988D01*
X19205Y03969D01*
X19224Y03950D01*
X19243Y03912D01*
X19243Y03855D01*
X19224Y03817D01*
X19205Y03798D01*
X19167Y03779D01*
X19014Y03779D01*
X19624Y03588D02*
X19395Y03588D01*
X19509Y03588D02*
X19509Y03988D01*
X19471Y03931D01*
X19433Y03893D01*
X19395Y03874D01*
X19871Y03988D02*
X19910Y03988D01*
X19948Y03969D01*
X19967Y03950D01*
X19986Y03912D01*
X20005Y03836D01*
X20005Y03740D01*
X19986Y03664D01*
X19967Y03626D01*
X19948Y03607D01*
X19910Y03588D01*
X19871Y03588D01*
X19833Y03607D01*
X19814Y03626D01*
X19795Y03664D01*
X19776Y03740D01*
X19776Y03836D01*
X19795Y03912D01*
X19814Y03950D01*
X19833Y03969D01*
X19871Y03988D01*
X28014Y03588D02*
X28014Y03988D01*
X28167Y03988D01*
X28205Y03969D01*
X28224Y03950D01*
X28243Y03912D01*
X28243Y03855D01*
X28224Y03817D01*
X28205Y03798D01*
X28167Y03779D01*
X28014Y03779D01*
X28624Y03588D02*
X28395Y03588D01*
X28509Y03588D02*
X28509Y03988D01*
X28471Y03931D01*
X28433Y03893D01*
X28395Y03874D01*
X29005Y03588D02*
X28776Y03588D01*
X28890Y03588D02*
X28890Y03988D01*
X28852Y03931D01*
X28814Y03893D01*
X28776Y03874D01*
X17014Y22588D02*
X17014Y22988D01*
X17167Y22988D01*
X17205Y22969D01*
X17224Y22950D01*
X17243Y22912D01*
X17243Y22855D01*
X17224Y22817D01*
X17205Y22798D01*
X17167Y22779D01*
X17014Y22779D01*
X17624Y22588D02*
X17395Y22588D01*
X17509Y22588D02*
X17509Y22988D01*
X17471Y22931D01*
X17433Y22893D01*
X17395Y22874D01*
X17967Y22855D02*
X17967Y22588D01*
X17871Y23007D02*
X17776Y22721D01*
X18024Y22721D01*
X26014Y22588D02*
X26014Y22988D01*
X26167Y22988D01*
X26205Y22969D01*
X26224Y22950D01*
X26243Y22912D01*
X26243Y22855D01*
X26224Y22817D01*
X26205Y22798D01*
X26167Y22779D01*
X26014Y22779D01*
X26624Y22588D02*
X26395Y22588D01*
X26509Y22588D02*
X26509Y22988D01*
X26471Y22931D01*
X26433Y22893D01*
X26395Y22874D01*
X26986Y22988D02*
X26795Y22988D01*
X26776Y22798D01*
X26795Y22817D01*
X26833Y22836D01*
X26929Y22836D01*
X26967Y22817D01*
X26986Y22798D01*
X27005Y22760D01*
X27005Y22664D01*
X26986Y22626D01*
X26967Y22607D01*
X26929Y22588D01*
X26833Y22588D01*
X26795Y22607D01*
X26776Y22626D01*
X07664Y22338D02*
X07664Y22738D01*
X07817Y22738D01*
X07855Y22719D01*
X07874Y22700D01*
X07893Y22662D01*
X07893Y22605D01*
X07874Y22567D01*
X07855Y22548D01*
X07817Y22529D01*
X07664Y22529D01*
X08274Y22338D02*
X08045Y22338D01*
X08159Y22338D02*
X08159Y22738D01*
X08121Y22681D01*
X08083Y22643D01*
X08045Y22624D01*
X08407Y22738D02*
X08655Y22738D01*
X08521Y22586D01*
X08579Y22586D01*
X08617Y22567D01*
X08636Y22548D01*
X08655Y22510D01*
X08655Y22414D01*
X08636Y22376D01*
X08617Y22357D01*
X08579Y22338D01*
X08464Y22338D01*
X08426Y22357D01*
X08407Y22376D01*
G54D13*
X22271Y16429D02*
X22271Y16186D01*
X22286Y16157D01*
X22300Y16143D01*
X22329Y16129D01*
X22386Y16129D01*
X22414Y16143D01*
X22429Y16157D01*
X22443Y16186D01*
X22443Y16429D01*
X22714Y16329D02*
X22714Y16129D01*
X22643Y16443D02*
X22571Y16229D01*
X22757Y16229D01*
X21557Y15929D02*
X21728Y15929D01*
X21642Y15629D02*
X21642Y15929D01*
X21800Y15929D02*
X22000Y15629D01*
X22000Y15929D02*
X21800Y15629D01*
X22100Y15643D02*
X22143Y15629D01*
X22214Y15629D01*
X22243Y15643D01*
X22257Y15657D01*
X22272Y15686D01*
X22272Y15714D01*
X22257Y15743D01*
X22243Y15757D01*
X22214Y15771D01*
X22157Y15786D01*
X22129Y15800D01*
X22114Y15814D01*
X22100Y15843D01*
X22100Y15871D01*
X22114Y15900D01*
X22129Y15914D01*
X22157Y15929D01*
X22229Y15929D01*
X22272Y15914D01*
X22458Y15929D02*
X22486Y15929D01*
X22515Y15914D01*
X22529Y15900D01*
X22543Y15871D01*
X22558Y15814D01*
X22558Y15743D01*
X22543Y15686D01*
X22529Y15657D01*
X22515Y15643D01*
X22486Y15629D01*
X22458Y15629D01*
X22429Y15643D01*
X22415Y15657D01*
X22400Y15686D01*
X22386Y15743D01*
X22386Y15814D01*
X22400Y15871D01*
X22415Y15900D01*
X22429Y15914D01*
X22458Y15929D01*
X22844Y15629D02*
X22672Y15629D01*
X22758Y15629D02*
X22758Y15929D01*
X22729Y15886D01*
X22701Y15857D01*
X22672Y15843D01*
X23030Y15929D02*
X23058Y15929D01*
X23087Y15914D01*
X23101Y15900D01*
X23115Y15871D01*
X23130Y15814D01*
X23130Y15743D01*
X23115Y15686D01*
X23101Y15657D01*
X23087Y15643D01*
X23058Y15629D01*
X23030Y15629D01*
X23001Y15643D01*
X22987Y15657D01*
X22972Y15686D01*
X22958Y15743D01*
X22958Y15814D01*
X22972Y15871D01*
X22987Y15900D01*
X23001Y15914D01*
X23030Y15929D01*
X23301Y15800D02*
X23273Y15814D01*
X23258Y15829D01*
X23244Y15857D01*
X23244Y15871D01*
X23258Y15900D01*
X23273Y15914D01*
X23301Y15929D01*
X23358Y15929D01*
X23387Y15914D01*
X23401Y15900D01*
X23416Y15871D01*
X23416Y15857D01*
X23401Y15829D01*
X23387Y15814D01*
X23358Y15800D01*
X23301Y15800D01*
X23273Y15786D01*
X23258Y15771D01*
X23244Y15743D01*
X23244Y15686D01*
X23258Y15657D01*
X23273Y15643D01*
X23301Y15629D01*
X23358Y15629D01*
X23387Y15643D01*
X23401Y15657D01*
X23416Y15686D01*
X23416Y15743D01*
X23401Y15771D01*
X23387Y15786D01*
X23358Y15800D01*
X25577Y15958D02*
X25589Y15946D01*
X25601Y15911D01*
X25601Y15887D01*
X25589Y15851D01*
X25565Y15827D01*
X25542Y15816D01*
X25494Y15804D01*
X25458Y15804D01*
X25411Y15816D01*
X25387Y15827D01*
X25363Y15851D01*
X25351Y15887D01*
X25351Y15911D01*
X25363Y15946D01*
X25375Y15958D01*
X25601Y16196D02*
X25601Y16054D01*
X25601Y16125D02*
X25351Y16125D01*
X25387Y16101D01*
X25411Y16077D01*
X25423Y16054D01*
X20077Y15958D02*
X20089Y15946D01*
X20101Y15911D01*
X20101Y15887D01*
X20089Y15851D01*
X20065Y15827D01*
X20042Y15816D01*
X19994Y15804D01*
X19958Y15804D01*
X19911Y15816D01*
X19887Y15827D01*
X19863Y15851D01*
X19851Y15887D01*
X19851Y15911D01*
X19863Y15946D01*
X19875Y15958D01*
X19875Y16054D02*
X19863Y16066D01*
X19851Y16089D01*
X19851Y16149D01*
X19863Y16173D01*
X19875Y16185D01*
X19899Y16196D01*
X19923Y16196D01*
X19958Y16185D01*
X20101Y16042D01*
X20101Y16196D01*
X09601Y14208D02*
X09482Y14125D01*
X09601Y14066D02*
X09351Y14066D01*
X09351Y14161D01*
X09363Y14185D01*
X09375Y14196D01*
X09399Y14208D01*
X09435Y14208D01*
X09458Y14196D01*
X09470Y14185D01*
X09482Y14161D01*
X09482Y14066D01*
X09601Y14446D02*
X09601Y14304D01*
X09601Y14375D02*
X09351Y14375D01*
X09387Y14351D01*
X09411Y14327D01*
X09423Y14304D01*
X11601Y14208D02*
X11482Y14125D01*
X11601Y14066D02*
X11351Y14066D01*
X11351Y14161D01*
X11363Y14185D01*
X11375Y14196D01*
X11399Y14208D01*
X11435Y14208D01*
X11458Y14196D01*
X11470Y14185D01*
X11482Y14161D01*
X11482Y14066D01*
X11375Y14304D02*
X11363Y14316D01*
X11351Y14339D01*
X11351Y14399D01*
X11363Y14423D01*
X11375Y14435D01*
X11399Y14446D01*
X11423Y14446D01*
X11458Y14435D01*
X11601Y14292D01*
X11601Y14446D01*
X13601Y14208D02*
X13482Y14125D01*
X13601Y14066D02*
X13351Y14066D01*
X13351Y14161D01*
X13363Y14185D01*
X13375Y14196D01*
X13399Y14208D01*
X13435Y14208D01*
X13458Y14196D01*
X13470Y14185D01*
X13482Y14161D01*
X13482Y14066D01*
X13351Y14292D02*
X13351Y14446D01*
X13446Y14363D01*
X13446Y14399D01*
X13458Y14423D01*
X13470Y14435D01*
X13494Y14446D01*
X13554Y14446D01*
X13577Y14435D01*
X13589Y14423D01*
X13601Y14399D01*
X13601Y14327D01*
X13589Y14304D01*
X13577Y14292D01*
G54D11*
X01861Y08489D02*
X01861Y09089D01*
X02118Y08489D02*
X02118Y08803D01*
X02089Y08861D01*
X02032Y08889D01*
X01947Y08889D01*
X01889Y08861D01*
X01861Y08832D01*
X02661Y08489D02*
X02661Y08803D01*
X02632Y08861D01*
X02575Y08889D01*
X02461Y08889D01*
X02404Y08861D01*
X02661Y08518D02*
X02604Y08489D01*
X02461Y08489D01*
X02404Y08518D01*
X02375Y08575D01*
X02375Y08632D01*
X02404Y08689D01*
X02461Y08718D01*
X02604Y08718D01*
X02661Y08746D01*
X02947Y08489D02*
X02947Y08889D01*
X02947Y08775D02*
X02975Y08832D01*
X03004Y08861D01*
X03061Y08889D01*
X03118Y08889D01*
X03575Y08489D02*
X03575Y09089D01*
X03575Y08518D02*
X03518Y08489D01*
X03404Y08489D01*
X03346Y08518D01*
X03318Y08546D01*
X03289Y08603D01*
X03289Y08775D01*
X03318Y08832D01*
X03346Y08861D01*
X03404Y08889D01*
X03518Y08889D01*
X03575Y08861D01*
X03804Y08889D02*
X03918Y08489D01*
X04032Y08775D01*
X04147Y08489D01*
X04261Y08889D01*
X04747Y08489D02*
X04747Y08803D01*
X04718Y08861D01*
X04661Y08889D01*
X04547Y08889D01*
X04490Y08861D01*
X04747Y08518D02*
X04690Y08489D01*
X04547Y08489D01*
X04490Y08518D01*
X04461Y08575D01*
X04461Y08632D01*
X04490Y08689D01*
X04547Y08718D01*
X04690Y08718D01*
X04747Y08746D01*
X05033Y08489D02*
X05033Y08889D01*
X05033Y08775D02*
X05061Y08832D01*
X05090Y08861D01*
X05147Y08889D01*
X05204Y08889D01*
X05632Y08518D02*
X05575Y08489D01*
X05461Y08489D01*
X05404Y08518D01*
X05375Y08575D01*
X05375Y08803D01*
X05404Y08861D01*
X05461Y08889D01*
X05575Y08889D01*
X05632Y08861D01*
X05661Y08803D01*
X05661Y08746D01*
X05375Y08689D01*
X01405Y09316D02*
X01347Y09345D01*
X01319Y09373D01*
X01290Y09430D01*
X01290Y09602D01*
X01319Y09659D01*
X01347Y09688D01*
X01405Y09716D01*
X01490Y09716D01*
X01547Y09688D01*
X01576Y09659D01*
X01605Y09602D01*
X01605Y09430D01*
X01576Y09373D01*
X01547Y09345D01*
X01490Y09316D01*
X01405Y09316D01*
X01862Y09716D02*
X01862Y09116D01*
X01862Y09688D02*
X01919Y09716D01*
X02033Y09716D01*
X02090Y09688D01*
X02119Y09659D01*
X02148Y09602D01*
X02148Y09430D01*
X02119Y09373D01*
X02090Y09345D01*
X02033Y09316D01*
X01919Y09316D01*
X01862Y09345D01*
X02633Y09345D02*
X02576Y09316D01*
X02462Y09316D01*
X02405Y09345D01*
X02376Y09402D01*
X02376Y09630D01*
X02405Y09688D01*
X02462Y09716D01*
X02576Y09716D01*
X02633Y09688D01*
X02662Y09630D01*
X02662Y09573D01*
X02376Y09516D01*
X02919Y09716D02*
X02919Y09316D01*
X02919Y09659D02*
X02947Y09688D01*
X03005Y09716D01*
X03090Y09716D01*
X03147Y09688D01*
X03176Y09630D01*
X03176Y09316D01*
X03890Y09345D02*
X03947Y09316D01*
X04062Y09316D01*
X04119Y09345D01*
X04147Y09402D01*
X04147Y09430D01*
X04119Y09488D01*
X04062Y09516D01*
X03976Y09516D01*
X03919Y09545D01*
X03890Y09602D01*
X03890Y09630D01*
X03919Y09688D01*
X03976Y09716D01*
X04062Y09716D01*
X04119Y09688D01*
X04491Y09316D02*
X04433Y09345D01*
X04405Y09373D01*
X04376Y09430D01*
X04376Y09602D01*
X04405Y09659D01*
X04433Y09688D01*
X04491Y09716D01*
X04576Y09716D01*
X04633Y09688D01*
X04662Y09659D01*
X04691Y09602D01*
X04691Y09430D01*
X04662Y09373D01*
X04633Y09345D01*
X04576Y09316D01*
X04491Y09316D01*
X05205Y09716D02*
X05205Y09316D01*
X04948Y09716D02*
X04948Y09402D01*
X04976Y09345D01*
X05034Y09316D01*
X05119Y09316D01*
X05176Y09345D01*
X05205Y09373D01*
X05491Y09316D02*
X05491Y09716D01*
X05491Y09602D02*
X05519Y09659D01*
X05548Y09688D01*
X05605Y09716D01*
X05662Y09716D01*
X06119Y09345D02*
X06062Y09316D01*
X05948Y09316D01*
X05890Y09345D01*
X05862Y09373D01*
X05833Y09430D01*
X05833Y09602D01*
X05862Y09659D01*
X05890Y09688D01*
X05948Y09716D01*
X06062Y09716D01*
X06119Y09688D01*
X06604Y09345D02*
X06547Y09316D01*
X06433Y09316D01*
X06376Y09345D01*
X06347Y09402D01*
X06347Y09630D01*
X06376Y09688D01*
X06433Y09716D01*
X06547Y09716D01*
X06604Y09688D01*
X06633Y09630D01*
X06633Y09573D01*
X06347Y09516D01*
G54D16*
X10108Y16521D02*
X10351Y16521D01*
X10380Y16536D01*
X10394Y16550D01*
X10408Y16579D01*
X10408Y16636D01*
X10394Y16664D01*
X10380Y16679D01*
X10351Y16693D01*
X10108Y16693D01*
X10408Y16993D02*
X10408Y16821D01*
X10408Y16907D02*
X10108Y16907D01*
X10151Y16878D01*
X10180Y16850D01*
X10194Y16821D01*
X08609Y16868D02*
X08740Y16868D01*
X08609Y16671D01*
X08740Y16671D01*
X08797Y16868D02*
X08928Y16671D01*
X08928Y16868D02*
X08797Y16671D01*
X09107Y16858D02*
X09088Y16868D01*
X09060Y16868D01*
X09032Y16858D01*
X09013Y16840D01*
X09004Y16821D01*
X08995Y16783D01*
X08995Y16755D01*
X09004Y16718D01*
X09013Y16699D01*
X09032Y16680D01*
X09060Y16671D01*
X09079Y16671D01*
X09107Y16680D01*
X09116Y16690D01*
X09116Y16755D01*
X09079Y16755D01*
X09201Y16671D02*
X09201Y16868D01*
X09248Y16868D01*
X09276Y16858D01*
X09295Y16840D01*
X09304Y16821D01*
X09313Y16783D01*
X09313Y16755D01*
X09304Y16718D01*
X09295Y16699D01*
X09276Y16680D01*
X09248Y16671D01*
X09201Y16671D01*
X09379Y16868D02*
X09501Y16868D01*
X09435Y16793D01*
X09464Y16793D01*
X09482Y16783D01*
X09492Y16774D01*
X09501Y16755D01*
X09501Y16708D01*
X09492Y16690D01*
X09482Y16680D01*
X09464Y16671D01*
X09407Y16671D01*
X09389Y16680D01*
X09379Y16690D01*
X09623Y16868D02*
X09642Y16868D01*
X09661Y16858D01*
X09670Y16849D01*
X09680Y16830D01*
X09689Y16793D01*
X09689Y16746D01*
X09680Y16708D01*
X09670Y16690D01*
X09661Y16680D01*
X09642Y16671D01*
X09623Y16671D01*
X09605Y16680D01*
X09595Y16690D01*
X09586Y16708D01*
X09577Y16746D01*
X09577Y16793D01*
X09586Y16830D01*
X09595Y16849D01*
X09605Y16858D01*
X09623Y16868D01*
X09811Y16868D02*
X09830Y16868D01*
X09849Y16858D01*
X09858Y16849D01*
X09868Y16830D01*
X09877Y16793D01*
X09877Y16746D01*
X09868Y16708D01*
X09858Y16690D01*
X09849Y16680D01*
X09830Y16671D01*
X09811Y16671D01*
X09793Y16680D01*
X09783Y16690D01*
X09774Y16708D01*
X09765Y16746D01*
X09765Y16793D01*
X09774Y16830D01*
X09783Y16849D01*
X09793Y16858D01*
X09811Y16868D01*
X10056Y16868D02*
X09962Y16868D01*
X09953Y16774D01*
X09962Y16783D01*
X09981Y16793D01*
X10028Y16793D01*
X10046Y16783D01*
X10056Y16774D01*
X10065Y16755D01*
X10065Y16708D01*
X10056Y16690D01*
X10046Y16680D01*
X10028Y16671D01*
X09981Y16671D01*
X09962Y16680D01*
X09953Y16690D01*
X10150Y16774D02*
X10216Y16774D01*
X10244Y16671D02*
X10150Y16671D01*
X10150Y16868D01*
X10244Y16868D01*
X10412Y16868D02*
X10375Y16868D01*
X10356Y16858D01*
X10347Y16849D01*
X10328Y16821D01*
X10319Y16783D01*
X10319Y16708D01*
X10328Y16690D01*
X10337Y16680D01*
X10356Y16671D01*
X10394Y16671D01*
X10412Y16680D01*
X10422Y16690D01*
X10431Y16708D01*
X10431Y16755D01*
X10422Y16774D01*
X10412Y16783D01*
X10394Y16793D01*
X10356Y16793D01*
X10337Y16783D01*
X10328Y16774D01*
X10319Y16755D01*
X12108Y16521D02*
X12351Y16521D01*
X12380Y16536D01*
X12394Y16550D01*
X12408Y16579D01*
X12408Y16636D01*
X12394Y16664D01*
X12380Y16679D01*
X12351Y16693D01*
X12108Y16693D01*
X12137Y16821D02*
X12123Y16835D01*
X12108Y16864D01*
X12108Y16935D01*
X12123Y16964D01*
X12137Y16978D01*
X12166Y16993D01*
X12194Y16993D01*
X12237Y16978D01*
X12408Y16807D01*
X12408Y16993D01*
X10609Y16868D02*
X10740Y16868D01*
X10609Y16671D01*
X10740Y16671D01*
X10797Y16868D02*
X10928Y16671D01*
X10928Y16868D02*
X10797Y16671D01*
X11107Y16858D02*
X11088Y16868D01*
X11060Y16868D01*
X11032Y16858D01*
X11013Y16840D01*
X11004Y16821D01*
X10995Y16783D01*
X10995Y16755D01*
X11004Y16718D01*
X11013Y16699D01*
X11032Y16680D01*
X11060Y16671D01*
X11079Y16671D01*
X11107Y16680D01*
X11116Y16690D01*
X11116Y16755D01*
X11079Y16755D01*
X11201Y16671D02*
X11201Y16868D01*
X11248Y16868D01*
X11276Y16858D01*
X11295Y16840D01*
X11304Y16821D01*
X11313Y16783D01*
X11313Y16755D01*
X11304Y16718D01*
X11295Y16699D01*
X11276Y16680D01*
X11248Y16671D01*
X11201Y16671D01*
X11379Y16868D02*
X11501Y16868D01*
X11435Y16793D01*
X11464Y16793D01*
X11482Y16783D01*
X11492Y16774D01*
X11501Y16755D01*
X11501Y16708D01*
X11492Y16690D01*
X11482Y16680D01*
X11464Y16671D01*
X11407Y16671D01*
X11389Y16680D01*
X11379Y16690D01*
X11623Y16868D02*
X11642Y16868D01*
X11661Y16858D01*
X11670Y16849D01*
X11680Y16830D01*
X11689Y16793D01*
X11689Y16746D01*
X11680Y16708D01*
X11670Y16690D01*
X11661Y16680D01*
X11642Y16671D01*
X11623Y16671D01*
X11605Y16680D01*
X11595Y16690D01*
X11586Y16708D01*
X11577Y16746D01*
X11577Y16793D01*
X11586Y16830D01*
X11595Y16849D01*
X11605Y16858D01*
X11623Y16868D01*
X11811Y16868D02*
X11830Y16868D01*
X11849Y16858D01*
X11858Y16849D01*
X11868Y16830D01*
X11877Y16793D01*
X11877Y16746D01*
X11868Y16708D01*
X11858Y16690D01*
X11849Y16680D01*
X11830Y16671D01*
X11811Y16671D01*
X11793Y16680D01*
X11783Y16690D01*
X11774Y16708D01*
X11765Y16746D01*
X11765Y16793D01*
X11774Y16830D01*
X11783Y16849D01*
X11793Y16858D01*
X11811Y16868D01*
X12056Y16868D02*
X11962Y16868D01*
X11953Y16774D01*
X11962Y16783D01*
X11981Y16793D01*
X12028Y16793D01*
X12046Y16783D01*
X12056Y16774D01*
X12065Y16755D01*
X12065Y16708D01*
X12056Y16690D01*
X12046Y16680D01*
X12028Y16671D01*
X11981Y16671D01*
X11962Y16680D01*
X11953Y16690D01*
X12150Y16774D02*
X12216Y16774D01*
X12244Y16671D02*
X12150Y16671D01*
X12150Y16868D01*
X12244Y16868D01*
X12412Y16868D02*
X12375Y16868D01*
X12356Y16858D01*
X12347Y16849D01*
X12328Y16821D01*
X12319Y16783D01*
X12319Y16708D01*
X12328Y16690D01*
X12337Y16680D01*
X12356Y16671D01*
X12394Y16671D01*
X12412Y16680D01*
X12422Y16690D01*
X12431Y16708D01*
X12431Y16755D01*
X12422Y16774D01*
X12412Y16783D01*
X12394Y16793D01*
X12356Y16793D01*
X12337Y16783D01*
X12328Y16774D01*
X12319Y16755D01*
X14108Y16521D02*
X14351Y16521D01*
X14380Y16536D01*
X14394Y16550D01*
X14408Y16579D01*
X14408Y16636D01*
X14394Y16664D01*
X14380Y16679D01*
X14351Y16693D01*
X14108Y16693D01*
X14108Y16807D02*
X14108Y16993D01*
X14223Y16893D01*
X14223Y16935D01*
X14237Y16964D01*
X14251Y16978D01*
X14280Y16993D01*
X14351Y16993D01*
X14380Y16978D01*
X14394Y16964D01*
X14408Y16935D01*
X14408Y16850D01*
X14394Y16821D01*
X14380Y16807D01*
X12609Y16868D02*
X12740Y16868D01*
X12609Y16671D01*
X12740Y16671D01*
X12797Y16868D02*
X12928Y16671D01*
X12928Y16868D02*
X12797Y16671D01*
X13107Y16858D02*
X13088Y16868D01*
X13060Y16868D01*
X13032Y16858D01*
X13013Y16840D01*
X13004Y16821D01*
X12995Y16783D01*
X12995Y16755D01*
X13004Y16718D01*
X13013Y16699D01*
X13032Y16680D01*
X13060Y16671D01*
X13079Y16671D01*
X13107Y16680D01*
X13116Y16690D01*
X13116Y16755D01*
X13079Y16755D01*
X13201Y16671D02*
X13201Y16868D01*
X13248Y16868D01*
X13276Y16858D01*
X13295Y16840D01*
X13304Y16821D01*
X13313Y16783D01*
X13313Y16755D01*
X13304Y16718D01*
X13295Y16699D01*
X13276Y16680D01*
X13248Y16671D01*
X13201Y16671D01*
X13379Y16868D02*
X13501Y16868D01*
X13435Y16793D01*
X13464Y16793D01*
X13482Y16783D01*
X13492Y16774D01*
X13501Y16755D01*
X13501Y16708D01*
X13492Y16690D01*
X13482Y16680D01*
X13464Y16671D01*
X13407Y16671D01*
X13389Y16680D01*
X13379Y16690D01*
X13623Y16868D02*
X13642Y16868D01*
X13661Y16858D01*
X13670Y16849D01*
X13680Y16830D01*
X13689Y16793D01*
X13689Y16746D01*
X13680Y16708D01*
X13670Y16690D01*
X13661Y16680D01*
X13642Y16671D01*
X13623Y16671D01*
X13605Y16680D01*
X13595Y16690D01*
X13586Y16708D01*
X13577Y16746D01*
X13577Y16793D01*
X13586Y16830D01*
X13595Y16849D01*
X13605Y16858D01*
X13623Y16868D01*
X13811Y16868D02*
X13830Y16868D01*
X13849Y16858D01*
X13858Y16849D01*
X13868Y16830D01*
X13877Y16793D01*
X13877Y16746D01*
X13868Y16708D01*
X13858Y16690D01*
X13849Y16680D01*
X13830Y16671D01*
X13811Y16671D01*
X13793Y16680D01*
X13783Y16690D01*
X13774Y16708D01*
X13765Y16746D01*
X13765Y16793D01*
X13774Y16830D01*
X13783Y16849D01*
X13793Y16858D01*
X13811Y16868D01*
X14056Y16868D02*
X13962Y16868D01*
X13953Y16774D01*
X13962Y16783D01*
X13981Y16793D01*
X14028Y16793D01*
X14046Y16783D01*
X14056Y16774D01*
X14065Y16755D01*
X14065Y16708D01*
X14056Y16690D01*
X14046Y16680D01*
X14028Y16671D01*
X13981Y16671D01*
X13962Y16680D01*
X13953Y16690D01*
X14150Y16774D02*
X14216Y16774D01*
X14244Y16671D02*
X14150Y16671D01*
X14150Y16868D01*
X14244Y16868D01*
X14412Y16868D02*
X14375Y16868D01*
X14356Y16858D01*
X14347Y16849D01*
X14328Y16821D01*
X14319Y16783D01*
X14319Y16708D01*
X14328Y16690D01*
X14337Y16680D01*
X14356Y16671D01*
X14394Y16671D01*
X14412Y16680D01*
X14422Y16690D01*
X14431Y16708D01*
X14431Y16755D01*
X14422Y16774D01*
X14412Y16783D01*
X14394Y16793D01*
X14356Y16793D01*
X14337Y16783D01*
X14328Y16774D01*
X14319Y16755D01*
G54D17*
X36162Y11514D02*
X35762Y11514D01*
X35762Y11667D01*
X35781Y11705D01*
X35800Y11724D01*
X35838Y11743D01*
X35895Y11743D01*
X35933Y11724D01*
X35952Y11705D01*
X35971Y11667D01*
X35971Y11514D01*
X36162Y12124D02*
X36162Y11895D01*
X36162Y12009D02*
X35762Y12009D01*
X35819Y11971D01*
X35857Y11933D01*
X35876Y11895D01*
X35800Y12276D02*
X35781Y12295D01*
X35762Y12333D01*
X35762Y12429D01*
X35781Y12467D01*
X35800Y12486D01*
X35838Y12505D01*
X35876Y12505D01*
X35933Y12486D01*
X36162Y12257D01*
X36162Y12505D01*
G54D15*
X31124Y10581D02*
X31143Y10562D01*
X31162Y10505D01*
X31162Y10467D01*
X31143Y10409D01*
X31105Y10371D01*
X31067Y10352D01*
X30990Y10333D01*
X30933Y10333D01*
X30857Y10352D01*
X30819Y10371D01*
X30781Y10409D01*
X30762Y10467D01*
X30762Y10505D01*
X30781Y10562D01*
X30800Y10581D01*
X30762Y10828D02*
X30762Y10905D01*
X30781Y10943D01*
X30819Y10981D01*
X30895Y11000D01*
X31029Y11000D01*
X31105Y10981D01*
X31143Y10943D01*
X31162Y10905D01*
X31162Y10828D01*
X31143Y10790D01*
X31105Y10752D01*
X31029Y10733D01*
X30895Y10733D01*
X30819Y10752D01*
X30781Y10790D01*
X30762Y10828D01*
X31162Y11171D02*
X30762Y11171D01*
X31162Y11400D01*
X30762Y11400D01*
X31162Y11590D02*
X30762Y11590D01*
X31162Y11819D01*
X30762Y11819D01*
X31200Y11914D02*
X31200Y12219D01*
X31162Y12524D02*
X31162Y12295D01*
X31162Y12409D02*
X30762Y12409D01*
X30819Y12371D01*
X30857Y12333D01*
X30876Y12295D01*
X30933Y12752D02*
X30914Y12714D01*
X30895Y12695D01*
X30857Y12676D01*
X30838Y12676D01*
X30800Y12695D01*
X30781Y12714D01*
X30762Y12752D01*
X30762Y12829D01*
X30781Y12867D01*
X30800Y12886D01*
X30838Y12905D01*
X30857Y12905D01*
X30895Y12886D01*
X30914Y12867D01*
X30933Y12829D01*
X30933Y12752D01*
X30952Y12714D01*
X30971Y12695D01*
X31010Y12676D01*
X31086Y12676D01*
X31124Y12695D01*
X31143Y12714D01*
X31162Y12752D01*
X31162Y12829D01*
X31143Y12867D01*
X31124Y12886D01*
X31086Y12905D01*
X31010Y12905D01*
X30971Y12886D01*
X30952Y12867D01*
X30933Y12829D01*
X30762Y13038D02*
X31162Y13305D01*
X30762Y13305D02*
X31162Y13038D01*
X30800Y13438D02*
X30781Y13457D01*
X30762Y13495D01*
X30762Y13591D01*
X30781Y13629D01*
X30800Y13648D01*
X30838Y13667D01*
X30876Y13667D01*
X30933Y13648D01*
X31162Y13419D01*
X31162Y13667D01*
M02*
