G04 (created by PCBNEW-RS274X (2012-01-19 BZR 3256)-stable) date 16/02/2013 15:24:50*
G01*
G70*
G90*
%MOIN*%
G04 Gerber Fmt 3.4, Leading zero omitted, Abs format*
%FSLAX34Y34*%
G04 APERTURE LIST*
%ADD10C,0.006000*%
%ADD11C,0.012000*%
%ADD12C,0.008000*%
%ADD13C,0.010000*%
G04 APERTURE END LIST*
G54D10*
G54D11*
X14500Y03000D02*
X14500Y00000D01*
X06750Y-00500D02*
X07000Y-00250D01*
X07000Y-00250D02*
X07250Y-00500D01*
X07250Y-00500D02*
X06750Y-00500D01*
X06500Y00000D02*
X06500Y03000D01*
X06500Y00000D02*
X14500Y00000D01*
X14500Y03000D02*
X06500Y03000D01*
X23500Y03000D02*
X23500Y00000D01*
X15750Y-00500D02*
X16000Y-00250D01*
X16000Y-00250D02*
X16250Y-00500D01*
X16250Y-00500D02*
X15750Y-00500D01*
X15500Y00000D02*
X15500Y03000D01*
X15500Y00000D02*
X23500Y00000D01*
X23500Y03000D02*
X15500Y03000D01*
X32500Y03000D02*
X32500Y00000D01*
X24750Y-00500D02*
X25000Y-00250D01*
X25000Y-00250D02*
X25250Y-00500D01*
X25250Y-00500D02*
X24750Y-00500D01*
X24500Y00000D02*
X24500Y03000D01*
X24500Y00000D02*
X32500Y00000D01*
X32500Y03000D02*
X24500Y03000D01*
X21500Y22000D02*
X21500Y19000D01*
X13750Y18500D02*
X14000Y18750D01*
X14000Y18750D02*
X14250Y18500D01*
X14250Y18500D02*
X13750Y18500D01*
X13500Y19000D02*
X13500Y22000D01*
X13500Y19000D02*
X21500Y19000D01*
X21500Y22000D02*
X13500Y22000D01*
X30500Y22000D02*
X30500Y19000D01*
X22750Y18500D02*
X23000Y18750D01*
X23000Y18750D02*
X23250Y18500D01*
X23250Y18500D02*
X22750Y18500D01*
X22500Y19000D02*
X22500Y22000D01*
X22500Y19000D02*
X30500Y19000D01*
X30500Y22000D02*
X22500Y22000D01*
X03150Y18500D02*
X03400Y18750D01*
X03400Y18750D02*
X03650Y18500D01*
X03650Y18500D02*
X03150Y18500D01*
X02900Y19000D02*
X02900Y22000D01*
X12900Y19000D02*
X12900Y22000D01*
X10900Y19000D02*
X12900Y19000D01*
X10900Y22000D02*
X12900Y22000D01*
X02900Y19000D02*
X10900Y19000D01*
X10900Y22000D02*
X02900Y22000D01*
X19728Y12976D02*
X19728Y10122D01*
X19728Y10122D02*
X19728Y10024D01*
X19728Y10024D02*
X23272Y10024D01*
X23272Y10024D02*
X23272Y12976D01*
X23272Y12976D02*
X19728Y12976D01*
X31750Y21000D02*
X31750Y03000D01*
X31750Y03000D02*
X35250Y03000D01*
X35250Y03000D02*
X35250Y21000D01*
X35250Y21000D02*
X31750Y21000D01*
G54D12*
X11045Y-00662D02*
X11045Y-00262D01*
X10892Y-00262D01*
X10854Y-00281D01*
X10835Y-00300D01*
X10816Y-00338D01*
X10816Y-00395D01*
X10835Y-00433D01*
X10854Y-00452D01*
X10892Y-00471D01*
X11045Y-00471D01*
X10435Y-00662D02*
X10664Y-00662D01*
X10550Y-00662D02*
X10550Y-00262D01*
X10588Y-00319D01*
X10626Y-00357D01*
X10664Y-00376D01*
X20045Y-00662D02*
X20045Y-00262D01*
X19892Y-00262D01*
X19854Y-00281D01*
X19835Y-00300D01*
X19816Y-00338D01*
X19816Y-00395D01*
X19835Y-00433D01*
X19854Y-00452D01*
X19892Y-00471D01*
X20045Y-00471D01*
X19664Y-00300D02*
X19645Y-00281D01*
X19607Y-00262D01*
X19511Y-00262D01*
X19473Y-00281D01*
X19454Y-00300D01*
X19435Y-00338D01*
X19435Y-00376D01*
X19454Y-00433D01*
X19683Y-00662D01*
X19435Y-00662D01*
X29045Y-00662D02*
X29045Y-00262D01*
X28892Y-00262D01*
X28854Y-00281D01*
X28835Y-00300D01*
X28816Y-00338D01*
X28816Y-00395D01*
X28835Y-00433D01*
X28854Y-00452D01*
X28892Y-00471D01*
X29045Y-00471D01*
X28683Y-00262D02*
X28435Y-00262D01*
X28569Y-00414D01*
X28511Y-00414D01*
X28473Y-00433D01*
X28454Y-00452D01*
X28435Y-00490D01*
X28435Y-00586D01*
X28454Y-00624D01*
X28473Y-00643D01*
X28511Y-00662D01*
X28626Y-00662D01*
X28664Y-00643D01*
X28683Y-00624D01*
X18045Y18338D02*
X18045Y18738D01*
X17892Y18738D01*
X17854Y18719D01*
X17835Y18700D01*
X17816Y18662D01*
X17816Y18605D01*
X17835Y18567D01*
X17854Y18548D01*
X17892Y18529D01*
X18045Y18529D01*
X17473Y18738D02*
X17550Y18738D01*
X17588Y18719D01*
X17607Y18700D01*
X17645Y18643D01*
X17664Y18567D01*
X17664Y18414D01*
X17645Y18376D01*
X17626Y18357D01*
X17588Y18338D01*
X17511Y18338D01*
X17473Y18357D01*
X17454Y18376D01*
X17435Y18414D01*
X17435Y18510D01*
X17454Y18548D01*
X17473Y18567D01*
X17511Y18586D01*
X17588Y18586D01*
X17626Y18567D01*
X17645Y18548D01*
X17664Y18510D01*
X27045Y18338D02*
X27045Y18738D01*
X26892Y18738D01*
X26854Y18719D01*
X26835Y18700D01*
X26816Y18662D01*
X26816Y18605D01*
X26835Y18567D01*
X26854Y18548D01*
X26892Y18529D01*
X27045Y18529D01*
X26683Y18738D02*
X26416Y18738D01*
X26588Y18338D01*
X08445Y18338D02*
X08445Y18738D01*
X08292Y18738D01*
X08254Y18719D01*
X08235Y18700D01*
X08216Y18662D01*
X08216Y18605D01*
X08235Y18567D01*
X08254Y18548D01*
X08292Y18529D01*
X08445Y18529D01*
X07854Y18738D02*
X08045Y18738D01*
X08064Y18548D01*
X08045Y18567D01*
X08007Y18586D01*
X07911Y18586D01*
X07873Y18567D01*
X07854Y18548D01*
X07835Y18510D01*
X07835Y18414D01*
X07854Y18376D01*
X07873Y18357D01*
X07911Y18338D01*
X08007Y18338D01*
X08045Y18357D01*
X08064Y18376D01*
G54D13*
X18906Y11795D02*
X18506Y11795D01*
X18506Y11642D01*
X18525Y11604D01*
X18544Y11585D01*
X18582Y11566D01*
X18639Y11566D01*
X18677Y11585D01*
X18696Y11604D01*
X18715Y11642D01*
X18715Y11795D01*
X18677Y11338D02*
X18658Y11376D01*
X18639Y11395D01*
X18601Y11414D01*
X18582Y11414D01*
X18544Y11395D01*
X18525Y11376D01*
X18506Y11338D01*
X18506Y11261D01*
X18525Y11223D01*
X18544Y11204D01*
X18582Y11185D01*
X18601Y11185D01*
X18639Y11204D01*
X18658Y11223D01*
X18677Y11261D01*
X18677Y11338D01*
X18696Y11376D01*
X18715Y11395D01*
X18754Y11414D01*
X18830Y11414D01*
X18868Y11395D01*
X18887Y11376D01*
X18906Y11338D01*
X18906Y11261D01*
X18887Y11223D01*
X18868Y11204D01*
X18830Y11185D01*
X18754Y11185D01*
X18715Y11204D01*
X18696Y11223D01*
X18677Y11261D01*
G54D12*
X24124Y12728D02*
X24143Y12747D01*
X24162Y12804D01*
X24162Y12842D01*
X24143Y12900D01*
X24105Y12938D01*
X24067Y12957D01*
X23990Y12976D01*
X23933Y12976D01*
X23857Y12957D01*
X23819Y12938D01*
X23781Y12900D01*
X23762Y12842D01*
X23762Y12804D01*
X23781Y12747D01*
X23800Y12728D01*
X23762Y12481D02*
X23762Y12404D01*
X23781Y12366D01*
X23819Y12328D01*
X23895Y12309D01*
X24029Y12309D01*
X24105Y12328D01*
X24143Y12366D01*
X24162Y12404D01*
X24162Y12481D01*
X24143Y12519D01*
X24105Y12557D01*
X24029Y12576D01*
X23895Y12576D01*
X23819Y12557D01*
X23781Y12519D01*
X23762Y12481D01*
X24162Y12138D02*
X23762Y12138D01*
X24162Y11909D01*
X23762Y11909D01*
X24162Y11719D02*
X23762Y11719D01*
X24162Y11490D01*
X23762Y11490D01*
X24200Y11395D02*
X24200Y11090D01*
X23762Y11033D02*
X23762Y10785D01*
X23914Y10919D01*
X23914Y10861D01*
X23933Y10823D01*
X23952Y10804D01*
X23990Y10785D01*
X24086Y10785D01*
X24124Y10804D01*
X24143Y10823D01*
X24162Y10861D01*
X24162Y10976D01*
X24143Y11014D01*
X24124Y11033D01*
X23762Y10652D02*
X24162Y10385D01*
X23762Y10385D02*
X24162Y10652D01*
X23800Y10252D02*
X23781Y10233D01*
X23762Y10195D01*
X23762Y10099D01*
X23781Y10061D01*
X23800Y10042D01*
X23838Y10023D01*
X23876Y10023D01*
X23933Y10042D01*
X24162Y10271D01*
X24162Y10023D01*
G54D13*
X31162Y12295D02*
X30762Y12295D01*
X30762Y12142D01*
X30781Y12104D01*
X30800Y12085D01*
X30838Y12066D01*
X30895Y12066D01*
X30933Y12085D01*
X30952Y12104D01*
X30971Y12142D01*
X30971Y12295D01*
X30895Y11723D02*
X31162Y11723D01*
X30743Y11819D02*
X31029Y11914D01*
X31029Y11666D01*
G54D12*
X36124Y13419D02*
X36143Y13438D01*
X36162Y13495D01*
X36162Y13533D01*
X36143Y13591D01*
X36105Y13629D01*
X36067Y13648D01*
X35990Y13667D01*
X35933Y13667D01*
X35857Y13648D01*
X35819Y13629D01*
X35781Y13591D01*
X35762Y13533D01*
X35762Y13495D01*
X35781Y13438D01*
X35800Y13419D01*
X35762Y13172D02*
X35762Y13095D01*
X35781Y13057D01*
X35819Y13019D01*
X35895Y13000D01*
X36029Y13000D01*
X36105Y13019D01*
X36143Y13057D01*
X36162Y13095D01*
X36162Y13172D01*
X36143Y13210D01*
X36105Y13248D01*
X36029Y13267D01*
X35895Y13267D01*
X35819Y13248D01*
X35781Y13210D01*
X35762Y13172D01*
X36162Y12829D02*
X35762Y12829D01*
X36162Y12600D01*
X35762Y12600D01*
X36162Y12410D02*
X35762Y12410D01*
X36162Y12181D01*
X35762Y12181D01*
X36200Y12086D02*
X36200Y11781D01*
X36162Y11476D02*
X36162Y11705D01*
X36162Y11591D02*
X35762Y11591D01*
X35819Y11629D01*
X35857Y11667D01*
X35876Y11705D01*
X35933Y11248D02*
X35914Y11286D01*
X35895Y11305D01*
X35857Y11324D01*
X35838Y11324D01*
X35800Y11305D01*
X35781Y11286D01*
X35762Y11248D01*
X35762Y11171D01*
X35781Y11133D01*
X35800Y11114D01*
X35838Y11095D01*
X35857Y11095D01*
X35895Y11114D01*
X35914Y11133D01*
X35933Y11171D01*
X35933Y11248D01*
X35952Y11286D01*
X35971Y11305D01*
X36010Y11324D01*
X36086Y11324D01*
X36124Y11305D01*
X36143Y11286D01*
X36162Y11248D01*
X36162Y11171D01*
X36143Y11133D01*
X36124Y11114D01*
X36086Y11095D01*
X36010Y11095D01*
X35971Y11114D01*
X35952Y11133D01*
X35933Y11171D01*
X35762Y10962D02*
X36162Y10695D01*
X35762Y10695D02*
X36162Y10962D01*
X35800Y10562D02*
X35781Y10543D01*
X35762Y10505D01*
X35762Y10409D01*
X35781Y10371D01*
X35800Y10352D01*
X35838Y10333D01*
X35876Y10333D01*
X35933Y10352D01*
X36162Y10581D01*
X36162Y10333D01*
M02*
