G04 (created by PCBNEW-RS274X (2012-01-19 BZR 3256)-stable) date 20/08/2012 20:09:25*
G01*
G70*
G90*
%MOIN*%
G04 Gerber Fmt 3.4, Leading zero omitted, Abs format*
%FSLAX34Y34*%
G04 APERTURE LIST*
%ADD10C,0.006000*%
%ADD11C,0.015000*%
%ADD12O,0.088000X0.070000*%
%ADD13C,0.055000*%
%ADD14R,0.060000X0.060000*%
%ADD15C,0.060000*%
%ADD16R,0.055000X0.055000*%
%ADD17O,0.039400X0.059100*%
%ADD18R,0.020000X0.045000*%
%ADD19R,0.094500X0.086600*%
%ADD20R,0.055000X0.035000*%
%ADD21R,0.035000X0.055000*%
%ADD22R,0.045000X0.025000*%
%ADD23R,0.029500X0.082700*%
%ADD24O,0.031500X0.043300*%
%ADD25R,0.043300X0.011800*%
%ADD26R,0.011800X0.043300*%
%ADD27R,0.063400X0.063400*%
%ADD28C,0.024000*%
%ADD29C,0.008000*%
G04 APERTURE END LIST*
G54D10*
G54D11*
X25000Y00000D02*
X26000Y00000D01*
X25000Y15000D02*
X26000Y15000D01*
X25000Y15000D02*
X00000Y15000D01*
X26000Y00000D02*
X26000Y15000D01*
X00000Y00000D02*
X25000Y00000D01*
X00000Y15000D02*
X00000Y00000D01*
G54D12*
X00500Y00500D03*
X00500Y01500D03*
X00500Y02500D03*
X00500Y03500D03*
X00500Y04500D03*
X00500Y05500D03*
X00500Y06500D03*
X00500Y07500D03*
X00500Y08500D03*
X00500Y09500D03*
X00500Y10500D03*
X00500Y11500D03*
X00500Y12500D03*
X00500Y13500D03*
X00500Y14500D03*
X25500Y00500D03*
X25500Y01500D03*
X25500Y02500D03*
X25500Y03500D03*
X25500Y04500D03*
X25500Y05500D03*
X25500Y06500D03*
X25500Y07500D03*
X25500Y08500D03*
X25500Y09500D03*
X25500Y10500D03*
X25500Y11500D03*
X25500Y12500D03*
X25500Y13500D03*
X25500Y14500D03*
G54D13*
X09500Y08500D03*
X12500Y08500D03*
X09500Y07000D03*
X12500Y07000D03*
X09500Y10250D03*
X12500Y10250D03*
G54D14*
X13025Y14000D03*
G54D15*
X13025Y13000D03*
X12025Y14000D03*
X12025Y13000D03*
X11025Y14000D03*
X11025Y13000D03*
X10025Y14000D03*
X10025Y13000D03*
X09025Y14000D03*
X09025Y13000D03*
X08025Y14000D03*
X08025Y13000D03*
X07025Y14000D03*
X07025Y13000D03*
X06025Y14000D03*
X06025Y13000D03*
X05025Y14000D03*
X05025Y13000D03*
X04025Y14000D03*
X04025Y13000D03*
G54D16*
X22500Y07000D03*
G54D13*
X21500Y07000D03*
X20500Y07000D03*
X19500Y07000D03*
X18500Y07000D03*
X17500Y07000D03*
G54D17*
X15000Y08500D03*
X14500Y08500D03*
X14000Y08500D03*
X15000Y07000D03*
X14500Y07000D03*
X14000Y07000D03*
X15000Y10250D03*
X14500Y10250D03*
X14000Y10250D03*
G54D18*
X10500Y04000D03*
X10000Y04000D03*
X09500Y04000D03*
X09000Y04000D03*
X08500Y04000D03*
X08000Y04000D03*
X07500Y04000D03*
X07000Y04000D03*
X07000Y02000D03*
X07500Y02000D03*
X08000Y02000D03*
X08500Y02000D03*
X09000Y02000D03*
X09500Y02000D03*
X10000Y02000D03*
X10500Y02000D03*
X05500Y04100D03*
X05000Y04100D03*
X04500Y04100D03*
X04000Y04100D03*
X03500Y04100D03*
X03000Y04100D03*
X02500Y04100D03*
X02500Y02000D03*
X03000Y02000D03*
X03500Y02000D03*
X04000Y02000D03*
X04500Y02000D03*
X05000Y02000D03*
X05500Y02000D03*
G54D14*
X22000Y14000D03*
G54D15*
X22000Y13000D03*
X21000Y14000D03*
X21000Y13000D03*
X20000Y14000D03*
X20000Y13000D03*
X19000Y14000D03*
X19000Y13000D03*
X18000Y14000D03*
X18000Y13000D03*
G54D14*
X22000Y10000D03*
G54D15*
X22000Y09000D03*
X21000Y10000D03*
X21000Y09000D03*
X20000Y10000D03*
X20000Y09000D03*
X19000Y10000D03*
X19000Y09000D03*
X18000Y10000D03*
X18000Y09000D03*
G54D14*
X06750Y09000D03*
G54D15*
X06750Y08000D03*
X05750Y09000D03*
X05750Y08000D03*
X04750Y09000D03*
X04750Y08000D03*
X03750Y09000D03*
X03750Y08000D03*
G54D19*
X12500Y03406D03*
X12500Y01594D03*
G54D20*
X17750Y05125D03*
X17750Y05875D03*
X17000Y05125D03*
X17000Y05875D03*
X14500Y05875D03*
X14500Y05125D03*
G54D21*
X22125Y03250D03*
X22875Y03250D03*
G54D22*
X13750Y02950D03*
X13750Y03550D03*
X13750Y02050D03*
X13750Y01450D03*
G54D23*
X21000Y02200D03*
X21500Y02200D03*
X22000Y02200D03*
X22500Y02200D03*
X23000Y02200D03*
G54D24*
X21000Y01250D03*
X21000Y01750D03*
X21500Y01250D03*
X21500Y01750D03*
X22000Y01250D03*
X22000Y01750D03*
X22500Y01250D03*
X22500Y01750D03*
X23000Y01250D03*
X23000Y01750D03*
G54D23*
X23000Y00725D03*
X22500Y00725D03*
X22000Y00725D03*
X21500Y00725D03*
X21000Y00725D03*
G54D14*
X23500Y04500D03*
G54D15*
X23500Y05500D03*
G54D14*
X22250Y04500D03*
G54D15*
X22250Y05500D03*
G54D14*
X21000Y04500D03*
G54D15*
X21000Y05500D03*
G54D21*
X04625Y00750D03*
X03875Y00750D03*
X10625Y00750D03*
X09875Y00750D03*
G54D25*
X16142Y03393D03*
G54D26*
X16607Y01142D03*
G54D25*
X18858Y01607D03*
G54D26*
X18393Y03858D03*
G54D25*
X16142Y03138D03*
G54D26*
X16862Y01142D03*
G54D25*
X18858Y01862D03*
G54D26*
X18138Y03858D03*
G54D25*
X16142Y02883D03*
G54D26*
X17117Y01142D03*
G54D25*
X18858Y02117D03*
G54D26*
X17883Y03858D03*
G54D25*
X16142Y02628D03*
G54D26*
X17372Y01142D03*
G54D25*
X18858Y02372D03*
G54D26*
X17628Y03858D03*
G54D25*
X16142Y02373D03*
G54D26*
X17627Y01142D03*
G54D25*
X18858Y02627D03*
G54D26*
X17373Y03858D03*
G54D25*
X16142Y02118D03*
G54D26*
X17882Y01142D03*
G54D25*
X18858Y02882D03*
G54D26*
X17118Y03858D03*
G54D25*
X16142Y01863D03*
G54D26*
X18137Y01142D03*
G54D25*
X18858Y03137D03*
G54D26*
X16863Y03858D03*
G54D25*
X16142Y01608D03*
G54D26*
X18392Y01142D03*
G54D25*
X18858Y03392D03*
G54D26*
X16608Y03858D03*
G54D27*
X18130Y01870D03*
X17500Y01870D03*
X17500Y02500D03*
X18130Y02500D03*
X16870Y01870D03*
X16870Y02500D03*
X16870Y03130D03*
X17500Y03130D03*
X18130Y03130D03*
G54D28*
X16499Y05228D03*
X11038Y03452D03*
X21446Y03250D03*
X18748Y04819D03*
X18362Y05156D03*
X17307Y04365D03*
X02542Y13500D03*
X23905Y09866D03*
X16996Y07659D03*
X16315Y04579D03*
X18599Y00745D03*
X22962Y10069D03*
X11281Y01151D03*
X11651Y02569D03*
X11096Y03826D03*
X17290Y08612D03*
X18363Y05577D03*
X19183Y03946D03*
X11204Y05527D03*
X19391Y00827D03*
X23267Y09571D03*
X08549Y00768D03*
X09322Y01307D03*
X15446Y01122D03*
X09381Y03206D03*
X10261Y03320D03*
X08745Y02610D03*
X18665Y01142D03*
X10255Y01604D03*
X09015Y02798D03*
X14518Y00816D03*
X08276Y02610D03*
X09303Y00820D03*
X12349Y04234D03*
X15171Y03438D03*
X09244Y04374D03*
X12677Y04212D03*
X19278Y02627D03*
X08920Y04433D03*
X08596Y04433D03*
X18091Y04338D03*
X16228Y06245D03*
X08676Y05121D03*
X02646Y03021D03*
X04325Y03039D03*
X17573Y07610D03*
X15721Y01863D03*
X08973Y07983D03*
X09517Y13453D03*
X09461Y04850D03*
X19589Y03924D03*
X18286Y04615D03*
X19826Y00637D03*
X03039Y03265D03*
X20651Y06214D03*
X19571Y03544D03*
X11601Y12625D03*
X10645Y06729D03*
X06374Y04220D03*
X05233Y02691D03*
X19799Y03315D03*
X10865Y06259D03*
X07838Y03312D03*
X10836Y06994D03*
X07990Y06524D03*
X07514Y03184D03*
X15329Y04782D03*
X05385Y06056D03*
X06450Y05216D03*
X06688Y02119D03*
X02609Y04728D03*
X03241Y03520D03*
X17783Y00714D03*
X20639Y02117D03*
X15718Y03138D03*
X14937Y02047D03*
X06176Y04773D03*
X16215Y04091D03*
X15928Y04335D03*
X21577Y11327D03*
G54D29*
X21446Y03250D02*
X19877Y04819D01*
X11904Y03452D02*
X11904Y03941D01*
X11904Y03941D02*
X11926Y03963D01*
X11926Y03963D02*
X12812Y03963D01*
X12812Y03963D02*
X12931Y04082D01*
X12931Y04082D02*
X12931Y04306D01*
X12931Y04306D02*
X14202Y05577D01*
X14202Y05577D02*
X14500Y05577D01*
X11904Y03452D02*
X11038Y03452D01*
X19877Y04819D02*
X18748Y04819D01*
X16499Y05228D02*
X15614Y05228D01*
X15614Y05228D02*
X15265Y05577D01*
X15265Y05577D02*
X14500Y05577D01*
X16602Y05125D02*
X16499Y05228D01*
X14500Y05875D02*
X14500Y05577D01*
X11904Y03452D02*
X11904Y01109D01*
X11904Y01109D02*
X11975Y01038D01*
X11975Y01038D02*
X13901Y01038D01*
X13901Y01038D02*
X14667Y01804D01*
X14667Y01804D02*
X15038Y01804D01*
X15038Y01804D02*
X15352Y02118D01*
X15352Y02118D02*
X16142Y02118D01*
X17000Y05274D02*
X17203Y05274D01*
X22423Y03250D02*
X22423Y03548D01*
X22423Y03548D02*
X22537Y03662D01*
X22537Y03662D02*
X23338Y03662D01*
X23338Y03662D02*
X25027Y01973D01*
X25027Y01973D02*
X25500Y01973D01*
X25500Y01500D02*
X25500Y01973D01*
X17000Y05125D02*
X16602Y05125D01*
X17551Y05125D02*
X17352Y05125D01*
X21000Y01250D02*
X21000Y00725D01*
X17203Y05274D02*
X17352Y05125D01*
X17000Y05125D02*
X17000Y05274D01*
X22125Y03250D02*
X22423Y03250D01*
X21446Y03250D02*
X22125Y03250D01*
X17750Y05125D02*
X18148Y05125D01*
X18148Y05125D02*
X18179Y05156D01*
X18179Y05156D02*
X18362Y05156D01*
X17373Y03858D02*
X17373Y04198D01*
X17308Y04365D02*
X17307Y04365D01*
X17308Y04263D02*
X17308Y04365D01*
X17373Y04198D02*
X17308Y04263D01*
X17551Y05125D02*
X17750Y05125D01*
X00500Y13500D02*
X02542Y13500D01*
X23500Y04500D02*
X23077Y04500D01*
X18914Y05161D02*
X18711Y05161D01*
X19066Y05009D02*
X18914Y05161D01*
X22568Y05009D02*
X19066Y05009D01*
X23077Y04500D02*
X22568Y05009D01*
X13401Y03728D02*
X14500Y04827D01*
X13401Y03333D02*
X13401Y03728D01*
X13476Y03258D02*
X13401Y03333D01*
X14783Y03258D02*
X13476Y03258D01*
X15158Y02883D02*
X14783Y03258D01*
X16142Y02883D02*
X15158Y02883D01*
X18711Y05161D02*
X18463Y04913D01*
X18463Y04913D02*
X18232Y04913D01*
X18232Y04913D02*
X18117Y04798D01*
X18117Y04798D02*
X16694Y04798D01*
X16694Y04798D02*
X16507Y04985D01*
X16507Y04985D02*
X16399Y04985D01*
X16399Y04985D02*
X16353Y05031D01*
X16353Y05031D02*
X15232Y05031D01*
X15232Y05031D02*
X15028Y04827D01*
X15028Y04827D02*
X14500Y04827D01*
X14500Y05125D02*
X14500Y04827D01*
X17118Y03858D02*
X17118Y04198D01*
X16954Y04362D02*
X16612Y04362D01*
X17118Y04198D02*
X16954Y04362D01*
X11025Y11093D02*
X12593Y09525D01*
X16612Y04362D02*
X16395Y04579D01*
X16395Y04579D02*
X16315Y04579D01*
X11025Y13000D02*
X11025Y11093D01*
X12593Y09525D02*
X15691Y09525D01*
X17353Y08016D02*
X16996Y07659D01*
X20016Y08016D02*
X17353Y08016D01*
X21000Y09000D02*
X20016Y08016D01*
X23368Y09328D02*
X23905Y09865D01*
X21000Y09000D02*
X21424Y09424D01*
X22897Y09328D02*
X23368Y09328D01*
X15691Y09525D02*
X17092Y10926D01*
X23905Y09865D02*
X23905Y09866D01*
X22845Y10926D02*
X23905Y09866D01*
X21424Y09424D02*
X22801Y09424D01*
X17092Y10926D02*
X22845Y10926D01*
X22801Y09424D02*
X22897Y09328D01*
X10400Y02913D02*
X11281Y02032D01*
X11281Y02032D02*
X11281Y01151D01*
X10018Y03634D02*
X10018Y03134D01*
X10239Y02913D02*
X10400Y02913D01*
X10018Y03134D02*
X10239Y02913D01*
X10000Y03652D02*
X10018Y03634D01*
X18137Y01142D02*
X18137Y00803D01*
X18541Y00803D02*
X18599Y00745D01*
X18137Y00803D02*
X18541Y00803D01*
X10000Y04000D02*
X10000Y03652D01*
X22431Y10600D02*
X22962Y10069D01*
X19600Y10600D02*
X22431Y10600D01*
X19000Y10000D02*
X19600Y10600D01*
X11578Y02569D02*
X11651Y02569D01*
X10500Y03826D02*
X11096Y03826D01*
X14732Y01608D02*
X15802Y01608D01*
X13999Y00875D02*
X14732Y01608D01*
X11907Y00875D02*
X13999Y00875D01*
X11735Y01047D02*
X11907Y00875D01*
X11735Y02485D02*
X11735Y01047D01*
X11651Y02569D02*
X11735Y02485D01*
X16142Y01608D02*
X15802Y01608D01*
X10500Y03647D02*
X11578Y02569D01*
X10500Y03652D02*
X10500Y03647D01*
X10500Y04000D02*
X10500Y03826D01*
X10500Y03826D02*
X10500Y03652D01*
X17372Y08530D02*
X17290Y08612D01*
X18530Y08530D02*
X17372Y08530D01*
X19000Y09000D02*
X18530Y08530D01*
X13626Y06174D02*
X15422Y06174D01*
X11204Y05527D02*
X12979Y05527D01*
X12979Y05527D02*
X13626Y06174D01*
X15422Y06174D02*
X16019Y05577D01*
X16019Y05577D02*
X18363Y05577D01*
X08000Y04000D02*
X08000Y04424D01*
X08000Y04424D02*
X08454Y04878D01*
X08454Y04878D02*
X08911Y04878D01*
X08911Y04878D02*
X09274Y05241D01*
X09274Y05241D02*
X10918Y05241D01*
X10918Y05241D02*
X11204Y05527D01*
X18858Y03392D02*
X18858Y03621D01*
X18858Y03621D02*
X19183Y03946D01*
X07000Y01652D02*
X07884Y00768D01*
X07000Y02000D02*
X07000Y01652D01*
X07884Y00768D02*
X08549Y00768D01*
X19198Y01607D02*
X19198Y01020D01*
X19198Y01020D02*
X19391Y00827D01*
X18858Y01607D02*
X19198Y01607D01*
X20000Y09279D02*
X20000Y09000D01*
X20559Y09838D02*
X20000Y09279D01*
X20559Y10224D02*
X20559Y09838D01*
X20772Y10437D02*
X20559Y10224D01*
X22362Y10437D02*
X20772Y10437D01*
X23267Y09571D02*
X22885Y09571D01*
X22717Y09739D02*
X22717Y10082D01*
X22885Y09571D02*
X22717Y09739D01*
X22717Y10082D02*
X22362Y10437D01*
X08000Y02000D02*
X08000Y01826D01*
X16862Y00803D02*
X15765Y00803D01*
X08375Y03206D02*
X09381Y03206D01*
X08345Y01307D02*
X09322Y01307D01*
X08000Y02000D02*
X08000Y02831D01*
X08000Y01652D02*
X08345Y01307D01*
X15765Y00803D02*
X15446Y01122D01*
X08000Y01826D02*
X08000Y01652D01*
X08000Y02831D02*
X08375Y03206D01*
X16862Y01142D02*
X16862Y00803D01*
X08500Y02000D02*
X08500Y02348D01*
X16352Y01397D02*
X16607Y01142D01*
X14753Y01397D02*
X16352Y01397D01*
X14067Y00711D02*
X14753Y01397D01*
X11777Y00711D02*
X14067Y00711D01*
X11571Y00917D02*
X11777Y00711D01*
X11571Y02010D02*
X11571Y00917D01*
X10261Y03320D02*
X11571Y02010D01*
X08500Y02348D02*
X08745Y02593D01*
X08745Y02593D02*
X08745Y02610D01*
X10255Y01604D02*
X10254Y01604D01*
X10203Y02348D02*
X09000Y02348D01*
X09000Y02783D02*
X09015Y02798D01*
X09000Y02348D02*
X09000Y02783D01*
X10254Y01604D02*
X10254Y02297D01*
X09000Y02000D02*
X09000Y02348D01*
X18392Y01142D02*
X18665Y01142D01*
X10254Y02297D02*
X10203Y02348D01*
X09500Y01652D02*
X08349Y01652D01*
X08349Y01652D02*
X08276Y01725D01*
X08276Y01725D02*
X08276Y02610D01*
X09303Y00820D02*
X09579Y01096D01*
X09579Y01573D02*
X09500Y01652D01*
X09500Y02000D02*
X09500Y01652D01*
X17117Y01142D02*
X17117Y00652D01*
X17117Y00652D02*
X17095Y00630D01*
X17095Y00630D02*
X14704Y00630D01*
X14704Y00630D02*
X14518Y00816D01*
X09579Y01096D02*
X09579Y01573D01*
X09500Y04348D02*
X09474Y04374D01*
X12235Y04348D02*
X09500Y04348D01*
X12349Y04234D02*
X12235Y04348D01*
X16142Y03393D02*
X15802Y03393D01*
X15802Y03393D02*
X15757Y03438D01*
X15757Y03438D02*
X15171Y03438D01*
X09474Y04374D02*
X09244Y04374D01*
X09500Y04000D02*
X09500Y04348D01*
X12677Y04261D02*
X12331Y04607D01*
X12331Y04607D02*
X09361Y04607D01*
X09361Y04607D02*
X09350Y04618D01*
X09350Y04618D02*
X09127Y04618D01*
X09127Y04618D02*
X09000Y04491D01*
X09000Y04491D02*
X09000Y04433D01*
X09000Y04433D02*
X08920Y04433D01*
X09000Y04000D02*
X09000Y04433D01*
X18858Y02627D02*
X19278Y02627D01*
X12677Y04212D02*
X12677Y04261D01*
X16096Y06377D02*
X16228Y06245D01*
X13461Y06377D02*
X16096Y06377D01*
X12937Y05853D02*
X13461Y06377D01*
X10935Y05853D02*
X12937Y05853D01*
X10486Y05404D02*
X10935Y05853D01*
X08959Y05404D02*
X10486Y05404D01*
X08676Y05121D02*
X08959Y05404D01*
X18138Y04198D02*
X18091Y04245D01*
X08500Y04000D02*
X08500Y04348D01*
X08511Y04348D02*
X08596Y04433D01*
X08500Y04348D02*
X08511Y04348D01*
X18091Y04245D02*
X18091Y04338D01*
X18138Y03858D02*
X18138Y04198D01*
X09123Y07251D02*
X08131Y07251D01*
X21000Y10000D02*
X20500Y09500D01*
X20500Y09500D02*
X20500Y08896D01*
X20500Y08896D02*
X19807Y08203D01*
X19807Y08203D02*
X16785Y08203D01*
X16785Y08203D02*
X16168Y07586D01*
X16168Y07586D02*
X09458Y07586D01*
X09458Y07586D02*
X09123Y07251D01*
X08131Y07251D02*
X05925Y05045D01*
X05925Y05045D02*
X05925Y03793D01*
X05925Y03793D02*
X05556Y03424D01*
X05556Y03424D02*
X04316Y03424D01*
X04316Y03424D02*
X03750Y02858D01*
X03750Y02858D02*
X02920Y02858D01*
X02920Y02858D02*
X02757Y02695D01*
X02757Y02695D02*
X02587Y02695D01*
X02587Y02695D02*
X01865Y01973D01*
X01865Y01973D02*
X00500Y01973D01*
X00500Y01500D02*
X00500Y01973D01*
X15041Y07749D02*
X09390Y07749D01*
X08063Y07414D02*
X05762Y05113D01*
X09055Y07414D02*
X08063Y07414D01*
X09390Y07749D02*
X09055Y07414D01*
X05762Y05113D02*
X05762Y03861D01*
X15658Y08366D02*
X15041Y07749D01*
X19068Y08366D02*
X15658Y08366D01*
X19434Y08732D02*
X19068Y08366D01*
X19434Y09434D02*
X19434Y08732D01*
X20000Y10000D02*
X19434Y09434D01*
X05488Y03587D02*
X04017Y03587D01*
X04017Y03587D02*
X03451Y03021D01*
X03451Y03021D02*
X02646Y03021D01*
X05762Y03861D02*
X05488Y03587D01*
X02500Y02000D02*
X02500Y02348D01*
X17573Y07610D02*
X18774Y07610D01*
X03023Y02695D02*
X03818Y02695D01*
X18774Y07610D02*
X19000Y07384D01*
X04162Y03039D02*
X04325Y03039D01*
X03818Y02695D02*
X04162Y03039D01*
X02676Y02348D02*
X03023Y02695D01*
X02500Y02348D02*
X02676Y02348D01*
X24169Y09500D02*
X25500Y09500D01*
X22070Y07401D02*
X24169Y09500D01*
X22070Y06996D02*
X22070Y07401D01*
X21406Y06332D02*
X22070Y06996D01*
X21138Y06332D02*
X21406Y06332D01*
X20654Y05848D02*
X21138Y06332D01*
X20061Y05848D02*
X20654Y05848D01*
X19000Y06909D02*
X20061Y05848D01*
X19000Y07384D02*
X19000Y06909D01*
X08140Y07740D02*
X09074Y07740D01*
X04500Y04100D02*
X08140Y07740D01*
X09074Y07740D02*
X09271Y07937D01*
X16142Y01863D02*
X15721Y01863D01*
X10073Y12952D02*
X10025Y13000D01*
X10073Y07947D02*
X10073Y12952D01*
X10063Y07937D02*
X10073Y07947D01*
X09271Y07937D02*
X10063Y07937D01*
X08973Y07983D02*
X09091Y08101D01*
X10332Y02750D02*
X10955Y02127D01*
X10955Y02127D02*
X10955Y00907D01*
X10171Y02750D02*
X10332Y02750D01*
X11476Y00386D02*
X17112Y00386D01*
X17112Y00386D02*
X17328Y00602D01*
X17328Y00602D02*
X17328Y01098D01*
X17328Y01098D02*
X17372Y01142D01*
X10955Y00907D02*
X11476Y00386D01*
X09855Y03066D02*
X10171Y02750D01*
X09855Y03490D02*
X09855Y03066D01*
X09693Y03652D02*
X09855Y03490D01*
X08349Y03652D02*
X09693Y03652D01*
X08276Y03725D02*
X08349Y03652D01*
X08276Y04469D02*
X08276Y03725D01*
X08522Y04715D02*
X08276Y04469D01*
X08979Y04715D02*
X08522Y04715D01*
X09114Y04850D02*
X08979Y04715D01*
X09461Y04850D02*
X09114Y04850D01*
X09517Y12850D02*
X09517Y13453D01*
X04000Y04100D02*
X04000Y04448D01*
X09611Y14586D02*
X19414Y14586D01*
X09091Y08101D02*
X09703Y08101D01*
X09703Y08101D02*
X09904Y08302D01*
X09025Y14000D02*
X09611Y14586D01*
X04000Y04448D02*
X04525Y04448D01*
X19414Y14586D02*
X20000Y14000D01*
X08060Y07983D02*
X08973Y07983D01*
X09904Y12463D02*
X09517Y12850D01*
X09904Y08302D02*
X09904Y12463D01*
X04525Y04448D02*
X08060Y07983D01*
X06903Y07536D02*
X06291Y07536D01*
X09025Y13000D02*
X09025Y09658D01*
X09025Y09658D02*
X06903Y07536D01*
X20245Y03268D02*
X19589Y03924D01*
X20245Y03196D02*
X20245Y03268D01*
X19421Y02372D02*
X20245Y03196D01*
X18858Y02372D02*
X19421Y02372D01*
X06291Y07536D02*
X03500Y04745D01*
X03500Y04745D02*
X03500Y04448D01*
X03500Y04100D02*
X03500Y04448D01*
X18286Y04615D02*
X18012Y04615D01*
X17848Y04233D02*
X17883Y04198D01*
X03000Y04476D02*
X03000Y04448D01*
X06251Y07727D02*
X03000Y04476D01*
X06251Y09531D02*
X06251Y07727D01*
X08449Y11729D02*
X06251Y09531D01*
X08449Y13576D02*
X08449Y11729D01*
X18012Y04615D02*
X17848Y04451D01*
X03000Y04100D02*
X03000Y04448D01*
X08449Y13576D02*
X08025Y14000D01*
X09212Y13576D02*
X08449Y13576D01*
X09462Y13826D02*
X09212Y13576D01*
X09462Y14036D02*
X09462Y13826D01*
X09849Y14423D02*
X09462Y14036D01*
X17848Y04451D02*
X17848Y04233D01*
X17883Y03858D02*
X17883Y04198D01*
X18000Y14000D02*
X17577Y14423D01*
X17577Y14423D02*
X09849Y14423D01*
X05000Y03752D02*
X03889Y03752D01*
X03889Y03752D02*
X03402Y03265D01*
X03402Y03265D02*
X03039Y03265D01*
X05000Y03926D02*
X05326Y03926D01*
X05326Y03926D02*
X05500Y04100D01*
X05000Y03926D02*
X05000Y03752D01*
X05000Y04100D02*
X05000Y03926D01*
X18858Y01862D02*
X19198Y01862D01*
X19826Y01234D02*
X19826Y00637D01*
X19198Y01862D02*
X19826Y01234D01*
X12025Y13000D02*
X12888Y12137D01*
X21088Y07377D02*
X21088Y06651D01*
X21110Y07399D02*
X21088Y07377D01*
X21836Y07399D02*
X21110Y07399D01*
X24284Y09847D02*
X21836Y07399D01*
X22404Y11727D02*
X24284Y09847D01*
X19273Y11727D02*
X22404Y11727D01*
X18000Y13000D02*
X19273Y11727D01*
X17137Y12137D02*
X18000Y13000D01*
X12888Y12137D02*
X17137Y12137D01*
X24284Y09847D02*
X24937Y10500D01*
X21088Y06651D02*
X20651Y06214D01*
X18858Y03137D02*
X19198Y03137D01*
X19198Y03137D02*
X19198Y03171D01*
X19198Y03171D02*
X19571Y03544D01*
X25500Y10500D02*
X24937Y10500D01*
X19366Y02882D02*
X19799Y03315D01*
X18858Y02882D02*
X19366Y02882D01*
X10261Y06345D02*
X10645Y06729D01*
X08499Y06345D02*
X10261Y06345D01*
X06374Y04220D02*
X08499Y06345D01*
X12025Y14000D02*
X11601Y13576D01*
X11601Y13576D02*
X11601Y12625D01*
X03500Y01652D02*
X04711Y01652D01*
X04711Y01652D02*
X04732Y01673D01*
X04732Y01673D02*
X04732Y02330D01*
X03500Y02000D02*
X03500Y01652D01*
X05093Y02691D02*
X05233Y02691D01*
X04732Y02330D02*
X05093Y02691D01*
X04000Y02348D02*
X04264Y02348D01*
X04264Y02348D02*
X05014Y03098D01*
X05014Y03098D02*
X06689Y03098D01*
X06689Y03098D02*
X07246Y03655D01*
X07246Y03655D02*
X07246Y04335D01*
X07246Y04335D02*
X08641Y05730D01*
X08641Y05730D02*
X10336Y05730D01*
X10336Y05730D02*
X10865Y06259D01*
X14000Y08500D02*
X13291Y08500D01*
X13291Y08500D02*
X10601Y11190D01*
X10601Y11190D02*
X10601Y13424D01*
X10601Y13424D02*
X10025Y14000D01*
X04000Y02000D02*
X04000Y02348D01*
X07838Y03312D02*
X07723Y03427D01*
X07723Y03427D02*
X07261Y03427D01*
X07261Y03427D02*
X06769Y02935D01*
X06769Y02935D02*
X05087Y02935D01*
X05087Y02935D02*
X04500Y02348D01*
X04500Y02000D02*
X04500Y02348D01*
X10836Y06994D02*
X10172Y06994D01*
X10172Y06994D02*
X09702Y06524D01*
X05000Y02348D02*
X05234Y02348D01*
X09702Y06524D02*
X07990Y06524D01*
X05234Y02348D02*
X05641Y02755D01*
X05000Y02000D02*
X05000Y02348D01*
X05641Y02755D02*
X07085Y02755D01*
X07085Y02755D02*
X07514Y03184D01*
X15369Y04822D02*
X15329Y04782D01*
X17628Y03858D02*
X17628Y04198D01*
X16439Y04822D02*
X15369Y04822D01*
X16644Y04617D02*
X16439Y04822D01*
X17400Y04617D02*
X16644Y04617D01*
X17628Y04389D02*
X17400Y04617D01*
X17628Y04198D02*
X17628Y04389D01*
X05901Y06056D02*
X05385Y06056D01*
X08345Y08500D02*
X05901Y06056D01*
X09500Y08500D02*
X08345Y08500D01*
X01063Y04500D02*
X01291Y04728D01*
X08182Y00223D02*
X06688Y01717D01*
X06450Y05338D02*
X06450Y05216D01*
X08112Y07000D02*
X06450Y05338D01*
X09500Y07000D02*
X08112Y07000D01*
X01291Y04728D02*
X02609Y04728D01*
X17627Y01142D02*
X17627Y00901D01*
X17627Y00901D02*
X17491Y00765D01*
X17491Y00765D02*
X17491Y00406D01*
X17491Y00406D02*
X17308Y00223D01*
X17308Y00223D02*
X08182Y00223D01*
X06688Y01717D02*
X06688Y02119D01*
X00500Y04500D02*
X01063Y04500D01*
X05898Y06299D02*
X05285Y06299D01*
X09500Y10250D02*
X09500Y09901D01*
X09500Y09901D02*
X05898Y06299D01*
X05285Y06299D02*
X03724Y04738D01*
X03724Y04738D02*
X03724Y03825D01*
X03724Y03825D02*
X03420Y03521D01*
X03420Y03521D02*
X03241Y03521D01*
X03241Y03521D02*
X03241Y03520D01*
X17882Y00803D02*
X17872Y00803D01*
X17872Y00803D02*
X17783Y00714D01*
X17882Y01142D02*
X17882Y00803D01*
X05750Y08000D02*
X05250Y08500D01*
X05250Y08500D02*
X05250Y09268D01*
X05250Y09268D02*
X05018Y09500D01*
X05018Y09500D02*
X00500Y09500D01*
X03250Y11500D02*
X00500Y11500D01*
X05750Y09000D02*
X03250Y11500D01*
X04250Y08500D02*
X00500Y08500D01*
X04750Y09000D02*
X04250Y08500D01*
X21500Y01750D02*
X21500Y02200D01*
X18858Y02117D02*
X20639Y02117D01*
X18393Y03858D02*
X18393Y04198D01*
X21000Y02857D02*
X19659Y04198D01*
X21000Y02736D02*
X21000Y02857D01*
X19659Y04198D02*
X18393Y04198D01*
X21000Y01750D02*
X21000Y02200D01*
X21000Y02200D02*
X21000Y02736D01*
X16142Y03138D02*
X15718Y03138D01*
X23000Y02200D02*
X23000Y02736D01*
X22875Y03250D02*
X22875Y02852D01*
X23000Y02736D02*
X22991Y02736D01*
X22991Y02736D02*
X22875Y02852D01*
X23000Y01750D02*
X23000Y02200D01*
X25500Y05500D02*
X25500Y05973D01*
X22250Y05500D02*
X22723Y05973D01*
X22723Y05973D02*
X25500Y05973D01*
X25500Y06500D02*
X24937Y06500D01*
X21000Y05568D02*
X21000Y05500D01*
X21931Y06499D02*
X21000Y05568D01*
X24937Y06499D02*
X21931Y06499D01*
X24937Y06500D02*
X24937Y06499D01*
X19932Y05568D02*
X18500Y07000D01*
X21000Y05568D02*
X19932Y05568D01*
X20853Y07853D02*
X17473Y07853D01*
X17330Y07710D02*
X17330Y07628D01*
X17473Y07853D02*
X17330Y07710D01*
X17330Y07628D02*
X17000Y07298D01*
X06104Y03666D02*
X06104Y04701D01*
X09203Y00577D02*
X09404Y00577D01*
X22000Y09000D02*
X20853Y07853D01*
X09404Y00577D02*
X09577Y00750D01*
X02500Y04100D02*
X02500Y04448D01*
X03750Y08000D02*
X03750Y05520D01*
X03750Y05520D02*
X02678Y04448D01*
X02678Y04448D02*
X02500Y04448D01*
X17000Y07298D02*
X17000Y06173D01*
X03000Y02348D02*
X03702Y02348D01*
X03702Y02348D02*
X04128Y02774D01*
X04128Y02774D02*
X04459Y02774D01*
X04459Y02774D02*
X04946Y03261D01*
X04946Y03261D02*
X05699Y03261D01*
X05699Y03261D02*
X06104Y03666D01*
X06104Y04701D02*
X06176Y04773D01*
X08686Y06034D02*
X10294Y06034D01*
X14937Y02047D02*
X14347Y02047D01*
X14347Y02047D02*
X13750Y01450D01*
X13750Y03550D02*
X14098Y03550D01*
X16903Y03130D02*
X16871Y03130D01*
X16871Y03130D02*
X16319Y03682D01*
X16319Y03682D02*
X14230Y03682D01*
X14230Y03682D02*
X14098Y03550D01*
X16903Y03130D02*
X16870Y03130D01*
X17500Y03130D02*
X16903Y03130D01*
X07000Y04348D02*
X08686Y06034D01*
X08741Y01039D02*
X09203Y00577D01*
X10294Y06034D02*
X11679Y07419D01*
X11679Y07419D02*
X16879Y07419D01*
X16879Y07419D02*
X17000Y07298D01*
X03726Y00750D02*
X04125Y00351D01*
X04125Y00351D02*
X04919Y00351D01*
X04919Y00351D02*
X04941Y00373D01*
X04941Y00373D02*
X04941Y00837D01*
X04941Y00837D02*
X06466Y02362D01*
X06466Y02362D02*
X07193Y02362D01*
X07193Y02362D02*
X07277Y02278D01*
X07277Y02278D02*
X07277Y01660D01*
X07277Y01660D02*
X07898Y01039D01*
X07898Y01039D02*
X08741Y01039D01*
X03577Y00750D02*
X03577Y01075D01*
X03577Y01075D02*
X03000Y01652D01*
X22000Y13250D02*
X24687Y13250D01*
X24687Y13250D02*
X24937Y13500D01*
X13025Y13000D02*
X13525Y13500D01*
X13525Y13500D02*
X21750Y13500D01*
X21750Y13500D02*
X22000Y13250D01*
X22000Y13250D02*
X22000Y13000D01*
X25500Y13500D02*
X24937Y13500D01*
X21500Y01250D02*
X21781Y01250D01*
X22000Y01080D02*
X21951Y01080D01*
X21951Y01080D02*
X21781Y01250D01*
X22000Y01080D02*
X22000Y00910D01*
X22000Y01250D02*
X22000Y01080D01*
X23000Y00725D02*
X23000Y01250D01*
X17500Y01870D02*
X18130Y01870D01*
X18130Y03130D02*
X17500Y03130D01*
X07000Y04000D02*
X07000Y04348D01*
X06104Y03666D02*
X06118Y03652D01*
X06118Y03652D02*
X07000Y03652D01*
X09875Y00750D02*
X09577Y00750D01*
X03000Y01982D02*
X03000Y01652D01*
X03726Y00750D02*
X03577Y00750D01*
X03875Y00750D02*
X03726Y00750D01*
X17750Y05875D02*
X17352Y05875D01*
X17000Y06024D02*
X17203Y06024D01*
X17203Y06024D02*
X17352Y05875D01*
X17000Y06024D02*
X17000Y06173D01*
X17000Y05875D02*
X17000Y06024D01*
X07000Y04000D02*
X07000Y03652D01*
X03000Y02000D02*
X03000Y02348D01*
X22000Y00725D02*
X21500Y00725D01*
X03000Y01982D02*
X03000Y02000D01*
X09875Y00750D02*
X09875Y01148D01*
X09875Y01527D02*
X09875Y01148D01*
X10000Y01652D02*
X09875Y01527D01*
X10000Y02000D02*
X10000Y01652D01*
X22000Y00725D02*
X22000Y00910D01*
X14500Y08081D02*
X12919Y08081D01*
X14500Y08500D02*
X14500Y08081D01*
X12919Y08081D02*
X12500Y08500D01*
X14500Y10250D02*
X14500Y09831D01*
X12919Y09831D02*
X12500Y10250D01*
X14500Y09831D02*
X12919Y09831D01*
X13750Y01802D02*
X13304Y01802D01*
X16142Y02373D02*
X15802Y02373D01*
X15802Y02373D02*
X13825Y02373D01*
X13825Y02373D02*
X13750Y02298D01*
X13750Y02050D02*
X13750Y02298D01*
X12500Y01594D02*
X13096Y01594D01*
X13750Y02050D02*
X13750Y01802D01*
X13304Y01802D02*
X13096Y01594D01*
X16448Y03858D02*
X16215Y04091D01*
X16608Y03858D02*
X16448Y03858D01*
X15928Y04335D02*
X16353Y04335D01*
X16353Y04335D02*
X16490Y04198D01*
X16490Y04198D02*
X16863Y04198D01*
X16863Y03858D02*
X16863Y04198D01*
X13402Y03100D02*
X13096Y03406D01*
X13402Y02950D02*
X13402Y03100D01*
X12500Y03406D02*
X13096Y03406D01*
X13750Y02950D02*
X13402Y02950D01*
X13750Y02950D02*
X14098Y02950D01*
X16142Y02628D02*
X15802Y02628D01*
X14420Y02628D02*
X14098Y02950D01*
X15802Y02628D02*
X14420Y02628D01*
X09574Y03488D02*
X08081Y03488D01*
X09634Y02843D02*
X09634Y03428D01*
X09634Y03428D02*
X09574Y03488D01*
X10500Y02348D02*
X10336Y02512D01*
X09965Y02512D02*
X09634Y02843D01*
X10336Y02512D02*
X09965Y02512D01*
X10500Y02000D02*
X10500Y02348D01*
X05500Y02348D02*
X05743Y02591D01*
X05743Y02591D02*
X07461Y02591D01*
X07461Y02591D02*
X08081Y03211D01*
X08081Y03211D02*
X08081Y03488D01*
X15000Y07000D02*
X15000Y06581D01*
X05500Y02000D02*
X05500Y02348D01*
X13042Y06581D02*
X15000Y06581D01*
X12477Y06016D02*
X13042Y06581D01*
X10867Y06016D02*
X12477Y06016D01*
X10418Y05567D02*
X10867Y06016D01*
X08709Y05567D02*
X10418Y05567D01*
X07759Y04617D02*
X08709Y05567D01*
X07759Y03735D02*
X07759Y04617D01*
X08006Y03488D02*
X07759Y03735D01*
X08081Y03488D02*
X08006Y03488D01*
X21577Y14423D02*
X21243Y14757D01*
X10625Y00750D02*
X10625Y01148D01*
X10625Y01527D02*
X10500Y01652D01*
X10625Y01148D02*
X10625Y01527D01*
X10500Y01826D02*
X10500Y01652D01*
X04996Y01148D02*
X04625Y01148D01*
X05500Y01652D02*
X04996Y01148D01*
X05500Y02000D02*
X05500Y01652D01*
X04625Y00750D02*
X04625Y01148D01*
X00500Y14500D02*
X01063Y14500D01*
X01320Y14757D02*
X01063Y14500D01*
X21243Y14757D02*
X01320Y14757D01*
X10500Y01826D02*
X10500Y02000D01*
X21577Y14000D02*
X21577Y14423D01*
X15000Y10250D02*
X15000Y10460D01*
X15867Y11327D02*
X21577Y11327D01*
X15000Y10460D02*
X15867Y11327D01*
X22000Y14000D02*
X21577Y14000D01*
M02*
