M48
INCH,TZ
T1C0.025
T2C0.035
T3C0.039
T4C0.040
T5C0.059
T6C0.122
%
G90
G05
T1
X4918Y4143
X5952Y5855
X7349Y9327
X8248Y14595
X10689Y14595
X10804Y5422
X11666Y9327
X11978Y3112
X13355Y9305
X16062Y1980
X16579Y4921
X16600Y2864
X17012Y3461
X17416Y4051
X17845Y5718
X18091Y12378
X18229Y4883
X18824Y14504
X19695Y5411
X19933Y11744
X20263Y10932
X22624Y5274
X23089Y5744
X24966Y9331
X31551Y13626
X31551Y10021
T2
X1907Y6616
X1907Y4884
T3
X1000Y16000
X1000Y15000
X1000Y13500
X1000Y12500
X1000Y11500
X1000Y10500
X1000Y9500
X1000Y8500
X4721Y18636
X4721Y16864
X7280Y18636
X7280Y16864
X8971Y18636
X8971Y16864
X11530Y18636
X11530Y16864
X14250Y18250
X14250Y17250
X15250Y18250
X15250Y17250
X16250Y18250
X16250Y17250
T4
X4900Y12350
X4900Y11350
X4900Y10350
X4900Y9350
X4900Y8350
X4900Y7350
X5900Y12850
X5900Y6850
X6900Y12850
X6900Y6850
X7900Y12850
X7900Y6850
X8900Y12850
X8900Y6850
X9400Y11850
X9900Y12850
X9900Y6850
X10400Y11850
X10900Y12850
X10900Y6850
X11900Y12850
X11900Y6850
X12900Y12850
X12900Y6850
X13400Y11850
X13900Y12850
X13900Y6850
X14400Y11850
X14900Y12850
X14900Y6850
X15900Y12850
X15900Y6850
X16900Y12850
X16900Y11350
X16900Y10350
X16900Y9350
X16900Y8350
X16900Y6850
X20750Y18250
X20750Y17250
X21750Y18250
X21750Y17250
X22750Y18250
X22750Y17250
X23750Y18250
X23750Y17250
X24750Y18250
X24750Y17250
X25750Y18250
X25750Y17250
X29250Y18250
X30250Y18250
X31250Y18250
X32250Y18250
X33250Y18250
X34250Y18250
T5
X27559Y11923
X27559Y3853
T6
X1575Y18110
X1575Y1575
X37795Y18110
X37795Y1575
T0
M30
