G04 (created by PCBNEW (2013-07-07 BZR 4022)-stable) date 31/12/2015 20:31:10*
%MOIN*%
G04 Gerber Fmt 3.4, Leading zero omitted, Abs format*
%FSLAX34Y34*%
G01*
G70*
G90*
G04 APERTURE LIST*
%ADD10C,0.00590551*%
%ADD11C,0.00393701*%
%ADD12C,0.004*%
%ADD13C,0.0031*%
%ADD14C,0.0026*%
%ADD15C,0.002*%
%ADD16C,0.005*%
%ADD17C,0.0055*%
G04 APERTURE END LIST*
G54D10*
G54D11*
X39370Y0D02*
X0Y0D01*
X39370Y19685D02*
X39370Y0D01*
X0Y19685D02*
X39370Y19685D01*
X0Y0D02*
X0Y19685D01*
G54D12*
X6939Y9742D02*
X6939Y9942D01*
X7539Y10192D02*
X7564Y10192D01*
X7664Y9492D02*
X7539Y9492D01*
X7564Y10192D02*
X7664Y10192D01*
X7664Y9492D02*
X7664Y10192D01*
X6939Y9842D02*
X6839Y9742D01*
X6839Y9742D02*
X6839Y9942D01*
X6839Y9942D02*
X6939Y9842D01*
G54D13*
X7309Y9362D02*
G75*
G03X7309Y9362I-120J0D01*
G74*
G01*
X6489Y10087D02*
X7289Y10087D01*
X6489Y9597D02*
X7284Y9597D01*
X7289Y9977D02*
X7289Y10087D01*
X7284Y9707D02*
X7284Y9607D01*
X6489Y9977D02*
X6489Y10087D01*
X6489Y9597D02*
X6489Y9707D01*
G54D14*
X7085Y9960D02*
X7085Y10088D01*
X7085Y9715D02*
X7085Y9774D01*
X7085Y9910D02*
X7085Y9969D01*
X7085Y9764D02*
X7085Y9920D01*
X6693Y9960D02*
X6693Y10088D01*
X6693Y9596D02*
X6693Y9724D01*
X6693Y9910D02*
X6693Y9969D01*
X6693Y9715D02*
X6693Y9774D01*
X6693Y9764D02*
X6693Y9920D01*
X7085Y9606D02*
X7085Y9724D01*
G54D15*
X7227Y9655D02*
G75*
G03X7227Y9655I-28J0D01*
G74*
G01*
G54D12*
X7282Y9705D02*
G75*
G02X7282Y9979I0J137D01*
G74*
G01*
X6496Y9979D02*
G75*
G02X6496Y9705I0J-137D01*
G74*
G01*
X3002Y5805D02*
X3002Y6005D01*
X3602Y6255D02*
X3627Y6255D01*
X3727Y5555D02*
X3602Y5555D01*
X3627Y6255D02*
X3727Y6255D01*
X3727Y5555D02*
X3727Y6255D01*
X3002Y5905D02*
X2902Y5805D01*
X2902Y5805D02*
X2902Y6005D01*
X2902Y6005D02*
X3002Y5905D01*
G54D13*
X3372Y5425D02*
G75*
G03X3372Y5425I-120J0D01*
G74*
G01*
X2552Y6150D02*
X3352Y6150D01*
X2552Y5660D02*
X3347Y5660D01*
X3352Y6040D02*
X3352Y6150D01*
X3347Y5770D02*
X3347Y5670D01*
X2552Y6040D02*
X2552Y6150D01*
X2552Y5660D02*
X2552Y5770D01*
G54D14*
X3148Y6023D02*
X3148Y6151D01*
X3148Y5778D02*
X3148Y5837D01*
X3148Y5973D02*
X3148Y6032D01*
X3148Y5827D02*
X3148Y5983D01*
X2756Y6023D02*
X2756Y6151D01*
X2756Y5659D02*
X2756Y5787D01*
X2756Y5973D02*
X2756Y6032D01*
X2756Y5778D02*
X2756Y5837D01*
X2756Y5827D02*
X2756Y5983D01*
X3148Y5669D02*
X3148Y5787D01*
G54D15*
X3290Y5718D02*
G75*
G03X3290Y5718I-28J0D01*
G74*
G01*
G54D12*
X3345Y5768D02*
G75*
G02X3345Y6042I0J137D01*
G74*
G01*
X2559Y6042D02*
G75*
G02X2559Y5768I0J-137D01*
G74*
G01*
X3002Y9742D02*
X3002Y9942D01*
X3602Y10192D02*
X3627Y10192D01*
X3727Y9492D02*
X3602Y9492D01*
X3627Y10192D02*
X3727Y10192D01*
X3727Y9492D02*
X3727Y10192D01*
X3002Y9842D02*
X2902Y9742D01*
X2902Y9742D02*
X2902Y9942D01*
X2902Y9942D02*
X3002Y9842D01*
G54D13*
X3372Y9362D02*
G75*
G03X3372Y9362I-120J0D01*
G74*
G01*
X2552Y10087D02*
X3352Y10087D01*
X2552Y9597D02*
X3347Y9597D01*
X3352Y9977D02*
X3352Y10087D01*
X3347Y9707D02*
X3347Y9607D01*
X2552Y9977D02*
X2552Y10087D01*
X2552Y9597D02*
X2552Y9707D01*
G54D14*
X3148Y9960D02*
X3148Y10088D01*
X3148Y9715D02*
X3148Y9774D01*
X3148Y9910D02*
X3148Y9969D01*
X3148Y9764D02*
X3148Y9920D01*
X2756Y9960D02*
X2756Y10088D01*
X2756Y9596D02*
X2756Y9724D01*
X2756Y9910D02*
X2756Y9969D01*
X2756Y9715D02*
X2756Y9774D01*
X2756Y9764D02*
X2756Y9920D01*
X3148Y9606D02*
X3148Y9724D01*
G54D15*
X3290Y9655D02*
G75*
G03X3290Y9655I-28J0D01*
G74*
G01*
G54D12*
X3345Y9705D02*
G75*
G02X3345Y9979I0J137D01*
G74*
G01*
X2559Y9979D02*
G75*
G02X2559Y9705I0J-137D01*
G74*
G01*
X3002Y13679D02*
X3002Y13879D01*
X3602Y14129D02*
X3627Y14129D01*
X3727Y13429D02*
X3602Y13429D01*
X3627Y14129D02*
X3727Y14129D01*
X3727Y13429D02*
X3727Y14129D01*
X3002Y13779D02*
X2902Y13679D01*
X2902Y13679D02*
X2902Y13879D01*
X2902Y13879D02*
X3002Y13779D01*
G54D13*
X3372Y13299D02*
G75*
G03X3372Y13299I-120J0D01*
G74*
G01*
X2552Y14024D02*
X3352Y14024D01*
X2552Y13534D02*
X3347Y13534D01*
X3352Y13914D02*
X3352Y14024D01*
X3347Y13644D02*
X3347Y13544D01*
X2552Y13914D02*
X2552Y14024D01*
X2552Y13534D02*
X2552Y13644D01*
G54D14*
X3148Y13897D02*
X3148Y14025D01*
X3148Y13652D02*
X3148Y13711D01*
X3148Y13847D02*
X3148Y13906D01*
X3148Y13701D02*
X3148Y13857D01*
X2756Y13897D02*
X2756Y14025D01*
X2756Y13533D02*
X2756Y13661D01*
X2756Y13847D02*
X2756Y13906D01*
X2756Y13652D02*
X2756Y13711D01*
X2756Y13701D02*
X2756Y13857D01*
X3148Y13543D02*
X3148Y13661D01*
G54D15*
X3290Y13592D02*
G75*
G03X3290Y13592I-28J0D01*
G74*
G01*
G54D12*
X3345Y13642D02*
G75*
G02X3345Y13916I0J137D01*
G74*
G01*
X2559Y13916D02*
G75*
G02X2559Y13642I0J-137D01*
G74*
G01*
X10876Y13679D02*
X10876Y13879D01*
X11476Y14129D02*
X11501Y14129D01*
X11601Y13429D02*
X11476Y13429D01*
X11501Y14129D02*
X11601Y14129D01*
X11601Y13429D02*
X11601Y14129D01*
X10876Y13779D02*
X10776Y13679D01*
X10776Y13679D02*
X10776Y13879D01*
X10776Y13879D02*
X10876Y13779D01*
G54D13*
X11246Y13299D02*
G75*
G03X11246Y13299I-120J0D01*
G74*
G01*
X10426Y14024D02*
X11226Y14024D01*
X10426Y13534D02*
X11221Y13534D01*
X11226Y13914D02*
X11226Y14024D01*
X11221Y13644D02*
X11221Y13544D01*
X10426Y13914D02*
X10426Y14024D01*
X10426Y13534D02*
X10426Y13644D01*
G54D14*
X11022Y13897D02*
X11022Y14025D01*
X11022Y13652D02*
X11022Y13711D01*
X11022Y13847D02*
X11022Y13906D01*
X11022Y13701D02*
X11022Y13857D01*
X10630Y13897D02*
X10630Y14025D01*
X10630Y13533D02*
X10630Y13661D01*
X10630Y13847D02*
X10630Y13906D01*
X10630Y13652D02*
X10630Y13711D01*
X10630Y13701D02*
X10630Y13857D01*
X11022Y13543D02*
X11022Y13661D01*
G54D15*
X11164Y13592D02*
G75*
G03X11164Y13592I-28J0D01*
G74*
G01*
G54D12*
X11219Y13642D02*
G75*
G02X11219Y13916I0J137D01*
G74*
G01*
X10433Y13916D02*
G75*
G02X10433Y13642I0J-137D01*
G74*
G01*
X10876Y9742D02*
X10876Y9942D01*
X11476Y10192D02*
X11501Y10192D01*
X11601Y9492D02*
X11476Y9492D01*
X11501Y10192D02*
X11601Y10192D01*
X11601Y9492D02*
X11601Y10192D01*
X10876Y9842D02*
X10776Y9742D01*
X10776Y9742D02*
X10776Y9942D01*
X10776Y9942D02*
X10876Y9842D01*
G54D13*
X11246Y9362D02*
G75*
G03X11246Y9362I-120J0D01*
G74*
G01*
X10426Y10087D02*
X11226Y10087D01*
X10426Y9597D02*
X11221Y9597D01*
X11226Y9977D02*
X11226Y10087D01*
X11221Y9707D02*
X11221Y9607D01*
X10426Y9977D02*
X10426Y10087D01*
X10426Y9597D02*
X10426Y9707D01*
G54D14*
X11022Y9960D02*
X11022Y10088D01*
X11022Y9715D02*
X11022Y9774D01*
X11022Y9910D02*
X11022Y9969D01*
X11022Y9764D02*
X11022Y9920D01*
X10630Y9960D02*
X10630Y10088D01*
X10630Y9596D02*
X10630Y9724D01*
X10630Y9910D02*
X10630Y9969D01*
X10630Y9715D02*
X10630Y9774D01*
X10630Y9764D02*
X10630Y9920D01*
X11022Y9606D02*
X11022Y9724D01*
G54D15*
X11164Y9655D02*
G75*
G03X11164Y9655I-28J0D01*
G74*
G01*
G54D12*
X11219Y9705D02*
G75*
G02X11219Y9979I0J137D01*
G74*
G01*
X10433Y9979D02*
G75*
G02X10433Y9705I0J-137D01*
G74*
G01*
X10876Y5805D02*
X10876Y6005D01*
X11476Y6255D02*
X11501Y6255D01*
X11601Y5555D02*
X11476Y5555D01*
X11501Y6255D02*
X11601Y6255D01*
X11601Y5555D02*
X11601Y6255D01*
X10876Y5905D02*
X10776Y5805D01*
X10776Y5805D02*
X10776Y6005D01*
X10776Y6005D02*
X10876Y5905D01*
G54D13*
X11246Y5425D02*
G75*
G03X11246Y5425I-120J0D01*
G74*
G01*
X10426Y6150D02*
X11226Y6150D01*
X10426Y5660D02*
X11221Y5660D01*
X11226Y6040D02*
X11226Y6150D01*
X11221Y5770D02*
X11221Y5670D01*
X10426Y6040D02*
X10426Y6150D01*
X10426Y5660D02*
X10426Y5770D01*
G54D14*
X11022Y6023D02*
X11022Y6151D01*
X11022Y5778D02*
X11022Y5837D01*
X11022Y5973D02*
X11022Y6032D01*
X11022Y5827D02*
X11022Y5983D01*
X10630Y6023D02*
X10630Y6151D01*
X10630Y5659D02*
X10630Y5787D01*
X10630Y5973D02*
X10630Y6032D01*
X10630Y5778D02*
X10630Y5837D01*
X10630Y5827D02*
X10630Y5983D01*
X11022Y5669D02*
X11022Y5787D01*
G54D15*
X11164Y5718D02*
G75*
G03X11164Y5718I-28J0D01*
G74*
G01*
G54D12*
X11219Y5768D02*
G75*
G02X11219Y6042I0J137D01*
G74*
G01*
X10433Y6042D02*
G75*
G02X10433Y5768I0J-137D01*
G74*
G01*
X6939Y13679D02*
X6939Y13879D01*
X7539Y14129D02*
X7564Y14129D01*
X7664Y13429D02*
X7539Y13429D01*
X7564Y14129D02*
X7664Y14129D01*
X7664Y13429D02*
X7664Y14129D01*
X6939Y13779D02*
X6839Y13679D01*
X6839Y13679D02*
X6839Y13879D01*
X6839Y13879D02*
X6939Y13779D01*
G54D13*
X7309Y13299D02*
G75*
G03X7309Y13299I-120J0D01*
G74*
G01*
X6489Y14024D02*
X7289Y14024D01*
X6489Y13534D02*
X7284Y13534D01*
X7289Y13914D02*
X7289Y14024D01*
X7284Y13644D02*
X7284Y13544D01*
X6489Y13914D02*
X6489Y14024D01*
X6489Y13534D02*
X6489Y13644D01*
G54D14*
X7085Y13897D02*
X7085Y14025D01*
X7085Y13652D02*
X7085Y13711D01*
X7085Y13847D02*
X7085Y13906D01*
X7085Y13701D02*
X7085Y13857D01*
X6693Y13897D02*
X6693Y14025D01*
X6693Y13533D02*
X6693Y13661D01*
X6693Y13847D02*
X6693Y13906D01*
X6693Y13652D02*
X6693Y13711D01*
X6693Y13701D02*
X6693Y13857D01*
X7085Y13543D02*
X7085Y13661D01*
G54D15*
X7227Y13592D02*
G75*
G03X7227Y13592I-28J0D01*
G74*
G01*
G54D12*
X7282Y13642D02*
G75*
G02X7282Y13916I0J137D01*
G74*
G01*
X6496Y13916D02*
G75*
G02X6496Y13642I0J-137D01*
G74*
G01*
X6939Y5805D02*
X6939Y6005D01*
X7539Y6255D02*
X7564Y6255D01*
X7664Y5555D02*
X7539Y5555D01*
X7564Y6255D02*
X7664Y6255D01*
X7664Y5555D02*
X7664Y6255D01*
X6939Y5905D02*
X6839Y5805D01*
X6839Y5805D02*
X6839Y6005D01*
X6839Y6005D02*
X6939Y5905D01*
G54D13*
X7309Y5425D02*
G75*
G03X7309Y5425I-120J0D01*
G74*
G01*
X6489Y6150D02*
X7289Y6150D01*
X6489Y5660D02*
X7284Y5660D01*
X7289Y6040D02*
X7289Y6150D01*
X7284Y5770D02*
X7284Y5670D01*
X6489Y6040D02*
X6489Y6150D01*
X6489Y5660D02*
X6489Y5770D01*
G54D14*
X7085Y6023D02*
X7085Y6151D01*
X7085Y5778D02*
X7085Y5837D01*
X7085Y5973D02*
X7085Y6032D01*
X7085Y5827D02*
X7085Y5983D01*
X6693Y6023D02*
X6693Y6151D01*
X6693Y5659D02*
X6693Y5787D01*
X6693Y5973D02*
X6693Y6032D01*
X6693Y5778D02*
X6693Y5837D01*
X6693Y5827D02*
X6693Y5983D01*
X7085Y5669D02*
X7085Y5787D01*
G54D15*
X7227Y5718D02*
G75*
G03X7227Y5718I-28J0D01*
G74*
G01*
G54D12*
X7282Y5768D02*
G75*
G02X7282Y6042I0J137D01*
G74*
G01*
X6496Y6042D02*
G75*
G02X6496Y5768I0J-137D01*
G74*
G01*
X37451Y5805D02*
X37451Y6005D01*
X38051Y6255D02*
X38076Y6255D01*
X38176Y5555D02*
X38051Y5555D01*
X38076Y6255D02*
X38176Y6255D01*
X38176Y5555D02*
X38176Y6255D01*
X37451Y5905D02*
X37351Y5805D01*
X37351Y5805D02*
X37351Y6005D01*
X37351Y6005D02*
X37451Y5905D01*
G54D13*
X37821Y5425D02*
G75*
G03X37821Y5425I-120J0D01*
G74*
G01*
X37001Y6150D02*
X37801Y6150D01*
X37001Y5660D02*
X37796Y5660D01*
X37801Y6040D02*
X37801Y6150D01*
X37796Y5770D02*
X37796Y5670D01*
X37001Y6040D02*
X37001Y6150D01*
X37001Y5660D02*
X37001Y5770D01*
G54D14*
X37597Y6023D02*
X37597Y6151D01*
X37597Y5778D02*
X37597Y5837D01*
X37597Y5973D02*
X37597Y6032D01*
X37597Y5827D02*
X37597Y5983D01*
X37205Y6023D02*
X37205Y6151D01*
X37205Y5659D02*
X37205Y5787D01*
X37205Y5973D02*
X37205Y6032D01*
X37205Y5778D02*
X37205Y5837D01*
X37205Y5827D02*
X37205Y5983D01*
X37597Y5669D02*
X37597Y5787D01*
G54D15*
X37738Y5718D02*
G75*
G03X37738Y5718I-28J0D01*
G74*
G01*
G54D12*
X37794Y5768D02*
G75*
G02X37794Y6042I0J137D01*
G74*
G01*
X37008Y6042D02*
G75*
G02X37008Y5768I0J-137D01*
G74*
G01*
X37451Y9742D02*
X37451Y9942D01*
X38051Y10192D02*
X38076Y10192D01*
X38176Y9492D02*
X38051Y9492D01*
X38076Y10192D02*
X38176Y10192D01*
X38176Y9492D02*
X38176Y10192D01*
X37451Y9842D02*
X37351Y9742D01*
X37351Y9742D02*
X37351Y9942D01*
X37351Y9942D02*
X37451Y9842D01*
G54D13*
X37821Y9362D02*
G75*
G03X37821Y9362I-120J0D01*
G74*
G01*
X37001Y10087D02*
X37801Y10087D01*
X37001Y9597D02*
X37796Y9597D01*
X37801Y9977D02*
X37801Y10087D01*
X37796Y9707D02*
X37796Y9607D01*
X37001Y9977D02*
X37001Y10087D01*
X37001Y9597D02*
X37001Y9707D01*
G54D14*
X37597Y9960D02*
X37597Y10088D01*
X37597Y9715D02*
X37597Y9774D01*
X37597Y9910D02*
X37597Y9969D01*
X37597Y9764D02*
X37597Y9920D01*
X37205Y9960D02*
X37205Y10088D01*
X37205Y9596D02*
X37205Y9724D01*
X37205Y9910D02*
X37205Y9969D01*
X37205Y9715D02*
X37205Y9774D01*
X37205Y9764D02*
X37205Y9920D01*
X37597Y9606D02*
X37597Y9724D01*
G54D15*
X37738Y9655D02*
G75*
G03X37738Y9655I-28J0D01*
G74*
G01*
G54D12*
X37794Y9705D02*
G75*
G02X37794Y9979I0J137D01*
G74*
G01*
X37008Y9979D02*
G75*
G02X37008Y9705I0J-137D01*
G74*
G01*
X37451Y13679D02*
X37451Y13879D01*
X38051Y14129D02*
X38076Y14129D01*
X38176Y13429D02*
X38051Y13429D01*
X38076Y14129D02*
X38176Y14129D01*
X38176Y13429D02*
X38176Y14129D01*
X37451Y13779D02*
X37351Y13679D01*
X37351Y13679D02*
X37351Y13879D01*
X37351Y13879D02*
X37451Y13779D01*
G54D13*
X37821Y13299D02*
G75*
G03X37821Y13299I-120J0D01*
G74*
G01*
X37001Y14024D02*
X37801Y14024D01*
X37001Y13534D02*
X37796Y13534D01*
X37801Y13914D02*
X37801Y14024D01*
X37796Y13644D02*
X37796Y13544D01*
X37001Y13914D02*
X37001Y14024D01*
X37001Y13534D02*
X37001Y13644D01*
G54D14*
X37597Y13897D02*
X37597Y14025D01*
X37597Y13652D02*
X37597Y13711D01*
X37597Y13847D02*
X37597Y13906D01*
X37597Y13701D02*
X37597Y13857D01*
X37205Y13897D02*
X37205Y14025D01*
X37205Y13533D02*
X37205Y13661D01*
X37205Y13847D02*
X37205Y13906D01*
X37205Y13652D02*
X37205Y13711D01*
X37205Y13701D02*
X37205Y13857D01*
X37597Y13543D02*
X37597Y13661D01*
G54D15*
X37738Y13592D02*
G75*
G03X37738Y13592I-28J0D01*
G74*
G01*
G54D12*
X37794Y13642D02*
G75*
G02X37794Y13916I0J137D01*
G74*
G01*
X37008Y13916D02*
G75*
G02X37008Y13642I0J-137D01*
G74*
G01*
X19735Y9742D02*
X19735Y9942D01*
X19635Y9742D02*
X19735Y9842D01*
X19735Y9842D02*
X19635Y9942D01*
X19635Y9942D02*
X19635Y9742D01*
G54D13*
X20105Y9362D02*
G75*
G03X20105Y9362I-120J0D01*
G74*
G01*
X19285Y10087D02*
X20085Y10087D01*
X19285Y9597D02*
X20080Y9597D01*
X20085Y9977D02*
X20085Y10087D01*
X20080Y9707D02*
X20080Y9607D01*
X19285Y9977D02*
X19285Y10087D01*
X19285Y9597D02*
X19285Y9707D01*
G54D14*
X19881Y9960D02*
X19881Y10088D01*
X19881Y9715D02*
X19881Y9774D01*
X19881Y9910D02*
X19881Y9969D01*
X19881Y9764D02*
X19881Y9920D01*
X19489Y9960D02*
X19489Y10088D01*
X19489Y9596D02*
X19489Y9724D01*
X19489Y9910D02*
X19489Y9969D01*
X19489Y9715D02*
X19489Y9774D01*
X19489Y9764D02*
X19489Y9920D01*
X19881Y9606D02*
X19881Y9724D01*
G54D15*
X20022Y9655D02*
G75*
G03X20022Y9655I-28J0D01*
G74*
G01*
G54D12*
X20078Y9705D02*
G75*
G02X20078Y9979I0J137D01*
G74*
G01*
X19292Y9979D02*
G75*
G02X19292Y9705I0J-137D01*
G74*
G01*
X19735Y5805D02*
X19735Y6005D01*
X19635Y5805D02*
X19735Y5905D01*
X19735Y5905D02*
X19635Y6005D01*
X19635Y6005D02*
X19635Y5805D01*
G54D13*
X20105Y5425D02*
G75*
G03X20105Y5425I-120J0D01*
G74*
G01*
X19285Y6150D02*
X20085Y6150D01*
X19285Y5660D02*
X20080Y5660D01*
X20085Y6040D02*
X20085Y6150D01*
X20080Y5770D02*
X20080Y5670D01*
X19285Y6040D02*
X19285Y6150D01*
X19285Y5660D02*
X19285Y5770D01*
G54D14*
X19881Y6023D02*
X19881Y6151D01*
X19881Y5778D02*
X19881Y5837D01*
X19881Y5973D02*
X19881Y6032D01*
X19881Y5827D02*
X19881Y5983D01*
X19489Y6023D02*
X19489Y6151D01*
X19489Y5659D02*
X19489Y5787D01*
X19489Y5973D02*
X19489Y6032D01*
X19489Y5778D02*
X19489Y5837D01*
X19489Y5827D02*
X19489Y5983D01*
X19881Y5669D02*
X19881Y5787D01*
G54D15*
X20022Y5718D02*
G75*
G03X20022Y5718I-28J0D01*
G74*
G01*
G54D12*
X20078Y5768D02*
G75*
G02X20078Y6042I0J137D01*
G74*
G01*
X19292Y6042D02*
G75*
G02X19292Y5768I0J-137D01*
G74*
G01*
X15798Y13679D02*
X15798Y13879D01*
X15698Y13679D02*
X15798Y13779D01*
X15798Y13779D02*
X15698Y13879D01*
X15698Y13879D02*
X15698Y13679D01*
G54D13*
X16168Y13299D02*
G75*
G03X16168Y13299I-120J0D01*
G74*
G01*
X15348Y14024D02*
X16148Y14024D01*
X15348Y13534D02*
X16143Y13534D01*
X16148Y13914D02*
X16148Y14024D01*
X16143Y13644D02*
X16143Y13544D01*
X15348Y13914D02*
X15348Y14024D01*
X15348Y13534D02*
X15348Y13644D01*
G54D14*
X15944Y13897D02*
X15944Y14025D01*
X15944Y13652D02*
X15944Y13711D01*
X15944Y13847D02*
X15944Y13906D01*
X15944Y13701D02*
X15944Y13857D01*
X15552Y13897D02*
X15552Y14025D01*
X15552Y13533D02*
X15552Y13661D01*
X15552Y13847D02*
X15552Y13906D01*
X15552Y13652D02*
X15552Y13711D01*
X15552Y13701D02*
X15552Y13857D01*
X15944Y13543D02*
X15944Y13661D01*
G54D15*
X16085Y13592D02*
G75*
G03X16085Y13592I-28J0D01*
G74*
G01*
G54D12*
X16141Y13642D02*
G75*
G02X16141Y13916I0J137D01*
G74*
G01*
X15355Y13916D02*
G75*
G02X15355Y13642I0J-137D01*
G74*
G01*
X15798Y9742D02*
X15798Y9942D01*
X15698Y9742D02*
X15798Y9842D01*
X15798Y9842D02*
X15698Y9942D01*
X15698Y9942D02*
X15698Y9742D01*
G54D13*
X16168Y9362D02*
G75*
G03X16168Y9362I-120J0D01*
G74*
G01*
X15348Y10087D02*
X16148Y10087D01*
X15348Y9597D02*
X16143Y9597D01*
X16148Y9977D02*
X16148Y10087D01*
X16143Y9707D02*
X16143Y9607D01*
X15348Y9977D02*
X15348Y10087D01*
X15348Y9597D02*
X15348Y9707D01*
G54D14*
X15944Y9960D02*
X15944Y10088D01*
X15944Y9715D02*
X15944Y9774D01*
X15944Y9910D02*
X15944Y9969D01*
X15944Y9764D02*
X15944Y9920D01*
X15552Y9960D02*
X15552Y10088D01*
X15552Y9596D02*
X15552Y9724D01*
X15552Y9910D02*
X15552Y9969D01*
X15552Y9715D02*
X15552Y9774D01*
X15552Y9764D02*
X15552Y9920D01*
X15944Y9606D02*
X15944Y9724D01*
G54D15*
X16085Y9655D02*
G75*
G03X16085Y9655I-28J0D01*
G74*
G01*
G54D12*
X16141Y9705D02*
G75*
G02X16141Y9979I0J137D01*
G74*
G01*
X15355Y9979D02*
G75*
G02X15355Y9705I0J-137D01*
G74*
G01*
X15798Y5805D02*
X15798Y6005D01*
X15698Y5805D02*
X15798Y5905D01*
X15798Y5905D02*
X15698Y6005D01*
X15698Y6005D02*
X15698Y5805D01*
G54D13*
X16168Y5425D02*
G75*
G03X16168Y5425I-120J0D01*
G74*
G01*
X15348Y6150D02*
X16148Y6150D01*
X15348Y5660D02*
X16143Y5660D01*
X16148Y6040D02*
X16148Y6150D01*
X16143Y5770D02*
X16143Y5670D01*
X15348Y6040D02*
X15348Y6150D01*
X15348Y5660D02*
X15348Y5770D01*
G54D14*
X15944Y6023D02*
X15944Y6151D01*
X15944Y5778D02*
X15944Y5837D01*
X15944Y5973D02*
X15944Y6032D01*
X15944Y5827D02*
X15944Y5983D01*
X15552Y6023D02*
X15552Y6151D01*
X15552Y5659D02*
X15552Y5787D01*
X15552Y5973D02*
X15552Y6032D01*
X15552Y5778D02*
X15552Y5837D01*
X15552Y5827D02*
X15552Y5983D01*
X15944Y5669D02*
X15944Y5787D01*
G54D15*
X16085Y5718D02*
G75*
G03X16085Y5718I-28J0D01*
G74*
G01*
G54D12*
X16141Y5768D02*
G75*
G02X16141Y6042I0J137D01*
G74*
G01*
X15355Y6042D02*
G75*
G02X15355Y5768I0J-137D01*
G74*
G01*
X19735Y13679D02*
X19735Y13879D01*
X19635Y13679D02*
X19735Y13779D01*
X19735Y13779D02*
X19635Y13879D01*
X19635Y13879D02*
X19635Y13679D01*
G54D13*
X20105Y13299D02*
G75*
G03X20105Y13299I-120J0D01*
G74*
G01*
X19285Y14024D02*
X20085Y14024D01*
X19285Y13534D02*
X20080Y13534D01*
X20085Y13914D02*
X20085Y14024D01*
X20080Y13644D02*
X20080Y13544D01*
X19285Y13914D02*
X19285Y14024D01*
X19285Y13534D02*
X19285Y13644D01*
G54D14*
X19881Y13897D02*
X19881Y14025D01*
X19881Y13652D02*
X19881Y13711D01*
X19881Y13847D02*
X19881Y13906D01*
X19881Y13701D02*
X19881Y13857D01*
X19489Y13897D02*
X19489Y14025D01*
X19489Y13533D02*
X19489Y13661D01*
X19489Y13847D02*
X19489Y13906D01*
X19489Y13652D02*
X19489Y13711D01*
X19489Y13701D02*
X19489Y13857D01*
X19881Y13543D02*
X19881Y13661D01*
G54D15*
X20022Y13592D02*
G75*
G03X20022Y13592I-28J0D01*
G74*
G01*
G54D12*
X20078Y13642D02*
G75*
G02X20078Y13916I0J137D01*
G74*
G01*
X19292Y13916D02*
G75*
G02X19292Y13642I0J-137D01*
G74*
G01*
X32530Y13779D02*
X32430Y13679D01*
X32430Y13679D02*
X32430Y13829D01*
X32430Y13829D02*
X32430Y13879D01*
X32430Y13879D02*
X32530Y13779D01*
G54D13*
X32900Y13299D02*
G75*
G03X32900Y13299I-120J0D01*
G74*
G01*
X32080Y14024D02*
X32880Y14024D01*
X32080Y13534D02*
X32875Y13534D01*
X32880Y13914D02*
X32880Y14024D01*
X32875Y13644D02*
X32875Y13544D01*
X32080Y13914D02*
X32080Y14024D01*
X32080Y13534D02*
X32080Y13644D01*
G54D14*
X32676Y13897D02*
X32676Y14025D01*
X32676Y13652D02*
X32676Y13711D01*
X32676Y13847D02*
X32676Y13906D01*
X32676Y13701D02*
X32676Y13857D01*
X32284Y13897D02*
X32284Y14025D01*
X32284Y13533D02*
X32284Y13661D01*
X32284Y13847D02*
X32284Y13906D01*
X32284Y13652D02*
X32284Y13711D01*
X32284Y13701D02*
X32284Y13857D01*
X32676Y13543D02*
X32676Y13661D01*
G54D15*
X32817Y13592D02*
G75*
G03X32817Y13592I-28J0D01*
G74*
G01*
G54D12*
X32873Y13642D02*
G75*
G02X32873Y13916I0J137D01*
G74*
G01*
X32087Y13916D02*
G75*
G02X32087Y13642I0J-137D01*
G74*
G01*
X32530Y9842D02*
X32430Y9742D01*
X32430Y9742D02*
X32430Y9892D01*
X32430Y9892D02*
X32430Y9942D01*
X32430Y9942D02*
X32530Y9842D01*
G54D13*
X32900Y9362D02*
G75*
G03X32900Y9362I-120J0D01*
G74*
G01*
X32080Y10087D02*
X32880Y10087D01*
X32080Y9597D02*
X32875Y9597D01*
X32880Y9977D02*
X32880Y10087D01*
X32875Y9707D02*
X32875Y9607D01*
X32080Y9977D02*
X32080Y10087D01*
X32080Y9597D02*
X32080Y9707D01*
G54D14*
X32676Y9960D02*
X32676Y10088D01*
X32676Y9715D02*
X32676Y9774D01*
X32676Y9910D02*
X32676Y9969D01*
X32676Y9764D02*
X32676Y9920D01*
X32284Y9960D02*
X32284Y10088D01*
X32284Y9596D02*
X32284Y9724D01*
X32284Y9910D02*
X32284Y9969D01*
X32284Y9715D02*
X32284Y9774D01*
X32284Y9764D02*
X32284Y9920D01*
X32676Y9606D02*
X32676Y9724D01*
G54D15*
X32817Y9655D02*
G75*
G03X32817Y9655I-28J0D01*
G74*
G01*
G54D12*
X32873Y9705D02*
G75*
G02X32873Y9979I0J137D01*
G74*
G01*
X32087Y9979D02*
G75*
G02X32087Y9705I0J-137D01*
G74*
G01*
X32530Y5905D02*
X32430Y5805D01*
X32430Y5805D02*
X32430Y5955D01*
X32430Y5955D02*
X32430Y6005D01*
X32430Y6005D02*
X32530Y5905D01*
G54D13*
X32900Y5425D02*
G75*
G03X32900Y5425I-120J0D01*
G74*
G01*
X32080Y6150D02*
X32880Y6150D01*
X32080Y5660D02*
X32875Y5660D01*
X32880Y6040D02*
X32880Y6150D01*
X32875Y5770D02*
X32875Y5670D01*
X32080Y6040D02*
X32080Y6150D01*
X32080Y5660D02*
X32080Y5770D01*
G54D14*
X32676Y6023D02*
X32676Y6151D01*
X32676Y5778D02*
X32676Y5837D01*
X32676Y5973D02*
X32676Y6032D01*
X32676Y5827D02*
X32676Y5983D01*
X32284Y6023D02*
X32284Y6151D01*
X32284Y5659D02*
X32284Y5787D01*
X32284Y5973D02*
X32284Y6032D01*
X32284Y5778D02*
X32284Y5837D01*
X32284Y5827D02*
X32284Y5983D01*
X32676Y5669D02*
X32676Y5787D01*
G54D15*
X32817Y5718D02*
G75*
G03X32817Y5718I-28J0D01*
G74*
G01*
G54D12*
X32873Y5768D02*
G75*
G02X32873Y6042I0J137D01*
G74*
G01*
X32087Y6042D02*
G75*
G02X32087Y5768I0J-137D01*
G74*
G01*
X28593Y13779D02*
X28493Y13679D01*
X28493Y13679D02*
X28493Y13829D01*
X28493Y13829D02*
X28493Y13879D01*
X28493Y13879D02*
X28593Y13779D01*
G54D13*
X28963Y13299D02*
G75*
G03X28963Y13299I-120J0D01*
G74*
G01*
X28143Y14024D02*
X28943Y14024D01*
X28143Y13534D02*
X28938Y13534D01*
X28943Y13914D02*
X28943Y14024D01*
X28938Y13644D02*
X28938Y13544D01*
X28143Y13914D02*
X28143Y14024D01*
X28143Y13534D02*
X28143Y13644D01*
G54D14*
X28739Y13897D02*
X28739Y14025D01*
X28739Y13652D02*
X28739Y13711D01*
X28739Y13847D02*
X28739Y13906D01*
X28739Y13701D02*
X28739Y13857D01*
X28347Y13897D02*
X28347Y14025D01*
X28347Y13533D02*
X28347Y13661D01*
X28347Y13847D02*
X28347Y13906D01*
X28347Y13652D02*
X28347Y13711D01*
X28347Y13701D02*
X28347Y13857D01*
X28739Y13543D02*
X28739Y13661D01*
G54D15*
X28880Y13592D02*
G75*
G03X28880Y13592I-28J0D01*
G74*
G01*
G54D12*
X28936Y13642D02*
G75*
G02X28936Y13916I0J137D01*
G74*
G01*
X28150Y13916D02*
G75*
G02X28150Y13642I0J-137D01*
G74*
G01*
X28593Y9842D02*
X28493Y9742D01*
X28493Y9742D02*
X28493Y9892D01*
X28493Y9892D02*
X28493Y9942D01*
X28493Y9942D02*
X28593Y9842D01*
G54D13*
X28963Y9362D02*
G75*
G03X28963Y9362I-120J0D01*
G74*
G01*
X28143Y10087D02*
X28943Y10087D01*
X28143Y9597D02*
X28938Y9597D01*
X28943Y9977D02*
X28943Y10087D01*
X28938Y9707D02*
X28938Y9607D01*
X28143Y9977D02*
X28143Y10087D01*
X28143Y9597D02*
X28143Y9707D01*
G54D14*
X28739Y9960D02*
X28739Y10088D01*
X28739Y9715D02*
X28739Y9774D01*
X28739Y9910D02*
X28739Y9969D01*
X28739Y9764D02*
X28739Y9920D01*
X28347Y9960D02*
X28347Y10088D01*
X28347Y9596D02*
X28347Y9724D01*
X28347Y9910D02*
X28347Y9969D01*
X28347Y9715D02*
X28347Y9774D01*
X28347Y9764D02*
X28347Y9920D01*
X28739Y9606D02*
X28739Y9724D01*
G54D15*
X28880Y9655D02*
G75*
G03X28880Y9655I-28J0D01*
G74*
G01*
G54D12*
X28936Y9705D02*
G75*
G02X28936Y9979I0J137D01*
G74*
G01*
X28150Y9979D02*
G75*
G02X28150Y9705I0J-137D01*
G74*
G01*
X28593Y5905D02*
X28493Y5805D01*
X28493Y5805D02*
X28493Y5955D01*
X28493Y5955D02*
X28493Y6005D01*
X28493Y6005D02*
X28593Y5905D01*
G54D13*
X28963Y5425D02*
G75*
G03X28963Y5425I-120J0D01*
G74*
G01*
X28143Y6150D02*
X28943Y6150D01*
X28143Y5660D02*
X28938Y5660D01*
X28943Y6040D02*
X28943Y6150D01*
X28938Y5770D02*
X28938Y5670D01*
X28143Y6040D02*
X28143Y6150D01*
X28143Y5660D02*
X28143Y5770D01*
G54D14*
X28739Y6023D02*
X28739Y6151D01*
X28739Y5778D02*
X28739Y5837D01*
X28739Y5973D02*
X28739Y6032D01*
X28739Y5827D02*
X28739Y5983D01*
X28347Y6023D02*
X28347Y6151D01*
X28347Y5659D02*
X28347Y5787D01*
X28347Y5973D02*
X28347Y6032D01*
X28347Y5778D02*
X28347Y5837D01*
X28347Y5827D02*
X28347Y5983D01*
X28739Y5669D02*
X28739Y5787D01*
G54D15*
X28880Y5718D02*
G75*
G03X28880Y5718I-28J0D01*
G74*
G01*
G54D12*
X28936Y5768D02*
G75*
G02X28936Y6042I0J137D01*
G74*
G01*
X28150Y6042D02*
G75*
G02X28150Y5768I0J-137D01*
G74*
G01*
X24656Y9842D02*
X24556Y9742D01*
X24556Y9742D02*
X24556Y9892D01*
X24556Y9892D02*
X24556Y9942D01*
X24556Y9942D02*
X24656Y9842D01*
G54D13*
X25026Y9362D02*
G75*
G03X25026Y9362I-120J0D01*
G74*
G01*
X24206Y10087D02*
X25006Y10087D01*
X24206Y9597D02*
X25001Y9597D01*
X25006Y9977D02*
X25006Y10087D01*
X25001Y9707D02*
X25001Y9607D01*
X24206Y9977D02*
X24206Y10087D01*
X24206Y9597D02*
X24206Y9707D01*
G54D14*
X24802Y9960D02*
X24802Y10088D01*
X24802Y9715D02*
X24802Y9774D01*
X24802Y9910D02*
X24802Y9969D01*
X24802Y9764D02*
X24802Y9920D01*
X24410Y9960D02*
X24410Y10088D01*
X24410Y9596D02*
X24410Y9724D01*
X24410Y9910D02*
X24410Y9969D01*
X24410Y9715D02*
X24410Y9774D01*
X24410Y9764D02*
X24410Y9920D01*
X24802Y9606D02*
X24802Y9724D01*
G54D15*
X24943Y9655D02*
G75*
G03X24943Y9655I-28J0D01*
G74*
G01*
G54D12*
X24999Y9705D02*
G75*
G02X24999Y9979I0J137D01*
G74*
G01*
X24213Y9979D02*
G75*
G02X24213Y9705I0J-137D01*
G74*
G01*
X24656Y5905D02*
X24556Y5805D01*
X24556Y5805D02*
X24556Y5955D01*
X24556Y5955D02*
X24556Y6005D01*
X24556Y6005D02*
X24656Y5905D01*
G54D13*
X25026Y5425D02*
G75*
G03X25026Y5425I-120J0D01*
G74*
G01*
X24206Y6150D02*
X25006Y6150D01*
X24206Y5660D02*
X25001Y5660D01*
X25006Y6040D02*
X25006Y6150D01*
X25001Y5770D02*
X25001Y5670D01*
X24206Y6040D02*
X24206Y6150D01*
X24206Y5660D02*
X24206Y5770D01*
G54D14*
X24802Y6023D02*
X24802Y6151D01*
X24802Y5778D02*
X24802Y5837D01*
X24802Y5973D02*
X24802Y6032D01*
X24802Y5827D02*
X24802Y5983D01*
X24410Y6023D02*
X24410Y6151D01*
X24410Y5659D02*
X24410Y5787D01*
X24410Y5973D02*
X24410Y6032D01*
X24410Y5778D02*
X24410Y5837D01*
X24410Y5827D02*
X24410Y5983D01*
X24802Y5669D02*
X24802Y5787D01*
G54D15*
X24943Y5718D02*
G75*
G03X24943Y5718I-28J0D01*
G74*
G01*
G54D12*
X24999Y5768D02*
G75*
G02X24999Y6042I0J137D01*
G74*
G01*
X24213Y6042D02*
G75*
G02X24213Y5768I0J-137D01*
G74*
G01*
X24656Y13779D02*
X24556Y13679D01*
X24556Y13679D02*
X24556Y13829D01*
X24556Y13829D02*
X24556Y13879D01*
X24556Y13879D02*
X24656Y13779D01*
G54D13*
X25026Y13299D02*
G75*
G03X25026Y13299I-120J0D01*
G74*
G01*
X24206Y14024D02*
X25006Y14024D01*
X24206Y13534D02*
X25001Y13534D01*
X25006Y13914D02*
X25006Y14024D01*
X25001Y13644D02*
X25001Y13544D01*
X24206Y13914D02*
X24206Y14024D01*
X24206Y13534D02*
X24206Y13644D01*
G54D14*
X24802Y13897D02*
X24802Y14025D01*
X24802Y13652D02*
X24802Y13711D01*
X24802Y13847D02*
X24802Y13906D01*
X24802Y13701D02*
X24802Y13857D01*
X24410Y13897D02*
X24410Y14025D01*
X24410Y13533D02*
X24410Y13661D01*
X24410Y13847D02*
X24410Y13906D01*
X24410Y13652D02*
X24410Y13711D01*
X24410Y13701D02*
X24410Y13857D01*
X24802Y13543D02*
X24802Y13661D01*
G54D15*
X24943Y13592D02*
G75*
G03X24943Y13592I-28J0D01*
G74*
G01*
G54D12*
X24999Y13642D02*
G75*
G02X24999Y13916I0J137D01*
G74*
G01*
X24213Y13916D02*
G75*
G02X24213Y13642I0J-137D01*
G74*
G01*
G54D16*
X7254Y10271D02*
X7254Y10571D01*
X7182Y10571D01*
X7139Y10556D01*
X7111Y10528D01*
X7096Y10499D01*
X7082Y10442D01*
X7082Y10399D01*
X7096Y10342D01*
X7111Y10313D01*
X7139Y10285D01*
X7182Y10271D01*
X7254Y10271D01*
X6796Y10271D02*
X6968Y10271D01*
X6882Y10271D02*
X6882Y10571D01*
X6911Y10528D01*
X6939Y10499D01*
X6968Y10485D01*
X6696Y10571D02*
X6496Y10571D01*
X6625Y10271D01*
X3317Y6334D02*
X3317Y6634D01*
X3245Y6634D01*
X3202Y6619D01*
X3174Y6591D01*
X3159Y6562D01*
X3145Y6505D01*
X3145Y6462D01*
X3159Y6405D01*
X3174Y6376D01*
X3202Y6348D01*
X3245Y6334D01*
X3317Y6334D01*
X3031Y6605D02*
X3017Y6619D01*
X2988Y6634D01*
X2917Y6634D01*
X2888Y6619D01*
X2874Y6605D01*
X2859Y6576D01*
X2859Y6548D01*
X2874Y6505D01*
X3045Y6334D01*
X2859Y6334D01*
X2759Y6634D02*
X2559Y6634D01*
X2688Y6334D01*
X3317Y10271D02*
X3317Y10571D01*
X3245Y10571D01*
X3202Y10556D01*
X3174Y10528D01*
X3159Y10499D01*
X3145Y10442D01*
X3145Y10399D01*
X3159Y10342D01*
X3174Y10313D01*
X3202Y10285D01*
X3245Y10271D01*
X3317Y10271D01*
X2859Y10271D02*
X3031Y10271D01*
X2945Y10271D02*
X2945Y10571D01*
X2974Y10528D01*
X3002Y10499D01*
X3031Y10485D01*
X2688Y10442D02*
X2717Y10456D01*
X2731Y10471D01*
X2745Y10499D01*
X2745Y10513D01*
X2731Y10542D01*
X2717Y10556D01*
X2688Y10571D01*
X2631Y10571D01*
X2602Y10556D01*
X2588Y10542D01*
X2574Y10513D01*
X2574Y10499D01*
X2588Y10471D01*
X2602Y10456D01*
X2631Y10442D01*
X2688Y10442D01*
X2717Y10428D01*
X2731Y10413D01*
X2745Y10385D01*
X2745Y10328D01*
X2731Y10299D01*
X2717Y10285D01*
X2688Y10271D01*
X2631Y10271D01*
X2602Y10285D01*
X2588Y10299D01*
X2574Y10328D01*
X2574Y10385D01*
X2588Y10413D01*
X2602Y10428D01*
X2631Y10442D01*
X3174Y14208D02*
X3174Y14508D01*
X3102Y14508D01*
X3059Y14493D01*
X3031Y14465D01*
X3017Y14436D01*
X3002Y14379D01*
X3002Y14336D01*
X3017Y14279D01*
X3031Y14250D01*
X3059Y14222D01*
X3102Y14208D01*
X3174Y14208D01*
X2859Y14208D02*
X2802Y14208D01*
X2774Y14222D01*
X2759Y14236D01*
X2731Y14279D01*
X2717Y14336D01*
X2717Y14450D01*
X2731Y14479D01*
X2745Y14493D01*
X2774Y14508D01*
X2831Y14508D01*
X2859Y14493D01*
X2874Y14479D01*
X2888Y14450D01*
X2888Y14379D01*
X2874Y14350D01*
X2859Y14336D01*
X2831Y14322D01*
X2774Y14322D01*
X2745Y14336D01*
X2731Y14350D01*
X2717Y14379D01*
X11048Y14208D02*
X11048Y14508D01*
X10976Y14508D01*
X10933Y14493D01*
X10905Y14465D01*
X10891Y14436D01*
X10876Y14379D01*
X10876Y14336D01*
X10891Y14279D01*
X10905Y14250D01*
X10933Y14222D01*
X10976Y14208D01*
X11048Y14208D01*
X10776Y14508D02*
X10576Y14508D01*
X10705Y14208D01*
X11191Y10271D02*
X11191Y10571D01*
X11119Y10571D01*
X11076Y10556D01*
X11048Y10528D01*
X11033Y10499D01*
X11019Y10442D01*
X11019Y10399D01*
X11033Y10342D01*
X11048Y10313D01*
X11076Y10285D01*
X11119Y10271D01*
X11191Y10271D01*
X10733Y10271D02*
X10905Y10271D01*
X10819Y10271D02*
X10819Y10571D01*
X10848Y10528D01*
X10876Y10499D01*
X10905Y10485D01*
X10476Y10571D02*
X10533Y10571D01*
X10562Y10556D01*
X10576Y10542D01*
X10605Y10499D01*
X10619Y10442D01*
X10619Y10328D01*
X10605Y10299D01*
X10591Y10285D01*
X10562Y10271D01*
X10505Y10271D01*
X10476Y10285D01*
X10462Y10299D01*
X10448Y10328D01*
X10448Y10399D01*
X10462Y10428D01*
X10476Y10442D01*
X10505Y10456D01*
X10562Y10456D01*
X10591Y10442D01*
X10605Y10428D01*
X10619Y10399D01*
X11191Y6334D02*
X11191Y6634D01*
X11119Y6634D01*
X11076Y6619D01*
X11048Y6591D01*
X11033Y6562D01*
X11019Y6505D01*
X11019Y6462D01*
X11033Y6405D01*
X11048Y6376D01*
X11076Y6348D01*
X11119Y6334D01*
X11191Y6334D01*
X10905Y6605D02*
X10891Y6619D01*
X10862Y6634D01*
X10791Y6634D01*
X10762Y6619D01*
X10748Y6605D01*
X10733Y6576D01*
X10733Y6548D01*
X10748Y6505D01*
X10919Y6334D01*
X10733Y6334D01*
X10462Y6634D02*
X10605Y6634D01*
X10619Y6491D01*
X10605Y6505D01*
X10576Y6519D01*
X10505Y6519D01*
X10476Y6505D01*
X10462Y6491D01*
X10448Y6462D01*
X10448Y6391D01*
X10462Y6362D01*
X10476Y6348D01*
X10505Y6334D01*
X10576Y6334D01*
X10605Y6348D01*
X10619Y6362D01*
X7111Y14208D02*
X7111Y14508D01*
X7039Y14508D01*
X6996Y14493D01*
X6968Y14465D01*
X6954Y14436D01*
X6939Y14379D01*
X6939Y14336D01*
X6954Y14279D01*
X6968Y14250D01*
X6996Y14222D01*
X7039Y14208D01*
X7111Y14208D01*
X6768Y14379D02*
X6796Y14393D01*
X6811Y14408D01*
X6825Y14436D01*
X6825Y14450D01*
X6811Y14479D01*
X6796Y14493D01*
X6768Y14508D01*
X6711Y14508D01*
X6682Y14493D01*
X6668Y14479D01*
X6654Y14450D01*
X6654Y14436D01*
X6668Y14408D01*
X6682Y14393D01*
X6711Y14379D01*
X6768Y14379D01*
X6796Y14365D01*
X6811Y14350D01*
X6825Y14322D01*
X6825Y14265D01*
X6811Y14236D01*
X6796Y14222D01*
X6768Y14208D01*
X6711Y14208D01*
X6682Y14222D01*
X6668Y14236D01*
X6654Y14265D01*
X6654Y14322D01*
X6668Y14350D01*
X6682Y14365D01*
X6711Y14379D01*
X7254Y6334D02*
X7254Y6634D01*
X7182Y6634D01*
X7139Y6619D01*
X7111Y6591D01*
X7096Y6562D01*
X7082Y6505D01*
X7082Y6462D01*
X7096Y6405D01*
X7111Y6376D01*
X7139Y6348D01*
X7182Y6334D01*
X7254Y6334D01*
X6968Y6605D02*
X6954Y6619D01*
X6925Y6634D01*
X6854Y6634D01*
X6825Y6619D01*
X6811Y6605D01*
X6796Y6576D01*
X6796Y6548D01*
X6811Y6505D01*
X6982Y6334D01*
X6796Y6334D01*
X6539Y6634D02*
X6596Y6634D01*
X6625Y6619D01*
X6639Y6605D01*
X6668Y6562D01*
X6682Y6505D01*
X6682Y6391D01*
X6668Y6362D01*
X6654Y6348D01*
X6625Y6334D01*
X6568Y6334D01*
X6539Y6348D01*
X6525Y6362D01*
X6511Y6391D01*
X6511Y6462D01*
X6525Y6491D01*
X6539Y6505D01*
X6568Y6519D01*
X6625Y6519D01*
X6654Y6505D01*
X6668Y6491D01*
X6682Y6462D01*
X37765Y6334D02*
X37765Y6634D01*
X37694Y6634D01*
X37651Y6619D01*
X37623Y6591D01*
X37608Y6562D01*
X37594Y6505D01*
X37594Y6462D01*
X37608Y6405D01*
X37623Y6376D01*
X37651Y6348D01*
X37694Y6334D01*
X37765Y6334D01*
X37308Y6334D02*
X37480Y6334D01*
X37394Y6334D02*
X37394Y6634D01*
X37423Y6591D01*
X37451Y6562D01*
X37480Y6548D01*
X37165Y6334D02*
X37108Y6334D01*
X37080Y6348D01*
X37065Y6362D01*
X37037Y6405D01*
X37023Y6462D01*
X37023Y6576D01*
X37037Y6605D01*
X37051Y6619D01*
X37080Y6634D01*
X37137Y6634D01*
X37165Y6619D01*
X37180Y6605D01*
X37194Y6576D01*
X37194Y6505D01*
X37180Y6476D01*
X37165Y6462D01*
X37137Y6448D01*
X37080Y6448D01*
X37051Y6462D01*
X37037Y6476D01*
X37023Y6505D01*
X37765Y10271D02*
X37765Y10571D01*
X37694Y10571D01*
X37651Y10556D01*
X37623Y10528D01*
X37608Y10499D01*
X37594Y10442D01*
X37594Y10399D01*
X37608Y10342D01*
X37623Y10313D01*
X37651Y10285D01*
X37694Y10271D01*
X37765Y10271D01*
X37308Y10271D02*
X37480Y10271D01*
X37394Y10271D02*
X37394Y10571D01*
X37423Y10528D01*
X37451Y10499D01*
X37480Y10485D01*
X37123Y10571D02*
X37094Y10571D01*
X37065Y10556D01*
X37051Y10542D01*
X37037Y10513D01*
X37023Y10456D01*
X37023Y10385D01*
X37037Y10328D01*
X37051Y10299D01*
X37065Y10285D01*
X37094Y10271D01*
X37123Y10271D01*
X37151Y10285D01*
X37165Y10299D01*
X37180Y10328D01*
X37194Y10385D01*
X37194Y10456D01*
X37180Y10513D01*
X37165Y10542D01*
X37151Y10556D01*
X37123Y10571D01*
X37623Y14208D02*
X37623Y14508D01*
X37551Y14508D01*
X37508Y14493D01*
X37480Y14465D01*
X37465Y14436D01*
X37451Y14379D01*
X37451Y14336D01*
X37465Y14279D01*
X37480Y14250D01*
X37508Y14222D01*
X37551Y14208D01*
X37623Y14208D01*
X37165Y14208D02*
X37337Y14208D01*
X37251Y14208D02*
X37251Y14508D01*
X37280Y14465D01*
X37308Y14436D01*
X37337Y14422D01*
X20049Y10271D02*
X20049Y10571D01*
X19977Y10571D01*
X19935Y10556D01*
X19906Y10528D01*
X19892Y10499D01*
X19877Y10442D01*
X19877Y10399D01*
X19892Y10342D01*
X19906Y10313D01*
X19935Y10285D01*
X19977Y10271D01*
X20049Y10271D01*
X19592Y10271D02*
X19763Y10271D01*
X19677Y10271D02*
X19677Y10571D01*
X19706Y10528D01*
X19735Y10499D01*
X19763Y10485D01*
X19335Y10471D02*
X19335Y10271D01*
X19406Y10585D02*
X19477Y10371D01*
X19292Y10371D01*
X20049Y6334D02*
X20049Y6634D01*
X19977Y6634D01*
X19935Y6619D01*
X19906Y6591D01*
X19892Y6562D01*
X19877Y6505D01*
X19877Y6462D01*
X19892Y6405D01*
X19906Y6376D01*
X19935Y6348D01*
X19977Y6334D01*
X20049Y6334D01*
X19763Y6605D02*
X19749Y6619D01*
X19720Y6634D01*
X19649Y6634D01*
X19620Y6619D01*
X19606Y6605D01*
X19592Y6576D01*
X19592Y6548D01*
X19606Y6505D01*
X19777Y6334D01*
X19592Y6334D01*
X19492Y6634D02*
X19306Y6634D01*
X19406Y6519D01*
X19363Y6519D01*
X19335Y6505D01*
X19320Y6491D01*
X19306Y6462D01*
X19306Y6391D01*
X19320Y6362D01*
X19335Y6348D01*
X19363Y6334D01*
X19449Y6334D01*
X19477Y6348D01*
X19492Y6362D01*
X15969Y14208D02*
X15969Y14508D01*
X15898Y14508D01*
X15855Y14493D01*
X15826Y14465D01*
X15812Y14436D01*
X15798Y14379D01*
X15798Y14336D01*
X15812Y14279D01*
X15826Y14250D01*
X15855Y14222D01*
X15898Y14208D01*
X15969Y14208D01*
X15540Y14508D02*
X15598Y14508D01*
X15626Y14493D01*
X15640Y14479D01*
X15669Y14436D01*
X15683Y14379D01*
X15683Y14265D01*
X15669Y14236D01*
X15655Y14222D01*
X15626Y14208D01*
X15569Y14208D01*
X15540Y14222D01*
X15526Y14236D01*
X15512Y14265D01*
X15512Y14336D01*
X15526Y14365D01*
X15540Y14379D01*
X15569Y14393D01*
X15626Y14393D01*
X15655Y14379D01*
X15669Y14365D01*
X15683Y14336D01*
X16112Y10271D02*
X16112Y10571D01*
X16040Y10571D01*
X15998Y10556D01*
X15969Y10528D01*
X15955Y10499D01*
X15940Y10442D01*
X15940Y10399D01*
X15955Y10342D01*
X15969Y10313D01*
X15998Y10285D01*
X16040Y10271D01*
X16112Y10271D01*
X15655Y10271D02*
X15826Y10271D01*
X15740Y10271D02*
X15740Y10571D01*
X15769Y10528D01*
X15798Y10499D01*
X15826Y10485D01*
X15383Y10571D02*
X15526Y10571D01*
X15540Y10428D01*
X15526Y10442D01*
X15498Y10456D01*
X15426Y10456D01*
X15398Y10442D01*
X15383Y10428D01*
X15369Y10399D01*
X15369Y10328D01*
X15383Y10299D01*
X15398Y10285D01*
X15426Y10271D01*
X15498Y10271D01*
X15526Y10285D01*
X15540Y10299D01*
X16112Y6334D02*
X16112Y6634D01*
X16040Y6634D01*
X15998Y6619D01*
X15969Y6591D01*
X15955Y6562D01*
X15940Y6505D01*
X15940Y6462D01*
X15955Y6405D01*
X15969Y6376D01*
X15998Y6348D01*
X16040Y6334D01*
X16112Y6334D01*
X15826Y6605D02*
X15812Y6619D01*
X15783Y6634D01*
X15712Y6634D01*
X15683Y6619D01*
X15669Y6605D01*
X15655Y6576D01*
X15655Y6548D01*
X15669Y6505D01*
X15840Y6334D01*
X15655Y6334D01*
X15398Y6534D02*
X15398Y6334D01*
X15469Y6648D02*
X15540Y6434D01*
X15355Y6434D01*
X19906Y14208D02*
X19906Y14508D01*
X19835Y14508D01*
X19792Y14493D01*
X19763Y14465D01*
X19749Y14436D01*
X19735Y14379D01*
X19735Y14336D01*
X19749Y14279D01*
X19763Y14250D01*
X19792Y14222D01*
X19835Y14208D01*
X19906Y14208D01*
X19463Y14508D02*
X19606Y14508D01*
X19620Y14365D01*
X19606Y14379D01*
X19577Y14393D01*
X19506Y14393D01*
X19477Y14379D01*
X19463Y14365D01*
X19449Y14336D01*
X19449Y14265D01*
X19463Y14236D01*
X19477Y14222D01*
X19506Y14208D01*
X19577Y14208D01*
X19606Y14222D01*
X19620Y14236D01*
X32701Y14208D02*
X32701Y14508D01*
X32630Y14508D01*
X32587Y14493D01*
X32558Y14465D01*
X32544Y14436D01*
X32530Y14379D01*
X32530Y14336D01*
X32544Y14279D01*
X32558Y14250D01*
X32587Y14222D01*
X32630Y14208D01*
X32701Y14208D01*
X32416Y14479D02*
X32401Y14493D01*
X32373Y14508D01*
X32301Y14508D01*
X32273Y14493D01*
X32258Y14479D01*
X32244Y14450D01*
X32244Y14422D01*
X32258Y14379D01*
X32430Y14208D01*
X32244Y14208D01*
X32844Y10271D02*
X32844Y10571D01*
X32773Y10571D01*
X32730Y10556D01*
X32701Y10528D01*
X32687Y10499D01*
X32673Y10442D01*
X32673Y10399D01*
X32687Y10342D01*
X32701Y10313D01*
X32730Y10285D01*
X32773Y10271D01*
X32844Y10271D01*
X32387Y10271D02*
X32558Y10271D01*
X32473Y10271D02*
X32473Y10571D01*
X32501Y10528D01*
X32530Y10499D01*
X32558Y10485D01*
X32101Y10271D02*
X32273Y10271D01*
X32187Y10271D02*
X32187Y10571D01*
X32216Y10528D01*
X32244Y10499D01*
X32273Y10485D01*
X32844Y6334D02*
X32844Y6634D01*
X32773Y6634D01*
X32730Y6619D01*
X32701Y6591D01*
X32687Y6562D01*
X32673Y6505D01*
X32673Y6462D01*
X32687Y6405D01*
X32701Y6376D01*
X32730Y6348D01*
X32773Y6334D01*
X32844Y6334D01*
X32558Y6605D02*
X32544Y6619D01*
X32516Y6634D01*
X32444Y6634D01*
X32416Y6619D01*
X32401Y6605D01*
X32387Y6576D01*
X32387Y6548D01*
X32401Y6505D01*
X32573Y6334D01*
X32387Y6334D01*
X32201Y6634D02*
X32173Y6634D01*
X32144Y6619D01*
X32130Y6605D01*
X32116Y6576D01*
X32101Y6519D01*
X32101Y6448D01*
X32116Y6391D01*
X32130Y6362D01*
X32144Y6348D01*
X32173Y6334D01*
X32201Y6334D01*
X32230Y6348D01*
X32244Y6362D01*
X32258Y6391D01*
X32273Y6448D01*
X32273Y6519D01*
X32258Y6576D01*
X32244Y6605D01*
X32230Y6619D01*
X32201Y6634D01*
X28764Y14208D02*
X28764Y14508D01*
X28693Y14508D01*
X28650Y14493D01*
X28621Y14465D01*
X28607Y14436D01*
X28593Y14379D01*
X28593Y14336D01*
X28607Y14279D01*
X28621Y14250D01*
X28650Y14222D01*
X28693Y14208D01*
X28764Y14208D01*
X28493Y14508D02*
X28307Y14508D01*
X28407Y14393D01*
X28364Y14393D01*
X28336Y14379D01*
X28321Y14365D01*
X28307Y14336D01*
X28307Y14265D01*
X28321Y14236D01*
X28336Y14222D01*
X28364Y14208D01*
X28450Y14208D01*
X28479Y14222D01*
X28493Y14236D01*
X28907Y10271D02*
X28907Y10571D01*
X28836Y10571D01*
X28793Y10556D01*
X28764Y10528D01*
X28750Y10499D01*
X28736Y10442D01*
X28736Y10399D01*
X28750Y10342D01*
X28764Y10313D01*
X28793Y10285D01*
X28836Y10271D01*
X28907Y10271D01*
X28450Y10271D02*
X28621Y10271D01*
X28536Y10271D02*
X28536Y10571D01*
X28564Y10528D01*
X28593Y10499D01*
X28621Y10485D01*
X28336Y10542D02*
X28321Y10556D01*
X28293Y10571D01*
X28221Y10571D01*
X28193Y10556D01*
X28179Y10542D01*
X28164Y10513D01*
X28164Y10485D01*
X28179Y10442D01*
X28350Y10271D01*
X28164Y10271D01*
X28907Y6334D02*
X28907Y6634D01*
X28836Y6634D01*
X28793Y6619D01*
X28764Y6591D01*
X28750Y6562D01*
X28736Y6505D01*
X28736Y6462D01*
X28750Y6405D01*
X28764Y6376D01*
X28793Y6348D01*
X28836Y6334D01*
X28907Y6334D01*
X28621Y6605D02*
X28607Y6619D01*
X28579Y6634D01*
X28507Y6634D01*
X28479Y6619D01*
X28464Y6605D01*
X28450Y6576D01*
X28450Y6548D01*
X28464Y6505D01*
X28636Y6334D01*
X28450Y6334D01*
X28164Y6334D02*
X28336Y6334D01*
X28250Y6334D02*
X28250Y6634D01*
X28279Y6591D01*
X28307Y6562D01*
X28336Y6548D01*
X24970Y10271D02*
X24970Y10571D01*
X24899Y10571D01*
X24856Y10556D01*
X24827Y10528D01*
X24813Y10499D01*
X24799Y10442D01*
X24799Y10399D01*
X24813Y10342D01*
X24827Y10313D01*
X24856Y10285D01*
X24899Y10271D01*
X24970Y10271D01*
X24513Y10271D02*
X24684Y10271D01*
X24599Y10271D02*
X24599Y10571D01*
X24627Y10528D01*
X24656Y10499D01*
X24684Y10485D01*
X24413Y10571D02*
X24227Y10571D01*
X24327Y10456D01*
X24284Y10456D01*
X24256Y10442D01*
X24242Y10428D01*
X24227Y10399D01*
X24227Y10328D01*
X24242Y10299D01*
X24256Y10285D01*
X24284Y10271D01*
X24370Y10271D01*
X24399Y10285D01*
X24413Y10299D01*
X24970Y6334D02*
X24970Y6634D01*
X24899Y6634D01*
X24856Y6619D01*
X24827Y6591D01*
X24813Y6562D01*
X24799Y6505D01*
X24799Y6462D01*
X24813Y6405D01*
X24827Y6376D01*
X24856Y6348D01*
X24899Y6334D01*
X24970Y6334D01*
X24684Y6605D02*
X24670Y6619D01*
X24642Y6634D01*
X24570Y6634D01*
X24542Y6619D01*
X24527Y6605D01*
X24513Y6576D01*
X24513Y6548D01*
X24527Y6505D01*
X24699Y6334D01*
X24513Y6334D01*
X24399Y6605D02*
X24384Y6619D01*
X24356Y6634D01*
X24284Y6634D01*
X24256Y6619D01*
X24242Y6605D01*
X24227Y6576D01*
X24227Y6548D01*
X24242Y6505D01*
X24413Y6334D01*
X24227Y6334D01*
X24827Y14208D02*
X24827Y14508D01*
X24756Y14508D01*
X24713Y14493D01*
X24684Y14465D01*
X24670Y14436D01*
X24656Y14379D01*
X24656Y14336D01*
X24670Y14279D01*
X24684Y14250D01*
X24713Y14222D01*
X24756Y14208D01*
X24827Y14208D01*
X24399Y14408D02*
X24399Y14208D01*
X24470Y14522D02*
X24542Y14308D01*
X24356Y14308D01*
G54D17*
X391Y5587D02*
X51Y5587D01*
X51Y5671D01*
X67Y5692D01*
X83Y5702D01*
X116Y5713D01*
X164Y5713D01*
X197Y5702D01*
X213Y5692D01*
X229Y5671D01*
X229Y5587D01*
X83Y5797D02*
X67Y5807D01*
X51Y5828D01*
X51Y5880D01*
X67Y5901D01*
X83Y5912D01*
X116Y5922D01*
X148Y5922D01*
X197Y5912D01*
X391Y5786D01*
X391Y5922D01*
M02*
