G04 (created by PCBNEW (2013-07-07 BZR 4022)-stable) date 31/12/2015 20:31:10*
%MOIN*%
G04 Gerber Fmt 3.4, Leading zero omitted, Abs format*
%FSLAX34Y34*%
G01*
G70*
G90*
G04 APERTURE LIST*
%ADD10C,0.00590551*%
%ADD11C,0.00393701*%
%ADD12R,0.036X0.036*%
%ADD13R,0.0866X0.06*%
%ADD14O,0.0866X0.06*%
%ADD15C,0.1772*%
%ADD16R,0.035X0.055*%
%ADD17R,0.06X0.06*%
%ADD18C,0.06*%
%ADD19C,0.1181*%
%ADD20R,0.118X0.118*%
%ADD21R,0.075X0.025*%
%ADD22R,0.06X0.0787*%
%ADD23O,0.06X0.0787*%
%ADD24R,0.0984X0.055*%
%ADD25R,0.102362X0.0197*%
%ADD26R,0.15748X0.0591*%
%ADD27R,0.11811X0.0591*%
%ADD28C,0.0354*%
%ADD29C,0.035*%
%ADD30C,0.01*%
G04 APERTURE END LIST*
G54D10*
G54D11*
X39370Y0D02*
X0Y0D01*
X39370Y19685D02*
X39370Y0D01*
X0Y19685D02*
X39370Y19685D01*
X0Y0D02*
X0Y19685D01*
G54D12*
X17850Y14900D03*
X17850Y15600D03*
X18650Y15250D03*
X17850Y11150D03*
X17850Y11850D03*
X18650Y11500D03*
X15348Y2209D03*
X15348Y2909D03*
X16148Y2559D03*
G54D13*
X1000Y8500D03*
G54D14*
X1000Y9500D03*
X1000Y10500D03*
X1000Y11500D03*
X1000Y12500D03*
X1000Y13500D03*
G54D13*
X1000Y16000D03*
G54D14*
X1000Y15000D03*
G54D15*
X1574Y1574D03*
X37795Y18110D03*
X37795Y1574D03*
X1574Y18110D03*
G54D16*
X6280Y3937D03*
X5530Y3937D03*
X6280Y4921D03*
X5530Y4921D03*
X11201Y4921D03*
X10451Y4921D03*
X15373Y4921D03*
X16123Y4921D03*
X19310Y4921D03*
X20060Y4921D03*
X19310Y3937D03*
X20060Y3937D03*
X19310Y2952D03*
X20060Y2952D03*
X19310Y1968D03*
X20060Y1968D03*
X19310Y984D03*
X20060Y984D03*
X17875Y7750D03*
X18625Y7750D03*
X17875Y6750D03*
X18625Y6750D03*
G54D17*
X20750Y17250D03*
G54D18*
X20750Y18250D03*
X21750Y17250D03*
X21750Y18250D03*
X22750Y17250D03*
X22750Y18250D03*
X23750Y17250D03*
X23750Y18250D03*
X24750Y17250D03*
X24750Y18250D03*
X25750Y17250D03*
X25750Y18250D03*
G54D16*
X6280Y2559D03*
X5530Y2559D03*
G54D19*
X27559Y11922D03*
G54D20*
X27559Y3852D03*
G54D21*
X8629Y4112D03*
X8629Y3612D03*
X8629Y3112D03*
X8629Y2612D03*
X8629Y2112D03*
X8629Y1612D03*
X8629Y1112D03*
X8629Y612D03*
X12629Y612D03*
X12629Y1112D03*
X12629Y1612D03*
X12629Y2112D03*
X12629Y2612D03*
X12629Y3112D03*
X12629Y3612D03*
X12629Y4112D03*
G54D16*
X10451Y10629D03*
X11201Y10629D03*
X15373Y984D03*
X16123Y984D03*
X4546Y14763D03*
X5296Y14763D03*
G54D22*
X14250Y17152D03*
G54D23*
X14250Y18348D03*
X15250Y17152D03*
X15250Y18348D03*
X16250Y17152D03*
X16250Y18348D03*
G54D16*
X17875Y13500D03*
X18625Y13500D03*
X17875Y9750D03*
X18625Y9750D03*
X16123Y3937D03*
X15373Y3937D03*
G54D24*
X8971Y16864D03*
X8971Y18636D03*
X11530Y16864D03*
X11530Y18636D03*
X4721Y16864D03*
X4721Y18636D03*
X7280Y16864D03*
X7280Y18636D03*
G54D18*
X6900Y6850D03*
X7900Y6850D03*
X8900Y6850D03*
X5900Y6850D03*
X9900Y6850D03*
X10900Y6850D03*
X11900Y6850D03*
X12900Y6850D03*
X13900Y6850D03*
X14900Y6850D03*
X15900Y6850D03*
X16900Y6850D03*
X16900Y8350D03*
X16900Y9350D03*
X16900Y10350D03*
X16900Y11350D03*
X16900Y12850D03*
X15900Y12850D03*
X14900Y12850D03*
X13900Y12850D03*
X12900Y12850D03*
X11900Y12850D03*
X10900Y12850D03*
X9900Y12850D03*
X8900Y12850D03*
X7900Y12850D03*
X6900Y12850D03*
X5900Y12850D03*
X4900Y7350D03*
X4900Y9350D03*
X4900Y10350D03*
X4900Y11350D03*
X4900Y12350D03*
X14400Y11850D03*
X13400Y11850D03*
X10400Y11850D03*
X9400Y11850D03*
X4900Y8350D03*
G54D17*
X29250Y18250D03*
G54D18*
X30250Y18250D03*
X31250Y18250D03*
X32250Y18250D03*
X33250Y18250D03*
X34250Y18250D03*
G54D25*
X2852Y5750D03*
X2852Y6064D03*
X2852Y5120D03*
G54D26*
X844Y7600D03*
G54D27*
X2812Y7600D03*
G54D26*
X844Y3899D03*
G54D27*
X2812Y3899D03*
G54D25*
X2852Y5435D03*
G54D28*
X1907Y6616D03*
X1907Y4884D03*
G54D25*
X2852Y6379D03*
G54D29*
X18090Y12378D03*
X17844Y5717D03*
X31550Y13626D03*
X31550Y10020D03*
X22624Y5273D03*
X23088Y5744D03*
X19695Y5411D03*
X18823Y14503D03*
X16579Y4921D03*
X10804Y5422D03*
X5951Y5854D03*
X4917Y4143D03*
X18229Y4883D03*
X17416Y4051D03*
X17012Y3461D03*
X16599Y2864D03*
X16062Y1979D03*
X13355Y9305D03*
X11977Y3112D03*
X20262Y10932D03*
X10688Y14594D03*
X8248Y14594D03*
X19932Y11744D03*
X24965Y9331D03*
X11666Y9327D03*
X7349Y9327D03*
G54D30*
X30250Y18250D02*
X29250Y18250D01*
X7658Y3612D02*
X6605Y2559D01*
X8629Y3612D02*
X7658Y3612D01*
X6280Y2559D02*
X6605Y2559D01*
X18625Y6750D02*
X18299Y6750D01*
X18625Y7750D02*
X18625Y7324D01*
X8900Y12850D02*
X8900Y11707D01*
X7257Y11707D02*
X8900Y11707D01*
X4900Y9350D02*
X7257Y11707D01*
X9977Y10629D02*
X10451Y10629D01*
X8900Y11707D02*
X9977Y10629D01*
X18625Y7324D02*
X18299Y6999D01*
X18299Y6999D02*
X18299Y6750D01*
X10451Y10629D02*
X10451Y10204D01*
X2852Y6379D02*
X3447Y6379D01*
X10749Y9906D02*
X10451Y10204D01*
X14814Y9906D02*
X10749Y9906D01*
X15871Y8850D02*
X14814Y9906D01*
X17051Y8850D02*
X15871Y8850D01*
X17350Y8551D02*
X17051Y8850D01*
X17350Y7598D02*
X17350Y8551D01*
X17678Y7270D02*
X17350Y7598D01*
X18028Y7270D02*
X17678Y7270D01*
X18299Y6999D02*
X18028Y7270D01*
X3514Y6313D02*
X3447Y6379D01*
X3514Y5086D02*
X3514Y6313D01*
X4783Y3817D02*
X3514Y5086D01*
X4963Y3817D02*
X4783Y3817D01*
X6222Y2559D02*
X4963Y3817D01*
X6280Y2559D02*
X6222Y2559D01*
X4350Y7282D02*
X4350Y8800D01*
X3447Y6379D02*
X4350Y7282D01*
X4350Y8800D02*
X4900Y9350D01*
X2650Y10500D02*
X1000Y10500D01*
X4350Y8800D02*
X2650Y10500D01*
X28145Y18903D02*
X28799Y18250D01*
X15072Y18903D02*
X28145Y18903D01*
X14700Y18531D02*
X15072Y18903D01*
X14700Y18250D02*
X14700Y18531D01*
X14250Y18250D02*
X14700Y18250D01*
X29250Y18250D02*
X28799Y18250D01*
X17875Y9750D02*
X17549Y9750D01*
X17492Y9807D02*
X17549Y9750D01*
X17492Y11850D02*
X17492Y9807D01*
X17492Y11850D02*
X17850Y11850D01*
X15900Y11850D02*
X17492Y11850D01*
X14900Y12850D02*
X15900Y11850D01*
X15348Y2909D02*
X15348Y3239D01*
X16123Y3937D02*
X15797Y3937D01*
X15797Y3689D02*
X15348Y3239D01*
X15797Y3937D02*
X15797Y3689D01*
X16371Y12378D02*
X18090Y12378D01*
X15900Y12850D02*
X16371Y12378D01*
X17844Y5658D02*
X16123Y3937D01*
X17844Y5717D02*
X17844Y5658D01*
X17875Y13500D02*
X17549Y13500D01*
X17643Y15269D02*
X17850Y15269D01*
X17498Y15124D02*
X17643Y15269D01*
X17498Y13525D02*
X17498Y15124D01*
X14575Y13525D02*
X17498Y13525D01*
X13900Y12850D02*
X14575Y13525D01*
X17524Y13525D02*
X17549Y13500D01*
X17498Y13525D02*
X17524Y13525D01*
X17850Y15600D02*
X17850Y15269D01*
X17875Y7750D02*
X17875Y8175D01*
X17875Y8375D02*
X16900Y9350D01*
X17875Y8175D02*
X17875Y8375D01*
X12629Y4112D02*
X13155Y4112D01*
X16045Y10204D02*
X16900Y9350D01*
X10962Y10204D02*
X16045Y10204D01*
X10776Y10390D02*
X10962Y10204D01*
X10776Y10982D02*
X10776Y10390D01*
X10704Y11055D02*
X10776Y10982D01*
X10194Y11055D02*
X10704Y11055D01*
X9400Y11850D02*
X10194Y11055D01*
X13430Y4387D02*
X13155Y4112D01*
X15526Y4387D02*
X13430Y4387D01*
X15797Y4658D02*
X15526Y4387D01*
X15797Y5258D02*
X15797Y4658D01*
X16663Y6124D02*
X15797Y5258D01*
X18690Y6124D02*
X16663Y6124D01*
X18961Y6395D02*
X18690Y6124D01*
X18961Y8085D02*
X18961Y6395D01*
X18871Y8175D02*
X18961Y8085D01*
X17875Y8175D02*
X18871Y8175D01*
X17875Y6750D02*
X17712Y6750D01*
X17712Y6750D02*
X17683Y6750D01*
X12104Y4388D02*
X12104Y3612D01*
X14400Y6683D02*
X12104Y4388D01*
X14400Y7011D02*
X14400Y6683D01*
X14688Y7300D02*
X14400Y7011D01*
X15086Y7300D02*
X14688Y7300D01*
X15361Y7025D02*
X15086Y7300D01*
X15361Y6744D02*
X15361Y7025D01*
X15706Y6398D02*
X15361Y6744D01*
X17232Y6398D02*
X15706Y6398D01*
X17583Y6750D02*
X17232Y6398D01*
X12629Y3612D02*
X12104Y3612D01*
X17589Y6902D02*
X17589Y6750D01*
X16900Y7591D02*
X17589Y6902D01*
X16900Y8350D02*
X16900Y7591D01*
X17683Y6750D02*
X17589Y6750D01*
X17589Y6750D02*
X17583Y6750D01*
X11530Y16864D02*
X10887Y16864D01*
X10887Y16864D02*
X8970Y16864D01*
X10887Y14855D02*
X10887Y16864D01*
X11013Y14729D02*
X10887Y14855D01*
X11013Y12963D02*
X11013Y14729D01*
X10900Y12850D02*
X11013Y12963D01*
X7280Y16864D02*
X4720Y16864D01*
X7280Y16864D02*
X7922Y16864D01*
X8533Y14216D02*
X9900Y12850D01*
X8164Y14216D02*
X8533Y14216D01*
X7922Y14458D02*
X8164Y14216D01*
X7922Y16864D02*
X7922Y14458D01*
X3972Y16000D02*
X1000Y16000D01*
X4971Y15001D02*
X3972Y16000D01*
X4971Y13778D02*
X4971Y15001D01*
X5900Y12850D02*
X4971Y13778D01*
X16250Y17250D02*
X15799Y17250D01*
X5296Y14763D02*
X5621Y14763D01*
X7900Y13317D02*
X7900Y12850D01*
X9103Y13317D02*
X7900Y13317D01*
X9400Y13021D02*
X9103Y13317D01*
X9400Y12701D02*
X9400Y13021D01*
X9701Y12399D02*
X9400Y12701D01*
X11095Y12399D02*
X9701Y12399D01*
X11400Y12704D02*
X11095Y12399D01*
X11400Y12991D02*
X11400Y12704D01*
X12289Y13881D02*
X11400Y12991D01*
X12712Y13881D02*
X12289Y13881D01*
X15799Y16968D02*
X12712Y13881D01*
X15799Y17250D02*
X15799Y16968D01*
X7067Y13317D02*
X5621Y14763D01*
X7900Y13317D02*
X7067Y13317D01*
X31910Y18910D02*
X31250Y18250D01*
X34547Y18910D02*
X31910Y18910D01*
X34917Y18540D02*
X34547Y18910D01*
X34917Y12901D02*
X34917Y18540D01*
X23000Y984D02*
X34917Y12901D01*
X20060Y984D02*
X23000Y984D01*
X22203Y18703D02*
X21750Y18250D01*
X26729Y18703D02*
X22203Y18703D01*
X27633Y17799D02*
X26729Y18703D01*
X30799Y17799D02*
X27633Y17799D01*
X31250Y18250D02*
X30799Y17799D01*
X31550Y10020D02*
X31550Y13626D01*
X23498Y1968D02*
X20060Y1968D01*
X31550Y10020D02*
X23498Y1968D01*
X32708Y18708D02*
X32250Y18250D01*
X34458Y18708D02*
X32708Y18708D01*
X34716Y18450D02*
X34458Y18708D01*
X34716Y16791D02*
X34716Y18450D01*
X31550Y13626D02*
X34716Y16791D01*
X23212Y17712D02*
X22750Y17250D01*
X26630Y17712D02*
X23212Y17712D01*
X26743Y17599D02*
X26630Y17712D01*
X31599Y17599D02*
X26743Y17599D01*
X32250Y18250D02*
X31599Y17599D01*
X20385Y3034D02*
X20385Y2952D01*
X22624Y5273D02*
X20385Y3034D01*
X20060Y2952D02*
X20385Y2952D01*
X22192Y5744D02*
X20385Y3937D01*
X23088Y5744D02*
X22192Y5744D01*
X20060Y3937D02*
X20385Y3937D01*
X20060Y4921D02*
X20060Y5346D01*
X19760Y5346D02*
X19695Y5411D01*
X20060Y5346D02*
X19760Y5346D01*
X16123Y4921D02*
X16448Y4921D01*
X16448Y4921D02*
X16579Y4921D01*
X22003Y14503D02*
X18823Y14503D01*
X24750Y17250D02*
X22003Y14503D01*
X10451Y4921D02*
X10451Y5346D01*
X10728Y5346D02*
X10451Y5346D01*
X10804Y5422D02*
X10728Y5346D01*
X5530Y4921D02*
X5530Y5346D01*
X5951Y5767D02*
X5951Y5854D01*
X5530Y5346D02*
X5951Y5767D01*
X4999Y4143D02*
X5205Y3937D01*
X4917Y4143D02*
X4999Y4143D01*
X5530Y3937D02*
X5205Y3937D01*
X4894Y2559D02*
X5530Y2559D01*
X3553Y3899D02*
X4894Y2559D01*
X2812Y3899D02*
X3553Y3899D01*
X4720Y18635D02*
X7280Y18635D01*
X18494Y10175D02*
X17850Y10819D01*
X18625Y10175D02*
X18494Y10175D01*
X18625Y9750D02*
X18625Y10175D01*
X5530Y2559D02*
X5855Y2559D01*
X17850Y10984D02*
X17850Y10819D01*
X1782Y3899D02*
X2812Y3899D01*
X8629Y2112D02*
X8104Y2112D01*
X8104Y2112D02*
X8104Y1612D01*
X6058Y2112D02*
X8104Y2112D01*
X5855Y2315D02*
X6058Y2112D01*
X5855Y2559D02*
X5855Y2315D01*
X16123Y984D02*
X15797Y984D01*
X12892Y2612D02*
X12892Y2112D01*
X12629Y2612D02*
X12892Y2612D01*
X17850Y10984D02*
X17850Y11150D01*
X844Y3899D02*
X1262Y3899D01*
X1262Y3899D02*
X1782Y3899D01*
X1782Y7154D02*
X1782Y7600D01*
X1262Y6635D02*
X1782Y7154D01*
X1262Y3899D02*
X1262Y6635D01*
X15348Y2209D02*
X15348Y1878D01*
X15141Y2539D02*
X15348Y2539D01*
X15017Y2662D02*
X15141Y2539D01*
X15017Y3907D02*
X15017Y2662D01*
X15047Y3937D02*
X15017Y3907D01*
X15373Y3937D02*
X15047Y3937D01*
X15348Y2209D02*
X15348Y2539D01*
X34250Y18250D02*
X33250Y18250D01*
X844Y7600D02*
X1313Y7600D01*
X1313Y7600D02*
X1782Y7600D01*
X1000Y7913D02*
X1000Y8500D01*
X1313Y7600D02*
X1000Y7913D01*
X1000Y15000D02*
X1000Y14549D01*
X1000Y8500D02*
X1000Y8950D01*
X5936Y11886D02*
X6900Y12850D01*
X1382Y11886D02*
X5936Y11886D01*
X1319Y11950D02*
X1382Y11886D01*
X411Y11950D02*
X1319Y11950D01*
X411Y13960D02*
X411Y11950D01*
X1000Y14549D02*
X411Y13960D01*
X774Y8950D02*
X1000Y8950D01*
X411Y9313D02*
X774Y8950D01*
X411Y11950D02*
X411Y9313D01*
X15047Y644D02*
X15047Y1578D01*
X15133Y559D02*
X15047Y644D01*
X15616Y559D02*
X15133Y559D01*
X15797Y740D02*
X15616Y559D01*
X15797Y984D02*
X15797Y740D01*
X15047Y1578D02*
X15348Y1878D01*
X8629Y1612D02*
X8367Y1612D01*
X8367Y1612D02*
X8104Y1612D01*
X12629Y2112D02*
X12771Y2112D01*
X12771Y2112D02*
X12892Y2112D01*
X12629Y1612D02*
X13155Y1612D01*
X13155Y1824D02*
X13155Y1612D01*
X12867Y2112D02*
X13155Y1824D01*
X12771Y2112D02*
X12867Y2112D01*
X15014Y1612D02*
X15047Y1578D01*
X13155Y1612D02*
X15014Y1612D01*
X8629Y1112D02*
X8695Y1112D01*
X8629Y612D02*
X9155Y612D01*
X8367Y1440D02*
X8695Y1112D01*
X8367Y1612D02*
X8367Y1440D01*
X12629Y1112D02*
X12523Y1112D01*
X12629Y612D02*
X12104Y612D01*
X12104Y1413D02*
X12104Y1612D01*
X12405Y1112D02*
X12104Y1413D01*
X12523Y1112D02*
X12405Y1112D01*
X12104Y809D02*
X12104Y710D01*
X12407Y1112D02*
X12104Y809D01*
X12523Y1112D02*
X12407Y1112D01*
X12104Y710D02*
X12104Y612D01*
X12104Y710D02*
X9155Y710D01*
X9155Y799D02*
X9155Y710D01*
X8842Y1112D02*
X9155Y799D01*
X8695Y1112D02*
X8842Y1112D01*
X9155Y710D02*
X9155Y612D01*
X7280Y18635D02*
X8970Y18635D01*
X8970Y18635D02*
X11530Y18635D01*
X13003Y17804D02*
X16250Y17804D01*
X12172Y18635D02*
X13003Y17804D01*
X11530Y18635D02*
X12172Y18635D01*
X16250Y18250D02*
X16250Y17804D01*
X17850Y14900D02*
X17850Y14734D01*
X17850Y14734D02*
X17850Y14569D01*
X16334Y17804D02*
X16250Y17804D01*
X18183Y15954D02*
X16334Y17804D01*
X18183Y15068D02*
X18183Y15954D01*
X17850Y14734D02*
X18183Y15068D01*
X18494Y13925D02*
X18625Y13925D01*
X17850Y14569D02*
X18494Y13925D01*
X18625Y13500D02*
X18625Y13925D01*
X1782Y7600D02*
X2812Y7600D01*
X17850Y11150D02*
X17850Y11480D01*
X18625Y13500D02*
X18950Y13500D01*
X8400Y7350D02*
X8900Y6850D01*
X4900Y7350D02*
X8400Y7350D01*
X12629Y1612D02*
X12104Y1612D01*
X18950Y13500D02*
X18950Y12373D01*
X18056Y11480D02*
X17850Y11480D01*
X18950Y12373D02*
X18056Y11480D01*
X27240Y12240D02*
X33250Y18250D01*
X27107Y12373D02*
X27240Y12240D01*
X18950Y12373D02*
X27107Y12373D01*
X27240Y12240D02*
X27559Y11922D01*
X19310Y4921D02*
X18984Y4921D01*
X18946Y4883D02*
X18229Y4883D01*
X18984Y4921D02*
X18946Y4883D01*
X19310Y3937D02*
X18984Y3937D01*
X18870Y4051D02*
X17416Y4051D01*
X18984Y3937D02*
X18870Y4051D01*
X18476Y3461D02*
X18984Y2952D01*
X17012Y3461D02*
X18476Y3461D01*
X19310Y2952D02*
X18984Y2952D01*
X19310Y1968D02*
X18984Y1968D01*
X18088Y2864D02*
X16599Y2864D01*
X18984Y1968D02*
X18088Y2864D01*
X17057Y984D02*
X16062Y1979D01*
X19310Y984D02*
X17057Y984D01*
X15373Y6376D02*
X15373Y4921D01*
X14900Y6850D02*
X15373Y6376D01*
X2957Y13500D02*
X1000Y13500D01*
X4221Y14763D02*
X2957Y13500D01*
X4546Y14763D02*
X4221Y14763D01*
X6280Y3937D02*
X5955Y3937D01*
X13047Y8997D02*
X13355Y9305D01*
X11386Y8997D02*
X13047Y8997D01*
X9400Y7011D02*
X11386Y8997D01*
X9400Y6705D02*
X9400Y7011D01*
X8133Y5439D02*
X9400Y6705D01*
X6113Y5439D02*
X8133Y5439D01*
X5955Y5281D02*
X6113Y5439D01*
X5955Y3937D02*
X5955Y5281D01*
X6280Y4921D02*
X6605Y4921D01*
X9612Y4921D02*
X6605Y4921D01*
X11400Y6708D02*
X9612Y4921D01*
X11400Y6990D02*
X11400Y6708D01*
X12110Y7700D02*
X11400Y6990D01*
X16049Y7700D02*
X12110Y7700D01*
X16900Y6850D02*
X16049Y7700D01*
X11610Y4921D02*
X11201Y4921D01*
X13400Y6711D02*
X11610Y4921D01*
X13400Y6990D02*
X13400Y6711D01*
X13910Y7500D02*
X13400Y6990D01*
X15249Y7500D02*
X13910Y7500D01*
X15900Y6850D02*
X15249Y7500D01*
X11201Y10629D02*
X11526Y10629D01*
X12900Y12850D02*
X12900Y11064D01*
X11961Y11064D02*
X12900Y11064D01*
X11526Y10629D02*
X11961Y11064D01*
X15724Y1335D02*
X15373Y984D01*
X15724Y2869D02*
X15724Y1335D01*
X16487Y3632D02*
X15724Y2869D01*
X16487Y3891D02*
X16487Y3632D01*
X18215Y5619D02*
X16487Y3891D01*
X18468Y5619D02*
X18215Y5619D01*
X19176Y6327D02*
X18468Y5619D01*
X19176Y8164D02*
X19176Y6327D01*
X18910Y8430D02*
X19176Y8164D01*
X18479Y8430D02*
X18910Y8430D01*
X17009Y9899D02*
X18479Y8430D01*
X16713Y9899D02*
X17009Y9899D01*
X15548Y11064D02*
X16713Y9899D01*
X12900Y11064D02*
X15548Y11064D01*
X12629Y3112D02*
X12104Y3112D01*
X12104Y3112D02*
X11977Y3112D01*
X16148Y2559D02*
X16148Y2889D01*
X16687Y3428D02*
X16148Y2889D01*
X16687Y3808D02*
X16687Y3428D01*
X18298Y5419D02*
X16687Y3808D01*
X18551Y5419D02*
X18298Y5419D01*
X20262Y7130D02*
X18551Y5419D01*
X20262Y10932D02*
X20262Y7130D01*
X10688Y14594D02*
X8248Y14594D01*
X18650Y11500D02*
X19932Y11500D01*
X19932Y11500D02*
X19932Y11744D01*
X22797Y11500D02*
X24965Y9331D01*
X19932Y11500D02*
X22797Y11500D01*
X11666Y9327D02*
X7349Y9327D01*
X19750Y15250D02*
X18980Y15250D01*
X21750Y17250D02*
X19750Y15250D01*
X18650Y15250D02*
X18980Y15250D01*
M02*
