G04 (created by PCBNEW (2013-07-07 BZR 4022)-stable) date 31/12/2015 20:31:10*
%MOIN*%
G04 Gerber Fmt 3.4, Leading zero omitted, Abs format*
%FSLAX34Y34*%
G01*
G70*
G90*
G04 APERTURE LIST*
%ADD10C,0.00590551*%
%ADD11C,0.00393701*%
%ADD12R,0.0866X0.06*%
%ADD13O,0.0866X0.06*%
%ADD14C,0.1772*%
%ADD15R,0.06X0.06*%
%ADD16C,0.06*%
%ADD17C,0.1181*%
%ADD18R,0.118X0.118*%
%ADD19R,0.0472X0.0472*%
%ADD20R,0.06X0.0787*%
%ADD21O,0.06X0.0787*%
%ADD22R,0.0984X0.055*%
%ADD23C,0.0354*%
G04 APERTURE END LIST*
G54D10*
G54D11*
X39370Y0D02*
X0Y0D01*
X39370Y19685D02*
X39370Y0D01*
X0Y19685D02*
X39370Y19685D01*
X0Y0D02*
X0Y19685D01*
G54D12*
X1000Y8500D03*
G54D13*
X1000Y9500D03*
X1000Y10500D03*
X1000Y11500D03*
X1000Y12500D03*
X1000Y13500D03*
G54D12*
X1000Y16000D03*
G54D13*
X1000Y15000D03*
G54D14*
X1574Y1574D03*
X37795Y18110D03*
X37795Y1574D03*
X1574Y18110D03*
G54D15*
X20750Y17250D03*
G54D16*
X20750Y18250D03*
X21750Y17250D03*
X21750Y18250D03*
X22750Y17250D03*
X22750Y18250D03*
X23750Y17250D03*
X23750Y18250D03*
X24750Y17250D03*
X24750Y18250D03*
X25750Y17250D03*
X25750Y18250D03*
G54D17*
X27559Y11922D03*
G54D18*
X27559Y3852D03*
G54D19*
X6476Y9842D03*
X7302Y9842D03*
X2539Y5905D03*
X3365Y5905D03*
X2539Y9842D03*
X3365Y9842D03*
X2539Y13779D03*
X3365Y13779D03*
X10413Y13779D03*
X11239Y13779D03*
X10413Y9842D03*
X11239Y9842D03*
X10413Y5905D03*
X11239Y5905D03*
X6476Y13779D03*
X7302Y13779D03*
X6476Y5905D03*
X7302Y5905D03*
X36988Y5905D03*
X37814Y5905D03*
X36988Y9842D03*
X37814Y9842D03*
X36988Y13779D03*
X37814Y13779D03*
X19272Y9842D03*
X20098Y9842D03*
X19272Y5905D03*
X20098Y5905D03*
X15335Y13779D03*
X16161Y13779D03*
X15335Y9842D03*
X16161Y9842D03*
X15335Y5905D03*
X16161Y5905D03*
X19272Y13779D03*
X20098Y13779D03*
X32067Y13779D03*
X32893Y13779D03*
X32067Y9842D03*
X32893Y9842D03*
X32067Y5905D03*
X32893Y5905D03*
X28130Y13779D03*
X28956Y13779D03*
X28130Y9842D03*
X28956Y9842D03*
X28130Y5905D03*
X28956Y5905D03*
X24193Y9842D03*
X25019Y9842D03*
X24193Y5905D03*
X25019Y5905D03*
X24193Y13779D03*
X25019Y13779D03*
G54D20*
X14250Y17152D03*
G54D21*
X14250Y18348D03*
X15250Y17152D03*
X15250Y18348D03*
X16250Y17152D03*
X16250Y18348D03*
G54D22*
X8971Y16864D03*
X8971Y18636D03*
X11530Y16864D03*
X11530Y18636D03*
X4721Y16864D03*
X4721Y18636D03*
X7280Y16864D03*
X7280Y18636D03*
G54D16*
X6900Y6850D03*
X7900Y6850D03*
X8900Y6850D03*
X5900Y6850D03*
X9900Y6850D03*
X10900Y6850D03*
X11900Y6850D03*
X12900Y6850D03*
X13900Y6850D03*
X14900Y6850D03*
X15900Y6850D03*
X16900Y6850D03*
X16900Y8350D03*
X16900Y9350D03*
X16900Y10350D03*
X16900Y11350D03*
X16900Y12850D03*
X15900Y12850D03*
X14900Y12850D03*
X13900Y12850D03*
X12900Y12850D03*
X11900Y12850D03*
X10900Y12850D03*
X9900Y12850D03*
X8900Y12850D03*
X7900Y12850D03*
X6900Y12850D03*
X5900Y12850D03*
X4900Y7350D03*
X4900Y9350D03*
X4900Y10350D03*
X4900Y11350D03*
X4900Y12350D03*
X14400Y11850D03*
X13400Y11850D03*
X10400Y11850D03*
X9400Y11850D03*
X4900Y8350D03*
G54D15*
X29250Y18250D03*
G54D16*
X30250Y18250D03*
X31250Y18250D03*
X32250Y18250D03*
X33250Y18250D03*
X34250Y18250D03*
G54D23*
X1907Y6616D03*
X1907Y4884D03*
M02*
