G04 (created by PCBNEW (2013-07-07 BZR 4022)-stable) date 31/12/2015 20:31:10*
%MOIN*%
G04 Gerber Fmt 3.4, Leading zero omitted, Abs format*
%FSLAX34Y34*%
G01*
G70*
G90*
G04 APERTURE LIST*
%ADD10C,0.00590551*%
%ADD11C,0.00393701*%
%ADD12R,0.036X0.036*%
%ADD13R,0.0866X0.06*%
%ADD14O,0.0866X0.06*%
%ADD15C,0.1772*%
%ADD16R,0.035X0.055*%
%ADD17R,0.06X0.06*%
%ADD18C,0.06*%
%ADD19C,0.1181*%
%ADD20R,0.118X0.118*%
%ADD21R,0.075X0.025*%
%ADD22R,0.06X0.0787*%
%ADD23O,0.06X0.0787*%
%ADD24R,0.0984X0.055*%
%ADD25R,0.102362X0.0197*%
%ADD26R,0.15748X0.0591*%
%ADD27R,0.11811X0.0591*%
%ADD28C,0.0354*%
G04 APERTURE END LIST*
G54D10*
G54D11*
X39370Y0D02*
X0Y0D01*
X39370Y19685D02*
X39370Y0D01*
X0Y19685D02*
X39370Y19685D01*
X0Y0D02*
X0Y19685D01*
G54D12*
X17850Y14900D03*
X17850Y15600D03*
X18650Y15250D03*
X17850Y11150D03*
X17850Y11850D03*
X18650Y11500D03*
X15348Y2209D03*
X15348Y2909D03*
X16148Y2559D03*
G54D13*
X1000Y8500D03*
G54D14*
X1000Y9500D03*
X1000Y10500D03*
X1000Y11500D03*
X1000Y12500D03*
X1000Y13500D03*
G54D13*
X1000Y16000D03*
G54D14*
X1000Y15000D03*
G54D15*
X1574Y1574D03*
X37795Y18110D03*
X37795Y1574D03*
X1574Y18110D03*
G54D16*
X6280Y3937D03*
X5530Y3937D03*
X6280Y4921D03*
X5530Y4921D03*
X11201Y4921D03*
X10451Y4921D03*
X15373Y4921D03*
X16123Y4921D03*
X19310Y4921D03*
X20060Y4921D03*
X19310Y3937D03*
X20060Y3937D03*
X19310Y2952D03*
X20060Y2952D03*
X19310Y1968D03*
X20060Y1968D03*
X19310Y984D03*
X20060Y984D03*
X17875Y7750D03*
X18625Y7750D03*
X17875Y6750D03*
X18625Y6750D03*
G54D17*
X20750Y17250D03*
G54D18*
X20750Y18250D03*
X21750Y17250D03*
X21750Y18250D03*
X22750Y17250D03*
X22750Y18250D03*
X23750Y17250D03*
X23750Y18250D03*
X24750Y17250D03*
X24750Y18250D03*
X25750Y17250D03*
X25750Y18250D03*
G54D16*
X6280Y2559D03*
X5530Y2559D03*
G54D19*
X27559Y11922D03*
G54D20*
X27559Y3852D03*
G54D21*
X8629Y4112D03*
X8629Y3612D03*
X8629Y3112D03*
X8629Y2612D03*
X8629Y2112D03*
X8629Y1612D03*
X8629Y1112D03*
X8629Y612D03*
X12629Y612D03*
X12629Y1112D03*
X12629Y1612D03*
X12629Y2112D03*
X12629Y2612D03*
X12629Y3112D03*
X12629Y3612D03*
X12629Y4112D03*
G54D16*
X10451Y10629D03*
X11201Y10629D03*
X15373Y984D03*
X16123Y984D03*
X4546Y14763D03*
X5296Y14763D03*
G54D22*
X14250Y17152D03*
G54D23*
X14250Y18348D03*
X15250Y17152D03*
X15250Y18348D03*
X16250Y17152D03*
X16250Y18348D03*
G54D16*
X17875Y13500D03*
X18625Y13500D03*
X17875Y9750D03*
X18625Y9750D03*
X16123Y3937D03*
X15373Y3937D03*
G54D24*
X8971Y16864D03*
X8971Y18636D03*
X11530Y16864D03*
X11530Y18636D03*
X4721Y16864D03*
X4721Y18636D03*
X7280Y16864D03*
X7280Y18636D03*
G54D18*
X6900Y6850D03*
X7900Y6850D03*
X8900Y6850D03*
X5900Y6850D03*
X9900Y6850D03*
X10900Y6850D03*
X11900Y6850D03*
X12900Y6850D03*
X13900Y6850D03*
X14900Y6850D03*
X15900Y6850D03*
X16900Y6850D03*
X16900Y8350D03*
X16900Y9350D03*
X16900Y10350D03*
X16900Y11350D03*
X16900Y12850D03*
X15900Y12850D03*
X14900Y12850D03*
X13900Y12850D03*
X12900Y12850D03*
X11900Y12850D03*
X10900Y12850D03*
X9900Y12850D03*
X8900Y12850D03*
X7900Y12850D03*
X6900Y12850D03*
X5900Y12850D03*
X4900Y7350D03*
X4900Y9350D03*
X4900Y10350D03*
X4900Y11350D03*
X4900Y12350D03*
X14400Y11850D03*
X13400Y11850D03*
X10400Y11850D03*
X9400Y11850D03*
X4900Y8350D03*
G54D17*
X29250Y18250D03*
G54D18*
X30250Y18250D03*
X31250Y18250D03*
X32250Y18250D03*
X33250Y18250D03*
X34250Y18250D03*
G54D25*
X2852Y5750D03*
X2852Y6064D03*
X2852Y5120D03*
G54D26*
X844Y7600D03*
G54D27*
X2812Y7600D03*
G54D26*
X844Y3899D03*
G54D27*
X2812Y3899D03*
G54D25*
X2852Y5435D03*
G54D28*
X1907Y6616D03*
X1907Y4884D03*
G54D25*
X2852Y6379D03*
M02*
