G04 (created by PCBNEW (2013-07-07 BZR 4022)-stable) date 29/09/2013 00:43:05*
%MOIN*%
G04 Gerber Fmt 3.4, Leading zero omitted, Abs format*
%FSLAX34Y34*%
G01*
G70*
G90*
G04 APERTURE LIST*
%ADD10C,0.00590551*%
%ADD11R,0.035X0.055*%
%ADD12R,0.0787X0.06*%
%ADD13O,0.0787X0.06*%
%ADD14R,0.0866X0.06*%
%ADD15O,0.0866X0.06*%
%ADD16R,0.06X0.06*%
%ADD17C,0.06*%
%ADD18R,0.045X0.02*%
%ADD19C,0.035*%
%ADD20C,0.01*%
G04 APERTURE END LIST*
G54D10*
G54D11*
X9875Y11000D03*
X10625Y11000D03*
G54D12*
X902Y13000D03*
G54D13*
X2098Y13000D03*
X902Y12000D03*
X2098Y12000D03*
X902Y11000D03*
X2098Y11000D03*
X902Y10000D03*
X2098Y10000D03*
G54D14*
X6000Y1000D03*
G54D15*
X6000Y2000D03*
X6000Y3000D03*
X6000Y4000D03*
X6000Y5000D03*
X6000Y6000D03*
X6000Y7000D03*
X6000Y8000D03*
X6000Y9000D03*
X6000Y10000D03*
X6000Y11000D03*
X6000Y12000D03*
X6000Y13000D03*
X6000Y14000D03*
X6000Y15000D03*
X6000Y16000D03*
X6000Y17000D03*
X6000Y18000D03*
G54D16*
X14500Y12000D03*
G54D17*
X13500Y12000D03*
X14500Y13000D03*
X13500Y13000D03*
X14500Y14000D03*
X13500Y14000D03*
X14500Y15000D03*
X13500Y15000D03*
X14500Y16000D03*
X13500Y16000D03*
G54D16*
X14500Y3500D03*
G54D17*
X13500Y3500D03*
X14500Y4500D03*
X13500Y4500D03*
X14500Y5500D03*
X13500Y5500D03*
X14500Y6500D03*
X13500Y6500D03*
X14500Y7500D03*
X13500Y7500D03*
G54D11*
X8125Y11000D03*
X8875Y11000D03*
G54D18*
X10800Y13000D03*
X10800Y13500D03*
X10800Y14000D03*
X10800Y14500D03*
X10800Y15000D03*
X10800Y15500D03*
X10800Y16000D03*
X8300Y16000D03*
X8300Y15500D03*
X8300Y14500D03*
X8300Y14000D03*
X8300Y13500D03*
X8300Y13000D03*
X8300Y15000D03*
G54D11*
X9875Y10000D03*
X10625Y10000D03*
X9875Y9000D03*
X10625Y9000D03*
X8875Y8000D03*
X8125Y8000D03*
X8875Y10000D03*
X8125Y10000D03*
X8875Y9000D03*
X8125Y9000D03*
G54D19*
X9549Y13456D03*
X10294Y15000D03*
X10283Y13939D03*
X10289Y12975D03*
X8875Y11858D03*
G54D20*
X9875Y10000D02*
X9200Y10000D01*
X8875Y10000D02*
X9037Y10000D01*
X9037Y10000D02*
X9200Y10000D01*
X9037Y9587D02*
X8875Y9425D01*
X9037Y10000D02*
X9037Y9587D01*
X8875Y9212D02*
X8875Y9425D01*
X9337Y9212D02*
X9549Y9000D01*
X8875Y9212D02*
X9337Y9212D01*
X9875Y9000D02*
X9549Y9000D01*
X9875Y10000D02*
X9875Y11000D01*
X8875Y9106D02*
X8875Y9212D01*
X8875Y9106D02*
X8875Y9000D01*
X8875Y9000D02*
X8875Y8000D01*
X9875Y11000D02*
X9549Y11000D01*
X9549Y11000D02*
X9549Y13456D01*
X14500Y12000D02*
X14500Y11549D01*
X6000Y9000D02*
X6000Y8549D01*
X14500Y11325D02*
X14500Y11549D01*
X10131Y6956D02*
X14500Y11325D01*
X7909Y6956D02*
X10131Y6956D01*
X6316Y8549D02*
X7909Y6956D01*
X6000Y8549D02*
X6316Y8549D01*
X6239Y9549D02*
X6000Y9549D01*
X6988Y8800D02*
X6239Y9549D01*
X6988Y8160D02*
X6988Y8800D01*
X7992Y7156D02*
X6988Y8160D01*
X10021Y7156D02*
X7992Y7156D01*
X13500Y10635D02*
X10021Y7156D01*
X13500Y12000D02*
X13500Y10635D01*
X6000Y10000D02*
X6000Y9549D01*
X7924Y11625D02*
X8125Y11425D01*
X7924Y13000D02*
X7924Y11625D01*
X8300Y13000D02*
X7924Y13000D01*
X8125Y11000D02*
X8125Y11425D01*
X7250Y10450D02*
X7799Y11000D01*
X5671Y10450D02*
X7250Y10450D01*
X5416Y10195D02*
X5671Y10450D01*
X5416Y3805D02*
X5416Y10195D01*
X5722Y3499D02*
X5416Y3805D01*
X6276Y3499D02*
X5722Y3499D01*
X6585Y3190D02*
X6276Y3499D01*
X6585Y1811D02*
X6585Y3190D01*
X6225Y1450D02*
X6585Y1811D01*
X6000Y1450D02*
X6225Y1450D01*
X6000Y1000D02*
X6000Y1450D01*
X8125Y11000D02*
X7799Y11000D01*
X7083Y15500D02*
X6583Y16000D01*
X8300Y15500D02*
X7083Y15500D01*
X6000Y16000D02*
X6583Y16000D01*
X8300Y16000D02*
X8675Y16000D01*
X14049Y13549D02*
X14500Y14000D01*
X14049Y13450D02*
X14049Y13549D01*
X8125Y8000D02*
X8450Y8000D01*
X9735Y17059D02*
X8675Y16000D01*
X14677Y17059D02*
X9735Y17059D01*
X15350Y16386D02*
X14677Y17059D01*
X15350Y13213D02*
X15350Y16386D01*
X14686Y12549D02*
X15350Y13213D01*
X14302Y12549D02*
X14686Y12549D01*
X14049Y12803D02*
X14302Y12549D01*
X14049Y13450D02*
X14049Y12803D01*
X8450Y7762D02*
X8450Y8000D01*
X8637Y7574D02*
X8450Y7762D01*
X9873Y7574D02*
X8637Y7574D01*
X12531Y10232D02*
X9873Y7574D01*
X12531Y12683D02*
X12531Y10232D01*
X13297Y13450D02*
X12531Y12683D01*
X14049Y13450D02*
X13297Y13450D01*
X10800Y15000D02*
X10424Y15000D01*
X10424Y15000D02*
X10294Y15000D01*
X10625Y9000D02*
X10950Y9000D01*
X13953Y14453D02*
X13500Y14000D01*
X13953Y15185D02*
X13953Y14453D01*
X13639Y15500D02*
X13953Y15185D01*
X10800Y15500D02*
X13639Y15500D01*
X12212Y10262D02*
X10950Y9000D01*
X12212Y12712D02*
X12212Y10262D01*
X13500Y14000D02*
X12212Y12712D01*
X10800Y14000D02*
X10424Y14000D01*
X10364Y13939D02*
X10424Y14000D01*
X10283Y13939D02*
X10364Y13939D01*
X10625Y10000D02*
X10299Y10000D01*
X14950Y15450D02*
X14500Y15000D01*
X14950Y16221D02*
X14950Y15450D01*
X14511Y16659D02*
X14950Y16221D01*
X10914Y16659D02*
X14511Y16659D01*
X9963Y15708D02*
X10914Y16659D01*
X9963Y14858D02*
X9963Y15708D01*
X10347Y14474D02*
X9963Y14858D01*
X10372Y14500D02*
X10347Y14474D01*
X10800Y14500D02*
X10372Y14500D01*
X9954Y14081D02*
X10347Y14474D01*
X9954Y12466D02*
X9954Y14081D01*
X10299Y12121D02*
X9954Y12466D01*
X10299Y10000D02*
X10299Y12121D01*
X10314Y13000D02*
X10289Y12975D01*
X10800Y13000D02*
X10314Y13000D01*
X11175Y11225D02*
X10950Y11000D01*
X11175Y13500D02*
X11175Y11225D01*
X10800Y13500D02*
X11175Y13500D01*
X10625Y11000D02*
X10950Y11000D01*
X12000Y13500D02*
X11175Y13500D01*
X13500Y15000D02*
X12000Y13500D01*
X5760Y16549D02*
X6000Y16549D01*
X5413Y16202D02*
X5760Y16549D01*
X5413Y15815D02*
X5413Y16202D01*
X5728Y15500D02*
X5413Y15815D01*
X6276Y15500D02*
X5728Y15500D01*
X7276Y14500D02*
X6276Y15500D01*
X8300Y14500D02*
X7276Y14500D01*
X6000Y17000D02*
X6000Y16549D01*
X8300Y15000D02*
X8675Y15000D01*
X8125Y10000D02*
X8450Y10000D01*
X8675Y15000D02*
X9105Y15000D01*
X15150Y13650D02*
X14500Y13000D01*
X15150Y16303D02*
X15150Y13650D01*
X14594Y16859D02*
X15150Y16303D01*
X10829Y16859D02*
X14594Y16859D01*
X9105Y15136D02*
X10829Y16859D01*
X9105Y15000D02*
X9105Y15136D01*
X9204Y14901D02*
X9105Y15000D01*
X9204Y10637D02*
X9204Y14901D01*
X9141Y10574D02*
X9204Y10637D01*
X8781Y10574D02*
X9141Y10574D01*
X8450Y10243D02*
X8781Y10574D01*
X8450Y10000D02*
X8450Y10243D01*
X5760Y17549D02*
X6000Y17549D01*
X5211Y17001D02*
X5760Y17549D01*
X5211Y15016D02*
X5211Y17001D01*
X5714Y14513D02*
X5211Y15016D01*
X6714Y14513D02*
X5714Y14513D01*
X7728Y13500D02*
X6714Y14513D01*
X8300Y13500D02*
X7728Y13500D01*
X6000Y18000D02*
X6000Y17549D01*
X7799Y10338D02*
X7799Y9000D01*
X8036Y10574D02*
X7799Y10338D01*
X8373Y10574D02*
X8036Y10574D01*
X8498Y10699D02*
X8373Y10574D01*
X8498Y12358D02*
X8498Y10699D01*
X8675Y12535D02*
X8498Y12358D01*
X8675Y14000D02*
X8675Y12535D01*
X8300Y14000D02*
X8675Y14000D01*
X8125Y9000D02*
X7799Y9000D01*
X7799Y7661D02*
X7799Y9000D01*
X8100Y7361D02*
X7799Y7661D01*
X9942Y7361D02*
X8100Y7361D01*
X12931Y10350D02*
X9942Y7361D01*
X12931Y12431D02*
X12931Y10350D01*
X13500Y13000D02*
X12931Y12431D01*
X6049Y6500D02*
X6000Y6549D01*
X13500Y6500D02*
X6049Y6500D01*
X6000Y7000D02*
X6000Y6549D01*
X1445Y9906D02*
X1445Y10000D01*
X1910Y9442D02*
X1445Y9906D01*
X2291Y9442D02*
X1910Y9442D01*
X5216Y6517D02*
X2291Y9442D01*
X5216Y3008D02*
X5216Y6517D01*
X5774Y2450D02*
X5216Y3008D01*
X6000Y2450D02*
X5774Y2450D01*
X6000Y2000D02*
X6000Y2450D01*
X1000Y10000D02*
X1445Y10000D01*
X8875Y11000D02*
X8875Y11858D01*
X14040Y16459D02*
X14500Y16000D01*
X11634Y16459D02*
X14040Y16459D01*
X11175Y16000D02*
X11634Y16459D01*
X10800Y16000D02*
X11175Y16000D01*
M02*
