G04 (created by PCBNEW (2013-07-07 BZR 4022)-stable) date 29/09/2013 00:43:05*
%MOIN*%
G04 Gerber Fmt 3.4, Leading zero omitted, Abs format*
%FSLAX34Y34*%
G01*
G70*
G90*
G04 APERTURE LIST*
%ADD10C,0.00590551*%
%ADD11C,0.011811*%
%ADD12C,0.005*%
%ADD13C,0.012*%
%ADD14C,0.008*%
%ADD15C,0.0001*%
G04 APERTURE END LIST*
G54D10*
G54D11*
X7601Y17760D02*
X7404Y18042D01*
X7264Y17760D02*
X7264Y18351D01*
X7489Y18351D01*
X7545Y18323D01*
X7573Y18295D01*
X7601Y18239D01*
X7601Y18154D01*
X7573Y18098D01*
X7545Y18070D01*
X7489Y18042D01*
X7264Y18042D01*
X7826Y17929D02*
X8107Y17929D01*
X7770Y17760D02*
X7967Y18351D01*
X8164Y17760D01*
X8361Y17760D02*
X8361Y18351D01*
X8557Y17929D01*
X8754Y18351D01*
X8754Y17760D01*
X9035Y17760D02*
X9035Y18351D01*
X9260Y18351D01*
X9317Y18323D01*
X9345Y18295D01*
X9373Y18239D01*
X9373Y18154D01*
X9345Y18098D01*
X9317Y18070D01*
X9260Y18042D01*
X9035Y18042D01*
X9598Y17789D02*
X9682Y17760D01*
X9823Y17760D01*
X9879Y17789D01*
X9907Y17817D01*
X9935Y17873D01*
X9935Y17929D01*
X9907Y17985D01*
X9879Y18014D01*
X9823Y18042D01*
X9710Y18070D01*
X9654Y18098D01*
X9626Y18126D01*
X9598Y18182D01*
X9598Y18239D01*
X9626Y18295D01*
X9654Y18323D01*
X9710Y18351D01*
X9851Y18351D01*
X9935Y18323D01*
X10188Y17985D02*
X10638Y17985D01*
X11116Y18070D02*
X10920Y18070D01*
X10920Y17760D02*
X10920Y18351D01*
X11201Y18351D01*
X11426Y17760D02*
X11426Y18351D01*
X11566Y18351D01*
X11651Y18323D01*
X11707Y18267D01*
X11735Y18210D01*
X11763Y18098D01*
X11763Y18014D01*
X11735Y17901D01*
X11707Y17845D01*
X11651Y17789D01*
X11566Y17760D01*
X11426Y17760D01*
X7208Y16816D02*
X6926Y16816D01*
X6926Y17406D01*
X7742Y16872D02*
X7714Y16844D01*
X7629Y16816D01*
X7573Y16816D01*
X7489Y16844D01*
X7433Y16900D01*
X7404Y16956D01*
X7376Y17069D01*
X7376Y17153D01*
X7404Y17266D01*
X7433Y17322D01*
X7489Y17378D01*
X7573Y17406D01*
X7629Y17406D01*
X7714Y17378D01*
X7742Y17350D01*
X7995Y16816D02*
X7995Y17406D01*
X8136Y17406D01*
X8220Y17378D01*
X8276Y17322D01*
X8304Y17266D01*
X8332Y17153D01*
X8332Y17069D01*
X8304Y16956D01*
X8276Y16900D01*
X8220Y16844D01*
X8136Y16816D01*
X7995Y16816D01*
X9007Y16984D02*
X9289Y16984D01*
X8951Y16816D02*
X9148Y17406D01*
X9345Y16816D01*
X9795Y16816D02*
X9795Y17406D01*
X9795Y16844D02*
X9739Y16816D01*
X9626Y16816D01*
X9570Y16844D01*
X9542Y16872D01*
X9514Y16928D01*
X9514Y17097D01*
X9542Y17153D01*
X9570Y17181D01*
X9626Y17209D01*
X9739Y17209D01*
X9795Y17181D01*
X10329Y16816D02*
X10329Y17125D01*
X10301Y17181D01*
X10245Y17209D01*
X10132Y17209D01*
X10076Y17181D01*
X10329Y16844D02*
X10273Y16816D01*
X10132Y16816D01*
X10076Y16844D01*
X10048Y16900D01*
X10048Y16956D01*
X10076Y17012D01*
X10132Y17041D01*
X10273Y17041D01*
X10329Y17069D01*
X10610Y17209D02*
X10610Y16619D01*
X10610Y17181D02*
X10667Y17209D01*
X10779Y17209D01*
X10835Y17181D01*
X10863Y17153D01*
X10892Y17097D01*
X10892Y16928D01*
X10863Y16872D01*
X10835Y16844D01*
X10779Y16816D01*
X10667Y16816D01*
X10610Y16844D01*
X11060Y17209D02*
X11285Y17209D01*
X11145Y17406D02*
X11145Y16900D01*
X11173Y16844D01*
X11229Y16816D01*
X11285Y16816D01*
X11707Y16844D02*
X11651Y16816D01*
X11538Y16816D01*
X11482Y16844D01*
X11454Y16900D01*
X11454Y17125D01*
X11482Y17181D01*
X11538Y17209D01*
X11651Y17209D01*
X11707Y17181D01*
X11735Y17125D01*
X11735Y17069D01*
X11454Y17012D01*
X11988Y16816D02*
X11988Y17209D01*
X11988Y17097D02*
X12016Y17153D01*
X12044Y17181D01*
X12101Y17209D01*
X12157Y17209D01*
G54D12*
X9650Y10700D02*
G75*
G03X9650Y10700I-50J0D01*
G74*
G01*
X10050Y10700D02*
X9650Y10700D01*
X9650Y10700D02*
X9650Y11300D01*
X9650Y11300D02*
X10050Y11300D01*
X10450Y11300D02*
X10850Y11300D01*
X10850Y11300D02*
X10850Y10700D01*
X10850Y10700D02*
X10450Y10700D01*
G54D13*
X2500Y13500D02*
X2500Y9500D01*
X2500Y9500D02*
X500Y9500D01*
X500Y9500D02*
X500Y13500D01*
X1500Y13500D02*
X1500Y12500D01*
X1500Y12500D02*
X500Y12500D01*
X2500Y13500D02*
X500Y13500D01*
G54D14*
X15772Y14787D02*
X15772Y17937D01*
X15772Y17937D02*
X12228Y17937D01*
X12228Y17937D02*
X12228Y10063D01*
X12228Y10063D02*
X14000Y10063D01*
X14000Y10063D02*
X15772Y10063D01*
X15772Y10063D02*
X15772Y13213D01*
G54D13*
X13000Y11500D02*
X13000Y16500D01*
X13000Y16500D02*
X15000Y16500D01*
X15000Y16500D02*
X15000Y11500D01*
X15000Y11500D02*
X13000Y11500D01*
G54D14*
X15772Y6287D02*
X15772Y9437D01*
X15772Y9437D02*
X12228Y9437D01*
X12228Y9437D02*
X12228Y1563D01*
X12228Y1563D02*
X14000Y1563D01*
X14000Y1563D02*
X15772Y1563D01*
X15772Y1563D02*
X15772Y4713D01*
G54D13*
X13000Y3000D02*
X13000Y8000D01*
X13000Y8000D02*
X15000Y8000D01*
X15000Y8000D02*
X15000Y3000D01*
X15000Y3000D02*
X13000Y3000D01*
G54D12*
X7900Y10700D02*
G75*
G03X7900Y10700I-50J0D01*
G74*
G01*
X8300Y10700D02*
X7900Y10700D01*
X7900Y10700D02*
X7900Y11300D01*
X7900Y11300D02*
X8300Y11300D01*
X8700Y11300D02*
X9100Y11300D01*
X9100Y11300D02*
X9100Y10700D01*
X9100Y10700D02*
X8700Y10700D01*
G54D14*
X8600Y16500D02*
X10500Y16500D01*
X10500Y16500D02*
X10500Y12500D01*
X10500Y12500D02*
X8600Y12500D01*
X8600Y12500D02*
X8600Y16500D01*
X9300Y12500D02*
X9300Y12750D01*
X9300Y12750D02*
X9800Y12750D01*
X9800Y12750D02*
X9800Y12500D01*
G54D12*
X9650Y9700D02*
G75*
G03X9650Y9700I-50J0D01*
G74*
G01*
X10050Y9700D02*
X9650Y9700D01*
X9650Y9700D02*
X9650Y10300D01*
X9650Y10300D02*
X10050Y10300D01*
X10450Y10300D02*
X10850Y10300D01*
X10850Y10300D02*
X10850Y9700D01*
X10850Y9700D02*
X10450Y9700D01*
X9650Y8700D02*
G75*
G03X9650Y8700I-50J0D01*
G74*
G01*
X10050Y8700D02*
X9650Y8700D01*
X9650Y8700D02*
X9650Y9300D01*
X9650Y9300D02*
X10050Y9300D01*
X10450Y9300D02*
X10850Y9300D01*
X10850Y9300D02*
X10850Y8700D01*
X10850Y8700D02*
X10450Y8700D01*
X9200Y8300D02*
G75*
G03X9200Y8300I-50J0D01*
G74*
G01*
X8700Y8300D02*
X9100Y8300D01*
X9100Y8300D02*
X9100Y7700D01*
X9100Y7700D02*
X8700Y7700D01*
X8300Y7700D02*
X7900Y7700D01*
X7900Y7700D02*
X7900Y8300D01*
X7900Y8300D02*
X8300Y8300D01*
X9200Y10300D02*
G75*
G03X9200Y10300I-50J0D01*
G74*
G01*
X8700Y10300D02*
X9100Y10300D01*
X9100Y10300D02*
X9100Y9700D01*
X9100Y9700D02*
X8700Y9700D01*
X8300Y9700D02*
X7900Y9700D01*
X7900Y9700D02*
X7900Y10300D01*
X7900Y10300D02*
X8300Y10300D01*
X9200Y9300D02*
G75*
G03X9200Y9300I-50J0D01*
G74*
G01*
X8700Y9300D02*
X9100Y9300D01*
X9100Y9300D02*
X9100Y8700D01*
X9100Y8700D02*
X8700Y8700D01*
X8300Y8700D02*
X7900Y8700D01*
X7900Y8700D02*
X7900Y9300D01*
X7900Y9300D02*
X8300Y9300D01*
G54D15*
G36*
X8172Y2032D02*
X8195Y2044D01*
X8246Y2076D01*
X8319Y2124D01*
X8406Y2182D01*
X8493Y2241D01*
X8564Y2289D01*
X8614Y2321D01*
X8635Y2332D01*
X8646Y2328D01*
X8687Y2308D01*
X8747Y2277D01*
X8782Y2259D01*
X8837Y2236D01*
X8864Y2231D01*
X8869Y2238D01*
X8889Y2280D01*
X8920Y2352D01*
X8962Y2447D01*
X9009Y2558D01*
X9060Y2678D01*
X9111Y2800D01*
X9159Y2917D01*
X9202Y3022D01*
X9236Y3107D01*
X9259Y3166D01*
X9267Y3192D01*
X9265Y3197D01*
X9237Y3224D01*
X9189Y3260D01*
X9086Y3344D01*
X8983Y3472D01*
X8921Y3617D01*
X8900Y3778D01*
X8918Y3928D01*
X8977Y4072D01*
X9077Y4201D01*
X9198Y4297D01*
X9340Y4358D01*
X9500Y4377D01*
X9653Y4360D01*
X9799Y4302D01*
X9929Y4204D01*
X9983Y4141D01*
X10058Y4010D01*
X10101Y3870D01*
X10106Y3834D01*
X10099Y3680D01*
X10054Y3533D01*
X9973Y3401D01*
X9860Y3293D01*
X9846Y3282D01*
X9793Y3243D01*
X9758Y3216D01*
X9731Y3194D01*
X9927Y2722D01*
X9958Y2647D01*
X10012Y2518D01*
X10059Y2407D01*
X10097Y2319D01*
X10123Y2260D01*
X10135Y2236D01*
X10136Y2235D01*
X10153Y2232D01*
X10189Y2245D01*
X10255Y2277D01*
X10299Y2299D01*
X10349Y2323D01*
X10371Y2332D01*
X10390Y2322D01*
X10438Y2291D01*
X10508Y2244D01*
X10593Y2186D01*
X10673Y2132D01*
X10747Y2083D01*
X10801Y2049D01*
X10827Y2035D01*
X10831Y2035D01*
X10854Y2048D01*
X10896Y2083D01*
X10961Y2144D01*
X11052Y2234D01*
X11066Y2247D01*
X11140Y2323D01*
X11201Y2387D01*
X11242Y2432D01*
X11256Y2453D01*
X11256Y2453D01*
X11243Y2479D01*
X11209Y2532D01*
X11160Y2607D01*
X11100Y2695D01*
X10944Y2922D01*
X11030Y3136D01*
X11056Y3201D01*
X11090Y3281D01*
X11115Y3338D01*
X11127Y3363D01*
X11151Y3371D01*
X11209Y3385D01*
X11294Y3403D01*
X11396Y3422D01*
X11492Y3439D01*
X11579Y3456D01*
X11643Y3468D01*
X11671Y3474D01*
X11678Y3478D01*
X11683Y3491D01*
X11687Y3521D01*
X11689Y3574D01*
X11690Y3658D01*
X11690Y3778D01*
X11690Y3791D01*
X11689Y3907D01*
X11687Y3998D01*
X11684Y4059D01*
X11680Y4082D01*
X11680Y4083D01*
X11653Y4089D01*
X11591Y4102D01*
X11504Y4119D01*
X11400Y4139D01*
X11393Y4140D01*
X11290Y4160D01*
X11203Y4178D01*
X11142Y4192D01*
X11116Y4200D01*
X11111Y4208D01*
X11090Y4248D01*
X11060Y4312D01*
X11026Y4391D01*
X10992Y4472D01*
X10963Y4545D01*
X10943Y4600D01*
X10937Y4625D01*
X10938Y4625D01*
X10953Y4650D01*
X10989Y4704D01*
X11039Y4779D01*
X11100Y4867D01*
X11104Y4873D01*
X11164Y4961D01*
X11212Y5035D01*
X11244Y5088D01*
X11256Y5112D01*
X11256Y5113D01*
X11236Y5139D01*
X11192Y5189D01*
X11128Y5256D01*
X11051Y5333D01*
X11027Y5357D01*
X10942Y5440D01*
X10882Y5495D01*
X10846Y5524D01*
X10828Y5530D01*
X10827Y5530D01*
X10801Y5514D01*
X10746Y5478D01*
X10671Y5427D01*
X10582Y5366D01*
X10576Y5362D01*
X10488Y5303D01*
X10415Y5253D01*
X10363Y5219D01*
X10341Y5205D01*
X10337Y5205D01*
X10301Y5216D01*
X10239Y5238D01*
X10162Y5267D01*
X10081Y5300D01*
X10008Y5331D01*
X9952Y5356D01*
X9926Y5371D01*
X9926Y5372D01*
X9916Y5403D01*
X9901Y5469D01*
X9883Y5559D01*
X9862Y5666D01*
X9859Y5684D01*
X9839Y5788D01*
X9822Y5874D01*
X9810Y5934D01*
X9804Y5958D01*
X9789Y5962D01*
X9738Y5966D01*
X9660Y5968D01*
X9566Y5969D01*
X9467Y5968D01*
X9370Y5966D01*
X9287Y5963D01*
X9228Y5959D01*
X9204Y5954D01*
X9203Y5953D01*
X9194Y5920D01*
X9179Y5855D01*
X9161Y5764D01*
X9140Y5656D01*
X9136Y5637D01*
X9117Y5533D01*
X9099Y5448D01*
X9087Y5389D01*
X9080Y5366D01*
X9071Y5361D01*
X9028Y5342D01*
X8958Y5313D01*
X8872Y5278D01*
X8671Y5197D01*
X8425Y5366D01*
X8402Y5381D01*
X8314Y5441D01*
X8241Y5490D01*
X8191Y5522D01*
X8170Y5534D01*
X8168Y5533D01*
X8144Y5512D01*
X8095Y5466D01*
X8028Y5401D01*
X7951Y5324D01*
X7894Y5267D01*
X7826Y5198D01*
X7783Y5152D01*
X7760Y5122D01*
X7751Y5104D01*
X7753Y5092D01*
X7769Y5067D01*
X7805Y5013D01*
X7856Y4938D01*
X7916Y4851D01*
X7965Y4779D01*
X8018Y4696D01*
X8053Y4637D01*
X8065Y4608D01*
X8062Y4596D01*
X8045Y4548D01*
X8016Y4475D01*
X7979Y4389D01*
X7893Y4194D01*
X7766Y4169D01*
X7688Y4155D01*
X7580Y4134D01*
X7477Y4114D01*
X7315Y4083D01*
X7309Y3489D01*
X7334Y3478D01*
X7358Y3472D01*
X7418Y3458D01*
X7504Y3441D01*
X7604Y3422D01*
X7690Y3406D01*
X7777Y3390D01*
X7839Y3378D01*
X7867Y3372D01*
X7874Y3363D01*
X7895Y3321D01*
X7926Y3254D01*
X7960Y3174D01*
X7995Y3091D01*
X8025Y3014D01*
X8047Y2956D01*
X8055Y2925D01*
X8043Y2903D01*
X8010Y2852D01*
X7962Y2779D01*
X7904Y2693D01*
X7845Y2607D01*
X7795Y2534D01*
X7761Y2481D01*
X7746Y2457D01*
X7753Y2440D01*
X7788Y2399D01*
X7853Y2331D01*
X7949Y2236D01*
X7965Y2221D01*
X8042Y2147D01*
X8107Y2087D01*
X8152Y2047D01*
X8172Y2032D01*
X8172Y2032D01*
G37*
G54D12*
X11220Y10898D02*
X11136Y11017D01*
X11077Y10898D02*
X11077Y11148D01*
X11172Y11148D01*
X11196Y11136D01*
X11208Y11125D01*
X11220Y11101D01*
X11220Y11065D01*
X11208Y11041D01*
X11196Y11029D01*
X11172Y11017D01*
X11077Y11017D01*
X11458Y10898D02*
X11315Y10898D01*
X11386Y10898D02*
X11386Y11148D01*
X11363Y11113D01*
X11339Y11089D01*
X11315Y11077D01*
X11613Y11148D02*
X11636Y11148D01*
X11660Y11136D01*
X11672Y11125D01*
X11684Y11101D01*
X11696Y11053D01*
X11696Y10994D01*
X11684Y10946D01*
X11672Y10922D01*
X11660Y10910D01*
X11636Y10898D01*
X11613Y10898D01*
X11589Y10910D01*
X11577Y10922D01*
X11565Y10946D01*
X11553Y10994D01*
X11553Y11053D01*
X11565Y11101D01*
X11577Y11125D01*
X11589Y11136D01*
X11613Y11148D01*
X11934Y10898D02*
X11791Y10898D01*
X11863Y10898D02*
X11863Y11148D01*
X11839Y11113D01*
X11815Y11089D01*
X11791Y11077D01*
G54D14*
X3161Y10823D02*
X2761Y10823D01*
X2761Y10976D01*
X2780Y11014D01*
X2800Y11033D01*
X2838Y11052D01*
X2895Y11052D01*
X2933Y11033D01*
X2952Y11014D01*
X2971Y10976D01*
X2971Y10823D01*
X3161Y11433D02*
X3161Y11204D01*
X3161Y11319D02*
X2761Y11319D01*
X2819Y11280D01*
X2857Y11242D01*
X2876Y11204D01*
X2761Y11680D02*
X2761Y11719D01*
X2780Y11757D01*
X2800Y11776D01*
X2838Y11795D01*
X2914Y11814D01*
X3009Y11814D01*
X3085Y11795D01*
X3123Y11776D01*
X3142Y11757D01*
X3161Y11719D01*
X3161Y11680D01*
X3142Y11642D01*
X3123Y11623D01*
X3085Y11604D01*
X3009Y11585D01*
X2914Y11585D01*
X2838Y11604D01*
X2800Y11623D01*
X2780Y11642D01*
X2761Y11680D01*
X3161Y12195D02*
X3161Y11966D01*
X3161Y12080D02*
X2761Y12080D01*
X2819Y12042D01*
X2857Y12004D01*
X2876Y11966D01*
X11996Y13323D02*
X11596Y13323D01*
X11596Y13476D01*
X11615Y13514D01*
X11635Y13533D01*
X11673Y13552D01*
X11730Y13552D01*
X11768Y13533D01*
X11787Y13514D01*
X11806Y13476D01*
X11806Y13323D01*
X11996Y13933D02*
X11996Y13704D01*
X11996Y13819D02*
X11596Y13819D01*
X11654Y13780D01*
X11692Y13742D01*
X11711Y13704D01*
X11596Y14180D02*
X11596Y14219D01*
X11615Y14257D01*
X11635Y14276D01*
X11673Y14295D01*
X11749Y14314D01*
X11844Y14314D01*
X11920Y14295D01*
X11958Y14276D01*
X11977Y14257D01*
X11996Y14219D01*
X11996Y14180D01*
X11977Y14142D01*
X11958Y14123D01*
X11920Y14104D01*
X11844Y14085D01*
X11749Y14085D01*
X11673Y14104D01*
X11635Y14123D01*
X11615Y14142D01*
X11596Y14180D01*
X11635Y14466D02*
X11615Y14485D01*
X11596Y14523D01*
X11596Y14619D01*
X11615Y14657D01*
X11635Y14676D01*
X11673Y14695D01*
X11711Y14695D01*
X11768Y14676D01*
X11996Y14447D01*
X11996Y14695D01*
X11996Y4823D02*
X11596Y4823D01*
X11596Y4976D01*
X11615Y5014D01*
X11635Y5033D01*
X11673Y5052D01*
X11730Y5052D01*
X11768Y5033D01*
X11787Y5014D01*
X11806Y4976D01*
X11806Y4823D01*
X11996Y5433D02*
X11996Y5204D01*
X11996Y5319D02*
X11596Y5319D01*
X11654Y5280D01*
X11692Y5242D01*
X11711Y5204D01*
X11596Y5680D02*
X11596Y5719D01*
X11615Y5757D01*
X11635Y5776D01*
X11673Y5795D01*
X11749Y5814D01*
X11844Y5814D01*
X11920Y5795D01*
X11958Y5776D01*
X11977Y5757D01*
X11996Y5719D01*
X11996Y5680D01*
X11977Y5642D01*
X11958Y5623D01*
X11920Y5604D01*
X11844Y5585D01*
X11749Y5585D01*
X11673Y5604D01*
X11635Y5623D01*
X11615Y5642D01*
X11596Y5680D01*
X11596Y5947D02*
X11596Y6195D01*
X11749Y6061D01*
X11749Y6119D01*
X11768Y6157D01*
X11787Y6176D01*
X11825Y6195D01*
X11920Y6195D01*
X11958Y6176D01*
X11977Y6157D01*
X11996Y6119D01*
X11996Y6004D01*
X11977Y5966D01*
X11958Y5947D01*
G54D12*
X6970Y10922D02*
X6958Y10910D01*
X6922Y10898D01*
X6898Y10898D01*
X6863Y10910D01*
X6839Y10934D01*
X6827Y10958D01*
X6815Y11005D01*
X6815Y11041D01*
X6827Y11089D01*
X6839Y11113D01*
X6863Y11136D01*
X6898Y11148D01*
X6922Y11148D01*
X6958Y11136D01*
X6970Y11125D01*
X7208Y10898D02*
X7065Y10898D01*
X7136Y10898D02*
X7136Y11148D01*
X7113Y11113D01*
X7089Y11089D01*
X7065Y11077D01*
X7363Y11148D02*
X7386Y11148D01*
X7410Y11136D01*
X7422Y11125D01*
X7434Y11101D01*
X7446Y11053D01*
X7446Y10994D01*
X7434Y10946D01*
X7422Y10922D01*
X7410Y10910D01*
X7386Y10898D01*
X7363Y10898D01*
X7339Y10910D01*
X7327Y10922D01*
X7315Y10946D01*
X7303Y10994D01*
X7303Y11053D01*
X7315Y11101D01*
X7327Y11125D01*
X7339Y11136D01*
X7363Y11148D01*
X7541Y11125D02*
X7553Y11136D01*
X7577Y11148D01*
X7636Y11148D01*
X7660Y11136D01*
X7672Y11125D01*
X7684Y11101D01*
X7684Y11077D01*
X7672Y11041D01*
X7529Y10898D01*
X7684Y10898D01*
X8761Y13728D02*
X9085Y13728D01*
X9123Y13750D01*
X9142Y13771D01*
X9161Y13814D01*
X9161Y13900D01*
X9142Y13942D01*
X9123Y13964D01*
X9085Y13985D01*
X8761Y13985D01*
X9161Y14435D02*
X9161Y14178D01*
X9161Y14307D02*
X8761Y14307D01*
X8819Y14264D01*
X8857Y14221D01*
X8876Y14178D01*
X8761Y14714D02*
X8761Y14757D01*
X8780Y14800D01*
X8800Y14821D01*
X8838Y14842D01*
X8914Y14864D01*
X9009Y14864D01*
X9085Y14842D01*
X9123Y14821D01*
X9142Y14800D01*
X9161Y14757D01*
X9161Y14714D01*
X9142Y14671D01*
X9123Y14650D01*
X9085Y14628D01*
X9009Y14607D01*
X8914Y14607D01*
X8838Y14628D01*
X8800Y14650D01*
X8780Y14671D01*
X8761Y14714D01*
X9161Y15292D02*
X9161Y15035D01*
X9161Y15164D02*
X8761Y15164D01*
X8819Y15121D01*
X8857Y15078D01*
X8876Y15035D01*
X9761Y13214D02*
X9761Y13480D01*
X10161Y13309D01*
X9895Y13804D02*
X10161Y13804D01*
X9742Y13709D02*
X10028Y13614D01*
X10028Y13861D01*
X10161Y14014D02*
X9761Y14014D01*
X9952Y14014D02*
X9952Y14242D01*
X10161Y14242D02*
X9761Y14242D01*
X10123Y14661D02*
X10142Y14642D01*
X10161Y14585D01*
X10161Y14547D01*
X10142Y14490D01*
X10104Y14452D01*
X10066Y14433D01*
X9990Y14414D01*
X9933Y14414D01*
X9857Y14433D01*
X9819Y14452D01*
X9780Y14490D01*
X9761Y14547D01*
X9761Y14585D01*
X9780Y14642D01*
X9800Y14661D01*
X9761Y14909D02*
X9761Y14947D01*
X9780Y14985D01*
X9800Y15004D01*
X9838Y15023D01*
X9914Y15042D01*
X10009Y15042D01*
X10085Y15023D01*
X10123Y15004D01*
X10142Y14985D01*
X10161Y14947D01*
X10161Y14909D01*
X10142Y14871D01*
X10123Y14852D01*
X10085Y14833D01*
X10009Y14814D01*
X9914Y14814D01*
X9838Y14833D01*
X9800Y14852D01*
X9780Y14871D01*
X9761Y14909D01*
X9761Y15176D02*
X9761Y15442D01*
X10161Y15271D01*
X10047Y15576D02*
X10047Y15766D01*
X10161Y15538D02*
X9761Y15671D01*
X10161Y15804D01*
X11220Y9898D02*
X11136Y10017D01*
X11077Y9898D02*
X11077Y10148D01*
X11172Y10148D01*
X11196Y10136D01*
X11208Y10125D01*
X11220Y10101D01*
X11220Y10065D01*
X11208Y10041D01*
X11196Y10029D01*
X11172Y10017D01*
X11077Y10017D01*
X11458Y9898D02*
X11315Y9898D01*
X11386Y9898D02*
X11386Y10148D01*
X11363Y10113D01*
X11339Y10089D01*
X11315Y10077D01*
X11613Y10148D02*
X11636Y10148D01*
X11660Y10136D01*
X11672Y10125D01*
X11684Y10101D01*
X11696Y10053D01*
X11696Y9994D01*
X11684Y9946D01*
X11672Y9922D01*
X11660Y9910D01*
X11636Y9898D01*
X11613Y9898D01*
X11589Y9910D01*
X11577Y9922D01*
X11565Y9946D01*
X11553Y9994D01*
X11553Y10053D01*
X11565Y10101D01*
X11577Y10125D01*
X11589Y10136D01*
X11613Y10148D01*
X11791Y10125D02*
X11803Y10136D01*
X11827Y10148D01*
X11886Y10148D01*
X11910Y10136D01*
X11922Y10125D01*
X11934Y10101D01*
X11934Y10077D01*
X11922Y10041D01*
X11779Y9898D01*
X11934Y9898D01*
X11220Y8648D02*
X11136Y8767D01*
X11077Y8648D02*
X11077Y8898D01*
X11172Y8898D01*
X11196Y8886D01*
X11208Y8875D01*
X11220Y8851D01*
X11220Y8815D01*
X11208Y8791D01*
X11196Y8779D01*
X11172Y8767D01*
X11077Y8767D01*
X11458Y8648D02*
X11315Y8648D01*
X11386Y8648D02*
X11386Y8898D01*
X11363Y8863D01*
X11339Y8839D01*
X11315Y8827D01*
X11613Y8898D02*
X11636Y8898D01*
X11660Y8886D01*
X11672Y8875D01*
X11684Y8851D01*
X11696Y8803D01*
X11696Y8744D01*
X11684Y8696D01*
X11672Y8672D01*
X11660Y8660D01*
X11636Y8648D01*
X11613Y8648D01*
X11589Y8660D01*
X11577Y8672D01*
X11565Y8696D01*
X11553Y8744D01*
X11553Y8803D01*
X11565Y8851D01*
X11577Y8875D01*
X11589Y8886D01*
X11613Y8898D01*
X11779Y8898D02*
X11934Y8898D01*
X11851Y8803D01*
X11886Y8803D01*
X11910Y8791D01*
X11922Y8779D01*
X11934Y8755D01*
X11934Y8696D01*
X11922Y8672D01*
X11910Y8660D01*
X11886Y8648D01*
X11815Y8648D01*
X11791Y8660D01*
X11779Y8672D01*
X6970Y7898D02*
X6886Y8017D01*
X6827Y7898D02*
X6827Y8148D01*
X6922Y8148D01*
X6946Y8136D01*
X6958Y8125D01*
X6970Y8101D01*
X6970Y8065D01*
X6958Y8041D01*
X6946Y8029D01*
X6922Y8017D01*
X6827Y8017D01*
X7208Y7898D02*
X7065Y7898D01*
X7136Y7898D02*
X7136Y8148D01*
X7113Y8113D01*
X7089Y8089D01*
X7065Y8077D01*
X7363Y8148D02*
X7386Y8148D01*
X7410Y8136D01*
X7422Y8125D01*
X7434Y8101D01*
X7446Y8053D01*
X7446Y7994D01*
X7434Y7946D01*
X7422Y7922D01*
X7410Y7910D01*
X7386Y7898D01*
X7363Y7898D01*
X7339Y7910D01*
X7327Y7922D01*
X7315Y7946D01*
X7303Y7994D01*
X7303Y8053D01*
X7315Y8101D01*
X7327Y8125D01*
X7339Y8136D01*
X7363Y8148D01*
X7660Y8065D02*
X7660Y7898D01*
X7601Y8160D02*
X7541Y7982D01*
X7696Y7982D01*
X6970Y9898D02*
X6886Y10017D01*
X6827Y9898D02*
X6827Y10148D01*
X6922Y10148D01*
X6946Y10136D01*
X6958Y10125D01*
X6970Y10101D01*
X6970Y10065D01*
X6958Y10041D01*
X6946Y10029D01*
X6922Y10017D01*
X6827Y10017D01*
X7208Y9898D02*
X7065Y9898D01*
X7136Y9898D02*
X7136Y10148D01*
X7113Y10113D01*
X7089Y10089D01*
X7065Y10077D01*
X7363Y10148D02*
X7386Y10148D01*
X7410Y10136D01*
X7422Y10125D01*
X7434Y10101D01*
X7446Y10053D01*
X7446Y9994D01*
X7434Y9946D01*
X7422Y9922D01*
X7410Y9910D01*
X7386Y9898D01*
X7363Y9898D01*
X7339Y9910D01*
X7327Y9922D01*
X7315Y9946D01*
X7303Y9994D01*
X7303Y10053D01*
X7315Y10101D01*
X7327Y10125D01*
X7339Y10136D01*
X7363Y10148D01*
X7672Y10148D02*
X7553Y10148D01*
X7541Y10029D01*
X7553Y10041D01*
X7577Y10053D01*
X7636Y10053D01*
X7660Y10041D01*
X7672Y10029D01*
X7684Y10005D01*
X7684Y9946D01*
X7672Y9922D01*
X7660Y9910D01*
X7636Y9898D01*
X7577Y9898D01*
X7553Y9910D01*
X7541Y9922D01*
X6970Y8898D02*
X6886Y9017D01*
X6827Y8898D02*
X6827Y9148D01*
X6922Y9148D01*
X6946Y9136D01*
X6958Y9125D01*
X6970Y9101D01*
X6970Y9065D01*
X6958Y9041D01*
X6946Y9029D01*
X6922Y9017D01*
X6827Y9017D01*
X7208Y8898D02*
X7065Y8898D01*
X7136Y8898D02*
X7136Y9148D01*
X7113Y9113D01*
X7089Y9089D01*
X7065Y9077D01*
X7363Y9148D02*
X7386Y9148D01*
X7410Y9136D01*
X7422Y9125D01*
X7434Y9101D01*
X7446Y9053D01*
X7446Y8994D01*
X7434Y8946D01*
X7422Y8922D01*
X7410Y8910D01*
X7386Y8898D01*
X7363Y8898D01*
X7339Y8910D01*
X7327Y8922D01*
X7315Y8946D01*
X7303Y8994D01*
X7303Y9053D01*
X7315Y9101D01*
X7327Y9125D01*
X7339Y9136D01*
X7363Y9148D01*
X7660Y9148D02*
X7613Y9148D01*
X7589Y9136D01*
X7577Y9125D01*
X7553Y9089D01*
X7541Y9041D01*
X7541Y8946D01*
X7553Y8922D01*
X7565Y8910D01*
X7589Y8898D01*
X7636Y8898D01*
X7660Y8910D01*
X7672Y8922D01*
X7684Y8946D01*
X7684Y9005D01*
X7672Y9029D01*
X7660Y9041D01*
X7636Y9053D01*
X7589Y9053D01*
X7565Y9041D01*
X7553Y9029D01*
X7541Y9005D01*
G54D13*
X7360Y489D02*
X7360Y1089D01*
X7617Y489D02*
X7617Y803D01*
X7588Y860D01*
X7531Y889D01*
X7446Y889D01*
X7388Y860D01*
X7360Y832D01*
X8160Y489D02*
X8160Y803D01*
X8131Y860D01*
X8074Y889D01*
X7960Y889D01*
X7903Y860D01*
X8160Y517D02*
X8103Y489D01*
X7960Y489D01*
X7903Y517D01*
X7874Y574D01*
X7874Y632D01*
X7903Y689D01*
X7960Y717D01*
X8103Y717D01*
X8160Y746D01*
X8446Y489D02*
X8446Y889D01*
X8446Y774D02*
X8474Y832D01*
X8503Y860D01*
X8560Y889D01*
X8617Y889D01*
X9074Y489D02*
X9074Y1089D01*
X9074Y517D02*
X9017Y489D01*
X8903Y489D01*
X8846Y517D01*
X8817Y546D01*
X8788Y603D01*
X8788Y774D01*
X8817Y832D01*
X8846Y860D01*
X8903Y889D01*
X9017Y889D01*
X9074Y860D01*
X9303Y889D02*
X9417Y489D01*
X9531Y774D01*
X9646Y489D01*
X9760Y889D01*
X10246Y489D02*
X10246Y803D01*
X10217Y860D01*
X10160Y889D01*
X10046Y889D01*
X9988Y860D01*
X10246Y517D02*
X10188Y489D01*
X10046Y489D01*
X9988Y517D01*
X9960Y574D01*
X9960Y632D01*
X9988Y689D01*
X10046Y717D01*
X10188Y717D01*
X10246Y746D01*
X10531Y489D02*
X10531Y889D01*
X10531Y774D02*
X10560Y832D01*
X10588Y860D01*
X10646Y889D01*
X10703Y889D01*
X11131Y517D02*
X11074Y489D01*
X10960Y489D01*
X10903Y517D01*
X10874Y574D01*
X10874Y803D01*
X10903Y860D01*
X10960Y889D01*
X11074Y889D01*
X11131Y860D01*
X11160Y803D01*
X11160Y746D01*
X10874Y689D01*
X6903Y1316D02*
X6846Y1344D01*
X6818Y1373D01*
X6789Y1430D01*
X6789Y1601D01*
X6818Y1659D01*
X6846Y1687D01*
X6903Y1716D01*
X6989Y1716D01*
X7046Y1687D01*
X7075Y1659D01*
X7103Y1601D01*
X7103Y1430D01*
X7075Y1373D01*
X7046Y1344D01*
X6989Y1316D01*
X6903Y1316D01*
X7361Y1716D02*
X7361Y1116D01*
X7361Y1687D02*
X7418Y1716D01*
X7532Y1716D01*
X7589Y1687D01*
X7618Y1659D01*
X7646Y1601D01*
X7646Y1430D01*
X7618Y1373D01*
X7589Y1344D01*
X7532Y1316D01*
X7418Y1316D01*
X7361Y1344D01*
X8132Y1344D02*
X8075Y1316D01*
X7961Y1316D01*
X7903Y1344D01*
X7875Y1401D01*
X7875Y1630D01*
X7903Y1687D01*
X7961Y1716D01*
X8075Y1716D01*
X8132Y1687D01*
X8161Y1630D01*
X8161Y1573D01*
X7875Y1516D01*
X8418Y1716D02*
X8418Y1316D01*
X8418Y1659D02*
X8446Y1687D01*
X8503Y1716D01*
X8589Y1716D01*
X8646Y1687D01*
X8675Y1630D01*
X8675Y1316D01*
X9389Y1344D02*
X9446Y1316D01*
X9561Y1316D01*
X9618Y1344D01*
X9646Y1401D01*
X9646Y1430D01*
X9618Y1487D01*
X9561Y1516D01*
X9475Y1516D01*
X9418Y1544D01*
X9389Y1601D01*
X9389Y1630D01*
X9418Y1687D01*
X9475Y1716D01*
X9561Y1716D01*
X9618Y1687D01*
X9989Y1316D02*
X9932Y1344D01*
X9903Y1373D01*
X9875Y1430D01*
X9875Y1601D01*
X9903Y1659D01*
X9932Y1687D01*
X9989Y1716D01*
X10075Y1716D01*
X10132Y1687D01*
X10161Y1659D01*
X10189Y1601D01*
X10189Y1430D01*
X10161Y1373D01*
X10132Y1344D01*
X10075Y1316D01*
X9989Y1316D01*
X10703Y1716D02*
X10703Y1316D01*
X10446Y1716D02*
X10446Y1401D01*
X10475Y1344D01*
X10532Y1316D01*
X10618Y1316D01*
X10675Y1344D01*
X10703Y1373D01*
X10989Y1316D02*
X10989Y1716D01*
X10989Y1601D02*
X11018Y1659D01*
X11046Y1687D01*
X11103Y1716D01*
X11161Y1716D01*
X11618Y1344D02*
X11561Y1316D01*
X11446Y1316D01*
X11389Y1344D01*
X11361Y1373D01*
X11332Y1430D01*
X11332Y1601D01*
X11361Y1659D01*
X11389Y1687D01*
X11446Y1716D01*
X11561Y1716D01*
X11618Y1687D01*
X12103Y1344D02*
X12046Y1316D01*
X11932Y1316D01*
X11875Y1344D01*
X11846Y1401D01*
X11846Y1630D01*
X11875Y1687D01*
X11932Y1716D01*
X12046Y1716D01*
X12103Y1687D01*
X12132Y1630D01*
X12132Y1573D01*
X11846Y1516D01*
M02*
