G04 (created by PCBNEW (2013-07-07 BZR 4022)-stable) date 07/10/2013 19:16:43*
%MOIN*%
G04 Gerber Fmt 3.4, Leading zero omitted, Abs format*
%FSLAX34Y34*%
G01*
G70*
G90*
G04 APERTURE LIST*
%ADD10C,0.00590551*%
%ADD11R,0.0866X0.06*%
%ADD12O,0.0866X0.06*%
%ADD13R,0.06X0.06*%
%ADD14C,0.06*%
%ADD15R,0.0787X0.06*%
%ADD16O,0.0787X0.06*%
%ADD17C,0.035*%
%ADD18C,0.01*%
G04 APERTURE END LIST*
G54D10*
G54D11*
X6000Y1000D03*
G54D12*
X6000Y2000D03*
X6000Y3000D03*
X6000Y4000D03*
X6000Y5000D03*
X6000Y6000D03*
X6000Y7000D03*
X6000Y8000D03*
X6000Y9000D03*
X6000Y10000D03*
X6000Y11000D03*
X6000Y12000D03*
X6000Y13000D03*
X6000Y14000D03*
X6000Y15000D03*
X6000Y16000D03*
X6000Y17000D03*
X6000Y18000D03*
G54D13*
X13500Y16000D03*
G54D14*
X14500Y16000D03*
X13500Y15000D03*
X14500Y15000D03*
X13500Y14000D03*
X14500Y14000D03*
X13500Y13000D03*
X14500Y13000D03*
X13500Y12000D03*
X14500Y12000D03*
G54D13*
X13500Y7500D03*
G54D14*
X14500Y7500D03*
X13500Y6500D03*
X14500Y6500D03*
X13500Y5500D03*
X14500Y5500D03*
X13500Y4500D03*
X14500Y4500D03*
X13500Y3500D03*
X14500Y3500D03*
G54D15*
X902Y13000D03*
G54D16*
X2098Y13000D03*
X902Y12000D03*
X2098Y12000D03*
X902Y11000D03*
X2098Y11000D03*
X902Y10000D03*
X2098Y10000D03*
X902Y9000D03*
X2098Y9000D03*
X902Y8000D03*
X2098Y8000D03*
G54D17*
X9875Y13313D03*
X11479Y14156D03*
X7796Y13660D03*
X7062Y13460D03*
X11268Y7663D03*
X10290Y14949D03*
X10179Y14458D03*
X10763Y12619D03*
X6802Y12313D03*
G54D18*
X14000Y12500D02*
X14500Y12000D01*
X12582Y12500D02*
X14000Y12500D01*
X11769Y13313D02*
X12582Y12500D01*
X9875Y13313D02*
X11769Y13313D01*
X9687Y13125D02*
X9875Y13313D01*
X6857Y13125D02*
X9687Y13125D01*
X6523Y13459D02*
X6857Y13125D01*
X1459Y13459D02*
X6523Y13459D01*
X1000Y13000D02*
X1459Y13459D01*
X12636Y13000D02*
X11479Y14156D01*
X13500Y13000D02*
X12636Y13000D01*
X14049Y14549D02*
X14500Y15000D01*
X11412Y14549D02*
X14049Y14549D01*
X10523Y13660D02*
X11412Y14549D01*
X7796Y13660D02*
X10523Y13660D01*
X7693Y14091D02*
X7062Y13460D01*
X10384Y14091D02*
X7693Y14091D01*
X12293Y16000D02*
X10384Y14091D01*
X13500Y16000D02*
X12293Y16000D01*
X6000Y11000D02*
X6583Y11000D01*
X11593Y7406D02*
X13500Y5500D01*
X11593Y7797D02*
X11593Y7406D01*
X8391Y11000D02*
X11593Y7797D01*
X6583Y11000D02*
X8391Y11000D01*
X6769Y11813D02*
X6583Y12000D01*
X8186Y11813D02*
X6769Y11813D01*
X13500Y6500D02*
X8186Y11813D01*
X6000Y12000D02*
X6583Y12000D01*
X8931Y10000D02*
X11268Y7663D01*
X6000Y10000D02*
X8931Y10000D01*
X5760Y2450D02*
X6000Y2450D01*
X5214Y2995D02*
X5760Y2450D01*
X5214Y6523D02*
X5214Y2995D01*
X4394Y7343D02*
X5214Y6523D01*
X4267Y7343D02*
X4394Y7343D01*
X3110Y8500D02*
X4267Y7343D01*
X1860Y8500D02*
X3110Y8500D01*
X1549Y8810D02*
X1860Y8500D01*
X1549Y9450D02*
X1549Y8810D01*
X1000Y10000D02*
X1549Y9450D01*
X6000Y2000D02*
X6000Y2450D01*
X6000Y15000D02*
X6583Y15000D01*
X6633Y14949D02*
X10290Y14949D01*
X6583Y15000D02*
X6633Y14949D01*
X6008Y14458D02*
X6000Y14450D01*
X10179Y14458D02*
X6008Y14458D01*
X6000Y14000D02*
X6000Y14450D01*
X6000Y13000D02*
X6583Y13000D01*
X10483Y12898D02*
X10763Y12619D01*
X6684Y12898D02*
X10483Y12898D01*
X6583Y13000D02*
X6684Y12898D01*
X6450Y6549D02*
X6000Y6549D01*
X8951Y4048D02*
X6450Y6549D01*
X14048Y4048D02*
X8951Y4048D01*
X14500Y4500D02*
X14048Y4048D01*
X6000Y7000D02*
X6000Y6549D01*
X1000Y11000D02*
X1445Y11000D01*
X14049Y7049D02*
X14500Y7500D01*
X14049Y6373D02*
X14049Y7049D01*
X13706Y6029D02*
X14049Y6373D01*
X13333Y6029D02*
X13706Y6029D01*
X11955Y7407D02*
X13333Y6029D01*
X11955Y7718D02*
X11955Y7407D01*
X8205Y11468D02*
X11955Y7718D01*
X1821Y11468D02*
X8205Y11468D01*
X1445Y11093D02*
X1821Y11468D01*
X1445Y11000D02*
X1445Y11093D01*
X2000Y11000D02*
X2000Y10549D01*
X14000Y6000D02*
X14500Y6500D01*
X14000Y5359D02*
X14000Y6000D01*
X13676Y5035D02*
X14000Y5359D01*
X11404Y5035D02*
X13676Y5035D01*
X6939Y9500D02*
X11404Y5035D01*
X3500Y9500D02*
X6939Y9500D01*
X2450Y10549D02*
X3500Y9500D01*
X2000Y10549D02*
X2450Y10549D01*
X2000Y13000D02*
X1554Y13000D01*
X1554Y11914D02*
X1554Y13000D01*
X1140Y11500D02*
X1554Y11914D01*
X659Y11500D02*
X1140Y11500D01*
X348Y11189D02*
X659Y11500D01*
X348Y10823D02*
X348Y11189D01*
X622Y10549D02*
X348Y10823D01*
X1107Y10549D02*
X622Y10549D01*
X1500Y10157D02*
X1107Y10549D01*
X1500Y9853D02*
X1500Y10157D01*
X1803Y9549D02*
X1500Y9853D01*
X2344Y9549D02*
X1803Y9549D01*
X3366Y8527D02*
X2344Y9549D01*
X6571Y8527D02*
X3366Y8527D01*
X10598Y4500D02*
X6571Y8527D01*
X13500Y4500D02*
X10598Y4500D01*
X2000Y12000D02*
X2000Y12450D01*
X14951Y5951D02*
X14500Y5500D01*
X14951Y7685D02*
X14951Y5951D01*
X9997Y12639D02*
X14951Y7685D01*
X6645Y12639D02*
X9997Y12639D01*
X6456Y12450D02*
X6645Y12639D01*
X2000Y12450D02*
X6456Y12450D01*
X8235Y12313D02*
X13049Y7500D01*
X6802Y12313D02*
X8235Y12313D01*
X13500Y7500D02*
X13049Y7500D01*
M02*
