G04 (created by PCBNEW (2013-07-07 BZR 4022)-stable) date 29/09/2013 00:43:05*
%MOIN*%
G04 Gerber Fmt 3.4, Leading zero omitted, Abs format*
%FSLAX34Y34*%
G01*
G70*
G90*
G04 APERTURE LIST*
%ADD10C,0.00590551*%
%ADD11R,0.050748X0.070748*%
%ADD12R,0.094448X0.075748*%
%ADD13O,0.094448X0.075748*%
%ADD14R,0.102348X0.075748*%
%ADD15O,0.102348X0.075748*%
%ADD16R,0.075748X0.075748*%
%ADD17C,0.075748*%
%ADD18R,0.060748X0.035748*%
G04 APERTURE END LIST*
G54D10*
G54D11*
X9875Y11000D03*
X10625Y11000D03*
G54D12*
X902Y13000D03*
G54D13*
X2098Y13000D03*
X902Y12000D03*
X2098Y12000D03*
X902Y11000D03*
X2098Y11000D03*
X902Y10000D03*
X2098Y10000D03*
G54D14*
X6000Y1000D03*
G54D15*
X6000Y2000D03*
X6000Y3000D03*
X6000Y4000D03*
X6000Y5000D03*
X6000Y6000D03*
X6000Y7000D03*
X6000Y8000D03*
X6000Y9000D03*
X6000Y10000D03*
X6000Y11000D03*
X6000Y12000D03*
X6000Y13000D03*
X6000Y14000D03*
X6000Y15000D03*
X6000Y16000D03*
X6000Y17000D03*
X6000Y18000D03*
G54D16*
X14500Y12000D03*
G54D17*
X13500Y12000D03*
X14500Y13000D03*
X13500Y13000D03*
X14500Y14000D03*
X13500Y14000D03*
X14500Y15000D03*
X13500Y15000D03*
X14500Y16000D03*
X13500Y16000D03*
G54D16*
X14500Y3500D03*
G54D17*
X13500Y3500D03*
X14500Y4500D03*
X13500Y4500D03*
X14500Y5500D03*
X13500Y5500D03*
X14500Y6500D03*
X13500Y6500D03*
X14500Y7500D03*
X13500Y7500D03*
G54D11*
X8125Y11000D03*
X8875Y11000D03*
G54D18*
X10800Y13000D03*
X10800Y13500D03*
X10800Y14000D03*
X10800Y14500D03*
X10800Y15000D03*
X10800Y15500D03*
X10800Y16000D03*
X8300Y16000D03*
X8300Y15500D03*
X8300Y14500D03*
X8300Y14000D03*
X8300Y13500D03*
X8300Y13000D03*
X8300Y15000D03*
G54D11*
X9875Y10000D03*
X10625Y10000D03*
X9875Y9000D03*
X10625Y9000D03*
X8875Y8000D03*
X8125Y8000D03*
X8875Y10000D03*
X8125Y10000D03*
X8875Y9000D03*
X8125Y9000D03*
M02*
