M48
INCH,TZ
T1C0.025
T2C0.039
T3C0.040
%
G90
G05
T1
X8875Y11859
X9550Y13457
X10284Y13939
X10290Y12975
X10294Y15000
T2
X1000Y13000
X1000Y12000
X1000Y11000
X1000Y10000
X2000Y13000
X2000Y12000
X2000Y11000
X2000Y10000
X6000Y18000
X6000Y17000
X6000Y16000
X6000Y15000
X6000Y14000
X6000Y13000
X6000Y12000
X6000Y11000
X6000Y10000
X6000Y9000
X6000Y8000
X6000Y7000
X6000Y6000
X6000Y5000
X6000Y4000
X6000Y3000
X6000Y2000
X6000Y1000
T3
X13500Y16000
X13500Y15000
X13500Y14000
X13500Y13000
X13500Y12000
X13500Y7500
X13500Y6500
X13500Y5500
X13500Y4500
X13500Y3500
X14500Y16000
X14500Y15000
X14500Y14000
X14500Y13000
X14500Y12000
X14500Y7500
X14500Y6500
X14500Y5500
X14500Y4500
X14500Y3500
T0
M30
