M48
METRIC,TZ
T1C0.305
T2C0.635
T3C0.762
T4C1.016
T5C3.099
%
G90
G05
T1
X81.75Y-100.415
X83.016Y-78.068
X85.764Y-63.836
X89.841Y-34.327
X90.232Y-102.76
X91.63Y-93.117
X92.373Y-121.314
X92.552Y-81.816
X92.632Y-113.363
X95.135Y-123.665
X96.285Y-95.764
X96.355Y-55.207
X96.355Y-70.776
X96.355Y-103.973
X96.441Y-85.191
X96.749Y-90.065
X97.127Y-95.301
X98.177Y-51.467
X98.763Y-94.558
X98.895Y-35.511
X98.895Y-74.927
X98.895Y-114.259
X99.681Y-32.132
X99.853Y-110.874
X100.304Y-95.262
X100.33Y-119.09
X101.31Y-109.745
X101.37Y-31.138
X101.435Y-37.327
X101.627Y-52.042
X102.705Y-52.042
X102.705Y-84.334
X102.842Y-79.806
X103.482Y-94.587
X103.975Y-97.686
X104.641Y-79.107
X104.699Y-37.236
X106.252Y-36.963
X106.329Y-71.677
X106.515Y-111.083
X106.541Y-32.352
X107.311Y-49.635
X107.85Y-37.168
X108.305Y-80.937
X108.733Y-94.231
X108.763Y-30.429
X108.981Y-55.072
X109.14Y-113.426
X110.841Y-115.638
X111.76Y-49.635
X112.853Y-72.176
X116.136Y-111.96
X128.317Y-107.269
X134.673Y-83.891
X144.486Y-74.587
T2
X82.94Y-76.896
X83.524Y-59.146
X83.561Y-39.584
X86.71Y-94.716
X86.889Y-99.589
T3
X69.05Y-31.01
X69.05Y-46.25
X69.05Y-50.695
X69.05Y-65.935
X69.05Y-70.38
X69.05Y-85.62
X69.05Y-90.065
X69.05Y-105.305
X69.05Y-109.75
X69.05Y-124.99
X71.59Y-31.01
X71.59Y-46.25
X71.59Y-50.695
X71.59Y-65.935
X71.59Y-70.38
X71.59Y-85.62
X71.59Y-90.065
X71.59Y-105.305
X71.59Y-109.75
X71.59Y-124.99
X74.13Y-31.01
X74.13Y-46.25
X74.13Y-50.695
X74.13Y-65.935
X74.13Y-70.38
X74.13Y-85.62
X74.13Y-90.065
X74.13Y-105.305
X74.13Y-109.75
X74.13Y-124.99
X76.67Y-31.01
X76.67Y-46.25
X76.67Y-50.695
X76.67Y-65.935
X76.67Y-70.38
X76.67Y-85.62
X76.67Y-90.065
X76.67Y-105.305
X76.67Y-109.75
X76.67Y-124.99
X79.21Y-31.01
X79.21Y-46.25
X79.21Y-50.695
X79.21Y-65.935
X79.21Y-70.38
X79.21Y-85.62
X79.21Y-90.065
X79.21Y-105.305
X79.21Y-109.75
X79.21Y-124.99
X81.75Y-31.01
X81.75Y-46.25
X81.75Y-50.695
X81.75Y-65.935
X81.75Y-70.38
X81.75Y-85.62
X81.75Y-90.065
X81.75Y-105.305
X81.75Y-109.75
X81.75Y-124.99
X119.85Y-31.01
X119.85Y-46.25
X119.85Y-50.695
X119.85Y-65.935
X119.85Y-70.38
X119.85Y-85.62
X119.85Y-90.065
X119.85Y-105.305
X119.85Y-109.75
X119.85Y-124.99
X122.39Y-31.01
X122.39Y-46.25
X122.39Y-50.695
X122.39Y-65.935
X122.39Y-70.38
X122.39Y-85.62
X122.39Y-90.065
X122.39Y-105.305
X122.39Y-109.75
X122.39Y-124.99
X124.93Y-31.01
X124.93Y-46.25
X124.93Y-50.695
X124.93Y-65.935
X124.93Y-70.38
X124.93Y-85.62
X124.93Y-90.065
X124.93Y-105.305
X124.93Y-109.75
X124.93Y-124.99
X127.47Y-31.01
X127.47Y-46.25
X127.47Y-50.695
X127.47Y-65.935
X127.47Y-70.38
X127.47Y-85.62
X127.47Y-90.065
X127.47Y-105.305
X127.47Y-109.75
X127.47Y-124.99
X130.01Y-31.01
X130.01Y-46.25
X130.01Y-50.695
X130.01Y-65.935
X130.01Y-70.38
X130.01Y-85.62
X130.01Y-90.065
X130.01Y-105.305
X130.01Y-109.75
X130.01Y-124.99
X132.55Y-31.01
X132.55Y-46.25
X132.55Y-50.695
X132.55Y-65.935
X132.55Y-70.38
X132.55Y-85.62
X132.55Y-90.065
X132.55Y-105.305
X132.55Y-109.75
X132.55Y-124.99
T4
X52.54Y-72.92
X52.54Y-75.46
X52.54Y-78.
X52.54Y-80.54
X52.54Y-83.08
X149.06Y-72.92
X149.06Y-75.46
X149.06Y-78.
X149.06Y-80.54
X149.06Y-83.08
T5
X60.8Y-38.
X60.8Y-118.
X140.8Y-38.
X140.8Y-118.
T0
M30
